<svg width="325" height="395" viewBox="0 0 325 395" fill="none" xmlns="http://www.w3.org/2000/svg">
<path d="M325 387L311.778 379.366V394.634L325 387ZM313.1 385.678H28.4435V388.322H313.1V385.678ZM3.32218 360.556V64.7863H0.677824V360.556H3.32218ZM28.4435 39.6649H160V37.0206H28.4435V39.6649ZM28.4435 385.678C14.5694 385.678 3.32218 374.431 3.32218 360.556H0.677824C0.677824 375.891 13.1089 388.322 28.4435 388.322V385.678ZM3.32218 64.7863C3.32218 50.9122 14.5694 39.6649 28.4435 39.6649V37.0206C13.1089 37.0206 0.677824 49.4517 0.677824 64.7863H3.32218Z" fill="url(#paint0_linear_2433_4673)"/>
<circle cx="165.243" cy="50.2427" r="50.2427" fill="url(#paint1_linear_2433_4673)"/>
<defs>
<linearGradient id="paint0_linear_2433_4673" x1="229.718" y1="25.0939" x2="390.178" y2="218.452" gradientUnits="userSpaceOnUse">
<stop stop-color="#18C8FF"/>
<stop offset="1" stop-color="#C608FF"/>
</linearGradient>
<linearGradient id="paint1_linear_2433_4673" x1="185.843" y1="-3.81843" x2="231.314" y2="55.3281" gradientUnits="userSpaceOnUse">
<stop stop-color="#18C8FF"/>
<stop offset="1" stop-color="#C608FF"/>
</linearGradient>
</defs>
</svg>
