<svg width="75" height="75" viewBox="0 0 75 75" fill="none" xmlns="http://www.w3.org/2000/svg">
<g id="Increases Website Traffic 1">
<path id="Vector" d="M46.44 68.5727C46.1325 68.7452 45.9 68.8652 45.675 69.0002C43.8 70.0877 41.88 69.6002 40.7925 67.7402C39.96 66.3152 39.1275 64.8827 38.3175 63.4427C37.26 61.5752 37.77 59.7377 39.63 58.6427C39.8775 58.4927 40.125 58.3427 40.4175 58.1552C39.5475 57.5177 38.7375 57.0677 37.65 57.1502C36.3525 57.2552 35.0475 57.1727 33.7425 57.1802C33.69 57.1802 33.6375 57.2102 33.5475 57.2402C34.395 61.7777 33.2475 65.7902 30.0825 69.1427C27.555 71.8202 24.345 73.0802 20.6925 73.0652C12.3825 73.0202 6.35998 65.4152 7.97998 57.2327C7.34248 57.1727 6.69748 57.1802 6.07498 57.0527C3.61498 56.5352 1.93498 54.5477 1.88248 52.0427C1.83748 49.9802 1.86748 47.9102 1.86748 45.8477C1.86748 35.6627 1.86748 25.4702 1.86748 15.2852C1.86748 12.8177 1.98748 10.3352 1.83748 7.87518C1.62748 4.28268 4.22998 1.79268 7.85998 1.80768C26.4675 1.89018 45.075 1.84518 63.6825 1.84518C65.0925 1.84518 66.51 1.81518 67.92 1.86768C70.8225 1.98018 72.96 4.13268 73.0125 7.04268C73.065 9.62268 73.0275 12.2027 73.0275 14.7752C73.0275 27.0302 73.0275 39.2777 73.0275 51.5327C73.0275 54.4352 71.4075 56.5202 68.7525 57.0677C68.385 57.1427 67.995 57.1877 67.62 57.1502C66.48 57.0302 65.4825 57.3077 64.5975 58.1252C64.8075 58.4477 65.22 58.5527 65.5425 58.7552C67.1175 59.7602 67.635 61.5827 66.735 63.2252C65.9175 64.7252 65.0475 66.1952 64.185 67.6652C63.06 69.5927 61.215 70.0727 59.2575 68.9627C59.0325 68.8352 58.8 68.7077 58.485 68.5277C58.485 69.0077 58.485 69.3752 58.485 69.7427C58.4475 71.5202 57.1575 72.9227 55.3875 72.9827C53.5125 73.0502 51.6375 73.0427 49.7625 72.9977C47.7975 72.9527 46.5 71.5802 46.455 69.6077C46.455 69.2852 46.455 68.9627 46.455 68.5577L46.44 68.5727ZM4.04248 14.7002V15.6752C4.04248 26.4302 4.04248 37.1852 4.04248 47.9402C4.04248 49.2152 4.02748 50.4902 4.04248 51.7727C4.06498 53.5877 5.24998 54.8327 7.06498 54.9527C7.43998 54.9752 7.82998 54.9452 8.20498 54.9752C8.58748 55.0052 8.76748 54.8477 8.93998 54.5102C11.385 49.6727 15.3225 46.9877 20.745 46.9877C26.16 46.9877 30.12 49.6277 32.58 54.4727C32.685 54.6752 32.7225 54.9602 33.0525 54.9602C34.6125 54.9602 36.1725 54.9602 37.755 54.9602C37.755 54.2252 37.8675 53.6177 38.1825 53.0627C39.0825 51.4877 39.96 49.8977 40.8975 48.3452C41.865 46.7327 43.7625 46.2527 45.435 47.1377C45.7575 47.3102 46.08 47.4902 46.5225 47.7302C46.5225 47.1227 46.485 46.6427 46.5225 46.1627C46.6575 44.5952 47.88 43.3277 49.4325 43.2827C51.4425 43.2152 53.4525 43.2152 55.4625 43.2827C57.12 43.3352 58.3875 44.7077 58.455 46.3652C58.47 46.7852 58.455 47.2127 58.455 47.7227C58.755 47.5652 58.965 47.4602 59.175 47.3402C61.2225 46.1702 63.0225 46.6502 64.2075 48.6752C64.8375 49.7477 65.4675 50.8277 66.075 51.9152C66.6 52.8527 67.275 53.7377 67.1625 54.8852C69.3225 55.2002 70.8225 53.8127 70.83 51.5552C70.83 39.5252 70.83 27.4877 70.83 15.4577C70.83 15.2252 70.8975 14.9702 70.7325 14.7077H4.04248V14.7002ZM12.195 66.4652C17.94 62.3027 23.6475 62.3327 29.3775 66.4877C32.8425 62.2352 32.175 55.5377 27.8925 51.8327C23.4525 47.9852 16.8225 48.3527 12.84 52.6052C8.89498 56.8202 9.27748 63.1652 12.1875 66.4652H12.195ZM59.295 58.1477C59.295 54.3977 56.22 51.3152 52.4625 51.3152C48.75 51.3152 45.69 54.3602 45.66 58.0952C45.63 61.8377 48.72 64.9652 52.455 64.9727C56.1975 64.9727 59.295 61.8977 59.295 58.1477ZM18.6525 7.41018C18.0825 7.41018 17.5125 7.41018 16.9425 7.41018C16.395 7.41018 16.0575 7.67268 16.065 8.24268C16.065 8.76768 16.395 9.05268 16.89 9.06018C18.0825 9.08268 19.275 9.09018 20.4675 9.06018C20.9625 9.04518 21.285 8.72268 21.2775 8.22018C21.2775 7.71768 20.955 7.42518 20.4375 7.41768C19.8375 7.40268 19.245 7.41768 18.645 7.41768L18.6525 7.41018ZM10.0125 7.40268C9.47248 7.40268 8.93248 7.40268 8.39248 7.40268C7.85998 7.39518 7.47748 7.59768 7.45498 8.16768C7.43248 8.76768 7.79998 9.05268 8.36998 9.06018C9.47998 9.07518 10.5825 9.06018 11.6925 9.06018C12.2475 9.06018 12.585 8.76768 12.5925 8.24268C12.6 7.71018 12.2625 7.41018 11.7075 7.40268C11.1375 7.40268 10.575 7.40268 10.005 7.40268H10.0125Z" fill="#060044"/>
<path id="Vector_2" d="M53.7825 33.9445C51.045 32.557 50.6775 30.157 52.83 28.012C54.195 26.6545 55.56 25.2895 56.94 23.9395C58.5225 22.3795 60.375 22.3795 61.965 23.9395C63.3975 25.3495 64.83 26.7595 66.2475 28.1845C68.1225 30.067 67.7775 32.512 65.4375 33.772C65.0925 33.9595 65.055 34.162 65.0625 34.4695C65.0625 35.3095 65.0775 36.157 65.0625 36.997C65.0175 39.097 63.75 40.387 61.65 40.432C60.1875 40.462 58.7175 40.462 57.2475 40.432C55.1325 40.3795 53.82 39.037 53.79 36.9295C53.775 35.9545 53.79 34.972 53.79 33.9445H53.7825Z" fill="#060044"/>
<path id="Vector_3" d="M30.0975 30.135C30.0975 27.825 30.0975 25.5225 30.0975 23.2125C30.105 20.7 31.8225 18.8625 34.155 18.84C36.5325 18.8175 38.34 20.6475 38.355 23.175C38.385 27.9 38.37 32.625 38.355 37.35C38.355 38.4375 37.98 38.805 36.87 38.8125C35.0775 38.82 33.285 38.8275 31.4925 38.8125C30.4275 38.8125 30.09 38.46 30.0825 37.3875C30.0825 34.9725 30.0825 32.5575 30.0825 30.135H30.0975Z" fill="#060044"/>
<path id="Vector_4" d="M27.1725 33.0379C27.1725 34.5004 27.1725 35.9704 27.1725 37.4329C27.1725 38.3929 26.805 38.7904 25.86 38.8054C23.9625 38.8279 22.0575 38.8279 20.16 38.8054C19.32 38.7979 18.915 38.3854 18.9075 37.5379C18.8925 34.5004 18.8475 31.4554 18.93 28.4179C18.9975 26.0554 20.925 24.3304 23.1975 24.4204C25.44 24.5104 27.1575 26.3254 27.1725 28.6429C27.1875 30.1054 27.1725 31.5754 27.1725 33.0379Z" fill="#060044"/>
<path id="Vector_5" d="M7.74749 34.1927C7.74749 33.1877 7.72499 32.1827 7.74749 31.1777C7.80749 28.9652 9.57749 27.2102 11.76 27.1727C13.98 27.1277 15.87 28.8377 15.945 31.0802C16.02 33.2477 15.9825 35.4227 15.9675 37.5977C15.9675 38.4002 15.57 38.7977 14.7525 38.8052C12.795 38.8277 10.845 38.8277 8.88749 38.8052C8.13749 38.7977 7.73999 38.3702 7.73999 37.6202C7.73999 36.4802 7.73999 35.3402 7.73999 34.2002L7.74749 34.1927Z" fill="#060044"/>
<path id="Vector_6" d="M30.75 44.1899C27.495 44.1899 24.2325 44.1899 20.9775 44.1899C20.6775 44.1899 20.37 44.1899 20.085 44.1299C19.575 44.0099 19.32 43.6499 19.305 43.1249C19.29 42.5699 19.5525 42.1874 20.085 42.0299C20.2575 41.9774 20.46 41.9999 20.655 41.9999C27.39 41.9999 34.125 41.9999 40.86 41.9999C40.89 41.9999 40.9125 41.9999 40.9425 41.9999C41.7525 42.0149 42.2775 42.4424 42.2775 43.1024C42.2775 43.7549 41.775 44.1899 40.9275 44.1899C39.105 44.2049 37.29 44.1899 35.4675 44.1899C33.8925 44.1899 32.3175 44.1899 30.7425 44.1899H30.75Z" fill="#060044"/>
<path id="Vector_7" d="M48.1725 19.9652C50.07 19.9652 51.975 19.9652 53.8725 19.9652C54.75 19.9652 55.1925 20.3402 55.2 21.0452C55.2075 21.7427 54.765 22.1477 53.895 22.1477C50.07 22.1552 46.2375 22.1552 42.4125 22.1477C41.58 22.1477 41.0625 21.7127 41.0625 21.0677C41.0625 20.4077 41.58 19.9727 42.39 19.9652C44.3175 19.9577 46.245 19.9652 48.1725 19.9652Z" fill="#060044"/>
<path id="Vector_8" d="M12.5625 44.19C11.3925 44.19 10.23 44.1975 9.06003 44.19C8.19753 44.1825 7.74003 43.785 7.74753 43.095C7.74753 42.3825 8.19753 42.0075 9.06003 42C11.3925 42 13.7325 42 16.065 42C16.905 42 17.385 42.4125 17.3925 43.095C17.3925 43.7775 16.935 44.175 16.065 44.19C14.895 44.205 13.7325 44.19 12.5625 44.19Z" fill="#060044"/>
<path id="Vector_9" d="M45.135 26.5347C44.19 26.5347 43.2375 26.5497 42.2925 26.5347C41.5575 26.5197 41.0325 26.0547 41.07 25.4172C41.1075 24.7197 41.52 24.2997 42.21 24.2922C44.1825 24.2697 46.1625 24.2622 48.135 24.2922C48.8175 24.3072 49.245 24.7422 49.215 25.4547C49.185 26.1597 48.765 26.5272 48.0525 26.5272C47.0775 26.5272 46.1025 26.5272 45.1275 26.5272L45.135 26.5347Z" fill="#060044"/>
<path id="Vector_10" d="M15.915 56.8053C15.93 54.1653 18.09 51.9978 20.73 51.9903C23.4 51.9753 25.62 54.1653 25.62 56.8278C25.62 59.4753 23.4 61.6953 20.7375 61.6878C18.0675 61.6878 15.8925 59.4828 15.9075 56.7978L15.915 56.8053Z" fill="#060044"/>
</g>
</svg>
