<svg width="75" height="75" viewBox="0 0 75 75" fill="none" xmlns="http://www.w3.org/2000/svg">
<g id="Provides Insight 1">
<path id="Vector" d="M12.0675 13.1549C12.09 6.92242 17.115 1.92742 23.355 1.94242C29.55 1.95742 34.59 7.04242 34.56 13.2674C34.53 19.4774 29.46 24.4724 23.2125 24.4349C17.0175 24.3974 12.045 19.3724 12.06 13.1624L12.0675 13.1549Z" fill="#060044"/>
<path id="Vector_2" d="M21.9525 46.6796H19.1625C14.31 46.6796 9.45751 46.6796 4.60501 46.6796C2.91751 46.6796 2.46751 46.1846 2.61001 44.5121C3.33751 35.9171 10.245 28.1621 18.6975 26.3696C23.655 25.3196 28.3725 25.8971 32.8725 28.2146C33.03 28.2971 33.2325 28.3271 33.315 28.5146C25.56 32.0621 21.765 38.0771 21.96 46.6796H21.9525Z" fill="#060044"/>
<path id="Vector_3" d="M53.4826 63.3302C52.8451 62.7077 52.1476 62.0177 51.4276 61.3127C51.5776 60.9602 51.9826 60.7502 52.1776 60.4727C51.1651 59.4527 50.1601 58.4477 49.1476 57.4277C41.9626 62.8502 32.5726 60.9527 27.6676 54.8627C22.7326 48.7352 23.1376 39.9902 28.6276 34.3277C34.0126 28.7777 42.7276 28.1252 48.9676 32.7452C55.1776 37.3427 57.6751 47.0927 51.8776 54.7427C52.7026 55.5602 53.5426 56.3777 54.3826 57.2027C54.5476 57.3677 54.7201 57.5177 54.8776 57.6752C55.6276 57.1052 56.3501 57.1677 57.0451 57.8627C57.3751 58.1927 57.7201 58.5152 57.9976 58.7927C56.4376 60.3527 54.9226 61.8827 53.4826 63.3227V63.3302ZM28.3051 45.1277C28.3051 51.4427 33.3676 56.5127 39.6826 56.5202C45.9751 56.5277 51.0976 51.4277 51.0976 45.1427C51.0976 38.8502 45.9976 33.7502 39.6976 33.7427C33.3976 33.7352 28.3051 38.8277 28.3051 45.1352V45.1277Z" fill="#060044"/>
<path id="Vector_4" d="M71.9775 21.9447C71.9775 25.1922 71.9775 28.4397 71.9775 31.6872C71.9775 32.7447 71.7375 32.9847 70.695 32.9847C69.825 32.9847 68.955 32.9997 68.085 32.9847C67.2975 32.9697 67.02 32.6997 67.02 31.9122C67.02 25.2522 67.02 18.5922 67.02 11.9322C67.02 11.1597 67.3125 10.8897 68.1075 10.8822C68.9775 10.8747 69.8475 10.8822 70.7175 10.8822C71.7225 10.8822 71.9775 11.1372 71.9775 12.1347C71.9775 15.4047 71.9775 18.6747 71.9775 21.9447Z" fill="#060044"/>
<path id="Vector_5" d="M66.9975 4.51513C66.6075 4.50013 66.375 4.50013 66.15 4.47013C65.49 4.39513 65.0625 3.90013 65.1 3.27763C65.13 2.68513 65.58 2.22013 66.21 2.22763C67.455 2.25013 68.7075 2.29513 69.9525 2.40013C70.7025 2.46013 71.0775 3.03763 70.95 3.81013C70.7625 4.92013 70.56 6.03013 70.35 7.14013C70.215 7.85263 69.7725 8.25013 69.18 8.23513C68.58 8.21263 68.175 7.77763 68.085 7.07263C68.0775 6.98263 68.07 6.88513 68.0625 6.78763C67.7625 6.74263 67.65 6.99013 67.4925 7.13263C65.6175 8.85013 63.75 10.5826 61.8825 12.3076C61.125 13.0051 60.75 13.0351 59.895 12.4576C57.42 10.8001 54.9375 9.14263 52.4325 7.45513C50.61 9.82513 48.8025 12.1801 46.995 14.5276C46.1925 15.5701 45.39 16.6201 44.5875 17.6626C44.04 18.3751 43.41 18.5176 42.84 18.0676C42.27 17.6251 42.255 16.9951 42.81 16.2676C45.5925 12.6451 48.375 9.02263 51.1575 5.40763C51.7125 4.68013 52.215 4.59763 52.9875 5.10763C55.5525 6.81763 58.11 8.53513 60.735 10.2901C62.775 8.40763 64.83 6.51013 67.0125 4.50013L66.9975 4.51513Z" fill="#060044"/>
<path id="Vector_6" d="M54.645 23.8424C54.645 26.4749 54.645 29.1149 54.645 31.7474C54.645 32.2049 54.6675 32.7149 54.1425 32.8724C53.5725 33.0449 52.8975 33.2174 52.4025 32.7674C51.6 32.0399 50.82 31.2899 49.9275 30.6749C49.6875 30.5099 49.6875 30.2999 49.6875 30.0674C49.6875 25.3124 49.6875 20.5574 49.6875 15.8099C49.6875 15.0749 49.9725 14.7899 50.7075 14.7749C51.675 14.7599 52.635 14.7599 53.6025 14.7749C54.375 14.7824 54.6375 15.0599 54.6375 15.8624C54.6375 18.5249 54.6375 21.1799 54.6375 23.8424H54.645Z" fill="#060044"/>
<path id="Vector_7" d="M55.2075 65.1825C56.7075 63.6825 58.215 62.175 59.805 60.585C59.82 60.585 59.895 60.72 59.9925 60.8175C62.235 63.06 64.485 65.3025 66.7275 67.5525C67.65 68.4825 67.965 69.6075 67.59 70.8525C67.23 72.075 66.375 72.84 65.1225 73.11C64.095 73.335 63.1125 73.1175 62.37 72.39C59.9475 69.9975 57.57 67.5675 55.215 65.19L55.2075 65.1825Z" fill="#060044"/>
<path id="Vector_8" d="M63.3 25.9351C63.3 27.8851 63.3 29.8351 63.3 31.7926C63.3 32.7526 63.0525 32.9851 62.0775 32.9926C61.2075 32.9926 60.3375 33.0001 59.4675 32.9926C58.6425 32.9851 58.3425 32.6926 58.3425 31.8976C58.3425 27.9226 58.3425 23.9476 58.3425 19.9801C58.3425 19.2001 58.6425 18.9151 59.4 18.9076C60.2925 18.9001 61.185 18.9076 62.0775 18.9076C63.0675 18.9076 63.2925 19.1251 63.2925 20.1001C63.2925 22.0501 63.2925 24.0001 63.2925 25.9576L63.3 25.9351Z" fill="#060044"/>
<path id="Vector_9" d="M45.9975 28.5446C44.3775 27.9896 42.795 27.5846 41.0625 27.4721C41.0625 26.6396 41.0325 25.8296 41.0775 25.0121C41.1 24.6146 41.4075 24.3671 41.7975 24.3596C42.93 24.3371 44.055 24.3296 45.1875 24.3596C45.6825 24.3671 45.9825 24.6971 45.99 25.1846C46.02 26.2871 45.9975 27.3821 45.9975 28.5521V28.5446Z" fill="#060044"/>
</g>
</svg>
