<svg width="75" height="75" viewBox="0 0 75 75" fill="none" xmlns="http://www.w3.org/2000/svg">
<g id="Engagement 2">
<path id="Vector" d="M35.28 73.1252C34.7625 72.7877 34.14 72.8552 33.57 72.7427C24.8925 71.0402 18.2775 63.7352 17.4375 54.9227C17.22 52.6802 17.3925 50.4302 17.3175 48.1277H28.41C28.56 48.3077 28.455 48.5702 28.4625 48.8102C28.53 50.6627 28.3275 52.5227 28.59 54.3677C29.22 58.6952 33.075 61.9877 37.5075 61.9877C41.94 61.9877 45.8025 58.6877 46.44 54.3677C46.5525 53.6252 46.5525 52.8902 46.5525 52.1477C46.5525 50.8052 46.5525 49.4702 46.5525 48.0977H57.63C57.855 53.1227 57.825 58.0877 55.2075 62.6177C51.7275 68.6252 46.5825 72.1427 39.66 72.9827C39.5625 72.9977 39.48 73.0052 39.4575 73.1177H35.28V73.1252Z" fill="#060044"/>
<path id="Vector_2" d="M73.125 31.2374C72.57 32.4449 71.6175 32.7974 70.3275 32.7899C65.115 32.7449 59.895 32.7674 54.6825 32.7674C53.0625 32.7674 52.245 31.9574 52.2525 30.3374C52.26 28.5374 52.125 26.7224 52.6725 24.9599C53.2575 23.0849 54.2475 21.4799 55.7475 20.1299C57.6975 22.0049 59.9925 23.0249 62.685 23.0249C65.355 23.0249 67.6425 22.0349 69.5925 20.1674C70.0875 20.4299 70.4175 20.8874 70.7625 21.2999C71.94 22.7174 72.6675 24.3524 72.99 26.1674C73.0125 26.2874 72.945 26.4599 73.1325 26.5124V31.2449L73.125 31.2374Z" fill="#060044"/>
<path id="Vector_3" d="M30.5625 14.2878C34.5225 18.1503 40.5225 18.1128 44.4075 14.3178C44.895 14.5878 45.2325 15.0378 45.5775 15.4578C47.1075 17.3403 47.895 19.4928 47.9325 21.9228C47.9475 22.8753 47.9475 23.8278 47.9325 24.7728C47.91 26.0328 47.04 26.9178 45.78 26.9178C40.26 26.9253 34.74 26.9253 29.22 26.9178C28.125 26.9178 27.1575 26.2128 27.1125 25.1853C27.0075 22.8528 26.8575 20.4978 27.7725 18.2553C28.395 16.7328 29.28 15.3978 30.5625 14.2803V14.2878Z" fill="#060044"/>
<path id="Vector_4" d="M19.26 20.1227C21.09 21.7952 22.2075 23.8127 22.6125 26.2277C22.8675 27.7502 22.7625 29.2802 22.7325 30.8102C22.71 31.9652 21.7725 32.7677 20.5425 32.7677C17.3925 32.7752 14.235 32.7677 11.085 32.7677C8.78999 32.7677 6.49499 32.7677 4.19999 32.7677C2.72249 32.7677 1.88249 31.9202 1.88999 30.4277C1.89749 28.5977 1.75499 26.7677 2.30249 24.9752C2.86499 23.1077 4.03499 21.2402 5.40749 20.1527C7.32749 21.9977 9.61499 23.0177 12.3075 23.0177C15 23.0177 17.3025 22.0127 19.275 20.1152L19.26 20.1227Z" fill="#060044"/>
<path id="Vector_5" d="M37.4926 1.875C40.5601 1.875 43.0651 4.365 43.0651 7.4325C43.0651 10.5 40.5751 13.005 37.5076 13.005C34.4401 13.005 31.9351 10.515 31.9351 7.4475C31.9351 4.38 34.4251 1.875 37.4851 1.875H37.4926Z" fill="#060044"/>
<path id="Vector_6" d="M6.75752 13.2746C6.75752 10.2071 9.26252 7.71713 12.33 7.72463C15.3975 7.72463 17.8875 10.2296 17.88 13.3046C17.88 16.3721 15.375 18.8621 12.3 18.8546C9.24002 18.8546 6.74252 16.3421 6.75002 13.2746H6.75752Z" fill="#060044"/>
<path id="Vector_7" d="M68.25 13.3196C68.235 16.3796 65.7225 18.8696 62.655 18.8546C59.595 18.8396 57.1125 16.3271 57.1275 13.2596C57.1425 10.1996 59.655 7.71713 62.7225 7.72463C65.7825 7.73963 68.265 10.2521 68.25 13.3196Z" fill="#060044"/>
<path id="Vector_8" d="M28.455 43.89H17.325C17.325 43.0125 17.325 42.1425 17.325 41.2725C17.325 40.095 17.3175 38.91 17.325 37.7325C17.34 36.465 18.2025 35.5725 19.4475 35.565C21.7425 35.55 24.03 35.55 26.325 35.565C27.495 35.565 28.4175 36.3975 28.44 37.5225C28.4775 39.6225 28.455 41.73 28.455 43.8975V43.89Z" fill="#060044"/>
<path id="Vector_9" d="M57.675 43.8899H46.545C46.545 42.7724 46.545 41.6699 46.545 40.5749C46.545 39.6449 46.545 38.7224 46.545 37.7924C46.5525 36.4424 47.4075 35.5649 48.7425 35.5574C50.985 35.5499 53.235 35.5499 55.4775 35.5574C56.6925 35.5574 57.63 36.3674 57.6525 37.5224C57.6975 39.4424 57.6675 41.3699 57.6675 43.2899C57.6675 43.4699 57.6675 43.6499 57.6675 43.8899H57.675Z" fill="#060044"/>
</g>
</svg>
