<svg width="101" height="101" viewBox="0 0 101 101" fill="none" xmlns="http://www.w3.org/2000/svg">
<g id="Increase Brand Awareness 2">
<path id="Vector" d="M58.9537 55.4796C55.3076 55.7321 51.7019 55.0453 48.0255 56.3482C55.3278 47.7127 54.1966 36.4613 47.6316 29.6034C40.8343 22.493 29.9667 21.4224 22.0281 27.0885C13.9784 32.8354 11.3322 43.4505 15.8671 52.1365C18.5032 57.1764 22.5836 60.5498 28.0679 62.1052C33.5522 63.6505 38.7537 62.8122 43.7431 60.0145C41.6928 63.5394 41.5312 67.0845 43.3795 70.6902C42.0564 71.2457 40.7434 71.276 39.4203 70.8821C38.0568 70.4781 36.6832 70.0943 35.3298 69.6499C33.9764 69.2055 32.6533 69.2459 31.31 69.6802C29.8354 70.1549 28.3608 70.6397 26.8559 70.973C24.3107 71.5386 22.2402 70.6599 20.7252 68.5591C19.8364 67.3269 19.0385 66.0341 18.2103 64.7615C17.5134 63.6808 16.5741 62.9031 15.3924 62.3981C14.1097 61.8628 12.827 61.3174 11.5443 60.7518C8.82741 59.56 7.49421 57.2875 7.79721 54.3282C7.91841 53.1162 8.06991 51.9143 8.25171 50.7124C8.48401 49.1368 8.32241 47.642 7.53461 46.2078C6.87811 45.016 6.27211 43.7838 5.68631 42.5516C4.49451 40.0872 4.93891 37.5218 6.88821 35.6129C7.92851 34.5928 9.00921 33.603 10.0798 32.6132C11.0696 31.6941 11.7059 30.5932 11.9887 29.2701C12.3119 27.7854 12.6553 26.3108 13.0593 24.8463C13.7259 22.392 15.7156 20.7558 18.2406 20.5437C19.8162 20.4124 21.3918 20.3215 22.9775 20.2407C24.139 20.1801 25.1793 19.8064 26.1085 19.1297C27.2801 18.2611 28.4416 17.3824 29.6132 16.5138C31.9968 14.7463 34.6531 14.7261 37.0367 16.4532C38.1881 17.2915 39.3294 18.1601 40.4707 19.0186C41.4706 19.766 42.5816 20.1902 43.834 20.2508C45.349 20.3215 46.8741 20.4124 48.3891 20.5336C51.0959 20.7558 53.1058 22.4728 53.7623 25.0988C54.0956 26.4522 54.4087 27.8157 54.7117 29.1792C55.0147 30.5629 55.6611 31.7143 56.7216 32.6637C57.7619 33.603 58.782 34.5625 59.7819 35.5422C61.8019 37.5117 62.2463 40.0872 61.0141 42.6324C60.5798 43.5313 60.1758 44.4605 59.6405 45.2988C58.3578 47.3289 58.176 49.4802 58.6002 51.783C58.8224 52.9647 58.9941 54.1767 58.9436 55.4695L58.9537 55.4796Z" fill="#060044"/>
<path id="Vector_2" d="M25.3813 39.1675C26.3509 39.1675 27.3306 39.1473 28.3002 39.1675C29.2193 39.1877 29.7748 38.7736 30.0576 37.905C30.6535 36.0264 31.2797 34.1579 31.8756 32.2793C32.118 31.5218 32.5018 30.9461 33.3805 30.9562C34.2592 30.9663 34.6228 31.542 34.8652 32.2995C35.4308 34.1175 36.0368 35.9355 36.6327 37.7434C36.9963 38.8645 37.3801 39.1473 38.5517 39.1473C40.501 39.1473 42.4402 39.1675 44.3895 39.1473C45.1672 39.1473 45.7833 39.3695 46.0459 40.1472C46.3085 40.9249 45.9348 41.4804 45.3086 41.9349C43.733 43.0661 42.1574 44.2175 40.5919 45.3588C39.6122 46.0759 39.4809 46.4698 39.8445 47.6111C40.4101 49.3685 40.9757 51.136 41.5514 52.8833C41.814 53.6711 41.9958 54.4488 41.208 55.0346C40.4303 55.6002 39.7435 55.2568 39.0567 54.7417C37.6023 53.6509 36.1075 52.5904 34.6329 51.5299C33.5724 50.7623 33.1482 50.7522 32.1079 51.5097C30.6333 52.5803 29.1486 53.6408 27.6841 54.7316C27.0175 55.2265 26.3307 55.6204 25.5328 55.0649C24.6743 54.469 24.8864 53.661 25.1591 52.853C25.7449 51.0956 26.3004 49.3382 26.9064 47.5909C27.2296 46.6415 27.0074 45.9648 26.1893 45.3891C24.5935 44.268 23.0482 43.1065 21.4625 41.9652C20.8464 41.5208 20.4222 41.0158 20.6646 40.2078C20.9171 39.3695 21.5534 39.1372 22.3614 39.1473C23.3613 39.1675 24.3713 39.1473 25.3712 39.1473L25.3813 39.1675Z" fill="#060044"/>
<path id="Vector_3" d="M59.7516 58.5899V72.8309C56.8024 72.7602 53.8734 73.1137 50.9949 72.6794C47.3791 72.134 45.0157 68.9121 45.1975 65.2054C45.3591 61.7815 48.1366 58.8525 51.712 58.6202C54.3683 58.4485 57.0448 58.5899 59.7516 58.5899Z" fill="#060044"/>
<path id="Vector_4" d="M62.8018 73.5082V57.7825C65.8116 56.7725 68.7002 55.3181 71.6191 53.7324V77.2351C68.7709 75.7302 65.8722 74.3768 62.8018 73.5183V73.5082Z" fill="#060044"/>
<path id="Vector_5" d="M80.5374 65.61C80.5374 69.7409 80.5374 73.8819 80.5374 78.0128C80.5374 78.3461 80.5374 78.6794 80.5071 79.0127C80.3354 80.4671 78.8709 81.3761 77.5579 80.76C76.659 80.3358 75.851 79.7197 74.9824 79.2147C74.6794 79.0329 74.7299 78.7602 74.7299 78.4976C74.7299 69.8318 74.7299 61.166 74.7299 52.5002C74.7299 52.2275 74.6895 51.9548 75.0026 51.7932C75.8813 51.3185 76.7196 50.7529 77.6286 50.3489C78.8911 49.8035 80.2849 50.662 80.4869 52.0154C80.5374 52.379 80.5374 52.7426 80.5374 53.1062C80.5374 57.2674 80.5374 61.4387 80.5374 65.5999V65.61Z" fill="#060044"/>
<path id="Vector_6" d="M14.5541 65.3975C15.15 65.6803 15.453 66.0944 15.7358 66.5287C16.4832 67.67 17.2205 68.8214 17.9881 69.9526C20.0687 73.0533 22.9573 74.4774 26.7044 74.0835C26.8256 74.0734 26.9468 74.0835 27.1488 74.0835C26.0176 76.5075 24.9167 78.9012 23.8158 81.2747C23.3007 82.3756 22.7856 83.4664 22.2705 84.5673C22.1392 84.84 22.0382 85.1531 21.6645 85.1733C21.2908 85.1834 21.1696 84.8804 21.008 84.6178C19.8364 82.5978 18.6345 80.5879 17.4932 78.5578C17.2003 78.0326 16.9377 77.8508 16.2913 77.9821C13.9683 78.4366 11.6251 78.8103 9.292 79.1941C8.4537 79.3254 8.2012 79.0325 8.5345 78.3053C10.5141 74.0128 12.524 69.7304 14.544 65.3975H14.5541Z" fill="#060044"/>
<path id="Vector_7" d="M39.7233 74.0633C41.6625 74.3764 43.5209 74.0633 45.3389 73.1543C47.0357 74.6693 49.0456 75.6086 51.3787 75.851V78.0326C51.3282 78.0528 51.2575 78.1134 51.2272 78.0932C49.9142 77.5478 49.3284 78.275 48.7628 79.3557C47.8336 81.1232 46.7731 82.82 45.7631 84.5471C45.6015 84.8299 45.4803 85.1935 45.0662 85.1733C44.6521 85.1531 44.5713 84.7895 44.4299 84.4865C42.9048 81.2242 41.3898 77.9518 39.8647 74.6895C39.7738 74.4976 39.6425 74.3259 39.7233 74.0532V74.0633Z" fill="#060044"/>
<path id="Vector_8" d="M59.7415 85.769C57.0145 86.0821 55.1965 85.0418 54.6107 82.8804C54.4693 82.3754 54.5097 81.8603 54.4996 81.3452C54.4996 79.5575 54.4996 77.7698 54.4996 75.9316H59.7415V85.769Z" fill="#060044"/>
<path id="Vector_9" d="M92.4251 67.1149C91.7585 67.1149 91.0919 67.1351 90.4253 67.1149C89.4759 67.0745 88.8497 66.4584 88.8497 65.5898C88.8497 64.7313 89.4759 64.0849 90.4253 64.0647C91.7282 64.0344 93.0311 64.0344 94.334 64.0647C95.3238 64.0849 96.0005 64.7616 95.9702 65.6403C95.9399 66.4887 95.2935 67.0947 94.334 67.125C93.6977 67.1452 93.0614 67.125 92.4251 67.125V67.1149Z" fill="#060044"/>
<path id="Vector_10" d="M91.91 55.7725C91.8595 56.2371 91.6878 56.6007 91.3747 56.9138C90.4758 57.8127 89.587 58.7217 88.6679 59.6105C87.9104 60.3377 87.062 60.3579 86.4156 59.7115C85.7692 59.0651 85.7995 58.2167 86.5267 57.4592C87.4357 56.53 88.3649 55.6109 89.2941 54.7019C89.7991 54.1969 90.4152 54.106 91.0515 54.409C91.6171 54.6817 91.8696 55.1867 91.91 55.7826V55.7725Z" fill="#060044"/>
<path id="Vector_11" d="M87.4357 70.9824C87.9003 71.0228 88.2841 71.1844 88.5972 71.4975C89.5163 72.4166 90.4556 73.3256 91.3545 74.2649C92.0211 74.9618 92.0413 75.8405 91.4555 76.4566C90.8192 77.1131 89.9506 77.1131 89.2032 76.396C88.2437 75.4668 87.3044 74.5275 86.3853 73.568C85.9308 73.0933 85.7995 72.5176 86.1025 71.8914C86.3752 71.3157 86.86 71.0632 87.4458 70.9824H87.4357Z" fill="#060044"/>
<path id="Vector_12" d="M83.5775 69.4475V61.7412C84.9612 61.8523 86.2944 63.8521 86.3348 65.256C86.3954 67.2053 85.4157 68.8011 83.5775 69.4475Z" fill="#060044"/>
</g>
</svg>
