<svg width="75" height="75" viewBox="0 0 75 75" fill="none" xmlns="http://www.w3.org/2000/svg">
<g id="Save Time and Money 2">
<path id="Vector" d="M71.0325 58.2077C70.5375 59.4302 69.4725 59.9102 68.3475 60.3752C61.4625 63.2177 54.585 66.0752 47.715 68.9402C45.3375 69.9302 42.93 70.0427 40.455 69.3752C33.765 67.5677 27.075 65.7677 20.385 63.9677C20.2575 63.9302 20.1375 63.8777 19.9875 63.8252C19.98 63.6602 19.9575 63.4877 19.9575 63.3152C19.9575 59.5427 19.9575 55.7777 19.9425 52.0052C19.9425 51.5702 20.0625 51.3677 20.4825 51.1952C22.98 50.1527 25.47 49.0802 27.96 48.0152C29.25 47.4602 30.5775 47.2352 31.995 47.3777C34.74 47.6477 37.4925 47.8502 40.245 48.0752C40.86 48.1277 41.4375 48.2777 41.6925 48.9077C41.955 49.5527 41.6775 50.1077 41.2725 50.6027C40.515 51.5177 39.435 51.6377 38.37 51.7652C36.825 51.9527 35.265 51.9902 33.735 52.2977C32.4975 52.5527 31.35 53.0252 30.3825 53.8577C29.46 54.6527 29.6775 55.9127 30.8325 56.2877C34.845 57.5852 38.865 58.8527 42.885 60.1127C43.8675 60.4202 44.88 60.3602 45.8775 60.1427C52.8675 58.6427 59.865 57.1502 66.855 55.6427C67.5525 55.4927 68.2425 55.4552 68.94 55.6277C70.0875 55.9127 70.68 56.7452 71.0325 57.8027V58.2002V58.2077Z" fill="#060044"/>
<path id="Vector_2" d="M31.545 54.8551C32.6025 54.0076 33.855 53.7526 35.145 53.6026C36.69 53.4226 38.2575 53.4826 39.7725 53.0851C40.6575 52.8526 41.4525 52.4701 42.12 51.8326C42.9675 51.0151 43.4175 50.0401 43.29 48.8176H46.665C46.665 49.2376 46.65 49.6276 46.665 50.0176C46.68 50.4526 46.9125 50.7151 47.3625 50.7301C47.835 50.7451 48.105 50.4826 48.1425 50.0251C48.1725 49.6351 48.1425 49.2451 48.1425 48.7951C49.455 48.7801 50.595 48.4051 51.405 47.3626C52.035 46.5526 52.275 45.6151 52.2225 44.5951C52.1175 42.5026 50.745 41.2501 48.165 40.9426V36.2326C49.2 36.2326 50.22 36.2326 51.24 36.2326C51.78 36.2326 52.2225 36.1201 52.26 35.4826C52.29 34.9876 51.9375 34.7176 51.2625 34.7101C50.235 34.7026 49.215 34.7101 48.135 34.7101C48.135 34.2901 48.135 33.9226 48.135 33.5551C48.1275 33.0901 47.8875 32.7976 47.4225 32.7826C46.92 32.7676 46.665 33.0601 46.65 33.5626C46.65 33.9151 46.65 34.2601 46.65 34.6876C45.2175 34.7551 43.965 35.1676 43.1625 36.4276C42.6525 37.2301 42.48 38.1226 42.585 39.0676C42.8025 41.1001 44.1225 42.2326 46.605 42.4876V47.2351C45.9525 47.3476 45.2775 47.2351 44.6175 47.2876C43.9575 47.3401 43.26 47.0851 42.6225 47.5576C41.7525 46.5601 40.5525 46.5526 39.3675 46.4551C36.9675 46.2676 34.5675 46.0726 32.1675 45.8476C30.33 45.6751 28.605 46.0651 26.94 46.8076C26.7225 46.9051 26.505 46.9951 26.25 47.1001C25.9725 46.2751 25.965 45.4426 25.83 44.6326C25.7775 44.2876 26.0325 44.2426 26.235 44.1451C30.51 42.0676 33.27 38.6776 34.7025 34.1926C35.5275 31.6201 35.64 28.9876 35.085 26.3401C35.0175 26.0176 35.0625 25.8151 35.28 25.5901C36.0075 24.8326 36.7275 24.0601 37.4325 23.2801C37.6275 23.0626 37.8375 22.9951 38.1225 22.9951C44.3925 22.9951 50.655 22.9951 56.925 22.9951C57.15 22.9951 57.3375 23.0176 57.51 23.1976C61.4775 27.3376 65.235 31.6501 67.665 36.9076C70.425 42.8551 69.525 48.4351 65.655 53.6176C65.19 54.2401 64.6275 54.5851 63.84 54.7501C58.1025 55.9426 52.395 57.2851 46.6425 58.4176C44.88 58.7626 43.23 58.7476 41.505 58.1401C38.4375 57.0601 35.31 56.1526 32.205 55.1701C31.9875 55.1026 31.725 55.0951 31.53 54.8626L31.545 54.8551Z" fill="#060044"/>
<path id="Vector_3" d="M60.825 8.50472C60.7575 9.22472 60.4275 9.88472 60.12 10.5447C59.07 12.8097 57.57 14.7747 55.9725 16.6647C55.7925 16.8822 55.5975 16.9197 55.35 16.9197C50.115 16.9197 44.8725 16.9197 39.6375 16.9197C39.4125 16.9197 39.225 16.9122 39.06 16.7097C37.1325 14.3997 35.34 12.0222 34.29 9.14972C33.9075 8.09972 34.095 7.35722 34.86 6.59222C37.2525 4.19972 39.975 3.33722 43.23 4.56722C45.315 5.35472 47.31 6.35972 49.425 7.07222C52.935 8.26472 56.5275 8.72972 60.225 8.39222C60.375 8.37722 60.5325 8.37722 60.6825 8.39222C60.72 8.39222 60.75 8.44472 60.8325 8.51222L60.825 8.50472Z" fill="#060044"/>
<path id="Vector_4" d="M11.8875 57.2477C11.8875 54.4427 11.8875 51.6377 11.8875 48.8327C11.8875 47.8877 11.9925 47.7902 12.9525 47.7902C14.505 47.7902 16.065 47.8052 17.6175 47.7902C18.24 47.7827 18.4725 48.0452 18.465 48.6602C18.4575 54.3977 18.4575 60.1427 18.465 65.8802C18.465 66.4952 18.2175 66.7502 17.6025 66.7427C16.005 66.7277 14.4 66.7427 12.8025 66.7427C12.0525 66.7427 11.88 66.5777 11.88 65.8127C11.88 62.9627 11.88 60.1127 11.88 57.2702L11.8875 57.2477Z" fill="#060044"/>
<path id="Vector_5" d="M19.3575 14.9401C28.8 15.0001 33.945 22.9201 33.93 29.5351C33.915 37.5451 27.195 44.2726 19.185 44.2576C11.1525 44.2426 4.53 37.6501 4.5075 29.6401C4.485 21.3526 10.965 14.9326 19.3575 14.9326V14.9401ZM19.1775 42.8476C26.4675 42.8626 32.5575 36.9526 32.4825 29.7376C32.385 21.1576 26.07 16.3726 19.26 16.3501C12.585 16.3276 6.1275 20.9251 5.955 29.6626C5.8125 36.8626 11.9025 42.8401 19.1775 42.8551V42.8476Z" fill="#060044"/>
<path id="Vector_6" d="M3.84753 50.0625H10.35V64.44H3.84753V50.0625Z" fill="#060044"/>
<path id="Vector_7" d="M47.4825 21.5174C44.325 21.5174 41.175 21.5174 38.0175 21.5174C36.9975 21.5174 36.3825 21.0224 36.3 20.1824C36.2025 19.2074 36.765 18.5324 37.74 18.4499C37.83 18.4499 37.9125 18.4424 38.0025 18.4424C44.3325 18.4424 50.67 18.4424 57 18.4424C58.095 18.4424 58.71 19.0349 58.7025 20.0024C58.6875 20.9549 58.05 21.5174 56.9475 21.5174C53.79 21.5174 50.64 21.5174 47.4825 21.5174Z" fill="#060044"/>
<path id="Vector_8" d="M46.62 36.2395V40.972C45.72 41.032 44.9775 40.7545 44.4675 40.012C43.8825 39.157 43.8675 38.2345 44.37 37.3495C44.85 36.5095 45.6375 36.1945 46.62 36.2395Z" fill="#060044"/>
<path id="Vector_9" d="M48.1725 47.2728V42.5253C49.6875 42.4728 50.79 43.5078 50.775 44.9403C50.76 46.3353 49.6425 47.3478 48.1725 47.2728Z" fill="#060044"/>
<path id="Vector_10" d="M19.2299 41.3022C13.1474 41.3022 7.55245 37.1022 7.43245 29.4222C7.33495 23.0472 12.7574 17.7897 19.1999 17.7822C25.6724 17.7822 31.1324 23.0772 31.0049 29.4597C30.8474 37.1547 25.2524 41.2947 19.2299 41.3097V41.3022ZM17.3699 29.6247C17.3774 30.4722 17.8799 31.1622 18.7124 31.3422C19.0724 31.4247 19.2149 31.5897 19.3349 31.8972C19.6724 32.7747 20.0324 33.6372 20.3774 34.5147C20.5574 34.9797 20.8949 35.1972 21.3524 35.0247C21.8474 34.8372 21.9449 34.4322 21.7499 33.9447C21.4199 33.1347 21.1124 32.3172 20.7824 31.5072C20.6324 31.1397 20.5049 30.8247 20.8199 30.4347C21.1199 30.0672 21.1799 29.5422 20.9999 29.1147C20.8049 28.6497 20.9549 28.3572 21.2099 28.0047C22.2374 26.5872 23.2499 25.1622 24.2549 23.7222C24.6599 23.1372 24.4199 22.4997 23.7824 22.4397C23.3624 22.4022 23.1599 22.7022 22.9574 22.9947C21.9299 24.4422 20.9024 25.8822 19.8824 27.3372C19.7024 27.5922 19.5299 27.7047 19.1999 27.7122C18.1124 27.7272 17.3624 28.5447 17.3774 29.6172L17.3699 29.6247ZM19.9874 19.7547H19.9724C19.9724 19.6272 19.9724 19.4922 19.9724 19.3647C19.9574 18.8772 19.7324 18.5547 19.2299 18.5472C18.7349 18.5397 18.4799 18.8547 18.4724 19.3422C18.4724 19.7097 18.4649 20.0847 18.5099 20.4522C18.5624 20.8272 18.8249 21.0072 19.2074 21.0147C19.5824 21.0147 19.8449 20.8422 19.9274 20.4747C19.9799 20.2422 19.9724 20.0022 19.9949 19.7622L19.9874 19.7547ZM19.9649 39.3372C19.9649 39.1872 19.9724 39.0297 19.9649 38.8797C19.9274 38.4297 19.7024 38.1222 19.2374 38.1147C18.7349 38.1072 18.4949 38.4222 18.4724 38.9097C18.4574 39.2172 18.4574 39.5247 18.4724 39.8247C18.5024 40.2747 18.7124 40.5747 19.1999 40.5897C19.6799 40.5972 19.9124 40.3122 19.9649 39.8697C19.9874 39.6972 19.9649 39.5172 19.9649 39.3447V39.3372ZM28.9724 30.3072C28.9724 30.3072 28.9724 30.3072 28.9724 30.3147C29.1224 30.3147 29.2799 30.3147 29.4299 30.3147C29.9249 30.3072 30.2324 30.0447 30.2249 29.5572C30.2249 29.0547 29.9024 28.8222 29.4074 28.8372C29.0774 28.8372 28.7549 28.8297 28.4249 28.8522C28.0124 28.8747 27.7874 29.1147 27.7574 29.5197C27.7274 29.9547 27.9599 30.2247 28.3799 30.2997C28.5674 30.3372 28.7699 30.2997 28.9649 30.2997L28.9724 30.3072ZM9.43495 30.3147C9.56245 30.3147 9.69745 30.3147 9.82495 30.3147C10.3124 30.3147 10.6349 30.0972 10.6574 29.5947C10.6724 29.0397 10.3274 28.8297 9.80995 28.8372C9.52495 28.8372 9.23995 28.8372 8.95495 28.8372C8.48245 28.8372 8.19745 29.0847 8.18995 29.5497C8.18245 30.0447 8.47495 30.3072 8.96995 30.3147C9.11995 30.3147 9.27745 30.3147 9.42745 30.3147H9.43495Z" fill="#060044"/>
<path id="Vector_11" d="M19.575 29.5421C19.5525 29.7446 19.455 29.9021 19.2225 29.9171C18.9975 29.9246 18.8475 29.7971 18.84 29.5721C18.8325 29.3696 18.9675 29.2496 19.155 29.2196C19.38 29.1896 19.5225 29.3021 19.575 29.5421Z" fill="#060044"/>
</g>
</svg>
