<svg width="86" height="86" viewBox="0 0 86 86" fill="none" xmlns="http://www.w3.org/2000/svg">
<g id="Stay Ahead of Competitors 2">
<path id="Vector" d="M70.7264 27.2185C70.6748 30.4349 69.1526 34.3909 66.1082 37.7621C65.274 38.6823 65.274 38.7339 65.962 39.7917C66.4952 40.6173 66.4522 40.8323 65.6266 41.3827C64.5344 42.1137 63.425 42.8275 62.3328 43.5671C61.7824 43.9455 61.3954 43.8423 61.017 43.2919C60.1828 42.0707 60.1656 42.0793 58.7982 42.5437C48.2374 46.1213 37.0832 39.2155 35.5868 28.1731C34.2624 18.4121 41.366 9.34773 51.17 8.31573C61.705 7.20633 70.778 15.3591 70.7264 27.2185ZM53.1996 39.7057C60.845 39.7229 67.0456 33.5567 67.0628 25.9285C67.08 18.2487 60.8622 12.0137 53.2254 12.0309C45.6058 12.0481 39.3966 18.2573 39.388 25.8683C39.388 33.4879 45.5714 39.6885 53.2082 39.7057H53.1996Z" fill="#060044"/>
<path id="Vector_2" d="M47.1538 49.1572H58.3682V77.7608H47.1538V49.1572Z" fill="#060044"/>
<path id="Vector_3" d="M38.7173 53.9824V77.7786H27.4771V53.9824H38.7173Z" fill="#060044"/>
<path id="Vector_4" d="M7.81738 60.0283H19.0662V77.7787H7.81738V60.0283Z" fill="#060044"/>
<path id="Vector_5" d="M80.2638 60.5008C80.238 61.1544 79.98 61.5844 79.507 61.894C78.346 62.6594 77.1936 63.4506 76.0154 64.1902C75.0694 64.7836 74.2868 64.603 73.6504 63.657C71.4144 60.3116 69.187 56.9576 66.9682 53.6036C66.5038 52.8984 66.5726 52.5974 67.295 52.1158C68.7828 51.1268 70.2878 50.155 71.767 49.1402C72.3776 48.7188 72.8162 48.8048 73.2118 49.4154C75.4392 52.7952 77.6838 56.175 79.9284 59.5462C80.1434 59.8644 80.2638 60.1998 80.2638 60.5008Z" fill="#060044"/>
<path id="Vector_6" d="M31.1234 42.6306C29.3432 43.2928 29.0164 43.5508 27.09 45.718C25.0002 43.5078 24.4498 39.9818 25.7484 37.1008C27.0814 34.151 30.1086 32.2504 33.325 32.3536C33.5916 32.3622 33.8496 32.3966 34.1162 32.3966C34.615 32.3966 34.8988 32.6116 35.0966 33.1018C36.292 36.086 38.1238 38.6402 40.6092 40.687C41.065 41.0654 41.1424 41.4266 41.022 41.9684C40.7038 43.3788 40.1104 44.643 39.0956 45.7696C38.1238 44.2388 36.8252 43.1724 35.0364 42.6134C36.1974 41.719 36.9026 40.6182 36.808 39.1648C36.7478 38.1844 36.3522 37.333 35.6126 36.6622C34.0732 35.269 31.7512 35.3808 30.358 36.8944C28.8358 38.5542 29.111 40.7042 31.1234 42.6134V42.6306Z" fill="#060044"/>
<path id="Vector_7" d="M14.62 49.1147C16.2712 47.0851 16.3572 45.2877 14.8866 43.9203C13.5708 42.6991 11.61 42.6991 10.3114 43.9203C8.85797 45.2963 8.94397 47.0765 10.5866 49.1061C9.26217 49.5963 8.22157 50.4391 7.43037 51.6001C5.10837 49.4501 5.17717 45.1071 7.55077 42.5443C10.1308 39.7579 14.4222 39.5601 17.2172 42.1057C19.952 44.5997 20.253 48.9341 17.802 51.6345C17.0108 50.4563 15.953 49.5963 14.62 49.1061V49.1147Z" fill="#060044"/>
<path id="Vector_8" d="M37.6336 47.0248C35.1138 48.934 31.0976 48.934 28.5778 47.0248C29.1712 45.3822 31.0632 44.161 33.0584 44.1352C35.0622 44.1094 36.98 45.322 37.6336 47.0162V47.0248Z" fill="#060044"/>
<path id="Vector_9" d="M70.2189 48.0227C69.1181 48.7537 68.0259 49.4761 66.8649 50.2415C65.6867 48.4871 64.5429 46.7757 63.3647 45.0127C64.4913 44.2645 65.5749 43.5507 66.7101 42.7939C67.8797 44.5397 69.0321 46.2597 70.2103 48.0227H70.2189Z" fill="#060044"/>
<path id="Vector_10" d="M16.4346 52.8728C14.2416 54.4896 10.8532 54.4896 8.78918 52.8642C9.64918 51.3678 10.922 50.5852 12.6506 50.5938C14.3534 50.611 15.5832 51.4194 16.4346 52.8728Z" fill="#060044"/>
<path id="Vector_11" d="M33.11 41.3054C32.0522 41.3054 31.1922 40.4798 31.1664 39.4306C31.1492 38.3728 32.0522 37.4612 33.1186 37.4698C34.1506 37.4698 35.0192 38.3642 35.0192 39.4048C35.0192 40.4454 34.1592 41.3054 33.11 41.3054Z" fill="#060044"/>
<path id="Vector_12" d="M12.5818 47.9023C11.739 47.8851 11.0338 47.1627 11.0424 46.3285C11.051 45.4943 11.782 44.7805 12.6162 44.7891C13.4418 44.7891 14.1642 45.5459 14.1556 46.3629C14.147 47.1971 13.3988 47.9195 12.5818 47.9023Z" fill="#060044"/>
<path id="Vector_13" d="M61.7566 34.2626C60.2516 31.5192 57.9554 29.8422 54.8594 29.2058C57.6802 27.546 58.7208 25.4648 57.9984 23.0138C57.3792 20.8982 55.3066 19.3932 53.1222 19.462C50.869 19.5308 48.848 21.1734 48.4008 23.3148C47.8762 25.8088 48.9942 27.8556 51.6688 29.1886C48.5384 29.8336 46.2164 31.5106 44.7114 34.2798C41.7616 31.6568 40.1964 26.5054 41.9078 21.7582C43.6622 16.9078 48.3062 13.743 53.5092 13.8462C58.6864 13.9494 63.1412 17.3292 64.7322 22.2742C66.2716 27.0644 64.328 32.1126 61.7566 34.254V34.2626Z" fill="#060044"/>
<path id="Vector_14" d="M60.3549 35.527C56.5967 38.6832 49.751 38.6832 46.1562 35.5528C47.0077 33.0244 49.9059 31.012 52.8901 30.8744C56.0635 30.7282 59.0219 32.56 60.3549 35.527Z" fill="#060044"/>
<path id="Vector_15" d="M50.0778 24.4411C50.0778 22.6437 51.4882 21.2505 53.2942 21.2677C55.0228 21.2849 56.4504 22.7383 56.4246 24.4669C56.3988 26.1955 54.9282 27.6489 53.234 27.6231C51.471 27.5973 50.0864 26.2041 50.0864 24.4497L50.0778 24.4411Z" fill="#060044"/>
</g>
</svg>
