<svg width="65" height="65" viewBox="0 0 65 65" fill="none" xmlns="http://www.w3.org/2000/svg">
<g id="Social Media Account Management 1">
<path id="Vector" d="M1.62503 3.07452C2.21653 1.95002 3.17853 1.71602 4.38103 1.72902C10.1465 1.77452 15.9185 1.74852 21.684 1.74852C23.205 1.74852 23.933 2.47652 23.933 3.99752C23.933 7.77402 23.933 11.557 23.933 15.3335C23.933 16.809 23.192 17.5565 21.7165 17.5565C19.9095 17.5565 18.096 17.5695 16.289 17.5435C15.886 17.5435 15.6845 17.6735 15.5025 18.0115C14.833 19.2205 14.131 20.4165 13.4355 21.6125C13 22.36 12.5515 22.3535 12.116 21.5995C11.4075 20.384 10.699 19.175 10.0165 17.9465C9.84753 17.641 9.65253 17.5435 9.30803 17.55C7.63753 17.5695 5.96703 17.498 4.30303 17.576C3.10703 17.628 2.19053 17.316 1.61853 16.224V3.07452H1.62503ZM16.666 11.3295C17.7775 10.907 18.4795 10.166 18.499 8.96352C18.5185 7.70902 17.8165 6.92902 16.6595 6.49352C16.6595 6.01252 16.692 5.54452 16.653 5.08952C16.562 4.12102 15.6715 3.64002 14.807 4.08202C14.4885 4.24452 14.17 4.42652 13.871 4.62802C12.3695 5.65502 10.7965 6.33752 8.88553 6.11652C7.87803 5.99952 7.07853 6.92252 7.05253 7.94952C7.03303 8.57352 7.04603 9.19752 7.05253 9.81502C7.05253 10.5625 7.37753 11.1475 8.03403 11.492C8.34603 11.6545 8.39803 11.843 8.39153 12.142C8.37853 12.8635 8.36553 13.5915 8.39153 14.313C8.42403 15.0475 8.95053 15.613 9.64603 15.717C10.283 15.8145 10.9395 15.4375 11.1995 14.82C11.3295 14.5145 11.31 14.1895 11.31 13.871C11.31 13.2015 11.31 12.532 11.31 11.869C11.6285 11.856 11.778 12.0055 11.947 12.103C12.87 12.6295 13.78 13.1755 14.7095 13.689C15.6845 14.2285 16.601 13.715 16.653 12.597C16.6725 12.1745 16.653 11.7585 16.653 11.3295H16.666Z" fill="white"/>
<path id="Vector_2" d="M1.62503 48.783C2.19703 47.691 3.11353 47.379 4.30953 47.431C5.95403 47.509 7.60503 47.431 9.24953 47.4635C9.63953 47.4635 9.86053 47.366 10.049 47.015C10.7185 45.806 11.414 44.61 12.1095 43.414C12.545 42.6665 13 42.6665 13.429 43.4075C14.1375 44.6165 14.8395 45.832 15.5285 47.054C15.6975 47.353 15.8795 47.4635 16.2305 47.457C18.096 47.4375 19.968 47.444 21.8335 47.4505C23.1465 47.4505 23.9265 48.237 23.9265 49.55C23.9265 53.411 23.9265 57.2655 23.9265 61.1265C23.9265 62.472 23.1465 63.252 21.7945 63.252C15.99 63.252 10.179 63.226 4.37453 63.2715C3.17203 63.278 2.21003 63.044 1.61853 61.926V48.783H1.62503ZM12.779 50.6875C12.6945 50.616 12.6165 50.551 12.5385 50.486C11.3035 49.5175 9.94503 49.342 8.53453 50.005C7.13053 50.6615 6.55203 51.8575 6.55203 53.372C6.55203 54.841 7.23453 56.024 8.11203 57.1225C9.32103 58.6435 10.907 59.768 12.376 61.0095C12.6685 61.2565 12.9675 61.198 13.247 60.964C14.2545 60.106 15.2945 59.287 16.2695 58.39C17.381 57.363 18.3365 56.1995 18.8045 54.7175C19.4805 52.5595 18.5965 50.5315 16.679 49.862C15.2165 49.3485 13.923 49.68 12.779 50.694V50.6875Z" fill="white"/>
<path id="Vector_3" d="M21.567 41.8797C17.186 37.1087 16.419 28.5677 21.866 22.7047C27.391 16.7572 36.582 16.4517 42.3605 21.8987C48.282 27.4822 48.3015 36.4197 43.4525 41.8992C41.8535 38.4932 39.2535 36.2442 35.633 35.1652C39.559 32.5262 39.2925 27.9047 36.92 25.5062C34.3785 22.9257 30.1925 23.0492 27.8265 25.7922C25.5515 28.4312 25.7725 32.7927 29.3995 35.1522C25.7725 36.2442 23.1595 38.4737 21.567 41.8732V41.8797Z" fill="white"/>
<path id="Vector_4" d="M52.2015 63.2517C49.205 63.2517 46.215 63.2517 43.2185 63.2517C41.821 63.2517 41.0605 62.4912 41.0605 61.0872C41.0605 57.2457 41.0605 53.4107 41.0605 49.5692C41.0605 48.2107 41.8275 47.4502 43.1925 47.4502C45.0385 47.4502 46.891 47.4372 48.737 47.4632C49.114 47.4632 49.309 47.3397 49.4845 47.0212C50.128 45.8642 50.791 44.7202 51.454 43.5762C52.0195 42.5947 52.416 42.6012 52.9945 43.6022C53.6445 44.7332 54.3075 45.8512 54.938 46.9952C55.12 47.3267 55.3215 47.4697 55.7245 47.4632C57.5705 47.4372 59.423 47.4502 61.269 47.4502C62.582 47.4502 63.3685 48.2302 63.3685 49.5432C63.3685 53.4237 63.3685 57.2977 63.3685 61.1782C63.3685 62.4522 62.569 63.2452 61.3015 63.2517C58.266 63.2517 55.2305 63.2517 52.195 63.2517H52.2015ZM50.44 54.0737C49.296 53.7552 48.217 53.8527 47.151 53.9502C46.774 53.9827 46.605 54.3207 46.605 54.7107C46.605 56.6412 46.605 58.5717 46.605 60.5022C46.605 60.9507 46.865 61.3212 47.268 61.2822C48.347 61.1717 49.517 61.7632 50.4985 60.8727C50.557 60.8207 50.6935 60.8402 50.791 60.8467C52.364 60.9507 53.924 60.7427 55.4905 60.7167C56.303 60.7037 56.6735 60.3917 56.8945 59.5857C57.291 58.1557 57.538 56.6867 57.811 55.2307C57.98 54.3012 57.4405 53.6707 56.485 53.6382C55.8935 53.6187 55.2955 53.6382 54.535 53.6382C55.354 52.8062 55.432 51.9092 55.302 50.9732C55.172 49.9917 54.483 49.4002 53.495 49.4002C52.8125 49.4002 52.6435 49.5562 52.598 50.2322C52.5655 50.7262 52.598 51.2332 52.299 51.6817C51.7205 52.5267 51.116 53.3522 50.453 54.0867L50.44 54.0737Z" fill="white"/>
<path id="Vector_5" d="M55.2175 17.5567C54.4375 18.9022 53.6705 20.2412 52.897 21.5737C52.442 22.3602 52 22.3602 51.5515 21.5737C50.856 20.3777 50.1605 19.1817 49.491 17.9727C49.3155 17.6607 49.1205 17.5307 48.7435 17.5372C46.878 17.5632 45.006 17.5502 43.1405 17.5437C41.86 17.5437 41.0735 16.7572 41.0735 15.4832C41.0735 11.5897 41.0735 7.68969 41.0735 3.79619C41.0735 2.52869 41.873 1.74219 43.1535 1.74219C49.1985 1.74219 55.2435 1.74219 61.2885 1.74219C62.595 1.74219 63.375 2.52869 63.375 3.84819C63.375 7.72219 63.375 11.6027 63.375 15.4767C63.375 16.7507 62.582 17.5437 61.3145 17.5437C59.2865 17.5437 57.2585 17.5437 55.224 17.5437L55.2175 17.5567ZM52.2275 15.1127C53.8785 15.1127 55.523 15.1127 57.174 15.1127C58.3505 15.1127 58.9225 14.5472 58.9225 13.3837C58.9225 10.8942 58.9225 8.39819 58.9225 5.90869C58.9225 4.77769 58.357 4.20569 57.2195 4.20569C53.885 4.19919 50.544 4.19919 47.2095 4.20569C46.0785 4.20569 45.526 4.79069 45.526 5.92819C45.526 8.39819 45.526 10.8747 45.526 13.3447C45.526 14.5537 46.0785 15.1062 47.294 15.1127C48.945 15.1127 50.5895 15.1127 52.2405 15.1127H52.2275Z" fill="white"/>
<path id="Vector_6" d="M31.7395 46.9692C28.795 46.9107 25.597 45.6887 22.841 43.2772C22.5355 43.0107 22.477 42.8027 22.646 42.4192C24.31 38.5322 28.262 35.9517 32.552 35.9777C36.8355 36.0037 40.7355 38.5842 42.3735 42.4582C42.5295 42.8222 42.4515 43.0107 42.172 43.2642C39.5785 45.6237 36.062 46.9757 31.7395 46.9692Z" fill="white"/>
<path id="Vector_7" d="M32.513 24.8623C35.243 24.8623 37.453 27.0723 37.453 29.7893C37.453 32.5388 35.23 34.7683 32.487 34.7748C29.7895 34.7748 27.5535 32.5453 27.547 29.8283C27.5405 27.0723 29.744 24.8623 32.5065 24.8623H32.513Z" fill="white"/>
<path id="Vector_8" d="M10.4715 10.5688V7.28634C11.505 7.42934 12.3305 6.94834 13.2015 6.40234V11.4333C12.35 10.9393 11.5505 10.3738 10.4715 10.5753V10.5688Z" fill="white"/>
<path id="Vector_9" d="M15.431 5.18652V12.603C14.4755 12.3105 14.4365 12.265 14.4365 11.4005C14.4365 9.77552 14.4365 8.15052 14.4365 6.53202C14.4365 5.89069 14.768 5.44219 15.431 5.18652Z" fill="white"/>
<path id="Vector_10" d="M9.243 7.30566V10.4647C8.554 10.5687 8.268 10.3542 8.255 9.72366C8.242 9.20366 8.2485 8.68366 8.255 8.15716C8.2615 7.50066 8.4825 7.30566 9.243 7.30566Z" fill="white"/>
<path id="Vector_11" d="M10.114 11.7914C10.114 12.5844 10.114 13.3384 10.114 14.0924C10.114 14.2744 10.101 14.4889 9.86052 14.4824C9.63302 14.4824 9.59402 14.2874 9.59402 14.0924C9.59402 13.4164 9.60702 12.7404 9.59402 12.0644C9.58102 11.6614 9.81502 11.7329 10.1205 11.7849L10.114 11.7914Z" fill="white"/>
<path id="Vector_12" d="M16.705 7.87793C17.524 8.53443 17.5175 9.30793 16.705 9.94493V7.87793Z" fill="white"/>
<path id="Vector_13" d="M12.779 59.767C11.3035 58.571 9.79551 57.4595 8.69701 55.9125C8.11851 55.1 7.71551 54.216 7.76101 53.1825C7.80651 52.11 8.37201 51.2975 9.32101 50.979C10.322 50.641 11.388 50.927 12.051 51.72C12.714 52.513 12.857 52.513 13.494 51.733C14.2155 50.8555 15.444 50.589 16.4905 51.0895C17.5175 51.577 18.018 52.7275 17.7385 54.0015C17.4655 55.243 16.7245 56.2115 15.8665 57.102C14.9305 58.0705 13.8775 58.9025 12.766 59.767H12.779Z" fill="white"/>
<path id="Vector_14" d="M50.5115 59.5987C50.5115 58.3377 50.5115 57.1157 50.5115 55.8937C50.5115 55.6792 50.661 55.5752 50.7845 55.4517C51.4735 54.7757 52.0715 54.0217 52.637 53.2417C53.183 52.4812 53.807 51.7532 53.7615 50.6807C54.236 51.1552 54.2555 51.9872 53.8395 52.5592C53.5405 52.9752 53.287 53.3847 53.3 53.9242C53.3195 54.5352 53.5665 54.8082 54.1775 54.8212C54.977 54.8342 55.7765 54.8212 56.628 54.8212C56.355 56.4137 56.069 57.9412 55.653 59.4947C53.963 59.5012 52.2925 59.7612 50.505 59.5922L50.5115 59.5987Z" fill="white"/>
<path id="Vector_15" d="M47.853 55.1074H49.27V60.0734H47.853V55.1074Z" fill="white"/>
<path id="Vector_16" d="M52.1625 13.903C50.557 13.903 48.9515 13.89 47.346 13.9095C46.8845 13.9095 46.709 13.7925 46.7155 13.2985C46.7415 10.8675 46.735 8.43653 46.7155 6.01203C46.7155 5.52453 46.8715 5.39453 47.3395 5.39453C50.5895 5.40753 53.846 5.40753 57.096 5.39453C57.551 5.39453 57.733 5.51153 57.7265 6.00553C57.7005 8.43653 57.707 10.8675 57.7265 13.292C57.7265 13.773 57.577 13.916 57.1025 13.9095C55.458 13.8835 53.807 13.903 52.1625 13.903ZM50.6025 13.0905C50.804 13.1165 51.025 13.0385 51.2395 12.915C52.559 12.1545 53.885 11.407 55.1915 10.627C56.017 10.133 56.0235 9.17753 55.2045 8.68353C53.8785 7.89053 52.546 7.11703 51.2005 6.36953C50.427 5.94053 49.569 6.38903 49.543 7.26653C49.4975 8.85253 49.517 10.4385 49.543 12.0245C49.5495 12.6355 49.998 13.058 50.609 13.097L50.6025 13.0905Z" fill="white"/>
<path id="Vector_17" d="M50.752 11.8108V7.50781C51.9935 8.22281 53.196 8.91831 54.4765 9.65281C53.222 10.3808 52.013 11.0763 50.752 11.8108Z" fill="white"/>
</g>
</svg>
