<svg width="65" height="65" viewBox="0 0 65 65" fill="none" xmlns="http://www.w3.org/2000/svg">
<g id="Social Media Advertising 1">
<path id="Vector" d="M20.9431 50.0824H47.2421V41.4179C47.7621 42.2239 48.2431 43.0234 48.8736 43.7189C49.0231 43.8814 48.9776 44.0634 48.9776 44.2454C48.9776 47.0534 48.9906 49.8679 48.9776 52.6759C48.9646 55.1394 47.1706 56.9269 44.7006 56.9269C37.6156 56.9334 30.5241 56.9334 23.4391 56.9269C21.0211 56.9269 19.2531 55.1979 19.1946 52.7799C19.1621 51.5839 19.1621 50.3814 19.1946 49.1854C19.2076 48.6914 19.0776 48.5224 18.5576 48.4769C16.8026 48.3274 15.0866 47.9764 13.5071 47.1444C12.4021 46.5659 11.4531 45.7859 10.9136 44.6549C10.5886 43.9724 10.1856 43.7449 9.42506 43.9594C9.42506 44.3104 9.43156 44.7004 9.42506 45.0839C9.41206 45.7339 9.13256 46.0784 8.50206 46.0849C6.51956 46.1044 4.53706 46.1044 2.54806 46.0849C1.91106 46.0784 1.61206 45.7404 1.61206 45.0969C1.61206 39.5199 1.61206 33.9429 1.61206 28.3594C1.61206 27.6899 1.91756 27.3714 2.60006 27.3649C4.54356 27.3519 6.48706 27.3519 8.42406 27.3649C9.13256 27.3649 9.41206 27.6899 9.41856 28.4114C9.41856 28.7624 9.41856 29.1134 9.41856 29.4774C9.60056 29.5879 9.77606 29.5229 9.93856 29.5294C9.97756 29.4709 10.0166 29.4449 10.0166 29.4059C10.2571 27.1569 11.3556 25.4084 13.1366 24.0629C14.7421 22.8474 16.5881 22.1519 18.4926 21.5929C18.7071 21.5279 18.9216 21.4694 19.1686 21.3914C19.1686 21.1444 19.1686 20.9234 19.1686 20.6959C19.1686 17.9659 19.1686 15.2424 19.1686 12.5124C19.1751 9.77591 20.8911 8.06641 23.6146 8.06641C30.6411 8.06641 37.6676 8.06641 44.6941 8.06641C46.4296 8.06641 47.9311 9.00891 48.4966 10.4454C48.0611 10.8094 47.6191 11.1734 47.1511 11.5634C46.6246 10.1659 45.5651 9.70441 44.1611 9.78891C43.5241 9.82791 42.8806 9.79541 42.1591 9.79541C42.1591 10.3544 42.1591 10.9069 42.1591 11.4529C42.1461 12.6359 41.3726 13.4744 40.1961 13.4809C36.2506 13.5004 32.3051 13.5004 28.3531 13.4809C27.1766 13.4744 26.4096 12.6294 26.3966 11.4464C26.3966 10.9134 26.3966 10.3804 26.3966 9.80841C25.2396 9.80841 24.1281 9.75641 23.0231 9.82141C21.9246 9.88641 20.9561 10.8354 20.9431 11.9274C20.8976 14.9174 20.9301 17.9074 20.9301 20.9559C22.0286 20.7739 23.0946 20.5919 24.1671 20.4164C25.3046 20.2279 26.4486 20.0459 27.5926 19.8704C28.6976 19.7079 29.8026 20.2344 30.2706 21.2419C30.7516 22.2689 30.9856 23.3804 30.7061 24.4919C30.3161 26.0389 29.2696 26.9424 27.7096 27.2739C25.7531 27.6834 23.8031 28.1059 21.8336 28.5219C21.6971 29.6269 21.4371 30.6864 20.9821 31.6874C20.9106 31.8499 20.9106 32.0514 20.9106 32.2334C20.9106 38.0834 20.9106 43.9269 20.9106 49.7769C20.9106 49.8614 20.9171 49.9394 20.9236 50.0629L20.9431 50.0824ZM19.1361 46.7934V34.6449C18.2521 35.5419 17.3746 36.2829 16.2371 36.6339C15.4571 36.8679 14.6901 36.8874 13.9621 36.4779C13.5136 36.2244 13.3901 35.8149 13.5851 35.3664C13.7736 34.9374 14.1766 34.7164 14.6056 34.9049C15.3661 35.2364 16.0096 34.9829 16.5751 34.5604C18.7136 32.9744 19.9031 30.8294 20.0981 28.1709C20.1631 27.2999 20.2801 27.1049 21.1381 26.9229C23.2571 26.4744 25.3696 26.0259 27.4886 25.5644C28.5351 25.3369 29.1851 24.4984 29.0876 23.5299C29.0551 23.1789 28.9771 22.8344 28.9056 22.4964C28.7626 21.7944 28.3596 21.5344 27.6576 21.6449C26.4356 21.8399 25.2136 22.0154 23.9916 22.2234C21.4111 22.6524 18.8371 23.1269 16.4191 24.1994C14.6901 24.9664 13.1431 25.9479 12.2851 27.7354C11.8886 28.5544 11.7781 29.4254 11.7326 30.3159C11.7001 31.0114 11.4141 31.2714 10.7251 31.2909C10.3156 31.2974 9.91256 31.2909 9.49006 31.2909V42.1654C9.96456 42.1654 10.4001 42.1914 10.8291 42.1654C11.5181 42.1134 11.8821 42.4124 12.0901 43.0689C12.3891 44.0244 13.0001 44.7784 13.8451 45.3179C15.4571 46.3514 17.2836 46.6244 19.1491 46.8064L19.1361 46.7934Z" fill="white"/>
<path id="Vector_2" d="M32.942 38.5254C33.2735 40.1569 33.5985 41.7884 33.9235 43.4199C33.9625 43.6214 34.008 43.8229 34.047 44.0244C34.1575 44.6354 33.93 45.0124 33.306 45.1554C32.383 45.3634 31.4535 45.5584 30.524 45.7404C29.8285 45.8769 29.4515 45.5974 29.302 44.8629C28.9575 43.1664 28.6065 41.4699 28.2945 39.7669C28.2165 39.3509 28.054 39.1624 27.625 39.0649C25.3435 38.5579 23.7315 36.4779 23.7445 34.1119C23.7575 31.8109 25.3565 29.7959 27.612 29.2759C28.7755 29.0094 29.952 28.7754 31.122 28.5544C31.4405 28.4959 31.7005 28.3789 31.9475 28.1839C33.4555 26.9944 34.97 25.8179 36.4845 24.6414C36.7055 24.4724 36.8485 24.2969 36.907 24.0044C37.1605 22.8149 38.038 22.0869 39.1495 22.0869C40.2545 22.0869 41.158 22.8409 41.3985 24.0174C42.12 27.5534 42.8285 31.0894 43.537 34.6189C43.8035 35.9514 44.0765 37.2839 44.343 38.6164C44.577 39.7669 44.0505 40.8329 43.0365 41.2749C42.016 41.7169 40.8655 41.3724 40.222 40.3909C40.0725 40.1634 39.897 40.0464 39.6565 39.9814C37.7455 39.4679 35.8345 38.9609 33.93 38.4344C33.5855 38.3369 33.293 38.3759 32.9355 38.5254H32.942ZM37.1995 26.2794C35.8735 27.3129 34.619 28.3139 33.3385 29.2759C33.007 29.5294 32.929 29.7699 33.0135 30.1599C33.345 31.6874 33.6505 33.2214 33.969 34.7554C34.1055 35.3989 34.0665 36.1854 34.4305 36.6469C34.814 37.1409 35.6655 37.0889 36.309 37.2709C37.375 37.5829 38.4605 37.8494 39.6175 38.1614C38.805 34.1509 38.012 30.2444 37.2125 26.2794H37.1995ZM29.9065 39.1039C30.2445 40.7419 30.563 42.3084 30.888 43.8944C31.356 43.7969 31.746 43.7059 32.188 43.6149C31.8565 41.9964 31.538 40.4169 31.213 38.8244C30.7385 38.9284 30.342 39.0129 29.9065 39.1104V39.1039Z" fill="white"/>
<path id="Vector_3" d="M46.072 33.5205C47.3135 33.1955 48.4055 32.8965 49.504 32.6235C49.9135 32.5195 50.258 32.344 50.57 32.045C52.8905 29.8545 56.121 29.328 59.0005 30.6475C61.789 31.9281 63.5115 34.8075 63.3685 37.9471C63.1995 41.5806 60.086 44.7526 56.5565 45.0451C52.5395 45.3766 49.062 42.6595 48.3665 38.883C48.217 38.064 48.1845 37.2385 48.3275 36.4195C48.4055 35.9905 48.2885 35.6525 47.983 35.36C47.372 34.775 46.7675 34.1901 46.0785 33.5271L46.072 33.5205ZM55.5425 38.363C56.472 38.363 57.4015 38.3695 58.3245 38.363C58.981 38.3565 59.384 38.012 59.384 37.4985C59.384 36.9785 58.9745 36.634 58.318 36.6275C56.459 36.6145 54.6065 36.6145 52.7475 36.6275C52.078 36.6275 51.701 36.9655 51.7075 37.5115C51.7075 38.064 52.0585 38.363 52.7605 38.3695C53.69 38.3825 54.6195 38.3695 55.5425 38.3695V38.363ZM55.5555 39.533C54.6065 39.533 53.6575 39.5265 52.7085 39.533C52.0585 39.533 51.714 39.832 51.7075 40.3715C51.701 40.898 52.052 41.2555 52.676 41.262C54.5935 41.2815 56.511 41.2815 58.4285 41.262C59.02 41.262 59.41 40.8395 59.384 40.3455C59.358 39.8645 58.9875 39.5461 58.4025 39.5396C57.4535 39.5266 56.5045 39.5396 55.5555 39.5396V39.533ZM55.51 35.4835C56.459 35.4835 57.408 35.4835 58.357 35.4835C58.968 35.4835 59.3645 35.1456 59.384 34.6516C59.4035 34.1315 58.9875 33.761 58.3505 33.7545C56.472 33.748 54.5935 33.748 52.7215 33.7545C52.091 33.7545 51.727 34.0795 51.714 34.5995C51.701 35.1585 52.052 35.4835 52.728 35.49C53.6575 35.4965 54.587 35.49 55.51 35.49V35.4835Z" fill="white"/>
<path id="Vector_4" d="M45.864 24.98C46.241 24.213 46.5595 23.5045 46.93 22.822C47.19 22.341 47.1835 21.9185 46.9495 21.418C44.6095 16.4195 48.1 10.7515 53.612 10.5825C57.239 10.472 60.463 13.0915 61.217 16.7575C61.932 20.2285 59.8845 23.9075 56.537 25.188C54.509 25.968 52.5005 25.8965 50.531 24.9865C50.141 24.8045 49.764 24.733 49.3415 24.7655C48.2105 24.85 47.0795 24.902 45.864 24.967V24.98ZM49.244 18.298C49.244 19.546 50.388 20.5145 51.6035 20.3C52.208 20.1895 53.144 21.0865 53.066 21.6975C52.897 22.9975 53.7225 24.044 54.951 24.083C56.1795 24.122 57.122 23.173 57.0635 21.9445C57.0115 20.7485 55.965 19.923 54.704 20.079C54.548 20.0985 54.366 20.2155 54.2295 20.079C53.885 19.754 53.3715 19.4615 53.2675 19.065C53.1505 18.5905 53.1505 17.9925 53.2675 17.5115C53.365 17.1345 53.8525 16.8485 54.184 16.5365C54.405 16.3285 54.652 16.5495 54.8925 16.5365C55.159 16.517 55.4255 16.5365 55.6855 16.439C56.68 16.0945 57.2715 15.022 57.0115 14.021C56.7385 12.981 55.718 12.344 54.6325 12.539C53.6185 12.721 52.91 13.7155 53.0465 14.7815C53.144 15.5355 52.286 16.4 51.545 16.2895C50.3425 16.114 49.244 17.076 49.244 18.298Z" fill="white"/>
</g>
</svg>
