<svg width="65" height="65" viewBox="0 0 65 65" fill="none" xmlns="http://www.w3.org/2000/svg">
<g id="Tailored Social Media Strategy 1">
<path id="Vector" d="M11.1865 60.4827V44.8697C15.3855 43.9597 19.461 44.1157 23.348 46.1047C23.868 46.3712 24.3815 46.5077 24.973 46.5012C28.574 46.4882 32.1685 46.4882 35.7695 46.5012C37.297 46.5012 38.298 47.1967 38.623 48.4447C39.0585 50.1022 37.869 51.6817 36.114 51.6947C32.396 51.7207 28.678 51.7077 24.9665 51.7077C24.7325 51.7077 24.4855 51.6817 24.258 51.7207C23.738 51.8182 23.4 52.1172 23.3935 52.6762C23.3935 53.2677 23.725 53.6057 24.2905 53.6707C24.7325 53.7162 25.1875 53.6837 25.636 53.6837C29.0225 53.6837 32.409 53.6707 35.789 53.6837C37.349 53.6902 38.662 53.1767 39.6565 51.9612C39.871 51.7012 40.0725 51.6427 40.3845 51.6817C41.925 51.8767 43.3095 51.4607 44.642 50.6807C49.4715 47.8532 54.327 45.0712 59.1695 42.2632C59.7545 41.9252 60.359 41.6717 61.0545 41.7887C62.764 42.0747 63.5765 43.7257 62.79 45.2922C62.517 45.8382 62.101 46.2412 61.6265 46.6117C56.719 50.4727 51.844 54.3857 46.8845 58.1752C44.5835 59.9367 41.8665 60.9702 39.1365 61.9127C34.4695 63.5247 29.6985 63.7002 24.8495 62.9722C20.358 62.2962 15.9575 61.1652 11.4465 60.5932C11.3815 60.5867 11.3165 60.5412 11.1865 60.4957V60.4827Z" fill="white"/>
<path id="Vector_2" d="M42.7245 32.7994C42.7245 39.2214 37.505 44.4279 31.07 44.4279C24.687 44.4279 19.4675 39.2084 19.4545 32.8254C19.4415 26.4164 24.674 21.1644 31.083 21.1514C37.492 21.1449 42.731 26.3839 42.7245 32.7994ZM26.5655 30.3359C26.0195 30.3359 25.4735 30.3424 24.934 30.3359C24.531 30.3294 24.1475 30.3684 23.998 30.8039C23.842 31.2524 24.0695 31.5579 24.44 31.8114C25.3305 32.4354 26.195 33.0984 27.092 33.7159C27.5925 34.0604 27.7485 34.4504 27.534 35.0419C27.1635 36.0624 26.8645 37.1089 26.507 38.1359C26.364 38.5584 26.3185 38.9289 26.7215 39.2084C27.0985 39.4684 27.4235 39.3189 27.755 39.0719C28.5675 38.4609 29.4255 37.9019 30.212 37.2649C30.8295 36.7644 31.33 36.7254 31.9605 37.2454C32.7405 37.8954 33.605 38.4479 34.4175 39.0524C34.7685 39.3189 35.1195 39.4749 35.5095 39.1759C35.8735 38.8964 35.8215 38.5324 35.698 38.1424C35.36 37.1349 35.061 36.1144 34.697 35.1199C34.4695 34.4959 34.567 34.0604 35.152 33.6704C36.062 33.0724 36.92 32.4029 37.804 31.7724C38.142 31.5319 38.337 31.2329 38.194 30.8039C38.0575 30.3944 37.726 30.3229 37.3425 30.3229C36.2765 30.3294 35.2105 30.2969 34.1445 30.3489C33.397 30.3814 33.02 30.0759 32.8185 29.3739C32.5195 28.3274 32.1555 27.3069 31.8305 26.2734C31.707 25.8899 31.486 25.6559 31.07 25.6689C30.6865 25.6819 30.4785 25.9094 30.368 26.2604C30.173 26.8649 29.991 27.4759 29.783 28.0804C28.8925 30.6349 29.5165 30.3359 26.715 30.3294C26.6695 30.3294 26.6175 30.3294 26.572 30.3294L26.5655 30.3359Z" fill="white"/>
<path id="Vector_3" d="M15.6 24.8625C9.1715 24.8625 3.952 19.6235 3.978 13.208C4.004 6.80552 9.191 1.63152 15.5935 1.62502C22.0675 1.61202 27.2545 6.82502 27.235 13.312C27.2155 19.7015 22.0155 24.8625 15.5935 24.8625H15.6ZM15.6325 8.97652C15.509 8.88552 15.4505 8.84652 15.3985 8.80102C14.0205 7.63102 12.376 7.42302 10.9395 8.24852C9.5095 9.06752 8.7815 10.6275 9.1715 12.376C9.9515 15.9055 12.2915 18.2065 15.3205 19.929C15.522 20.046 15.717 20.046 15.925 19.929C18.9345 18.2195 21.2485 15.912 22.061 12.4345C22.568 10.27 21.307 8.30702 19.2205 7.84552C17.8425 7.54002 16.6595 7.98202 15.639 8.97002L15.6325 8.97652Z" fill="white"/>
<path id="Vector_4" d="M47.0145 24.8626C40.5795 24.8691 35.36 19.6626 35.3665 13.2341C35.3665 6.81205 40.599 1.60555 47.034 1.62505C53.4495 1.64455 58.63 6.81205 58.643 13.2146C58.656 19.6496 53.4625 24.8496 47.021 24.8626H47.0145ZM41.1905 10.6796V18.8891C44.226 18.8891 47.203 18.9541 50.1865 18.8696C52.221 18.8111 53.8005 17.0756 53.9305 15.0086C54.054 13.0521 52.5915 11.1476 50.6545 10.7836C50.219 10.6991 49.7705 10.6926 49.2635 10.6471C49.2635 10.3871 49.2635 10.1531 49.2635 9.92555C49.2635 9.23655 49.2765 8.55405 49.2635 7.86505C49.2245 6.57805 48.3405 5.75905 47.0015 5.75255C45.63 5.74605 44.655 6.55855 44.603 7.83255C44.564 8.76855 44.5965 9.70455 44.5965 10.6861H41.1905V10.6796Z" fill="white"/>
<path id="Vector_5" d="M9.18451 52.995C9.18451 55.6925 9.18451 58.3965 9.18451 61.094C9.18451 62.251 8.80751 62.6345 7.66351 62.6345C6.19451 62.6345 4.72551 62.6345 3.25651 62.6345C2.32701 62.6345 1.91101 62.2315 1.91101 61.2955C1.91101 55.777 1.91101 50.2585 1.91101 44.74C1.91101 43.7975 2.30751 43.388 3.23701 43.375C4.77751 43.3555 6.31801 43.3555 7.85201 43.375C8.77501 43.388 9.17801 43.817 9.17801 44.753C9.18451 47.5025 9.17801 50.2455 9.17801 52.995H9.18451Z" fill="white"/>
</g>
</svg>
