<svg width="65" height="65" viewBox="0 0 65 65" fill="none" xmlns="http://www.w3.org/2000/svg">
<g id="Visual Content Creation 1">
<path id="Vector" d="M1.72897 49.9004H1.67697L1.63147 49.8874V45.4219C1.67047 45.4414 1.70947 45.4414 1.74197 45.4219C1.74197 46.9169 1.73547 48.4119 1.72897 49.9069V49.9004Z" fill="white"/>
<path id="Vector_2" d="M1.729 49.9002C1.729 48.4052 1.7355 46.9102 1.742 45.4152C1.859 45.0512 2.132 44.8887 2.4895 44.7977C3.1915 44.6222 3.887 44.4272 4.5825 44.2452C5.278 44.0567 5.5315 43.4197 5.161 42.7892C4.8035 42.1847 4.459 41.5737 4.095 40.9757C3.7895 40.4687 3.8545 40.0397 4.2705 39.6237C5.148 38.7657 6.0125 37.8947 6.8705 37.0172C7.267 36.6142 7.696 36.5752 8.177 36.8612C8.7425 37.1992 9.321 37.5372 9.8865 37.8687C10.699 38.3497 11.284 38.1157 11.5115 37.2187C11.661 36.6337 11.8105 36.0552 11.9665 35.4702C12.194 34.6122 12.389 34.4562 13.26 34.4497C13.494 34.4497 13.7345 34.4497 14.001 34.4497V29.6072C13.5655 29.6072 13.1495 29.6072 12.7335 29.6072C11.1215 29.6072 9.516 29.6202 7.904 29.6072C6.552 29.5942 5.4795 28.6127 5.4665 27.2802C5.434 24.1212 5.434 20.9622 5.4665 17.8032C5.4795 16.4642 6.539 15.4892 7.8975 15.4762C9.7305 15.4567 11.557 15.4697 13.39 15.4697C13.585 15.4697 13.78 15.4697 14.0335 15.4697C14.0335 15.2162 14.0335 15.0212 14.0335 14.8262C14.0335 12.7722 14.0205 10.7247 14.0335 8.67074C14.053 5.99274 15.912 4.11424 18.59 4.11424C29.315 4.10124 40.0335 4.10124 50.7585 4.11424C53.4625 4.11424 55.3345 6.01224 55.341 8.71624C55.341 9.89924 55.341 11.0822 55.341 12.3432C56.4265 12.3432 57.486 12.3432 58.5455 12.3432C59.046 12.3432 59.553 12.3432 60.0535 12.3432C61.659 12.3692 62.881 13.4807 62.9005 15.0862C62.9395 18.8497 62.946 22.6067 62.9005 26.3702C62.881 27.9952 61.633 29.1067 59.9885 29.1197C58.461 29.1262 56.94 29.1197 55.38 29.1197V36.4257C56.914 36.4257 58.435 36.4257 59.956 36.4257C60.4565 36.4257 60.957 36.4257 61.4445 36.5817C62.712 36.9912 63.3685 37.8492 63.3685 39.1687C63.375 42.0482 63.3685 44.9212 63.3685 47.8007C63.3685 49.6077 62.27 50.7062 60.437 50.7322C59.592 50.7452 58.747 50.7322 57.902 50.7322C57.0765 50.7322 56.251 50.7322 55.3865 50.7322C55.2825 51.2652 55.3605 51.8047 55.2435 52.3377C54.8015 54.3202 53.131 55.7892 51.0965 55.8217C48.139 55.8672 45.1815 55.8412 42.224 55.8412C36.8355 55.8412 31.4405 55.8412 26.052 55.8282C25.61 55.8282 25.3045 55.9517 25.0055 56.2702C24.375 56.9462 23.7055 57.5897 23.049 58.2397C22.464 58.8247 22.2105 58.8572 21.515 58.4477C20.9755 58.1357 20.4425 57.8172 19.9095 57.4987C19.11 57.0242 18.5185 57.2777 18.2845 58.1812C18.122 58.8247 17.953 59.4617 17.7905 60.1052C17.654 60.6512 17.329 60.9112 16.757 60.9112C15.509 60.8982 14.261 60.8982 13.013 60.9112C12.4345 60.9112 12.1225 60.6252 11.9925 60.0857C11.8365 59.4422 11.6675 58.8052 11.4985 58.1617C11.2775 57.2907 10.686 57.0372 9.919 57.4792C9.3275 57.8237 8.736 58.1617 8.151 58.5127C7.67 58.8052 7.254 58.7597 6.851 58.3502C5.993 57.4727 5.122 56.6082 4.2445 55.7502C3.8155 55.3342 3.7635 54.9052 4.069 54.3982C4.433 53.8002 4.784 53.1892 5.135 52.5782C5.525 51.9087 5.2585 51.2912 4.5045 51.0962C3.8415 50.9272 3.185 50.7647 2.522 50.5892C2.1385 50.4917 1.8005 50.3292 1.703 49.8937L1.729 49.9002ZM15.8145 34.4432C16.12 34.4432 16.3605 34.4432 16.601 34.4432C17.4005 34.4497 17.6215 34.6187 17.8295 35.3922C17.992 35.9902 18.148 36.5947 18.304 37.1992C18.538 38.1092 19.1165 38.3432 19.929 37.8687C20.4815 37.5437 21.0405 37.2252 21.5865 36.8872C22.1065 36.5622 22.555 36.5947 22.9905 37.0432C23.8355 37.9077 24.687 38.7592 25.545 39.6042C25.987 40.0397 26.026 40.4882 25.701 41.0082C25.311 41.6387 24.9405 42.2822 24.57 42.9257C24.323 43.3612 24.6285 44.0762 25.116 44.2062C25.8505 44.4077 26.585 44.6157 27.326 44.7847C27.885 44.9147 28.1385 45.2657 28.145 45.8117C28.145 46.1237 28.145 46.4357 28.145 46.7282H44.265C44.265 44.2712 44.3365 41.8597 44.2455 39.4482C44.1675 37.3292 45.747 36.3867 47.268 36.3997C48.6785 36.4062 50.0825 36.3997 51.493 36.3997C52.169 36.3997 52.845 36.3997 53.547 36.3997V29.0937C51.5515 29.0937 49.582 29.1067 47.6125 29.0937C45.9875 29.0807 44.7525 27.8977 44.746 26.2987C44.7265 22.5547 44.7265 18.8172 44.746 15.0732C44.759 13.5197 45.968 12.3367 47.5215 12.3237C49.3285 12.3042 51.142 12.3237 52.9555 12.3172C53.1505 12.3172 53.3585 12.3757 53.547 12.2587V10.4127H15.8275V15.4567C17.836 15.4567 19.8055 15.4502 21.775 15.4567C23.335 15.4632 24.362 16.4447 24.375 18.0047C24.401 21.0207 24.401 24.0367 24.375 27.0592C24.362 28.6062 23.3155 29.5877 21.7555 29.5942C19.968 29.6007 18.174 29.5942 16.3865 29.5942C16.198 29.5942 15.99 29.5227 15.8145 29.6722V34.4367V34.4432ZM5.915 40.5532C6.1295 40.9237 6.3115 41.3332 6.578 41.6777C7.28 42.5877 7.514 43.5107 6.8055 44.5247C6.7275 44.6352 6.7015 44.7847 6.6625 44.9212C6.5195 45.4152 6.201 45.6817 5.7005 45.7922C4.9465 45.9612 4.199 46.1822 3.4515 46.3837C3.4515 47.2092 3.4515 47.9762 3.4515 48.7367C3.4515 48.8147 3.471 48.8927 3.484 48.9837C3.822 49.0747 4.1405 49.2112 4.472 49.2502C5.7785 49.3932 6.7535 49.9132 7.02 51.3302C7.0395 51.4472 7.1175 51.5512 7.176 51.6552C7.3775 52.0257 7.3515 52.3832 7.137 52.7407C6.786 53.3257 6.448 53.9172 6.097 54.5022C5.9735 54.7102 5.8955 54.8597 6.11 55.0742C6.6495 55.6137 7.163 56.1727 7.683 56.7252C8.1575 56.4522 8.567 56.2767 8.9115 56.0037C9.8215 55.2822 10.7445 55.0742 11.7585 55.7827C11.8365 55.8412 11.9405 55.8737 12.038 55.8932C12.623 56.0102 12.922 56.3677 13.0455 56.9462C13.208 57.6807 13.4225 58.4087 13.611 59.1237H16.2175C16.3085 58.7597 16.432 58.4152 16.484 58.0642C16.6725 56.8097 17.147 55.8152 18.5575 55.5747C18.6355 55.5617 18.7005 55.5097 18.772 55.4707C19.214 55.2237 19.63 55.2367 20.072 55.5162C20.7285 55.9322 21.411 56.3027 22.022 56.6537C22.672 56.0102 23.2765 55.4187 23.9005 54.8012C23.699 54.4567 23.53 54.0667 23.27 53.7352C22.5355 52.7927 22.3015 51.8372 23.0295 50.7777C23.1075 50.6672 23.1465 50.5242 23.179 50.3877C23.3025 49.9327 23.595 49.6857 24.05 49.5817C24.8235 49.3997 25.584 49.1787 26.3445 48.9772V46.3642C25.8895 46.2407 25.454 46.0847 24.999 46.0132C23.92 45.8507 23.088 45.4412 22.8995 44.2387C22.88 44.1022 22.8085 43.9722 22.7305 43.8552C22.399 43.3482 22.49 42.8867 22.802 42.3992C23.1985 41.7817 23.5495 41.1317 23.8745 40.5792C23.231 39.9097 22.633 39.2922 22.035 38.6682C21.606 38.9217 21.138 39.1362 20.748 39.4352C19.929 40.0592 19.123 40.2412 18.226 39.6172C18.0505 39.4937 17.823 39.4417 17.6085 39.3832C17.173 39.2662 16.939 38.9802 16.835 38.5512C16.64 37.7777 16.432 37.0042 16.2305 36.2437H13.6045C13.4745 36.7507 13.299 37.2317 13.2275 37.7257C13.0845 38.7397 12.6425 39.4482 11.5635 39.6367C11.3555 39.6757 11.1605 39.8057 10.9655 39.9162C10.5755 40.1307 10.2115 40.1047 9.828 39.8707C9.1455 39.4547 8.45 39.0582 7.813 38.6877C7.1695 39.3182 6.552 39.9227 5.9215 40.5402L5.915 40.5532ZM53.807 48.9317C54.327 48.9317 54.8535 48.9317 55.3735 48.9317C57.0635 48.9317 58.7535 48.9382 60.4435 48.9317C61.308 48.9317 61.607 48.6132 61.607 47.7747C61.607 44.9407 61.594 42.1067 61.62 39.2662C61.62 38.6292 61.321 38.3432 60.7685 38.2262C60.5345 38.1807 60.2875 38.1872 60.047 38.1872C56.2055 38.1872 52.364 38.1872 48.5225 38.1872C48.061 38.1872 47.5995 38.1677 47.138 38.1937C46.3255 38.2392 46.046 38.5512 46.046 39.3637C46.046 42.1197 46.046 44.8757 46.046 47.6252C46.046 48.6782 46.2865 48.9317 47.3525 48.9317C49.504 48.9317 51.6555 48.9317 53.807 48.9317ZM7.202 21.2287C9.5875 20.0717 10.582 20.2537 12.4735 22.1387C13.286 22.9512 14.092 23.7637 14.9045 24.5697C15.873 25.5317 16.7115 25.5382 17.667 24.5892C18.0115 24.2512 18.343 23.9002 18.694 23.5687C19.669 22.6522 20.8065 22.3922 22.0935 22.7562C22.256 22.8017 22.4055 22.9317 22.6135 22.8797C22.6135 21.3067 22.6135 19.7402 22.6135 18.1737C22.6135 17.4717 22.3795 17.2247 21.6775 17.2247C17.173 17.2247 12.6685 17.2247 8.164 17.2247C7.4295 17.2247 7.2085 17.4652 7.2085 18.2192C7.2085 19.2072 7.2085 20.1887 7.2085 21.2287H7.202ZM49.8355 20.6697C49.8355 21.9372 49.8225 23.2047 49.8355 24.4722C49.8485 25.4732 50.4985 25.8437 51.363 25.3497C53.5405 24.1017 55.7115 22.8472 57.876 21.5862C58.734 21.0857 58.721 20.3317 57.85 19.8247C55.6985 18.5767 53.547 17.3287 51.389 16.0937C50.4855 15.5737 49.8485 15.9377 49.8355 16.9842C49.8225 18.2127 49.8355 19.4347 49.8355 20.6632V20.6697ZM34.7685 8.11174C35.1325 8.11174 35.49 8.12474 35.854 8.11174C36.387 8.08574 36.7445 7.73474 36.7575 7.25374C36.7705 6.76624 36.439 6.37624 35.8995 6.35024C35.1585 6.31774 34.411 6.31774 33.67 6.35024C33.15 6.37624 32.799 6.79224 32.825 7.26674C32.8445 7.74774 33.202 8.08574 33.748 8.11174C34.086 8.12474 34.4305 8.11174 34.775 8.11174H34.7685ZM34.827 50.4852C34.4435 50.4852 34.06 50.4722 33.683 50.4852C33.163 50.5112 32.864 50.8232 32.838 51.3237C32.812 51.8047 33.0785 52.1622 33.5595 52.2142C34.3785 52.3052 35.204 52.3052 36.023 52.2142C36.53 52.1557 36.7965 51.7917 36.751 51.2782C36.7055 50.7972 36.4 50.5177 35.9125 50.4917C35.555 50.4722 35.191 50.4917 34.827 50.4917V50.4852Z" fill="white"/>
<path id="Vector_3" d="M25.0446 29.952C25.0446 24.6285 29.3996 20.2995 34.7296 20.3125C40.0141 20.3255 44.3496 24.6805 44.3431 29.9715C44.3431 35.282 39.9686 39.624 34.6516 39.611C29.3606 39.598 25.0446 35.256 25.0511 29.952H25.0446ZM40.2546 35.4705C43.4331 32.513 43.2706 27.1635 39.9881 24.1605C36.5626 21.034 31.2586 21.5085 28.4246 25.2135C25.7011 28.7625 26.7996 33.514 29.1721 35.438C29.1721 35.1585 29.1591 34.892 29.1721 34.632C29.2306 33.397 29.9781 32.396 31.1156 31.98C31.5186 31.8305 31.8371 31.8565 32.2336 32.097C33.8066 33.046 35.4446 33.098 37.0241 32.1555C37.5961 31.811 38.0576 31.85 38.5841 32.123C39.4616 32.578 40.0076 33.2865 40.1506 34.268C40.2026 34.6385 40.2156 35.0155 40.2481 35.4705H40.2546Z" fill="white"/>
<path id="Vector_4" d="M7.86499 47.6902C7.86499 43.8097 11.024 40.6247 14.898 40.6182C18.7655 40.6052 21.944 43.7902 21.957 47.6707C21.97 51.5577 18.811 54.7232 14.9175 54.7232C11.024 54.7232 7.87149 51.5837 7.86499 47.6902Z" fill="white"/>
<path id="Vector_5" d="M53.781 47.0667C52.4355 47.0667 51.0901 47.0667 49.7446 47.0667C49.5626 47.0667 49.3805 47.0667 49.205 47.0342C48.7305 46.9367 48.4576 46.6247 48.4771 46.1437C48.4966 45.6367 48.802 45.3312 49.322 45.2987C49.7445 45.2727 50.1671 45.2922 50.5896 45.2922C53.0791 45.2922 55.5686 45.2922 58.0581 45.2922C58.7666 45.2922 59.189 45.6237 59.189 46.1697C59.189 46.7092 58.7666 47.0602 58.0581 47.0667C56.6346 47.0732 55.2045 47.0667 53.781 47.0667Z" fill="white"/>
<path id="Vector_6" d="M53.7745 44.213C52.3705 44.213 50.96 44.213 49.556 44.213C48.8865 44.213 48.4835 43.888 48.4705 43.355C48.4575 42.796 48.867 42.4385 49.569 42.4385C52.403 42.4385 55.2305 42.4385 58.0645 42.4385C58.7665 42.4385 59.1955 42.796 59.189 43.342C59.189 43.888 58.7665 44.2195 58.0515 44.2195C56.628 44.2195 55.198 44.2195 53.7745 44.2195V44.213Z" fill="white"/>
<path id="Vector_7" d="M53.846 39.6045C55.2695 39.6045 56.6995 39.6045 58.123 39.6045C58.7795 39.6045 59.189 39.949 59.189 40.482C59.189 41.0085 58.7795 41.3595 58.1165 41.3595C55.2695 41.366 52.416 41.366 49.569 41.3595C48.867 41.3595 48.4575 41.002 48.477 40.443C48.4965 39.91 48.893 39.6045 49.5755 39.6045C50.999 39.6045 52.4225 39.6045 53.8525 39.6045H53.846Z" fill="white"/>
<path id="Vector_8" d="M18.5445 20.7674C18.525 22.0479 17.4525 23.0879 16.172 23.0749C14.8785 23.0554 13.7995 21.9374 13.8385 20.6569C13.8775 19.3504 14.9565 18.3364 16.289 18.3689C17.5695 18.4014 18.5705 19.4609 18.551 20.7739L18.5445 20.7674Z" fill="white"/>
<path id="Vector_9" d="M31.798 28.1256C31.798 26.5071 33.0915 25.2396 34.7165 25.2461C36.296 25.2526 37.583 26.5396 37.596 28.1191C37.6025 29.7116 36.2895 31.0376 34.697 31.0441C33.098 31.0441 31.798 29.7376 31.798 28.1256Z" fill="white"/>
</g>
</svg>
