<svg width="65" height="65" viewBox="0 0 65 65" fill="none" xmlns="http://www.w3.org/2000/svg">
<g id="Analytics &#38; Optimization 1">
<path id="Vector" d="M20.3385 28.6389V21.9309C20.8715 21.9309 21.385 21.9699 21.892 21.9244C23.413 21.7944 24.4075 20.6504 24.3425 19.1619C24.284 17.7644 23.153 16.6529 21.762 16.6204C20.2995 16.5879 19.1425 17.6474 19.032 19.1424C18.9995 19.6299 19.032 20.1239 19.032 20.6439H16.562C16.5295 20.0589 16.5295 19.4609 16.4515 18.8759C16.2175 17.2314 14.651 16.2629 13.065 16.7439C11.856 17.1144 11.0565 18.3039 11.18 19.5584C11.3035 20.8129 12.246 21.7814 13.52 21.9114C14.053 21.9634 14.5925 21.9179 15.1775 21.9179V28.6129C14.6055 28.6974 14.001 28.6649 13.416 28.8989C12.805 27.7679 11.9015 26.9099 11.037 26.0129C8.33952 23.2179 7.46852 19.9094 8.66452 16.2369C9.86702 12.5319 12.545 10.3414 16.3865 9.69788C22.3665 8.69038 27.898 13.9424 27.313 19.9874C27.0855 22.3729 26.13 24.3944 24.4335 26.0714C23.569 26.9294 22.6915 27.7809 22.113 28.8989C21.515 28.6909 20.943 28.6584 20.332 28.6324L20.3385 28.6389Z" fill="white"/>
<path id="Vector_2" d="M40.17 62.2899C33.943 62.2899 27.716 62.2899 21.489 62.2899C19.318 62.2899 17.771 61.2499 17.173 59.4104C17.056 59.0399 16.9715 58.6629 16.9715 58.2729C16.9715 53.6124 16.9715 48.9519 16.965 44.2914C16.965 43.8104 17.1405 43.4594 17.641 43.4724C18.109 43.4854 18.2845 43.8364 18.2585 44.2849C18.252 44.4344 18.2585 44.5839 18.2585 44.7334C18.2585 49.1599 18.2585 53.5799 18.2585 58.0064C18.2585 59.2934 18.837 60.2164 20.0005 60.7689C20.4165 60.9704 20.8715 60.9964 21.32 60.9964C33.8845 60.9964 46.4425 60.9964 59.007 60.9964C60.944 60.9964 62.0815 59.8264 62.0815 57.9024C62.0815 45.8319 62.0815 33.7679 62.0815 21.6974C62.0815 19.7474 60.9115 18.5839 58.9485 18.5839C53.365 18.5839 47.7815 18.5839 42.198 18.5839C41.9835 18.5839 41.769 18.5839 41.5545 18.5644C41.236 18.5189 41.067 18.3174 41.041 17.9989C41.015 17.6804 41.1515 17.4464 41.4635 17.3554C41.665 17.2969 41.886 17.2969 42.1005 17.2969C47.7295 17.2969 53.352 17.2969 58.981 17.2969C61.6265 17.2969 63.375 19.0454 63.375 21.6974C63.375 33.7419 63.375 45.7929 63.375 57.8374C63.375 60.5804 61.6785 62.2899 58.9225 62.2964C52.676 62.3094 46.423 62.2964 40.1765 62.2964L40.17 62.2899Z" fill="white"/>
<path id="Vector_3" d="M50.3165 45.89C50.3165 42.562 50.3165 39.234 50.3165 35.9125C50.3165 34.8725 50.622 34.567 51.6555 34.5605C53.1375 34.5605 54.6195 34.5605 56.095 34.5605C57.005 34.5605 57.3625 34.8985 57.3625 35.7955C57.3625 42.536 57.3625 49.27 57.3625 56.0105C57.3625 56.9205 57.031 57.239 56.1145 57.239C54.5935 57.239 53.066 57.239 51.545 57.239C50.6415 57.239 50.323 56.914 50.3165 55.991C50.3165 52.624 50.3165 49.2505 50.3165 45.8835V45.89Z" fill="white"/>
<path id="Vector_4" d="M39.143 48.2236C39.143 50.7976 39.143 53.3716 39.143 55.9521C39.143 56.9401 38.8375 57.2391 37.83 57.2456C36.3285 57.2456 34.827 57.2456 33.3255 57.2456C32.422 57.2456 32.084 56.9141 32.084 56.0041C32.084 50.7911 32.084 45.5716 32.084 40.3586C32.084 39.4226 32.435 39.0846 33.3775 39.0781C34.879 39.0716 36.3805 39.0716 37.882 39.0781C38.818 39.0781 39.143 39.4226 39.143 40.3781C39.143 42.9976 39.143 45.6171 39.143 48.2366V48.2236Z" fill="white"/>
<path id="Vector_5" d="M41.1971 50.4402C41.1971 48.5747 41.1971 46.7027 41.1971 44.8372C41.1971 43.9402 41.5416 43.5827 42.4321 43.5762C43.9531 43.5697 45.4806 43.5697 47.0016 43.5762C47.8986 43.5762 48.2626 43.9337 48.2626 44.8177C48.2626 48.5552 48.2626 52.2862 48.2626 56.0237C48.2626 56.8817 47.9116 57.2327 47.0471 57.2327C45.5001 57.2392 43.9531 57.2327 42.4126 57.2327C41.5156 57.2327 41.1906 56.8882 41.1906 55.9717C41.1906 54.1257 41.1906 52.2797 41.1906 50.4337L41.1971 50.4402Z" fill="white"/>
<path id="Vector_6" d="M22.984 52.7019C22.984 51.5839 22.984 50.4724 22.984 49.3544C22.984 48.4184 23.3285 48.0869 24.2775 48.0869C25.779 48.0869 27.2805 48.0804 28.782 48.0869C29.679 48.0869 30.03 48.4379 30.0365 49.3349C30.043 51.5644 30.043 53.8004 30.0365 56.0299C30.0365 56.9139 29.705 57.2389 28.8405 57.2454C27.274 57.2519 25.7075 57.2519 24.141 57.2454C23.3415 57.2454 23.0035 56.9074 22.9905 56.1209C22.9775 54.9834 22.9905 53.8459 22.9905 52.7084L22.984 52.7019Z" fill="white"/>
<path id="Vector_7" d="M17.7385 33.6568C16.7505 33.6568 15.769 33.6698 14.781 33.6568C13.6565 33.6373 12.87 32.8898 12.844 31.8563C12.818 30.8163 13.5655 29.9908 14.69 29.9648C16.744 29.9258 18.8045 29.9258 20.8585 29.9648C21.97 29.9843 22.7435 30.8293 22.711 31.8563C22.6785 32.8898 21.8855 33.6373 20.761 33.6568C19.7535 33.6763 18.746 33.6568 17.7385 33.6568Z" fill="white"/>
<path id="Vector_8" d="M53.8785 25.8898C55.38 25.9093 56.5955 27.1508 56.5825 28.6588C56.5695 30.1603 55.328 31.3953 53.833 31.3953C52.3055 31.3953 51.0835 30.1343 51.103 28.5873C51.1225 27.0793 52.364 25.8768 53.8785 25.8898Z" fill="white"/>
<path id="Vector_9" d="M35.3275 30.6606C36.829 30.6801 38.0445 31.9346 38.025 33.4426C38.0055 34.9441 36.764 36.1791 35.269 36.1661C33.735 36.1596 32.526 34.8986 32.5455 33.3451C32.565 31.8371 33.813 30.6346 35.3275 30.6606Z" fill="white"/>
<path id="Vector_10" d="M41.9509 37.6152C41.9639 36.1072 43.1989 34.8982 44.7134 34.9112C46.2149 34.9242 47.4369 36.1657 47.4304 37.6737C47.4304 39.1752 46.1889 40.4102 44.6874 40.4167C43.1599 40.4167 41.9314 39.1687 41.9444 37.6152H41.9509Z" fill="white"/>
<path id="Vector_11" d="M23.777 42.2698C23.79 40.7553 25.0185 39.5463 26.5265 39.5528C28.0345 39.5593 29.2565 40.7943 29.2565 42.3023C29.2565 43.8298 27.9825 45.0973 26.468 45.0583C24.9535 45.0258 23.764 43.7973 23.777 42.2698Z" fill="white"/>
<path id="Vector_12" d="M16.5555 28.6199V22.0029H18.993V28.6199H16.5555Z" fill="white"/>
<path id="Vector_13" d="M14.4105 34.9567H21.06C21.268 36.1007 20.4295 37.3227 19.188 37.6152C18.304 37.8232 17.394 37.8102 16.5035 37.6412C15.2165 37.4007 14.4105 36.3477 14.4105 34.9502V34.9567Z" fill="white"/>
<path id="Vector_14" d="M10.1529 10.4973C10.1529 10.8678 9.99695 11.1018 9.70445 11.2513C9.39895 11.4008 9.09345 11.3683 8.86595 11.1473C7.92995 10.2373 7.00695 9.32078 6.10345 8.37178C5.79795 8.05328 5.83695 7.65028 6.14895 7.33178C6.48045 6.98728 6.89645 6.95478 7.23445 7.28628C8.15745 8.17678 9.06095 9.09328 9.96445 10.0033C10.1074 10.1463 10.1724 10.3283 10.1529 10.4973Z" fill="white"/>
<path id="Vector_15" d="M29.3995 40.2478C29.146 40.0008 28.873 39.7343 28.6195 39.4873C29.9585 38.1548 31.3235 36.8028 32.7015 35.4248C32.929 35.6588 33.215 35.9513 33.462 36.2048C32.1035 37.5568 30.7385 38.9153 29.3995 40.2478Z" fill="white"/>
<path id="Vector_16" d="M51.0575 30.8428C51.2915 31.0638 51.571 31.3238 51.805 31.5513C50.4075 32.9488 49.0165 34.3463 47.6385 35.7178C47.437 35.4903 47.1705 35.1913 46.9235 34.9118C48.217 33.6378 49.6275 32.2533 51.0575 30.8428Z" fill="white"/>
<path id="Vector_17" d="M29.5945 7.76745C29.5945 8.07945 29.4385 8.26145 29.2695 8.43045C28.47 9.22995 27.664 10.0294 26.8645 10.8289C26.52 11.1734 26.13 11.3099 25.74 10.9329C25.3565 10.5624 25.454 10.1659 25.805 9.81495C26.637 8.98295 27.469 8.15095 28.301 7.32545C28.548 7.07845 28.834 6.97445 29.172 7.14995C29.4385 7.29295 29.5815 7.51395 29.5815 7.76095L29.5945 7.76745Z" fill="white"/>
<path id="Vector_18" d="M31.4015 19.6818C30.888 19.6818 30.3745 19.6818 29.861 19.6818C29.367 19.6753 29.003 19.4478 28.99 18.9343C28.9835 18.3948 29.341 18.1543 29.874 18.1543C30.9205 18.1543 31.967 18.1608 33.0135 18.1543C33.5465 18.1543 33.917 18.3753 33.9105 18.9213C33.9105 19.4673 33.5075 19.6818 32.994 19.6818C32.461 19.6818 31.928 19.6818 31.3885 19.6818H31.4015Z" fill="white"/>
<path id="Vector_19" d="M18.5054 5.17389C18.5054 5.70689 18.5054 6.24639 18.5054 6.77939C18.5054 7.27339 18.2844 7.62439 17.7579 7.63089C17.2574 7.63089 17.0234 7.30589 17.0169 6.84439C16.9974 5.73289 16.9974 4.61489 17.0169 3.50339C17.0234 3.04189 17.2639 2.71039 17.7644 2.71689C18.2519 2.71689 18.4924 3.04189 18.5054 3.50989C18.5184 4.06889 18.5054 4.62139 18.5054 5.18039V5.17389Z" fill="white"/>
<path id="Vector_20" d="M4.07548 18.1611C4.60848 18.1611 5.14798 18.1611 5.68098 18.1611C6.18798 18.1611 6.51298 18.4081 6.51298 18.9216C6.51298 19.4091 6.18798 19.6691 5.72648 19.6756C4.61498 19.6951 3.50348 19.6951 2.39198 19.6756C1.93048 19.6626 1.61848 19.4091 1.62498 18.9086C1.63148 18.4211 1.93048 18.1741 2.40498 18.1611C2.96398 18.1481 3.51648 18.1611 4.07548 18.1611Z" fill="white"/>
<path id="Vector_21" d="M15.223 20.6181C14.6445 20.6181 14.1115 20.6701 13.5915 20.6051C12.87 20.5141 12.415 19.8966 12.467 19.2011C12.5125 18.5186 13.0715 17.9596 13.754 17.9076C14.4625 17.8556 15.0215 18.2846 15.1775 19.0191C15.288 19.5456 15.2425 20.0721 15.2295 20.6181H15.223Z" fill="white"/>
<path id="Vector_22" d="M20.3254 20.6443C20.3254 20.1438 20.2929 19.6758 20.3319 19.2143C20.4034 18.4083 20.9819 17.8883 21.7229 17.9078C22.4444 17.9273 23.0164 18.4863 23.0554 19.2013C23.1009 20.0073 22.6199 20.5598 21.7554 20.6313C21.2939 20.6703 20.8259 20.6378 20.3254 20.6378V20.6443Z" fill="white"/>
<path id="Vector_23" d="M41.873 35.7372C41.6715 36.1402 41.496 36.4847 41.2945 36.8877C40.1895 36.3417 39.091 35.7957 37.9275 35.2237C38.116 34.8467 38.2915 34.4892 38.506 34.0732C39.637 34.6322 40.7355 35.1782 41.873 35.7372Z" fill="white"/>
</g>
</svg>
