<svg width="65" height="65" viewBox="0 0 65 65" fill="none" xmlns="http://www.w3.org/2000/svg">
<g id="Influencer Collaborations 1">
<path id="Vector" d="M41.7755 63.362C40.742 62.881 40.3715 62.0685 40.4365 60.9505C40.534 59.254 40.2805 57.5315 40.6965 55.848C41.2685 53.5275 42.5685 51.714 44.577 50.3555C46.5465 52.5265 48.971 53.7095 51.896 53.7095C54.808 53.7095 57.2195 52.5525 59.2085 50.375C59.553 50.518 59.8325 50.7715 60.112 51.012C62.2375 52.845 63.3295 55.172 63.3555 57.98C63.3685 59.0265 63.323 60.073 63.3685 61.113C63.4205 62.2375 62.972 62.985 61.9125 63.362H41.7755Z" fill="white"/>
<path id="Vector_2" d="M1.625 56.6085C1.8525 56.4005 1.807 56.1015 1.8655 55.8415C2.379 53.638 3.9325 51.4475 5.7785 50.375C7.7285 52.52 10.153 53.703 13.078 53.703C15.99 53.703 18.4015 52.5395 20.3645 50.401C20.5595 50.3945 20.6895 50.5375 20.8195 50.6415C23.1855 52.442 24.4465 54.8275 24.531 57.798C24.5635 58.903 24.4985 60.008 24.5505 61.113C24.596 62.2375 24.154 62.985 23.0945 63.362H3.0745C2.353 63.1215 1.859 62.647 1.625 61.9125V56.6085Z" fill="white"/>
<path id="Vector_3" d="M25.1615 13.9424C29.0615 18.3299 35.7695 18.4924 39.8385 13.9554C42.016 15.4374 43.3875 17.4589 43.8165 20.0654C44.1025 21.7944 43.9465 23.5559 43.927 25.2979C43.914 26.2859 43.0755 26.9489 41.9965 26.9554C38.519 26.9554 35.048 26.9554 31.5705 26.9554C28.756 26.9554 25.948 26.9554 23.1335 26.9554C21.736 26.9554 21.021 26.2534 21.0405 24.8429C21.0665 23.2569 20.8975 21.6644 21.1575 20.0914C21.5865 17.4784 22.9515 15.4634 25.155 13.9489L25.1615 13.9424Z" fill="white"/>
<path id="Vector_4" d="M32.4935 1.63834C35.828 1.63834 38.532 4.35534 38.5255 7.68984C38.5125 10.9918 35.8085 13.6893 32.5 13.6893C29.172 13.6893 26.4615 10.9658 26.468 7.63134C26.481 4.32934 29.185 1.63184 32.4935 1.63184V1.63834Z" fill="white"/>
<path id="Vector_5" d="M19.11 44.077C19.11 47.4115 16.3865 50.1155 13.0455 50.1025C9.74349 50.0895 7.05249 47.379 7.05249 44.0705C7.05249 40.7425 9.77599 38.032 13.1105 38.045C16.4125 38.058 19.11 40.7685 19.1035 44.077H19.11Z" fill="white"/>
<path id="Vector_6" d="M57.9346 44.0835C57.9346 47.4115 55.2046 50.122 51.8701 50.1025C48.5681 50.083 45.8771 47.3725 45.8836 44.064C45.8836 40.736 48.6201 38.032 51.9481 38.045C55.2501 38.0645 57.9411 40.7685 57.9346 44.0835Z" fill="white"/>
<path id="Vector_7" d="M32.4805 37.4463C34.489 37.4463 36.114 39.0713 36.1075 41.0798C36.101 43.0558 34.4825 44.6743 32.5065 44.6808C30.498 44.6808 28.873 43.0558 28.8795 41.0473C28.886 39.0648 30.498 37.4528 32.4805 37.4463Z" fill="white"/>
<path id="Vector_8" d="M38.4085 45.2139C39.338 46.2994 40.222 47.3264 41.1515 48.4054C40.2675 49.2309 39.468 50.1149 38.7855 51.1939C37.739 49.9784 36.7315 48.8019 35.6655 47.5734C36.7575 47.0014 37.6545 46.2604 38.4085 45.2204V45.2139Z" fill="white"/>
<path id="Vector_9" d="M29.3215 47.5734C28.275 48.7954 27.261 49.9719 26.2145 51.1874C25.519 50.1604 24.7714 49.2504 23.8354 48.4184C24.7389 47.3589 25.6295 46.3189 26.572 45.2139C27.3065 46.2084 28.2035 46.9754 29.3215 47.5669V47.5734Z" fill="white"/>
<path id="Vector_10" d="M30.7061 30.5885H34.2616V34.027C33.0916 33.7605 31.9086 33.741 30.7061 34.04V30.582V30.5885Z" fill="white"/>
</g>
</svg>
