<svg width="60" height="60" viewBox="0 0 60 60" fill="none" xmlns="http://www.w3.org/2000/svg">
<g id="Client Centric- Focus 1">
<path id="Vector" d="M33.312 16.4939L37.068 18.0539C37.956 17.9219 38.946 16.4819 39.882 16.7639C40.416 16.9259 42.456 19.5359 43.14 19.9619C43.74 20.9399 41.814 22.1819 41.952 23.0039L43.494 26.6699C44.622 27.1079 46.278 26.6159 46.422 28.1699C46.5 28.9919 46.53 31.3259 46.392 32.0879C46.188 33.2399 44.286 32.898 43.458 33.336L41.934 37.044C42.066 37.932 43.506 38.9219 43.224 39.858C43.062 40.392 40.452 42.4319 40.026 43.1159C39.054 43.722 37.794 41.784 36.984 41.922L33.318 43.464C32.88 44.592 33.372 46.248 31.818 46.3919C30.996 46.47 28.662 46.4999 27.9 46.3619C26.748 46.1579 27.09 44.2559 26.652 43.4279L22.944 41.9039C22.056 42.0359 21.066 43.4759 20.13 43.1939C19.596 43.0319 17.556 40.422 16.872 39.996C16.272 39.018 18.198 37.7759 18.06 36.9539L16.518 33.2879C15.396 32.8079 13.734 33.3359 13.59 31.7879C13.512 30.9659 13.482 28.6319 13.62 27.8699C13.818 26.7479 15.732 27.0599 16.554 26.6219L18.078 22.9139C17.946 22.0259 16.506 21.0359 16.788 20.0999C16.95 19.5719 19.602 17.4659 20.052 16.7939C21.066 16.3259 22.188 18.2099 23.112 17.9999L26.694 16.4879C27.132 15.3659 26.64 13.7039 28.194 13.5599C29.1 13.4759 30.906 13.4759 31.812 13.5599C33.366 13.7039 32.88 15.3779 33.312 16.4879V16.4939ZM28.662 20.4959C25.002 20.8679 21.672 23.9579 20.748 27.4679C18.654 35.4419 26.874 42.234 34.266 38.58C43.632 33.948 39.822 19.3559 28.656 20.4959H28.662Z" fill="white"/>
<path id="Vector_2" d="M49.698 22.764C50.898 22.524 51.228 24.306 50.178 24.402C49.884 24.432 46.926 23.598 46.71 23.424C46.524 23.274 46.404 22.89 46.458 22.65C46.518 22.392 47.754 20.166 47.964 19.878C48.486 19.158 49.488 19.506 49.47 20.304C49.47 20.538 48.906 21.186 49.32 21.126L54.708 18.852C55.692 18.564 56.292 19.632 55.434 20.232C53.772 21.144 51.576 21.636 49.956 22.524C49.854 22.578 49.716 22.626 49.704 22.764H49.698Z" fill="white"/>
<path id="Vector_3" d="M22.776 10.284C22.536 9.08404 24.318 8.75404 24.414 9.80404C24.444 10.098 23.61 13.056 23.436 13.272C23.286 13.458 22.902 13.578 22.662 13.524C22.392 13.458 19.722 11.922 19.608 11.754C19.266 11.208 19.686 10.506 20.31 10.518C20.544 10.518 21.192 11.082 21.132 10.668L18.858 5.28004C18.576 4.29604 19.656 3.66604 20.238 4.55404C21.162 5.96404 21.69 8.48404 22.536 10.026C22.59 10.128 22.638 10.266 22.776 10.278V10.284Z" fill="white"/>
<path id="Vector_4" d="M38.754 10.83C38.88 10.932 39.816 10.044 40.332 10.836C41.112 12.024 38.184 12.798 37.554 13.404C36.804 13.566 36.564 13.44 36.312 12.774C36.108 12.222 35.466 10.044 35.598 9.59398C35.76 9.04798 36.6 8.99998 36.942 9.40798C37.158 9.65998 37.05 10.122 37.326 10.278L39.642 4.54798C40.05 3.76798 41.262 4.15798 41.118 5.02798L38.754 10.824V10.83Z" fill="white"/>
<path id="Vector_5" d="M13.332 36.582C13.392 36.642 13.548 36.978 13.554 37.062C13.578 37.404 11.994 40.272 11.7 40.41C11.118 40.686 10.458 40.206 10.542 39.582C10.566 39.402 11.1 38.784 10.686 38.844L5.29798 41.118C4.25998 41.388 3.67198 40.278 4.64398 39.696C6.19798 38.766 8.54998 38.25 10.194 37.368L10.302 37.206C8.95798 37.38 8.73598 35.448 10.104 35.586C10.458 35.622 13.164 36.414 13.332 36.576V36.582Z" fill="white"/>
<path id="Vector_6" d="M49.698 37.212L55.428 39.636C56.214 40.056 55.812 41.25 54.948 41.112L49.206 38.748C49.098 39.042 49.446 39.27 49.482 39.576C49.572 40.47 48.54 40.782 47.97 39.984C47.76 39.69 46.656 37.806 46.578 37.548C46.47 37.188 46.476 36.696 46.812 36.462C47.01 36.324 49.326 35.652 49.668 35.598C51.324 35.34 51.18 37.182 49.698 37.212Z" fill="white"/>
<path id="Vector_7" d="M38.868 49.14C38.832 49.302 38.904 49.41 38.952 49.548C39.48 51.012 40.854 53.34 41.142 54.696C41.376 55.818 40.29 56.25 39.72 55.35C38.79 53.874 38.274 51.384 37.392 49.8L37.23 49.692C37.404 51.036 35.472 51.258 35.61 49.89C35.646 49.554 36.456 46.812 36.6 46.662C36.654 46.608 37.014 46.44 37.092 46.434C37.374 46.404 40.23 47.982 40.392 48.234C40.758 48.81 40.26 49.548 39.606 49.458C39.432 49.434 38.964 49.056 38.868 49.152V49.14Z" fill="white"/>
<path id="Vector_8" d="M10.848 21.228C10.95 21.102 10.062 20.166 10.854 19.65C12.036 18.876 12.81 21.798 13.422 22.428C13.524 22.758 13.518 23.232 13.248 23.472C12.978 23.712 9.98398 24.492 9.60598 24.384C9.07798 24.228 9.05398 23.274 9.48598 22.998C9.71998 22.842 10.17 22.92 10.296 22.662L4.56598 20.346C3.78598 19.938 4.17598 18.726 5.04598 18.87L10.842 21.234L10.848 21.228Z" fill="white"/>
<path id="Vector_9" d="M22.776 49.686L20.352 55.416C19.932 56.202 18.738 55.8 18.876 54.936L21.24 49.194C20.946 49.086 20.718 49.434 20.412 49.47C19.518 49.56 19.206 48.528 20.004 47.958C20.298 47.748 22.182 46.644 22.44 46.566C22.8 46.458 23.292 46.464 23.526 46.8C23.676 47.022 24.342 49.41 24.384 49.77C24.576 51.318 22.758 51.054 22.77 49.686H22.776Z" fill="white"/>
<path id="Vector_10" d="M52.872 29.22C52.902 29.202 53.076 28.74 53.25 28.56C54.522 27.234 56.784 28.08 56.82 29.928C56.856 31.776 54.564 32.772 53.25 31.41C53.07 31.224 52.908 30.75 52.872 30.75H47.838V29.22C48.54 29.076 52.572 29.406 52.872 29.22Z" fill="white"/>
<path id="Vector_11" d="M29.232 7.16995C26.844 6.04795 28.014 2.55595 30.636 3.25195C32.124 3.64795 32.532 5.67595 31.428 6.73795C31.242 6.91795 30.768 7.07995 30.768 7.11595V12.1499H29.238V7.16995H29.232Z" fill="white"/>
<path id="Vector_12" d="M12.162 29.2199V30.7499H7.18199C6.28799 32.7899 3.22199 32.3039 3.17999 30.0419C3.13799 27.6959 6.24599 27.1319 7.18199 29.2199H12.162Z" fill="white"/>
<path id="Vector_13" d="M30.768 47.826V52.86C30.768 52.896 31.242 53.0581 31.428 53.2381C33.282 55.0201 30.798 57.936 28.794 56.418C27.438 55.386 27.75 53.5021 29.232 52.8061V47.826H30.762H30.768Z" fill="white"/>
<path id="Vector_14" d="M29.1 30.018C31.884 29.7 34.698 31.038 36.078 33.486C36.24 33.768 36.624 34.404 36.516 34.686C36.408 34.968 35.43 35.934 35.148 36.174C31.602 39.162 26.052 38.442 23.454 34.614C24.156 32.232 26.634 30.3 29.1 30.018Z" fill="white"/>
<path id="Vector_15" d="M29.538 23.4481C33.636 22.8661 34.014 29.1361 30.048 29.2081C26.526 29.2741 26.1 23.9401 29.538 23.4481Z" fill="white"/>
</g>
</svg>
