<svg width="50" height="50" viewBox="0 0 50 50" fill="none" xmlns="http://www.w3.org/2000/svg">
<g id="Commiunication 1">
<path id="Vector" d="M21.845 3.13996C30.72 2.64996 40.805 7.79996 42.54 17.14C44.52 27.785 34.98 35.605 25.19 36.495C22.495 36.74 19.995 36.375 17.37 35.97L6.88 40.89C5.805 41.395 4.615 40.57 4.74 39.39L7.915 30.52C6.945 29.37 5.98 28.215 5.255 26.885C-1.325 14.84 9.97 3.79496 21.845 3.13996ZM13.085 17.36C10.525 17.795 10.495 21.91 13.175 22.335C17.125 22.955 17.165 16.67 13.085 17.36ZM22.57 17.36C19.935 17.81 19.955 21.935 22.665 22.33C26.58 22.905 26.58 16.675 22.57 17.36ZM32.055 17.36C29.07 17.795 29.49 22.84 33.01 22.33C36.055 21.885 35.645 16.84 32.055 17.36Z" fill="white"/>
<path id="Vector_2" d="M44.94 18.89L45.38 19.68C47.59 24.585 46.955 29.94 43.88 34.295C43.365 35.025 42.76 35.67 42.2 36.36L45.375 45.225C45.485 46.325 44.445 47.225 43.365 46.775L32.65 41.8C31.77 41.84 30.9 42.11 30.015 42.225C25.065 42.87 19.82 41.91 15.575 39.275C15.575 39.175 17.145 38.46 17.335 38.395C18.195 38.08 19.89 38.595 20.91 38.685C24.965 39.04 29.34 38.34 33.055 36.695C40.065 33.59 45.44 26.875 44.94 18.895V18.89Z" fill="white"/>
</g>
</svg>
