<svg width="50" height="50" viewBox="0 0 50 50" fill="none" xmlns="http://www.w3.org/2000/svg">
<g id="Reliable &#38; Timely-Delivery 1">
<path id="Vector" d="M23.085 48.285C14.995 47.56 7.93501 41.265 6.07501 33.44C4.55001 27.015 6.37501 20.39 10.775 15.54L8.12501 12.715L10.74 10.035L13.815 12.93C16.59 11.045 19.735 9.86502 23.09 9.48002V5.56502H19.17V1.65002H30.845V5.56502H26.925V9.48002C30.265 9.86502 33.435 11.025 36.2 12.93L39.275 10.035L41.89 12.715L39.24 15.54C43.715 20.47 45.52 27.22 43.87 33.73C41.905 41.48 34.81 47.665 26.75 48.285C25.775 48.36 24.07 48.37 23.1 48.285H23.085ZM23.89 13.34C13.18 14.095 6.38001 25.365 10.79 35.205C15.65 46.06 30.515 47.645 37.575 38.025C45.4 27.365 37.03 12.41 23.89 13.34Z" fill="white"/>
<path id="Vector_2" d="M13.325 28.885H25V17.225C32.825 17.17 38.415 24.74 36.17 32.255C35.205 35.49 32.725 38.235 29.62 39.56C21.875 42.86 13.37 37.215 13.325 28.885Z" fill="white"/>
</g>
</svg>
