<svg width="50" height="50" viewBox="0 0 50 50" fill="none" xmlns="http://www.w3.org/2000/svg">
<g id="Affordable-Pricing 3">
<path id="Vector" d="M9.7 46.5749C7.695 43.0699 5.315 39.5349 3.46 35.9549C2.855 34.7899 2.78 33.7149 3.875 32.7999C4.6 32.1949 8.245 30.0899 9.14 29.7449C10.035 29.3999 11.015 29.4499 11.71 30.1849C11.925 30.4099 12.325 31.3149 12.53 31.2799L18.515 27.7899L20.155 27.3899L29.72 29.8699C29.965 29.8549 31.84 27.7449 32.295 27.4149C33.665 26.4099 35.33 26.6849 36.62 27.6649C38.305 26.3399 40.55 26.6949 41.765 28.4499C45.595 26.4799 48.905 31.2099 45.645 34.0349C41.425 36.4649 37.265 39.0299 33.005 41.3999C31.47 42.2549 30.67 42.9299 28.765 42.6899C25.635 42.1399 22.135 40.5449 19.055 40.0949C18.665 40.0399 18.2 39.9849 17.865 40.2449C17.53 40.5049 18.05 40.9699 18.18 41.3249C18.52 42.2349 18.17 43.1999 17.45 43.8099C16.73 44.4199 13.155 46.4949 12.26 46.8499C11.365 47.2049 10.435 47.1549 9.7 46.5749ZM32.51 31.7349L35.255 29.1299C35.58 28.7649 34.76 28.4999 34.49 28.4699C33.91 28.3999 33.47 28.6049 33.035 28.9499C32.835 29.1099 31.505 30.4349 31.53 30.5399C31.945 30.8299 32.365 31.2449 32.505 31.7349H32.51ZM40.295 29.4349C39.94 28.5849 38.855 28.2999 38.055 28.7449L33.57 33.1549L40.295 29.4349ZM16.755 38.9049C17.615 38.4849 18.185 38.2699 19.18 38.3849L29.035 41.0099C29.65 41.0899 30.215 41.0399 30.765 40.7499L44.75 32.6099C45.99 31.2599 44.87 29.2749 43.035 29.7449C39.5 31.5749 36.12 33.9549 32.595 35.7699C31.795 36.1799 31.385 36.4349 30.425 36.3449L21.945 34.1149C20.985 33.7599 21.22 32.4049 22.27 32.4549L29.47 34.3749C30.54 34.5899 31.43 33.7249 31.115 32.6399C30.875 31.8149 30.035 31.7099 29.335 31.4999C26.785 30.7399 23.885 29.9549 21.3 29.3599C20.68 29.2149 20.205 29.0199 19.56 29.1999L13.3 32.7199L16.75 38.9099L16.755 38.9049Z" fill="white"/>
<path id="Vector_2" d="M38.7 12.795C44.51 13.375 46.8 20.705 42.195 24.475C39.105 27.005 34.37 26.105 32.36 22.7C26.48 25.035 19.785 21.55 18.475 15.36C16.91 7.95502 23.45 1.54002 30.825 3.19002C35.215 4.17002 38.665 8.26502 38.7 12.795ZM29.325 8.36502C29.325 7.80502 29.47 6.87502 28.725 6.70502C27.64 6.46002 27.56 7.58002 27.635 8.36502C24.765 8.85502 23.905 12.595 26.97 13.685C27.645 13.925 29.985 14.135 30.185 14.805C30.635 16.33 28.22 16.87 27.15 15.98C26.595 15.515 26.88 15.175 26.56 14.715C26.185 14.17 25.29 14.335 25.11 14.92C24.685 16.3 26.345 17.86 27.625 18.035C27.61 18.665 27.56 19.62 28.395 19.705C29.39 19.805 29.37 18.73 29.325 18.035C31.135 17.685 32.49 15.93 31.71 14.085C30.93 12.24 28.565 12.66 27.195 11.965C27.015 11.875 26.86 11.78 26.795 11.57C26.285 9.94502 29.1 9.47502 29.99 10.5C30.275 10.825 30.18 11.18 30.365 11.54C30.73 12.24 31.755 12.095 31.88 11.34C32.125 9.89502 30.685 8.51502 29.32 8.37502L29.325 8.36502ZM41.505 22.855C46.47 17.94 38.26 10.8 34.115 16.395C30.47 21.315 37.31 27.01 41.505 22.855Z" fill="white"/>
<path id="Vector_3" d="M38.88 20.495C39.335 20.235 39.84 19.34 40.345 19.26C41.2 19.125 41.745 19.86 41.23 20.585C40.94 20.99 39.03 22.885 38.615 23.195C38.2 23.505 37.89 23.515 37.46 23.195C37.03 22.875 35.265 21.115 34.935 20.67C34.435 19.99 34.73 19.165 35.645 19.25C36.24 19.305 36.695 20.195 37.195 20.495V15.935C37.195 15.405 37.99 15.12 38.465 15.37C38.57 15.425 38.875 15.76 38.875 15.845V20.49L38.88 20.495Z" fill="white"/>
</g>
</svg>
