<svg width="50" height="50" viewBox="0 0 50 50" fill="none" xmlns="http://www.w3.org/2000/svg">
<path d="M1.255 18.135C1.465 17.71 1.69 17.31 2.16 17.14C2.655 16.96 4.255 16.965 4.825 17.025C6.78 17.225 6.795 19.71 4.73 19.9C3.58 20.005 1.685 20.13 1.25 18.79V18.14L1.255 18.135Z" fill="white"/>
<path d="M41.15 1.24499C41.95 1.55999 42.45 2.31999 42.095 3.16499C41.945 3.51999 40.44 5.06499 40.08 5.32499C38.78 6.27999 37.085 4.71999 38.27 3.23499C38.815 2.54999 39.73 1.79999 40.405 1.23999H41.145L41.15 1.24499Z" fill="white"/>
<path d="M9.42 1.245C9.665 1.375 9.83 1.385 10.07 1.57C10.37 1.795 11.715 3.13 11.925 3.425C12.82 4.7 11.215 6.27 9.93 5.325C9.58 5.07 8.435 3.915 8.165 3.565C7.465 2.655 7.87 1.53 8.955 1.245H9.42Z" fill="white"/>
<path d="M40.5 17.02H30.99C30.89 17.02 30.565 17.1799 30.415 17.1849C29.15 18.1049 28.175 19.41 26.985 20.44C25.265 19.825 23.615 19.92 22.18 21.1049C19.465 23.35 20.52 27.805 23.91 28.65C26.945 29.405 29.625 27.005 29.37 23.93C29.33 23.435 28.91 22.67 29.055 22.3349L31.64 19.805H40.5C40.235 22.91 38.975 26.005 36.97 28.385C36 29.535 34.785 30.395 33.945 31.67C33.185 32.82 32.71 34.13 32.475 35.49L32.195 35.5849L17.57 35.54C17.235 33.665 16.46 32 15.21 30.57C14.58 29.845 13.755 29.21 13.125 28.48C11.355 26.445 9.965 23.455 9.61 20.77C9.585 20.59 9.44501 19.8099 9.64501 19.8099H19.48C19.92 19.8099 22.44 16.875 23.025 16.485C25.03 17.25 27.175 16.8499 28.51 15.11C30.58 12.4099 28.755 8.45495 25.405 8.12995C22.63 7.86495 20.405 10.2649 20.64 12.9899C20.69 13.5599 20.935 13.99 21.06 14.5199L18.55 17.03H9.505C10.24 10.195 14.87 4.72995 21.655 3.33995C30.98 1.42995 39.575 7.54495 40.49 17.03L40.5 17.02Z" fill="white"/>
<path d="M32.3351 38.36V40.91C32.3351 41.01 32.1301 41.785 32.0851 41.955C31.3751 44.485 29.0351 46.735 26.4001 47.08C26.5501 49.3 23.4951 49.32 23.6151 47.08C21.1451 46.72 18.8751 44.73 18.0751 42.37C17.9701 42.065 17.6801 41.075 17.6801 40.82V38.36H32.3401H32.3351Z" fill="white"/>
<path d="M45.0251 17.045C45.6351 16.955 47.5401 16.95 48.0501 17.22C48.9751 17.705 48.9751 19.22 48.0501 19.7C47.5451 19.965 45.8851 19.95 45.2801 19.895C43.2301 19.71 43.3001 17.295 45.0251 17.045Z" fill="white"/>
<path d="M10.415 31.3299C11.53 31.0999 12.555 32.1749 12.065 33.2549C11.955 33.4999 10.175 35.3149 9.91501 35.4649C8.73501 36.1599 7.48501 35.0399 7.91501 33.7399C8.01001 33.4499 9.56501 31.8699 9.88501 31.6249C10.035 31.5099 10.23 31.3649 10.42 31.3249L10.415 31.3299Z" fill="white"/>
<path d="M38.9 31.33C39.335 31.24 39.67 31.305 40.03 31.545C40.295 31.72 41.81 33.24 41.97 33.505C42.75 34.76 41.395 36.23 40.095 35.47C39.845 35.325 38.17 33.62 38.025 33.365C37.59 32.58 38.025 31.51 38.895 31.33H38.9Z" fill="white"/>
<path d="M24.52 22.885C27.24 22.33 27.205 26.3 24.785 26.01C23.095 25.81 23.005 23.195 24.52 22.885Z" fill="white"/>
<path d="M24.705 10.92C26.075 10.69 27.085 12.14 26.385 13.34C25.84 14.27 24.31 14.335 23.725 13.43C23.1 12.47 23.54 11.11 24.705 10.915V10.92Z" fill="white"/>
</svg>
