<svg width="50" height="50" viewBox="0 0 50 50" fill="none" xmlns="http://www.w3.org/2000/svg">
<g id="Expert Team 2">
<path id="Vector" d="M26.025 34.8149C26.28 34.8649 26.535 34.9149 26.79 34.9649C29.91 35.5799 32.21 37.2999 33.715 40.0949C34.5 41.5499 34.845 43.1149 34.83 44.7649C34.82 46.0299 34.83 47.2949 34.83 48.5549V48.9049H15.225C15.16 48.8499 15.18 48.7749 15.18 48.7099C15.18 47.2599 15.145 45.8099 15.19 44.3599C15.28 41.4449 16.45 39.0299 18.665 37.1249C20.135 35.8599 21.84 35.1299 23.75 34.8649C23.835 34.8549 23.94 34.8749 23.985 34.7599C19.195 33.9149 17.495 29.3999 18.09 26.5349C18.815 23.0199 21.76 20.5949 25.305 20.7499C28.745 20.8999 31.425 23.4299 31.95 26.7099C32.49 30.0599 30.365 33.9699 26.025 34.8149Z" fill="white"/>
<path id="Vector_2" d="M39.85 40.4301C42.265 40.8051 44.11 42.0201 45.265 44.1751C46.105 45.7451 46.155 47.1401 46.04 48.9051H37.665C37.545 46.2001 37.965 43.4401 36.96 40.7701C37.42 40.6251 37.86 40.5051 38.37 40.4451C38.14 40.2801 37.9 40.3151 37.7 40.225C37.575 40.17 37.43 40.1601 37.3 40.1201C36.945 40.0051 36.67 39.8451 36.5 39.4501C35.84 37.9351 34.88 36.6251 33.67 35.495C33.495 35.3351 33.43 35.14 33.43 34.905C33.445 32.825 34.285 31.1651 36.055 30.0651C38.07 28.8051 40.135 28.8351 42.135 30.1101C44.42 31.5701 45.295 34.4851 44.21 36.9801C43.415 38.8051 42 39.9001 40.055 40.3201C39.995 40.3351 39.92 40.3201 39.85 40.4301Z" fill="white"/>
<path id="Vector_3" d="M11.795 40.44C12.195 40.54 12.59 40.635 13.045 40.75C12.05 43.4 12.445 46.16 12.345 48.9H3.97C3.8 46.875 4.04 44.955 5.295 43.28C6.53 41.63 8.195 40.695 10.235 40.4C9.21 40.195 8.285 39.82 7.465 39.175C5.235 37.425 4.665 34.205 6.205 31.815C7.375 30.005 9.07 29.12 11.225 29.18C13.655 29.255 15.805 31.035 16.39 33.385C16.515 33.895 16.59 34.405 16.58 34.93C16.575 35.155 16.51 35.33 16.345 35.485C15.435 36.345 14.645 37.3 14.035 38.4C13.85 38.73 13.63 39.06 13.515 39.415C13.375 39.86 13.055 40.015 12.67 40.125C12.375 40.21 12.08 40.29 11.785 40.37C11.785 40.395 11.785 40.415 11.79 40.44H11.795Z" fill="white"/>
<path id="Vector_4" d="M18.33 16.74C17.92 17.155 17.56 17.525 17.19 17.885C16.215 18.84 15.24 19.79 14.255 20.74C14.125 20.865 14.12 21 14.145 21.15C14.285 21.97 14.43 22.79 14.57 23.615C14.74 24.63 14.91 25.64 15.095 26.725C14.51 26.49 14.03 26.19 13.525 25.93C12.37 25.33 11.215 24.725 10.065 24.115C9.9 24.03 9.77 24.035 9.615 24.115C8.66 24.625 7.7 25.125 6.74 25.63C6.045 25.995 5.355 26.355 4.605 26.745C4.63 26.2 4.75 25.725 4.83 25.25C5.055 23.915 5.285 22.58 5.52 21.25C5.565 21 5.51 20.835 5.305 20.65C3.94 19.42 2.595 18.17 1.245 16.93C1.195 16.885 1.13 16.85 1.13 16.735C1.83 16.635 2.54 16.54 3.245 16.44C4.415 16.28 5.585 16.11 6.755 15.97C7.11 15.925 7.28 15.765 7.42 15.435C7.725 14.725 8.1 14.045 8.45 13.35C8.885 12.475 9.325 11.595 9.76 10.72C9.77501 10.69 9.8 10.67 9.84 10.62C10.15 11.1 10.355 11.61 10.6 12.1C11.195 13.285 11.775 14.48 12.355 15.67C12.435 15.83 12.545 15.91 12.725 15.935C14.34 16.16 15.955 16.395 17.575 16.625C17.805 16.66 18.03 16.695 18.335 16.74H18.33Z" fill="white"/>
<path id="Vector_5" d="M45.435 26.755C44.54 26.285 43.72 25.855 42.9 25.43C42.06 24.99 41.215 24.555 40.38 24.105C40.23 24.025 40.11 24.03 39.965 24.105C38.99 24.625 38.005 25.135 37.03 25.65C36.35 26.005 35.665 26.365 34.91 26.76C35.035 26.04 35.14 25.395 35.25 24.745C35.45 23.58 35.65 22.42 35.85 21.255C35.89 21.015 35.855 20.835 35.655 20.645C34.375 19.425 33.12 18.18 31.855 16.945C31.805 16.9 31.77 16.84 31.685 16.745C32.135 16.675 32.535 16.61 32.94 16.55C34.35 16.35 35.76 16.14 37.17 15.955C37.485 15.915 37.615 15.74 37.735 15.485C38.485 13.94 39.245 12.4 40.005 10.86C40.045 10.78 40.1 10.71 40.185 10.585C40.455 11.125 40.705 11.625 40.95 12.125C41.53 13.305 42.11 14.48 42.685 15.665C42.765 15.83 42.88 15.905 43.055 15.925C44.075 16.055 45.1 16.195 46.12 16.335C47.035 16.46 47.95 16.595 48.865 16.725C48.895 16.875 48.775 16.92 48.71 16.98C47.355 18.22 46.005 19.46 44.64 20.69C44.435 20.875 44.46 21.075 44.495 21.29C44.66 22.25 44.835 23.205 45 24.165C45.145 24.995 45.28 25.83 45.43 26.755H45.435Z" fill="white"/>
<path id="Vector_6" d="M16.585 7.17497C18.16 6.94997 19.725 6.70997 21.295 6.50497C22.37 6.36497 22.36 6.37997 22.805 5.45497C23.495 4.01997 24.205 2.59997 24.91 1.16997C24.925 1.13997 24.95 1.11497 24.97 1.08997C25.12 1.08997 25.125 1.22997 25.165 1.30997C25.925 2.84997 26.69 4.38997 27.43 5.93997C27.565 6.21997 27.735 6.36997 28.04 6.40997C29.655 6.62997 31.275 6.85997 32.89 7.08497C33.07 7.10997 33.25 7.14997 33.475 7.19497C33.22 7.54497 32.92 7.78497 32.645 8.05497C31.57 9.09997 30.5 10.145 29.42 11.185C29.24 11.36 29.295 11.55 29.33 11.735C29.49 12.68 29.66 13.625 29.825 14.575C29.97 15.43 30.11 16.28 30.265 17.21C29.575 16.855 28.95 16.53 28.325 16.205C27.27 15.65 26.22 15.095 25.17 14.535C25.055 14.475 24.97 14.475 24.85 14.535C23.28 15.375 21.7 16.205 20.125 17.035C20.025 17.09 19.915 17.125 19.755 17.19C19.83 16.71 19.89 16.27 19.965 15.83C20.2 14.46 20.44 13.095 20.68 11.725C20.72 11.49 20.705 11.305 20.5 11.105C19.205 9.86997 17.935 8.61497 16.655 7.36997C16.61 7.32997 16.575 7.28997 16.59 7.17997L16.585 7.17497Z" fill="white"/>
</g>
</svg>
