<svg width="58" height="58" viewBox="0 0 58 58" fill="none" xmlns="http://www.w3.org/2000/svg">
<g id="Artboard 1 copy 3 4">
<path id="Vector" d="M8.69991 13.3691C8.69991 13.7287 8.67091 13.9491 8.64771 14.1463C8.42538 16.1612 8.72083 18.1994 9.50611 20.0681C9.66841 20.4581 9.75501 20.8754 9.76131 21.2977C9.76131 28.2887 9.76131 35.2757 9.76131 42.2589V42.9897H48.2385C48.2385 42.7577 48.2385 42.5373 48.2385 42.3111C48.2385 35.3047 48.2385 28.3003 48.2385 21.2977C48.2506 20.8761 48.3369 20.4598 48.4937 20.0681C49.3037 18.2059 49.6213 16.1667 49.4159 14.1463C49.4159 13.9375 49.4159 13.7287 49.3753 13.5141C49.9371 13.5479 50.4702 13.7738 50.8852 14.154C51.3002 14.5342 51.5719 15.0455 51.6547 15.6021C51.6933 15.9215 51.7088 16.2433 51.7011 16.5649V44.7413H54.6533C54.7358 46.3531 54.7223 47.9684 54.6127 49.5785C54.3807 51.4519 52.5769 52.8439 50.6803 52.9135C50.5005 52.9135 50.3265 52.9135 50.1467 52.9135H7.89951C5.78831 52.9135 4.22231 51.9101 3.56691 50.1295C3.41766 49.7596 3.32951 49.3678 3.30591 48.9695C3.30591 47.5775 3.30591 46.1855 3.30591 44.7239H6.35091V44.0105C6.35091 34.8079 6.35091 25.6052 6.35091 16.4025C6.3008 15.9387 6.37294 15.4698 6.56016 15.0424C6.74737 14.6151 7.04315 14.2442 7.41811 13.9665C7.82992 13.7358 8.25838 13.5361 8.69991 13.3691ZM22.3763 46.4987H20.6943C20.5145 48.4881 21.5991 49.6887 23.5421 49.6945H26.3783C29.1681 49.6945 31.9521 49.6945 34.7361 49.6945C35.1361 49.7041 35.5327 49.6205 35.8949 49.4505C36.257 49.2804 36.5746 49.0285 36.8226 48.7146C37.0707 48.4008 37.2424 48.0335 37.3242 47.6419C37.406 47.2503 37.3956 46.8451 37.2939 46.4581H35.6989C35.6989 46.5857 35.6989 46.6553 35.6989 46.7249C35.6641 47.7631 35.4437 47.9777 34.4229 47.9777H23.4145C22.7533 47.9777 22.4169 47.6819 22.3821 47.0845C22.3705 46.8989 22.3763 46.7191 22.3763 46.4987Z" fill="white"/>
<path id="Vector_2" d="M29 21.2629C27.7454 23.0604 25.9501 24.4107 23.8752 25.1176C21.8004 25.8245 19.5541 25.8511 17.4631 25.1936C15.372 24.536 13.5453 23.2285 12.2485 21.4613C10.9517 19.694 10.2524 17.5592 10.2524 15.3672C10.2524 13.1752 10.9517 11.0404 12.2485 9.27315C13.5453 7.50591 15.372 6.19843 17.4631 5.54085C19.5541 4.88327 21.8004 4.90987 23.8752 5.61678C25.9501 6.32369 27.7454 7.67406 29 9.47151C31.3606 6.37431 34.4636 4.83151 38.367 5.11571C39.7111 5.21082 41.0217 5.57932 42.2185 6.19865C43.4153 6.81798 44.473 7.6751 45.327 8.71751C46.2046 9.78442 46.8587 11.017 47.2503 12.3418C47.6418 13.6667 47.7629 15.0568 47.6062 16.4294C47.4496 17.802 47.0184 19.129 46.3384 20.3316C45.6584 21.5342 44.7435 22.5877 43.648 23.4294C42.5526 24.2712 41.299 24.8839 39.9618 25.2313C38.6247 25.5787 37.2314 25.6535 35.8647 25.4514C34.4981 25.2492 33.1861 24.7743 32.0067 24.0547C30.8274 23.3351 29.8049 22.3857 29 21.2629ZM15.9674 11.7509C15.9439 11.8065 15.9283 11.865 15.921 11.9249C15.921 13.4445 15.892 14.9583 15.921 16.4779C15.9407 17.2463 16.2509 17.9786 16.789 18.5275C17.3271 19.0764 18.0531 19.401 18.821 19.4359C19.5855 19.4894 20.3414 19.2481 20.9336 18.7616C21.5258 18.2752 21.9092 17.5804 22.0052 16.8201C22.1212 15.1555 22.0342 13.4735 22.0342 11.7857H20.3406C20.3406 13.2995 20.3406 14.7785 20.3406 16.2575C20.358 16.4455 20.336 16.6351 20.276 16.8141C20.2161 16.9931 20.1194 17.1576 19.9922 17.2971C19.865 17.4367 19.7101 17.5481 19.5374 17.6244C19.3647 17.7007 19.178 17.74 18.9892 17.74C18.8004 17.74 18.6137 17.7007 18.4409 17.6244C18.2682 17.5481 18.1133 17.4367 17.9861 17.2971C17.859 17.1576 17.7623 16.9931 17.7023 16.8141C17.6423 16.6351 17.6203 16.4455 17.6378 16.2575C17.6378 14.9525 17.6378 13.6533 17.6378 12.3483V11.7683L15.9674 11.7509ZM30.798 11.9655C30.798 13.6649 30.6994 15.3469 30.798 17.0057C30.8755 17.7541 31.2354 18.4449 31.8044 18.9373C32.3733 19.4298 33.1085 19.6869 33.8604 19.6563C34.6302 19.6525 35.3703 19.3582 35.9327 18.8324C36.495 18.3066 36.8383 17.588 36.8938 16.8201C36.9576 16.0951 36.8938 15.3585 36.8938 14.6277C36.8938 13.7577 36.8938 12.8877 36.8938 11.9945H35.1538C35.1538 13.4967 35.1538 14.9583 35.1538 16.4199C35.1755 16.6122 35.1564 16.807 35.0977 16.9914C35.0389 17.1758 34.9419 17.3457 34.813 17.4901C34.6841 17.6344 34.5261 17.7499 34.3494 17.829C34.1728 17.908 33.9814 17.9489 33.7879 17.9489C33.5943 17.9489 33.403 17.908 33.2263 17.829C33.0497 17.7499 32.8917 17.6344 32.7627 17.4901C32.6338 17.3457 32.5368 17.1758 32.4781 16.9914C32.4193 16.807 32.4002 16.6122 32.422 16.4199C32.422 15.2019 32.422 13.9897 32.422 12.7775V11.9655H30.798ZM37.7986 12.4295C38.4308 13.3169 39.0166 14.1695 39.6314 14.9989C39.6805 15.0475 39.7195 15.1053 39.7461 15.169C39.7727 15.2327 39.7864 15.3011 39.7864 15.3701C39.7864 15.4392 39.7727 15.5075 39.7461 15.5712C39.7195 15.635 39.6805 15.6928 39.6314 15.7413C39.0166 16.5707 38.4366 17.4233 37.816 18.2991L39.208 19.2851L40.948 16.8607L42.688 19.2851L44.08 18.2991L42.0094 15.3643L44.08 12.4237L42.688 11.4493L40.948 13.8621L39.208 11.4435L37.7986 12.4295ZM23.5422 11.7509V18.9661H25.1778V11.7509H23.5422Z" fill="white"/>
<path id="Vector_3" d="M11.5305 41.2781V38.4593H27.2949V36.7193H11.5247V23.3793C17.2145 28.5239 23.0493 28.6979 29.1161 23.9187C30.2829 25.0563 31.6692 25.9441 33.1905 26.5281C34.7118 27.1121 36.3362 27.38 37.9645 27.3154C39.5928 27.2508 41.1908 26.8551 42.6611 26.1525C44.1314 25.4498 45.443 24.4549 46.5161 23.2285V41.2781H11.5305ZM32.0393 36.7657H29.0581V38.4187H32.0393V36.7657Z" fill="white"/>
</g>
</svg>
