<svg width="60" height="60" viewBox="0 0 60 60" fill="none" xmlns="http://www.w3.org/2000/svg">
<g id="Artboard 1 copy 10">
<path id="Vector" d="M57.984 16.734V57.984H7.58403C7.44603 57.948 7.30803 57.9 7.17003 57.876C5.81019 57.6198 4.57522 56.9158 3.66185 55.8763C2.74848 54.8368 2.20924 53.5215 2.13003 52.14C2.08141 50.7396 2.53195 49.3675 3.40125 48.2685C4.27056 47.1695 5.50206 46.4152 6.87603 46.14C7.95575 45.9966 9.04528 45.9404 10.134 45.972C10.623 45.974 11.1047 45.8537 11.5354 45.6222C11.9661 45.3906 12.332 45.055 12.6 44.646C12.9784 44.0338 13.1547 43.318 13.104 42.6V16.11H36.822C36.03 16.902 35.316 17.616 34.596 18.324C33.947 18.9479 33.539 19.7808 33.444 20.676C33.282 22.116 33.144 23.55 32.988 25.05H16.602C16.4023 25.0351 16.2017 25.0351 16.002 25.05C15.7452 25.0715 15.507 25.1929 15.3387 25.3881C15.1704 25.5833 15.0854 25.8368 15.102 26.094C15.1098 26.3434 15.2144 26.5799 15.3936 26.7535C15.5728 26.9271 15.8125 27.0242 16.062 27.024C16.734 27.024 17.406 27.024 18.078 27.024H19.074V53.424C19.0592 53.6418 19.0592 53.8603 19.074 54.078C19.0946 54.3159 19.202 54.5379 19.3757 54.7017C19.5494 54.8655 19.7774 54.9596 20.016 54.966C20.2639 54.9784 20.5073 54.8959 20.6967 54.7355C20.8861 54.5751 21.0074 54.3486 21.036 54.102C21.054 53.9024 21.054 53.7016 21.036 53.502V40.05H32.016V48H31.356C29.316 48 27.282 48 25.248 48C24.516 48 24.048 48.408 24.048 49.002C24.048 49.596 24.516 49.992 25.248 49.998C31.792 49.998 38.338 49.998 44.886 49.998C45.1649 50.0182 45.4449 49.9786 45.7072 49.8817C45.9696 49.7848 46.2081 49.633 46.407 49.4364C46.6059 49.2399 46.7604 49.003 46.8603 48.7418C46.9601 48.4807 47.003 48.2011 46.986 47.922C46.986 43.01 46.986 38.098 46.986 33.186C47.0036 33.0455 46.9918 32.903 46.9516 32.7672C46.9113 32.6315 46.8434 32.5056 46.7521 32.3974C46.6608 32.2892 46.5481 32.201 46.4211 32.1385C46.294 32.076 46.1555 32.0404 46.014 32.034C45.8648 32.0358 45.7176 32.0695 45.5825 32.133C45.4474 32.1964 45.3275 32.2881 45.2308 32.4018C45.1342 32.5155 45.063 32.6487 45.0222 32.7922C44.9813 32.9358 44.9717 33.0864 44.994 33.234C44.994 34.632 44.994 36.03 44.994 37.434V38.034H21.114V27.054H21.786C25.092 27.054 28.386 27.054 31.71 27.054C34.1996 27.1232 36.6908 27.0029 39.162 26.694C40.2128 26.5653 41.1916 26.0928 41.946 25.35C44.906 22.37 47.878 19.4 50.862 16.44C51.0904 16.2304 51.3862 16.1091 51.696 16.098C53.334 16.062 54.972 16.098 56.61 16.098C56.8754 16.0674 57.1441 16.1106 57.3865 16.2228C57.6289 16.335 57.8357 16.5119 57.984 16.734Z" fill="white"/>
<path id="Vector_2" d="M57.9839 6.36628L56.2919 8.20828L51.8999 3.82828C52.3679 3.36628 52.8599 2.85628 53.3999 2.40028C53.4852 2.30909 53.5883 2.23638 53.7029 2.18668C53.8175 2.13697 53.941 2.11133 54.0659 2.11133C54.1908 2.11133 54.3143 2.13697 54.4289 2.18668C54.5435 2.23638 54.6466 2.30909 54.7319 2.40028C55.8419 3.49228 56.9159 4.62028 58.0019 5.73628L57.9839 6.36628Z" fill="white"/>
<path id="Vector_3" d="M2.12402 46.7037V8.30366C2.12402 5.33966 3.92402 2.93366 6.71402 2.30366C7.87665 2.12224 9.05516 2.06392 10.23 2.12966C10.3458 2.13195 10.46 2.15736 10.5659 2.20438C10.6718 2.2514 10.7672 2.31909 10.8466 2.40348C10.9259 2.48787 10.9876 2.58726 11.0281 2.69582C11.0685 2.80437 11.0868 2.91991 11.082 3.03566C11.082 3.21566 11.082 3.39566 11.082 3.57566V42.5397C11.082 43.7397 10.824 44.0217 9.61802 44.0157C8.20149 43.9079 6.77726 44.0645 5.41802 44.4777C4.1613 44.9523 3.03319 45.7147 2.12402 46.7037Z" fill="white"/>
<path id="Vector_4" d="M36.8042 19.0324L47.5142 8.31641L51.7142 12.5524L41.0342 23.2624C39.6722 21.8944 38.2382 20.4664 36.8042 19.0324Z" fill="white"/>
<path id="Vector_5" d="M34.0981 40.0439H45.0001V47.9999H34.0981V40.0439Z" fill="white"/>
<path id="Vector_6" d="M49.0801 6.69039L50.3581 5.40039L54.6541 9.70839L53.3041 10.9084C51.9781 9.60039 50.5441 8.16039 49.0801 6.69039Z" fill="white"/>
<path id="Vector_7" d="M39.2579 24.6478L37.8719 24.8098C37.1879 24.8878 36.5099 24.9718 35.8259 25.0318C35.3999 25.0738 35.0519 24.8638 35.0759 24.4318C35.1539 23.2318 35.3039 21.9958 35.4179 20.8018L39.2579 24.6478Z" fill="white"/>
</g>
</svg>
