<svg width="58" height="58" viewBox="0 0 58 58" fill="none" xmlns="http://www.w3.org/2000/svg">
<g id="Artboard 1 copy 9">
<path id="Vector" d="M54.9203 29.9283V52.6933C54.9203 54.2187 54.2243 54.9147 52.7047 54.9147H29.9629V46.7947C30.668 47.1767 31.4459 47.4052 32.2456 47.4652C33.0454 47.5252 33.8487 47.4153 34.6029 47.1427C35.7013 46.7481 36.643 46.0098 37.2883 45.0373C37.9389 44.0767 38.2726 42.9366 38.2424 41.7768C38.2122 40.617 37.8198 39.4957 37.1201 38.5703C35.4845 36.4533 33.1587 35.9487 29.9977 37.0565V29.9283H30.6531C33.1993 29.9283 35.7455 29.9283 38.2975 29.9283C39.5097 29.9283 40.2753 29.1047 40.0781 28.0143C40.0023 27.7189 39.881 27.4371 39.7185 27.1791C39.3357 26.5616 39.1506 25.842 39.1879 25.1164C39.2252 24.3909 39.4832 23.694 39.9273 23.1191C40.3189 22.5351 40.8781 22.0835 41.5314 21.8236C42.1847 21.5637 42.9014 21.5078 43.5871 21.6633C44.3046 21.7776 44.969 22.1119 45.4884 22.6199C46.0079 23.1279 46.3568 23.7847 46.4871 24.4995C46.6016 24.9664 46.6206 25.4516 46.5428 25.9261C46.4651 26.4005 46.2923 26.8543 46.0347 27.2603C45.2053 28.6813 45.9187 29.9457 47.5601 29.9573H54.9203V29.9283Z" fill="white"/>
<path id="Vector_2" d="M28.0312 28.0723H20.7C20.3015 28.0238 19.8989 28.121 19.5664 28.3459C19.2339 28.5707 18.9938 28.9082 18.8904 29.2961C18.8341 29.5606 18.835 29.834 18.893 30.0981C18.9511 30.3622 19.0649 30.6108 19.2269 30.8273C19.5526 31.3844 19.7265 32.0171 19.7312 32.6624C19.7359 33.3077 19.5713 33.9429 19.2537 34.5047C18.9362 35.0664 18.4768 35.535 17.9215 35.8637C17.3662 36.1924 16.7344 36.3697 16.0892 36.3779C15.444 36.3861 14.8079 36.2248 14.2444 35.9103C13.681 35.5957 13.2099 35.1389 12.8782 34.5854C12.5466 34.0318 12.3659 33.401 12.3543 32.7558C12.3427 32.1106 12.5005 31.4736 12.812 30.9085C12.955 30.6709 13.0754 30.4204 13.1716 30.1603C13.2425 29.9455 13.2667 29.7181 13.2426 29.4932C13.2185 29.2683 13.1467 29.0512 13.0319 28.8563C12.9172 28.6614 12.7621 28.4932 12.5772 28.363C12.3922 28.2328 12.1816 28.1436 11.9594 28.1013C11.7103 28.0605 11.4579 28.0431 11.2054 28.0491H3.08545V5.26674C3.08545 3.78194 3.79305 3.08594 5.28945 3.08594H28.0312V10.2605C27.3126 9.86798 26.5174 9.63568 25.7004 9.57962C24.8835 9.52355 24.064 9.64504 23.2984 9.93574C22.2059 10.3452 21.2757 11.0983 20.6478 12.0817C20.017 13.0489 19.7031 14.1886 19.7499 15.3424C19.7967 16.4962 20.2018 17.6068 20.9088 18.5197C22.5444 20.6251 24.8123 21.1123 28.0312 20.0219V28.0723Z" fill="white"/>
<path id="Vector_3" d="M54.9202 28.0375H47.8036C49.0448 24.9113 48.5112 22.2781 45.5474 20.4569C44.5769 19.8967 43.4563 19.6516 42.3405 19.7555C41.2247 19.8594 40.1687 20.3072 39.3182 21.0369C37.3404 22.6841 36.917 24.8765 37.9784 27.9969H29.928V27.4169C29.928 24.8475 29.928 22.2839 29.928 19.7203C29.928 18.4907 29.0464 17.7077 27.956 17.9455C27.649 18.0481 27.3551 18.1863 27.0802 18.3573C26.4794 18.6952 25.7941 18.853 25.106 18.8119C24.4179 18.7708 23.7563 18.5324 23.2 18.1253C22.6256 17.7514 22.1744 17.2161 21.903 16.5867C21.6316 15.9573 21.5522 15.2617 21.6746 14.5873C21.7503 13.9002 22.0266 13.2504 22.469 12.7193C22.9115 12.1881 23.5006 11.7989 24.1628 11.6003C24.6965 11.4237 25.2636 11.3716 25.8205 11.448C26.3775 11.5244 26.9096 11.7273 27.376 12.0411C27.5812 12.1849 27.8172 12.2787 28.0652 12.3151C28.3131 12.3514 28.5661 12.3292 28.8039 12.2503C29.0417 12.1714 29.2578 12.038 29.4349 11.8607C29.6119 11.6833 29.7451 11.4671 29.8236 11.2291C29.9002 10.9339 29.9334 10.6291 29.9222 10.3243C29.9222 8.15514 29.9222 5.98594 29.9222 3.81674V3.08594H52.78C54.2242 3.08594 54.9376 3.79934 54.9376 5.25514V28.0375H54.9202ZM49.9206 11.4031L47.0206 14.2741C46.487 14.8135 46.4406 15.3181 46.8408 15.7415C47.241 16.1649 47.8036 16.1011 48.3082 15.6023C49.4566 14.5003 50.5818 13.3403 51.7012 12.2267C52.2812 11.6467 52.2812 11.1943 51.7012 10.6027C50.8022 9.69214 49.8858 8.78734 48.981 7.88254C48.7142 7.61574 48.4532 7.33734 48.169 7.08214C48.0844 6.98961 47.9817 6.91533 47.8674 6.86383C47.753 6.81233 47.6294 6.78469 47.504 6.78261C47.3786 6.78052 47.2541 6.80404 47.1381 6.85172C47.0221 6.89939 46.917 6.97023 46.8293 7.05989C46.7417 7.14955 46.6732 7.25615 46.6281 7.37318C46.583 7.49021 46.5623 7.61521 46.5672 7.74052C46.572 7.86584 46.6024 7.98885 46.6564 8.10202C46.7105 8.2152 46.787 8.31616 46.8814 8.39874C47.0148 8.54374 47.1598 8.68294 47.3048 8.82214L49.9206 11.4031ZM35.8614 11.4031C36.8706 10.3939 37.8334 9.44274 38.7614 8.50314C39.2602 8.00434 39.295 7.48234 38.8948 7.07634C38.4946 6.67034 37.9668 6.69354 37.468 7.18654C36.308 8.34654 35.148 9.50654 33.988 10.6665C33.8588 10.7549 33.7531 10.8735 33.6801 11.012C33.6071 11.1504 33.5689 11.3046 33.5689 11.4611C33.5689 11.6177 33.6071 11.7719 33.6801 11.9103C33.7531 12.0488 33.8588 12.1673 33.988 12.2557L36.6328 14.9005C36.9518 15.2195 37.2592 15.5501 37.6014 15.8517C37.7755 15.9999 37.9986 16.0777 38.227 16.0698C38.4555 16.062 38.6727 15.969 38.8361 15.8092C38.9996 15.6494 39.0974 15.4343 39.1104 15.2061C39.1234 14.9779 39.0506 14.7531 38.9064 14.5757C38.7782 14.4243 38.6406 14.2809 38.4946 14.1465L35.8614 11.4031ZM41.0466 15.8807C41.0134 16.1281 41.0787 16.3785 41.2284 16.5782C41.3781 16.7778 41.6003 16.9106 41.847 16.9479C41.9729 16.9623 42.1004 16.951 42.2218 16.9145C42.3432 16.8781 42.4558 16.8173 42.553 16.7359C42.6501 16.6545 42.7296 16.5542 42.7868 16.4411C42.8439 16.328 42.8774 16.2044 42.8852 16.0779C43.4846 13.1161 44.0761 10.1523 44.66 7.18654C44.7063 7.05885 44.7251 6.92287 44.7154 6.78742C44.7057 6.65197 44.6676 6.52007 44.6036 6.4003C44.5396 6.28052 44.4512 6.17553 44.344 6.09216C44.2368 6.00878 44.1133 5.94888 43.9814 5.91634C43.4362 5.80034 42.9954 6.13674 42.8562 6.80374C42.4966 8.58434 42.1428 10.3707 41.7832 12.1513L41.0466 15.8807Z" fill="white"/>
<path id="Vector_4" d="M20.9552 29.9629H28.0718V30.6009C28.0718 32.8049 28.124 35.0147 28.0718 37.2129C28.0344 37.5496 28.0961 37.8899 28.2493 38.1921C28.4026 38.4942 28.6407 38.7451 28.9345 38.9138C29.2282 39.0826 29.5649 39.1619 29.9031 39.1421C30.2413 39.1222 30.5664 39.0041 30.8384 38.8021C31.5784 38.3289 32.4669 38.1454 33.3338 38.2866C34.2007 38.4279 34.9849 38.8841 35.5364 39.5677C36.1004 40.237 36.4085 41.0849 36.4057 41.9601C36.4029 42.8354 36.0895 43.6813 35.5212 44.347C34.953 45.0127 34.1668 45.4551 33.3029 45.5953C32.4389 45.7355 31.5532 45.5644 30.8036 45.1125C29.342 44.2715 28.095 44.9791 28.0892 46.6611C28.0892 49.1725 28.0892 51.6839 28.0892 54.2011V54.9145H5.27199C3.78139 54.9145 3.07959 54.2127 3.07959 52.7221V29.9687H11.1996C10.8026 30.696 10.5708 31.5018 10.5207 32.3288C10.4705 33.1559 10.6033 33.9838 10.9096 34.7537C11.3175 35.8071 12.0458 36.7058 12.9918 37.3231C13.9419 37.955 15.0629 38.2805 16.2037 38.2556C17.3444 38.2307 18.4502 37.8567 19.3718 37.1839C20.4466 36.38 21.1895 35.21 21.4598 33.8953C21.7208 32.8165 21.657 32.3525 20.9552 29.9629ZM8.05599 46.6089C9.08259 45.5881 10.0454 44.6369 10.9966 43.7089C11.4954 43.2101 11.536 42.6881 11.1358 42.2821C11.0384 42.1872 10.9219 42.1142 10.7941 42.0679C10.6663 42.0215 10.5301 42.003 10.3946 42.0134C10.259 42.0238 10.1273 42.063 10.0081 42.1283C9.88884 42.1937 9.78491 42.2836 9.70319 42.3923C8.54319 43.5523 7.38319 44.7123 6.22319 45.8433C6.09874 45.9305 5.99714 46.0464 5.927 46.1812C5.85685 46.3159 5.82023 46.4656 5.82023 46.6176C5.82023 46.7695 5.85685 46.9192 5.927 47.054C5.99714 47.1888 6.09874 47.3047 6.22319 47.3919C7.35226 48.5519 8.48906 49.6887 9.63359 50.8023C10.1672 51.3359 10.6776 51.3823 11.101 50.9821C11.5244 50.5819 11.478 50.0367 10.956 49.5089C10.3006 48.8419 9.63359 48.1749 8.96659 47.5195C8.69979 47.2005 8.40399 46.9279 8.05599 46.6089ZM22.1268 46.5625C21.9586 46.7423 21.831 46.8873 21.6918 47.0265C20.8392 47.8791 19.9518 48.7259 19.1282 49.5959C18.9536 49.7651 18.8534 49.9967 18.8496 50.2398C18.8458 50.4829 18.9387 50.7176 19.1079 50.8922C19.2771 51.0668 19.5087 51.167 19.7518 51.1708C19.9949 51.1746 20.2296 51.0817 20.4042 50.9125C21.6396 49.7061 22.8634 48.4765 24.0814 47.2411C24.1691 47.1673 24.2409 47.0764 24.2924 46.974C24.344 46.8716 24.3742 46.7598 24.3812 46.6453C24.3883 46.5309 24.372 46.4162 24.3335 46.3083C24.2949 46.2003 24.2348 46.1013 24.1568 46.0173C22.8963 44.7258 21.6203 43.4498 20.3288 42.1893C20.1561 42.0381 19.9316 41.9596 19.7023 41.9704C19.473 41.9812 19.2569 42.0805 19.0992 42.2473C18.9505 42.3997 18.8607 42.6 18.8458 42.8124C18.8309 43.0248 18.8919 43.2356 19.018 43.4073C19.131 43.5484 19.2552 43.6803 19.3892 43.8017L22.1268 46.5625ZM13.276 51.0401C13.2579 51.1605 13.2639 51.2833 13.2936 51.4014C13.3232 51.5195 13.376 51.6305 13.4488 51.7281C13.5216 51.8257 13.613 51.9079 13.7177 51.97C13.8224 52.0321 13.9384 52.0729 14.059 52.0899C14.1844 52.1113 14.313 52.1061 14.4363 52.0748C14.5596 52.0434 14.675 51.9865 14.775 51.9078C14.875 51.8291 14.9575 51.7304 15.0169 51.6179C15.0764 51.5054 15.1117 51.3817 15.1204 51.2547L16.93 42.2415C16.9693 42.117 16.9825 41.9857 16.9686 41.8558C16.9546 41.726 16.914 41.6005 16.8491 41.4871C16.7843 41.3738 16.6967 41.2751 16.5918 41.1973C16.4869 41.1195 16.3671 41.0643 16.2398 41.0351C16.1063 41.0005 15.9668 40.996 15.8315 41.022C15.6961 41.0481 15.5682 41.1039 15.4571 41.1856C15.346 41.2672 15.2545 41.3726 15.1892 41.4941C15.124 41.6155 15.0866 41.75 15.0798 41.8877C14.7202 43.6702 14.3625 45.4547 14.0068 47.2411C13.7806 48.5287 13.5254 49.8163 13.276 51.0401Z" fill="white"/>
</g>
</svg>
