<svg width="58" height="58" viewBox="0 0 58 58" fill="none" xmlns="http://www.w3.org/2000/svg">
<g id="Artboard 1 copy 2 4">
<path id="Vector" d="M12.644 44.9794V9.4834H45.3502V44.9794H12.644ZM31.0822 16.5594C31.0822 16.223 31.0822 15.7358 31.0822 15.2486C31.0822 14.7614 30.8966 14.6686 30.5022 14.6686C29.5124 14.6686 28.5206 14.6686 27.5268 14.6686C27.1034 14.6686 26.8946 14.831 26.9062 15.2776C26.9178 15.7242 26.9062 16.252 26.9062 16.629L22.9622 18.2704C22.6838 17.9862 22.3358 17.644 21.9994 17.2902C21.9546 17.222 21.8934 17.166 21.8215 17.1273C21.7497 17.0885 21.6693 17.0683 21.5876 17.0683C21.506 17.0683 21.4256 17.0885 21.3537 17.1273C21.2819 17.166 21.2207 17.222 21.1758 17.2902C20.4682 18.0171 19.7529 18.7325 19.0298 19.4362C18.9616 19.4811 18.9057 19.5422 18.8669 19.6141C18.8282 19.686 18.8079 19.7663 18.8079 19.848C18.8079 19.9297 18.8282 20.01 18.8669 20.0819C18.9057 20.1538 18.9616 20.2149 19.0298 20.2598L20.0854 21.1994C19.662 22.11 19.2792 22.864 18.9254 23.6412C18.734 24.1052 18.763 24.8012 18.4382 25.0274C18.1134 25.2536 17.4406 25.1318 16.9244 25.155C16.5822 25.155 16.3966 25.3174 16.3966 25.6828C16.3966 26.7326 16.3966 27.7766 16.3966 28.8264C16.3966 29.1802 16.559 29.36 16.9186 29.36C17.2782 29.36 17.748 29.36 18.1656 29.36C18.2373 29.3639 18.3072 29.3836 18.3704 29.4177C18.4336 29.4518 18.4884 29.4994 18.531 29.5572C19.0066 30.7752 19.4532 32.0048 19.9404 33.3214C19.7142 33.5476 19.3604 33.9014 19.0182 34.232C18.676 34.5626 18.7166 34.812 19.0182 35.0962C19.7297 35.7883 20.4315 36.4901 21.1236 37.2016C21.4368 37.5206 21.7036 37.5206 21.9878 37.2016L22.8984 36.1344C23.6756 36.523 24.2498 36.8594 24.8646 37.1146C25.4794 37.3698 26.158 37.5554 26.8714 37.7932V39.3128C26.8596 39.385 26.8651 39.459 26.8873 39.5288C26.9096 39.5985 26.948 39.662 26.9995 39.714C27.0509 39.766 27.114 39.8051 27.1835 39.8282C27.253 39.8512 27.3269 39.8574 27.3992 39.8464C28.4316 39.8464 29.4582 39.8464 30.4848 39.8464C30.8618 39.8464 31.0648 39.6782 31.0648 39.2664C31.0648 38.8546 31.0648 38.437 31.0648 38.0252C31.079 37.9549 31.1094 37.8888 31.1538 37.8324C31.1981 37.776 31.255 37.7308 31.32 37.7004C32.5322 37.2248 33.756 36.7724 35.061 36.2794C35.3046 36.5288 35.641 36.8594 35.9832 37.219C36.0288 37.2872 36.0905 37.3431 36.1628 37.3817C36.2352 37.4204 36.3159 37.4406 36.3979 37.4406C36.48 37.4406 36.5607 37.4204 36.633 37.3817C36.7054 37.3431 36.7671 37.2872 36.8126 37.219C37.5202 36.4921 38.2336 35.7767 38.9528 35.073C39.0272 35.0273 39.0886 34.9634 39.1313 34.8872C39.1739 34.8111 39.1963 34.7253 39.1963 34.638C39.1963 34.5507 39.1739 34.4649 39.1313 34.3888C39.0886 34.3126 39.0272 34.2486 38.9528 34.203C38.5932 33.884 38.2394 33.5534 38.0306 33.362C38.512 31.9816 38.9528 30.7694 39.44 29.5804C39.4787 29.5202 39.5297 29.4689 39.5897 29.4299C39.6497 29.3909 39.7173 29.3651 39.788 29.3542C40.1998 29.3542 40.6174 29.3542 41.035 29.3542C41.4526 29.3542 41.615 29.186 41.615 28.7742C41.615 27.7418 41.615 26.7152 41.615 25.6886C41.615 25.3 41.4352 25.1086 41.035 25.1086C40.6348 25.1086 40.2404 25.1086 39.875 25.1086C39.7944 25.1025 39.7161 25.0785 39.6459 25.0383C39.5757 24.9982 39.5153 24.943 39.469 24.8766C39.005 23.676 38.5642 22.4696 38.0538 21.1008L39.0282 20.2076C39.0917 20.1632 39.1434 20.1042 39.1792 20.0355C39.2149 19.9669 39.2336 19.8906 39.2336 19.8132C39.2336 19.7358 39.2149 19.6595 39.1792 19.5909C39.1434 19.5222 39.0917 19.4632 39.0282 19.4188C38.28 18.7054 37.5202 17.9804 36.801 17.2438C36.7567 17.1804 36.6976 17.1286 36.629 17.0928C36.5603 17.0571 36.4841 17.0384 36.4066 17.0384C36.3292 17.0384 36.253 17.0571 36.1843 17.0928C36.1157 17.1286 36.0566 17.1804 36.0122 17.2438C35.728 17.5454 35.4322 17.8238 35.1306 18.1196C35.074 18.1639 35.008 18.1947 34.9376 18.2097C34.8673 18.2248 34.7945 18.2237 34.7246 18.2066C33.5472 17.6846 32.3814 17.1394 31.0822 16.542V16.5594Z" fill="white"/>
<path id="Vector_2" d="M12.6267 46.7773H45.3329C45.3329 46.9165 45.3735 47.0557 45.3735 47.1949C45.3735 49.0161 45.3735 50.8373 45.3735 52.6585C45.382 53.0564 45.3118 53.4519 45.167 53.8225C45.0222 54.1931 44.8056 54.5315 44.5297 54.8182C44.2537 55.1049 43.9239 55.3343 43.5591 55.4932C43.1943 55.6521 42.8018 55.7374 42.4039 55.7441H42.1835C33.4023 55.7441 24.6153 55.7441 15.8283 55.7441C15.1648 55.7025 14.5207 55.5037 13.9491 55.1641C13.5576 54.9668 13.2281 54.6653 12.9969 54.2929C12.7656 53.9204 12.6415 53.4914 12.6383 53.0529C12.6035 50.9881 12.6267 48.9117 12.6267 46.7773ZM28.9885 49.6773C28.4085 49.6773 27.8749 49.6773 27.3123 49.6773C27.1044 49.6664 26.8965 49.6969 26.7005 49.767C26.5045 49.8371 26.3244 49.9455 26.1706 50.0858C26.0168 50.2261 25.8924 50.3955 25.8046 50.5843C25.7169 50.773 25.6675 50.9773 25.6593 51.1853C25.6537 51.3968 25.6913 51.6072 25.7698 51.8037C25.8484 52.0001 25.9662 52.1784 26.116 52.3278C26.2659 52.4771 26.4447 52.5943 26.6414 52.6721C26.8381 52.7499 27.0487 52.7867 27.2601 52.7803C28.4201 52.8074 29.5917 52.8074 30.7749 52.7803C30.9788 52.7842 31.1814 52.7477 31.3711 52.6731C31.5608 52.5984 31.734 52.487 31.8805 52.3453C32.0271 52.2036 32.1443 52.0343 32.2253 51.8472C32.3062 51.6601 32.3495 51.4588 32.3525 51.2549C32.3503 51.0465 32.3066 50.8407 32.2241 50.6493C32.1415 50.4579 32.0217 50.2849 31.8717 50.1402C31.7216 49.9956 31.5443 49.8822 31.3501 49.8067C31.1558 49.7312 30.9485 49.6951 30.7401 49.7005C30.1601 49.6831 29.5801 49.7005 29.0001 49.7005L28.9885 49.6773Z" fill="white"/>
<path id="Vector_3" d="M12.6613 7.67889C12.6031 6.66279 12.6031 5.64419 12.6613 4.62809C12.8295 3.35209 14.1461 2.31969 15.5439 2.26169C15.6889 2.26169 15.8339 2.26169 15.9789 2.26169H42.0093C42.8643 2.22112 43.7037 2.50024 44.3641 3.04469C44.6754 3.29426 44.927 3.61019 45.1006 3.96942C45.2742 4.32865 45.3654 4.72212 45.3675 5.12109C45.3675 5.96789 45.3675 6.80889 45.3675 7.69049L12.6613 7.67889ZM28.9999 5.84609C29.7423 5.84609 30.4789 5.84609 31.2155 5.84609C31.4463 5.84609 31.6675 5.75443 31.8307 5.59127C31.9939 5.42811 32.0855 5.20683 32.0855 4.97609C32.0855 4.74535 31.9939 4.52406 31.8307 4.3609C31.6675 4.19775 31.4463 4.10609 31.2155 4.10609C29.7346 4.10609 28.2575 4.10609 26.7843 4.10609C26.5536 4.10609 26.3323 4.19775 26.1691 4.3609C26.006 4.52406 25.9143 4.74535 25.9143 4.97609C25.9143 5.20683 26.006 5.42811 26.1691 5.59127C26.3323 5.75443 26.5536 5.84609 26.7843 5.84609C27.5151 5.85189 28.2575 5.84609 28.9999 5.84609Z" fill="white"/>
<path id="Vector_4" d="M28.9998 20.1836C30.394 20.1825 31.7572 20.5946 32.9173 21.3678C34.0774 22.1411 34.9822 23.2408 35.5176 24.5281C36.053 25.8154 36.1948 27.2324 35.9252 28.6003C35.6556 29.9681 34.9867 31.2254 34.0029 32.2132C33.0191 33.2011 31.7646 33.8752 30.3978 34.1504C29.0311 34.4256 27.6134 34.2896 26.324 33.7595C25.0345 33.2295 23.9311 32.3291 23.1531 31.1722C22.3751 30.0153 21.9574 28.6538 21.9528 27.2596C21.9467 26.3311 22.1245 25.4106 22.4762 24.5512C22.8278 23.6918 23.3461 22.9106 24.0014 22.2527C24.6566 21.5948 25.4356 21.0732 26.2936 20.7181C27.1515 20.363 28.0713 20.1813 28.9998 20.1836ZM28.124 31.1108C28.124 31.1108 28.124 31.1688 28.124 31.2384C28.124 31.9054 28.4372 32.2592 28.9708 32.2708C29.5044 32.2824 29.8408 31.9344 29.8408 31.2732C29.8408 30.9368 30.038 30.8614 30.2584 30.7396C30.7061 30.4991 31.0624 30.1183 31.2727 29.6556C31.4829 29.1929 31.5354 28.674 31.4221 28.1786C31.3088 27.6832 31.0359 27.2387 30.6455 26.9134C30.255 26.5881 29.7685 26.4 29.2608 26.378C29.0636 26.378 28.82 26.4128 28.6808 26.3084C28.5772 26.2438 28.4874 26.1593 28.4167 26.0597C28.346 25.9602 28.2958 25.8475 28.269 25.7284C28.269 25.5544 28.5126 25.276 28.704 25.218C28.9039 25.1426 29.122 25.1299 29.3293 25.1817C29.5366 25.2335 29.7231 25.3474 29.864 25.508C29.9369 25.5879 30.0249 25.6524 30.1231 25.6978C30.2212 25.7431 30.3274 25.7685 30.4355 25.7722C30.5435 25.776 30.6512 25.7582 30.7523 25.7198C30.8533 25.6814 30.9457 25.6232 31.024 25.5486C31.1089 25.4804 31.179 25.3955 31.2299 25.2992C31.2809 25.2029 31.3117 25.0972 31.3204 24.9886C31.3291 24.88 31.3155 24.7708 31.2805 24.6676C31.2455 24.5644 31.1898 24.4695 31.1168 24.3886C30.8583 24.0922 30.5501 23.8429 30.2062 23.652C29.9568 23.5186 29.8234 23.42 29.8176 23.1068C29.8176 22.8807 29.7278 22.6638 29.5679 22.5039C29.408 22.344 29.1911 22.2542 28.965 22.2542C28.7389 22.2542 28.522 22.344 28.3621 22.5039C28.2022 22.6638 28.1124 22.8807 28.1124 23.1068C28.1247 23.2446 28.0902 23.3826 28.0144 23.4984C27.9387 23.6142 27.826 23.701 27.6948 23.7448C27.2684 23.9802 26.9268 24.3439 26.7186 24.7842C26.5104 25.2246 26.4461 25.7193 26.5348 26.1982C26.6243 26.69 26.8703 27.1398 27.236 27.4805C27.6018 27.8212 28.0679 28.0346 28.5648 28.089C28.7972 28.0835 29.0293 28.1089 29.255 28.1644C29.4522 28.2572 29.7132 28.4834 29.719 28.6574C29.7022 28.7772 29.6586 28.8916 29.5913 28.992C29.524 29.0925 29.4348 29.1764 29.3304 29.2374C29.1361 29.3244 28.9192 29.3476 28.7109 29.3039C28.5025 29.2601 28.3133 29.1516 28.1704 28.9938C28.096 28.9055 28.0044 28.8331 27.9012 28.7812C27.798 28.7294 27.6853 28.699 27.57 28.692C27.4547 28.6849 27.3392 28.7014 27.2305 28.7404C27.1217 28.7794 27.0221 28.84 26.9375 28.9187C26.8529 28.9974 26.7852 29.0924 26.7385 29.1981C26.6917 29.3037 26.667 29.4177 26.6657 29.5332C26.6643 29.6487 26.6865 29.7633 26.7308 29.87C26.7751 29.9767 26.8406 30.0732 26.9234 30.1538C27.3011 30.5 27.7023 30.8198 28.124 31.1108Z" fill="white"/>
</g>
</svg>
