<svg width="72" height="72" viewBox="0 0 72 72" fill="none" xmlns="http://www.w3.org/2000/svg">
<g id="Artboard 1 copy 2 5">
<path id="Vector" d="M15.7895 10.8719V15.8399H10.9151V46.3463H60.9623V15.8759H56.0951V10.8359H59.2199C60.0263 10.8359 60.8399 10.8359 61.6391 10.8935C62.764 11.0083 63.8128 11.5146 64.6024 12.3239C65.392 13.1332 65.8722 14.1942 65.9591 15.3215C65.9591 15.5951 65.9591 15.8759 65.9591 16.1495V49.2695C65.9591 51.7391 64.7351 53.5895 62.6111 54.3095C62.0012 54.4892 61.3678 54.5766 60.7319 54.5687C44.2055 54.5687 27.6815 54.5687 11.1599 54.5687C7.97755 54.5687 5.93275 52.5239 5.92555 49.3559V16.0631C5.88458 15.3701 5.99104 14.6763 6.23789 14.0274C6.48474 13.3785 6.86638 12.7894 7.35762 12.2988C7.84887 11.8082 8.43855 11.4274 9.08777 11.1815C9.73698 10.9355 10.431 10.83 11.1239 10.8719H15.7895ZM41.7023 51.8399C41.8716 51.8362 42.0385 51.7991 42.1934 51.7309C42.3484 51.6626 42.4883 51.5645 42.6053 51.4422C42.7223 51.3198 42.8141 51.1756 42.8754 51.0178C42.9366 50.86 42.9662 50.6916 42.9623 50.5223C42.9441 50.1816 42.7972 49.8604 42.5513 49.6239C42.3053 49.3873 41.9788 49.2529 41.6376 49.2479C41.4686 49.2507 41.302 49.2872 41.1474 49.3553C40.9928 49.4234 40.8533 49.5217 40.7373 49.6444C40.6212 49.7672 40.5309 49.9119 40.4716 50.0701C40.4123 50.2283 40.3852 50.3967 40.3919 50.5655C40.3976 50.908 40.5387 51.2343 40.7842 51.4731C41.0298 51.7119 41.3599 51.8438 41.7023 51.8399ZM37.2239 50.5439C37.2239 50.2021 37.0882 49.8743 36.8465 49.6326C36.6048 49.3909 36.277 49.2551 35.9352 49.2551C35.5933 49.2551 35.2655 49.3909 35.0238 49.6326C34.7821 49.8743 34.6463 50.2021 34.6463 50.5439C34.6463 50.8857 34.7821 51.2136 35.0238 51.4553C35.2655 51.697 35.5933 51.8327 35.9352 51.8327C36.277 51.8327 36.6048 51.697 36.8465 51.4553C37.0882 51.2136 37.2239 50.8857 37.2239 50.5439ZM30.24 49.2623C30.0702 49.2575 29.9012 49.2867 29.7429 49.3482C29.5845 49.4096 29.4401 49.5021 29.318 49.6201C29.1959 49.7382 29.0987 49.8794 29.032 50.0356C28.9653 50.1918 28.9304 50.3597 28.9295 50.5295C28.9459 50.8645 29.0834 51.1821 29.3166 51.4232C29.5497 51.6643 29.8625 51.8124 30.1967 51.8399C30.5251 51.8073 30.8322 51.6629 31.0668 51.4309C31.3014 51.199 31.4492 50.8935 31.4855 50.5655C31.4914 50.2281 31.3638 49.9019 31.1306 49.6579C30.8974 49.4139 30.5773 49.2718 30.24 49.2623Z" fill="white"/>
<path id="Vector_2" d="M21.6792 30.794C21.2675 30.8084 20.857 30.7407 20.4718 30.5948C20.0865 30.4489 19.7342 30.2278 19.4352 29.9443C19.1363 29.6608 18.8969 29.3206 18.7308 28.9436C18.5647 28.5666 18.4754 28.1603 18.468 27.7484C18.468 23.8244 18.468 19.8932 18.468 15.9692V14.2988H53.28C53.28 14.5076 53.28 14.6876 53.28 14.8748C53.28 19.1468 53.28 23.414 53.28 27.6764C53.2763 28.4984 52.9496 29.2859 52.3704 29.8692C51.7912 30.4524 51.0059 30.7846 50.184 30.794C50.1222 28.9077 49.686 27.0524 48.9009 25.3361C48.1157 23.6198 46.9973 22.0767 45.6105 20.7965C44.2237 19.5162 42.5963 18.5244 40.8229 17.8786C39.0494 17.2329 37.1653 16.946 35.28 17.0348C31.7092 17.23 28.3388 18.7468 25.8248 21.2901C23.3108 23.8334 21.833 27.2212 21.6792 30.794Z" fill="white"/>
<path id="Vector_3" d="M47.2896 31.0613C47.2392 37.7357 42.192 42.8837 35.7336 42.8405C34.2128 42.8255 32.7099 42.5096 31.3118 41.9108C29.9137 41.3121 28.648 40.4424 27.5878 39.352C26.5275 38.2616 25.6936 36.9721 25.1343 35.5578C24.5749 34.1434 24.3012 32.6323 24.3288 31.1117C24.3668 28.0302 25.6264 25.0898 27.831 22.9365C30.0356 20.7832 33.0049 19.5931 36.0864 19.6277C37.5755 19.6332 39.0488 19.9344 40.4206 20.5138C41.7924 21.0932 43.0355 21.9393 44.0777 23.003C45.1199 24.0666 45.9405 25.3267 46.4919 26.71C47.0433 28.0933 47.3144 29.5723 47.2896 31.0613ZM28.6416 36.2957C29.4624 35.1862 30.5137 34.2676 31.7232 33.6029C31.873 33.4945 32.0531 33.4362 32.238 33.4362C32.4229 33.4362 32.603 33.4945 32.7528 33.6029C33.7193 34.2769 34.8718 34.6328 36.05 34.6212C37.2282 34.6096 38.3734 34.231 39.3264 33.5381C39.4392 33.4858 39.5621 33.4588 39.6864 33.4588C39.8107 33.4588 39.9336 33.4858 40.0464 33.5381C41.2969 34.1912 42.377 35.1282 43.2 36.2741C44.4489 34.5603 45.0419 32.4556 44.8715 30.3419C44.7011 28.2282 43.7785 26.2456 42.2712 24.7541C40.6851 23.1518 38.5539 22.2054 36.3016 22.1033C34.0494 22.0012 31.8412 22.7508 30.1167 24.2031C28.3921 25.6553 27.2776 27.7037 26.9949 29.9405C26.7123 32.1773 27.2822 34.4385 28.5912 36.2741L28.6416 36.2957Z" fill="white"/>
<path id="Vector_4" d="M53.3593 11.6277H18.5401C18.5333 10.6049 18.5934 9.58271 18.7201 8.56773C18.8663 7.86393 19.239 7.22739 19.7812 6.75542C20.3234 6.28344 21.0052 6.00201 21.7225 5.95413C21.9767 5.93977 22.2315 5.93977 22.4857 5.95413H49.5145C51.5737 5.95413 53.0497 6.99093 53.3305 8.78373C53.4105 9.7297 53.4202 10.6803 53.3593 11.6277Z" fill="white"/>
<path id="Vector_5" d="M49.8096 65.9236H21.9456C22.0098 65.3561 22.1108 64.7933 22.248 64.2388C22.5679 63.1754 23.2059 62.2355 24.0761 61.5455C24.9462 60.8556 26.0068 60.4487 27.1152 60.3796C27.8928 60.3292 28.6848 60.3796 29.52 60.3796V57.3916H42.1704V60.3364C42.8184 60.3364 43.3872 60.3364 43.956 60.3364C45.1606 60.3284 46.3385 60.6918 47.3292 61.3772C48.32 62.0626 49.0754 63.0367 49.4928 64.1668C49.68 64.714 49.68 65.2972 49.8096 65.9236Z" fill="white"/>
<path id="Vector_6" d="M35.9136 32.0037C35.2694 31.9965 34.6418 31.7983 34.1103 31.4341C33.5789 31.0699 33.1675 30.5562 32.9283 29.958C32.689 29.3598 32.6327 28.7041 32.7665 28.0739C32.9002 27.4437 33.218 26.8674 33.6796 26.4179C34.1411 25.9685 34.7257 25.6661 35.3593 25.5492C35.9928 25.4322 36.6468 25.506 37.2384 25.761C37.83 26.0161 38.3326 26.441 38.6825 26.982C39.0324 27.5229 39.2139 28.1555 39.204 28.7997C39.2012 29.227 39.1136 29.6495 38.9461 30.0426C38.7787 30.4357 38.5349 30.7917 38.2287 31.0897C37.9226 31.3878 37.5603 31.6221 37.1629 31.779C36.7654 31.9359 36.3408 32.0123 35.9136 32.0037Z" fill="white"/>
</g>
</svg>
