<svg width="58" height="58" viewBox="0 0 58 58" fill="none" xmlns="http://www.w3.org/2000/svg">
<path d="M11.02 9.47754H46.458V33.1357C46.458 34.1797 46.1738 34.4697 45.1414 34.4697H12.3134C11.2752 34.4697 10.991 34.1797 10.991 33.1415V9.47754H11.02ZM38.6338 21.2573L38.3148 21.5125L34.1214 24.7199C33.6922 25.0505 33.6458 25.5783 34.0576 25.7117C34.1904 25.7395 34.3275 25.7395 34.4603 25.7115C34.5931 25.6835 34.7186 25.6283 34.829 25.5493C36.4588 24.3371 38.0654 23.0959 39.6778 21.8605C40.2578 21.4139 40.2578 21.0949 39.6778 20.6367L34.9276 17.0059C34.8232 16.9305 34.7188 16.7971 34.6144 16.7971C34.3882 16.7971 34.0344 16.7971 33.9532 16.9363C33.9115 17.0518 33.8936 17.1746 33.9006 17.2972C33.9075 17.4198 33.9392 17.5397 33.9938 17.6497C34.0576 17.8121 34.2838 17.9049 34.4404 18.0267L38.6338 21.2573ZM18.7862 21.2573C18.9718 21.1123 19.1226 20.9847 19.2792 20.8687L23.2986 17.8005C23.7162 17.4757 23.7858 16.9769 23.4088 16.8319C23.2708 16.7947 23.1265 16.7873 22.9855 16.8103C22.8444 16.8333 22.7099 16.8862 22.591 16.9653C20.9612 18.1775 19.3546 19.4187 17.7422 20.6483C17.1622 21.0891 17.1622 21.4023 17.7422 21.8373C19.3314 23.0708 20.9244 24.2985 22.5214 25.5203C22.62 25.6015 22.7302 25.7291 22.8346 25.7291C23.0608 25.7291 23.4146 25.7291 23.49 25.5957C23.5731 25.3612 23.5731 25.1053 23.49 24.8707C23.461 24.7605 23.2812 24.6851 23.1652 24.5981L18.7862 21.2573ZM31.0068 15.0803C30.8792 14.9585 30.6936 14.6569 30.5138 14.6569C30.3846 14.6747 30.2616 14.7229 30.1547 14.7975C30.0478 14.8721 29.9602 14.9711 29.899 15.0861C29.5916 15.9909 29.3596 16.9247 29.0986 17.8469C28.2402 20.9171 27.3837 23.9833 26.5292 27.0457C26.3842 27.5677 26.5292 27.8983 26.9004 27.9505C27.3818 28.0085 27.4804 27.6605 27.6138 27.2951C28.6964 23.3937 29.7849 19.4903 30.8792 15.5849C30.914 15.4341 30.943 15.3123 31.0068 15.0803Z" fill="white"/>
<path d="M47.5599 11.6758C49.1607 11.6758 50.6803 11.6758 52.1999 11.6758C52.7161 11.6758 52.9713 11.9948 53.0003 12.5168C53.0003 12.627 53.0003 12.7314 53.0003 12.8416V39.3534H4.44849V12.7952C4.44849 11.9078 4.68049 11.6758 5.57949 11.6758H9.88889V33.1706C9.88889 34.7946 10.6661 35.5718 12.2901 35.5718H45.1297C46.7479 35.5718 47.5599 34.8004 47.5599 33.1706V11.6758Z" fill="white"/>
<path d="M52.9713 40.5183C52.9713 41.6783 52.9713 42.8383 52.9713 43.9983C52.9747 44.1 52.9569 44.2012 52.9191 44.2957C52.8814 44.3901 52.8245 44.4758 52.752 44.5471C52.6796 44.6185 52.5931 44.6741 52.4981 44.7104C52.4031 44.7467 52.3015 44.763 52.1999 44.7581C52.0201 44.7581 51.8403 44.7581 51.6605 44.7581H5.73614C5.55054 44.7581 5.37074 44.7581 5.19094 44.7581C5.09018 44.7583 4.99045 44.7378 4.89791 44.698C4.80538 44.6581 4.72202 44.5996 4.65297 44.5262C4.58393 44.4528 4.53068 44.3661 4.49651 44.2713C4.46235 44.1765 4.448 44.0757 4.45434 43.9751C4.45434 42.8151 4.45434 41.6957 4.45434 40.4951L52.9713 40.5183Z" fill="white"/>
<path d="M46.4 8.32346H11.02V4.79706C11.02 3.86326 11.3216 3.57326 12.2612 3.56746H45.0718C45.2168 3.56746 45.3618 3.56746 45.5068 3.56746C45.625 3.56588 45.7424 3.5881 45.8518 3.63279C45.9613 3.67749 46.0607 3.74374 46.144 3.82762C46.2273 3.91149 46.2929 4.01127 46.3369 4.12102C46.3809 4.23077 46.4024 4.34825 46.4 4.46646C46.4406 5.73086 46.4 7.00106 46.4 8.32346ZM36.3138 5.42346H29.1102C28.7564 5.42346 28.4896 5.54526 28.4722 5.93386C28.4548 6.32246 28.7216 6.51386 29.0928 6.51386H43.2216C43.4165 6.52467 43.6118 6.50709 43.8016 6.46166C43.8938 6.43769 43.9776 6.38867 44.0437 6.32001C44.1098 6.25135 44.1556 6.16574 44.176 6.07266C44.1964 5.97958 44.1907 5.88266 44.1594 5.79265C44.1281 5.70263 44.0725 5.62303 43.9988 5.56266C43.7939 5.45438 43.5632 5.40423 43.3318 5.41766C41.006 5.40606 38.6744 5.41186 36.337 5.41186L36.3138 5.42346ZM14.9988 5.95706C14.9973 5.76316 14.92 5.57755 14.7835 5.43989C14.6469 5.30224 14.4619 5.22349 14.268 5.22046C14.0659 5.21578 13.8702 5.2912 13.7235 5.43028C13.5768 5.56936 13.4911 5.76081 13.485 5.96286C13.4758 6.06939 13.4887 6.17669 13.5232 6.27794C13.5576 6.37918 13.6127 6.47217 13.6849 6.55099C13.7572 6.62981 13.845 6.69274 13.9429 6.7358C14.0408 6.77885 14.1466 6.80109 14.2535 6.80109C14.3605 6.80109 14.4662 6.77885 14.5641 6.7358C14.662 6.69274 14.7499 6.62981 14.8221 6.55099C14.8944 6.47217 14.9495 6.37918 14.9839 6.27794C15.0183 6.17669 15.0313 6.06939 15.022 5.96286L14.9988 5.95706ZM18.2468 5.95706C18.2468 5.75401 18.1662 5.55928 18.0226 5.4157C17.879 5.27212 17.6843 5.19146 17.4812 5.19146C17.2782 5.19146 17.0834 5.27212 16.9399 5.4157C16.7963 5.55928 16.7156 5.75401 16.7156 5.95706C16.7156 6.16011 16.7963 6.35484 16.9399 6.49842C17.0834 6.642 17.2782 6.72266 17.4812 6.72266C17.6843 6.72266 17.879 6.642 18.0226 6.49842C18.1662 6.35484 18.2468 6.16011 18.2468 5.95706ZM21.5064 5.99186C21.5096 5.79424 21.4357 5.60314 21.3004 5.45912C21.165 5.3151 20.9789 5.22949 20.7814 5.22046C20.6815 5.21418 20.5814 5.22816 20.4871 5.26156C20.3928 5.29496 20.3061 5.34708 20.2325 5.4148C20.1588 5.48252 20.0996 5.56444 20.0583 5.65563C20.0171 5.74683 19.9948 5.84541 19.9926 5.94546C19.9887 6.04973 20.0057 6.15372 20.0426 6.25133C20.0795 6.34893 20.1355 6.43818 20.2074 6.51383C20.2793 6.58948 20.3655 6.65 20.4611 6.69184C20.5567 6.73368 20.6597 6.75599 20.764 6.75746C20.9697 6.74995 21.1644 6.66293 21.3072 6.51472C21.45 6.36651 21.5298 6.16867 21.5296 5.96286L21.5064 5.99186Z" fill="white"/>
<path d="M18.8789 53.8529C18.9927 53.0817 19.3762 52.3758 19.9614 51.8608C20.5465 51.3457 21.2953 51.0549 22.0747 51.0399C24.2149 51.0051 26.3493 51.0399 28.4895 51.0399C30.7573 51.0399 33.0251 51.0399 35.2871 51.0399C35.9722 51.0455 36.6391 51.2616 37.1973 51.659C37.7555 52.0563 38.178 52.6157 38.4075 53.2613C38.4771 53.4469 38.5177 53.6383 38.5873 53.8413L18.8789 53.8529Z" fill="white"/>
<path d="M25.6418 49.8802C25.9782 48.5984 26.2856 47.392 26.622 46.1972C26.6596 46.1196 26.7158 46.0525 26.7857 46.0019C26.8555 45.9513 26.9368 45.9187 27.0222 45.9072C28.1474 45.9072 29.2668 45.9072 30.3862 45.9072C30.4659 45.9136 30.543 45.9384 30.6114 45.9797C30.6799 46.021 30.7378 46.0776 30.7806 46.145C31.1228 47.3746 31.4418 48.61 31.7724 49.886L25.6418 49.8802Z" fill="white"/>
</svg>
