<svg width="78" height="78" viewBox="0 0 78 78" fill="none" xmlns="http://www.w3.org/2000/svg">
<g id="Artboard 1 5">
<path id="Vector" d="M21.5046 37.9707C21.5046 35.5293 21.3174 33.0723 21.5436 30.6543C21.9905 26.3523 24.0158 22.3685 27.2283 19.4725C30.4408 16.5765 34.6125 14.9736 38.9376 14.9736C43.2628 14.9736 47.4345 16.5765 50.647 19.4725C53.8595 22.3685 55.8848 26.3523 56.3317 30.6543C56.4747 32.6113 56.5163 34.5743 56.4565 36.5355C56.4565 39.4995 56.5501 42.4791 56.3083 45.4275C55.6921 52.9077 49.5145 59.4675 42.0967 60.6999C37.5826 61.525 32.9252 60.541 29.1306 57.9607C25.336 55.3804 22.7088 51.4108 21.8166 46.9095C21.5533 45.1751 21.4307 43.4221 21.45 41.6679C21.3954 40.4355 21.45 39.2031 21.45 37.9707H21.5046Z" fill="white"/>
<path id="Vector_2" d="M12.987 28.1188C14.0141 22.1405 17.0719 16.6994 21.6445 12.7136C26.2172 8.72779 32.0248 6.44129 38.0874 6.23985C44.4481 5.97576 50.6793 8.08898 55.5672 12.1678C60.4856 16.1719 63.7816 21.8268 64.8414 28.0798C65.697 28.1001 66.551 28.1652 67.3998 28.2748C68.6019 28.5009 69.6904 29.132 70.4837 30.063C71.2771 30.9941 71.7275 32.1688 71.76 33.3917C71.76 37.1825 71.8068 40.9732 71.76 44.764C71.7085 46.1332 71.1442 47.4329 70.179 48.4054C69.2138 49.3778 67.9183 49.9518 66.5496 50.0135C66.0036 50.0135 65.4498 50.0135 64.8648 50.0135C64.623 50.9729 64.4202 51.9245 64.155 52.8527C62.73 57.8523 59.8545 62.3172 55.892 65.6826C51.9296 69.048 47.0582 71.1629 41.8938 71.7598C40.989 71.8613 40.0764 71.9002 39.1638 71.9158C38.8664 71.9385 38.5675 71.9002 38.2855 71.8033C38.0034 71.7064 37.7441 71.553 37.5234 71.3525C37.3027 71.1519 37.1252 70.9084 37.0019 70.6369C36.8785 70.3653 36.8119 70.0715 36.8061 69.7733C36.8002 69.4752 36.8553 69.1789 36.9679 68.9028C37.0805 68.6266 37.2483 68.3764 37.4609 68.1673C37.6736 67.9582 37.9267 67.7948 38.2048 67.6869C38.4828 67.5791 38.7799 67.5291 39.078 67.54C42.2175 67.5398 45.3189 66.8526 48.1647 65.5268C51.0105 64.2009 53.5318 62.2684 55.5516 59.8648C58.9071 56.0886 60.7852 51.2272 60.84 46.1758C60.9258 41.4569 60.9102 36.73 60.84 32.0032C60.7193 26.6277 58.6256 21.4844 54.9575 17.5529C51.2894 13.6215 46.3033 11.1767 40.949 10.6843C35.5947 10.1918 30.2464 11.6861 25.9227 14.8825C21.5991 18.0789 18.6023 22.7541 17.5032 28.0174C17.1943 29.5582 17.0401 31.126 17.043 32.6974C16.9884 37.6036 17.043 42.5098 17.043 47.4239C17.043 49.2022 16.263 50.0291 14.4534 50.0135C13.1216 50.0776 11.787 50.0463 10.4598 49.9198C9.2436 49.7103 8.13924 49.0814 7.33846 48.1424C6.53768 47.2034 6.09106 46.0136 6.07617 44.7797C6.02937 40.9888 6.02157 37.1981 6.07617 33.4073C6.12776 32.0368 6.69318 30.736 7.66001 29.7634C8.62684 28.7908 9.92427 28.2176 11.2944 28.1578C11.8404 28.0798 12.3942 28.1188 12.987 28.1188Z" fill="white"/>
</g>
</svg>
