<svg width="58" height="58" viewBox="0 0 58 58" fill="none" xmlns="http://www.w3.org/2000/svg">
<g id="Artboard 1 copy 4 4">
<path id="Vector" d="M37.1724 2.35449L37.6596 2.51689C39.0342 2.98669 39.9796 3.94369 40.0434 5.37629C40.1536 8.18929 40.0782 11.0081 40.0782 13.8501H37.7002V6.10129C37.7002 5.15009 37.3348 4.79049 36.3778 4.78469H30.9258C30.1022 4.78469 29.8412 4.98189 29.5686 5.77649C29.4526 6.11869 29.354 6.47249 29.209 6.80309C29.1767 6.8661 29.1298 6.92052 29.0724 6.96187C29.0149 7.00322 28.9484 7.0303 28.8784 7.04089C25.785 7.04089 22.6917 7.04089 19.5984 7.04089C19.5293 7.02552 19.4646 6.99452 19.4093 6.95029C19.354 6.90605 19.3096 6.84975 19.2794 6.78569C19.1228 6.38549 19.0068 5.96789 18.8618 5.56189C18.8007 5.33077 18.6618 5.1278 18.4684 4.98726C18.275 4.84672 18.0391 4.77722 17.8004 4.79049C15.8342 4.79049 13.8622 4.79049 11.896 4.79049C11.744 4.78206 11.592 4.80677 11.4506 4.86291C11.3091 4.91905 11.1815 5.00529 11.0767 5.11563C10.9719 5.22597 10.8923 5.35779 10.8435 5.50195C10.7947 5.64611 10.7778 5.79916 10.794 5.95049C10.794 6.03169 10.794 6.11289 10.794 6.19409V47.4437C10.7676 47.6117 10.7811 47.7835 10.8334 47.9453C10.8857 48.1071 10.9753 48.2544 11.0949 48.3752C11.2146 48.496 11.361 48.587 11.5223 48.6408C11.6836 48.6946 11.8554 48.7097 12.0236 48.6849C14.6394 48.6849 17.2436 48.6849 19.8652 48.6849H36.3082C37.3174 48.6849 37.6596 48.3369 37.6596 47.3277C37.6596 44.9149 37.6596 42.5021 37.6596 40.0893V39.6311H40.0898V51.9213C40.0898 54.2065 38.634 55.6449 36.343 55.6449H12.0642C11.1984 55.7087 10.34 55.4467 9.65751 54.9101C8.97502 54.3736 8.51772 53.6013 8.37538 52.7449C8.36057 52.7078 8.34108 52.6727 8.31738 52.6405V5.34729C8.46602 4.67832 8.7678 4.05293 9.19898 3.52029C9.7678 2.92718 10.5045 2.52238 11.3102 2.36029L37.1724 2.35449ZM24.2384 51.1209H20.9324C20.7859 51.1086 20.6385 51.1272 20.4996 51.1754C20.3608 51.2237 20.2336 51.3006 20.1264 51.4011C20.0191 51.5017 19.9342 51.6236 19.8771 51.7591C19.82 51.8945 19.7919 52.0404 19.7948 52.1874C19.7976 52.3344 19.8313 52.4791 19.8937 52.6122C19.956 52.7454 20.0456 52.8639 20.1567 52.9602C20.2678 53.0565 20.3978 53.1284 20.5384 53.1712C20.679 53.2141 20.8271 53.2269 20.973 53.2089C23.1228 53.2089 25.2746 53.2089 27.4284 53.2089C27.5794 53.23 27.7332 53.218 27.879 53.1736C28.0249 53.1293 28.1594 53.0537 28.2731 52.9522C28.3868 52.8506 28.477 52.7255 28.5375 52.5855C28.5979 52.4456 28.6272 52.2941 28.6232 52.1417C28.6232 51.5211 28.1592 51.1267 27.4284 51.1209H24.2384Z" fill="white"/>
<path id="Vector_2" d="M12.8643 6.87891C14.2215 6.87891 15.5497 6.87891 16.8837 6.87891C16.9707 6.87891 17.0983 7.01811 17.1331 7.11671C17.2897 7.51691 17.4115 7.92871 17.5507 8.33471C17.6123 8.57407 17.7555 8.78442 17.9556 8.92948C18.1557 9.07454 18.4002 9.14521 18.6469 9.12931H29.7539C30.0065 9.14836 30.2577 9.07639 30.4619 8.92641C30.6662 8.77642 30.81 8.55831 30.8675 8.31151C31.0067 7.91711 31.1227 7.51691 31.2735 7.15151C31.3199 7.04131 31.4591 6.89631 31.5519 6.89631C32.8627 6.89631 34.1677 6.89631 35.4727 6.89631C35.4727 6.89631 35.5191 6.89631 35.5655 6.94271C35.6119 6.98911 35.5655 7.16891 35.5655 7.28491C35.5655 9.48311 35.5655 11.6755 35.5655 13.8737C35.5655 14.1927 35.4553 14.3087 35.1653 14.3957C32.5082 15.1917 30.1787 16.8233 28.5225 19.0483C26.8663 21.2733 25.9719 23.9731 25.9719 26.7468C25.9719 29.5205 26.8663 32.2203 28.5225 34.4453C30.1787 36.6703 32.5082 38.3019 35.1653 39.0979C35.2268 39.105 35.2862 39.1244 35.34 39.1551C35.3937 39.1857 35.4408 39.227 35.4782 39.2763C35.5156 39.3256 35.5426 39.382 35.5576 39.4421C35.5726 39.5021 35.5753 39.5646 35.5655 39.6257C35.5655 41.8065 35.5655 43.9873 35.5655 46.1739C35.5655 46.3015 35.5655 46.4349 35.5655 46.5857H12.8643V6.87891Z" fill="white"/>
<path id="Vector_3" d="M42.2241 37.004C41.8751 34.142 42.621 31.2539 44.3121 28.9188C44.8825 28.1298 45.2728 27.2253 45.4555 26.269C45.6381 25.3127 45.6086 24.328 45.3691 23.3844C45.1296 22.4407 44.6859 21.5612 44.0693 20.8077C43.4528 20.0543 42.6783 19.4454 41.8007 19.024C40.8263 18.5542 40.0955 19.024 40.0955 20.0854C40.0955 21.3382 40.0955 22.591 40.0955 23.8438C40.0955 24.1652 39.9678 24.4736 39.7405 24.7009C39.5131 24.9282 39.2048 25.056 38.8833 25.056C38.5618 25.056 38.2535 24.9282 38.0262 24.7009C37.7988 24.4736 37.6711 24.1652 37.6711 23.8438C37.6711 22.5736 37.6711 21.3092 37.6711 20.0448C37.6711 19.0356 36.9519 18.5832 36.0355 19.0124C35.1528 19.4286 34.3723 20.0336 33.7491 20.7847C33.1259 21.5358 32.6753 22.4145 32.4291 23.3589C32.1829 24.3033 32.1472 25.2902 32.3244 26.2499C32.5015 27.2097 32.8874 28.1187 33.4545 28.913C34.464 30.2002 35.1412 31.716 35.4265 33.3268C35.5889 34.5332 35.5889 35.7628 35.6585 37.0156C32.0103 36.0528 27.7589 31.9696 28.1185 25.9492C28.3073 23.2649 29.4914 20.7479 31.4388 18.8909C33.3862 17.034 35.9567 15.971 38.6469 15.91C41.337 15.849 43.953 16.7946 45.9826 18.5614C48.0121 20.3282 49.3089 22.789 49.6191 25.462C49.9207 27.9455 49.3473 30.4566 47.9977 32.5631C46.648 34.6696 44.6064 36.24 42.2241 37.004Z" fill="white"/>
<path id="Vector_4" d="M37.6654 37.5375C37.6654 36.7313 37.6654 36.0179 37.6654 35.3045C37.7154 32.6439 36.8788 30.0423 35.2874 27.9095C34.6442 27.1095 34.2882 26.1166 34.2767 25.0901C34.2651 24.0637 34.5985 23.063 35.2236 22.2487C35.3048 22.1385 35.4092 22.0399 35.5832 21.8427C35.5832 22.5735 35.5832 23.1883 35.5832 23.7973C35.5668 24.2299 35.6358 24.6616 35.7862 25.0675C35.9366 25.4735 36.1656 25.8458 36.4599 26.1633C37.0543 26.8045 37.8791 27.1833 38.7529 27.2164C39.6266 27.2495 40.4777 26.9341 41.1189 26.3397C41.4364 26.0453 41.6928 25.6914 41.8735 25.2979C42.0542 24.9045 42.1556 24.4793 42.172 24.0467C42.172 23.3449 42.172 22.6489 42.172 21.8369C42.3344 22.0167 42.4388 22.1269 42.5316 22.2487C43.1427 23.0382 43.4782 24.0062 43.4866 25.0046C43.4949 26.0029 43.1758 26.9765 42.578 27.7761C41.4923 29.2381 40.731 30.9149 40.345 32.6945C40.1093 34.1025 40.0238 35.5315 40.0898 36.9575C40.0898 37.5375 40.0898 37.5375 39.5098 37.5375C38.9298 37.5375 38.3208 37.5375 37.6654 37.5375Z" fill="white"/>
</g>
</svg>
