<svg width="1033" height="369" viewBox="0 0 1033 369" fill="none" xmlns="http://www.w3.org/2000/svg">
<g id="Benifits">
<path id="Vector 93" d="M143 51V0" stroke="#C608FF" stroke-width="2"/>
<path id="Vector 94" d="M516 102V51" stroke="#18C8FF" stroke-width="2"/>
<path id="Vector 96" d="M318 355V304" stroke="#18C8FF" stroke-width="2"/>
<path id="Vector 97" d="M715 355L715 301" stroke="#18C8FF" stroke-width="2"/>
<path id="Vector 95" d="M883 52V1" stroke="#C608FF" stroke-width="2"/>
<path id="Subtract" fill-rule="evenodd" clip-rule="evenodd" d="M0 28.7569C0 15.1034 13.3794 5.46399 26.3652 9.68153C80.738 27.3407 131.924 42.4083 180.818 54.9134C189.728 57.1922 196 65.1927 196 74.3895V311.012C196 320.486 189.353 328.652 180.09 330.643C131.216 341.15 79.8853 353.666 25.275 368.196C12.5344 371.586 0 362.011 0 348.827V28.7569ZM245.883 317.452C233.499 319.745 222 310.292 222 297.698V90.1289C222 77.2589 233.98 67.7456 246.559 70.4675C294.681 80.8805 340.828 88.6195 385.962 93.7156C396.189 94.8703 404 103.464 404 113.756V276.93C404 287.27 396.119 295.891 385.834 296.958C340.81 301.628 294.467 308.458 245.883 317.452ZM451.474 291.631C439.872 292.303 430 283.142 430 271.52V119.441C430 107.801 439.9 98.6372 451.521 99.2972C494.389 101.732 536.751 101.715 579.472 99.2734C591.095 98.6092 601 107.774 601 119.416V270.256C601 281.74 591.351 290.85 579.876 290.395C537.329 288.711 494.823 289.121 451.474 291.631ZM835 307.758C835 317.197 841.599 325.34 850.815 327.381C900.496 338.384 952.305 351.771 1007.32 367.538C1020.16 371.217 1033 361.616 1033 348.261V28.6326C1033 15.0149 1019.69 5.37933 1006.72 9.53881C951.622 27.213 899.775 42.365 850.207 54.9633C841.284 57.2312 835 65.2378 835 74.4443V307.758ZM785.071 314.002C797.472 316.291 809 306.835 809 294.225V90.1062C809 77.2442 797.034 67.7326 784.461 70.4441C736.45 80.7983 690.304 88.552 645.033 93.6729C634.808 94.8294 627 103.422 627 113.712V274.568C627 285.029 635.062 293.706 645.481 294.639C691.093 298.72 737.267 305.176 785.071 314.002Z" fill="url(#paint0_linear_2529_4666)"/>
<g id="Artboard 1 2">
<path id="Vector" d="M545.19 219.526C545.099 219.869 545.015 220.226 544.917 220.562C544.53 221.815 543.762 222.916 542.719 223.712C541.676 224.507 540.411 224.957 539.1 225H493.404C490.387 225 488 223.362 487.146 220.653C486.943 220 486.837 219.32 486.831 218.637C486.803 214.138 486.803 209.637 486.831 205.134C486.815 204.295 486.968 203.461 487.282 202.683C487.596 201.905 488.063 201.199 488.657 200.606C489.251 200.013 489.958 199.546 490.736 199.233C491.515 198.92 492.348 198.767 493.187 198.785C508.4 198.785 523.614 198.785 538.827 198.785C540.337 198.753 541.807 199.269 542.966 200.238C544.124 201.207 544.892 202.564 545.127 204.056C545.152 204.126 545.182 204.194 545.218 204.259L545.19 219.526ZM498.906 211.238L499.018 210.965C499.228 210.505 499.317 209.999 499.277 209.495C499.237 208.991 499.069 208.505 498.788 208.085C498.508 207.664 498.124 207.322 497.675 207.091C497.225 206.86 496.723 206.747 496.218 206.765C495.518 206.765 494.769 206.765 494.048 206.765C493.894 206.76 493.741 206.787 493.598 206.844C493.455 206.901 493.325 206.987 493.218 207.097C493.11 207.207 493.026 207.338 492.971 207.482C492.916 207.626 492.892 207.78 492.9 207.934C492.9 210.58 492.9 213.221 492.9 215.858C492.894 216.011 492.92 216.164 492.976 216.306C493.032 216.449 493.117 216.579 493.225 216.687C493.334 216.796 493.463 216.881 493.606 216.937C493.749 216.993 493.902 217.018 494.055 217.013C495.021 217.013 495.994 217.013 496.96 217.013C497.697 216.972 498.398 216.681 498.947 216.189C499.497 215.696 499.863 215.032 499.984 214.304C500.082 213.743 500.035 213.167 499.846 212.63C499.657 212.093 499.334 211.613 498.906 211.238ZM506.2 206.758C505.186 206.751 504.193 207.044 503.346 207.602C502.499 208.159 501.836 208.954 501.44 209.888C501.045 210.822 500.935 211.852 501.125 212.848C501.314 213.844 501.795 214.761 502.505 215.484C503.216 216.208 504.125 216.704 505.117 216.911C506.11 217.118 507.141 217.027 508.082 216.648C509.022 216.269 509.83 215.621 510.402 214.783C510.974 213.946 511.285 212.958 511.296 211.945C511.307 210.581 510.777 209.269 509.821 208.297C508.866 207.324 507.563 206.771 506.2 206.758ZM517.946 206.758C516.932 206.751 515.939 207.044 515.092 207.602C514.245 208.159 513.582 208.954 513.186 209.888C512.791 210.822 512.681 211.852 512.871 212.848C513.06 213.844 513.541 214.761 514.251 215.484C514.962 216.208 515.871 216.704 516.863 216.911C517.856 217.118 518.887 217.027 519.828 216.648C520.768 216.269 521.576 215.621 522.148 214.783C522.72 213.946 523.031 212.958 523.042 211.945C523.055 210.585 522.529 209.277 521.579 208.304C520.629 207.332 519.333 206.776 517.974 206.758H517.946ZM527.746 206.758C527.31 206.83 526.881 206.942 526.465 207.094C525.935 207.292 525.48 207.648 525.159 208.113C524.838 208.579 524.669 209.132 524.673 209.698C524.667 210.258 524.841 210.806 525.17 211.26C525.499 211.713 525.965 212.049 526.5 212.218C527.305 212.561 528.124 212.855 528.908 213.233C529.139 213.352 529.44 213.695 529.412 213.933C529.312 214.23 529.105 214.48 528.831 214.633C528.616 214.745 528.373 214.796 528.131 214.78C527.421 214.766 526.745 214.475 526.248 213.968C526.142 213.858 526.016 213.771 525.875 213.712C525.735 213.652 525.585 213.622 525.433 213.622C525.28 213.622 525.13 213.652 524.99 213.712C524.85 213.771 524.723 213.858 524.617 213.968C524.508 214.074 524.422 214.202 524.364 214.343C524.307 214.485 524.279 214.636 524.283 214.789C524.287 214.941 524.322 215.091 524.387 215.23C524.452 215.368 524.544 215.491 524.659 215.592C525.231 216.209 525.959 216.66 526.766 216.897C527.573 217.133 528.43 217.147 529.244 216.936C530.036 216.775 530.733 216.31 531.187 215.642C531.641 214.973 531.815 214.154 531.673 213.359C531.544 212.83 531.284 212.343 530.917 211.941C530.55 211.54 530.088 211.238 529.573 211.063C528.873 210.748 528.089 210.475 527.361 210.16C526.913 209.971 526.878 209.558 527.298 209.313C527.518 209.165 527.783 209.098 528.047 209.124C528.61 209.263 529.156 209.46 529.678 209.712C529.933 209.879 530.243 209.941 530.542 209.884C530.842 209.826 531.107 209.654 531.281 209.404C531.443 209.153 531.502 208.85 531.445 208.557C531.387 208.265 531.218 208.006 530.973 207.836C530.055 207.127 528.927 206.745 527.767 206.751L527.746 206.758ZM535.096 209.04V209.74C535.096 211.679 535.096 213.611 535.096 215.55C535.084 215.812 535.114 216.074 535.187 216.327C535.278 216.57 535.452 216.774 535.679 216.902C535.906 217.03 536.17 217.074 536.426 217.027C536.71 216.971 536.962 216.812 537.136 216.58C537.309 216.349 537.39 216.061 537.364 215.774C537.364 214.045 537.364 212.323 537.364 210.594V209.033C537.77 209.033 538.127 209.033 538.484 209.033C538.771 209.02 539.042 208.899 539.242 208.693C539.443 208.488 539.557 208.214 539.562 207.927C539.568 207.638 539.46 207.358 539.263 207.148C539.065 206.937 538.793 206.812 538.505 206.8C537.007 206.772 535.509 206.772 534.011 206.8C533.721 206.803 533.445 206.92 533.24 207.126C533.036 207.331 532.921 207.609 532.919 207.899C532.917 208.196 533.029 208.482 533.232 208.698C533.436 208.915 533.715 209.044 534.011 209.061C534.354 209.054 534.69 209.033 535.117 209.033L535.096 209.04Z" fill="white"/>
<path id="Vector_2" d="M516.462 166.627C516.925 166.998 517.358 167.406 517.757 167.845C519.857 170.596 521.908 173.375 523.994 176.133C524.273 176.397 524.459 176.745 524.524 177.123C524.589 177.502 524.53 177.892 524.355 178.234C524.18 178.576 523.899 178.852 523.553 179.021C523.208 179.19 522.818 179.243 522.44 179.171C521.74 179.171 521.04 179.171 520.277 179.171V192.933C520.277 194.543 519.689 195.131 518.079 195.131H513.697C513.43 195.167 513.159 195.14 512.904 195.054C512.649 194.968 512.418 194.824 512.227 194.634C512.037 194.444 511.893 194.212 511.807 193.957C511.721 193.702 511.694 193.431 511.73 193.164C511.73 188.773 511.73 184.384 511.73 179.997V179.164C510.869 179.164 510.043 179.164 509.217 179.164C508.892 179.181 508.569 179.101 508.29 178.934C508.011 178.767 507.788 178.52 507.649 178.226C507.487 177.912 507.425 177.555 507.473 177.204C507.52 176.853 507.675 176.526 507.915 176.266C509.651 173.965 511.382 171.658 513.109 169.343C513.501 168.825 513.858 168.286 514.285 167.803C514.712 167.32 515.125 167.019 515.545 166.627H516.462Z" fill="white"/>
<path id="Vector_3" d="M494.629 186.01H492.2C491.857 186.037 491.514 185.959 491.216 185.786C490.919 185.614 490.681 185.355 490.534 185.044C490.385 184.741 490.331 184.401 490.378 184.068C490.425 183.734 490.572 183.423 490.8 183.175C493.035 180.202 495.268 177.227 497.499 174.25C497.651 174.005 497.863 173.803 498.114 173.663C498.366 173.524 498.649 173.45 498.937 173.45C499.225 173.45 499.508 173.524 499.76 173.663C500.012 173.803 500.224 174.005 500.376 174.25C502.574 177.211 504.8 180.2 507.012 183.133C507.243 183.394 507.39 183.72 507.434 184.066C507.477 184.413 507.415 184.765 507.256 185.075C507.096 185.386 506.847 185.642 506.54 185.808C506.233 185.975 505.882 186.045 505.535 186.01C504.779 186.01 504.023 186.01 503.176 186.01V186.71C503.176 188.81 503.176 190.966 503.176 193.094C503.176 194.494 502.532 195.138 501.118 195.138H496.617C496.346 195.175 496.07 195.149 495.81 195.062C495.551 194.974 495.315 194.827 495.123 194.633C494.93 194.439 494.785 194.203 494.699 193.943C494.613 193.683 494.589 193.406 494.629 193.136C494.629 191.036 494.629 188.887 494.629 186.759V186.01Z" fill="white"/>
<path id="Vector_4" d="M528.831 186.01H526.409C526.065 186.038 525.721 185.96 525.422 185.788C525.123 185.615 524.884 185.356 524.736 185.044C524.582 184.747 524.522 184.41 524.563 184.078C524.604 183.745 524.745 183.433 524.967 183.182C527.198 180.21 529.431 177.235 531.666 174.257C531.818 174.013 532.03 173.811 532.282 173.671C532.533 173.531 532.816 173.458 533.104 173.458C533.392 173.458 533.676 173.531 533.927 173.671C534.179 173.811 534.391 174.013 534.543 174.257C536.783 177.235 539.016 180.212 541.242 183.189C541.462 183.441 541.602 183.753 541.643 184.085C541.684 184.417 541.625 184.753 541.473 185.051C541.324 185.362 541.084 185.62 540.785 185.791C540.487 185.962 540.143 186.039 539.8 186.01H537.413C537.413 186.262 537.413 186.479 537.413 186.71C537.413 188.81 537.413 190.966 537.413 193.094C537.413 194.494 536.769 195.145 535.362 195.145H530.77C530.508 195.176 530.243 195.146 529.994 195.059C529.745 194.973 529.518 194.831 529.332 194.644C529.146 194.458 529.004 194.232 528.917 193.983C528.83 193.734 528.801 193.468 528.831 193.206C528.831 191.064 528.831 188.915 528.831 186.773V186.01Z" fill="white"/>
<path id="Vector_5" d="M495.182 212.715C495.735 212.715 496.26 212.715 496.785 212.715C497.045 212.728 497.29 212.842 497.466 213.033C497.643 213.224 497.738 213.477 497.73 213.737C497.718 213.995 497.61 214.239 497.428 214.422C497.245 214.604 497.001 214.712 496.743 214.724C496.61 214.724 496.477 214.724 496.344 214.724H495.182V212.715Z" fill="white"/>
<path id="Vector_6" d="M495.168 210.412V209.054C495.586 208.998 496.01 208.998 496.428 209.054C496.563 209.116 496.681 209.209 496.775 209.324C496.868 209.439 496.934 209.574 496.967 209.719C497.044 210.097 496.764 210.356 496.365 210.419C495.966 210.482 495.609 210.412 495.168 210.412Z" fill="white"/>
<path id="Vector_7" d="M506.2 209.04C506.763 209.044 507.312 209.215 507.778 209.531C508.244 209.847 508.606 210.294 508.818 210.815C509.03 211.336 509.083 211.909 508.97 212.46C508.857 213.012 508.584 213.517 508.184 213.913C507.784 214.31 507.275 214.578 506.723 214.686C506.17 214.793 505.598 214.734 505.079 214.517C504.56 214.3 504.117 213.934 503.805 213.465C503.494 212.996 503.329 212.445 503.33 211.882C503.331 211.507 503.406 211.135 503.551 210.789C503.696 210.443 503.908 210.129 504.174 209.865C504.441 209.601 504.757 209.392 505.105 209.25C505.453 209.109 505.825 209.037 506.2 209.04Z" fill="white"/>
<path id="Vector_8" d="M517.925 214.738C517.362 214.735 516.813 214.566 516.346 214.251C515.879 213.936 515.516 213.49 515.303 212.97C515.089 212.449 515.035 211.876 515.146 211.325C515.258 210.773 515.53 210.267 515.929 209.87C516.328 209.473 516.836 209.203 517.388 209.094C517.94 208.985 518.513 209.042 519.032 209.258C519.552 209.474 519.996 209.839 520.309 210.308C520.621 210.776 520.788 211.326 520.788 211.889C520.787 212.264 520.712 212.635 520.568 212.981C520.423 213.328 520.212 213.642 519.946 213.906C519.681 214.171 519.365 214.381 519.018 214.523C518.671 214.666 518.3 214.739 517.925 214.738Z" fill="white"/>
</g>
<g id="Artboard 1 9">
<path id="Vector_9" d="M933 179.771C936.81 179.77 940.535 180.9 943.702 183.019C946.868 185.138 949.334 188.15 950.786 191.673C952.238 195.195 952.611 199.07 951.857 202.805C951.103 206.539 949.257 209.966 946.552 212.65C943.848 215.333 940.407 217.153 936.666 217.878C932.926 218.603 929.054 218.201 925.543 216.721C922.032 215.242 919.039 212.754 916.945 209.571C914.85 206.388 913.749 202.655 913.779 198.845C913.829 193.776 915.875 188.931 919.473 185.361C923.071 181.79 927.931 179.782 933 179.771ZM933.041 182.346C929.743 182.337 926.517 183.306 923.77 185.131C921.023 186.956 918.88 189.556 917.611 192.6C916.343 195.644 916.006 198.996 916.644 202.232C917.282 205.468 918.866 208.441 921.195 210.776C923.525 213.111 926.494 214.702 929.728 215.348C932.962 215.994 936.315 215.666 939.363 214.405C942.41 213.144 945.015 211.007 946.847 208.265C948.679 205.523 949.656 202.298 949.654 199C949.65 194.598 947.904 190.375 944.798 187.255C941.691 184.135 937.477 182.37 933.074 182.346H933.041Z" fill="white"/>
<path id="Vector_10" d="M954.468 194.728L952.877 189.857L958.683 187.955L959.822 187.594C960.774 187.283 960.921 187.127 961.2 186.036L966.44 188.135L963.398 192.957C963.162 192.637 962.819 192.414 962.432 192.328C962.044 192.242 961.639 192.299 961.29 192.49C959.027 193.26 956.78 193.982 954.468 194.728Z" fill="white"/>
<path id="Vector_11" d="M902.594 205.044C902.824 205.354 903.155 205.573 903.53 205.663C903.905 205.753 904.299 205.708 904.644 205.536C906.932 204.765 909.228 204.035 911.532 203.289L913.123 208.152L908.769 209.578C907.949 209.849 907.129 210.144 906.26 210.398C905.871 210.449 905.513 210.638 905.252 210.93C904.99 211.221 904.841 211.597 904.833 211.989L899.568 209.865L902.594 205.044Z" fill="white"/>
<path id="Vector_12" d="M954.468 203.289L959.388 204.863C960.093 205.101 960.815 205.314 961.512 205.569C961.841 205.73 962.219 205.765 962.572 205.666C962.926 205.568 963.231 205.344 963.43 205.036L966.473 209.865L961.184 211.989C961.184 210.94 960.503 210.603 959.675 210.349C957.387 209.66 955.14 208.89 952.877 208.143L954.468 203.289Z" fill="white"/>
<path id="Vector_13" d="M899.561 188.135L904.817 186.027C904.891 187.061 905.547 187.405 906.375 187.667C908.392 188.274 910.385 188.947 912.385 189.603C912.631 189.685 912.877 189.791 913.115 189.881L911.533 194.711L907.67 193.473C906.662 193.145 905.637 192.833 904.636 192.473C904.297 192.288 903.901 192.235 903.525 192.326C903.149 192.417 902.82 192.645 902.603 192.965L899.561 188.135Z" fill="white"/>
<path id="Vector_14" d="M917.855 171.94C917.629 172.257 917.523 172.643 917.556 173.031C917.589 173.419 917.759 173.782 918.035 174.056C919.478 175.999 920.889 177.967 922.299 179.91L918.158 182.936C916.731 180.968 915.28 178.992 913.861 176.999C913.687 176.665 913.403 176.4 913.056 176.251C912.709 176.102 912.322 176.076 911.959 176.179L912.336 170.521L917.855 171.94Z" fill="white"/>
<path id="Vector_15" d="M911.959 221.78C912.322 221.893 912.713 221.872 913.062 221.722C913.411 221.572 913.694 221.301 913.861 220.96C915.28 218.967 916.731 216.991 918.158 215.031L922.34 218.09C920.93 220.033 919.519 222.009 918.076 223.953C917.795 224.22 917.617 224.579 917.575 224.964C917.533 225.35 917.629 225.739 917.847 226.06L912.344 227.454L911.959 221.78Z" fill="white"/>
<path id="Vector_16" d="M930.434 177.279V173.58C930.434 172.4 930.434 171.227 930.434 170.054C930.502 169.671 930.432 169.275 930.235 168.938C930.038 168.602 929.728 168.346 929.359 168.218L933 163.839L936.657 168.209C935.6 168.546 935.55 169.341 935.559 170.218C935.559 172.564 935.559 174.909 935.559 177.279H930.434Z" fill="white"/>
<path id="Vector_17" d="M947.842 182.928L943.742 179.911L947.432 174.835C947.637 174.548 947.826 174.261 948.047 174.015C948.32 173.745 948.483 173.382 948.502 172.998C948.522 172.615 948.398 172.237 948.154 171.94L953.664 170.555C953.787 172.482 953.91 174.31 954.041 176.213C953.673 176.099 953.276 176.119 952.92 176.269C952.565 176.419 952.274 176.689 952.098 177.033C950.696 179.033 949.253 180.96 947.842 182.928Z" fill="white"/>
<path id="Vector_18" d="M936.633 229.807L933 234.161L929.351 229.791C930.54 229.438 930.442 228.503 930.442 227.585C930.442 225.297 930.442 223.009 930.442 220.722H935.567V221.542C935.567 223.657 935.567 225.765 935.567 227.872C935.534 228.708 935.657 229.438 936.633 229.807Z" fill="white"/>
<path id="Vector_19" d="M948.129 226.06C948.36 225.769 948.477 225.404 948.459 225.033C948.441 224.662 948.289 224.31 948.031 224.043C946.571 222.075 945.144 220.082 943.701 218.098L947.801 215.08C949.236 217.048 950.704 219.041 952.139 221.05C952.314 221.371 952.596 221.62 952.936 221.755C953.276 221.89 953.653 221.901 954 221.788C953.877 223.665 953.763 225.494 953.631 227.446L948.129 226.06Z" fill="white"/>
<path id="Vector_20" d="M933.041 213.096C930.254 213.104 927.527 212.286 925.205 210.745C922.883 209.204 921.07 207.009 919.995 204.438C918.92 201.867 918.631 199.035 919.165 196.299C919.699 193.564 921.032 191.049 922.995 189.071C924.958 187.093 927.464 185.741 930.195 185.186C932.926 184.632 935.76 184.899 938.339 185.955C940.919 187.01 943.127 188.807 944.685 191.117C946.244 193.427 947.083 196.148 947.096 198.934C947.103 200.787 946.746 202.623 946.043 204.338C945.341 206.053 944.308 207.612 943.003 208.927C941.697 210.242 940.146 211.287 938.436 212.003C936.727 212.718 934.894 213.089 933.041 213.096ZM924.472 198.697C924.472 200.082 924.472 201.476 924.472 202.862C924.454 203.154 924.522 203.445 924.668 203.699C924.813 203.953 925.03 204.158 925.292 204.289C927.654 205.639 930.007 207.006 932.352 208.389C932.609 208.558 932.91 208.648 933.217 208.648C933.525 208.648 933.825 208.558 934.082 208.389C936.411 207.036 938.74 205.683 941.077 204.355C941.377 204.215 941.628 203.987 941.796 203.701C941.965 203.416 942.043 203.086 942.02 202.756C942.02 200.093 942.02 197.426 942.02 194.752C942.044 194.416 941.968 194.08 941.8 193.788C941.632 193.496 941.38 193.26 941.077 193.112C938.737 191.811 936.414 190.494 934.107 189.16C933.839 188.984 933.526 188.89 933.205 188.89C932.884 188.89 932.571 188.984 932.303 189.16C929.985 190.521 927.656 191.866 925.317 193.194C925.047 193.336 924.825 193.554 924.679 193.821C924.533 194.088 924.47 194.392 924.497 194.695C924.488 196.032 924.472 197.36 924.472 198.697Z" fill="white"/>
<path id="Vector_21" d="M938.15 194.441C936.51 195.442 934.87 196.393 933.287 197.336C933.216 197.366 933.139 197.381 933.061 197.381C932.984 197.381 932.907 197.366 932.836 197.336C931.327 196.401 929.827 195.45 928.228 194.449C929.868 193.498 931.385 192.613 932.918 191.76C933.018 191.713 933.127 191.689 933.238 191.689C933.348 191.689 933.457 191.713 933.558 191.76C935.066 192.654 936.559 193.523 938.15 194.441Z" fill="white"/>
<path id="Vector_22" d="M934.304 205.011C934.304 203.42 934.304 201.821 934.304 200.23C934.304 200.017 934.369 199.705 934.517 199.615C936.091 198.647 937.69 197.704 939.437 196.688C939.437 198.574 939.437 200.32 939.437 202.067C939.43 202.141 939.408 202.213 939.371 202.278C939.334 202.343 939.284 202.4 939.224 202.444C937.69 203.346 936.157 204.223 934.615 205.109L934.304 205.011Z" fill="white"/>
<path id="Vector_23" d="M927.039 196.762C928.613 197.754 930.032 198.631 931.442 199.542C931.52 199.603 931.585 199.68 931.633 199.767C931.681 199.855 931.711 199.951 931.721 200.05C931.721 201.69 931.721 203.33 931.721 205.019L930.442 204.298C929.449 203.724 928.449 203.158 927.473 202.559C927.366 202.498 927.273 202.416 927.199 202.317C927.126 202.218 927.074 202.105 927.047 201.985C927.022 200.304 927.039 198.623 927.039 196.762Z" fill="white"/>
</g>
<g id="Artboard 1 copy 14">
<path id="Vector_24" d="M84.6291 221.2C83.675 222.914 83.05 224.792 82.7865 226.735C83.4155 226.735 83.9853 226.735 84.5477 226.735C85.4727 226.735 86.0277 227.172 85.9833 227.89C85.9389 228.608 85.4579 229.037 84.5033 229.044C82.6977 229.044 80.8921 229.044 79.0865 229.044H65.1375H64.3013C64.3013 227.52 64.3013 226.084 64.3013 224.604C64.3013 224.464 64.5899 224.264 64.7823 224.19C66.3289 223.576 67.8681 222.969 69.4295 222.392C69.6175 222.336 69.7863 222.229 69.917 222.082C70.0477 221.936 70.1351 221.756 70.1695 221.563C70.8296 218.923 71.8743 216.395 73.2701 214.059C73.3924 213.886 73.4636 213.681 73.4754 213.469C73.4871 213.257 73.4391 213.046 73.3367 212.86C72.6485 211.38 72.0121 209.9 71.3239 208.42C71.2367 208.269 71.2059 208.091 71.2371 207.919C71.2682 207.747 71.3593 207.592 71.4941 207.481C73.4674 205.537 75.4259 203.564 77.3697 201.561C77.4708 201.432 77.6162 201.345 77.7777 201.318C77.9391 201.291 78.105 201.324 78.2429 201.413C79.7229 202.108 81.2769 202.759 82.7865 203.448C82.9532 203.554 83.1471 203.611 83.3452 203.611C83.5432 203.611 83.7371 203.554 83.9039 203.448C86.2019 202.05 88.6962 201.005 91.3039 200.347C91.5578 200.309 91.7938 200.193 91.9793 200.016C92.1648 199.838 92.2907 199.607 92.3399 199.355C92.8653 197.875 93.4869 196.395 94.0271 194.915C94.065 194.719 94.1765 194.544 94.3388 194.428C94.5011 194.311 94.702 194.26 94.9003 194.286C97.6235 194.286 100.337 194.286 103.04 194.286C103.228 194.26 103.419 194.307 103.573 194.417C103.727 194.527 103.833 194.692 103.869 194.878C104.439 196.44 105.031 197.986 105.667 199.526C105.741 199.677 105.844 199.813 105.971 199.924C106.098 200.034 106.247 200.118 106.407 200.169C109.105 200.903 111.697 201.983 114.118 203.381C114.262 203.454 114.42 203.497 114.582 203.507C114.743 203.518 114.905 203.495 115.058 203.44C116.612 202.789 118.144 202.101 119.675 201.398C119.819 201.299 119.995 201.26 120.167 201.287C120.34 201.315 120.495 201.407 120.6 201.546C122.529 203.519 124.473 205.46 126.432 207.37C126.584 207.483 126.686 207.651 126.718 207.839C126.75 208.026 126.708 208.218 126.602 208.376C125.906 209.856 125.225 211.395 124.596 212.927C124.537 213.084 124.511 213.252 124.519 213.42C124.526 213.588 124.568 213.752 124.641 213.904C126.04 216.288 127.099 218.856 127.786 221.533C127.821 221.721 127.91 221.895 128.041 222.034C128.172 222.173 128.34 222.271 128.526 222.318C130.087 222.88 131.626 223.509 133.18 224.086C133.346 224.122 133.492 224.217 133.592 224.353C133.691 224.49 133.737 224.658 133.721 224.826C133.721 226.173 133.721 227.52 133.721 228.918C133.402 228.918 133.143 228.918 132.884 228.918H113.881C113.618 228.937 113.353 228.937 113.089 228.918C112.789 228.912 112.504 228.786 112.296 228.568C112.089 228.351 111.976 228.061 111.983 227.76C111.99 227.46 112.116 227.175 112.333 226.967C112.55 226.76 112.841 226.647 113.141 226.654C113.474 226.654 113.815 226.654 114.148 226.654H115.221C114.943 224.738 114.315 222.89 113.371 221.2L111.683 222.155C110.943 222.569 110.27 222.458 109.915 221.866C109.56 221.274 109.774 220.601 110.551 220.142L112.105 219.232C110.946 217.655 109.515 216.296 107.88 215.221C107.525 215.82 107.206 216.383 106.873 216.938C106.808 217.089 106.71 217.224 106.588 217.334C106.466 217.445 106.322 217.528 106.165 217.578C106.008 217.629 105.843 217.645 105.679 217.627C105.516 217.609 105.358 217.556 105.216 217.472C105.075 217.388 104.952 217.274 104.858 217.14C104.763 217.005 104.699 216.852 104.668 216.69C104.637 216.528 104.641 216.362 104.679 216.202C104.718 216.042 104.789 215.891 104.89 215.761C105.186 215.214 105.504 214.681 105.919 213.941L100.176 212.461C100.176 213.319 100.176 213.941 100.176 214.548C100.176 215.413 99.7547 215.909 99.0369 215.917C98.3191 215.924 97.8825 215.436 97.8677 214.57C97.8677 213.97 97.8677 213.371 97.8677 212.69C95.9112 212.786 93.9917 213.259 92.2141 214.081C92.5545 214.673 92.8801 215.228 93.1835 215.791C93.2814 215.923 93.3501 216.074 93.3852 216.235C93.4203 216.396 93.4208 216.562 93.3869 216.723C93.3529 216.884 93.2852 217.035 93.1882 217.168C93.0911 217.301 92.9671 217.412 92.8241 217.493C92.6812 217.574 92.5226 217.624 92.3589 217.639C92.1952 217.655 92.0301 217.635 91.8745 217.582C91.7189 217.529 91.5764 217.443 91.4563 217.331C91.3363 217.219 91.2414 217.082 91.1781 216.93C90.8451 216.375 90.5269 215.813 90.0829 215.058L85.7539 219.076C86.4939 219.498 87.0045 219.816 87.5225 220.12C88.2625 220.564 88.4771 221.2 88.1293 221.807C88.0412 221.951 87.9234 222.076 87.7837 222.171C87.644 222.266 87.4855 222.331 87.3189 222.36C87.1523 222.39 86.9813 222.383 86.8174 222.342C86.6534 222.3 86.5002 222.223 86.3681 222.118C85.7761 221.822 85.2211 221.496 84.6291 221.2Z" fill="white"/>
<path id="Vector_25" d="M125.174 202.848C123.812 201.479 122.562 200.287 121.392 199.029C121.313 198.908 121.211 198.803 121.09 198.723C120.97 198.642 120.834 198.586 120.692 198.559C120.549 198.532 120.403 198.534 120.261 198.566C120.12 198.597 119.986 198.656 119.868 198.741C118.721 199.325 117.515 199.806 116.227 200.376V176.97H113.437C113.174 177 112.909 177 112.646 176.97C112.335 176.896 111.906 176.815 111.802 176.6C111.698 176.385 111.869 175.964 112.054 175.734C113.149 174.387 114.274 173.078 115.406 171.76C116.915 169.974 118.427 168.201 119.942 166.44C120.578 165.7 120.808 165.7 121.422 166.44C124.042 169.518 126.669 172.597 129.266 175.697C129.38 175.833 129.466 175.992 129.517 176.162C129.568 176.333 129.583 176.512 129.562 176.689C129.503 176.881 128.963 177.007 128.637 177.014C127.512 177.059 126.417 177.014 125.181 177.014L125.174 202.848Z" fill="white"/>
<path id="Vector_26" d="M81.7949 191.756V200.354C81.4841 200.236 81.2547 200.147 81.0549 200.051C80.0189 199.592 78.9681 199.163 77.9617 198.66C77.7788 198.533 77.5534 198.484 77.3345 198.523C77.1155 198.562 76.9207 198.685 76.7925 198.867C75.5493 200.169 74.2617 201.42 72.8705 202.819V191.756C71.6791 191.756 70.5543 191.756 69.4369 191.756C69.0774 191.699 68.7283 191.589 68.4009 191.43C68.4801 191.058 68.6175 190.701 68.8079 190.372C71.3757 187.308 73.9879 184.267 76.5557 181.218C77.2143 180.478 77.4289 180.478 78.0727 181.218C80.6775 184.282 83.2527 187.345 85.8649 190.431C86.0502 190.738 86.1781 191.077 86.2423 191.43C85.9188 191.587 85.5751 191.699 85.2211 191.763C84.0963 191.785 82.9863 191.756 81.7949 191.756Z" fill="white"/>
<path id="Vector_27" d="M94.5602 184.37C93.3022 184.37 92.1552 184.37 91.0008 184.37C90.7048 184.37 90.2164 184.215 90.1572 184.03C90.1351 183.864 90.1473 183.696 90.1932 183.536C90.239 183.375 90.3174 183.226 90.4236 183.097C93.0432 179.974 95.6776 176.881 98.312 173.781C98.9114 173.041 99.1482 173.041 99.7402 173.781C102.389 176.898 105.034 180.021 107.673 183.149C107.766 183.266 107.833 183.403 107.869 183.548C107.904 183.694 107.908 183.845 107.88 183.993C107.772 184.108 107.641 184.199 107.496 184.261C107.351 184.324 107.194 184.356 107.037 184.355C105.89 184.392 104.735 184.355 103.499 184.355V191.925H94.5602V184.37Z" fill="white"/>
<path id="Vector_28" d="M99.1259 226.454C99.2073 226.454 99.4145 226.454 99.5329 226.505C100.354 227.075 101.013 226.505 101.627 226.15L106.304 223.42C107.11 222.953 107.784 223.057 108.124 223.693C108.465 224.33 108.25 224.951 107.466 225.41C105.697 226.439 103.936 227.46 102.152 228.466C101.975 228.552 101.821 228.681 101.706 228.841C101.591 229.001 101.518 229.188 101.494 229.384C101.42 230.006 101.112 230.578 100.632 230.982C100.153 231.385 99.5374 231.592 98.9113 231.56C98.577 231.545 98.2487 231.466 97.9453 231.325C97.6418 231.184 97.3691 230.984 97.1427 230.738C96.9163 230.492 96.7406 230.203 96.6257 229.889C96.5108 229.575 96.4589 229.241 96.473 228.907C96.4871 228.572 96.5669 228.244 96.7078 227.941C96.8487 227.637 97.0481 227.364 97.2944 227.138C97.5408 226.912 97.8293 226.736 98.1435 226.621C98.4578 226.506 98.7916 226.454 99.1259 226.468V226.454Z" fill="white"/>
</g>
<g id="Artboard 1 copy 3 6" clip-path="url(#clip0_2529_4666)">
<path id="Vector_29" d="M311.439 232.959C310.172 232.693 308.877 232.504 307.631 232.161C304.041 231.096 300.841 229.005 298.426 226.144C296.01 223.283 294.485 219.778 294.037 216.061C293.568 211.861 294.667 207.955 296.389 204.161C299.016 198.695 302.367 193.607 306.35 189.034C308.345 186.647 310.487 184.386 312.566 182.076C312.699 181.929 312.846 181.803 313.021 181.635C313.161 181.768 313.287 181.873 313.399 181.999C318.82 187.511 323.567 193.649 327.539 200.283C329.38 203.454 331.039 206.737 331.69 210.37C333.027 217.419 330.843 223.348 325.6 228.15C322.657 230.854 318.9 232.506 314.918 232.847C314.791 232.871 314.666 232.909 314.547 232.959H311.439ZM307.526 216.117C307.54 217.128 307.835 218.116 308.379 218.969C308.923 219.823 309.694 220.507 310.606 220.947C310.756 221.001 310.882 221.105 310.965 221.241C311.048 221.377 311.082 221.538 311.061 221.696C311.061 222.599 311.061 223.502 311.061 224.412H314.974C314.974 223.53 314.974 222.683 314.974 221.843C314.942 221.646 314.98 221.443 315.081 221.271C315.182 221.099 315.339 220.967 315.527 220.898C316.456 220.45 317.232 219.735 317.754 218.845C318.276 217.955 318.522 216.93 318.46 215.9C318.466 214.866 318.161 213.854 317.584 212.997C317.007 212.139 316.186 211.475 315.226 211.091C314.513 210.819 313.762 210.659 313 210.615C312.606 210.6 312.231 210.444 311.943 210.176C311.655 209.907 311.474 209.543 311.432 209.152C311.412 208.762 311.536 208.379 311.78 208.075C312.024 207.771 312.371 207.566 312.755 207.5C313.135 207.441 313.523 207.525 313.846 207.734C314.168 207.943 314.403 208.263 314.505 208.634C314.547 208.76 314.582 208.879 314.624 209.033H318.453C318.465 208.024 318.192 207.032 317.664 206.173C317.136 205.313 316.376 204.62 315.471 204.175C315.301 204.116 315.157 204 315.064 203.847C314.97 203.694 314.934 203.512 314.96 203.335C314.995 202.453 314.96 201.571 314.96 200.668H311.054C311.054 201.613 311.054 202.481 311.054 203.342C311.079 203.519 311.041 203.7 310.946 203.853C310.852 204.005 310.706 204.119 310.536 204.175C309.525 204.677 308.697 205.483 308.168 206.48C307.638 207.477 307.433 208.614 307.582 209.733C307.752 211.05 308.396 212.26 309.393 213.137C310.39 214.014 311.672 214.499 313 214.5C313.381 214.492 313.751 214.626 314.039 214.876C314.327 215.126 314.511 215.475 314.555 215.853C314.6 216.232 314.502 216.613 314.28 216.923C314.059 217.234 313.729 217.45 313.357 217.531C312.983 217.626 312.587 217.576 312.249 217.39C311.911 217.204 311.656 216.897 311.537 216.53C311.474 216.376 311.425 216.222 311.376 216.089L307.526 216.117Z" fill="white"/>
<path id="Vector_30" d="M292.791 166.081C293.806 167.173 294.849 168.244 295.85 169.357C298.492 172.118 300.625 175.324 302.15 178.828C303.844 183.028 303.389 186.997 300.232 190.399C298.648 192.088 296.542 193.195 294.253 193.543C291.964 193.89 289.624 193.457 287.61 192.314C285.597 191.171 284.027 189.383 283.152 187.239C282.277 185.095 282.149 182.72 282.788 180.494C283.282 178.877 283.951 177.318 284.783 175.846C286.952 172.211 289.651 168.92 292.791 166.081Z" fill="white"/>
<path id="Vector_31" d="M333.349 166.102C337.178 170.036 340.916 174.047 342.876 179.325C344.927 184.862 342.596 190.483 337.367 192.793C335.91 193.409 334.332 193.684 332.753 193.598C331.173 193.511 329.634 193.066 328.253 192.295C326.872 191.524 325.685 190.448 324.782 189.149C323.88 187.85 323.286 186.362 323.045 184.799C322.764 182.275 323.252 179.725 324.445 177.484C326.245 173.97 328.596 170.768 331.41 167.999C332.026 167.362 332.684 166.753 333.349 166.102Z" fill="white"/>
</g>
<g id="Artboard 1 copy 2 9">
<path id="Vector_32" d="M731.099 197.651C731.104 201.09 730.089 204.453 728.183 207.315C726.277 210.177 723.565 212.411 720.39 213.732C717.215 215.054 713.72 215.405 710.346 214.741C706.972 214.077 703.87 212.427 701.433 210.001C698.996 207.575 697.333 204.481 696.654 201.11C695.974 197.739 696.31 194.242 697.617 191.061C698.925 187.88 701.146 185.159 703.999 183.24C706.853 181.321 710.212 180.291 713.65 180.28C718.265 180.278 722.693 182.105 725.963 185.361C729.234 188.617 731.08 193.036 731.099 197.651ZM705.991 194.741C705.991 193.306 705.991 191.965 705.991 190.631C706.005 190.277 706.062 189.926 706.162 189.586C706.491 188.307 707.267 187.188 708.35 186.433C709.433 185.678 710.751 185.336 712.064 185.47C713.377 185.605 714.599 186.205 715.507 187.164C716.415 188.122 716.949 189.375 717.012 190.693C717.012 191.473 717.363 191.84 717.894 191.824C718.424 191.809 718.744 191.395 718.674 190.654C718.616 189.011 717.984 187.441 716.887 186.216C715.934 185.132 714.678 184.359 713.281 183.997C711.884 183.634 710.41 183.699 709.051 184.183C707.691 184.667 706.507 185.547 705.653 186.71C704.799 187.874 704.314 189.267 704.259 190.709C704.212 192.027 704.259 193.345 704.259 194.671L703.947 194.765C702.091 195.139 701.272 196.122 701.272 198.002C701.272 200.571 701.272 203.142 701.272 205.716C701.239 206.134 701.297 206.554 701.442 206.948C701.587 207.341 701.816 207.699 702.113 207.995C702.409 208.292 702.767 208.52 703.16 208.666C703.554 208.811 703.974 208.869 704.392 208.836H718.588C719.007 208.872 719.428 208.815 719.823 208.671C720.217 208.527 720.576 208.298 720.873 208.001C721.17 207.704 721.399 207.346 721.543 206.951C721.687 206.556 721.743 206.135 721.708 205.716V197.994C721.708 195.896 720.569 194.749 718.471 194.741C716.373 194.734 714.508 194.741 712.527 194.741H705.991ZM724.937 196.301C725.14 196.13 725.569 195.943 725.623 195.685C725.678 195.428 725.506 194.78 725.28 194.695C724.22 194.275 723.13 193.933 722.02 193.673C721.848 193.685 721.681 193.741 721.538 193.837C721.394 193.933 721.278 194.064 721.201 194.219C721.176 194.4 721.197 194.584 721.263 194.754C721.328 194.925 721.436 195.076 721.575 195.194C722.581 195.607 723.681 195.88 724.937 196.278V196.301ZM719.563 188.665C719.758 188.923 719.898 189.281 720.124 189.352C720.283 189.398 720.45 189.411 720.613 189.39C720.777 189.368 720.935 189.313 721.076 189.227C721.856 188.618 722.503 187.932 723.198 187.261C723.689 186.785 723.751 186.263 723.361 185.904C723.273 185.816 723.167 185.748 723.05 185.705C722.932 185.661 722.807 185.644 722.683 185.654C722.558 185.663 722.438 185.7 722.328 185.76C722.219 185.821 722.125 185.905 722.051 186.005C721.365 186.661 720.678 187.292 720.007 187.955C719.837 188.169 719.688 188.399 719.563 188.642V188.665ZM721.755 192.323C723.042 192.004 724.173 191.762 725.272 191.411C725.416 191.315 725.531 191.183 725.608 191.028C725.685 190.874 725.719 190.702 725.709 190.529C725.616 190.233 725.132 189.835 724.882 189.874C723.766 190.047 722.666 190.308 721.591 190.654C721.349 190.732 721.107 191.278 721.131 191.598C721.154 191.918 721.552 192.082 721.755 192.3V192.323Z" fill="white"/>
<path id="Vector_33" d="M727.738 221.511C727.744 219.56 728.329 217.654 729.42 216.036C730.511 214.418 732.058 213.16 733.864 212.423C735.671 211.685 737.656 211.5 739.567 211.892C741.479 212.284 743.231 213.235 744.602 214.624C745.972 216.013 746.899 217.778 747.265 219.695C747.631 221.611 747.42 223.594 746.658 225.39C745.896 227.187 744.617 228.716 742.985 229.785C741.352 230.854 739.439 231.414 737.488 231.394C734.884 231.375 732.395 230.324 730.567 228.471C728.739 226.617 727.721 224.114 727.738 221.511ZM740.896 217.79H731.614C730.577 217.79 730.257 218.258 730.624 219.241C731.193 220.801 731.794 222.361 732.355 223.874C732.427 224.15 732.596 224.389 732.832 224.548C733.067 224.708 733.352 224.776 733.634 224.74C735.616 224.74 737.597 224.74 739.578 224.74C739.86 224.775 740.144 224.7 740.374 224.532C740.603 224.364 740.759 224.115 740.81 223.835C741.247 222.392 741.754 220.973 742.152 219.522C742.409 218.602 742.636 217.868 743.884 218.063C744.531 218.165 744.905 217.354 744.562 216.808C744.219 216.262 741.59 216.23 741.224 216.917C741.176 217.026 741.134 217.138 741.099 217.252C741.037 217.416 740.966 217.588 740.896 217.79ZM735.163 225.77C735.164 225.66 735.141 225.551 735.097 225.45C735.052 225.349 734.987 225.259 734.905 225.186C734.823 225.112 734.727 225.056 734.622 225.023C734.517 224.989 734.407 224.978 734.297 224.99C734.076 224.99 733.864 225.078 733.707 225.234C733.551 225.391 733.463 225.603 733.463 225.824C733.463 226.046 733.551 226.258 733.707 226.415C733.864 226.571 734.076 226.659 734.297 226.659C734.828 226.675 735.124 226.363 735.163 225.77ZM738.837 224.99C738.724 224.982 738.61 225 738.504 225.041C738.399 225.082 738.303 225.145 738.224 225.227C738.146 225.309 738.086 225.407 738.049 225.514C738.012 225.621 737.999 225.735 738.01 225.848C738.009 225.959 738.032 226.068 738.077 226.17C738.122 226.271 738.188 226.362 738.271 226.435C738.353 226.509 738.451 226.564 738.556 226.598C738.662 226.631 738.774 226.641 738.884 226.628C738.994 226.629 739.103 226.606 739.203 226.561C739.304 226.517 739.394 226.452 739.468 226.37C739.542 226.288 739.597 226.192 739.631 226.087C739.665 225.982 739.676 225.871 739.664 225.762C739.661 225.658 739.637 225.555 739.593 225.46C739.55 225.365 739.488 225.279 739.411 225.209C739.333 225.138 739.243 225.084 739.144 225.049C739.046 225.014 738.941 224.999 738.837 225.005V224.99Z" fill="white"/>
<path id="Vector_34" d="M689.681 177.847L698.503 181.349C698.308 182.129 698.058 182.987 697.855 183.899C697.559 185.233 697.309 186.575 697.029 187.909C696.982 188.212 696.898 188.508 696.779 188.79C695.492 191.26 694.752 193.979 694.611 196.762H682.567C682.75 189.837 685.255 183.175 689.681 177.847Z" fill="white"/>
<path id="Vector_35" d="M744.835 196.785H732.94C732.573 195.1 732.23 193.47 731.879 191.848C731.866 191.778 731.846 191.71 731.817 191.645C730.413 188.954 730.046 185.959 729.328 183.065C729.18 182.449 729.001 181.84 728.868 181.341L737.706 177.839C742.134 183.179 744.644 189.85 744.835 196.785Z" fill="white"/>
<path id="Vector_36" d="M689.681 217.478C685.259 212.148 682.754 205.487 682.567 198.563H694.54C694.704 199.624 694.813 200.701 695.063 201.746C695.288 202.816 695.62 203.862 696.054 204.866C696.68 206.259 697.126 207.727 697.38 209.234C697.676 210.848 698.121 212.44 698.487 213.914L689.681 217.478Z" fill="white"/>
<path id="Vector_37" d="M729.04 213.703C729.508 211.465 729.914 209.171 730.483 206.917C730.733 205.903 731.403 204.998 731.692 203.984C732.191 202.229 732.534 200.428 732.971 198.571H744.812C744.717 202.806 743.74 206.974 741.941 210.809C736.988 209.14 732.683 210.1 729.04 213.703Z" fill="white"/>
<path id="Vector_38" d="M712.816 166.622V178.423C711.256 178.751 709.696 179 708.23 179.398C707.244 179.71 706.275 180.075 705.328 180.49C705.105 180.614 704.857 180.683 704.603 180.693C703.355 180.498 702.107 180.256 700.703 179.999C701.264 178.681 701.748 177.44 702.317 176.239C703.512 173.563 705.24 171.159 707.395 169.172C708.662 167.997 710.204 167.157 711.88 166.731C712.086 166.684 712.294 166.648 712.504 166.622C712.608 166.614 712.712 166.614 712.816 166.622Z" fill="white"/>
<path id="Vector_39" d="M700.835 215.31C702.106 215.068 703.331 214.834 704.563 214.624C704.746 214.603 704.931 214.639 705.094 214.725C707.397 215.887 709.913 216.567 712.488 216.722C712.594 216.742 712.699 216.771 712.8 216.808V228.796C712.168 228.64 711.576 228.531 711.006 228.336C708.745 227.461 706.783 225.956 705.351 223.999C703.4 221.476 701.885 218.645 700.866 215.622C700.845 215.52 700.835 215.415 700.835 215.31Z" fill="white"/>
<path id="Vector_40" d="M714.602 228.733V216.831C715.734 216.697 716.859 216.504 717.972 216.253C719.368 215.863 720.717 215.294 722.098 214.826C722.416 214.703 722.757 214.655 723.096 214.686C724.258 214.857 725.436 215.091 726.754 215.341C725.928 217.127 725.194 218.82 724.414 220.434C723.194 222.895 721.447 225.058 719.298 226.768C718.152 227.672 716.82 228.311 715.398 228.64C715.109 228.687 714.883 228.702 714.602 228.733Z" fill="white"/>
<path id="Vector_41" d="M726.645 180.015C725.311 180.256 724.063 180.49 722.815 180.693C722.63 180.714 722.442 180.679 722.277 180.592C719.972 179.442 717.461 178.761 714.891 178.587C714.805 178.587 714.719 178.587 714.594 178.525V166.599C715.709 166.695 716.79 167.033 717.761 167.589C719.711 168.707 721.38 170.254 722.644 172.113C724.358 174.536 725.706 177.199 726.645 180.015Z" fill="white"/>
<path id="Vector_42" d="M720.655 167.363C726.701 168.705 732.197 171.849 736.419 176.38C733.849 177.756 731.126 178.824 728.307 179.562C726.606 174.953 724.453 170.647 720.655 167.363Z" fill="white"/>
<path id="Vector_43" d="M706.763 227.969C700.716 226.623 695.216 223.483 690.984 218.96C693.55 217.576 696.274 216.508 699.096 215.777C700.796 220.387 702.965 224.693 706.763 227.969Z" fill="white"/>
<path id="Vector_44" d="M706.693 167.387C702.949 170.686 700.788 174.945 699.049 179.695L690.82 176.521C695.06 171.934 700.597 168.748 706.693 167.387Z" fill="white"/>
<path id="Vector_45" d="M720.678 228C721.638 226.947 722.659 225.941 723.541 224.826C724.422 223.71 725.163 222.486 725.881 221.378L726.708 226.058L720.686 228.133L720.678 228Z" fill="white"/>
<path id="Vector_46" d="M700.18 213.718L699.275 210.341L702.52 213.227L700.18 213.718Z" fill="white"/>
<path id="Vector_47" d="M727.183 213.726L724.906 213.227L728.096 210.341L727.183 213.726Z" fill="white"/>
<path id="Vector_48" d="M700.18 181.606L702.473 182.098L699.322 184.96L700.18 181.606Z" fill="white"/>
<path id="Vector_49" d="M727.191 181.614L728.088 184.96L724.906 182.098L727.191 181.614Z" fill="white"/>
<path id="Vector_50" d="M711.529 207.166H704.595C703.378 207.166 703.035 206.776 703.035 205.544V197.97C703.035 196.878 703.44 196.41 704.524 196.41H718.564C719.602 196.41 720.007 196.839 720.007 197.892C720.007 200.492 720.007 203.092 720.007 205.692C720.007 206.73 719.586 207.135 718.533 207.143L711.529 207.166ZM711.482 197.65C710.924 197.65 710.382 197.831 709.936 198.166C709.49 198.501 709.165 198.971 709.009 199.507C708.84 200.052 708.861 200.639 709.069 201.171C709.277 201.702 709.661 202.147 710.156 202.432C710.333 202.51 710.479 202.646 710.571 202.817C710.663 202.988 710.695 203.184 710.663 203.376C710.663 203.945 710.663 204.507 710.663 205.076C710.645 205.195 710.655 205.318 710.692 205.433C710.73 205.548 710.793 205.652 710.878 205.739C710.963 205.825 711.066 205.89 711.181 205.929C711.295 205.969 711.417 205.981 711.537 205.965C711.648 205.966 711.759 205.943 711.861 205.898C711.962 205.852 712.053 205.786 712.127 205.702C712.201 205.619 712.256 205.52 712.289 205.413C712.322 205.307 712.331 205.194 712.317 205.084C712.317 204.546 712.317 204 712.317 203.461C712.278 203.248 712.312 203.028 712.414 202.837C712.516 202.646 712.679 202.495 712.878 202.408C713.365 202.109 713.736 201.655 713.933 201.118C714.13 200.582 714.14 199.995 713.962 199.452C713.794 198.928 713.462 198.47 713.016 198.146C712.571 197.822 712.033 197.649 711.482 197.65Z" fill="white"/>
<path id="Vector_51" d="M740.373 219.521C740.03 220.613 739.718 221.674 739.359 222.712C739.3 222.799 739.221 222.871 739.129 222.923C739.037 222.974 738.934 223.003 738.829 223.008C737.323 223.008 735.81 223.008 734.305 223.008C734.125 223.008 733.845 222.907 733.79 222.782C733.361 221.721 733.01 220.645 732.55 219.514L740.373 219.521Z" fill="white"/>
<path id="Vector_52" d="M711.467 199.351C712.036 199.351 712.371 199.663 712.387 200.216C712.401 200.338 712.39 200.461 712.354 200.578C712.318 200.695 712.258 200.804 712.178 200.896C712.098 200.989 711.999 201.064 711.888 201.116C711.778 201.168 711.657 201.197 711.535 201.2C711.413 201.204 711.291 201.181 711.178 201.135C711.064 201.089 710.962 201.019 710.877 200.931C710.792 200.843 710.726 200.738 710.684 200.623C710.642 200.508 710.624 200.385 710.632 200.263C710.62 200.147 710.632 200.03 710.669 199.919C710.706 199.808 710.765 199.706 710.844 199.619C710.923 199.533 711.019 199.465 711.127 199.418C711.234 199.372 711.35 199.349 711.467 199.351Z" fill="white"/>
</g>
</g>
<defs>
<linearGradient id="paint0_linear_2529_4666" x1="419.142" y1="361.909" x2="419.096" y2="35.6483" gradientUnits="userSpaceOnUse">
<stop offset="0.146069" stop-color="#18C8FF"/>
<stop offset="0.653246" stop-color="#C608FF"/>
</linearGradient>
<clipPath id="clip0_2529_4666">
<rect width="70" height="70" fill="white" transform="translate(278 162)"/>
</clipPath>
</defs>
</svg>
