<svg width="75" height="75" viewBox="0 0 75 75" fill="none" xmlns="http://www.w3.org/2000/svg">
<g id="Artboard 1 5">
<path id="Vector" d="M20.6774 36.51C20.6774 34.1625 20.4974 31.8 20.7149 29.475C21.1446 25.3385 23.092 21.5079 26.1809 18.7233C29.2698 15.9386 33.2811 14.3975 37.4399 14.3975C41.5987 14.3975 45.61 15.9386 48.6989 18.7233C51.7878 21.5079 53.7352 25.3385 54.1649 29.475C54.3024 31.3567 54.3425 33.2442 54.2849 35.1301C54.2849 37.98 54.3749 40.8451 54.1424 43.68C53.5499 50.8726 47.6099 57.18 40.4774 58.3651C36.137 59.1584 31.6587 58.2123 28.01 55.7312C24.3614 53.2501 21.8352 49.4332 20.9774 45.105C20.7242 43.4373 20.6063 41.7518 20.6249 40.065C20.5724 38.88 20.6249 37.695 20.6249 36.51H20.6774Z" fill="white"/>
<path id="Vector_2" d="M12.4873 27.0372C13.4749 21.2888 16.4151 16.057 20.8119 12.2245C25.2087 8.392 30.7929 6.19343 36.6223 5.99974C42.7383 5.74581 48.7299 7.77775 53.4298 11.6997C58.1591 15.5498 61.3282 20.9872 62.3473 26.9997C63.17 27.0192 63.9911 27.0818 64.8073 27.1872C65.9632 27.4046 67.0098 28.0114 67.7726 28.9066C68.5355 29.8019 68.9686 30.9315 68.9998 32.1072C68.9998 35.7522 69.0448 39.3972 68.9998 43.0422C68.9503 44.3587 68.4077 45.6085 67.4796 46.5435C66.5515 47.4785 65.3059 48.0304 63.9898 48.0897C63.4648 48.0897 62.9323 48.0897 62.3698 48.0897C62.1373 49.0122 61.9423 49.9272 61.6873 50.8197C60.3171 55.6271 57.5522 59.9202 53.7421 63.1562C49.9321 66.3922 45.248 68.4258 40.2823 68.9997C39.4123 69.0972 38.5348 69.1347 37.6573 69.1497C37.3713 69.1715 37.084 69.1347 36.8128 69.0415C36.5416 68.9484 36.2922 68.8009 36.08 68.608C35.8678 68.4152 35.6971 68.181 35.5785 67.92C35.4599 67.6589 35.3959 67.3763 35.3903 67.0896C35.3846 66.8029 35.4376 66.5181 35.5459 66.2526C35.6541 65.987 35.8155 65.7464 36.02 65.5454C36.2245 65.3443 36.4678 65.1872 36.7352 65.0835C37.0025 64.9798 37.2882 64.9317 37.5748 64.9422C40.5935 64.942 43.5757 64.2813 46.312 63.0064C49.0484 61.7315 51.4727 59.8733 53.4148 57.5622C56.6412 53.9313 58.4471 49.2568 58.4998 44.3997C58.5823 39.8622 58.5673 35.3172 58.4998 30.7722C58.3838 25.6035 56.3705 20.6579 52.8435 16.8777C49.3165 13.0975 44.5222 10.7468 39.3739 10.2732C34.2255 9.79974 29.0829 11.2366 24.9255 14.31C20.7682 17.3835 17.8866 21.8788 16.8298 26.9397C16.5327 28.4213 16.3845 29.9287 16.3873 31.4397C16.3348 36.1572 16.3873 40.8747 16.3873 45.5997C16.3873 47.3097 15.6373 48.1047 13.8973 48.0897C12.6168 48.1515 11.3335 48.1214 10.0573 47.9997C8.88789 47.7983 7.826 47.1936 7.05602 46.2907C6.28604 45.3878 5.8566 44.2438 5.84228 43.0572C5.79728 39.4122 5.78978 35.7672 5.84228 32.1222C5.89189 30.8045 6.43556 29.5537 7.3652 28.6185C8.29485 27.6833 9.54238 27.1322 10.8598 27.0747C11.3848 26.9997 11.9173 27.0372 12.4873 27.0372Z" fill="white"/>
</g>
</svg>
