<svg width="63" height="63" viewBox="0 0 63 63" fill="none" xmlns="http://www.w3.org/2000/svg">
<g id="Artboard 1 copy 2 7">
<path id="Vector" d="M33.05 0.03125C34.31 0.83135 35.57 1.65035 36.8804 2.44415L56.6498 14.5591C56.7821 14.6347 56.9018 14.7291 57.0845 14.8489C56.8703 14.9875 56.7065 15.1009 56.5301 15.1954C54.1046 16.5499 51.6602 17.8918 49.2536 19.2526C49.1208 19.343 48.9639 19.3914 48.8032 19.3914C48.6425 19.3914 48.4855 19.343 48.3527 19.2526C46.5257 18.2194 44.6924 17.2051 42.8528 16.1908C42.7467 16.1072 42.6239 16.0475 42.4926 16.0158C42.3614 15.9841 42.2248 15.981 42.0923 16.0069C41.9597 16.0327 41.8343 16.0869 41.7246 16.1656C41.6149 16.2444 41.5235 16.3459 41.4566 16.4632C41.3897 16.5805 41.3489 16.7108 41.337 16.8453C41.3251 16.9798 41.3423 17.1153 41.3875 17.2426C41.4328 17.3698 41.5049 17.4858 41.599 17.5826C41.6932 17.6794 41.8071 17.7548 41.933 17.8036C43.6592 18.7738 45.3791 19.7502 47.1305 20.6763C47.3775 20.7735 47.5851 20.9501 47.7209 21.1781C47.8566 21.4062 47.9126 21.6729 47.8802 21.9363C47.8508 27.3165 47.8508 32.701 47.8802 38.0896C47.9012 38.2759 47.8609 38.464 47.7654 38.6254C47.6699 38.7869 47.5244 38.9128 47.351 38.9841C42.3824 41.7141 37.4243 44.4693 32.4767 47.2497C32.3333 47.3492 32.163 47.4025 31.9885 47.4025C31.814 47.4025 31.6436 47.3492 31.5002 47.2497C26.5358 44.4777 21.563 41.7141 16.5818 38.959C16.4249 38.8953 16.293 38.782 16.2066 38.6364C16.1201 38.4908 16.0837 38.3208 16.103 38.1525C16.103 36.4263 16.103 34.6939 16.103 32.9613C16.103 32.2179 15.7691 31.7958 15.1958 31.7769C14.6225 31.758 14.2445 32.1991 14.2382 32.9739C14.2382 34.7253 14.2382 36.4767 14.2382 38.2281C14.2432 38.3474 14.2208 38.4661 14.1727 38.5753C14.1247 38.6845 14.0523 38.7813 13.961 38.8582C11.3402 40.3198 8.69422 41.7687 6.04192 43.2366C5.99586 43.2417 5.94938 43.2417 5.90332 43.2366V16.4616C6.74752 16.9279 7.54762 17.3626 8.33512 17.8036C10.1558 18.8116 11.9639 19.8384 13.7909 20.8212C13.9554 20.8923 14.0923 21.0149 14.181 21.1706C14.2696 21.3263 14.3052 21.5066 14.2823 21.6843C14.2823 23.3979 14.2823 25.1052 14.2823 26.8188C14.2823 27.5938 14.6414 28.0348 15.2399 28.0159C15.8384 27.997 16.1471 27.5812 16.1471 26.8314C16.1471 25.0863 16.1471 23.3349 16.1471 21.5835C16.1316 21.4337 16.1649 21.2828 16.2421 21.1534C16.3193 21.0239 16.4363 20.9229 16.5755 20.8653C21.5903 18.0933 26.5967 15.3109 31.5947 12.5179C31.7204 12.4333 31.8685 12.3882 32.02 12.3882C32.1715 12.3882 32.3195 12.4333 32.4452 12.5179C34.2029 13.5133 35.9732 14.4897 37.7372 15.4662C37.8845 15.5609 38.0407 15.6411 38.2034 15.7057C38.4093 15.8015 38.6446 15.8131 38.8589 15.7377C39.0732 15.6623 39.2495 15.5061 39.35 15.3025C39.412 15.2084 39.4547 15.1029 39.4756 14.9922C39.4964 14.8815 39.4951 14.7678 39.4717 14.6576C39.4482 14.5474 39.4031 14.4429 39.339 14.3503C39.2748 14.2577 39.1929 14.1787 39.098 14.1181C38.9421 13.9999 38.7754 13.8966 38.6003 13.8094C36.8867 12.8581 35.1794 11.9194 33.4532 10.9681C33.2868 10.9016 33.1469 10.7824 33.0547 10.6288C32.9625 10.4752 32.9233 10.2956 32.9429 10.1175C32.9429 6.75335 32.9429 3.38915 32.9429 0.03755L33.05 0.03125ZM28.7345 23.776C28.7345 24.8092 28.7345 25.8361 28.7345 26.8693C28.7345 27.6757 29.0684 28.0159 29.8559 28.0222C31.2923 28.0222 32.735 28.0222 34.1714 28.0222C34.9274 28.0222 35.2613 27.6694 35.2676 26.9008C35.2676 24.8407 35.2676 22.7806 35.2676 20.7204C35.2676 19.9645 34.9211 19.6306 34.1525 19.6243H29.8307C29.0747 19.6243 28.7408 19.9771 28.7345 20.7457C28.7282 21.7537 28.7345 22.768 28.7345 23.776ZM21.7352 35.0215C21.7352 36.0546 21.7352 37.0816 21.7352 38.1147C21.7352 38.8708 22.0817 39.2173 22.844 39.2173H27.1595C27.9218 39.2173 28.262 38.8708 28.2683 38.1085C28.2683 36.0462 28.2683 33.9861 28.2683 31.9282C28.2683 31.1658 27.9218 30.8257 27.1595 30.8257H22.844C22.0817 30.8257 21.7415 31.1658 21.7352 31.9282C21.7289 32.9613 21.7352 34.0197 21.7352 35.0215ZM35.7338 34.9647C35.7338 36.0168 35.7338 37.069 35.7338 38.1147C35.7338 38.877 36.0803 39.2173 36.8489 39.2173H41.1644C41.9204 39.2173 42.2606 38.8708 42.2606 38.1085C42.2606 36.0462 42.2606 33.9861 42.2606 31.9282C42.2606 31.1658 41.9141 30.8257 41.1518 30.8257H36.8363C36.074 30.8257 35.7401 31.1721 35.7338 31.9345C35.7275 32.9424 35.7338 33.9567 35.7338 34.9647ZM23.6 23.8263C23.6 24.8533 23.6 25.8865 23.6 26.9134C23.6 27.6001 23.9654 28.0159 24.5324 28.0159C25.0994 28.0159 25.4585 27.6001 25.4585 26.9134C25.4585 24.8554 25.4585 22.7952 25.4585 20.733C25.4585 20.0464 25.0931 19.6306 24.5261 19.6306C23.9591 19.6306 23.6 20.0464 23.6 20.733C23.6 21.7663 23.6 22.7931 23.6 23.8263ZM40.3958 23.8768C40.3958 22.8247 40.3958 21.7789 40.3958 20.7268C40.3958 20.0464 40.0241 19.6243 39.4571 19.6306C38.8901 19.6369 38.5373 20.0463 38.5373 20.7393C38.5373 22.7973 38.5373 24.8575 38.5373 26.9196C38.5373 27.6 38.909 28.0222 39.4697 28.0159C40.0304 28.0096 40.3895 27.5938 40.3958 26.907C40.4021 25.899 40.3958 24.8848 40.3958 23.8768ZM32.9366 35.0592C32.9366 34.0261 32.9366 32.9929 32.9366 31.966C32.9366 31.2415 32.5649 30.8131 31.9853 30.8257C31.4057 30.8383 31.0781 31.2604 31.0781 31.9534C31.0781 33.9946 31.0781 36.0357 31.0781 38.077C31.0781 38.8014 31.4435 39.2299 32.0294 39.2173C32.6153 39.2047 32.9366 38.7826 32.9366 38.0896C32.9366 37.0752 32.9366 36.0672 32.9366 35.0592Z" fill="white"/>
<path id="Vector_2" d="M31.0652 0.03125C31.0652 3.38915 31.0652 6.75335 31.0652 10.1112C31.0838 10.2892 31.0441 10.4683 30.9521 10.6217C30.86 10.7751 30.7206 10.8944 30.5549 10.9618L15.6428 19.24C15.5438 19.3031 15.4323 19.3442 15.316 19.3605C15.1997 19.3769 15.0813 19.368 14.9687 19.3344C12.2912 17.8792 9.63259 16.3798 6.89209 14.8678C7.11259 14.7229 7.27639 14.6032 7.45279 14.4961L30.4541 0.40295C30.6305 0.29585 30.788 0.15095 30.9518 0.03125H31.0652ZM26.4599 7.51565C26.126 7.66685 25.8866 7.74875 25.6724 7.86845L15.5924 13.4691C15.4893 13.5226 15.3903 13.5837 15.2963 13.6519C15.1162 13.7543 14.9801 13.9194 14.9139 14.1158C14.8477 14.3121 14.856 14.5259 14.9372 14.7166C15.001 14.9144 15.1347 15.0824 15.3132 15.189C15.4917 15.2956 15.7029 15.3337 15.9074 15.2962C16.1544 15.2537 16.3914 15.1661 16.6067 15.0379C19.9205 13.2067 23.2301 11.367 26.5355 9.51905C26.7182 9.41825 26.9828 9.32375 27.0395 9.15995C27.1959 8.84631 27.2467 8.49053 27.1844 8.14565C27.0899 7.88105 26.6741 7.71725 26.4599 7.51565Z" fill="white"/>
<path id="Vector_3" d="M57.1093 44.9443L32.9803 59.7241C32.9803 59.4973 32.9362 59.3398 32.9362 59.176C32.9362 55.9882 32.9362 52.8067 32.9362 49.6189C32.9184 49.459 32.953 49.2976 33.0348 49.159C33.1166 49.0204 33.2412 48.9121 33.3898 48.8503C38.4298 46.0846 43.4005 43.2937 48.4153 40.528C48.5259 40.4693 48.6478 40.435 48.7728 40.4274C48.8977 40.4198 49.0229 40.4391 49.1398 40.4839C51.7165 41.8825 54.2743 43.3126 56.8384 44.7364C56.9319 44.8014 57.0223 44.8708 57.1093 44.9443Z" fill="white"/>
<path id="Vector_4" d="M6.86719 44.925C9.62029 43.3941 12.26 41.9199 14.9186 40.4646C15.0284 40.4261 15.1449 40.4107 15.2609 40.4193C15.3769 40.428 15.4899 40.4606 15.5927 40.515C20.6327 43.2996 25.6727 46.0989 30.7127 48.9129C30.804 48.9662 30.8824 49.039 30.9423 49.1261C31.0022 49.2133 31.0421 49.3125 31.0592 49.4169C31.0592 52.8189 31.0592 56.2146 31.0592 59.7426L6.86719 44.925ZM15.8825 44.295C15.6368 44.547 15.2525 44.7738 15.1391 45.0951C14.9312 45.5991 15.2462 45.9771 15.6998 46.2291C19.1144 48.1191 22.5248 50.0091 25.931 51.8991C26.0447 51.9846 26.1751 52.0453 26.3137 52.0772C26.4524 52.1091 26.5962 52.1114 26.7358 52.0841C26.8754 52.0568 27.0078 52.0004 27.1242 51.9185C27.2406 51.8367 27.3385 51.7314 27.4115 51.6093C27.6635 51.1431 27.4556 50.6139 26.8508 50.2737C23.4614 48.3837 20.0678 46.4937 16.67 44.6037C16.4747 44.4903 16.2479 44.421 15.8825 44.2635V44.295Z" fill="white"/>
<path id="Vector_5" d="M58.0799 43.3058C55.3394 41.7875 52.6556 40.3007 49.9907 38.795C49.9083 38.7124 49.8435 38.6141 49.8002 38.5058C49.7569 38.3975 49.7359 38.2816 49.7387 38.165C49.7387 35.1284 49.7387 32.0981 49.7387 29.0678C49.7387 26.5982 49.7387 24.1286 49.7387 21.659C49.7205 21.4819 49.7604 21.3037 49.8525 21.1514C49.9446 20.9991 50.0837 20.8809 50.249 20.8148C52.8572 19.391 55.4465 17.942 58.0988 16.4678L58.0799 43.3058ZM54.8732 30.3089C54.8732 28.6772 54.8732 27.0455 54.8732 25.4138C54.8732 24.6641 54.5456 24.2609 53.9597 24.2546C53.3738 24.2483 53.0147 24.6641 53.0084 25.4012V35.1914C53.0084 35.9222 53.3612 36.3506 53.9408 36.3569C54.5204 36.3632 54.8732 35.9411 54.8732 35.2103C54.8795 33.5786 54.8732 31.9406 54.8732 30.3089Z" fill="white"/>
<path id="Vector_6" d="M30.6431 21.5146H33.3899V26.1073H30.6431V21.5146Z" fill="white"/>
<path id="Vector_7" d="M23.6504 32.71H26.3657V37.3216H23.6504V32.71Z" fill="white"/>
<path id="Vector_8" d="M37.6426 32.7158H40.3705V37.3085H37.6426V32.7158Z" fill="white"/>
</g>
</svg>
