<svg width="50" height="50" viewBox="0 0 50 50" fill="none" xmlns="http://www.w3.org/2000/svg">
<g id="Artboard 1 13" clip-path="url(#clip0_2559_4701)">
<path id="Vector" d="M26.4051 49.1095H23.5801C22.7701 49.0095 21.9601 48.9345 21.1601 48.7995C16.2216 48.0387 11.6549 45.7212 8.12505 42.1845C2.71005 36.7695 0.330054 30.1895 1.00005 22.5745C1.44 17.5575 3.5145 12.8236 6.90505 9.09954C9.03491 6.62918 11.6535 4.62692 14.5958 3.21905C17.5381 1.81117 20.7401 1.02821 24.0001 0.919539C28.6639 0.662547 33.2951 1.83474 37.2751 4.27954C43.5301 8.09954 47.3701 13.6245 48.7201 20.8495C48.8901 21.7545 48.9751 22.6745 49.0951 23.5845V26.4095C49.0601 26.7495 49.0201 27.0895 48.9801 27.4095C48.4818 32.4967 46.3587 37.2881 42.9251 41.0745C39.3436 45.1295 34.4796 47.8332 29.1451 48.7345C28.2351 48.8945 27.3151 48.9995 26.4051 49.1095ZM20.9651 20.9695V39.6095C20.9651 40.7745 21.2751 41.0795 22.4651 41.0795H27.5401C28.7101 41.0795 29.0401 40.7745 29.0401 39.5795V20.9995C30.0151 20.9995 30.9251 20.9995 31.8301 20.9995C32.049 21.0328 32.2729 20.9972 32.4708 20.8978C32.6688 20.7984 32.831 20.64 32.9351 20.4445C33.0229 20.2508 33.0526 20.0357 33.0206 19.8254C32.9887 19.615 32.8964 19.4185 32.7551 19.2595C30.4684 16.0095 28.1934 12.7562 25.9301 9.49954C25.3851 8.71954 24.5951 8.72454 24.0451 9.49954C21.7751 12.7595 19.5101 16.0095 17.2501 19.2495C17.1344 19.3987 17.0478 19.5683 16.9951 19.7495C16.9615 19.8979 16.9623 20.052 16.9973 20.2C17.0323 20.348 17.1007 20.4861 17.1971 20.6038C17.2935 20.7214 17.4155 20.8155 17.5538 20.8789C17.6921 20.9423 17.843 20.9733 17.9951 20.9695C18.9701 20.9995 19.9401 20.9695 20.9651 20.9695Z" fill="white"/>
</g>
<defs>
<clipPath id="clip0_2559_4701">
<rect width="50" height="50" fill="white"/>
</clipPath>
</defs>
</svg>
