<svg width="60" height="60" viewBox="0 0 60 60" fill="none" xmlns="http://www.w3.org/2000/svg">
<g id="Artboard 1 copy 3 5">
<path id="Vector" d="M51.5641 28.6145V52.0145C51.5641 52.9625 51.5641 52.9865 50.5681 52.9865H17.8741C16.9081 52.9865 16.8781 52.9865 16.8781 52.0085C16.8781 41.9525 16.8781 31.8945 16.8781 21.8345C16.851 21.6444 16.8874 21.4508 16.9819 21.2836C17.0763 21.1165 17.2233 20.9853 17.4001 20.9105C18.7801 20.1845 20.1241 19.3925 21.4981 18.6605C21.8195 18.5156 22.089 18.2758 22.2702 17.9734C22.4515 17.6709 22.5359 17.3203 22.5121 16.9685C22.5121 14.3945 22.5121 11.8145 22.5121 9.24046C22.534 8.90819 22.4553 8.57701 22.2862 8.29016C22.1171 8.00331 21.8654 7.7741 21.5641 7.63246C20.1241 6.85246 18.6961 6.04246 17.2621 5.23246C16.9981 5.08846 16.7521 4.90846 16.9081 4.63246C17.0101 4.44046 17.2921 4.33246 17.5081 4.22446C17.5981 4.17646 17.7361 4.22446 17.8561 4.22446H50.6101C51.5281 4.22446 51.5641 4.26646 51.5641 5.19046V28.6145ZM28.1281 20.1545H22.2901C21.1741 20.1545 20.6341 20.6885 20.6281 21.7925C20.6281 23.7485 20.5381 25.7045 20.6281 27.6485C20.7181 29.0105 20.4301 29.9825 19.0561 30.4385C19.0016 30.4603 18.951 30.4907 18.9061 30.5285C18.7368 30.6192 18.5952 30.7542 18.4966 30.919C18.3979 31.0839 18.3458 31.2724 18.3458 31.4645C18.3458 31.6566 18.3979 31.8451 18.4966 32.0099C18.5952 32.1747 18.7368 32.3097 18.9061 32.4005C19.2767 32.6535 19.6636 32.882 20.0641 33.0845C20.2415 33.1559 20.3901 33.2842 20.4868 33.4493C20.5834 33.6143 20.6226 33.8068 20.5981 33.9965C20.5981 36.3005 20.5981 38.6045 20.5981 40.9085C20.5981 42.1085 21.1141 42.6485 22.3381 42.6485H30.8581C32.3881 42.6485 32.8141 42.2225 32.8141 40.7165V37.9985H35.6281V40.9985C35.5947 41.2229 35.6143 41.4519 35.6854 41.6674C35.7565 41.8828 35.8771 42.0786 36.0375 42.239C36.1979 42.3994 36.3937 42.52 36.6091 42.5911C36.8246 42.6622 37.0537 42.6819 37.2781 42.6485H46.1221C47.2801 42.6485 47.8141 42.1205 47.8141 40.9745C47.8141 39.1025 47.8141 37.2305 47.8141 35.3525C47.8141 34.7105 47.6401 33.9725 47.9041 33.4565C48.1681 32.9405 48.8701 32.7905 49.3801 32.4725L49.4821 32.4125C49.6586 32.3225 49.8068 32.1856 49.9103 32.0167C50.0138 31.8478 50.0686 31.6536 50.0686 31.4555C50.0686 31.2574 50.0138 31.0631 49.9103 30.8942C49.8068 30.7253 49.6586 30.5884 49.4821 30.4985C49.113 30.2444 48.7282 30.014 48.3301 29.8085C48.1616 29.7409 48.0202 29.6196 47.928 29.4633C47.8357 29.307 47.7978 29.1246 47.8201 28.9445C47.8201 26.5445 47.8201 24.1805 47.8201 21.8045C47.8201 20.6825 47.2861 20.1545 46.1641 20.1545H40.3501C40.3501 20.0225 40.3501 19.9865 40.3501 19.9505C40.3501 19.0085 40.3501 18.0725 40.3501 17.1365C40.3501 16.0145 39.8221 15.4745 38.7121 15.4685H29.7781C28.6621 15.4685 28.1341 16.0085 28.1281 17.1305V20.1545ZM34.2001 50.1545C35.1361 50.1545 36.0721 50.1545 37.0081 50.1545C37.1943 50.1593 37.3797 50.1265 37.5529 50.0578C37.7261 49.9891 37.8836 49.8861 38.0159 49.7549C38.1482 49.6237 38.2526 49.4671 38.3228 49.2944C38.3929 49.1218 38.4274 48.9368 38.4241 48.7505C38.4241 48.1505 38.4241 47.5025 38.4241 46.8785C38.4266 46.6916 38.3912 46.5062 38.3199 46.3335C38.2487 46.1607 38.1431 46.0042 38.0096 45.8735C37.8761 45.7428 37.7174 45.6405 37.5432 45.573C37.3689 45.5054 37.1828 45.4739 36.9961 45.4805C35.1481 45.4805 33.2941 45.4805 31.4461 45.4805C31.2557 45.473 31.0658 45.5047 30.8882 45.5736C30.7106 45.6425 30.549 45.7471 30.4135 45.881C30.2779 46.0148 30.1713 46.1751 30.1002 46.3518C30.0291 46.5286 29.995 46.718 30.0001 46.9085C30.0001 47.4785 30.0001 48.0425 30.0001 48.6065C29.9801 48.8168 30.0072 49.029 30.0795 49.2275C30.1518 49.4261 30.2674 49.606 30.4179 49.7543C30.5685 49.9026 30.7502 50.0154 30.9498 50.0846C31.1495 50.1538 31.362 50.1777 31.5721 50.1545C32.4601 50.1665 33.3361 50.1545 34.2001 50.1545ZM34.2001 11.7185C36.0001 11.7185 37.8301 11.7185 39.6421 11.7185C39.7693 11.6997 39.8903 11.6507 39.9947 11.5755C40.0991 11.5003 40.1839 11.4012 40.2421 11.2865C40.3201 10.9445 40.0201 10.8005 39.6781 10.8005C36.0181 10.8005 32.3521 10.8005 28.6861 10.8005C28.4881 10.8005 28.2961 11.0765 28.0861 11.2265C28.2765 11.4 28.4768 11.5622 28.6861 11.7125C28.7701 11.7665 28.9141 11.7125 29.0341 11.7125L34.2001 11.7185ZM34.2001 7.96846C34.8001 7.96846 35.4001 8.00446 35.9461 7.96846C36.0666 7.94787 36.1803 7.89835 36.2775 7.82416C36.3747 7.74996 36.4524 7.6533 36.5041 7.54246C36.5761 7.19446 36.2881 7.05046 35.9461 7.05046C34.7821 7.05046 33.6121 7.05046 32.4481 7.05046C32.2501 7.05046 32.0581 7.35646 31.8481 7.52446C32.0461 7.66846 32.2321 7.92046 32.4481 7.94446C33.0541 8.00446 33.6421 7.96846 34.2001 7.96846Z" fill="white"/>
<path id="Vector_2" d="M15.9298 4.5062L14.7898 3.9062C14.0338 3.4862 13.9318 3.3062 14.0938 2.5622C14.1595 2.26398 14.3191 1.99468 14.5491 1.79382C14.7791 1.59296 15.0675 1.47113 15.3718 1.4462C15.5477 1.4372 15.7239 1.4372 15.8998 1.4462C28.1198 1.4462 40.3438 1.4462 52.5718 1.4462C53.8918 1.4462 54.3718 1.9262 54.3718 3.2462V56.8082C54.3718 58.1102 53.8798 58.6082 52.5718 58.6082H15.8938C14.5438 58.6082 14.0938 58.1282 14.0938 56.7722V22.8002L15.9718 21.7802V52.0442C15.9718 53.4422 16.4398 53.9042 17.8258 53.9042H50.6638C52.0258 53.9042 52.5058 53.4362 52.5058 52.1042V5.1002C52.5058 3.7562 52.0258 3.3002 50.6638 3.3002C39.7078 3.3002 28.7518 3.3002 17.7958 3.3002C16.8958 3.2702 16.2298 3.5162 15.9298 4.5062ZM34.1998 55.8002C33.6163 55.7671 33.0313 55.7671 32.4478 55.8002C32.2378 55.8002 32.0578 56.1062 31.8478 56.2742C32.0458 56.4182 32.2378 56.6882 32.4478 56.6942C33.6198 56.7342 34.7858 56.7342 35.9458 56.6942C36.0672 56.6762 36.1821 56.6276 36.2797 56.5531C36.3773 56.4786 36.4544 56.3806 36.5038 56.2682C36.5998 55.9262 36.3118 55.8002 35.9998 55.8002H34.1998Z" fill="white"/>
<path id="Vector_3" d="M21.564 13.1998C21.564 14.4658 21.564 15.7318 21.564 17.0038C21.5803 17.1777 21.5416 17.3523 21.4533 17.503C21.365 17.6538 21.2317 17.773 21.072 17.8438C18.72 19.1398 16.374 20.4598 14.01 21.7378C13.8769 21.7972 13.7328 21.8279 13.587 21.8279C13.4413 21.8279 13.2971 21.7972 13.164 21.7378C10.8 20.3998 8.47202 19.1038 6.11402 17.8078C5.95429 17.7388 5.82059 17.6208 5.73218 17.471C5.64376 17.3211 5.60519 17.147 5.62202 16.9738C5.62202 14.4018 5.62202 11.8258 5.62202 9.24582C5.60826 9.08232 5.64524 8.91856 5.72791 8.77684C5.81058 8.63512 5.93493 8.52232 6.08402 8.45382C8.46002 7.15182 10.8 5.81982 13.2 4.52982C13.3244 4.47348 13.4594 4.44434 13.596 4.44434C13.7326 4.44434 13.8676 4.47348 13.992 4.52982C16.392 5.81782 18.76 7.13382 21.096 8.47782C21.2215 8.56771 21.3264 8.68317 21.404 8.81658C21.4816 8.94999 21.53 9.09833 21.546 9.25182C21.6 10.5538 21.564 11.8618 21.564 13.1998ZM19.692 12.2278C19.725 11.6463 19.725 11.0633 19.692 10.4818C19.692 10.2658 19.392 10.0798 19.224 9.88182C19.08 10.0738 18.804 10.2598 18.798 10.4818C18.754 11.6538 18.754 12.8198 18.798 13.9798C18.798 14.1838 19.104 14.3818 19.266 14.5798C19.416 14.3878 19.674 14.2018 19.692 13.9798C19.7233 13.3862 19.7233 12.7914 19.692 12.1978V12.2278Z" fill="white"/>
<path id="Vector_4" d="M40.332 22.9683V21.1683C40.4585 21.141 40.5868 21.123 40.716 21.1143C42.516 21.1143 44.316 21.1143 46.158 21.1143C46.644 21.1143 46.884 21.2763 46.884 21.7923C46.884 24.0963 46.884 26.4003 46.884 28.7043C46.8755 28.7694 46.8615 28.8336 46.842 28.8963C46.704 28.8423 46.584 28.7883 46.458 28.7463C46.2941 28.6786 46.1159 28.6533 45.9397 28.6727C45.7635 28.6921 45.595 28.7555 45.4497 28.8571C45.3045 28.9587 45.1871 29.0953 45.1085 29.2541C45.0299 29.413 44.9926 29.5891 45 29.7663C45 30.8403 45 31.9143 45 32.9883C45 34.0623 45.648 34.5003 46.656 34.1103C46.7271 34.0937 46.7993 34.0817 46.872 34.0743V36.4203C46.872 37.9623 46.872 39.5043 46.872 41.0463C46.872 41.5083 46.686 41.7243 46.212 41.7243H37.2C36.804 41.7243 36.564 41.5743 36.564 41.1243C36.564 40.0923 36.564 39.0603 36.564 37.9923H38.364C38.508 38.8863 38.508 38.8863 39.426 38.8863C41.028 38.8863 42.63 38.8863 44.226 38.8863C44.778 38.8863 45.006 38.6883 44.988 38.1243C44.988 37.3443 44.988 36.5643 44.988 35.7843C44.988 35.4363 44.886 35.0943 44.496 35.1843C44.316 35.2203 44.088 35.5743 44.07 35.7843C44.016 36.4803 44.07 37.1763 44.07 37.9083H39.348C40.248 37.4343 40.332 36.7083 40.326 35.9223C40.326 32.1363 40.326 28.3503 40.326 24.5643V23.9043H44.076V25.4583C44.0459 26.0038 44.0459 26.5507 44.076 27.0963C44.076 27.2823 44.358 27.4443 44.508 27.6183C44.664 27.4743 44.958 27.3423 44.964 27.1923C45 25.9563 45 24.6843 45 23.4003C45 23.2443 44.604 22.9803 44.4 22.9743C43.272 22.9263 42.138 22.9743 41.004 22.9743L40.332 22.9683Z" fill="white"/>
<path id="Vector_5" d="M28.104 21.096V22.968H24.414C23.466 22.968 23.442 22.968 23.442 23.97V26.784C23.442 27.144 23.364 27.624 23.898 27.63C24.432 27.636 24.372 27.132 24.378 26.754C24.378 25.836 24.378 24.918 24.378 23.952H28.128V24.552C28.128 28.416 28.128 32.286 28.128 36.15C28.0736 36.5185 28.1423 36.8946 28.3234 37.2201C28.5046 37.5455 28.7881 37.8021 29.13 37.95H24.378C24.378 37.278 24.378 36.606 24.378 35.928C24.378 35.574 24.378 35.202 23.916 35.202C23.454 35.202 23.436 35.568 23.442 35.922C23.442 36.684 23.442 37.446 23.442 38.208C23.442 38.736 23.64 38.94 24.168 38.934C25.812 38.934 27.45 38.934 29.088 38.934C29.934 38.934 29.964 38.934 30.042 38.034H31.884C31.884 39.12 31.884 40.188 31.884 41.256C31.884 41.7 31.536 41.754 31.17 41.754H26.064C24.798 41.754 23.526 41.754 22.254 41.754C21.846 41.754 21.564 41.64 21.564 41.154C21.564 38.814 21.564 36.474 21.564 34.074C21.744 34.14 21.882 34.194 22.02 34.236C22.177 34.2948 22.3458 34.3149 22.5123 34.2946C22.6787 34.2743 22.8378 34.2143 22.9761 34.1195C23.1144 34.0248 23.2278 33.8981 23.3069 33.7502C23.3859 33.6024 23.4281 33.4376 23.43 33.27C23.46 32.07 23.466 30.87 23.43 29.67C23.43 28.794 22.662 28.47 21.594 28.848C21.594 28.692 21.594 28.548 21.594 28.404C21.594 26.24 21.594 24.074 21.594 21.906C21.594 21.174 21.684 21.084 22.398 21.084L28.104 21.096Z" fill="white"/>
<path id="Vector_6" d="M29.064 26.6582V17.2322C29.064 16.5002 29.154 16.4102 29.862 16.4102C32.77 16.4102 35.678 16.4102 38.586 16.4102C39.276 16.4102 39.378 16.5062 39.378 17.1782V36.2642C39.378 36.9362 39.276 37.0322 38.58 37.0322H29.856C29.154 37.0322 29.07 36.9362 29.064 36.2042V26.6582ZM37.506 26.2802V19.1402C37.506 18.3542 37.434 18.2822 36.624 18.2822C34.986 18.2822 33.348 18.2822 31.71 18.2822C31.164 18.2822 30.93 18.4622 30.936 19.0262C30.936 23.8262 30.936 28.6462 30.936 33.4862C30.936 34.0502 31.158 34.2362 31.704 34.2302C33.36 34.2302 35.022 34.2302 36.678 34.2302C37.428 34.2302 37.5 34.1522 37.506 33.3782V26.2802Z" fill="white"/>
<path id="Vector_7" d="M22.4822 29.4961V33.4321L19.2002 31.4701L22.4822 29.4961Z" fill="white"/>
<path id="Vector_8" d="M45.9839 33.426V29.502L49.2479 31.464L45.9839 33.426Z" fill="white"/>
<path id="Vector_9" d="M34.2002 46.4102C35.0762 46.4102 35.9522 46.4102 36.8282 46.4102C37.2902 46.4102 37.5182 46.5902 37.5062 47.0642C37.4942 47.5382 37.5062 48.0782 37.5062 48.5822C37.5062 49.0862 37.3202 49.2002 36.8762 49.2002H31.5602C31.1102 49.2002 30.9302 48.9842 30.9602 48.5522C30.9902 48.1202 30.9602 47.5742 30.9602 47.0882C30.9602 46.6022 31.1522 46.3742 31.6502 46.3862C32.4842 46.4162 33.3422 46.4102 34.2002 46.4102Z" fill="white"/>
<path id="Vector_10" d="M31.9199 19.2422H36.5339V33.2522H31.9199V19.2422Z" fill="white"/>
</g>
</svg>
