<svg width="73" height="73" viewBox="0 0 73 73" fill="none" xmlns="http://www.w3.org/2000/svg">
<g id="Artboard 1 copy 12">
<path id="Vector" d="M36.6313 2.19038C38.0913 2.99338 39.5513 3.80368 41.0113 4.59208C45.3718 6.88428 49.725 9.17648 54.071 11.4687C54.2408 11.5349 54.3843 11.655 54.4792 11.8106C54.5742 11.9663 54.6154 12.1488 54.5966 12.3301C54.5966 19.0461 54.5966 25.7596 54.5966 32.4708C54.6159 32.6409 54.5794 32.8127 54.4925 32.9602C54.4055 33.1077 54.2729 33.2229 54.1148 33.2884C48.4013 36.3008 42.6903 39.3182 36.9817 42.3404C36.8383 42.4337 36.6709 42.4834 36.4999 42.4834C36.3288 42.4834 36.1614 42.4337 36.0181 42.3404C30.3289 39.3279 24.6495 36.3203 18.9799 33.3176C18.8019 33.2441 18.6528 33.1145 18.5552 32.9484C18.4577 32.7824 18.4171 32.589 18.4397 32.3978C18.4397 25.7304 18.4397 19.0631 18.4397 12.3958C18.4189 12.1935 18.4647 11.99 18.5701 11.8161C18.6755 11.6421 18.8347 11.5074 19.0237 11.4322C24.6009 8.51218 30.1732 5.56541 35.7407 2.59188C35.9743 2.46778 36.186 2.31448 36.405 2.17578L36.6313 2.19038ZM40.4565 30.9159C40.347 30.7188 40.2886 30.602 40.2229 30.4925C39.7557 29.6109 38.9908 28.9237 38.0643 28.5534C37.1379 28.1831 36.1101 28.1537 35.164 28.4704C34.4652 28.7018 33.8385 29.1105 33.3449 29.6566C32.8513 30.2026 32.5078 30.8673 32.3479 31.5858C32.188 32.3043 32.2172 33.052 32.4326 33.7558C32.648 34.4596 33.0422 35.0956 33.5768 35.6015C34.1114 36.1075 34.7681 36.4661 35.4827 36.6424C36.1974 36.8187 36.9455 36.8067 37.6541 36.6075C38.3627 36.4082 39.0075 36.0287 39.5255 35.5058C40.0436 34.9829 40.4171 34.3346 40.6098 33.6242C40.7077 33.3172 40.9157 33.0572 41.1938 32.8942C43.2524 31.7627 45.3183 30.7042 47.3988 29.5727C47.6205 29.4825 47.8118 29.3308 47.9502 29.1355C48.0886 28.9402 48.1683 28.7095 48.1799 28.4704C48.1799 25.7621 48.1799 23.0611 48.1799 20.3601C48.1898 20.221 48.1721 20.0813 48.1279 19.9491C48.0837 19.8169 48.0138 19.6947 47.9222 19.5895C47.8307 19.4844 47.7192 19.3984 47.5943 19.3364C47.4694 19.2745 47.3335 19.2378 47.1944 19.2286C46.5301 19.1848 46.0629 19.6812 46.0629 20.4842C46.0629 22.7837 46.0629 25.0905 46.0629 27.39C46.0629 27.6236 45.9753 27.9667 45.8147 28.0543C44.0554 28.996 42.2742 29.9304 40.4565 30.9013V30.9159ZM32.5433 13.8704C32.6455 14.0602 32.7112 14.1989 32.7915 14.3303C33.2675 15.191 34.0288 15.8588 34.9442 16.2186C35.8596 16.5784 36.8719 16.6076 37.8066 16.3013C38.5065 16.0746 39.1357 15.6703 39.6328 15.1279C40.1298 14.5855 40.4778 13.9236 40.6428 13.2066C40.8077 12.4896 40.7839 11.7421 40.5738 11.037C40.3637 10.3319 39.9744 9.69337 39.4439 9.18363C38.9134 8.67388 38.2598 8.31037 37.5469 8.12856C36.834 7.94675 36.0862 7.95284 35.3763 8.14626C34.6665 8.33967 34.0189 8.71379 33.4968 9.23212C32.9747 9.75045 32.5958 10.3953 32.3973 11.1037C32.2826 11.4123 32.0629 11.6708 31.7768 11.8337C29.7255 12.9652 27.6523 14.0602 25.5718 15.1479C25.3529 15.2345 25.1647 15.3841 25.0308 15.5777C24.897 15.7713 24.8236 16.0002 24.8199 16.2356C24.8199 19.0023 24.8199 21.7763 24.8199 24.543C24.8187 24.7162 24.8613 24.887 24.9437 25.0394C25.0261 25.1918 25.1456 25.3209 25.2912 25.4148C25.4368 25.5087 25.6038 25.5644 25.7766 25.5766C25.9494 25.5888 26.1225 25.5572 26.2799 25.4847C26.5026 25.3811 26.6864 25.2091 26.8046 24.9938C26.9228 24.7784 26.9691 24.531 26.9369 24.2875C26.9369 21.988 26.9369 19.6812 26.9369 17.3817C26.9419 17.2513 26.9744 17.1234 27.0323 17.0064C27.0901 16.8894 27.1721 16.7859 27.2727 16.7028C28.9955 15.7465 30.7402 14.834 32.5433 13.8704Z" fill="white"/>
<path id="Vector_2" d="M49.2604 48.9977H52.4578V38.931C52.4578 38.7558 52.4578 38.5733 52.4578 38.3981C52.4457 38.2512 52.4641 38.1034 52.5119 37.964C52.5598 37.8246 52.636 37.6966 52.7358 37.5881C52.8356 37.4797 52.9569 37.3931 53.0918 37.3339C53.2268 37.2747 53.3726 37.2441 53.52 37.2441C53.6674 37.2441 53.8132 37.2747 53.9481 37.3339C54.0831 37.3931 54.2044 37.4797 54.3042 37.5881C54.404 37.6966 54.4802 37.8246 54.5281 37.964C54.5759 38.1034 54.5943 38.2512 54.5821 38.3981C54.5821 38.5733 54.5821 38.7485 54.5821 38.931V48.859C55.8022 49.1947 57.0014 49.6018 58.1737 50.0781C60.319 51.1506 62.0395 52.9158 63.0566 55.0879C64.0737 57.2599 64.3279 59.7118 63.7781 62.0463C63.2282 64.3809 61.9065 66.4615 60.0269 67.9513C58.1473 69.4411 55.8199 70.2529 53.4214 70.2553C42.1405 70.2553 30.8596 70.2553 19.5786 70.2553C16.8591 70.3287 14.2148 69.3573 12.1896 67.5408C10.1644 65.7243 8.91223 63.2009 8.69064 60.4894C8.46904 57.7779 9.29488 55.0846 10.9983 52.9634C12.7017 50.8422 15.1532 49.4543 17.8485 49.0853L18.4179 48.9758V40.2158C18.4179 40.0844 18.4179 39.9457 18.4179 39.8143C18.4179 38.8434 18.7683 38.3543 19.4618 38.3543C20.1553 38.3543 20.5422 38.8507 20.5422 39.8143V48.9977H23.7396V53.2682C22.5351 53.2682 21.4036 53.2682 20.2794 53.2682C18.5892 53.3001 16.981 54.0022 15.8084 55.2199C14.6358 56.4377 13.995 58.0713 14.027 59.7615C14.0589 61.4517 14.761 63.06 15.9787 64.2326C17.1965 65.4051 18.8301 66.0459 20.5203 66.014C24.7032 66.014 28.8934 66.014 33.0836 66.014C33.193 66.0213 33.3028 66.0213 33.4121 66.014C33.6806 65.9917 33.9303 65.8671 34.1096 65.6661C34.2889 65.465 34.3842 65.2028 34.3757 64.9336C34.3748 64.6744 34.2769 64.425 34.1013 64.2345C33.9256 64.044 33.685 63.9262 33.4267 63.9043C33.2299 63.8896 33.0323 63.8896 32.8354 63.9043C28.908 63.9043 24.9879 63.8386 21.0678 63.9043C20.4707 63.9574 19.869 63.8873 19.3 63.6985C18.731 63.5096 18.2069 63.206 17.76 62.8063C17.3131 62.4067 16.953 61.9195 16.7021 61.3751C16.4511 60.8306 16.3146 60.2404 16.3009 59.6411C16.3055 59.0412 16.4345 58.4488 16.6798 57.9013C16.9251 57.3539 17.2813 56.8633 17.7259 56.4605C18.1705 56.0578 18.6938 55.7517 19.2627 55.5615C19.8317 55.3714 20.4339 55.3014 21.0313 55.356C22.2066 55.4217 23.3819 55.356 24.5572 55.356C25.5062 55.356 25.8712 54.9764 25.8712 54.0201C25.8712 52.3338 25.8712 50.6548 25.8712 48.9685H29.0832V58.5607H28.2802C26.1486 58.5607 24.0243 58.5607 21.9 58.5607C21.0605 58.5607 20.5787 58.9695 20.586 59.6338C20.5933 60.2981 21.0751 60.6777 21.9219 60.685H29.7256C30.8498 60.685 31.1856 60.3492 31.1856 59.225C31.1856 55.8183 31.1856 52.4116 31.1856 49.005H41.829C41.829 52.4554 41.829 55.9108 41.829 59.371C41.829 60.3346 42.194 60.7142 43.143 60.7142C45.8002 60.7142 48.4647 60.7142 51.1219 60.7142C51.9687 60.7142 52.4505 60.3273 52.4578 59.663C52.4651 58.9987 51.976 58.5899 51.1438 58.5899C48.9976 58.5899 46.8441 58.5899 44.6979 58.5899H43.9679V48.9758H47.1799C47.1799 50.6621 47.1799 52.3411 47.1799 54.0274C47.1799 54.991 47.5522 55.3633 48.5012 55.3633C49.8736 55.3633 51.246 55.3633 52.6184 55.3633C53.7472 55.3904 54.8189 55.8648 55.5979 56.6821C56.3769 57.4994 56.7992 58.5926 56.7721 59.7214C56.745 60.8501 56.2707 61.9218 55.4534 62.7008C54.6361 63.4798 53.5428 63.9022 52.414 63.8751C48.2238 63.8751 44.0336 63.8751 39.8507 63.8751C39.7011 63.8545 39.5488 63.8657 39.4038 63.908C39.2588 63.9503 39.1244 64.0228 39.0093 64.1206C38.8942 64.2185 38.8011 64.3395 38.736 64.4758C38.6709 64.6121 38.6354 64.7607 38.6316 64.9117C38.6277 65.0622 38.656 65.2119 38.7145 65.3506C38.773 65.4894 38.8605 65.6141 38.971 65.7163C39.0816 65.8186 39.2127 65.8961 39.3556 65.9436C39.4985 65.9912 39.6499 66.0077 39.7996 65.9921C44.1212 65.9921 48.4428 66.0578 52.7571 65.9921C54.4473 65.9659 56.0579 65.2694 57.2346 64.0558C58.4113 62.8422 59.0576 61.2108 59.0315 59.5206C59.0054 57.8304 58.3089 56.2198 57.0952 55.0432C55.8816 53.8665 54.2502 53.2201 52.56 53.2463C51.4796 53.2463 50.37 53.2463 49.2969 53.2463V48.9758L49.2604 48.9977ZM37.5804 55.8962C37.5804 54.7209 37.5804 53.5529 37.5804 52.3776C37.5804 51.5965 37.1643 51.1147 36.5219 51.1147C35.8795 51.1147 35.4634 51.5892 35.4634 52.3776C35.4634 54.7184 35.4634 57.0666 35.4634 59.4221C35.4634 60.2032 35.8795 60.685 36.5219 60.6777C37.1643 60.6704 37.5804 60.2032 37.5804 59.4221C37.5731 58.2468 37.5658 57.0715 37.5658 55.8962H37.5804Z" fill="white"/>
<path id="Vector_3" d="M10.9502 23.3603C10.9502 21.3455 10.9502 19.3307 10.9502 17.3159C10.9502 16.4764 11.3444 15.9873 12.0087 15.9873C12.673 15.9873 13.0745 16.4764 13.0745 17.3159V29.5653C13.0745 30.4048 12.673 30.8939 12.0087 30.8939C11.3444 30.8939 10.9502 30.4048 10.9502 29.5653C10.9502 27.5067 10.9502 25.4384 10.9502 23.3603Z" fill="white"/>
<path id="Vector_4" d="M59.9038 23.3599V17.3374C59.9038 16.4979 60.3053 16.0088 60.9696 16.0088C61.6339 16.0088 62.05 16.4979 62.05 17.3374C62.05 21.4108 62.05 25.4866 62.05 29.5649C62.05 30.4044 61.6558 30.8935 60.9915 30.8935C60.3272 30.8935 59.933 30.4044 59.9257 29.5649L59.9038 23.3599Z" fill="white"/>
<path id="Vector_5" d="M5.65022 23.36C5.65022 22.0314 5.65022 20.7028 5.65022 19.3742C5.65022 18.5858 6.05902 18.1113 6.70872 18.1113C7.35842 18.1113 7.77452 18.5785 7.77452 19.3596C7.77452 22.0704 7.77452 24.7738 7.77452 27.4699C7.77452 28.2583 7.35842 28.7328 6.71602 28.7328C6.07362 28.7328 5.65752 28.2656 5.65022 27.4845C5.64292 26.134 5.65022 24.7616 5.65022 23.36Z" fill="white"/>
<path id="Vector_6" d="M65.2254 23.455C65.2254 22.0972 65.2254 20.7467 65.2254 19.3962C65.2254 18.6151 65.6415 18.1406 66.2839 18.1406C66.9263 18.1406 67.3497 18.6151 67.3497 19.3962C67.3497 22.0972 67.3497 24.8055 67.3497 27.5065C67.3497 28.2876 66.9336 28.7621 66.2912 28.7621C65.6488 28.7621 65.2327 28.2876 65.2254 27.5065C65.2181 26.156 65.2254 24.8201 65.2254 23.455Z" fill="white"/>
<path id="Vector_7" d="M23.7397 48.9976C23.7397 47.9829 23.7397 46.9682 23.7397 45.9535C23.7192 45.805 23.73 45.6539 23.7715 45.5099C23.8129 45.3659 23.8841 45.2321 23.9804 45.1173C24.0766 45.0024 24.1959 44.909 24.3305 44.8431C24.465 44.7771 24.6119 44.7401 24.7617 44.7344C25.4041 44.7344 25.8494 45.1943 25.8567 45.9535C25.8567 46.9682 25.8567 47.9829 25.8567 48.9976H23.7251H23.7397Z" fill="white"/>
<path id="Vector_8" d="M29.0615 48.9976C29.0615 47.9829 29.0615 46.9682 29.0615 45.9535C29.0421 45.8046 29.0539 45.6533 29.0963 45.5093C29.1386 45.3653 29.2105 45.2317 29.3073 45.117C29.4042 45.0023 29.5238 44.909 29.6587 44.8431C29.7936 44.7773 29.9408 44.7402 30.0908 44.7344C30.7332 44.7344 31.1785 45.1943 31.1858 45.9535C31.1858 46.9682 31.1858 47.9829 31.1858 48.9976H29.0469H29.0615Z" fill="white"/>
<path id="Vector_9" d="M41.829 48.9976C41.829 47.9829 41.829 46.9682 41.829 45.9535C41.8096 45.8046 41.8215 45.6533 41.8638 45.5093C41.9061 45.3653 41.978 45.2317 42.0749 45.117C42.1717 45.0023 42.2914 44.909 42.4263 44.8431C42.5612 44.7773 42.7083 44.7402 42.8583 44.7344C43.5007 44.7344 43.946 45.1943 43.9533 45.9535C43.9533 46.9682 43.9533 47.9829 43.9533 48.9976H41.8071H41.829Z" fill="white"/>
<path id="Vector_10" d="M47.1508 48.9973C47.1508 47.9826 47.1508 46.9679 47.1508 45.9532C47.1508 45.2232 47.5523 44.756 48.1728 44.7341C48.7933 44.7122 49.2605 45.194 49.2678 45.9532C49.2678 46.9679 49.2678 47.9826 49.2678 48.9973H47.1289H47.1508Z" fill="white"/>
<path id="Vector_11" d="M24.8199 42.5953C24.6106 42.5996 24.4048 42.5417 24.2284 42.429C24.052 42.3163 23.9129 42.1538 23.8289 41.9621C23.7448 41.7704 23.7195 41.5581 23.756 41.352C23.7926 41.1459 23.8895 40.9552 24.0345 40.8042C24.1794 40.6531 24.3658 40.5484 24.5703 40.5034C24.7747 40.4583 24.9879 40.4748 25.1829 40.5509C25.3779 40.6269 25.546 40.7591 25.6659 40.9307C25.7858 41.1023 25.8521 41.3056 25.8565 41.5149C25.8605 41.7951 25.7539 42.0656 25.5599 42.2678C25.3659 42.47 25.1 42.5876 24.8199 42.5953Z" fill="white"/>
<path id="Vector_12" d="M49.2602 41.6098C49.2499 41.8188 49.1779 42.02 49.0532 42.1881C48.9286 42.3562 48.7569 42.4835 48.5599 42.5541C48.3629 42.6246 48.1494 42.6352 47.9464 42.5844C47.7434 42.5337 47.56 42.424 47.4193 42.269C47.2787 42.1141 47.1871 41.921 47.1562 41.714C47.1252 41.5071 47.1563 41.2956 47.2455 41.1063C47.3347 40.917 47.478 40.7584 47.6573 40.6506C47.8366 40.5427 48.0438 40.4904 48.2528 40.5002C48.5323 40.5172 48.7941 40.6427 48.9823 40.85C49.1705 41.0573 49.2703 41.33 49.2602 41.6098Z" fill="white"/>
<path id="Vector_13" d="M37.5584 45.7856C37.5598 45.9952 37.499 46.2006 37.3836 46.3756C37.2681 46.5506 37.1033 46.6875 36.91 46.7687C36.7168 46.8499 36.5037 46.8719 36.2979 46.8319C36.0921 46.7919 35.9028 46.6917 35.754 46.5439C35.6053 46.3962 35.5037 46.2076 35.4623 46.0021C35.4208 45.7966 35.4414 45.5834 35.5213 45.3895C35.6012 45.1957 35.7368 45.0299 35.9111 44.9133C36.0853 44.7967 36.2902 44.7344 36.4999 44.7344C36.7782 44.7381 37.0442 44.8498 37.2417 45.046C37.4392 45.2421 37.5527 45.5073 37.5584 45.7856Z" fill="white"/>
<path id="Vector_14" d="M36.4998 34.6314C35.9364 34.6314 35.3961 34.4076 34.9977 34.0092C34.5993 33.6108 34.3755 33.0705 34.3755 32.5071C34.3755 31.9437 34.5993 31.4034 34.9977 31.005C35.3961 30.6066 35.9364 30.3828 36.4998 30.3828C37.0704 30.398 37.6126 30.6355 38.0107 31.0445C38.4089 31.4536 38.6316 32.002 38.6314 32.5728C38.6143 33.126 38.3819 33.6507 37.9838 34.0352C37.5857 34.4197 37.0532 34.6336 36.4998 34.6314Z" fill="white"/>
<path id="Vector_15" d="M36.4999 10.1472C36.7888 10.1302 37.0782 10.1725 37.3502 10.2714C37.6222 10.3703 37.8712 10.5238 38.0818 10.7224C38.2924 10.921 38.4601 11.1605 38.5748 11.4262C38.6895 11.692 38.7486 11.9784 38.7486 12.2679C38.7486 12.5573 38.6895 12.8437 38.5748 13.1095C38.4601 13.3752 38.2924 13.6148 38.0818 13.8133C37.8712 14.0119 37.6222 14.1654 37.3502 14.2643C37.0782 14.3632 36.7888 14.4055 36.4999 14.3885C35.9395 14.3809 35.4043 14.1544 35.0088 13.7575C34.6132 13.3605 34.3885 12.8246 34.3829 12.2642C34.3809 11.9857 34.4344 11.7095 34.5401 11.4518C34.6458 11.1941 34.8016 10.9599 34.9986 10.7629C35.1956 10.566 35.4297 10.4101 35.6874 10.3044C35.9452 10.1987 36.2213 10.1453 36.4999 10.1472Z" fill="white"/>
</g>
</svg>
