<svg width="34" height="34" viewBox="0 0 34 34" fill="none" xmlns="http://www.w3.org/2000/svg">
<g id="Group 39020">
<g id="Group 38977">
<path id="Vector" d="M33.2839 17.2348V31.8508C33.2839 32.8302 32.837 33.277 31.8614 33.277H17.2603V28.0637C17.713 28.309 18.2124 28.4557 18.7259 28.4942C19.2393 28.5327 19.7551 28.4621 20.2393 28.2871C20.9445 28.0338 21.5492 27.5597 21.9634 26.9353C22.3812 26.3186 22.5954 25.5866 22.576 24.842C22.5566 24.0973 22.3047 23.3775 21.8554 22.7833C20.8053 21.4241 19.3121 21.1001 17.2826 21.8114V17.2348H17.7034C19.3381 17.2348 20.9729 17.2348 22.6114 17.2348C23.3897 17.2348 23.8812 16.706 23.7546 16.0059C23.706 15.8163 23.6281 15.6354 23.5237 15.4697C23.278 15.0733 23.1591 14.6112 23.1831 14.1454C23.207 13.6796 23.3726 13.2322 23.6578 12.863C23.9092 12.4881 24.2682 12.1981 24.6877 12.0313C25.1071 11.8644 25.5673 11.8285 26.0075 11.9283C26.4682 12.0017 26.8947 12.2163 27.2282 12.5425C27.5618 12.8687 27.7858 13.2904 27.8694 13.7493C27.943 14.0491 27.9551 14.3606 27.9052 14.6652C27.8553 14.9698 27.7443 15.2612 27.579 15.5218C27.0465 16.4342 27.5045 17.246 28.5583 17.2534H33.2839V17.2348Z" fill="white"/>
<path id="Vector_2" d="M16.0201 16.0422H11.3132C11.0573 16.0111 10.7988 16.0735 10.5853 16.2178C10.3718 16.3622 10.2177 16.5789 10.1513 16.828C10.1152 16.9977 10.1157 17.1733 10.153 17.3429C10.1902 17.5124 10.2633 17.672 10.3673 17.811C10.5764 18.1687 10.6881 18.5749 10.6911 18.9892C10.6941 19.4035 10.5884 19.8114 10.3846 20.172C10.1807 20.5327 9.88577 20.8336 9.52924 21.0446C9.17272 21.2556 8.76708 21.3695 8.35281 21.3747C7.93854 21.3799 7.53014 21.2764 7.16839 21.0745C6.80665 20.8725 6.5042 20.5792 6.29126 20.2238C6.07831 19.8684 5.96232 19.4634 5.95487 19.0492C5.94741 18.6349 6.04874 18.226 6.24876 17.8632C6.34056 17.7106 6.41785 17.5498 6.47963 17.3828C6.52512 17.2449 6.54065 17.0989 6.52517 16.9545C6.5097 16.8101 6.46359 16.6707 6.38992 16.5455C6.31625 16.4204 6.21671 16.3124 6.09797 16.2288C5.97923 16.1453 5.84401 16.088 5.70135 16.0608C5.54138 16.0346 5.37931 16.0234 5.21726 16.0273H0.00390625V1.40016C0.00390625 0.446859 0.458212 0 1.41896 0H16.0201V4.60637C15.5586 4.35433 15.0481 4.20519 14.5236 4.16919C13.9991 4.13319 13.4729 4.21119 12.9814 4.39783C12.2799 4.66073 11.6828 5.14423 11.2796 5.77565C10.8746 6.39662 10.6731 7.12835 10.7031 7.86914C10.7331 8.60992 10.9932 9.32295 11.4472 9.90909C12.4973 11.2608 13.9533 11.5736 16.0201 10.8736V16.0422Z" fill="white"/>
<path id="Vector_3" d="M33.2837 16.0199H28.7146C29.5115 14.0127 29.1689 12.3221 27.266 11.1528C26.6429 10.7932 25.9234 10.6358 25.2071 10.7025C24.4907 10.7692 23.8126 11.0567 23.2666 11.5252C21.9968 12.5828 21.725 13.9904 22.4064 15.9938H17.2378V15.6214C17.2378 13.9718 17.2378 12.3259 17.2378 10.6799C17.2378 9.89047 16.6717 9.38776 15.9717 9.54043C15.7745 9.60628 15.5858 9.69502 15.4094 9.80482C15.0236 10.0218 14.5836 10.1231 14.1418 10.0967C13.7001 10.0703 13.2753 9.91723 12.9181 9.65587C12.5493 9.41577 12.2596 9.07211 12.0854 8.668C11.9112 8.2639 11.8602 7.81733 11.9388 7.38434C11.9873 6.94314 12.1647 6.526 12.4488 6.18496C12.7329 5.84392 13.1111 5.59407 13.5363 5.46657C13.8789 5.35317 14.243 5.31971 14.6006 5.36877C14.9582 5.41782 15.2998 5.54809 15.5993 5.74958C15.731 5.84191 15.8825 5.90214 16.0417 5.92546C16.2009 5.94877 16.3633 5.93454 16.516 5.88388C16.6687 5.83322 16.8075 5.74755 16.9211 5.63371C17.0348 5.51987 17.1203 5.38101 17.1707 5.22825C17.2199 5.0387 17.2412 4.84301 17.234 4.64733C17.234 3.25462 17.234 1.86191 17.234 0.469201V0H31.9096C32.8369 0 33.2949 0.45803 33.2949 1.39271V16.0199H33.2837ZM30.0738 5.33996L28.2119 7.18325C27.8693 7.52957 27.8395 7.85354 28.0964 8.12538C28.3534 8.39722 28.7146 8.35626 29.0386 8.03601C29.7759 7.32848 30.4983 6.58372 31.217 5.86874C31.5894 5.49636 31.5894 5.2059 31.217 4.82607C30.6398 4.24143 30.0514 3.66052 29.4705 3.0796C29.2992 2.90831 29.1316 2.72956 28.9492 2.56571C28.8948 2.50631 28.8289 2.45862 28.7555 2.42555C28.6821 2.39248 28.6027 2.37474 28.5222 2.3734C28.4417 2.37207 28.3617 2.38716 28.2873 2.41777C28.2128 2.44838 28.1454 2.49386 28.0891 2.55143C28.0328 2.60899 27.9888 2.67744 27.9598 2.75258C27.9309 2.82771 27.9176 2.90796 27.9207 2.98842C27.9239 3.06888 27.9434 3.14786 27.9781 3.22052C28.0127 3.29318 28.0619 3.358 28.1225 3.41102C28.2081 3.50412 28.3012 3.59349 28.3943 3.68286L30.0738 5.33996ZM21.0472 5.33996C21.6952 4.69202 22.3133 4.08131 22.9091 3.47805C23.2294 3.1578 23.2517 2.82266 22.9948 2.56199C22.7378 2.30132 22.399 2.31622 22.0787 2.63274C21.334 3.37751 20.5892 4.12227 19.8444 4.86704C19.7615 4.92379 19.6936 4.99991 19.6467 5.08881C19.5999 5.17771 19.5753 5.27669 19.5753 5.3772C19.5753 5.4777 19.5999 5.57669 19.6467 5.66559C19.6936 5.75449 19.7615 5.83061 19.8444 5.88736L21.5425 7.58543C21.7473 7.79024 21.9447 8.00249 22.1644 8.19613C22.2761 8.29126 22.4194 8.3412 22.566 8.33615C22.7127 8.3311 22.8522 8.27142 22.9571 8.16882C23.062 8.06622 23.1248 7.92812 23.1332 7.7816C23.1415 7.63509 23.0948 7.49074 23.0022 7.37689C22.9199 7.27966 22.8316 7.18762 22.7378 7.10133L21.0472 5.33996ZM24.3763 8.21475C24.355 8.37354 24.3969 8.53435 24.493 8.66253C24.5892 8.7907 24.7318 8.87596 24.8902 8.89993C24.971 8.90919 25.0529 8.90189 25.1308 8.87849C25.2088 8.85508 25.2811 8.81607 25.3435 8.76381C25.4058 8.71155 25.4569 8.64715 25.4936 8.57452C25.5302 8.5019 25.5517 8.42257 25.5568 8.34136C25.9416 6.43973 26.3214 4.53686 26.6963 2.63274C26.726 2.55076 26.7381 2.46346 26.7318 2.37649C26.7256 2.28953 26.7011 2.20485 26.6601 2.12794C26.619 2.05104 26.5622 1.98364 26.4934 1.93011C26.4245 1.87658 26.3452 1.83812 26.2606 1.81722C25.9105 1.74275 25.6275 1.95873 25.5382 2.38697C25.3073 3.53018 25.0801 4.67712 24.8493 5.82033L24.3763 8.21475Z" fill="white"/>
<path id="Vector_4" d="M11.4768 17.2559H16.0459V17.6655C16.0459 19.0805 16.0795 20.4993 16.0459 21.9106C16.0219 22.1268 16.0615 22.3453 16.1599 22.5393C16.2583 22.7333 16.4112 22.8944 16.5998 23.0027C16.7884 23.1111 17.0046 23.162 17.2217 23.1492C17.4389 23.1365 17.6476 23.0606 17.8222 22.931C18.2973 22.6272 18.8678 22.5093 19.4243 22.6C19.9809 22.6907 20.4845 22.9836 20.8385 23.4225C21.2006 23.8522 21.3984 24.3966 21.3966 24.9585C21.3948 25.5205 21.1936 26.0636 20.8288 26.491C20.4639 26.9184 19.9592 27.2025 19.4045 27.2925C18.8498 27.3825 18.2811 27.2726 17.7999 26.9825C16.8615 26.4425 16.0608 26.8968 16.0571 27.9767C16.0571 29.5892 16.0571 31.2016 16.0571 32.8177V33.2757H1.4076C0.450583 33.2757 0 32.8252 0 31.8681V17.2596H5.21335C4.95846 17.7265 4.80963 18.2439 4.77745 18.7749C4.74527 19.3059 4.83053 19.8374 5.02716 20.3317C5.28905 21.008 5.75666 21.585 6.36401 21.9814C6.974 22.3871 7.69372 22.5961 8.42615 22.5801C9.15858 22.5641 9.86851 22.324 10.4602 21.892C11.1503 21.3759 11.6272 20.6247 11.8008 19.7806C11.9684 19.088 11.9274 18.7901 11.4768 17.2559ZM3.19504 27.9432C3.85416 27.2878 4.47231 26.6771 5.08302 26.0813C5.40327 25.7611 5.42933 25.4259 5.17239 25.1653C5.10987 25.1044 5.03509 25.0575 4.95304 25.0277C4.87098 24.998 4.78353 24.986 4.69651 24.9927C4.60948 24.9994 4.52488 25.0246 4.44834 25.0665C4.3718 25.1085 4.30507 25.1663 4.2526 25.236C3.50784 25.9808 2.76308 26.7255 2.01831 27.4517C1.93841 27.5077 1.87318 27.5821 1.82815 27.6686C1.78311 27.7551 1.7596 27.8513 1.7596 27.9488C1.7596 28.0464 1.78311 28.1425 1.82815 28.229C1.87318 28.3156 1.93841 28.39 2.01831 28.4459C2.74322 29.1907 3.47309 29.9206 4.20792 30.6356C4.55051 30.9781 4.87821 31.0079 5.15005 30.751C5.42189 30.494 5.39209 30.144 5.05695 29.8051C4.63616 29.3769 4.20792 28.9487 3.77968 28.5279C3.60838 28.3231 3.41847 28.148 3.19504 27.9432ZM12.229 27.9134C12.121 28.0289 12.0391 28.122 11.9497 28.2113C11.4023 28.7587 10.8326 29.3024 10.3038 29.861C10.1917 29.9696 10.1274 30.1184 10.1249 30.2744C10.1225 30.4305 10.1821 30.5812 10.2908 30.6933C10.3994 30.8054 10.5481 30.8697 10.7042 30.8722C10.8603 30.8746 11.011 30.8149 11.1231 30.7063C11.9162 29.9317 12.702 29.1423 13.484 28.3491C13.5403 28.3017 13.5864 28.2434 13.6195 28.1776C13.6526 28.1119 13.672 28.0401 13.6765 27.9666C13.681 27.8932 13.6706 27.8195 13.6458 27.7502C13.621 27.6809 13.5824 27.6174 13.5324 27.5634C12.7231 26.7342 11.9038 25.915 11.0746 25.1057C10.9638 25.0086 10.8196 24.9582 10.6724 24.9652C10.5252 24.9721 10.3864 25.0358 10.2852 25.1429C10.1897 25.2408 10.1321 25.3693 10.1225 25.5057C10.113 25.6421 10.1521 25.7775 10.2331 25.8877C10.3056 25.9783 10.3853 26.063 10.4714 26.1409L12.229 27.9134ZM6.54648 30.7882C6.53489 30.8655 6.53873 30.9444 6.55777 31.0202C6.57681 31.096 6.61068 31.1673 6.65742 31.23C6.70415 31.2926 6.76284 31.3454 6.83008 31.3853C6.89732 31.4251 6.97179 31.4513 7.0492 31.4622C7.12974 31.476 7.21226 31.4727 7.29145 31.4525C7.37063 31.4324 7.44472 31.3959 7.50893 31.3454C7.57314 31.2948 7.62604 31.2314 7.66423 31.1592C7.70242 31.087 7.72505 31.0075 7.73066 30.926L8.89249 25.1392C8.91775 25.0593 8.92618 24.9749 8.91725 24.8916C8.90831 24.8082 8.88221 24.7276 8.84058 24.6549C8.79894 24.5821 8.74269 24.5187 8.67535 24.4688C8.60802 24.4188 8.53107 24.3834 8.44935 24.3646C8.36367 24.3424 8.27411 24.3395 8.18718 24.3562C8.10026 24.373 8.01814 24.4088 7.94682 24.4613C7.87549 24.5137 7.81674 24.5813 7.77484 24.6593C7.73294 24.7373 7.70894 24.8236 7.70459 24.912C7.47371 26.0565 7.24408 27.2022 7.01568 28.3491C6.87045 29.1758 6.7066 30.0025 6.54648 30.7882Z" fill="white"/>
</g>
</g>
</svg>
