<svg width="55" height="55" viewBox="0 0 55 55" fill="none" xmlns="http://www.w3.org/2000/svg">
<g id="Artboard 1 copy 2 11">
<path id="Vector" d="M26.5209 35.5419C24.8629 35.2404 23.3875 34.3053 22.407 32.9348C21.4266 31.5642 21.0182 29.8658 21.2684 28.1994C21.4657 27.0544 21.9748 25.986 22.7398 25.1116C23.5048 24.2372 24.496 23.5906 25.6046 23.2428C26.7132 22.8951 27.8961 22.8597 29.0235 23.1405C30.1509 23.4213 31.179 24.0075 31.995 24.8346C32.8109 25.6617 33.383 26.6978 33.6484 27.8289C33.9139 28.96 33.8623 30.1423 33.4995 31.2461C33.1367 32.3498 32.4767 33.3321 31.5919 34.0851C30.7071 34.8381 29.6319 35.3327 28.4844 35.5144C29.7976 35.4888 31.1 35.7575 32.2959 36.3009C35.8104 37.9509 37.6529 40.7504 37.7959 44.6334C37.8399 45.7774 37.7959 46.9214 37.7959 48.0654C37.8071 48.5283 37.7244 48.9887 37.5527 49.4188C37.3811 49.8489 37.124 50.2398 36.7971 50.5677C36.4701 50.8957 36.0801 51.154 35.6506 51.327C35.221 51.5 34.7608 51.5842 34.2979 51.5744C29.7512 51.5744 25.2027 51.5744 20.6524 51.5744C20.1941 51.5833 19.7388 51.4999 19.3134 51.3291C18.8881 51.1583 18.5015 50.9037 18.1766 50.5804C17.8518 50.257 17.5953 49.8716 17.4225 49.4471C17.2497 49.0226 17.1641 48.5677 17.1709 48.1094C17.1158 46.5889 17.1488 45.0665 17.2699 43.5499C17.5237 41.3643 18.5647 39.3459 20.1985 37.8721C21.8322 36.3983 23.9468 35.57 26.1469 35.5419C26.2679 35.5364 26.3999 35.5419 26.5209 35.5419Z" fill="white"/>
<path id="Vector_2" d="M42.3498 34.2877C43.2481 34.4129 44.1374 34.5966 45.0118 34.8377C46.5513 35.3492 47.8958 36.3228 48.8622 37.6258C49.8286 38.9288 50.3701 40.498 50.4128 42.1197C50.4128 43.0327 50.4128 43.9457 50.4128 44.8697C50.3975 45.702 50.0682 46.4978 49.4909 47.0975C48.9136 47.6972 48.1309 48.0566 47.2998 48.1037C44.9568 48.1752 42.6138 48.1037 40.2653 48.1037C40.2653 48.1037 40.2048 48.1037 40.1168 48.0322C40.1168 46.9762 40.1168 45.8872 40.1168 44.7982C40.1658 42.2069 39.3122 39.6792 37.7023 37.6482C37.1523 36.9332 36.4703 36.3117 35.8213 35.6187C37.1817 34.738 38.7774 34.2912 40.3973 34.3372C37.0973 33.0667 35.6673 30.9712 36.2228 28.1387C36.4766 26.9429 37.1468 25.876 38.1139 25.1283C39.0811 24.3806 40.2823 24.0006 41.5035 24.0561C42.7247 24.1116 43.8865 24.5989 44.7819 25.4312C45.6773 26.2635 46.248 27.3868 46.3923 28.6007C46.7498 31.2077 45.0998 33.4242 42.3498 34.2877Z" fill="white"/>
<path id="Vector_3" d="M12.9028 34.381C9.54228 33.105 8.11228 30.949 8.70078 28.122C8.90199 27.2135 9.3449 26.3762 9.9827 25.6987C10.6205 25.0212 11.4295 24.5286 12.3242 24.273C13.2189 24.0173 14.166 24.0081 15.0655 24.2464C15.9649 24.4846 16.7833 24.9615 17.4341 25.6265C18.085 26.2915 18.544 27.12 18.7628 28.0244C18.9816 28.9288 18.952 29.8755 18.6771 30.7645C18.4022 31.6534 17.8922 32.4516 17.2011 33.0746C16.51 33.6977 15.6634 34.1224 14.7508 34.304C15.5113 34.3896 16.2661 34.52 17.0113 34.6945C17.798 34.9554 18.5709 35.2564 19.3268 35.5965C19.1178 35.7945 19.0243 35.8935 18.9253 35.9815C17.6933 37.0131 16.6973 38.2973 16.0046 39.7472C15.3119 41.1971 14.9387 42.7788 14.9103 44.3855C14.8773 45.612 14.9103 46.844 14.9103 48.131H8.20028C7.72096 48.1612 7.24067 48.0896 6.79106 47.9207C6.34145 47.7519 5.93272 47.4896 5.59182 47.1513C5.25092 46.813 4.98558 46.4063 4.8133 45.958C4.64101 45.5097 4.56568 45.03 4.59228 44.5505C4.53448 43.2639 4.59894 41.9748 4.78478 40.7005C5.14688 38.9299 6.10482 37.3369 7.49895 36.187C8.89308 35.0371 10.6392 34.3996 12.4463 34.381H12.9028Z" fill="white"/>
<path id="Vector_4" d="M22.3409 14.6522C22.7479 13.4147 22.2419 12.3587 21.3344 11.4127C21.0019 11.0363 20.6933 10.6395 20.4104 10.2247C19.6734 9.24017 20.0254 8.20067 21.2134 7.84867C22.0879 7.59017 22.9734 7.36467 23.8314 7.06767C24.1553 6.94839 24.4405 6.74302 24.6564 6.47367C25.2064 5.72017 25.7564 4.91167 26.3064 4.13617C26.4274 3.91848 26.6044 3.73711 26.8191 3.61083C27.0338 3.48456 27.2783 3.41797 27.5274 3.41797C27.7765 3.41797 28.021 3.48456 28.2357 3.61083C28.4504 3.73711 28.6274 3.91848 28.7484 4.13617C29.2984 4.93917 29.8484 5.78617 30.4314 6.56167C30.5894 6.76896 30.8058 6.92414 31.0529 7.00717C31.9659 7.30967 32.9009 7.55717 33.8029 7.83767C34.9909 8.20617 35.3264 9.23467 34.5839 10.2247C34.0339 11.0002 33.3904 11.7482 32.8294 12.5347C32.6719 12.7609 32.5857 13.029 32.5819 13.3047C32.5819 14.2507 32.6369 15.2022 32.6534 16.1482C32.6534 17.4242 31.8009 18.0402 30.5854 17.6167C29.7054 17.3142 28.8364 16.9732 27.9509 16.7037C27.6548 16.6158 27.3395 16.6158 27.0434 16.7037C26.1359 16.9842 25.2559 17.3307 24.3594 17.6332C24.1309 17.7445 23.8766 17.7919 23.6234 17.7703C23.3702 17.7488 23.1275 17.6591 22.9211 17.5108C22.7147 17.3625 22.5523 17.1611 22.4512 16.928C22.35 16.6949 22.3138 16.4387 22.3464 16.1867C22.3464 15.7192 22.3409 15.2352 22.3409 14.6522Z" fill="white"/>
<path id="Vector_5" d="M6.5395 17.489C6.897 16.433 6.3855 15.5255 5.599 14.6895C5.32493 14.3801 5.07139 14.0531 4.84 13.7105C4.71455 13.5573 4.62979 13.3749 4.59357 13.1802C4.55736 12.9855 4.57086 12.7848 4.63283 12.5967C4.6948 12.4086 4.80323 12.2391 4.94809 12.1041C5.09294 11.969 5.26953 11.8727 5.4615 11.824C6.193 11.593 6.93 11.3675 7.6615 11.1805C7.85161 11.1374 8.0308 11.0556 8.18788 10.9401C8.34496 10.8247 8.47657 10.6781 8.5745 10.5095C8.965 9.89353 9.3885 9.29403 9.812 8.69453C9.91195 8.50061 10.0634 8.33796 10.2496 8.22441C10.4359 8.11085 10.6498 8.05078 10.868 8.05078C11.0862 8.05078 11.3001 8.11085 11.4864 8.22441C11.6727 8.33796 11.8241 8.50061 11.924 8.69453C12.3805 9.33803 12.7985 10.0035 13.2715 10.6305C13.4424 10.8487 13.671 11.0145 13.9315 11.109C14.6905 11.3675 15.4715 11.56 16.236 11.8075C16.4397 11.8484 16.629 11.9424 16.7846 12.08C16.9402 12.2177 17.0566 12.3941 17.1219 12.5913C17.1873 12.7885 17.1993 12.9995 17.1567 13.2028C17.1141 13.4062 17.0185 13.5946 16.8795 13.749C16.39 14.409 15.862 15.047 15.3835 15.7125C15.2472 15.9128 15.1691 16.147 15.158 16.389C15.158 17.1755 15.213 17.962 15.224 18.7485C15.224 19.8485 14.5035 20.3985 13.4585 20.019C12.7325 19.7715 12.0175 19.469 11.2585 19.26C10.9956 19.1793 10.715 19.1755 10.45 19.249C9.6965 19.48 8.9705 19.799 8.25 20.03C8.05561 20.1269 7.83838 20.1686 7.62194 20.1507C7.40549 20.1327 7.19811 20.0558 7.02234 19.9282C6.84656 19.8006 6.70913 19.6273 6.62497 19.4271C6.54081 19.2268 6.51316 19.0074 6.545 18.7925L6.5395 17.489Z" fill="white"/>
<path id="Vector_6" d="M39.7651 17.5561C40.1006 16.4561 39.6936 15.6036 38.9401 14.8061C38.655 14.4838 38.3905 14.144 38.1481 13.7886C37.9945 13.6345 37.8864 13.4409 37.8357 13.2293C37.7851 13.0177 37.7938 12.7963 37.8609 12.5893C37.928 12.3823 38.0509 12.1978 38.216 12.0562C38.3812 11.9146 38.5823 11.8213 38.7971 11.7866C39.5506 11.5556 40.3096 11.3631 41.0521 11.1046C41.3128 11.0106 41.5416 10.8447 41.7121 10.6261C42.1851 9.99908 42.6031 9.33358 43.0596 8.69008C43.1609 8.49775 43.3127 8.33674 43.4988 8.22442C43.6849 8.1121 43.8982 8.05273 44.1156 8.05273C44.3329 8.05273 44.5462 8.1121 44.7323 8.22442C44.9184 8.33674 45.0703 8.49775 45.1716 8.69008C45.6061 9.30608 45.9911 9.94958 46.4586 10.5436C46.6807 10.8148 46.9712 11.0217 47.3001 11.1431C48.0041 11.4016 48.7411 11.5721 49.4561 11.7921C49.6707 11.828 49.8713 11.922 50.0364 12.0637C50.2015 12.2055 50.3247 12.3897 50.3926 12.5964C50.4606 12.8031 50.4707 13.0245 50.422 13.2365C50.3732 13.4486 50.2675 13.6433 50.1161 13.7996C49.6706 14.3991 49.2196 15.0041 48.7411 15.5816C48.6164 15.7203 48.5218 15.8832 48.4631 16.0602C48.4044 16.2372 48.383 16.4244 48.4001 16.6101C48.4496 17.3636 48.4551 18.1171 48.4606 18.8651C48.4834 19.0711 48.4515 19.2796 48.3679 19.4693C48.2844 19.6591 48.1522 19.8234 47.9847 19.9456C47.8173 20.0679 47.6205 20.1437 47.4143 20.1655C47.2081 20.1873 46.9999 20.1542 46.8106 20.0696C46.0351 19.8001 45.2926 19.5086 44.5501 19.2501C44.286 19.1732 44.0056 19.1732 43.7416 19.2501C42.9936 19.4811 42.2621 19.8001 41.5416 20.0311C41.3458 20.1256 41.1282 20.1656 40.9116 20.147C40.695 20.1283 40.4874 20.0516 40.3107 19.925C40.134 19.7984 39.9947 19.6265 39.9074 19.4274C39.8201 19.2283 39.788 19.0093 39.8146 18.7936L39.7651 17.5561Z" fill="white"/>
</g>
</svg>
