<svg width="50" height="50" viewBox="0 0 50 50" fill="none" xmlns="http://www.w3.org/2000/svg">
<path d="M16.8498 14.5495L17.2798 14.1495L22.1798 9.24945C23.0098 8.41945 23.8648 8.41945 24.6798 9.24945C25.2898 9.85945 25.8948 10.4745 26.4598 11.0445L30.5798 6.93945C30.2533 6.78867 29.9891 6.52939 29.8323 6.20575C29.6755 5.88211 29.6357 5.51413 29.7198 5.16445C29.7872 4.82211 29.9719 4.514 30.242 4.29314C30.5122 4.07229 30.8508 3.95252 31.1998 3.95445C32.2764 3.93445 33.3514 3.93445 34.4248 3.95445C34.8279 3.96234 35.2117 4.12907 35.4926 4.41839C35.7735 4.70771 35.9288 5.09623 35.9248 5.49945C35.9248 6.49945 35.9248 7.49945 35.9248 8.52445C35.9468 8.88532 35.8441 9.2428 35.6338 9.53688C35.4235 9.83095 35.1184 10.0437 34.7698 10.1395C34.4373 10.2296 34.0843 10.2057 33.767 10.0715C33.4498 9.93736 33.1867 9.70073 33.0198 9.39945L32.8948 9.21445C32.7598 9.33945 32.6398 9.44445 32.5298 9.55445L27.8448 14.2495C26.9748 15.1145 26.1398 15.1095 25.2648 14.2495L23.4648 12.4245C23.3148 12.5645 23.1948 12.6645 23.0848 12.7795C21.6448 14.2145 20.2098 15.6595 18.7648 17.0845C18.6464 17.1743 18.5578 17.2977 18.5105 17.4386C18.4632 17.5795 18.4595 17.7314 18.4998 17.8745C18.8501 19.4658 18.6923 21.127 18.0485 22.6239C17.4047 24.1209 16.3074 25.378 14.9113 26.2183C13.5152 27.0586 11.8906 27.4396 10.2665 27.3077C8.64233 27.1757 7.10054 26.5375 5.85835 25.4829C4.61617 24.4283 3.73621 23.0105 3.34249 21.4293C2.94877 19.8481 3.06112 18.1832 3.66373 16.6692C4.26634 15.1553 5.32881 13.8685 6.70144 12.9904C8.07406 12.1123 9.68762 11.687 11.3148 11.7745C13.2144 11.8511 15.0141 12.6464 16.3498 13.9995C16.4998 14.1645 16.6698 14.3495 16.8498 14.5495ZM14.0598 21.8095C14.0539 21.6821 14.0405 21.5552 14.0198 21.4295C13.904 20.6987 13.5331 20.0327 12.9729 19.5494C12.4128 19.0661 11.6995 18.7969 10.9598 18.7895C10.6822 18.7932 10.4087 18.7227 10.1674 18.5855C9.92616 18.4482 9.7259 18.249 9.5873 18.0085C9.4487 17.768 9.37679 17.4949 9.37898 17.2173C9.38117 16.9397 9.45738 16.6677 9.59976 16.4295C9.76193 16.1464 10.0088 15.9213 10.3055 15.7858C10.6023 15.6503 10.9341 15.6113 11.2542 15.6742C11.5743 15.7372 11.8667 15.8988 12.0901 16.1366C12.3135 16.3743 12.4568 16.6761 12.4998 16.9995C12.4998 17.0945 12.4998 17.1945 12.5248 17.2945C12.5473 17.4926 12.6448 17.6745 12.7974 17.8029C12.9499 17.9314 13.1458 17.9965 13.3448 17.985C13.5439 17.9735 13.731 17.8862 13.8676 17.741C14.0043 17.5958 14.0802 17.4038 14.0798 17.2045C14.0726 16.5852 13.8802 15.9824 13.5273 15.4735C13.1744 14.9646 12.6772 14.5731 12.0998 14.3495C11.8748 14.2595 11.7298 14.1745 11.6748 13.9045C11.6442 13.7322 11.5502 13.5777 11.4114 13.4713C11.2726 13.3649 11.099 13.3143 10.9248 13.3295C10.759 13.3179 10.5947 13.3675 10.4629 13.4688C10.3312 13.5702 10.2411 13.7162 10.2098 13.8795C10.1548 14.1745 9.99476 14.2595 9.75476 14.3795C9.28753 14.569 8.87369 14.8698 8.54923 15.2558C8.22477 15.6417 7.99952 16.1011 7.89306 16.594C7.78661 17.0868 7.80217 17.5982 7.93841 18.0837C8.07465 18.5691 8.32742 19.014 8.67476 19.3795C8.97148 19.6946 9.3294 19.9458 9.7266 20.1177C10.1238 20.2897 10.5519 20.3787 10.9848 20.3795C11.3612 20.3934 11.7199 20.543 11.9946 20.8008C12.2693 21.0586 12.4415 21.4071 12.4793 21.7819C12.5171 22.1567 12.4179 22.5326 12.2002 22.84C11.9825 23.1474 11.6609 23.3657 11.2948 23.4545C11.0841 23.5023 10.8658 23.5062 10.6535 23.4661C10.4412 23.4259 10.2394 23.3425 10.0608 23.221C9.88209 23.0996 9.73031 22.9426 9.61488 22.76C9.49944 22.5774 9.42281 22.373 9.38976 22.1595C9.38976 22.0645 9.38976 21.9645 9.38976 21.8695C9.36728 21.6718 9.27011 21.4901 9.11813 21.3617C8.96615 21.2333 8.77084 21.1679 8.57218 21.1787C8.37352 21.1896 8.18651 21.276 8.04943 21.4202C7.91235 21.5644 7.83556 21.7555 7.83476 21.9545C7.84352 22.5763 8.0356 23.1818 8.38692 23.695C8.73824 24.2082 9.23319 24.6063 9.80976 24.8395C9.97917 24.9268 10.1134 25.0698 10.1898 25.2445C10.2365 25.4103 10.3349 25.557 10.4707 25.6631C10.6064 25.7692 10.7725 25.8292 10.9448 25.8345C11.1183 25.8498 11.2913 25.7999 11.43 25.6945C11.5687 25.5891 11.6631 25.4357 11.6948 25.2645C11.7128 25.157 11.7624 25.0574 11.8372 24.9782C11.9119 24.8989 12.0086 24.8437 12.1148 24.8195C12.7081 24.5772 13.2128 24.1587 13.5607 23.6204C13.9085 23.0821 14.0827 22.4499 14.0598 21.8095Z" fill="white"/>
<path d="M43.73 33.5606C42.925 32.6806 42.23 31.7706 41.355 31.0006C40.255 30.0006 39.06 29.0956 37.885 28.1756C37.7681 28.1058 37.6712 28.007 37.6038 27.8887C37.5363 27.7705 37.5006 27.6368 37.5 27.5006C37.5 20.2473 37.5 12.9923 37.5 5.73563C37.5 4.57563 38.115 3.97063 39.285 3.97063C40.225 3.97063 41.17 3.97063 42.115 3.97063C42.331 3.96 42.5469 3.99454 42.7488 4.07206C42.9507 4.14958 43.1342 4.26836 43.2876 4.42082C43.441 4.57328 43.5609 4.75606 43.6397 4.95749C43.7184 5.15891 43.7543 5.37455 43.745 5.59063C43.745 14.8673 43.745 24.139 43.745 33.4056C43.7426 33.4575 43.7376 33.5092 43.73 33.5606Z" fill="white"/>
<path d="M32.12 38.7452C27.3883 38.1827 22.6067 38.1827 17.875 38.7452C18.515 35.1852 19.345 31.7452 21.23 28.7152C21.66 28.0262 22.1777 27.3959 22.77 26.8402C24.225 25.4652 25.77 25.4852 27.235 26.8402C28.0822 27.6314 28.7785 28.5699 29.29 29.6102C30.785 32.4452 31.56 35.5002 32.12 38.7452Z" fill="white"/>
<path d="M21.1398 26.2305C18.4048 29.6055 17.3148 33.5855 16.4998 37.6755C16.4148 38.1055 16.4498 38.6755 16.1948 38.9205C15.9398 39.1655 15.4098 39.1205 14.9948 39.2005C11.8198 39.8055 8.7198 40.6355 5.8798 42.2355C5.0648 42.6905 4.3098 43.2355 3.5498 43.7355C4.7898 35.3755 12.0848 27.6705 21.1398 26.2305Z" fill="white"/>
<path d="M28.9302 26.2344C38.2302 27.7344 45.3002 35.7344 46.4302 43.8544C44.9666 42.6214 43.298 41.6551 41.5002 40.9994C39.2241 40.1257 36.8629 39.4923 34.4552 39.1094C33.7002 38.9844 33.7152 38.9944 33.5802 38.2494C33.0002 34.8844 32.1552 31.6044 30.5002 28.5994C30.0002 27.7844 29.4502 27.0294 28.9302 26.2344Z" fill="white"/>
<path d="M32.9199 47.6805H17.2149C17.2077 47.5373 17.2077 47.3938 17.2149 47.2505C17.3499 45.0905 17.4899 42.9305 17.6149 40.7505C17.6149 40.4355 17.7599 40.3055 18.0799 40.2505C22.6905 39.7055 27.3492 39.7055 31.9599 40.2505C32.1949 40.2505 32.3949 40.3105 32.4199 40.6255C32.5599 43.0005 32.7399 45.3005 32.9199 47.6805Z" fill="white"/>
<path d="M35.9301 26.8047L29.7851 24.5997L29.6851 24.7247V24.2547C29.6851 21.2147 29.6851 18.1747 29.6851 15.1347C29.6851 13.9314 30.2801 13.3281 31.4701 13.3247C32.4301 13.3247 33.3901 13.3247 34.3451 13.3247C34.5538 13.3193 34.7616 13.3562 34.9557 13.4333C35.1498 13.5104 35.3262 13.6261 35.4744 13.7733C35.6225 13.9205 35.7393 14.0962 35.8176 14.2898C35.8959 14.4834 35.9342 14.6909 35.9301 14.8997C35.9301 18.8497 35.9301 22.7997 35.9301 26.7497C35.923 26.6756 35.8876 26.6069 35.8313 26.5581C35.775 26.5093 35.702 26.484 35.6276 26.4876C35.5532 26.4911 35.4829 26.5232 35.4315 26.5771C35.3801 26.631 35.3514 26.7027 35.3514 26.7772C35.3514 26.8518 35.3801 26.9234 35.4315 26.9774C35.4829 27.0313 35.5532 27.0634 35.6276 27.0669C35.702 27.0705 35.775 27.0452 35.8313 26.9964C35.8876 26.9476 35.923 26.8789 35.9301 26.8047Z" fill="white"/>
<path d="M34 40.5898C37.34 41.1798 40.59 41.9598 43.5 43.6698C44.3638 44.2122 45.1667 44.8458 45.895 45.5598C46.1858 45.8297 46.4187 46.156 46.5794 46.5187C46.7401 46.8815 46.8254 47.2731 46.83 47.6698H34.445C34.305 45.3248 34.165 42.9998 34 40.5898Z" fill="white"/>
<path d="M3.12988 47.6657C3.17394 46.8734 3.50032 46.1231 4.04988 45.5507C4.95504 44.5669 6.04825 43.7747 7.26488 43.2207C10.0317 41.9212 12.975 41.0367 15.9999 40.5957C15.8549 42.9507 15.7149 45.2907 15.5749 47.6657H3.12988Z" fill="white"/>
<path d="M28.115 24.3598H21.875V22.6998C21.875 21.6998 21.875 20.6998 21.875 19.6698C21.8585 19.4501 21.8888 19.2294 21.964 19.0223C22.0392 18.8153 22.1575 18.6265 22.3111 18.4686C22.4648 18.3107 22.6502 18.1873 22.8552 18.1064C23.0601 18.0256 23.2799 17.9893 23.5 17.9998C24.5 17.9998 25.5 17.9998 26.525 17.9998C26.9139 17.9831 27.2941 18.1183 27.5852 18.3767C27.8763 18.6352 28.0555 18.9967 28.085 19.3848C28.145 21.0748 28.115 22.7448 28.115 24.3598Z" fill="white"/>
</svg>
