<svg width="77" height="77" viewBox="0 0 77 77" fill="none" xmlns="http://www.w3.org/2000/svg">
<g id="Artboard 1 7">
<path id="Vector" d="M15.9313 54.67C23.7391 56.2947 30.0762 54.1695 34.1649 47.2549C37.499 41.6339 37.2449 35.7049 33.5104 30.3688C29.26 24.2396 23.1924 22.4532 15.9929 24.0163C15.9652 23.9393 15.9471 23.8591 15.939 23.7776C15.939 20.9594 15.862 18.1412 15.939 15.3076C16.0449 13.0211 17.0209 10.8616 18.6671 9.27125C20.3133 7.68088 22.5052 6.77995 24.794 6.75293C33.341 6.75293 41.888 6.75293 50.435 6.75293H50.8354V7.58453C50.8354 11.3498 50.8354 15.1151 50.8354 18.8804C50.7838 20.4339 51.2835 21.9555 52.246 23.1759C53.2085 24.3963 54.5718 25.2368 56.0945 25.5486C56.7015 25.6591 57.318 25.7081 57.9348 25.6949C61.5769 25.6949 65.2267 25.6949 68.8688 25.6949H69.7928V26.5342C69.7928 38.0021 69.7928 49.4623 69.7928 60.9147C69.7928 66.4818 65.8658 70.3934 60.3141 70.3934H25.2175C23.029 70.4572 20.8923 69.7205 19.2082 68.3213C17.5241 66.9221 16.4083 64.9567 16.0699 62.7935C15.9271 61.4768 15.8808 60.1515 15.9313 58.828C15.9159 57.442 15.9313 56.0483 15.9313 54.67ZM48.1866 42.2884H55.7788C57.1494 42.2884 58.0426 41.5184 58.0888 40.3172C58.1016 40.0257 58.0512 39.7349 57.9412 39.4647C57.8311 39.1945 57.664 38.9512 57.4512 38.7516C57.2384 38.552 56.985 38.4007 56.7083 38.3081C56.4316 38.2155 56.1382 38.1838 55.8481 38.2151C50.761 38.2151 45.6764 38.2151 40.5944 38.2151C40.1693 38.2178 39.7505 38.3179 39.3701 38.5077C38.9818 38.7185 38.6771 39.0554 38.5063 39.4629C38.3355 39.8703 38.3088 40.3238 38.4307 40.7484C38.5288 41.1929 38.7782 41.5895 39.1364 41.8705C39.4945 42.1514 39.9391 42.2991 40.3942 42.2884C42.9814 42.2961 45.584 42.2884 48.1866 42.2884ZM41.0564 49.9884C41.9727 49.9884 42.8967 49.9884 43.8207 49.9884C44.1025 50.013 44.3864 49.9787 44.6542 49.8877C44.9221 49.7967 45.1681 49.6509 45.3766 49.4598C45.5852 49.2686 45.7517 49.0362 45.8656 48.7773C45.9795 48.5183 46.0383 48.2385 46.0383 47.9556C46.0383 47.6727 45.9795 47.3929 45.8656 47.134C45.7517 46.8751 45.5852 46.6426 45.3766 46.4515C45.1681 46.2603 44.9221 46.1146 44.6542 46.0236C44.3864 45.9326 44.1025 45.8983 43.8207 45.9228C41.9804 45.9228 40.1324 45.9228 38.2921 45.9228C38.0143 45.9004 37.7348 45.936 37.4715 46.0274C37.2081 46.1188 36.9667 46.264 36.7625 46.4537C36.5582 46.6434 36.3957 46.8736 36.2852 47.1295C36.1748 47.3854 36.1187 47.6615 36.1207 47.9402C36.1174 48.2248 36.1738 48.5068 36.2864 48.7682C36.3989 49.0295 36.5651 49.2643 36.7741 49.4574C36.9832 49.6504 37.2304 49.7975 37.4998 49.8889C37.7693 49.9804 38.0549 50.0143 38.3383 49.9884C39.27 50.05 40.1555 50.0038 41.0564 50.0038V49.9884Z" fill="white"/>
<path id="Vector_2" d="M10.7801 46.0766C9.76165 44.5521 9.08163 42.8271 8.78578 41.0177C8.44299 38.6357 8.83791 36.2058 9.91742 34.055C10.9969 31.9042 12.7092 30.1355 14.824 28.9869C16.9388 27.8384 19.3545 27.365 21.7464 27.6305C24.1382 27.896 26.3914 28.8877 28.2028 30.472C30.0142 32.0564 31.297 34.1575 31.8785 36.4927C32.4601 38.828 32.3125 41.2853 31.4557 43.5341C30.5988 45.7829 29.0739 47.7155 27.0859 49.0717C25.0979 50.4279 22.7422 51.1427 20.3358 51.1201C18.1696 51.0971 16.0546 50.4589 14.2374 49.2798C13.7985 48.9949 13.5752 49.0719 13.2364 49.4107C11.6964 50.9507 10.1564 52.4907 8.61638 54.0307C8.43812 54.2663 8.21118 54.4607 7.951 54.6007C7.69082 54.7408 7.40352 54.823 7.10867 54.842C6.81382 54.8609 6.51835 54.8161 6.24239 54.7106C5.96642 54.605 5.71645 54.4412 5.5095 54.2304C5.30255 54.0195 5.14348 53.7665 5.04312 53.4886C4.94277 53.2107 4.90349 52.9145 4.92796 52.62C4.95244 52.3256 5.04009 52.0399 5.18494 51.7824C5.3298 51.5249 5.52845 51.3016 5.76738 51.1278L10.2411 46.6618L10.7801 46.0766ZM20.2742 47.0314C21.7949 47.0628 23.291 46.6431 24.5735 45.8252C25.856 45.0073 26.8675 43.8279 27.4804 42.4358C28.0934 41.0437 28.2802 39.5012 28.0175 38.003C27.7547 36.5047 27.0541 35.1179 26.0041 34.0174C24.954 32.9169 23.6015 32.1521 22.1172 31.8194C20.6329 31.4868 19.0834 31.6012 17.6641 32.1482C16.2448 32.6952 15.0192 33.6504 14.1422 34.8931C13.2651 36.1359 12.7758 37.6106 12.7359 39.1312C12.7093 40.1469 12.884 41.1578 13.2499 42.1057C13.6158 43.0536 14.1657 43.9196 14.8678 44.654C15.57 45.3884 16.4106 45.9766 17.3411 46.3846C18.2716 46.7926 19.2737 47.0124 20.2896 47.0314H20.2742Z" fill="white"/>
<path id="Vector_3" d="M69.7695 21.5602C65.5037 21.5602 61.2995 21.5602 57.1338 21.5602C56.5517 21.5422 55.9994 21.2982 55.594 20.8799C55.1887 20.4616 54.9622 19.9019 54.9624 19.3195C54.9085 15.1615 54.9624 10.9958 54.9624 6.76077C55.8746 6.65327 56.7993 6.74343 57.6735 7.0251C58.5478 7.30678 59.3512 7.77337 60.029 8.39317C62.7651 11.0112 65.4524 13.7062 68.0909 16.4782C68.7151 17.1578 69.1876 17.9624 69.477 18.8386C69.7664 19.7148 69.8661 20.6425 69.7695 21.5602Z" fill="white"/>
</g>
</svg>
