<svg width="60" height="60" viewBox="0 0 60 60" fill="none" xmlns="http://www.w3.org/2000/svg">
<path d="M28.9318 38.7722C27.1231 38.4433 25.5135 37.4233 24.444 35.9281C23.3744 34.433 22.9289 32.5802 23.2018 30.7622C23.4171 29.5132 23.9725 28.3477 24.807 27.3938C25.6415 26.4398 26.7229 25.7344 27.9323 25.3551C29.1416 24.9757 30.4321 24.9371 31.662 25.2435C32.8918 25.5498 34.0135 26.1893 34.9035 27.0916C35.7936 27.9939 36.4178 29.1241 36.7073 30.358C36.9969 31.592 36.9407 32.8818 36.5449 34.0859C36.1491 35.29 35.429 36.3616 34.4638 37.1831C33.4986 38.0045 32.3257 38.544 31.0738 38.7422C32.5065 38.7143 33.9272 39.0075 35.2318 39.6002C39.0658 41.4002 41.0758 44.4542 41.2318 48.6902C41.2798 49.9382 41.2318 51.1862 41.2318 52.4342C41.2441 52.9393 41.1539 53.4416 40.9666 53.9107C40.7793 54.3799 40.4989 54.8063 40.1422 55.1641C39.7856 55.5219 39.3601 55.8036 38.8915 55.9924C38.4229 56.1811 37.9209 56.2729 37.4158 56.2622C32.4558 56.2622 27.4938 56.2622 22.5298 56.2622C22.0299 56.2719 21.5331 56.181 21.0691 55.9947C20.6051 55.8084 20.1834 55.5306 19.829 55.1779C19.4746 54.8252 19.1948 54.4047 19.0063 53.9416C18.8178 53.4785 18.7245 52.9822 18.7318 52.4822C18.6717 50.8235 18.7077 49.1628 18.8398 47.5082C19.1167 45.124 20.2524 42.9221 22.0347 41.3143C23.8169 39.7066 26.1237 38.8029 28.5238 38.7722C28.6558 38.7662 28.7998 38.7722 28.9318 38.7722Z" fill="white"/>
<path d="M46.2001 37.4038C47.1802 37.5404 48.1502 37.7409 49.1041 38.0038C50.7836 38.5619 52.2503 39.624 53.3046 41.0454C54.3589 42.4669 54.9495 44.1787 54.9961 45.9479C54.9961 46.9438 54.9961 47.9398 54.9961 48.9478C54.9794 49.8558 54.6202 50.7239 53.9904 51.3782C53.3606 52.0325 52.5068 52.4245 51.6001 52.4758C49.0441 52.5538 46.4881 52.4758 43.9261 52.4758C43.9261 52.4758 43.8601 52.4758 43.7641 52.3979C43.7641 51.2458 43.7641 50.0578 43.7641 48.8698C43.8176 46.043 42.8864 43.2856 41.1301 41.0698C40.5301 40.2898 39.7861 39.6119 39.0781 38.8559C40.5622 37.8951 42.303 37.4076 44.0701 37.4578C40.4701 36.0718 38.9101 33.7859 39.5161 30.6959C39.793 29.3913 40.5241 28.2275 41.5792 27.4118C42.6343 26.5961 43.9447 26.1816 45.2769 26.2421C46.6091 26.3027 47.8766 26.8343 48.8533 27.7423C49.8301 28.6503 50.4527 29.8756 50.6101 31.1999C51.0001 34.0438 49.2001 36.4619 46.2001 37.4038Z" fill="white"/>
<path d="M14.0762 37.5054C10.4102 36.1134 8.85016 33.7614 9.49216 30.6774C9.71166 29.6864 10.1948 28.773 10.8906 28.0339C11.5864 27.2948 12.4689 26.7574 13.445 26.4785C14.421 26.1996 15.4542 26.1896 16.4354 26.4495C17.4167 26.7094 18.3095 27.2296 19.0195 27.9551C19.7294 28.6806 20.2302 29.5844 20.4689 30.571C20.7076 31.5576 20.6753 32.5904 20.3754 33.5602C20.0755 34.5299 19.5192 35.4007 18.7652 36.0803C18.0113 36.76 17.0877 37.2234 16.0922 37.4214C16.9218 37.5149 17.7452 37.6571 18.5582 37.8474C19.4164 38.1321 20.2595 38.4605 21.0842 38.8314C20.8562 39.0474 20.7542 39.1554 20.6462 39.2514C19.3022 40.3768 18.2156 41.7778 17.4599 43.3595C16.7043 44.9412 16.2972 46.6668 16.2662 48.4194C16.2302 49.7574 16.2662 51.1014 16.2662 52.5054H8.94616C8.42327 52.5385 7.89932 52.4603 7.40883 52.2761C6.91834 52.0919 6.47246 51.8058 6.10057 51.4368C5.72868 51.0677 5.43922 50.624 5.25127 50.135C5.06332 49.6459 4.98114 49.1226 5.01016 48.5994C4.94711 47.1959 5.01742 45.7896 5.22016 44.3994C5.61518 42.4679 6.6602 40.7301 8.18107 39.4757C9.70194 38.2212 11.6068 37.5258 13.5782 37.5054H14.0762Z" fill="white"/>
<path d="M24.3721 15.984C24.8161 14.634 24.2642 13.482 23.2742 12.45C22.9115 12.0394 22.5748 11.6066 22.2661 11.154C21.4621 10.08 21.8461 8.94601 23.1421 8.56201C24.0961 8.28001 25.0622 8.03401 25.9982 7.71001C26.3515 7.57989 26.6627 7.35585 26.8982 7.06201C27.4982 6.24001 28.0982 5.35801 28.6982 4.51201C28.8302 4.27453 29.0233 4.07667 29.2575 3.93891C29.4917 3.80116 29.7584 3.72852 30.0301 3.72852C30.3019 3.72852 30.5686 3.80116 30.8028 3.93891C31.037 4.07667 31.2301 4.27453 31.3622 4.51201C31.9621 5.38801 32.5622 6.31201 33.1982 7.15801C33.3705 7.38415 33.6066 7.55343 33.8762 7.64401C34.8721 7.97401 35.8921 8.24401 36.8762 8.55001C38.1721 8.95201 38.5382 10.074 37.7282 11.154C37.1282 12 36.4261 12.816 35.8141 13.674C35.6423 13.9208 35.5483 14.2133 35.5442 14.514C35.5442 15.546 35.6041 16.584 35.6221 17.616C35.6221 19.008 34.6922 19.68 33.3662 19.218C32.4062 18.888 31.4581 18.516 30.4921 18.222C30.1691 18.1261 29.8252 18.1261 29.5021 18.222C28.5121 18.528 27.5522 18.906 26.5742 19.236C26.3249 19.3574 26.0475 19.4091 25.7712 19.3856C25.495 19.3621 25.2303 19.2643 25.0051 19.1025C24.78 18.9407 24.6028 18.721 24.4924 18.4667C24.3821 18.2124 24.3426 17.933 24.3782 17.658C24.3782 17.148 24.3721 16.62 24.3721 15.984Z" fill="white"/>
<path d="M7.13423 19.0795C7.52422 17.9275 6.96623 16.9375 6.10823 16.0255C5.80924 15.6879 5.53265 15.3311 5.28023 14.9575C5.14336 14.7903 5.0509 14.5913 5.01139 14.3789C4.97189 14.1665 4.98662 13.9475 5.05422 13.7423C5.12182 13.5371 5.24011 13.3523 5.39813 13.205C5.55616 13.0576 5.7488 12.9526 5.95823 12.8995C6.75623 12.6475 7.56023 12.4015 8.35823 12.1975C8.56562 12.1504 8.76109 12.0611 8.93246 11.9352C9.10382 11.8093 9.24739 11.6494 9.35422 11.4655C9.78022 10.7935 10.2422 10.1395 10.7042 9.48548C10.8133 9.27393 10.9784 9.09649 11.1816 8.97261C11.3848 8.84873 11.6182 8.7832 11.8562 8.7832C12.0942 8.7832 12.3276 8.84873 12.5308 8.97261C12.734 9.09649 12.8992 9.27393 13.0082 9.48548C13.5062 10.1875 13.9622 10.9135 14.4782 11.5975C14.6646 11.8355 14.9141 12.0163 15.1982 12.1195C16.0262 12.4015 16.8782 12.6115 17.7122 12.8815C17.9344 12.926 18.1409 13.0286 18.3107 13.1787C18.4804 13.3289 18.6074 13.5213 18.6787 13.7365C18.75 13.9516 18.7631 14.1818 18.7167 14.4036C18.6702 14.6254 18.5659 14.831 18.4142 14.9995C17.8802 15.7195 17.3042 16.4155 16.7822 17.1415C16.6335 17.36 16.5483 17.6155 16.5362 17.8795C16.5362 18.7375 16.5962 19.5955 16.6082 20.4535C16.6082 21.6535 15.8222 22.2535 14.6822 21.8395C13.8902 21.5695 13.1102 21.2395 12.2822 21.0115C11.9954 20.9234 11.6893 20.9192 11.4002 20.9995C10.5782 21.2515 9.78622 21.5995 9.00022 21.8515C8.78816 21.9571 8.55118 22.0027 8.31506 21.9831C8.07894 21.9635 7.8527 21.8795 7.66095 21.7404C7.4692 21.6012 7.31927 21.4121 7.22746 21.1937C7.13566 20.9753 7.10548 20.7358 7.14022 20.5015L7.13423 19.0795Z" fill="white"/>
<path d="M43.3799 19.1524C43.7459 17.9524 43.3019 17.0224 42.4799 16.1524C42.169 15.8009 41.8804 15.4302 41.6159 15.0424C41.4484 14.8743 41.3305 14.6632 41.2752 14.4324C41.2199 14.2015 41.2294 13.9599 41.3026 13.7341C41.3758 13.5083 41.5099 13.3071 41.6901 13.1526C41.8703 12.9981 42.0896 12.8963 42.3239 12.8584C43.1459 12.6064 43.9739 12.3964 44.7839 12.1144C45.0684 12.0119 45.318 11.8309 45.5039 11.5924C46.0199 10.9084 46.4759 10.1824 46.9739 9.48044C47.0844 9.27063 47.2501 9.09498 47.4532 8.97245C47.6562 8.84992 47.8888 8.78516 48.1259 8.78516C48.3631 8.78516 48.5957 8.84992 48.7987 8.97245C49.0017 9.09498 49.1674 9.27063 49.2779 9.48044C49.7519 10.1524 50.1719 10.8544 50.6819 11.5024C50.9243 11.7983 51.2412 12.024 51.5999 12.1564C52.3679 12.4384 53.1719 12.6244 53.9519 12.8644C54.186 12.9037 54.405 13.0062 54.585 13.1608C54.7651 13.3155 54.8995 13.5164 54.9736 13.7419C55.0478 13.9674 55.0589 14.2089 55.0057 14.4402C54.9525 14.6715 54.8371 14.8839 54.6719 15.0544C54.1859 15.7084 53.6939 16.3684 53.1719 16.9984C53.036 17.1497 52.9327 17.3275 52.8687 17.5206C52.8047 17.7137 52.7813 17.9179 52.7999 18.1204C52.8539 18.9424 52.8599 19.7644 52.8659 20.5804C52.8909 20.8052 52.856 21.0326 52.7649 21.2396C52.6737 21.4466 52.5295 21.6259 52.3468 21.7592C52.1642 21.8926 51.9495 21.9753 51.7246 21.9991C51.4996 22.0228 51.2724 21.9867 51.0659 21.8944C50.2199 21.6004 49.4099 21.2824 48.5999 21.0004C48.3119 20.9166 48.006 20.9166 47.7179 21.0004C46.9019 21.2524 46.1039 21.6004 45.3179 21.8524C45.1044 21.9555 44.867 21.9992 44.6307 21.9788C44.3944 21.9585 44.168 21.8748 43.9752 21.7367C43.7824 21.5986 43.6304 21.411 43.5352 21.1939C43.4399 20.9767 43.405 20.7378 43.4339 20.5024L43.3799 19.1524Z" fill="white"/>
</svg>
