<svg width="46" height="46" viewBox="0 0 46 46" fill="none" xmlns="http://www.w3.org/2000/svg">
<path d="M20.9989 0.0322266H23.1701C23.2602 0.0623151 23.3524 0.085384 23.4461 0.101227C25.5475 0.235395 27.6024 0.7792 29.4951 1.70203C35.9351 4.92203 39.4495 10.1062 39.9693 17.3052C39.9867 17.531 40.0593 17.749 40.1809 17.94C41.3263 19.6834 42.4809 21.4268 43.6493 23.1472C43.8643 23.4145 43.9816 23.7472 43.9816 24.0902C43.9816 24.4333 43.8643 24.766 43.6493 25.0332C42.7802 26.3294 41.5052 27.3003 40.0245 27.7932C39.9113 27.8275 39.8091 27.891 39.7283 27.9775C39.6475 28.0639 39.591 28.1701 39.5645 28.2854C38.715 30.8216 37.8671 33.3531 37.0207 35.88C36.1007 38.571 33.5937 39.8176 30.8981 38.9114L26.7075 37.5314C26.5833 37.49 26.4499 37.4624 26.3441 37.4302C26.3027 37.4762 26.2843 37.4854 26.2843 37.4946C25.9347 38.844 25.5928 40.1994 25.2585 41.561C25.0239 42.481 24.6467 42.7938 23.6669 42.7938H9.51269C8.27529 42.7938 7.75089 42.1268 8.06829 40.9538C8.83189 38.0926 9.59089 35.236 10.3683 32.3794C10.4209 32.2562 10.4281 32.1182 10.3885 31.9902C10.3489 31.8621 10.2651 31.7523 10.1521 31.6802C8.75962 30.5627 7.57201 29.2117 6.64229 27.6874C4.07089 23.4784 3.42229 18.9474 4.45729 14.1588C5.15504 10.6842 6.89247 7.50371 9.4392 5.03913C11.9859 2.57455 15.2216 0.942305 18.7173 0.358827C19.4855 0.220827 20.2399 0.138027 20.9989 0.0322266ZM28.0093 16.2932L28.0921 16.3254C28.0921 16.7026 28.0921 17.0752 28.0921 17.4478C28.0943 17.708 28.1825 17.9602 28.3432 18.1649C28.5038 18.3696 28.7277 18.5154 28.9799 18.5794C29.1746 18.6395 29.381 18.6509 29.5811 18.6127C29.7813 18.5745 29.969 18.4879 30.1279 18.3603C30.2867 18.2328 30.4119 18.0682 30.4925 17.8811C30.573 17.6939 30.6065 17.4899 30.5899 17.2868C30.5899 15.5848 30.5899 13.8874 30.5899 12.19C30.5899 11.0538 29.7481 10.4926 28.6947 10.9296L24.0441 12.88C23.8731 12.9296 23.7145 13.0149 23.5788 13.1302C23.4431 13.2456 23.3334 13.3883 23.2569 13.5491C23.1804 13.71 23.1389 13.8851 23.135 14.0632C23.1312 14.2412 23.1651 14.418 23.2345 14.582C23.307 14.7399 23.4109 14.8813 23.5399 14.9976C23.6688 15.114 23.8201 15.2028 23.9845 15.2588C24.149 15.3147 24.3231 15.3366 24.4962 15.3231C24.6694 15.3095 24.838 15.2609 24.9917 15.18L25.8749 14.8166L25.9117 14.8902C24.7617 16.6198 23.6117 18.3494 22.3835 20.1802C22.2912 20.0403 22.1898 19.9066 22.0799 19.78C20.795 18.4859 19.5054 17.1964 18.2113 15.9114C18.0889 15.767 17.9346 15.6529 17.7606 15.5781C17.5866 15.5034 17.3977 15.4701 17.2086 15.4808C17.0195 15.4915 16.8355 15.5459 16.6711 15.6398C16.5066 15.7337 16.3662 15.8645 16.2609 16.0218C14.884 18.0458 13.5254 20.0821 12.1853 22.1306C12.0908 22.2807 12.0297 22.4493 12.006 22.625C11.9824 22.8008 11.9968 22.9795 12.0482 23.1492C12.0997 23.3189 12.1871 23.4756 12.3043 23.6086C12.4216 23.7415 12.5662 23.8478 12.7281 23.92C13.0192 24.0467 13.3472 24.0593 13.6472 23.9554C13.9471 23.8514 14.197 23.6385 14.3473 23.3588L17.1993 19.09C17.2775 18.9704 17.3695 18.8554 17.4661 18.722L17.7973 19.0394L21.5785 22.8206C22.3697 23.6164 23.1701 23.5428 23.7957 22.6136L27.7517 16.675C27.8345 16.5324 27.9219 16.4128 28.0093 16.2932Z" fill="white"/>
</svg>
