<svg width="42" height="42" viewBox="0 0 42 42" fill="none" xmlns="http://www.w3.org/2000/svg">
<g id="Group 39026">
<g id="Group 38977">
<path id="Vector" d="M41.986 21.7517V40.1993C41.986 41.4354 41.4224 41.9994 40.1916 41.9994H21.7729V35.4194C22.344 35.729 22.9741 35.9141 23.6218 35.9627C24.2694 36.0113 24.9201 35.9223 25.5309 35.7014C26.4205 35.3816 27.1832 34.7833 27.7058 33.9953C28.2328 33.2169 28.503 32.2929 28.4785 31.3531C28.4541 30.4133 28.1363 29.5047 27.5696 28.7547C26.2449 27.0392 24.3612 26.6303 21.8011 27.528V21.7517H22.3319C24.3941 21.7517 26.4563 21.7517 28.5232 21.7517C29.5049 21.7517 30.125 21.0843 29.9653 20.2007C29.9039 19.9613 29.8057 19.733 29.674 19.5239C29.364 19.0235 29.2141 18.4404 29.2443 17.8524C29.2745 17.2645 29.4835 16.6998 29.8432 16.2339C30.1603 15.7607 30.6132 15.3947 31.1423 15.1841C31.6714 14.9735 32.2519 14.9282 32.8072 15.0542C33.3884 15.1468 33.9264 15.4177 34.3471 15.8294C34.7679 16.241 35.0505 16.7732 35.156 17.3525C35.2487 17.7308 35.2641 18.1241 35.2011 18.5085C35.1382 18.893 34.9982 19.2607 34.7896 19.5897C34.1178 20.7412 34.6956 21.7658 36.025 21.7752H41.986V21.7517Z" fill="white"/>
<path id="Vector_2" d="M20.2086 20.2477H14.271C13.9483 20.2084 13.6222 20.2871 13.3529 20.4693C13.0836 20.6516 12.8891 20.9251 12.8054 21.2394C12.7598 21.4537 12.7605 21.6753 12.8075 21.8893C12.8545 22.1033 12.9467 22.3048 13.0779 22.4802C13.3417 22.9316 13.4825 23.4443 13.4863 23.9672C13.4902 24.4901 13.3568 25.0049 13.0996 25.4601C12.8425 25.9153 12.4704 26.2951 12.0207 26.5614C11.571 26.8278 11.0592 26.9715 10.5367 26.9781C10.0141 26.9847 9.49891 26.854 9.04258 26.5991C8.58625 26.3443 8.20473 25.9741 7.93611 25.5255C7.66749 25.0769 7.52117 24.5657 7.51176 24.0429C7.50236 23.5201 7.63019 23.0039 7.88249 22.546C7.9983 22.3534 8.0958 22.1505 8.17373 21.9397C8.23111 21.7656 8.2507 21.5813 8.23118 21.3991C8.21167 21.2169 8.1535 21.0409 8.06056 20.8829C7.96763 20.725 7.84207 20.5887 7.69228 20.4832C7.54249 20.3777 7.37192 20.3054 7.19197 20.2712C6.99017 20.2381 6.78573 20.224 6.5813 20.2289H0.00488281V1.76721C0.00488281 0.564002 0.577971 0 1.78991 0H20.2086V5.81393C19.6265 5.49582 18.9825 5.30758 18.3208 5.26214C17.6592 5.21671 16.9955 5.31516 16.3755 5.55072C15.4906 5.88254 14.7373 6.49279 14.2287 7.28973C13.7178 8.07349 13.4636 8.99705 13.5015 9.93203C13.5394 10.867 13.8674 11.767 14.4401 12.5068C15.7648 14.2129 17.6015 14.6077 20.2086 13.7241V20.2477Z" fill="white"/>
<path id="Vector_3" d="M41.9857 20.2195H36.222C37.2272 17.6862 36.795 15.5524 34.3946 14.0766C33.6086 13.6226 32.7011 13.424 31.7974 13.5082C30.8937 13.5924 30.0384 13.9552 29.3496 14.5466C27.7478 15.8814 27.4049 17.658 28.2645 20.1866H21.7444V19.7166C21.7444 17.6345 21.7444 15.5571 21.7444 13.4797C21.7444 12.4833 21.0304 11.8488 20.1473 12.0415C19.8986 12.1246 19.6606 12.2366 19.438 12.3752C18.9514 12.649 18.3963 12.7768 17.8391 12.7435C17.2818 12.7102 16.7459 12.517 16.2954 12.1872C15.8302 11.8841 15.4647 11.4504 15.245 10.9403C15.0252 10.4303 14.9608 9.86664 15.06 9.32014C15.1212 8.76328 15.345 8.23679 15.7034 7.80635C16.0618 7.3759 16.5389 7.06055 17.0752 6.89963C17.5074 6.7565 17.9667 6.71427 18.4178 6.77619C18.8689 6.8381 19.2998 7.00252 19.6776 7.25683C19.8438 7.37336 20.0349 7.44938 20.2357 7.47881C20.4365 7.50824 20.6414 7.49027 20.834 7.42633C21.0266 7.3624 21.2016 7.25427 21.345 7.11058C21.4884 6.9669 21.5963 6.79165 21.6599 6.59883C21.7219 6.3596 21.7488 6.11261 21.7397 5.86563C21.7397 4.10782 21.7397 2.35001 21.7397 0.592202V0H40.2524C41.422 0 41.9998 0.578103 41.9998 1.75781V20.2195H41.9857ZM37.9365 6.73983L35.5878 9.06634C35.1556 9.50344 35.1181 9.91234 35.4422 10.2554C35.7663 10.5985 36.222 10.5468 36.6306 10.1426C37.5607 9.24964 38.472 8.30964 39.3786 7.40723C39.8484 6.93723 39.8484 6.57063 39.3786 6.09123C38.6505 5.35332 37.9083 4.62012 37.1755 3.88692C36.9594 3.67072 36.7481 3.44512 36.5179 3.23831C36.4493 3.16334 36.3662 3.10314 36.2736 3.06141C36.181 3.01967 36.0808 2.99728 35.9793 2.99559C35.8777 2.9939 35.7769 3.01296 35.6829 3.05159C35.589 3.09023 35.5039 3.14763 35.4329 3.22028C35.3619 3.29294 35.3064 3.37933 35.2699 3.47416C35.2334 3.569 35.2166 3.67029 35.2205 3.77184C35.2245 3.87339 35.2491 3.97307 35.2929 4.06478C35.3366 4.15649 35.3986 4.2383 35.4751 4.30522C35.5831 4.42272 35.7005 4.53552 35.818 4.64832L37.9365 6.73983ZM26.5499 6.73983C27.3673 5.92203 28.147 5.15122 28.8986 4.38982C29.3026 3.98562 29.3308 3.56262 29.0067 3.23361C28.6826 2.90461 28.2551 2.92341 27.8511 3.32291C26.9116 4.26292 25.9721 5.20292 25.0326 6.14293C24.928 6.21456 24.8424 6.31064 24.7833 6.42284C24.7241 6.53504 24.6932 6.65998 24.6932 6.78683C24.6932 6.91368 24.7241 7.03862 24.7833 7.15082C24.8424 7.26302 24.928 7.3591 25.0326 7.43073L27.1747 9.57394C27.433 9.83244 27.682 10.1003 27.9592 10.3447C28.1001 10.4648 28.2808 10.5278 28.4658 10.5215C28.6508 10.5151 28.8268 10.4398 28.9592 10.3103C29.0915 10.1808 29.1707 10.0065 29.1813 9.82155C29.1918 9.63662 29.1329 9.45444 29.0161 9.31074C28.9122 9.18801 28.8008 9.07186 28.6826 8.96294L26.5499 6.73983ZM30.7494 10.3682C30.7225 10.5687 30.7754 10.7716 30.8966 10.9334C31.0179 11.0952 31.1978 11.2028 31.3977 11.233C31.4996 11.2447 31.6029 11.2355 31.7012 11.206C31.7995 11.1764 31.8908 11.1272 31.9694 11.0612C32.0481 10.9953 32.1125 10.914 32.1588 10.8223C32.205 10.7307 32.2322 10.6305 32.2385 10.528C32.7239 8.1279 33.2031 5.72619 33.6759 3.32291C33.7134 3.21945 33.7287 3.10925 33.7208 2.99949C33.7129 2.88973 33.6821 2.78285 33.6303 2.68578C33.5784 2.58872 33.5068 2.50365 33.42 2.43609C33.3332 2.36852 33.2331 2.31998 33.1263 2.29361C32.6848 2.19961 32.3278 2.47221 32.215 3.01271C31.9238 4.45562 31.6372 5.90323 31.346 7.34613L30.7494 10.3682Z" fill="white"/>
<path id="Vector_4" d="M14.4775 21.7793H20.2413V22.2963C20.2413 24.0823 20.2836 25.873 20.2413 27.6543C20.211 27.9272 20.261 28.203 20.3851 28.4478C20.5092 28.6927 20.702 28.8959 20.94 29.0327C21.1779 29.1694 21.4505 29.2337 21.7245 29.2176C21.9984 29.2015 22.2617 29.1058 22.482 28.9421C23.0813 28.5587 23.8009 28.41 24.503 28.5244C25.2051 28.6389 25.8403 29.0086 26.2869 29.5625C26.7437 30.1049 26.9932 30.792 26.9909 31.5012C26.9887 32.2105 26.7348 32.896 26.2746 33.4354C25.8144 33.9749 25.1777 34.3334 24.4779 34.447C23.7782 34.5606 23.0609 34.4219 22.4538 34.0557C21.27 33.3742 20.2601 33.9476 20.2554 35.3107C20.2554 37.3458 20.2554 39.3809 20.2554 41.4207V41.9988H1.77563C0.568391 41.9988 0 41.4301 0 40.2222V21.784H6.57642C6.25489 22.3733 6.06715 23.0263 6.02655 23.6965C5.98596 24.3667 6.09351 25.0376 6.34155 25.6615C6.67192 26.5151 7.26178 27.2434 8.02793 27.7436C8.7974 28.2557 9.7053 28.5195 10.6292 28.4993C11.5532 28.4791 12.4487 28.176 13.1951 27.6308C14.0656 26.9794 14.6672 26.0313 14.8862 24.9659C15.0976 24.0917 15.0459 23.7157 14.4775 21.7793ZM4.03041 35.2684C4.86185 34.4412 5.64163 33.6703 6.41201 32.9183C6.81599 32.5141 6.84887 32.0911 6.52475 31.7621C6.44589 31.6853 6.35156 31.6261 6.24805 31.5885C6.14454 31.551 6.03422 31.5359 5.92444 31.5444C5.81466 31.5528 5.70794 31.5846 5.61139 31.6375C5.51484 31.6905 5.43067 31.7634 5.36448 31.8514C4.42499 32.7914 3.4855 33.7315 2.54601 34.648C2.44522 34.7186 2.36294 34.8125 2.30613 34.9217C2.24932 35.031 2.21965 35.1523 2.21965 35.2754C2.21965 35.3985 2.24932 35.5198 2.30613 35.6291C2.36294 35.7383 2.44522 35.8322 2.54601 35.9029C3.46045 36.8429 4.38115 37.7641 5.30811 38.6665C5.74028 39.0989 6.15365 39.1365 6.49656 38.8122C6.83948 38.4879 6.8019 38.0461 6.37913 37.6184C5.84832 37.0779 5.30811 36.5374 4.7679 36.0063C4.55182 35.7478 4.31225 35.5269 4.03041 35.2684ZM15.4264 35.2308C15.2902 35.3765 15.1868 35.494 15.0741 35.6068C14.3836 36.2977 13.6649 36.9839 12.9978 37.6889C12.8564 37.826 12.7752 38.0137 12.7722 38.2107C12.7691 38.4077 12.8443 38.5978 12.9814 38.7393C13.1184 38.8808 13.306 38.962 13.5029 38.9651C13.6998 38.9682 13.8899 38.8929 14.0313 38.7558C15.0318 37.7782 16.023 36.7818 17.0094 35.7807C17.0805 35.7208 17.1386 35.6472 17.1804 35.5642C17.2221 35.4812 17.2466 35.3906 17.2523 35.2979C17.258 35.2052 17.2448 35.1122 17.2136 35.0248C17.1823 34.9373 17.1337 34.8571 17.0705 34.789C16.0496 33.7424 15.0162 32.7084 13.9702 31.6869C13.8304 31.5644 13.6485 31.5008 13.4628 31.5096C13.2771 31.5184 13.102 31.5988 12.9743 31.7339C12.8539 31.8574 12.7811 32.0197 12.7691 32.1919C12.7571 32.364 12.8065 32.5349 12.9086 32.6739C13.0001 32.7883 13.1007 32.8952 13.2092 32.9935L15.4264 35.2308ZM8.2581 38.8592C8.24349 38.9567 8.24833 39.0563 8.27235 39.1519C8.29637 39.2476 8.33909 39.3376 8.39805 39.4167C8.457 39.4958 8.53103 39.5624 8.61585 39.6127C8.70068 39.6631 8.79462 39.6961 8.89226 39.7099C8.99386 39.7272 9.09796 39.723 9.19785 39.6976C9.29774 39.6722 9.3912 39.6261 9.47219 39.5624C9.55319 39.4986 9.61993 39.4185 9.6681 39.3274C9.71628 39.2362 9.74482 39.136 9.75189 39.0331L11.2175 31.7292C11.2494 31.6283 11.26 31.5219 11.2487 31.4167C11.2375 31.3115 11.2045 31.2098 11.152 31.1179C11.0995 31.0261 11.0285 30.9461 10.9436 30.8831C10.8587 30.82 10.7616 30.7753 10.6585 30.7516C10.5504 30.7236 10.4374 30.72 10.3278 30.741C10.2181 30.7621 10.1145 30.8074 10.0246 30.8736C9.9346 30.9398 9.86049 31.0252 9.80763 31.1236C9.75478 31.222 9.7245 31.3309 9.71901 31.4425C9.42777 32.887 9.13809 34.3331 8.84998 35.7807C8.66678 36.8241 8.46009 37.8675 8.2581 38.8592Z" fill="white"/>
</g>
</g>
</svg>
