<svg width="46" height="46" viewBox="0 0 46 46" fill="none" xmlns="http://www.w3.org/2000/svg">
<g clip-path="url(#clip0_2510_4793)">
<path d="M30.6404 46.0234C29.7382 45.8687 28.8458 45.6613 27.9678 45.4024C23.4046 43.7694 20.709 40.5356 19.858 35.7424C19.8274 35.6204 19.8418 35.4915 19.8984 35.3792C19.9549 35.2669 20.05 35.1787 20.1662 35.1306C23.8462 32.9318 25.8886 29.6658 26.3808 25.4246C26.4321 24.8665 26.4444 24.3055 26.4176 23.7456C26.398 23.6352 26.4195 23.5214 26.4779 23.4257C26.5364 23.33 26.6278 23.2589 26.735 23.2258C28.8321 22.2708 31.1622 21.9479 33.4401 22.2967C35.7179 22.6456 37.8446 23.6511 39.5598 25.19C43.1386 28.4928 44.4174 32.6006 43.1202 37.288C41.823 41.9754 38.557 44.7768 33.8098 45.821C33.4188 45.9084 33.0186 45.9544 32.623 46.0234H30.6404ZM31.6294 25.0428C30.4199 25.0555 29.2239 25.2991 28.1058 25.7604C27.5492 25.9766 27.149 26.2572 27.1628 26.9196C27.1481 27.0909 27.1109 27.2594 27.0524 27.421C26.4183 30.0773 24.9998 32.4815 22.9814 34.321C22.8885 34.4011 22.8126 34.4989 22.7581 34.6087C22.7036 34.7185 22.6716 34.8381 22.664 34.9604C22.8325 36.7065 23.5051 38.366 24.5997 39.7368C25.6943 41.1077 27.1638 42.1308 28.8293 42.6816C30.4948 43.2324 32.2846 43.2871 33.9806 42.8392C35.6767 42.3913 37.206 41.46 38.3824 40.1586C39.5588 38.8573 40.3316 37.2421 40.6066 35.5095C40.8816 33.777 40.6471 32.0018 39.9315 30.4002C39.216 28.7985 38.0503 27.4394 36.5763 26.4882C35.1023 25.5371 33.3836 25.0349 31.6294 25.0428Z" fill="white"/>
<path d="M1.92288 24.302C1.91748 21.9487 2.60939 19.6466 3.91126 17.6862C5.21314 15.7258 7.06662 14.1951 9.23773 13.2872C11.4088 12.3793 13.8003 12.135 16.1101 12.5851C18.42 13.0352 20.5447 14.1595 22.2161 15.8162C23.8874 17.4728 25.0306 19.5875 25.5011 21.8932C25.9717 24.199 25.7486 26.5925 24.86 28.7716C23.9714 30.9507 22.4572 32.8176 20.5084 34.1368C18.5596 35.456 16.2637 36.1683 13.9105 36.1838C10.7472 36.1912 7.70986 34.945 5.4632 32.7182C3.21653 30.4914 1.94356 27.4652 1.92288 24.302ZM4.78408 24.302C4.78591 26.0909 5.3177 27.8392 6.31233 29.3261C7.30695 30.813 8.71981 31.9719 10.3726 32.6564C12.0253 33.341 13.8438 33.5206 15.5985 33.1725C17.3532 32.8244 18.9654 31.9642 20.2317 30.7005C21.4979 29.4369 22.3614 27.8264 22.713 26.0724C23.0647 24.3184 22.8888 22.4995 22.2076 20.8454C21.5264 19.1913 20.3703 17.7761 18.8855 16.7784C17.4006 15.7808 15.6534 15.2454 13.8645 15.24C11.4622 15.2388 9.15742 16.19 7.45531 17.8852C5.7532 19.5804 4.79261 21.8813 4.78408 24.2836V24.302Z" fill="white"/>
<path d="M26.335 22.6461C26.1405 21.2249 25.7148 19.8451 25.0746 18.5613C24.0471 16.5213 22.4739 14.8063 20.5298 13.6071C20.4094 13.5521 20.31 13.4597 20.2462 13.3437C20.1824 13.2277 20.1577 13.0943 20.1756 12.9631C20.3051 10.9546 20.9413 9.01157 22.0248 7.31542C23.1084 5.61927 24.604 4.22528 26.3721 3.26354C28.1402 2.30181 30.1231 1.80368 32.1358 1.81564C34.1484 1.8276 36.1253 2.34927 37.8818 3.33196C39.6383 4.31465 41.1173 5.72632 42.1806 7.43523C43.2439 9.14414 43.857 11.0946 43.9625 13.1045C44.0681 15.1145 43.6627 17.1184 42.7843 18.9293C41.9058 20.7402 40.5829 22.2991 38.939 23.4603C38.8689 23.4981 38.7915 23.5201 38.7121 23.5249C38.6326 23.5297 38.5531 23.5171 38.479 23.4879C34.6472 21.1281 30.659 20.8383 26.519 22.5679C26.4606 22.6004 26.3989 22.6266 26.335 22.6461ZM32.085 4.66934L30.9672 4.76594C28.7495 5.03971 26.7106 6.12158 25.2407 7.80455C23.7708 9.48751 22.973 11.6534 23 13.8877C23.0101 14.1118 23.1017 14.3245 23.2576 14.4857C25.0404 16.1934 26.3143 18.3623 26.9376 20.7509C27.0572 21.2109 27.1722 21.2523 27.6276 21.1143C30.4777 20.2265 33.5418 20.309 36.34 21.3489C36.4696 21.4045 36.6118 21.4245 36.7517 21.4067C36.8916 21.3889 37.0242 21.334 37.1358 21.2477C38.7382 20.167 39.9515 18.6006 40.5974 16.779C41.2432 14.9573 41.2876 12.9765 40.7238 11.1277C40.1544 9.2745 39.0107 7.65017 37.458 6.48931C35.9052 5.32844 34.0236 4.69111 32.085 4.66934Z" fill="white"/>
<path d="M31.0683 25.709C35.9903 25.7044 39.6197 28.9796 40.0199 33.3266C40.144 34.4227 40.0511 35.5325 39.7463 36.5927C39.4415 37.6529 38.9309 38.6426 38.2436 39.5055C37.5563 40.3683 36.7058 41.0873 35.7407 41.6215C34.7755 42.1556 33.7146 42.4944 32.6185 42.6186C31.5224 42.7427 30.4126 42.6498 29.3524 42.345C28.2922 42.0402 27.3025 41.5296 26.4396 40.8423C24.697 39.4543 23.5772 37.4309 23.3265 35.2172C23.3238 35.1328 23.3379 35.0487 23.3679 34.9697C23.3979 34.8907 23.4432 34.8185 23.5013 34.7572C25.737 32.6763 27.2516 29.9371 27.8253 26.9372C27.8517 26.8393 27.8979 26.7479 27.9613 26.6688C28.0246 26.5896 28.1036 26.5244 28.1933 26.4772C29.0924 26.0363 30.0691 25.7753 31.0683 25.709ZM32.7657 36.6478C31.9331 36.6478 31.1419 36.6478 30.3553 36.6478C30.2081 36.6478 30.0701 36.8502 29.9275 36.9606C30.0655 37.071 30.1943 37.2504 30.3507 37.2734C30.6845 37.299 31.0197 37.299 31.3535 37.2734C31.3535 37.6046 31.3535 37.876 31.3535 38.1474C31.3535 38.4188 31.3535 38.6488 31.6709 38.6488C31.9883 38.6488 32.0159 38.4096 32.0113 38.1612C32.0067 37.9128 32.0113 37.5954 32.0113 37.2734H32.8715C33.3867 37.2734 33.4603 37.1952 33.4603 36.6662C33.4603 35.9072 33.4603 35.1436 33.4603 34.3662C33.4603 33.7866 33.4005 33.7314 32.8117 33.7314H30.5807V31.5464C31.3949 31.5464 32.1815 31.5464 32.9727 31.5464C33.2073 31.5464 33.4327 31.505 33.4327 31.2244C33.4327 30.9438 33.2257 30.884 32.9727 30.884H32.0113C32.0113 30.562 32.0113 30.2906 32.0113 30.0238C32.0113 29.757 32.0113 29.5132 31.6939 29.504C31.3765 29.4948 31.3535 29.7846 31.3535 30.033C31.3535 30.2814 31.3535 30.5712 31.3535 30.884C31.0131 30.884 30.7279 30.884 30.4335 30.884C30.0425 30.884 29.8907 31.0404 29.8999 31.4268C29.8999 32.2134 29.8999 33.0046 29.8999 33.7958C29.8999 34.3754 29.9597 34.4306 30.5485 34.4352H32.7519L32.7657 36.6478Z" fill="white"/>
<path d="M13.8001 15.879C15.4603 15.8726 17.0851 16.3589 18.4689 17.2764C19.8526 18.1938 20.933 19.5012 21.5734 21.033C22.2138 22.5647 22.3854 24.252 22.0664 25.8814C21.7474 27.5107 20.9522 29.0087 19.7815 30.1859C18.6107 31.3631 17.1171 32.1665 15.4895 32.4944C13.862 32.8223 12.1737 32.66 10.6385 32.0281C9.10322 31.3961 7.78996 30.3229 6.86492 28.9442C5.93988 27.5655 5.44465 25.9434 5.44191 24.2832C5.43823 22.0611 6.31618 19.9283 7.88313 18.3527C9.45007 16.7771 11.578 15.8875 13.8001 15.879ZM13.8323 17.6178C13.6974 17.7033 13.5725 17.8036 13.4597 17.9168C12.0061 19.7154 10.5617 21.5232 9.10811 23.3218C9.03489 23.4034 8.99327 23.5086 8.99074 23.6182C8.98821 23.7279 9.02494 23.8348 9.09431 23.9198C10.5571 26.137 12.0168 28.3557 13.4735 30.576C13.7265 30.9578 13.9703 30.9532 14.2279 30.576C15.6769 28.3818 17.1167 26.1876 18.5703 23.998C18.6586 23.8944 18.704 23.7609 18.6972 23.625C18.6903 23.489 18.6318 23.3608 18.5335 23.2666C17.0845 21.4956 15.6401 19.7016 14.1957 17.9398C14.0904 17.8225 13.9749 17.7148 13.8507 17.6178H13.8323Z" fill="white"/>
<path d="M27.6508 20.4013C27.2276 19.4399 26.8458 18.4785 26.3904 17.5585C25.77 16.328 24.944 15.2125 23.9478 14.2603C23.849 14.1701 23.772 14.0586 23.7226 13.9343C23.6732 13.81 23.6527 13.6761 23.6626 13.5427C23.7238 11.4869 24.5367 9.52499 25.9474 8.02837C27.3581 6.53175 29.2687 5.60437 31.3172 5.42185C33.3658 5.23933 35.4102 5.81433 37.0632 7.03797C38.7163 8.26162 39.8633 10.049 40.287 12.0615C40.9402 15.5483 39.804 18.4003 36.9566 20.5577C36.8728 20.6132 36.7785 20.6508 36.6796 20.6682C36.5807 20.6856 36.4792 20.6824 36.3816 20.6589C33.622 19.6935 30.6332 19.5956 27.8164 20.3783C27.7618 20.3901 27.7065 20.3978 27.6508 20.4013ZM33.6952 12.7561C34.006 12.4472 34.2058 12.0441 34.2632 11.6096C34.3206 11.1752 34.2325 10.734 34.0126 10.3549C33.5526 9.47632 32.697 9.28312 31.7678 9.31072C31.7938 9.063 31.7938 8.81323 31.7678 8.56552C31.731 8.41832 31.5746 8.29412 31.4734 8.16072C31.3492 8.29412 31.1652 8.41372 31.1238 8.56552C31.0935 8.81915 31.0935 9.07548 31.1238 9.32912C30.6638 9.32912 30.2406 9.32912 29.8266 9.32912C29.5598 9.32912 29.1642 9.21872 29.155 9.64652C29.1458 10.0743 29.5322 9.96852 29.8082 9.98692L30.2682 10.0099V16.0221C30.0888 16.0221 29.9324 16.0221 29.776 16.0221C29.523 16.0221 29.1458 15.9301 29.1458 16.3349C29.1458 16.7397 29.5322 16.6661 29.799 16.6707C30.2268 16.6707 30.65 16.6707 31.11 16.6707V17.5355C31.11 17.7793 31.1928 17.9955 31.4642 17.9495C31.593 17.9495 31.7448 17.7011 31.7724 17.5447C31.798 17.2524 31.798 16.9584 31.7724 16.6661C32.2324 16.6661 32.6602 16.6661 33.0742 16.6661C33.5072 16.6564 33.9253 16.5058 34.2651 16.237C34.6048 15.9683 34.8477 15.5962 34.9569 15.177C35.0661 14.7578 35.0357 14.3145 34.8703 13.9142C34.7049 13.5138 34.4134 13.1783 34.0402 12.9585L33.6952 12.7561Z" fill="white"/>
<path d="M9.79785 23.5293L13.8321 18.5107L17.8939 23.5247L15.6721 24.6931C15.1339 24.9737 14.6049 25.2635 14.0621 25.5257C13.9951 25.5541 13.9231 25.5687 13.8505 25.5687C13.7778 25.5687 13.7058 25.5541 13.6389 25.5257C12.3739 24.8909 11.1181 24.2239 9.79785 23.5293Z" fill="white"/>
<path d="M10.4188 24.6055C10.796 24.7987 11.1732 24.9873 11.5458 25.1851C12.1852 25.5163 12.8246 25.8383 13.4502 26.1879C13.5627 26.26 13.6937 26.2983 13.8274 26.2983C13.9611 26.2983 14.092 26.26 14.2046 26.1879C15.212 25.6405 16.2378 25.1253 17.328 24.6607L13.8366 29.9507L10.3682 24.6745L10.4188 24.6055Z" fill="white"/>
<path d="M30.9351 15.9895V13.3399C31.7171 13.3399 32.4761 13.2893 33.2351 13.3399C33.5645 13.3803 33.8657 13.5464 34.0757 13.8036C34.2856 14.0607 34.3882 14.3889 34.3621 14.7199C34.3567 15.052 34.2255 15.3696 33.9949 15.6087C33.7644 15.8478 33.4517 15.9904 33.1201 16.0079C32.4761 16.0355 31.8275 16.0079 31.1835 16.0079C31.1003 16.0073 31.0174 16.0011 30.9351 15.9895Z" fill="white"/>
<path d="M30.9351 12.7141V9.9541C31.5518 9.96411 32.1669 10.021 32.7751 10.1243C33.0433 10.2143 33.2711 10.396 33.4184 10.6376C33.5657 10.8791 33.6229 11.1649 33.5801 11.4445C33.5658 11.7266 33.4575 11.9959 33.2724 12.2093C33.0873 12.4227 32.8361 12.568 32.5589 12.6221C32.0197 12.6829 31.4776 12.7136 30.9351 12.7141Z" fill="white"/>
</g>
<defs>
<clipPath id="clip0_2510_4793">
<rect width="46" height="46" fill="white"/>
</clipPath>
</defs>
</svg>
