<svg width="45" height="45" viewBox="0 0 45 45" fill="none" xmlns="http://www.w3.org/2000/svg">
<g id="Group 38977">
<path id="Vector" d="M44.6903 23.1407V42.7657C44.6903 44.0807 44.0903 44.6807 42.7803 44.6807H23.1753V37.6807C23.7831 38.01 24.4538 38.207 25.1432 38.2587C25.8326 38.3104 26.5251 38.2157 27.1753 37.9807C28.1222 37.6405 28.934 37.004 29.4903 36.1657C30.0512 35.3376 30.3388 34.3547 30.3128 33.3549C30.2868 32.3551 29.9485 31.3885 29.3453 30.5907C27.9353 28.7657 25.9303 28.3307 23.2053 29.2857V23.1407H23.7703C25.9653 23.1407 28.1603 23.1407 30.3603 23.1407C31.4053 23.1407 32.0653 22.4307 31.8953 21.4907C31.83 21.236 31.7254 20.9931 31.5853 20.7707C31.2553 20.2383 31.0957 19.618 31.1279 18.9925C31.16 18.367 31.3824 17.7663 31.7653 17.2707C32.1028 16.7672 32.585 16.3779 33.1482 16.1539C33.7113 15.9298 34.3292 15.8816 34.9203 16.0157C35.5389 16.1142 36.1116 16.4024 36.5594 16.8403C37.0072 17.2783 37.308 17.8444 37.4203 18.4607C37.519 18.8632 37.5354 19.2815 37.4684 19.6905C37.4013 20.0995 37.2523 20.4907 37.0303 20.8407C36.3153 22.0657 36.9303 23.1557 38.3453 23.1657H44.6903V23.1407Z" fill="white"/>
<path id="Vector_2" d="M21.5104 21.54H15.1904C14.8468 21.4982 14.4998 21.5819 14.2131 21.7758C13.9264 21.9697 13.7195 22.2606 13.6304 22.595C13.5818 22.823 13.5826 23.0587 13.6326 23.2864C13.6826 23.514 13.7807 23.7284 13.9204 23.915C14.2012 24.3952 14.3511 24.9407 14.3552 25.497C14.3592 26.0532 14.2173 26.6008 13.9436 27.0851C13.6698 27.5694 13.2738 27.9733 12.7951 28.2567C12.3164 28.5401 11.7717 28.6929 11.2155 28.7C10.6593 28.707 10.1109 28.568 9.62518 28.2968C9.13945 28.0257 8.73336 27.6319 8.44744 27.1547C8.16152 26.6775 8.00578 26.1336 7.99576 25.5775C7.98575 25.0213 8.12181 24.4722 8.39037 23.985C8.51363 23.7802 8.61742 23.5642 8.70037 23.34C8.76145 23.1548 8.78229 22.9588 8.76152 22.7649C8.74075 22.571 8.67883 22.3838 8.57991 22.2158C8.48099 22.0478 8.34735 21.9028 8.18791 21.7906C8.02847 21.6783 7.84691 21.6014 7.65537 21.565C7.44058 21.5298 7.22297 21.5148 7.00537 21.52H0.00537109V1.88C0.00537109 0.6 0.615371 0 1.90537 0H21.5104V6.185C20.8908 5.84659 20.2053 5.64633 19.501 5.598C18.7968 5.54967 18.0903 5.6544 17.4304 5.905C16.4885 6.258 15.6866 6.9072 15.1454 7.755C14.6015 8.58878 14.3309 9.57129 14.3713 10.5659C14.4116 11.5606 14.7608 12.518 15.3704 13.305C16.7804 15.12 18.7354 15.54 21.5104 14.6V21.54Z" fill="white"/>
<path id="Vector_3" d="M44.6902 21.51H38.5552C39.6252 18.815 39.1652 16.545 36.6102 14.975C35.7735 14.4921 34.8075 14.2808 33.8456 14.3703C32.8837 14.4599 31.9733 14.8459 31.2402 15.475C29.5352 16.895 29.1702 18.785 30.0852 21.475H23.1452V20.975C23.1452 18.76 23.1452 16.55 23.1452 14.34C23.1452 13.28 22.3852 12.605 21.4452 12.81C21.1805 12.8984 20.9271 13.0176 20.6902 13.165C20.1723 13.4563 19.5814 13.5923 18.9883 13.5569C18.3951 13.5214 17.8247 13.3159 17.3452 12.965C16.85 12.6426 16.461 12.1812 16.2271 11.6386C15.9931 11.096 15.9246 10.4964 16.0302 9.915C16.0954 9.3226 16.3336 8.76251 16.715 8.30459C17.0965 7.84667 17.6043 7.51119 18.1752 7.34C18.6353 7.18773 19.1241 7.14281 19.6043 7.20868C20.0844 7.27454 20.5431 7.44945 20.9452 7.72C21.1221 7.84397 21.3255 7.92484 21.5393 7.95615C21.753 7.98746 21.9711 7.96834 22.1761 7.90032C22.3811 7.8323 22.5674 7.71727 22.7201 7.56442C22.8727 7.41156 22.9875 7.22512 23.0552 7.02C23.1212 6.7655 23.1498 6.50275 23.1402 6.24C23.1402 4.37 23.1402 2.5 23.1402 0.63V0H42.8452C44.0902 0 44.7052 0.615 44.7052 1.87V21.51H44.6902ZM40.3802 7.17L37.8802 9.645C37.4202 10.11 37.3802 10.545 37.7252 10.91C38.0702 11.275 38.5552 11.22 38.9902 10.79C39.9802 9.84 40.9502 8.84 41.9152 7.88C42.4152 7.38 42.4152 6.99 41.9152 6.48C41.1402 5.695 40.3502 4.915 39.5702 4.135C39.3402 3.905 39.1152 3.665 38.8702 3.445C38.7972 3.36524 38.7087 3.3012 38.6101 3.2568C38.5116 3.2124 38.405 3.18858 38.2969 3.18678C38.1888 3.18499 38.0814 3.20526 37.9814 3.24636C37.8814 3.28746 37.7909 3.34852 37.7153 3.42582C37.6397 3.50311 37.5807 3.59501 37.5418 3.6959C37.5029 3.79679 37.4851 3.90454 37.4893 4.01257C37.4935 4.12061 37.5197 4.22665 37.5662 4.32421C37.6128 4.42177 37.6788 4.50881 37.7602 4.58C37.8752 4.705 38.0002 4.825 38.1252 4.945L40.3802 7.17ZM28.2602 7.17C29.1302 6.3 29.9602 5.48 30.7602 4.67C31.1902 4.24 31.2202 3.79 30.8752 3.44C30.5302 3.09 30.0752 3.11 29.6452 3.535C28.6452 4.535 27.6452 5.535 26.6452 6.535C26.5338 6.6112 26.4427 6.71342 26.3797 6.83278C26.3168 6.95214 26.2839 7.08505 26.2839 7.22C26.2839 7.35495 26.3168 7.48786 26.3797 7.60722C26.4427 7.72659 26.5338 7.8288 26.6452 7.905L28.9252 10.185C29.2002 10.46 29.4652 10.745 29.7602 11.005C29.9102 11.1327 30.1026 11.1998 30.2995 11.193C30.4964 11.1862 30.6837 11.1061 30.8246 10.9683C30.9655 10.8306 31.0498 10.6451 31.061 10.4484C31.0722 10.2517 31.0095 10.0579 30.8852 9.905C30.7746 9.77444 30.6561 9.65087 30.5302 9.535L28.2602 7.17ZM32.7302 11.03C32.7015 11.2432 32.7578 11.4591 32.8869 11.6312C33.0159 11.8033 33.2075 11.9178 33.4202 11.95C33.5287 11.9624 33.6386 11.9526 33.7433 11.9212C33.8479 11.8898 33.945 11.8374 34.0288 11.7672C34.1125 11.6971 34.1811 11.6106 34.2303 11.5131C34.2795 11.4156 34.3084 11.309 34.3152 11.2C34.8318 8.64667 35.3418 6.09167 35.8452 3.535C35.885 3.42493 35.9013 3.3077 35.8929 3.19093C35.8846 3.07416 35.8517 2.96046 35.7966 2.8572C35.7414 2.75395 35.6651 2.66345 35.5727 2.59157C35.4803 2.5197 35.3738 2.46805 35.2602 2.44C34.7902 2.34 34.4102 2.63 34.2902 3.205C33.9802 4.74 33.6752 6.28 33.3652 7.815L32.7302 11.03Z" fill="white"/>
<path id="Vector_4" d="M15.41 23.1699H21.545V23.7199C21.545 25.6199 21.59 27.5249 21.545 29.4199C21.5127 29.7102 21.5659 30.0036 21.698 30.2641C21.8302 30.5245 22.0354 30.7408 22.2887 30.8863C22.5419 31.0317 22.8322 31.1001 23.1237 31.083C23.4153 31.0659 23.6955 30.964 23.93 30.7899C24.5679 30.382 25.3339 30.2238 26.0812 30.3456C26.8285 30.4674 27.5046 30.8606 27.98 31.4499C28.4662 32.0269 28.7318 32.7578 28.7294 33.5124C28.727 34.2669 28.4568 34.9961 27.9669 35.57C27.4771 36.1439 26.7993 36.5253 26.0545 36.6461C25.3097 36.767 24.5462 36.6195 23.9 36.2299C22.64 35.5049 21.565 36.1149 21.56 37.5649C21.56 39.7299 21.56 41.8949 21.56 44.0649V44.6799H1.89C0.605 44.6799 0 44.0749 0 42.7899V23.1749H7C6.65776 23.8019 6.45793 24.4966 6.41472 25.2095C6.37151 25.9225 6.48598 26.6362 6.75 27.2999C7.10165 28.208 7.7295 28.9828 8.545 29.5149C9.36404 30.0597 10.3304 30.3403 11.3139 30.3188C12.2973 30.2974 13.2505 29.9749 14.045 29.3949C14.9716 28.7019 15.612 27.6933 15.845 26.5599C16.07 25.6299 16.015 25.2299 15.41 23.1699ZM4.29 37.5199C5.175 36.6399 6.005 35.8199 6.825 35.0199C7.255 34.5899 7.29 34.1399 6.945 33.7899C6.86106 33.7081 6.76065 33.6452 6.65048 33.6052C6.5403 33.5653 6.42288 33.5493 6.30603 33.5583C6.18918 33.5673 6.07559 33.6011 5.97282 33.6574C5.87004 33.7137 5.78045 33.7913 5.71 33.8849C4.71 34.8849 3.71 35.8849 2.71 36.8599C2.60272 36.9351 2.51513 37.035 2.45466 37.1512C2.39419 37.2674 2.36262 37.3964 2.36262 37.5274C2.36262 37.6584 2.39419 37.7875 2.45466 37.9037C2.51513 38.0199 2.60272 38.1198 2.71 38.1949C3.68333 39.1949 4.66333 40.1749 5.65 41.1349C6.11 41.5949 6.55 41.6349 6.915 41.2899C7.28 40.9449 7.24 40.4749 6.79 40.0199C6.225 39.4449 5.65 38.8699 5.075 38.3049C4.845 38.0299 4.59 37.7949 4.29 37.5199ZM16.42 37.4799C16.275 37.6349 16.165 37.7599 16.045 37.8799C15.31 38.6149 14.545 39.3449 13.835 40.0949C13.6845 40.2408 13.5981 40.4405 13.5948 40.65C13.5915 40.8596 13.6716 41.0619 13.8175 41.2124C13.9634 41.3629 14.1631 41.4493 14.3726 41.4526C14.5822 41.4559 14.7845 41.3758 14.935 41.2299C16 40.1899 17.055 39.1299 18.105 38.0649C18.1806 38.0013 18.2425 37.9229 18.2869 37.8347C18.3314 37.7464 18.3574 37.65 18.3635 37.5513C18.3696 37.4527 18.3556 37.3538 18.3223 37.2608C18.289 37.1677 18.2372 37.0824 18.17 37.0099C17.0833 35.8966 15.9833 34.7966 14.87 33.7099C14.7212 33.5795 14.5276 33.5119 14.3299 33.5212C14.1323 33.5306 13.9459 33.6161 13.81 33.7599C13.6818 33.8913 13.6044 34.0639 13.5916 34.2471C13.5787 34.4302 13.6313 34.612 13.74 34.7599C13.8375 34.8816 13.9445 34.9953 14.06 35.0999L16.42 37.4799ZM8.79 41.3399C8.77445 41.4437 8.7796 41.5496 8.80517 41.6514C8.83073 41.7532 8.8762 41.8489 8.93896 41.9331C9.00171 42.0172 9.0805 42.0881 9.17079 42.1416C9.26108 42.1951 9.36107 42.2302 9.465 42.2449C9.57315 42.2633 9.68395 42.2589 9.79028 42.2319C9.8966 42.2048 9.99607 42.1558 10.0823 42.088C10.1685 42.0201 10.2395 41.935 10.2908 41.838C10.3421 41.741 10.3725 41.6344 10.38 41.5249L11.94 33.7549C11.9739 33.6476 11.9852 33.5344 11.9732 33.4225C11.9613 33.3105 11.9262 33.2023 11.8703 33.1046C11.8144 33.0069 11.7389 32.9218 11.6485 32.8548C11.558 32.7877 11.4547 32.7401 11.345 32.7149C11.23 32.6851 11.1097 32.6812 10.993 32.7037C10.8763 32.7261 10.766 32.7743 10.6702 32.8447C10.5745 32.915 10.4956 33.0059 10.4393 33.1106C10.3831 33.2153 10.3508 33.3312 10.345 33.4499C10.035 34.9866 9.72667 36.5249 9.42 38.0649C9.225 39.1749 9.005 40.2849 8.79 41.3399Z" fill="white"/>
</g>
</svg>
