<svg width="40" height="40" viewBox="0 0 40 40" fill="none" xmlns="http://www.w3.org/2000/svg">
<g id="Artboard 1 copy 2 11">
<path id="Vector" d="M19.288 25.8488C18.0823 25.6295 17.0092 24.9495 16.2962 23.9527C15.5831 22.956 15.2861 21.7208 15.468 20.5088C15.6115 19.6761 15.9818 18.8991 16.5382 18.2632C17.0945 17.6272 17.8154 17.157 18.6217 16.9041C19.4279 16.6511 20.2882 16.6254 21.1081 16.8296C21.9281 17.0339 22.6758 17.4602 23.2692 18.0617C23.8626 18.6632 24.2787 19.4167 24.4717 20.2393C24.6648 21.062 24.6273 21.9219 24.3634 22.7246C24.0996 23.5273 23.6195 24.2417 22.9761 24.7894C22.3326 25.337 21.5506 25.6967 20.716 25.8288C21.6711 25.8102 22.6183 26.0057 23.488 26.4008C26.044 27.6008 27.384 29.6368 27.488 32.4608C27.52 33.2928 27.488 34.1248 27.488 34.9568C27.4962 35.2935 27.4361 35.6284 27.3112 35.9411C27.1864 36.2539 26.9994 36.5382 26.7616 36.7767C26.5239 37.0152 26.2402 37.2031 25.9278 37.3289C25.6154 37.4547 25.2807 37.5159 24.944 37.5088C21.6374 37.5088 18.3294 37.5088 15.02 37.5088C14.6868 37.5153 14.3556 37.4546 14.0463 37.3304C13.7369 37.2062 13.4557 37.021 13.2195 36.7859C12.9832 36.5508 12.7967 36.2705 12.671 35.9617C12.5454 35.653 12.4831 35.3221 12.488 34.9888C12.448 33.883 12.472 32.7758 12.56 31.6728C12.7446 30.0833 13.5018 28.6154 14.6899 27.5435C15.8781 26.4717 17.416 25.8692 19.016 25.8488C19.104 25.8448 19.2 25.8488 19.288 25.8488Z" fill="white"/>
<path id="Vector_2" d="M30.7998 24.9352C31.4531 25.0263 32.0998 25.1599 32.7358 25.3352C33.8554 25.7073 34.8332 26.4153 35.5361 27.363C36.2389 28.3106 36.6327 29.4518 36.6638 30.6312C36.6638 31.2952 36.6638 31.9592 36.6638 32.6312C36.6526 33.2366 36.4131 33.8153 35.9933 34.2515C35.5734 34.6877 35.0042 34.949 34.3998 34.9832C32.6958 35.0352 30.9918 34.9832 29.2838 34.9832C29.2838 34.9832 29.2398 34.9832 29.1758 34.9312C29.1758 34.1632 29.1758 33.3712 29.1758 32.5792C29.2114 30.6947 28.5906 28.8564 27.4198 27.3792C27.0198 26.8592 26.5238 26.4072 26.0518 25.9032C27.0411 25.2628 28.2016 24.9378 29.3798 24.9712C26.9798 24.0472 25.9398 22.5232 26.3438 20.4632C26.5283 19.5936 27.0158 18.8177 27.7191 18.2739C28.4225 17.7301 29.2961 17.4538 30.1843 17.4941C31.0724 17.5345 31.9174 17.8889 32.5686 18.4942C33.2197 19.0995 33.6348 19.9164 33.7398 20.7992C33.9998 22.6952 32.7998 24.3072 30.7998 24.9352Z" fill="white"/>
<path id="Vector_3" d="M9.38411 25.0036C6.94011 24.0756 5.90011 22.5076 6.32811 20.4516C6.47444 19.7909 6.79656 19.182 7.26041 18.6893C7.72427 18.1965 8.31263 17.8383 8.96331 17.6524C9.61398 17.4664 10.3028 17.4598 10.957 17.633C11.6111 17.8063 12.2063 18.1531 12.6796 18.6367C13.153 19.1204 13.4868 19.7229 13.6459 20.3807C13.8051 21.0384 13.7835 21.7269 13.5836 22.3734C13.3837 23.02 13.0128 23.6005 12.5102 24.0536C12.0075 24.5067 11.3918 24.8156 10.7281 24.9476C11.2812 25.0099 11.8302 25.1048 12.3721 25.2316C12.9443 25.4214 13.5064 25.6403 14.0561 25.8876C13.9041 26.0316 13.8361 26.1036 13.7641 26.1676C12.8681 26.9179 12.1437 27.8518 11.64 28.9063C11.1362 29.9608 10.8648 31.1112 10.8441 32.2796C10.8201 33.1716 10.8441 34.0676 10.8441 35.0036H5.96411C5.61551 35.0256 5.26621 34.9735 4.93922 34.8507C4.61223 34.7279 4.31497 34.5372 4.06705 34.2912C3.81912 34.0451 3.62615 33.7494 3.50085 33.4233C3.37555 33.0973 3.32076 32.7484 3.34011 32.3996C3.29807 31.464 3.34495 30.5264 3.48011 29.5996C3.74345 28.312 4.44013 27.1534 5.45405 26.3171C6.46796 25.4808 7.73786 25.0172 9.05211 25.0036H9.38411Z" fill="white"/>
<path id="Vector_4" d="M16.2481 10.6567C16.5441 9.75666 16.1761 8.98866 15.5161 8.30066C15.2743 8.02694 15.0499 7.73838 14.8441 7.43666C14.3081 6.72066 14.5641 5.96466 15.4281 5.70866C16.0641 5.52066 16.7081 5.35666 17.3321 5.14066C17.5677 5.05391 17.7751 4.90455 17.9321 4.70866C18.3321 4.16066 18.7321 3.57266 19.1321 3.00866C19.2201 2.85034 19.3489 2.71843 19.505 2.62659C19.6611 2.53475 19.839 2.48633 20.0201 2.48633C20.2012 2.48633 20.3791 2.53475 20.5352 2.62659C20.6913 2.71843 20.8201 2.85034 20.9081 3.00866C21.3081 3.59266 21.7081 4.20866 22.1321 4.77266C22.247 4.92341 22.4044 5.03627 22.5841 5.09666C23.2481 5.31666 23.9281 5.49666 24.5841 5.70066C25.4481 5.96866 25.6921 6.71666 25.1521 7.43666C24.7521 8.00066 24.2841 8.54466 23.8761 9.11666C23.7615 9.28117 23.6988 9.47621 23.6961 9.67666C23.6961 10.3647 23.7361 11.0567 23.7481 11.7447C23.7481 12.6727 23.1281 13.1207 22.2441 12.8127C21.6041 12.5927 20.9721 12.3447 20.3281 12.1487C20.1127 12.0848 19.8835 12.0848 19.6681 12.1487C19.0081 12.3527 18.3681 12.6047 17.7161 12.8247C17.5499 12.9056 17.365 12.9401 17.1808 12.9244C16.9967 12.9087 16.8202 12.8435 16.6701 12.7357C16.52 12.6278 16.4019 12.4813 16.3283 12.3118C16.2547 12.1423 16.2284 11.956 16.2521 11.7727C16.2521 11.4327 16.2481 11.0807 16.2481 10.6567Z" fill="white"/>
<path id="Vector_5" d="M4.75582 12.7197C5.01582 11.9517 4.64382 11.2917 4.07182 10.6837C3.8725 10.4586 3.68811 10.2208 3.51982 9.97165C3.42858 9.8602 3.36694 9.72753 3.3406 9.58593C3.31427 9.44432 3.32409 9.29836 3.36916 9.16156C3.41422 9.02476 3.49308 8.90154 3.59843 8.80332C3.70378 8.7051 3.83221 8.63504 3.97182 8.59965C4.50382 8.43165 5.03982 8.26765 5.57182 8.13165C5.71009 8.10028 5.8404 8.04076 5.95464 7.9568C6.06889 7.87284 6.1646 7.76624 6.23582 7.64365C6.51982 7.19565 6.82782 6.75965 7.13582 6.32365C7.20851 6.18262 7.31863 6.06433 7.4541 5.98174C7.58957 5.89916 7.74516 5.85547 7.90382 5.85547C8.06248 5.85547 8.21808 5.89916 8.35355 5.98174C8.48902 6.06433 8.59914 6.18262 8.67182 6.32365C9.00382 6.79165 9.30782 7.27565 9.65182 7.73165C9.77608 7.89031 9.94239 8.01089 10.1318 8.07965C10.6838 8.26765 11.2518 8.40765 11.8078 8.58765C11.956 8.61734 12.0936 8.68572 12.2068 8.78583C12.32 8.88594 12.4046 9.01423 12.4521 9.15765C12.4997 9.30107 12.5084 9.45452 12.4774 9.60241C12.4465 9.7503 12.3769 9.88735 12.2758 9.99965C11.9198 10.4797 11.5358 10.9437 11.1878 11.4277C11.0887 11.5733 11.0319 11.7436 11.0238 11.9197C11.0238 12.4917 11.0638 13.0637 11.0718 13.6357C11.0718 14.4357 10.5478 14.8357 9.78782 14.5597C9.25982 14.3797 8.73982 14.1597 8.18782 14.0077C7.9966 13.9489 7.79257 13.9461 7.59982 13.9997C7.05182 14.1677 6.52382 14.3996 5.99982 14.5676C5.85845 14.6381 5.70046 14.6684 5.54305 14.6554C5.38563 14.6423 5.23481 14.5864 5.10698 14.4936C4.97914 14.4008 4.87919 14.2747 4.81798 14.1291C4.75678 13.9835 4.73666 13.8239 4.75982 13.6676L4.75582 12.7197Z" fill="white"/>
<path id="Vector_6" d="M28.92 12.7689C29.164 11.9689 28.868 11.3489 28.32 10.7689C28.1126 10.5346 27.9203 10.2874 27.744 10.0289C27.6323 9.91685 27.5537 9.77611 27.5168 9.62222C27.48 9.46833 27.4863 9.30726 27.5351 9.15673C27.5839 9.0062 27.6733 8.87205 27.7934 8.76905C27.9135 8.66605 28.0597 8.59819 28.216 8.57295C28.764 8.40495 29.316 8.26495 29.856 8.07695C30.0456 8.00857 30.212 7.88792 30.336 7.72895C30.68 7.27295 30.984 6.78895 31.316 6.32095C31.3896 6.18107 31.5001 6.06397 31.6354 5.98228C31.7708 5.9006 31.9259 5.85742 32.084 5.85742C32.242 5.85742 32.3971 5.9006 32.5325 5.98228C32.6678 6.06397 32.7783 6.18107 32.852 6.32095C33.168 6.76895 33.448 7.23695 33.788 7.66895C33.9495 7.86617 34.1608 8.01668 34.4 8.10495C34.912 8.29295 35.448 8.41695 35.968 8.57695C36.124 8.6031 36.27 8.67142 36.39 8.77452C36.5101 8.87762 36.5997 9.01159 36.6491 9.16192C36.6985 9.31225 36.7059 9.47323 36.6705 9.62746C36.635 9.78168 36.5581 9.92328 36.448 10.0369C36.124 10.4729 35.796 10.9129 35.448 11.3329C35.3573 11.4338 35.2885 11.5523 35.2458 11.681C35.2031 11.8098 35.1875 11.9459 35.2 12.0809C35.236 12.6289 35.24 13.1769 35.244 13.7209C35.2606 13.8708 35.2374 14.0224 35.1766 14.1604C35.1158 14.2984 35.0197 14.4179 34.8979 14.5068C34.7761 14.5957 34.633 14.6509 34.483 14.6667C34.3331 14.6825 34.1816 14.6585 34.044 14.5969C33.48 14.4009 32.94 14.1889 32.4 14.0009C32.2079 13.9451 32.004 13.9451 31.812 14.0009C31.268 14.1689 30.736 14.4009 30.212 14.5689C30.0696 14.6377 29.9113 14.6668 29.7538 14.6532C29.5963 14.6396 29.4453 14.5839 29.3168 14.4918C29.1883 14.3997 29.0869 14.2747 29.0235 14.1299C28.96 13.9851 28.9366 13.8259 28.956 13.6689L28.92 12.7689Z" fill="white"/>
</g>
</svg>
