<svg width="50" height="50" viewBox="0 0 50 50" fill="none" xmlns="http://www.w3.org/2000/svg">
<g id="Artboard 1 copy 3 8">
<path id="Vector" d="M19.33 50.0005C19.28 46.1305 19.2317 42.2605 19.185 38.3905C19.1317 34.3072 19.07 30.2255 19 26.1455V25.8105H30.44C30.44 25.9455 30.44 26.0705 30.44 26.1955C30.5533 33.9855 30.665 41.7755 30.775 49.5655C30.775 49.7105 30.75 49.8555 30.74 50.0005H19.33Z" fill="white"/>
<path id="Vector_2" d="M35.2498 50.0005C35.1948 47.9005 35.1298 45.8055 35.0798 43.7055C35.0098 40.8305 34.9498 37.9505 34.8848 35.0705V34.6055H46.3398C46.4464 39.7355 46.5598 44.8671 46.6798 50.0005H35.2498Z" fill="white"/>
<path id="Vector_3" d="M3.5 49.9999V41.9199H14.935V49.9999H3.5Z" fill="white"/>
<path id="Vector_4" d="M30.4148 19.46C30.2108 18.6483 29.7408 17.9284 29.0798 17.415C28.7202 17.1383 28.327 16.9082 27.9098 16.73C26.7998 16.28 26.5398 16.38 25.8748 17.365L24.9048 18.815C24.4998 18.185 24.0498 17.62 23.7048 17C23.6048 16.7948 23.4329 16.6335 23.2218 16.5469C23.0107 16.4602 22.775 16.4542 22.5598 16.53C21.0598 16.82 20.0198 17.765 19.3798 19.435C17.6998 17.535 17.1798 13.435 19.9548 10.585C20.5876 9.93247 21.3432 9.41151 22.1782 9.05209C23.0131 8.69268 23.9109 8.50191 24.8198 8.49075C25.7288 8.4796 26.6309 8.64829 27.4744 8.98711C28.3179 9.32593 29.0861 9.8282 29.7348 10.465C32.5748 13.265 32.1898 17.37 30.4148 19.46ZM22.0348 12.555C22.0969 13.6726 22.4864 14.7472 23.1548 15.645C24.2048 17.05 25.6148 17.045 26.6548 15.645C27.4319 14.5871 27.8267 13.2966 27.7748 11.985C27.7398 10.555 27.0948 9.62501 25.9448 9.28501C24.2598 8.77001 21.9448 9.33501 22.0348 12.555Z" fill="white"/>
<path id="Vector_5" d="M9.20507 34.5997C8.76007 33.9347 8.32007 33.3147 7.91507 32.6747C7.84529 32.5378 7.73301 32.4273 7.59507 32.3597C7.45714 32.2921 7.30099 32.271 7.15007 32.2997C6.4174 32.3749 5.71971 32.6509 5.13389 33.0973C4.54808 33.5437 4.0969 34.1432 3.83007 34.8297C3.77507 34.9597 3.73507 35.0997 3.68007 35.2497C2.00007 33.2347 1.50007 29.1797 4.27007 26.3647C5.51141 25.0944 7.1948 24.3517 8.9699 24.2911C10.745 24.2306 12.4751 24.8569 13.8001 26.0397C16.4551 28.4097 16.9051 32.6147 14.7501 35.2497C14.6851 35.0897 14.6251 34.9497 14.5651 34.8097C14.2978 34.1252 13.8451 33.5288 13.2578 33.0872C12.6705 32.6456 11.9718 32.3764 11.2401 32.3097C11.0964 32.2817 10.9474 32.3012 10.8157 32.3652C10.6841 32.4292 10.5768 32.5343 10.5101 32.6647C10.1051 33.2997 9.66507 33.9247 9.20507 34.5997ZM6.33507 28.4297C6.40577 29.5155 6.78959 30.5575 7.44007 31.4297C8.51007 32.8647 9.94007 32.8647 10.9751 31.4297C11.7767 30.3256 12.1675 28.9763 12.0801 27.6147C12.0954 27.039 11.9177 26.4747 11.5752 26.0116C11.2327 25.5486 10.7451 25.2135 10.1901 25.0597C8.47007 24.5747 6.29007 25.1997 6.33507 28.4297Z" fill="white"/>
<path id="Vector_6" d="M46.405 28.7295C46.0329 28.128 45.6238 27.5502 45.18 26.9995C44.5808 26.363 43.7703 25.9666 42.9 25.8845C42.7329 25.8488 42.5587 25.8698 42.4048 25.944C42.2509 26.0182 42.1261 26.1415 42.05 26.2945C41.66 26.9245 41.225 27.5295 40.78 28.1895C40.345 27.5445 39.915 26.9695 39.56 26.3545C39.4685 26.1632 39.3103 26.0119 39.1151 25.929C38.9199 25.8462 38.7012 25.8374 38.5 25.9045C37.8061 26.0211 37.1548 26.3174 36.6109 26.7639C36.067 27.2104 35.6496 27.7916 35.4 28.4495L35.26 28.8195C33.62 26.9445 33.06 22.9395 35.725 20.0895C36.9523 18.7572 38.6556 17.9628 40.465 17.8785C42.2745 17.7943 44.0442 18.4271 45.39 19.6395C48.375 22.3245 48.18 26.5295 46.405 28.7295ZM43.66 21.8045C43.66 19.3895 42.3 18.2145 40.16 18.5345C39.617 18.5969 39.1101 18.8381 38.7191 19.22C38.3281 19.602 38.0751 20.1031 38 20.6445C37.8549 21.4331 37.8826 22.2438 38.0811 23.0207C38.2797 23.7976 38.6443 24.5222 39.15 25.1445C40.15 26.4145 41.47 26.3845 42.465 25.1145C43.2004 24.1637 43.6184 23.0058 43.66 21.8045Z" fill="white"/>
<path id="Vector_7" d="M40.7948 31.6651C39.1489 31.673 37.5539 31.0953 36.2948 30.0351C36.1478 29.9413 36.0389 29.7983 35.9876 29.6316C35.9363 29.4649 35.9459 29.2854 36.0148 29.1251C36.1583 28.546 36.458 28.0174 36.8812 27.5969C37.3044 27.1763 37.8349 26.88 38.4148 26.7401C38.5187 26.6988 38.6343 26.6986 38.7383 26.7395C38.8423 26.7803 38.9269 26.8592 38.9748 26.9601C39.3948 27.6201 39.8348 28.2601 40.2748 28.9051C40.6548 29.4701 40.8848 29.4701 41.2748 28.9051C41.6648 28.3401 42.1298 27.6001 42.5898 26.9701C42.6526 26.901 42.7302 26.8471 42.8168 26.8125C42.9034 26.7778 42.9968 26.7634 43.0898 26.7701C43.739 26.9063 44.3291 27.2424 44.7775 27.7311C45.2259 28.2198 45.51 28.8367 45.5898 29.4951C45.5798 29.5861 45.5516 29.6741 45.5069 29.7539C45.4622 29.8338 45.402 29.9039 45.3298 29.9601C44.0783 31.0652 42.4644 31.6719 40.7948 31.6651Z" fill="white"/>
<path id="Vector_8" d="M24.9602 22.2992C23.2521 22.307 21.6 21.6899 20.3152 20.5642C20.212 20.4907 20.136 20.3852 20.0989 20.264C20.0618 20.1429 20.0658 20.0128 20.1102 19.8942C20.2324 19.3088 20.5108 18.7673 20.9157 18.3272C21.3206 17.8871 21.837 17.5647 22.4102 17.3942C22.4778 17.36 22.5516 17.34 22.6272 17.3354C22.7027 17.3308 22.7784 17.3418 22.8496 17.3675C22.9208 17.3933 22.986 17.4333 23.0411 17.4852C23.0963 17.5371 23.1402 17.5997 23.1702 17.6692C23.5652 18.3242 24.0102 18.9442 24.4402 19.5742C24.7752 20.0742 25.0302 20.0742 25.3602 19.5742C25.8002 18.9292 26.2452 18.2892 26.6552 17.6242C26.714 17.501 26.818 17.4052 26.9456 17.3568C27.0732 17.3083 27.2145 17.311 27.3402 17.3642C27.9613 17.541 28.518 17.8938 28.9429 18.38C29.3679 18.8662 29.6431 19.465 29.7352 20.1042C29.7108 20.2693 29.6251 20.4193 29.4952 20.5242C28.2556 21.6571 26.6396 22.2896 24.9602 22.2992Z" fill="white"/>
<path id="Vector_9" d="M9.19012 38.1006C7.57907 38.0862 6.0213 37.5217 4.77512 36.5006C4.61191 36.399 4.49075 36.242 4.43382 36.0583C4.3769 35.8747 4.38801 35.6767 4.46512 35.5006C4.61555 34.9321 4.91646 34.4148 5.33619 34.003C5.75592 33.5912 6.27892 33.3002 6.85012 33.1606C6.90133 33.1382 6.95645 33.1261 7.01232 33.1251C7.0682 33.124 7.12373 33.134 7.17575 33.1544C7.22777 33.1749 7.27524 33.2054 7.31546 33.2442C7.35567 33.283 7.38784 33.3293 7.41012 33.3806C7.84512 34.0506 8.29012 34.7106 8.74012 35.3806C9.09012 35.8806 9.32012 35.8806 9.68012 35.3806C10.1201 34.7356 10.5651 34.0956 10.9801 33.4356C11.0373 33.3227 11.1351 33.2357 11.2539 33.1921C11.3726 33.1485 11.5035 33.1515 11.6201 33.2006C12.2455 33.3653 12.8081 33.7116 13.237 34.1956C13.6659 34.6797 13.9419 35.2799 14.0301 35.9206C14.0247 36.0047 14.0019 36.0868 13.9632 36.1617C13.9245 36.2365 13.8706 36.3026 13.8051 36.3556C12.5367 37.4899 10.8917 38.1119 9.19012 38.1006Z" fill="white"/>
<path id="Vector_10" d="M5.36523 22.0541L9.20523 15.7891L13.0452 22.0541H11.2152C10.6552 22.0541 10.5652 22.1541 10.5552 22.7041V23.4991H7.84523V22.5541C7.85429 22.4863 7.8476 22.4173 7.82567 22.3525C7.80375 22.2877 7.76718 22.2288 7.71881 22.1805C7.67045 22.1321 7.61158 22.0956 7.54679 22.0736C7.482 22.0517 7.41303 22.045 7.34523 22.0541C6.71523 22.0641 6.10023 22.0541 5.36523 22.0541Z" fill="white"/>
<path id="Vector_11" d="M40.7852 9.36914C42.0652 11.4591 43.3102 13.4941 44.6202 15.6241H42.8252C42.2352 15.6241 42.1502 15.7141 42.1452 16.3041C42.1452 16.5741 42.1452 16.8441 42.1452 17.1041H39.4352C39.4352 16.8591 39.4352 16.5741 39.4352 16.2891C39.4352 15.7391 39.3252 15.6291 38.7852 15.6241H36.9502C38.2452 13.4991 39.5002 11.4641 40.7852 9.36914Z" fill="white"/>
<path id="Vector_12" d="M21.0698 6.25L24.9048 0L28.7348 6.25H27.0748C26.3098 6.25 26.2648 6.3 26.2648 7.045V7.735H23.5398C23.5398 7.46 23.5398 7.155 23.5398 6.85C23.5648 6.4 23.3498 6.235 22.9248 6.25C22.3398 6.26 21.7548 6.25 21.0698 6.25Z" fill="white"/>
</g>
</svg>
