<svg width="60" height="60" viewBox="0 0 60 60" fill="none" xmlns="http://www.w3.org/2000/svg">
<g id="Artboard 1 11">
<path id="Vector" d="M58.1221 48.7744C58.0201 49.1944 57.924 49.6204 57.804 50.0344C57.2573 51.9219 56.0328 53.541 54.3656 54.5812C52.6984 55.6213 50.7058 56.0092 48.7701 55.6704C46.8345 55.3316 45.0921 54.29 43.8772 52.7454C42.6624 51.2008 42.0607 49.2621 42.1875 47.3011C42.3144 45.3401 43.1609 43.495 44.5646 42.1198C45.9683 40.7446 47.8303 39.9361 49.7935 39.8495C51.7567 39.763 53.6827 40.4043 55.202 41.6506C56.7214 42.8968 57.727 44.6602 58.026 46.6024C58.0526 46.7061 58.0846 46.8082 58.1221 46.9084V48.7744ZM49.47 48.7264C48.702 47.9524 47.958 47.2024 47.208 46.4584C46.71 45.9664 46.218 45.9244 45.81 46.3144C45.402 46.7044 45.438 47.2384 45.948 47.7544C46.836 48.6464 47.72 49.5384 48.6 50.4304C49.242 51.0724 49.674 51.0784 50.316 50.4304C51.6 49.1544 52.88 47.8744 54.156 46.5904C54.7561 45.9904 54.8881 45.3904 54.456 44.9884C54.024 44.5864 53.52 44.6524 52.86 45.3184L49.47 48.7264Z" fill="white"/>
<path id="Vector_2" d="M20.5319 50.3288C20.3519 50.3288 20.1779 50.3288 19.9979 50.3288C17.6759 50.3288 15.3479 50.3588 13.0259 50.3288C10.2079 50.2563 7.51677 49.1424 5.47197 47.202C3.42717 45.2617 2.17376 42.6326 1.95374 39.8223C1.73372 37.012 2.5627 34.2199 4.28062 31.985C5.99854 29.7501 8.48356 28.2309 11.2559 27.7208C13.3079 27.3908 15.4559 27.4868 17.6699 27.3848C16.6019 29.1848 16.5659 30.8168 17.6279 32.5268H13.2839C11.9354 32.5259 10.6233 32.964 9.54589 33.7748C8.48256 34.5464 7.68404 35.6282 7.25985 36.8717C6.83566 38.1151 6.8066 39.4594 7.17664 40.72C7.54668 41.9806 8.2977 43.0959 9.32668 43.9128C10.3557 44.7297 11.6122 45.2083 12.9239 45.2828C15.4439 45.3608 17.9699 45.2828 20.6519 45.2828L19.4519 44.0828C18.9562 43.6388 18.6572 43.0161 18.6206 42.3517C18.584 41.6872 18.8129 41.0355 19.2569 40.5398C19.7009 40.0441 20.3236 39.7451 20.988 39.7085C21.6524 39.6719 22.3042 39.9008 22.7999 40.3448C24.8039 42.2468 26.7419 44.2148 28.6619 46.2008C29.0797 46.6402 29.3127 47.2234 29.3127 47.8298C29.3127 48.4361 29.0797 49.0193 28.6619 49.4588C26.7299 51.4448 24.7799 53.4008 22.7999 55.3208C22.3269 55.7584 21.7002 55.9914 21.0562 55.9689C20.4122 55.9464 19.8032 55.6703 19.3619 55.2008C18.9134 54.7337 18.663 54.1113 18.663 53.4638C18.663 52.8163 18.9134 52.1938 19.3619 51.7268C19.7639 51.3008 20.2079 50.9228 20.6279 50.5268L20.5319 50.3288Z" fill="white"/>
<path id="Vector_3" d="M27.3299 32.6391C27.7259 33.0171 28.1339 33.3831 28.5299 33.7791C28.7694 34.0138 28.9596 34.2938 29.0895 34.6029C29.2194 34.912 29.2863 35.2439 29.2863 35.5791C29.2863 35.9144 29.2194 36.2463 29.0895 36.5554C28.9596 36.8644 28.7694 37.1445 28.5299 37.3791C28.2934 37.6189 28.0106 37.8081 27.6988 37.9352C27.3869 38.0623 27.0525 38.1247 26.7157 38.1185C26.379 38.1123 26.0471 38.0378 25.7401 37.8993C25.4331 37.7609 25.1574 37.5614 24.9299 37.3131C23.1099 35.4931 21.2859 33.6651 19.4579 31.8291C19.1957 31.5966 18.9858 31.3112 18.8421 30.9916C18.6983 30.672 18.624 30.3255 18.624 29.9751C18.624 29.6247 18.6983 29.2783 18.8421 28.9587C18.9858 28.6391 19.1957 28.3536 19.4579 28.1211C21.2659 26.3051 23.0779 24.5051 24.8939 22.7211C25.1218 22.4732 25.3978 22.2743 25.705 22.1363C26.0122 21.9984 26.3443 21.9244 26.681 21.9188C27.0177 21.9132 27.3521 21.9761 27.6637 22.1037C27.9754 22.2313 28.2578 22.421 28.4939 22.6611C28.7295 22.8997 28.9151 23.1829 29.0399 23.4942C29.1646 23.8054 29.226 24.1385 29.2204 24.4737C29.2148 24.809 29.1424 25.1398 29.0073 25.4467C28.8723 25.7536 28.6773 26.0305 28.4339 26.2611C28.0619 26.6511 27.6599 27.0171 27.1859 27.4611H27.7499H34.5059C36.1048 27.4767 37.6525 26.8979 38.8487 25.8369C40.0449 24.7759 40.8045 23.3084 40.9799 21.7191C41.1505 20.1174 40.7035 18.511 39.7301 17.2276C38.7567 15.9442 37.3303 15.0807 35.7419 14.8131C34.1952 14.6557 32.6392 14.6096 31.0859 14.6751C30.8579 14.6751 30.6239 14.6751 30.3599 14.6751C31.3319 12.7611 31.3379 11.5791 30.4019 9.71312C30.4019 9.71312 30.4559 9.65912 30.4799 9.65912C32.4179 9.69512 34.3739 9.57512 36.2939 9.79712C41.2499 10.3971 45.3959 14.6751 45.9419 19.6251C46.3247 22.5739 45.5402 25.5556 43.7557 27.9341C41.9712 30.3127 39.328 31.8998 36.3899 32.3571C35.739 32.4594 35.0807 32.5076 34.4219 32.5011C32.0819 32.5011 29.7419 32.5011 27.4019 32.5011L27.3299 32.6391Z" fill="white"/>
<path id="Vector_4" d="M20.6519 9.46874C20.2739 9.13274 19.8779 8.82074 19.5239 8.46674C19.2875 8.23509 19.0991 7.95915 18.9693 7.65467C18.8396 7.35019 18.7711 7.02315 18.7677 6.6922C18.7644 6.36125 18.8263 6.03288 18.9498 5.72585C19.0734 5.41881 19.2562 5.13912 19.4879 4.90274C19.7195 4.66636 19.9955 4.47792 20.2999 4.34819C20.6044 4.21845 20.9315 4.14996 21.2624 4.14661C21.5934 4.14327 21.9217 4.20514 22.2288 4.3287C22.5358 4.45226 22.8155 4.63509 23.0519 4.86674C24.8599 6.66274 26.6599 8.46274 28.4519 10.2667C28.7167 10.502 28.9288 10.7908 29.0739 11.114C29.2191 11.4372 29.2942 11.7874 29.2942 12.1417C29.2942 12.496 29.2191 12.8463 29.0739 13.1695C28.9288 13.4927 28.7167 13.7814 28.4519 14.0167C26.6599 15.8247 24.8599 17.6247 23.0519 19.4167C22.5824 19.8941 21.9426 20.1655 21.2731 20.1711C20.6036 20.1767 19.9593 19.9162 19.4819 19.4467C19.0045 18.9773 18.7331 18.3375 18.7275 17.668C18.7247 17.3364 18.7872 17.0076 18.9115 16.7003C19.0358 16.393 19.2194 16.1131 19.4519 15.8767C19.8119 15.5167 20.1959 15.1747 20.5739 14.8267L20.5259 14.6527H4.66787C3.23987 14.6527 2.26787 13.9507 1.96187 12.7207C1.87721 12.3703 1.87004 12.0057 1.94084 11.6522C2.01164 11.2987 2.15872 10.9649 2.37181 10.6741C2.5849 10.3834 2.85886 10.1426 3.1746 9.96858C3.49033 9.79458 3.84022 9.69158 4.19987 9.66674C5.26187 9.61874 6.32387 9.66674 7.38587 9.66674H20.5319L20.6519 9.46874Z" fill="white"/>
<path id="Vector_5" d="M30.3481 50.2915C30.837 49.5609 31.0979 48.7016 31.0979 47.8225C31.0979 46.9434 30.837 46.0841 30.3481 45.3535H40.6681C40.2511 46.9731 40.2511 48.6719 40.6681 50.2915H30.3481Z" fill="white"/>
</g>
</svg>
