<svg width="48" height="48" viewBox="0 0 48 48" fill="none" xmlns="http://www.w3.org/2000/svg">
<g id="Artboard 1 16">
<path id="Vector" d="M10.195 13.296H10.867C16.003 13.296 21.1342 13.296 26.2654 13.296C27.3 13.3401 28.3308 13.4491 29.3518 13.6224C29.6494 13.6608 29.7358 13.5264 29.8318 13.32C30.5831 11.8604 31.0968 10.2903 31.3534 8.66881C31.4638 7.97761 31.6462 7.70881 32.0446 7.70881C32.443 7.70881 32.6254 7.95361 32.7454 8.66881C33.2091 11.8792 34.7431 14.8391 37.099 17.0688C38.5027 18.4182 40.2249 19.3907 42.1054 19.896C42.2954 19.9177 42.4702 20.0103 42.5948 20.1554C42.7195 20.3005 42.7846 20.4873 42.7774 20.6784C42.7821 20.8532 42.7235 21.0238 42.6123 21.1587C42.5012 21.2937 42.345 21.3839 42.1726 21.4128C37.3726 22.8528 34.6174 26.184 33.163 30.8016C32.8234 31.8687 32.6612 32.9844 32.683 34.104C32.7118 36.3456 32.6398 38.5872 32.683 40.824C32.7358 42.7152 31.7902 43.8768 30.2014 44.664C29.1565 45.1188 28.0155 45.3084 26.8798 45.216C26.3998 45.216 26.2078 44.9664 26.2078 44.4336C26.2078 42.7792 26.2078 41.1232 26.2078 39.4656C26.2078 38.7648 26.2078 38.7648 25.531 38.7648C20.1934 38.7648 14.8558 38.7648 9.51817 38.7648C8.10974 38.8237 6.71437 38.4736 5.50057 37.7568C4.92769 37.4251 4.45661 36.9429 4.13844 36.3624C3.82027 35.7819 3.66717 35.1254 3.69577 34.464C3.69577 26.8272 3.69577 19.1904 3.69577 11.5536C3.69577 9.00481 4.92457 7.49761 7.43497 7.01281C8.06969 6.9081 8.71167 6.85353 9.35497 6.84961C9.95017 6.84961 10.1806 7.08001 10.1806 7.68481C10.1806 9.35521 10.1806 11.0448 10.1806 12.7008L10.195 13.296ZM28.8814 14.88C28.7716 14.831 28.6575 14.7925 28.5406 14.7648C27.619 14.7072 26.6926 14.664 25.771 14.592C25.6085 14.5795 25.4453 14.6051 25.2945 14.6667C25.1437 14.7284 25.0093 14.8244 24.9022 14.9472C20.4142 19.4544 15.9406 24 11.3998 28.4448C10.5214 29.304 9.95977 30.1392 10.195 31.3776C10.2021 31.4398 10.2021 31.5026 10.195 31.5648C10.2053 31.6636 10.1936 31.7634 10.1608 31.8572C10.1279 31.9509 10.0747 32.0362 10.0049 32.1069C9.93512 32.1776 9.85055 32.2319 9.75726 32.266C9.66396 32.3001 9.56428 32.3131 9.46537 32.304L8.09737 32.3712C7.88615 32.3756 7.67823 32.4244 7.48717 32.5146C7.29611 32.6047 7.12621 32.7341 6.98857 32.8944C6.47977 33.4512 5.92777 33.9696 5.39497 34.5072C4.94857 34.9536 4.91497 35.1072 5.22217 35.6496C5.35265 35.8773 5.5142 36.0857 5.70217 36.2688C6.33845 36.8148 7.10899 37.181 7.93417 37.3296C8.07996 37.3772 8.23671 37.3797 8.38398 37.3369C8.53124 37.2941 8.6622 37.2079 8.75977 37.0896C13.6206 32.2032 18.4782 27.3376 23.3326 22.4928C23.4526 22.3776 23.5582 22.248 23.755 22.0416C23.1214 21.8256 22.5838 21.6288 22.0318 21.4656C21.6334 21.3456 21.3454 21.1632 21.3358 20.6976C21.3262 20.232 21.6238 20.0112 22.0462 19.896C24.7064 19.1423 27.0318 17.5074 28.6414 15.2592C28.723 15.1488 28.7998 15.0288 28.8814 14.88ZM10.4014 37.4688H10.939C12.5278 37.4688 14.1166 37.4688 15.7054 37.4688C15.8603 37.4752 16.0148 37.4471 16.1576 37.3865C16.3004 37.3259 16.4279 37.2344 16.531 37.1184C20.2718 33.3616 24.019 29.6064 27.7726 25.8528C27.8302 25.8 27.9166 25.752 27.931 25.6848C27.9454 25.6176 28.0174 25.344 27.931 25.2624C27.1137 24.284 26.1407 23.4472 25.051 22.7856L10.4014 37.4688ZM23.131 14.616C23.0913 14.6082 23.0506 14.6082 23.011 14.616C21.2494 14.616 19.483 14.616 17.731 14.616C17.5349 14.6404 17.3535 14.732 17.2174 14.8752C14.9774 17.1152 12.7374 19.3664 10.4974 21.6288C10.3414 21.7948 10.2495 22.0109 10.2382 22.2384C10.2382 23.9232 10.2382 25.5984 10.2382 27.2976C10.2399 27.3845 10.2479 27.4711 10.2622 27.5568L23.131 14.616ZM29.0158 26.6448L18.2638 37.44C18.3258 37.4681 18.3925 37.4844 18.4606 37.488C20.2222 37.488 21.9838 37.488 23.7406 37.488C23.8934 37.4792 24.038 37.4163 24.1486 37.3104C26.3246 35.1472 28.4926 32.9728 30.6526 30.7872C30.7061 30.728 30.7459 30.6578 30.7691 30.5814C30.7923 30.5051 30.7984 30.4246 30.787 30.3456C30.3847 29.0305 29.7877 27.783 29.0158 26.6448ZM31.4158 38.7648C31.3486 36.4512 31.5118 34.3008 31.315 32.232L26.083 37.4784C27.8782 37.4064 29.7598 37.44 31.4206 38.7648H31.4158ZM10.219 19.7712L15.3598 14.6352H10.219V19.7712Z" fill="white"/>
<path id="Vector_2" d="M34.9728 33.2297C35.0064 32.8649 35.0688 32.4953 35.4528 32.3465C37.2624 31.6601 38.064 30.1817 38.5296 28.4393C38.616 28.1033 38.6496 27.7577 38.7168 27.4169C38.784 27.0761 38.9328 26.7641 39.3456 26.7737C39.7584 26.7833 39.8688 27.1049 39.9552 27.4409C40.1245 28.2562 40.3523 29.0582 40.6368 29.8409C40.8524 30.4108 41.1888 30.9274 41.623 31.3549C42.0572 31.7825 42.5788 32.1109 43.152 32.3177C43.3095 32.4003 43.4427 32.5224 43.5388 32.672C43.6349 32.8217 43.6905 32.9937 43.7002 33.1712C43.7098 33.3487 43.6733 33.5258 43.594 33.6849C43.5148 33.8441 43.3955 33.98 43.248 34.0793C41.232 34.8569 40.4496 36.5273 40.056 38.4809C40.0128 38.6825 40.056 38.9225 39.9456 39.0809C39.8352 39.2393 39.5808 39.5945 39.3504 39.6425C38.9952 39.7193 38.8128 39.3881 38.7456 39.0569C38.6784 38.7257 38.6352 38.3417 38.5488 37.9913C38.3044 36.713 37.6262 35.5584 36.6288 34.7225C36.3171 34.4842 35.9728 34.2919 35.6064 34.1513C35.4178 34.0831 35.2552 33.9575 35.1416 33.7922C35.0279 33.627 34.9689 33.4302 34.9728 33.2297Z" fill="white"/>
<path id="Vector_3" d="M26.7408 6.92702C26.4864 7.20542 26.3472 7.48862 26.136 7.56542C24.6528 8.11742 23.9184 9.24542 23.592 10.7238C23.5152 11.079 23.544 11.5542 23.0112 11.5494C22.4784 11.5446 22.5312 11.0982 22.4592 10.7478C22.1328 9.25982 21.4032 8.10782 19.8912 7.56062C19.7817 7.50022 19.6886 7.41398 19.62 7.30942C19.5514 7.20485 19.5094 7.08512 19.4976 6.96062C19.5115 6.8299 19.5557 6.7042 19.6265 6.59342C19.6973 6.48265 19.7928 6.38981 19.9056 6.32222C21.4512 5.74622 22.1712 4.55582 22.4784 3.02942C22.4784 2.93342 22.4784 2.80862 22.5312 2.75582C22.68 2.59742 22.8624 2.35742 23.0112 2.35742C23.16 2.35742 23.4048 2.58782 23.4912 2.77022C23.616 3.05342 23.616 3.38942 23.712 3.68702C23.869 4.28596 24.1696 4.83762 24.5878 5.29427C25.006 5.75091 25.5291 6.0988 26.112 6.30782C26.328 6.38462 26.4768 6.65822 26.7408 6.92702Z" fill="white"/>
</g>
</svg>
