<svg width="74" height="74" viewBox="0 0 74 74" fill="none" xmlns="http://www.w3.org/2000/svg">
<g id="Artboard 1 copy 4 5">
<path id="Vector" d="M51.2152 28.594C53.4352 28.594 55.4998 28.594 57.594 28.594C57.8138 28.5506 58.0166 28.4453 58.1786 28.2906C59.3182 27.41 60.443 26.5146 61.5826 25.6488C61.717 25.571 61.8186 25.4472 61.869 25.3004C61.9193 25.1535 61.9148 24.9934 61.8564 24.8496C61.6995 24.3154 61.6562 23.7543 61.7292 23.2023C61.8022 22.6504 61.99 22.1198 62.2804 21.6448C62.5709 21.1698 62.9575 20.7608 63.4155 20.4443C63.8735 20.1277 64.3928 19.9106 64.9398 19.8068C65.4868 19.703 66.0494 19.7148 66.5916 19.8416C67.1337 19.9684 67.6433 20.2073 68.0876 20.5429C68.5318 20.8785 68.9009 21.3034 69.171 21.7902C69.4411 22.2771 69.6064 22.8151 69.656 23.3696C69.7285 24.0801 69.6082 24.797 69.3078 25.4448C69.0073 26.0927 68.5378 26.6477 67.9487 27.0513C67.3595 27.4549 66.6725 27.6923 65.9598 27.7385C65.2471 27.7847 64.5352 27.638 63.8988 27.3138C63.7376 27.2023 63.5422 27.1515 63.3471 27.1704C63.152 27.1894 62.9699 27.2769 62.8332 27.4174C61.6714 28.372 60.4504 29.26 59.296 30.222C58.8075 30.6337 58.18 30.8429 57.5422 30.8066C55.7218 30.8066 53.894 30.8066 52.0736 30.8066H51.2744V37.5628H55.411C56.4692 35.2318 58.1786 34.2476 60.3098 34.7286C61.2298 34.9411 62.0472 35.4668 62.6222 36.2157C63.1971 36.9646 63.4938 37.8901 63.4615 38.8337C63.4291 39.7773 63.0697 40.6803 62.4448 41.388C61.8199 42.0957 60.9684 42.5642 60.036 42.7132C58.075 43.0758 56.336 41.9732 55.4406 39.8346H51.267V46.5834H52.6286C54.3158 46.5834 56.003 46.5834 57.6902 46.5834C58.2292 46.5682 58.7553 46.7497 59.1702 47.094C60.406 48.1004 61.6862 49.0624 62.9294 50.054C63.0359 50.1644 63.1795 50.2315 63.3325 50.2424C63.4855 50.2534 63.6371 50.2073 63.7582 50.1132C64.5228 49.6693 65.4121 49.489 66.2892 49.6C67.1663 49.711 67.9827 50.1071 68.6126 50.7274C69.0857 51.1891 69.4397 51.7587 69.6442 52.3873C69.8487 53.0159 69.8976 53.6848 69.7867 54.3364C69.6757 54.9881 69.4083 55.6031 69.0073 56.1286C68.6063 56.6542 68.0838 57.0746 67.4846 57.3537C66.8854 57.6328 66.2274 57.7623 65.5671 57.7311C64.9068 57.7 64.2639 57.509 63.6936 57.1746C63.1234 56.8403 62.6428 56.3725 62.2932 55.8115C61.9435 55.2505 61.7353 54.613 61.6862 53.9538C61.7103 53.4583 61.7597 52.9643 61.8342 52.4738C61.8462 52.2306 61.7641 51.9921 61.6048 51.8078C60.4356 50.8532 59.2516 49.9282 58.0602 49.0106C57.9047 48.8823 57.7136 48.8048 57.5126 48.7886C55.4406 48.7886 53.3686 48.7886 51.193 48.7886V49.5804C51.193 53.162 51.193 56.7436 51.193 60.3178C51.193 62.6266 49.9424 64.3286 47.8778 64.8392C47.4114 64.9416 46.9345 64.9888 46.457 64.9798H13.3198C10.3598 64.9798 8.59863 63.1594 8.59863 60.229V17.1018C8.59863 14.1418 10.3894 12.3584 13.3198 12.3584H46.4644C49.4244 12.3584 51.2004 14.1492 51.2152 17.0796C51.2152 20.6168 51.2152 24.1466 51.2152 27.6838V28.594ZM29.8884 46.4946H35.912C38.28 46.4946 40.6554 46.4946 43.0234 46.4946C43.1718 46.5098 43.3218 46.4948 43.4642 46.4504C43.6066 46.406 43.7385 46.3332 43.852 46.2364C43.9655 46.1395 44.0581 46.0206 44.1243 45.887C44.1904 45.7533 44.2288 45.6075 44.237 45.4586C44.2382 45.3045 44.208 45.1518 44.1484 45.0097C44.0889 44.8676 44.0011 44.739 43.8904 44.6318C43.7797 44.5246 43.6485 44.441 43.5045 44.3859C43.3606 44.3309 43.207 44.3056 43.053 44.3116H17.153C16.8594 44.2599 16.5571 44.2907 16.2798 44.4004C15.9546 44.6144 15.716 44.937 15.6064 45.3106C15.6117 45.4948 15.6559 45.6758 15.7363 45.8416C15.8166 46.0075 15.9313 46.1544 16.0726 46.2726C16.3687 46.4338 16.7069 46.5009 17.042 46.465C21.3192 46.502 25.6038 46.4946 29.8884 46.4946ZM29.8884 34.551H42.6164C42.8624 34.5765 43.1104 34.5765 43.3564 34.551C43.6137 34.5021 43.8444 34.3615 44.0057 34.1553C44.167 33.9491 44.248 33.6913 44.2335 33.4299C44.2191 33.1684 44.1101 32.9212 43.927 32.734C43.7439 32.5469 43.4991 32.4326 43.238 32.4124C43.053 32.4124 42.8754 32.4124 42.6904 32.4124H17.0864C16.882 32.3975 16.6767 32.3975 16.4722 32.4124C16.2323 32.4309 16.0068 32.534 15.836 32.7035C15.6652 32.873 15.5602 33.0976 15.5398 33.3374C15.4992 33.5827 15.553 33.8342 15.6903 34.0415C15.8275 34.2488 16.0382 34.3964 16.2798 34.4548C16.5643 34.5314 16.8588 34.5638 17.153 34.551H29.8884ZM29.8884 40.5154H42.9198C43.7782 40.5154 44.2888 40.0714 44.2666 39.398C44.2444 38.7246 43.7338 38.3546 42.9198 38.3324H17.1382C16.8907 38.3219 16.6427 38.3368 16.3982 38.3768C16.1505 38.4244 15.9277 38.5583 15.7694 38.7547C15.6111 38.9511 15.5277 39.1974 15.5339 39.4495C15.5401 39.7017 15.6356 39.9435 15.8033 40.1319C15.9711 40.3203 16.2003 40.4431 16.45 40.4784C16.7234 40.5007 16.9981 40.5007 17.2714 40.4784L29.8884 40.5154ZM22.5994 27.0622H28.3418C29.1854 27.0622 29.6442 26.6774 29.659 26.004C29.6738 25.3306 29.2002 24.8792 28.3418 24.8792H16.857C16.0208 24.8792 15.5546 25.264 15.5398 25.9374C15.525 26.6108 15.9912 27.0548 16.857 27.0622H22.5994ZM19.6394 50.2982C18.6848 50.2982 17.7302 50.2982 16.7682 50.2982C16.0282 50.2982 15.5472 50.72 15.5398 51.3712C15.5367 51.5265 15.5668 51.6807 15.6282 51.8234C15.6897 51.9661 15.7809 52.094 15.8959 52.1985C16.0109 52.3029 16.1469 52.3815 16.2948 52.429C16.4428 52.4765 16.5991 52.4918 16.7534 52.4738C18.6429 52.4738 20.5348 52.4738 22.4292 52.4738C22.5827 52.4917 22.7383 52.477 22.8857 52.4305C23.0331 52.384 23.169 52.3069 23.2844 52.2041C23.3999 52.1014 23.4923 51.9754 23.5556 51.8344C23.6188 51.6933 23.6515 51.5406 23.6515 51.386C23.6515 51.2314 23.6188 51.0786 23.5556 50.9376C23.4923 50.7966 23.3999 50.6706 23.2844 50.5679C23.169 50.4651 23.0331 50.388 22.8857 50.3415C22.7383 50.295 22.5827 50.2803 22.4292 50.2982C21.519 50.3204 20.5866 50.3204 19.6468 50.3204L19.6394 50.2982Z" fill="white"/>
</g>
</svg>
