<svg width="50" height="50" viewBox="0 0 50 50" fill="none" xmlns="http://www.w3.org/2000/svg">
<g id="Artboard 1 2">
<path id="Vector" d="M45.8499 41.0894C45.7849 41.3344 45.7249 41.5894 45.6549 41.8294C45.3785 42.7246 44.8296 43.5112 44.0847 44.0794C43.3399 44.6477 42.4363 44.9693 41.4999 44.9994H8.8599C6.7049 44.9994 4.9999 43.8294 4.3899 41.8944C4.24497 41.428 4.16917 40.9429 4.1649 40.4544C4.1449 37.2411 4.1449 34.0261 4.1649 30.8094C4.15333 30.2103 4.26289 29.615 4.48702 29.0592C4.71114 28.5034 5.04521 27.9987 5.46918 27.5752C5.89316 27.1516 6.3983 26.8181 6.95432 26.5946C7.51033 26.3711 8.10577 26.2622 8.7049 26.2744C19.5716 26.2744 30.4382 26.2744 41.3049 26.2744C42.3835 26.2516 43.4338 26.6205 44.2612 27.3128C45.0886 28.0051 45.637 28.9738 45.8049 30.0394C45.8224 30.0895 45.8441 30.1381 45.8699 30.1844L45.8499 41.0894ZM12.7899 35.1694L12.8699 34.9744C13.02 34.6459 13.0837 34.2845 13.055 33.9245C13.0263 33.5645 12.906 33.2178 12.7057 32.9173C12.5053 32.6167 12.2315 32.3724 11.9103 32.2074C11.589 32.0424 11.2309 31.9622 10.8699 31.9744C10.3699 31.9744 9.8349 31.9744 9.3199 31.9744C9.20996 31.9708 9.10047 31.9901 8.99836 32.031C8.89624 32.0719 8.80372 32.1335 8.72665 32.212C8.64958 32.2905 8.58963 32.3841 8.5506 32.4869C8.51157 32.5898 8.49431 32.6996 8.4999 32.8094C8.4999 34.6994 8.4999 36.5861 8.4999 38.4694C8.49569 38.5789 8.51414 38.6881 8.55411 38.7901C8.59408 38.8921 8.6547 38.9847 8.73216 39.0622C8.80963 39.1396 8.90227 39.2003 9.00427 39.2402C9.10627 39.2802 9.21543 39.2986 9.3249 39.2944C10.0149 39.2944 10.7099 39.2944 11.3999 39.2944C11.9262 39.2653 12.4269 39.0577 12.8195 38.706C13.2121 38.3543 13.4732 37.8794 13.5599 37.3594C13.6302 36.959 13.5962 36.5472 13.4614 36.1637C13.3265 35.7802 13.0953 35.4378 12.7899 35.1694ZM17.9999 31.9694C17.2757 31.9645 16.5663 32.1743 15.9612 32.5723C15.3561 32.9702 14.8825 33.5385 14.6002 34.2054C14.3178 34.8723 14.2393 35.6079 14.3747 36.3194C14.5101 37.0309 14.8532 37.6863 15.3607 38.2029C15.8683 38.7195 16.5175 39.0741 17.2265 39.2221C17.9354 39.37 18.6723 39.3046 19.3441 39.0341C20.0159 38.7636 20.5925 38.3001 21.0011 37.7021C21.4097 37.1042 21.632 36.3986 21.6399 35.6744C21.6479 34.7006 21.269 33.7634 20.5865 33.0687C19.904 32.3741 18.9737 31.9787 17.9999 31.9694ZM26.3899 31.9694C25.6657 31.9645 24.9563 32.1743 24.3512 32.5723C23.7461 32.9702 23.2725 33.5385 22.9902 34.2054C22.7078 34.8723 22.6293 35.6079 22.7647 36.3194C22.9001 37.0309 23.2432 37.6863 23.7507 38.2029C24.2583 38.7195 24.9075 39.0741 25.6165 39.2221C26.3254 39.37 27.0623 39.3046 27.7341 39.0341C28.4059 38.7636 28.9825 38.3001 29.3911 37.7021C29.7997 37.1042 30.022 36.3986 30.0299 35.6744C30.0393 34.7036 29.6636 33.7687 28.9851 33.0743C28.3066 32.3799 27.3806 31.9826 26.4099 31.9694H26.3899ZM33.3899 31.9694C33.0781 32.0209 32.7718 32.1013 32.4749 32.2094C32.0966 32.3509 31.7709 32.6052 31.542 32.9379C31.313 33.2706 31.1919 33.6656 31.1949 34.0694C31.1904 34.4698 31.3148 34.861 31.5499 35.1852C31.7849 35.5093 32.118 35.7492 32.4999 35.8694C33.0749 36.1144 33.6599 36.3244 34.2199 36.5944C34.3849 36.6794 34.5999 36.9244 34.5799 37.0944C34.5087 37.307 34.3607 37.4853 34.1649 37.5944C34.0111 37.6749 33.8381 37.7113 33.6649 37.6994C33.1579 37.6898 32.6749 37.4815 32.3199 37.1194C32.2444 37.0413 32.1539 36.9791 32.0538 36.9366C31.9537 36.8942 31.8461 36.8723 31.7374 36.8723C31.6287 36.8723 31.5211 36.8942 31.421 36.9366C31.3209 36.9791 31.2304 37.0413 31.1549 37.1194C31.0768 37.1954 31.0153 37.2868 30.9742 37.3877C30.9331 37.4887 30.9133 37.597 30.9162 37.706C30.919 37.8149 30.9443 37.9221 30.9906 38.0208C31.0368 38.1195 31.103 38.2076 31.1849 38.2794C31.5931 38.7205 32.1132 39.0426 32.6898 39.2117C33.2665 39.3807 33.8782 39.3903 34.4599 39.2394C35.0254 39.1244 35.5236 38.7927 35.8478 38.3153C36.172 37.8379 36.2966 37.2525 36.1949 36.6844C36.1029 36.307 35.9173 35.9588 35.6551 35.6722C35.3929 35.3855 35.0627 35.1696 34.6949 35.0444C34.1949 34.8194 33.6349 34.6244 33.1149 34.3994C32.7949 34.2644 32.7699 33.9694 33.0699 33.7944C33.2273 33.689 33.4163 33.6413 33.6049 33.6594C34.0067 33.7589 34.3971 33.8996 34.7699 34.0794C34.9517 34.1994 35.1732 34.2435 35.3872 34.2024C35.6011 34.1613 35.7905 34.0382 35.9149 33.8594C36.0309 33.6807 36.0728 33.4639 36.0318 33.2549C35.9907 33.0458 35.8699 32.861 35.6949 32.7394C35.0393 32.233 34.2333 31.9602 33.4049 31.9644L33.3899 31.9694ZM38.6399 33.5994V34.0994C38.6399 35.4844 38.6399 36.8644 38.6399 38.2494C38.631 38.4367 38.653 38.6243 38.7049 38.8044C38.77 38.9786 38.8944 39.1242 39.0563 39.2157C39.2182 39.3071 39.4071 39.3386 39.5899 39.3044C39.7925 39.2645 39.9731 39.1509 40.0968 38.9856C40.2205 38.8203 40.2786 38.6151 40.2599 38.4094C40.2599 37.1744 40.2599 35.9444 40.2599 34.7094V33.5944C40.5499 33.5944 40.8049 33.5944 41.0599 33.5944C41.2647 33.5856 41.4584 33.4989 41.6015 33.3521C41.7446 33.2053 41.8263 33.0094 41.8299 32.8044C41.834 32.5983 41.7574 32.3986 41.6163 32.2482C41.4752 32.0978 41.2809 32.0085 41.0749 31.9994C40.0049 31.9794 38.9349 31.9794 37.8649 31.9994C37.658 32.0021 37.4603 32.0858 37.3145 32.2325C37.1686 32.3793 37.0862 32.5775 37.0849 32.7844C37.0833 32.9965 37.1634 33.2011 37.3087 33.3556C37.4539 33.5102 37.6531 33.6029 37.8649 33.6144C38.1099 33.6094 38.3499 33.5944 38.6549 33.5944L38.6399 33.5994Z" fill="white"/>
<path id="Vector_2" d="M25.3302 3.30469C25.6609 3.56989 25.9702 3.8608 26.2552 4.17469C27.7552 6.13969 29.2202 8.12469 30.7102 10.0947C30.9095 10.2834 31.0424 10.5316 31.0888 10.8021C31.1352 11.0727 31.0928 11.351 30.9678 11.5953C30.8428 11.8397 30.6419 12.037 30.3954 12.1577C30.1489 12.2783 29.8699 12.3159 29.6002 12.2647C29.1002 12.2647 28.6002 12.2647 28.0552 12.2647V22.0947C28.0552 23.2447 27.6352 23.6647 26.4852 23.6647H23.3552C23.1647 23.6902 22.9708 23.6715 22.7887 23.6099C22.6066 23.5483 22.4411 23.4456 22.3052 23.3097C22.1693 23.1737 22.0665 23.0083 22.005 22.8262C21.9434 22.6441 21.9246 22.4502 21.9502 22.2597C21.9502 19.123 21.9502 15.988 21.9502 12.8547V12.2597C21.3352 12.2597 20.7452 12.2597 20.1552 12.2597C19.9231 12.2719 19.6926 12.2147 19.4931 12.0954C19.2936 11.976 19.1342 11.8 19.0352 11.5897C18.9191 11.3651 18.8751 11.1102 18.9091 10.8597C18.9431 10.6092 19.0535 10.3752 19.2252 10.1897C20.4652 8.54635 21.7018 6.89802 22.9352 5.24469C23.2152 4.87469 23.4702 4.48969 23.7752 4.14469C24.0802 3.79969 24.3752 3.58469 24.6752 3.30469H25.3302Z" fill="white"/>
<path id="Vector_3" d="M9.73522 17.1507H8.00022C7.75527 17.1701 7.51021 17.1145 7.29764 16.9912C7.08506 16.868 6.91505 16.6829 6.81022 16.4607C6.70382 16.2449 6.66503 16.002 6.69893 15.7638C6.73283 15.5256 6.83784 15.3032 7.00022 15.1257C8.59689 13.0023 10.1919 10.8773 11.7852 8.75067C11.8938 8.57601 12.0452 8.43193 12.225 8.33202C12.4048 8.23212 12.607 8.17969 12.8127 8.17969C13.0184 8.17969 13.2207 8.23212 13.4005 8.33202C13.5803 8.43193 13.7316 8.57601 13.8402 8.75067C15.4102 10.8657 17.0002 13.0007 18.5802 15.0957C18.7455 15.2826 18.8506 15.515 18.8817 15.7626C18.9127 16.0102 18.8684 16.2614 18.7544 16.4834C18.6405 16.7054 18.4622 16.8878 18.2429 17.0069C18.0236 17.1259 17.7735 17.176 17.5252 17.1507C16.9852 17.1507 16.4452 17.1507 15.8402 17.1507V17.6507C15.8402 19.1507 15.8402 20.6907 15.8402 22.2107C15.8402 23.2107 15.3802 23.6707 14.3702 23.6707H11.1552C10.9616 23.6975 10.7643 23.679 10.5791 23.6165C10.3938 23.5539 10.2257 23.4492 10.0879 23.3105C9.95018 23.1717 9.8466 23.0028 9.78538 22.8172C9.72416 22.6315 9.70699 22.4341 9.73522 22.2407C9.73522 20.7407 9.73522 19.2057 9.73522 17.6857V17.1507Z" fill="white"/>
<path id="Vector_4" d="M34.165 17.1496H32.435C32.1894 17.1693 31.9435 17.1139 31.7301 16.9907C31.5166 16.8674 31.3457 16.6822 31.24 16.4596C31.1301 16.2471 31.087 16.0064 31.1164 15.769C31.1459 15.5316 31.2465 15.3087 31.405 15.1296C32.9984 13.0062 34.5933 10.8812 36.19 8.75458C36.2986 8.57992 36.45 8.43583 36.6298 8.33593C36.8096 8.23602 37.0118 8.18359 37.2175 8.18359C37.4232 8.18359 37.6255 8.23602 37.8053 8.33593C37.985 8.43583 38.1364 8.57992 38.245 8.75458C39.845 10.8812 41.44 13.0079 43.03 15.1346C43.1873 15.3144 43.2871 15.5372 43.3165 15.7743C43.3459 16.0113 43.3036 16.2518 43.195 16.4646C43.0886 16.6863 42.9173 16.8705 42.704 16.9928C42.4906 17.1151 42.2451 17.1698 42 17.1496H40.295C40.295 17.3296 40.295 17.4846 40.295 17.6496C40.295 19.1496 40.295 20.6896 40.295 22.2096C40.295 23.2096 39.835 23.6746 38.83 23.6746H35.55C35.3629 23.6962 35.1734 23.6752 34.9955 23.6132C34.8176 23.5512 34.6561 23.4499 34.5229 23.3167C34.3897 23.1835 34.2884 23.022 34.2264 22.8441C34.1644 22.6662 34.1434 22.4767 34.165 22.2896C34.165 20.7596 34.165 19.2246 34.165 17.6946V17.1496Z" fill="white"/>
<path id="Vector_5" d="M10.1299 36.2246C10.5249 36.2246 10.8999 36.2246 11.2749 36.2246C11.4606 36.2337 11.6353 36.3152 11.7615 36.4517C11.8877 36.5882 11.9553 36.7688 11.9499 36.9546C11.9414 37.1388 11.8643 37.3133 11.7339 37.4437C11.6035 37.5741 11.4291 37.6511 11.2449 37.6596C11.1499 37.6596 11.0549 37.6596 10.9599 37.6596H10.1299V36.2246Z" fill="white"/>
<path id="Vector_6" d="M10.1201 34.5802V33.6102C10.4188 33.57 10.7215 33.57 11.0201 33.6102C11.1163 33.6548 11.2009 33.7208 11.2677 33.8031C11.3344 33.8854 11.3814 33.9819 11.4051 34.0852C11.4601 34.3552 11.2601 34.5402 10.9751 34.5852C10.6901 34.6302 10.4351 34.5802 10.1201 34.5802Z" fill="white"/>
<path id="Vector_7" d="M18.0002 33.5997C18.4022 33.6026 18.7944 33.7246 19.1272 33.9502C19.46 34.1759 19.7185 34.495 19.87 34.8674C20.0216 35.2398 20.0595 35.6487 19.9789 36.0426C19.8983 36.4365 19.7028 36.7977 19.4171 37.0806C19.1314 37.3635 18.7683 37.5554 18.3737 37.6322C17.979 37.7089 17.5704 37.6671 17.1995 37.5118C16.8287 37.3566 16.5121 37.095 16.2897 36.76C16.0674 36.4251 15.9492 36.0317 15.9502 35.6297C15.9509 35.3616 16.0045 35.0963 16.108 34.849C16.2115 34.6017 16.3628 34.3772 16.5533 34.1886C16.7438 34 16.9697 33.8508 17.218 33.7498C17.4663 33.6487 17.7321 33.5977 18.0002 33.5997Z" fill="white"/>
<path id="Vector_8" d="M26.3751 37.6696C25.973 37.6676 25.5806 37.5466 25.2473 37.3218C24.9139 37.097 24.6546 36.7785 24.5021 36.4064C24.3497 36.0344 24.3108 35.6256 24.3904 35.2315C24.4701 34.8374 24.6647 34.4757 24.9497 34.1921C25.2347 33.9085 25.5973 33.7157 25.9918 33.638C26.3862 33.5603 26.7949 33.6012 27.1662 33.7555C27.5374 33.9098 27.8547 34.1706 28.0778 34.505C28.301 34.8395 28.4201 35.2325 28.4201 35.6346C28.4194 35.9025 28.366 36.1676 28.2629 36.4149C28.1598 36.6621 28.009 36.8867 27.8191 37.0756C27.6292 37.2646 27.4039 37.4143 27.1562 37.5162C26.9084 37.6181 26.643 37.6702 26.3751 37.6696Z" fill="white"/>
</g>
</svg>
