<svg width="51" height="51" viewBox="0 0 51 51" fill="none" xmlns="http://www.w3.org/2000/svg">
<g id="Artboard 1 17">
<path id="Vector" d="M11.2559 11.8618C16.9832 12.0199 21.5732 9.68915 25.5002 5.75195C29.4068 9.66875 34.0019 12.0199 39.719 11.872C39.719 12.0607 39.7445 12.229 39.7445 12.382C39.7445 17.3239 39.7445 22.2658 39.7445 27.2128C39.7445 29.1406 39.0662 30.9358 38.291 32.6749C36.4781 36.6785 33.5853 40.0976 29.9372 42.5485C28.6316 43.4563 27.2189 44.2009 25.8572 45.0016C25.7718 45.0495 25.6771 45.0789 25.5796 45.0877C25.482 45.0965 25.3837 45.0845 25.2911 45.0526C20.7011 42.8035 16.8353 39.7231 14.1119 35.332C12.6345 33.04 11.6738 30.4539 11.2967 27.7534C11.2786 27.584 11.2701 27.4137 11.2712 27.2434V11.8618H11.2559ZM29.1518 30.028C28.7642 28.6561 28.4021 27.3199 28.0094 25.999C27.948 25.855 27.9332 25.6956 27.9671 25.5428C28.0009 25.3901 28.0817 25.2518 28.1981 25.1473C28.5482 24.7878 28.8148 24.3555 28.9788 23.8813C29.1427 23.407 29.2001 22.9024 29.1467 22.4035C29.0786 21.6232 28.7623 20.8854 28.244 20.2982C27.7257 19.7111 27.0328 19.3056 26.267 19.1412C25.5013 18.9769 24.703 19.0624 23.9895 19.3852C23.2759 19.708 22.6846 20.251 22.3025 20.9347C21.9156 21.6108 21.7605 22.395 21.8608 23.1676C21.9612 23.9402 22.3115 24.6587 22.8584 25.2136C22.9516 25.2975 23.0168 25.4081 23.045 25.5304C23.0733 25.6526 23.0633 25.7806 23.0165 25.897C22.6799 27.019 22.3688 28.1512 22.0526 29.2834C21.9863 29.518 21.9302 29.7628 21.869 30.028H29.1518Z" fill="white"/>
<path id="Vector_2" d="M1.76953 49.231V36.7207H4.50313V46.4464H15.2998V49.231H1.76953Z" fill="white"/>
<path id="Vector_3" d="M14.2801 4.52429H4.534V14.2806H1.7749V1.77539H14.2801V4.52429Z" fill="white"/>
<path id="Vector_4" d="M49.2305 1.76953V14.2798H46.4867V4.52863H36.7202V1.76953H49.2305Z" fill="white"/>
<path id="Vector_5" d="M36.7202 49.2208V46.4923H46.4612V36.7207H49.2152V49.2208H36.7202Z" fill="white"/>
</g>
</svg>
