<svg width="60" height="60" viewBox="0 0 60 60" fill="none" xmlns="http://www.w3.org/2000/svg">
<g id="Artboard 1 12">
<path id="Vector" d="M50.2858 20.5141C50.1959 25.3317 49.2533 30.0953 47.5018 34.5841C44.9913 40.6127 40.6783 45.7178 35.1538 49.2001C33.8458 50.0521 32.4658 50.7781 31.1158 51.5581C30.779 51.7583 30.3945 51.864 30.0028 51.864C29.611 51.864 29.2265 51.7583 28.8898 51.5581C24.9744 49.5961 21.4281 46.9714 18.4078 43.8001C14.6384 39.7206 12.0283 34.7075 10.8478 29.2801C10.0568 25.7178 9.68828 22.0747 9.74976 18.4261C9.73841 18.1701 9.77905 17.9145 9.86924 17.6747C9.95943 17.4349 10.0973 17.2158 10.2745 17.0308C10.4517 16.8457 10.6646 16.6985 10.9003 16.598C11.1359 16.4975 11.3895 16.4459 11.6458 16.4461C17.9098 16.3621 23.2618 13.8001 28.3138 10.3921C28.4098 10.3321 28.4938 10.2661 28.5838 10.2061C29.6998 9.4321 30.3358 9.4201 31.4578 10.2061C33.765 11.8474 36.2435 13.2335 38.8498 14.3401C41.789 15.6534 44.9612 16.3654 48.1798 16.4341C48.4668 16.4134 48.755 16.4558 49.024 16.5582C49.2929 16.6606 49.5363 16.8206 49.7369 17.0269C49.9376 17.2333 50.0907 17.481 50.1855 17.7528C50.2803 18.0245 50.3145 18.3137 50.2858 18.6001C50.2798 19.2421 50.2858 19.8781 50.2858 20.5141ZM29.9998 39.6001C31.3438 39.6001 32.6878 39.6001 34.0318 39.6001C34.8656 39.5863 35.6616 39.2497 36.2524 38.6612C36.8432 38.0726 37.1828 37.2779 37.1998 36.4441C37.1998 34.0441 37.1998 31.6441 37.1998 29.2441C37.2108 28.7397 37.0905 28.241 36.8507 27.7971C36.6108 27.3533 36.2597 26.9793 35.8318 26.7121C35.6331 26.6057 35.4702 26.4431 35.3635 26.2446C35.2568 26.0461 35.211 25.8205 35.2318 25.5961C35.2422 24.806 35.0698 24.0242 34.7281 23.3118C34.3863 22.5994 33.8844 21.9757 33.2616 21.4895C32.6388 21.0032 31.912 20.6676 31.138 20.5088C30.364 20.35 29.5637 20.3723 28.7998 20.5741C26.2978 21.1261 24.7918 23.0761 24.7858 25.8061C24.7998 25.9698 24.7651 26.1341 24.6861 26.2782C24.6071 26.4223 24.4873 26.5399 24.3418 26.6161C23.8586 26.8991 23.4604 27.3069 23.1891 27.7967C22.9178 28.2866 22.7833 28.8404 22.7998 29.4001C22.7998 31.6841 22.7998 33.9721 22.7998 36.2641C22.7889 36.7072 22.8686 37.1478 23.0339 37.5591C23.1993 37.9703 23.4468 38.3434 23.7613 38.6557C24.0758 38.968 24.4508 39.2128 24.8632 39.3752C25.2756 39.5376 25.7168 39.6141 26.1598 39.6001C27.4318 39.6001 28.7038 39.6001 29.9998 39.6001Z" fill="white"/>
<path id="Vector_2" d="M13.1399 52.1643C12.5093 52.672 11.7509 52.9957 10.9482 53.0999C10.1455 53.2042 9.32953 53.0849 8.59027 52.7551C7.851 52.4253 7.21708 51.8979 6.75833 51.231C6.29958 50.5641 6.0338 49.7835 5.99026 48.9751C5.94671 48.1668 6.12709 47.3622 6.51154 46.6498C6.89598 45.9375 7.46957 45.345 8.16913 44.9378C8.86869 44.5305 9.66709 44.3242 10.4764 44.3416C11.2857 44.359 12.0745 44.5994 12.7559 45.0363C14.7599 46.3203 15.2519 48.5583 14.0759 51.1863C14.2439 51.3123 14.4239 51.4623 14.6099 51.5943C19.9799 55.3863 25.9619 57.1083 32.4899 56.3943C42.6899 55.2603 50.0099 49.8963 54.2999 40.5783C56.6999 35.3583 57.0899 29.8503 55.8959 24.2343C55.8959 24.1323 55.8479 24.0243 55.8299 23.9163C55.7999 23.8293 55.7891 23.7368 55.7983 23.6452C55.8075 23.5535 55.8365 23.465 55.8833 23.3857C55.9301 23.3064 55.9935 23.2382 56.0693 23.1858C56.145 23.1335 56.2312 23.0981 56.3219 23.0823C56.4116 23.0541 56.5066 23.0474 56.5994 23.0627C56.6921 23.0779 56.78 23.1148 56.8559 23.1703C56.9318 23.2257 56.9936 23.2982 57.0363 23.382C57.0791 23.4657 57.1015 23.5583 57.1019 23.6523C57.2699 24.4503 57.4559 25.2483 57.5519 26.0523C58.6859 35.3763 56.0279 43.4523 49.2959 50.0523C43.6259 55.5783 36.6959 58.1223 28.7819 57.8523C23.3587 57.6656 18.1181 55.8463 13.7459 52.6323L13.2599 52.2003L13.1399 52.1643Z" fill="white"/>
<path id="Vector_3" d="M43.872 7.42193C42.3407 6.4589 40.7065 5.67001 39 5.06993C34.6342 3.49949 29.9328 3.10164 25.3651 3.91608C20.7975 4.73053 16.5234 6.72879 12.9694 9.71139C9.41539 12.694 6.70588 16.5566 5.1113 20.9137C3.51672 25.2707 3.09285 29.9698 3.882 34.5419C3.99 35.2079 3.882 35.5019 3.426 35.5859C2.97 35.6699 2.7 35.3999 2.592 34.7519C1.458 27.6479 2.712 20.9999 6.642 14.9519C8.7571 11.5772 11.5915 8.71128 14.9428 6.55908C18.294 4.40687 22.0792 3.02149 26.028 2.50193C32.2972 1.52466 38.7103 2.78647 44.142 6.06593C44.276 6.17596 44.4472 6.23043 44.6201 6.21816C44.7931 6.20588 44.9548 6.12778 45.072 5.99993C45.7983 5.42538 46.7077 5.13264 47.6328 5.17564C48.5578 5.21864 49.4362 5.59449 50.106 6.23393C50.6114 6.70647 50.9819 7.30494 51.1797 7.96794C51.3774 8.63095 51.3952 9.33463 51.2313 10.0068C51.0673 10.679 50.7275 11.2954 50.2467 11.7929C49.7659 12.2904 49.1614 12.651 48.4952 12.8378C47.829 13.0246 47.1252 13.0308 46.4558 12.8558C45.7864 12.6808 45.1757 12.3308 44.6862 11.8419C44.1967 11.3529 43.8461 10.7425 43.6703 10.0734C43.4945 9.4042 43.5 8.70032 43.686 8.03393C43.74 7.82993 43.8 7.64393 43.872 7.42193Z" fill="white"/>
<path id="Vector_4" d="M26.1238 26.058C26.0816 25.5201 26.1511 24.9793 26.3279 24.4696C26.5048 23.9599 26.7851 23.4923 27.1514 23.0961C27.5177 22.6999 27.9619 22.3838 28.4563 22.1676C28.9506 21.9514 29.4843 21.8398 30.0238 21.8398C30.5633 21.8398 31.097 21.9514 31.5914 22.1676C32.0857 22.3838 32.53 22.6999 32.8962 23.0961C33.2625 23.4923 33.5429 23.9599 33.7197 24.4696C33.8966 24.9793 33.966 25.5201 33.9238 26.058H26.1238Z" fill="white"/>
<path id="Vector_5" d="M29.9999 36.1148C28.3559 36.1148 28.1999 35.9228 28.5059 34.3148C28.5959 33.8348 28.7039 33.3548 28.7999 32.8808C28.9609 32.4001 28.9308 31.8759 28.7159 31.4168C28.6012 31.1466 28.5821 30.8453 28.6617 30.5628C28.7413 30.2803 28.915 30.0333 29.1539 29.8628C29.3865 29.6862 29.6677 29.5852 29.9595 29.5734C30.2513 29.5616 30.5397 29.6396 30.7859 29.7968C31.0424 29.9261 31.2441 30.1431 31.3542 30.4085C31.4643 30.6738 31.4755 30.9699 31.3859 31.2428C30.9659 32.0528 31.2599 32.7908 31.3859 33.5528C31.4699 34.0028 31.5779 34.4408 31.6499 34.8848C31.7939 35.7308 31.4639 36.0848 30.6059 36.1208C30.3899 36.1208 30.1919 36.1148 29.9999 36.1148Z" fill="white"/>
</g>
</svg>
