<svg width="60" height="60" viewBox="0 0 60 60" fill="none" xmlns="http://www.w3.org/2000/svg">
<g id="Artboard 1 copy 16">
<path id="Vector" d="M15.126 56.7969C15.42 54.9129 15.678 53.0829 15.996 51.2589C16.0772 50.874 16.2596 50.5177 16.5243 50.2266C16.789 49.9355 17.1265 49.7203 17.502 49.6029C20.016 48.5409 22.512 47.4309 25.032 46.3869C25.3711 46.3006 25.6777 46.1173 25.9143 45.8594C26.1509 45.6015 26.3071 45.2802 26.364 44.9349C26.4022 44.7893 26.4565 44.6485 26.526 44.5149C28.836 45.9609 31.14 45.9549 33.54 44.4609C33.54 45.9849 34.638 46.2609 35.646 46.6809C37.872 47.6229 40.08 48.6009 42.318 49.5249C42.8121 49.6918 43.2463 50.0003 43.5664 50.4122C43.8864 50.824 44.0783 51.3209 44.118 51.8409C44.298 53.2929 44.55 54.7389 44.772 56.1849C44.802 56.3709 44.808 56.5629 44.832 56.7849L15.126 56.7969Z" fill="white"/>
<path id="Vector_2" d="M37.1999 30.9661C37.0739 31.7701 36.9599 32.5801 36.8039 33.3661C36.7385 33.5726 36.7418 33.7946 36.8131 33.9991C36.8845 34.2035 37.0202 34.3793 37.1999 34.5001C37.4532 34.7429 37.6036 35.0737 37.6199 35.4241C37.6199 35.8561 37.2779 36.0961 36.8399 36.1501C36.4019 36.2041 36.1319 36.5161 36.0659 37.0081C35.8707 38.9853 35.0631 40.8521 33.7559 42.3481C32.9958 43.2551 31.9473 43.8735 30.7859 44.1001C28.6499 44.4721 27.0779 43.5001 25.8059 41.9101C24.7513 40.5658 24.0945 38.9528 23.9099 37.2541C23.8259 36.6541 23.6639 36.1921 22.9319 36.0961C22.786 36.041 22.6555 35.9518 22.5511 35.8359C22.4467 35.7201 22.3716 35.5809 22.3319 35.4301C22.32 35.2645 22.3463 35.0982 22.4087 34.9443C22.4711 34.7903 22.568 34.6528 22.6919 34.5421C22.8954 34.4227 23.057 34.2433 23.1547 34.0285C23.2525 33.8137 23.2815 33.574 23.2379 33.3421C23.1619 31.8061 23.1199 30.2681 23.1119 28.7281C23.1359 28.2696 23.2331 27.8179 23.3999 27.3901C23.7539 26.3281 24.3899 25.9861 25.4819 26.1901C26.3699 26.3701 26.4419 26.3281 26.8019 25.4941C27.4979 23.8501 29.1479 23.0461 31.1159 23.3881C34.6559 24.0421 37.1459 27.1381 37.1999 30.9661Z" fill="white"/>
<path id="Vector_3" d="M47.9041 33.504L43.6621 30L47.8621 26.502C47.8921 26.6444 47.9121 26.7887 47.9221 26.934C47.9221 27.852 48.0961 28.002 49.0441 28.002H56.7841V31.968H56.1361H49.1221C48.0661 31.968 47.9761 32.064 47.9221 33.168C47.922 33.2802 47.916 33.3923 47.9041 33.504Z" fill="white"/>
<path id="Vector_4" d="M9.66016 12.4736L12.5282 9.59961C12.9602 10.0616 13.4042 10.5716 13.8842 11.0516C15.1982 12.3836 16.5302 13.7036 17.8562 15.0296C18.6002 15.7736 18.7622 15.7736 19.5182 15.0296L19.7882 14.8136L20.3162 20.2856L14.8802 19.7996C14.9541 19.6796 15.0342 19.5634 15.1202 19.4516C15.7502 18.7856 15.7502 18.5756 15.0842 17.9036L10.0742 12.8996L9.66016 12.4736Z" fill="white"/>
<path id="Vector_5" d="M30 16.3131L26.502 12.1131C26.6666 12.0832 26.8329 12.0632 27 12.0531C27.828 12.0531 28.014 11.8431 28.014 10.9911V3.20312H32.01V3.85113C32.01 6.17313 32.01 8.50113 32.01 10.8231C32.01 11.9091 32.082 11.9871 33.156 12.0231C33.228 12.0231 33.3 12.0231 33.51 12.0651L30 16.3131Z" fill="white"/>
<path id="Vector_6" d="M3.19824 27.996H11.0882C11.8082 27.996 12.0002 27.786 12.0302 27.042C12.0302 26.892 12.0602 26.748 12.0782 26.502L16.3082 30L12.1082 33.462C11.8142 32.004 11.8142 32.004 10.3082 32.004H3.19824V27.996Z" fill="white"/>
<path id="Vector_7" d="M45.1378 19.799L39.6538 20.315L40.1638 14.915C40.2456 14.9471 40.324 14.9873 40.3978 15.035C41.2738 15.815 41.3518 15.815 42.1978 14.963L47.4478 9.70703L50.2738 12.515C50.2018 12.593 50.0638 12.749 49.9138 12.899L44.9458 17.867C44.2018 18.611 44.2018 18.785 44.9458 19.541C44.9998 19.583 44.9998 19.649 45.1378 19.799Z" fill="white"/>
</g>
</svg>
