<svg width="46" height="46" viewBox="0 0 46 46" fill="none" xmlns="http://www.w3.org/2000/svg">
<path d="M23.0965 35.3835L18.3079 32.7707C18.3079 33.5573 18.3079 34.2749 18.3079 34.9879C18.323 35.1877 18.2889 35.3881 18.2087 35.5717C18.1286 35.7553 18.0047 35.9165 17.8479 36.0413C17.4891 36.3633 17.1717 36.7359 16.8129 37.0579C16.7616 37.0939 16.7181 37.1399 16.6852 37.1933C16.6523 37.2467 16.6307 37.3062 16.6217 37.3682C16.6126 37.4303 16.6163 37.4935 16.6326 37.554C16.6489 37.6146 16.6774 37.6712 16.7163 37.7203C17.0052 38.3796 17.0224 39.1262 16.764 39.798C16.5056 40.4698 15.9925 41.0126 15.3363 41.3083C14.7541 41.5808 14.0951 41.6416 13.4729 41.4801C12.8507 41.3187 12.3044 40.9451 11.9282 40.4239C11.552 39.9027 11.3695 39.2665 11.4123 38.6251C11.455 37.9837 11.7203 37.3774 12.1623 36.9107C12.5395 36.4981 13.0346 36.2118 13.5804 36.0908C14.1261 35.9698 14.6959 36.02 15.2121 36.2345C15.3265 36.2913 15.4564 36.3089 15.5819 36.2849C15.7073 36.2608 15.8214 36.1962 15.9067 36.1011C16.3122 35.8279 16.6287 35.4416 16.8167 34.9903C17.0048 34.5389 17.0562 34.0422 16.9647 33.5619C16.8911 33.0605 17.1073 32.4441 16.8819 32.0577C16.6565 31.6713 16.0401 31.5103 15.5939 31.2803L14.8119 30.8203C14.188 30.5273 13.6667 30.0535 13.3156 29.4604C12.9645 28.8673 12.7999 28.1824 12.8431 27.4945V27.1035C11.9231 27.1035 11.0353 27.1035 10.1429 27.1035C10.0555 27.1035 9.94969 27.3105 9.89449 27.4393C9.67064 27.9753 9.28336 28.4271 8.7878 28.7302C8.29224 29.0333 7.71367 29.1724 7.13449 29.1275C6.50822 29.0745 5.91936 28.8073 5.46714 28.3708C5.01492 27.9343 4.727 27.3553 4.6519 26.7313C4.57681 26.1073 4.71913 25.4765 5.05487 24.9452C5.39062 24.4138 5.89927 24.0145 6.49509 23.8145C7.14121 23.5904 7.84841 23.6207 8.473 23.8992C9.09758 24.1778 9.59268 24.6836 9.85769 25.3141C9.88859 25.4476 9.96883 25.5644 10.0823 25.6412C10.1958 25.718 10.3341 25.749 10.4695 25.7281C11.2377 25.6959 12.0059 25.7281 12.8063 25.7281V20.2679C11.9231 20.2679 11.0353 20.2679 10.1429 20.2679C10.0555 20.2679 9.94969 20.4749 9.89449 20.6037C9.67816 21.1385 9.29809 21.5911 8.80875 21.8967C8.31942 22.2023 7.74591 22.3451 7.17041 22.3048C6.59491 22.2644 6.04695 22.043 5.60503 21.6721C5.1631 21.3013 4.8499 20.8001 4.71029 20.2403C4.54862 19.5775 4.6425 18.8781 4.97324 18.2814C5.30399 17.6847 5.84733 17.2344 6.49509 17.0203C7.14115 16.795 7.84881 16.8248 8.47369 17.1034C9.09857 17.3821 9.59357 17.8887 9.85769 18.5199C9.88859 18.6534 9.96883 18.7702 10.0823 18.847C10.1958 18.9238 10.3341 18.9548 10.4695 18.9339C11.2377 18.9017 12.0059 18.9339 12.8431 18.9339C12.8431 18.7223 12.8431 18.5337 12.8431 18.3405C12.8362 17.7317 12.9947 17.1324 13.3017 16.6066C13.6088 16.0808 14.0528 15.6482 14.5865 15.3551C15.2719 14.9503 15.9665 14.5685 16.6795 14.2005C16.7661 14.1609 16.8383 14.0953 16.8861 14.0129C16.9339 13.9306 16.9549 13.8354 16.9463 13.7405C16.9463 12.9309 16.9463 12.1167 16.9463 11.3071C16.929 11.1362 16.8582 10.9752 16.7439 10.8471C16.4725 10.5389 16.1505 10.2721 15.8791 9.95929C15.6721 9.72469 15.5019 9.72929 15.2213 9.84429C14.7683 10.0294 14.2742 10.0907 13.7898 10.0219C13.3053 9.95322 12.8478 9.75691 12.4641 9.45314C12.0805 9.14938 11.7845 8.74908 11.6065 8.29326C11.4285 7.83744 11.3749 7.34249 11.4512 6.85913C11.5274 6.37577 11.7308 5.92137 12.0405 5.54251C12.3502 5.16364 12.7551 4.87393 13.2136 4.70305C13.6722 4.53217 14.1679 4.48628 14.65 4.57007C15.1321 4.65386 15.5833 4.86432 15.9573 5.17989C16.4087 5.54631 16.7294 6.0491 16.8712 6.61298C17.013 7.17686 16.9683 7.7715 16.7439 8.30789C16.6701 8.42426 16.6438 8.5645 16.6703 8.69972C16.6968 8.83494 16.7742 8.95483 16.8865 9.03469C17.2635 9.3523 17.6157 9.69832 17.9399 10.0697C18.1303 10.3056 18.2485 10.5916 18.2803 10.8931C18.3263 11.6429 18.2803 12.3973 18.2803 13.2299L23.0689 10.6217C23.0689 9.87189 23.0689 8.98869 23.0689 8.11009C23.0689 7.98589 22.8849 7.82489 22.7469 7.76509C22.2074 7.54422 21.7517 7.15821 21.4451 6.66239C21.1385 6.16657 20.9968 5.58641 21.0403 5.00509C21.0841 4.37028 21.3482 3.77067 21.7868 3.30971C22.2255 2.84875 22.8113 2.55534 23.4431 2.48011C24.075 2.40487 24.7133 2.55253 25.2479 2.8976C25.7826 3.24267 26.18 3.76352 26.3717 4.37029C26.5898 5.01862 26.5528 5.72568 26.2683 6.34774C25.9838 6.96979 25.473 7.46013 24.8399 7.71909C24.7129 7.74886 24.6018 7.82571 24.5293 7.93414C24.4567 8.04257 24.428 8.1745 24.4489 8.30329C24.4765 9.11289 24.4489 9.92249 24.4489 10.6355L29.2329 13.2161C29.2329 12.4065 29.2329 11.6567 29.2329 10.9161C29.222 10.7534 29.2486 10.5903 29.3109 10.4395C29.3731 10.2888 29.4692 10.1543 29.5917 10.0467C29.9781 9.68789 30.3277 9.29689 30.7187 8.94269C30.8142 8.87409 30.8799 8.7715 30.9021 8.656C30.9244 8.5405 30.9015 8.42087 30.8383 8.32169C30.6772 7.97335 30.5905 7.59523 30.5837 7.21149C30.577 6.82775 30.6504 6.44682 30.7992 6.09304C30.948 5.73925 31.1689 5.42039 31.4479 5.15682C31.7269 4.89324 32.0578 4.69075 32.4194 4.56228C32.7811 4.4338 33.1656 4.38217 33.5483 4.41067C33.931 4.43917 34.3036 4.54719 34.6423 4.72782C34.9809 4.90845 35.2781 5.15772 35.515 5.45971C35.7519 5.7617 35.9231 6.10977 36.0179 6.48169C36.1773 6.97426 36.1867 7.50308 36.045 8.00102C35.9033 8.49897 35.6169 8.9436 35.2221 9.27849C34.848 9.64611 34.3712 9.89169 33.8546 9.98284C33.3381 10.074 32.8061 10.0064 32.3287 9.78909C32.2196 9.73595 32.0961 9.72021 31.9772 9.74433C31.8583 9.76844 31.7506 9.83106 31.6709 9.92249C31.2561 10.1944 30.9321 10.584 30.7403 11.0413C30.5485 11.4987 30.4977 12.0029 30.5945 12.4893C30.6727 12.9907 30.4611 13.6025 30.6819 13.9935C30.9027 14.3845 31.5099 14.4857 31.9423 14.7203L32.7243 15.1573C33.3558 15.4514 33.8838 15.9293 34.2392 16.5284C34.5946 17.1276 34.7608 17.8201 34.7161 18.5153C34.7115 18.6011 34.7115 18.6871 34.7161 18.7729C34.7161 18.7959 34.7161 18.8235 34.7667 18.8925C35.6131 18.8925 36.4779 18.8925 37.3427 18.8925C37.4485 18.8925 37.5865 18.7039 37.6417 18.5751C37.8821 17.991 38.3156 17.507 38.8698 17.2039C39.424 16.9009 40.0654 16.7971 40.6869 16.9099C41.3104 17.0288 41.873 17.3615 42.2776 17.8506C42.6823 18.3397 42.9036 18.9546 42.9036 19.5894C42.9036 20.2242 42.6823 20.8391 42.2776 21.3282C41.873 21.8173 41.3104 22.15 40.6869 22.2689C40.075 22.3956 39.4381 22.3039 38.8868 22.0098C38.3355 21.7157 37.9047 21.2377 37.6693 20.6589C37.6457 20.5312 37.5748 20.4172 37.4707 20.3396C37.3667 20.262 37.2372 20.2265 37.1081 20.2403C36.3307 20.2679 35.5487 20.2403 34.7391 20.2403V25.7327C35.6177 25.7327 36.4825 25.7327 37.3473 25.7327C37.4531 25.7327 37.5911 25.5441 37.6463 25.4107C37.8247 24.9493 38.1238 24.5443 38.5124 24.2381C38.901 23.9319 39.3647 23.7358 39.855 23.6703C40.3454 23.6047 40.8443 23.6722 41.2996 23.8656C41.755 24.059 42.15 24.3713 42.4432 24.7696C42.7365 25.168 42.9174 25.6379 42.9668 26.1302C43.0162 26.6224 42.9324 27.1189 42.7242 27.5676C42.516 28.0164 42.191 28.4009 41.7832 28.681C41.3754 28.9611 40.8999 29.1264 40.4063 29.1597C39.8428 29.2067 39.2789 29.0733 38.796 28.779C38.3132 28.4847 37.9363 28.0445 37.7199 27.5221C37.6808 27.3765 37.5877 27.2512 37.4595 27.1717C37.3313 27.0923 37.1777 27.0646 37.0299 27.0943C36.2801 27.1219 35.5257 27.0943 34.7575 27.0943C34.7253 27.5129 34.7253 27.9131 34.6609 28.2995C34.583 28.8008 34.39 29.2772 34.0971 29.6914C33.8042 30.1056 33.4194 30.4464 32.9727 30.6869C32.2919 31.0779 31.5927 31.4597 30.9211 31.8277C30.8227 31.8625 30.739 31.9297 30.6838 32.0183C30.6287 32.1069 30.6053 32.2116 30.6175 32.3153C30.6175 33.1111 30.6175 33.9115 30.6175 34.7073C30.6318 34.8763 30.6976 35.0369 30.8061 35.1673C31.1005 35.4985 31.4317 35.7929 31.7261 36.1149C31.7819 36.194 31.8657 36.2489 31.9605 36.2685C32.0553 36.2882 32.154 36.2711 32.2367 36.2207C32.7196 35.9809 33.2649 35.8964 33.7977 35.9788C34.3306 36.0611 34.8249 36.3063 35.2129 36.6807C35.6318 37.016 35.9358 37.4735 36.0825 37.9896C36.2293 38.5057 36.2115 39.0548 36.0317 39.5603C35.8955 40.0833 35.6018 40.5519 35.1904 40.9024C34.779 41.2529 34.2697 41.4685 33.7317 41.5199C33.2504 41.5841 32.7606 41.5202 32.3119 41.3347C31.8631 41.1491 31.4713 40.8484 31.1759 40.463C30.8806 40.0775 30.6921 39.621 30.6296 39.1394C30.5671 38.6579 30.6327 38.1684 30.8199 37.7203C30.9441 37.4213 30.9441 37.2235 30.6773 37.0395C30.1047 36.6774 29.6581 36.147 29.3987 35.5212C29.1393 34.8953 29.0798 34.2045 29.2283 33.5435C29.2471 33.2893 29.2471 33.0341 29.2283 32.7799L24.4443 35.3743C24.4443 36.1425 24.4443 37.0487 24.4443 37.9549C24.4443 38.0561 24.6513 38.1895 24.7847 38.2447C25.3207 38.4685 25.7725 38.8558 26.0756 39.3514C26.3787 39.8469 26.5178 40.4255 26.4729 41.0047C26.4166 41.6296 26.1474 42.2163 25.7102 42.6664C25.273 43.1165 24.6944 43.4027 24.0713 43.477C23.4483 43.5514 22.8186 43.4095 22.2877 43.0749C21.7569 42.7404 21.3571 42.2336 21.1553 41.6395C20.9328 40.9934 20.9645 40.2869 21.2438 39.6632C21.5231 39.0396 22.0293 38.5456 22.6595 38.2815C22.7933 38.2496 22.9103 38.1684 22.987 38.0542C23.0637 37.94 23.0946 37.8011 23.0735 37.6651C23.0735 36.8785 23.0965 36.0827 23.0965 35.3835ZM16.9417 22.4667L17.0337 22.4391L19.7247 26.0133C19.9363 26.2985 20.1847 26.5009 20.5527 26.3813C20.7173 26.3294 20.8576 26.2199 20.948 26.0729C21.0384 25.9258 21.0728 25.7512 21.0449 25.5809C21.0449 24.4723 21.0449 23.3637 21.0449 22.2551C21.0449 21.5973 21.0449 20.9441 21.0449 20.2909C21.0449 20.1079 20.9722 19.9324 20.8428 19.803C20.7134 19.6736 20.5379 19.6009 20.3549 19.6009C20.1719 19.6009 19.9964 19.6736 19.867 19.803C19.7376 19.9324 19.6649 20.1079 19.6649 20.2909C19.6649 20.5025 19.6649 20.7141 19.6649 20.9303V23.6581L19.3337 23.2487C18.4996 22.1447 17.6685 21.0422 16.8405 19.9413C16.7638 19.8035 16.6414 19.6968 16.4944 19.6396C16.3474 19.5825 16.1851 19.5786 16.0355 19.6285C15.8865 19.6791 15.7595 19.7794 15.6757 19.9126C15.592 20.0458 15.5566 20.2037 15.5755 20.3599C15.5755 20.9441 15.5755 21.5237 15.5755 22.1079C15.5755 23.3039 15.5755 24.4999 15.5755 25.6959C15.5692 25.7885 15.582 25.8814 15.6131 25.9688C15.6443 26.0562 15.6931 26.1363 15.7565 26.2041C15.82 26.2718 15.8966 26.3258 15.9818 26.3626C16.067 26.3994 16.1589 26.4183 16.2517 26.4181C16.3445 26.4182 16.4363 26.3995 16.5216 26.363C16.607 26.3266 16.684 26.2732 16.7481 26.2061C16.8122 26.139 16.862 26.0596 16.8945 25.9727C16.9269 25.8858 16.9415 25.7932 16.9371 25.7005C16.9371 25.5579 16.9371 25.4153 16.9371 25.2727L16.9417 22.4667ZM23.8003 20.9487H25.6863C26.1923 20.9487 26.5005 20.6911 26.5097 20.2817C26.5189 19.8723 26.2015 19.5871 25.6725 19.5825H23.2805C22.6411 19.5825 22.4111 19.8171 22.4111 20.4657V25.5257C22.4111 26.0777 22.6503 26.3859 23.0781 26.3951C23.5059 26.4043 23.7773 26.0823 23.7773 25.5211C23.7773 24.9599 23.7773 24.3067 23.7773 23.6811C24.4627 23.6811 25.1021 23.6811 25.7415 23.6811C25.9065 23.6967 26.0717 23.6536 26.208 23.5593C26.3443 23.4651 26.443 23.3258 26.4867 23.1659C26.6201 22.7059 26.2751 22.3241 25.7461 22.3149C25.0975 22.3149 24.4489 22.3149 23.8003 22.3149V20.9487ZM29.2467 20.9487V25.4889C29.2467 26.0961 29.4905 26.4089 29.9413 26.4089C30.3921 26.4089 30.6129 26.0823 30.6129 25.4659V20.9487C30.8889 20.9487 31.1005 20.9487 31.3121 20.9487C31.4027 20.9476 31.4921 20.9282 31.575 20.8916C31.6579 20.855 31.7326 20.802 31.7945 20.7358C31.8563 20.6697 31.9042 20.5916 31.9351 20.5065C31.9661 20.4213 31.9795 20.3308 31.9745 20.2403C31.9757 20.0666 31.9082 19.8995 31.7867 19.7754C31.6652 19.6513 31.4996 19.5803 31.3259 19.5779C30.4059 19.5595 29.4859 19.5595 28.5659 19.5779C28.4762 19.576 28.387 19.5923 28.3038 19.6259C28.2206 19.6595 28.1451 19.7097 28.0819 19.7733C28.0186 19.837 27.969 19.9129 27.936 19.9963C27.9029 20.0797 27.8872 20.169 27.8897 20.2587C27.8921 20.4389 27.9654 20.6108 28.0937 20.7374C28.2219 20.864 28.3949 20.9349 28.5751 20.9349C28.7775 20.9579 28.9799 20.9487 29.2467 20.9487ZM14.1955 5.91589C13.9208 5.91601 13.6524 5.9981 13.4247 6.15165C13.1969 6.30519 13.0202 6.52321 12.9171 6.7778C12.8139 7.03238 12.7891 7.31194 12.8458 7.5807C12.9025 7.84947 13.0381 8.0952 13.2353 8.28644C13.4324 8.47769 13.6822 8.60574 13.9525 8.65422C14.2229 8.7027 14.5016 8.6694 14.7529 8.55857C15.0042 8.44775 15.2168 8.26444 15.3633 8.03212C15.5099 7.7998 15.5837 7.52904 15.5755 7.25449C15.5647 6.89571 15.4146 6.55525 15.1569 6.30534C14.8993 6.05542 14.5544 5.91573 14.1955 5.91589ZM7.35989 18.2163C7.0856 18.2164 6.81755 18.2982 6.58997 18.4513C6.36238 18.6044 6.18559 18.8218 6.08215 19.0759C5.97871 19.3299 5.95333 19.609 6.00924 19.8776C6.06515 20.1461 6.19982 20.3919 6.39605 20.5835C6.59228 20.7752 6.84117 20.904 7.11095 20.9536C7.38073 21.0031 7.65916 20.9712 7.91069 20.8618C8.16222 20.7524 8.37544 20.5705 8.52314 20.3393C8.67083 20.1082 8.74629 19.8383 8.73989 19.5641C8.73148 19.2037 8.58238 18.8609 8.32449 18.609C8.0666 18.3572 7.72038 18.2162 7.35989 18.2163ZM8.73989 26.4319C8.74538 26.1578 8.66912 25.8884 8.52086 25.6578C8.37259 25.4273 8.15903 25.2461 7.9074 25.1374C7.65577 25.0287 7.37747 24.9974 7.10799 25.0475C6.8385 25.0976 6.59003 25.2268 6.39427 25.4187C6.1985 25.6105 6.0643 25.8563 6.00878 26.1248C5.95326 26.3932 5.97892 26.672 6.08251 26.9258C6.1861 27.1796 6.36292 27.3968 6.59042 27.5497C6.81791 27.7026 7.08579 27.7842 7.35989 27.7843C7.72116 27.7844 8.06805 27.6428 8.32607 27.3899C8.58409 27.137 8.73267 26.7931 8.73989 26.4319ZM41.5471 26.4319C41.5553 26.1573 41.4815 25.8866 41.3349 25.6543C41.1884 25.4219 40.9758 25.2386 40.7245 25.1278C40.4732 25.017 40.1945 24.9837 39.9241 25.0322C39.6538 25.0806 39.404 25.2087 39.2069 25.3999C39.0097 25.5912 38.8741 25.8369 38.8174 26.1057C38.7607 26.3744 38.7855 26.654 38.8887 26.9086C38.9918 27.1632 39.1685 27.3812 39.3963 27.5347C39.624 27.6883 39.8924 27.7704 40.1671 27.7705C40.5237 27.7708 40.8666 27.633 41.1239 27.386C41.3812 27.139 41.5328 26.802 41.5471 26.4457V26.4319ZM15.5755 38.7093C15.5754 38.435 15.4936 38.1669 15.3405 37.9394C15.1874 37.7118 14.9699 37.535 14.7159 37.4315C14.4618 37.3281 14.1827 37.3027 13.9142 37.3586C13.6457 37.4145 13.3999 37.5492 13.2082 37.7454C13.0166 37.9417 12.8878 38.1906 12.8382 38.4603C12.7886 38.7301 12.8206 39.0086 12.93 39.2601C13.0394 39.5116 13.2213 39.7248 13.4524 39.8725C13.6836 40.0202 13.9535 40.0957 14.2277 40.0893C14.5881 40.0809 14.9309 39.9318 15.1828 39.6739C15.4346 39.416 15.5756 39.0698 15.5755 38.7093ZM23.7819 6.59209C24.0562 6.59201 24.3242 6.5102 24.5518 6.35709C24.7794 6.20398 24.9562 5.98653 25.0596 5.73248C25.1631 5.47844 25.1885 5.19934 25.1325 4.9308C25.0766 4.66227 24.942 4.41648 24.7457 4.22483C24.5495 4.03318 24.3006 3.90435 24.0308 3.8548C23.7611 3.80524 23.4826 3.83721 23.2311 3.94661C22.9796 4.05601 22.7663 4.23789 22.6187 4.46903C22.471 4.70016 22.3955 4.97007 22.4019 5.24429C22.4103 5.60468 22.5594 5.94747 22.8173 6.19935C23.0752 6.45122 23.4214 6.59219 23.7819 6.59209ZM34.7115 7.30049C34.7188 7.0261 34.6441 6.75576 34.497 6.52404C34.3499 6.29231 34.137 6.10972 33.8856 5.9996C33.6342 5.88949 33.3556 5.85685 33.0855 5.90587C32.8155 5.95489 32.5661 6.08334 32.3695 6.27479C32.1728 6.46623 32.0376 6.71199 31.9813 6.98064C31.925 7.24929 31.9501 7.52863 32.0534 7.78294C32.1567 8.03725 32.3335 8.25499 32.5611 8.40832C32.7888 8.56164 33.057 8.64359 33.3315 8.64369C33.6912 8.64382 34.0367 8.50349 34.2945 8.25259C34.5523 8.0017 34.7019 7.66007 34.7115 7.30049ZM34.7115 38.7277C34.7115 38.4548 34.6306 38.1879 34.4789 37.961C34.3273 37.7341 34.1118 37.5572 33.8596 37.4527C33.6074 37.3483 33.33 37.321 33.0623 37.3742C32.7946 37.4275 32.5487 37.5589 32.3557 37.7519C32.1627 37.9449 32.0313 38.1908 31.978 38.4585C31.9248 38.7262 31.9521 39.0036 32.0565 39.2558C32.161 39.508 32.3379 39.7235 32.5648 39.8751C32.7917 40.0268 33.0586 40.1077 33.3315 40.1077C33.6975 40.1077 34.0485 39.9623 34.3073 39.7035C34.5661 39.4447 34.7115 39.0937 34.7115 38.7277ZM23.7957 42.1363C24.0706 42.1361 24.3391 42.0539 24.5669 41.9001C24.7948 41.7464 24.9715 41.5281 25.0745 41.2732C25.1774 41.0184 25.2019 40.7386 25.1448 40.4697C25.0878 40.2008 24.9517 39.9551 24.7541 39.7641C24.5564 39.5731 24.3063 39.4454 24.0356 39.3974C23.765 39.3495 23.4862 39.3835 23.2349 39.495C22.9837 39.6066 22.7715 39.7906 22.6256 40.0235C22.4796 40.2564 22.4065 40.5276 22.4157 40.8023C22.4276 41.1603 22.5783 41.4996 22.8358 41.7485C23.0933 41.9974 23.4375 42.1365 23.7957 42.1363ZM40.1625 18.2163C39.8878 18.2164 39.6194 18.2985 39.3917 18.452C39.1639 18.6056 38.9872 18.8236 38.8841 19.0782C38.7809 19.3328 38.7561 19.6123 38.8128 19.8811C38.8695 20.1499 39.0051 20.3956 39.2023 20.5868C39.3994 20.7781 39.6492 20.9061 39.9195 20.9546C40.1899 21.0031 40.4686 20.9698 40.7199 20.859C40.9712 20.7481 41.1838 20.5648 41.3303 20.3325C41.4769 20.1002 41.5507 19.8294 41.5425 19.5549C41.5317 19.1961 41.3816 18.8556 41.124 18.6057C40.8663 18.3558 40.5214 18.2161 40.1625 18.2163Z" fill="white"/>
<path d="M4.66455 12.084H7.36015V14.7704H4.66455V12.084Z" fill="white"/>
<path d="M39.5186 38.0148V35.333H42.2096V38.0148H39.5186Z" fill="white"/>
</svg>
