<svg width="50" height="50" viewBox="0 0 50 50" fill="none" xmlns="http://www.w3.org/2000/svg">
<path d="M34.2452 12.035H36.7452V15.355C36.7452 15.535 36.7452 15.715 36.7452 15.89C36.7398 15.9929 36.7553 16.0959 36.7907 16.1927C36.8261 16.2895 36.8807 16.3782 36.9512 16.4534C37.0217 16.5286 37.1067 16.5887 37.201 16.6302C37.2954 16.6718 37.3971 16.6938 37.5002 16.695C39.0452 16.695 40.5952 16.695 42.1402 16.695C42.6652 16.695 42.9452 16.365 42.9452 15.8C42.9452 14.565 42.9452 13.33 42.9452 12.07C43.0214 12.0433 43.1001 12.0249 43.1802 12.015C44.3652 12.015 45.5552 12.015 46.7402 12.015C46.8586 11.9992 46.9791 12.0105 47.0925 12.048C47.206 12.0856 47.3094 12.1483 47.3951 12.2316C47.4807 12.3148 47.5464 12.4165 47.5871 12.5288C47.6279 12.6411 47.6426 12.7612 47.6302 12.88C47.6302 19.83 47.6302 26.78 47.6302 33.73C47.6235 33.7724 47.6135 33.8142 47.6002 33.855H2.34521V13.13C2.34521 12.235 2.57021 12 3.50021 12C7.44022 12 11.3785 12 15.3152 12C15.6552 12 15.8152 12.065 15.8852 12.45C16.3423 14.5547 17.5116 16.4373 19.1957 17.7798C20.8798 19.1224 22.9756 19.8427 25.1292 19.8192C27.2829 19.7957 29.3624 19.0298 31.0169 17.6508C32.6713 16.2718 33.7992 14.3642 34.2102 12.25C34.2002 12.19 34.2202 12.13 34.2452 12.035ZM16.4302 21.385C16.7052 21.385 16.9302 21.385 17.1852 21.385C17.3335 21.3891 17.4799 21.35 17.6064 21.2725C17.7329 21.1949 17.8341 21.0822 17.8977 20.9481C17.9613 20.8141 17.9845 20.6644 17.9645 20.5174C17.9446 20.3703 17.8823 20.2323 17.7852 20.12C16.5002 18.54 15.1952 17 13.8802 15.435C13.8104 15.3419 13.7198 15.2663 13.6156 15.2142C13.5115 15.1621 13.3966 15.135 13.2802 15.135C13.1638 15.135 13.0489 15.1621 12.9448 15.2142C12.8407 15.2663 12.7501 15.3419 12.6802 15.435C11.3652 16.985 10.0602 18.545 8.78521 20.125C8.7122 20.2436 8.66706 20.3772 8.6532 20.5158C8.63934 20.6544 8.65713 20.7943 8.70521 20.925C8.86926 21.1498 9.10895 21.3078 9.38021 21.37C9.63046 21.4078 9.88496 21.4078 10.1352 21.37V27.64H6.41521C5.75021 27.64 5.47521 27.92 5.47021 28.595C5.47021 29.52 5.47021 30.45 5.47021 31.375C5.47021 32.045 5.75021 32.325 6.42521 32.325H20.1352C20.8102 32.325 21.0852 32.045 21.0902 31.38C21.0902 30.515 21.0902 29.655 21.0902 28.79C21.0902 27.925 20.8702 27.64 19.9452 27.64H16.4452L16.4302 21.385Z" fill="white"/>
<path d="M47.6552 35.5C47.6552 36.82 47.6552 38.105 47.6552 39.39C47.6567 39.4926 47.6372 39.5943 47.598 39.6891C47.5588 39.7839 47.5007 39.8697 47.4272 39.9413C47.3538 40.0129 47.2665 40.0688 47.1707 40.1055C47.075 40.1422 46.9727 40.1591 46.8702 40.155C46.7252 40.155 46.5802 40.155 46.4352 40.155H3.57021C2.53521 40.155 2.34521 39.96 2.34521 38.935V35.5H47.6552Z" fill="white"/>
<path d="M24.9999 2.64063C26.546 2.63964 28.0577 3.09726 29.3436 3.95561C30.6295 4.81395 31.632 6.03444 32.2241 7.46265C32.8162 8.89085 32.9714 10.4626 32.67 11.979C32.3686 13.4955 31.6242 14.8884 30.531 15.9817C29.4377 17.0749 28.0448 17.8193 26.5283 18.1207C25.0119 18.4221 23.4402 18.2669 22.012 17.6748C20.5838 17.0827 19.3633 16.0802 18.5049 14.7943C17.6466 13.5084 17.189 11.9967 17.1899 10.4506C17.1899 8.37929 18.0128 6.39278 19.4774 4.92812C20.9421 3.46346 22.9286 2.64063 24.9999 2.64063ZM25.8249 6.44063C26.1729 6.57617 26.5077 6.74355 26.8249 6.94063C27.4699 7.44063 27.3749 8.16563 27.3849 8.85563H28.9199C29.0679 7.93452 28.8489 6.99211 28.3099 6.23063C28.0134 5.84444 27.6339 5.52982 27.1995 5.31C26.765 5.09018 26.2867 4.97078 25.7999 4.96063L25.7549 4.24063H24.2549L24.2199 4.94063C22.2599 5.26563 21.1349 6.41063 21.1149 8.06563C21.0949 9.72063 22.1849 10.8906 24.2149 11.2806V14.3306C23.3349 14.2856 22.9049 13.8706 22.6299 12.8306H21.1299C21.1299 14.4806 22.2049 15.5956 24.2149 15.9806L24.2549 16.6756H25.8049V15.9756C27.8049 15.6056 28.9199 14.4756 28.9199 12.8056C28.9199 11.1356 27.7899 10.0006 25.7999 9.62563L25.8249 6.44063Z" fill="white"/>
<path d="M41.4052 15.1195H38.2802V14.5795C38.2802 12.5495 38.2802 10.5145 38.2802 8.48453C38.2802 7.95453 38.2102 7.50953 37.6152 7.30453L39.8352 4.64453L42.0602 7.30953C41.3302 7.51953 41.3902 8.08953 41.3952 8.64453C41.3952 10.6145 41.3952 12.5795 41.3952 14.5445L41.4052 15.1195Z" fill="white"/>
<path d="M33.565 47.9357H16.415C16.3975 47.6476 16.3975 47.3587 16.415 47.0707C16.4309 46.8975 16.5072 46.7354 16.6306 46.6129C16.7541 46.4904 16.9167 46.4152 17.09 46.4007C17.2564 46.3873 17.4236 46.3873 17.59 46.4007H32.215C33.5 46.3907 33.67 46.5807 33.565 47.9357Z" fill="white"/>
<path d="M29.3749 44.8142H20.6299C20.8349 44.1942 21.0199 43.5992 21.2199 43.0092C21.3649 42.5842 21.4149 42.0092 21.7199 41.7842C22.0249 41.5592 22.5899 41.7042 23.0449 41.7042C24.6699 41.7042 26.2999 41.7042 27.9249 41.7042C28.0488 41.6873 28.1745 41.7175 28.2772 41.7888C28.38 41.8601 28.4523 41.9672 28.4799 42.0892C28.7549 42.9992 29.0649 43.8692 29.3749 44.8142Z" fill="white"/>
<path d="M13.2798 17.1406L15.4998 19.8106C14.8048 20.0156 14.8298 20.5556 14.8348 21.1056C14.8348 23.1056 14.8348 25.0706 14.8348 27.0556V27.6106H11.7198V26.8756C11.7198 24.8756 11.7198 22.8756 11.7198 20.8756C11.7584 20.6468 11.7114 20.4118 11.5878 20.2154C11.4643 20.019 11.2728 19.8749 11.0498 19.8106L13.2798 17.1406Z" fill="white"/>
<path d="M7.05518 30.7305V29.2305H19.5002V30.7305H7.05518Z" fill="white"/>
<path d="M24.2002 6.58594V9.63094C23.7964 9.63094 23.4092 9.47053 23.1237 9.18501C22.8381 8.89948 22.6777 8.51223 22.6777 8.10844C22.6777 7.70465 22.8381 7.31739 23.1237 7.03187C23.4092 6.74634 23.7964 6.58594 24.2002 6.58594Z" fill="white"/>
<path d="M25.7998 11.2656C26.0007 11.2656 26.1997 11.3052 26.3853 11.3821C26.5709 11.459 26.7396 11.5717 26.8817 11.7138C27.0238 11.8558 27.1365 12.0245 27.2133 12.2101C27.2902 12.3957 27.3298 12.5947 27.3298 12.7956C27.3298 12.9965 27.2902 13.1955 27.2133 13.3811C27.1365 13.5668 27.0238 13.7354 26.8817 13.8775C26.7396 14.0196 26.5709 14.1323 26.3853 14.2092C26.1997 14.2861 26.0007 14.3256 25.7998 14.3256V11.2656Z" fill="white"/>
</svg>
