<svg width="40" height="40" viewBox="0 0 40 40" fill="none" xmlns="http://www.w3.org/2000/svg">
<g id="Artboard 1 11">
<path id="Vector" d="M38.7479 32.5156C38.6799 32.7956 38.6159 33.0796 38.5359 33.3556C38.1714 34.614 37.3551 35.6934 36.2436 36.3868C35.1321 37.0802 33.8037 37.3388 32.5133 37.1129C31.2228 36.8871 30.0612 36.1927 29.2513 35.163C28.4414 34.1332 28.0403 32.8407 28.1249 31.5334C28.2094 30.2261 28.7737 28.996 29.7095 28.0792C30.6453 27.1624 31.8867 26.6234 33.1955 26.5657C34.5043 26.508 35.7883 26.9356 36.8012 27.7664C37.8141 28.5972 38.4845 29.7728 38.6839 31.0676C38.7016 31.1367 38.7229 31.2048 38.7479 31.2716V32.5156ZM32.9799 32.4836C32.4679 31.9676 31.9719 31.4676 31.4719 30.9716C31.1399 30.6436 30.8119 30.6156 30.5399 30.8756C30.2679 31.1356 30.2919 31.4916 30.6319 31.8356C31.2239 32.4303 31.8132 33.025 32.3999 33.6196C32.8279 34.0476 33.1159 34.0516 33.5439 33.6196C34.3999 32.769 35.2532 31.9156 36.1039 31.0596C36.5039 30.6596 36.5919 30.2596 36.3039 29.9916C36.0159 29.7236 35.6799 29.7676 35.2399 30.2116L32.9799 32.4836Z" fill="white"/>
<path id="Vector_2" d="M13.6879 33.5519C13.5679 33.5519 13.4519 33.5519 13.3319 33.5519C11.7839 33.5519 10.2319 33.5719 8.68393 33.5519C6.8053 33.5035 5.01118 32.7609 3.64798 31.4674C2.28478 30.1738 1.44917 28.4211 1.3025 26.5476C1.15582 24.674 1.70847 22.8126 2.85375 21.3227C3.99902 19.8327 5.65571 18.82 7.50393 18.4799C8.87193 18.2599 10.3039 18.3239 11.7799 18.2559C11.0679 19.4559 11.0439 20.5439 11.7519 21.6839H8.85593C7.95696 21.6833 7.08223 21.9753 6.36393 22.5159C5.65504 23.0303 5.12269 23.7515 4.8399 24.5805C4.55711 25.4094 4.53773 26.3056 4.78442 27.146C5.03112 27.9864 5.5318 28.73 6.21778 29.2746C6.90377 29.8192 7.74146 30.1382 8.61593 30.1879C10.2959 30.2399 11.9799 30.1879 13.7679 30.1879L12.9679 29.3879C12.6375 29.0919 12.4381 28.6767 12.4137 28.2338C12.3894 27.7908 12.5419 27.3563 12.8379 27.0259C13.1339 26.6954 13.549 26.4961 13.992 26.4717C14.435 26.4473 14.8695 26.5999 15.1999 26.8959C16.5359 28.1639 17.8279 29.4759 19.1079 30.7999C19.3865 31.0928 19.5418 31.4816 19.5418 31.8859C19.5418 32.2901 19.3865 32.6789 19.1079 32.9719C17.8199 34.2959 16.5199 35.5999 15.1999 36.8799C14.8846 37.1716 14.4668 37.3269 14.0375 37.3119C13.6081 37.297 13.2021 37.1129 12.9079 36.7999C12.609 36.4885 12.442 36.0735 12.442 35.6419C12.442 35.2102 12.609 34.7952 12.9079 34.4839C13.1759 34.1999 13.4719 33.9479 13.7519 33.6839L13.6879 33.5519Z" fill="white"/>
<path id="Vector_3" d="M18.2199 21.7601C18.4839 22.0121 18.7559 22.2561 19.0199 22.5201C19.1796 22.6765 19.3064 22.8632 19.393 23.0692C19.4796 23.2753 19.5242 23.4966 19.5242 23.7201C19.5242 23.9436 19.4796 24.1648 19.393 24.3709C19.3064 24.5769 19.1796 24.7636 19.0199 24.9201C18.8623 25.0799 18.6738 25.2061 18.4659 25.2908C18.2579 25.3755 18.035 25.4171 17.8105 25.413C17.586 25.4089 17.3647 25.3592 17.16 25.2669C16.9554 25.1746 16.7716 25.0416 16.6199 24.8761C15.4066 23.6627 14.1906 22.4441 12.9719 21.2201C12.7971 21.0651 12.6572 20.8748 12.5614 20.6617C12.4656 20.4486 12.416 20.2177 12.416 19.9841C12.416 19.7505 12.4656 19.5195 12.5614 19.3064C12.6572 19.0934 12.7971 18.9031 12.9719 18.7481C14.1773 17.5374 15.3853 16.3374 16.5959 15.1481C16.7479 14.9828 16.9319 14.8502 17.1367 14.7582C17.3415 14.6663 17.5629 14.6169 17.7873 14.6132C18.0118 14.6094 18.2347 14.6514 18.4425 14.7364C18.6502 14.8215 18.8385 14.948 18.9959 15.1081C19.153 15.2671 19.2767 15.4559 19.3599 15.6634C19.4431 15.8709 19.484 16.093 19.4803 16.3165C19.4765 16.54 19.4283 16.7605 19.3382 16.9651C19.2482 17.1697 19.1182 17.3543 18.9559 17.5081C18.7079 17.7681 18.4399 18.0121 18.1239 18.3081H18.4999H23.0039C24.0698 18.3185 25.1016 17.9326 25.8991 17.2253C26.6966 16.5179 27.203 15.5396 27.3199 14.4801C27.4337 13.4123 27.1357 12.3413 26.4867 11.4857C25.8378 10.6301 24.8869 10.0544 23.8279 9.87607C22.7968 9.77115 21.7595 9.7404 20.7239 9.78407C20.5719 9.78407 20.4159 9.78407 20.2399 9.78407C20.8879 8.50807 20.8919 7.72007 20.2679 6.47607C20.2679 6.47607 20.3039 6.44007 20.3199 6.44007C21.6119 6.46407 22.9159 6.38407 24.1959 6.53207C27.4999 6.93207 30.2639 9.78407 30.6279 13.0841C30.8831 15.0499 30.3601 17.0377 29.1705 18.6234C27.9808 20.2091 26.2187 21.2672 24.2599 21.5721C23.826 21.6403 23.3872 21.6724 22.9479 21.6681C21.3879 21.6681 19.8279 21.6681 18.2679 21.6681L18.2199 21.7601Z" fill="white"/>
<path id="Vector_4" d="M13.7679 6.31184C13.5159 6.08784 13.2519 5.87984 13.0159 5.64384C12.8583 5.48941 12.7327 5.30545 12.6462 5.10246C12.5597 4.89948 12.5141 4.68145 12.5118 4.46081C12.5096 4.24018 12.5508 4.02127 12.6332 3.81658C12.7156 3.61189 12.8375 3.42543 12.9919 3.26784C13.1463 3.11026 13.3303 2.98463 13.5333 2.89814C13.7363 2.81165 13.9543 2.76599 14.1749 2.76376C14.3956 2.76153 14.6145 2.80278 14.8192 2.88515C15.0239 2.96753 15.2103 3.08941 15.3679 3.24384C16.5732 4.44118 17.7732 5.64118 18.9679 6.84384C19.1445 7.00071 19.2858 7.19321 19.3826 7.40867C19.4794 7.62413 19.5295 7.85764 19.5295 8.09384C19.5295 8.33004 19.4794 8.56356 19.3826 8.77902C19.2858 8.99447 19.1445 9.18697 18.9679 9.34384C17.7732 10.5492 16.5732 11.7492 15.3679 12.9438C15.055 13.2621 14.6284 13.443 14.1821 13.4468C13.7357 13.4505 13.3062 13.2768 12.9879 12.9638C12.6697 12.6509 12.4887 12.2243 12.485 11.778C12.4831 11.557 12.5248 11.3378 12.6077 11.1329C12.6905 10.928 12.813 10.7414 12.9679 10.5838C13.2079 10.3438 13.4639 10.1158 13.7159 9.88384L13.6839 9.76784H3.11191C2.15991 9.76784 1.51191 9.29984 1.30791 8.47984C1.25148 8.24623 1.24669 8.00312 1.29389 7.76746C1.3411 7.53181 1.43915 7.30929 1.5812 7.11544C1.72326 6.92159 1.90591 6.76106 2.1164 6.64507C2.32689 6.52907 2.56015 6.4604 2.79991 6.44384C3.50791 6.41184 4.21591 6.44384 4.92391 6.44384H13.6879L13.7679 6.31184Z" fill="white"/>
<path id="Vector_5" d="M20.2319 33.5283C20.5578 33.0412 20.7318 32.4684 20.7318 31.8823C20.7318 31.2963 20.5578 30.7234 20.2319 30.2363H27.1119C26.8339 31.316 26.8339 32.4486 27.1119 33.5283H20.2319Z" fill="white"/>
</g>
</svg>
