<svg width="60" height="60" viewBox="0 0 60 60" fill="none" xmlns="http://www.w3.org/2000/svg">
<path d="M16.5421 29.2076C16.5421 27.3296 16.3981 25.4396 16.5721 23.5796C16.9159 20.2704 18.4738 17.206 20.9449 14.9782C23.4161 12.7505 26.6251 11.5176 29.9521 11.5176C33.2792 11.5176 36.4882 12.7505 38.9593 14.9782C41.4304 17.206 42.9883 20.2704 43.3321 23.5796C43.4421 25.085 43.4742 26.595 43.4281 28.1036C43.4281 30.3836 43.5001 32.6757 43.3141 34.9437C42.8401 40.6977 38.0881 45.7436 32.3821 46.6917C28.9098 47.3263 25.3271 46.5694 22.4082 44.5846C19.4893 42.5997 17.4684 39.5462 16.7821 36.0837C16.5795 34.7495 16.4852 33.4011 16.5001 32.0516C16.4581 31.1036 16.5001 30.1556 16.5001 29.2076H16.5421Z" fill="white"/>
<path d="M9.98982 21.6302C10.7799 17.0314 13.1321 12.846 16.6495 9.77999C20.1669 6.71399 24.6343 4.95514 29.2978 4.80018C34.1907 4.59704 38.9839 6.22259 42.7438 9.36018C46.5273 12.4402 49.0626 16.7901 49.8778 21.6002C50.536 21.6157 51.1929 21.6658 51.8458 21.7502C52.7706 21.9241 53.6078 22.4095 54.2181 23.1257C54.8284 23.8419 55.1749 24.7456 55.1998 25.6862C55.1998 28.6022 55.2358 31.5182 55.1998 34.4342C55.1602 35.4874 54.7261 36.4872 53.9837 37.2352C53.2412 37.9832 52.2447 38.4248 51.1918 38.4722C50.7718 38.4722 50.3458 38.4722 49.8958 38.4722C49.7098 39.2102 49.5538 39.9422 49.3498 40.6562C48.2537 44.5021 46.0418 47.9366 42.9937 50.5254C39.9457 53.1142 36.1984 54.741 32.2258 55.2002C31.5298 55.2782 30.8278 55.3082 30.1258 55.3202C29.8971 55.3376 29.6672 55.3081 29.4502 55.2336C29.2333 55.1591 29.0338 55.0411 28.864 54.8868C28.6942 54.7325 28.5577 54.5452 28.4628 54.3364C28.368 54.1275 28.3167 53.9015 28.3122 53.6721C28.3077 53.4427 28.3501 53.2149 28.4367 53.0024C28.5233 52.79 28.6524 52.5975 28.816 52.4367C28.9796 52.2759 29.1743 52.1501 29.3881 52.0672C29.602 51.9842 29.8306 51.9458 30.0598 51.9542C32.4748 51.954 34.8606 51.4254 37.0496 50.4055C39.2387 49.3856 41.1781 47.8991 42.7318 46.0502C45.313 43.1454 46.7577 39.4058 46.7998 35.5202C46.8658 31.8902 46.8538 28.2542 46.7998 24.6182C46.707 20.4832 45.0964 16.5267 42.2748 13.5026C39.4532 10.4784 35.6178 8.59779 31.4991 8.21899C27.3804 7.84018 23.2663 8.98964 19.9404 11.4484C16.6145 13.9072 14.3093 17.5035 13.4638 21.5522C13.2262 22.7374 13.1076 23.9434 13.1098 25.1522C13.0678 28.9262 13.1098 32.7002 13.1098 36.4802C13.1098 37.8482 12.5098 38.4842 11.1178 38.4722C10.0934 38.5216 9.06679 38.4975 8.04582 38.4002C7.11031 38.239 6.2608 37.7553 5.64482 37.0329C5.02883 36.3106 4.68528 35.3954 4.67382 34.4462C4.63782 31.5302 4.63182 28.6142 4.67382 25.6982C4.71351 24.644 5.14845 23.6434 5.89216 22.8952C6.63588 22.147 7.6339 21.7062 8.68782 21.6602C9.10782 21.6002 9.53382 21.6302 9.98982 21.6302Z" fill="white"/>
</svg>
