<svg width="51" height="43" viewBox="0 0 51 43" fill="none" xmlns="http://www.w3.org/2000/svg">
<path d="M35.5262 13.1835C37.3262 13.1835 39.0002 13.1835 40.6982 13.1835C40.8764 13.1483 41.0408 13.063 41.1722 12.9375C42.0962 12.2235 43.0082 11.4975 43.9322 10.7955C44.0411 10.7324 44.1235 10.6321 44.1643 10.513C44.2051 10.394 44.2015 10.2642 44.1542 10.1475C44.0269 9.7144 43.9918 9.25943 44.051 8.8119C44.1102 8.36437 44.2625 7.93419 44.4979 7.54905C44.7334 7.16391 45.0469 6.83233 45.4183 6.57566C45.7897 6.31899 46.2106 6.14291 46.6542 6.05875C47.0977 5.97459 47.5539 5.98422 47.9935 6.08701C48.433 6.18981 48.8462 6.38349 49.2064 6.6556C49.5666 6.92771 49.8659 7.27221 50.0849 7.66695C50.3039 8.06168 50.4379 8.4979 50.4782 8.94753C50.537 9.52359 50.4394 10.1048 50.1958 10.6302C49.9522 11.1555 49.5715 11.6054 49.0938 11.9327C48.6161 12.26 48.0591 12.4525 47.4812 12.4899C46.9034 12.5274 46.3261 12.4084 45.8102 12.1455C45.6795 12.0551 45.521 12.0139 45.3628 12.0293C45.2046 12.0447 45.057 12.1156 44.9462 12.2295C44.0042 13.0035 43.0142 13.7235 42.0782 14.5035C41.6821 14.8373 41.1733 15.0069 40.6562 14.9775C39.1802 14.9775 37.6982 14.9775 36.2222 14.9775H35.5742V20.4555H38.9282C39.7862 18.5655 41.1722 17.7675 42.9002 18.1575C43.6461 18.3298 44.3088 18.7561 44.775 19.3633C45.2412 19.9705 45.4818 20.7209 45.4555 21.486C45.4293 22.251 45.1379 22.9832 44.6312 23.557C44.1245 24.1309 43.4341 24.5107 42.6782 24.6315C41.0882 24.9255 39.6782 24.0315 38.9522 22.2975H35.5682V27.7695H36.6722C38.0402 27.7695 39.4082 27.7695 40.7762 27.7695C41.2132 27.7572 41.6397 27.9044 41.9762 28.1835C42.9782 28.9995 44.0162 29.7795 45.0242 30.5835C45.1105 30.673 45.2269 30.7274 45.351 30.7363C45.475 30.7452 45.598 30.7079 45.6962 30.6315C46.3161 30.2716 47.0372 30.1254 47.7483 30.2154C48.4595 30.3054 49.1214 30.6266 49.6322 31.1295C50.0158 31.5039 50.3028 31.9657 50.4686 32.4754C50.6344 32.9851 50.674 33.5274 50.5841 34.0558C50.4941 34.5841 50.2773 35.0828 49.9522 35.5089C49.6271 35.935 49.2034 36.2759 48.7175 36.5022C48.2317 36.7285 47.6982 36.8335 47.1628 36.8082C46.6274 36.783 46.1062 36.6281 45.6438 36.357C45.1814 36.0859 44.7918 35.7066 44.5083 35.2518C44.2248 34.7969 44.0559 34.28 44.0162 33.7455C44.0356 33.3437 44.0757 32.9432 44.1362 32.5455C44.1459 32.3483 44.0793 32.1549 43.9502 32.0055C43.0022 31.2315 42.0422 30.4815 41.0762 29.7375C40.9501 29.6335 40.7951 29.5706 40.6322 29.5575C38.9522 29.5575 37.2722 29.5575 35.5082 29.5575V30.1995C35.5082 33.1035 35.5082 36.0075 35.5082 38.9055C35.5082 40.7775 34.4942 42.1575 32.8202 42.5715C32.442 42.6546 32.0553 42.6928 31.6682 42.6855H4.80017C2.40017 42.6855 0.972168 41.2095 0.972168 38.8335V3.86553C0.972168 1.46553 2.42417 0.0195312 4.80017 0.0195312H31.6742C34.0742 0.0195312 35.5142 1.47153 35.5262 3.84753C35.5262 6.71553 35.5262 9.57753 35.5262 12.4455V13.1835ZM18.2342 27.6975H23.1182C25.0382 27.6975 26.9642 27.6975 28.8842 27.6975C29.0045 27.7099 29.1261 27.6977 29.2415 27.6617C29.357 27.6257 29.464 27.5667 29.556 27.4882C29.648 27.4096 29.7231 27.3132 29.7767 27.2049C29.8304 27.0965 29.8615 26.9783 29.8682 26.8575C29.8691 26.7326 29.8446 26.6088 29.7963 26.4936C29.748 26.3783 29.6768 26.2741 29.5871 26.1872C29.4974 26.1002 29.3909 26.0324 29.2742 25.9878C29.1575 25.9432 29.033 25.9227 28.9082 25.9275H7.90817C7.67005 25.8856 7.42498 25.9106 7.20017 25.9995C6.93647 26.1731 6.74297 26.4346 6.65417 26.7375C6.65841 26.8869 6.69429 27.0336 6.75945 27.1681C6.82461 27.3026 6.91757 27.4217 7.03217 27.5175C7.27221 27.6482 7.5464 27.7027 7.81817 27.6735C11.2862 27.7035 14.7602 27.6975 18.2342 27.6975ZM18.2342 18.0135H28.5542C28.7536 18.0342 28.9547 18.0342 29.1542 18.0135C29.3627 17.9739 29.5498 17.8599 29.6806 17.6927C29.8114 17.5255 29.8771 17.3165 29.8653 17.1045C29.8536 16.8925 29.7653 16.692 29.6168 16.5403C29.4683 16.3886 29.2698 16.2959 29.0582 16.2795C28.9082 16.2795 28.7642 16.2795 28.6142 16.2795H7.85417C7.68839 16.2674 7.52195 16.2674 7.35617 16.2795C7.16165 16.2945 6.9788 16.3782 6.8403 16.5156C6.7018 16.653 6.61668 16.8351 6.60017 17.0295C6.56726 17.2284 6.61083 17.4324 6.72213 17.6004C6.83343 17.7685 7.00422 17.8882 7.20017 17.9355C7.43079 17.9976 7.66957 18.0239 7.90817 18.0135H18.2342ZM18.2342 22.8495H28.8002C29.4962 22.8495 29.9102 22.4895 29.8922 21.9435C29.8742 21.3975 29.4602 21.0975 28.8002 21.0795H7.89617C7.69546 21.071 7.49441 21.0831 7.29617 21.1155C7.0953 21.1541 6.91463 21.2627 6.7863 21.4219C6.65797 21.5812 6.5903 21.7808 6.59534 21.9853C6.60038 22.1898 6.6778 22.3859 6.81382 22.5386C6.94984 22.6914 7.13564 22.7909 7.33817 22.8195C7.5598 22.8376 7.78254 22.8376 8.00417 22.8195L18.2342 22.8495ZM12.3242 11.9415H16.9802C17.6642 11.9415 18.0362 11.6295 18.0482 11.0835C18.0602 10.5375 17.6762 10.1715 16.9802 10.1715H7.66817C6.99017 10.1715 6.61217 10.4835 6.60017 11.0295C6.58817 11.5755 6.96617 11.9355 7.66817 11.9415H12.3242ZM9.92417 30.7815C9.15017 30.7815 8.37617 30.7815 7.59617 30.7815C6.99617 30.7815 6.60617 31.1235 6.60017 31.6515C6.59761 31.7775 6.62205 31.9025 6.67185 32.0182C6.72165 32.1339 6.79566 32.2376 6.88889 32.3223C6.98212 32.407 7.09241 32.4707 7.21234 32.5092C7.33227 32.5477 7.45905 32.5601 7.58417 32.5455C9.11617 32.5455 10.6502 32.5455 12.1862 32.5455C12.3106 32.5601 12.4368 32.5481 12.5563 32.5104C12.6758 32.4727 12.786 32.4102 12.8796 32.3269C12.9732 32.2436 13.0481 32.1414 13.0994 32.0271C13.1507 31.9127 13.1772 31.7888 13.1772 31.6635C13.1772 31.5382 13.1507 31.4143 13.0994 31.3C13.0481 31.1857 12.9732 31.0835 12.8796 31.0002C12.786 30.9169 12.6758 30.8543 12.5563 30.8166C12.4368 30.7789 12.3106 30.767 12.1862 30.7815C11.4482 30.7995 10.6922 30.7995 9.93017 30.7995L9.92417 30.7815Z" fill="white"/>
</svg>
