<svg width="60" height="60" viewBox="0 0 60 60" fill="none" xmlns="http://www.w3.org/2000/svg">
<path d="M19.6199 53.9993C16.2179 53.9993 12.8159 53.9993 9.41989 53.9993C7.68542 54.0481 5.99354 53.4576 4.66601 52.3403C3.33849 51.223 2.46792 49.6567 2.21989 47.9393C1.90204 45.5479 2.29868 43.1159 3.35989 40.9493C5.96389 35.3753 10.3679 32.3273 16.5179 31.9493C18.8449 31.8293 21.177 31.8474 23.5019 32.0033C26.8132 32.2696 29.9384 33.6434 32.3735 35.9032C34.8085 38.163 36.4115 41.1771 36.9239 44.4593C37.1368 45.7134 37.1489 46.9934 36.9599 48.2513C36.6637 49.8952 35.7886 51.3786 34.4932 52.433C33.1978 53.4874 31.5676 54.043 29.8979 53.9993C26.4719 53.9993 23.0459 53.9993 19.6199 53.9993Z" fill="white"/>
<path d="M19.2418 30.6426C12.3238 30.2886 6.99582 24.6006 7.31382 17.9106C7.35093 16.2693 7.71545 14.652 8.38597 13.1534C9.05649 11.6549 10.0195 10.3054 11.2186 9.18397C12.4176 8.06259 13.8285 7.19195 15.3686 6.62313C16.9086 6.05431 18.5467 5.79876 20.1868 5.87148C21.8269 5.94419 23.436 6.34371 24.9196 7.04659C26.4032 7.74946 27.7316 8.74155 28.8267 9.96465C29.9218 11.1877 30.7616 12.6172 31.2969 14.1692C31.8322 15.7212 32.0521 17.3645 31.9438 19.0026C31.6138 25.6266 25.7998 30.9666 19.2418 30.6426Z" fill="white"/>
<path d="M32.2319 32.4594C33.9341 30.8334 36.1169 29.802 38.4539 29.5194C41.6132 29.1183 44.8122 29.1465 47.9639 29.6034C50.8866 30.1655 53.504 31.7742 55.3255 34.128C57.1469 36.4819 58.0473 39.4192 57.8579 42.3894C57.7171 44.0441 56.9887 45.5937 55.8046 46.758C54.6204 47.9223 53.0587 48.6245 51.4019 48.7374C47.4779 48.9114 43.5479 48.7734 39.6479 48.7734C40.1999 41.9994 37.6679 36.5994 32.2319 32.4594Z" fill="white"/>
<path d="M42.054 28.0205C39.054 27.8885 36.15 26.1425 34.296 22.6805C34.1415 22.3641 34.0952 22.0058 34.164 21.6605C34.6651 19.4606 34.6651 17.1763 34.164 14.9765C34.0992 14.67 34.1328 14.3508 34.26 14.0645C35.1862 12.1596 36.7101 10.6098 38.5991 9.65166C40.4882 8.69348 42.6387 8.37942 44.7229 8.75737C46.8071 9.13532 48.7104 10.1845 50.1427 11.745C51.575 13.3055 52.4577 15.2916 52.656 17.4005C53.184 23.1185 48.678 28.0805 42.054 28.0205Z" fill="white"/>
</svg>
