<svg width="60" height="60" viewBox="0 0 60 60" fill="none" xmlns="http://www.w3.org/2000/svg">
<path d="M14.022 19.7349L19.482 14.2749C19.614 14.1429 19.812 14.0289 19.866 13.8669C19.968 13.5429 20.136 13.1229 20.01 12.8829C19.7952 12.5945 19.4768 12.4009 19.122 12.3429C18.606 12.2289 18.042 12.3429 17.544 12.1929C16.9072 11.9975 16.3371 11.6293 15.8971 11.1292C15.4572 10.6291 15.1646 10.0168 15.0519 9.36031C14.9392 8.70383 15.0108 8.02896 15.2589 7.41078C15.5069 6.7926 15.9215 6.25535 16.4567 5.8588C16.9919 5.46225 17.6266 5.22194 18.2902 5.16463C18.9538 5.10731 19.6203 5.23522 20.2155 5.53414C20.8108 5.83305 21.3114 6.29124 21.6618 6.85774C22.0121 7.42424 22.1984 8.07683 22.2 8.74291C22.2 9.28891 22.044 9.89491 22.71 10.1829C23.376 10.4709 23.766 9.97291 24.168 9.58291C25.782 7.96291 27.408 6.34891 29.022 4.72891C29.1801 4.53948 29.3245 4.33897 29.454 4.12891L33.564 8.32891C31.266 9.70291 30.174 11.7129 30.684 14.4429C30.9019 15.4865 31.4239 16.4422 32.1841 17.1896C32.9444 17.9371 33.9088 18.4427 34.956 18.6429C37.65 19.1109 39.618 18.0069 40.956 15.7629L45.06 19.8849C44.682 20.2269 44.22 20.6169 43.788 21.0429C42.354 22.4649 40.938 23.8989 39.504 25.3269C39.144 25.6809 38.844 26.0409 39.072 26.5749C39.3 27.1089 39.768 27.1329 40.272 27.1089C41.013 27.0514 41.7539 27.2213 42.3959 27.5958C43.0378 27.9703 43.5503 28.5317 43.865 29.2051C44.1796 29.8784 44.2814 30.6317 44.1569 31.3644C44.0323 32.0971 43.6872 32.7744 43.1677 33.306C42.6482 33.8375 41.979 34.198 41.2493 34.3393C40.5197 34.4806 39.7643 34.3961 39.0839 34.0969C38.4035 33.7978 37.8305 33.2983 37.4414 32.6651C37.0523 32.0319 36.8655 31.295 36.906 30.5529C36.9381 30.2725 36.9116 29.9885 36.828 29.7189C36.7766 29.5879 36.694 29.4714 36.5873 29.3796C36.4807 29.2877 36.3532 29.2233 36.216 29.192C36.0788 29.1607 35.936 29.1633 35.8001 29.1997C35.6641 29.2361 35.5392 29.3052 35.436 29.4009C35.1595 29.674 34.901 29.9646 34.662 30.2709C33.996 27.0729 32.178 25.4709 29.574 25.6989C27.072 25.8969 25.584 27.7629 25.374 31.0629C24.84 30.5289 24.378 30.0489 23.892 29.5929C23.7231 29.4174 23.5185 29.2803 23.292 29.1909C23.1592 29.1543 23.0196 29.1499 22.8848 29.1782C22.75 29.2065 22.624 29.2666 22.5171 29.3535C22.4103 29.4404 22.3257 29.5515 22.2706 29.6777C22.2154 29.8039 22.1912 29.9415 22.2 30.0789C22.2163 30.5338 22.1963 30.9892 22.14 31.4409C21.9631 32.3496 21.4462 33.1567 20.6947 33.6974C19.9432 34.2381 19.0138 34.4719 18.096 34.3509C17.1564 34.2373 16.2973 33.7641 15.6991 33.0306C15.1009 32.2971 14.8101 31.3604 14.8877 30.4172C14.9654 29.4739 15.4054 28.5974 16.1155 27.9716C16.8255 27.3458 17.7504 27.0194 18.696 27.0609C18.8644 27.0936 19.0375 27.0936 19.206 27.0609C19.5 26.9349 19.902 26.7969 20.004 26.5569C20.0831 26.2245 20.0383 25.8746 19.878 25.5729C19.758 25.3089 19.47 25.1289 19.278 24.9129L14.022 19.7349Z" fill="white"/>
<path d="M32.8021 55.8776H20.0341C19.9981 55.8356 19.9501 55.8056 19.9561 55.7816C20.0821 54.3596 19.5301 53.1056 18.9781 51.8396C17.9761 49.5416 17.0101 47.2196 16.0261 44.9096C15.7413 44.2574 15.7177 43.5207 15.9601 42.8516C16.6741 40.7996 17.4001 38.7176 18.1201 36.6536C18.2101 36.4016 18.2701 36.2036 18.6421 36.1856C19.7859 36.1856 20.9001 35.8225 21.8242 35.1486C22.7483 34.4746 23.4346 33.5246 23.7841 32.4356C23.7841 32.3636 23.8381 32.2976 23.9221 32.0996C24.4081 32.6096 24.8701 33.0596 25.2781 33.5576C25.3841 33.7389 25.4322 33.9482 25.4161 34.1576C25.4161 36.9776 25.4161 39.7976 25.4161 42.6176C25.404 42.7894 25.404 42.9618 25.4161 43.1336C25.4328 43.3559 25.533 43.5636 25.6966 43.715C25.8603 43.8664 26.0752 43.9502 26.2981 43.9496C26.5294 43.9596 26.7555 43.8796 26.929 43.7263C27.1024 43.573 27.2097 43.3583 27.2281 43.1276C27.2281 42.9356 27.2281 42.7436 27.2281 42.5276C27.2281 38.4356 27.2281 34.3376 27.2281 30.2396C27.2195 29.6529 27.3997 29.079 27.7422 28.6025C28.0847 28.1261 28.5712 27.7724 29.1301 27.5936C29.6715 27.4098 30.2583 27.4089 30.8003 27.591C31.3423 27.7731 31.8095 28.1282 32.1301 28.6016C32.4607 29.1457 32.6466 29.7653 32.6701 30.4016C32.7181 33.9296 32.7061 37.4516 32.6701 40.9796C32.6432 42.4418 32.988 43.8869 33.6721 45.1796C34.2555 46.1815 34.5629 47.3202 34.5629 48.4796C34.5629 49.639 34.2555 50.7777 33.6721 51.7796C33.0421 53.1116 32.4961 54.3716 32.8021 55.8776Z" fill="white"/>
<path d="M40.0621 36.191C40.0621 37.907 40.0621 39.563 40.0621 41.219C40.0621 41.819 39.6601 42.161 39.0121 42.155C37.8617 42.1199 36.767 41.6517 35.9471 40.844C35.1271 40.0363 34.6425 38.9488 34.5901 37.799C34.5481 36.257 34.5481 34.715 34.5901 33.173C34.5901 32.843 34.9201 32.519 35.1901 32.207C35.5355 33.2679 36.1782 34.2073 37.0419 34.9135C37.9055 35.6197 38.9538 36.0632 40.0621 36.191Z" fill="white"/>
<path d="M6.22806 19.2832H8.80206C9.46206 19.2832 9.87606 19.6612 9.86406 20.2192C9.86022 20.3489 9.82913 20.4763 9.77281 20.5931C9.71648 20.71 9.63618 20.8137 9.53713 20.8974C9.43809 20.9812 9.32251 21.0432 9.19793 21.0793C9.07335 21.1155 8.94256 21.125 8.81406 21.1072C7.08206 21.1072 5.34806 21.1072 3.61206 21.1072C2.95206 21.1072 2.53806 20.7292 2.55006 20.1772C2.55399 20.0474 2.5851 19.9198 2.64136 19.8026C2.69763 19.6855 2.77781 19.5815 2.87673 19.4973C2.97566 19.4131 3.09113 19.3505 3.21572 19.3136C3.3403 19.2768 3.47123 19.2664 3.60006 19.2832H6.22806Z" fill="white"/>
<path d="M53.7778 21.1132H51.2638C50.5498 21.1132 50.1298 20.7532 50.1358 20.1832C50.1418 19.6132 50.5498 19.2832 51.2338 19.2832H56.3218C57.0358 19.2832 57.4558 19.6372 57.4498 20.2132C57.4438 20.7892 57.0178 21.1072 56.2918 21.1132H53.7778Z" fill="white"/>
<path d="M4.284 33.2464C4.41391 33.0155 4.58707 32.8118 4.794 32.6464C6.324 31.7284 7.872 30.8464 9.426 29.9584C9.53028 29.8922 9.64692 29.8479 9.76884 29.8281C9.89076 29.8084 10.0154 29.8136 10.1353 29.8435C10.2551 29.8734 10.3676 29.9273 10.466 30.0019C10.5644 30.0766 10.6466 30.1705 10.7076 30.2779C10.7686 30.3853 10.8072 30.5039 10.821 30.6267C10.8348 30.7494 10.8235 30.8737 10.7878 30.9919C10.7521 31.1102 10.6928 31.2199 10.6134 31.3145C10.534 31.4092 10.4362 31.4867 10.326 31.5424C8.79 32.4424 7.242 33.3424 5.682 34.2184C5.52763 34.3098 5.35024 34.3549 5.17095 34.3484C4.99166 34.3419 4.81802 34.2839 4.67072 34.1815C4.52342 34.0791 4.40865 33.9365 4.34009 33.7707C4.27153 33.6049 4.25206 33.4229 4.284 33.2464Z" fill="white"/>
<path d="M55.7282 33.2816C55.7282 34.1876 54.9842 34.5896 54.3122 34.2296C53.4122 33.7376 52.5122 33.2036 51.6422 32.6936C51.0002 32.3216 50.3582 31.9556 49.7222 31.5776C49.5995 31.5296 49.4885 31.4557 49.3969 31.361C49.3053 31.2663 49.2351 31.1529 49.1912 31.0287C49.1472 30.9044 49.1306 30.7721 49.1423 30.6409C49.1541 30.5096 49.194 30.3824 49.2593 30.2679C49.3246 30.1534 49.4137 30.0543 49.5207 29.9774C49.6277 29.9004 49.7501 29.8474 49.8794 29.822C50.0087 29.7965 50.142 29.7992 50.2702 29.8299C50.3984 29.8605 50.5184 29.9184 50.6222 29.9996C52.1462 30.8636 53.6642 31.7276 55.1642 32.6276C55.3902 32.8097 55.5813 33.0313 55.7282 33.2816Z" fill="white"/>
<path d="M5.0338 5.92188C5.2806 6.00529 5.52293 6.10142 5.7598 6.20988C7.2598 7.06788 8.7598 7.92587 10.2478 8.79587C10.3724 8.84509 10.4852 8.92016 10.5786 9.01613C10.6721 9.1121 10.7442 9.2268 10.7901 9.35266C10.8361 9.47852 10.8548 9.61268 10.8451 9.74631C10.8354 9.87993 10.7974 10.01 10.7338 10.1279C10.666 10.2431 10.5742 10.3424 10.4645 10.4189C10.3549 10.4955 10.2301 10.5475 10.0985 10.5714C9.96698 10.5953 9.83182 10.5906 9.70227 10.5575C9.57271 10.5245 9.45181 10.4639 9.3478 10.3799C7.8298 9.51587 6.3178 8.63987 4.8058 7.76387C4.4038 7.52987 4.1398 7.16387 4.3198 6.72588C4.51301 6.42122 4.75411 6.14973 5.0338 5.92188Z" fill="white"/>
<path d="M54.948 5.91016C55.2208 6.1292 55.4612 6.38575 55.662 6.67216C55.7465 6.85785 55.7549 7.06926 55.6854 7.26105C55.6158 7.45284 55.4739 7.60976 55.29 7.69816C54.762 8.04016 54.21 8.34016 53.67 8.65216L50.706 10.3562C50.076 10.7102 49.548 10.6202 49.266 10.1282C48.984 9.63616 49.2 9.12616 49.8 8.77216C51.246 7.93216 52.692 7.09216 54.144 6.26416C54.4052 6.13115 54.6736 6.01296 54.948 5.91016Z" fill="white"/>
</svg>
