<svg width="60" height="60" viewBox="0 0 60 60" fill="none" xmlns="http://www.w3.org/2000/svg">
<path d="M45.63 57.0006L40.23 54.6006C38.958 54.0366 37.674 53.5026 36.426 52.8966C36.2654 52.7997 36.0762 52.7611 35.8904 52.7873C35.7046 52.8135 35.5336 52.903 35.406 53.0406C33.822 54.3366 32.202 55.5966 30.606 56.8926C30.5266 56.9821 30.4292 57.0538 30.3201 57.1029C30.2109 57.1519 30.0927 57.1773 29.973 57.1773C29.8534 57.1773 29.7351 57.1519 29.626 57.1029C29.5169 57.0538 29.4194 56.9821 29.34 56.8926C27.744 55.5786 26.112 54.3066 24.51 53.0046C24.3946 52.8819 24.2409 52.802 24.0741 52.7781C23.9073 52.7541 23.7374 52.7874 23.592 52.8726C20.76 54.1986 17.88 55.4706 15 56.7426L14.4 57.0006C14.4 56.8086 14.4 56.6586 14.4 56.5146C14.4 51.8226 14.4 47.1246 14.4 42.4266C14.3774 42.2891 14.4034 42.1481 14.4735 42.0276C14.5435 41.9072 14.6533 41.8149 14.784 41.7666C18 40.3686 21.192 38.9286 24.42 37.5006C24.522 37.4586 24.63 37.4346 24.786 37.3866V38.0586C24.786 42.4446 24.786 46.8306 24.786 51.2226C24.7752 51.3907 24.8082 51.5586 24.8818 51.7101C24.9554 51.8616 25.0672 51.9913 25.206 52.0866C26.67 53.2266 28.118 54.3866 29.55 55.5666C29.6063 55.6335 29.6766 55.6873 29.7559 55.7242C29.8352 55.7611 29.9216 55.7802 30.009 55.7802C30.0965 55.7802 30.1829 55.7611 30.2621 55.7242C30.3414 55.6873 30.4117 55.6335 30.468 55.5666C31.914 54.3666 33.378 53.2086 34.86 52.0566C34.9896 51.9634 35.0926 51.8379 35.1589 51.6927C35.2252 51.5475 35.2524 51.3876 35.238 51.2286C35.238 46.8286 35.238 42.4286 35.238 38.0286V37.3086L36.504 37.8666L45.228 41.7486C45.51 41.8746 45.69 41.9946 45.69 42.3486C45.69 47.1486 45.69 51.9486 45.69 56.7486C45.6747 56.8336 45.6546 56.9178 45.63 57.0006Z" fill="white"/>
<path d="M7.43386 34.4823C9.13186 33.7323 10.7999 33.0723 12.3959 32.2563C12.8153 32.0202 13.2885 31.8963 13.7699 31.8963C14.2512 31.8963 14.7244 32.0202 15.1439 32.2563C17.9339 33.6003 20.7779 34.8003 23.5979 36.0363L24.1979 36.3243L20.2259 38.0883C18.2339 38.9763 16.2419 39.8883 14.2259 40.7343C13.9939 40.8458 13.7287 40.8672 13.4819 40.7943C10.1399 39.3303 6.80986 37.8423 3.35986 36.3063C4.17586 35.9403 4.88386 35.5863 5.62186 35.3043C5.81876 35.2482 5.98839 35.1221 6.09887 34.9497C6.20936 34.7774 6.2531 34.5706 6.22186 34.3683C6.22186 26.8683 6.22186 19.3703 6.22186 11.8743C6.22186 10.9863 6.33586 10.8663 7.21186 10.8663H18.9779V8.32227L29.3999 12.9723V28.0383L28.8659 27.8043C25.7999 26.4483 22.7399 25.0743 19.6619 23.7303C19.4431 23.6608 19.2553 23.5175 19.1305 23.3249C19.0058 23.1323 18.9518 22.9023 18.9779 22.6743C18.9779 19.3503 18.9779 16.0263 18.9779 12.7023V12.0543H7.43386V34.4823Z" fill="white"/>
<path d="M56.6881 36.3125L49.2661 39.6005C48.3841 39.9905 47.5081 40.3925 46.6141 40.7585C46.4115 40.8475 46.1835 40.8603 45.9721 40.7945C42.6521 39.3305 39.3381 37.8545 36.0301 36.3665C36.0301 36.3665 35.9761 36.3245 35.9101 36.2585L38.6641 35.0225C41.0101 33.9785 43.3621 32.9465 45.6961 31.8905C45.8659 31.8032 46.0542 31.7576 46.2451 31.7576C46.4361 31.7576 46.6243 31.8032 46.7941 31.8905C48.5341 32.6825 50.2801 33.4505 52.0321 34.2245C52.2001 34.3025 52.3801 34.3625 52.5901 34.4465V12.0665H41.0221V12.6665C41.0221 15.9725 41.0221 19.2665 41.0221 22.5785C41.0553 22.8252 41.0007 23.0756 40.8681 23.2862C40.7354 23.4967 40.533 23.654 40.2961 23.7305C37.2361 25.0625 34.1941 26.4305 31.1401 27.7865L30.6121 28.0145C30.6121 27.7925 30.5761 27.6125 30.5761 27.4145C30.5761 22.7705 30.5761 18.1325 30.5761 13.4945C30.5523 13.3297 30.5874 13.1617 30.6752 13.0201C30.763 12.8785 30.8979 12.7725 31.0561 12.7205C34.2001 11.4005 37.3381 9.99053 40.4821 8.59853C40.6321 8.53253 40.7941 8.47853 41.0161 8.39453V10.8665H52.5301C53.7721 10.8665 53.7721 10.8665 53.7721 12.1445C53.7721 19.5065 53.7721 26.8685 53.7721 34.2305C53.7721 34.8305 53.8921 35.1365 54.4741 35.3405C55.2001 35.5925 55.8721 35.9525 56.6881 36.3125Z" fill="white"/>
<path d="M2.75378 37.3027L9.39578 40.2607C10.5418 40.7707 11.6878 41.2747 12.8218 41.8087C12.9129 41.8572 12.9921 41.9254 13.0533 42.0085C13.1146 42.0916 13.1564 42.1873 13.1758 42.2887C13.1758 47.1367 13.1758 51.9847 13.1758 56.8327C13.1677 56.8836 13.1557 56.9338 13.1398 56.9827L12.5998 56.7787C9.59978 55.4227 6.52778 54.0607 3.47378 52.7227C3.24543 52.6556 3.04754 52.5111 2.914 52.3141C2.78046 52.117 2.71958 51.8797 2.74178 51.6427C2.74178 47.0647 2.74178 42.4867 2.74178 37.9087L2.75378 37.3027Z" fill="white"/>
<path d="M57.2518 37.3672V38.3512C57.2518 42.7952 57.2518 47.2372 57.2518 51.6772C57.2825 51.8769 57.2446 52.0811 57.1444 52.2565C57.0441 52.4319 56.8874 52.5682 56.6998 52.6432C53.4898 54.0532 50.2858 55.4872 47.0998 56.9092C47.0023 56.947 46.902 56.9771 46.7998 56.9992V56.4532C46.7998 51.8052 46.7998 47.1512 46.7998 42.4912C46.7998 42.1612 46.7998 41.9392 47.1958 41.7772C50.4478 40.3612 53.6878 38.9152 56.9338 37.4752C56.9998 37.4392 57.0898 37.4212 57.2518 37.3672Z" fill="white"/>
<path d="M40.434 7.35043L34.524 9.96643C33.168 10.5664 31.818 11.1664 30.45 11.7664C30.1911 11.8652 29.9049 11.8652 29.646 11.7664C26.4 10.3564 23.13 8.89843 19.872 7.44643L19.668 7.32043C19.86 7.22443 20.016 7.13443 20.178 7.06243C23.274 5.68243 26.4 4.31443 29.472 2.92243C29.641 2.83605 29.8281 2.79102 30.018 2.79102C30.2078 2.79102 30.3949 2.83605 30.564 2.92243C33.732 4.34643 36.904 5.75643 40.08 7.15243L40.434 7.35043Z" fill="white"/>
</svg>
