<svg width="60" height="60" viewBox="0 0 60 60" fill="none" xmlns="http://www.w3.org/2000/svg">
<path d="M29.5559 58.0613C27.9119 56.8613 26.2699 55.6613 24.6299 54.4613C23.4839 53.6093 22.3619 52.7273 21.2099 51.8933C20.0774 51.0675 19.1259 50.0187 18.4139 48.8114C17.702 47.6042 17.2446 46.2639 17.0699 44.8733C16.921 43.8984 16.8468 42.9135 16.8479 41.9273C16.8479 38.9993 16.8479 36.0773 16.8479 33.1553C16.8131 32.7376 16.9163 32.32 17.1418 31.9666C17.3672 31.6133 17.7024 31.3437 18.0959 31.1993C21.7799 29.5593 25.4559 27.9033 29.1239 26.2313C29.3951 26.0996 29.6925 26.0312 29.9939 26.0312C30.2953 26.0312 30.5928 26.0996 30.8639 26.2313C34.5719 27.8873 38.2839 29.5433 41.9999 31.1993C42.368 31.3287 42.6841 31.5742 42.9005 31.8989C43.117 32.2235 43.222 32.6097 43.1999 32.9993C43.1999 36.1793 43.1999 39.3593 43.1999 42.5393C43.1579 45.3053 42.5219 47.9093 40.7099 50.0873C40.1731 50.7131 39.5695 51.2784 38.9099 51.7733C36.4379 53.6813 33.9299 55.5473 31.4339 57.4253C31.1339 57.6533 30.7979 57.8393 30.4799 58.0253L29.5559 58.0613ZM29.4239 41.8613C28.6919 41.1173 28.0379 40.4273 27.3539 39.7673C27.1984 39.601 27.0109 39.4676 26.8027 39.3752C26.5946 39.2829 26.3699 39.2333 26.1422 39.2295C25.9145 39.2257 25.6883 39.2677 25.4772 39.3531C25.2661 39.4385 25.0743 39.5655 24.9132 39.7266C24.7522 39.8876 24.6252 40.0794 24.5398 40.2906C24.4544 40.5017 24.4124 40.7278 24.4162 40.9556C24.4199 41.1833 24.4695 41.4079 24.5619 41.6161C24.6543 41.8242 24.7876 42.0117 24.9539 42.1673C26.0279 43.2653 27.1079 44.3513 28.2059 45.4193C28.3626 45.5881 28.5525 45.7228 28.7636 45.8149C28.9747 45.907 29.2026 45.9545 29.4329 45.9545C29.6633 45.9545 29.8911 45.907 30.1023 45.8149C30.3134 45.7228 30.5032 45.5881 30.6599 45.4193C32.9479 43.1393 35.2279 40.8533 37.4999 38.5613C37.7465 38.2978 37.9166 37.9721 37.9919 37.6193C38.0712 37.2665 38.0297 36.8973 37.8742 36.5709C37.7186 36.2445 37.4579 35.9798 37.1339 35.8193C36.8067 35.6519 36.4345 35.5937 36.0717 35.653C35.709 35.7124 35.3748 35.8863 35.1179 36.1493C33.9179 37.3493 32.7179 38.5493 31.5179 39.7493L29.4239 41.8613Z" fill="white"/>
<path d="M16.6922 52.3377H5.58618C4.17618 52.3377 3.53418 51.7377 3.53418 50.3097V16.1997C3.53418 14.7837 4.13418 14.1777 5.57418 14.1777H54.4202C55.8362 14.1777 56.4542 14.7777 56.4602 16.2057C56.4602 19.0557 56.4602 21.9117 56.4602 24.7617C56.4602 25.1817 56.3642 25.3617 55.9142 25.4097C54.0569 25.7149 52.3684 26.67 51.1501 28.1048C49.9318 29.5395 49.263 31.3605 49.263 33.2427C49.263 35.1249 49.9318 36.9459 51.1501 38.3807C52.3684 39.8154 54.0569 40.7706 55.9142 41.0757L56.4662 41.1897V50.3337C56.4662 51.6957 55.8122 52.3377 54.4382 52.3377H43.3082C43.3982 52.1877 43.4342 52.1097 43.4822 52.0437C45.4751 49.3924 46.5475 46.1626 46.5362 42.8457C46.6082 39.5037 46.5842 36.1557 46.5362 32.8137C46.5651 31.8617 46.3101 30.9226 45.8036 30.1159C45.2972 29.3092 44.5622 28.6714 43.6922 28.2837C39.8102 26.4837 35.8922 24.7317 31.9742 22.9857C31.3293 22.6962 30.629 22.5511 29.9222 22.5604C29.2154 22.5697 28.5192 22.7333 27.8822 23.0397C24.0542 24.7617 20.2202 26.4657 16.4102 28.1997C15.5014 28.574 14.7278 29.2157 14.192 30.0398C13.6562 30.8638 13.3836 31.8312 13.4102 32.8137C13.3742 36.0657 13.3682 39.3177 13.4102 42.5697C13.3571 45.9789 14.4377 49.3092 16.4822 52.0377C16.5597 52.1322 16.6299 52.2325 16.6922 52.3377Z" fill="white"/>
<path d="M50.844 10.7527H9.56396C9.94796 10.6447 10.164 10.5727 10.428 10.5187L48.684 1.99874C49.884 1.72874 50.862 2.40074 50.88 3.61274C50.922 5.91674 50.88 8.22074 50.88 10.5247C50.8766 10.6019 50.8645 10.6783 50.844 10.7527Z" fill="white"/>
<path d="M56.4298 28.8008V37.6508C54.7018 37.6508 52.8298 35.6648 52.6978 33.7088C52.5811 32.5699 52.9018 31.4292 53.5947 30.5179C54.2877 29.6066 55.3012 28.9927 56.4298 28.8008Z" fill="white"/>
</svg>
