<svg width="51" height="54" viewBox="0 0 51 54" fill="none" xmlns="http://www.w3.org/2000/svg">
<path d="M24.1262 43.1514L17.8802 39.7434C17.8802 40.7694 17.8802 41.7054 17.8802 42.6354C17.8998 42.896 17.8554 43.1575 17.7508 43.397C17.6463 43.6365 17.4847 43.8467 17.2802 44.0094C16.8122 44.4294 16.3982 44.9154 15.9302 45.3354C15.8632 45.3824 15.8065 45.4425 15.7636 45.5121C15.7208 45.5817 15.6925 45.6593 15.6807 45.7403C15.6689 45.8212 15.6738 45.9036 15.695 45.9826C15.7163 46.0616 15.7534 46.1354 15.8042 46.1994C16.1811 47.0593 16.2034 48.0332 15.8664 48.9095C15.5293 49.7858 14.8602 50.4937 14.0042 50.8794C13.2448 51.2349 12.3852 51.3142 11.5737 51.1036C10.7621 50.893 10.0495 50.4057 9.55883 49.7259C9.06815 49.046 8.83014 48.2162 8.88589 47.3796C8.94163 46.5431 9.28763 45.7522 9.86418 45.1434C10.3561 44.6053 11.002 44.2319 11.7138 44.074C12.4257 43.9162 13.1689 43.9816 13.8422 44.2614C13.9914 44.3355 14.1609 44.3586 14.3245 44.3271C14.4881 44.2957 14.637 44.2115 14.7482 44.0874C15.2771 43.7311 15.6899 43.2273 15.9352 42.6385C16.1805 42.0498 16.2476 41.402 16.1282 40.7754C16.0322 40.1214 16.3142 39.3174 16.0202 38.8134C15.7262 38.3094 14.9222 38.0994 14.3402 37.7994L13.3202 37.1994C12.5065 36.8173 11.8264 36.1993 11.3685 35.4257C10.9105 34.6521 10.6958 33.7587 10.7522 32.8614V32.3514C9.55218 32.3514 8.39418 32.3514 7.23018 32.3514C7.11618 32.3514 6.97818 32.6214 6.90618 32.7894C6.6142 33.4886 6.10905 34.0779 5.46266 34.4733C4.81628 34.8686 4.06163 35.05 3.30618 34.9914C2.48931 34.9224 1.72122 34.5738 1.13137 34.0045C0.541518 33.4351 0.165971 32.6799 0.0680188 31.866C-0.029933 31.052 0.1557 30.2292 0.593632 29.5362C1.03156 28.8432 1.69502 28.3224 2.47218 28.0614C3.31494 27.7691 4.23738 27.8086 5.05205 28.172C5.86673 28.5353 6.51251 29.1951 6.85818 30.0174C6.89848 30.1916 7.00314 30.344 7.15115 30.4441C7.29916 30.5443 7.47957 30.5848 7.65618 30.5574C8.65818 30.5154 9.66018 30.5574 10.7042 30.5574V23.4354C9.55218 23.4354 8.39418 23.4354 7.23018 23.4354C7.11618 23.4354 6.97818 23.7054 6.90618 23.8734C6.624 24.571 6.12827 25.1614 5.49 25.56C4.85173 25.9585 4.10368 26.1449 3.35303 26.0923C2.60238 26.0396 1.88764 25.7508 1.31122 25.2671C0.734803 24.7833 0.326278 24.1296 0.144179 23.3994C-0.0667043 22.5349 0.0557485 21.6227 0.487156 20.8444C0.918563 20.066 1.62728 19.4788 2.47218 19.1994C3.31486 18.9056 4.2379 18.9444 5.05296 19.3079C5.86802 19.6714 6.51367 20.3322 6.85818 21.1554C6.89848 21.3295 7.00314 21.482 7.15115 21.5821C7.29916 21.6823 7.47957 21.7228 7.65618 21.6954C8.65818 21.6534 9.66018 21.6954 10.7522 21.6954C10.7522 21.4194 10.7522 21.1734 10.7522 20.9214C10.7432 20.1273 10.9499 19.3456 11.3504 18.6598C11.7509 17.974 12.3301 17.4098 13.0262 17.0274C13.9202 16.4994 14.8262 16.0014 15.7562 15.5214C15.8692 15.4698 15.9633 15.3843 16.0257 15.2768C16.088 15.1694 16.1154 15.0452 16.1042 14.9214C16.1042 13.8654 16.1042 12.8034 16.1042 11.7474C16.0816 11.5246 15.9892 11.3146 15.8402 11.1474C15.4862 10.7454 15.0662 10.3974 14.7122 9.98944C14.4422 9.68344 14.2202 9.68944 13.8542 9.83944C13.2633 10.0808 12.6189 10.1608 11.987 10.0712C11.355 9.98152 10.7583 9.72547 10.2579 9.32926C9.75746 8.93304 9.37139 8.41091 9.13922 7.81636C8.90705 7.22181 8.83712 6.57623 8.9366 5.94575C9.03608 5.31528 9.3014 4.7226 9.70536 4.22842C10.1093 3.73425 10.6374 3.35636 11.2355 3.13348C11.8336 2.9106 12.4802 2.85074 13.109 2.96003C13.7379 3.06932 14.3264 3.34383 14.8142 3.75544C15.403 4.23339 15.8212 4.8892 16.0062 5.62469C16.1911 6.36019 16.1329 7.13581 15.8402 7.83544C15.7439 7.98723 15.7096 8.17016 15.7442 8.34653C15.7788 8.5229 15.8797 8.67927 16.0262 8.78344C16.518 9.19772 16.9773 9.64904 17.4002 10.1334C17.6486 10.4412 17.8028 10.8141 17.8442 11.2074C17.9042 12.1854 17.8442 13.1694 17.8442 14.2554L24.0902 10.8534C24.0902 9.87544 24.0902 8.72344 24.0902 7.57744C24.0902 7.41544 23.8502 7.20544 23.6702 7.12744C22.9665 6.83935 22.3721 6.33586 21.9722 5.68914C21.5723 5.04242 21.3875 4.28569 21.4442 3.52744C21.5014 2.69943 21.8457 1.91733 22.4179 1.31608C22.9901 0.714824 23.7542 0.332121 24.5783 0.233989C25.4025 0.135857 26.2351 0.32845 26.9324 0.778543C27.6298 1.22864 28.1482 1.908 28.3982 2.69944C28.6827 3.54509 28.6345 4.46735 28.2633 5.27872C27.8922 6.09009 27.226 6.72968 26.4002 7.06744C26.2345 7.10627 26.0897 7.20652 25.995 7.34795C25.9004 7.48938 25.8629 7.66146 25.8902 7.82944C25.9262 8.88544 25.8902 9.94144 25.8902 10.8714L32.1302 14.2374C32.1302 13.1814 32.1302 12.2034 32.1302 11.2374C32.1159 11.0252 32.1507 10.8125 32.2319 10.6158C32.313 10.4192 32.4384 10.2439 32.5982 10.1034C33.1022 9.63544 33.5582 9.12544 34.0682 8.66344C34.1928 8.57397 34.2784 8.44016 34.3075 8.2895C34.3365 8.13885 34.3067 7.9828 34.2242 7.85344C34.014 7.39908 33.9009 6.90588 33.8922 6.40535C33.8834 5.90482 33.9791 5.40796 34.1732 4.9465C34.3672 4.48505 34.6554 4.06914 35.0193 3.72535C35.3832 3.38156 35.8148 3.11744 36.2865 2.94986C36.7582 2.78229 37.2597 2.71494 37.759 2.75211C38.2582 2.78929 38.7442 2.93018 39.1859 3.16579C39.6276 3.40139 40.0153 3.72652 40.3242 4.12042C40.6332 4.51432 40.8566 4.96833 40.9802 5.45344C41.188 6.09593 41.2004 6.78569 41.0155 7.43518C40.8307 8.08468 40.4571 8.66463 39.9422 9.10144C39.4542 9.58095 38.8323 9.90127 38.1585 10.0202C37.4848 10.1391 36.7908 10.0509 36.1682 9.76744C36.0259 9.69813 35.8648 9.67761 35.7097 9.70906C35.5546 9.74051 35.4142 9.82218 35.3102 9.94144C34.7692 10.2961 34.3465 10.8043 34.0964 11.4008C33.8462 11.9973 33.78 12.655 33.9062 13.2894C34.0082 13.9434 33.7322 14.7414 34.0202 15.2514C34.3082 15.7614 35.1002 15.8934 35.6642 16.1994L36.6842 16.7694C37.5079 17.153 38.1966 17.7764 38.6602 18.5579C39.1237 19.3394 39.3405 20.2427 39.2822 21.1494C39.2762 21.2614 39.2762 21.3735 39.2822 21.4854C39.2822 21.5154 39.2822 21.5514 39.3482 21.6414C40.4522 21.6414 41.5802 21.6414 42.7082 21.6414C42.8462 21.6414 43.0262 21.3954 43.0982 21.2274C43.4118 20.4655 43.9772 19.8343 44.7 19.439C45.4229 19.0437 46.2595 18.9083 47.0702 19.0554C47.8835 19.2106 48.6173 19.6445 49.145 20.2824C49.6728 20.9204 49.9616 21.7225 49.9616 22.5504C49.9616 23.3784 49.6728 24.1805 49.145 24.8184C48.6173 25.4564 47.8835 25.8903 47.0702 26.0454C46.2721 26.2107 45.4413 26.0912 44.7223 25.7075C44.0032 25.3239 43.4413 24.7004 43.1342 23.9454C43.1034 23.779 43.0109 23.6302 42.8752 23.529C42.7395 23.4278 42.5705 23.3815 42.4022 23.3994C41.3882 23.4354 40.3682 23.3994 39.3122 23.3994V30.5634C40.4582 30.5634 41.5862 30.5634 42.7142 30.5634C42.8522 30.5634 43.0322 30.3174 43.1042 30.1434C43.3369 29.5416 43.727 29.0133 44.2339 28.614C44.7407 28.2146 45.3455 27.9588 45.9851 27.8733C46.6247 27.7879 47.2755 27.8759 47.8694 28.1281C48.4633 28.3804 48.9785 28.7877 49.3611 29.3073C49.7436 29.8269 49.9795 30.4398 50.044 31.0819C50.1084 31.7239 49.9992 32.3715 49.7276 32.9568C49.456 33.5421 49.0321 34.0437 48.5002 34.409C47.9683 34.7744 47.348 34.99 46.7042 35.0334C45.9691 35.0947 45.2336 34.9208 44.6038 34.5369C43.974 34.153 43.4825 33.5789 43.2002 32.8974C43.1491 32.7075 43.0277 32.5441 42.8605 32.4404C42.6934 32.3368 42.493 32.3007 42.3002 32.3394C41.3222 32.3754 40.3382 32.3394 39.3362 32.3394C39.2942 32.8854 39.2942 33.4074 39.2102 33.9114C39.1086 34.5653 38.8569 35.1867 38.4748 35.727C38.0928 36.2673 37.5908 36.7117 37.0082 37.0254C36.1202 37.5354 35.2082 38.0334 34.3322 38.5134C34.2038 38.5588 34.0947 38.6465 34.0227 38.762C33.9508 38.8776 33.9202 39.0142 33.9362 39.1494C33.9362 40.1874 33.9362 41.2314 33.9362 42.2694C33.9548 42.4899 34.0407 42.6994 34.1822 42.8694C34.5662 43.3014 34.9982 43.6854 35.3822 44.1054C35.455 44.2086 35.5643 44.2802 35.688 44.3059C35.8116 44.3315 35.9404 44.3092 36.0482 44.2434C36.6781 43.9307 37.3893 43.8205 38.0843 43.9279C38.7793 44.0353 39.4241 44.3551 39.9302 44.8434C40.4766 45.2808 40.8731 45.8776 41.0645 46.5507C41.2559 47.2239 41.2327 47.94 40.9982 48.5994C40.8205 49.2817 40.4374 49.8928 39.9008 50.35C39.3642 50.8072 38.7 51.0884 37.9982 51.1554C37.3704 51.2392 36.7315 51.1559 36.1462 50.9138C35.5609 50.6718 35.0498 50.2796 34.6646 49.7769C34.2793 49.2741 34.0335 48.6786 33.952 48.0505C33.8704 47.4224 33.956 46.7839 34.2002 46.1994C34.3622 45.8094 34.3622 45.5514 34.0142 45.3114C33.2673 44.8391 32.6848 44.1474 32.3464 43.331C32.008 42.5147 31.9304 41.6136 32.1242 40.7514C32.1487 40.4199 32.1487 40.087 32.1242 39.7554L25.8842 43.1394C25.8842 44.1414 25.8842 45.3234 25.8842 46.5054C25.8842 46.6374 26.1542 46.8114 26.3282 46.8834C27.0274 47.1754 27.6166 47.6806 28.012 48.327C28.4074 48.9733 28.5887 49.728 28.5302 50.4834C28.4568 51.2986 28.1056 52.0638 27.5353 52.6509C26.9651 53.2379 26.2104 53.6112 25.3977 53.7082C24.5851 53.8053 23.7637 53.6201 23.0713 53.1838C22.3789 52.7474 21.8574 52.0864 21.5942 51.3114C21.304 50.4687 21.3453 49.5471 21.7096 48.7337C22.074 47.9203 22.7342 47.276 23.5562 46.9314C23.7308 46.8898 23.8833 46.784 23.9833 46.635C24.0834 46.486 24.1237 46.3048 24.0962 46.1274C24.0962 45.1014 24.1262 44.0634 24.1262 43.1514ZM16.0982 26.3034L16.2182 26.2674L19.7282 30.9294C20.0042 31.3014 20.3282 31.5654 20.8082 31.4094C21.0228 31.3417 21.2059 31.1989 21.3238 31.0071C21.4417 30.8154 21.4866 30.5876 21.4502 30.3654C21.4502 28.9194 21.4502 27.4734 21.4502 26.0274C21.4502 25.1694 21.4502 24.3174 21.4502 23.4654C21.4502 23.2267 21.3554 22.9978 21.1866 22.829C21.0178 22.6603 20.7889 22.5654 20.5502 22.5654C20.3115 22.5654 20.0826 22.6603 19.9138 22.829C19.745 22.9978 19.6502 23.2267 19.6502 23.4654C19.6502 23.7414 19.6502 24.0174 19.6502 24.2994V27.8574L19.2182 27.3234C18.1302 25.8834 17.0462 24.4454 15.9662 23.0094C15.8662 22.8297 15.7065 22.6905 15.5148 22.616C15.3231 22.5415 15.1113 22.5363 14.9162 22.6014C14.7219 22.6674 14.5562 22.7983 14.4469 22.972C14.3377 23.1457 14.2915 23.3517 14.3162 23.5554C14.3162 24.3174 14.3162 25.0734 14.3162 25.8354C14.3162 27.3954 14.3162 28.9554 14.3162 30.5154C14.3079 30.6362 14.3247 30.7574 14.3653 30.8714C14.4059 30.9855 14.4696 31.0899 14.5523 31.1783C14.635 31.2666 14.7351 31.337 14.8462 31.3851C14.9573 31.4331 15.0771 31.4577 15.1982 31.4574C15.3192 31.4576 15.439 31.4331 15.5503 31.3856C15.6616 31.3381 15.7621 31.2684 15.8457 31.1809C15.9292 31.0934 15.9942 30.9898 16.0366 30.8765C16.0789 30.7631 16.0979 30.6423 16.0922 30.5214C16.0922 30.3354 16.0922 30.1494 16.0922 29.9634L16.0982 26.3034ZM25.0442 24.3234H27.5042C28.1642 24.3234 28.5662 23.9874 28.5782 23.4534C28.5902 22.9194 28.1762 22.5474 27.4862 22.5414H24.3662C23.5322 22.5414 23.2322 22.8474 23.2322 23.6934V30.2934C23.2322 31.0134 23.5442 31.4154 24.1022 31.4274C24.6602 31.4394 25.0142 31.0194 25.0142 30.2874C25.0142 29.5554 25.0142 28.7034 25.0142 27.8874C25.9082 27.8874 26.7422 27.8874 27.5762 27.8874C27.7914 27.9078 28.0069 27.8516 28.1847 27.7286C28.3625 27.6057 28.4912 27.424 28.5482 27.2154C28.7222 26.6154 28.2722 26.1174 27.5822 26.1054C26.7362 26.1054 25.8902 26.1054 25.0442 26.1054V24.3234ZM32.1482 24.3234V30.2454C32.1482 31.0374 32.4662 31.4454 33.0542 31.4454C33.6422 31.4454 33.9302 31.0194 33.9302 30.2154V24.3234C34.2902 24.3234 34.5662 24.3234 34.8422 24.3234C34.9604 24.322 35.077 24.2967 35.1852 24.249C35.2933 24.2012 35.3906 24.1321 35.4714 24.0458C35.5521 23.9595 35.6145 23.8577 35.6548 23.7466C35.6952 23.6356 35.7127 23.5175 35.7062 23.3994C35.7078 23.1729 35.6197 22.9549 35.4613 22.7931C35.3028 22.6312 35.0867 22.5386 34.8602 22.5354C33.6602 22.5114 32.4602 22.5114 31.2602 22.5354C31.1432 22.533 31.0269 22.5543 30.9183 22.5981C30.8098 22.6419 30.7113 22.7073 30.6288 22.7904C30.5464 22.8734 30.4816 22.9724 30.4385 23.0812C30.3954 23.19 30.3749 23.3064 30.3782 23.4234C30.3813 23.6585 30.4769 23.8828 30.6442 24.0479C30.8115 24.2129 31.0371 24.3055 31.2722 24.3054C31.5362 24.3354 31.8002 24.3234 32.1482 24.3234ZM12.5162 4.71544C12.1579 4.7156 11.8078 4.82268 11.5108 5.02295C11.2137 5.22323 10.9832 5.5076 10.8487 5.83967C10.7142 6.17173 10.6818 6.53638 10.7557 6.88694C10.8297 7.2375 11.0066 7.55802 11.2637 7.80747C11.5209 8.05692 11.8466 8.22395 12.1993 8.28718C12.5519 8.35042 12.9154 8.30698 13.2433 8.16242C13.5711 8.01787 13.8483 7.77878 14.0394 7.47575C14.2306 7.17272 14.3269 6.81955 14.3162 6.46144C14.3021 5.99347 14.1063 5.54939 13.7703 5.22342C13.4342 4.89744 12.9844 4.71523 12.5162 4.71544ZM3.60018 20.7594C3.24241 20.7595 2.89278 20.8663 2.59593 21.066C2.29908 21.2657 2.06847 21.5493 1.93356 21.8807C1.79864 22.212 1.76553 22.5761 1.83846 22.9263C1.91138 23.2766 2.08704 23.5972 2.34299 23.8472C2.59894 24.0972 2.92359 24.2652 3.27547 24.3298C3.62736 24.3945 3.99053 24.3528 4.31861 24.2101C4.64669 24.0674 4.92481 23.8301 5.11745 23.5287C5.3101 23.2272 5.40853 22.8751 5.40018 22.5174C5.38921 22.0474 5.19473 21.6003 4.85835 21.2717C4.52197 20.9432 4.07038 20.7593 3.60018 20.7594ZM5.40018 31.4754C5.40733 31.118 5.30787 30.7665 5.11448 30.4658C4.92109 30.1651 4.64253 29.9288 4.31432 29.787C3.98611 29.6452 3.62311 29.6044 3.27161 29.6698C2.9201 29.7351 2.59602 29.9036 2.34067 30.1539C2.08532 30.4041 1.91028 30.7247 1.83786 31.0748C1.76543 31.4249 1.79892 31.7887 1.93403 32.1197C2.06915 32.4507 2.29977 32.734 2.59651 32.9334C2.89325 33.1328 3.24266 33.2394 3.60018 33.2394C4.0714 33.2395 4.52386 33.0548 4.86041 32.725C5.19696 32.3952 5.39076 31.9466 5.40018 31.4754ZM48.1922 31.4754C48.2029 31.1173 48.1066 30.7642 47.9154 30.4611C47.7243 30.1581 47.4471 29.919 47.1193 29.7745C46.7914 29.6299 46.4279 29.5865 46.0753 29.6497C45.7226 29.7129 45.3969 29.88 45.1397 30.1294C44.8826 30.3789 44.7057 30.6994 44.6317 31.0499C44.5578 31.4005 44.5902 31.7652 44.7247 32.0972C44.8592 32.4293 45.0897 32.7137 45.3868 32.9139C45.6838 33.1142 46.0339 33.2213 46.3922 33.2214C46.8574 33.2218 47.3046 33.0421 47.6402 32.7199C47.9757 32.3978 48.1736 31.9582 48.1922 31.4934V31.4754ZM14.3162 47.4894C14.3161 47.1317 14.2094 46.782 14.0097 46.4852C13.81 46.1883 13.5263 45.9577 13.195 45.8228C12.8636 45.6879 12.4995 45.6548 12.1493 45.7277C11.799 45.8007 11.4784 45.9763 11.2285 46.2323C10.9785 46.4882 10.8104 46.8128 10.7458 47.1647C10.6812 47.5166 10.7229 47.8798 10.8656 48.2079C11.0083 48.536 11.2455 48.8141 11.547 49.0067C11.8485 49.1994 12.2005 49.2978 12.5582 49.2894C13.0283 49.2785 13.4754 49.084 13.8039 48.7476C14.1324 48.4112 14.3163 47.9596 14.3162 47.4894ZM25.0202 5.59744C25.378 5.59735 25.7276 5.49063 26.0244 5.29093C26.3213 5.09122 26.5519 4.80758 26.6868 4.47622C26.8217 4.14486 26.8548 3.78081 26.7819 3.43055C26.709 3.08028 26.5333 2.7597 26.2774 2.50972C26.0214 2.25973 25.6968 2.0917 25.3449 2.02706C24.993 1.96242 24.6298 2.00412 24.3018 2.14682C23.9737 2.28952 23.6955 2.52675 23.5029 2.82823C23.3103 3.12971 23.2118 3.48177 23.2202 3.83944C23.2312 4.30952 23.4256 4.75663 23.762 5.08517C24.0984 5.4137 24.55 5.59757 25.0202 5.59744ZM39.2762 6.52144C39.2857 6.16355 39.1883 5.81093 38.9964 5.50868C38.8045 5.20642 38.5269 4.96826 38.1989 4.82463C37.871 4.68101 37.5076 4.63844 37.1554 4.70238C36.8031 4.76632 36.4779 4.93385 36.2213 5.18357C35.9648 5.43329 35.7885 5.75384 35.7151 6.10425C35.6417 6.45466 35.6744 6.81901 35.8091 7.15073C35.9438 7.48244 36.1744 7.76644 36.4713 7.96643C36.7683 8.16642 37.1182 8.27332 37.4762 8.27344C37.9454 8.27361 38.3961 8.09057 38.7323 7.76332C39.0685 7.43606 39.2637 6.99046 39.2762 6.52144ZM39.2762 47.5134C39.2762 47.1574 39.1706 46.8094 38.9728 46.5134C38.775 46.2174 38.4939 45.9867 38.165 45.8505C37.8361 45.7142 37.4742 45.6786 37.125 45.748C36.7758 45.8175 36.4551 45.9889 36.2034 46.2407C35.9517 46.4924 35.7802 46.8131 35.7108 47.1623C35.6413 47.5114 35.677 47.8734 35.8132 48.2023C35.9494 48.5312 36.1801 48.8123 36.4762 49.0101C36.7722 49.2079 37.1202 49.3134 37.4762 49.3134C37.9536 49.3134 38.4114 49.1238 38.749 48.7862C39.0865 48.4487 39.2762 47.9908 39.2762 47.5134ZM25.0382 51.9594C25.3967 51.9592 25.747 51.852 26.0442 51.6514C26.3413 51.4509 26.5718 51.1661 26.7061 50.8337C26.8404 50.5013 26.8724 50.1363 26.7979 49.7856C26.7235 49.4349 26.546 49.1144 26.2882 48.8653C26.0304 48.6161 25.7041 48.4496 25.3511 48.387C24.9981 48.3245 24.6344 48.3688 24.3068 48.5143C23.9791 48.6598 23.7023 48.8998 23.5119 49.2036C23.3216 49.5074 23.2262 49.8611 23.2382 50.2194C23.2538 50.6864 23.4502 51.1289 23.7861 51.4536C24.122 51.7783 24.571 51.9597 25.0382 51.9594ZM46.3862 20.7594C46.0279 20.7596 45.6778 20.8667 45.3808 21.067C45.0837 21.2672 44.8532 21.5516 44.7187 21.8837C44.5842 22.2157 44.5518 22.5804 44.6257 22.9309C44.6997 23.2815 44.8766 23.602 45.1337 23.8515C45.3909 24.1009 45.7166 24.268 46.0693 24.3312C46.4219 24.3944 46.7854 24.351 47.1133 24.2064C47.4411 24.0619 47.7183 23.8228 47.9094 23.5198C48.1006 23.2167 48.1969 22.8636 48.1862 22.5054C48.1721 22.0375 47.9763 21.5934 47.6403 21.2674C47.3042 20.9414 46.8544 20.7592 46.3862 20.7594Z" fill="white"/>
</svg>
