<svg width="50" height="47" viewBox="0 0 50 47" fill="none" xmlns="http://www.w3.org/2000/svg">
<g id="orizinal content 1" clip-path="url(#clip0_2039_4673)">
<path id="Vector" d="M0.107666 16.1465H49.8921V40.686C49.8921 44.0201 47.6163 46.2846 44.2765 46.2903H26.8092V36.0489C27.6797 35.992 28.5161 35.9579 29.4037 35.8782C31.1224 35.7259 32.7936 35.2327 34.3196 34.4273C37.1018 32.9253 38.5185 30.4446 39.1899 27.4917C39.6199 25.4994 39.7103 23.4488 39.4573 21.4265C39.4356 21.0232 39.2717 20.6407 38.9946 20.347C38.7175 20.0532 38.3452 19.8672 37.9439 19.822C34.7634 19.4636 31.6853 19.7082 28.7323 21.142C27.1972 21.8988 25.9145 23.0846 25.0397 24.5558C24.979 24.5154 24.9236 24.4676 24.8747 24.4136C23.2589 21.8646 20.8066 20.6186 17.9504 20.0382C16.0776 19.6649 14.1579 19.5862 12.2608 19.8049C11.8218 19.8208 11.4044 19.9989 11.0891 20.3047C10.7739 20.6105 10.5831 21.0224 10.5539 21.4606C10.2008 24.1655 10.4973 26.9155 11.4187 29.483C11.955 30.9731 12.8641 32.3009 14.0593 33.3397C15.2546 34.3786 16.6961 35.0939 18.2463 35.4173C19.6965 35.6904 21.1611 35.8804 22.633 35.9863C22.8225 35.9975 23.0125 35.9975 23.202 35.9863V46.2846H5.70629C2.40629 46.2846 0.107666 44.0087 0.107666 40.7201V16.1465Z" fill="white"/>
<path id="Vector_2" d="M0.187479 12.5339C0.187479 9.83702 0.022479 7.16288 0.232996 4.52288C0.426445 2.09909 2.72506 0.255637 5.17162 0.158913H44.3449C45.6731 0.103392 46.9735 0.550404 47.9868 1.41086C49.0002 2.27131 49.6521 3.48202 49.8126 4.80167C49.8772 5.38915 49.8963 5.98074 49.8695 6.57115C49.8695 8.54546 49.8695 10.5198 49.8695 12.5396L0.187479 12.5339ZM12.534 6.34357C12.5317 5.99088 12.4248 5.64681 12.2267 5.35498C12.0286 5.06315 11.7484 4.83671 11.4215 4.70436C11.0945 4.57201 10.7357 4.53972 10.3904 4.61158C10.0451 4.68344 9.72888 4.85622 9.4819 5.108C9.23491 5.35978 9.06825 5.67923 9.00304 6.02585C8.93784 6.37247 8.97702 6.73064 9.11563 7.05496C9.25424 7.37928 9.48603 7.65514 9.78161 7.84756C10.0772 8.03999 10.4233 8.14031 10.7759 8.13581C11.2458 8.12833 11.6938 7.93603 12.0229 7.60056C12.3519 7.2651 12.5356 6.81349 12.534 6.34357ZM17.8766 8.13581C18.2282 8.13353 18.5712 8.0269 18.862 7.82946C19.1529 7.63201 19.3786 7.35263 19.5106 7.02675C19.6425 6.70086 19.6747 6.34314 19.603 5.99895C19.5314 5.65475 19.3591 5.33958 19.1082 5.09339C18.8572 4.8472 18.5387 4.68108 18.1932 4.61609C17.8477 4.55111 17.4907 4.59018 17.1674 4.72835C16.8441 4.86653 16.5691 5.09759 16.3773 5.39224C16.1856 5.68689 16.0856 6.03185 16.0901 6.38339C16.1005 6.85081 16.2931 7.29566 16.6268 7.62305C16.9606 7.95043 17.4091 8.13444 17.8766 8.13581Z" fill="white"/>
<path id="Vector_3" d="M20.3516 23.2188C22.5079 23.2188 24.4936 23.4179 26.3143 24.4193C27.489 25.0729 28.3896 26.127 28.8519 27.3893C29.454 29.0007 29.7231 30.7176 29.6428 32.436C27.3669 32.4644 25.1764 32.2539 23.259 30.9567C21.461 29.7391 20.8466 27.8501 20.5564 25.836C20.4483 24.9825 20.4483 24.1462 20.3516 23.2188Z" fill="white"/>
<path id="Vector_4" d="M20.3743 32.5278C20.3743 30.0812 20.5962 27.8167 22.0356 25.8765C23.1736 24.3745 24.7894 23.7543 26.5874 23.4584C27.566 23.2991 28.5617 23.2536 29.637 23.1455C29.6601 23.5928 29.6601 24.041 29.637 24.4883C29.5558 25.3686 29.4286 26.2441 29.2558 27.1112C28.5731 30.0869 26.5931 31.6914 23.6572 32.1864C22.5762 32.3798 21.5065 32.414 20.3743 32.5278Z" fill="white"/>
</g>
<defs>
<clipPath id="clip0_2039_4673">
<rect width="50" height="46.5517" fill="white"/>
</clipPath>
</defs>
</svg>
