<svg width="70" height="70" viewBox="0 0 70 70" fill="none" xmlns="http://www.w3.org/2000/svg">
<g id="Artboard 1 9">
<path id="Vector" d="M34.9998 18.5859C38.2524 18.5847 41.4319 19.5497 44.1351 21.3585C46.8383 23.1673 48.9432 25.7384 50.1826 28.7454C51.4221 31.7525 51.7403 35.0601 51.0969 38.2483C50.4535 41.4365 48.8774 44.3617 46.5686 46.6527C44.2599 48.9437 41.3226 50.4972 38.1295 51.1161C34.9364 51.7349 31.6314 51.3912 28.634 50.1286C25.6366 48.866 23.0818 46.7413 21.2939 44.0243C19.5059 41.3073 18.5655 38.1204 18.5918 34.8679C18.6342 30.541 20.3805 26.4052 23.452 23.3572C26.5235 20.3093 30.6727 18.5949 34.9998 18.5859ZM35.0348 20.7839C32.2195 20.7756 29.4651 21.603 27.1203 23.1612C24.7755 24.7194 22.9458 26.9383 21.863 29.5371C20.7802 32.1359 20.4929 34.9975 21.0376 37.7596C21.5822 40.5218 22.9343 43.0602 24.9226 45.0534C26.9109 47.0465 29.4459 48.4049 32.2067 48.9563C34.9675 49.5078 37.8298 49.2276 40.4312 48.1512C43.0327 47.0748 45.2562 45.2506 46.8201 42.9096C48.3841 40.5687 49.2182 37.8163 49.2168 35.0009C49.2132 31.2424 47.7228 27.6379 45.071 24.9743C42.4192 22.3107 38.8214 20.8043 35.0628 20.7839H35.0348Z" fill="white"/>
<path id="Vector_2" d="M53.3258 31.3536L51.9678 27.1956L56.9238 25.5716L57.8968 25.2636C58.7088 24.9976 58.8348 24.8646 59.0728 23.9336L63.5458 25.7256L60.9488 29.8416C60.748 29.5686 60.455 29.3778 60.1242 29.3044C59.7934 29.231 59.4471 29.2801 59.1498 29.4426C57.2178 30.1006 55.2998 30.7166 53.3258 31.3536Z" fill="white"/>
<path id="Vector_3" d="M9.04394 40.1582C9.23974 40.4227 9.52248 40.6098 9.84251 40.6866C10.1625 40.7634 10.4994 40.725 10.7939 40.5782C12.7469 39.9202 14.7069 39.2972 16.6739 38.6602L18.0319 42.8112L14.3149 44.0292C13.6149 44.2602 12.9149 44.5122 12.1729 44.7292C11.8411 44.7726 11.5358 44.9334 11.3124 45.1826C11.089 45.4317 10.9621 45.7526 10.9549 46.0872L6.46094 44.2742L9.04394 40.1582Z" fill="white"/>
<path id="Vector_4" d="M53.3258 38.6602L57.5258 40.0042C58.1278 40.2072 58.7438 40.3892 59.3388 40.6062C59.6202 40.7437 59.9423 40.7734 60.2441 40.6895C60.546 40.6057 60.8066 40.4142 60.9768 40.1512L63.5738 44.2742L59.0588 46.0872C59.0588 45.1912 58.4778 44.9042 57.7708 44.6872C55.8178 44.0992 53.8998 43.4412 51.9678 42.8042L53.3258 38.6602Z" fill="white"/>
<path id="Vector_5" d="M6.4541 25.7248L10.9411 23.9258C11.0041 24.8078 11.5641 25.1018 12.2711 25.3258C13.9931 25.8438 15.6941 26.4178 17.4021 26.9778C17.6121 27.0478 17.8221 27.1388 18.0251 27.2158L16.6741 31.3388L13.3771 30.2818C12.5161 30.0018 11.6411 29.7358 10.7871 29.4278C10.4972 29.2699 10.159 29.2254 9.83811 29.303C9.51726 29.3806 9.23674 29.5748 9.0511 29.8478L6.4541 25.7248Z" fill="white"/>
<path id="Vector_6" d="M22.0711 11.9005C21.8784 12.1709 21.7882 12.5009 21.8164 12.8317C21.8446 13.1625 21.9894 13.4726 22.2251 13.7065C23.4571 15.3655 24.6611 17.0455 25.8651 18.7045L22.3301 21.2875C21.1121 19.6075 19.8731 17.9205 18.6621 16.2195C18.5133 15.9337 18.2704 15.7081 17.9746 15.5806C17.6788 15.4531 17.348 15.4315 17.0381 15.5195L17.3601 10.6895L22.0711 11.9005Z" fill="white"/>
<path id="Vector_7" d="M17.0381 54.4465C17.3478 54.543 17.6818 54.5255 17.9796 54.3971C18.2775 54.2687 18.5196 54.0379 18.6621 53.7465C19.8731 52.0455 21.1121 50.3585 22.3301 48.6855L25.9001 51.2965C24.6961 52.9555 23.4921 54.6425 22.2601 56.3015C22.0198 56.5297 21.8682 56.8357 21.8324 57.1651C21.7965 57.4945 21.8786 57.826 22.0641 58.1005L17.3671 59.2905L17.0381 54.4465Z" fill="white"/>
<path id="Vector_8" d="M32.8091 16.4574V13.3004C32.8091 12.2924 32.8091 11.2914 32.8091 10.2904C32.8676 9.96267 32.8075 9.62483 32.6394 9.33747C32.4714 9.05011 32.2064 8.83204 31.8921 8.72238L35.0001 4.98438L38.1221 8.71537C37.2191 9.00237 37.1771 9.68137 37.1841 10.4304C37.1841 12.4324 37.1841 14.4344 37.1841 16.4574H32.8091Z" fill="white"/>
<path id="Vector_9" d="M47.6699 21.2798L44.1699 18.7038L47.3199 14.3708C47.4949 14.1258 47.6559 13.8808 47.8449 13.6708C48.0781 13.4401 48.2167 13.1305 48.2335 12.8029C48.2503 12.4753 48.1442 12.1532 47.9359 11.8998L52.6399 10.7168C52.7449 12.3618 52.8499 13.9228 52.9619 15.5468C52.6472 15.4497 52.3084 15.4667 52.005 15.5947C51.7015 15.7227 51.453 15.9536 51.3029 16.2468C50.1059 17.9548 48.8739 19.5998 47.6699 21.2798Z" fill="white"/>
<path id="Vector_10" d="M38.1008 61.299L34.9998 65.016L31.8848 61.285C32.8998 60.984 32.8158 60.186 32.8158 59.402C32.8158 57.449 32.8158 55.496 32.8158 53.543H37.1908V54.243C37.1908 56.049 37.1908 57.848 37.1908 59.647C37.1628 60.361 37.2678 60.984 38.1008 61.299Z" fill="white"/>
<path id="Vector_11" d="M47.9148 58.0996C48.1117 57.851 48.2117 57.5395 48.1963 57.2228C48.1808 56.9061 48.051 56.6057 47.8308 56.3776C46.5848 54.6976 45.3668 52.9966 44.1348 51.3026L47.6348 48.7266C48.8598 50.4066 50.1128 52.1076 51.3378 53.8226C51.4874 54.0966 51.7282 54.3096 52.0184 54.4247C52.3087 54.5397 52.63 54.5496 52.9268 54.4526C52.8218 56.0556 52.7238 57.6166 52.6118 59.2826L47.9148 58.0996Z" fill="white"/>
<path id="Vector_12" d="M35.0352 47.0328C32.6562 47.0396 30.3285 46.3412 28.3463 45.0257C26.3642 43.7101 24.8164 41.8366 23.8987 39.6417C22.9809 37.4469 22.7344 35.0292 23.1902 32.6943C23.646 30.3594 24.7838 28.2119 26.4596 26.5234C28.1354 24.8348 30.2742 23.6809 32.6056 23.2075C34.937 22.734 37.3565 22.9623 39.5582 23.8634C41.7599 24.7646 43.6451 26.2981 44.9756 28.2703C46.3061 30.2425 47.0221 32.5648 47.0332 34.9438C47.0396 36.5255 46.7343 38.0929 46.1348 39.5566C45.5352 41.0203 44.6531 42.3515 43.5389 43.4742C42.4247 44.5968 41.1002 45.4889 39.6411 46.0995C38.182 46.7101 36.6169 47.0272 35.0352 47.0328ZM27.7202 34.7408C27.7202 35.9238 27.7202 37.1138 27.7202 38.2968C27.7046 38.546 27.7627 38.7944 27.8871 39.011C28.0116 39.2275 28.1969 39.4027 28.4202 39.5148C30.4362 40.6674 32.4452 41.8341 34.4472 43.0148C34.6665 43.159 34.9232 43.2358 35.1857 43.2358C35.4481 43.2358 35.7049 43.159 35.9242 43.0148C37.9122 41.8598 39.9002 40.7048 41.8952 39.5708C42.1515 39.4512 42.3657 39.2568 42.5094 39.0131C42.6531 38.7694 42.7196 38.488 42.7002 38.2058C42.7002 35.9331 42.7002 33.6558 42.7002 31.3738C42.721 31.0867 42.6555 30.8 42.512 30.5505C42.3686 30.301 42.1537 30.1001 41.8952 29.9738C39.8978 28.8631 37.9145 27.7384 35.9452 26.5998C35.7166 26.4492 35.4489 26.369 35.1752 26.369C34.9015 26.369 34.6338 26.4492 34.4052 26.5998C32.4265 27.7618 30.4385 28.9098 28.4412 30.0438C28.2111 30.1643 28.0218 30.3503 27.8973 30.5783C27.7727 30.8063 27.7184 31.066 27.7412 31.3248C27.7342 32.4658 27.7202 33.5998 27.7202 34.7408Z" fill="white"/>
<path id="Vector_13" d="M39.3958 31.1088C37.9958 31.9628 36.5958 32.7748 35.2448 33.5798C35.1838 33.6054 35.1184 33.6186 35.0523 33.6186C34.9862 33.6186 34.9207 33.6054 34.8598 33.5798C33.5718 32.7818 32.2908 31.9698 30.9258 31.1158C32.3258 30.3038 33.6208 29.5478 34.9298 28.8198C35.0154 28.7802 35.1085 28.7598 35.2028 28.7598C35.2971 28.7598 35.3902 28.7802 35.4758 28.8198C36.7638 29.5828 38.0378 30.3248 39.3958 31.1088Z" fill="white"/>
<path id="Vector_14" d="M36.1128 40.1304C36.1128 38.7724 36.1128 37.4074 36.1128 36.0494C36.1128 35.8674 36.1688 35.6014 36.2948 35.5244C37.6388 34.6984 39.0038 33.8934 40.4948 33.0254C40.4948 34.6354 40.4948 36.1264 40.4948 37.6174C40.4891 37.6809 40.47 37.7425 40.4386 37.7981C40.4072 37.8536 40.3643 37.9018 40.3128 37.9394C39.0038 38.7094 37.6948 39.4584 36.3788 40.2144L36.1128 40.1304Z" fill="white"/>
<path id="Vector_15" d="M29.9108 33.0898C31.2548 33.9368 32.4658 34.6858 33.6698 35.4628C33.7367 35.5154 33.7923 35.5809 33.8332 35.6555C33.8741 35.7301 33.8995 35.8122 33.9078 35.8968C33.9078 37.2968 33.9078 38.6968 33.9078 40.1388L32.8158 39.5228C31.9688 39.0328 31.1148 38.5498 30.2818 38.0388C30.1904 37.987 30.1108 37.9166 30.0482 37.8322C29.9855 37.7478 29.9411 37.6513 29.9178 37.5488C29.8968 36.1138 29.9108 34.6788 29.9108 33.0898Z" fill="white"/>
</g>
</svg>
