<svg width="70" height="70" viewBox="0 0 70 70" fill="none" xmlns="http://www.w3.org/2000/svg">
<g id="Artboard 1 copy 4 6">
<path id="Vector" d="M48.4468 27.0475C50.5468 27.0475 52.4998 27.0475 54.4808 27.0475C54.6887 27.0064 54.8805 26.9068 55.0338 26.7605C56.1118 25.9275 57.1758 25.0805 58.2538 24.2615C58.3809 24.1878 58.477 24.0708 58.5246 23.9319C58.5722 23.793 58.568 23.6415 58.5128 23.5055C58.3643 23.0001 58.3234 22.4693 58.3924 21.9472C58.4615 21.4251 58.6391 20.9232 58.9139 20.4739C59.1886 20.0246 59.5544 19.6377 59.9876 19.3383C60.4209 19.0388 60.912 18.8334 61.4294 18.7352C61.9469 18.637 62.4791 18.6483 62.992 18.7682C63.5048 18.8881 63.9869 19.1141 64.4071 19.4315C64.8273 19.749 65.1764 20.1509 65.432 20.6114C65.6875 21.072 65.8438 21.5809 65.8908 22.1055C65.9594 22.7775 65.8456 23.4557 65.5614 24.0685C65.2772 24.6814 64.833 25.2063 64.2757 25.5882C63.7184 25.97 63.0685 26.1945 62.3943 26.2382C61.7202 26.2819 61.0467 26.1431 60.4448 25.8365C60.2923 25.731 60.1074 25.6829 59.9228 25.7009C59.7383 25.7188 59.5661 25.8016 59.4368 25.9345C58.3378 26.8375 57.1828 27.6775 56.0908 28.5875C55.6287 28.9769 55.0351 29.1747 54.4318 29.1405C52.7098 29.1405 50.9808 29.1405 49.2588 29.1405H48.5028V35.5315H52.4158C53.4168 33.3265 55.0338 32.3955 57.0498 32.8505C57.92 33.0515 58.6932 33.5487 59.2371 34.2572C59.781 34.9656 60.0617 35.841 60.0311 36.7336C60.0004 37.6262 59.6605 38.4804 59.0693 39.1499C58.4782 39.8194 57.6727 40.2625 56.7908 40.4035C54.9358 40.7465 53.2908 39.7035 52.4438 37.6805H48.4958V44.0645H49.7838C51.3798 44.0645 52.9758 44.0645 54.5718 44.0645C55.0816 44.0501 55.5793 44.2218 55.9718 44.5475C57.1408 45.4995 58.3518 46.4095 59.5278 47.3475C59.6285 47.4519 59.7643 47.5154 59.9091 47.5257C60.0538 47.536 60.1972 47.4925 60.3118 47.4035C61.0351 46.9836 61.8763 46.813 62.706 46.918C63.5357 47.023 64.3079 47.3977 64.9038 47.9845C65.3513 48.4212 65.6862 48.96 65.8796 49.5546C66.0731 50.1493 66.1193 50.782 66.0143 51.3984C65.9094 52.0148 65.6564 52.5966 65.2771 53.0937C64.8978 53.5909 64.4036 53.9885 63.8367 54.2526C63.2699 54.5166 62.6475 54.6391 62.0228 54.6096C61.3982 54.5801 60.7901 54.3995 60.2507 54.0832C59.7113 53.7669 59.2567 53.3244 58.9259 52.7937C58.5952 52.2631 58.3982 51.66 58.3518 51.0365C58.3745 50.5677 58.4212 50.1004 58.4918 49.6365C58.5031 49.4064 58.4254 49.1807 58.2748 49.0065C57.1688 48.1035 56.0488 47.2285 54.9218 46.3605C54.7747 46.2391 54.5939 46.1657 54.4038 46.1505C52.4438 46.1505 50.4838 46.1505 48.4258 46.1505V46.8995C48.4258 50.2875 48.4258 53.6754 48.4258 57.0564C48.4258 59.2405 47.2428 60.8505 45.2898 61.3335C44.8486 61.4303 44.3975 61.475 43.9458 61.4665H12.5998C9.79979 61.4665 8.13379 59.7445 8.13379 56.9725V16.1765C8.13379 13.3765 9.82779 11.6895 12.5998 11.6895H43.9528C46.7528 11.6895 48.4328 13.3835 48.4468 16.1555C48.4468 19.5015 48.4468 22.8405 48.4468 26.1865V27.0475ZM28.2728 43.9805H33.9708C36.2108 43.9805 38.4578 43.9805 40.6978 43.9805C40.8382 43.9949 40.98 43.9807 41.1147 43.9387C41.2494 43.8967 41.3742 43.8278 41.4816 43.7362C41.5889 43.6446 41.6765 43.5321 41.7391 43.4057C41.8017 43.2792 41.838 43.1413 41.8458 43.0005C41.8468 42.8547 41.8183 42.7102 41.762 42.5758C41.7056 42.4414 41.6226 42.3198 41.5179 42.2184C41.4132 42.117 41.289 42.0378 41.1529 41.9857C41.0167 41.9337 40.8714 41.9098 40.7258 41.9155H16.2258C15.948 41.8666 15.6621 41.8956 15.3998 41.9995C15.0921 42.2019 14.8664 42.507 14.7628 42.8605C14.7677 43.0347 14.8096 43.2059 14.8856 43.3628C14.9616 43.5197 15.0701 43.6586 15.2038 43.7705C15.4838 43.923 15.8037 43.9864 16.1208 43.9525C20.1668 43.9875 24.2198 43.9805 28.2728 43.9805ZM28.2728 32.6825H40.3128C40.5455 32.7066 40.7801 32.7066 41.0128 32.6825C41.2561 32.6362 41.4744 32.5032 41.627 32.3081C41.7796 32.1131 41.8562 31.8692 41.8425 31.6219C41.8288 31.3746 41.7258 31.1407 41.5525 30.9637C41.3793 30.7866 41.1477 30.6785 40.9008 30.6595C40.7258 30.6595 40.5578 30.6595 40.3828 30.6595H16.1628C15.9694 30.6454 15.7752 30.6454 15.5818 30.6595C15.3549 30.6769 15.1415 30.7745 14.9799 30.9348C14.8184 31.0951 14.7191 31.3077 14.6998 31.5345C14.6614 31.7665 14.7122 32.0044 14.8421 32.2005C14.9719 32.3966 15.1712 32.5363 15.3998 32.5915C15.6688 32.6639 15.9474 32.6946 16.2258 32.6825H28.2728ZM28.2728 38.3245H40.5998C41.4118 38.3245 41.8948 37.9045 41.8738 37.2675C41.8528 36.6305 41.3698 36.2805 40.5998 36.2595H16.2118C15.9776 36.2495 15.7431 36.2636 15.5118 36.3015C15.2774 36.3464 15.0667 36.4731 14.9169 36.6589C14.7672 36.8447 14.6883 37.0777 14.6942 37.3162C14.7 37.5548 14.7904 37.7835 14.9491 37.9617C15.1077 38.1399 15.3245 38.2561 15.5608 38.2895C15.8194 38.3105 16.0792 38.3105 16.3378 38.2895L28.2728 38.3245ZM21.3778 25.5985H26.8098C27.6078 25.5985 28.0418 25.2345 28.0558 24.5975C28.0698 23.9605 27.6218 23.5335 26.8098 23.5335H15.9458C15.1548 23.5335 14.7138 23.8975 14.6998 24.5345C14.6858 25.1715 15.1268 25.5915 15.9458 25.5985H21.3778ZM18.5778 47.5785C17.6748 47.5785 16.7718 47.5785 15.8618 47.5785C15.1618 47.5785 14.7068 47.9775 14.6998 48.5935C14.6968 48.7404 14.7253 48.8862 14.7834 49.0212C14.8415 49.1562 14.9279 49.2772 15.0366 49.376C15.1454 49.4748 15.2741 49.5492 15.414 49.5941C15.5539 49.639 15.7018 49.6535 15.8478 49.6365C17.6351 49.6365 19.4248 49.6365 21.2168 49.6365C21.362 49.6534 21.5092 49.6395 21.6486 49.5955C21.788 49.5515 21.9166 49.4785 22.0258 49.3814C22.135 49.2842 22.2224 49.165 22.2822 49.0316C22.3421 48.8982 22.373 48.7537 22.373 48.6075C22.373 48.4613 22.3421 48.3167 22.2822 48.1833C22.2224 48.0499 22.135 47.9307 22.0258 47.8335C21.9166 47.7364 21.788 47.6634 21.6486 47.6194C21.5092 47.5754 21.362 47.5615 21.2168 47.5785C20.3558 47.5995 19.4738 47.5995 18.5848 47.5995L18.5778 47.5785Z" fill="white"/>
</g>
</svg>
