<svg width="60" height="60" viewBox="0 0 60 60" fill="none" xmlns="http://www.w3.org/2000/svg">
<g id="Artboard 1 copy 18">
<path id="Vector" d="M26.343 43.4504C26.343 40.2571 26.343 37.0638 26.343 33.8646C26.367 31.7977 25.8338 29.7625 24.7994 27.9729C21.8535 22.7882 18.9843 17.58 16.0973 12.3717C15.9282 12.0744 15.8465 11.7354 15.8617 11.3937C15.8825 11.1773 15.978 10.975 16.1317 10.8212C16.2854 10.6675 16.4878 10.5721 16.7042 10.5512C16.9376 10.5131 17.177 10.5496 17.3886 10.6553C17.6001 10.7611 17.7729 10.9308 17.8825 11.1404C18.996 12.9079 20.086 14.6754 21.2408 16.3604C22.4196 18.1826 23.8231 19.8493 25.418 21.3212C25.8348 21.696 26.2778 22.0405 26.7436 22.3523C29.0119 23.8723 31.1801 23.8605 33.4307 22.3051C35.2087 21.0172 36.7412 19.4208 37.9555 17.5918C39.4049 15.5179 40.7364 13.3615 42.1563 11.2582C42.368 10.9246 42.6854 10.6715 43.0577 10.5394C43.2381 10.4981 43.4262 10.5066 43.6021 10.5641C43.7779 10.6216 43.9348 10.7259 44.0559 10.8658C44.177 11.0056 44.2578 11.1758 44.2895 11.3581C44.3212 11.5404 44.3028 11.7278 44.2361 11.9004C44.1654 12.1062 44.0725 12.3038 43.9592 12.4896C41.0015 17.7921 38.0419 23.0946 35.0804 28.3971C34.193 30.0213 33.7462 31.8493 33.7842 33.6997C33.7842 40.3062 33.7842 46.9108 33.7842 53.5134C33.7973 53.8034 33.7775 54.094 33.7253 54.3795C33.639 54.7099 33.4456 55.0024 33.1753 55.2112C32.9051 55.4199 32.5732 55.5331 32.2317 55.5331C31.8902 55.5331 31.5584 55.4199 31.2881 55.2112C31.0179 55.0024 30.8245 54.7099 30.7382 54.3795C30.6805 54.0986 30.6548 53.812 30.6616 53.5252C30.6616 48.698 30.6616 43.8844 30.6616 39.0847V38.5662C30.6616 37.818 30.4731 37.488 30.043 37.5293C29.4184 37.5941 29.4538 38.0831 29.4538 38.5368C29.4538 43.5329 29.4538 48.5291 29.4538 53.5252C29.4637 53.8199 29.438 54.1146 29.3772 54.4031C29.2976 54.7309 29.1127 55.0236 28.851 55.2364C28.5892 55.4492 28.265 55.5704 27.9278 55.5814C27.5966 55.5829 27.2733 55.4801 27.0037 55.2877C26.734 55.0952 26.5318 54.8229 26.4255 54.5091C26.3622 54.227 26.3345 53.938 26.343 53.649V43.4504Z" fill="white"/>
<path id="Vector_2" d="M10.7004 41.749V29.8418C10.7004 29.671 10.7652 29.4471 10.7004 29.3293C10.5413 29.1054 10.3234 28.8167 10.1113 28.7813C9.89915 28.746 9.67526 29.07 9.52208 29.2821C9.3689 29.4942 9.48673 29.6592 9.48673 29.8713C9.48673 32.228 9.48673 34.5847 9.48673 36.9413C9.49818 37.2315 9.46439 37.5217 9.38657 37.8015C9.28163 38.095 9.07953 38.3438 8.81378 38.5067C8.54802 38.6696 8.23459 38.7367 7.92543 38.6971C7.57457 38.6545 7.25236 38.4822 7.02227 38.2139C6.79217 37.9456 6.67088 37.6009 6.68228 37.2477C6.68228 35.4095 6.68228 33.5693 6.68228 31.7272C6.66248 30.7618 6.69592 29.7961 6.78244 28.8344C7.02224 27 7.91 25.3119 9.28543 24.0747C10.6608 22.8376 12.4333 22.133 14.2827 22.0882C16.1321 22.0434 17.9366 22.6613 19.3703 23.8304C20.804 24.9994 21.7725 26.6426 22.1009 28.4632C22.1632 28.7463 22.2026 29.0339 22.2187 29.3234C22.2187 31.9746 22.2187 34.6259 22.2187 37.283C22.2234 37.4674 22.1915 37.6509 22.1249 37.8228C22.0583 37.9948 21.9583 38.1519 21.8307 38.285C21.7031 38.4181 21.5503 38.5246 21.3813 38.5984C21.2123 38.6721 21.0303 38.7117 20.8459 38.7147C20.6566 38.7124 20.4697 38.6728 20.2957 38.598C20.1218 38.5233 19.9644 38.4149 19.8324 38.2791C19.7005 38.1434 19.5967 37.9829 19.5269 37.8069C19.4572 37.6309 19.4229 37.4429 19.426 37.2536C19.426 37.1004 19.426 36.9472 19.426 36.794V29.4117C19.426 29.0288 19.2257 28.7695 18.8369 28.7519C18.448 28.7342 18.2477 29.017 18.2006 29.4176C18.2006 29.6062 18.2006 29.8006 18.2006 30.0068V53.4027C18.2006 53.6502 18.2006 53.9035 18.2006 54.1569C18.1714 54.536 18.0027 54.8908 17.7272 55.1529C17.4517 55.415 17.0889 55.5657 16.7088 55.576C16.3287 55.5862 15.9583 55.4553 15.6691 55.2084C15.3799 54.9616 15.1924 54.6163 15.1428 54.2393C15.1083 53.9698 15.0945 53.698 15.1015 53.4263C15.1015 48.4891 15.1015 43.5538 15.1015 38.6205C15.1015 37.8074 14.9366 37.501 14.5123 37.4951C14.0881 37.4893 13.9232 37.8015 13.9232 38.5969V53.5265C13.938 53.7383 13.938 53.9509 13.9232 54.1628C13.8888 54.5646 13.6996 54.9374 13.3957 55.2024C13.0917 55.4675 12.6966 55.6041 12.2939 55.5835C11.8911 55.5628 11.5121 55.3866 11.2368 55.0918C10.9615 54.7971 10.8114 54.4069 10.8183 54.0037C10.8183 53.6561 10.8183 53.3085 10.8183 52.9609L10.7004 41.749Z" fill="white"/>
<path id="Vector_3" d="M49.4444 41.7533C49.4444 45.7832 49.4444 49.8073 49.4444 53.8372C49.4704 54.1082 49.4248 54.3813 49.3121 54.6292C49.1995 54.8771 49.0237 55.091 48.8024 55.2497C48.5812 55.4084 48.3221 55.5061 48.0512 55.5333C47.7803 55.5604 47.507 55.516 47.2586 55.4044C46.9485 55.2612 46.6908 55.0246 46.5218 54.7278C46.3528 54.4309 46.2808 54.0886 46.3159 53.7488C46.3159 50.2491 46.3159 46.7436 46.3159 43.238V38.5247C46.3159 37.7882 46.1215 37.4406 45.7268 37.4877C45.061 37.5643 45.1376 38.0769 45.1376 38.5541C45.1376 43.5071 45.1376 48.462 45.1376 53.4189C45.1446 53.6906 45.1308 53.9624 45.0964 54.2319C45.0348 54.6003 44.8418 54.9338 44.5531 55.1707C44.2644 55.4076 43.8996 55.5319 43.5263 55.5203C43.153 55.5088 42.7966 55.3624 42.523 55.1081C42.2494 54.8539 42.0773 54.5091 42.0386 54.1377C42.0238 53.8865 42.0238 53.6347 42.0386 53.3835V29.8757C42.0386 29.4043 42.1446 28.8328 41.4494 28.7445C40.9957 28.6914 40.8131 29.039 40.8131 29.8816C40.8131 32.3207 40.8131 34.7599 40.8131 37.199C40.8319 37.437 40.7891 37.6758 40.6888 37.8924C40.5886 38.109 40.4342 38.2962 40.2407 38.4358C40.0471 38.5755 39.8209 38.663 39.5837 38.69C39.3465 38.7169 39.1064 38.6823 38.8865 38.5895C38.6437 38.5092 38.4317 38.3556 38.2798 38.1498C38.1279 37.9441 38.0434 37.6963 38.0381 37.4406C38.0381 34.6538 37.9026 31.8612 38.0852 29.0862C38.3209 25.3508 41.5555 22.3873 45.3674 22.1399C47.1788 22.0528 48.964 22.5991 50.4164 23.685C51.8689 24.7708 52.898 26.3285 53.3271 28.0905C53.4646 28.6701 53.5416 29.2625 53.5568 29.858C53.5568 32.2795 53.5568 34.6951 53.5568 37.1166C53.5568 38.2949 52.6083 38.9842 51.6303 38.5777C51.3324 38.4715 51.0785 38.269 50.9088 38.0022C50.7391 37.7354 50.6633 37.4195 50.6935 37.1048C50.6935 34.7069 50.6935 32.303 50.6935 29.9051C50.7023 29.7304 50.7023 29.5554 50.6935 29.3808C50.6581 29.0096 50.4814 28.7445 50.1043 28.7445C50.0228 28.7442 49.9421 28.7608 49.8674 28.7934C49.7927 28.8259 49.7255 28.8735 49.6701 28.9333C49.6147 28.9931 49.5724 29.0638 49.5457 29.1408C49.519 29.2178 49.5086 29.2995 49.5151 29.3808C49.5151 29.5398 49.5151 29.693 49.5151 29.8462L49.4444 41.7533Z" fill="white"/>
<path id="Vector_4" d="M29.925 12.1429L33.301 8.19546C34.0964 7.27046 34.88 6.33958 35.6577 5.41458C36.1113 4.89022 36.5473 4.82541 36.9597 5.13767C37.3721 5.44993 37.3604 5.98018 36.9067 6.51044C34.8407 8.95353 32.7589 11.3947 30.6615 13.8338C30.587 13.973 30.4762 14.0894 30.3408 14.1705C30.2054 14.2516 30.0505 14.2945 29.8926 14.2945C29.7348 14.2945 29.5799 14.2516 29.4445 14.1705C29.3091 14.0894 29.1982 13.973 29.1238 13.8338C28.4227 12.9795 27.7392 12.1193 27.0558 11.2474C26.9659 11.1668 26.8945 11.0678 26.8465 10.9571C26.7984 10.8464 26.7749 10.7266 26.7775 10.606C26.7802 10.4853 26.8089 10.3667 26.8616 10.2582C26.9144 10.1497 26.9901 10.0539 27.0834 9.97732C27.1767 9.90079 27.2854 9.84534 27.4022 9.8148C27.5189 9.78425 27.6409 9.77931 27.7597 9.80034C27.8785 9.82136 27.9914 9.86784 28.0906 9.93659C28.1898 10.0053 28.2729 10.0947 28.3343 10.1986C28.894 10.8055 29.3653 11.4418 29.925 12.1429Z" fill="white"/>
<path id="Vector_5" d="M42.9219 18.1037C42.9187 17.3702 43.2055 16.6652 43.7197 16.1421C44.2339 15.6191 44.934 15.3204 45.6674 15.311C46.2233 15.3005 46.7698 15.4558 47.237 15.7571C47.7043 16.0584 48.0712 16.4921 48.291 17.0027C48.5108 17.5134 48.5735 18.078 48.4711 18.6245C48.3687 19.171 48.1059 19.6746 47.7161 20.0711C47.3263 20.4675 46.8273 20.7389 46.2826 20.8506C45.738 20.9623 45.1724 20.9092 44.658 20.6981C44.1436 20.4871 43.7038 20.1276 43.3946 19.6655C43.0854 19.2034 42.9208 18.6597 42.9219 18.1037Z" fill="white"/>
<path id="Vector_6" d="M30.0726 15.9533C30.6246 15.9568 31.1633 16.1238 31.6205 16.4333C32.0776 16.7428 32.4328 17.1809 32.6411 17.6922C32.8494 18.2034 32.9015 18.765 32.7908 19.3059C32.6801 19.8467 32.4116 20.3427 32.0192 20.731C31.6267 21.1193 31.128 21.3826 30.586 21.4876C30.044 21.5926 29.483 21.5346 28.974 21.3209C28.4649 21.1072 28.0306 20.7474 27.726 20.287C27.4213 19.8266 27.2599 19.2862 27.2622 18.7342C27.2622 18.3665 27.3351 18.0024 27.4767 17.6631C27.6183 17.3238 27.8258 17.0159 28.0871 16.7573C28.3485 16.4987 28.6585 16.2945 28.9993 16.1564C29.3401 16.0184 29.7049 15.9494 30.0726 15.9533Z" fill="white"/>
<path id="Vector_7" d="M17.2166 18.0917C17.2177 18.6446 17.0544 19.1853 16.7473 19.6451C16.4402 20.1049 16.0032 20.463 15.4921 20.6737C14.9809 20.8845 14.4186 20.9384 13.8766 20.8286C13.3347 20.7189 12.8377 20.4504 12.4488 20.0573C12.0599 19.6643 11.7968 19.1644 11.6928 18.6214C11.5888 18.0783 11.6487 17.5166 11.8649 17.0077C12.0811 16.4988 12.4438 16.0657 12.9068 15.7636C13.3698 15.4614 13.9123 15.3038 14.4652 15.3108C15.1971 15.3201 15.896 15.6169 16.4109 16.1373C16.9257 16.6576 17.2151 17.3597 17.2166 18.0917Z" fill="white"/>
</g>
</svg>
