<svg width="62" height="62" viewBox="0 0 62 62" fill="none" xmlns="http://www.w3.org/2000/svg">
<g id="Artboard 1 copy 2 13">
<path id="Vector" d="M3.14062 24.0568L3.34153 22.8392C3.67638 20.8971 4.49827 20.0691 6.44646 19.7099C8.94257 19.2472 8.94257 19.2472 10.5255 21.1589L10.9273 21.652C10.6107 22.1269 10.288 22.6018 9.97755 23.0766C9.56964 23.6854 9.62444 24.1299 10.2698 24.4586C10.3851 24.5029 10.4904 24.5698 10.5795 24.6554C10.6685 24.741 10.7395 24.8435 10.7883 24.957C10.8371 25.0705 10.8627 25.1926 10.8636 25.3161C10.8644 25.4396 10.8406 25.5621 10.7933 25.6762C10.4524 27.46 10.1541 29.256 9.88622 31.0459C9.86626 31.3772 9.95381 31.706 10.1358 31.9835C10.5924 32.6897 11.1099 33.3472 11.6518 34.09H7.06135V25.0126C7.06135 24.83 7.11615 24.5986 7.02482 24.483C6.83001 24.2394 6.56822 23.9046 6.31252 23.8742C6.05682 23.8437 5.74024 24.1481 5.54542 24.3795C5.3506 24.6108 5.46627 24.83 5.46627 25.0613C5.46627 28.5011 5.46627 31.9409 5.46627 35.3746V35.9834C5.05091 36.0669 4.6196 36.0114 4.23891 35.8254C3.85822 35.6395 3.54929 35.3334 3.3598 34.9545C3.29283 34.8145 3.21368 34.6744 3.14062 34.5405V24.0568Z" fill="white"/>
<path id="Vector_2" d="M58.4695 41.4568L57.9398 44.2026C57.9398 44.3365 57.8485 44.4643 57.7937 44.6409L44.3999 39.9653L56.8257 33.0918C57.3799 34.144 57.7894 35.2662 58.0433 36.4281C58.2199 37.2378 58.3355 38.0536 58.4816 38.8633L58.4695 41.4568Z" fill="white"/>
<path id="Vector_3" d="M38.4578 25.9199C38.5369 28.6474 38.6161 31.3261 38.6891 34.0049C38.7622 36.5619 38.8474 39.1189 38.9022 41.6759C38.893 41.9092 38.9669 42.1382 39.1107 42.3221C39.2546 42.5061 39.459 42.633 39.6876 42.6804C44.4079 44.3039 49.1262 45.9497 53.8424 47.6179C54.0616 47.6909 54.2747 47.7762 54.4938 47.8553C52.4787 53.4868 45.7026 59.0817 37.0454 57.6389C33.1936 56.9929 29.7113 54.9598 27.2553 51.9231C24.7993 48.8864 23.5394 45.056 23.7131 41.1543C23.8869 37.2526 25.4823 33.5493 28.1985 30.7429C30.9146 27.9365 34.5639 26.221 38.4578 25.9199Z" fill="white"/>
<path id="Vector_4" d="M7.06152 35.7285H19.4021C19.4021 35.8868 19.4386 36.0268 19.4386 36.1669C19.4386 42.6608 19.4386 49.1426 19.4386 55.6122C19.4708 55.9653 19.4131 56.3209 19.2708 56.6457C19.1285 56.9705 18.9063 57.254 18.6249 57.4698C18.3435 57.6855 18.0121 57.8265 17.6614 57.8796C17.3108 57.9328 16.9525 57.8962 16.6198 57.7735C16.1861 57.6706 15.8018 57.4198 15.5329 57.0643C15.264 56.7087 15.1274 56.2706 15.1465 55.8253C15.1465 54.5103 15.1465 53.1952 15.1465 51.8802C15.1465 48.0285 15.1465 44.1727 15.1465 40.3128C15.18 39.8401 15.0356 39.3719 14.7416 39.0002C14.4476 38.6284 14.0253 38.3801 13.5575 38.3038C13.2824 38.2489 12.9984 38.2566 12.7267 38.3264C12.455 38.3961 12.2024 38.5262 11.9878 38.7069C11.7732 38.8876 11.602 39.1143 11.487 39.3702C11.3719 39.626 11.3159 39.9045 11.3232 40.185C11.3232 42.2915 11.3232 44.398 11.3232 46.5044C11.3232 49.5485 11.3232 52.5925 11.3232 55.6366C11.3542 55.986 11.2967 56.3376 11.156 56.659C11.0152 56.9803 10.7958 57.261 10.5179 57.4752C10.2401 57.6894 9.91273 57.8301 9.56613 57.8843C9.21954 57.9386 8.86486 57.9046 8.53484 57.7857C8.1314 57.6881 7.77017 57.463 7.50477 57.1438C7.23937 56.8247 7.08393 56.4285 7.06152 56.014C7.06152 55.8009 7.06152 55.5879 7.06152 55.3687V35.7285Z" fill="white"/>
<path id="Vector_5" d="M42.3721 21.5605C48.101 21.8832 52.4722 24.3976 55.6745 29.1585L42.8043 36.2694C42.6643 31.3319 42.5243 26.4858 42.3721 21.5605Z" fill="white"/>
<path id="Vector_6" d="M19.4509 34.0724H14.3247C14.6742 33.5834 15.0502 33.1139 15.451 32.666C15.7845 32.3541 16.0236 31.9546 16.141 31.5132C16.2583 31.0718 16.2492 30.6063 16.1146 30.1699C15.7676 28.587 15.5606 26.9798 15.2744 25.3908C15.2263 25.2393 15.2357 25.0755 15.3009 24.9306C15.366 24.7857 15.4823 24.6699 15.6276 24.6054C16.5408 24.0514 16.5895 23.7713 15.9989 22.8886C15.7189 22.4685 15.4388 22.0484 15.1649 21.6283C15.1649 21.6283 15.1649 21.5614 15.1162 21.4822C15.6154 20.8734 16.1268 20.2646 16.6686 19.6558C16.8152 19.5339 17.0018 19.471 17.1922 19.4792C22.6674 19.4792 28.1467 19.4792 33.63 19.4792C34.6833 19.4792 35.2616 20.0211 35.2616 20.983C35.2813 21.1796 35.2593 21.3782 35.1972 21.5657C35.135 21.7533 35.0339 21.9256 34.9007 22.0715C34.7674 22.2174 34.6049 22.3336 34.4237 22.4125C34.2426 22.4914 34.0468 22.5312 33.8492 22.5294C33.6544 22.5294 33.4535 22.5294 33.2404 22.5294C29.6728 22.5294 26.1112 22.5294 22.5436 22.5294C21.9868 22.5431 21.4325 22.6083 20.8877 22.7242C20.5363 22.7764 20.2135 22.9475 19.9731 23.209C19.7326 23.4705 19.5892 23.8065 19.5665 24.161C19.4916 24.7139 19.453 25.2711 19.4509 25.8291C19.4509 28.3678 19.4509 30.9066 19.4509 33.4453V34.0724Z" fill="white"/>
<path id="Vector_7" d="M8.17578 11.4123C10.4405 10.7122 10.9154 10.3347 11.7678 8.59961C13.6916 9.05622 15.6337 9.50673 17.661 9.05622C17.8619 10.9618 17.8376 12.7456 16.4434 14.2981C14.2152 16.8185 9.89262 15.8627 8.74197 13.117C8.54107 12.5751 8.38278 12.0089 8.17578 11.4123Z" fill="white"/>
<path id="Vector_8" d="M17.6911 4.72852C18.0393 5.48348 18.0764 6.34508 17.7946 7.12722C17.7398 7.30986 17.3867 7.47424 17.1493 7.52904C15.921 7.72846 14.6646 7.67041 13.4599 7.35857C12.8511 7.22463 12.2423 7.04199 11.6335 6.85935C10.8725 6.62191 10.5194 6.80455 10.3428 7.57774C10.2753 8.13752 10.0157 8.65654 9.60826 9.04625C9.20079 9.43595 8.67071 9.67219 8.10849 9.71466C8.09706 8.97788 8.25594 8.24841 8.57275 7.58312C8.88955 6.91783 9.35572 6.3347 9.93491 5.87916C10.4811 5.41855 11.1316 5.09844 11.8298 4.94671C12.528 4.79497 13.2528 4.81621 13.9409 5.00857C15.192 5.27534 16.4935 5.17815 17.6911 4.72852Z" fill="white"/>
<path id="Vector_9" d="M12.985 33.2004C12.4858 32.5185 12.011 31.9097 11.5665 31.24C11.5169 31.094 11.5169 30.9356 11.5665 30.7895C11.8527 29.0483 12.1753 27.3193 12.431 25.5781C12.6563 24.0987 12.845 24.3118 11.6822 23.4168C12.1327 22.9724 12.1753 22.1992 13.1373 22.1992C14.0992 22.1992 14.0078 23.0333 14.5436 23.4168L13.9835 23.7943C13.8285 23.8873 13.7068 24.0268 13.6358 24.1929C13.5647 24.3591 13.5479 24.5434 13.5878 24.7197C13.9165 26.6679 14.2331 28.6222 14.5801 30.5642C14.6214 30.7366 14.6202 30.9163 14.5767 31.0881C14.5332 31.2599 14.4488 31.4186 14.3305 31.5505C13.8556 32.0619 13.4538 32.6098 12.985 33.2004Z" fill="white"/>
<path id="Vector_10" d="M10.7993 16.9766C12.3031 17.3784 13.7825 17.5854 15.2923 16.9766C15.3897 17.4149 15.4932 17.7924 15.5419 18.1942C15.5518 18.3659 15.4975 18.5351 15.3897 18.6691C15.0373 19.0535 14.7099 19.4602 14.4096 19.8867C13.9408 20.7025 13.2285 20.7694 12.4309 20.672C12.2633 20.6414 12.1098 20.5582 11.9926 20.4346C11.7064 20.1363 11.4507 19.8258 11.1829 19.4909C10.2757 18.4073 10.2757 18.4073 10.7993 16.9766Z" fill="white"/>
</g>
</svg>
