<svg width="65" height="65" viewBox="0 0 65 65" fill="none" xmlns="http://www.w3.org/2000/svg">
<g id="Artboard 1 12">
<path id="Vector" d="M54.4763 22.2226C54.3789 27.4417 53.3578 32.6023 51.4603 37.4651C48.7406 43.9962 44.0683 49.5267 38.0833 53.2991C36.6663 54.2221 35.1713 55.0086 33.7088 55.8536C33.344 56.0705 32.9275 56.185 32.5031 56.185C32.0787 56.185 31.6621 56.0705 31.2973 55.8536C27.0557 53.7281 23.2139 50.8847 19.9418 47.4491C15.8583 43.0297 13.0307 37.5988 11.7518 31.7191C10.895 27.8599 10.4957 23.9132 10.5623 19.9606C10.55 19.6833 10.5941 19.4064 10.6918 19.1466C10.7895 18.8868 10.9388 18.6495 11.1308 18.449C11.3228 18.2486 11.5534 18.0891 11.8087 17.9802C12.064 17.8713 12.3388 17.8154 12.6163 17.8156C19.4023 17.7246 25.2003 14.9491 30.6733 11.2571C30.7773 11.1921 30.8683 11.1206 30.9658 11.0556C32.1748 10.2171 32.8638 10.2041 34.0793 11.0556C36.5788 12.8337 39.2639 14.3353 42.0873 15.5341C45.2715 16.9569 48.7081 17.7282 52.1948 17.8026C52.5058 17.7802 52.818 17.8261 53.1094 17.937C53.4008 18.048 53.6644 18.2213 53.8817 18.4448C54.0991 18.6684 54.2649 18.9368 54.3677 19.2312C54.4704 19.5256 54.5075 19.8389 54.4763 20.1491C54.4698 20.8446 54.4763 21.5336 54.4763 22.2226ZM32.4998 42.8991C33.9558 42.8991 35.4118 42.8991 36.8678 42.8991C37.7711 42.8842 38.6335 42.5196 39.2735 41.8819C39.9136 41.2443 40.2814 40.3834 40.2998 39.4801C40.2998 36.8801 40.2998 34.2801 40.2998 31.6801C40.3118 31.1337 40.1815 30.5935 39.9216 30.1126C39.6618 29.6317 39.2814 29.2266 38.8178 28.9371C38.6026 28.8219 38.4261 28.6457 38.3105 28.4306C38.1949 28.2156 38.1453 27.9712 38.1678 27.7281C38.1792 26.8722 37.9924 26.0253 37.6221 25.2535C37.2519 24.4818 36.7082 23.8061 36.0335 23.2793C35.3588 22.7525 34.5714 22.3889 33.7329 22.2169C32.8944 22.0448 32.0274 22.0691 31.1998 22.2876C28.4893 22.8856 26.8578 24.9981 26.8513 27.9556C26.8665 28.133 26.829 28.3109 26.7434 28.4671C26.6578 28.6232 26.528 28.7505 26.3703 28.8331C25.8469 29.1397 25.4155 29.5815 25.1216 30.1121C24.8277 30.6428 24.682 31.2428 24.6998 31.8491C24.6998 34.3235 24.6998 36.8021 24.6998 39.2851C24.6881 39.7651 24.7744 40.2425 24.9535 40.688C25.1326 41.1335 25.4008 41.5378 25.7415 41.8761C26.0822 42.2144 26.4884 42.4796 26.9352 42.6555C27.3819 42.8314 27.8599 42.9143 28.3398 42.8991C29.7178 42.8991 31.0958 42.8991 32.4998 42.8991Z" fill="white"/>
<path id="Vector_2" d="M14.2352 56.5101C13.5522 57.06 12.7306 57.4107 11.8609 57.5236C10.9913 57.6366 10.1074 57.5073 9.30649 57.15C8.50562 56.7928 7.81887 56.2215 7.32189 55.499C6.82492 54.7764 6.53698 53.9308 6.48981 53.0551C6.44264 52.1794 6.63805 51.3077 7.05453 50.536C7.47101 49.7643 8.0924 49.1225 8.85026 48.6813C9.60812 48.2401 10.473 48.0166 11.3498 48.0354C12.2265 48.0542 13.081 48.3147 13.8192 48.7881C15.9902 50.1791 16.5232 52.6036 15.2492 55.4506C15.4312 55.5871 15.6262 55.7496 15.8277 55.8926C21.6452 60.0006 28.1257 61.8661 35.1977 61.0926C46.2477 59.8641 54.1777 54.0531 58.8252 43.9585C61.4252 38.3035 61.8477 32.3366 60.5542 26.2526C60.5542 26.1421 60.5022 26.0251 60.4827 25.9081C60.4502 25.8138 60.4385 25.7135 60.4485 25.6143C60.4585 25.515 60.4899 25.4191 60.5406 25.3332C60.5913 25.2473 60.66 25.1734 60.7421 25.1167C60.8241 25.0599 60.9175 25.0217 61.0157 25.0046C61.1129 24.974 61.2159 24.9667 61.3163 24.9832C61.4168 24.9998 61.512 25.0397 61.5942 25.0998C61.6765 25.1599 61.7434 25.2385 61.7897 25.3292C61.836 25.4199 61.8603 25.5202 61.8607 25.622C62.0427 26.4865 62.2442 27.351 62.3482 28.222C63.5767 38.3231 60.6972 47.0721 53.4042 54.2221C47.2617 60.2086 39.7542 62.9646 31.1807 62.6721C25.3056 62.4698 19.6283 60.4989 14.8917 57.0171L14.3652 56.5491L14.2352 56.5101Z" fill="white"/>
<path id="Vector_3" d="M47.528 8.04043C45.869 6.99714 44.0987 6.14251 42.25 5.49243C37.5203 3.79112 32.4272 3.36011 27.4789 4.24242C22.5306 5.12474 17.9003 7.28952 14.0501 10.5207C10.2 13.7518 7.26466 17.9363 5.5372 22.6565C3.80974 27.3766 3.35055 32.4673 4.20546 37.4204C4.32246 38.1419 4.20546 38.4604 3.71146 38.5514C3.21746 38.6424 2.92496 38.3499 2.80796 37.6479C1.57946 29.9519 2.93796 22.7499 7.19546 16.1979C9.48682 12.5419 12.5575 9.43722 16.188 7.10567C19.8184 4.77411 23.9191 3.27328 28.197 2.71043C34.9886 1.65172 41.9361 3.01867 47.8205 6.57143C47.9657 6.69062 48.151 6.74964 48.3384 6.73634C48.5258 6.72304 48.701 6.63843 48.828 6.49993C49.6147 5.8775 50.6 5.56036 51.6021 5.60695C52.6042 5.65353 53.5558 6.06069 54.2815 6.75343C54.8289 7.26534 55.2304 7.91368 55.4446 8.63194C55.6588 9.3502 55.6781 10.1125 55.5005 10.8407C55.3229 11.5689 54.9548 12.2367 54.4339 12.7756C53.913 13.3146 53.2581 13.7053 52.5364 13.9076C51.8147 14.11 51.0522 14.1167 50.3271 13.9271C49.6019 13.7375 48.9403 13.3584 48.41 12.8287C47.8797 12.299 47.4999 11.6378 47.3095 10.9128C47.119 10.1879 47.1249 9.42535 47.3265 8.70343C47.385 8.48243 47.45 8.28093 47.528 8.04043Z" fill="white"/>
<path id="Vector_4" d="M28.3011 28.2298C28.2553 27.6471 28.3306 27.0613 28.5222 26.5091C28.7138 25.9569 29.0175 25.4503 29.4143 25.0211C29.8111 24.5919 30.2924 24.2495 30.8279 24.0153C31.3634 23.7811 31.9416 23.6602 32.5261 23.6602C33.1106 23.6602 33.6888 23.7811 34.2243 24.0153C34.7598 24.2495 35.2411 24.5919 35.6379 25.0211C36.0347 25.4503 36.3384 25.9569 36.53 26.5091C36.7215 27.0613 36.7968 27.6471 36.7511 28.2298H28.3011Z" fill="white"/>
<path id="Vector_5" d="M32.5002 39.1229C30.7192 39.1229 30.5502 38.9149 30.8817 37.1729C30.9792 36.6529 31.0962 36.1329 31.2002 35.6194C31.3746 35.0987 31.342 34.5308 31.1092 34.0334C30.9849 33.7407 30.9642 33.4143 31.0505 33.1082C31.1368 32.8022 31.3249 32.5347 31.5837 32.3499C31.8357 32.1586 32.1403 32.0492 32.4565 32.0364C32.7726 32.0236 33.085 32.1081 33.3517 32.2784C33.6296 32.4185 33.848 32.6536 33.9673 32.9411C34.0866 33.2285 34.0988 33.5492 34.0017 33.8449C33.5467 34.7224 33.8652 35.5219 34.0017 36.3474C34.0927 36.8349 34.2097 37.3094 34.2877 37.7904C34.4437 38.7069 34.0862 39.0904 33.1567 39.1294C32.9227 39.1294 32.7082 39.1229 32.5002 39.1229Z" fill="white"/>
</g>
</svg>
