<svg width="65" height="65" viewBox="0 0 65 65" fill="none" xmlns="http://www.w3.org/2000/svg">
<g id="Artboard 1 18">
<path id="Vector" d="M1.18311 41.1846V38.5846C1.23109 38.4003 1.27014 38.2137 1.30011 38.0256C1.43948 35.4806 2.02929 32.9805 3.04211 30.6416C4.30068 27.6131 6.16891 24.8759 8.53061 22.6003C10.8923 20.3247 13.697 18.5594 16.7701 17.4141C17.0587 17.2838 17.2898 17.0527 17.4201 16.7641C18.3981 14.1868 19.8118 11.7968 21.5996 9.69859C24.9623 5.67059 29.5745 2.88175 34.7036 1.77509C35.8736 1.51509 37.0696 1.37859 38.2526 1.18359H41.5546C42.0681 1.26159 42.5881 1.35259 43.1081 1.42409C48.2008 2.12462 52.9327 4.44584 56.6037 8.04433C60.2748 11.6428 62.69 16.3274 63.4921 21.4051C63.6026 22.0551 63.7066 22.7701 63.8171 23.4461V26.7481C63.7781 26.9886 63.7196 27.2291 63.6936 27.4696C63.471 29.9367 62.8497 32.3514 61.8541 34.6196C60.5809 37.5814 58.719 40.2536 56.3815 42.4738C54.0439 44.694 51.2795 46.416 48.2561 47.5351C48.0873 47.5935 47.9343 47.6902 47.8092 47.8177C47.684 47.9451 47.59 48.0998 47.5346 48.2696C43.9726 56.9796 37.5636 62.1081 28.2556 63.5836C27.6056 63.6811 27.0076 63.7396 26.3836 63.8176H23.7836C23.1336 63.7331 22.4836 63.6616 21.7946 63.5706C16.6073 62.8796 11.8013 60.4697 8.14461 56.7261C4.4043 53.0218 2.02847 48.1601 1.40411 42.9331C1.33261 42.3546 1.25461 41.7696 1.18311 41.1846ZM37.2841 23.4656L23.6341 37.1156C24.784 38.7501 26.204 40.1767 27.8331 41.3341L41.4831 27.6841L37.2841 23.4656ZM24.8886 44.2981L20.7091 40.1381L8.87261 52.0006C10.0497 53.5883 11.4561 54.9924 13.0456 56.1671L24.8886 44.2981ZM16.4711 30.3036C16.2696 30.4921 16.1201 30.6286 15.9771 30.7716C12.5906 34.1581 9.22361 37.5576 5.80461 40.9116C5.50105 41.1512 5.27156 41.4719 5.14272 41.8366C5.01389 42.2013 4.99096 42.595 5.07661 42.9721C5.41036 44.9073 6.00056 46.7894 6.83161 48.5686C6.94211 48.4776 7.02661 48.4256 7.09161 48.3606C10.9136 44.5386 14.7356 40.7231 18.5576 36.9141C18.8241 36.6541 18.7786 36.4656 18.6486 36.1731C18.0896 34.8731 17.5306 33.5731 17.0171 32.2276C16.7896 31.6296 16.6596 30.9861 16.4711 30.3036ZM34.8076 48.5751C34.4826 48.4711 34.3461 48.4386 34.2161 48.3866C32.4676 47.7366 30.7061 47.0866 28.9771 46.4366C28.8128 46.3318 28.6155 46.2918 28.4233 46.3242C28.2312 46.3566 28.0579 46.4592 27.9371 46.6121C24.2516 50.3041 20.5401 54.0026 16.8416 57.7076C16.7051 57.8441 16.5816 57.9936 16.4191 58.1691C18.3712 59.0968 20.4573 59.711 22.6006 59.9891C22.786 60.0275 22.9782 60.0158 23.1576 59.9552C23.3369 59.8947 23.4969 59.7875 23.6211 59.6446C27.0878 56.1779 30.5544 52.7113 34.0211 49.2446C34.2356 49.0236 34.4501 48.8546 34.8076 48.5751ZM21.5021 33.6771L33.6831 21.4896C31.7236 20.5621 29.6197 19.9773 27.4626 19.7606C27.2305 19.7336 26.997 19.799 26.8126 19.9426C24.5029 22.2176 22.2106 24.5078 19.9356 26.8131C19.7973 26.9729 19.7272 27.1807 19.7406 27.3916C19.9627 29.5723 20.5586 31.6986 21.5021 33.6771ZM31.2521 43.4661C33.1995 44.3866 35.2823 44.9879 37.4206 45.2471C37.5893 45.2854 37.7652 45.2765 37.9291 45.2215C38.0931 45.1664 38.2387 45.0674 38.3501 44.9351C40.2091 43.0501 42.0876 41.1846 43.9596 39.3126C45.4351 37.8371 45.4351 37.8371 44.9931 35.7896C44.6753 34.2161 44.1645 32.6879 43.4721 31.2396L31.2521 43.4661ZM5.25211 36.2511C5.33925 36.1901 5.42181 36.1227 5.49911 36.0496L15.6586 25.8966C15.7896 25.775 15.8803 25.6162 15.9186 25.4416C15.9966 24.2261 16.0421 23.0106 16.1006 21.7951C11.4141 23.2836 5.27161 31.4606 5.25861 36.2511H5.25211ZM43.3096 48.8871C42.0811 48.9521 40.9826 48.9911 39.8906 49.0886C39.5614 49.1122 39.2489 49.2423 39.0001 49.4591C35.6894 52.7394 32.3918 56.0328 29.1071 59.3391C28.9836 59.4561 28.8796 59.5926 28.7626 59.7226C35.3406 58.5006 40.1181 54.8281 43.3096 48.8871ZM19.9421 21.5871L21.4501 19.9686C20.1891 20.0986 20.1891 20.0986 19.9421 21.5546V21.5871ZM43.4916 45.0456C44.9931 44.7531 44.7916 45.1041 44.9996 43.5311L43.4916 45.0456Z" fill="white"/>
</g>
</svg>
