<svg width="70" height="70" viewBox="0 0 70 70" fill="none" xmlns="http://www.w3.org/2000/svg">
<g id="Artboard 1 14">
<path id="Vector" d="M13.2118 38.757C10.8542 37.8154 9.52066 35.4508 9.77499 32.6807C9.89357 31.484 10.3855 30.3549 11.1811 29.4532C11.9768 28.5515 13.0359 27.9228 14.2085 27.6561C14.8268 27.518 15.4707 27.5464 16.0745 27.7384C16.6783 27.9304 17.2203 28.2791 17.6453 28.749C17.771 28.945 17.9568 29.0951 18.1748 29.1769C18.3928 29.2587 18.6315 29.2677 18.8551 29.2027C19.0178 29.1427 19.1626 29.0425 19.276 28.9113C19.3893 28.7801 19.4676 28.6223 19.5033 28.4526C19.539 28.283 19.5311 28.107 19.4802 27.9412C19.4293 27.7755 19.3372 27.6253 19.2125 27.5049C18.6507 26.8661 17.9526 26.3616 17.1699 26.0285C16.3871 25.6954 15.5395 25.5422 14.6896 25.5803C14.5453 25.5803 14.401 25.5803 14.2222 25.6146C13.8332 24.6767 13.7941 23.6302 14.1123 22.6658C14.3365 21.9061 14.7428 21.2126 15.2958 20.6456C15.8489 20.0785 16.532 19.655 17.2858 19.4119C18.0397 19.1687 18.8415 19.1132 19.6217 19.2503C20.4018 19.3873 21.1368 19.7127 21.7626 20.1982C22.1544 20.5006 22.3813 21.0024 22.7593 21.3186C23.0414 21.6001 23.4139 21.773 23.811 21.8066C24.5946 21.7448 24.8764 21.0574 24.464 20.3013C23.7901 19.1771 22.7939 18.2814 21.6045 17.7306C21.4739 17.6618 21.3433 17.6137 21.2127 17.5587C21.4962 16.8527 21.9979 16.2558 22.6446 15.8551C23.2914 15.4544 24.0493 15.271 24.8077 15.3317C25.6218 15.3585 26.406 15.6452 27.0454 16.1498C27.6849 16.6544 28.146 17.3505 28.3613 18.1361C28.4553 18.5417 28.5014 18.957 28.4988 19.3734C28.4988 28.7215 28.4988 38.0651 28.4988 47.4041C28.5281 47.9703 28.4325 48.536 28.2187 49.061C28.0049 49.5861 27.6781 50.0577 27.2615 50.4422C27.0475 50.6253 26.7797 50.7339 26.4986 50.7516C25.2613 50.7859 24.0309 50.7516 22.7937 50.7516C22.5279 50.7452 22.2716 50.6509 22.0651 50.4835C21.3358 49.836 20.8912 48.9271 20.8278 47.954C20.7673 47.5142 20.8503 47.0665 21.0645 46.6777C21.2788 46.2888 21.6128 45.9795 22.017 45.7957C22.7043 45.452 22.8762 44.9571 22.6356 44.4209C22.576 44.2854 22.4875 44.1644 22.3764 44.0666C22.2652 43.9687 22.134 43.8963 21.992 43.8544C21.85 43.8125 21.7005 43.8021 21.554 43.824C21.4075 43.8459 21.2676 43.8995 21.144 43.981C20.5804 44.2233 20.0853 44.6011 19.7028 45.0807C19.3203 45.5604 19.0622 46.1271 18.9513 46.7305C18.8826 47.0123 18.8482 47.301 18.8001 47.5828C16.6761 47.8646 14.4078 46.0156 14.0435 43.7267C13.8182 42.5729 14.0231 41.3764 14.6196 40.3633C15.216 39.3502 16.1628 38.5906 17.281 38.2278L17.6384 38.1109C18.4289 37.8635 18.7382 37.4236 18.5733 36.8118C18.4083 36.2001 17.8515 35.987 17.0817 36.1657C15.5744 36.6498 14.2335 37.5477 13.2118 38.757Z" fill="white"/>
<path id="Vector_2" d="M38.4171 50.7498H32.8838V15.9623C32.8838 14.6494 33.4131 14.182 34.7122 14.3401C38.1338 14.7313 41.3263 16.2558 43.7813 18.671C46.2364 21.0862 47.813 24.2533 48.2601 27.6681C48.6954 30.1692 48.478 32.7403 47.6291 35.1329C46.7802 37.5254 45.3285 39.6585 43.4142 41.326C40.7205 43.6429 38.9675 46.8653 38.4858 50.3855C38.4721 50.4886 38.4514 50.5917 38.4171 50.7498ZM45.6619 29.5515C45.4646 26.159 43.9912 22.9668 41.5377 20.6157C40.289 19.3992 38.78 18.4825 37.1248 17.935C36.8815 17.8457 36.613 17.8546 36.3762 17.96C36.1394 18.0653 35.9529 18.2587 35.8564 18.4993C35.7598 18.7398 35.7607 19.0085 35.8589 19.2483C35.9572 19.4882 36.1449 19.6803 36.3825 19.784C36.5132 19.8512 36.6488 19.9086 36.788 19.9559C39.332 20.9501 41.3917 22.8915 42.5344 25.3723C43.179 26.7701 43.541 28.2814 43.5998 29.8195C43.6224 29.9963 43.6833 30.166 43.7782 30.3168C43.8732 30.4676 44 30.5958 44.1497 30.6925C44.3183 30.7553 44.4992 30.778 44.6782 30.7589C44.8571 30.7398 45.0291 30.6794 45.1807 30.5825C45.4351 30.3763 45.5176 29.9089 45.6619 29.5515Z" fill="white"/>
<path id="Vector_3" d="M30.4503 58.5672C33.9627 58.5672 37.482 58.5672 41.0013 58.5672C41.1952 58.5487 41.3898 58.5946 41.555 58.6977C41.7203 58.8008 41.847 58.9555 41.9155 59.1378C42.1066 59.5346 42.1937 59.9735 42.1686 60.4132C42.1435 60.853 42.007 61.2791 41.7719 61.6516C41.5369 62.0241 41.211 62.3307 40.8249 62.5427C40.4388 62.7546 40.0052 62.8649 39.5647 62.8633C34.6707 62.8633 29.7698 62.8633 24.8689 62.8633C23.6179 62.8633 22.36 62.8633 21.1021 62.8633C20.6838 62.8352 20.2785 62.7066 19.9205 62.4884C19.5626 62.2702 19.2626 61.9688 19.046 61.6099C18.8294 61.2509 18.7026 60.845 18.6765 60.4266C18.6503 60.0082 18.7255 59.5896 18.8957 59.2065C18.9671 59.0029 19.1048 58.8291 19.2868 58.7132C19.4688 58.5972 19.6845 58.5458 19.8992 58.5672C23.4117 58.581 26.931 58.5672 30.4503 58.5672Z" fill="white"/>
<path id="Vector_4" d="M30.3819 56.8207C26.8833 56.8207 23.3914 56.8207 19.8928 56.8207C19.677 56.8429 19.4601 56.791 19.2777 56.6736C19.0953 56.5562 18.9583 56.3802 18.8892 56.1745C18.712 55.775 18.638 55.3373 18.6738 54.9017C18.7097 54.4661 18.8543 54.0464 19.0943 53.6812C19.3344 53.316 19.6623 53.0168 20.048 52.8111C20.4337 52.6055 20.8648 52.4999 21.3018 52.504C26.6839 52.504 32.066 52.504 37.448 52.504C38.2248 52.504 39.0015 52.504 39.7782 52.504C40.2031 52.5306 40.6149 52.662 40.9766 52.8865C41.3384 53.111 41.6389 53.4217 41.8513 53.7907C42.0637 54.1597 42.1814 54.5755 42.1939 55.0011C42.2064 55.4267 42.1132 55.8487 41.9228 56.2295C41.8537 56.4125 41.7257 56.5672 41.5589 56.6693C41.3921 56.7714 41.1961 56.8149 41.0017 56.7932C37.4618 56.8069 33.9219 56.8207 30.3819 56.8207Z" fill="white"/>
<path id="Vector_5" d="M23.4258 64.6367H37.4136C37.344 65.3608 37.0134 66.0348 36.4835 66.5331C35.9536 67.0314 35.2606 67.3199 34.5336 67.3449C31.8162 67.3999 29.0988 67.3999 26.3814 67.3449C25.6492 67.3125 24.9517 67.0234 24.4112 66.5282C23.8708 66.033 23.5219 65.3634 23.4258 64.6367Z" fill="white"/>
<path id="Vector_6" d="M46.3494 42.4062C46.6489 42.5445 46.9324 42.715 47.1948 42.9149C48.7208 44.4134 50.2307 45.921 51.7246 47.4378C51.8407 47.5218 51.9374 47.6298 52.0083 47.7544C52.0792 47.879 52.1225 48.0173 52.1355 48.1601C52.1484 48.3028 52.1306 48.4467 52.0833 48.582C52.0359 48.7173 51.9602 48.8409 51.8611 48.9444C51.762 49.048 51.6418 49.1291 51.5087 49.1824C51.3757 49.2356 51.2327 49.2597 51.0895 49.2531C50.9463 49.2464 50.8062 49.2092 50.6786 49.1439C50.5511 49.0785 50.4389 48.9866 50.3498 48.8744C48.8033 47.3415 47.2567 45.8156 45.7514 44.2346C45.6389 44.0854 45.5618 43.9126 45.5261 43.7292C45.4904 43.5458 45.4969 43.3566 45.5452 43.1761C45.662 42.8805 46.0469 42.6674 46.3494 42.4062Z" fill="white"/>
<path id="Vector_7" d="M52.2261 11.7431C52.0827 12.0412 51.91 12.3245 51.7106 12.5885C50.2259 14.0962 48.732 15.5923 47.229 17.077C47.1424 17.1895 47.0328 17.2823 46.9077 17.3492C46.7825 17.4162 46.6446 17.4559 46.503 17.4657C46.3613 17.4754 46.2193 17.455 46.0861 17.4058C45.953 17.3566 45.8318 17.2797 45.7305 17.1801C45.6252 17.0769 45.5436 16.952 45.4913 16.8141C45.439 16.6762 45.4174 16.5285 45.4279 16.3814C45.4383 16.2343 45.4806 16.0912 45.5519 15.9621C45.6232 15.8329 45.7216 15.7209 45.8405 15.6336L50.2809 11.1932C50.6177 10.8564 51.0164 10.6158 51.4494 10.8976C51.7424 11.1461 52.0033 11.4301 52.2261 11.7431Z" fill="white"/>
<path id="Vector_8" d="M31.9148 7.54993C31.9148 6.50514 31.9148 5.48784 31.9148 4.40868C31.9148 3.72131 32.2929 3.27453 32.884 3.25391C33.0259 3.25799 33.1654 3.29113 33.294 3.35128C33.4225 3.41142 33.5374 3.4973 33.6315 3.6036C33.7255 3.70989 33.7968 3.83435 33.8408 3.96928C33.8849 4.10421 33.9008 4.24674 33.8875 4.38806C33.8875 6.45015 33.8875 8.57411 33.8875 10.6637C33.8875 11.3923 33.4614 11.8322 32.8496 11.8185C32.2379 11.8047 31.9148 11.3992 31.9148 10.6912C31.8736 9.6464 31.9148 8.59473 31.9148 7.54993Z" fill="white"/>
<path id="Vector_9" d="M55.3196 31.0032H52.2402C51.4635 31.0032 51.0098 30.5977 51.0305 29.9653C51.0511 29.3329 51.4635 28.9961 52.2402 28.9961H58.4265C59.2376 28.9961 59.6363 29.3535 59.6225 30.0271C59.6088 30.7008 59.2101 30.9963 58.4265 31.0032H55.3196Z" fill="white"/>
</g>
</svg>
