<svg width="61" height="61" viewBox="0 0 61 61" fill="none" xmlns="http://www.w3.org/2000/svg">
<g id="Artboard 1 copy 2 8">
<path id="Vector" d="M40.321 45.567C40.5135 43.1359 41.2161 40.7727 42.3828 38.6313C42.8281 37.8139 43.2978 37.0026 43.7553 36.1913C46.6467 31.11 45.7805 23.9364 41.48 19.4163C37.3625 15.1097 32.2995 13.5847 26.5655 15.1768C20.8315 16.7689 17.1715 20.74 15.8966 26.6387C15.1185 29.9971 15.667 33.5263 17.4277 36.4902C18.5318 38.3812 19.6359 40.2722 20.1544 42.4255C20.3801 43.3893 20.5448 44.3653 20.6973 45.4267C20.008 44.7313 19.4102 45.201 18.8124 45.4267C18.0072 45.7744 17.2203 46.1587 16.409 46.4759C16.2983 46.5085 16.1815 46.5144 16.068 46.4932C15.9546 46.472 15.8478 46.4242 15.7563 46.3539C14.4143 45.0546 13.1028 43.7187 11.773 42.4072C11.6745 42.3289 11.6091 42.2164 11.5899 42.092C11.5707 41.9676 11.599 41.8406 11.6693 41.7362C12.1207 40.7419 12.5477 39.7354 13.0113 38.7472C13.0897 38.6137 13.128 38.4604 13.1215 38.3057C13.115 38.1509 13.0641 38.0014 12.9747 37.8749C12.0474 36.3401 11.3506 34.6774 10.9068 32.94C10.8745 32.7675 10.7945 32.6075 10.6759 32.4781C10.5574 32.3487 10.4049 32.2551 10.2358 32.208C9.24762 31.8542 8.27162 31.4516 7.27732 31.0978C7.13773 31.0595 7.01629 30.9729 6.93472 30.8533C6.85314 30.7337 6.81674 30.589 6.83202 30.4451C6.83202 28.6151 6.83202 26.7851 6.83202 24.9551C6.82764 24.8166 6.87056 24.6807 6.95372 24.5698C7.03688 24.4589 7.15531 24.3797 7.28952 24.3451C8.32042 23.973 9.33912 23.5887 10.3395 23.1617C10.4568 23.1073 10.5618 23.0295 10.6478 22.933C10.7338 22.8364 10.7992 22.7233 10.8397 22.6005C11.3393 20.8001 12.0606 19.0687 12.9869 17.446C13.0368 17.3272 13.0624 17.1997 13.0624 17.0709C13.0624 16.942 13.0368 16.8145 12.9869 16.6957C12.566 15.6648 12.1024 14.6583 11.6388 13.6457C11.5713 13.5395 11.5457 13.4119 11.5671 13.2878C11.5886 13.1637 11.6554 13.0521 11.7547 12.9747C13.0845 11.6632 14.396 10.3273 15.738 9.028C15.8305 8.95972 15.9379 8.91419 16.0513 8.89512C16.1647 8.87604 16.281 8.88395 16.3907 8.9182C17.385 9.3208 18.3671 9.76 19.337 10.2175C19.4892 10.3037 19.6625 10.3454 19.8372 10.3378C20.012 10.3303 20.1811 10.2738 20.3252 10.1748C21.8877 9.25937 23.5659 8.55771 25.315 8.0886C25.4466 8.04458 25.5682 7.97505 25.6729 7.88399C25.7775 7.79293 25.8632 7.68212 25.925 7.5579C26.3581 6.5514 26.7424 5.5266 27.1145 4.5079C27.1412 4.36949 27.2184 4.24596 27.3312 4.16138C27.444 4.07681 27.5842 4.03725 27.7245 4.0504C29.5545 4.0504 31.3845 4.0504 33.2145 4.0504C33.3586 4.03034 33.505 4.06581 33.6239 4.14963C33.7428 4.23344 33.8255 4.35934 33.855 4.5018C34.2149 5.5144 34.6297 6.5026 34.9957 7.5091C35.0335 7.65606 35.1101 7.79018 35.2173 7.89748C35.3246 8.00477 35.4588 8.08131 35.6057 8.1191C37.3969 8.58376 39.1165 9.28969 40.7175 10.2175C40.8345 10.2747 40.9619 10.3074 41.092 10.3137C41.222 10.32 41.352 10.2997 41.4739 10.2541C42.4865 9.8454 43.4808 9.4001 44.469 8.9365C44.59 8.85281 44.7385 8.8188 44.8838 8.84151C45.0291 8.86422 45.1602 8.9419 45.2498 9.0585C46.543 10.3761 47.8525 11.6835 49.1782 12.9808C49.2787 13.0574 49.3465 13.1691 49.368 13.2935C49.3895 13.418 49.3631 13.546 49.2941 13.6518C48.8183 14.6827 48.3486 15.7136 47.9155 16.7567C47.8375 16.9851 47.8528 17.235 47.9582 17.4521C48.9057 19.0597 49.6495 20.7788 50.1725 22.57C50.2141 22.6915 50.2799 22.8033 50.3659 22.8987C50.4518 22.9941 50.5562 23.0711 50.6727 23.1251C51.6792 23.5521 52.6979 23.9364 53.7227 24.3451C53.8616 24.3717 53.9858 24.4487 54.0714 24.5613C54.1569 24.6739 54.1979 24.8141 54.1863 24.9551C54.1863 26.7851 54.1863 28.6151 54.1863 30.4451C54.2035 30.5892 54.1686 30.7347 54.0881 30.8554C54.0076 30.9762 53.8867 31.0643 53.7471 31.1039C52.7345 31.4638 51.728 31.8359 50.7459 32.2629C50.4702 32.378 50.251 32.5972 50.1359 32.8729C49.6369 34.6542 48.9241 36.3686 48.0131 37.9786C47.9036 38.2122 47.8905 38.4796 47.9765 38.7228C48.3974 39.7476 48.861 40.7663 49.3307 41.7728C49.4026 41.8873 49.4281 42.0248 49.4021 42.1575C49.376 42.2901 49.3003 42.4078 49.1904 42.4865C47.9013 43.7634 46.6162 45.0546 45.3352 46.36C45.244 46.4736 45.1151 46.5509 44.9719 46.5777C44.8287 46.6046 44.6806 46.5793 44.5544 46.5064C43.7919 46.1343 43.005 45.7988 42.2181 45.4572C41.6142 45.201 41.0225 44.7069 40.321 45.567Z" fill="white"/>
<path id="Vector_2" d="M22.8445 46.9146C22.5944 45.3469 22.4053 43.828 22.1003 42.3335C21.5983 40.1595 20.7099 38.0934 19.4773 36.2335C18.1067 34.0934 17.4175 31.5878 17.5009 29.0477C17.6259 25.82 18.9471 22.7541 21.2075 20.4466C23.4678 18.139 26.5057 16.7547 29.7301 16.563C32.9546 16.3713 36.1351 17.3858 38.653 19.4092C41.1709 21.4327 42.846 24.3203 43.3527 27.5105C43.8689 30.3002 43.3506 33.1824 41.8948 35.6174C40.7297 37.5816 39.5524 39.558 39.0522 41.8211C38.6862 43.4803 38.4422 45.1761 38.1494 46.9146H22.8445ZM30.5 21.4044C28.8954 21.4044 27.3268 21.8802 25.9927 22.7717C24.6585 23.6632 23.6186 24.9303 23.0046 26.4127C22.3905 27.8952 22.2298 29.5264 22.5429 31.1002C22.8559 32.674 23.6286 34.1196 24.7632 35.2542C25.8979 36.3888 27.3435 37.1615 28.9172 37.4745C30.491 37.7876 32.1223 37.6269 33.6047 37.0129C35.0872 36.3988 36.3542 35.3589 37.2457 34.0248C38.1372 32.6906 38.613 31.122 38.613 29.5174C38.6154 28.4513 38.4072 27.3953 38.0004 26.4099C37.5935 25.4245 36.996 24.5291 36.2421 23.7753C35.4883 23.0214 34.593 22.4239 33.6076 22.0171C32.6222 21.6102 31.5661 21.402 30.5 21.4044Z" fill="white"/>
<path id="Vector_3" d="M38.2348 48.9033C38.2651 49.197 38.2315 49.4938 38.1362 49.7732C38.0409 50.0526 37.8862 50.3081 37.6827 50.522C37.4793 50.7359 37.2318 50.9032 36.9575 51.0124C36.6832 51.1215 36.3885 51.1699 36.0937 51.1542C33.1901 51.1542 30.2865 51.1542 27.389 51.1542C26.535 51.1542 25.681 51.1542 24.827 51.1542C24.5403 51.1547 24.2567 51.0951 23.9943 50.9795C23.732 50.8638 23.4968 50.6945 23.3038 50.4826C23.1108 50.2706 22.9642 50.0206 22.8736 49.7486C22.7829 49.4766 22.7501 49.1887 22.7774 48.9033H38.2348Z" fill="white"/>
<path id="Vector_4" d="M36.0939 53.1064C36.1616 53.6062 36.0376 54.113 35.7467 54.525C35.4559 54.937 35.0198 55.2235 34.5262 55.3268C34.312 55.3756 34.0931 55.4002 33.8735 55.4C31.6287 55.4 29.3839 55.4 27.1635 55.4C25.7239 55.4 24.8089 54.4301 24.9553 53.1064H36.0939Z" fill="white"/>
<path id="Vector_5" d="M27.0963 57.3398H33.9161C33.9529 57.6154 33.9316 57.8956 33.8537 58.1624C33.7758 58.4293 33.643 58.6769 33.4638 58.8894C33.2846 59.1019 33.063 59.2746 32.8131 59.3964C32.5633 59.5183 32.2907 59.5865 32.0129 59.5968C31.0186 59.6395 30.0182 59.6395 29.03 59.5968C28.7502 59.5888 28.4752 59.5224 28.2227 59.4018C27.9701 59.2812 27.7455 59.1091 27.5634 58.8965C27.3813 58.6839 27.2457 58.4357 27.1652 58.1676C27.0848 57.8995 27.0613 57.6175 27.0963 57.3398Z" fill="white"/>
<path id="Vector_6" d="M21.118 6.48461C20.9777 6.35651 20.6117 6.16741 20.508 5.87461C20.02 4.83761 19.593 3.76401 19.1721 2.69651C19.1212 2.58475 19.0935 2.46384 19.0906 2.34107C19.0877 2.2183 19.1097 2.09622 19.1553 1.98221C19.2009 1.86819 19.2692 1.76459 19.3559 1.67768C19.4427 1.59076 19.5462 1.52233 19.6601 1.47651C19.7721 1.42486 19.8935 1.39672 20.0168 1.39381C20.1401 1.39089 20.2627 1.41328 20.377 1.45958C20.4913 1.50587 20.5949 1.57511 20.6815 1.663C20.768 1.75089 20.8356 1.85558 20.8801 1.97061C21.3498 3.05031 21.7951 4.09951 22.2099 5.19141C22.4661 5.85021 21.9964 6.49071 21.118 6.48461Z" fill="white"/>
<path id="Vector_7" d="M39.8999 6.48422C39.0642 6.48422 38.5579 5.87422 38.7897 5.26422C39.2167 4.11132 39.6925 2.97672 40.2049 1.86042C40.2504 1.75278 40.3179 1.6558 40.403 1.57567C40.4881 1.49553 40.5889 1.434 40.6991 1.39498C40.8093 1.35596 40.9264 1.34031 41.0429 1.34903C41.1595 1.35774 41.2729 1.39064 41.3761 1.44562C41.4894 1.48554 41.5934 1.54797 41.682 1.62916C41.7705 1.71034 41.8417 1.80859 41.8913 1.91801C41.9409 2.02742 41.9678 2.14573 41.9705 2.26583C41.9731 2.38592 41.9515 2.50531 41.9068 2.61682C41.4737 3.72702 41.0284 4.83112 40.5282 5.91082C40.4001 6.19142 40.0402 6.36222 39.8999 6.48422Z" fill="white"/>
<path id="Vector_8" d="M56.8154 17.4033C56.6873 17.5436 56.5043 17.9096 56.2054 18.0133C55.1623 18.5013 54.0948 18.9283 53.0273 19.3431C52.9109 19.3948 52.7852 19.4224 52.6578 19.4243C52.5304 19.4262 52.4039 19.4023 52.286 19.3541C52.168 19.3059 52.061 19.2343 51.9714 19.1437C51.8819 19.0531 51.8115 18.9454 51.7646 18.8269C51.7177 18.7084 51.6953 18.5817 51.6986 18.4543C51.7019 18.327 51.7309 18.2016 51.7839 18.0857C51.8369 17.9698 51.9127 17.8659 52.0069 17.78C52.1011 17.6942 52.2116 17.6283 52.3319 17.5863C53.3689 17.1349 54.412 16.6957 55.4612 16.287C56.1749 16.0491 56.8154 16.47 56.8154 17.4033Z" fill="white"/>
<path id="Vector_9" d="M8.3752 19.4713C8.21985 19.4449 8.06687 19.4062 7.9177 19.3554C6.8929 18.9345 5.862 18.5136 4.8677 18.0744C4.75021 18.0294 4.6429 17.9613 4.55205 17.8742C4.4612 17.7872 4.38865 17.6829 4.33864 17.5674C4.28862 17.4519 4.26216 17.3277 4.2608 17.2018C4.25944 17.076 4.2832 16.9512 4.3307 16.8347C4.3782 16.7181 4.44848 16.6123 4.53742 16.5233C4.62636 16.4343 4.73217 16.3639 4.84866 16.3163C4.96514 16.2687 5.08995 16.2449 5.21577 16.2461C5.34159 16.2474 5.4659 16.2738 5.5814 16.3237C6.6306 16.7304 7.6737 17.1614 8.7107 17.6169C8.82253 17.6477 8.92673 17.7014 9.01667 17.7746C9.1066 17.8479 9.18031 17.939 9.2331 18.0423C9.28589 18.1456 9.3166 18.2587 9.32328 18.3745C9.32996 18.4903 9.31246 18.6062 9.2719 18.7149C9.1438 19.0504 8.7839 19.2944 8.5338 19.575L8.3752 19.4713Z" fill="white"/>
<path id="Vector_10" d="M55.8088 39.1316C55.6374 39.0901 55.4683 39.0392 55.3025 38.9791L52.5026 37.8201C51.8133 37.5273 51.5571 37.0332 51.7889 36.4781C52.0207 35.923 52.5392 35.7888 53.198 36.0511C54.2106 36.4659 55.2171 36.8807 56.248 37.3077C56.4642 37.3902 56.6401 37.5531 56.739 37.7622C56.8379 37.9714 56.8521 38.2107 56.7787 38.4301C56.7294 38.6447 56.6039 38.8341 56.4255 38.9631C56.2471 39.0921 56.028 39.152 55.8088 39.1316Z" fill="white"/>
<path id="Vector_11" d="M5.05093 39.29C4.74536 39.0479 4.48159 38.7574 4.27013 38.4299C4.2236 38.3346 4.19696 38.2309 4.19183 38.125C4.1867 38.0191 4.20319 37.9133 4.24029 37.814C4.27739 37.7147 4.33432 37.6239 4.40762 37.5473C4.48092 37.4708 4.56905 37.4099 4.66663 37.3685C5.82156 36.8561 6.99073 36.3823 8.17413 35.9472C8.36633 35.8794 8.57708 35.8871 8.76387 35.9686C8.95066 36.0501 9.09959 36.1994 9.18063 36.3864C9.40023 36.789 9.40633 37.3075 9.00983 37.5088C7.75933 38.1371 6.46003 38.6678 5.05093 39.29Z" fill="white"/>
<path id="Vector_12" d="M31.5065 34.4287C31.3906 35.2217 31.0429 35.6487 30.4756 35.5999C29.9083 35.5511 29.6155 35.1851 29.5179 34.3799C29.2922 34.2884 29.0482 34.203 28.8164 34.0993C28.3698 33.9168 27.9719 33.6326 27.6542 33.2694C27.3366 32.9062 27.1079 32.474 26.9864 32.007C26.9385 31.7812 26.9748 31.5456 27.0886 31.3447C27.2024 31.1439 27.3857 30.9915 27.604 30.9165C27.8224 30.8415 28.0606 30.8489 28.2738 30.9374C28.4871 31.026 28.6605 31.1894 28.7615 31.397C28.8656 31.6559 29.0245 31.889 29.2275 32.0805C29.4304 32.2719 29.6725 32.417 29.9369 32.5057C30.2014 32.5944 30.482 32.6247 30.7593 32.5944C31.0366 32.5642 31.304 32.474 31.5431 32.3303C31.7993 32.2083 32.1104 31.8972 32.1226 31.6654C32.1099 31.5054 32.061 31.3503 31.9796 31.2119C31.8983 31.0735 31.7866 30.9553 31.6529 30.8663C31.1874 30.6549 30.7007 30.4934 30.2011 30.3844C29.8229 30.2685 29.4264 30.1953 29.0604 30.0489C28.5217 29.8833 28.0516 29.5465 27.7214 29.0897C27.3911 28.6329 27.2188 28.081 27.2304 27.5174C27.2207 26.9555 27.3832 26.4041 27.6962 25.9374C28.0092 25.4706 28.4576 25.1109 28.9811 24.9066C29.3105 24.7541 29.5911 24.6748 29.5911 24.1929C29.5969 24.082 29.6256 23.9735 29.6753 23.8742C29.7251 23.7749 29.7948 23.687 29.8802 23.616C29.9655 23.5449 30.0647 23.4923 30.1713 23.4614C30.278 23.4306 30.3899 23.4221 30.5 23.4365C30.6157 23.4265 30.7321 23.4402 30.8423 23.4767C30.9524 23.5132 31.054 23.5718 31.1408 23.6488C31.2275 23.7259 31.2977 23.8198 31.347 23.9249C31.3962 24.03 31.4235 24.144 31.4272 24.26C31.4245 24.394 31.4687 24.5247 31.5523 24.6295C31.6359 24.7342 31.7535 24.8064 31.8847 24.8334C32.2901 24.9801 32.6613 25.2077 32.9759 25.5024C33.2905 25.7971 33.5419 26.1527 33.7147 26.5475C33.8345 26.77 33.8609 27.0309 33.7883 27.2728C33.7156 27.5148 33.5498 27.718 33.3274 27.8377C33.1049 27.9574 32.844 27.9839 32.6021 27.9112C32.3601 27.8386 32.157 27.6728 32.0372 27.4503C31.8573 27.0685 31.5405 26.7682 31.1496 26.6089C30.7587 26.4496 30.3222 26.4429 29.9266 26.5902C29.7099 26.6352 29.5145 26.7516 29.3718 26.9208C29.2292 27.0901 29.1474 27.3023 29.1397 27.5235C29.1397 28.0054 29.4874 28.2311 29.8778 28.3531C30.4878 28.53 31.1283 28.6154 31.7078 28.8289C32.233 29.0069 32.7239 29.273 33.1596 29.6158C33.4659 29.8788 33.7068 30.2094 33.8634 30.5815C34.02 30.9536 34.088 31.357 34.062 31.7599C34.036 32.1627 33.9166 32.554 33.7135 32.9029C33.5103 33.2517 33.2288 33.5485 32.8912 33.7699C32.4449 34.0202 31.9823 34.2403 31.5065 34.4287Z" fill="white"/>
</g>
</svg>
