<svg width="50" height="50" viewBox="0 0 50 50" fill="none" xmlns="http://www.w3.org/2000/svg">
<g id="Artboard 1 copy 10">
<g id="Group 38977">
<path id="Vector" d="M47.3451 25.7998V45.4248C47.3451 46.7398 46.7451 47.3398 45.4351 47.3398H25.8301V40.3398C26.4379 40.6692 27.1086 40.8662 27.798 40.9179C28.4874 40.9696 29.1799 40.8748 29.8301 40.6398C30.7769 40.2997 31.5888 39.6632 32.1451 38.8248C32.706 37.9968 32.9936 37.0139 32.9676 36.0141C32.9416 35.0142 32.6033 34.0476 32.0001 33.2498C30.5901 31.4248 28.5851 30.9898 25.8601 31.9448V25.7998H26.4251C28.6201 25.7998 30.8151 25.7998 33.0151 25.7998C34.0601 25.7998 34.7201 25.0898 34.5501 24.1498C34.4848 23.8952 34.3802 23.6523 34.2401 23.4298C33.9101 22.8975 33.7505 22.2772 33.7827 21.6517C33.8148 21.0262 34.0372 20.4255 34.4201 19.9298C34.7576 19.4264 35.2398 19.0371 35.8029 18.813C36.3661 18.589 36.984 18.5408 37.5751 18.6748C38.1936 18.7734 38.7664 19.0615 39.2142 19.4995C39.662 19.9374 39.9628 20.5036 40.0751 21.1198C40.1738 21.5223 40.1902 21.9407 40.1231 22.3497C40.0561 22.7587 39.9071 23.1499 39.6851 23.4998C38.9701 24.7248 39.5851 25.8148 41.0001 25.8248H47.3451V25.7998Z" fill="white"/>
<path id="Vector_2" d="M24.1652 24.2002H17.8452C17.5016 24.1583 17.1545 24.2421 16.8679 24.436C16.5812 24.6298 16.3743 24.9208 16.2852 25.2552C16.2366 25.4831 16.2374 25.7189 16.2874 25.9465C16.3374 26.1742 16.4355 26.3885 16.5752 26.5752C16.856 27.0554 17.0059 27.6008 17.0099 28.1571C17.014 28.7134 16.8721 29.261 16.5983 29.7453C16.3246 30.2295 15.9286 30.6335 15.4499 30.9169C14.9712 31.2002 14.4265 31.3531 13.8703 31.3601C13.314 31.3672 12.7657 31.2282 12.28 30.957C11.7942 30.6858 11.3881 30.292 11.1022 29.8148C10.8163 29.3376 10.6606 28.7938 10.6505 28.2376C10.6405 27.6814 10.7766 27.1323 11.0452 26.6452C11.1684 26.4403 11.2722 26.2244 11.3552 26.0002C11.4162 25.815 11.4371 25.6189 11.4163 25.4251C11.3955 25.2312 11.3336 25.044 11.2347 24.876C11.1358 24.7079 11.0021 24.563 10.8427 24.4507C10.6833 24.3385 10.5017 24.2616 10.3102 24.2252C10.0954 24.19 9.87775 24.1749 9.66016 24.1802H2.66016V4.54016C2.66016 3.26016 3.27016 2.66016 4.56016 2.66016H24.1652V8.84516C23.5456 8.50674 22.8601 8.30649 22.1558 8.25816C21.4515 8.20982 20.7451 8.31455 20.0852 8.56516C19.1433 8.91815 18.3414 9.56735 17.8002 10.4152C17.2563 11.2489 16.9857 12.2314 17.0261 13.2261C17.0664 14.2208 17.4156 15.1781 18.0252 15.9652C19.4352 17.7802 21.3902 18.2002 24.1652 17.2602V24.2002Z" fill="white"/>
<path id="Vector_3" d="M47.345 24.1702H41.21C42.28 21.4752 41.82 19.2052 39.265 17.6352C38.4283 17.1522 37.4623 16.9409 36.5004 17.0305C35.5385 17.1201 34.6281 17.506 33.895 18.1352C32.19 19.5552 31.825 21.4452 32.74 24.1352H25.8V23.6352C25.8 21.4202 25.8 19.2102 25.8 17.0002C25.8 15.9402 25.04 15.2652 24.1 15.4702C23.8353 15.5586 23.5819 15.6777 23.345 15.8252C22.827 16.1164 22.2362 16.2525 21.6431 16.217C21.0499 16.1816 20.4795 15.9761 20 15.6252C19.5048 15.3028 19.1158 14.8413 18.8819 14.2987C18.6479 13.7561 18.5794 13.1565 18.685 12.5752C18.7502 11.9828 18.9884 11.4227 19.3698 10.9647C19.7513 10.5068 20.2591 10.1713 20.83 10.0002C21.2901 9.84789 21.7789 9.80297 22.259 9.86883C22.7392 9.9347 23.1979 10.1096 23.6 10.3802C23.7769 10.5041 23.9803 10.585 24.194 10.6163C24.4078 10.6476 24.6259 10.6285 24.8309 10.5605C25.0359 10.4925 25.2222 10.3774 25.3748 10.2246C25.5275 10.0717 25.6422 9.88528 25.71 9.68016C25.776 9.42566 25.8046 9.1629 25.795 8.90016C25.795 7.03016 25.795 5.16016 25.795 3.29016V2.66016H45.5C46.745 2.66016 47.36 3.27516 47.36 4.53016V24.1702H47.345ZM43.035 9.83016L40.535 12.3052C40.075 12.7702 40.035 13.2052 40.38 13.5702C40.725 13.9352 41.21 13.8802 41.645 13.4502C42.635 12.5002 43.605 11.5002 44.57 10.5402C45.07 10.0402 45.07 9.65016 44.57 9.14016C43.795 8.35516 43.005 7.57516 42.225 6.79516C41.995 6.56516 41.77 6.32516 41.525 6.10516C41.452 6.02539 41.3635 5.96136 41.2649 5.91696C41.1663 5.87256 41.0597 5.84874 40.9516 5.84694C40.8435 5.84514 40.7362 5.86542 40.6362 5.90652C40.5362 5.94762 40.4457 6.00868 40.3701 6.08597C40.2945 6.16327 40.2354 6.25517 40.1966 6.35606C40.1577 6.45694 40.1398 6.5647 40.144 6.67273C40.1482 6.78076 40.1744 6.8868 40.221 6.98437C40.2676 7.08193 40.3336 7.16897 40.415 7.24016C40.53 7.36516 40.655 7.48516 40.78 7.60516L43.035 9.83016ZM30.915 9.83016C31.785 8.96016 32.615 8.14016 33.415 7.33016C33.845 6.90016 33.875 6.45016 33.53 6.10016C33.185 5.75016 32.73 5.77016 32.3 6.19516C31.3 7.19516 30.3 8.19516 29.3 9.19516C29.1886 9.27136 29.0975 9.37357 29.0345 9.49293C28.9716 9.6123 28.9387 9.74521 28.9387 9.88016C28.9387 10.0151 28.9716 10.148 29.0345 10.2674C29.0975 10.3867 29.1886 10.489 29.3 10.5652L31.58 12.8452C31.855 13.1202 32.12 13.4052 32.415 13.6652C32.565 13.7929 32.7574 13.8599 32.9543 13.8532C33.1512 13.8464 33.3385 13.7662 33.4794 13.6285C33.6203 13.4907 33.7046 13.3053 33.7158 13.1086C33.727 12.9118 33.6643 12.718 33.54 12.5652C33.4294 12.4346 33.3108 12.311 33.185 12.1952L30.915 9.83016ZM35.385 13.6902C35.3563 13.9034 35.4126 14.1193 35.5417 14.2914C35.6707 14.4635 35.8623 14.578 36.075 14.6102C36.1835 14.6226 36.2934 14.6128 36.3981 14.5814C36.5027 14.5499 36.5998 14.4975 36.6835 14.4274C36.7673 14.3572 36.8359 14.2707 36.8851 14.1732C36.9343 14.0757 36.9632 13.9692 36.97 13.8602C37.4866 11.3068 37.9966 8.75182 38.5 6.19516C38.5398 6.08508 38.5561 5.96786 38.5477 5.85109C38.5393 5.73432 38.5065 5.62062 38.4513 5.51736C38.3962 5.4141 38.3199 5.3236 38.2275 5.25173C38.1351 5.17985 38.0286 5.12821 37.915 5.10016C37.445 5.00016 37.065 5.29016 36.945 5.86516C36.635 7.40016 36.33 8.94016 36.02 10.4752L35.385 13.6902Z" fill="white"/>
<path id="Vector_4" d="M18.0648 25.8301H24.1998V26.3801C24.1998 28.2801 24.2448 30.1851 24.1998 32.0801C24.1675 32.3704 24.2207 32.6637 24.3528 32.9242C24.4849 33.1847 24.6902 33.4009 24.9435 33.5464C25.1967 33.6919 25.4869 33.7603 25.7785 33.7432C26.0701 33.726 26.3503 33.6242 26.5848 33.4501C27.2227 33.0422 27.9887 32.8839 28.736 33.0057C29.4833 33.1275 30.1594 33.5207 30.6348 34.1101C31.121 34.6871 31.3866 35.418 31.3842 36.1725C31.3818 36.9271 31.1116 37.6563 30.6217 38.2302C30.1318 38.8041 29.4541 39.1854 28.7093 39.3063C27.9645 39.4271 27.201 39.2796 26.5548 38.8901C25.2948 38.1651 24.2198 38.7751 24.2148 40.2251C24.2148 42.3901 24.2148 44.5551 24.2148 46.7251V47.3401H4.54479C3.25979 47.3401 2.65479 46.7351 2.65479 45.4501V25.8351H9.65479C9.31255 26.462 9.11271 27.1567 9.0695 27.8697C9.02629 28.5827 9.14077 29.2964 9.40479 29.9601C9.75643 30.8681 10.3843 31.6429 11.1998 32.1751C12.0188 32.7199 12.9852 33.0004 13.9686 32.979C14.9521 32.9575 15.9053 32.6351 16.6998 32.0551C17.6263 31.362 18.2667 30.3534 18.4998 29.2201C18.7248 28.2901 18.6698 27.8901 18.0648 25.8301ZM6.94479 40.1801C7.82979 39.3001 8.65979 38.4801 9.47979 37.6801C9.90979 37.2501 9.94479 36.8001 9.59979 36.4501C9.51584 36.3683 9.41544 36.3053 9.30526 36.2654C9.19509 36.2255 9.07766 36.2095 8.96081 36.2184C8.84396 36.2274 8.73037 36.2612 8.6276 36.3175C8.52483 36.3739 8.43523 36.4514 8.36479 36.5451C7.36479 37.5451 6.36479 38.5451 5.36479 39.5201C5.2575 39.5952 5.16992 39.6951 5.10945 39.8113C5.04898 39.9275 5.01741 40.0566 5.01741 40.1876C5.01741 40.3186 5.04898 40.4476 5.10945 40.5638C5.16992 40.68 5.2575 40.7799 5.36479 40.8551C6.33812 41.8551 7.31812 42.8351 8.30479 43.7951C8.76479 44.2551 9.20479 44.2951 9.56979 43.9501C9.93479 43.6051 9.89479 43.1351 9.44479 42.6801C8.87979 42.1051 8.30479 41.5301 7.72979 40.9651C7.49979 40.6901 7.24479 40.4551 6.94479 40.1801ZM19.0748 40.1401C18.9298 40.2951 18.8198 40.4201 18.6998 40.5401C17.9648 41.2751 17.1998 42.0051 16.4898 42.7551C16.3393 42.9009 16.2529 43.1006 16.2496 43.3102C16.2463 43.5198 16.3264 43.7221 16.4723 43.8726C16.6182 44.0231 16.8178 44.1095 17.0274 44.1128C17.237 44.1161 17.4393 44.0359 17.5898 43.8901C18.6548 42.8501 19.7098 41.7901 20.7598 40.7251C20.8354 40.6614 20.8973 40.5831 20.9417 40.4948C20.9862 40.4065 21.0122 40.3101 21.0183 40.2115C21.0244 40.1129 21.0103 40.014 20.9771 39.9209C20.9438 39.8279 20.892 39.7425 20.8248 39.6701C19.7381 38.5567 18.6381 37.4567 17.5248 36.3701C17.3759 36.2397 17.1824 36.1721 16.9847 36.1814C16.7871 36.1907 16.6007 36.2763 16.4648 36.4201C16.3366 36.5515 16.2592 36.7241 16.2463 36.9072C16.2335 37.0904 16.2861 37.2721 16.3948 37.4201C16.4922 37.5417 16.5992 37.6554 16.7148 37.7601L19.0748 40.1401ZM11.4448 44.0001C11.4292 44.1039 11.4344 44.2097 11.46 44.3115C11.4855 44.4133 11.531 44.5091 11.5937 44.5932C11.6565 44.6773 11.7353 44.7482 11.8256 44.8017C11.9159 44.8553 12.0159 44.8904 12.1198 44.9051C12.2279 44.9235 12.3387 44.9191 12.4451 44.892C12.5514 44.865 12.6509 44.816 12.7371 44.7481C12.8233 44.6803 12.8943 44.5951 12.9456 44.4982C12.9969 44.4012 13.0273 44.2945 13.0348 44.1851L14.5948 36.4151C14.6287 36.3077 14.64 36.1945 14.628 36.0826C14.616 35.9707 14.581 35.8625 14.5251 35.7648C14.4692 35.667 14.3936 35.582 14.3032 35.5149C14.2128 35.4478 14.1095 35.4002 13.9998 35.3751C13.8847 35.3452 13.7645 35.3414 13.6478 35.3638C13.5311 35.3863 13.4208 35.4344 13.325 35.5048C13.2293 35.5752 13.1504 35.6661 13.0941 35.7708C13.0379 35.8754 13.0056 35.9914 12.9998 36.1101C12.6898 37.6467 12.3815 39.1851 12.0748 40.7251C11.8798 41.8351 11.6598 42.9451 11.4448 44.0001Z" fill="white"/>
</g>
</g>
</svg>
