<svg width="66" height="66" viewBox="0 0 66 66" fill="none" xmlns="http://www.w3.org/2000/svg">
<g id="Artboard 1 8">
<path id="Vector" d="M58.0799 21.5421C57.8824 21.8531 57.6618 22.1487 57.4199 22.4265C54.0451 25.8145 50.6703 29.1915 47.2955 32.5575C46.3671 33.4947 45.4321 34.4297 44.4905 35.3625C43.8305 36.0225 43.4543 35.9829 42.8141 35.3625C38.6297 31.1473 34.4387 26.9387 30.2411 22.7367C29.5811 22.0767 29.5811 21.6939 30.2411 21.0603C34.5575 16.7395 38.8805 12.4165 43.2101 8.09128C43.8305 7.47088 44.2595 7.47088 44.8931 8.09128C49.0995 12.2889 53.3015 16.4909 57.4991 20.6973C57.7139 20.9637 57.908 21.2461 58.0799 21.5421Z" fill="white"/>
<path id="Vector_2" d="M18.3017 11.6162C21.3179 11.6162 24.3407 11.6162 27.3569 11.6162C28.3271 11.6162 28.6175 11.9 28.6175 12.8504V30.5714C28.6175 31.5614 28.3337 31.8452 27.2975 31.8452H9.23992C8.19712 31.8452 7.91992 31.5812 7.91992 30.5252V12.8768C7.91992 11.8736 8.18392 11.6162 9.20032 11.6162C12.2231 11.6096 15.2591 11.6162 18.3017 11.6162Z" fill="white"/>
<path id="Vector_3" d="M43.8637 58.3706H34.7557C33.7921 58.3706 33.5149 58.0934 33.5083 57.1232V39.4088C33.5083 38.4452 33.7855 38.168 34.7557 38.168H52.9849C53.9551 38.168 54.2257 38.4386 54.2257 39.4154V57.1232C54.2257 58.0934 53.9419 58.3706 52.9783 58.3706H43.8637Z" fill="white"/>
<path id="Vector_4" d="M18.2555 58.3706H9.14092C8.17732 58.3706 7.91992 58.0802 7.91992 57.1232V39.4088C7.91992 38.432 8.17732 38.168 9.15412 38.168H27.3701C28.3403 38.168 28.6175 38.4452 28.6175 39.4088V57.1232C28.6175 58.0868 28.3337 58.3706 27.3701 58.3706H18.2555Z" fill="white"/>
</g>
</svg>
