<svg width="55" height="54" viewBox="0 0 55 54" fill="none" xmlns="http://www.w3.org/2000/svg">
<g id="integration 1">
<path id="Vector" d="M53.4476 24.7562H41.4101V33.75H43.0788L39.8851 38.5437C38.8163 36.9375 37.7913 35.4188 36.7101 33.7875H38.3538V24.7688H29.4476V18.8H32.3913V23.075L45.5726 14.2812L32.4476 5.53125V9.78125H29.4351V0.71875H53.4476V24.7562Z" fill="white"/>
<path id="Vector_2" d="M29.4102 51.7816V39.7441H20.4477V41.4129L15.6602 38.2191L20.4164 35.0441V36.6941H29.3852V27.7816H35.3664V30.7066H31.0914C34.0477 35.1441 36.9352 39.4879 39.8852 43.9066L48.6352 30.7441H44.3977V27.7441H53.4477V51.7816H29.4102Z" fill="white"/>
<path id="Vector_3" d="M2.38525 51.7811V27.7561H14.429V18.7936H12.7478L15.9478 13.9873L19.129 18.7498H17.4728V27.7186H26.3853V33.6998H23.4603V29.4248L10.2665 38.2186L23.4228 46.9686V42.7311H26.4228V51.7811H2.38525Z" fill="white"/>
<path id="Vector_4" d="M11.4228 24.7309H2.4165V0.755859H26.4103V12.7621H35.3728V11.0809L40.179 14.2809L35.4165 17.4621V15.8059H26.4478V24.7184H20.4665V21.7871H24.7478L15.9478 8.59336L7.19775 21.7184H11.4353L11.4228 24.7309Z" fill="white"/>
</g>
</svg>
