<svg width="55" height="69" viewBox="0 0 55 69" fill="none" xmlns="http://www.w3.org/2000/svg">
<g id="Top notch 1">
<g id="Group 38980">
<g id="Group 38979">
<path id="Vector" d="M39.3973 51.1064L36.076 50.5873C35.2806 50.4444 34.4639 50.4727 33.6803 50.6701C32.8967 50.8676 32.1641 51.2297 31.5314 51.7323C30.5855 52.4435 29.6893 53.2543 28.7434 53.9797C27.6126 54.8403 26.9867 54.8332 25.8488 53.9797C25.1376 53.4321 24.4264 52.856 23.765 52.2586C22.9686 51.513 21.9979 50.9791 20.9418 50.7057C19.8857 50.4324 18.7778 50.4283 17.7197 50.6939C16.788 50.886 15.8492 51.0282 14.8749 51.1349C14.6661 51.1931 14.4479 51.2095 14.2329 51.183C14.0178 51.1565 13.81 51.0878 13.6216 50.9807C13.4332 50.8736 13.2679 50.7303 13.1351 50.559C13.0023 50.3877 12.9047 50.1919 12.848 49.9827C12.4426 49.0724 12.0941 48.1336 11.7811 47.1877C11.4707 46.1557 10.9094 45.2167 10.1474 44.4547C9.38533 43.6926 8.44634 43.1313 7.41433 42.8209C6.53244 42.5293 5.66476 42.2021 4.81843 41.8465C3.58804 41.3273 3.28222 40.7584 3.47425 39.4355C3.66627 38.1127 3.88675 36.9321 4.0361 35.6733C4.13001 34.9328 4.07117 34.181 3.86322 33.4642C3.65528 32.7474 3.30263 32.0808 2.82705 31.5056C2.11584 30.6023 1.36196 29.7418 0.693427 28.8314C-0.231142 27.6224 -0.231142 27.025 0.693427 25.8301C1.29795 25.0336 1.93804 24.2655 2.59235 23.5116C3.24622 22.7637 3.71554 21.8729 3.96258 20.9107C4.20962 19.9484 4.22749 18.9417 4.01476 17.9713C3.8583 17.0823 3.70183 16.1933 3.5667 15.3043C3.33912 13.8819 3.63782 13.3129 4.98912 12.7511C5.89235 12.3812 6.80981 12.0398 7.72726 11.7269C8.64801 11.4136 9.48296 10.8899 10.1657 10.1972C10.8485 9.50458 11.3602 8.66219 11.6602 7.73704C11.9874 6.81959 12.3145 5.90213 12.6844 4.9989C13.2533 3.63338 13.6658 3.37023 15.1523 3.5267C16.1408 3.62627 17.1294 3.81829 18.1109 4.00321C19.0499 4.20453 20.0229 4.184 20.9526 3.94324C21.8823 3.70249 22.743 3.24815 23.4663 2.61635C24.2273 1.97627 24.9954 1.32907 25.7848 0.717432C27.0223 -0.242697 27.577 -0.235585 28.843 0.717432C29.4487 1.16021 30.0304 1.63503 30.5855 2.13985C31.4248 2.98838 32.4722 3.60179 33.6229 3.91879C34.7736 4.23579 35.9873 4.24528 37.1428 3.94631C38.0887 3.74006 39.063 3.65472 40.0303 3.53381C40.3611 3.47799 40.7009 3.54088 40.9898 3.71136C41.2787 3.88185 41.4981 4.14895 41.6092 4.46549C42.0138 5.32173 42.363 6.20307 42.6546 7.10407C42.9731 8.29164 43.6021 9.37294 44.4771 10.2367C45.3521 11.1005 46.4415 11.7155 47.6331 12.0185C48.3299 12.2354 49.0137 12.4919 49.6814 12.7866C51.0611 13.3698 51.3314 13.8819 51.1038 15.347C50.9686 16.2146 50.8335 17.0823 50.6699 17.9429C50.4365 18.936 50.4437 19.9705 50.6912 20.9602C50.9386 21.9499 51.419 22.8661 52.0923 23.6325C52.7467 24.3864 53.3867 25.1545 53.9913 25.9511C54.8305 27.0534 54.8305 27.6793 53.9913 28.7959C53.3867 29.5498 52.7467 30.261 52.0923 31.0362C51.419 31.8026 50.9386 32.7188 50.6912 33.7085C50.4437 34.6982 50.4365 35.7327 50.6699 36.7258C50.8335 37.6362 50.99 38.5465 51.1322 39.464C51.3242 40.7513 51.0326 41.3202 49.8449 41.8394C48.9488 42.2235 48.0385 42.5506 47.1139 42.8707C46.1066 43.1762 45.1902 43.7255 44.4458 44.4698C43.7015 45.2142 43.1522 46.1306 42.8467 47.1379C42.5266 48.0838 42.1852 49.0297 41.7799 49.9401C41.2962 50.9784 40.8197 51.2202 39.3973 51.1064ZM27.3068 7.79394C23.4446 7.78973 19.6679 8.9316 16.4551 11.075C13.2422 13.2184 10.7375 16.2669 9.25821 19.8346C7.77891 23.4023 7.39147 27.3287 8.14496 31.1168C8.89844 34.9048 10.759 38.384 13.491 41.114C16.223 43.844 19.7036 45.702 23.4922 46.4527C27.2807 47.2035 31.2068 46.8132 34.7735 45.3313C38.3401 43.8493 41.3868 41.3425 43.5278 38.128C45.6689 34.9136 46.808 31.1361 46.801 27.2739C46.7859 22.1096 44.7268 17.1614 41.0738 13.5111C37.4208 9.86071 32.471 7.8052 27.3068 7.79394Z" fill="white"/>
<path id="Vector_2" d="M45.9339 47.8418C47.7902 53.7306 49.5966 59.4202 51.396 65.1099C51.6449 65.9065 51.3249 66.3118 50.4714 66.3118C45.9624 66.3118 41.4533 66.3118 36.9585 66.3118C36.7078 66.341 36.4552 66.2765 36.2491 66.1308C36.0431 65.9851 35.898 65.7684 35.8419 65.5224C34.7893 62.1513 33.7083 58.7944 32.6912 55.4233C32.6689 55.283 32.6777 55.1396 32.7171 55.0032C32.7564 54.8667 32.8253 54.7406 32.9188 54.6338C33.3556 54.1903 33.9037 53.8725 34.5055 53.7136C35.1074 53.5546 35.7409 53.5605 36.3397 53.7306C37.2643 53.9155 38.2031 54.072 39.1419 54.2071C40.2286 54.4407 41.3628 54.2834 42.345 53.7631C43.3272 53.2427 44.0944 52.3926 44.5115 51.3623C45.0378 50.2883 45.4218 49.1362 45.9339 47.8418Z" fill="white"/>
<path id="Vector_3" d="M8.67377 47.8486C8.82312 48.1971 8.92981 48.4105 9.00804 48.6238C9.20718 49.1501 9.38498 49.6764 9.58412 50.2027C10.8714 53.6734 12.7988 54.7616 16.4402 54.093C17.3007 53.9366 18.1684 53.8228 19.0289 53.6734C19.555 53.6031 20.0902 53.6644 20.5867 53.8518C21.0832 54.0393 21.5254 54.347 21.8738 54.7473C21.9387 54.8377 21.9826 54.9414 22.0023 55.0509C22.022 55.1605 22.017 55.273 21.9876 55.3803C20.9279 58.7941 19.8539 62.2008 18.7729 65.6146C18.7254 65.8303 18.6011 66.0214 18.4231 66.1522C18.2452 66.2831 18.0257 66.3448 17.8057 66.3258C13.2255 66.3258 8.64532 66.3258 4.06515 66.3258C3.25437 66.3258 3.00545 65.8991 3.28282 65.0314C4.73368 60.4085 6.18692 55.7904 7.64252 51.1771L8.67377 47.8486Z" fill="white"/>
<path id="Vector_4" d="M27.307 10.9443C30.5438 10.9443 33.7078 11.9046 36.3986 13.7036C39.0894 15.5026 41.186 18.0594 42.423 21.0505C43.66 24.0416 43.9819 27.3324 43.3478 30.5064C42.7138 33.6805 41.1523 36.5951 38.8611 38.8814C36.5698 41.1676 33.6518 42.7227 30.4764 43.3499C27.301 43.977 24.0109 43.648 21.0225 42.4045C18.0341 41.1609 15.4819 39.0588 13.6887 36.3641C11.8956 33.6694 10.9422 30.5033 10.9493 27.2665C10.9587 22.9344 12.6862 18.7828 15.7529 15.7228C18.8195 12.6628 22.9748 10.9443 27.307 10.9443ZM37.4346 24.5071C37.4499 24.3829 37.4383 24.257 37.4008 24.1377C37.3633 24.0184 37.3006 23.9086 37.2171 23.8156C37.1335 23.7226 37.0309 23.6486 36.9163 23.5985C36.8017 23.5485 36.6777 23.5236 36.5527 23.5256C34.7747 23.2624 32.9967 22.9922 31.2187 22.6721C31.0693 22.6359 30.929 22.5691 30.8066 22.4761C30.6843 22.3831 30.5824 22.2658 30.5074 22.1316C29.6967 20.4958 28.957 18.8245 28.1391 17.1958C27.9827 16.8687 27.5915 16.4846 27.2999 16.4846C27.0083 16.4846 26.5887 16.8829 26.4465 17.1958C25.657 18.7818 24.9174 20.4034 24.1777 22.0178C24.107 22.216 23.9797 22.389 23.8116 22.5155C23.6434 22.6419 23.4418 22.7162 23.2318 22.729C21.6197 22.9282 20.0077 23.1652 18.3956 23.4402C17.9561 23.4903 17.5495 23.6974 17.2506 24.0234C16.9234 24.5284 17.4355 24.8982 17.7768 25.2467C18.9432 26.4558 20.1096 27.6648 21.3329 28.8525C21.4902 28.9862 21.6021 29.1655 21.653 29.3655C21.704 29.5655 21.6915 29.7765 21.6174 29.9691C21.1622 31.7614 20.7568 33.5678 20.387 35.3814C20.3413 35.5667 20.3374 35.7598 20.3755 35.9467C20.4137 36.1337 20.4929 36.3099 20.6074 36.4624C20.7864 36.5351 20.9791 36.5676 21.1721 36.5578C21.365 36.5479 21.5534 36.496 21.724 36.4055C23.3029 35.6517 24.8676 34.8551 26.4038 34.0088C26.6625 33.8387 26.9654 33.7481 27.275 33.7481C27.5846 33.7481 27.8875 33.8387 28.1462 34.0088C29.718 34.8836 31.3324 35.6872 32.954 36.4696C33.1174 36.5468 33.296 36.5869 33.4767 36.5869C33.6575 36.5869 33.836 36.5468 33.9995 36.4696C34.1044 36.3342 34.1775 36.177 34.2132 36.0095C34.2489 35.842 34.2463 35.6687 34.2057 35.5023C33.8217 33.6461 33.3949 31.7969 32.9398 29.9478C32.8818 29.7799 32.876 29.5984 32.9229 29.427C32.9699 29.2557 33.0675 29.1026 33.2029 28.9877C34.4618 27.7288 35.6993 26.4486 36.9296 25.1685C37.1135 24.9603 37.2823 24.7393 37.4346 24.5071Z" fill="white"/>
</g>
</g>
</g>
</svg>
