<svg width="75" height="75" viewBox="0 0 75 75" fill="none" xmlns="http://www.w3.org/2000/svg">
<g id="Artboard 1 copy 13">
<path id="Vector" d="M54.7875 19.223C54.7954 19.7223 54.6964 20.2175 54.4972 20.6754C54.298 21.1333 54.0032 21.5433 53.6325 21.878C51.0075 24.493 48.38 27.113 45.75 29.738L36.5625 38.9405C34.7775 40.733 32.8125 40.733 31.0575 38.9405L21.8325 29.753C20.16 28.073 20.16 26.1005 21.8325 24.428L39 7.26048C39.3224 6.87844 39.7244 6.57139 40.1778 6.36076C40.6312 6.15014 41.1251 6.04102 41.625 6.04102C42.1249 6.04102 42.6188 6.15014 43.0722 6.36076C43.5256 6.57139 43.9276 6.87844 44.25 7.26048L53.6475 16.688C54.0033 17.0081 54.2884 17.3988 54.4847 17.8353C54.681 18.2718 54.7841 18.7444 54.7875 19.223Z" fill="white"/>
<path id="Vector_2" d="M44.5127 34.2975L48.8252 30C48.9322 30.0821 49.0348 30.1697 49.1327 30.2625C55.7577 36.8875 62.3802 43.5125 69.0002 50.1375C69.588 50.6692 69.9466 51.4082 70.0005 52.1989C70.0543 52.9896 69.7993 53.7704 69.289 54.3769C68.7788 54.9834 68.0531 55.3682 67.2648 55.4504C66.4765 55.5326 65.6871 55.3057 65.0627 54.8175C64.9107 54.6929 64.7654 54.5602 64.6277 54.42L44.8427 34.65C44.7227 34.5 44.6102 34.395 44.5127 34.2975Z" fill="white"/>
<path id="Vector_3" d="M7.10987 56.5504V52.3429C7.08256 51.6788 7.24605 51.0207 7.58098 50.4465C7.91592 49.8723 8.4083 49.4061 8.99987 49.1029L16.5824 44.7604C17.1065 44.4332 17.712 44.2598 18.3299 44.2598C18.9478 44.2598 19.5532 44.4332 20.0774 44.7604C22.6424 46.2054 25.1999 47.6629 27.7499 49.1329C28.3229 49.4427 28.7976 49.907 29.1198 50.4732C29.442 51.0393 29.5988 51.6846 29.5724 52.3354C29.5724 55.1629 29.5724 57.9979 29.5724 60.8254C29.5975 61.498 29.432 62.164 29.0949 62.7465C28.7579 63.3291 28.263 63.8045 27.6674 64.1179C25.1549 65.5429 22.6499 66.9904 20.1674 68.4304C19.6253 68.769 18.999 68.9484 18.3599 68.9484C17.7208 68.9484 17.0945 68.769 16.5524 68.4304L8.96987 64.0804C8.39323 63.777 7.91407 63.3167 7.58764 62.7528C7.26121 62.1888 7.10079 61.5441 7.12487 60.8929L7.10987 56.5504ZM9.35987 56.5504V59.5054C9.33605 60.145 9.49298 60.7784 9.81268 61.3329C10.1324 61.8874 10.6019 62.3406 11.1674 62.6404C12.9749 63.6754 14.7899 64.6954 16.5974 65.7154C17.1247 66.0375 17.7307 66.2079 18.3486 66.2079C18.9666 66.2079 19.5725 66.0375 20.0999 65.7154L25.4999 62.6479C26.047 62.3621 26.5046 61.9307 26.8222 61.4014C27.1399 60.872 27.3051 60.2652 27.2999 59.6479C27.3299 57.6079 27.3299 55.5704 27.2999 53.5354C27.3087 52.9384 27.1532 52.3504 26.8503 51.8358C26.5473 51.3213 26.1087 50.8999 25.5824 50.6179C23.7224 49.5429 21.8549 48.4854 19.9799 47.4454C19.4757 47.1472 18.9007 46.9898 18.3149 46.9898C17.7291 46.9898 17.154 47.1472 16.6499 47.4454C14.7749 48.4904 12.9099 49.5479 11.0549 50.6179C10.5172 50.9086 10.0711 51.3432 9.76645 51.873C9.46179 52.4029 9.31062 53.0071 9.32987 53.6179C9.33737 54.5779 9.35237 55.5604 9.35237 56.5504H9.35987Z" fill="white"/>
<path id="Vector_4" d="M30.9001 12.0373L26.5501 16.3573C26.0476 15.8473 25.4551 15.2998 24.9226 14.6998C24.7298 14.4829 24.631 14.1984 24.6479 13.9087C24.6647 13.619 24.7959 13.3478 25.0126 13.1548C25.8776 12.2548 26.7601 11.3723 27.6601 10.5073C27.7622 10.3908 27.8874 10.2966 28.0277 10.2307C28.1679 10.1649 28.3203 10.1287 28.4752 10.1244C28.6301 10.1202 28.7843 10.148 28.9279 10.2062C29.0716 10.2643 29.2017 10.3515 29.3101 10.4623C29.8726 10.9723 30.3901 11.5273 30.9001 12.0373Z" fill="white"/>
<path id="Vector_5" d="M11.5949 56.5947C11.5949 55.6722 11.5949 54.7497 11.5949 53.8272C11.5696 53.5433 11.6314 53.2584 11.7721 53.0106C11.9128 52.7627 12.1257 52.5636 12.3824 52.4397C14.1224 51.4797 15.8549 50.4897 17.5799 49.4922C17.8101 49.3437 18.0784 49.2646 18.3524 49.2646C18.6264 49.2646 18.8946 49.3437 19.1249 49.4922C20.8499 50.4922 22.5824 51.4747 24.3224 52.4397C24.564 52.5648 24.7637 52.7579 24.8969 52.9951C25.0302 53.2323 25.0912 53.5033 25.0724 53.7747C25.0724 55.6572 25.0724 57.5247 25.0724 59.4297C25.0878 59.7004 25.0235 59.9697 24.8876 60.2043C24.7516 60.4389 24.5499 60.6285 24.3074 60.7497C22.5674 61.7497 20.8349 62.7497 19.1099 63.7497C18.8796 63.8983 18.6114 63.9773 18.3374 63.9773C18.0634 63.9773 17.7951 63.8983 17.5649 63.7497C15.8399 62.7522 14.1074 61.7772 12.3674 60.8022C12.1232 60.6823 11.9209 60.4914 11.787 60.2545C11.6532 60.0176 11.5941 59.7458 11.6174 59.4747C11.6099 58.4997 11.5949 57.5322 11.5949 56.5947Z" fill="white"/>
</g>
</svg>
