<svg width="68" height="68" viewBox="0 0 68 68" fill="none" xmlns="http://www.w3.org/2000/svg">
<g id="Artboard 1 copy 7">
<path id="Vector" d="M44.9276 5.54199C44.9276 6.72519 44.9276 7.91519 44.9276 9.10519C44.9276 10.6556 44.9276 12.2083 44.9276 13.7632C44.9276 14.7492 45.2472 15.0552 46.2468 15.062H54.4068C54.4068 15.2728 54.4068 15.4428 54.4068 15.606C54.4068 19.3664 54.4068 23.12 54.4068 26.8804C54.4203 26.9622 54.4175 27.0458 54.3984 27.1265C54.3793 27.2072 54.3444 27.2832 54.2957 27.3503C54.247 27.4174 54.1855 27.4741 54.1146 27.5172C54.0438 27.5602 53.9651 27.5888 53.8832 27.6012C52.5232 28.0092 51.1632 28.4648 49.8032 28.8932C47.8244 29.5324 47.0832 30.9332 47.7632 32.9052L48.0964 34C46.8044 34.3672 45.6144 34.7548 44.336 33.9456C42.5408 32.8032 40.5688 32.0348 38.4064 32.3544C37.1985 32.6339 36.0087 32.9858 34.8432 33.4084C34.5477 33.4932 34.2343 33.4932 33.9388 33.4084C32.946 33.0752 31.96 32.6944 30.9808 32.3136C29.2735 31.6744 27.387 31.7084 25.704 32.4088C24.9555 32.6997 24.2284 33.0428 23.528 33.4356C23.0144 33.7691 22.4235 33.9644 21.8123 34.0025C21.2012 34.0406 20.5906 33.9203 20.0396 33.6532C20.1076 33.4084 20.1756 33.1568 20.2504 32.9052C20.8828 30.94 20.1552 29.5052 18.1764 28.8932C16.8164 28.4512 15.4088 27.9888 14.0216 27.5332C13.8959 27.5146 13.7821 27.4485 13.7037 27.3486C13.6253 27.2487 13.5882 27.1225 13.6 26.996C13.6 19.8787 13.6 12.784 13.6 5.71199C13.5962 5.65539 13.5962 5.5986 13.6 5.54199H44.9276ZM34.0476 26.7988H19.8356C19.643 26.7886 19.4501 26.7886 19.2576 26.7988C19.0335 26.8088 18.8214 26.9022 18.6628 27.0608C18.5042 27.2194 18.4107 27.4316 18.4008 27.6556C18.362 27.8803 18.4109 28.1114 18.5374 28.3012C18.6639 28.4909 18.8584 28.6249 19.0808 28.6756C19.3023 28.7351 19.5316 28.7604 19.7608 28.7504H48.28C48.4677 28.7675 48.6566 28.7675 48.8444 28.7504C49.0777 28.7048 49.2866 28.5765 49.4328 28.3891C49.579 28.2017 49.6526 27.9678 49.64 27.7304C49.6299 27.4883 49.5293 27.2589 49.358 27.0876C49.1867 26.9163 48.9572 26.8156 48.7152 26.8056C48.5249 26.7954 48.3342 26.7954 48.144 26.8056L34.0476 26.7988ZM34 20.4H48.144C49.1232 20.4 49.606 20.0872 49.6128 19.4276C49.6196 18.768 49.13 18.4416 48.1576 18.4416H19.822C19.6724 18.4416 19.516 18.4416 19.3664 18.4416C19.2314 18.4303 19.0955 18.4472 18.9674 18.4911C18.8392 18.535 18.7216 18.605 18.6219 18.6967C18.5222 18.7885 18.4426 18.8999 18.3882 19.0239C18.3337 19.1479 18.3056 19.2819 18.3056 19.4174C18.3056 19.5529 18.3337 19.6868 18.3882 19.8109C18.4426 19.9349 18.5222 20.0463 18.6219 20.138C18.7216 20.2298 18.8392 20.2998 18.9674 20.3437C19.0955 20.3876 19.2314 20.4045 19.3664 20.3932C19.5228 20.3932 19.6724 20.3932 19.8288 20.3932L34 20.4ZM30.1104 12.0088H40.3988C40.5912 12.0225 40.7843 12.0225 40.9768 12.0088C41.199 11.9988 41.4095 11.9061 41.5668 11.7488C41.724 11.5915 41.8168 11.381 41.8268 11.1588C41.8655 10.934 41.8166 10.703 41.6901 10.5132C41.5636 10.3235 41.3691 10.1894 41.1468 10.1388C40.9044 10.0793 40.6549 10.0541 40.4056 10.064H19.8016C19.5545 10.0545 19.3073 10.0797 19.0672 10.1388C18.8459 10.1864 18.6515 10.3177 18.5248 10.5053C18.3981 10.6928 18.3488 10.9221 18.3872 11.1452C18.3938 11.3698 18.4851 11.5836 18.6427 11.7438C18.8003 11.9039 19.0127 11.9986 19.2372 12.0088C19.4273 12.0224 19.6182 12.0224 19.8084 12.0088H30.1104Z" fill="white"/>
<path id="Vector_2" d="M33.7485 63.0363C34.0599 62.4348 34.1677 61.7485 34.0556 61.0805C33.9436 60.4125 33.6177 59.799 33.127 59.332C32.6363 58.8651 32.0074 58.5701 31.3346 58.4913C30.6619 58.4125 29.9818 58.5542 29.3965 58.8951C29.1789 58.3575 28.8377 57.8787 28.4005 57.4976C27.9634 57.1164 27.4426 56.8436 26.8804 56.7012C26.3181 56.5588 25.7303 56.5509 25.1644 56.678C24.5985 56.8052 24.0706 57.0639 23.6233 57.4331C22.5081 55.8215 22.3721 55.7603 20.3389 55.2367C20.2981 54.8967 20.2777 54.5567 20.2097 54.2167C20.0421 53.3388 19.547 52.5574 18.8248 52.0309C18.1026 51.5043 17.2072 51.2721 16.3201 51.3811C15.5993 51.4695 15.3409 50.8915 14.9601 50.4903C14.5793 50.0891 14.6881 49.8647 14.8649 49.4159C15.4429 47.9199 15.9121 46.3831 16.4085 44.8531C17.3809 41.8883 18.3329 38.9167 19.2985 35.9519C19.3325 35.8431 19.3801 35.7343 19.4209 35.6255C20.1009 35.7343 20.7809 35.8635 21.5017 35.9383C22.4832 36.0651 23.4768 35.8227 24.2897 35.2583C24.8086 34.9314 25.352 34.6449 25.9149 34.4015C27.9549 33.4359 29.9201 33.7215 31.9057 34.7279C31.3277 35.0747 30.7633 35.4079 30.2193 35.7275C27.8299 37.1943 25.6636 38.9965 23.7865 41.0791C23.5896 41.2497 23.4586 41.484 23.4164 41.7411C23.3742 41.9982 23.4233 42.262 23.5553 42.4867C23.9734 43.345 24.46 44.1682 25.0105 44.9483C25.4529 45.5626 26.0905 46.0087 26.8193 46.2137C27.548 46.4188 28.3247 46.3706 29.0225 46.0771C32.0757 45.0571 35.1425 44.0371 38.1821 43.0579C38.5044 42.9662 38.8458 42.9662 39.1681 43.0579C43.4421 44.3616 47.449 46.418 51.0001 49.1303C51.3473 49.3373 51.6279 49.6394 51.8087 50.001C51.9895 50.3625 52.0628 50.7683 52.0201 51.1703C51.9693 51.4699 51.8477 51.7531 51.6654 51.9963C51.4832 52.2395 51.2456 52.4358 50.9723 52.5688C50.699 52.7017 50.398 52.7676 50.0942 52.7609C49.7903 52.7542 49.4925 52.6752 49.2253 52.5303C48.3345 52.0883 47.4641 51.6055 46.5801 51.1363C45.0569 50.3203 43.5201 49.5179 42.0173 48.7223C41.8726 48.6254 41.7047 48.5689 41.5309 48.5585C41.357 48.5481 41.1836 48.5843 41.0284 48.6633C40.8732 48.7423 40.7419 48.8612 40.648 49.0078C40.5541 49.1545 40.5009 49.3235 40.4941 49.4975C40.4913 49.7154 40.5549 49.929 40.6763 50.11C40.7978 50.291 40.9714 50.4307 41.1741 50.5107L45.9341 53.0131C46.2236 53.1331 46.4815 53.3183 46.6879 53.5541C46.8943 53.79 47.0435 54.0702 47.1241 54.3731C47.208 54.7342 47.1862 55.1118 47.0612 55.4609C46.9363 55.8099 46.7135 56.1156 46.4196 56.3415C46.1256 56.5673 45.7728 56.7038 45.4034 56.7346C45.0339 56.7654 44.6634 56.6892 44.3361 56.5151C42.7585 55.6923 41.1877 54.8491 39.6169 54.0195L39.3109 53.8495C39.1955 53.771 39.0652 53.7172 38.928 53.6915C38.7909 53.6657 38.6499 53.6686 38.514 53.6999C38.378 53.7312 38.2499 53.7902 38.1378 53.8733C38.0257 53.9563 37.932 54.0617 37.8625 54.1827C37.802 54.3051 37.7674 54.4387 37.7608 54.575C37.7543 54.7114 37.7759 54.8477 37.8244 54.9753C37.8729 55.103 37.9472 55.2192 38.0427 55.3169C38.1382 55.4145 38.2528 55.4914 38.3793 55.5427C39.4061 56.1071 40.4193 56.6307 41.4665 57.2019C41.6897 57.3211 41.8873 57.4831 42.048 57.6787C42.2086 57.8743 42.3291 58.0996 42.4027 58.3417C42.4763 58.5839 42.5014 58.8381 42.4767 59.09C42.452 59.3419 42.3779 59.5864 42.2587 59.8097C42.1395 60.0329 41.9775 60.2305 41.7819 60.3911C41.5863 60.5518 41.361 60.6723 41.1189 60.7459C40.6298 60.8944 40.1018 60.8426 39.6509 60.6019C38.2909 59.9219 36.9309 59.1467 35.5709 58.4191C35.4213 58.3375 35.2717 58.2559 35.1153 58.1811C34.9981 58.1047 34.8661 58.0538 34.7279 58.0316C34.5898 58.0095 34.4485 58.0166 34.3132 58.0525C34.178 58.0884 34.0518 58.1523 33.9428 58.24C33.8338 58.3278 33.7444 58.4374 33.6805 58.5619C33.6153 58.6826 33.5766 58.8159 33.567 58.9527C33.5573 59.0896 33.577 59.227 33.6246 59.3557C33.6722 59.4844 33.7467 59.6014 33.8431 59.699C33.9395 59.7967 34.0556 59.8727 34.1837 59.9219C35.1765 60.4659 36.1761 60.9895 37.1757 61.5199C37.5337 61.6705 37.8172 61.9571 37.9638 62.3167C38.1105 62.6763 38.1083 63.0795 37.9577 63.4375C37.8071 63.7955 37.5205 64.079 37.1609 64.2256C36.8012 64.3723 36.3981 64.3701 36.0401 64.2195C35.8439 64.139 35.6531 64.0458 35.4689 63.9407L33.7485 63.0363Z" fill="white"/>
<path id="Vector_3" d="M48.7152 35.8902L52.5708 47.7902C52.3464 47.6474 52.2104 47.5658 52.088 47.4774C48.2402 44.5777 43.8967 42.4025 39.27 41.0582C38.8715 40.9495 38.4512 40.9495 38.0528 41.0582C34.9588 42.051 31.8716 43.0982 28.7844 44.091C27.3292 44.5738 26.7444 44.363 25.9828 43.0506C25.4388 42.1394 25.432 42.1394 26.18 41.3982C29.4168 38.1605 33.4116 35.7832 37.8012 34.4826C39.1085 34.1326 40.4972 34.2529 41.7248 34.8226C42.267 35.0138 42.7833 35.2719 43.2616 35.591C44.6216 36.5838 46.0836 36.5158 47.6 36.1894C47.9536 36.1146 48.28 36.0398 48.7152 35.8902Z" fill="white"/>
<path id="Vector_4" d="M18.53 31.7768C18.4892 31.906 18.4416 32.11 18.3736 32.3072L13.2736 48.0968C12.9812 48.9944 12.648 49.1644 11.7708 48.8856L5.92961 46.9748C5.16801 46.73 4.99121 46.3832 5.24961 45.6148C6.97681 40.2655 8.70854 34.9116 10.4448 29.5532C10.676 28.8324 11.0432 28.6488 11.7572 28.8732L17.68 30.8044C17.9162 30.8344 18.1331 30.9499 18.2898 31.1291C18.4464 31.3084 18.5319 31.5388 18.53 31.7768ZM16.32 32.6404C16.32 32.3801 16.2171 32.1303 16.0336 31.9456C15.8502 31.7609 15.6011 31.6562 15.3408 31.6544C15.0798 31.6666 14.8334 31.7785 14.6525 31.9671C14.4715 32.1556 14.3699 32.4063 14.3684 32.6676C14.3772 32.9184 14.4826 33.1561 14.6625 33.331C14.8425 33.5059 15.0831 33.6044 15.334 33.606C15.4633 33.6117 15.5923 33.5907 15.7131 33.5444C15.8339 33.4981 15.944 33.4276 16.0364 33.337C16.1288 33.2465 16.2017 33.138 16.2505 33.0182C16.2993 32.8983 16.3229 32.7698 16.32 32.6404Z" fill="white"/>
<path id="Vector_5" d="M55.6989 49.0284C55.4694 49.0171 55.2508 48.9271 55.0799 48.7735C54.909 48.6199 54.7962 48.4121 54.7605 48.1852C53.9309 45.6012 53.0877 43.0172 52.2513 40.4332L49.6401 32.2936C49.3477 31.3892 49.5109 31.0764 50.3949 30.784L56.1885 28.9072C57.0113 28.642 57.3445 28.8188 57.6097 29.6484C59.3188 34.9478 61.0301 40.2518 62.7437 45.5604C63.0225 46.4104 62.8525 46.7504 62.0025 47.0292L56.1545 48.9264L55.6989 49.0284ZM53.5909 32.5384C53.5936 32.4093 53.5704 32.2809 53.5227 32.161C53.475 32.041 53.4037 31.9318 53.313 31.8399C53.2224 31.748 53.1142 31.6752 52.9949 31.6258C52.8756 31.5764 52.7476 31.5514 52.6185 31.5524C52.3738 31.5728 52.1456 31.6845 51.9794 31.8652C51.8131 32.0459 51.7208 32.2826 51.7208 32.5282C51.7208 32.7737 51.8131 33.0104 51.9794 33.1911C52.1456 33.3718 52.3738 33.4835 52.6185 33.504C52.7461 33.5058 52.8728 33.4821 52.9912 33.4343C53.1095 33.3865 53.2171 33.3155 53.3077 33.2256C53.3983 33.1357 53.47 33.0285 53.5186 32.9105C53.5672 32.7925 53.5918 32.666 53.5909 32.5384Z" fill="white"/>
<path id="Vector_6" d="M52.4279 13.0558H46.9199V7.35059L52.4279 13.0558Z" fill="white"/>
<path id="Vector_7" d="M15.3543 58.7454C15.0758 58.7376 14.8037 58.6602 14.5626 58.5205C14.3216 58.3808 14.1192 58.183 13.974 57.9452C13.8288 57.7075 13.7452 57.4372 13.731 57.1589C13.7167 56.8806 13.7722 56.6032 13.8923 56.3518C14.3852 55.4895 14.9373 54.6625 15.5447 53.8766C15.7946 53.588 16.141 53.4003 16.5191 53.3485C16.8973 53.2967 17.2814 53.3844 17.5997 53.5952C17.9179 53.8059 18.1485 54.1254 18.2484 54.4938C18.3482 54.8622 18.3106 55.2544 18.1423 55.597C17.6487 56.4582 17.0942 57.2831 16.4831 58.0654C16.1496 58.3564 15.7675 58.5866 15.3543 58.7454Z" fill="white"/>
<path id="Vector_8" d="M25.9487 58.4805C26.2281 58.4884 26.501 58.566 26.7428 58.7061C26.9846 58.8462 27.1876 59.0444 27.3334 59.2827C27.4793 59.5211 27.5634 59.7921 27.5781 60.0711C27.5927 60.3502 27.5376 60.6285 27.4175 60.8809C26.927 61.7446 26.3748 62.5719 25.7651 63.3561C25.513 63.6547 25.1587 63.8487 24.7712 63.9001C24.3838 63.9515 23.9911 63.8566 23.6699 63.634C23.3487 63.4113 23.122 63.0769 23.0341 62.6961C22.9462 62.3152 23.0035 61.9153 23.1947 61.5745C23.6834 60.7338 24.2287 59.9272 24.8267 59.1605C25.1571 58.8686 25.5371 58.6383 25.9487 58.4805Z" fill="white"/>
<path id="Vector_9" d="M17.2856 61.0029C17.2856 60.2549 19.0196 57.6505 19.6996 57.3785C19.9955 57.2624 20.319 57.2359 20.6298 57.3024C20.9405 57.3689 21.2249 57.5255 21.4472 57.7525C21.6841 57.9801 21.8386 58.2799 21.8866 58.6048C21.9346 58.9297 21.8734 59.2614 21.7124 59.5477C21.2024 60.3977 20.6448 61.2273 20.0532 62.0229C19.8485 62.2813 19.5646 62.4652 19.2451 62.5463C18.9256 62.6274 18.5884 62.6012 18.2852 62.4717C17.9904 62.3556 17.7373 62.1534 17.559 61.8914C17.3807 61.6294 17.2855 61.3198 17.2856 61.0029Z" fill="white"/>
<path id="Vector_10" d="M29.9811 64.4438C28.9815 64.4438 28.4307 63.553 28.8319 62.839C29.2375 62.1283 29.6919 61.4467 30.1919 60.799C30.3558 60.5811 30.5986 60.4361 30.8682 60.3954C31.1378 60.3548 31.4126 60.4215 31.6335 60.5814C31.8755 60.7234 32.0518 60.955 32.1244 61.2261C32.1969 61.4972 32.1598 61.7859 32.0211 62.0298C31.6272 62.7085 31.1887 63.3605 30.7087 63.9814C30.5019 64.1856 30.2538 64.3432 29.9811 64.4438Z" fill="white"/>
</g>
</svg>
