<svg width="60" height="60" viewBox="0 0 60 60" fill="none" xmlns="http://www.w3.org/2000/svg">
<g id="Artboard 1 copy 4 2">
<path id="Vector" d="M4.37988 38.2258L10.7999 37.0918C11.7539 42.4918 12.6899 47.8918 13.6379 53.2918L7.19988 54.4318C6.94788 53.0158 6.70788 51.6538 6.47388 50.2918C5.80988 46.4278 5.13988 42.5638 4.46388 38.6998C4.44332 38.6385 4.4151 38.58 4.37988 38.5258V38.2258Z" fill="white"/>
<path id="Vector_2" d="M21 19.1396C20.9941 16.8202 21.6766 14.5512 22.9611 12.62C24.2456 10.6888 26.0743 9.18222 28.2157 8.29107C30.3571 7.39991 32.7147 7.16427 34.9901 7.61399C37.2655 8.06371 39.3562 9.17856 40.9975 10.8174C42.6388 12.4561 43.7569 14.5452 44.2101 16.8198C44.6633 19.0945 44.4313 21.4525 43.5435 23.5952C42.6556 25.738 41.1518 27.569 39.2226 28.8565C37.2933 30.144 35.0254 30.83 32.706 30.8276C29.6055 30.8244 26.6326 29.5926 24.4385 27.4019C22.2444 25.2111 21.008 22.2401 21 19.1396ZM32.832 19.3976V18.7376C32.832 16.8176 32.832 14.8916 32.832 12.9716C32.832 12.3416 32.472 11.9456 31.962 11.9516C31.8353 11.9555 31.7108 11.986 31.5966 12.041C31.4824 12.0961 31.381 12.1745 31.299 12.2712C31.217 12.3679 31.1562 12.4808 31.1205 12.6024C31.0849 12.7241 31.0752 12.8519 31.092 12.9776C31.092 15.3176 31.092 17.6576 31.092 19.9976C31.0739 20.158 31.0927 20.3205 31.1472 20.4725C31.2016 20.6245 31.2902 20.762 31.4061 20.8744C31.522 20.9868 31.6621 21.0712 31.8157 21.1209C31.9693 21.1707 32.1322 21.1846 32.292 21.1616H35.202C35.988 21.1616 36.78 21.1616 37.56 21.1616C37.6804 21.1738 37.8019 21.1609 37.917 21.1238C38.0322 21.0866 38.1383 21.0261 38.2289 20.9459C38.3195 20.8657 38.3924 20.7677 38.4432 20.6579C38.494 20.5481 38.5215 20.429 38.524 20.3081C38.5265 20.1872 38.5039 20.067 38.4577 19.9553C38.4115 19.8435 38.3426 19.7425 38.2554 19.6587C38.1683 19.5748 38.0647 19.5099 37.9512 19.4681C37.8377 19.4263 37.7168 19.4084 37.596 19.4156C37.4462 19.4066 37.2959 19.4066 37.146 19.4156H32.82L32.832 19.3976Z" fill="white"/>
<path id="Vector_3" d="M55.6141 32.4418C54.6781 33.4258 53.8141 34.4158 52.8601 35.3458C49.0861 39.0658 45.2701 42.7498 41.5141 46.4938C39.9375 48.0344 37.9428 49.0776 35.7781 49.4938C34.3097 49.7376 32.8131 49.7599 31.3381 49.5598C27.9181 49.3018 24.4981 49.0618 21.0841 48.7798C19.7641 48.6658 18.4681 48.6418 17.2741 49.3018C16.7463 49.62 16.2375 49.9686 15.7501 50.3458C15.5221 50.5078 15.3061 50.6938 15.0301 50.9458C14.8261 49.7998 14.6281 48.7258 14.4301 47.6458C14.0161 45.2458 13.6081 42.8458 13.1761 40.4458C13.1399 40.3212 13.1424 40.1886 13.1831 40.0654C13.2238 39.9422 13.3008 39.8343 13.4041 39.7558C16.5541 36.9118 20.2261 35.8618 24.3181 36.9598C26.7734 37.6204 29.3511 37.6842 31.8361 37.1458C33.8161 36.7378 35.8141 36.4198 37.8361 36.1378C38.848 36.0387 39.8643 36.2775 40.7262 36.817C41.588 37.3565 42.247 38.1662 42.6001 39.1198L37.4161 40.0318L31.5421 41.0518C30.8941 41.1658 30.5341 41.5858 30.6241 42.0898C30.7141 42.5938 31.2001 42.8998 31.8361 42.7798L43.5841 40.7338C44.4301 40.5838 44.6941 40.1938 44.5141 39.3598C44.5141 39.3598 44.5141 39.3238 44.5141 39.3118C44.0101 38.4358 44.5141 37.9978 45.1801 37.5118C47.3701 35.9458 49.5001 34.3018 51.6601 32.7118C52.196 32.2627 52.8589 31.9924 53.556 31.9387C54.2531 31.8849 54.9496 32.0503 55.5481 32.4118C55.5901 32.3998 55.6381 32.4538 55.6141 32.4418Z" fill="white"/>
</g>
</svg>
