<svg width="89" height="89" viewBox="0 0 89 89" fill="none" xmlns="http://www.w3.org/2000/svg">
<g id="Artboard 1 3">
<path id="Vector" d="M44.5 10.0039H75.8903C80.1623 10.0039 82.8145 12.6739 82.8145 16.9103V59.301C82.8145 63.5641 80.1445 66.2074 75.8903 66.2074H13.0741C8.89998 66.2074 6.22998 63.5463 6.22998 59.3455V16.9103C6.22998 12.7006 8.89998 10.0395 13.1186 10.0395L44.5 10.0039ZM50.9169 12.5582V55.9368H80.2869V16.8569C80.2869 14.0979 78.7561 12.5671 75.9971 12.5582H50.9347H50.9169ZM48.2469 55.9635V12.5582H13.0385C10.2706 12.5582 8.73978 14.089 8.73978 16.8569V55.9635H48.2469Z" fill="white"/>
<path id="Vector_2" d="M44.5802 68.7613C48.4606 68.7613 52.3499 68.7613 56.2303 68.7613C56.4859 68.7298 56.7446 68.788 56.962 68.926C57.1795 69.0639 57.3424 69.2731 57.4229 69.5178C58.037 70.8172 58.7312 72.0721 59.3542 73.3626C59.6758 73.9496 59.8367 74.6111 59.8206 75.2803C59.8045 75.9494 59.6119 76.6024 59.2624 77.1733C58.9128 77.7441 58.4187 78.2125 57.83 78.531C57.2413 78.8496 56.579 79.007 55.9099 78.9874C48.3034 78.9874 40.6968 78.9874 33.0903 78.9874C32.4222 79.0042 31.7615 78.8451 31.1744 78.5258C30.5873 78.2066 30.0945 77.7385 29.7455 77.1686C29.3965 76.5987 29.2036 75.9469 29.1861 75.2789C29.1687 74.6108 29.3273 73.9499 29.646 73.3626C30.3135 72.0009 31.0433 70.6926 31.693 69.3042C31.7669 69.1332 31.8924 68.9898 32.0521 68.894C32.2118 68.7982 32.3974 68.7549 32.583 68.7701C36.6058 68.7701 40.593 68.7613 44.5802 68.7613Z" fill="white"/>
<path id="Vector_3" d="M65.5752 39.3825H56.2391C55.3491 39.3825 54.824 38.9642 54.735 38.27C54.7126 38.078 54.7337 37.8834 54.7966 37.7006C54.8596 37.5178 54.9628 37.3515 55.0986 37.2139C55.2345 37.0764 55.3995 36.9711 55.5815 36.9059C55.7635 36.8407 55.9578 36.8172 56.1501 36.8371C57.5652 36.8371 58.9714 36.8371 60.3865 36.8371C65.1747 36.8371 69.9629 36.8371 74.7511 36.8371C75.1659 36.7966 75.5811 36.9107 75.917 37.1575C76.2188 37.5302 76.3625 38.0062 76.3175 38.4836C76.2196 39.1244 75.65 39.3736 74.9914 39.3736H65.5752V39.3825Z" fill="white"/>
<path id="Vector_4" d="M65.6285 43.2183C68.6812 43.2183 71.7428 43.2183 74.8044 43.2183C75.2458 43.2005 75.6788 43.3427 76.0237 43.6188C76.1628 43.7824 76.2618 43.9762 76.3128 44.1848C76.3637 44.3934 76.3653 44.611 76.3174 44.8203C76.0683 45.2293 75.6891 45.5427 75.2405 45.7103C74.8762 45.7827 74.5012 45.7827 74.1369 45.7103H56.6662C56.4526 45.7103 56.239 45.7103 56.0254 45.7103C55.6944 45.7154 55.3743 45.5922 55.1321 45.3666C54.8899 45.141 54.7444 44.8304 54.726 44.4999C54.7231 44.3258 54.7564 44.1531 54.8239 43.9926C54.8913 43.8321 54.9915 43.6874 55.1178 43.5677C55.2442 43.4481 55.3942 43.356 55.5581 43.2973C55.722 43.2387 55.8963 43.2148 56.0699 43.2272C57.6096 43.2272 59.1493 43.2272 60.6979 43.2272L65.6285 43.2183Z" fill="white"/>
<path id="Vector_5" d="M65.5751 49.6084C68.6901 49.6084 71.8051 49.6084 74.9112 49.6084C75.8012 49.6084 76.3708 50.0623 76.4242 50.801C76.4314 50.9875 76.3987 51.1734 76.3281 51.3462C76.2575 51.519 76.1508 51.6747 76.015 51.8029C75.8793 51.931 75.7177 52.0286 75.5412 52.0891C75.3646 52.1497 75.1771 52.1717 74.9913 52.1538C73.6296 52.1538 72.2768 52.1538 70.9151 52.1538C66.0735 52.1538 61.2319 52.1538 56.3903 52.1538C55.9755 52.1943 55.5603 52.0802 55.2244 51.8334C54.9243 51.4599 54.7808 50.9845 54.8239 50.5073C54.9218 49.8576 55.5003 49.6173 56.1589 49.6173H65.5751V49.6084Z" fill="white"/>
<path id="Vector_6" d="M56.3191 24.0304C57.3693 25.4366 58.375 26.7716 59.3718 28.1155C59.9859 28.9432 59.9503 29.6641 59.3095 30.1536C58.6687 30.6431 57.9567 30.4651 57.3426 29.6463C56.1678 28.1066 55.0197 26.5402 53.8449 25.0005C53.5972 24.7365 53.4592 24.388 53.4592 24.0259C53.4592 23.6638 53.5972 23.3154 53.8449 23.0514C55.0286 21.5117 56.1767 19.9453 57.3426 18.3967C57.9567 17.5868 58.6687 17.4177 59.3184 17.925C59.9681 18.4323 59.977 19.1176 59.3985 19.9008C58.4017 21.2892 57.3782 22.642 56.3191 24.0304Z" fill="white"/>
<path id="Vector_7" d="M73.5496 24.0296C72.5083 22.6412 71.5115 21.2973 70.5147 19.9534C69.8917 19.1257 69.9095 18.4137 70.5147 17.9242C71.1199 17.4347 71.8942 17.5949 72.5439 18.4582L75.9348 22.9883C76.5756 23.8783 76.5756 24.2076 75.9348 25.0531C74.7956 26.5898 73.6475 28.1236 72.4905 29.6544C71.8764 30.4643 71.1644 30.6334 70.5236 30.1439C69.8828 29.6544 69.8561 28.9424 70.4702 28.1147L73.5496 24.0296Z" fill="white"/>
<path id="Vector_8" d="M67.4797 19.1168L66.8745 21.5198C66.2456 24.0652 65.6107 26.6106 64.9699 29.156C64.7207 30.135 64.0799 30.5978 63.359 30.4109C62.6381 30.224 62.2643 29.5209 62.469 28.5686C63.2759 25.2934 64.0888 22.0301 64.9076 18.7786C64.9582 18.4439 65.1391 18.1428 65.4109 17.941C65.6827 17.7393 66.0233 17.6532 66.3583 17.7017C66.6876 17.7562 66.9848 17.9313 67.192 18.1929C67.3993 18.4544 67.5019 18.7838 67.4797 19.1168Z" fill="white"/>
<path id="Vector_9" d="M29.1564 16.3935H42.8803C43.2735 16.3438 43.673 16.3849 44.0478 16.5139C44.4226 16.6428 44.7629 16.8561 45.0423 17.1372C45.3218 17.4184 45.5329 17.7599 45.6596 18.1356C45.7862 18.5112 45.8249 18.9109 45.7728 19.3038C45.7728 23.3266 45.7728 27.3465 45.7728 31.3633C45.8231 31.7559 45.7831 32.1549 45.6558 32.5296C45.5286 32.9044 45.3174 33.2452 45.0383 33.526C44.7593 33.8067 44.4198 34.02 44.0458 34.1496C43.6718 34.2792 43.2732 34.3216 42.8803 34.2736H15.4238C15.0366 34.3164 14.6448 34.2713 14.2775 34.1417C13.9102 34.0121 13.5768 33.8013 13.3022 33.525C13.0277 33.2488 12.819 32.9141 12.6916 32.546C12.5643 32.1779 12.5217 31.7858 12.5669 31.3989V19.2682C12.5199 18.881 12.5614 18.4882 12.6881 18.1193C12.8148 17.7504 13.0234 17.415 13.2984 17.1383C13.5734 16.8616 13.9074 16.6509 14.2756 16.5219C14.6437 16.3929 15.0362 16.349 15.4238 16.3935H29.1564Z" fill="white"/>
<path id="Vector_10" d="M12.5668 44.4996C12.5668 42.8531 12.5668 41.2066 12.5668 39.5512C12.5461 39.1952 12.601 38.8388 12.7279 38.5055C12.8547 38.1721 13.0507 37.8695 13.3029 37.6173C13.5551 37.3651 13.8578 37.1691 14.1911 37.0423C14.5244 36.9154 14.8808 36.8605 15.2368 36.8812C18.5654 36.8812 21.8851 36.8812 25.2137 36.8812C25.5694 36.8619 25.9252 36.9178 26.2578 37.0452C26.5905 37.1725 26.8926 37.3685 27.1445 37.6204C27.3964 37.8723 27.5924 38.1744 27.7198 38.5071C27.8471 38.8398 27.903 39.1955 27.8837 39.5512C27.8837 42.8679 27.8837 46.1936 27.8837 49.5281C27.903 49.8838 27.8471 50.2396 27.7198 50.5722C27.5924 50.9049 27.3964 51.207 27.1445 51.4589C26.8926 51.7108 26.5905 51.9068 26.2578 52.0342C25.9252 52.1615 25.5694 52.2174 25.2137 52.1981C21.8673 52.1981 18.515 52.1981 15.1567 52.1981C14.8058 52.2098 14.4563 52.1483 14.1304 52.0174C13.8046 51.8865 13.5096 51.6892 13.2643 51.438C13.0189 51.1868 12.8286 50.8872 12.7055 50.5584C12.5823 50.2296 12.529 49.8787 12.549 49.5281C12.5579 47.846 12.5668 46.1728 12.5668 44.4996Z" fill="white"/>
<path id="Vector_11" d="M30.4468 44.4998C30.4468 42.8711 30.4468 41.2513 30.4468 39.6315C30.4145 39.2638 30.4629 38.8934 30.5885 38.5463C30.7141 38.1992 30.914 37.8837 31.1742 37.6218C31.4344 37.3599 31.7486 37.158 32.0949 37.0301C32.4411 36.9022 32.8112 36.8515 33.1791 36.8814C36.4721 36.8814 39.774 36.8814 43.0759 36.8814C43.4316 36.8621 43.7874 36.918 44.12 37.0453C44.4527 37.1727 44.7548 37.3687 45.0067 37.6206C45.2586 37.8725 45.4546 38.1746 45.5819 38.5073C45.7093 38.8399 45.7652 39.1957 45.7459 39.5514C45.7459 42.8563 45.7459 46.1582 45.7459 49.4571C45.7638 49.8124 45.7069 50.1676 45.5791 50.4996C45.4512 50.8316 45.2552 51.1332 45.0036 51.3848C44.752 51.6364 44.4505 51.8324 44.1184 51.9603C43.7864 52.0881 43.4313 52.145 43.0759 52.1271C39.7473 52.1271 36.4187 52.1271 33.099 52.1271C32.7433 52.1464 32.3875 52.0905 32.0549 51.9631C31.7222 51.8358 31.4201 51.6398 31.1682 51.3879C30.9163 51.136 30.7203 50.8339 30.593 50.5012C30.4656 50.1685 30.4097 49.8128 30.429 49.4571C30.4379 47.8017 30.4468 46.1285 30.4468 44.4998Z" fill="white"/>
</g>
</svg>
