<svg width="90" height="90" viewBox="0 0 90 90" fill="none" xmlns="http://www.w3.org/2000/svg">
<g id="Artboard 1 copy 4 3">
<path id="Vector" d="M45.0001 14.3996V20.0876L43.1461 20.1776V67.9496H10.9801C8.28007 67.9496 6.76807 66.4286 6.76807 63.7286C6.76807 48.6986 6.76807 33.6746 6.76807 18.6566C6.76807 15.9116 8.28907 14.3906 11.0431 14.3906H45.0001V14.3996ZM12.6001 20.1686V46.8716H23.8861L24.0841 45.9716H37.2961C37.5443 45.9716 37.7824 45.873 37.9579 45.6975C38.1335 45.5219 38.2321 45.2839 38.2321 45.0356C38.2321 44.7874 38.1335 44.5493 37.9579 44.3738C37.7824 44.1982 37.5443 44.0996 37.2961 44.0996H24.0481V38.3216H25.2001C26.6671 38.3216 28.1251 38.3216 29.5921 38.3216C30.2041 38.3216 30.7261 38.0246 30.6361 37.4216C30.5821 37.0616 30.1321 36.7286 29.7901 36.4676C29.6371 36.3506 29.3311 36.4676 29.0881 36.4676H24.0391V30.6536H36.7201C36.9631 30.6536 37.2691 30.7436 37.4311 30.6536C37.7551 30.4286 38.2591 30.0686 38.2321 29.7536C38.2051 29.4386 37.7911 29.0336 37.4581 28.7726C37.2871 28.6376 36.9361 28.7186 36.6661 28.7186H23.9401V20.1686H12.6001ZM25.9201 59.3456H16.2001C15.5971 59.3456 15.0031 59.3456 14.4001 59.3456C13.7971 59.3456 13.3561 59.7326 13.5001 60.2996C13.5721 60.6596 14.0221 60.9746 14.4001 61.1996C14.5531 61.3166 14.8591 61.1996 15.1021 61.1996H36.7021C37.0081 61.1996 37.3771 61.2806 37.6021 61.1366C37.8271 60.9926 38.3221 60.4976 38.3041 60.1826C38.2861 59.8676 37.8271 59.5436 37.4941 59.2826C37.3321 59.1656 37.0351 59.2826 36.7921 59.2826L25.9201 59.3456ZM33.5971 21.1136H29.8981C29.2321 21.1136 28.7551 21.3566 28.7641 22.0586C28.7731 22.7606 29.2501 22.9586 29.9161 22.9586C32.3161 22.9586 34.7161 22.9586 37.1161 22.9586C37.7821 22.9586 38.2501 22.7156 38.2501 22.0046C38.2501 21.2936 37.7551 21.1046 37.0981 21.1046C35.9461 21.1226 34.7491 21.1136 33.5611 21.1136H33.5971Z" fill="white"/>
<path id="Vector_2" d="M45.0449 75.5998V22.0498H78.9389C81.7469 22.0498 83.2319 23.5438 83.2319 26.3698C83.2319 41.3398 83.2319 56.3068 83.2319 71.2708C83.2319 74.0878 81.7289 75.6088 78.9389 75.6088H45.9539C45.6659 75.5998 45.3779 75.5998 45.0449 75.5998ZM62.2709 59.3998V45.9448H67.8689C68.5169 45.9448 68.8949 45.6388 68.8679 44.9638C68.8409 44.2888 68.4629 44.0638 67.8689 44.0638H62.2709V38.3218H67.6709C68.3459 38.3218 68.8769 38.1148 68.8589 37.3138C68.8409 36.5128 68.3369 36.4138 67.6979 36.4138C67.3919 36.4138 67.0949 36.4138 66.7979 36.4138H62.2979V30.6538H74.8979C75.1679 30.6538 75.5009 30.7438 75.6899 30.6538C76.0229 30.4288 76.4729 30.0868 76.4909 29.7538C76.5089 29.4208 76.0949 29.0428 75.7799 28.8538C75.4649 28.6648 75.2039 28.7908 74.8799 28.7908H62.2799L62.1089 27.8908H50.8049V62.1628H62.0999L62.2799 61.2628H63.4049C67.2929 61.2628 71.1719 61.2628 75.1049 61.2628C75.7979 61.2628 76.4729 61.2628 76.5539 60.3628C76.6079 59.6878 76.1309 59.3818 75.0779 59.3818H62.2709V59.3998ZM64.1879 67.0588H53.3879C53.0909 67.0588 52.7309 66.9778 52.4879 67.1128C52.2449 67.2478 51.7499 67.6888 51.7679 67.9588C51.7859 68.2288 52.1999 68.6248 52.4969 68.8588C52.6139 68.9668 52.9019 68.9038 53.1089 68.9038H75.1229C75.3659 68.9038 75.6809 68.9758 75.8249 68.8498C76.1129 68.6158 76.4999 68.2648 76.4999 67.9498C76.4999 67.6348 76.1219 67.2748 75.8159 67.0498C75.5099 66.8248 75.2399 66.9868 74.9159 66.9868L64.1879 67.0588ZM71.8469 53.6578C73.0079 53.6578 74.1689 53.6578 75.3299 53.6578C76.0229 53.6578 76.5449 53.4238 76.5359 52.6678C76.5269 51.9118 75.9959 51.7678 75.3569 51.7678H68.2109C67.5449 51.7678 67.0049 51.9748 67.0319 52.7668C67.0589 53.5588 67.6169 53.6668 68.2739 53.6668C69.4619 53.5948 70.6589 53.6038 71.8469 53.6038V53.6578Z" fill="white"/>
<path id="Vector_3" d="M14.3999 44.9463V22.1133H21.9689V44.9463H14.3999Z" fill="white"/>
<path id="Vector_4" d="M52.7219 29.7627H60.2279V60.2097H52.7219V29.7627Z" fill="white"/>
</g>
</svg>
