<svg width="58" height="37" viewBox="0 0 58 37" fill="none" xmlns="http://www.w3.org/2000/svg">
<g id="delevery 1" clip-path="url(#clip0_2512_4725)">
<g id="Group 38967">
<path id="Vector" d="M1.16626 17.735C1.28489 17.4086 1.50928 17.1323 1.80298 16.9509C2.09668 16.7696 2.44246 16.6938 2.78415 16.736C7.82303 16.736 12.8578 16.736 17.8886 16.736C18.4991 16.736 19.1096 16.847 19.3355 17.4822C19.4759 17.8005 19.5381 18.1484 19.5169 18.4963C19.4956 18.8441 19.3915 19.1817 19.2134 19.4802C19.056 19.6826 18.848 19.839 18.6108 19.9332C18.3737 20.0275 18.116 20.0563 17.8642 20.0167H10.4768C7.9431 20.0167 5.40331 20.0167 2.86963 20.0167C2.52062 20.0665 2.16507 19.9994 1.85741 19.8256C1.54976 19.6519 1.30698 19.3811 1.16626 19.0547V17.735Z" fill="white"/>
<path id="Vector_2" d="M53.2381 31.0793C53.0361 30.0653 52.7607 29.0677 52.4139 28.0946C51.8244 26.7912 50.8187 25.7255 49.5579 25.0686C48.2971 24.4116 46.8545 24.2013 45.4612 24.4715C44.068 24.7417 42.805 25.4767 41.8749 26.5587C40.9447 27.6406 40.4012 29.0067 40.3316 30.4379C40.3316 30.9683 40.1179 31.1101 39.6112 31.1039C35.7526 31.1039 31.8941 31.1039 28.0112 31.1039C27.2602 31.1039 27.2602 31.1039 27.1992 30.3331C27.0907 28.7791 26.4271 27.3178 25.3317 26.2211C24.2363 25.1244 22.7837 24.467 21.2443 24.3713C19.7049 24.2755 18.1834 24.7479 16.9631 25.7005C15.7427 26.6531 14.9065 28.0211 14.6101 29.5499C14.5461 29.8917 14.5093 30.2382 14.5002 30.5859C14.5002 30.9621 14.3048 31.1039 13.9507 31.1039C13.4806 31.1039 13.0105 31.1039 12.5404 31.1039C12.1615 31.11 11.7854 31.0382 11.4349 30.8926C11.0845 30.7471 10.767 30.531 10.5019 30.2575C10.2369 29.984 10.0297 29.6588 9.89315 29.3018C9.75658 28.9448 9.69344 28.5634 9.70759 28.1809C9.66485 26.2261 9.70759 24.2651 9.70759 22.3103C9.70759 21.6073 10.0556 21.3113 10.8432 21.2866C11.527 21.2866 12.2168 21.2866 12.9067 21.2866C15.4404 21.2866 17.9802 21.2866 20.5139 21.2866C21.1288 21.3023 21.7269 21.083 22.1887 20.6726C22.6505 20.2621 22.942 19.6908 23.0048 19.0728C23.243 17.3338 22.608 16.0511 21.271 15.6564C20.8863 15.5561 20.4897 15.5104 20.0926 15.5208C17.1011 15.5208 14.1156 15.5208 11.124 15.5208C10.8941 15.5006 10.6657 15.4656 10.4402 15.4159C10.3394 15.4137 10.2401 15.3907 10.1484 15.3483C10.0567 15.3059 9.97459 15.245 9.9071 15.1693C9.83961 15.0936 9.78817 15.0048 9.75596 14.9083C9.72375 14.8118 9.71144 14.7096 9.7198 14.6081C9.7198 14.4601 9.7198 14.3183 9.7198 14.1703C9.7198 13.3501 9.90295 13.1774 10.7211 13.1774H24.7632C25.4113 13.2174 26.0546 13.042 26.5947 12.6779C27.6571 11.9071 27.8158 10.5628 27.4861 9.13825C27.3236 8.59992 26.9836 8.13392 26.5228 7.8176C26.0619 7.50129 25.5078 7.35367 24.9524 7.39925C20.2839 7.39925 15.6032 7.39925 10.9103 7.39925C9.86022 7.39925 9.68927 7.22659 9.68927 6.16592C9.68927 5.58009 9.68927 4.99425 9.68927 4.40842C9.64554 3.72354 9.85575 3.04673 10.279 2.50982C10.7022 1.97291 11.3081 1.61433 11.9787 1.50392C12.6142 1.3611 13.2631 1.28873 13.9141 1.28809C22.4615 1.28809 31.0089 1.28809 39.5562 1.28809C41.632 1.28809 42.6088 2.24392 42.6088 4.33442C42.6088 5.50609 42.6088 6.67775 42.6088 7.84942C42.6088 8.50309 42.7248 8.61409 43.372 8.61409C44.239 8.61409 45.1059 8.61409 45.979 8.61409C46.9274 8.5884 47.8623 8.84474 48.6677 9.35125C49.4731 9.85776 50.1134 10.5921 50.5091 11.4631C51.1745 12.7766 51.8583 14.0963 52.4444 15.4468C52.6877 16.0295 53.0658 16.5447 53.5471 16.9493C54.0283 17.3538 54.5986 17.6358 55.2101 17.7716C55.7352 17.9073 56.2541 18.0861 56.7792 18.1971C57.3485 18.2979 57.8672 18.5906 58.2508 19.0273C58.6344 19.464 58.8603 20.0191 58.8916 20.6021C59.0067 21.397 59.076 22.1979 59.0992 23.0009C59.0992 24.7029 59.0992 26.4049 59.0992 28.1069C59.1249 28.4833 59.0746 28.861 58.9512 29.2171C58.8278 29.5731 58.634 29.9002 58.3816 30.1782C58.1292 30.4562 57.8234 30.6795 57.4828 30.8344C57.1423 30.9893 56.7741 31.0726 56.4006 31.0793C55.3505 31.1409 54.2455 31.0793 53.2381 31.0793ZM51.3577 17.7038C50.5579 16.0819 49.8192 14.5649 49.0621 13.0479C48.7157 12.3103 48.1693 11.687 47.4864 11.2504C46.8034 10.8138 46.0118 10.5818 45.2036 10.5813C44.5931 10.5813 43.9337 10.5813 43.2987 10.5813C42.8286 10.5813 42.6272 10.7169 42.6333 11.2411C42.6333 13.1959 42.6333 15.1569 42.6333 17.1118C42.6333 17.7284 42.7187 17.8271 43.3659 17.8333H50.6556C50.8919 17.8041 51.1264 17.7609 51.3577 17.7038Z" fill="white"/>
<path id="Vector_3" d="M14.2191 11.9263H5.96479C5.35427 11.9263 4.79869 11.8338 4.54837 11.2295C4.40756 10.9165 4.34086 10.5746 4.35358 10.231C4.3663 9.88742 4.45807 9.55155 4.62163 9.25001C4.7618 9.03087 4.9608 8.85652 5.19539 8.74733C5.42998 8.63814 5.69048 8.5986 5.94648 8.63334H22.2842C23.7983 8.63334 24.4759 9.62001 23.9692 11.1C23.8654 11.367 23.6779 11.5923 23.4353 11.7415C23.1928 11.8907 22.9086 11.9556 22.6261 11.9263H14.2191Z" fill="white"/>
<path id="Vector_4" d="M49.2206 30.833C49.2205 31.8108 48.9328 32.7666 48.3939 33.5789C47.855 34.3912 47.0893 35.0234 46.194 35.3953C45.2987 35.7672 44.3141 35.862 43.3654 35.6676C42.4166 35.4732 41.5465 34.9985 40.8654 34.3036C40.1843 33.6087 39.723 32.725 39.5401 31.7648C39.3572 30.8046 39.4609 29.8112 39.8381 28.9107C40.2153 28.0101 40.8489 27.2431 41.6585 26.707C42.4681 26.1709 43.4172 25.8899 44.3852 25.8997C45.6721 25.9127 46.9019 26.4382 47.8073 27.3619C48.7128 28.2857 49.2206 29.5331 49.2206 30.833ZM44.2631 32.9173C44.5443 32.9297 44.8252 32.8853 45.0893 32.7868C45.3534 32.6883 45.5954 32.5376 45.8012 32.3436C46.0069 32.1495 46.1723 31.916 46.2877 31.6566C46.4031 31.3973 46.4662 31.1173 46.4732 30.833C46.4768 30.2704 46.2633 29.7286 45.8781 29.3222C45.4929 28.9159 44.9662 28.677 44.4096 28.6562C43.8536 28.6379 43.313 28.8432 42.9067 29.227C42.5003 29.6109 42.2614 30.1419 42.2423 30.7035C42.2266 30.9839 42.2669 31.2647 42.3608 31.529C42.4547 31.7934 42.6002 32.0361 42.7887 32.2425C42.9771 32.449 43.2048 32.6152 43.4581 32.7311C43.7114 32.847 43.9851 32.9103 44.2631 32.9173Z" fill="white"/>
<path id="Vector_5" d="M23.4503 30.8327C23.4503 31.8085 23.1639 32.7623 22.6272 33.5736C22.0905 34.3848 21.3277 35.0172 20.4352 35.3906C19.5427 35.7639 18.5607 35.8616 17.6132 35.6713C16.6658 35.4809 15.7955 35.0111 15.1124 34.3211C14.4294 33.6312 13.9642 32.7522 13.7757 31.7952C13.5873 30.8382 13.684 29.8463 14.0537 28.9448C14.4233 28.0434 15.0494 27.2729 15.8526 26.7308C16.6558 26.1887 17.6001 25.8994 18.5661 25.8994C19.857 25.9138 21.0911 26.4382 22.004 27.3603C22.9169 28.2824 23.436 29.5288 23.4503 30.8327ZM18.5661 32.9541C18.9856 32.9528 19.3953 32.8258 19.7433 32.5891C20.0913 32.3524 20.3618 32.0167 20.5207 31.6245C20.6795 31.2323 20.7195 30.8013 20.6356 30.3862C20.5517 29.971 20.3476 29.5903 20.0493 29.2924C19.7509 28.9946 19.3717 28.7928 18.9597 28.7129C18.5477 28.6329 18.1215 28.6783 17.7351 28.8433C17.3487 29.0082 17.0195 29.2854 16.7891 29.6396C16.5588 29.9938 16.4378 30.409 16.4415 30.8327C16.4511 31.3938 16.6798 31.9282 17.0777 32.3198C17.4756 32.7113 18.0106 32.9282 18.5661 32.9232V32.9541Z" fill="white"/>
</g>
</g>
<defs>
<clipPath id="clip0_2512_4725">
<rect width="58" height="37" fill="white"/>
</clipPath>
</defs>
</svg>
