<svg width="84" height="84" viewBox="0 0 84 84" fill="none" xmlns="http://www.w3.org/2000/svg">
<g id="Artboard 1 copy 3 3">
<path id="Vector" d="M25.6536 6.50195H58.3715C58.5311 6.50195 58.6824 6.59435 58.8335 6.61115C62.979 7.02797 66.9022 8.68616 70.0899 11.3688C73.2777 14.0515 75.5816 17.6338 76.7003 21.6472C77.0699 22.9492 77.2463 24.3016 77.5403 25.6288V58.3467C77.4865 58.5201 77.4444 58.6969 77.4144 58.8759C76.892 63.8964 74.556 68.5539 70.8444 71.9747C67.1328 75.3956 62.3007 77.3448 57.2544 77.4567C47.1744 77.5407 37.0187 77.4567 26.9051 77.4567C23.8631 77.4628 20.866 76.7215 18.1776 75.298C10.6007 71.3247 6.64435 65.05 6.55195 56.5324C6.44275 46.948 6.55195 37.3636 6.55195 27.7708C6.55195 26.9308 6.59395 26.0908 6.66955 25.2508C7.06905 21.1079 8.70776 17.1817 11.3719 13.984C14.0361 10.7864 17.6021 8.4659 21.6048 7.32515C22.932 6.96395 24.3012 6.77075 25.6536 6.50195ZM41.9412 68.3259H62.3867C66.7967 68.3259 69.7367 65.3944 69.7451 61.0012V22.9492C69.7974 21.9754 69.6439 21.0015 69.2945 20.091C68.945 19.1806 68.4076 18.354 67.7173 17.6653C67.0269 16.9765 66.1991 16.441 65.2879 16.0937C64.3766 15.7464 63.4024 15.595 62.4287 15.6496H21.6048C17.2452 15.6496 14.2884 18.598 14.2884 22.9408V60.9927C14.2884 65.3859 17.2368 68.3259 21.6384 68.3259H41.9412Z" fill="white"/>
<path id="Vector_2" d="M68.3509 28.0892H15.7249C15.6994 27.9194 15.6825 27.7483 15.6745 27.5768C15.6745 25.8968 15.6745 24.2168 15.6745 22.5872C15.6689 21.8569 15.8087 21.1328 16.0859 20.457C16.363 19.7813 16.7719 19.1676 17.2888 18.6515C17.8056 18.1355 18.42 17.7275 19.0961 17.4514C19.7722 17.1752 20.4966 17.0365 21.2269 17.0432C35.0869 17.0432 48.9469 17.0432 62.8069 17.0432C63.5315 17.0388 64.2499 17.1775 64.9208 17.4515C65.5917 17.7255 66.2018 18.1294 66.7161 18.6398C67.2305 19.1503 67.639 19.7573 67.9181 20.4261C68.1972 21.0948 68.3414 21.8121 68.3425 22.5368C68.3761 24.3596 68.3509 26.216 68.3509 28.0892ZM53.4577 25.3508C56.7085 25.3508 59.9677 25.3508 63.2185 25.3508C63.9514 25.3508 64.6544 25.0596 65.1726 24.5414C65.6909 24.0231 65.9821 23.3202 65.9821 22.5872C65.9821 21.8542 65.6909 21.1513 65.1726 20.633C64.6544 20.1148 63.9514 19.8236 63.2185 19.8236C56.7589 19.8236 50.2909 19.8236 43.8313 19.8236C43.3771 19.8293 42.9312 19.9466 42.533 20.165C42.1347 20.3835 41.7962 20.6965 41.5473 21.0765C41.2984 21.4565 41.1467 21.8918 41.1056 22.3442C41.0644 22.7966 41.1351 23.2521 41.3113 23.6708C41.5079 24.1758 41.8552 24.608 42.3061 24.9085C42.757 25.2091 43.2895 25.3636 43.8313 25.3508C47.0401 25.3676 50.2489 25.3508 53.4577 25.3508ZM22.8817 25.3508C23.5957 25.3508 24.3181 25.3508 25.0321 25.3508C25.765 25.3508 26.468 25.0596 26.9862 24.5414C27.5045 24.0231 27.7957 23.3202 27.7957 22.5872C27.7957 21.8542 27.5045 21.1513 26.9862 20.633C26.468 20.1148 25.765 19.8236 25.0321 19.8236C23.6041 19.79 22.1761 19.79 20.7481 19.8236C20.0151 19.8236 19.3122 20.1148 18.7939 20.633C18.2756 21.1513 17.9845 21.8542 17.9845 22.5872C17.9845 23.3202 18.2756 24.0231 18.7939 24.5414C19.3122 25.0596 20.0151 25.3508 20.7481 25.3508C21.4537 25.3676 22.1677 25.3508 22.8817 25.3508ZM34.4149 25.3508C35.1037 25.3508 35.8009 25.3508 36.4897 25.3508C37.1974 25.3118 37.8633 25.0032 38.3505 24.4884C38.8376 23.9736 39.1091 23.2918 39.1091 22.583C39.1091 21.8742 38.8376 21.1924 38.3505 20.6776C37.8633 20.1628 37.1974 19.8542 36.4897 19.8152C35.0785 19.8152 33.6757 19.8152 32.2897 19.8152C31.582 19.8542 30.9161 20.1628 30.4289 20.6776C29.9417 21.1924 29.6702 21.8742 29.6702 22.583C29.6702 23.2918 29.9417 23.9736 30.4289 24.4884C30.9161 25.0032 31.582 25.3118 32.2897 25.3508C32.9869 25.3676 33.7009 25.3508 34.4401 25.3508H34.4149Z" fill="white"/>
<path id="Vector_3" d="M15.6743 29.5264H68.3591V30.2404C68.3591 40.522 68.3591 50.8036 68.3591 61.0852C68.4075 61.8649 68.2906 62.6461 68.016 63.3774C67.7413 64.1088 67.3153 64.7739 66.7656 65.3291C66.216 65.8843 65.5552 66.317 64.8266 66.599C64.098 66.8809 63.3181 67.0057 62.5379 66.9652C48.8627 66.9652 35.1875 66.9652 21.5123 66.9652C20.7411 67.0056 19.97 66.8845 19.2483 66.6096C18.5266 66.3347 17.8703 65.9121 17.3215 65.3688C16.7726 64.8255 16.3434 64.1735 16.0612 63.4547C15.779 62.7358 15.6501 61.9659 15.6827 61.1944V29.5264H15.6743ZM17.0603 30.9292V60.976C17.0603 63.8572 18.7403 65.554 21.6131 65.554H62.3699C65.2847 65.554 66.9647 63.874 66.9731 60.9592V30.9292H17.0603Z" fill="white"/>
<path id="Vector_4" d="M53.5919 21.1933C56.7083 21.1933 59.8247 21.1933 62.9411 21.1933C63.3918 21.1855 63.8303 21.3406 64.1759 21.6301C64.4502 22.0086 64.573 22.476 64.5203 22.9405C64.4736 23.2062 64.3389 23.4485 64.1377 23.6283C63.9366 23.8081 63.6808 23.915 63.4115 23.9317C63.2046 23.9486 62.9967 23.9486 62.7899 23.9317H43.8227C43.4615 23.9297 43.1152 23.7876 42.8566 23.5353C42.5981 23.2831 42.4476 22.9403 42.4367 22.5793C42.4322 22.3941 42.465 22.21 42.5333 22.0378C42.6015 21.8657 42.7038 21.709 42.834 21.5773C42.9641 21.4456 43.1195 21.3414 43.2908 21.2711C43.4622 21.2008 43.6459 21.1658 43.8311 21.1681C44.9399 21.1681 46.0487 21.1681 47.1911 21.1681L53.5919 21.1933Z" fill="white"/>
<path id="Vector_5" d="M22.8983 21.1932C23.5703 21.1932 24.2339 21.1932 24.9059 21.1932C25.2713 21.1932 25.6217 21.3383 25.8801 21.5967C26.1384 21.855 26.2835 22.2054 26.2835 22.5708C26.2835 22.9361 26.1384 23.2865 25.8801 23.5449C25.6217 23.8032 25.2713 23.9484 24.9059 23.9484C23.5451 23.9484 22.1843 23.9484 20.8319 23.9484C20.4666 23.9484 20.1162 23.8032 19.8578 23.5449C19.5995 23.2865 19.4543 22.9361 19.4543 22.5708C19.4543 22.2054 19.5995 21.855 19.8578 21.5967C20.1162 21.3383 20.4666 21.1932 20.8319 21.1932C21.5627 21.1848 22.2347 21.1932 22.8983 21.1932Z" fill="white"/>
<path id="Vector_6" d="M34.44 21.1929C35.0868 21.1929 35.7336 21.1929 36.3804 21.1929C36.7458 21.1929 37.0962 21.3381 37.3545 21.5964C37.6129 21.8548 37.758 22.2052 37.758 22.5705C37.758 22.9359 37.6129 23.2863 37.3545 23.5446C37.0962 23.803 36.7458 23.9481 36.3804 23.9481C35.0448 23.9481 33.7092 23.9481 32.382 23.9481C32.1916 23.9586 32.0011 23.9296 31.8224 23.863C31.6437 23.7965 31.4806 23.6938 31.3435 23.5613C31.2063 23.4288 31.0979 23.2695 31.0251 23.0932C30.9523 22.917 30.9167 22.7276 30.9204 22.5369C30.9357 22.1641 31.0981 21.8124 31.372 21.559C31.6459 21.3055 32.0091 21.1709 32.382 21.1845H34.44V21.1929Z" fill="white"/>
<path id="Vector_7" d="M65.5871 32.332V60.934C65.5871 63.1012 64.5203 64.168 62.3615 64.168H21.6719C19.5131 64.168 18.4463 63.1012 18.4463 60.934V32.332H65.5871ZM36.2963 58.3132C36.2276 59.1935 36.4915 60.0674 37.0358 60.7626C37.5801 61.4577 38.3653 61.9236 39.2363 62.068C40.0635 62.1906 40.9067 62.0002 41.6011 61.5342C42.2954 61.0682 42.7911 60.36 42.9911 59.548C44.5703 52.548 46.1299 45.548 47.6699 38.548C47.779 38.0997 47.7946 37.6337 47.7157 37.1791C47.6369 36.7245 47.4652 36.291 47.2114 35.9056C46.9577 35.5202 46.6273 35.1912 46.2408 34.9392C45.8543 34.6871 45.4201 34.5173 44.9651 34.4404C43.0667 34.054 41.3867 35.2804 40.9163 37.3972C39.6843 42.9972 38.4439 48.5776 37.1951 54.1384C36.8675 55.6336 36.5483 57.1204 36.2963 58.3132ZM30.9791 48.6112C31.2287 48.4635 31.4674 48.2978 31.6931 48.1156C32.7095 47.116 33.7511 46.1248 34.7087 45.0664C35.2894 44.4099 35.595 43.555 35.5622 42.6791C35.5294 41.8032 35.1605 40.9736 34.5323 40.3624C33.9223 39.731 33.0894 39.3634 32.2119 39.3383C31.3343 39.3132 30.4818 39.6325 29.8367 40.228C27.7199 42.2608 25.6451 44.3328 23.6123 46.444C23.0399 47.0505 22.721 47.8529 22.721 48.6868C22.721 49.5208 23.0399 50.3232 23.6123 50.9296C25.6535 53.0632 27.7283 55.1716 29.8787 57.196C30.5714 57.6766 31.416 57.887 32.2532 57.7877C33.0904 57.6884 33.8623 57.2862 34.4234 56.6569C34.9844 56.0277 35.2959 55.2149 35.2989 54.3718C35.3019 53.5288 34.9964 52.7137 34.4399 52.0804C33.3647 50.9548 32.2475 49.8628 30.9791 48.6112ZM52.8863 48.6112L52.8023 48.8044C51.7103 49.9048 50.6099 50.9968 49.5599 52.0804C49.2311 52.3977 48.9684 52.7769 48.787 53.1962C48.6055 53.6155 48.5089 54.0666 48.5026 54.5234C48.4964 54.9803 48.5806 55.4338 48.7506 55.8579C48.9205 56.282 49.1727 56.6683 49.4927 56.9944C49.8127 57.3294 50.1972 57.5959 50.6232 57.7781C51.0491 57.9602 51.5075 58.0541 51.9707 58.0541C52.4339 58.0541 52.8923 57.9602 53.3182 57.7781C53.7441 57.5959 54.1287 57.3294 54.4487 56.9944C56.3863 55.0792 58.3127 53.1528 60.2279 51.2152C60.5716 50.9004 60.8462 50.5176 61.0339 50.091C61.2217 49.6644 61.3187 49.2033 61.3187 48.7372C61.3187 48.2711 61.2217 47.8101 61.0339 47.3835C60.8462 46.9569 60.5716 46.574 60.2279 46.2592C58.2959 44.2768 56.3219 42.3364 54.3479 40.3792C53.7608 39.7777 52.9696 39.418 52.1303 39.3712C51.4342 39.3281 50.7412 39.4958 50.1418 39.8524C49.5425 40.209 49.0645 40.7381 48.7703 41.3704C48.4624 42.0002 48.3592 42.7106 48.4752 43.402C48.5912 44.0934 48.9205 44.7312 49.4171 45.226C50.5679 46.3684 51.7355 47.4856 52.9199 48.6112H52.8863Z" fill="white"/>
<path id="Vector_8" d="M37.6824 58.4475C37.9008 57.4227 38.1612 56.1879 38.4384 54.9531L42.294 37.6071C42.6216 36.1371 43.8648 35.3895 45.108 35.9271C45.5925 36.1341 45.9806 36.5169 46.1941 36.9985C46.4076 37.4801 46.4307 38.0247 46.2588 38.5227C45.8136 40.5471 45.36 42.5715 44.9148 44.5959C43.8508 49.3615 42.7896 54.1215 41.7312 58.8759C41.6733 59.4128 41.4044 59.9047 40.9838 60.2434C40.5632 60.5821 40.0253 60.7398 39.4884 60.6819C38.9515 60.624 38.4596 60.3552 38.1209 59.9346C37.7822 59.514 37.6245 58.976 37.6824 58.4391V58.4475Z" fill="white"/>
<path id="Vector_9" d="M29.1227 48.72L33.5243 53.1048C33.8142 53.3752 34.0187 53.7243 34.1127 54.1094C34.2068 54.4944 34.1862 54.8985 34.0535 55.272C33.9464 55.6098 33.7542 55.9143 33.4954 56.1564C33.2366 56.3984 32.9199 56.5699 32.5757 56.6542C32.2316 56.7386 31.8715 56.733 31.5301 56.6381C31.1887 56.5431 30.8775 56.362 30.6263 56.112C28.6523 54.1548 26.6867 52.206 24.7463 50.232C24.547 50.0443 24.3881 49.8179 24.2796 49.5665C24.171 49.3151 24.115 49.0442 24.115 48.7704C24.115 48.4966 24.171 48.2257 24.2796 47.9744C24.3881 47.723 24.547 47.4965 24.7463 47.3088C26.6895 45.3376 28.6495 43.3776 30.6263 41.4288C30.8165 41.2338 31.0438 41.0787 31.2948 40.9729C31.5458 40.867 31.8155 40.8125 32.0879 40.8125C32.3603 40.8125 32.63 40.867 32.881 40.9729C33.132 41.0787 33.3593 41.2338 33.5495 41.4288C33.9378 41.8178 34.1559 42.345 34.1559 42.8946C34.1559 43.4443 33.9378 43.9714 33.5495 44.3604C32.1215 45.7548 30.6431 47.1828 29.1227 48.72Z" fill="white"/>
<path id="Vector_10" d="M54.8939 48.7204C53.3903 47.2252 51.9371 45.8056 50.5175 44.3524C50.2446 44.0985 50.0455 43.7754 49.9413 43.4175C49.8371 43.0597 49.8316 42.6802 49.9254 42.3195C50.0193 41.9587 50.209 41.6301 50.4744 41.3684C50.7398 41.1066 51.0711 40.9216 51.4331 40.8328C51.7791 40.7323 52.1463 40.7302 52.4935 40.8266C52.8406 40.9231 53.1541 41.1143 53.3987 41.3788C55.3727 43.336 57.3383 45.2848 59.2787 47.2588C59.4772 47.4479 59.6352 47.6753 59.7432 47.9273C59.8511 48.1792 59.9068 48.4505 59.9068 48.7246C59.9068 48.9987 59.8511 49.27 59.7432 49.522C59.6352 49.7739 59.4772 50.0013 59.2787 50.1904C57.3411 52.1616 55.3811 54.1216 53.3987 56.0704C53.2084 56.2668 52.9806 56.4229 52.7288 56.5295C52.477 56.6361 52.2064 56.6911 51.9329 56.6911C51.6595 56.6911 51.3888 56.6361 51.137 56.5295C50.8852 56.4229 50.6574 56.2668 50.4671 56.0704C50.2725 55.8724 50.1193 55.6377 50.0163 55.3799C49.9134 55.1221 49.8628 54.8464 49.8675 54.5688C49.8721 54.2913 49.932 54.0174 50.0436 53.7633C50.1552 53.5091 50.3163 53.2797 50.5175 53.0884C51.9455 51.6268 53.3903 50.2072 54.8939 48.7204Z" fill="white"/>
</g>
</svg>
