<svg width="84" height="84" viewBox="0 0 84 84" fill="none" xmlns="http://www.w3.org/2000/svg">
<g id="Artboard 1 copy 8">
<path id="Vector" d="M29.9711 67.4938V58.1782H29.0135C22.7051 58.1782 16.4135 58.1782 10.1051 58.1782C6.79552 58.1782 4.43512 56.2462 3.92272 53.1382C3.86663 52.746 3.84414 52.3498 3.85552 51.9538V12.3394C3.81104 11.5176 3.93958 10.6956 4.23282 9.92656C4.52606 9.15757 4.97747 8.45869 5.55784 7.87515C6.13821 7.29162 6.83462 6.83641 7.60201 6.53899C8.3694 6.24157 9.19068 6.10856 10.0127 6.14856C31.3319 6.14856 52.6483 6.14856 73.9619 6.14856C74.7859 6.1005 75.6108 6.22798 76.3818 6.52256C77.1529 6.81714 77.8526 7.27211 78.4347 7.85735C79.0167 8.4426 79.4679 9.14479 79.7583 9.91744C80.0487 10.6901 80.1716 11.5156 80.1191 12.3394C80.1191 19.513 80.1191 26.6894 80.1191 33.8686V34.7086C79.5494 34.2078 78.9521 33.7395 78.3299 33.3058C77.5735 32.8274 76.7716 32.4251 75.9359 32.1046C75.6997 32.0538 75.4914 31.9157 75.3528 31.7179C75.2141 31.52 75.1554 31.2771 75.1883 31.0378C75.1883 24.8638 75.1883 18.6982 75.1883 12.5578C75.1883 11.2138 75.0875 11.113 73.7435 11.113H10.2143C8.86191 11.113 8.76951 11.2054 8.76951 12.5578V48.2914H9.70191C14.4395 48.2914 19.1771 48.2914 23.9231 48.2914C24.2384 48.2727 24.5539 48.3267 24.8451 48.449C25.1363 48.5713 25.3956 48.7588 25.6031 48.997C26.6951 50.1478 27.8543 51.2398 28.9631 52.357C29.0168 52.4394 29.0871 52.5099 29.1693 52.5639C29.2516 52.618 29.3441 52.6544 29.4412 52.671C29.5382 52.6875 29.6376 52.6839 29.7331 52.6602C29.8287 52.6365 29.9183 52.5933 29.9963 52.5334C30.0865 52.4786 30.1822 52.4335 30.2819 52.399C31.2059 52.0042 32.1299 51.307 33.0539 51.307C33.9779 51.307 34.9187 51.9622 35.8259 52.3822C36.0682 52.5134 36.258 52.724 36.3635 52.9786C36.7415 53.8186 37.0859 54.7426 37.3967 55.6414C37.4315 55.8183 37.5327 55.9752 37.6795 56.0799C37.8264 56.1845 38.0077 56.229 38.1863 56.2042C40.7567 56.2042 43.3271 56.2042 45.8975 56.2042C46.0462 56.184 46.1881 56.1294 46.312 56.0449C46.436 55.9603 46.5385 55.848 46.6115 55.717C47.0231 54.8266 47.3339 53.8942 47.6951 52.987C47.9303 52.3906 50.8955 51.1642 51.4835 51.4162C52.3235 51.7942 53.2391 52.1554 54.0875 52.5838C54.2525 52.6876 54.4511 52.7238 54.6421 52.6846C54.833 52.6455 55.0015 52.5341 55.1123 52.3738C56.2967 51.1558 57.4811 49.9462 58.7159 48.787C59.0177 48.5171 59.4035 48.3598 59.8079 48.3418C61.1015 48.283 62.4035 48.2914 63.6971 48.3418C64.0108 48.3667 64.3068 48.4969 64.5371 48.7114C68.9723 53.3734 75.1547 53.575 79.8587 49.1986C79.9351 49.1296 80.0198 49.0704 80.1107 49.0222C80.0519 51.2062 80.5055 53.3566 79.2707 55.3138C78.7141 56.2537 77.9093 57.0222 76.9446 57.5349C75.98 58.0476 74.8928 58.2847 73.8023 58.2202C67.5275 58.2202 61.2527 58.2202 54.9779 58.2202H54.0203V67.4938C56.5991 67.4938 59.1359 67.4938 61.6727 67.4938C62.4928 67.4738 63.3132 67.5216 64.1255 67.6366C66.6455 68.107 67.8971 69.6694 67.8971 72.2314V75.4234H16.1867C16.0857 73.8507 16.1025 72.2727 16.2371 70.7026C16.5143 68.8378 18.6143 67.5274 20.9075 67.5022C23.6123 67.5022 26.3171 67.5022 29.0135 67.5022L29.9711 67.4938Z" fill="white"/>
<path id="Vector_2" d="M44.646 53.6591C42.966 53.6591 41.3448 53.6591 39.7068 53.6591C39.5915 53.6337 39.4833 53.5828 39.3903 53.5101C39.2972 53.4375 39.2217 53.3448 39.1692 53.2391C38.8332 52.4831 38.6064 51.6935 38.2536 50.9543C38.0883 50.6507 37.8289 50.409 37.5144 50.2655C36.2124 49.6859 34.902 49.1483 33.5748 48.6359C33.27 48.5309 32.9388 48.5309 32.634 48.6359C31.8864 48.9047 31.1892 49.2995 30.4416 49.5599C30.3008 49.6013 30.1527 49.6114 30.0077 49.5897C29.8626 49.5679 29.724 49.5147 29.6016 49.4339C28.56 48.4595 27.5436 47.4431 26.5692 46.4015C26.487 46.2797 26.4318 46.1417 26.4072 45.9969C26.3825 45.852 26.3891 45.7036 26.4264 45.5615C26.6784 44.8391 27.0732 44.1671 27.3252 43.4447C27.4382 43.0952 27.4382 42.719 27.3252 42.3695C26.8296 41.0675 26.2836 39.7739 25.7124 38.4971C25.538 38.2076 25.3198 37.9469 25.0656 37.7243C25.0656 37.7243 24.9648 37.7243 24.9144 37.6739C24.0744 37.3211 22.9152 37.1867 22.4616 36.5483C22.008 35.9099 22.3356 34.8179 22.3356 33.9191C22.3356 33.0203 22.0668 32.0291 22.47 31.4411C22.8732 30.8531 23.9232 30.6767 24.7212 30.4247C25.0046 30.3441 25.2603 30.187 25.4604 29.9707C25.6604 29.7544 25.797 29.4871 25.8552 29.1983C26.2764 28.0017 26.7701 26.832 27.3336 25.6955C27.4369 25.5183 27.4913 25.3168 27.4913 25.1117C27.4913 24.9065 27.4369 24.7051 27.3336 24.5279C27.006 23.8643 26.754 23.1671 26.418 22.5035C26.3144 22.3531 26.2732 22.1684 26.303 21.9883C26.3327 21.8081 26.4312 21.6466 26.5776 21.5375C27.5688 20.4959 28.56 19.4963 29.526 18.4799C29.6217 18.3401 29.7672 18.2422 29.9328 18.2063C30.0983 18.1704 30.2713 18.1991 30.4164 18.2867C31.2564 18.6983 32.1468 19.3619 33.0204 19.3703C33.894 19.3787 34.7004 18.6731 35.5404 18.2951C35.7482 18.1793 35.9717 18.0945 36.204 18.0431C37.7916 17.8667 38.4636 16.8587 38.9088 15.4307C39.354 14.0027 39.0264 14.2379 40.656 14.2127C41.79 14.2127 42.9324 14.2127 44.0664 14.2127C44.4864 14.2127 44.7972 14.2715 44.9064 14.7419C45.0038 15.6559 45.4125 16.5087 46.0641 17.1572C46.7156 17.8056 47.5703 18.2104 48.4848 18.3035C48.8249 18.3661 49.1448 18.5103 49.4172 18.7235C50.4756 19.5635 51.4584 19.3871 52.5924 18.7907C54.0456 18.0179 54.0876 18.0935 55.2552 19.2611C56.0028 20.0087 56.7756 20.7395 57.4896 21.5291C57.5725 21.6425 57.6284 21.7733 57.6532 21.9116C57.6779 22.0499 57.6708 22.192 57.6324 22.3271C57.3048 23.2175 56.5908 24.0743 56.5908 24.9479C56.5908 25.8215 57.2964 26.6279 57.6828 27.5267C57.8336 27.7896 57.9467 28.0723 58.0188 28.3667C58.17 29.6687 58.9428 30.2483 60.1524 30.6263C61.8996 31.1807 61.8324 31.2647 61.6896 33.2219L60.7152 32.9951C58.5648 32.4407 56.4228 31.8779 54.264 31.3151C54.0467 31.2827 53.8443 31.185 53.6838 31.035C53.5233 30.885 53.4122 30.6897 53.3652 30.4751C52.7789 28.3974 51.6222 26.5256 50.0261 25.0721C48.43 23.6185 46.4585 22.6414 44.3352 22.2515C42.5533 21.8946 40.7131 21.9534 38.9576 22.4234C37.2022 22.8934 35.5788 23.7619 34.2135 24.9613C32.8483 26.1608 31.7781 27.6589 31.086 29.3392C30.3939 31.0196 30.0987 32.8369 30.2232 34.6499C30.6684 39.5891 33.2052 43.1171 37.7832 44.8811C42.3612 46.6451 46.578 45.6791 50.2152 42.3611C50.3525 42.2088 50.5328 42.1016 50.7321 42.0537C50.9315 42.0057 51.1408 42.0191 51.3324 42.0923C52.8612 42.5179 54.3984 42.9127 55.944 43.2767C56.2218 43.3258 56.4799 43.453 56.6882 43.6434C56.8964 43.8338 57.0462 44.0795 57.12 44.3519C57.8004 46.0319 57.834 46.0319 56.5824 47.2415C55.8768 47.9471 55.188 48.6863 54.432 49.3583C54.3148 49.45 54.1775 49.5123 54.0314 49.54C53.8852 49.5678 53.7346 49.5602 53.592 49.5179C51.912 48.4595 50.232 48.2411 48.552 49.5179C48.103 49.8065 47.5949 49.9902 47.0652 50.0555C46.6771 50.1032 46.315 50.2756 46.0332 50.5467C45.7515 50.8178 45.5653 51.1731 45.5028 51.5591C45.2592 52.2647 44.9232 52.9199 44.646 53.6591Z" fill="white"/>
<path id="Vector_3" d="M34.3225 35.7082C36.7585 36.3298 39.0601 36.8926 41.3617 37.5142C41.5384 37.5961 41.738 37.6141 41.9265 37.5651C42.115 37.5161 42.2805 37.4031 42.3949 37.2454C43.0753 36.4978 43.8145 35.8174 44.4865 35.0614C44.5792 34.9445 44.6453 34.8088 44.6801 34.6637C44.715 34.5186 44.7177 34.3677 44.6881 34.2214C44.4613 33.247 44.1421 32.2894 43.9153 31.315C43.8826 31.1231 43.7889 30.9468 43.6483 30.8121C43.5076 30.6775 43.3273 30.5917 43.1341 30.5674C40.8241 30.0298 38.5309 29.3998 36.1201 28.8034C36.2158 28.6429 36.3254 28.4912 36.4477 28.3498C37.4297 27.3897 38.6457 26.7029 39.975 26.3576C41.3042 26.0123 42.7007 26.0204 44.0259 26.3812C45.351 26.742 46.5589 27.4429 47.5296 28.4145C48.5004 29.386 49.2004 30.5944 49.5601 31.9198C49.5961 32.2075 49.7258 32.4753 49.9293 32.6818C50.1328 32.8883 50.3986 33.022 50.6857 33.0622C55.5829 34.297 60.4717 35.5822 65.3437 36.859C65.5588 36.9403 65.7945 36.9498 66.0155 36.8862C66.2365 36.8227 66.431 36.6894 66.5701 36.5062C67.5334 35.4175 68.7866 34.6254 70.1832 34.2223C71.5799 33.8192 73.0625 33.8218 74.4577 34.2298C77.4313 35.0194 79.2289 37.0186 80.0941 40.1098C79.5565 39.9838 79.1113 39.8998 78.6661 39.7822C76.8013 39.3034 74.9281 38.833 73.0717 38.3206C72.8762 38.2457 72.662 38.2346 72.4598 38.2889C72.2576 38.3432 72.0777 38.4602 71.9461 38.623C71.2909 39.3454 70.5601 40.009 69.9133 40.7398C69.822 40.8688 69.7577 41.0149 69.7245 41.1694C69.6913 41.3239 69.6898 41.4835 69.7201 41.6386C69.9301 42.5962 70.2493 43.5286 70.4761 44.4778C70.5143 44.6807 70.6164 44.866 70.7676 45.0066C70.9188 45.1472 71.111 45.2357 71.3161 45.259C73.3909 45.7714 75.4657 46.309 77.5405 46.8466L78.3049 47.0818C77.0679 48.547 75.3141 49.4796 73.4077 49.6858C71.4521 49.9244 69.4775 49.4295 67.8656 48.297C66.2536 47.1644 65.1186 45.4745 64.6801 43.5538C64.6298 43.3916 64.5431 43.2429 64.4266 43.1192C64.3102 42.9954 64.167 42.8999 64.0081 42.8398C58.9681 41.4958 53.9281 40.2022 48.8881 38.875C48.6942 38.8143 48.4858 38.8174 48.2938 38.884C48.1017 38.9505 47.9361 39.0769 47.8213 39.2446C46.892 40.2774 45.7064 41.0464 44.3845 41.4737C43.0625 41.9011 41.6511 41.9718 40.2931 41.6785C38.9351 41.3853 37.6787 40.7385 36.6509 39.8037C35.6231 38.8689 34.8604 37.6792 34.4401 36.355C34.4401 36.187 34.3897 36.0106 34.3225 35.7082Z" fill="white"/>
<path id="Vector_4" d="M80.0857 42.7729V44.8729L75.2473 43.6801V41.5801L80.0857 42.7729Z" fill="white"/>
</g>
</svg>
