<svg width="90" height="90" viewBox="0 0 90 90" fill="none" xmlns="http://www.w3.org/2000/svg">
<g id="Artboard 1 copy 7 1">
<path id="Vector" d="M38.9789 7.41602H51.0209C51.0659 7.65002 51.1289 7.88402 51.1649 8.12702C51.4799 10.332 51.8129 12.528 52.0649 14.733C52.0622 14.9877 52.1519 15.2347 52.3174 15.4283C52.4829 15.622 52.7129 15.749 52.9649 15.786C55.4311 16.4082 57.7931 17.3876 59.9759 18.693C60.1714 18.8456 60.4162 18.9207 60.6636 18.9041C60.911 18.8875 61.1436 18.7803 61.3169 18.603C63.2609 17.091 65.2409 15.633 67.0859 14.247L75.7079 22.851C74.2679 24.777 72.7739 26.775 71.2079 28.746C71.0653 28.8894 70.9794 29.0797 70.9661 29.2815C70.9529 29.4834 71.0132 29.6832 71.1359 29.844C72.3907 31.9683 73.3648 34.2463 74.0339 36.621C74.3669 37.818 74.3759 37.782 75.6089 37.962C77.9039 38.277 80.1989 38.637 82.4849 38.979V51.021C82.2509 51.066 82.0169 51.129 81.7739 51.165C79.4969 51.498 77.2739 51.84 74.9519 52.128C74.7509 52.1355 74.5594 52.2151 74.4123 52.3523C74.2652 52.4895 74.1724 52.675 74.1509 52.875C73.6435 55.1684 72.7844 57.3694 71.6039 59.4C71.3024 59.7652 71.1569 60.2345 71.199 60.7062C71.2411 61.1779 71.4675 61.614 71.8289 61.92C73.2329 63.639 74.5289 65.457 75.7619 67.113L67.1399 75.753C65.2229 74.313 63.2249 72.828 61.2539 71.307C61.1115 71.1626 60.921 71.0755 60.7186 71.0622C60.5162 71.049 60.316 71.1105 60.1559 71.235C57.9779 72.55 55.6188 73.5385 53.1539 74.169C52.4159 74.358 52.0739 74.673 52.0739 75.411C52.0739 75.51 52.0739 75.609 52.0739 75.708L51.0479 82.584H38.9789C38.9339 82.35 38.8709 82.116 38.8349 81.873C38.5109 79.623 38.1689 77.373 37.8809 75.123C37.8089 74.565 37.5479 74.394 37.0619 74.223C35.0352 73.6003 33.061 72.8179 31.1579 71.883C29.6909 71.073 28.7369 71.109 27.5039 72.216C26.0189 73.548 24.3359 74.646 22.8509 75.762L14.2289 67.149C15.6779 65.223 17.1719 63.225 18.7289 61.245C18.8758 61.1063 18.9656 60.9177 18.9805 60.7162C18.9955 60.5147 18.9347 60.3149 18.8099 60.156C17.5552 58.0317 16.581 55.7538 15.9119 53.379C15.5699 52.191 15.5699 52.218 14.3369 52.038C12.0419 51.714 9.74694 51.363 7.46094 51.021V38.979C7.66794 38.934 7.88394 38.871 8.09994 38.844C10.3949 38.511 12.6899 38.16 14.9939 37.872C15.5069 37.8 15.6329 37.548 15.7949 37.125C16.5842 34.8941 17.4853 32.7043 18.4949 30.564C18.761 30.1821 18.8826 29.7181 18.8381 29.2549C18.7935 28.7916 18.5858 28.3592 18.2519 28.035C16.8479 26.325 15.5519 24.516 14.3189 22.851L22.9319 14.229C24.8579 15.678 26.8559 17.172 28.8359 18.729C28.9735 18.8778 29.1624 18.9688 29.3645 18.9839C29.5666 18.9989 29.7668 18.9368 29.9249 18.81C32.0492 17.5552 34.3272 16.5811 36.7019 15.912C37.8899 15.57 37.8629 15.57 38.0429 14.337C38.2859 11.997 38.6369 9.70202 38.9789 7.41602ZM63.7919 52.047C63.7919 49.977 63.7919 47.97 63.7919 45.972C63.8096 44.7694 63.7495 43.5669 63.6119 42.372C63.2379 39.689 62.2873 37.1187 60.8256 34.8379C59.3638 32.5571 57.4256 30.6198 55.1441 29.1593C52.8625 27.6987 50.2918 26.7494 47.6086 26.3767C44.9253 26.0039 42.1932 26.2166 39.5999 27C38.2589 27.414 36.9809 28.026 35.6399 28.557C35.6399 27.063 35.6399 25.551 35.6399 24.057C35.6027 23.5876 35.383 23.1514 35.0279 22.842C34.4429 22.392 33.8939 22.761 33.4259 23.238C29.2799 27.396 25.1279 31.548 20.9699 35.694C20.8889 35.784 20.7449 35.856 20.7269 35.964C20.6279 36.369 20.3939 36.864 20.5379 37.161C20.7823 37.5299 21.154 37.7958 21.5819 37.908C22.018 37.9669 22.4599 37.9669 22.8959 37.908H26.2709C26.2709 39.213 26.2709 40.41 26.2709 41.607C26.1977 43.6394 26.2518 45.6744 26.4329 47.7C27.0769 52.2802 29.4016 56.4571 32.9548 59.4181C36.5081 62.3791 41.0357 63.9125 45.6569 63.72C47.5254 63.5451 49.3746 63.2048 51.1829 62.703C51.3245 62.6776 51.4594 62.6235 51.5793 62.544C51.6992 62.4645 51.8015 62.3612 51.8799 62.2406C51.9583 62.12 52.0112 61.9846 52.0353 61.8428C52.0594 61.701 52.0542 61.5557 52.0199 61.416C51.995 61.1431 51.8682 60.8896 51.6647 60.7062C51.4612 60.5227 51.1959 60.4226 50.9219 60.426C50.6285 60.4421 50.3398 60.5059 50.0669 60.615C47.6183 61.4294 45.0083 61.6363 42.4619 61.218C38.5595 60.6105 35.0064 58.6179 32.4529 55.6049C29.8995 52.592 28.5164 48.7602 28.5569 44.811C28.5569 42.237 28.5569 39.672 28.5569 37.098C28.5569 36 28.1519 35.613 27.0449 35.604H24.5609L33.2999 26.901V27.657C33.2999 33.435 33.2999 39.216 33.2999 45C33.2784 47.3971 33.9938 49.743 35.3492 51.7203C36.7046 53.6975 38.6346 55.2107 40.8782 56.0551C43.1218 56.8995 45.5706 57.0344 47.8933 56.4415C50.216 55.8486 52.3006 54.5565 53.8649 52.74L54.4409 52.092V65.925C54.4409 66.465 54.4949 66.969 55.0709 67.212C55.3335 67.3219 55.6246 67.3436 55.9005 67.2738C56.1764 67.204 56.4222 67.0465 56.6009 66.825L69.2009 54.225C69.4198 54.0629 69.5779 53.8318 69.6497 53.569C69.7215 53.3063 69.7029 53.027 69.5969 52.776C69.4862 52.5293 69.2979 52.3255 69.0607 52.1956C68.8236 52.0656 68.5505 52.0166 68.2829 52.056C66.7979 52.056 65.3579 52.047 63.7919 52.047ZM32.2919 65.025C32.0731 64.6367 31.8071 64.277 31.4999 63.954C27.2326 60.7074 24.2696 56.0394 23.1479 50.796C23.1343 50.631 23.0862 50.4706 23.0069 50.3252C22.9276 50.1799 22.8188 50.0527 22.6874 49.9518C22.5561 49.851 22.4051 49.7787 22.2442 49.7396C22.0832 49.7006 21.9159 49.6956 21.7529 49.725C21.5836 49.759 21.4235 49.829 21.2835 49.9302C21.1435 50.0314 21.0269 50.1615 20.9416 50.3117C20.8562 50.4619 20.8041 50.6287 20.7889 50.8007C20.7736 50.9728 20.7954 51.1461 20.8529 51.309C21.7475 55.6723 23.8421 59.6994 26.9009 62.937C27.9058 63.9716 28.9825 64.934 30.1229 65.817C30.3147 65.9233 30.5262 65.9893 30.7444 66.0109C30.9626 66.0326 31.183 66.0095 31.3919 65.943C31.7429 65.835 31.9499 65.394 32.2829 65.025H32.2919ZM59.4539 23.715C59.1148 23.9731 58.812 24.2759 58.5539 24.615C58.2479 25.128 58.5089 25.596 58.9229 25.974C59.9579 26.874 61.0469 27.774 61.9919 28.8C64.7107 31.7116 66.5785 35.3133 67.3919 39.213C67.5719 40.032 68.1119 40.419 68.7869 40.266C68.9487 40.2318 69.1016 40.1645 69.236 40.0684C69.3704 39.9722 69.4835 39.8492 69.5681 39.7071C69.6526 39.5651 69.7068 39.407 69.7273 39.243C69.7477 39.079 69.734 38.9125 69.6869 38.754C68.46 32.9459 65.1659 27.7809 60.4169 24.219C60.1072 24.0248 59.7821 23.8562 59.4449 23.715H59.4539ZM36.7739 67.311C36.7722 67.08 36.702 66.8547 36.5724 66.6635C36.4428 66.4723 36.2594 66.3237 36.0455 66.2365C35.8315 66.1493 35.5966 66.1274 35.3702 66.1736C35.1439 66.2198 34.9362 66.3319 34.7735 66.4959C34.6108 66.6599 34.5002 66.8683 34.4558 67.0951C34.4114 67.3218 34.4351 67.5566 34.5239 67.7698C34.6127 67.9831 34.7627 68.1653 34.9549 68.2934C35.1471 68.4216 35.3729 68.49 35.6039 68.49C35.9143 68.4853 36.2106 68.3593 36.4292 68.139C36.6479 67.9186 36.7716 67.6214 36.7739 67.311ZM54.8369 21.51C54.5266 21.5184 54.2324 21.6496 54.0188 21.875C53.8053 22.1003 53.6901 22.4012 53.6984 22.7115C53.7068 23.0218 53.8381 23.3161 54.0634 23.5296C54.2887 23.7431 54.5896 23.8584 54.8999 23.85C55.2102 23.8429 55.505 23.7127 55.7193 23.4882C55.9337 23.2638 56.0501 22.9633 56.0429 22.653C56.0358 22.3427 55.9056 22.048 55.6812 21.8336C55.4567 21.6193 55.1562 21.5029 54.8459 21.51H54.8369Z" fill="white"/>
<path id="Vector_2" d="M65.4301 54.3964L56.7451 63.0814V62.3794C56.7451 56.6374 56.7451 50.8894 56.7451 45.1354C56.7917 42.3922 55.8684 39.7207 54.1379 37.5918C52.4074 35.4628 49.9809 34.0132 47.2861 33.4984C45.3025 33.0648 43.2391 33.17 41.3099 33.803C39.3807 34.436 37.6561 35.5739 36.3151 37.0984C36.1171 37.3144 35.9281 37.5394 35.6041 37.9084V36.9004C35.6041 35.3344 35.6041 33.7684 35.6041 32.2024C35.5817 31.99 35.6228 31.7758 35.7221 31.5868C35.8214 31.3977 35.9745 31.2424 36.1621 31.1404C38.3716 29.7374 40.884 28.8819 43.4906 28.6448C46.0972 28.4077 48.7227 28.7959 51.1491 29.7772C53.5755 30.7585 55.7328 32.3046 57.4417 34.287C59.1507 36.2694 60.362 38.6309 60.9751 41.1754C61.2561 42.4893 61.4068 43.8278 61.4251 45.1714C61.4971 47.6824 61.4251 50.2024 61.4251 52.7224C61.4251 54.0634 61.7671 54.3964 63.1351 54.3964H65.4301Z" fill="white"/>
</g>
</svg>
