<svg width="62" height="62" viewBox="0 0 62 62" fill="none" xmlns="http://www.w3.org/2000/svg">
<g id="Artboard 1 copy 3 2">
<path id="Vector" d="M3.39771 31.5393V30.4605C3.59571 29.8572 4.00584 29.3463 4.55199 29.0224C5.09814 28.6986 5.74321 28.5839 6.36751 28.6997C6.9317 28.7493 7.5083 28.6997 7.9795 28.6997C10.0875 16.9197 16.9385 10.0997 28.7123 7.97926V5.71626C28.6977 5.38295 28.762 5.05089 28.8999 4.74709C29.0378 4.44328 29.2454 4.17631 29.5059 3.96786C29.8107 3.75605 30.1297 3.56547 30.4607 3.39746H31.5395C32.1428 3.59547 32.6537 4.0056 32.9775 4.55175C33.3013 5.09789 33.416 5.74297 33.3003 6.36726C33.2507 6.93146 33.3003 7.50806 33.3003 7.97926C45.0803 10.0811 51.9003 16.9445 54.0207 28.7121H56.2899C56.6328 28.6986 56.9739 28.7676 57.2846 28.9132C57.5953 29.0589 57.8665 29.2769 58.0755 29.5491C58.2714 29.8419 58.4494 30.1462 58.6087 30.4605V31.5393C58.0693 32.9281 57.0215 33.3993 55.5831 33.3001C55.0375 33.2505 54.4795 33.3001 54.0207 33.3001C51.9189 45.0801 45.0617 51.9001 33.2941 54.0267V56.2897C33.3073 56.6231 33.241 56.9549 33.1009 57.2578C32.9608 57.5607 32.7508 57.826 32.4881 58.0319C32.1854 58.2436 31.8685 58.4342 31.5395 58.6023H30.4607C29.8574 58.4043 29.3465 57.9941 29.0227 57.448C28.6989 56.9018 28.5842 56.2568 28.6999 55.6325C28.7495 55.0683 28.6999 54.4917 28.6999 54.0143C16.9199 51.9125 10.0999 45.0553 7.9795 33.2877H5.71651C5.38319 33.3023 5.05113 33.238 4.74733 33.1001C4.44353 32.9622 4.17655 32.7546 3.96811 32.4941C3.7563 32.1893 3.56571 31.8702 3.39771 31.5393ZM49.2033 28.6997C48.2733 20.0755 40.8829 13.4911 33.3065 12.8153C32.8911 14.1855 32.2401 14.8799 31.1055 14.8799C29.6981 14.8799 28.9727 14.0491 28.6813 12.7719C19.4805 13.8693 13.3425 21.7371 12.8279 28.7059C14.1423 29.0345 14.8925 29.7847 14.8801 30.9069C14.8616 31.3749 14.732 31.8318 14.5019 32.2399C14.3196 32.5358 14.0703 32.7848 13.7742 32.9668C13.478 33.1488 13.1433 33.2587 12.7969 33.2877C13.7331 41.9677 21.1731 48.5149 28.6937 49.1845C29.0967 47.8205 29.7601 47.1199 30.8947 47.1199C32.3021 47.1199 33.0275 47.9507 33.3127 49.2341C42.6127 48.1119 48.6577 40.1759 49.1723 33.2939C47.8393 32.9467 47.1201 32.1593 47.1201 30.9999C47.1201 29.8405 47.8207 29.0593 49.2033 28.6997Z" fill="white"/>
<path id="Vector_2" d="M31.3348 42.5009C25.1348 42.7799 19.7842 37.7641 19.5052 31.3409C19.4134 28.2878 20.5371 25.3232 22.6296 23.0981C24.7221 20.8731 27.6123 19.5696 30.6652 19.4741C36.9024 19.2075 42.1972 24.1923 42.4948 30.6341C42.78 36.8837 37.7828 42.2095 31.3348 42.5009Z" fill="white"/>
</g>
</svg>
