<svg width="48" height="54" viewBox="0 0 48 54" fill="none" xmlns="http://www.w3.org/2000/svg">
<g id="Group 38964">
<path id="Vector" d="M0.425828 53.1257C0.343704 50.4676 0.777711 47.8187 1.70383 45.3257C4.42783 37.9037 9.67183 33.0197 17.0998 30.4097C17.2144 30.3779 17.3306 30.3519 17.4478 30.3317C18.1378 35.9357 18.8278 41.5217 19.5238 47.2037C19.5915 47.094 19.6516 46.9797 19.7038 46.8617C21.0118 42.9537 22.3118 39.0397 23.6038 35.1197C23.6327 35.0033 23.638 34.8823 23.6195 34.7638C23.6009 34.6454 23.5589 34.5318 23.4958 34.4297C22.8958 33.4757 22.1998 32.5457 21.5578 31.5977C21.4241 31.4092 21.343 31.1884 21.3229 30.958C21.3027 30.7277 21.3443 30.4962 21.4432 30.2873C21.5422 30.0783 21.695 29.8995 21.886 29.7692C22.077 29.6389 22.2992 29.5617 22.5298 29.5457C24.3898 29.4977 26.2558 29.5457 28.1158 29.5457C28.3752 29.5534 28.6267 29.6364 28.8397 29.7845C29.0528 29.9325 29.2182 30.1394 29.3158 30.3797C29.4045 30.5937 29.4244 30.8299 29.3728 31.0557C29.3212 31.2814 29.2006 31.4856 29.0278 31.6397C28.3018 32.5697 27.5818 33.4997 26.8798 34.4477C26.8148 34.5321 26.7675 34.6288 26.7407 34.7319C26.7139 34.8349 26.7081 34.9424 26.7238 35.0477C28.0318 39.0317 29.3638 43.0097 30.6898 46.9877C30.7311 47.0748 30.7814 47.1572 30.8398 47.2337C31.4398 41.8337 32.0398 36.5177 32.6398 31.1537C32.7719 31.1841 32.9022 31.2221 33.0298 31.2677C40.8778 34.7677 45.6198 40.7317 47.2558 49.1597C47.4392 50.4745 47.5474 51.7987 47.5798 53.1257H0.425828ZM13.4518 47.8637C13.4518 46.4117 13.4878 44.9897 13.4518 43.5617C13.4201 43.293 13.2842 43.0474 13.0732 42.878C12.8622 42.7085 12.5931 42.6287 12.3238 42.6557C11.4718 42.6257 10.6138 42.6557 9.76183 42.6557C8.71183 42.6557 8.28583 43.0997 8.27383 44.1617C8.26183 45.2237 8.27383 46.2797 8.27383 47.3357C8.27383 47.5157 8.27383 47.6957 8.27383 47.8817L13.4518 47.8637Z" fill="white"/>
<path id="Vector_2" d="M23.9998 26.8876C21.404 26.8864 18.8669 26.1153 16.7094 24.6719C14.5519 23.2285 12.8709 21.1777 11.8792 18.7788C10.8875 16.3799 10.6295 13.7408 11.138 11.1953C11.6464 8.64977 12.8984 6.31225 14.7356 4.47842C16.5728 2.64459 18.9126 1.39686 21.4591 0.893069C24.0055 0.389274 26.6442 0.652053 29.0412 1.64816C31.4383 2.64427 33.4861 4.32896 34.9255 6.48909C36.3649 8.64923 37.1313 11.1878 37.1278 13.7836C37.1183 17.2602 35.7313 20.5913 33.2707 23.0474C30.8101 25.5035 27.4764 26.8844 23.9998 26.8876Z" fill="white"/>
</g>
</svg>
