<svg width="50" height="50" viewBox="0 0 50 50" fill="none" xmlns="http://www.w3.org/2000/svg">
<g id="Artboard 1 2">
<path id="Vector" d="M45.8499 41.0904C45.7849 41.3354 45.7249 41.5904 45.6549 41.8304C45.3785 42.7256 44.8296 43.5121 44.0847 44.0804C43.3399 44.6487 42.4363 44.9703 41.4999 45.0004H8.8599C6.7049 45.0004 4.9999 43.8304 4.3899 41.8954C4.24497 41.429 4.16917 40.9438 4.1649 40.4554C4.1449 37.2421 4.1449 34.0271 4.1649 30.8104C4.15333 30.2113 4.26289 29.616 4.48702 29.0602C4.71114 28.5044 5.04521 27.9996 5.46918 27.5761C5.89316 27.1526 6.3983 26.8191 6.95432 26.5956C7.51033 26.3721 8.10577 26.2632 8.7049 26.2754C19.5716 26.2754 30.4382 26.2754 41.3049 26.2754C42.3835 26.2526 43.4338 26.6215 44.2612 27.3138C45.0886 28.006 45.637 28.9747 45.8049 30.0404C45.8224 30.0905 45.8441 30.139 45.8699 30.1854L45.8499 41.0904ZM12.7899 35.1704L12.8699 34.9754C13.02 34.6469 13.0837 34.2855 13.055 33.9255C13.0263 33.5655 12.906 33.2187 12.7057 32.9182C12.5053 32.6177 12.2315 32.3734 11.9103 32.2084C11.589 32.0434 11.2309 31.9632 10.8699 31.9754C10.3699 31.9754 9.8349 31.9754 9.3199 31.9754C9.20996 31.9718 9.10047 31.9911 8.99836 32.032C8.89624 32.0728 8.80372 32.1345 8.72665 32.213C8.64958 32.2914 8.58963 32.3851 8.5506 32.4879C8.51157 32.5907 8.49431 32.7006 8.4999 32.8104C8.4999 34.7004 8.4999 36.5871 8.4999 38.4704C8.49569 38.5799 8.51414 38.689 8.55411 38.791C8.59408 38.893 8.6547 38.9857 8.73216 39.0632C8.80963 39.1406 8.90227 39.2012 9.00427 39.2412C9.10627 39.2812 9.21543 39.2996 9.3249 39.2954C10.0149 39.2954 10.7099 39.2954 11.3999 39.2954C11.9262 39.2662 12.4269 39.0587 12.8195 38.707C13.2121 38.3553 13.4732 37.8804 13.5599 37.3604C13.6302 36.96 13.5962 36.5482 13.4614 36.1647C13.3265 35.7812 13.0953 35.4388 12.7899 35.1704ZM17.9999 31.9704C17.2757 31.9655 16.5663 32.1753 15.9612 32.5732C15.3561 32.9712 14.8825 33.5395 14.6002 34.2064C14.3178 34.8733 14.2393 35.6089 14.3747 36.3204C14.5101 37.0318 14.8532 37.6872 15.3607 38.2038C15.8683 38.7204 16.5175 39.0751 17.2265 39.2231C17.9354 39.371 18.6723 39.3056 19.3441 39.0351C20.0159 38.7645 20.5925 38.3011 21.0011 37.7031C21.4097 37.1052 21.632 36.3996 21.6399 35.6754C21.6479 34.7016 21.269 33.7644 20.5865 33.0697C19.904 32.375 18.9737 31.9797 17.9999 31.9704ZM26.3899 31.9704C25.6657 31.9655 24.9563 32.1753 24.3512 32.5732C23.7461 32.9712 23.2725 33.5395 22.9902 34.2064C22.7078 34.8733 22.6293 35.6089 22.7647 36.3204C22.9001 37.0318 23.2432 37.6872 23.7507 38.2038C24.2583 38.7204 24.9075 39.0751 25.6165 39.2231C26.3254 39.371 27.0623 39.3056 27.7341 39.0351C28.4059 38.7645 28.9825 38.3011 29.3911 37.7031C29.7997 37.1052 30.022 36.3996 30.0299 35.6754C30.0393 34.7046 29.6636 33.7697 28.9851 33.0753C28.3066 32.3809 27.3806 31.9836 26.4099 31.9704H26.3899ZM33.3899 31.9704C33.0781 32.0219 32.7718 32.1023 32.4749 32.2104C32.0966 32.3519 31.7709 32.6061 31.542 32.9388C31.313 33.2715 31.1919 33.6666 31.1949 34.0704C31.1904 34.4708 31.3148 34.862 31.5499 35.1861C31.7849 35.5103 32.118 35.7502 32.4999 35.8704C33.0749 36.1154 33.6599 36.3254 34.2199 36.5954C34.3849 36.6804 34.5999 36.9254 34.5799 37.0954C34.5087 37.3079 34.3607 37.4862 34.1649 37.5954C34.0111 37.6759 33.8381 37.7122 33.6649 37.7004C33.1579 37.6908 32.6749 37.4825 32.3199 37.1204C32.2444 37.0422 32.1539 36.9801 32.0538 36.9376C31.9537 36.8951 31.8461 36.8733 31.7374 36.8733C31.6287 36.8733 31.5211 36.8951 31.421 36.9376C31.3209 36.9801 31.2304 37.0422 31.1549 37.1204C31.0768 37.1964 31.0153 37.2878 30.9742 37.3887C30.9331 37.4897 30.9133 37.598 30.9162 37.707C30.919 37.8159 30.9443 37.9231 30.9906 38.0218C31.0368 38.1205 31.103 38.2085 31.1849 38.2804C31.5931 38.7214 32.1132 39.0436 32.6898 39.2126C33.2665 39.3817 33.8782 39.3913 34.4599 39.2404C35.0254 39.1254 35.5236 38.7937 35.8478 38.3163C36.172 37.8388 36.2966 37.2535 36.1949 36.6854C36.1029 36.308 35.9173 35.9598 35.6551 35.6732C35.3929 35.3865 35.0627 35.1706 34.6949 35.0454C34.1949 34.8204 33.6349 34.6254 33.1149 34.4004C32.7949 34.2654 32.7699 33.9704 33.0699 33.7954C33.2273 33.69 33.4163 33.6423 33.6049 33.6604C34.0067 33.7599 34.3971 33.9006 34.7699 34.0804C34.9517 34.2003 35.1732 34.2444 35.3872 34.2033C35.6011 34.1622 35.7905 34.0392 35.9149 33.8604C36.0309 33.6817 36.0728 33.4649 36.0318 33.2559C35.9907 33.0468 35.8699 32.8619 35.6949 32.7404C35.0393 32.234 34.2333 31.9612 33.4049 31.9654L33.3899 31.9704ZM38.6399 33.6004V34.1004C38.6399 35.4854 38.6399 36.8654 38.6399 38.2504C38.631 38.4377 38.653 38.6252 38.7049 38.8054C38.77 38.9796 38.8944 39.1252 39.0563 39.2166C39.2182 39.3081 39.4071 39.3395 39.5899 39.3054C39.7925 39.2655 39.9731 39.1519 40.0968 38.9866C40.2205 38.8213 40.2786 38.616 40.2599 38.4104C40.2599 37.1754 40.2599 35.9454 40.2599 34.7104V33.5954C40.5499 33.5954 40.8049 33.5954 41.0599 33.5954C41.2647 33.5865 41.4584 33.4999 41.6015 33.353C41.7446 33.2062 41.8263 33.0104 41.8299 32.8054C41.834 32.5992 41.7574 32.3996 41.6163 32.2492C41.4752 32.0988 41.2809 32.0095 41.0749 32.0004C40.0049 31.9804 38.9349 31.9804 37.8649 32.0004C37.658 32.003 37.4603 32.0867 37.3145 32.2335C37.1686 32.3803 37.0862 32.5785 37.0849 32.7854C37.0833 32.9975 37.1634 33.2021 37.3087 33.3566C37.4539 33.5112 37.6531 33.6039 37.8649 33.6154C38.1099 33.6104 38.3499 33.5954 38.6549 33.5954L38.6399 33.6004Z" fill="white"/>
<path id="Vector_2" d="M25.3299 3.30469C25.6607 3.56989 25.97 3.8608 26.2549 4.17469C27.7549 6.13969 29.2199 8.12469 30.7099 10.0947C30.9093 10.2834 31.0421 10.5316 31.0886 10.8021C31.135 11.0727 31.0925 11.351 30.9675 11.5953C30.8425 11.8397 30.6417 12.037 30.3952 12.1577C30.1486 12.2783 29.8696 12.3159 29.5999 12.2647C29.0999 12.2647 28.5999 12.2647 28.0549 12.2647V22.0947C28.0549 23.2447 27.6349 23.6647 26.4849 23.6647H23.3549C23.1644 23.6902 22.9706 23.6715 22.7885 23.6099C22.6064 23.5483 22.4409 23.4456 22.305 23.3097C22.169 23.1737 22.0663 23.0083 22.0047 22.8262C21.9431 22.6441 21.9244 22.4502 21.9499 22.2597C21.9499 19.123 21.9499 15.988 21.9499 12.8547V12.2597C21.3349 12.2597 20.7449 12.2597 20.1549 12.2597C19.9228 12.2719 19.6923 12.2147 19.4928 12.0954C19.2934 11.976 19.134 11.8 19.0349 11.5897C18.9189 11.3651 18.8749 11.1102 18.9089 10.8597C18.9429 10.6092 19.0532 10.3752 19.2249 10.1897C20.4649 8.54635 21.7016 6.89802 22.9349 5.24469C23.2149 4.87469 23.4699 4.48969 23.7749 4.14469C24.0799 3.79969 24.3749 3.58469 24.6749 3.30469H25.3299Z" fill="white"/>
<path id="Vector_3" d="M9.73498 17.1497H7.99998C7.75503 17.1691 7.50996 17.1135 7.29739 16.9902C7.08482 16.867 6.91481 16.6819 6.80998 16.4597C6.70358 16.2439 6.66479 16.001 6.69869 15.7628C6.73259 15.5246 6.8376 15.3022 6.99998 15.1247C8.59665 13.0014 10.1916 10.8764 11.785 8.74969C11.8936 8.57504 12.045 8.43095 12.2247 8.33105C12.4045 8.23114 12.6068 8.17871 12.8125 8.17871C13.0182 8.17871 13.2204 8.23114 13.4002 8.33105C13.58 8.43095 13.7314 8.57504 13.84 8.74969C15.41 10.8647 17 12.9997 18.58 15.0947C18.7453 15.2816 18.8503 15.5141 18.8814 15.7617C18.9125 16.0092 18.8682 16.2605 18.7542 16.4824C18.6402 16.7044 18.4619 16.8869 18.2426 17.0059C18.0233 17.125 17.7732 17.1751 17.525 17.1497C16.985 17.1497 16.445 17.1497 15.84 17.1497V17.6497C15.84 19.1497 15.84 20.6897 15.84 22.2097C15.84 23.2097 15.38 23.6697 14.37 23.6697H11.155C10.9613 23.6966 10.7641 23.678 10.5788 23.6155C10.3936 23.553 10.2255 23.4482 10.0877 23.3095C9.94994 23.1708 9.84635 23.0019 9.78514 22.8162C9.72392 22.6305 9.70674 22.4331 9.73498 22.2397C9.73498 20.7397 9.73498 19.2047 9.73498 17.6847V17.1497Z" fill="white"/>
<path id="Vector_4" d="M34.165 17.1496H32.435C32.1894 17.1693 31.9435 17.1139 31.7301 16.9907C31.5166 16.8674 31.3457 16.6822 31.24 16.4596C31.1301 16.2471 31.087 16.0064 31.1164 15.769C31.1459 15.5316 31.2465 15.3087 31.405 15.1296C32.9984 13.0062 34.5933 10.8812 36.19 8.75458C36.2986 8.57992 36.45 8.43583 36.6298 8.33593C36.8096 8.23602 37.0118 8.18359 37.2175 8.18359C37.4232 8.18359 37.6255 8.23602 37.8053 8.33593C37.985 8.43583 38.1364 8.57992 38.245 8.75458C39.845 10.8812 41.44 13.0079 43.03 15.1346C43.1873 15.3144 43.2871 15.5372 43.3165 15.7743C43.3459 16.0113 43.3036 16.2518 43.195 16.4646C43.0886 16.6863 42.9173 16.8705 42.704 16.9928C42.4906 17.1151 42.2451 17.1698 42 17.1496H40.295C40.295 17.3296 40.295 17.4846 40.295 17.6496C40.295 19.1496 40.295 20.6896 40.295 22.2096C40.295 23.2096 39.835 23.6746 38.83 23.6746H35.55C35.3629 23.6962 35.1734 23.6752 34.9955 23.6132C34.8176 23.5512 34.6561 23.4499 34.5229 23.3167C34.3897 23.1835 34.2884 23.022 34.2264 22.8441C34.1644 22.6662 34.1434 22.4767 34.165 22.2896C34.165 20.7596 34.165 19.2246 34.165 17.6946V17.1496Z" fill="white"/>
<path id="Vector_5" d="M10.1299 36.2246C10.5249 36.2246 10.8999 36.2246 11.2749 36.2246C11.4606 36.2337 11.6353 36.3152 11.7615 36.4517C11.8877 36.5882 11.9553 36.7688 11.9499 36.9546C11.9414 37.1388 11.8643 37.3133 11.7339 37.4437C11.6035 37.5741 11.4291 37.6511 11.2449 37.6596C11.1499 37.6596 11.0549 37.6596 10.9599 37.6596H10.1299V36.2246Z" fill="white"/>
<path id="Vector_6" d="M10.1201 34.5802V33.6102C10.4188 33.57 10.7215 33.57 11.0201 33.6102C11.1163 33.6548 11.2009 33.7208 11.2677 33.8031C11.3344 33.8854 11.3814 33.9819 11.4051 34.0852C11.4601 34.3552 11.2601 34.5402 10.9751 34.5852C10.6901 34.6302 10.4351 34.5802 10.1201 34.5802Z" fill="white"/>
<path id="Vector_7" d="M18 33.5997C18.402 33.6026 18.7942 33.7246 19.1269 33.9502C19.4597 34.1759 19.7182 34.495 19.8698 34.8674C20.0214 35.2398 20.0592 35.6487 19.9786 36.0426C19.898 36.4365 19.7025 36.7977 19.4168 37.0806C19.1312 37.3635 18.7681 37.5554 18.3734 37.6322C17.9787 37.7089 17.5702 37.6671 17.1993 37.5118C16.8284 37.3566 16.5118 37.095 16.2895 36.76C16.0671 36.4251 15.949 36.0317 15.95 35.6297C15.9506 35.3616 16.0042 35.0963 16.1077 34.849C16.2112 34.6017 16.3626 34.3772 16.5531 34.1886C16.7436 34 16.9694 33.8508 17.2177 33.7498C17.4661 33.6487 17.7319 33.5977 18 33.5997Z" fill="white"/>
<path id="Vector_8" d="M26.3751 37.6696C25.973 37.6676 25.5806 37.5466 25.2473 37.3218C24.9139 37.097 24.6546 36.7785 24.5021 36.4064C24.3497 36.0344 24.3108 35.6256 24.3904 35.2315C24.4701 34.8374 24.6647 34.4757 24.9497 34.1921C25.2347 33.9085 25.5973 33.7157 25.9918 33.638C26.3862 33.5603 26.7949 33.6012 27.1662 33.7555C27.5374 33.9098 27.8547 34.1706 28.0778 34.505C28.301 34.8395 28.4201 35.2325 28.4201 35.6346C28.4194 35.9025 28.366 36.1676 28.2629 36.4149C28.1598 36.6621 28.009 36.8867 27.8191 37.0756C27.6292 37.2646 27.4039 37.4143 27.1562 37.5162C26.9084 37.6181 26.643 37.6702 26.3751 37.6696Z" fill="white"/>
</g>
</svg>
