<svg width="87" height="87" viewBox="0 0 87 87" fill="none" xmlns="http://www.w3.org/2000/svg">
<g id="Artboard 1 copy 6 2">
<path id="Vector" d="M45.6924 80.9103H41.3424C41.1568 80.8572 40.9679 80.8165 40.7769 80.7885C35.6008 80.5044 30.5549 79.0593 26.013 76.5603C13.7199 69.6525 7.0383 59.1603 6.1683 45.0663C5.72059 38.3986 7.23265 31.7455 10.5183 25.9263C17.4 13.6854 27.9009 7.02993 41.934 6.15993C48.5999 5.73543 55.2464 7.24601 61.074 10.5099C71.6358 16.3476 78.0825 25.2303 80.3184 37.071C80.5881 38.4717 80.7099 39.8985 80.9013 41.3166V45.6666C80.8489 45.8759 80.8083 46.0879 80.7795 46.3017C80.454 51.4655 78.9956 56.4942 76.5078 61.0308C70.6875 71.5926 61.857 78.048 50.0163 80.3187C48.5895 80.5884 47.1366 80.7189 45.6924 80.9103ZM76.2729 43.5003C76.2712 37.0188 74.3476 30.6834 70.7454 25.295C67.1433 19.9067 62.0242 15.7075 56.0356 13.2283C50.047 10.7491 43.4577 10.1014 37.101 11.3669C30.7442 12.6324 24.9055 15.7544 20.323 20.3382C15.7405 24.9219 12.62 30.7615 11.3562 37.1185C10.0923 43.4756 10.7419 50.0647 13.2226 56.0527C15.7034 62.0406 19.904 67.1586 25.2933 70.7593C30.6825 74.3601 37.0185 76.2819 43.5 76.2819C52.192 76.2773 60.5266 72.8218 66.6719 66.6748C72.8173 60.5278 76.2706 52.1923 76.2729 43.5003Z" fill="white"/>
<path id="Vector_2" d="M36.1485 61.5259C32.5554 50.8249 29.0232 40.3066 25.4562 29.7013L27.927 29.4838C28.2186 29.4692 28.5091 29.4372 28.797 29.3881C28.9556 29.3772 29.1104 29.3348 29.2525 29.2635C29.3946 29.1922 29.5211 29.0934 29.6247 28.9728C29.7283 28.8522 29.8069 28.7122 29.856 28.561C29.9051 28.4097 29.9236 28.2503 29.9106 28.0918C29.9056 27.9236 29.8645 27.7585 29.7901 27.6075C29.7157 27.4566 29.6097 27.3234 29.4794 27.217C29.349 27.1106 29.1973 27.0334 29.0346 26.9907C28.8718 26.948 28.7018 26.9408 28.536 26.9695C26.1087 27.0652 23.6727 27.1957 21.2454 27.3001C20.5146 27.3001 19.7838 27.3001 19.0269 27.3001C27.4746 13.2583 49.007 8.77784 63.1533 21.5755C62.3714 21.7431 61.6058 21.9789 60.8652 22.2802C59.7138 22.8752 58.8249 23.8772 58.3714 25.0912C57.9179 26.3053 57.9323 27.6447 58.4118 28.8487C59.0406 30.3359 59.7492 31.788 60.5346 33.1987C61.4283 34.888 62.2157 36.6314 62.8923 38.4187C63.6575 41.037 63.5875 43.8287 62.6922 46.4053C61.2828 51.2077 59.8299 55.9753 58.3944 60.7951C58.3343 60.9572 58.2616 61.1143 58.1769 61.2649C54.636 50.7031 51.1212 40.2457 47.5716 29.7013L49.9902 29.4925C50.3052 29.4725 50.6189 29.4348 50.9298 29.3794C51.0963 29.3704 51.2589 29.3255 51.4064 29.2478C51.5539 29.1701 51.6829 29.0615 51.7846 28.9293C51.8862 28.7971 51.958 28.6444 51.9952 28.4819C52.0324 28.3193 52.034 28.1507 51.9999 27.9874C51.9874 27.8331 51.9432 27.6831 51.8699 27.5467C51.7967 27.4104 51.6961 27.2906 51.5743 27.195C51.4526 27.0994 51.3124 27.03 51.1625 26.9912C51.0127 26.9524 50.8564 26.945 50.7036 26.9695C49.5117 26.9695 48.3198 27.1609 47.1279 27.1609C43.6044 27.1609 40.0722 27.0826 36.5487 27.0391C36.0354 27.0391 35.5308 26.9608 35.0175 26.9695C34.7211 26.9671 34.4354 27.0801 34.221 27.2848C34.0066 27.4894 33.8804 27.7696 33.8691 28.0657C33.8405 28.2114 33.8423 28.3615 33.8743 28.5065C33.9064 28.6515 33.9681 28.7882 34.0555 28.9083C34.1429 29.0284 34.2541 29.1291 34.3822 29.2042C34.5103 29.2792 34.6525 29.3271 34.8 29.3446C35.67 29.4838 36.54 29.5621 37.41 29.623C37.5878 29.604 37.7667 29.6487 37.9148 29.749C38.0629 29.8493 38.1707 29.9989 38.2191 30.1711C39.6285 34.0861 41.064 38.0011 42.4734 41.89C42.5515 42.1393 42.5515 42.4064 42.4734 42.6556C40.4492 48.7862 38.4192 54.9197 36.3834 61.0561C36.3225 61.1605 36.2703 61.2649 36.1485 61.5259Z" fill="white"/>
<path id="Vector_3" d="M35.2002 71.7318C38.1147 63.2406 41.0379 54.7495 44.022 46.1104C47.1192 54.6103 50.1642 62.9449 53.2092 71.2795C47.4131 73.374 41.0941 73.5327 35.2002 71.7318Z" fill="white"/>
<path id="Vector_4" d="M16.617 31.6074C21.2889 44.3703 25.9347 57.1245 30.6066 69.9309C16.1124 63.1014 10.1964 45.3708 16.617 31.6074Z" fill="white"/>
<path id="Vector_5" d="M69.4086 29.5801C73.0312 36.2865 73.9056 44.1383 71.8473 51.4774C69.7889 58.8165 64.9588 65.0684 58.377 68.9128C58.4727 68.5996 58.5249 68.3908 58.5945 68.182L68.1645 40.4899C69.3481 36.9826 69.7722 33.2638 69.4086 29.5801Z" fill="white"/>
</g>
</svg>
