<svg width="79" height="79" viewBox="0 0 79 79" fill="none" xmlns="http://www.w3.org/2000/svg">
<g id="Artboard 1 copy 2 3">
<path id="Vector" d="M53.3882 15.35C51.5847 15.3612 49.8053 15.7656 48.1741 16.535C43.4974 18.8655 41.0089 22.6417 40.8035 27.8715C40.7561 29.2382 40.8035 30.6049 40.8035 31.9637C40.7918 32.2344 40.6791 32.491 40.4875 32.6826C39.8495 33.191 39.3227 33.8249 38.9395 34.5451C38.5563 35.2653 38.3249 36.0564 38.2597 36.8696C37.6909 42.0362 37.1063 47.187 36.5454 52.3457C36.406 53.1952 36.4588 54.0652 36.7001 54.8917C36.9413 55.7181 37.3647 56.48 37.9392 57.1212C38.5137 57.7624 39.2247 58.2666 40.0197 58.5968C40.8148 58.927 41.6738 59.0747 42.5336 59.0291C45.8832 59.0291 49.2407 59.0291 52.5903 59.0291H53.3803C53.3803 59.3056 53.3803 59.5426 53.3803 59.7717V69.2517C53.3803 72.1431 51.5633 73.9917 48.6403 73.9917H16.7796C13.8803 73.9917 12.0396 72.1826 12.0396 69.2912V9.74098C12.0396 6.84168 13.8408 5.04048 16.7796 5.00098H21.2273C21.2273 5.23008 21.2668 5.43548 21.2668 5.64088C21.2668 6.95228 21.2668 8.27158 21.2668 9.59088C21.2573 10.1941 21.3678 10.7932 21.5916 11.3534C21.8155 11.9137 22.1484 12.4239 22.5709 12.8545C22.9934 13.2851 23.4973 13.6276 24.0532 13.8621C24.609 14.0965 25.2059 14.2183 25.8092 14.2203C30.4334 14.2519 35.0523 14.2519 39.6659 14.2203C40.8797 14.2182 42.0431 13.7345 42.9007 12.8754C43.7583 12.0164 44.24 10.8521 44.24 9.63828C44.24 8.13728 44.24 6.62838 44.24 5.12738C46.1329 5.04412 48.0288 5.05994 49.92 5.17478C50.8289 5.27592 51.6725 5.69554 52.3016 6.35925C52.9306 7.02297 53.3043 7.88794 53.3566 8.80088C53.5067 10.9576 53.3882 13.138 53.3882 15.35ZM32.7771 67.0713H37.2327C37.5454 67.0896 37.8585 67.0439 38.1529 66.9368C38.4473 66.8298 38.7167 66.6637 38.9446 66.4488C39.1725 66.2339 39.354 65.9747 39.4781 65.6871C39.6022 65.3995 39.6663 65.0896 39.6663 64.7763C39.6663 64.4631 39.6022 64.1531 39.4781 63.8655C39.354 63.5779 39.1725 63.3187 38.9446 63.1038C38.7167 62.8889 38.4473 62.7228 38.1529 62.6158C37.8585 62.5088 37.5454 62.463 37.2327 62.4814C34.2702 62.4814 31.2998 62.4814 28.3372 62.4814C28.0245 62.463 27.7114 62.5088 27.417 62.6158C27.1226 62.7228 26.8532 62.8889 26.6253 63.1038C26.3974 63.3187 26.2159 63.5779 26.0918 63.8655C25.9677 64.1531 25.9036 64.4631 25.9036 64.7763C25.9036 65.0896 25.9677 65.3995 26.0918 65.6871C26.2159 65.9747 26.3974 66.2339 26.6253 66.4488C26.8532 66.6637 27.1226 66.8298 27.417 66.9368C27.7114 67.0439 28.0245 67.0896 28.3372 67.0713H32.7771Z" fill="white"/>
<path id="Vector_2" d="M62.6313 34.8627C64.3614 35.0602 65.0013 35.787 65.2146 37.4539C65.7413 42.5046 66.3022 47.5448 66.8973 52.5745C67.1185 54.5021 66.1942 55.5844 64.235 55.5844H42.6127C40.6851 55.5844 39.7529 54.5653 39.9662 52.6298C40.5245 47.4685 41.0959 42.3124 41.6805 37.1616C41.8385 35.7475 42.5969 35.0681 44.2401 34.8548V33.97C44.1739 31.4827 44.2346 28.9936 44.4218 26.5124C44.9511 22.0726 49.0196 18.7862 53.5779 18.8415C55.7513 18.873 57.8426 19.6773 59.4769 21.1104C61.1112 22.5436 62.1819 24.5118 62.497 26.6625C62.5984 27.6149 62.6406 28.5726 62.6234 29.5302C62.6392 31.2761 62.6313 33.0457 62.6313 34.8627ZM57.994 34.5546C57.994 34.3334 57.994 34.1517 57.994 33.9621C57.994 32.0029 57.994 30.0121 57.994 28.0845C58.0169 27.4652 57.9143 26.8476 57.6925 26.2689C57.4706 25.6903 57.1341 25.1624 56.7031 24.7171C56.2721 24.2718 55.7555 23.9182 55.1843 23.6776C54.6132 23.437 53.9993 23.3143 53.3796 23.317C52.7598 23.3196 52.147 23.4476 51.578 23.6931C51.0089 23.9386 50.4954 24.2966 50.0682 24.7456C49.641 25.1946 49.309 25.7254 49.0922 26.3059C48.8753 26.8865 48.7781 27.5049 48.8063 28.124C48.8063 30.0595 48.8063 31.995 48.8063 33.9305C48.8063 34.1359 48.8063 34.3413 48.8537 34.5546H57.994Z" fill="white"/>
<path id="Vector_3" d="M39.5948 9.59879H25.8962V5.08789H39.5948V9.59879Z" fill="white"/>
</g>
</svg>
