<svg width="64" height="64" viewBox="0 0 64 64" fill="none" xmlns="http://www.w3.org/2000/svg">
<g id="Artboard 1 copy 2 2">
<path id="Vector" d="M24.0961 6.98926H26.7713C26.8784 7.02505 26.9874 7.05496 27.0977 7.07886C28.1473 7.27086 29.2225 7.37966 30.2529 7.66126C34.9502 8.94491 38.9627 12.0078 41.4395 16.2003C43.9163 20.3929 44.6626 25.3853 43.5201 30.1189C42.8551 32.7967 41.6065 35.2944 39.8637 37.4335C38.1209 39.5726 35.927 41.3001 33.4388 42.4926C30.9506 43.685 28.2296 44.3128 25.4705 44.3312C22.7114 44.3496 19.9824 43.758 17.4785 42.5989C17.1157 42.3964 16.6957 42.3211 16.2851 42.3849C15.8746 42.4487 15.4972 42.6479 15.2129 42.9509C14.8854 43.2541 14.5321 43.5282 14.1569 43.7701C13.1929 44.3919 12.105 44.7965 10.9688 44.9557C9.83271 45.1148 8.67554 45.0247 7.57772 44.6917C7.57166 44.6471 7.57166 44.6019 7.57772 44.5573L7.71212 44.2373C8.53699 42.3857 8.97973 40.3866 9.01382 38.3599C9.04791 36.3331 8.67265 34.3204 7.91052 32.4421C6.65232 29.385 6.29263 26.0324 6.87372 22.7781C8.35852 14.9317 13.0177 9.87566 20.6657 7.61006C21.7968 7.33968 22.942 7.13243 24.0961 6.98926ZM38.0545 25.7605C38.0583 25.2232 37.9026 24.697 37.607 24.2483C37.3114 23.7997 36.8893 23.4489 36.3942 23.2404C35.8991 23.0319 35.3532 22.975 34.8257 23.077C34.2983 23.179 33.813 23.4353 33.4313 23.8134C33.0496 24.1915 32.7887 24.6744 32.6817 25.2008C32.5747 25.7273 32.6264 26.2737 32.8303 26.7708C33.0341 27.2679 33.3809 27.6933 33.8267 27.9931C34.2725 28.2929 34.7973 28.4536 35.3345 28.4549C36.052 28.4566 36.741 28.1741 37.2507 27.6691C37.7604 27.1642 38.0494 26.4779 38.0545 25.7605ZM28.0705 25.7605C28.073 25.2263 27.9171 24.7034 27.6225 24.2578C27.3278 23.8123 26.9076 23.4641 26.4151 23.2574C25.9226 23.0506 25.3798 22.9946 24.8554 23.0963C24.331 23.198 23.8486 23.453 23.4691 23.8289C23.0896 24.2048 22.8301 24.6848 22.7234 25.2082C22.6167 25.7316 22.6676 26.2749 22.8697 26.7694C23.0717 27.2639 23.4159 27.6873 23.8586 27.9862C24.3013 28.285 24.8228 28.4459 25.3569 28.4485C26.0721 28.4519 26.7595 28.1715 27.2682 27.6687C27.7769 27.166 28.0654 26.482 28.0705 25.7669V25.7605ZM12.7105 25.7221C12.7067 26.257 12.8619 26.7811 13.1563 27.2277C13.4508 27.6744 13.8712 28.0236 14.3644 28.2309C14.8576 28.4383 15.4012 28.4945 15.9263 28.3925C16.4515 28.2904 16.9345 28.0347 17.3142 27.6578C17.6938 27.2809 17.953 26.7997 18.0587 26.2753C18.1645 25.7508 18.1122 25.2068 17.9083 24.7122C17.7045 24.2176 17.3583 23.7946 16.9138 23.497C16.4692 23.1994 15.9463 23.0405 15.4113 23.0405C14.696 23.0404 14.0097 23.3228 13.5015 23.8262C12.9933 24.3296 12.7045 25.0132 12.6977 25.7285L12.7105 25.7221Z" fill="white"/>
<path id="Vector_2" d="M57.3695 39.2705C57.2159 40.2305 57.1327 41.1905 56.9023 42.1441C56.5183 43.6929 56.0127 45.2097 55.6223 46.7521C54.6877 50.1233 54.957 53.7147 56.3839 56.9089C56.4351 57.0241 56.4735 57.1457 56.5439 57.3185C55.5427 57.6601 54.4774 57.7716 53.4271 57.6449C51.7047 57.4823 50.0855 56.7504 48.8255 55.5649C48.5392 55.2762 48.1652 55.0907 47.7622 55.0375C47.3591 54.9842 46.9498 55.0661 46.5983 55.2705C42.8464 57.0045 38.626 57.4476 34.5958 56.5306C30.5655 55.6137 26.9523 53.3882 24.3199 50.2017C23.6799 49.4081 23.0975 48.5377 22.3999 47.5905C29.9071 48.3073 36.3135 46.2529 41.4335 40.8641C46.5535 35.4753 48.2623 28.9857 47.1935 21.6641C47.3407 21.7281 47.4559 21.7601 47.5647 21.8177C52.9791 24.8129 56.2303 29.3313 57.2159 35.4625C57.2735 35.8465 57.3375 36.2369 57.3951 36.6273L57.3695 39.2705Z" fill="white"/>
</g>
</svg>
