<svg width="76" height="76" viewBox="0 0 76 76" fill="none" xmlns="http://www.w3.org/2000/svg">
<g id="Artboard 1 copy 5 2">
<path id="Vector" d="M45.1212 5.77628V45.1215H5.73804V44.3615C5.73804 33.3972 5.73804 22.4304 5.73804 11.4611C5.73804 8.01068 7.93444 5.73828 11.324 5.73828C22.3896 5.73828 33.4502 5.73828 44.5056 5.73828C44.6956 5.74588 44.878 5.76108 45.1212 5.77628Z" fill="white"/>
<path id="Vector_2" d="M45.1061 70.2545H44.3461C33.4021 70.2545 22.4555 70.2545 11.5065 70.2545C8.80086 70.2545 6.84006 68.9473 6.08006 66.6217C5.89749 66.0697 5.8001 65.4931 5.79126 64.9117C5.79126 60.8685 5.79126 56.8329 5.79126 52.7973C5.79126 52.6833 5.79126 52.5693 5.79126 52.3945H45.1061V70.2545Z" fill="white"/>
<path id="Vector_3" d="M52.3944 34.4512H70.224C70.224 34.7096 70.224 34.93 70.224 35.158C70.224 44.962 70.224 54.7634 70.224 64.5624C70.224 67.4352 68.6128 69.548 65.9908 70.1332C65.5805 70.2158 65.1629 70.2565 64.7444 70.2548C60.7772 70.2548 56.81 70.2548 52.8428 70.2548C52.706 70.2548 52.5616 70.2548 52.364 70.2548L52.3944 34.4512Z" fill="white"/>
<path id="Vector_4" d="M70.224 27.1923H52.3792V5.78312C52.63 5.78312 52.8808 5.74512 53.1392 5.74512H64.5392C68.02 5.74512 70.2468 7.95672 70.2544 11.4147C70.2544 16.4611 70.2544 21.4999 70.2544 26.5387C70.262 26.7439 70.2392 26.9491 70.224 27.1923Z" fill="white"/>
</g>
</svg>
