<svg width="86" height="86" viewBox="0 0 86 86" fill="none" xmlns="http://www.w3.org/2000/svg">
<g id="Artboard 1 copy 24">
<path id="Vector" d="M42.2607 69.1355V77.2797C40.2328 77.2063 38.2346 76.7694 36.3611 75.9897C33.1405 74.6697 30.3872 72.4186 28.4537 69.5244C26.5202 66.6303 25.4945 63.2249 25.5079 59.7443C25.5079 58.1533 25.5079 56.5709 25.5079 54.9541H33.6693C33.6693 55.1605 33.6693 55.3583 33.6693 55.5647C33.6693 57.4481 33.6091 59.3401 33.8069 61.2063C34.0813 63.1707 34.9831 64.9939 36.3778 66.4041C37.7726 67.8144 39.5857 68.7362 41.5469 69.0323C41.7963 69.0581 42.0199 69.1011 42.2607 69.1355Z" fill="white"/>
<path id="Vector_2" d="M43.7139 77.3144V69.153C44.1181 69.0842 44.5739 69.0154 44.9437 68.9294C47.0133 68.4879 48.8709 67.3547 50.2106 65.7165C51.5502 64.0783 52.292 62.0327 52.3139 59.9166C52.3139 58.4632 52.3139 57.0098 52.3139 55.5478V54.963C52.4055 54.9576 52.4974 54.9576 52.5891 54.963H60.3721C60.3721 55.0146 60.4581 55.049 60.4581 55.0748C60.4581 57.9988 60.6645 60.9314 60.0195 63.8382C59.2059 67.2026 57.4186 70.2526 54.8809 72.6067C52.3433 74.9607 49.168 76.5145 45.7521 77.0736C45.0985 77.1682 44.4449 77.2284 43.7139 77.3144Z" fill="white"/>
<path id="Vector_3" d="M19.1521 33.1706C19.5649 35.4152 20.7689 36.6106 22.5921 36.5074C24.4153 36.4042 25.5075 35.2174 25.7827 33.0674C27.1531 33.4519 28.5023 33.9084 29.8247 34.4348C30.3512 34.6981 30.7923 35.1053 31.0967 35.6092C31.4012 36.113 31.5565 36.6928 31.5447 37.2814C31.5447 37.9006 31.5447 38.5198 31.5447 39.139C31.5447 39.7582 31.2867 39.956 30.6847 39.956H14.2071C13.7513 39.956 13.4073 39.7582 13.4073 39.3024C13.3611 38.4127 13.3927 37.5206 13.5019 36.6364C13.5921 36.0638 13.8404 35.5278 14.2187 35.0887C14.597 34.6496 15.0904 34.3248 15.6433 34.151C16.7871 33.7984 17.9825 33.5404 19.1521 33.1706Z" fill="white"/>
<path id="Vector_4" d="M39.6892 33.1697C39.9386 35.1993 41.1598 36.4549 42.8712 36.5065C44.5826 36.5581 45.8812 35.4229 46.3112 33.1611C47.498 33.5137 48.7192 33.7889 49.8716 34.2275C50.5186 34.4596 51.0774 34.8873 51.4704 35.4514C51.8633 36.0154 52.071 36.6877 52.0646 37.3751C52.0646 37.9513 52.0646 38.5361 52.0646 39.0951C52.0646 39.6541 51.8238 39.9551 51.2046 39.9551H34.9592C34.0992 39.9551 33.8928 39.7573 33.9014 38.8973C33.8822 38.1445 33.9196 37.3913 34.0132 36.6441C34.1209 36.0877 34.372 35.5689 34.7415 35.1391C35.111 34.7092 35.5862 34.3832 36.1202 34.1931C36.2634 34.1383 36.4099 34.0923 36.5588 34.0555L39.6892 33.1697Z" fill="white"/>
<path id="Vector_5" d="M60.1997 33.1698C60.5953 35.38 61.7821 36.541 63.5881 36.5066C65.3941 36.4722 66.5551 35.2424 66.8303 33.1182C68.1856 33.4925 69.5204 33.9375 70.8293 34.4512C71.3621 34.7044 71.8117 35.1043 72.1254 35.6039C72.4392 36.1034 72.6041 36.682 72.6009 37.272C72.6009 37.9084 72.6009 38.5448 72.6009 39.1898C72.6009 39.8348 72.3429 39.9982 71.7409 39.9982H55.2289C54.7731 39.9982 54.4377 39.8004 54.4291 39.336C54.386 38.446 54.4205 37.5539 54.5323 36.67C54.6185 36.1076 54.8597 35.5804 55.2288 35.1474C55.598 34.7145 56.0804 34.393 56.6221 34.219C57.7831 33.8062 58.9871 33.5396 60.1997 33.1698Z" fill="white"/>
<path id="Vector_6" d="M45.0295 46.9989H46.5861C47.3085 46.9989 47.6181 47.5063 47.2741 48.1341C45.7691 50.8689 44.2555 53.5951 42.7075 56.3127C42.6065 56.4446 42.4763 56.5513 42.3271 56.6244C42.1778 56.6975 42.0137 56.7351 41.8475 56.7341C41.4605 56.7341 41.3315 56.3385 41.3315 55.9515C41.3315 54.5669 41.3315 53.1909 41.3315 51.8149V51.1957H39.4567C38.7343 51.1957 38.4591 50.8431 38.5967 50.1551C39.1815 47.8073 39.7835 45.4595 40.3167 43.1031C40.3273 42.9875 40.3612 42.8752 40.4163 42.773C40.4714 42.6709 40.5466 42.5809 40.6374 42.5086C40.7282 42.4363 40.8327 42.3831 40.9446 42.3522C41.0565 42.3214 41.1735 42.3135 41.2885 42.3291C42.6817 42.3291 44.0835 42.3291 45.4767 42.3291C46.3367 42.3291 46.5861 42.7419 46.2765 43.5331L44.9607 46.8269C44.9782 46.8862 45.0012 46.9438 45.0295 46.9989Z" fill="white"/>
<path id="Vector_7" d="M46.715 24.398C46.715 25.774 46.715 27.0812 46.715 28.3798C46.6383 29.3215 46.2063 30.1989 45.5068 30.8341C44.8072 31.4693 43.8923 31.8148 42.9475 31.8006C42.0027 31.7864 41.0987 31.4135 40.4185 30.7576C39.7384 30.1016 39.333 29.2116 39.2846 28.268C39.2846 27.5886 39.2846 26.9092 39.2846 26.2298C39.2743 25.776 39.4378 25.3354 39.7415 24.9981C40.0452 24.6609 40.4663 24.4523 40.9186 24.4152C42.8192 24.3636 44.7198 24.398 46.715 24.398Z" fill="white"/>
<path id="Vector_8" d="M26.196 25.3612C26.196 26.4104 26.2476 27.4166 26.196 28.4228C26.113 29.3659 25.6739 30.2419 24.9681 30.8728C24.2622 31.5037 23.3425 31.842 22.3961 31.819C21.4496 31.796 20.5475 31.4134 19.8731 30.749C19.1987 30.0846 18.8027 29.1882 18.7656 28.2422C18.7656 27.388 18.7656 26.528 18.7656 25.6622C18.7888 25.4456 18.8933 25.2458 19.058 25.1032C19.6757 24.6345 20.3251 24.2093 21.0016 23.8304C21.1494 23.7601 21.311 23.7236 21.4746 23.7236C21.6383 23.7236 21.7999 23.7601 21.9476 23.8304C23.1778 24.7559 24.6583 25.2893 26.196 25.3612Z" fill="white"/>
<path id="Vector_9" d="M67.2002 24.3892C67.2002 25.834 67.312 27.2444 67.2002 28.6204C67.0857 29.5696 66.6037 30.4362 65.8578 31.0342C65.1118 31.6323 64.1612 31.9142 63.2098 31.8196C62.2815 31.7162 61.4219 31.2805 60.7897 30.5929C60.1574 29.9054 59.7952 29.0123 59.7698 28.0786C59.6694 27.4998 59.7624 26.904 60.0344 26.3833C60.3065 25.8626 60.7424 25.4459 61.2748 25.1976C62.132 24.6114 63.1521 24.3105 64.1902 24.3376C65.1706 24.4408 66.2198 24.3892 67.2002 24.3892Z" fill="white"/>
<path id="Vector_10" d="M33.6606 53.5175H25.5078V52.5457C25.5078 51.3073 25.5078 50.0603 25.5078 48.8219C25.5078 48.1769 25.7486 47.9619 26.3678 47.9619H32.7748C33.2392 47.9619 33.6348 48.1253 33.6348 48.6241C33.6778 50.2151 33.6606 51.8405 33.6606 53.5175Z" fill="white"/>
<path id="Vector_11" d="M60.4671 53.5002H52.3229C52.3229 51.849 52.3229 50.2236 52.3229 48.5982C52.3189 48.509 52.334 48.4201 52.3671 48.3373C52.4002 48.2544 52.4505 48.1796 52.5148 48.1178C52.5791 48.0559 52.6558 48.0085 52.7399 47.9786C52.8239 47.9487 52.9134 47.9371 53.0023 47.9446C55.2555 47.9446 57.5087 47.9446 59.7619 47.9446C59.8557 47.9369 59.9501 47.9496 60.0385 47.9818C60.127 48.014 60.2074 48.0649 60.2744 48.131C60.3413 48.1971 60.3932 48.277 60.4265 48.365C60.4597 48.4531 60.4736 48.5473 60.4671 48.6412C60.4757 50.2408 60.4671 51.849 60.4671 53.5002Z" fill="white"/>
<path id="Vector_12" d="M59.7783 24.5618C59.7783 23.5212 59.7783 22.6096 59.7783 21.698C59.8005 21.0134 60.0773 20.3617 60.5544 19.8703C61.0315 19.3789 61.6747 19.083 62.3583 19.0406C64.0783 18.9976 65.7983 19.0406 67.5183 19.0406C67.7036 19.0261 67.8873 19.0845 68.0303 19.2034C68.1732 19.3222 68.2641 19.4921 68.2837 19.677C68.4929 20.7139 68.3412 21.7912 67.8537 22.73C67.7859 22.81 67.7016 22.8744 67.6066 22.9189C67.5116 22.9634 67.4082 22.987 67.3033 22.988C65.9445 22.988 64.5943 22.988 63.2355 22.988C62.4957 22.9527 61.7664 23.1745 61.1715 23.6158C60.7759 23.934 60.3115 24.2092 59.7783 24.5618Z" fill="white"/>
<path id="Vector_13" d="M39.3018 23.5637C39.2497 22.8222 39.2497 22.0779 39.3018 21.3363C39.405 20.6878 39.7381 20.0981 40.2402 19.6749C40.7423 19.2517 41.3799 19.0234 42.0366 19.0315C42.6386 19.0315 43.2492 19.0831 43.8426 19.0315C44.4677 18.9547 45.0822 18.8076 45.6744 18.5929C46.3022 18.3693 46.6204 18.4209 46.9042 19.0143C47.4223 20.0839 47.5471 21.3018 47.2568 22.4543C47.251 22.5393 47.2272 22.6221 47.1871 22.6973C47.1469 22.7724 47.0912 22.8382 47.0238 22.8902C46.9563 22.9422 46.8785 22.9793 46.7957 22.9991C46.7128 23.0188 46.6266 23.0207 46.543 23.0047C45.0896 23.0047 43.6362 23.0047 42.1828 23.0047C41.187 22.8644 40.1728 23.0611 39.3018 23.5637Z" fill="white"/>
<path id="Vector_14" d="M26.2037 23.917C25.1132 23.9133 24.0491 23.5806 23.1507 22.9624C21.7317 21.9992 21.2157 21.9992 19.7795 22.9624L18.7389 23.6504C18.8163 22.5152 18.5411 21.4488 18.9539 20.4426C19.1094 20.0291 19.3884 19.6735 19.7531 19.4243C20.1178 19.175 20.5504 19.0441 20.9921 19.0494C21.9811 19.0064 22.9701 19.0494 23.9591 19.0494C24.4994 19.0639 25.0172 19.2684 25.4215 19.6271C25.8258 19.9857 26.0906 20.4755 26.1693 21.0102C26.1953 21.3192 26.1953 21.6299 26.1693 21.939C26.2123 22.5754 26.2037 23.2204 26.2037 23.917Z" fill="white"/>
<path id="Vector_15" d="M24.3125 32.9119C24.3859 33.2813 24.3425 33.6644 24.1884 34.008C24.0343 34.3516 23.7771 34.6388 23.4525 34.8297C23.1681 35.022 22.8326 35.1247 22.4893 35.1247C22.146 35.1247 21.8105 35.022 21.5261 34.8297C21.2034 34.6346 20.9481 34.3455 20.7944 34.0012C20.6407 33.6569 20.5959 33.2738 20.6661 32.9033C21.84 33.3499 23.1365 33.3529 24.3125 32.9119Z" fill="white"/>
<path id="Vector_16" d="M41.1429 32.9033C42.3328 33.3462 43.6423 33.3462 44.8323 32.9033C44.8973 33.2492 44.8604 33.6064 44.7261 33.9317C44.5917 34.2569 44.3657 34.5361 44.0755 34.7351C43.8009 34.9543 43.4659 35.0841 43.1153 35.1072C42.7648 35.1303 42.4156 35.0454 42.1147 34.8641C41.7651 34.6833 41.4823 34.3956 41.3075 34.0429C41.1328 33.6903 41.0751 33.291 41.1429 32.9033Z" fill="white"/>
<path id="Vector_17" d="M65.3605 32.9121C65.4306 33.2826 65.3859 33.6657 65.2322 34.01C65.0784 34.3543 64.8231 34.6434 64.5005 34.8385C64.2117 35.0401 63.868 35.1483 63.5158 35.1483C63.1636 35.1483 62.8198 35.0401 62.5311 34.8385C62.2129 34.6474 61.9603 34.3641 61.8068 34.0263C61.6532 33.6884 61.6059 33.3119 61.6711 32.9465C62.8643 33.3829 64.1755 33.3707 65.3605 32.9121Z" fill="white"/>
</g>
</svg>
