<svg width="74" height="74" viewBox="0 0 74 74" fill="none" xmlns="http://www.w3.org/2000/svg">
<g id="Artboard 1 copy 2 17">
<path id="Vector" d="M35.8824 29.9405C39.8897 29.9346 43.8085 31.1185 47.1423 33.3421C50.4761 35.5658 53.0747 38.729 54.6089 42.431C56.1431 46.133 56.5437 50.2071 55.7601 54.137C54.9765 58.067 53.0439 61.6758 50.2072 64.5063C47.3705 67.3368 43.7574 69.2614 39.8258 70.0364C35.8941 70.8113 31.8209 70.4017 28.1223 68.8594C24.4237 67.317 21.2662 64.7115 19.0499 61.3728C16.8336 58.0342 15.6583 54.1127 15.673 50.1055C15.6945 44.7563 17.832 39.633 21.6186 35.8547C25.4052 32.0764 30.5332 29.9502 35.8824 29.9405ZM35.8824 32.0865C32.3068 32.0952 28.8139 33.1633 25.8449 35.1557C22.8758 37.1481 20.5637 39.9756 19.2004 43.2811C17.8372 46.5867 17.4839 50.222 18.1852 53.7282C18.8866 57.2344 20.6111 60.4541 23.141 62.9809C25.6708 65.5077 28.8927 67.2282 32.3997 67.9253C35.9067 68.6223 39.5417 68.2646 42.8455 66.8973C46.1494 65.53 48.974 63.2144 50.9628 60.2429C52.9516 57.2714 54.0154 53.7773 54.0198 50.2016C54.0139 45.3952 52.1004 40.7875 48.6996 37.3909C45.2988 33.9943 40.6889 32.0864 35.8824 32.0865Z" fill="white"/>
<path id="Vector_2" d="M31.9159 16.2804V5.47644C31.9159 4.23324 32.2267 3.91504 33.4477 3.91504H38.4797C39.5379 3.91504 39.9005 4.27024 39.9005 5.32844C39.9005 8.67324 39.9005 12.0254 39.9005 15.3776V16.2804C40.9735 16.2804 41.9947 16.2804 43.0159 16.2804C43.5709 16.2804 44.0963 16.2804 44.3849 16.8946C44.6735 17.5088 44.3849 17.8714 44.0667 18.3006L36.9997 27.7134C36.2597 28.7272 35.5715 28.7272 34.8241 27.7134C32.4561 24.5536 30.0955 21.379 27.7275 18.2192C27.5542 18.0497 27.4394 17.8292 27.3999 17.5899C27.3605 17.3506 27.3984 17.1049 27.5082 16.8887C27.618 16.6724 27.7939 16.4968 28.0103 16.3874C28.2268 16.278 28.4725 16.2406 28.7117 16.2804C29.7625 16.2804 30.8059 16.2804 31.9159 16.2804Z" fill="white"/>
<path id="Vector_3" d="M60.3396 26.7658H62.8038C63.3366 26.7658 63.8472 26.8176 64.1136 27.3726C64.2132 27.6104 64.2383 27.8729 64.1854 28.1253C64.1325 28.3777 64.0043 28.6081 63.8176 28.786C61.8442 31.4056 59.8709 34.0326 57.8976 36.667C57.1576 37.666 56.4176 37.6734 55.6776 36.667C53.7536 34.04 51.8 31.376 49.802 28.7342C49.6262 28.5617 49.5057 28.3409 49.4557 28.0998C49.4056 27.8587 49.4282 27.6082 49.5208 27.38C49.6364 27.1607 49.8177 26.9829 50.0392 26.8715C50.2607 26.7601 50.5115 26.7205 50.7566 26.7584C51.5854 26.7584 52.4068 26.7584 53.3096 26.7584V25.3672C53.3096 24.0278 53.3096 22.6884 53.3096 21.349C53.285 21.1862 53.2987 21.02 53.3497 20.8635C53.4006 20.707 53.4874 20.5645 53.603 20.4474C53.7187 20.3303 53.8601 20.2418 54.016 20.1889C54.1718 20.136 54.3379 20.1202 54.501 20.1428C56.0402 20.1428 57.5868 20.1428 59.126 20.1428C59.9622 20.1428 60.3322 20.535 60.3396 21.3934C60.3396 22.9104 60.3396 24.4348 60.3396 25.9518V26.7658Z" fill="white"/>
<path id="Vector_4" d="M18.4995 26.7655C19.3875 26.7655 20.1867 26.7655 20.9859 26.7655C21.2408 26.7196 21.5036 26.7549 21.7373 26.8664C21.971 26.9779 22.1637 27.1601 22.2883 27.3871C22.3814 27.6164 22.4044 27.8682 22.3544 28.1105C22.3043 28.3529 22.1835 28.575 22.0071 28.7487C20.0239 31.3905 18.0555 34.0397 16.0871 36.6889C15.3471 37.6731 14.6515 37.6657 13.9041 36.6889C11.9283 34.0471 9.95252 31.3905 7.98412 28.7487C7.80051 28.5813 7.67664 28.3584 7.63138 28.1141C7.58611 27.8698 7.62193 27.6174 7.73339 27.3953C7.84484 27.1733 8.02582 26.9937 8.24875 26.884C8.47169 26.7743 8.72438 26.7405 8.96832 26.7877H11.4695V23.6797C11.4695 22.8953 11.4695 22.1183 11.4695 21.3339C11.4466 21.1711 11.4622 21.0052 11.5151 20.8495C11.568 20.6939 11.6567 20.5528 11.774 20.4376C11.8913 20.3225 12.034 20.2364 12.1906 20.1865C12.3472 20.1365 12.5134 20.1239 12.6757 20.1499C14.2149 20.1499 15.7615 20.1499 17.3007 20.1499C17.4636 20.1263 17.6298 20.1411 17.786 20.193C17.9422 20.2449 18.0841 20.3325 18.2005 20.4489C18.3169 20.5653 18.4045 20.7072 18.4564 20.8634C18.5083 21.0196 18.5231 21.1858 18.4995 21.3487C18.4995 22.8879 18.4995 24.4271 18.4995 25.9737V26.7655Z" fill="white"/>
<path id="Vector_5" d="M51.4083 50.15C51.4171 53.2181 50.5153 56.2198 48.8172 58.7751C47.119 61.3304 44.7009 63.3243 41.8689 64.5045C39.0368 65.6847 35.9183 65.9981 32.9081 65.4049C29.8979 64.8118 27.1314 63.3387 24.9588 61.1724C22.7862 59.006 21.3053 56.2438 20.7035 53.2353C20.1017 50.2268 20.4061 47.1074 21.5782 44.272C22.7503 41.4366 24.7373 39.0127 27.2877 37.3072C29.8381 35.6018 32.8372 34.6914 35.9053 34.6914C40.0063 34.7011 43.9372 36.3315 46.8412 39.2272C49.7452 42.1229 51.3868 46.0491 51.4083 50.15ZM34.7805 41.1738L34.0405 41.3292C32.5742 41.5784 31.2287 42.2978 30.2073 43.379C29.5394 44.0679 29.139 44.9723 29.0779 45.9298C29.0169 46.8874 29.2993 47.8353 29.8743 48.6034C30.6175 49.5972 31.6522 50.3345 32.8343 50.7124C33.4781 50.9344 34.1515 51.075 34.8397 51.26V56.9802C32.7973 56.7878 31.7243 55.8924 31.1915 53.9758C31.148 53.7169 31.0036 53.4858 30.79 53.3332C30.5763 53.1806 30.3109 53.119 30.0519 53.1618C29.922 53.1636 29.7938 53.1916 29.675 53.2439C29.5561 53.2963 29.4489 53.372 29.3599 53.4666C29.2709 53.5611 29.2017 53.6726 29.1566 53.7944C29.1115 53.9162 29.0913 54.0459 29.0973 54.1756C29.0839 54.4641 29.1113 54.7531 29.1787 55.034C29.3383 55.7351 29.6587 56.3896 30.1146 56.9456C30.5706 57.5017 31.1495 57.9442 31.8057 58.2382C32.7529 58.697 33.7889 58.9782 34.8249 59.3556C34.9729 60.7912 35.2097 61.1908 35.9349 61.1908C36.6601 61.1908 36.8599 60.7542 37.0005 59.2002L37.7405 59.0448C38.9315 58.8283 40.0503 58.3198 40.9965 57.5648C41.4385 57.2498 41.8141 56.8506 42.1017 56.3903C42.3894 55.9299 42.5834 55.4174 42.6727 54.882C42.7621 54.3466 42.745 53.7988 42.6224 53.27C42.4999 52.7412 42.2743 52.2417 41.9585 51.8002C41.2094 50.7848 40.1534 50.0376 38.9467 49.669C38.3177 49.4618 37.6665 49.3212 37.0079 49.1436V43.4234C39.0503 43.6084 40.1159 44.5038 40.6487 46.4278C40.694 46.6858 40.8388 46.9157 41.052 47.0679C41.2651 47.2202 41.5295 47.2826 41.7883 47.2418C41.9179 47.239 42.0456 47.2103 42.164 47.1576C42.2824 47.105 42.3891 47.0292 42.4779 46.9349C42.5668 46.8405 42.636 46.7294 42.6815 46.6081C42.7269 46.4867 42.7478 46.3575 42.7429 46.228C42.7566 45.937 42.7292 45.6455 42.6615 45.3622C42.4788 44.6091 42.118 43.9109 41.6094 43.3262C41.1007 42.7416 40.4591 42.2877 39.7385 42.0026C38.8429 41.6438 37.9289 41.3325 37.0005 41.0702C36.8599 39.642 36.6083 39.2054 35.8905 39.2054C35.1727 39.2054 34.9507 39.605 34.7805 41.1738Z" fill="white"/>
<path id="Vector_6" d="M34.7803 43.3789V48.9955C34.1428 48.9517 33.5217 48.7734 32.958 48.4724C32.3943 48.1714 31.9006 47.7545 31.5095 47.2491C31.2434 46.882 31.1226 46.4293 31.1704 45.9784C31.2182 45.5275 31.4313 45.1102 31.7685 44.8071C32.5793 44.0002 33.6425 43.4961 34.7803 43.3789Z" fill="white"/>
<path id="Vector_7" d="M37 56.9799V51.3633C38.1981 51.4614 39.313 52.0148 40.1154 52.9099C40.4443 53.2698 40.6204 53.7435 40.6066 54.2309C40.5928 54.7183 40.3901 55.1813 40.0414 55.5221C39.2336 56.3548 38.1551 56.8718 37 56.9799Z" fill="white"/>
</g>
</svg>
