<svg width="79" height="79" viewBox="0 0 79 79" fill="none" xmlns="http://www.w3.org/2000/svg">
<g id="Artboard 1 24">
<path id="Vector" d="M30.7392 9.41699C31.1737 9.52759 31.4423 9.58289 31.7109 9.66189C33.6306 10.2149 35.5503 10.7758 37.4779 11.3051C37.8303 11.3961 38.2 11.3961 38.5523 11.3051C40.5036 10.7758 42.4391 10.1991 44.3825 9.63819C45.3621 9.36169 45.5833 9.43279 46.2311 10.2623C47.4635 11.8423 48.6801 13.4223 49.9283 15.0023C50.1735 15.3 50.4921 15.5288 50.8526 15.6659C52.7407 16.3848 54.6446 17.0642 56.5485 17.7515C57.4807 18.0912 57.6545 18.344 57.6861 19.3315C57.7493 21.3144 57.7888 23.2815 57.8915 25.2644C57.9218 25.6973 58.0604 26.1156 58.2944 26.481C59.3925 28.1795 60.5301 29.8543 61.6835 31.5212C61.8917 31.7721 62.0056 32.0879 62.0056 32.4139C62.0056 32.7399 61.8917 33.0557 61.6835 33.3066C60.5301 34.9656 59.3925 36.6404 58.2944 38.3389C58.0579 38.7037 57.9167 39.122 57.8836 39.5555C57.7809 41.5305 57.7414 43.5055 57.6782 45.4884C57.6782 46.4996 57.4965 46.7366 56.5564 47.0684C54.6288 47.7715 52.7012 48.4509 50.7894 49.1777C50.4795 49.3039 50.2074 49.508 49.9994 49.7702C48.7117 51.3502 47.4319 53.0171 46.1758 54.6603C46.0039 54.9385 45.7389 55.1467 45.4279 55.2479C45.1169 55.3492 44.7801 55.3369 44.4773 55.2133C42.5418 54.6287 40.5984 54.0599 38.6471 53.5385C38.2299 53.4318 37.7925 53.4318 37.3752 53.5385C35.4476 54.0599 33.5279 54.6287 31.6082 55.1817C30.6523 55.4503 30.3995 55.3713 29.807 54.6129C28.5667 53.0329 27.3343 51.4055 26.0624 49.8729C25.7988 49.5598 25.4586 49.3203 25.0749 49.1777C23.1842 48.4562 21.2856 47.7636 19.379 47.1C19.0507 47.0185 18.7621 46.8226 18.5652 46.5475C18.3683 46.2724 18.2759 45.9361 18.3046 45.599C18.3046 43.624 18.2098 41.649 18.1071 39.674C18.0761 39.1936 17.9239 38.7288 17.6647 38.3231C16.5824 36.6483 15.4527 34.9893 14.3151 33.3461C14.1041 33.0965 13.9883 32.7802 13.9883 32.4534C13.9883 32.1265 14.1041 31.8103 14.3151 31.5607C15.4738 29.8806 16.6167 28.1848 17.7437 26.4731C17.9565 26.1469 18.0816 25.7715 18.1071 25.3829C18.2019 23.4079 18.2572 21.4329 18.3125 19.45C18.352 18.344 18.4863 18.1307 19.5054 17.7673C21.3856 17.0879 23.2737 16.4164 25.1381 15.7054C25.5063 15.5627 25.8285 15.3223 26.0703 15.0102C27.3659 13.4302 28.6141 11.7475 29.9097 10.128C30.16 9.86204 30.4381 9.62368 30.7392 9.41699ZM37.9835 46.9262C40.8569 46.9278 43.6662 46.0772 46.0562 44.4822C48.4462 42.8871 50.3096 40.6191 51.4106 37.9651C52.5117 35.311 52.801 32.39 52.2419 29.5716C51.6829 26.7531 50.3006 24.1637 48.2699 22.1308C46.2393 20.0979 43.6513 18.7128 40.8335 18.1507C38.0156 17.5886 35.0943 17.8747 32.4391 18.9729C29.7838 20.071 27.5138 21.9319 25.9161 24.3201C24.3185 26.7084 23.4649 29.5168 23.4633 32.3902C23.4633 36.2426 24.9926 39.9375 27.7152 42.6631C30.4379 45.3887 34.1311 46.922 37.9835 46.9262Z" fill="white"/>
<path id="Vector_2" d="M24.3713 51.2949L27.9579 55.8927C29.1903 57.4727 30.1146 57.8124 32.0817 57.2989L35.8105 56.3193L34.9336 59.3608C33.8539 63.1528 32.769 66.9501 31.6788 70.7526C31.653 70.8169 31.6319 70.8829 31.6156 70.9501C31.593 71.2204 31.4789 71.4749 31.2922 71.6716C31.1055 71.8684 30.8573 71.9956 30.5886 72.0324C29.9645 72.1193 29.609 71.7401 29.3325 71.2424C28.5425 69.7809 27.7051 68.3194 26.8914 66.8579C26.7808 66.6525 26.6623 66.455 26.5043 66.1864C25.7143 66.6209 24.9243 67.0554 24.1343 67.4899L21.2666 69.0699C21.0678 69.1919 20.8364 69.2498 20.6036 69.2358C20.3709 69.2218 20.148 69.1367 19.9652 68.9918C19.7825 68.847 19.6486 68.6495 19.5818 68.4261C19.5151 68.2026 19.5185 67.9641 19.5918 67.7427C21.1244 62.3549 22.6649 56.9724 24.2133 51.5951C24.2551 51.4897 24.308 51.389 24.3713 51.2949Z" fill="white"/>
<path id="Vector_3" d="M49.4702 66.1472C48.4985 67.9405 47.59 69.5916 46.6104 71.2506C46.3828 71.6173 46.0374 71.8959 45.6308 72.0406C45.062 72.2144 44.6038 71.7799 44.3826 71.0136L40.9224 58.9503C40.6775 58.105 40.4405 57.2676 40.1719 56.3196C41.6334 56.7067 42.9764 57.0464 44.3115 57.4098C44.9387 57.609 45.6134 57.6005 46.2354 57.3856C46.8573 57.1706 47.3933 56.7608 47.7638 56.2169C48.9725 54.708 50.1338 53.1754 51.3267 51.6507L51.6585 51.2715C52.1641 53.0411 52.6539 54.7317 53.1358 56.4144C54.1891 60.1011 55.2424 63.7877 56.2958 67.4744C56.4231 67.7243 56.4643 68.0093 56.4129 68.2851C56.3614 68.5609 56.2203 68.8119 56.0114 68.9991C55.49 69.4257 54.9844 69.2361 54.4314 68.9438C52.8435 68.0116 51.1924 67.1031 49.4702 66.1472Z" fill="white"/>
<path id="Vector_4" d="M37.9756 44.6903C35.5417 44.6871 33.1635 43.9615 31.1425 42.6053C29.1214 41.2492 27.5484 39.3236 26.6228 37.0726C25.6972 34.8216 25.4607 32.3464 25.9432 29.9609C26.4257 27.5753 27.6056 25.3866 29.3333 23.6723C31.0609 21.9579 33.2586 20.7951 35.6478 20.331C38.0371 19.8669 40.5103 20.1226 42.7541 21.0655C44.9979 22.0085 46.9113 23.5963 48.2517 25.6278C49.5922 27.6593 50.2994 30.043 50.2838 32.4769C50.267 35.7273 48.9619 38.8385 46.6546 41.1281C44.3472 43.4176 41.2261 44.6987 37.9756 44.6903ZM36.2139 34.6178L33.4726 31.8923C32.7616 31.1813 32.1296 31.1023 31.6082 31.6395C31.0868 32.1767 31.1895 32.785 31.861 33.4565C32.9512 34.5388 34.0335 35.629 35.1237 36.7034C35.8663 37.4381 36.3956 37.4381 37.1461 36.7034L40.2903 33.5829C41.6254 32.2557 42.9605 30.9285 44.2877 29.5855C44.4297 29.4821 44.5452 29.3467 44.6249 29.1901C44.7045 29.0336 44.7461 28.8605 44.7461 28.6849C44.7461 28.5092 44.7045 28.3361 44.6249 28.1796C44.5452 28.0231 44.4297 27.8876 44.2877 27.7843C44.0437 27.613 43.7429 27.5429 43.4483 27.5885C43.1538 27.6342 42.8883 27.7921 42.7077 28.0292C41.0434 29.6829 39.3844 31.3419 37.7307 33.0062C37.1777 33.5197 36.7116 34.0727 36.2139 34.6178Z" fill="white"/>
</g>
</svg>
