<svg width="85" height="85" viewBox="0 0 85 85" fill="none" xmlns="http://www.w3.org/2000/svg">
<g id="Artboard 1 23">
<path id="Vector" d="M49.9376 49.6829H50.6601C54.0601 49.6829 57.4006 49.6829 60.7666 49.6829C61.3606 49.6522 61.9493 49.8077 62.4506 50.1277C62.9519 50.4477 63.3409 50.9162 63.5631 51.4679C63.6669 51.7417 63.6669 52.0441 63.5631 52.3179C63.3508 52.8614 62.9752 53.3256 62.4881 53.6468C62.001 53.968 61.4263 54.1303 60.8431 54.1114C59.4151 54.1114 57.9871 54.1114 56.5931 54.1114H55.9301V55.5989H56.5081C57.9531 55.5989 59.3981 55.5989 60.8431 55.5989C61.4172 55.5808 61.9833 55.7377 62.4661 56.049C62.9489 56.3602 63.3256 56.811 63.5461 57.3414C63.6697 57.6555 63.6697 58.0048 63.5461 58.3189C63.3165 58.8413 62.9353 59.2827 62.4518 59.5859C61.9683 59.889 61.4049 60.0399 60.8346 60.0189C59.2196 60.0189 57.6131 60.0189 55.9556 60.0189V61.5064H59.8146C60.2412 61.4947 60.6647 61.5814 61.0524 61.7598C61.44 61.9381 61.7814 62.2034 62.0501 62.5349C62.9766 63.6059 62.9766 64.0309 62.0501 65.0849C61.7754 65.3976 61.4346 65.6453 61.0524 65.8099C60.6701 65.9746 60.256 66.0521 59.8401 66.0369H55.9386V67.5244C56.9246 67.5244 57.9106 67.5244 58.8966 67.5244C59.4578 67.5109 60.0102 67.6655 60.4828 67.9685C60.9554 68.2714 61.3266 68.7088 61.5486 69.2244C61.6802 69.5575 61.6802 69.9283 61.5486 70.2614C61.3124 70.795 60.9188 71.2438 60.4206 71.5476C59.9223 71.8514 59.3432 71.9958 58.7606 71.9614H39.4061C39.1569 71.9741 38.9073 71.9741 38.6581 71.9614C37.2471 71.8339 37.0431 71.6129 37.0431 70.2104C37.0431 64.4644 37.0431 58.7184 37.0431 52.9724C37.0195 52.7737 37.0563 52.5725 37.1488 52.3951C37.2413 52.2177 37.3852 52.0723 37.5616 51.9779C38.7588 51.3706 39.8777 50.62 40.8936 49.7424C41.8031 48.8074 42.2876 47.4644 43.0611 46.3424C43.7761 45.3597 44.1168 44.154 44.0216 42.9424C43.9366 41.2934 44.0216 39.6444 44.0216 37.9869C44.0216 37.0009 44.4381 36.6524 45.4241 36.7714C48.3651 37.1454 49.8951 38.8454 49.9546 41.8714C50.0056 44.1834 49.9546 46.5039 49.9546 48.8159L49.9376 49.6829Z" fill="white"/>
<path id="Vector_2" d="M22.661 61.5741C22.661 58.2251 22.661 54.8761 22.661 51.5271C22.661 50.2181 23.1965 49.6826 24.4885 49.6826C27.5655 49.6826 30.6425 49.6826 33.7195 49.6826C35.0285 49.6826 35.5555 50.2096 35.5555 51.5271V71.6721C35.5555 72.9386 35.0115 73.4911 33.7535 73.4911C30.6595 73.4911 27.557 73.4911 24.463 73.4911C23.205 73.4911 22.661 72.9386 22.661 71.6721C22.6525 68.3061 22.661 64.9401 22.661 61.5741ZM29.087 71.1366C29.3808 71.1416 29.6694 71.0594 29.9166 70.9005C30.1637 70.7416 30.3583 70.5131 30.4757 70.2438C30.5931 69.9744 30.6281 69.6764 30.5763 69.3872C30.5245 69.0979 30.3883 68.8305 30.1847 68.6187C29.9811 68.4068 29.7194 68.26 29.4325 68.1967C29.1455 68.1335 28.8463 68.1566 28.5725 68.2632C28.2987 68.3697 28.0626 68.555 27.894 68.7956C27.7254 69.0362 27.6318 69.3214 27.625 69.6151C27.6204 70.0098 27.7711 70.3905 28.0446 70.6751C28.3181 70.9598 28.6924 71.1255 29.087 71.1366Z" fill="white"/>
<path id="Vector_3" d="M68.85 27.489C68.85 28.339 68.85 29.1465 68.85 29.971C68.8784 30.2396 69.0056 30.4881 69.207 30.668C70.38 31.586 71.57 32.47 72.7685 33.3455C73.0634 33.512 73.3018 33.7628 73.4533 34.0656C73.6047 34.3685 73.6622 34.7097 73.6185 35.0455C73.5479 35.3732 73.3791 35.6716 73.1346 35.9009C72.8901 36.1302 72.5815 36.2795 72.25 36.329C70.8135 36.7115 69.394 37.179 67.9575 37.519C67.7883 37.5483 67.632 37.6282 67.5091 37.748C67.3862 37.8679 67.3025 38.0222 67.269 38.1905C66.8015 39.627 66.2915 41.038 65.8155 42.4405C65.7649 42.7517 65.6219 43.0404 65.4052 43.2692C65.1884 43.4981 64.9079 43.6566 64.6 43.724C64.2572 43.7789 63.9059 43.7206 63.5992 43.5581C63.2925 43.3955 63.047 43.1375 62.9 42.823C62.05 41.5395 61.2 40.273 60.35 39.015C60.2668 38.911 60.164 38.8244 60.0473 38.7602C59.9306 38.696 59.8024 38.6555 59.67 38.641C58.0805 38.5815 56.491 38.556 54.9015 38.539C54.5944 38.5687 54.2856 38.5027 54.0175 38.35C53.7494 38.1973 53.535 37.9655 53.4038 37.6863C53.2726 37.4071 53.2309 37.0941 53.2844 36.7903C53.338 36.4864 53.4842 36.2066 53.703 35.989C54.655 34.799 55.59 33.5835 56.5505 32.402C56.6875 32.2679 56.7816 32.0962 56.8209 31.9086C56.8602 31.7209 56.843 31.5259 56.7715 31.348C56.2955 29.937 55.9215 28.509 55.4455 27.098C55.2975 26.8046 55.2474 26.4715 55.3025 26.1475C55.3576 25.8235 55.515 25.5257 55.7516 25.2976C55.9882 25.0696 56.2916 24.9233 56.6174 24.8802C56.9432 24.837 57.2742 24.8994 57.562 25.058C58.9815 25.6105 60.4265 26.1035 61.812 26.656C61.958 26.7235 62.1202 26.7481 62.2797 26.7271C62.4392 26.706 62.5895 26.6401 62.713 26.537C63.9455 25.636 65.212 24.7775 66.453 23.885C66.6846 23.6639 66.98 23.5214 67.2972 23.478C67.6144 23.4345 67.9373 23.4922 68.2198 23.6429C68.5023 23.7935 68.7301 24.0295 68.8707 24.3172C69.0114 24.6048 69.0576 24.9295 69.003 25.245C69.003 25.9845 69.003 26.7325 69.003 27.472L68.85 27.489Z" fill="white"/>
<path id="Vector_4" d="M47.7789 31.1955C47.5213 31.114 47.2687 31.0175 47.0224 30.9065C45.6794 30.218 44.3449 29.521 43.0274 28.7985C42.8751 28.6969 42.6962 28.6427 42.5131 28.6427C42.3301 28.6427 42.1511 28.6969 41.9989 28.7985C40.6814 29.521 39.3384 30.1925 38.0124 30.9065C37.7509 31.0954 37.4367 31.1974 37.1141 31.1981C36.7916 31.1987 36.477 31.0979 36.2148 30.91C35.9526 30.7221 35.7561 30.4565 35.6532 30.1508C35.5502 29.8451 35.5459 29.5147 35.6409 29.2065C35.9214 27.77 36.1254 26.3165 36.4059 24.88C36.4651 24.6659 36.4604 24.4392 36.3924 24.2278C36.3245 24.0164 36.1962 23.8294 36.0234 23.69C34.9439 22.6955 33.9154 21.65 32.8614 20.63C32.6019 20.4453 32.4073 20.1835 32.3053 19.8818C32.2033 19.5802 32.1991 19.254 32.2933 18.9498C32.3875 18.6455 32.5752 18.3788 32.8299 18.1875C33.0845 17.9963 33.393 17.8902 33.7114 17.8845C35.2414 17.672 36.7714 17.417 38.3099 17.2215C38.4693 17.208 38.6217 17.1498 38.7495 17.0535C38.8773 16.9573 38.9753 16.827 39.0324 16.6775C39.6784 15.3345 40.3584 14.017 40.9959 12.674C41.1005 12.3504 41.2999 12.0657 41.5681 11.8565C41.8363 11.6474 42.161 11.5236 42.5004 11.501C42.8338 11.5168 43.1543 11.6345 43.4188 11.8381C43.6833 12.0418 43.8789 12.3217 43.9794 12.64C44.6254 14 45.2884 15.3515 45.9854 16.686C46.0592 16.8076 46.1566 16.9131 46.272 16.9963C46.3873 17.0796 46.5182 17.1388 46.6569 17.1705C48.2209 17.4425 49.7934 17.6635 51.3659 17.893C51.6704 17.9076 51.9628 18.017 52.2021 18.206C52.4414 18.395 52.6156 18.6541 52.7004 18.947C52.7916 19.2344 52.7933 19.5428 52.7052 19.8312C52.6172 20.1196 52.4436 20.3745 52.2074 20.562C51.1109 21.6245 50.0399 22.7125 48.9094 23.7495C48.7573 23.8828 48.6467 24.0571 48.591 24.2515C48.5352 24.4459 48.5366 24.6523 48.5949 24.846C48.8669 26.3675 49.1389 27.889 49.3939 29.419C49.4316 29.6469 49.4173 29.8804 49.352 30.1019C49.2866 30.3235 49.172 30.5274 49.0166 30.6983C48.8612 30.8692 48.6691 31.0028 48.4547 31.0889C48.2404 31.175 48.0093 31.2114 47.7789 31.1955Z" fill="white"/>
<path id="Vector_5" d="M20.4004 43.7321C19.9754 43.7321 19.4824 43.3581 19.2189 42.6016C18.7004 41.1396 18.1819 39.6776 17.7059 38.2496C17.6639 38.074 17.5716 37.9145 17.4402 37.7907C17.3088 37.6669 17.1441 37.5841 16.9664 37.5526C15.4874 37.1616 14.0254 36.7026 12.5549 36.3286C12.2459 36.2784 11.96 36.1342 11.736 35.9156C11.5121 35.6969 11.361 35.4146 11.3034 35.1069C11.2457 34.7993 11.2844 34.4814 11.414 34.1965C11.5437 33.9117 11.758 33.6737 12.0279 33.5151C13.2604 32.6056 14.4674 31.6791 15.6999 30.7781C15.8473 30.6949 15.9665 30.5695 16.0422 30.4181C16.118 30.2666 16.1467 30.096 16.1249 29.9281C16.0484 28.3811 16.0144 26.8256 15.9464 25.2786C15.8981 24.9702 15.9475 24.6543 16.0878 24.3754C16.228 24.0965 16.452 23.8684 16.7284 23.7231C17.003 23.5905 17.3106 23.5415 17.6128 23.5823C17.9151 23.6231 18.1987 23.7519 18.4284 23.9526C19.6949 24.8451 20.9784 25.7461 22.2364 26.6131C22.363 26.6886 22.5037 26.7373 22.6499 26.7564C22.7961 26.7754 22.9446 26.7642 23.0864 26.7236C24.5484 26.2221 25.9934 25.6781 27.4384 25.1171C27.7199 24.972 28.0395 24.9179 28.3531 24.9621C28.6667 25.0063 28.9588 25.1468 29.1892 25.3641C29.4196 25.5815 29.5769 25.8649 29.6393 26.1754C29.7017 26.4859 29.6663 26.8081 29.5379 27.0976C29.0704 28.5766 28.6029 30.0471 28.1864 31.5346C28.1525 31.6792 28.1486 31.8293 28.1749 31.9755C28.2012 32.1216 28.2572 32.2609 28.3394 32.3846C29.1894 33.5746 30.1584 34.7391 31.0934 35.8951C31.3265 36.1282 31.48 36.429 31.532 36.7545C31.584 37.0801 31.5319 37.4137 31.3829 37.7078C31.234 38.0019 30.9959 38.2414 30.7027 38.3922C30.4095 38.5429 30.0762 38.5971 29.7504 38.5471C28.2799 38.5471 26.8179 38.6151 25.3474 38.6151C25.174 38.5978 24.9994 38.6341 24.8474 38.7193C24.6954 38.8044 24.5732 38.9342 24.4974 39.0911C23.6474 40.3746 22.7974 41.6411 21.9474 42.9076C21.7887 43.1726 21.5609 43.3894 21.2883 43.5346C21.0158 43.6799 20.7088 43.7482 20.4004 43.7321Z" fill="white"/>
</g>
</svg>
