<svg width="62" height="62" viewBox="0 0 62 62" fill="none" xmlns="http://www.w3.org/2000/svg">
<g id="Artboard 1 copy 3 12">
<path id="Vector" d="M13.6396 45.6881C15.2702 40.9947 16.938 36.1835 18.5996 31.2979C20.7551 31.806 22.9782 31.9651 25.184 31.7691C24.8894 32.0763 24.5789 32.3681 24.254 32.6433C22.3196 34.1499 21.5136 36.1215 21.6996 38.6325C21.8608 41.0319 21.7368 43.4437 21.7368 45.8555C21.7368 46.8103 22.0282 47.0955 22.9768 47.0397C24.0961 47.0134 25.1991 46.7654 26.2219 46.3099C27.2446 45.8544 28.1668 45.2005 28.935 44.386C29.8124 43.4387 30.3244 42.2103 30.3796 40.9203C30.402 40.1946 30.6119 39.4871 30.989 38.8667C31.366 38.2463 31.8973 37.7341 32.531 37.3801C32.6366 37.5534 32.7569 37.7173 32.8906 37.8699C35.91 40.8955 38.9232 43.9272 41.9674 46.9342C42.451 47.4116 43.102 47.7216 43.6042 48.1742C44.2553 48.7345 44.8361 49.3715 45.334 50.0715C45.5435 50.4477 45.601 50.8897 45.495 51.307C45.3889 51.7243 45.1273 52.0853 44.7636 52.3159C44.4036 52.5596 43.9695 52.6695 43.5368 52.6265C43.1042 52.5834 42.7002 52.3902 42.3952 52.0803C40.622 50.2885 38.8612 48.4781 37.1004 46.6739C36.4432 46.0043 35.9596 45.8803 35.5318 46.3267C35.104 46.7731 35.197 47.1947 35.8418 47.8581C37.4414 49.5011 39.0534 51.1317 40.6344 52.8181C40.8625 53.0473 41.0269 53.332 41.1114 53.6442C41.1959 53.9563 41.1975 54.2851 41.1161 54.5981C41.0348 54.911 40.8732 55.1974 40.6474 55.4289C40.4216 55.6604 40.1393 55.829 39.8284 55.9181C39.4914 55.9982 39.1387 55.9826 38.8101 55.873C38.4815 55.7635 38.19 55.5643 37.9684 55.2981C36.1828 53.4381 34.3848 51.64 32.593 49.8111C32.4876 49.6994 32.3822 49.5879 32.2706 49.4825C32.1928 49.3982 32.0988 49.3304 31.9944 49.2829C31.89 49.2355 31.7771 49.2094 31.6624 49.2061C31.5478 49.2028 31.4336 49.2225 31.3266 49.2639C31.2196 49.3054 31.122 49.3678 31.0395 49.4474C30.9569 49.5271 30.8911 49.6224 30.8459 49.7278C30.8007 49.8333 30.777 49.9467 30.7761 50.0614C30.7753 50.1761 30.7974 50.2898 30.8411 50.3959C30.8848 50.5019 30.9492 50.5982 31.0306 50.6791C32.2706 51.9873 33.554 53.2768 34.8188 54.5726L36.0278 55.8127C36.2163 55.9795 36.369 56.1829 36.4766 56.4105C36.5842 56.6381 36.6444 56.8852 36.6537 57.1368C36.663 57.3884 36.6211 57.6392 36.5305 57.8741C36.44 58.1091 36.3027 58.3232 36.127 58.5035C35.7389 58.8422 35.2346 59.0173 34.72 58.9919C34.2055 58.9664 33.7209 58.7425 33.368 58.3671C31.4212 56.3955 29.4786 54.4177 27.54 52.4337C27.416 52.3097 27.3044 52.1795 27.1742 52.0617C27.0928 51.9802 26.9962 51.9156 26.8898 51.8716C26.7834 51.8275 26.6694 51.8048 26.5542 51.8048C26.4391 51.8048 26.3251 51.8275 26.2187 51.8716C26.1123 51.9156 26.0157 51.9802 25.9342 52.0617C25.8528 52.1431 25.7882 52.2397 25.7442 52.3461C25.7001 52.4525 25.6774 52.5665 25.6774 52.6817C25.6774 52.7968 25.7001 52.9108 25.7442 53.0172C25.7882 53.1236 25.8528 53.2202 25.9342 53.3017C27.5152 54.9323 29.1086 56.5567 30.6958 58.1873C30.8012 58.2927 30.9128 58.3981 31.0182 58.5159C31.1461 58.6411 31.2477 58.7906 31.317 58.9557C31.3863 59.1207 31.4221 59.2979 31.4221 59.4769C31.4221 59.6558 31.3863 59.833 31.317 59.9981C31.2477 60.1631 31.1461 60.3126 31.0182 60.4379C30.8917 60.5646 30.7405 60.664 30.5739 60.73C30.4073 60.7959 30.229 60.8269 30.05 60.8211C29.871 60.8153 29.695 60.7728 29.5331 60.6962C29.3712 60.6196 29.2267 60.5106 29.1086 60.3759C27.292 58.5159 25.5002 56.6559 23.6836 54.8455C21.5756 52.7065 19.5048 50.5055 17.3162 48.4719C16.1452 47.474 14.9177 46.5446 13.6396 45.6881Z" fill="white"/>
<path id="Vector_2" d="M48.6949 45.7563C47.9881 46.0663 47.3061 46.4259 46.5807 46.6677C46.0268 46.8783 45.422 46.9158 44.8463 46.7752C44.2706 46.6346 43.7512 46.3225 43.3567 45.8803L38.3967 40.9203L33.3685 35.8983C32.7113 35.2411 32.3889 35.2163 31.6945 35.7991C31.1799 36.2331 30.6591 36.6671 30.1879 37.1507C29.281 38.0105 28.7506 39.1938 28.7123 40.4429C28.7073 41.2691 28.4727 42.0778 28.0348 42.7784C27.5969 43.4791 26.9728 44.0443 26.2323 44.4109C25.3878 44.8969 24.445 45.1872 23.4733 45.2603C23.4733 45.0557 23.4733 44.8883 23.4733 44.7209C23.4733 42.2409 23.4733 39.7609 23.4733 37.3243C23.4639 36.8558 23.5572 36.391 23.7468 35.9625C23.9364 35.534 24.2176 35.1523 24.5707 34.8443C25.9347 33.4803 27.3669 32.2403 28.6937 30.8701C30.8699 28.6133 33.4119 28.0987 36.3507 29.0101C38.1177 29.5433 39.9033 30.0145 41.6889 30.4795C42.1663 30.6035 42.6809 30.5911 43.1645 30.7027C43.268 30.7239 43.3656 30.7677 43.4502 30.8309C43.5349 30.8942 43.6046 30.9753 43.6543 31.0685C45.3407 35.8921 47.0147 40.7239 48.6763 45.5641C48.6865 45.6277 48.6928 45.6919 48.6949 45.7563Z" fill="white"/>
<path id="Vector_3" d="M3.62109 47.4981V26.0399C5.58752 25.6167 7.60287 25.4665 9.61029 25.5935C12.2253 25.7503 14.799 26.3195 17.2363 27.2799C17.9493 27.5589 18.0361 27.7325 17.7881 28.4517C15.6677 34.5938 13.5494 40.7256 11.4331 46.8471C11.3881 47.0625 11.2635 47.2529 11.0842 47.3805C10.9049 47.5081 10.6841 47.5633 10.4659 47.5353C8.35169 47.5353 6.23129 47.5353 4.11089 47.5353C3.96209 47.5291 3.81329 47.5105 3.62109 47.4981Z" fill="white"/>
<path id="Vector_4" d="M58.7825 26.0399V47.4795C58.6151 47.4795 58.4725 47.5229 58.3237 47.5291C56.1847 47.5291 54.0457 47.5291 51.9129 47.5291C51.7031 47.5558 51.4908 47.5032 51.3176 47.3817C51.1445 47.2601 51.0229 47.0783 50.9767 46.8719C48.8563 40.7132 46.7297 34.5566 44.5969 28.4021C44.3799 27.7821 44.4667 27.5837 45.0805 27.3419C49.2208 25.6479 53.7532 25.1496 58.1625 25.9035C58.3671 25.9407 58.5717 25.9965 58.7825 26.0399Z" fill="white"/>
<path id="Vector_5" d="M35.4514 16.876C36.3986 17.3959 37.1969 18.1498 37.77 19.0659C38.343 19.9819 38.6718 21.0295 38.725 22.1088C38.7994 23.4232 38.725 24.75 38.725 26.1016H23.6342C23.7334 24.2416 23.3986 22.4312 23.9194 20.6394C24.1558 19.8463 24.5486 19.1085 25.0746 18.4697C25.6006 17.8308 26.2492 17.3036 26.9822 16.9194C28.1625 17.9332 29.669 18.487 31.2249 18.4791C32.7808 18.4711 34.2816 17.9019 35.4514 16.876Z" fill="white"/>
<path id="Vector_6" d="M37.0264 15.8166L39.4444 13.4854C42.4638 15.9096 45.787 15.4384 48.0376 13.566C48.8425 13.9733 49.5417 14.5624 50.0797 15.2866C50.6177 16.0108 50.9799 16.8503 51.1376 17.7386C51.3396 19.4072 51.4473 21.086 51.46 22.7668H40.517C40.5379 21.4128 40.2314 20.0738 39.6237 18.8637C39.0159 17.6537 38.1249 16.6083 37.0264 15.8166Z" fill="white"/>
<path id="Vector_7" d="M14.378 13.5596C15.3039 14.3563 16.433 14.8801 17.6392 15.0724C18.4775 15.2109 19.3354 15.1722 20.1577 14.9586C20.98 14.745 21.7484 14.3613 22.4132 13.8324C22.4711 13.7724 22.5404 13.7246 22.6171 13.692C22.6938 13.6594 22.7763 13.6426 22.8596 13.6426C22.943 13.6426 23.0255 13.6594 23.1022 13.692C23.1789 13.7246 23.2482 13.7724 23.306 13.8324C24.0948 14.3725 24.7552 15.0795 25.2404 15.9032C24.1725 16.6977 23.3105 17.7367 22.7269 18.933C22.1433 20.1294 21.855 21.4482 21.8862 22.779H11.0238C11.1602 20.7392 10.7076 18.687 11.5322 16.7278C12.09 15.3769 13.0946 14.2585 14.378 13.5596Z" fill="white"/>
<path id="Vector_8" d="M23.138 8.95866C23.1392 9.86013 22.8722 10.7416 22.3711 11.4909C21.87 12.2402 21.1573 12.8236 20.3237 13.1668C19.4902 13.5101 18.5734 13.5976 17.6899 13.4184C16.8064 13.2392 15.9962 12.8013 15.3623 12.1603C14.7284 11.5194 14.2994 10.7044 14.1299 9.81906C13.9604 8.93368 14.058 8.01788 14.4104 7.18814C14.7627 6.35839 15.3539 5.65219 16.1087 5.15932C16.8635 4.66645 17.7478 4.4092 18.6492 4.42026C19.2422 4.4227 19.8289 4.54211 20.3756 4.77166C20.9223 5.00121 21.4184 5.33638 21.8354 5.75797C22.2524 6.17957 22.5821 6.6793 22.8056 7.22853C23.0292 7.77776 23.1421 8.3657 23.138 8.95866Z" fill="white"/>
<path id="Vector_9" d="M48.3596 8.92836C48.3669 9.8298 48.106 10.7131 47.6101 11.4658C47.1141 12.2186 46.4055 12.8069 45.5743 13.1558C44.7431 13.5048 43.8269 13.5986 42.9422 13.4255C42.0575 13.2523 41.2443 12.82 40.606 12.1834C39.9677 11.5469 39.5331 10.7349 39.3575 9.85065C39.182 8.96645 39.2733 8.05 39.62 7.21786C39.9666 6.38571 40.553 5.67546 41.3044 5.17742C42.0558 4.67939 42.9383 4.41608 43.8398 4.42097C44.4327 4.41933 45.0202 4.53472 45.5685 4.7605C46.1168 4.98629 46.6151 5.31805 47.035 5.73676C47.4549 6.15547 47.788 6.65292 48.0153 7.20059C48.2426 7.74826 48.3596 8.3354 48.3596 8.92836Z" fill="white"/>
<path id="Vector_10" d="M35.7429 12.2199C35.7575 13.1191 35.5051 14.0025 35.0174 14.7581C34.5298 15.5138 33.8289 16.1077 33.0035 16.4648C32.1782 16.822 31.2654 16.9262 30.3808 16.7643C29.4961 16.6024 28.6794 16.1816 28.034 15.5554C27.3886 14.9291 26.9436 14.1254 26.7551 13.246C26.5667 12.3666 26.6435 11.4511 26.9756 10.6154C27.3078 9.77968 27.8804 9.06128 28.6211 8.55116C29.3617 8.04104 30.2371 7.76214 31.1363 7.74975C31.7327 7.73908 32.3254 7.84643 32.8802 8.06561C33.435 8.2848 33.941 8.6115 34.3691 9.02693C34.7973 9.44236 35.139 9.93833 35.3748 10.4863C35.6105 11.0343 35.7356 11.6235 35.7429 12.2199Z" fill="white"/>
</g>
</svg>
