<svg width="60" height="60" viewBox="0 0 60 60" fill="none" xmlns="http://www.w3.org/2000/svg">
<g id="Artboard 1 21">
<path id="Vector" d="M16.1221 21.5644C21.2581 20.8804 26.0281 19.4704 30.0001 16.0264C33.9781 19.4104 38.6821 20.9764 43.8481 21.5524C43.8001 22.8004 43.8001 24.0004 43.7041 25.2004C43.5458 28.6794 42.8766 32.1161 41.7181 35.4004C40.8123 38.026 39.3122 40.4069 37.3347 42.3573C35.3573 44.3077 32.9559 45.7749 30.3181 46.6444C30.0253 46.7203 29.7158 46.6992 29.4361 46.5844C23.4361 44.4004 19.6621 40.1044 17.7841 34.0624C16.9366 31.178 16.4351 28.2031 16.2901 25.2004C16.2001 24.0004 16.2001 22.8004 16.1221 21.5644ZM30.0001 38.3464C31.4039 38.3452 32.7759 37.9277 33.9425 37.1468C35.1091 36.3659 36.0179 35.2566 36.5541 33.9591C37.0902 32.6617 37.2295 31.2344 36.9545 29.8577C36.6795 28.4811 36.0024 27.2169 35.0089 26.2251C34.0154 25.2333 32.75 24.5583 31.3729 24.2856C29.9958 24.0129 28.5688 24.1546 27.2722 24.693C25.9757 25.2313 24.8679 26.142 24.089 27.3099C23.31 28.4778 22.8949 29.8505 22.8961 31.2544C22.8969 32.1865 23.0812 33.1093 23.4387 33.9702C23.7961 34.8311 24.3196 35.6131 24.9793 36.2717C25.6389 36.9302 26.4219 37.4524 27.2833 37.8084C28.1448 38.1643 29.0679 38.3472 30.0001 38.3464Z" fill="white"/>
<path id="Vector_2" d="M40.8003 53.4481C41.3643 51.3601 41.9043 49.3501 42.4803 47.2261C42.6843 47.5861 42.8403 47.8261 42.9963 48.1141C43.4283 48.8521 43.8303 48.9361 44.4963 48.4141C46.5117 46.8298 48.2547 44.9267 49.6563 42.7801C58.8543 28.7161 50.4003 9.55812 33.8163 6.89412C29.1416 6.11531 24.3406 6.77875 20.0523 8.79612C19.9143 8.86212 19.7703 8.91612 19.5783 8.99412C19.7103 8.11812 19.8363 7.29612 19.9623 6.46812C20.0763 5.76012 19.8663 5.44812 19.1643 5.31012C18.5535 5.21515 17.9516 5.07067 17.3643 4.87812C17.5563 4.77612 17.7543 4.66812 17.9643 4.57812C24.2559 1.60329 31.427 1.06652 38.0914 3.07159C44.7558 5.07666 50.4403 9.48117 54.046 15.4338C57.6517 21.3863 58.9227 28.4643 57.6132 35.2995C56.3037 42.1347 52.5067 48.2417 46.9563 52.4401C45.8883 53.2441 45.8763 53.2981 46.5483 54.4861L46.9563 55.2301L40.8003 53.4481Z" fill="white"/>
<path id="Vector_3" d="M41.9996 55.4462C40.0608 56.3785 38.0158 57.0715 35.9096 57.5102C29.7488 58.8326 23.3224 58.0476 17.661 55.2811C11.9996 52.5147 7.4314 47.927 4.68896 42.254C1.94653 36.5809 1.18881 30.1512 2.53733 23.996C3.88584 17.8409 7.26245 12.317 12.1256 8.3102C13.1816 7.4462 13.1936 7.3562 12.3896 6.2222L11.9996 5.6582L18.3416 6.7682L17.3156 13.1462C17.0276 12.7442 16.8056 12.4322 16.5776 12.1262C16.1096 11.4842 15.7136 11.4182 15.1136 11.9222C10.7096 15.6002 7.82962 20.2562 6.95961 25.9262C5.47161 35.6222 8.70561 43.5842 16.7276 49.2302C23.6036 54.0662 31.1996 54.6782 38.9996 51.6002L39.6656 51.3242L39.0656 53.5082C38.8676 54.2822 39.0656 54.5822 39.8096 54.8042L41.9996 55.4462Z" fill="white"/>
<path id="Vector_4" d="M30.0002 25.752C31.0913 25.7508 32.1582 26.0733 33.0659 26.6787C33.9736 27.2842 34.6812 28.1453 35.0993 29.1531C35.5174 30.1609 35.6271 31.2701 35.4145 32.3402C35.202 33.4104 34.6767 34.3934 33.9052 35.165C33.1337 35.9365 32.1506 36.4617 31.0805 36.6743C30.0103 36.8869 28.9011 36.7772 27.8933 36.3591C26.8855 35.941 26.0244 35.2333 25.419 34.3256C24.8135 33.4179 24.491 32.351 24.4922 31.26C24.4906 30.5362 24.632 29.8193 24.9083 29.1503C25.1845 28.4813 25.5901 27.8735 26.1019 27.3617C26.6137 26.8499 27.2215 26.4443 27.8905 26.168C28.5595 25.8918 29.2764 25.7504 30.0002 25.752ZM29.1722 31.752C28.8482 31.452 28.4522 31.074 28.0502 30.714C27.9759 30.6277 27.8838 30.5584 27.7802 30.511C27.6767 30.4635 27.5641 30.4389 27.4502 30.4389C27.3363 30.4389 27.2237 30.4635 27.1202 30.511C27.0166 30.5584 26.9246 30.6277 26.8502 30.714C26.7756 30.7924 26.7185 30.8859 26.6828 30.9882C26.6472 31.0905 26.6337 31.1992 26.6434 31.307C26.653 31.4149 26.6856 31.5195 26.7388 31.6138C26.7921 31.7081 26.8648 31.79 26.9522 31.854C27.5522 32.406 28.1102 32.958 28.7102 33.492C28.7871 33.5776 28.8822 33.6449 28.9885 33.6891C29.0947 33.7334 29.2095 33.7533 29.3245 33.7476C29.4394 33.7418 29.5517 33.7105 29.653 33.6559C29.7543 33.6013 29.8422 33.5248 29.9102 33.432C30.4502 32.898 30.9782 32.352 31.5062 31.806C32.0342 31.26 32.5802 30.72 33.0902 30.162C33.169 30.0938 33.2321 30.0095 33.2754 29.9148C33.3187 29.8201 33.3411 29.7171 33.3411 29.613C33.3411 29.5088 33.3187 29.4059 33.2754 29.3111C33.2321 29.2164 33.169 29.1321 33.0902 29.064C33.02 28.9876 32.9346 28.9266 32.8396 28.8849C32.7446 28.8432 32.642 28.8217 32.5382 28.8217C32.4344 28.8217 32.3318 28.8432 32.2368 28.8849C32.1418 28.9266 32.0564 28.9876 31.9862 29.064C31.8542 29.178 31.7402 29.316 31.6142 29.436L29.1722 31.752Z" fill="white"/>
</g>
</svg>
