<svg width="60" height="60" viewBox="0 0 60 60" fill="none" xmlns="http://www.w3.org/2000/svg">
<g id="Artboard 1 20">
<path id="Vector" d="M22.6261 4.00787C22.9777 4.14324 23.3137 4.31625 23.6281 4.52387C24.4981 5.21987 25.3381 5.50187 26.4061 4.84787C26.8141 4.59587 27.1201 4.42787 27.1921 3.92387C27.2722 3.44343 27.3824 2.96849 27.5221 2.50187C27.5592 2.25623 27.6913 2.03499 27.89 1.88575C28.0886 1.73651 28.3378 1.6712 28.5841 1.70387C29.0518 1.72787 29.5204 1.72787 29.9881 1.70387C30.2435 1.66976 30.502 1.73845 30.7067 1.89484C30.9115 2.05122 31.0458 2.28251 31.0801 2.53787C31.2241 3.10187 31.3321 3.67787 31.5001 4.23587C31.5868 4.43069 31.7313 4.59409 31.9141 4.70387C32.1061 4.82387 32.3821 4.82987 32.5621 4.96187C33.2881 5.50187 33.8761 5.23787 34.5481 4.78787C36.0121 3.79787 36.0361 3.83387 37.2721 5.06987C38.2621 6.05987 38.3341 6.20987 37.5061 7.33787C37.1956 7.67326 37.003 8.10081 36.9575 8.55561C36.912 9.01041 37.0161 9.46763 37.2541 9.85787C37.5301 10.3679 37.7461 10.7099 38.3461 10.7699C38.812 10.8308 39.2704 10.9394 39.7141 11.0939C39.9367 11.1403 40.1339 11.2681 40.2671 11.4524C40.4003 11.6366 40.4598 11.864 40.4341 12.0899C40.4341 12.5759 40.4341 13.0679 40.4341 13.5539C40.4638 13.8003 40.3975 14.0487 40.2489 14.2476C40.1003 14.4465 39.8809 14.5805 39.6361 14.6219C39.1681 14.7419 38.6941 14.8439 38.2141 14.9579C38.0413 14.9878 37.8709 15.0299 37.7041 15.0839C37.3381 15.2279 36.7621 17.1179 36.9661 17.4839C37.1701 17.8499 37.5181 18.3359 37.7761 18.7739C37.8773 18.8825 37.9537 19.0119 37.9997 19.153C38.0458 19.2942 38.0604 19.4437 38.0427 19.5911C38.025 19.7385 37.9753 19.8803 37.8972 20.0065C37.819 20.1327 37.7142 20.2403 37.5901 20.3219C37.2901 20.6279 36.9901 20.9219 36.6841 21.2399C36.5261 21.4442 36.2941 21.5782 36.0382 21.613C35.7823 21.6478 35.5229 21.5806 35.3161 21.4259C34.8961 21.1799 34.4881 20.9099 34.0741 20.6519C33.9626 20.5729 33.8463 20.5008 33.7261 20.4359C33.3661 20.2559 31.5781 21.0899 31.4821 21.4799C31.3501 22.0139 31.2481 22.5479 31.1101 23.0759C30.9181 23.8079 30.6601 23.9999 29.9101 23.9999C29.4781 23.9999 29.0521 23.9999 28.6201 23.9999C28.489 24.0192 28.3554 24.0121 28.2271 23.9789C28.0988 23.9457 27.9785 23.887 27.8734 23.8064C27.7682 23.7259 27.6802 23.625 27.6147 23.5098C27.5492 23.3946 27.5075 23.2675 27.4921 23.1359C27.3781 22.6859 27.2821 22.2299 27.1741 21.7739C27.1381 21.6179 27.1141 21.4619 27.0661 21.3179C26.9461 20.9699 25.0741 20.2979 24.7621 20.4899C24.2641 20.7959 23.7721 21.0899 23.2741 21.4139C23.0693 21.5715 22.8105 21.6416 22.5542 21.609C22.2979 21.5764 22.0649 21.4437 21.9061 21.2399C21.5761 20.8799 21.2281 20.5379 20.8741 20.2019C20.7035 20.0581 20.5902 19.8579 20.555 19.6376C20.5197 19.4173 20.5649 19.1917 20.6821 19.0019C20.7233 18.8912 20.782 18.7878 20.8561 18.6959C21.3071 18.2976 21.5884 17.7416 21.642 17.1422C21.6955 16.5429 21.5174 15.9458 21.1441 15.4739C21.0475 15.3045 20.8977 15.1717 20.7181 15.0959C20.1181 14.9219 19.5181 14.8079 18.9601 14.6579C18.7146 14.6235 18.4924 14.4943 18.3409 14.2981C18.1895 14.1018 18.121 13.854 18.1501 13.6079C18.1501 13.1219 18.1501 12.6299 18.1501 12.1439C18.1234 11.9081 18.1873 11.671 18.3287 11.4806C18.4702 11.2901 18.6787 11.1605 18.9121 11.1179C19.5121 10.9559 20.1121 10.8419 20.6761 10.6859C20.837 10.6549 20.9816 10.5677 21.0841 10.4399C21.3367 9.91423 21.561 9.37546 21.7561 8.82587C21.7832 8.65875 21.7468 8.48752 21.6541 8.34587C21.3601 7.84187 21.0541 7.35587 20.7301 6.85187C20.6532 6.74986 20.5972 6.6337 20.5652 6.51002C20.5332 6.38634 20.5259 6.25757 20.5438 6.13107C20.5616 6.00457 20.6042 5.88283 20.6691 5.77281C20.734 5.66279 20.82 5.56664 20.9221 5.48987C21.2821 5.16587 21.6001 4.79387 21.9661 4.46387C22.1734 4.29424 22.3941 4.14174 22.6261 4.00787ZM29.3041 8.29787C28.4046 8.2955 27.5246 8.55992 26.7754 9.05768C26.0261 9.55545 25.4413 10.2642 25.0949 11.0943C24.7485 11.9245 24.656 12.8387 24.8292 13.7214C25.0023 14.604 25.4333 15.4156 26.0677 16.0533C26.7021 16.691 27.5113 17.1263 28.3931 17.3041C29.2748 17.4819 30.1895 17.3943 31.0215 17.0522C31.8534 16.7102 32.5652 16.1292 33.067 15.3826C33.5687 14.636 33.8377 13.7574 33.8401 12.8579C33.8339 11.6545 33.3547 10.5019 32.5061 9.64881C31.6574 8.79568 30.5074 8.31045 29.3041 8.29787Z" fill="white"/>
<path id="Vector_2" d="M12.7864 53.8862V57.5222C12.7864 58.3802 12.4864 58.6682 11.6164 58.6682C10.0524 58.6682 8.49041 58.6682 6.93041 58.6682C6.10841 58.6682 5.8024 58.3622 5.7964 57.5342C5.7964 55.2482 5.7964 52.9622 5.7964 50.6822C5.7964 50.5022 5.7964 50.3282 5.7964 50.1542C5.7964 49.8302 5.85641 49.4102 5.35841 49.4282C4.8604 49.4462 4.9504 49.8242 4.9504 50.1362C4.9504 51.8942 4.9504 53.6522 4.9504 55.4102C4.9572 55.6513 4.90305 55.8903 4.79296 56.105C4.68287 56.3196 4.52041 56.5031 4.3206 56.6383C4.1208 56.7734 3.89011 56.8561 3.64991 56.8784C3.4097 56.9008 3.16773 56.8622 2.9464 56.7662C2.67754 56.6656 2.44655 56.484 2.28533 56.2465C2.12411 56.0089 2.04063 55.7272 2.0464 55.4402C2.0464 53.0402 1.9384 50.6402 2.0884 48.3002C2.2384 45.9602 3.5044 44.7422 5.9764 44.3102C8.26918 43.8891 10.6213 43.9094 12.9064 44.3702C15.3064 44.8682 16.5064 46.2902 16.5604 48.7442C16.6024 50.9342 16.5964 53.1182 16.5604 55.3082C16.587 55.5728 16.5401 55.8396 16.4249 56.0794C16.3097 56.3191 16.1306 56.5223 15.9073 56.6668C15.6841 56.8114 15.4253 56.8915 15.1594 56.8984C14.8935 56.9054 14.6309 56.8389 14.4004 56.7062C14.1353 56.5617 13.9197 56.3408 13.7817 56.0723C13.6437 55.8037 13.5896 55.4999 13.6264 55.2002C13.6264 53.5982 13.6264 51.9962 13.6264 50.4002C13.6599 50.248 13.6599 50.0904 13.6264 49.9382C13.5057 49.7514 13.3649 49.5783 13.2064 49.4222C13.0744 49.5902 12.8404 49.7462 12.8224 49.9202C12.7744 50.4602 12.8224 51.0122 12.8224 51.5582L12.7864 53.8862Z" fill="white"/>
<path id="Vector_3" d="M47.2198 53.8195C47.2198 52.6195 47.2198 51.4195 47.2198 50.2195C47.2198 49.8835 47.3158 49.4155 46.8118 49.3975C46.3078 49.3795 46.3858 49.8595 46.3858 50.1895C46.3858 51.8695 46.3858 53.5435 46.3858 55.2235C46.3858 56.3815 45.5278 57.0715 44.5138 56.7775C44.2248 56.7115 43.9664 56.5501 43.7803 56.3194C43.5942 56.0886 43.4911 55.8019 43.4878 55.5055C43.4878 53.0095 43.4098 50.5015 43.5298 48.0115C43.6198 46.1035 44.9338 44.7895 47.0158 44.3575C49.452 43.8535 51.9656 43.8535 54.4018 44.3575C56.7478 44.8435 57.9478 46.3315 58.0018 48.7435C58.0438 50.8915 58.0018 53.0395 58.0018 55.1875C58.0018 56.3875 57.1318 57.0835 56.0998 56.7775C55.785 56.6962 55.5094 56.5054 55.3225 56.2393C55.1355 55.9732 55.0495 55.6493 55.0798 55.3255C55.0798 53.6455 55.0798 51.9655 55.0798 50.2855C55.1084 50.1131 55.0961 49.9363 55.0438 49.7695C54.9952 49.6879 54.931 49.6168 54.8548 49.5602C54.7786 49.5035 54.6919 49.4625 54.5998 49.4395C54.5038 49.4395 54.3238 49.6615 54.2578 49.8115C54.2274 49.9842 54.2274 50.1608 54.2578 50.3335V57.3655C54.2578 58.4155 53.9998 58.6675 52.9378 58.6675C51.4138 58.6675 49.8898 58.6675 48.3658 58.6675C47.5738 58.6675 47.2678 58.3615 47.2618 57.5695C47.2138 56.3215 47.2198 55.0735 47.2198 53.8195Z" fill="white"/>
<path id="Vector_4" d="M28.8303 39.0416C28.5723 37.8416 28.1943 37.5356 26.5923 37.4096C26.1843 36.0356 25.7523 35.7296 24.2883 35.7896C24.2579 35.7071 24.2319 35.623 24.2103 35.5376C24.1714 35.1842 24.0147 34.8542 23.7655 34.6006C23.5163 34.347 23.189 34.1846 22.8363 34.1396C22.4572 34.0731 22.0667 34.1299 21.7223 34.3016C21.3778 34.4733 21.0974 34.7509 20.9223 35.0936C20.6103 35.6516 20.3523 36.2336 20.0103 36.9296C19.9106 36.3007 19.7079 35.6926 19.4103 35.1296C18.9509 34.7339 18.4274 34.4194 17.8623 34.1996C18.3663 32.2676 18.9003 30.2396 19.4523 28.1516C19.8963 28.2896 20.3043 28.3976 20.6943 28.5416C20.9762 28.6534 21.2833 28.6863 21.5825 28.6366C21.8817 28.5869 22.1617 28.4566 22.3923 28.2596C23.1176 27.6998 23.8793 27.1886 24.6723 26.7296C25.3185 26.3536 26.0609 26.1753 26.8074 26.2169C27.5539 26.2584 28.2719 26.5181 28.8723 26.9636C27.5949 28.0267 26.1827 28.9164 24.6723 29.6096C23.9523 29.8976 23.9163 30.0056 24.2943 30.6776L24.3543 30.7796C25.8723 33.4376 27.5703 33.8456 30.1383 32.1896C30.6903 31.8296 31.2543 31.4756 31.8243 31.1456C32.0166 31.0279 32.2409 30.9732 32.4657 30.9894C32.6906 31.0055 32.9048 31.0916 33.0783 31.2356C34.9743 32.5796 36.8943 33.8936 38.7783 35.2436C39.089 35.4711 39.3385 35.7721 39.5043 36.1196C39.6045 36.3473 39.6197 36.6033 39.547 36.8412C39.4743 37.079 39.3186 37.2829 39.1083 37.4156C38.9364 37.5543 38.72 37.6259 38.4993 37.617C38.2786 37.6082 38.0686 37.5196 37.9083 37.3676L34.4523 34.9676C34.3383 34.8896 34.2363 34.7576 34.1163 34.7456C33.8931 34.7427 33.6701 34.7608 33.4503 34.7996C33.5103 34.9976 33.5163 35.2676 33.6543 35.3996C34.0503 35.7356 34.5063 35.9996 34.9383 36.3176C35.7183 36.8636 36.5163 37.3916 37.2843 37.9676C37.6111 38.2113 37.8933 38.5097 38.1183 38.8496C38.2628 39.0531 38.3246 39.3039 38.2912 39.5512C38.2577 39.7985 38.1316 40.0238 37.9383 40.1816C37.7718 40.3516 37.5478 40.4532 37.3103 40.4665C37.0727 40.4798 36.8388 40.4039 36.6543 40.2536C36.0543 39.8636 35.5023 39.4496 34.9263 39.0536C34.1263 38.4816 33.3123 37.9096 32.4843 37.3376C32.2323 37.1576 31.9263 36.9716 31.7523 37.3376C31.6803 37.4816 31.8423 37.8536 32.0043 37.9796C32.9763 38.6996 33.9783 39.3836 34.9683 40.0796C35.1243 40.1936 35.2923 40.2956 35.4423 40.4216C36.0423 40.8956 36.1683 41.4776 35.8323 41.9456C35.6381 42.2074 35.3493 42.3828 35.0275 42.4343C34.7057 42.4859 34.3765 42.4096 34.1103 42.2216C32.9103 41.4236 31.7883 40.5656 30.5883 39.8216C30.0258 39.5115 29.4377 39.2506 28.8303 39.0416Z" fill="white"/>
<path id="Vector_5" d="M40.2605 28.0204L41.9345 34.3684C41.2265 34.5424 40.5545 34.7224 39.8765 34.8604C39.7065 34.862 39.5412 34.8047 39.4085 34.6984C37.4585 33.3364 35.4965 31.9864 33.5645 30.6004C33.271 30.3545 32.9081 30.2062 32.5263 30.1761C32.1446 30.1459 31.7629 30.2356 31.4345 30.4324C30.8345 30.7624 30.2705 31.1464 29.6885 31.5064L29.4485 31.6624C27.4985 32.9044 26.1365 32.5084 25.1465 30.4984C26.8445 29.3464 28.5305 28.2004 30.2285 27.0724C30.9423 26.5457 31.8046 26.2585 32.6916 26.2521C33.5787 26.2456 34.4451 26.5202 35.1665 27.0364C35.7591 27.4031 36.3301 27.8038 36.8765 28.2364C37.1127 28.4429 37.4023 28.5788 37.712 28.6287C38.0218 28.6786 38.3394 28.6403 38.6285 28.5184C39.1385 28.3624 39.6605 28.2004 40.2605 28.0204Z" fill="white"/>
<path id="Vector_6" d="M46.3682 39.3896C46.3718 38.5292 46.6304 37.6893 47.1113 36.9759C47.5923 36.2626 48.274 35.7078 49.0702 35.3819C49.8664 35.0559 50.7414 34.9734 51.5845 35.1448C52.4276 35.3161 53.201 35.7336 53.8068 36.3445C54.4126 36.9553 54.8237 37.7321 54.9881 38.5766C55.1524 39.4211 55.0627 40.2954 54.7302 41.0889C54.3976 41.8824 53.8373 42.5594 53.12 43.0345C52.4026 43.5095 51.5606 43.7611 50.7002 43.7576C50.1288 43.756 49.5632 43.6417 49.036 43.4212C48.5088 43.2007 48.0302 42.8783 47.6278 42.4725C47.2254 42.0668 46.907 41.5856 46.6908 41.0566C46.4747 40.5275 46.3651 39.9611 46.3682 39.3896Z" fill="white"/>
<path id="Vector_7" d="M13.6376 39.4857C13.6209 40.3461 13.3492 41.1821 12.8572 41.8881C12.3652 42.5941 11.6748 43.1382 10.8734 43.4518C10.072 43.7653 9.19564 43.8341 8.35516 43.6495C7.51467 43.4648 6.74782 43.0351 6.15163 42.4145C5.55544 41.794 5.1567 41.0106 5.00584 40.1634C4.85499 39.3162 4.9588 38.4432 5.30414 37.6551C5.64949 36.8669 6.22085 36.1988 6.94595 35.7354C7.67105 35.272 8.5173 35.0341 9.37765 35.0517C10.5304 35.0753 11.6265 35.5556 12.4253 36.387C13.2241 37.2184 13.6602 38.333 13.6376 39.4857Z" fill="white"/>
<path id="Vector_8" d="M42.4977 51.5518C42.4977 52.2538 42.4977 52.9138 42.4977 53.5678C42.4977 53.7238 42.2517 53.8978 42.0837 53.9998C39.1178 55.8778 35.7668 57.0632 32.2797 57.4678C27.4239 58.076 22.4977 57.1996 18.1497 54.9538C17.6817 54.7078 17.4237 54.4498 17.4897 53.8918C17.517 53.4282 17.517 52.9634 17.4897 52.4998C26.0337 57.1858 34.3257 56.8738 42.4977 51.5518Z" fill="white"/>
<path id="Vector_9" d="M16.9139 12.5996C16.9919 13.2956 17.0819 13.8896 17.0999 14.4896C17.0999 14.6396 16.8959 14.8316 16.7399 14.9396C14.4738 16.4819 12.511 18.4284 10.9499 20.6816C8.20915 24.597 6.81513 29.2971 6.97789 34.0736C7.01055 34.2322 6.99146 34.397 6.92341 34.5439C6.85536 34.6908 6.74196 34.812 6.59989 34.8896C6.1268 35.2055 5.67206 35.5481 5.23789 35.9156C4.80707 31.8243 5.43946 27.691 7.07389 23.9156C9.07179 19.1961 12.5176 15.2335 16.9139 12.5996Z" fill="white"/>
<path id="Vector_10" d="M53.4717 34.8002C52.8717 34.6022 52.3737 34.4582 51.8877 34.2362C51.7437 34.1702 51.6477 33.8702 51.6477 33.6782C51.6552 31.1161 51.2334 28.5708 50.3997 26.1482C48.8565 21.6607 45.9117 17.7882 41.9997 15.1022C41.6037 14.8262 41.3397 14.6222 41.5257 14.0522C41.5937 13.5625 41.5937 13.0658 41.5257 12.5762C45.3624 14.8299 48.506 18.0949 50.6127 22.0143C52.7195 25.9337 53.7085 30.3567 53.4717 34.8002Z" fill="white"/>
<path id="Vector_11" d="M19.2484 25.7038C18.3844 28.9978 17.5444 32.1718 16.7164 35.3518C16.6204 35.7178 16.4344 35.7538 16.1164 35.6698C15.2344 35.4238 14.3524 35.1718 13.4644 34.9618C13.0084 34.8598 12.9304 34.6618 13.0504 34.2298C13.7284 31.7158 14.3884 29.1898 15.0484 26.6698C15.1924 26.1418 15.3124 25.6078 15.4804 25.0918C15.5224 24.9658 15.7624 24.7918 15.8704 24.8218C16.9864 25.0918 18.0904 25.3918 19.2484 25.7038Z" fill="white"/>
<path id="Vector_12" d="M40.5 25.7161L43.848 24.8101C44.232 24.7021 44.244 24.9961 44.31 25.2421L46.056 31.8421C46.278 32.6701 46.512 33.4921 46.704 34.3321C46.74 34.4821 46.65 34.8061 46.554 34.8361C45.45 35.1601 44.34 35.4361 43.158 35.7601L40.5 25.7161Z" fill="white"/>
<path id="Vector_13" d="M25.7159 37.7036C25.6436 37.9746 25.5555 38.241 25.4519 38.5016C24.9959 39.4916 24.5219 40.4756 24.0479 41.4536C23.7479 42.0536 23.3879 42.2696 22.9079 42.1136C22.6721 42.0257 22.4755 41.8566 22.3534 41.6366C22.2313 41.4165 22.1917 41.1602 22.2419 40.9136C22.2627 40.7604 22.3051 40.6109 22.3679 40.4696C22.8779 39.3716 23.3879 38.2796 23.9219 37.1996C24.0002 36.9682 24.1654 36.7762 24.3826 36.6643C24.5998 36.5523 24.8519 36.5291 25.0859 36.5996C25.5599 36.7436 25.7039 37.1036 25.7159 37.7036Z" fill="white"/>
<path id="Vector_14" d="M20.2444 38.6697C20.3161 38.3907 20.4043 38.1163 20.5084 37.8477C20.8444 37.1037 21.1924 36.3657 21.5584 35.6337C21.6534 35.3733 21.8469 35.1607 22.0972 35.0417C22.3475 34.9227 22.6346 34.9069 22.8964 34.9977C23.0131 35.05 23.1177 35.1258 23.2037 35.2204C23.2898 35.3149 23.3554 35.4262 23.3965 35.5473C23.4376 35.6683 23.4533 35.7966 23.4426 35.924C23.4319 36.0514 23.3951 36.1752 23.3344 36.2877C22.9384 37.2777 22.4824 38.2437 21.9904 39.1917C21.945 39.2963 21.8784 39.3903 21.7949 39.4679C21.7114 39.5456 21.6128 39.6051 21.5052 39.6429C21.3976 39.6806 21.2834 39.6957 21.1697 39.6873C21.056 39.6788 20.9453 39.647 20.8444 39.5937C20.5504 39.4377 20.3764 39.0657 20.1484 38.7957L20.2444 38.6697Z" fill="white"/>
<path id="Vector_15" d="M28.0262 39.324C27.9866 39.5289 27.9284 39.7297 27.8522 39.924C27.4982 40.704 27.1382 41.484 26.7482 42.246C26.7061 42.3614 26.6415 42.4673 26.5583 42.5575C26.4751 42.6478 26.3748 42.7207 26.2632 42.7721C26.1516 42.8234 26.031 42.8521 25.9083 42.8566C25.7856 42.861 25.6632 42.8411 25.5482 42.798C25.4338 42.7632 25.3277 42.7051 25.2368 42.6274C25.1458 42.5498 25.0718 42.4542 25.0194 42.3466C24.9671 42.2391 24.9374 42.1219 24.9324 42.0024C24.9274 41.8829 24.947 41.7636 24.9902 41.652C25.4089 40.5877 25.8959 39.5516 26.4482 38.55C26.5793 38.438 26.7365 38.3606 26.9052 38.325C27.074 38.2894 27.2489 38.2966 27.4142 38.346C27.7202 38.484 27.9002 38.904 28.1342 39.204L28.0262 39.324Z" fill="white"/>
<path id="Vector_16" d="M30.264 41.292C30.162 41.538 30 41.934 29.826 42.318C29.598 42.816 29.358 43.302 29.124 43.794C29.0889 43.907 29.0312 44.0118 28.9545 44.1019C28.8777 44.1921 28.7835 44.2657 28.6775 44.3184C28.5716 44.3711 28.456 44.4018 28.3378 44.4086C28.2196 44.4154 28.1013 44.3982 27.99 44.358C27.7502 44.2767 27.5498 44.1081 27.4286 43.8858C27.3074 43.6634 27.2743 43.4036 27.336 43.158C27.4608 42.7304 27.6234 42.3148 27.822 41.916C28.02 41.466 28.254 41.04 28.452 40.596C28.4845 40.4927 28.5375 40.3969 28.6077 40.3144C28.6779 40.2319 28.7639 40.1643 28.8607 40.1156C28.9575 40.067 29.063 40.0382 29.1711 40.0311C29.2792 40.0239 29.3876 40.0385 29.49 40.074C30 40.242 30.282 40.572 30.264 41.292Z" fill="white"/>
<path id="Vector_17" d="M31.1582 41.124C31.5757 41.4195 31.9763 41.738 32.3582 42.078C32.5797 42.2904 32.7084 42.5816 32.7163 42.8884C32.7241 43.1951 32.6106 43.4926 32.4002 43.716C32.0102 44.136 31.5062 44.106 30.8762 43.716C30.4022 43.422 30.2162 43.116 30.5762 42.612C30.7136 42.3983 30.8245 42.1686 30.9062 41.928C31.0022 41.706 31.0502 41.478 31.1582 41.124Z" fill="white"/>
<path id="Vector_18" d="M29.2863 9.70217C29.9089 9.6998 30.5182 9.88232 31.0369 10.2266C31.5556 10.5709 31.9605 11.0614 32.2001 11.6361C32.4397 12.2107 32.5033 12.8435 32.3829 13.4544C32.2625 14.0652 31.9634 14.6265 31.5236 15.0672C31.0838 15.5078 30.523 15.808 29.9124 15.9296C29.3018 16.0512 28.6689 15.9888 28.0938 15.7503C27.5187 15.5117 27.0274 15.1078 26.6821 14.5898C26.3368 14.0717 26.1531 13.4628 26.1543 12.8402C26.1621 12.0114 26.4944 11.2186 27.0799 10.632C27.6654 10.0454 28.4575 9.71155 29.2863 9.70217Z" fill="white"/>
</g>
</svg>
