<svg width="70" height="70" viewBox="0 0 70 70" fill="none" xmlns="http://www.w3.org/2000/svg">
<g id="Artboard 1 copy 22">
<path id="Vector" d="M35.1467 18.3115C38.4592 18.306 41.699 19.2831 44.456 21.1193C47.2131 22.9555 49.3636 25.5682 50.6354 28.6269C51.9072 31.6855 52.2432 35.0527 51.6009 38.3024C50.9585 41.552 49.3667 44.5382 47.0268 46.8829C44.687 49.2277 41.7042 50.8258 38.4559 51.4749C35.2076 52.124 31.8397 51.7951 28.7784 50.5297C25.717 49.2642 23.0998 47.1192 21.2579 44.366C19.416 41.6128 18.4321 38.3751 18.4307 35.0625C18.4279 32.8649 18.8582 30.6883 19.6968 28.657C20.5355 26.6257 21.7661 24.7796 23.3184 23.224C24.8707 21.6685 26.7143 20.434 28.7438 19.5911C30.7734 18.7482 32.9491 18.3134 35.1467 18.3115ZM40.6907 32.8295C41.8466 31.4033 42.4173 29.5911 42.2873 27.7599C42.1574 25.9287 41.3364 24.2153 39.9907 22.9665C38.733 21.8052 37.1005 21.1334 35.3897 21.073C33.6789 21.0126 32.0031 21.5677 30.6667 22.6375C29.2795 23.7103 28.3554 25.2732 28.0837 27.0055C27.9005 28.0298 27.9448 29.0818 28.2133 30.087C28.4819 31.0922 28.9681 32.0261 29.6377 32.8225C24.6537 35.6995 22.5677 40.0115 22.9877 45.6745H47.3547C47.7677 39.9835 45.6677 35.6575 40.6907 32.8295Z" fill="white"/>
<path id="Vector_2" d="M52.8925 18.7255C53.5085 18.7255 53.9495 18.7255 54.3975 18.7255C54.6481 18.7255 54.8885 18.825 55.0657 19.0022C55.2429 19.1795 55.3425 19.4198 55.3425 19.6705C55.3425 19.9211 55.2429 20.1614 55.0657 20.3387C54.8885 20.5159 54.6481 20.6155 54.3975 20.6155C53.1235 20.6155 51.8425 20.6155 50.5685 20.6155C50.4414 20.6256 50.3137 20.6085 50.1938 20.5653C50.0739 20.5221 49.9646 20.4539 49.8732 20.3651C49.7817 20.2763 49.7103 20.1691 49.6636 20.0505C49.6169 19.9319 49.5961 19.8047 49.6025 19.6775C49.5675 18.3825 49.6025 17.0805 49.6025 15.7854C49.6025 15.5348 49.702 15.2945 49.8793 15.1172C50.0565 14.94 50.2968 14.8405 50.5475 14.8405C50.7981 14.8405 51.0385 14.94 51.2157 15.1172C51.3929 15.2945 51.4925 15.5348 51.4925 15.7854C51.4925 16.2334 51.4925 16.6885 51.4925 17.3325C51.7865 17.0595 51.9615 16.9125 52.1225 16.7515C53.8678 15.0155 55.6061 13.2771 57.3375 11.5365C57.4705 11.4035 57.5895 11.2705 57.7295 11.1515C57.8141 11.0657 57.9149 10.9977 58.0261 10.9512C58.1372 10.9048 58.2565 10.8809 58.377 10.8809C58.4974 10.8809 58.6167 10.9048 58.7279 10.9512C58.839 10.9977 58.9398 11.0657 59.0245 11.1515C59.1196 11.2349 59.1959 11.3377 59.2482 11.453C59.3004 11.5683 59.3274 11.6934 59.3274 11.82C59.3274 11.9465 59.3004 12.0716 59.2482 12.1869C59.1959 12.3022 59.1196 12.405 59.0245 12.4885C58.4995 13.0625 57.9395 13.5945 57.3935 14.1405L53.4315 18.1025C53.3055 18.2705 53.2005 18.4385 52.8925 18.7255Z" fill="white"/>
<path id="Vector_3" d="M18.8439 17.171C18.8439 16.73 18.8439 16.282 18.8439 15.834C18.8439 15.197 19.2639 14.791 19.8029 14.826C19.9297 14.8248 20.0554 14.8498 20.1721 14.8992C20.2889 14.9487 20.3942 15.0217 20.4815 15.1136C20.5688 15.2055 20.6363 15.3144 20.6797 15.4336C20.7232 15.5527 20.7416 15.6795 20.7339 15.806C20.7339 17.087 20.7339 18.361 20.7339 19.635C20.7434 19.7677 20.7241 19.9008 20.6774 20.0253C20.6307 20.1499 20.5577 20.2628 20.4633 20.3565C20.3689 20.4502 20.2554 20.5225 20.1306 20.5683C20.0057 20.6141 19.8725 20.6324 19.7399 20.622C18.4659 20.622 17.1919 20.622 15.9179 20.622C15.7909 20.6319 15.6632 20.6149 15.5431 20.5723C15.423 20.5297 15.3132 20.4623 15.2208 20.3745C15.1284 20.2867 15.0555 20.1806 15.0068 20.0628C14.958 19.9451 14.9346 19.8184 14.9379 19.691C14.9029 19.145 15.3089 18.767 15.9459 18.732C16.3939 18.732 16.8419 18.732 17.2899 18.732L17.4719 18.445C17.2423 18.3434 17.0261 18.2141 16.8279 18.06C15.0429 16.296 13.2649 14.56 11.5149 12.74C11.2447 12.4812 11.078 12.1328 11.0459 11.76C11.0775 11.5917 11.1512 11.4341 11.2602 11.3019C11.3691 11.1697 11.5097 11.0672 11.6689 11.004C11.8595 10.9776 12.0536 10.9921 12.2383 11.0464C12.4229 11.1007 12.5939 11.1936 12.7399 11.319C14.5739 13.09 16.3729 14.91 18.1649 16.723C18.319 16.9212 18.4483 17.1375 18.5499 17.367L18.8439 17.171Z" fill="white"/>
<path id="Vector_4" d="M18.8443 52.7872C18.5503 53.0602 18.3823 53.2002 18.2283 53.3542C16.4433 55.1392 14.6653 56.9382 12.8593 58.7022C12.5994 58.976 12.2484 59.1453 11.8723 59.1782C11.704 59.1466 11.5464 59.0729 11.4142 58.964C11.282 58.855 11.1795 58.7144 11.1163 58.5552C11.09 58.3646 11.1044 58.1705 11.1587 57.9859C11.213 57.8012 11.3059 57.6302 11.4313 57.4842C13.2023 55.6502 15.0153 53.8582 16.8283 52.0662C17.0271 51.9091 17.2431 51.7752 17.4723 51.6672L17.2973 51.3942C16.8773 51.3942 16.4503 51.3942 16.0303 51.3942C15.3303 51.3942 14.9313 50.9952 14.9383 50.4352C14.9453 49.8752 15.3583 49.5042 16.0513 49.4902C17.2623 49.4902 18.4663 49.4902 19.6703 49.4902C20.3703 49.4902 20.7273 49.8262 20.7413 50.5402C20.7413 51.7722 20.7413 53.0042 20.7413 54.2292C20.7559 54.3612 20.743 54.4947 20.7037 54.6214C20.6643 54.7482 20.5992 54.8654 20.5126 54.9659C20.4259 55.0664 20.3194 55.148 20.1998 55.2055C20.0801 55.263 19.95 55.2953 19.8173 55.3002C19.2503 55.3002 18.8723 54.9082 18.8443 54.2222C18.8303 53.7952 18.8443 53.3682 18.8443 52.7872Z" fill="white"/>
<path id="Vector_5" d="M51.4921 52.7796C51.4921 53.3956 51.4921 53.8436 51.4921 54.2846C51.4921 54.5352 51.3925 54.7756 51.2153 54.9528C51.0381 55.13 50.7977 55.2296 50.5471 55.2296C50.2964 55.2296 50.0561 55.13 49.8789 54.9528C49.7016 54.7756 49.6021 54.5352 49.6021 54.2846C49.6021 53.0106 49.6021 51.7366 49.6021 50.4626C49.5923 50.3296 49.6117 50.196 49.6588 50.0713C49.706 49.9465 49.7798 49.8336 49.8751 49.7403C49.9704 49.647 50.0849 49.5756 50.2106 49.5311C50.3364 49.4866 50.4703 49.47 50.6031 49.4826C51.8561 49.4826 53.1091 49.4826 54.3551 49.4826C54.4865 49.4713 54.6188 49.4874 54.7436 49.53C54.8685 49.5725 54.9831 49.6405 55.0803 49.7297C55.1775 49.8189 55.2551 49.9273 55.3081 50.048C55.3612 50.1688 55.3886 50.2992 55.3886 50.4311C55.3886 50.563 55.3612 50.6934 55.3081 50.8142C55.2551 50.9349 55.1775 51.0433 55.0803 51.1325C54.9831 51.2217 54.8685 51.2897 54.7436 51.3322C54.6188 51.3748 54.4865 51.3909 54.3551 51.3796C53.9281 51.3796 53.4941 51.3796 52.8991 51.3796C53.1371 51.6456 53.2631 51.8136 53.4101 51.9606L58.6251 57.1756C58.7721 57.3226 58.9191 57.4626 59.0521 57.6166C59.138 57.7018 59.2062 57.8033 59.2527 57.915C59.2993 58.0267 59.3232 58.1466 59.3232 58.2676C59.3232 58.3886 59.2993 58.5085 59.2527 58.6202C59.2062 58.7319 59.138 58.8334 59.0521 58.9186C58.968 59.0139 58.8646 59.0903 58.7487 59.1426C58.6329 59.1949 58.5072 59.222 58.3801 59.222C58.2529 59.222 58.1273 59.1949 58.0114 59.1426C57.8956 59.0903 57.7922 59.0139 57.7081 58.9186C57.0571 58.3166 56.4481 57.6726 55.8181 57.0426L52.0941 53.3256C51.9541 53.1996 51.8001 53.0526 51.4921 52.7796Z" fill="white"/>
<path id="Vector_6" d="M36.1271 11.0462C36.5751 10.5772 36.8691 10.2412 37.1981 9.93322C37.2839 9.83374 37.3892 9.75295 37.5075 9.69587C37.6259 9.63878 37.7547 9.60662 37.8859 9.60137C38.0172 9.59612 38.1481 9.61789 38.2706 9.66534C38.3931 9.7128 38.5046 9.78491 38.5981 9.87722C38.6933 9.9691 38.768 10.0801 38.8173 10.2029C38.8666 10.3257 38.8894 10.4576 38.8841 10.5898C38.8788 10.722 38.8456 10.8516 38.7866 10.9701C38.7277 11.0886 38.6443 11.1932 38.5421 11.2772C37.6671 12.1802 36.7851 13.0692 35.8821 13.9372C35.7974 14.0411 35.6906 14.1249 35.5696 14.1824C35.4485 14.2399 35.3161 14.2698 35.1821 14.2698C35.048 14.2698 34.9157 14.2399 34.7946 14.1824C34.6735 14.1249 34.5668 14.0411 34.4821 13.9372C33.5791 13.0692 32.6971 12.1802 31.8221 11.2842C31.7224 11.1968 31.6426 11.0892 31.5879 10.9685C31.5332 10.8478 31.5049 10.7168 31.5049 10.5842C31.5049 10.4517 31.5332 10.3207 31.5879 10.2C31.6426 10.0792 31.7224 9.9716 31.8221 9.88422C31.9073 9.79084 32.0111 9.71625 32.1268 9.66522C32.2425 9.61419 32.3676 9.58783 32.4941 9.58783C32.6205 9.58783 32.7456 9.61419 32.8613 9.66522C32.977 9.71625 33.0808 9.79084 33.1661 9.88422C33.4951 10.1992 33.7891 10.5492 34.2301 11.0252C34.2301 10.6262 34.2721 10.4162 34.2721 10.2132C34.2721 7.61622 34.2721 5.01922 34.2721 2.42222C34.2721 1.68022 34.6991 1.21822 35.3011 1.26722C35.9031 1.31622 36.1831 1.73622 36.1831 2.44322C36.1831 5.01222 36.1831 7.58122 36.1831 10.1432L36.1271 11.0462Z" fill="white"/>
<path id="Vector_7" d="M11.0674 36.0146H2.66739C1.85539 36.0146 1.40039 35.6576 1.40039 35.0556C1.40039 34.4536 1.84839 34.1036 2.63239 34.1036H10.9414L11.0254 33.9636C10.7034 33.6556 10.3674 33.3686 10.0594 33.0396C9.95806 32.9554 9.8753 32.8511 9.81637 32.7332C9.75745 32.6154 9.72362 32.4866 9.71704 32.355C9.71046 32.2234 9.73127 32.0918 9.77815 31.9687C9.82503 31.8456 9.89696 31.7335 9.98939 31.6396C10.0797 31.5425 10.1898 31.4658 10.3121 31.4147C10.4345 31.3636 10.5664 31.3392 10.6989 31.3432C10.8315 31.3472 10.9616 31.3794 11.0807 31.4378C11.1998 31.4961 11.305 31.5793 11.3894 31.6816C12.2901 32.5496 13.1744 33.4339 14.0424 34.3346C14.1528 34.4196 14.2422 34.5288 14.3037 34.6538C14.3652 34.7788 14.3972 34.9163 14.3972 35.0556C14.3972 35.1949 14.3652 35.3324 14.3037 35.4574C14.2422 35.5824 14.1528 35.6916 14.0424 35.7766C13.1744 36.6796 12.2854 37.5616 11.3894 38.4296C11.3043 38.5305 11.199 38.6124 11.0803 38.67C10.9616 38.7277 10.8321 38.7599 10.7003 38.7645C10.5684 38.7692 10.437 38.7461 10.3145 38.6968C10.1921 38.6476 10.0813 38.5733 9.98939 38.4786C9.89935 38.3837 9.82938 38.2716 9.78365 38.149C9.73793 38.0264 9.71739 37.8959 9.72327 37.7652C9.72916 37.6345 9.76133 37.5063 9.81788 37.3884C9.87443 37.2704 9.95419 37.165 10.0524 37.0786C10.2064 36.9106 10.3744 36.7566 10.5354 36.5886L11.0674 36.0146Z" fill="white"/>
<path id="Vector_8" d="M59.4164 34.0966H67.3964C67.6016 34.0861 67.8072 34.0861 68.0124 34.0966C68.2631 34.0966 68.5034 34.1962 68.6807 34.3734C68.8579 34.5506 68.9574 34.791 68.9574 35.0416C68.9574 35.2923 68.8579 35.5326 68.6807 35.7099C68.5034 35.8871 68.2631 35.9866 68.0124 35.9866C67.2634 35.9866 66.5144 35.9866 65.7584 35.9866H59.2554C59.6544 36.3926 59.9554 36.6866 60.2634 37.0226C60.3739 37.1093 60.4644 37.219 60.5285 37.3439C60.5926 37.4689 60.6289 37.6063 60.6349 37.7466C60.6409 37.887 60.6164 38.0269 60.5632 38.1569C60.5099 38.2869 60.4292 38.4038 60.3264 38.4996C60.2311 38.5908 60.1179 38.6613 59.994 38.7064C59.87 38.7515 59.7381 38.7704 59.6064 38.7619C59.4748 38.7533 59.3464 38.7175 59.2293 38.6567C59.1123 38.5959 59.0091 38.5114 58.9264 38.4086C58.0491 37.536 57.1811 36.668 56.3224 35.8046C56.2053 35.7188 56.11 35.6066 56.0443 35.4771C55.9786 35.3476 55.9443 35.2044 55.9443 35.0591C55.9443 34.9139 55.9786 34.7707 56.0443 34.6412C56.11 34.5117 56.2053 34.3994 56.3224 34.3136C57.1764 33.4316 58.0514 32.5636 58.9264 31.7026C59.0118 31.6014 59.1174 31.519 59.2364 31.4609C59.3554 31.4027 59.4852 31.3701 59.6176 31.365C59.75 31.3599 59.8819 31.3824 60.0051 31.4312C60.1282 31.48 60.2398 31.554 60.3327 31.6484C60.4256 31.7428 60.4978 31.8555 60.5447 31.9794C60.5916 32.1033 60.6121 32.2356 60.6049 32.3679C60.5977 32.5001 60.563 32.6294 60.503 32.7475C60.443 32.8656 60.359 32.9699 60.2564 33.0536C59.9484 33.3498 59.6236 33.6279 59.2834 33.8866L59.4164 34.0966Z" fill="white"/>
<path id="Vector_9" d="M36.1266 59.2896V67.5846C36.1266 68.3756 35.7766 68.8236 35.1816 68.8376C34.5866 68.8516 34.2156 68.3896 34.2156 67.6126C34.2156 65.0646 34.2156 62.5096 34.2156 59.9616V59.2616L34.0546 59.1496C33.7536 59.4786 33.4736 59.8496 33.1586 60.1296C33.0784 60.2429 32.9744 60.3372 32.8538 60.4061C32.7333 60.4749 32.5992 60.5166 32.4609 60.5281C32.3226 60.5397 32.1834 60.5208 32.0531 60.4729C31.9229 60.425 31.8046 60.3492 31.7067 60.2508C31.6089 60.1524 31.5337 60.0338 31.4865 59.9033C31.4392 59.7727 31.4211 59.6335 31.4334 59.4952C31.4457 59.357 31.488 59.2231 31.5575 59.1029C31.627 58.9827 31.7219 58.8792 31.8356 58.7996C32.6896 57.9176 33.5576 57.0496 34.4396 56.1956C34.5246 56.0852 34.6338 55.9958 34.7588 55.9343C34.8838 55.8728 35.0213 55.8408 35.1606 55.8408C35.2999 55.8408 35.4374 55.8728 35.5624 55.9343C35.6874 55.9958 35.7966 56.0852 35.8816 56.1956C36.7986 57.0846 37.6946 57.9876 38.5836 58.9046C38.6977 58.9843 38.7928 59.0882 38.862 59.2089C38.9313 59.3295 38.9731 59.464 38.9844 59.6027C38.9957 59.7414 38.9762 59.8809 38.9273 60.0112C38.8785 60.1415 38.8014 60.2594 38.7017 60.3564C38.602 60.4535 38.4821 60.5274 38.3506 60.5727C38.219 60.6181 38.0791 60.6338 37.9408 60.6189C37.8024 60.6039 37.6691 60.5585 37.5503 60.4861C37.4315 60.4136 37.3302 60.3158 37.2536 60.1996C36.9106 59.8776 36.6236 59.4996 36.3086 59.1566L36.1266 59.2896Z" fill="white"/>
<path id="Vector_10" d="M45.4159 43.7715H24.8359C24.8774 43.0863 24.9569 42.4039 25.0739 41.7275C25.3806 40.1478 26.0602 38.6643 27.0562 37.4004C28.0522 36.1366 29.3358 35.1289 30.7999 34.4615C30.9374 34.41 31.0838 34.3865 31.2305 34.3926C31.3772 34.3986 31.5211 34.4339 31.6539 34.4965C32.7269 35.0841 33.9306 35.392 35.1539 35.392C36.3773 35.392 37.5809 35.0841 38.6539 34.4965C38.8708 34.3887 39.1189 34.3614 39.3539 34.4195C41.1158 35.214 42.6179 36.4894 43.6877 38.099C44.7575 39.7087 45.3516 41.5874 45.4019 43.5195C45.4509 43.5755 45.4369 43.6455 45.4159 43.7715Z" fill="white"/>
<path id="Vector_11" d="M40.4036 28.2245C40.4036 29.2594 40.0969 30.2712 39.5222 31.132C38.9475 31.9927 38.1305 32.6638 37.1746 33.0605C36.2187 33.4572 35.1666 33.5617 34.1513 33.3608C33.136 33.1599 32.203 32.6627 31.4702 31.9318C30.7374 31.2009 30.2376 30.2693 30.034 29.2545C29.8304 28.2397 29.932 27.1874 30.3262 26.2304C30.7204 25.2734 31.3893 24.4547 32.2485 23.8777C33.1077 23.3007 34.1187 22.9912 35.1536 22.9885C35.8435 22.9829 36.5275 23.1144 37.1661 23.3754C37.8046 23.6364 38.385 24.0216 38.8734 24.5088C39.3618 24.9959 39.7486 25.5752 40.0113 26.2131C40.274 26.8509 40.4074 27.5346 40.4036 28.2245Z" fill="white"/>
</g>
</svg>
