<svg width="70" height="70" viewBox="0 0 70 70" fill="none" xmlns="http://www.w3.org/2000/svg">
<g id="Artboard 1 copy 3 10">
<path id="Vector" d="M31.2685 67.3263C30.7134 67.1943 30.2131 66.893 29.8369 66.4641C29.4606 66.0352 29.2271 65.4999 29.1685 64.9323C29.1626 64.8391 29.1626 64.7456 29.1685 64.6523H40.8445C40.8448 65.2689 40.6379 65.8677 40.2571 66.3526C39.8762 66.8375 39.3436 67.1804 38.7445 67.3263H31.2685Z" fill="white"/>
<path id="Vector_2" d="M28.3007 51.4427H25.9767C25.1577 49.3427 23.5127 47.7117 22.0077 46.0177C20.1737 43.9177 18.5077 41.8177 17.7027 39.0807C16.9916 36.6987 16.7807 34.1954 17.0833 31.728C17.3858 29.2605 18.1953 26.8823 19.4608 24.7427C20.7264 22.6031 22.4207 20.7482 24.4373 19.2946C26.4539 17.841 28.7493 16.8201 31.1793 16.296C33.6093 15.7719 36.1214 15.7558 38.5579 16.2489C40.9944 16.742 43.3026 17.7335 45.3376 19.1612C47.3726 20.589 49.0904 22.4221 50.3832 24.5454C51.6759 26.6687 52.5157 29.0363 52.8497 31.4997C53.5077 36.3227 52.4857 40.7537 49.2447 44.5407C48.6567 45.2407 48.0687 45.9057 47.4737 46.5847C46.1507 48.0967 44.7367 49.5457 44.0227 51.4427H41.7337C41.7337 51.2047 41.7337 50.9947 41.7337 50.7917C41.7337 47.6767 41.7337 44.5687 41.7337 41.4537C41.7235 41.2768 41.7556 41.1001 41.8275 40.9382C41.8993 40.7762 42.0087 40.6338 42.1467 40.5227C43.3852 39.3897 44.3356 37.9777 44.9192 36.4038C45.5027 34.8299 45.7025 33.1396 45.5019 31.4731C45.3014 29.8065 44.7063 28.2118 43.7661 26.8213C42.8259 25.4308 41.5676 24.2846 40.0957 23.4777C37.8627 22.2667 35.6857 23.5407 35.6787 26.0677C35.6787 27.9064 35.6787 29.752 35.6787 31.6047C35.6787 32.0737 35.6017 32.5217 35.0417 32.5287C34.4817 32.5357 34.3977 32.0807 34.4047 31.6117C34.4047 29.745 34.4047 27.8784 34.4047 26.0117C34.4047 23.5687 32.2067 22.2877 30.0507 23.4497C28.5542 24.2458 27.2715 25.3905 26.311 26.7872C25.3504 28.1838 24.7403 29.7911 24.5323 31.4734C24.3243 33.1556 24.5244 34.8632 25.1157 36.4517C25.7071 38.0402 26.6723 39.463 27.9297 40.5997C28.1187 40.7586 28.2452 40.9793 28.2867 41.2227C28.3077 44.5827 28.3007 47.9707 28.3007 51.4427Z" fill="white"/>
<path id="Vector_3" d="M39.6129 51.4146H30.4149C30.4149 51.1626 30.3799 50.9316 30.3799 50.7146C30.3799 47.5576 30.3799 44.4146 30.3799 41.2506C30.3969 40.8345 30.3173 40.4201 30.1472 40.04C29.9772 39.6598 29.7214 39.3243 29.3999 39.0596C28.3969 38.1779 27.6177 37.0706 27.1262 35.829C26.6347 34.5873 26.4451 33.2467 26.5729 31.9174C26.7007 30.5881 27.1423 29.3082 27.8613 28.1829C28.5804 27.0576 29.5563 26.1191 30.7089 25.4446L30.8769 25.3536C31.7869 24.8426 32.2769 25.1156 32.2769 26.1516C32.2769 28.1046 32.2769 30.0576 32.2769 32.0106C32.2853 32.5837 32.4796 33.1387 32.8305 33.5919C33.1814 34.0451 33.6701 34.372 34.2229 34.5236C34.7587 34.6971 35.3367 34.6897 35.8679 34.5025C36.3992 34.3153 36.8541 33.9587 37.1629 33.4876C37.4704 32.9814 37.6461 32.4062 37.6739 31.8146C37.7369 29.9456 37.6739 28.0836 37.6739 26.2146C37.6739 25.0946 38.1429 24.8146 39.1229 25.3816C40.2821 26.0406 41.2689 26.9646 42.0026 28.0781C42.7363 29.1916 43.196 30.4629 43.3442 31.7881C43.4924 33.1133 43.3247 34.4548 42.8551 35.7028C42.3854 36.9508 41.627 38.0699 40.6419 38.9686C40.2803 39.2669 39.9938 39.6459 39.8054 40.075C39.6169 40.5042 39.5318 40.9716 39.5569 41.4396C39.5989 44.5056 39.5569 47.5716 39.5569 50.6446L39.6129 51.4146Z" fill="white"/>
<path id="Vector_4" d="M27.0695 58.1004C26.7519 58.0667 26.4364 58.0153 26.1245 57.9464C25.6032 57.8139 25.1472 57.4978 24.8404 57.056C24.5335 56.6142 24.3965 56.0765 24.4544 55.5418C24.5123 55.0071 24.7613 54.5112 25.1555 54.1453C25.5498 53.7795 26.0629 53.5682 26.6005 53.5504C27.3005 53.5504 28.0565 53.5504 28.7915 53.5504C33.5935 53.5504 38.4025 53.5504 43.2115 53.5504C43.7877 53.5369 44.3464 53.7488 44.7686 54.141C45.1909 54.5333 45.4435 55.0748 45.4725 55.6504C45.4999 56.2245 45.3097 56.7878 44.9398 57.2277C44.57 57.6676 44.0477 57.9518 43.4775 58.0234C43.2885 58.0234 43.0995 58.0234 42.7775 58.0724L43.1485 58.2894C43.5801 58.528 43.9209 58.9024 44.118 59.3545C44.3151 59.8065 44.3575 60.311 44.2387 60.7897C44.1198 61.2683 43.8463 61.6943 43.4606 62.0016C43.0749 62.309 42.5986 62.4804 42.1055 62.4894C41.2935 62.4894 40.4745 62.4894 39.6555 62.4894C35.7775 62.4894 31.8925 62.4894 28.0075 62.4894C26.1245 62.4894 24.9765 60.7394 25.8235 59.1924C26.1119 58.71 26.425 58.2427 26.7615 57.7924L27.0695 58.1004Z" fill="white"/>
<path id="Vector_5" d="M19.2854 16.8981C19.3153 17.0857 19.2942 17.278 19.2241 17.4546C19.1541 17.6312 19.0377 17.7857 18.8872 17.9018C18.7368 18.0178 18.5578 18.0912 18.3692 18.1141C18.1806 18.1371 17.9892 18.1087 17.8154 18.0321C17.7013 17.9767 17.5954 17.906 17.5004 17.8221C15.6944 16.0231 13.8814 14.2381 12.1174 12.3971C11.998 12.234 11.9166 12.0462 11.8791 11.8476C11.8416 11.649 11.8488 11.4445 11.9004 11.2491C11.9774 10.9761 12.4324 10.7101 12.7614 10.6401C12.918 10.6357 13.0738 10.6633 13.2194 10.721C13.365 10.7788 13.4973 10.8656 13.6084 10.9761C15.391 12.7354 17.162 14.5064 18.9214 16.2891C19.0691 16.4751 19.1915 16.6799 19.2854 16.8981Z" fill="white"/>
<path id="Vector_6" d="M51.9261 18.1369C50.9601 18.1369 50.4631 17.3109 50.8341 16.6249C50.9308 16.4612 51.0511 16.3126 51.1911 16.1839L56.2731 11.0879C56.8681 10.4999 57.5051 10.4509 57.9601 10.9269C58.4151 11.4029 58.3311 11.9979 57.7571 12.5719C56.0491 14.2799 54.3411 15.9949 52.6191 17.6959C52.408 17.872 52.1751 18.0203 51.9261 18.1369Z" fill="white"/>
<path id="Vector_7" d="M18.2976 49.4199C18.6056 49.6649 18.9976 49.8329 19.1376 50.1199C19.2428 50.4738 19.2179 50.8537 19.0676 51.1909C18.9626 51.4639 18.6546 51.6599 18.4236 51.8909C16.8322 53.4776 15.2456 55.0689 13.6636 56.6649C13.5285 56.8484 13.3349 56.9803 13.1147 57.0389C12.8945 57.0974 12.6609 57.0791 12.4526 56.9869C12.1321 56.8017 11.8981 56.4972 11.8016 56.1399C11.7925 55.9749 11.8184 55.8097 11.8775 55.6554C11.9366 55.501 12.0276 55.3608 12.1446 55.2439C13.8946 53.4519 15.6632 51.6786 17.4506 49.9239C17.7148 49.7272 17.9986 49.5583 18.2976 49.4199Z" fill="white"/>
<path id="Vector_8" d="M57.2601 57.232C56.9404 57.0841 56.6357 56.906 56.3501 56.7C54.6001 54.9733 52.8571 53.2326 51.1211 51.478C50.9979 51.388 50.8956 51.2724 50.8213 51.1391C50.747 51.0059 50.7024 50.8581 50.6907 50.706C50.6789 50.5539 50.7002 50.401 50.7531 50.2579C50.806 50.1148 50.8892 49.9849 50.9971 49.877C51.105 49.7691 51.2349 49.6858 51.378 49.6329C51.5211 49.58 51.674 49.5588 51.8261 49.5705C51.9782 49.5823 52.126 49.6269 52.2592 49.7012C52.3925 49.7755 52.5081 49.8778 52.5981 50.001C54.3411 51.737 56.0981 53.501 57.8271 55.223C58.019 55.3643 58.1551 55.5688 58.2114 55.8005C58.2677 56.0321 58.2407 56.2762 58.1351 56.49C57.8837 56.7812 57.5885 57.0316 57.2601 57.232Z" fill="white"/>
<path id="Vector_9" d="M36.0434 6.30039C36.0434 7.49739 36.0434 8.69439 36.0434 9.89839C36.0364 10.7384 35.7004 11.2004 35.0004 11.2004C34.3004 11.2004 33.9434 10.7664 33.9434 9.96139C33.9434 7.51606 33.9434 5.07539 33.9434 2.63939C33.9644 1.86939 34.3564 1.40039 35.0004 1.40039C35.6444 1.40039 36.0574 1.85539 36.0574 2.65339C36.0434 3.87839 36.0434 5.09639 36.0434 6.30039Z" fill="white"/>
<path id="Vector_10" d="M7.43352 34.8806C6.21552 34.8806 4.99052 34.8806 3.77252 34.8806C3.02352 34.8806 2.56152 34.4746 2.56152 33.8516C2.56152 33.2286 3.00952 32.8086 3.75852 32.8086H11.1435C11.9135 32.8086 12.3475 33.1936 12.3475 33.8376C12.3475 34.4816 11.9205 34.8736 11.1575 34.8806C9.91852 34.8876 8.67252 34.8806 7.43352 34.8806Z" fill="white"/>
<path id="Vector_11" d="M62.5517 34.8806C61.3337 34.8806 60.1157 34.8806 58.8907 34.8806C58.0787 34.8806 57.6377 34.4956 57.6517 33.8306C57.6657 33.1656 58.0927 32.8156 58.8627 32.8086H66.1847C66.9827 32.8086 67.4517 33.2146 67.4377 33.8586C67.4237 34.5026 66.9547 34.8806 66.1497 34.8806C64.9527 34.8876 63.7557 34.8806 62.5517 34.8806Z" fill="white"/>
</g>
</svg>
