<svg width="65" height="65" viewBox="0 0 65 65" fill="none" xmlns="http://www.w3.org/2000/svg">
<g id="Artboard 1 copy 2 15">
<path id="Vector" d="M63.7001 61.7502C63.5522 62.2981 63.2581 62.7956 62.8494 63.1894C62.4407 63.5832 61.9327 63.8586 61.3796 63.9862C61.1012 64.039 60.818 64.063 60.5346 64.0577H4.60214C4.17976 64.0918 3.75499 64.034 3.35712 63.8881C2.95925 63.7423 2.59773 63.5119 2.29747 63.2129C1.9972 62.9138 1.76534 62.5533 1.61785 62.156C1.47037 61.7587 1.41076 61.3342 1.44314 60.9117V50.6352C1.41447 50.2192 1.47508 49.8019 1.6209 49.4112C1.76672 49.0205 1.99438 48.6656 2.28862 48.3701C2.58286 48.0746 2.93687 47.8455 3.32692 47.698C3.71696 47.5506 4.13403 47.4882 4.55014 47.5152H17.9856C17.9856 45.7992 17.9466 44.1417 17.9856 42.4907C17.991 41.2971 18.1086 40.1067 18.3366 38.9352C18.6841 37.4038 19.3451 35.961 20.2782 34.6979C21.2112 33.4348 22.396 32.3789 23.7576 31.5967L25.0966 33.0007C24.4466 33.4882 23.7641 33.9237 23.1466 34.4567C22.1382 35.3295 21.3268 36.4068 20.7665 37.6171C20.2062 38.8274 19.9097 40.143 19.8966 41.4767C19.8511 43.4267 19.8966 45.4482 19.8966 47.4762H45.2336C45.2336 46.9692 45.2336 46.4687 45.2336 45.9682C45.2336 44.1677 45.3116 42.3542 45.1296 40.5667C44.9872 39.0424 44.4722 37.5764 43.63 36.2979C42.7879 35.0193 41.6444 33.9674 40.3001 33.2347L40.0076 33.0397L41.3661 31.5967C43.1419 32.6341 44.6129 34.1212 45.6308 35.9083C46.6487 37.6953 47.1776 39.7191 47.1641 41.7757V47.5152H47.8141C51.8701 47.5152 55.9261 47.5672 59.9821 47.5152C61.8021 47.5152 63.0761 48.0807 63.6936 49.8487L63.7001 61.7502ZM7.74814 58.1102C7.72012 58.2984 7.74931 58.4906 7.83192 58.662C7.91454 58.8334 8.04677 58.976 8.21144 59.0713C8.37612 59.1666 8.56565 59.2102 8.75541 59.1965C8.94518 59.1827 9.12643 59.1122 9.27564 58.9942C9.88014 58.6302 10.4066 58.4417 11.0241 58.9422C11.1896 59.0935 11.4013 59.1845 11.625 59.2004C11.8486 59.2163 12.0711 59.1561 12.2563 59.0296C12.4414 58.9032 12.5784 58.7179 12.645 58.5038C12.7116 58.2897 12.7039 58.0594 12.6231 57.8502C12.4985 57.5106 12.4903 57.1393 12.5997 56.7946C12.7092 56.4498 12.93 56.1512 13.2276 55.9457C13.3516 55.8108 13.4425 55.6491 13.4932 55.4731C13.544 55.2971 13.5532 55.1118 13.5201 54.9317C13.4354 54.7632 13.3125 54.6167 13.1613 54.5039C13.0102 54.3911 12.8348 54.315 12.6491 54.2817C12.3004 54.2788 11.962 54.1625 11.6852 53.9502C11.4084 53.7379 11.2083 53.4413 11.1151 53.1052C11.0175 52.9417 10.8877 52.7997 10.7335 52.688C10.5793 52.5762 10.4039 52.497 10.2181 52.4552C10.0057 52.4186 9.78736 52.466 9.60913 52.5872C9.43089 52.7085 9.30668 52.8942 9.26264 53.1052C9.18919 53.4495 8.99608 53.7566 8.71761 53.972C8.43915 54.1874 8.09335 54.2971 7.74164 54.2817C7.55366 54.3211 7.37779 54.4048 7.22858 54.5257C7.07937 54.6467 6.96113 54.8014 6.88364 54.9772C6.84877 55.1558 6.85776 55.3402 6.90984 55.5145C6.96192 55.6889 7.05553 55.848 7.18264 55.9782C7.48079 56.1756 7.70383 56.4676 7.81584 56.8072C7.92786 57.1467 7.92233 57.5141 7.80014 57.8502C7.76772 57.9331 7.75012 58.0211 7.74814 58.1102ZM18.9346 58.1102C18.9048 58.2983 18.9322 58.4911 19.0134 58.6634C19.0946 58.8357 19.2258 58.9796 19.3898 59.0764C19.5539 59.1731 19.7433 59.2183 19.9334 59.206C20.1235 59.1936 20.3055 59.1243 20.4556 59.0072C21.0536 58.6627 21.5801 58.4157 22.2041 58.9422C22.3683 59.1001 22.5832 59.1946 22.8106 59.2088C23.0379 59.2231 23.263 59.1563 23.4456 59.0202C23.6271 58.8929 23.7608 58.7086 23.8256 58.4967C23.8904 58.2847 23.8825 58.0571 23.8031 57.8502C23.6873 57.5285 23.6799 57.1778 23.782 56.8516C23.8841 56.5253 24.0901 56.2414 24.3686 56.0432C24.5071 55.9022 24.6096 55.73 24.6673 55.541C24.725 55.352 24.7363 55.1519 24.7001 54.9577C24.6118 54.778 24.4831 54.6211 24.3241 54.4994C24.1651 54.3776 23.9802 54.2942 23.7836 54.2557C23.4634 54.2645 23.1496 54.1646 22.8934 53.9722C22.6372 53.7798 22.4538 53.5062 22.3731 53.1962C22.317 52.9804 22.1908 52.7893 22.0143 52.6529C21.8379 52.5165 21.6212 52.4425 21.3981 52.4425C21.1751 52.4425 20.9584 52.5165 20.782 52.6529C20.6055 52.7893 20.4793 52.9804 20.4231 53.1962C20.3484 53.5093 20.1679 53.787 19.9121 53.9824C19.6563 54.1779 19.3409 54.279 19.0191 54.2687C18.8215 54.304 18.6348 54.3845 18.4735 54.5041C18.3123 54.6236 18.1809 54.7789 18.0896 54.9577C18.0584 55.1469 18.0721 55.3408 18.1297 55.5238C18.1873 55.7067 18.2871 55.8735 18.4211 56.0107C18.7062 56.2017 18.9175 56.4842 19.0204 56.8115C19.1232 57.1389 19.1113 57.4915 18.9866 57.8112C18.9568 57.906 18.9393 58.0044 18.9346 58.1037V58.1102ZM30.1276 58.1102C30.0971 58.2882 30.1194 58.4712 30.1918 58.6366C30.2643 58.8021 30.3836 58.9426 30.5352 59.0409C30.6867 59.1391 30.8637 59.1908 31.0443 59.1894C31.2249 59.188 31.4011 59.1337 31.5511 59.0332C31.8382 58.7848 32.2051 58.6481 32.5846 58.6481C32.9642 58.6481 33.3311 58.7848 33.6181 59.0332H33.6701C33.8206 59.1096 33.9888 59.1442 34.1571 59.1334C34.3255 59.1226 34.4879 59.0668 34.6273 58.9719C34.7668 58.8769 34.8782 58.7462 34.9499 58.5935C35.0217 58.4408 35.0511 58.2716 35.0351 58.1037C35.0243 57.8407 34.9873 57.5794 34.9246 57.3237C34.8597 57.1415 34.8563 56.9429 34.915 56.7586C34.9737 56.5743 35.0913 56.4143 35.2496 56.3032C35.4033 56.1734 35.5447 56.0298 35.6721 55.8742C36.2441 55.2242 36.0036 54.2882 35.1456 54.2167C34.7574 54.2306 34.3765 54.1082 34.0691 53.8708C33.7616 53.6333 33.5469 53.2958 33.4621 52.9167C33.4671 52.8975 33.4671 52.8774 33.4621 52.8582C33.3835 52.6977 33.2614 52.5625 33.1097 52.4679C32.958 52.3733 32.7829 52.3232 32.6041 52.3232C32.4254 52.3232 32.2502 52.3733 32.0986 52.4679C31.9469 52.5625 31.8248 52.6977 31.7461 52.8582C31.6374 53.0311 31.5501 53.2167 31.4861 53.4107C31.4355 53.6277 31.3085 53.8194 31.1283 53.9506C30.9481 54.0819 30.7268 54.144 30.5046 54.1257C30.3649 54.128 30.2256 54.1432 30.0886 54.1712C29.8982 54.1849 29.7163 54.2553 29.5663 54.3734C29.4163 54.4915 29.3051 54.6518 29.2471 54.8336C29.189 55.0155 29.1868 55.2106 29.2406 55.3937C29.2944 55.5769 29.4019 55.7397 29.5491 55.8612C29.8658 56.0756 30.1018 56.3898 30.2195 56.7537C30.3373 57.1175 30.3301 57.5103 30.1991 57.8697C30.1631 57.948 30.139 58.0312 30.1276 58.1167V58.1102ZM41.3206 58.1102C41.2905 58.2983 41.318 58.4911 41.3996 58.6632C41.4811 58.8353 41.613 58.9787 41.7776 59.0744C41.9423 59.1701 42.1321 59.2137 42.3221 59.1994C42.512 59.185 42.6932 59.1135 42.8416 58.9942C43.0941 58.7803 43.4142 58.6628 43.7451 58.6628C44.076 58.6628 44.3962 58.7803 44.6486 58.9942C44.8033 59.1478 45.0124 59.234 45.2304 59.234C45.4484 59.234 45.6575 59.1478 45.8121 58.9942C45.938 58.8501 46.0329 58.6817 46.0911 58.4995C46.1492 58.3173 46.1693 58.125 46.1501 57.9347C46.0431 57.5854 46.0448 57.2118 46.1551 56.8635C46.2654 56.5152 46.479 56.2087 46.7676 55.9847C46.8939 55.8526 46.9869 55.6923 47.0389 55.5171C47.0909 55.3419 47.1004 55.1568 47.0666 54.9772C46.9849 54.8026 46.8637 54.6495 46.7125 54.5299C46.5613 54.4103 46.3843 54.3275 46.1956 54.2882C45.8466 54.2864 45.5077 54.1704 45.2307 53.958C44.9537 53.7456 44.7539 53.4483 44.6616 53.1117C44.564 52.9482 44.4342 52.8062 44.28 52.6945C44.1258 52.5827 43.9504 52.5035 43.7646 52.4617C43.5522 52.4251 43.3339 52.4725 43.1556 52.5937C42.9774 52.715 42.8532 52.9007 42.8091 53.1117C42.7372 53.456 42.5456 53.7638 42.2684 53.9803C41.9911 54.1969 41.6462 54.3083 41.2946 54.2947C41.1063 54.333 40.9298 54.4154 40.7795 54.5352C40.6293 54.655 40.5095 54.8087 40.4301 54.9837C40.3953 55.1633 40.4043 55.3486 40.4563 55.524C40.5084 55.6994 40.602 55.8597 40.7291 55.9912C41.0236 56.1887 41.2441 56.4785 41.3559 56.8151C41.4677 57.1516 41.4644 57.5157 41.3466 57.8502C41.3222 57.9345 41.3134 58.0227 41.3206 58.1102ZM52.5071 58.1102C52.4757 58.2988 52.5019 58.4926 52.5825 58.6661C52.663 58.8395 52.7941 58.9846 52.9585 59.0823C53.123 59.18 53.3131 59.2257 53.504 59.2134C53.6948 59.2012 53.8775 59.1316 54.0281 59.0137C54.6261 58.6692 55.1461 58.4222 55.7766 58.9487C55.9398 59.1061 56.1536 59.2003 56.3798 59.2146C56.606 59.2289 56.83 59.1623 57.0116 59.0267C57.1966 58.9008 57.3333 58.7158 57.3994 58.5021C57.4655 58.2884 57.4571 58.0585 57.3756 57.8502C57.2587 57.5283 57.25 57.177 57.3509 56.8496C57.4518 56.5223 57.6567 56.2369 57.9346 56.0367C58.0712 55.902 58.1741 55.7371 58.235 55.5553C58.296 55.3735 58.3133 55.1799 58.2856 54.9902C58.1974 54.8085 58.0681 54.6499 57.9078 54.5269C57.7476 54.4039 57.561 54.32 57.3626 54.2817C57.0247 54.2913 56.694 54.1831 56.4271 53.9756C56.1603 53.768 55.974 53.4741 55.9001 53.1442C55.8538 52.9219 55.7293 52.7235 55.5492 52.5852C55.3691 52.4468 55.1454 52.3776 54.9186 52.3902C54.6916 52.3917 54.472 52.4714 54.2968 52.6158C54.1216 52.7602 54.0015 52.9606 53.9566 53.1832C53.8822 53.4952 53.7026 53.7721 53.4482 53.9674C53.1937 54.1626 52.8798 54.2644 52.5591 54.2557C52.3615 54.291 52.1748 54.3715 52.0135 54.4911C51.8523 54.6106 51.7209 54.7659 51.6296 54.9447C51.596 55.1324 51.6079 55.3255 51.6645 55.5076C51.721 55.6897 51.8205 55.8556 51.9546 55.9912C52.2372 56.1858 52.4461 56.4699 52.5475 56.7977C52.6489 57.1256 52.637 57.478 52.5136 57.7982C52.5012 57.8974 52.499 57.9976 52.5071 58.0972V58.1102Z" fill="white"/>
<path id="Vector_2" d="M32.9488 1.78125C33.1754 1.93478 33.3557 2.14733 33.4703 2.39593C33.5849 2.64454 33.6293 2.91973 33.5988 3.19175C33.5988 4.58275 33.5988 5.98025 33.5988 7.37775C33.5988 8.13825 33.2283 8.58675 32.6238 8.58675C32.0193 8.58675 31.6618 8.14475 31.6553 7.37775C31.6553 5.98025 31.6553 4.58275 31.6553 3.19175C31.624 2.91966 31.6681 2.64421 31.7827 2.39547C31.8974 2.14673 32.0781 1.93426 32.3053 1.78125H32.9488Z" fill="white"/>
<path id="Vector_3" d="M32.4998 33.8909C30.6729 33.8755 28.8916 33.319 27.3808 32.2917C25.87 31.2645 24.6975 29.8125 24.0114 28.1192C23.3254 26.426 23.1565 24.5674 23.5261 22.7782C23.8958 20.989 24.7873 19.3495 26.0882 18.0668C27.3891 16.784 29.041 15.9155 30.8352 15.5711C32.6294 15.2266 34.4854 15.4216 36.1689 16.1313C37.8523 16.8411 39.2877 18.0339 40.2936 19.5589C41.2996 21.084 41.831 22.873 41.8208 24.6999C41.8132 25.9157 41.5659 27.1181 41.0932 28.2382C40.6204 29.3583 39.9315 30.3742 39.0658 31.2279C38.2001 32.0815 37.1746 32.7561 36.0479 33.2131C34.9213 33.67 33.7156 33.9004 32.4998 33.8909Z" fill="white"/>
<path id="Vector_4" d="M54.6 45.5329C56.5451 40.8601 56.9541 35.6898 55.7676 30.7694C54.5812 25.8489 51.8609 21.4332 47.9998 18.1604C44.1388 14.8877 39.3371 12.9274 34.2888 12.563C29.2404 12.1987 24.207 13.449 19.916 16.1334C16.746 18.1232 14.0888 20.831 12.159 24.0379C10.2292 27.2447 9.08113 30.8607 8.80746 34.5934C8.53868 38.3422 9.15083 42.1019 10.595 45.5719C10.0061 45.605 9.41583 45.605 8.82696 45.5719C8.65146 45.5719 8.42396 45.2989 8.35246 45.0974C7.0673 41.641 6.56772 37.9419 6.88996 34.2684C7.34633 27.6958 10.367 21.5656 15.301 17.1994C17.8967 14.7808 20.9795 12.945 24.3426 11.815C27.7057 10.685 31.2715 10.2869 34.801 10.6474C38.7387 10.9862 42.5457 12.2263 45.9275 14.2719C49.3092 16.3174 52.1751 19.1135 54.3034 22.4438C56.4316 25.7741 57.7653 29.5494 58.201 33.4776C58.6368 37.4058 58.1631 41.3816 56.8165 45.0974C56.68 45.4939 56.498 45.6434 56.0885 45.6044C55.679 45.5654 55.1915 45.6044 54.7495 45.6044C54.73 45.5654 54.691 45.5459 54.6 45.5329Z" fill="white"/>
<path id="Vector_5" d="M11.2974 17.8688C11.12 18.1669 10.9011 18.4383 10.6474 18.6748C10.4642 18.7916 10.2439 18.8357 10.0298 18.7984C9.81577 18.7611 9.62337 18.6452 9.4904 18.4733C8.7689 17.7648 8.0539 17.0433 7.3389 16.3283C6.7994 15.7823 6.2404 15.2493 5.7074 14.6903C5.60601 14.6022 5.52392 14.494 5.4663 14.3727C5.40868 14.2513 5.37676 14.1193 5.37255 13.9851C5.36834 13.8508 5.39192 13.7171 5.44183 13.5923C5.49173 13.4676 5.56688 13.3545 5.66255 13.2602C5.75822 13.1659 5.87235 13.0923 5.99778 13.0442C6.12322 12.9961 6.25724 12.9744 6.39145 12.9805C6.52566 12.9866 6.65716 13.0204 6.7777 13.0797C6.89823 13.1391 7.0052 13.2227 7.0919 13.3253C8.34857 14.569 9.5944 15.817 10.8294 17.0693C11.0063 17.323 11.1628 17.5904 11.2974 17.8688Z" fill="white"/>
<path id="Vector_6" d="M59.9491 13.8707C59.8123 14.1726 59.6423 14.4582 59.4421 14.7222C58.2266 15.9637 56.9916 17.1987 55.7501 18.4207C55.6621 18.5333 55.5508 18.6255 55.4238 18.6908C55.2968 18.7562 55.1571 18.7933 55.0143 18.7995C54.8716 18.8056 54.7292 18.7808 54.597 18.7266C54.4648 18.6725 54.346 18.5903 54.2486 18.4857C54.1553 18.3846 54.0845 18.2649 54.0408 18.1345C53.9971 18.004 53.9814 17.8658 53.9949 17.7289C54.0085 17.592 54.0508 17.4595 54.1191 17.3401C54.1875 17.2207 54.2804 17.1172 54.3916 17.0362L58.0836 13.3377C58.2107 13.1615 58.3982 13.0382 58.6105 12.9914C58.8227 12.9447 59.0447 12.9777 59.2341 13.0842C59.506 13.3139 59.7464 13.5783 59.9491 13.8707Z" fill="white"/>
</g>
</svg>
