<?xml version="1.0" encoding="utf-8"?>
<!-- Generator: Adobe Illustrator 26.5.0, SVG Export Plug-In . SVG Version: 6.00 Build 0)  -->
<svg version="1.1" id="Layer_1" xmlns="http://www.w3.org/2000/svg" xmlns:xlink="http://www.w3.org/1999/xlink" x="0px" y="0px"
	 viewBox="0 0 100 100" style="enable-background:new 0 0 100 100;" xml:space="preserve">
<style type="text/css">
	.st0{fill:#FFFFFF;}
</style>
<path class="st0" d="M42.4,47.4H46v-4.2L42.4,47.4z M42.4,47.4H46v-4.2L42.4,47.4z M50,13.2c-18.3,0-33.1,14.8-33.1,33.1
	c0,18.3,14.8,33.1,33.1,33.1s33.1-14.8,33.1-33.1C83.1,28,68.3,13.2,50,13.2z M31.5,28.7c2.4-2.5,5.4-4.6,8.6-6
	c3.8-1.6,7.9-2.2,12.1-1.9c4.2,0.4,8.2,1.8,11.7,4c0.5,0.4,1.3,0,1.2-0.7c0,0,0,0,0,0c0-0.4,0.4-0.8,0.8-0.8l1.8,0
	c0.7,0,1.3,0.6,1.3,1.2l0.1,6.2c0,0.7-0.5,1.2-1.2,1.3l-6.2,0.6c-0.7,0.1-1.3-0.5-1.4-1.2l-0.1-1.3c-0.1-0.7,0.5-1.3,1.2-1.4
	l1.1-0.1c-3.1-2.2-6.8-3.6-10.7-3.9c-6.5-0.6-13,1.9-17.5,6.6c-0.5,0.5-1.2,0.5-1.7,0.1l-1-0.9C31,30,31,29.2,31.5,28.7z M61.9,37.2
	l-8.6,18h-2.5l8.6-18H61.9z M39.4,49.8l-0.5-2.1l7.5-8.7h2.5v8.4h1.8v2.4h-1.8v2.9H46v-2.9H39.4z M27.4,50.4l4.5-3.7
	c1.7-1.4,2.4-2.1,2.4-3.3s-0.8-1.8-1.8-1.8c-1.1,0-1.8,0.6-2.8,1.8l-2.1-1.7c1.3-1.8,2.7-2.8,5.1-2.8c2.9,0,4.7,1.7,4.7,4.2
	c0,2.3-1.2,3.4-3.6,5.3l-2.2,1.7h6v2.6H27.4V50.4z M68.5,63.9c-2.4,2.5-5.4,4.6-8.6,5.9c-3.1,1.3-6.5,2-9.8,2c-0.7,0-1.5,0-2.2-0.1
	c-4.2-0.4-8.2-1.8-11.7-4c-0.5-0.4-1.3,0-1.2,0.7c0,0,0,0,0,0c0,0.4-0.4,0.8-0.8,0.8l-1.8,0c-0.7,0-1.3-0.5-1.3-1.3l-0.1-6.1
	c0-0.7,0.5-1.2,1.2-1.3l6.1-0.6c0.7-0.1,1.3,0.5,1.4,1.1l0.1,1.3c0.1,0.7-0.4,1.3-1.1,1.4l-1.1,0.1c3.1,2.2,6.8,3.6,10.7,3.9
	c6.6,0.6,13-1.9,17.5-6.6c0.5-0.5,1.2-0.5,1.7-0.1l1,0.9C69,62.5,69,63.3,68.5,63.9z M72.6,41.4l-6.1,11.4h-3.4l6.1-11h-6.4v-2.6
	h9.8V41.4z M46,43.2l-3.6,4.2H46V43.2z M42.4,47.4H46v-4.2L42.4,47.4z M42.4,47.4H46v-4.2L42.4,47.4z"/>
</svg>
