<svg width="60" height="60" viewBox="0 0 60 60" fill="none" xmlns="http://www.w3.org/2000/svg">
<g id="ads 1">
<path id="Vector" d="M49.4644 42.0479C47.5324 37.9019 45.5644 33.7679 43.6144 29.6279C43.5364 29.4659 43.4584 29.3219 43.4824 29.1119C43.6444 27.7859 42.8524 27.0359 41.5264 27.2159C40.4704 27.3599 39.5584 27.8519 38.6944 28.4159C35.7004 30.3839 33.1264 32.8259 30.7684 35.5019C29.8144 36.5879 28.9264 37.7219 28.3024 39.0419C28.0324 39.6119 27.8284 40.1999 27.8584 40.8479C27.8944 41.7419 28.4344 42.3659 29.3104 42.3359C29.8324 42.3179 30.2284 42.4979 30.6484 42.7199C31.0084 42.9119 31.3684 43.0979 31.7284 43.2899C33.8164 44.3879 35.9044 45.4859 38.0644 46.6259C36.7264 47.9099 35.4484 49.1459 34.1644 50.3699C33.7744 50.7419 33.4984 51.1559 33.4204 51.6959C33.2704 52.8119 34.0564 54.1199 35.2324 54.7019C36.1624 55.1639 37.1104 54.9599 38.0044 54.1019C39.5944 52.5779 41.1844 51.0599 42.7684 49.5239C43.0024 49.2959 43.2064 49.2299 43.5424 49.3019C45.6544 49.7879 47.3884 49.0739 48.7204 47.4479C50.0404 45.8279 50.3704 43.9919 49.4644 42.0479ZM29.6524 40.4819C30.0244 39.3059 30.7324 38.3999 31.4464 37.5119C33.8524 34.5239 36.6004 31.9019 39.8464 29.8319C40.2484 29.5739 40.6864 29.3699 41.1184 29.1659C41.2624 29.0999 41.4124 29.0039 41.5924 29.0459C41.0464 31.9079 32.7964 39.8279 29.6524 40.4819Z" fill="white"/>
<path id="Vector_2" d="M18.4676 15.2817C13.7396 15.2337 10.0376 18.9897 10.0196 23.8137C10.0076 28.3797 13.8476 32.1777 18.4796 32.1897C23.1176 32.2017 27.0176 28.4337 26.9636 23.8497C26.9096 18.7497 23.3276 15.3357 18.4676 15.2817ZM22.2116 20.1117C21.9656 20.5197 21.5156 20.6277 20.9996 20.4117C19.7276 19.8657 18.7256 20.5137 18.7016 21.8937C18.6896 22.3017 18.6956 22.7037 18.6956 23.1837C19.2176 23.1837 19.7156 23.1777 20.2076 23.1897C20.8676 23.2017 21.2516 23.5317 21.2456 24.0837C21.2456 24.6297 20.8736 24.9537 20.2016 24.9597C19.7276 24.9717 19.2476 24.9597 18.6956 24.9597V26.8197C18.6956 27.1497 18.7016 27.4857 18.6956 27.8157C18.6956 28.6137 18.3836 29.0337 17.8076 29.0337C17.2316 29.0277 16.9196 28.6077 16.9196 27.8097C16.9136 26.8857 16.9196 25.9617 16.9196 24.9597C16.4456 24.9597 16.0376 24.9657 15.6356 24.9597C15.0596 24.9417 14.6816 24.5997 14.6636 24.1077C14.6516 23.6037 15.0476 23.2137 15.6416 23.1897C16.0436 23.1717 16.4456 23.1837 16.9196 23.1837C16.9196 22.6737 16.9016 22.1997 16.9196 21.7257C17.0036 19.3737 19.1396 17.8557 21.3176 18.5997C21.5096 18.6657 21.7016 18.7557 21.8636 18.8697C22.3436 19.1877 22.4756 19.6737 22.2116 20.1117Z" fill="white"/>
<path id="Vector_3" d="M18.5333 35.8379C13.9133 35.8259 10.0013 39.5819 10.0433 44.1839C10.0973 49.8299 14.2553 52.7339 18.4193 52.7459C22.8413 52.7879 26.8613 49.7339 26.9633 44.2439C27.0533 39.6779 23.1473 35.8559 18.5333 35.8379ZM23.3273 43.5179C23.1173 43.9979 22.5773 44.2319 22.0793 44.0099C21.4673 43.7399 20.9573 43.3079 20.4413 42.8819C20.3873 42.8399 20.3333 42.7979 20.2013 42.6959C20.2013 43.8359 20.1773 44.8799 20.2013 45.9239C20.2613 47.8139 18.8153 49.3319 16.3313 48.7619C15.2513 48.5159 14.5613 47.4299 14.6573 46.3199C14.7473 45.2459 15.5933 44.3519 16.6733 44.2019C17.1893 44.1299 17.6633 44.4479 17.7533 44.9279C17.8553 45.4439 17.5613 45.8579 16.9973 45.9419C16.6073 45.9959 16.4213 46.1819 16.4333 46.5539C16.4513 46.9799 16.7213 47.0879 17.1113 47.0879C18.1253 47.0939 18.4193 46.8299 18.4193 45.8339C18.4193 44.1839 18.4253 42.5399 18.4133 40.8899C18.4133 40.4459 18.5093 40.0739 18.9413 39.8819C19.3913 39.6839 19.7513 39.8639 20.0873 40.1819C20.7473 40.8299 21.4553 41.4239 22.1933 41.9819C22.3853 42.1319 22.5833 42.2519 22.8053 42.3479C23.3273 42.5579 23.5253 43.0439 23.3213 43.5179H23.3273Z" fill="white"/>
<path id="Vector_4" d="M37.0976 5.1416C32.2196 5.1476 28.5116 8.8856 28.5176 13.7876C28.5296 18.4676 32.4056 22.3016 37.1216 22.2896C41.8436 22.2836 45.7076 18.4496 45.7016 13.7696C45.6956 8.8556 41.9936 5.1416 37.0976 5.1416ZM41.8796 16.1996C41.8616 17.4656 40.8956 18.4556 39.6296 18.4676C37.9496 18.4916 36.2636 18.4916 34.5836 18.4676C33.3416 18.4556 32.3576 17.4836 32.3396 16.2416C32.3096 14.5436 32.3096 12.8396 32.3396 11.1356C32.3636 9.8996 33.3476 8.9396 34.5896 8.9276C36.2756 8.9036 37.9556 8.9036 39.6416 8.9276C40.9016 8.9396 41.8616 9.9296 41.8856 11.2016C41.8976 12.0356 41.8856 12.8696 41.8856 13.7036C41.8856 14.5376 41.8976 15.3656 41.8856 16.1996H41.8796Z" fill="white"/>
<path id="Vector_5" d="M35.7848 25.4463C35.7848 25.9983 35.7848 26.5563 35.7848 27.1083C35.7788 27.6603 35.4608 28.0143 34.9748 28.0443C34.4588 28.0803 34.0508 27.7443 34.0208 27.1863C33.9548 26.0403 33.9128 24.8943 33.8948 23.7483C33.8828 23.2023 34.2968 22.8183 34.7948 22.8243C35.2748 22.8303 35.6408 23.1903 35.6588 23.7243C35.6828 24.2943 35.6588 24.8703 35.6588 25.4403C35.7008 25.4403 35.7428 25.4403 35.7848 25.4403V25.4463Z" fill="white"/>
<path id="Vector_6" d="M28.0312 34.5723C26.8672 34.4703 25.7632 34.3863 24.6592 34.2723C24.1072 34.2183 23.7532 33.7983 23.8012 33.3123C23.8552 32.8203 24.2752 32.4663 24.8212 32.5083C25.9252 32.5923 27.0292 32.6883 28.1332 32.7963C28.6912 32.8503 29.0332 33.2583 28.9852 33.7563C28.9372 34.2483 28.5112 34.5843 28.0312 34.5663V34.5723Z" fill="white"/>
<path id="Vector_7" d="M28.9566 26.8015C29.1726 26.7895 29.3826 26.9215 29.5686 27.1135C30.2226 27.7975 30.8826 28.4695 31.5246 29.1655C31.9086 29.5795 31.9026 30.1075 31.5426 30.4555C31.1766 30.8095 30.6606 30.8035 30.2586 30.4015C29.5806 29.7175 28.9146 29.0215 28.2606 28.3195C27.9846 28.0255 27.8946 27.6835 28.0866 27.2995C28.2486 26.9695 28.5186 26.8075 28.9566 26.8075V26.8015Z" fill="white"/>
<path id="Vector_8" d="M40.1095 11.3644C40.1155 10.8904 39.9055 10.6924 39.4375 10.6984C37.8835 10.7044 36.3295 10.7044 34.7755 10.6984C34.3015 10.6924 34.1035 10.9144 34.1035 11.3704C34.1095 12.9244 34.1095 14.4784 34.1035 16.0324C34.1035 16.5004 34.3195 16.7044 34.7815 16.7044C36.3355 16.6924 37.8895 16.6924 39.4435 16.6984C39.9115 16.7044 40.1155 16.4944 40.1095 16.0264C40.0975 15.2464 40.1095 14.4724 40.1095 13.6924C40.1095 12.9124 40.0975 12.1384 40.1095 11.3644ZM37.1095 16.1404C35.7955 16.1404 34.6915 15.0124 34.6975 13.6864C34.7095 12.3724 35.7895 11.2744 37.0855 11.2624C38.3995 11.2444 39.5215 12.3544 39.5275 13.6864C39.5395 15.0124 38.4235 16.1404 37.1095 16.1404Z" fill="white"/>
<path id="Vector_9" d="M37.7709 13.7097C37.7109 14.0997 37.5009 14.3697 37.0869 14.3517C36.7029 14.3337 36.4689 14.0697 36.4809 13.6977C36.4869 13.3017 36.7329 13.0317 37.1469 13.0497C37.5309 13.0677 37.7229 13.3317 37.7709 13.7097Z" fill="white"/>
</g>
</svg>
