<?xml version="1.0" encoding="UTF-8"?>
<svg id="Layer_1" xmlns="http://www.w3.org/2000/svg" viewBox="0 0 100 100">
  <defs>
    <style>
      .cls-1 {
        fill: #fff;
      }
    </style>
  </defs>
  <path class="cls-1" d="M82.44,70.08c-3.22-6.91-6.5-13.8-9.75-20.7-.13-.27-.26-.51-.22-.86.27-2.21-1.05-3.46-3.26-3.16-1.76.24-3.28,1.06-4.72,2-4.99,3.28-9.28,7.35-13.21,11.81-1.59,1.81-3.07,3.7-4.11,5.9-.45.95-.79,1.93-.74,3.01.06,1.49.96,2.53,2.42,2.48.87-.03,1.53.27,2.23.64.6.32,1.2.63,1.8.95,3.48,1.83,6.96,3.66,10.56,5.56-2.23,2.14-4.36,4.2-6.5,6.24-.65.62-1.11,1.31-1.24,2.21-.25,1.86,1.06,4.04,3.02,5.01,1.55.77,3.13.43,4.62-1,2.65-2.54,5.3-5.07,7.94-7.63.39-.38.73-.49,1.29-.37,3.52.81,6.41-.38,8.63-3.09,2.2-2.7,2.75-5.76,1.24-9ZM49.42,67.47c.62-1.96,1.8-3.47,2.99-4.95,4.01-4.98,8.59-9.35,14-12.8.67-.43,1.4-.77,2.12-1.11.24-.11.49-.27.79-.2-.91,4.77-14.66,17.97-19.9,19.06Z"/>
  <path class="cls-1" d="M30.78,25.47c-7.88-.08-14.05,6.18-14.08,14.22-.02,7.61,6.38,13.94,14.1,13.96,7.73.02,14.23-6.26,14.14-13.9-.09-8.5-6.06-14.19-14.16-14.28ZM37.02,33.52c-.41.68-1.16.86-2.02.5-2.12-.91-3.79.17-3.83,2.47-.02.68-.01,1.35-.01,2.15.87,0,1.7-.01,2.52.01,1.1.02,1.74.57,1.73,1.49,0,.91-.62,1.45-1.74,1.46-.79.02-1.59,0-2.51,0v3.1c0,.55.01,1.11,0,1.66,0,1.33-.52,2.03-1.48,2.03-.96-.01-1.48-.71-1.48-2.04-.01-1.54,0-3.08,0-4.75-.79,0-1.47.01-2.14,0-.96-.03-1.59-.6-1.62-1.42-.02-.84.64-1.49,1.63-1.53.67-.03,1.34-.01,2.13-.01,0-.85-.03-1.64,0-2.43.14-3.92,3.7-6.45,7.33-5.21.32.11.64.26.91.45.8.53,1.02,1.34.58,2.07Z"/>
  <path class="cls-1" d="M30.89,59.73c-7.7-.02-14.22,6.24-14.15,13.91.09,9.41,7.02,14.25,13.96,14.27,7.37.07,14.07-5.02,14.24-14.17.15-7.61-6.36-13.98-14.05-14.01ZM38.88,72.53c-.35.8-1.25,1.19-2.08.82-1.02-.45-1.87-1.17-2.73-1.88-.09-.07-.18-.14-.4-.31,0,1.9-.04,3.64,0,5.38.1,3.15-2.31,5.68-6.45,4.73-1.8-.41-2.95-2.22-2.79-4.07.15-1.79,1.56-3.28,3.36-3.53.86-.12,1.65.41,1.8,1.21.17.86-.32,1.55-1.26,1.69-.65.09-.96.4-.94,1.02.03.71.48.89,1.13.89,1.69.01,2.18-.43,2.18-2.09,0-2.75.01-5.49-.01-8.24,0-.74.16-1.36.88-1.68.75-.33,1.35-.03,1.91.5,1.1,1.08,2.28,2.07,3.51,3,.32.25.65.45,1.02.61.87.35,1.2,1.16.86,1.95Z"/>
  <path class="cls-1" d="M61.83,8.57c-8.13.01-14.31,6.24-14.3,14.41.02,7.8,6.48,14.19,14.34,14.17,7.87-.01,14.31-6.4,14.3-14.2-.01-8.19-6.18-14.38-14.34-14.38ZM69.8,27c-.03,2.11-1.64,3.76-3.75,3.78-2.8.04-5.61.04-8.41,0-2.07-.02-3.71-1.64-3.74-3.71-.05-2.83-.05-5.67,0-8.51.04-2.06,1.68-3.66,3.75-3.68,2.81-.04,5.61-.04,8.42,0,2.1.02,3.7,1.67,3.74,3.79.02,1.39,0,2.78,0,4.17s.02,2.77,0,4.16Z"/>
  <path class="cls-1" d="M59.64,42.41c0,.92,0,1.85,0,2.77-.01.92-.54,1.51-1.35,1.56-.86.06-1.54-.5-1.59-1.43-.11-1.91-.18-3.82-.21-5.73-.02-.91.67-1.55,1.5-1.54.8.01,1.41.61,1.44,1.5.04.95,0,1.91,0,2.86.07,0,.14,0,.21,0Z"/>
  <path class="cls-1" d="M46.72,57.62c-1.94-.17-3.78-.31-5.62-.5-.92-.09-1.51-.79-1.43-1.6.09-.82.79-1.41,1.7-1.34,1.84.14,3.68.3,5.52.48.93.09,1.5.77,1.42,1.6-.08.82-.79,1.38-1.59,1.35Z"/>
  <path class="cls-1" d="M48.26,44.67c.36-.02.71.2,1.02.52,1.09,1.14,2.19,2.26,3.26,3.42.64.69.63,1.57.03,2.15-.61.59-1.47.58-2.14-.09-1.13-1.14-2.24-2.3-3.33-3.47-.46-.49-.61-1.06-.29-1.7.27-.55.72-.82,1.45-.82Z"/>
  <path class="cls-1" d="M66.85,18.94c.01-.79-.34-1.12-1.12-1.11-2.59.01-5.18.01-7.77,0-.79-.01-1.12.36-1.12,1.12.01,2.59.01,5.18,0,7.77,0,.78.36,1.12,1.13,1.12,2.59-.02,5.18-.02,7.77-.01.78.01,1.12-.34,1.11-1.12-.02-1.3,0-2.59,0-3.89s-.02-2.59,0-3.88ZM61.85,26.9c-2.19,0-4.03-1.88-4.02-4.09.02-2.19,1.82-4.02,3.98-4.04,2.19-.03,4.06,1.82,4.07,4.04.02,2.21-1.84,4.09-4.03,4.09Z"/>
  <path class="cls-1" d="M62.95,22.85c-.1.65-.45,1.1-1.14,1.07-.64-.03-1.03-.47-1.01-1.09.01-.66.42-1.11,1.11-1.08.64.03.96.47,1.04,1.1Z"/>
</svg>