<svg width="60" height="60" viewBox="0 0 60 60" fill="none" xmlns="http://www.w3.org/2000/svg">
<g id="Analytics &#38; Reporting 1">
<path id="Vector" d="M12.2519 18.8525H19.9379C20.3513 18.8811 20.766 18.8205 21.154 18.6749C21.5419 18.5292 21.8941 18.3019 22.1865 18.0083C22.479 17.7147 22.7049 17.3617 22.849 16.9732C22.9932 16.5847 23.0521 16.1697 23.0219 15.7565C23.0219 13.3925 23.0219 11.0285 23.0219 8.66445V8.06445H43.1279C44.3279 8.06445 44.8679 8.58645 44.8679 9.82245V46.4225C44.8679 47.6705 44.3459 48.1865 43.0679 48.1865H14.0339C12.7439 48.1865 12.2339 47.6885 12.2339 46.3865V18.8525H12.2519ZM38.3459 44.0525V43.4525C38.3459 40.7445 38.3459 38.0425 38.3459 35.3465C38.3459 34.6025 38.1179 34.3745 37.3739 34.3685H34.4939C33.5099 34.3685 33.3419 34.5305 33.3419 35.5025V44.0225H31.2479V43.4645C31.2479 41.7725 31.2479 40.0745 31.2479 38.3825C31.2479 37.7045 30.9899 37.4525 30.3239 37.4525H27.2519C26.4539 37.4525 26.2379 37.6625 26.2379 38.4785C26.2379 40.1405 26.2379 41.8025 26.2379 43.4645C26.2379 43.6445 26.2379 43.8305 26.2379 44.0225H24.1199V43.4765C24.1199 42.5825 24.1199 41.6765 24.1199 40.7885C24.1199 40.1885 23.8739 39.9065 23.2559 39.9005C22.1699 39.9005 21.0779 39.9005 19.9919 39.9005C19.3919 39.9005 19.1279 40.1765 19.1219 40.7945C19.1219 41.7065 19.1219 42.5945 19.1219 43.5245C19.1219 43.6925 19.1219 43.8605 19.0919 44.0585C18.5639 44.0585 18.0839 44.0585 17.6039 44.0585C17.5022 44.0475 17.3993 44.0581 17.3021 44.0896C17.2048 44.1211 17.1152 44.1729 17.0393 44.2414C16.9634 44.31 16.9028 44.3938 16.8616 44.4874C16.8203 44.5809 16.7993 44.6822 16.7999 44.7845C16.8092 44.9781 16.8931 45.1606 17.0341 45.2937C17.175 45.4269 17.362 45.5002 17.5559 45.4985C17.6999 45.4985 17.8439 45.4985 17.9879 45.4985H39.1079C39.2339 45.4985 39.3599 45.4985 39.4859 45.4985C39.5861 45.505 39.6865 45.4911 39.7812 45.4578C39.8759 45.4244 39.9628 45.3723 40.0368 45.3045C40.1108 45.2366 40.1703 45.1545 40.2117 45.0631C40.2532 44.9717 40.2757 44.8728 40.2779 44.7725C40.2782 44.6724 40.2578 44.5734 40.2179 44.4816C40.1781 44.3898 40.1198 44.3072 40.0465 44.239C39.9733 44.1708 39.8867 44.1185 39.7923 44.0854C39.6979 44.0523 39.5977 44.039 39.4979 44.0465C39.1379 44.0345 38.7719 44.0465 38.3459 44.0465V44.0525ZM22.5659 21.2105C20.5139 21.6545 19.1279 22.7765 18.5279 24.7145C18.248 25.5715 18.212 26.4894 18.4239 27.3657C18.6358 28.242 19.0873 29.0421 19.7279 29.6765C19.7939 29.6285 19.8419 29.6105 19.8659 29.5745L22.4579 26.1245C22.5257 26.0397 22.5693 25.938 22.5839 25.8305C22.5659 24.3125 22.5659 22.8005 22.5659 21.2105ZM33.3659 18.1265H40.2359C40.3957 18.1385 40.5561 18.1385 40.7159 18.1265C40.806 18.1219 40.8944 18.0994 40.9757 18.0602C41.057 18.0211 41.1297 17.9661 41.1895 17.8985C41.2493 17.8308 41.295 17.7519 41.3239 17.6664C41.3529 17.5809 41.3644 17.4905 41.3579 17.4005C41.37 17.2249 41.3147 17.0514 41.2032 16.9154C41.0917 16.7793 40.9324 16.691 40.7579 16.6685C40.5982 16.6534 40.4375 16.6534 40.2779 16.6685H26.5979C26.3819 16.6685 26.0939 16.6385 25.9559 16.7585C25.7306 16.9313 25.582 17.1854 25.5419 17.4665C25.5419 17.6825 25.8059 17.9285 26.0159 18.0665C26.2259 18.2045 26.3879 18.1205 26.5739 18.1265H33.3659ZM33.4799 12.0005H26.6279C26.468 11.9914 26.3078 11.9914 26.1479 12.0005C26.0594 12.0035 25.9723 12.0242 25.8919 12.0613C25.8114 12.0984 25.7392 12.1512 25.6794 12.2166C25.6196 12.282 25.5735 12.3586 25.5437 12.442C25.5139 12.5255 25.501 12.614 25.5059 12.7025C25.4907 12.8786 25.5449 13.0537 25.657 13.1905C25.7691 13.3272 25.9302 13.4148 26.1059 13.4345C26.2475 13.4495 26.3903 13.4495 26.5319 13.4345H40.3079C40.4515 13.4495 40.5963 13.4495 40.7399 13.4345C40.915 13.4133 41.0751 13.3254 41.1869 13.189C41.2987 13.0526 41.3535 12.8783 41.3399 12.7025C41.3497 12.5267 41.2896 12.3543 41.1727 12.2227C41.0558 12.0912 40.8915 12.0113 40.7159 12.0005C40.556 11.9914 40.3958 11.9914 40.2359 12.0005H33.4799ZM27.4379 29.0405C27.9126 28.3382 28.2025 27.5276 28.2808 26.6837C28.3591 25.8397 28.2233 24.9896 27.886 24.212C27.5486 23.4344 27.0206 22.7545 26.3508 22.2351C25.681 21.7156 24.891 21.3736 24.0539 21.2405C24.0539 22.7885 24.0539 24.2705 24.0539 25.7525C24.0693 25.8611 24.1224 25.961 24.2039 26.0345C25.2659 27.0005 26.3279 28.0025 27.4379 29.0405ZM23.3999 27.3005C23.2799 27.4385 23.1959 27.5285 23.1239 27.6245L20.9399 30.6005C21.7908 31.0865 22.77 31.3004 23.7461 31.2135C24.7221 31.1266 25.6482 30.7431 26.3999 30.1145L23.3999 27.3005Z" fill="white"/>
<path id="Vector_2" d="M16.5302 49.6499H42.9962C43.362 49.6634 43.7281 49.6373 44.0882 49.5719C44.7268 49.4315 45.2976 49.0759 45.7051 48.5646C46.1125 48.0534 46.3318 47.4176 46.3262 46.7639C46.3262 45.0539 46.3262 43.3439 46.3262 41.6339V13.1639C46.6549 13.0535 47.0056 13.0248 47.3478 13.0802C47.6901 13.1357 48.0137 13.2736 48.2908 13.4821C48.5678 13.6906 48.7899 13.9635 48.9379 14.277C49.0859 14.5906 49.1554 14.9355 49.1402 15.2819C49.1402 27.3179 49.1402 39.3519 49.1402 51.3839C49.1619 51.6773 49.1199 51.9719 49.017 52.2475C48.9142 52.5231 48.7529 52.7733 48.5443 52.9807C48.3357 53.1882 48.0847 53.3481 47.8085 53.4494C47.5324 53.5508 47.2375 53.5912 46.9442 53.5679H18.7142C18.425 53.5851 18.1354 53.5411 17.8642 53.439C17.5931 53.3369 17.3465 53.1788 17.1404 52.975C16.9344 52.7713 16.7736 52.5264 16.6685 52.2564C16.5634 51.9864 16.5162 51.6973 16.5302 51.4079C16.5182 50.8499 16.5302 50.2919 16.5302 49.6499Z" fill="white"/>
<path id="Vector_3" d="M12.4199 17.4003L21.5639 8.23828V15.6603C21.5639 16.8603 21.0179 17.3943 19.8419 17.3943H12.4199V17.4003Z" fill="white"/>
</g>
</svg>
