<?xml version="1.0" encoding="UTF-8"?>
<svg id="Layer_1" xmlns="http://www.w3.org/2000/svg" viewBox="0 0 100 100">
  <defs>
    <style>
      .cls-1 {
        fill: #fff;
      }
    </style>
  </defs>
  <path class="cls-1" d="M27.35,87.05c-2.7-4.78-5.38-9.51-8.06-14.24.1-.12.15-.21.23-.26,4.55-2.62,9.09-5.27,13.68-7.83,2.66-1.48,5.4-1.69,8.34-.58,4.66,1.76,9.35,3.47,14.25,4.51.22.05.45.09.68.13,2.11.41,3.39,2.07,3,3.9-.38,1.81-2.13,2.76-4.25,2.3-3.24-.7-6.41-1.7-9.61-2.56-.19-.05-.38-.1-.57-.15-.92-.2-1.63.17-1.87.97-.23.77.2,1.55,1.09,1.81,2.05.6,4.1,1.17,6.16,1.73,2.32.62,4.64,1.19,7.02,1.52,2.95.41,5.68-.1,8.25-1.6,5.67-3.31,11.34-6.62,17.04-9.89,1.74-1,3.6-1.78,5.66-1.81,1.93-.02,3.1.8,3.57,2.46.48,1.71-.13,3.26-1.69,4.22-9.59,5.91-19.19,11.8-28.77,17.74-2.85,1.77-5.78,2.05-8.97,1.17-6.77-1.87-13.57-3.64-20.34-5.48-.73-.2-1.33-.13-1.96.25-.92.57-1.87,1.09-2.87,1.67Z"/>
  <path class="cls-1" d="M71.2,35.54h-4.74v-13.87c.68-.19,1.4-.06,2.11-.09,2.74-.12,4.96-2.34,4.9-4.93-.06-2.58-2.28-4.72-4.96-4.77-2.83-.05-5.13,1.97-5.26,4.65-.03.59,0,1.18,0,1.83h-2c-.04-.75-.02-1.5-.13-2.24-.39-2.7-2.77-4.47-5.62-4.23-2.61.22-4.62,2.48-4.52,5.07.09,2.52,2.28,4.54,4.99,4.61.65.02,1.3,0,1.93,0,.15.9.17,12.81.03,13.93h-4.75c-.19-1.81-.38-3.63-.88-5.4-.61-2.17-1.56-4.2-2.86-6.02-5.7-7.97-.85-19.22,9.6-21.27,6.77-1.33,13.37,1.54,16.52,7.16,2.35,4.18,2.57,8.51.2,12.79-3.38,6.09-3.41,6.08-4.56,12.77Z"/>
  <path class="cls-1" d="M52.58,43.66c.4,1.33,1.05,2.38,2.11,3.13.3.21.26.5.31.78.53,3.06,2.71,4.93,5.81,4.95,1.28,0,2.57.11,3.84-.09,2.58-.4,4.38-2.23,4.73-4.83.04-.29.03-.58.32-.79,1.08-.77,1.74-1.84,2.14-3.15,1.1,0,2.18,0,3.27,0,.71,0,.98.39.98,1.07,0,3.55-.01,7.11,0,10.66,0,.87-.42,1.14-1.22,1.14-3.49-.02-6.98,0-10.47,0-4.87,0-9.74,0-14.61,0-1.31,0-1.48-.17-1.48-1.48,0-3.32,0-6.65,0-9.97,0-1.26.17-1.41,1.44-1.41.92,0,1.84,0,2.83,0Z"/>
  <path class="cls-1" d="M13.25,69.13c.73-.01.92.53,1.17.98,3.56,6.28,7.12,12.57,10.67,18.86.78,1.37,1.56,2.74,2.33,4.11.55.98.44,1.37-.52,1.92-1.28.74-2.57,1.46-3.86,2.18-.96.53-1.34.42-1.9-.57-4.37-7.71-8.74-15.43-13.1-23.15-.53-.94-.43-1.29.49-1.83,1.31-.75,2.62-1.5,3.94-2.24.25-.14.5-.33.76-.28ZM14.43,74.08c0-1-.84-1.89-1.84-1.92-1.06-.04-1.94.82-1.95,1.9,0,1.05.78,1.88,1.82,1.91,1.06.03,1.96-.83,1.97-1.88Z"/>
  <path class="cls-1" d="M76.96,59.52c1.74-1.09,2.37-2.6,2.33-4.55-.06-2.73-.02-5.46-.02-8.15.3-.27.61-.17.89-.17,3.65,0,7.31,0,10.96,0,.37,0,.83-.18,1.07.28.24.47-.13.81-.36,1.15-.91,1.33-1.78,2.69-2.78,3.95-.63.8-.56,1.39.02,2.16.99,1.31,1.89,2.69,2.83,4.03.21.3.47.59.31.98-.19.44-.61.3-.96.3-4.77,0-9.53,0-14.3,0Z"/>
  <path class="cls-1" d="M45.14,46.7c0,2.74,0,5.43,0,8.12,0,2.41.43,3.25,2.54,4.71-.44,0-.72,0-.99,0-4.44,0-8.88,0-13.33,0-.37,0-.84.2-1.09-.23-.28-.5.13-.86.38-1.23.97-1.41,1.93-2.82,2.94-4.2.39-.54.39-.96,0-1.5-1.04-1.44-2.04-2.91-3.05-4.36-.23-.33-.49-.66-.28-1.08.21-.42.64-.26.98-.26,3.68,0,7.37,0,11.06,0,.26,0,.51.03.84.04Z"/>
  <path class="cls-1" d="M71.04,38.78c-.53.95-1.28,1.28-2.23,1.41-.09,1.91.56,4.25-2.54,4.58,0,.72.02,1.41,0,2.09-.04,1.44-.86,2.36-2.29,2.46-1.14.08-2.3.08-3.45,0-1.5-.09-2.35-1.05-2.38-2.59-.01-.62,0-1.24,0-1.94-2.93-.32-2.51-2.52-2.5-4.53-.88-.24-1.75-.49-2.23-1.48h17.63Z"/>
  <path class="cls-1" d="M61.28,21.61h1.9v13.91h-1.9v-13.91Z"/>
  <path class="cls-1" d="M58,18.41c-.73,0-1.38.03-2.03,0-1.01-.05-1.77-.73-1.82-1.58-.05-.82.62-1.59,1.53-1.76,1.02-.18,2.01.36,2.25,1.27.17.64.09,1.29.06,2.07Z"/>
  <path class="cls-1" d="M66.41,18.39c0-.52-.01-.98,0-1.43.04-1.26.94-2.05,2.19-1.92.92.1,1.66.81,1.69,1.63.03.81-.66,1.61-1.6,1.7-.71.07-1.44.01-2.29.01Z"/>
</svg>