<svg width="60" height="60" viewBox="0 0 60 60" fill="none" xmlns="http://www.w3.org/2000/svg">
<g id="community 1">
<path id="Vector" d="M8.28516 42.5699C9.79716 40.8059 11.3512 39.1259 13.2052 37.7399C15.4732 36.0359 17.9092 35.6039 20.5732 36.6719C22.0132 37.2479 23.4532 37.8419 24.9052 38.3759C27.3592 39.2819 29.9032 39.6959 32.5192 39.7259C32.8492 39.7259 33.1912 39.7739 33.4972 39.8819C34.1572 40.1159 34.5532 40.7459 34.5352 41.4359C34.5172 42.1499 34.1452 42.6719 33.4852 42.8459C32.7052 43.0439 31.8892 43.1939 31.0852 43.2119C29.0392 43.2539 27.0232 43.0079 25.1092 42.2159C24.6172 42.0119 24.1492 42.1679 23.9632 42.5639C23.7652 42.9839 23.9332 43.5359 24.4552 43.6919C25.7752 44.0879 27.1132 44.4719 28.4692 44.7179C31.9972 45.3599 35.2252 44.3399 38.2732 42.6839C40.7872 41.3099 43.2232 39.7919 45.7012 38.3519C46.1092 38.1119 46.5652 37.9139 47.0212 37.7999C47.7172 37.6259 48.3652 37.7999 48.8032 38.3999C49.2412 38.9999 49.1572 39.6599 48.7552 40.2179C48.4012 40.7039 47.9752 41.1779 47.4832 41.5079C45.3952 42.9059 43.2892 44.2859 41.1472 45.5999C39.8272 46.4099 38.4292 47.0999 37.0552 47.8199C34.3732 49.2239 31.5052 49.6499 28.5052 49.4639C25.7152 49.2899 22.9252 49.1519 20.1352 49.0799C18.7432 49.0439 17.3872 49.3799 16.0852 49.9139C15.9292 49.9799 15.6292 49.9619 15.5212 49.8539C13.1272 47.4839 10.7452 45.0959 8.36916 42.7139C8.34516 42.6899 8.33916 42.6479 8.30316 42.5759L8.28516 42.5699Z" fill="white"/>
<path id="Vector_2" d="M27.403 35.982C26.731 35.31 26.119 34.692 25.483 34.056C25.543 33.954 25.591 33.804 25.693 33.708C26.641 32.85 26.131 31.98 25.693 31.134C25.609 30.972 25.303 30.894 25.087 30.846C24.001 30.618 23.995 30.624 23.995 29.508C23.995 29.472 23.995 29.436 23.995 29.394C24.001 28.932 23.845 28.35 24.067 28.044C24.277 27.756 24.895 27.786 25.321 27.636C25.489 27.576 25.621 27.42 25.753 27.288C25.813 27.228 25.813 27.114 25.867 27.036C26.365 26.25 26.389 25.506 25.675 24.816C25.453 24.606 25.453 24.408 25.705 24.168C26.251 23.646 26.767 23.088 27.319 22.524C27.691 22.77 28.033 22.956 28.333 23.196C28.633 23.442 28.921 23.466 29.239 23.268C29.287 23.238 29.335 23.208 29.389 23.202C30.277 23.034 30.709 22.494 30.715 21.6C30.715 21.234 30.883 21.084 31.267 21.102C31.861 21.132 32.455 21.126 33.043 21.102C33.397 21.09 33.613 21.18 33.619 21.576C33.625 22.458 34.051 22.95 34.915 23.22C35.431 23.382 35.803 23.418 36.211 23.058C36.427 22.866 36.697 22.728 36.901 22.596C37.555 23.25 38.173 23.874 38.827 24.528C38.785 24.594 38.737 24.75 38.635 24.84C37.681 25.698 38.197 26.574 38.635 27.408C38.731 27.588 39.097 27.654 39.349 27.708C40.321 27.906 40.321 27.894 40.321 28.878C40.321 29.304 40.303 29.73 40.321 30.156C40.345 30.522 40.219 30.726 39.841 30.726C38.911 30.726 38.443 31.218 38.185 32.082C38.053 32.526 37.969 32.862 38.305 33.24C38.527 33.486 38.677 33.786 38.833 34.014C38.173 34.674 37.555 35.304 36.907 35.952C36.817 35.898 36.661 35.85 36.571 35.748C35.707 34.764 34.837 35.352 34.003 35.76C33.829 35.844 33.757 36.222 33.709 36.48C33.511 37.452 33.523 37.452 32.545 37.452C32.119 37.452 31.693 37.434 31.267 37.458C30.901 37.482 30.703 37.368 30.697 36.984C30.679 36.114 30.289 35.598 29.407 35.334C28.891 35.178 28.513 35.136 28.105 35.496C27.883 35.688 27.619 35.826 27.385 35.988L27.403 35.982ZM32.155 33.468C34.429 33.474 36.319 31.602 36.355 29.31C36.391 27.024 34.477 25.092 32.173 25.086C29.899 25.08 28.003 26.946 27.973 29.238C27.943 31.524 29.851 33.456 32.155 33.468Z" fill="white"/>
<path id="Vector_3" d="M13.5849 27.7915C11.5629 27.1615 10.5129 25.7635 10.7589 24.1075C10.9989 22.4815 12.2889 21.2935 13.8789 21.2515C15.5349 21.2035 16.8849 22.2775 17.2149 23.9155C17.5629 25.6255 16.6149 26.9935 14.5329 27.7855C18.2109 28.4515 20.7369 30.9475 20.7909 34.0135H7.21289C7.32689 30.8515 10.0209 28.2055 13.5849 27.7975V27.7915Z" fill="white"/>
<path id="Vector_4" d="M50.749 27.7916C54.307 28.1936 56.995 30.8336 57.121 34.0076H43.543C43.615 31.6376 45.619 28.2296 49.807 27.8036C49.375 27.6056 48.919 27.4736 48.559 27.2156C48.187 26.9576 47.839 26.6156 47.599 26.2376C47.353 25.8416 47.173 25.3616 47.107 24.8996C47.047 24.4556 47.095 23.9696 47.221 23.5316C47.653 22.0196 49.111 21.1016 50.737 21.2636C52.213 21.4076 53.419 22.6556 53.593 24.2156C53.767 25.8356 52.735 27.1616 50.755 27.7916H50.749Z" fill="white"/>
<path id="Vector_5" d="M32.5928 11.1122C36.1928 11.5922 39.1808 14.5622 38.9108 17.3402H25.4348C25.0748 14.6462 28.1708 11.5562 31.8128 11.1062C30.7448 10.8722 29.9708 10.4282 29.4428 9.62419C28.9148 8.82019 28.7768 7.93819 29.0048 7.02019C29.4008 5.44819 30.8048 4.47019 32.4608 4.58419C33.9428 4.68619 35.2328 5.91619 35.3948 7.38619C35.5928 9.19219 34.6448 10.4882 32.5928 11.1122Z" fill="white"/>
<path id="Vector_6" d="M17.5625 16.4036C15.4805 15.5696 14.6045 14.1956 14.9525 12.4376C15.2465 10.9736 16.6385 9.84559 18.1565 9.85159C19.7165 9.85159 21.1085 11.0276 21.3725 12.5576C21.6665 14.2676 20.7305 15.6596 18.7265 16.3916C22.3025 16.9976 24.3725 19.0376 25.0085 22.5776C24.8465 22.6136 24.7625 22.6436 24.6725 22.6436C22.7285 22.6436 20.7845 22.6556 18.8405 22.6376C18.6665 22.6376 18.4265 22.4936 18.3365 22.3376C17.0045 20.0456 14.9405 19.2116 12.3905 19.9496C12.3425 19.9616 12.2885 19.9676 12.2285 19.9796C12.7265 18.3836 14.8205 16.9676 17.5685 16.3976L17.5625 16.4036Z" fill="white"/>
<path id="Vector_7" d="M52.1162 19.8356C51.2222 19.8116 50.2922 19.6676 49.4042 19.7936C47.8862 20.0156 46.7882 20.9336 46.0382 22.2716C45.9422 22.4396 45.7022 22.6376 45.5222 22.6436C43.5602 22.6676 41.5982 22.6556 39.6302 22.6556C39.5582 22.6556 39.4922 22.6316 39.4262 22.6196C39.2042 19.8776 42.0542 17.0036 45.5462 16.4036C44.6042 16.1096 43.8182 15.6116 43.3382 14.7416C42.8402 13.8476 42.7742 12.9116 43.1342 11.9576C43.6382 10.6316 44.9942 9.76157 46.3562 9.86357C47.8502 9.97757 49.1042 11.0636 49.3742 12.4676C49.7042 14.1776 48.9722 15.3236 46.7882 16.4336C49.1702 16.7516 50.9642 17.8916 52.1042 19.8416L52.1162 19.8356Z" fill="white"/>
<path id="Vector_8" d="M12.3969 55.5063C9.16286 52.2723 6.00086 49.1103 2.88086 45.9963C3.63686 45.1923 4.37486 44.3103 5.21486 43.5483C5.78486 43.0323 6.61886 43.2003 7.26086 43.8303C8.52686 45.0783 9.77486 46.3383 11.0349 47.5983C12.1329 48.6963 13.2369 49.7943 14.3349 50.8983C15.2349 51.8043 15.2229 52.6263 14.3229 53.5443C13.6749 54.2043 13.0269 54.8643 12.3969 55.5123V55.5063Z" fill="white"/>
</g>
</svg>
