<?xml version="1.0" encoding="UTF-8"?>
<svg id="Layer_1" xmlns="http://www.w3.org/2000/svg" viewBox="0 0 100 100">
  <defs>
    <style>
      .cls-1 {
        fill: #fff;
      }
    </style>
  </defs>
  <path class="cls-1" d="M13.81,70.95c2.52-2.94,5.11-5.74,8.2-8.05,3.78-2.84,7.84-3.56,12.28-1.78,2.4.96,4.8,1.95,7.22,2.84,4.09,1.51,8.33,2.2,12.69,2.25.55,0,1.12.08,1.63.26,1.1.39,1.76,1.44,1.73,2.59-.03,1.19-.65,2.06-1.75,2.35-1.3.33-2.66.58-4,.61-3.41.07-6.77-.34-9.96-1.66-.82-.34-1.6-.08-1.91.58-.33.7-.05,1.62.82,1.88,2.2.66,4.43,1.3,6.69,1.71,5.88,1.07,11.26-.63,16.34-3.39,4.19-2.29,8.25-4.82,12.38-7.22.68-.4,1.44-.73,2.2-.92,1.16-.29,2.24,0,2.97,1,.73,1,.59,2.1-.08,3.03-.59.81-1.3,1.6-2.12,2.15-3.48,2.33-6.99,4.63-10.56,6.82-2.2,1.35-4.53,2.5-6.82,3.7-4.47,2.34-9.25,3.05-14.25,2.74-4.65-.29-9.3-.52-13.95-.64-2.32-.06-4.58.5-6.75,1.39-.26.11-.76.08-.94-.1-3.99-3.95-7.96-7.93-11.92-11.9-.04-.04-.05-.11-.11-.23Z"/>
  <path class="cls-1" d="M45.67,59.97c-1.12-1.12-2.14-2.15-3.2-3.21.1-.17.18-.42.35-.58,1.58-1.43.73-2.88,0-4.29-.14-.27-.65-.4-1.01-.48-1.81-.38-1.82-.37-1.82-2.23,0-.06,0-.12,0-.19.01-.77-.25-1.74.12-2.25.35-.48,1.38-.43,2.09-.68.28-.1.5-.36.72-.58.1-.1.1-.29.19-.42.83-1.31.87-2.55-.32-3.7-.37-.35-.37-.68.05-1.08.91-.87,1.77-1.8,2.69-2.74.62.41,1.19.72,1.69,1.12.5.41.98.45,1.51.12.08-.05.16-.1.25-.11,1.48-.28,2.2-1.18,2.21-2.67,0-.61.28-.86.92-.83.99.05,1.98.04,2.96,0,.59-.02.95.13.96.79.01,1.47.72,2.29,2.16,2.74.86.27,1.48.33,2.16-.27.36-.32.81-.55,1.15-.77,1.09,1.09,2.12,2.13,3.21,3.22-.07.11-.15.37-.32.52-1.59,1.43-.73,2.89,0,4.28.16.3.77.41,1.19.5,1.62.33,1.62.31,1.62,1.95,0,.71-.03,1.42,0,2.13.04.61-.17.95-.8.95-1.55,0-2.33.82-2.76,2.26-.22.74-.36,1.3.2,1.93.37.41.62.91.88,1.29-1.1,1.1-2.13,2.15-3.21,3.23-.15-.09-.41-.17-.56-.34-1.44-1.64-2.89-.66-4.28.02-.29.14-.41.77-.49,1.2-.33,1.62-.31,1.62-1.94,1.62-.71,0-1.42-.03-2.13.01-.61.04-.94-.15-.95-.79-.03-1.45-.68-2.31-2.15-2.75-.86-.26-1.49-.33-2.17.27-.37.32-.81.55-1.2.82ZM53.59,55.78c3.79.01,6.94-3.11,7-6.93.06-3.81-3.13-7.03-6.97-7.04-3.79-.01-6.95,3.1-7,6.92-.05,3.81,3.13,7.03,6.97,7.05Z"/>
  <path class="cls-1" d="M22.64,46.32c-3.37-1.05-5.12-3.38-4.71-6.14.4-2.71,2.55-4.69,5.2-4.76,2.76-.08,5.01,1.71,5.56,4.44.58,2.85-1,5.13-4.47,6.45,6.13,1.11,10.34,5.27,10.43,10.38H12.02c.19-5.27,4.68-9.68,10.62-10.36Z"/>
  <path class="cls-1" d="M84.58,46.32c5.93.67,10.41,5.07,10.62,10.36h-22.63c.12-3.95,3.46-9.63,10.44-10.34-.72-.33-1.48-.55-2.08-.98-.62-.43-1.2-1-1.6-1.63-.41-.66-.71-1.46-.82-2.23-.1-.74-.02-1.55.19-2.28.72-2.52,3.15-4.05,5.86-3.78,2.46.24,4.47,2.32,4.76,4.92.29,2.7-1.43,4.91-4.73,5.96Z"/>
  <path class="cls-1" d="M54.32,18.52c6,.8,10.98,5.75,10.53,10.38h-22.46c-.6-4.49,4.56-9.64,10.63-10.39-1.78-.39-3.07-1.13-3.95-2.47-.88-1.34-1.11-2.81-.73-4.34.66-2.62,3-4.25,5.76-4.06,2.47.17,4.62,2.22,4.89,4.67.33,3.01-1.25,5.17-4.67,6.21Z"/>
  <path class="cls-1" d="M29.27,27.34c-3.47-1.39-4.93-3.68-4.35-6.61.49-2.44,2.81-4.32,5.34-4.31,2.6,0,4.92,1.96,5.36,4.51.49,2.85-1.07,5.17-4.41,6.39,5.96,1.01,9.41,4.41,10.47,10.31-.27.06-.41.11-.56.11-3.24,0-6.48.02-9.72-.01-.29,0-.69-.24-.84-.5-2.22-3.82-5.66-5.21-9.91-3.98-.08.02-.17.03-.27.05.83-2.66,4.32-5.02,8.9-5.97Z"/>
  <path class="cls-1" d="M86.86,33.06c-1.49-.04-3.04-.28-4.52-.07-2.53.37-4.36,1.9-5.61,4.13-.16.28-.56.61-.86.62-3.27.04-6.54.02-9.82.02-.12,0-.23-.04-.34-.06-.37-4.57,4.38-9.36,10.2-10.36-1.57-.49-2.88-1.32-3.68-2.77-.83-1.49-.94-3.05-.34-4.64.84-2.21,3.1-3.66,5.37-3.49,2.49.19,4.58,2,5.03,4.34.55,2.85-.67,4.76-4.31,6.61,3.97.53,6.96,2.43,8.86,5.68Z"/>
  <path class="cls-1" d="M20.66,92.51c-5.39-5.39-10.66-10.66-15.86-15.85,1.26-1.34,2.49-2.81,3.89-4.08.95-.86,2.34-.58,3.41.47,2.11,2.08,4.19,4.18,6.29,6.28,1.83,1.83,3.67,3.66,5.5,5.5,1.5,1.51,1.48,2.88-.02,4.41-1.08,1.1-2.16,2.2-3.21,3.28Z"/>
</svg>