<svg width="100" height="100" viewBox="0 0 100 100" fill="none" xmlns="http://www.w3.org/2000/svg">
<g id="Competitive 1">
<path id="Vector" d="M9.61035 53.24C11.7704 44.24 15.2704 35.77 17.9604 26.99C18.1427 26.0958 18.5937 25.2786 19.2532 24.6477C19.9126 24.0169 20.749 23.6025 21.6504 23.46C22.3408 23.3476 23.0483 23.4059 23.7112 23.6296C24.374 23.8533 24.9721 24.2357 25.4532 24.7435C25.9344 25.2513 26.2841 25.8691 26.4718 26.543C26.6596 27.2169 26.6797 27.9265 26.5304 28.61C25.6604 32.68 24.7604 36.75 23.8704 40.82C23.8704 40.97 23.8204 41.12 23.8004 41.24C24.5462 41.1899 25.2945 41.1899 26.0404 41.24C27.0766 41.3848 28.0358 41.8685 28.7684 42.6156C29.501 43.3626 29.9658 44.3311 30.0904 45.37C30.4104 47.79 30.6904 50.21 31.0204 52.62C31.0791 53.0034 31.2226 53.3689 31.4404 53.69C32.3104 54.94 33.1704 56.2 34.1304 57.38C36.4677 60.2884 37.8226 63.863 38.0004 67.59C38.1104 69.18 38.3804 70.76 38.5804 72.39L39.2504 72.56C39.7373 72.6443 40.1833 72.8853 40.5208 73.2463C40.8583 73.6073 41.0688 74.0685 41.1203 74.56C41.4904 77.34 41.8204 80.12 42.1203 82.91C42.2104 83.71 41.8004 84.15 40.9403 84.26L30.7904 85.52C27.1037 85.9666 23.4104 86.4233 19.7104 86.89C18.4904 87.05 18.0904 86.75 17.9404 85.52C17.6504 83.15 17.3404 80.78 17.0404 78.42C16.7904 76.42 17.0404 75.79 18.7904 74.89C18.6897 73.347 18.1635 71.8621 17.2704 70.6C15.8404 68.66 14.4504 66.68 13.0204 64.74C11.2319 62.3916 10.0999 59.6099 9.74035 56.68C9.70764 56.5304 9.66419 56.3833 9.61035 56.24V53.24ZM36.3604 72.72C36.1404 70.89 35.8703 69.13 35.7304 67.36C35.5315 64.1183 34.3096 61.0232 32.2404 58.52C31.2404 57.28 30.3104 55.96 29.4104 54.64C29.1117 54.1883 28.9171 53.676 28.8404 53.14C28.4904 50.65 28.2104 48.14 27.8904 45.65C27.8378 45.1756 27.6522 44.7258 27.355 44.3524C27.0577 43.9791 26.6609 43.6974 26.2104 43.54C25.7718 43.3558 25.2893 43.3021 24.821 43.3855C24.3527 43.4689 23.9184 43.6857 23.5704 44.01C23.1861 44.3523 22.9028 44.7932 22.7512 45.285C22.5996 45.7768 22.5855 46.3007 22.7104 46.8C23.2204 50.8 23.7104 54.8 24.2204 58.8C24.3304 59.69 23.9904 60.28 23.3204 60.36C22.6504 60.44 22.1404 60 22.0004 59.14C21.6404 56.33 21.2404 53.53 21.0004 50.71C20.7604 48.37 20.2604 46.09 20.9104 43.64C22.2304 38.64 23.1904 33.53 24.2904 28.46C24.3991 28.183 24.4486 27.8863 24.4357 27.5891C24.4228 27.2918 24.3477 27.0006 24.2154 26.7341C24.083 26.4676 23.8963 26.2318 23.6673 26.0419C23.4382 25.852 23.1719 25.7121 22.8855 25.6314C22.5992 25.5507 22.299 25.5309 22.0045 25.5732C21.71 25.6156 21.4277 25.7191 21.1756 25.8773C20.9236 26.0354 20.7075 26.2446 20.5412 26.4914C20.375 26.7381 20.2623 27.017 20.2104 27.31C17.6704 34.9366 15.1437 42.57 12.6304 50.21C11.8697 52.3593 11.6542 54.6639 12.0032 56.917C12.3523 59.1702 13.255 61.3015 14.6304 63.12C15.7704 64.73 16.8804 66.35 18.0904 67.9C19.6669 69.7368 20.6776 71.991 21.0004 74.39C21.0333 74.4815 21.0769 74.5687 21.1304 74.65L36.3604 72.72Z" fill="white"/>
<path id="Vector_2" d="M61.2899 72.3904C61.5899 70.0404 61.8899 67.7304 62.1699 65.3904C62.4675 62.8787 63.4192 60.489 64.9299 58.4604C65.9999 57.0004 66.9999 55.5704 68.0899 54.1604C68.5921 53.5414 68.9077 52.7922 68.9999 52.0004C69.2399 49.8604 69.5199 47.7304 69.7899 45.6004C69.8438 44.9174 70.0436 44.254 70.3758 43.6548C70.7079 43.0556 71.1648 42.5346 71.7155 42.1271C72.2662 41.7195 72.8979 41.4348 73.568 41.2922C74.2381 41.1496 74.931 41.1524 75.5999 41.3004L76.1399 41.3604L74.7199 35.0004C74.2599 32.9304 73.7999 30.8504 73.3699 28.7804C73.0729 27.6705 73.2289 26.488 73.8037 25.4931C74.3785 24.4983 75.325 23.7725 76.4349 23.4754C77.5448 23.1784 78.7273 23.3344 79.7222 23.9092C80.7171 24.484 81.4428 25.4305 81.7399 26.5404C83.6866 32.3804 85.6266 38.2237 87.5599 44.0704C88.3699 46.5304 89.3099 48.9704 89.8699 51.4904C90.3543 53.7022 90.3558 55.9925 89.8743 58.205C89.3928 60.4174 88.4397 62.4999 87.0799 64.3104C85.6899 66.3104 84.2999 68.2504 82.8299 70.1704C81.771 71.5345 81.1348 73.1788 80.9999 74.9004C82.8999 75.5304 82.9999 77.0104 82.7199 78.7104C82.3799 80.9904 82.1299 83.2804 81.8499 85.5704C81.7099 86.6904 81.2799 87.0304 80.1699 86.8904L61.4799 84.5604C60.5999 84.4504 59.7099 84.3604 58.8299 84.2304C58.6574 84.2285 58.4875 84.1882 58.3326 84.1123C58.1777 84.0365 58.0416 83.9271 57.9343 83.792C57.827 83.6569 57.7512 83.4996 57.7124 83.3315C57.6736 83.1635 57.6727 82.9889 57.7099 82.8204C58.0299 80.2504 58.3399 77.6704 58.7099 75.1004C58.9299 73.2904 59.4499 72.7704 61.2899 72.3904ZM63.4599 72.7404L78.7899 74.6404C78.7899 74.4104 78.8799 74.2604 78.8999 74.1104C79.1697 72.1528 79.9567 70.3025 81.1799 68.7504C82.6999 66.7504 84.1799 64.7504 85.5799 62.6204C86.6671 61.1119 87.418 59.3878 87.782 57.5644C88.146 55.741 88.1146 53.8607 87.6899 52.0504C87.0499 49.3304 86.0699 46.6904 85.1999 44.0504C83.3799 38.5304 81.5499 33.0137 79.7099 27.5004C79.2199 26.0304 78.2599 25.3904 77.0399 25.7004C75.8199 26.0104 75.2599 27.0904 75.5899 28.6404C76.1899 31.4004 76.7999 34.1604 77.3999 36.9304C77.8999 39.1804 78.3399 41.4404 78.8999 43.6804C79.2643 44.7473 79.4172 45.875 79.3499 47.0004C78.8199 51.0604 78.3499 55.1204 77.8099 59.1804C77.6999 60.0504 77.2699 60.5204 76.6399 60.4704C76.0099 60.4204 75.4999 59.8304 75.6399 58.9204C75.9199 56.6304 76.2199 54.3404 76.4999 52.0504C76.7399 50.0504 77.0299 48.0504 77.1899 46.1204C77.2101 45.7838 77.1634 45.4465 77.0524 45.1281C76.9415 44.8097 76.7685 44.5165 76.5434 44.2654C76.3183 44.0142 76.0457 43.8103 75.7413 43.6652C75.4369 43.5202 75.1067 43.437 74.7699 43.4204C74.1128 43.3705 73.4613 43.572 72.9471 43.9841C72.4329 44.3962 72.0943 44.9882 71.9999 45.6404C71.6699 48.1604 71.3799 50.6404 70.9999 53.2004C70.9289 53.7145 70.7444 54.2064 70.4599 54.6404C69.2399 56.3804 67.9699 58.0804 66.7099 59.7904C65.5693 61.274 64.8104 63.015 64.4999 64.8604C64.0999 67.4504 63.8099 70.0504 63.4599 72.7404Z" fill="white"/>
<path id="Vector_3" d="M65.08 21.3004C65.97 20.4004 66.83 19.5604 67.66 18.6904C67.8136 18.4593 68.0377 18.2839 68.2989 18.1903C68.5601 18.0966 68.8445 18.0896 69.11 18.1704C69.73 18.4004 69.83 18.9404 69.83 19.5204C69.83 27.0004 69.83 34.4804 69.83 41.9604C69.83 43.0204 69.47 43.3504 68.39 43.3504H31.47C30.36 43.3504 30 43.0004 30 41.8804V19.6004C30 19.0304 30 18.4604 30.63 18.2004C31.26 17.9404 31.76 18.2804 32.22 18.7404C33.04 19.5704 33.9 20.3804 34.78 21.2304L38.58 16.0704C39.5 14.8204 40.03 14.7904 41.04 15.9404C42.59 17.6904 44.13 19.4504 45.73 21.2704L48.85 18.6304C49.7 17.9004 50.11 17.9104 50.96 18.6304L54.03 21.2704L58.84 15.8004C59.7 14.8004 60.33 14.8004 61.11 15.9004L65.08 21.3004ZM32.29 37.2004H67.52V22.1104L61 28.5104C60.28 29.2204 59.77 29.2404 59 28.6004L52.64 23.0704L49.86 20.6804C49.65 20.8404 49.5 20.9504 49.37 21.0704C46.5033 23.4971 43.6433 25.9238 40.79 28.3504C39.68 29.2904 39.39 29.2804 38.36 28.2304L32.92 22.6004C32.75 22.4304 32.56 22.2704 32.29 22.0204V37.2004Z" fill="white"/>
<path id="Vector_4" d="M53.3902 32.4202C53.3902 33.3405 53.0246 34.2231 52.3739 34.8739C51.7231 35.5246 50.8405 35.8902 49.9202 35.8902C48.9999 35.8902 48.1173 35.5246 47.4665 34.8739C46.8158 34.2231 46.4502 33.3405 46.4502 32.4202C46.4502 31.4999 46.8158 30.6173 47.4665 29.9665C48.1173 29.3158 48.9999 28.9502 49.9202 28.9502C50.8405 28.9502 51.7231 29.3158 52.3739 29.9665C53.0246 30.6173 53.3902 31.4999 53.3902 32.4202Z" fill="white"/>
</g>
</svg>
