<?xml version="1.0" encoding="UTF-8"?>
<svg id="Layer_1" xmlns="http://www.w3.org/2000/svg" viewBox="0 0 100 100">
  <defs>
    <style>
      .cls-1 {
        fill: #010101;
      }
    </style>
  </defs>
  <path class="cls-1" d="M2.51,45c.48-.96.34-2.02.5-3.04,1.15-7.34,3.92-13.98,8.39-19.91.76-1.01,1.58-1.97,2.4-2.97-2.26-2.24-4.53-4.48-6.93-6.85h23.24v22.92c-2.13-2.14-4.29-4.3-6.58-6.59-8.02,10.22-9.49,21.09-4.7,32.91-4.03,1.91-8.06,3.82-12.16,5.77-1.14-2.38-2-4.83-2.68-7.35-.63-2.33-1.02-4.7-1.28-7.1-.02-.19.09-.45-.21-.55v-7.24Z"/>
  <path class="cls-1" d="M54.64,2.5c1.04.41,2.15.3,3.22.47,8.54,1.33,16.08,4.79,22.6,10.47.14.12.29.23.46.36,2.24-2.26,4.48-4.52,6.85-6.91v23.23h-22.92c2.13-2.13,4.29-4.29,6.59-6.58-10.22-8.02-21.08-9.49-32.9-4.7-1.91-4.03-3.82-8.06-5.77-12.16,2.38-1.14,4.83-2.01,7.35-2.68,2.42-.65,4.88-1.06,7.38-1.3.17-.02.38.07.46-.19h6.68Z"/>
  <path class="cls-1" d="M50,31.44c10.24,0,18.55,8.29,18.56,18.55.02,10.28-8.34,18.63-18.61,18.59-10.26-.03-18.54-8.35-18.52-18.59.02-10.25,8.32-18.54,18.57-18.54Z"/>
  <path class="cls-1" d="M76.48,71.44c8-10.22,9.47-21.07,4.69-32.89,4.03-1.91,8.08-3.83,12.3-5.83,7.14,17.54,4.82,33.56-7.19,48.27,2.18,2.17,4.44,4.42,6.83,6.81h-23.2v-22.98c2.14,2.15,4.28,4.31,6.57,6.62Z"/>
  <path class="cls-1" d="M12.21,69.89h23.02c-2.19,2.18-4.34,4.32-6.64,6.6,10.17,7.99,21.02,9.47,32.87,4.67,1.91,4.03,3.83,8.09,5.83,12.3-17.54,7.15-33.56,4.82-48.31-7.21-2.16,2.19-4.4,4.46-6.77,6.88v-23.25Z"/>
</svg>