<svg width="34" height="34" viewBox="0 0 34 34" fill="none" xmlns="http://www.w3.org/2000/svg">
<g id="content creation 1">
<path id="Vector" d="M16.9796 32.1805H10.0572C8.2858 32.1805 7.1604 31.0551 7.1604 29.2837C7.1604 26.3166 7.1604 23.3462 7.1604 20.3723C7.1604 18.5907 8.2926 17.4653 10.081 17.4619H23.9292C25.721 17.4619 26.8396 18.5873 26.843 20.3825C26.843 23.3518 26.843 26.3223 26.843 29.2939C26.843 31.0483 25.7244 32.1771 23.9734 32.1805H16.9796ZM15.0552 24.8399C15.0552 25.6695 15.0552 26.4957 15.0552 27.3219C15.0552 27.8625 15.334 28.0291 15.793 27.7639C17.2437 26.9298 18.6943 26.0934 20.145 25.2547C20.6142 24.9861 20.6142 24.6665 20.145 24.3979C18.6966 23.5592 17.2459 22.7217 15.793 21.8853C15.334 21.6235 15.0586 21.7867 15.0552 22.3273C15.0518 23.1637 15.0552 24.0035 15.0552 24.8399Z" fill="white"/>
<path id="Vector_2" d="M22.2836 7.09614C22.285 8.14142 21.9762 9.16362 21.3965 10.0334C20.8167 10.9032 19.992 11.5814 19.0267 11.9824C18.0614 12.3833 16.9988 12.4889 15.9734 12.2858C14.9481 12.0827 14.006 11.5801 13.2664 10.8414C12.5268 10.1028 12.0229 9.16132 11.8185 8.13622C11.614 7.11112 11.7183 6.04841 12.118 5.08256C12.5177 4.11672 13.1949 3.29113 14.0639 2.71026C14.9329 2.12939 15.9547 1.81934 17 1.81934C18.3999 1.82023 19.7422 2.37625 20.7327 3.36545C21.7232 4.35466 22.2809 5.69629 22.2836 7.09614Z" fill="white"/>
<path id="Vector_3" d="M8.89783 16.7758C9.06028 15.9345 9.47423 15.1623 10.085 14.5613C10.6957 13.9603 11.4744 13.5588 12.3182 13.4098C12.5362 13.3725 12.7567 13.352 12.9778 13.3486C15.6604 13.3486 18.3464 13.3486 21.029 13.3486C21.9706 13.3611 22.8811 13.6877 23.6159 14.2765C24.3508 14.8654 24.8679 15.6828 25.0852 16.599C25.0967 16.6437 25.1047 16.6891 25.109 16.735C22.5556 16.5854 20.009 16.6874 17.4624 16.6704C14.9158 16.6534 12.3828 16.6704 9.83963 16.6704C9.52402 16.6885 9.20962 16.7237 8.89783 16.7758Z" fill="white"/>
<path id="Vector_4" d="M15.8712 22.8447L19.295 24.8201L15.8712 26.8057V22.8447Z" fill="white"/>
</g>
</svg>
