<svg width="84" height="85" viewBox="0 0 84 85" fill="none" xmlns="http://www.w3.org/2000/svg">
<g id="COntent Mangement 1">
<path id="Vector" d="M43.1471 57.0324C42.3359 56.8986 41.6251 56.7816 40.8725 56.6561V31.4272C36.7917 30.8502 33.6475 28.8767 31.6573 25.2642C30.2274 22.6635 29.8929 19.8789 30.5451 16.9855C31.8246 11.3327 37.2099 7.47765 43.1052 7.97938C48.8668 8.47276 53.4828 13.3145 53.7337 19.1848C53.9762 24.7792 50.1128 30.4572 43.1387 31.4188V57.0324H43.1471ZM38.69 13.8581V25.5318C42.0767 23.575 45.3714 21.6768 48.8 19.6949C45.3547 17.7047 42.0683 15.8065 38.69 13.8581Z" fill="white"/>
<path id="Vector_2" d="M25.0847 74.1335V62.903C26.0881 62.7942 27.0916 62.6855 28.0951 62.5852C30.1355 62.3761 31.9501 61.5232 33.7647 60.6535C34.8016 60.1601 35.8385 59.6751 36.8838 59.1985C38.4392 58.4877 40.028 58.379 41.7005 58.7636C43.7074 59.2236 45.7395 59.5748 47.6962 60.2438C48.3903 60.4779 49.0676 60.7538 49.6697 61.1803C50.7401 61.9413 50.7735 63.0702 49.7617 63.9231C49.1596 64.4249 48.4739 64.567 47.7129 64.5085C44.7193 64.266 41.7172 64.0319 38.7151 63.7894C38.481 63.7726 38.2469 63.7308 38.0127 63.7308C37.3521 63.7308 36.9089 64.0319 36.7918 64.7008C36.6831 65.3531 37.0594 65.8799 37.7786 65.9635C39.3089 66.1308 40.8475 66.2395 42.3862 66.3649C44.1088 66.5071 45.8314 66.6325 47.5457 66.7747C48.6495 66.8667 49.6948 66.6743 50.623 66.0722C54.1603 63.7559 57.9149 61.7908 61.5358 59.6249C62.3636 59.1316 63.1915 58.6382 64.0528 58.195C65.0563 57.6765 66.043 57.8103 66.9294 58.4626C67.7907 59.0898 68.0751 59.9845 67.8995 61.0298C67.7824 61.7155 67.4228 62.2674 66.8374 62.6103C60.3985 66.4318 54.0766 70.4457 47.2865 73.6485C44.9032 74.769 42.52 74.7355 40.0197 74.493C35.8051 74.0833 31.5905 73.5899 27.3341 73.9244C26.6066 73.983 25.8791 74.0582 25.0596 74.1335H25.0847Z" fill="white"/>
<path id="Vector_3" d="M28.4464 47.6255C29.9851 49.0972 31.5154 50.5941 33.0875 52.0407C33.6979 52.601 33.9822 53.1947 33.9488 54.0226C33.8903 55.2268 33.9153 56.4309 33.9488 57.6351C33.9655 58.1201 33.8234 58.4044 33.3551 58.58C32.8283 58.7807 32.3349 59.065 31.7579 59.3494C31.5656 58.7222 31.6743 58.1536 31.6575 57.5933C31.6325 56.3389 31.9753 54.9341 31.5154 53.8721C31.0638 52.8101 29.8178 52.0826 28.9147 51.2129C28.2374 50.5606 27.5517 49.9167 26.8158 49.2143C23.6549 51.6728 20.1176 52.5508 16.2208 51.5474C13.4027 50.8199 11.17 49.2059 9.52262 46.806C6.25298 42.0311 6.96377 35.6423 11.1867 31.6452C15.3093 27.74 21.7566 27.4306 26.3141 30.8006C30.2945 33.7441 33.3551 40.8604 28.4464 47.6255ZM19.2563 36.0688C19.1225 35.9768 19.0556 35.935 18.9971 35.8848C17.7009 34.8228 16.2459 34.664 14.9414 35.4333C13.6285 36.211 12.993 37.6409 13.386 39.2799C14.1302 42.4158 16.2124 44.4813 18.9134 46.0283C19.1392 46.1621 19.3399 46.1621 19.5741 46.0283C22.2751 44.4729 24.3573 42.3991 25.1015 39.2716C25.5782 37.273 24.4242 35.4333 22.5009 35.0319C21.2632 34.7727 20.1845 35.1657 19.2563 36.0688Z" fill="white"/>
<path id="Vector_4" d="M57.1622 49.2225C55.6235 50.6859 54.11 52.1325 52.5797 53.5625C52.3288 53.7966 52.3372 54.0558 52.3372 54.3485C52.3372 56.0461 52.3372 57.752 52.3288 59.4495C52.3288 59.7004 52.4291 59.968 52.2034 60.2105C51.5511 59.8342 50.9072 59.4662 50.255 59.0899C49.9957 58.9394 50.0459 58.6969 50.0459 58.4628C50.0459 56.8405 50.0459 55.2182 50.0459 53.5959C50.0459 53.0607 50.255 52.6593 50.6396 52.2914C52.2786 50.7527 53.8925 49.189 55.5734 47.5835C53.1149 44.2218 52.3204 40.5591 53.5831 36.5536C54.4528 33.8024 56.1671 31.6701 58.6172 30.1649C63.5426 27.1461 70.0233 28.1914 73.6944 32.5648C77.4825 37.0804 77.4072 43.5779 73.5773 47.9514C69.8561 52.1911 62.8736 53.6712 57.1622 49.2141V49.2225ZM59.997 45.7939C60.181 45.8107 60.3315 45.8357 60.482 45.8357C62.8151 45.8357 65.1398 45.8525 67.4729 45.8357C69.8227 45.8106 71.6791 43.9375 71.6624 41.6462C71.6456 39.3801 69.8059 37.5487 67.4979 37.4986C67.038 37.4902 66.5781 37.4986 66.0513 37.4986C66.0513 36.47 66.0764 35.5585 66.0513 34.647C66.0095 33.5599 65.1231 32.7739 64.0861 32.8575C63.1245 32.9411 62.4221 33.6603 62.3886 34.6805C62.3552 35.6087 62.3886 36.5369 62.3886 37.5153H60.0137V45.8023L59.997 45.7939Z" fill="white"/>
<path id="Vector_5" d="M18.7627 60.7627H22.7431V77.3367H18.7627V60.7627Z" fill="white"/>
</g>
</svg>
