<?xml version="1.0" encoding="UTF-8"?>
<svg id="Layer_1" xmlns="http://www.w3.org/2000/svg" viewBox="0 0 100 100">
  <defs>
    <style>
      .cls-1 {
        fill: #020202;
      }
    </style>
  </defs>
  <path class="cls-1" d="M51.39,67.21c-.97-.16-1.82-.3-2.72-.45v-30.17c-4.88-.69-8.64-3.05-11.02-7.37-1.71-3.11-2.11-6.44-1.33-9.9,1.53-6.76,7.97-11.37,15.02-10.77,6.89.59,12.41,6.38,12.71,13.4.29,6.69-4.33,13.48-12.67,14.63v30.63ZM46.06,15.58v13.96c4.05-2.34,7.99-4.61,12.09-6.98-4.12-2.38-8.05-4.65-12.09-6.98Z"/>
  <path class="cls-1" d="M29.79,87.66v-13.43c1.2-.13,2.4-.26,3.6-.38,2.44-.25,4.61-1.27,6.78-2.31,1.24-.59,2.48-1.17,3.73-1.74,1.86-.85,3.76-.98,5.76-.52,2.4.55,4.83.97,7.17,1.77.83.28,1.64.61,2.36,1.12,1.28.91,1.32,2.26.11,3.28-.72.6-1.54.77-2.45.7-3.58-.29-7.17-.57-10.76-.86-.28-.02-.56-.07-.84-.07-.79,0-1.32.36-1.46,1.16-.13.78.32,1.41,1.18,1.51,1.83.2,3.67.33,5.51.48,2.06.17,4.12.32,6.17.49,1.32.11,2.57-.12,3.68-.84,4.23-2.77,8.72-5.12,13.05-7.71.99-.59,1.98-1.18,3.01-1.71,1.2-.62,2.38-.46,3.44.32,1.03.75,1.37,1.82,1.16,3.07-.14.82-.57,1.48-1.27,1.89-7.7,4.57-15.26,9.37-23.38,13.2-2.85,1.34-5.7,1.3-8.69,1.01-5.04-.49-10.08-1.08-15.17-.68-.87.07-1.74.16-2.72.25Z"/>
  <path class="cls-1" d="M33.81,55.96c1.84,1.76,3.67,3.55,5.55,5.28.73.67,1.07,1.38,1.03,2.37-.07,1.44-.04,2.88,0,4.32.02.58-.15.92-.71,1.13-.63.24-1.22.58-1.91.92-.23-.75-.1-1.43-.12-2.1-.03-1.5.38-3.18-.17-4.45-.54-1.27-2.03-2.14-3.11-3.18-.81-.78-1.63-1.55-2.51-2.39-3.78,2.94-8.01,3.99-12.67,2.79-3.37-.87-6.04-2.8-8.01-5.67-3.91-5.71-3.06-13.35,1.99-18.13,4.93-4.67,12.64-5.04,18.09-1.01,4.76,3.52,8.42,12.03,2.55,20.12ZM22.82,42.14c-.16-.11-.24-.16-.31-.22-1.55-1.27-3.29-1.46-4.85-.54-1.57.93-2.33,2.64-1.86,4.6.89,3.75,3.38,6.22,6.61,8.07.27.16.51.16.79,0,3.23-1.86,5.72-4.34,6.61-8.08.57-2.39-.81-4.59-3.11-5.07-1.48-.31-2.77.16-3.88,1.24Z"/>
  <path class="cls-1" d="M68.15,57.87c-1.84,1.75-3.65,3.48-5.48,5.19-.3.28-.29.59-.29.94,0,2.03,0,4.07-.01,6.1,0,.3.12.62-.15.91-.78-.45-1.55-.89-2.33-1.34-.31-.18-.25-.47-.25-.75,0-1.94,0-3.88,0-5.82,0-.64.25-1.12.71-1.56,1.96-1.84,3.89-3.71,5.9-5.63-2.94-4.02-3.89-8.4-2.38-13.19,1.04-3.29,3.09-5.84,6.02-7.64,5.89-3.61,13.64-2.36,18.03,2.87,4.53,5.4,4.44,13.17-.14,18.4-4.45,5.07-12.8,6.84-19.63,1.51ZM71.54,53.77c.22.02.4.05.58.05,2.79,0,5.57.02,8.36,0,2.81-.03,5.03-2.27,5.01-5.01-.02-2.71-2.22-4.9-4.98-4.96-.55-.01-1.1,0-1.73,0,0-1.23.03-2.32,0-3.41-.05-1.3-1.11-2.24-2.35-2.14-1.15.1-1.99.96-2.03,2.18-.04,1.11,0,2.22,0,3.39h-2.84v9.91Z"/>
  <path class="cls-1" d="M22.23,71.67h4.76v19.82h-4.76v-19.82Z"/>
</svg>