<?xml version="1.0" encoding="UTF-8"?>
<svg id="Layer_1" xmlns="http://www.w3.org/2000/svg" viewBox="0 0 100 100">
  <defs>
    <style>
      .cls-1 {
        fill: #fff;
      }
    </style>
  </defs>
  <path class="cls-1" d="M20.52,63.87c-1.33,0-2.56,0-3.78,0-5.08-.03-8.44-3.4-8.44-8.49,0-5.43,0-10.86,0-16.29,0-5.09,3.37-8.45,8.45-8.48,1.23,0,2.46,0,3.65,0,.2-.41.12-.75.12-1.08,0-4.97,0-9.94,0-14.9,0-4.37,2.88-7.26,7.23-7.26,13.42,0,26.85,0,40.27,0,4.39,0,7.29,2.91,7.3,7.31,0,1.32,0,2.65,0,3.93.31.23.59.15.86.15,2.35,0,4.69-.03,7.04.01,4.25.07,7.35,3.01,7.44,7.23.09,4.94.1,9.88,0,14.81-.09,4.25-3.26,7.22-7.53,7.25-2.56.02-5.12,0-7.74,0v5.5c.19.19.48.08.74.08,3.02,0,6.05,0,9.07,0,3.79.01,6.47,2.67,6.49,6.45.02,4.97.02,9.94,0,14.9-.02,3.79-2.7,6.41-6.51,6.42-2.96,0-5.92,0-8.89,0h-.97c0,1.43,0,2.78,0,4.13-.02,4.31-2.89,7.23-7.17,7.23-13.48.01-26.97.01-40.45,0-4.32,0-7.17-2.88-7.17-7.2,0-6.85,0-13.7,0-20.55,0-.34,0-.68,0-1.16ZM23.34,63.87c0,.45,0,.78,0,1.12,0,6.76,0,13.52,0,20.27,0,3.16,1.53,4.69,4.71,4.69,13.24,0,26.48,0,39.72,0,.34,0,.68,0,1.02-.02,1.79-.13,3.45-1.56,3.59-3.3.13-1.64.03-3.31.03-5.02-2.1,0-4.17,0-6.23,0-4.19,0-6.77-2.56-6.78-6.71,0-4.81,0-9.63,0-14.44,0-.62,0-1.23.14-1.84.74-2.97,3.16-4.85,6.36-4.88,2.15-.02,4.3,0,6.47,0v-5.62c-1.86,0-3.64.04-5.43,0-3.82-.11-6.92-3.19-6.96-7.01-.06-5.06-.05-10.12,0-15.18.03-3.45,2.53-6.3,5.94-6.92,1.83-.33,3.69-.07,5.54-.15.32-.01.67.12.98-.13,0-1.48.03-2.97,0-4.45-.06-2.29-1.73-3.91-4.03-3.95-1.23-.02-2.47,0-3.7,0-1.22,0-2.44,0-3.73,0,0,.97.03,1.83,0,2.69-.12,2.96-2.41,5.25-5.36,5.27-5.12.04-10.25.04-15.37,0-3.02-.02-5.36-2.41-5.42-5.43-.01-.82,0-1.65,0-2.53-2.43,0-4.77,0-7.1,0-2.73,0-4.37,1.65-4.37,4.38,0,4.69,0,9.38,0,14.07,0,.58,0,1.16,0,1.71.38.21.73.13,1.06.13,3.64,0,7.28-.02,10.92,0,4.85.04,8.29,3.43,8.32,8.26.04,5.59.02,11.17,0,16.76,0,2.15-.67,4.06-2.15,5.65-1.69,1.82-3.81,2.62-6.29,2.6-3.91-.03-7.83,0-11.87,0ZM87.75,35.15c0-3.01,0-5.75,0-8.5,0-3.21-1.75-5.1-4.98-5.15-5.18-.07-10.36-.05-15.54,0-2.32.02-4.05,1.6-4.39,3.85-.08.54-.05,1.11-.05,1.66,0,2.6,0,5.21,0,8,.32-.35.5-.54.67-.74,1.98-2.34,4.21-2.39,6.27-.13.74.82,1.48,1.64,2.27,2.51,1.43-1.6,2.82-3.16,4.22-4.72,2.85-3.19,5.71-3.2,8.61-.03.93,1.02,1.84,2.04,2.92,3.24ZM29.24,40.48c1.59,0,3.06.01,4.54,0,1.01-.01,1.71-.61,1.71-1.44,0-.83-.68-1.42-1.71-1.43-1.88-.02-3.76-.02-5.64,0-1.23.01-1.73.53-1.74,1.76-.02,1.14,0,2.28,0,3.42,0,1.35,0,2.7,0,4.03-.43.07-.67-.16-.96-.25-2.3-.71-4.51-.58-6.55.78-3.07,2.05-3.13,5.98-.16,8.15.89.65,1.88,1.01,2.97,1.19,4.32.71,7.56-1.98,7.56-6.31,0-3.26,0-6.53,0-9.9ZM70.96,59.43c-.88-.02-1.52.67-1.52,1.65,0,4.25,0,8.51,0,12.76,0,.68.22,1.21.83,1.52.58.3,1.1.15,1.64-.19,3.3-2.08,6.63-4.14,9.93-6.21,1.41-.88,1.43-2.06.04-2.94-3.31-2.08-6.62-4.14-9.93-6.22-.32-.2-.65-.35-.98-.38Z"/>
  <path class="cls-1" d="M47.96,84.82c-2.8,0-5.61.01-8.41,0-.96,0-1.6-.61-1.59-1.42,0-.78.63-1.4,1.52-1.4,5.61-.01,11.21-.01,16.82,0,.9,0,1.52.6,1.54,1.38.02.83-.59,1.43-1.57,1.44-2.77.02-5.55,0-8.32,0Z"/>
  <path class="cls-1" d="M72.03,29.05c-.76.02-1.44-.62-1.46-1.36-.02-.74.64-1.43,1.38-1.45.75-.02,1.42.62,1.44,1.38.02.78-.59,1.41-1.37,1.43Z"/>
  <path class="cls-1" d="M22.92,49c1.05.02,2,.3,2.78,1.03.9.84.9,1.97.02,2.83-1.44,1.41-4.31,1.38-5.72-.05-.82-.83-.81-1.97.05-2.77.81-.74,1.79-1.04,2.87-1.04Z"/>
  <path class="cls-1" d="M78.83,67.48c-2.23,1.39-4.32,2.69-6.52,4.06v-8.11c2.16,1.34,4.28,2.66,6.52,4.05Z"/>
</svg>