<?xml version="1.0" encoding="utf-8"?>
<!-- Generator: Adobe Illustrator 26.5.0, SVG Export Plug-In . SVG Version: 6.00 Build 0)  -->
<svg version="1.1" id="Layer_1" xmlns="http://www.w3.org/2000/svg" xmlns:xlink="http://www.w3.org/1999/xlink" x="0px" y="0px"
	 viewBox="0 0 100 100" style="enable-background:new 0 0 100 100;" xml:space="preserve">
<style type="text/css">
	.st0{fill-rule:evenodd;clip-rule:evenodd;fill:none;stroke:#FFFFFF;stroke-miterlimit:10;}
	.st1{fill-rule:evenodd;clip-rule:evenodd;fill:#FFFFFF;}
</style>
<rect x="39.9" y="33.4" class="st0" width="16.7" height="11.1"/>
<path class="st0" d="M51,39.5l-4.8,3.1c-0.1,0-0.2,0.1-0.3,0.1c-0.3,0-0.6-0.3-0.6-0.6v-6.2c0-0.5,0.5-0.9,1-0.5l4.8,3.1
	C51.3,38.6,51.3,39.1,51,39.5z"/>
<path class="st1" d="M33,79.3c-0.9,0-1.7-0.8-1.7-1.7S32.1,76,33,76h6.5c0.5-2.6,0.7-5.4,0.4-7.9h-20c-2.6,0-4.8-2.1-4.8-4.8V25.2
	c0-2.6,2.1-4.8,4.8-4.8h22.4l0.1-0.3l7.8,4.5L39.8,42.8L32,38.3l8.6-14.9H19.9c-1,0-1.8,0.8-1.8,1.8v32.6h60.4V25.2
	c0-1-0.8-1.8-1.8-1.8c-7.8,0-15.5,0-23.3,0l-9.6-5.6l0.9-1.5c1.2-2.1,4-2.9,6.1-1.6c2,1.2,2.8,3.7,1.8,5.8h24c2.6,0,4.8,2.1,4.8,4.8
	v38.1c0,2.6-2.1,4.8-4.8,4.8H56.5c-0.2,2.5,0,5.4,0.5,7.9h6.5c0.9,0,1.7,0.8,1.7,1.7s-0.8,1.7-1.7,1.7L33,79.3L33,79.3z"/>
<path class="st1" d="M34.2,46.8l3.5-2L31.3,41v5.7c-0.7,0.1-1.2,0.7-1.2,1.3c0,0.7,0.6,1.3,1.3,1.3h33.6c0.7,0,1.3-0.6,1.3-1.3
	c0-0.7-0.6-1.3-1.3-1.3H34.2z"/>
</svg>
