<svg width="70" height="70" viewBox="0 0 70 70" fill="none" xmlns="http://www.w3.org/2000/svg">
<g id="Conversion Rate Optimization 1">
<path id="Vector" d="M57.8341 45.4229L57.1901 46.3329C52.2435 53.2675 47.2945 60.2045 42.3431 67.1439C42.1699 67.4336 41.9201 67.6699 41.6212 67.8267C41.3224 67.9836 40.986 68.0549 40.6491 68.0329C36.2601 68.0329 31.8781 68.0329 27.4891 68.0329C27.2471 68.0549 27.0037 68.0113 26.7844 67.9066C26.5651 67.8018 26.3781 67.6399 26.2431 67.4378C21.1098 60.2418 15.9765 53.0482 10.8431 45.8569C10.7591 45.7449 10.6961 45.6189 10.5771 45.4299L57.8341 45.4229Z" fill="white"/>
<path id="Vector_2" d="M28.5814 24.059C22.7924 19.957 22.6944 12.761 26.5164 8.51904C27.5001 7.4281 28.7053 6.55964 30.0514 5.97164C31.3976 5.38364 32.8537 5.08966 34.3225 5.10932C35.7914 5.12899 37.2391 5.46184 38.569 6.08566C39.8989 6.70948 41.0805 7.6099 42.0346 8.72678C42.9888 9.84365 43.6936 11.1513 44.1021 12.5623C44.5106 13.9733 44.6133 15.4553 44.4033 16.9091C44.1934 18.363 43.6756 19.7554 42.8846 20.9932C42.0936 22.231 41.0476 23.2858 39.8164 24.087L40.6634 24.339C42.8344 24.9326 44.7366 26.2518 46.0534 28.077C46.4605 28.6554 46.8232 29.2638 47.1384 29.897C47.9504 31.479 48.7344 33.075 49.5674 34.741H18.8584C18.9564 34.51 19.0264 34.314 19.1174 34.125C19.8174 32.725 20.5174 31.283 21.2174 29.855C21.8772 28.4256 22.8598 27.1689 24.0878 26.1837C25.3159 25.1986 26.7559 24.512 28.2944 24.178C28.3935 24.1473 28.4896 24.1074 28.5814 24.059Z" fill="white"/>
<path id="Vector_3" d="M34.1949 43.6099C25.6222 43.6099 17.0472 43.6099 8.46988 43.6099C7.53513 43.6628 6.61764 43.3422 5.91925 42.7187C5.22087 42.0951 4.79879 41.2196 4.74588 40.2849C4.69297 39.3501 5.01356 38.4326 5.63712 37.7343C6.26067 37.0359 7.13613 36.6138 8.07088 36.5609H59.8709C60.8056 36.5479 61.7073 36.9068 62.3774 37.5585C63.0476 38.2103 63.4314 39.1016 63.4444 40.0364C63.4574 40.9711 63.0985 41.8728 62.4467 42.5429C61.7949 43.2131 60.9036 43.5969 59.9689 43.6099C56.4689 43.6099 53.0109 43.6099 49.5319 43.6099H34.1949Z" fill="white"/>
<path id="Vector_4" d="M10.248 34.7901C10.556 34.1601 10.822 33.6141 11.095 33.0751C11.6504 31.9551 12.2057 30.8374 12.761 29.7221C13.4222 28.334 14.3914 27.115 15.5947 26.158C16.798 25.2009 18.2038 24.5309 19.705 24.1991C19.796 24.1991 19.88 24.1431 20.097 24.0731C17.8789 22.6275 16.2887 20.3973 15.645 17.8291C14.9916 15.2834 15.3662 12.5827 16.688 10.3111C17.7402 8.44459 19.3527 6.95628 21.2974 6.05681C23.2421 5.15733 25.4204 4.89225 27.524 5.29908C26.0885 6.261 24.8748 7.51816 23.964 8.9866C23.0532 10.455 22.4662 12.1009 22.2422 13.8143C22.0183 15.5278 22.1625 17.2692 22.6653 18.9224C23.1682 20.5757 24.018 22.1025 25.158 23.4011L24.409 23.8421C22.3921 25.0361 20.7727 26.7992 19.754 28.9101C18.872 30.6881 17.976 32.4521 17.108 34.2371C17.0471 34.4176 16.9266 34.5721 16.7664 34.6751C16.6061 34.7781 16.4156 34.8236 16.226 34.8041C14.273 34.7691 12.313 34.7901 10.248 34.7901Z" fill="white"/>
<path id="Vector_5" d="M48.251 24.0664L49.14 24.3254C51.3404 24.842 53.2651 26.1693 54.53 28.0424C55.874 30.1424 56.952 32.4384 58.219 34.7834C55.937 34.7834 53.865 34.7834 51.786 34.7834C51.625 34.7834 51.415 34.5174 51.317 34.3284C50.617 32.9774 49.917 31.6334 49.28 30.2544C47.964 27.3844 46.2 24.9134 43.19 23.4644C44.3334 22.1719 45.1881 20.6506 45.6974 19.0018C46.2067 17.3531 46.3588 15.6147 46.1435 13.9026C45.9282 12.1904 45.3506 10.5438 44.449 9.07241C43.5475 7.60102 42.3427 6.33865 40.915 5.36939C44.037 4.20039 48.944 6.20239 51.247 9.61139C52.0332 10.7415 52.5776 12.0218 52.8462 13.372C53.1148 14.7223 53.1018 16.1134 52.808 17.4584C52.5292 18.8087 51.9822 20.0893 51.1995 21.2244C50.4167 22.3594 49.4141 23.3259 48.251 24.0664Z" fill="white"/>
</g>
</svg>
