<svg width="60" height="60" viewBox="0 0 60 60" fill="none" xmlns="http://www.w3.org/2000/svg">
<g id="Conversion Rate Optimization 2">
<path id="Vector" d="M12.042 37.668H48.6C48.468 37.872 48.372 38.034 48.264 38.178C44.376 43.614 40.498 49.048 36.63 54.48C36.4928 54.7138 36.2934 54.9049 36.0539 55.032C35.8145 55.1591 35.5445 55.2173 35.274 55.2C31.902 55.2 28.53 55.2 25.158 55.2C24.9618 55.2168 24.7648 55.1805 24.5874 55.095C24.4101 55.0095 24.259 54.8779 24.15 54.714C20.19 49.13 16.22 43.552 12.24 37.98C12.186 37.908 12.144 37.8 12.042 37.668Z" fill="white"/>
<path id="Vector_2" d="M42.2578 29.3998H18.4678C18.5338 29.2318 18.5758 29.0878 18.6418 28.9618C19.2138 27.8098 19.7878 26.6578 20.3638 25.5058C20.8745 24.4317 21.6228 23.4879 22.5521 22.7457C23.4814 22.0035 24.5674 21.4824 25.7278 21.2218C25.7938 21.2218 25.8598 21.1798 26.0098 21.1318C23.5378 19.3318 22.2418 16.9978 22.3738 13.9798C22.4117 12.9558 22.6554 11.95 23.0904 11.0222C23.5255 10.0945 24.1428 9.26381 24.9058 8.57978C26.4351 7.1576 28.463 6.39484 30.5505 6.4566C32.638 6.51836 34.6172 7.39967 36.0598 8.90978C36.8627 9.76589 37.4695 10.7866 37.838 11.9009C38.2065 13.0153 38.3279 14.1965 38.1937 15.3625C38.0595 16.5285 37.673 17.6513 37.061 18.6528C36.4489 19.6543 35.6262 20.5104 34.6498 21.1618L35.3098 21.3538C37.0048 21.769 38.4823 22.8054 39.4498 24.2578C40.4758 25.8838 41.2978 27.6298 42.2578 29.3998Z" fill="white"/>
<path id="Vector_3" d="M30.282 36.2756H10.482C9.76577 36.308 9.06544 36.0581 8.53164 35.5795C7.99784 35.1009 7.67322 34.4319 7.62762 33.7164C7.58201 33.0009 7.81907 32.2961 8.28779 31.7536C8.75652 31.2111 9.41945 30.8743 10.134 30.8156H50.106C50.4755 30.781 50.8482 30.8221 51.2014 30.9361C51.5546 31.0502 51.8809 31.2349 52.1604 31.4791C52.4399 31.7232 52.6669 32.0217 52.8274 32.3563C52.9879 32.6909 53.0787 33.0547 53.0942 33.4256C53.1097 33.7964 53.0495 34.1665 52.9175 34.5133C52.7854 34.8602 52.5841 35.1765 52.3259 35.4431C52.0677 35.7097 51.758 35.921 51.4155 36.0641C51.0731 36.2072 50.7051 36.2792 50.334 36.2756C48.534 36.2756 46.776 36.2756 44.994 36.2756H30.282Z" fill="white"/>
<path id="Vector_4" d="M11.7236 29.3998C12.7676 27.5338 13.6676 25.6738 14.8016 23.9998C15.8153 22.6081 17.3139 21.6468 19.0016 21.3058L19.4156 21.2038C18.4203 20.5621 17.5785 19.7091 16.95 18.7053C16.3216 17.7014 15.922 16.5715 15.7796 15.3958C15.5616 13.7373 15.8879 12.0529 16.7096 10.5958C17.5127 9.13409 18.7581 7.96418 20.2671 7.25386C21.7761 6.54354 23.4713 6.32929 25.1096 6.64184C24.0025 7.38803 23.0667 8.36119 22.3645 9.4967C21.6622 10.6322 21.2096 11.9041 21.0365 13.228C20.8634 14.5518 20.9739 15.8974 21.3607 17.1752C21.7474 18.4531 22.4015 19.6341 23.2796 20.6398C22.8416 20.9218 22.3976 21.1798 21.9896 21.4738C20.7596 22.371 19.7703 23.5582 19.1096 24.9298C18.4316 26.3098 17.7416 27.6778 17.0576 29.0518C16.9376 29.2978 16.8296 29.4838 16.4876 29.4778C15.0116 29.4778 13.5296 29.4778 12.0536 29.4778C11.9422 29.4584 11.832 29.4324 11.7236 29.3998Z" fill="white"/>
<path id="Vector_5" d="M41.1662 21.1618C42.4329 21.4053 43.6225 21.95 44.6344 22.75C45.6463 23.5499 46.4509 24.5815 46.9802 25.7578C47.5802 26.9578 48.1802 28.1578 48.7802 29.4418C47.0942 29.4418 45.4922 29.4418 43.8902 29.4418C43.7642 29.4418 43.5962 29.2378 43.5242 29.0878C42.9662 28.0138 42.3962 26.9398 41.8982 25.8358C40.9022 23.6338 39.4982 21.7918 37.2422 20.6638C38.1229 19.6643 38.7812 18.489 39.1734 17.2159C39.5655 15.9427 39.6827 14.6008 39.517 13.279C39.3514 11.9571 38.9067 10.6856 38.2125 9.54858C37.5183 8.41158 36.5904 7.43509 35.4902 6.68382C37.8002 5.71782 41.7182 7.31382 43.4882 9.94182C44.097 10.8172 44.518 11.8091 44.7245 12.8552C44.931 13.9013 44.9187 14.9788 44.6882 16.0198C44.4701 17.0671 44.0465 18.0608 43.442 18.9434C42.8375 19.826 42.064 20.58 41.1662 21.1618Z" fill="white"/>
</g>
</svg>
