<svg width="90" height="90" viewBox="0 0 90 90" fill="none" xmlns="http://www.w3.org/2000/svg">
<g id="Creative social media posts 1">
<path id="Vector" d="M32.3913 53.4843C31.4373 53.4843 30.5553 53.4573 29.6643 53.4843C28.9803 53.5113 28.6923 53.2413 28.7013 52.5393C28.7283 51.1353 28.6293 49.7223 28.7283 48.3273C28.8813 46.0953 28.4043 44.0073 27.4683 41.7663C27.5403 44.5653 27.3603 47.1393 27.6843 49.7313C28.2513 54.2853 28.7913 58.8483 29.2503 63.4203C29.4303 65.1753 28.9623 66.9213 28.7823 68.6673C28.4043 72.1953 27.9903 75.7143 27.5673 79.2333C27.5223 79.5753 27.6753 79.7553 27.8733 79.9533C28.4583 80.5293 29.0253 81.1053 29.6103 81.6813C29.8353 81.9063 30.0423 82.1493 29.9073 82.4823C29.7723 82.8063 29.4933 82.8873 29.1603 82.8873C26.2983 82.8873 23.4453 82.8873 20.5833 82.8873C19.8543 82.8873 19.7373 82.4913 19.8183 81.8883C20.2053 79.1343 20.5833 76.3803 20.9703 73.6263C21.3933 70.6473 21.9063 67.6773 22.1943 64.6803C22.3113 63.4653 21.9513 62.2053 21.7803 60.9723C21.5013 58.8753 21.1773 56.7783 20.9163 54.6813C20.8533 54.1773 20.7003 53.9883 20.1333 54.1593C20.1333 55.7343 20.1603 57.3453 20.1333 58.9473C20.0883 60.9363 20.3673 62.9433 19.9263 64.9053C18.8733 69.5763 17.7933 74.2383 16.6863 78.9003C16.5603 79.4493 16.6413 79.8003 17.0553 80.1693C17.6133 80.6553 18.1083 81.2133 18.6303 81.7353C18.8463 81.9423 18.9993 82.1853 18.8733 82.4823C18.7383 82.8063 18.4593 82.8963 18.1263 82.8963C15.2193 82.8963 12.3033 82.8963 9.39625 82.8963C8.62225 82.8963 8.45125 82.6083 8.66725 81.7173C9.45025 78.4233 10.2423 75.1293 11.0343 71.8353C11.6013 69.4863 12.1683 67.1283 12.7173 64.7703C12.7893 64.4553 12.7893 64.1133 12.7893 63.7803C12.7893 55.2483 12.8883 46.7253 12.7443 38.1933C12.6813 34.3773 15.1473 31.7493 18.9363 32.0193C18.8013 30.7233 19.1973 29.4183 18.4953 28.1583C18.0273 27.3213 17.6313 26.4303 17.6493 25.4133C17.6943 23.3703 19.2693 21.6963 21.3033 21.6153C22.4733 21.5703 23.6523 21.6153 24.8223 21.5973C25.4073 21.5973 25.6503 21.8673 25.6503 22.4343C25.6503 23.5053 25.7583 24.5853 25.1373 25.5573C25.0383 25.7103 25.0563 25.9443 25.0563 26.1513C25.0563 27.0153 25.0383 27.8883 25.0563 28.7523C25.0743 29.8863 24.6063 30.7503 23.5623 31.1913C23.1033 31.3893 23.2293 31.6683 23.2293 32.0193C24.1653 32.0193 25.0833 32.0373 26.0013 32.0193C26.9283 31.9923 27.8193 32.1453 28.7283 32.4963C28.7283 31.5693 28.7463 30.7053 28.7283 29.8413C28.7103 29.2293 28.9713 28.9503 29.5923 28.9593C30.5103 28.9773 31.4193 28.9593 32.4093 28.9593V28.0953C32.4093 22.6323 32.4093 17.1693 32.4093 11.7063C32.4093 10.6443 32.4813 10.5723 33.5433 10.5723C49.1133 10.5723 64.6922 10.5723 80.2622 10.5723C81.3602 10.5723 81.4232 10.6443 81.4232 11.7513C81.4232 33.4323 81.4232 55.1043 81.4232 76.7853C81.4232 77.9283 81.3692 77.9823 80.1992 77.9823C64.6742 77.9823 49.1582 77.9823 33.6333 77.9823C32.4363 77.9823 32.4093 77.9463 32.4093 76.7133C32.4093 69.0003 32.4093 61.2873 32.4093 53.4663L32.3913 53.4843ZM33.6423 28.9683H34.5243C45.7023 28.9683 56.8892 28.9683 68.0672 28.9683C69.0662 28.9683 69.1562 29.0583 69.1562 30.0663C69.1562 37.5003 69.1562 44.9253 69.1562 52.3593C69.1562 53.4123 69.0752 53.4843 68.0132 53.4843C60.7412 53.4843 53.4603 53.4843 46.1883 53.4843H45.3783C45.0542 54.4833 44.7573 54.7083 43.7493 54.7083C42.8583 54.7083 41.9583 54.6723 41.0673 54.7173C40.3653 54.7533 39.8433 54.5193 39.3843 54.0063C39.1953 53.7903 39.0423 53.4843 38.6733 53.4843C36.9993 53.4843 35.3253 53.4843 33.6513 53.4843V76.7313H80.1362V27.7803H33.6243V28.9683H33.6423ZM29.9523 30.2283C29.9523 31.2093 29.9523 32.2173 29.9613 33.2253C29.9613 33.3423 30.1053 33.4773 30.2133 33.5853C30.9423 34.3053 31.3563 35.1873 31.6353 36.1593C32.3913 38.7513 33.1743 41.3343 33.9573 43.9083C34.0383 44.1603 34.0473 44.4573 34.3353 44.6283C35.0823 45.0513 35.8113 45.5103 36.5673 45.9603C38.0613 43.8093 39.5103 41.7123 40.9683 39.6153C41.7693 38.4633 41.9762 38.4633 42.7952 39.6423C43.8932 41.2353 44.9913 42.8283 46.1433 44.4843C46.3233 44.2413 46.4762 44.0523 46.6203 43.8453C48.7533 40.7673 50.8862 37.6803 53.0193 34.6023C53.7122 33.6033 53.9733 33.6033 54.6663 34.6023C58.1313 39.6153 61.6053 44.6193 65.0703 49.6323C65.2863 49.9473 65.6643 50.2443 65.3943 50.7213C65.1513 51.1443 64.7373 51.0363 64.3593 51.0363C57.8523 51.0363 51.3363 51.0363 44.8293 51.0363C44.5683 51.0363 44.2893 50.9643 44.0733 51.0903C44.3703 52.1163 45.0543 52.2873 45.9993 52.2783C53.0193 52.2423 60.0392 52.2603 67.0592 52.2603H67.9052V30.2283H29.9523ZM33.6693 19.1853V26.4753H80.1452V19.1853H33.6693ZM31.4193 39.6963C31.0683 38.5083 30.7443 37.4193 30.4113 36.3213C29.7993 34.3233 28.3773 33.2613 26.2713 33.2613C23.5893 33.2613 20.9163 33.2613 18.2343 33.2613C15.7053 33.2613 14.0313 34.9533 14.0223 37.4913C14.0223 40.5783 14.0223 43.6653 14.0223 46.7523C14.0223 46.9413 13.9323 47.1663 14.0763 47.2833H26.2623C26.2623 45.1863 26.2623 43.1433 26.2623 41.1003C26.2623 39.9753 26.2623 38.8503 26.2623 37.7343C26.2623 37.3563 26.3703 37.0593 26.7573 36.9783C27.1803 36.8883 27.4143 37.1493 27.5223 37.5453C27.5763 37.7433 27.6393 37.9323 27.7023 38.1303C27.9723 38.9673 28.2423 39.7953 28.5213 40.6773C29.5113 40.3353 30.4203 40.0293 31.4193 39.6873V39.6963ZM28.8723 41.8653C29.2053 42.9273 29.5023 43.8993 29.8083 44.8713C30.2493 46.2663 31.1043 47.3373 32.3553 48.0933C33.1833 48.5883 34.0383 49.0473 34.8393 49.5873C36.7113 50.8383 38.8893 51.6483 40.4643 53.3403C40.5273 53.4123 40.6353 53.4753 40.7163 53.4753C41.8143 53.4843 42.9123 53.4753 44.0283 53.4753C43.1283 51.6483 41.7783 50.4333 40.1133 49.4973C37.9623 48.2823 35.8833 46.9593 33.7503 45.7083C33.2733 45.4293 33.0033 45.0783 32.8593 44.5563C32.5173 43.3413 32.1393 42.1263 31.7613 40.8753C30.7713 41.2173 29.8353 41.5323 28.8723 41.8653ZM41.8683 40.4703C40.4283 42.5583 39.0423 44.5563 37.6383 46.5903C38.4843 47.1033 39.3213 47.4993 40.0323 48.0573C41.9493 49.5693 44.0823 50.1273 46.4853 49.8123C47.0703 49.7313 47.6643 49.8753 48.2943 49.7313C46.1433 46.6263 44.0283 43.5753 41.8773 40.4703H41.8683ZM29.9703 52.2243H36.7923C34.5153 50.6493 32.0133 49.6143 29.9703 47.7693V52.2243ZM21.9153 32.0193C21.9513 31.6053 21.9513 31.5963 21.6363 31.2903C21.4383 31.0923 21.3393 30.8763 21.4383 30.6063C21.5283 30.3723 21.6813 30.2193 21.9423 30.2013C22.0953 30.1923 22.2483 30.2013 22.4013 30.1923C23.3643 30.1653 23.8053 29.7333 23.8143 28.7883C23.8233 28.1313 23.8143 27.4653 23.8143 26.7453C23.3823 26.8533 23.0043 26.9523 22.6353 27.0423C22.4733 27.7893 22.8333 28.5813 22.2393 29.2023C21.6543 29.8143 20.8353 29.4273 20.1873 29.6253V32.0013H21.9063L21.9153 32.0193ZM37.9083 14.8473C37.8993 14.1813 37.3413 13.6413 36.6843 13.6503C35.9913 13.6503 35.4333 14.2443 35.4693 14.9373C35.5053 15.5943 36.0723 16.1253 36.7293 16.0983C37.3863 16.0713 37.9173 15.5133 37.9083 14.8563V14.8473ZM41.5983 16.0983C42.2553 16.0983 42.8043 15.5493 42.8133 14.8833C42.8133 14.2173 42.2823 13.6683 41.6253 13.6503C40.9323 13.6323 40.3563 14.2083 40.3743 14.9013C40.3923 15.5583 40.9413 16.0983 41.6073 16.0983H41.5983ZM47.7093 14.8563C47.7002 14.1903 47.1513 13.6503 46.4853 13.6503C45.7923 13.6503 45.2343 14.2353 45.2613 14.9283C45.2883 15.5853 45.8553 16.1163 46.5213 16.0983C47.1782 16.0803 47.7183 15.5223 47.7093 14.8563Z" fill="white"/>
<path id="Vector_2" d="M66.1321 55.4219C70.0111 55.4219 73.8901 55.4219 77.7691 55.4219C78.9031 55.4219 78.9571 55.4759 78.9571 56.5739C78.9571 61.1459 78.9571 65.7089 78.9571 70.2809C78.9571 71.2439 78.8491 71.3519 77.9221 71.3519C70.0381 71.3519 62.1541 71.3519 54.2611 71.3519C53.3251 71.3519 53.2261 71.2439 53.2261 70.2809C53.2261 65.6909 53.2261 61.0919 53.2261 56.5019C53.2261 55.5119 53.3161 55.4309 54.3421 55.4309C58.2751 55.4309 62.1991 55.4309 66.1321 55.4309V55.4219ZM71.6041 63.3509C71.5951 60.3269 69.1021 57.8609 66.0781 57.8699C63.0181 57.8789 60.5521 60.3899 60.5791 63.4589C60.6061 66.4739 63.1081 68.9219 66.1501 68.8949C69.1741 68.8679 71.6221 66.3839 71.6041 63.3509Z" fill="white"/>
<path id="Vector_3" d="M56.9071 72.585C63.8731 72.585 70.8391 72.585 77.8141 72.585C78.9121 72.585 78.9661 72.639 78.9661 73.773C78.9661 74.331 78.9661 74.898 78.9661 75.456C78.9661 75.987 78.7411 76.275 78.1921 76.266C78.0391 76.266 77.8861 76.266 77.7331 76.266C63.8461 76.266 49.9591 76.266 36.0811 76.266C34.8751 76.266 34.8481 76.239 34.8481 74.997C34.8481 74.592 34.8481 74.178 34.8481 73.773C34.8481 72.639 34.9021 72.585 36.0001 72.585C38.9881 72.585 41.9761 72.585 44.9551 72.585H56.8981H56.9071Z" fill="white"/>
<path id="Vector_4" d="M43.4971 63.9993C45.9991 63.9993 48.5011 63.9993 51.0031 63.9993C51.8941 63.9993 52.0111 64.1163 52.0111 65.0253C52.0111 66.8163 51.9931 68.5983 52.0201 70.3803C52.0291 71.1183 51.7321 71.3613 51.0121 71.3613C45.9631 71.3433 40.9051 71.3613 35.8561 71.3523C34.9651 71.3523 34.8571 71.2353 34.8481 70.3263C34.8481 68.5353 34.8661 66.7533 34.8391 64.9713C34.8301 64.2333 35.1271 63.9903 35.8381 63.9993C38.3941 64.0263 40.9411 64.0083 43.4971 64.0083V63.9993Z" fill="white"/>
<path id="Vector_5" d="M37.8813 56.6457C39.5733 56.6277 40.9593 57.9867 40.9773 59.6787C40.9953 61.3707 39.6273 62.7567 37.9443 62.7747C36.2523 62.7927 34.8663 61.4247 34.8483 59.7417C34.8303 58.0497 36.1893 56.6637 37.8813 56.6457Z" fill="white"/>
<path id="Vector_6" d="M47.061 61.5511C45.729 61.5511 44.406 61.5511 43.074 61.5511C42.624 61.5511 42.21 61.4791 42.21 60.9301C42.21 60.3811 42.615 60.3091 43.074 60.3181C45.756 60.3181 48.438 60.3181 51.12 60.3181C51.57 60.3181 51.984 60.3901 51.984 60.9391C51.984 61.4791 51.579 61.5601 51.12 61.5601C49.77 61.5511 48.411 61.5601 47.061 61.5601V61.5511Z" fill="white"/>
<path id="Vector_7" d="M46.4488 59.1031C45.2968 59.1031 44.1537 59.1031 43.0017 59.1031C42.5607 59.1031 42.2188 58.9771 42.2188 58.4911C42.2188 58.0051 42.5607 57.8701 43.0017 57.8701C45.3237 57.8701 47.6458 57.8701 49.9678 57.8701C50.4088 57.8701 50.7508 57.9961 50.7598 58.4821C50.7598 58.9681 50.4177 59.1031 49.9767 59.1031C48.8067 59.0941 47.6277 59.1031 46.4577 59.1031H46.4488Z" fill="white"/>
<path id="Vector_8" d="M36.0808 32.1387C38.1148 32.1387 39.7618 33.8217 39.7438 35.8647C39.7258 37.8627 38.0608 39.4917 36.0538 39.4917C34.0198 39.4917 32.3728 37.8087 32.3908 35.7657C32.4088 33.7677 34.0738 32.1387 36.0808 32.1387Z" fill="white"/>
<path id="Vector_9" d="M64.2061 22.968C63.6571 23.652 62.6131 24.129 63.0991 25.344H59.9491C60.2911 24.237 59.4811 23.634 58.7251 22.923C59.3551 22.518 59.5531 21.717 60.4171 21.699C63.1351 21.645 63.1351 21.636 64.2061 22.959V22.968Z" fill="white"/>
<path id="Vector_10" d="M55.0438 21.7715V25.3445H51.4438V21.7715H55.0438Z" fill="white"/>
<path id="Vector_11" d="M40.3378 25.3715H36.7828C36.3238 23.4995 36.5578 22.9865 38.4568 21.7715C40.3378 22.6175 40.4188 22.7615 40.3378 25.3715Z" fill="white"/>
<path id="Vector_12" d="M47.7088 23.5616C47.7088 24.5696 46.8538 25.4066 45.8458 25.3886C44.8378 25.3706 44.0098 24.5156 44.0368 23.5076C44.0638 22.5356 44.8828 21.7256 45.8638 21.7256C46.8718 21.7256 47.7088 22.5626 47.7088 23.5706V23.5616Z" fill="white"/>
<path id="Vector_13" d="M71.0101 25.3616H67.3741C67.2661 25.1546 67.2931 24.9206 67.3471 24.7226C67.5811 23.9666 67.9591 23.2646 68.0761 22.4546C68.1481 21.9416 68.6701 21.7076 69.1921 21.7256C69.7231 21.7436 70.2001 22.0226 70.2631 22.5356C70.3621 23.2736 70.6591 23.9216 70.9291 24.5876C71.0191 24.8126 70.9831 25.0826 71.0011 25.3616H71.0101Z" fill="white"/>
<path id="Vector_14" d="M75.9511 21.717C76.3381 21.717 76.7161 21.717 77.1031 21.717C77.4991 21.726 77.7241 21.951 77.7241 22.338C77.7241 22.689 77.5171 22.923 77.1481 22.923C76.3021 22.941 75.4651 22.941 74.6191 22.923C74.2591 22.914 74.0611 22.662 74.0701 22.311C74.0791 21.96 74.2771 21.735 74.6461 21.717C75.0781 21.699 75.5101 21.717 75.9511 21.717Z" fill="white"/>
<path id="Vector_15" d="M75.8972 24.1739C76.3022 24.1739 76.7162 24.1649 77.1212 24.1739C77.5172 24.1919 77.7332 24.4259 77.7152 24.8219C77.6972 25.1729 77.4812 25.3889 77.1212 25.3889C76.3022 25.3979 75.4832 25.3979 74.6732 25.3889C74.2772 25.3889 74.0612 25.1369 74.0792 24.7499C74.0972 24.3989 74.3132 24.1919 74.6732 24.1829C75.0782 24.1739 75.4922 24.1829 75.8972 24.1829V24.1739Z" fill="white"/>
<path id="Vector_16" d="M64.2599 63.18C64.2599 62.514 64.2509 61.857 64.2599 61.191C64.2779 60.372 64.6919 60.111 65.3669 60.525C66.4739 61.2 67.5719 61.884 68.6609 62.586C69.3629 63.036 69.3539 63.432 68.6339 63.9C67.5629 64.584 66.4919 65.259 65.4029 65.916C64.6739 66.357 64.2689 66.114 64.2599 65.232C64.2509 64.548 64.2599 63.855 64.2599 63.171V63.18Z" fill="white"/>
</g>
</svg>
