<svg width="75" height="75" viewBox="0 0 75 75" fill="none" xmlns="http://www.w3.org/2000/svg">
<g id="Custom Content Creation 1">
<path id="Vector" d="M27.315 63.8921V56.5271H11.6925C8.61 56.5271 6.6825 54.6146 6.6825 51.5546V20.3621C6.6825 17.3621 8.6175 15.4271 11.6475 15.4121H15.6825V19.2896H11.61C10.7025 19.2896 10.5375 19.4396 10.5375 20.3321V48.0446C10.5375 48.2321 10.5375 48.4196 10.5375 48.6671H63V47.8121C63 43.5221 63 39.2321 63 34.9421C63.0157 34.3721 63.1674 33.8141 63.4425 33.3146C64.38 31.5971 65.385 29.9096 66.3675 28.2146C66.4862 27.9846 66.6586 27.7865 66.87 27.6371V51.4346C66.87 54.6296 64.9575 56.5271 61.74 56.5271H46.3125V63.8921H47.0625C49.095 63.8921 51.135 63.8921 53.1675 63.8921C54.1185 63.8587 55.0565 64.1207 55.8525 64.6421C56.2762 64.9082 56.6253 65.2778 56.8667 65.716C57.1081 66.1543 57.234 66.6468 57.2325 67.1471V70.1471H16.365C16.2973 68.9631 16.2973 67.7761 16.365 66.5921C16.545 65.0921 18.0525 63.9821 19.8225 63.9221C22.005 63.8546 24.1875 63.9221 26.37 63.9221L27.315 63.8921Z" fill="white"/>
<path id="Vector_2" d="M49.395 6.90654C49.2027 7.41829 48.9824 7.91905 48.735 8.40654C48.4812 8.76508 48.3449 9.19353 48.3449 9.63279C48.3449 10.0721 48.4812 10.5005 48.735 10.859C49.1736 11.7474 49.5446 12.6675 49.845 13.6115C49.9564 13.8573 50.1394 14.0638 50.37 14.204C50.7423 14.381 51.1256 14.5338 51.5175 14.6615C52.8075 15.1565 52.8075 15.1565 52.8075 16.5815C52.8075 17.504 52.8075 18.4265 52.8075 19.3415C52.8075 19.7015 52.755 19.964 52.3575 20.039C51.546 20.1297 50.7896 20.494 50.2129 21.0721C49.6362 21.6501 49.2737 22.4074 49.185 23.219C49.1032 23.6249 48.9258 24.0055 48.6675 24.329C48.4355 24.6304 48.3053 24.9978 48.2959 25.378C48.2865 25.7582 48.3982 26.1315 48.615 26.444C49.425 28.124 49.365 28.139 48.045 29.4815C47.5125 30.014 46.965 30.5315 46.455 31.079C46.3629 31.2196 46.2191 31.3182 46.0548 31.3533C45.8905 31.3884 45.7189 31.3572 45.5775 31.2665C44.9233 30.8113 44.1791 30.5018 43.395 30.359C42.645 30.359 41.955 30.929 41.235 31.244C41.0044 31.3661 40.7566 31.4521 40.5 31.499C39.9203 31.5497 39.3769 31.8031 38.9655 32.2145C38.554 32.626 38.3006 33.1693 38.25 33.749C38.2365 33.9321 38.1826 34.1099 38.0924 34.2697C38.0021 34.4295 37.8776 34.5674 37.7278 34.6735C37.578 34.7796 37.4066 34.8512 37.2259 34.8833C37.0452 34.9154 36.8596 34.9071 36.6825 34.859C35.6661 34.7915 34.6463 34.7915 33.63 34.859C33.2175 34.859 32.9925 34.7315 32.88 34.3415C32.5275 32.6765 31.68 31.5365 29.88 31.289C29.4525 31.2119 29.0521 31.0259 28.7175 30.749C28.3982 30.5002 28.0081 30.3596 27.6035 30.3474C27.1989 30.3353 26.801 30.4523 26.4675 30.6815C24.855 31.4315 24.84 31.4315 23.5425 30.1415C22.98 29.5715 22.395 29.0315 21.8625 28.4315C21.7794 28.3275 21.7213 28.2058 21.6927 28.0757C21.6641 27.9457 21.6657 27.8108 21.6975 27.6815C21.99 26.9315 22.6275 26.129 22.62 25.349C22.6125 24.569 21.9975 23.849 21.6525 23.0615C21.5209 22.8024 21.4226 22.5278 21.36 22.244C21.2175 21.134 20.535 20.654 19.5225 20.3315C18.0225 19.859 18.0225 19.799 18.0225 18.254C18.0225 17.354 18.0225 16.454 18.0225 15.5615C18.0441 15.4348 18.0928 15.3143 18.1652 15.2081C18.2377 15.102 18.3323 15.0128 18.4425 14.9465C19.1025 14.639 19.8 14.4365 20.46 14.1365C20.7009 14.0082 20.8913 13.802 21 13.5515C21.5175 12.3815 22.005 11.1965 22.5 10.0115C22.5858 9.75349 22.5858 9.4746 22.5 9.21654C22.3071 8.61834 22.0559 8.04056 21.75 7.49154C21.4425 6.95904 21.5925 6.64404 21.9975 6.26904C22.8375 5.51904 23.64 4.67904 24.42 3.85404C24.4675 3.78081 24.5305 3.71897 24.6047 3.67295C24.6789 3.62694 24.7623 3.59787 24.849 3.58784C24.9357 3.57781 25.0235 3.58706 25.1063 3.61492C25.189 3.64279 25.2645 3.68859 25.3275 3.74904C26.7825 4.73904 28.23 4.85904 29.6775 3.74904C29.8145 3.64387 29.9781 3.57895 30.15 3.56154C31.7475 3.37404 32.4975 2.36154 32.7975 0.899041C32.9325 0.246541 33.2925 0.0290408 33.975 0.0740408C35.085 0.141541 36.225 0.0740408 37.3125 0.0740408C37.6875 0.0740408 37.9125 0.164041 37.9875 0.546541C38.0746 1.36354 38.4381 2.12629 39.0177 2.70864C39.5973 3.29098 40.3584 3.65802 41.175 3.74904C41.627 3.84607 42.0506 4.04628 42.4125 4.33404C42.683 4.52654 43.0067 4.62998 43.3387 4.62998C43.6707 4.62998 43.9945 4.52654 44.265 4.33404C46.0875 3.47904 46.095 3.50904 47.5425 4.94904L49.0425 6.49404C49.1925 6.62904 49.2825 6.74904 49.395 6.90654ZM24.5325 17.5115C24.5384 19.6751 25.1856 21.7884 26.3922 23.5842C27.5989 25.3801 29.3108 26.7779 31.3117 27.6011C33.3125 28.4243 35.5125 28.6358 37.6336 28.209C39.7547 27.7822 41.7016 26.7362 43.2283 25.2031C44.7551 23.6701 45.7931 21.7189 46.2112 19.5961C46.6293 17.4733 46.4087 15.2742 45.5773 13.2767C44.7459 11.2793 43.341 9.57308 41.5402 8.37383C39.7394 7.17458 37.6235 6.53608 35.46 6.53904C34.0217 6.54101 32.5979 6.82649 31.2701 7.37916C29.9423 7.93183 28.7364 8.74084 27.7215 9.75993C26.7066 10.779 25.9026 11.9882 25.3554 13.3183C24.8081 14.6484 24.5285 16.0733 24.5325 17.5115Z" fill="white"/>
<path id="Vector_3" d="M63.4424 15.3145L69.2249 18.6595L58.6049 37.042L52.8149 33.7045L63.4424 15.3145Z" fill="white"/>
<path id="Vector_4" d="M51.6 39.6748V35.7148L57.4125 39.0523C56.9775 39.3223 56.6625 39.5548 56.2725 39.8023C55.02 40.5523 53.8425 41.5573 52.5225 41.9323C51.2025 42.3073 49.635 42.0448 48.1875 42.0448H22.1925C21.975 42.0448 21.7575 42.0448 21.54 42.0448C21.3787 42.0604 21.2159 42.0424 21.0618 41.9921C20.9078 41.9418 20.7657 41.8603 20.6446 41.7525C20.5235 41.6448 20.426 41.5133 20.3581 41.3661C20.2902 41.219 20.2534 41.0594 20.25 40.8973C20.2509 40.7326 20.2849 40.5697 20.3499 40.4183C20.415 40.267 20.5098 40.1302 20.6287 40.0162C20.7476 39.9022 20.8882 39.8132 21.0422 39.7546C21.1962 39.6959 21.3604 39.6688 21.525 39.6748H51.6Z" fill="white"/>
<path id="Vector_5" d="M64.605 13.2899C65.2275 12.2249 65.7675 11.2199 66.375 10.2899C66.7577 9.66258 67.3718 9.21098 68.0847 9.03275C68.7977 8.85452 69.5521 8.96397 70.185 9.33744C70.485 9.49494 70.7775 9.66744 71.07 9.83994C71.6821 10.1787 72.1413 10.7389 72.3533 11.4056C72.5653 12.0723 72.514 12.7949 72.21 13.4249C71.6925 14.5124 71.04 15.5324 70.4025 16.6649L64.605 13.2899Z" fill="white"/>
<path id="Vector_6" d="M55.2075 19.2902V15.4727H60.645C60.2373 16.0728 59.8787 16.7049 59.5725 17.3627C58.98 18.9827 57.915 19.6127 56.22 19.3052C55.8837 19.2694 55.5448 19.2643 55.2075 19.2902Z" fill="white"/>
<path id="Vector_7" d="M31.26 17.4827C31.26 16.1552 31.26 14.8202 31.26 13.4852C31.2203 13.172 31.2734 12.854 31.4128 12.5707C31.5521 12.2874 31.7716 12.0512 32.0439 11.8915C32.3162 11.7318 32.6295 11.6555 32.9448 11.6722C33.26 11.6888 33.5635 11.7977 33.8175 11.9852C36.1275 13.2902 38.4375 14.6252 40.7325 15.9677C41.0223 16.097 41.2684 16.3075 41.4412 16.5736C41.6139 16.8398 41.7058 17.1504 41.7058 17.4677C41.7058 17.785 41.6139 18.0956 41.4412 18.3618C41.2684 18.628 41.0223 18.8384 40.7325 18.9677C38.4575 20.3227 36.1725 21.6502 33.8775 22.9502C32.5125 23.7002 31.275 22.9502 31.26 21.4052C31.2525 20.1002 31.26 18.7877 31.26 17.4827Z" fill="white"/>
</g>
</svg>
