<svg width="60" height="60" viewBox="0 0 60 60" fill="none" xmlns="http://www.w3.org/2000/svg">
<g id="Dedicated Design Experts 1">
<path id="Vector" d="M6.42583 54.1257C6.3437 51.4676 6.77771 48.8187 7.70383 46.3257C10.4278 38.9037 15.6718 34.0197 23.0998 31.4097C23.2144 31.3779 23.3306 31.3519 23.4478 31.3317C24.1378 36.9357 24.8278 42.5217 25.5238 48.2037C25.5915 48.094 25.6516 47.9797 25.7038 47.8617C27.0118 43.9537 28.3118 40.0397 29.6038 36.1197C29.6327 36.0033 29.638 35.8823 29.6195 35.7638C29.6009 35.6454 29.5589 35.5318 29.4958 35.4297C28.8958 34.4757 28.1998 33.5457 27.5578 32.5977C27.4241 32.4092 27.343 32.1884 27.3229 31.958C27.3027 31.7277 27.3443 31.4962 27.4432 31.2873C27.5422 31.0783 27.695 30.8995 27.886 30.7692C28.077 30.6389 28.2992 30.5617 28.5298 30.5457C30.3898 30.4977 32.2558 30.5457 34.1158 30.5457C34.3752 30.5534 34.6267 30.6364 34.8397 30.7845C35.0528 30.9325 35.2182 31.1394 35.3158 31.3797C35.4045 31.5937 35.4244 31.8299 35.3728 32.0557C35.3212 32.2814 35.2006 32.4856 35.0278 32.6397C34.3018 33.5697 33.5818 34.4997 32.8798 35.4477C32.8148 35.5321 32.7675 35.6288 32.7407 35.7319C32.7139 35.8349 32.7081 35.9424 32.7238 36.0477C34.0318 40.0317 35.3638 44.0097 36.6898 47.9877C36.7311 48.0748 36.7814 48.1572 36.8398 48.2337C37.4398 42.8337 38.0398 37.5177 38.6398 32.1537C38.7719 32.1841 38.9022 32.2221 39.0298 32.2677C46.8778 35.7677 51.6198 41.7317 53.2558 50.1597C53.4392 51.4745 53.5474 52.7987 53.5798 54.1257H6.42583ZM19.4518 48.8637C19.4518 47.4117 19.4878 45.9897 19.4518 44.5617C19.4201 44.293 19.2842 44.0474 19.0732 43.878C18.8622 43.7085 18.5931 43.6287 18.3238 43.6557C17.4718 43.6257 16.6138 43.6557 15.7618 43.6557C14.7118 43.6557 14.2858 44.0997 14.2738 45.1617C14.2618 46.2237 14.2738 47.2797 14.2738 48.3357C14.2738 48.5157 14.2738 48.6957 14.2738 48.8817L19.4518 48.8637Z" fill="white"/>
<path id="Vector_2" d="M29.9998 27.8876C27.404 27.8864 24.8669 27.1153 22.7094 25.6719C20.5519 24.2285 18.8709 22.1777 17.8792 19.7788C16.8875 17.3799 16.6295 14.7408 17.138 12.1953C17.6464 9.64977 18.8984 7.31225 20.7356 5.47842C22.5728 3.64459 24.9126 2.39686 27.4591 1.89307C30.0055 1.38927 32.6442 1.65205 35.0412 2.64816C37.4383 3.64427 39.4861 5.32896 40.9255 7.48909C42.3649 9.64923 43.1313 12.1878 43.1278 14.7836C43.1183 18.2602 41.7313 21.5913 39.2707 24.0474C36.8101 26.5035 33.4764 27.8844 29.9998 27.8876Z" fill="white"/>
</g>
</svg>
