<?xml version="1.0" encoding="UTF-8"?>
<svg id="Layer_1" xmlns="http://www.w3.org/2000/svg" viewBox="0 0 100 100">
  <defs>
    <style>
      .cls-1 {
        fill: #010101;
      }
    </style>
  </defs>
  <path class="cls-1" d="M47.04,97.5c-.69-.45-1.52-.36-2.28-.51-11.57-2.27-20.39-12.01-21.51-23.76-.29-2.99-.06-5.99-.16-9.06h14.79c.2.24.06.59.07.91.09,2.47-.18,4.95.17,7.41.84,5.77,5.98,10.16,11.89,10.16,5.91,0,11.06-4.4,11.91-10.16.15-.99.15-1.97.15-2.96,0-1.79,0-3.57,0-5.4h14.77c.3,6.7.26,13.32-3.23,19.36-4.64,8.01-11.5,12.7-20.73,13.82-.13.02-.24.03-.27.18h-5.57Z"/>
  <path class="cls-1" d="M97.5,41.65c-.74,1.61-2.01,2.08-3.73,2.07-6.95-.06-13.91-.03-20.86-.03-2.16,0-3.25-1.08-3.24-3.24.01-2.4-.17-4.82.56-7.17.78-2.5,2.1-4.64,4.1-6.44,2.6,2.5,5.66,3.86,9.25,3.86,3.56,0,6.61-1.32,9.21-3.81.66.35,1.1.96,1.56,1.51,1.57,1.89,2.54,4.07,2.97,6.49.03.16-.06.39.19.46v6.31Z"/>
  <path class="cls-1" d="M40.75,19.05c5.28,5.15,13.28,5.1,18.46.04.65.36,1.1.96,1.56,1.52,2.04,2.51,3.09,5.38,3.14,8.62.02,1.27.02,2.54,0,3.8-.03,1.68-1.19,2.86-2.87,2.86-7.36.01-14.72.01-22.08,0-1.46,0-2.75-.94-2.81-2.31-.14-3.11-.34-6.25.88-9.24.83-2.03,2.01-3.81,3.72-5.3Z"/>
  <path class="cls-1" d="M25.68,26.83c2.44,2.23,3.93,4.92,4.47,8.14.34,2.03.2,4.07.16,6.11-.03,1.54-1.28,2.61-2.92,2.61-4.2.01-8.41,0-12.61,0-3.06,0-6.12,0-9.18,0-1.97,0-3.09-1.13-3.08-3.12.01-2.44-.18-4.88.55-7.27.75-2.49,2.31-4.98,4.14-6.43,2.56,2.46,5.61,3.82,9.2,3.82,3.59,0,6.66-1.34,9.29-3.87Z"/>
  <path class="cls-1" d="M49.99,2.5c4.09,0,7.43,3.32,7.43,7.41,0,4.09-3.32,7.43-7.41,7.43-4.09,0-7.43-3.32-7.43-7.41,0-4.09,3.32-7.43,7.4-7.43Z"/>
  <path class="cls-1" d="M9.01,17.7c0-4.09,3.34-7.41,7.43-7.4,4.09,0,7.41,3.34,7.4,7.44,0,4.09-3.34,7.41-7.44,7.4-4.08,0-7.41-3.35-7.4-7.44Z"/>
  <path class="cls-1" d="M91,17.76c-.02,4.08-3.37,7.4-7.46,7.38-4.08-.02-7.39-3.37-7.37-7.46.02-4.08,3.37-7.39,7.46-7.38,4.08.02,7.39,3.37,7.37,7.46Z"/>
  <path class="cls-1" d="M37.94,58.52h-14.84c0-1.17,0-2.33,0-3.49,0-1.57-.01-3.15,0-4.72.02-1.69,1.17-2.88,2.83-2.89,3.06-.02,6.11-.02,9.17,0,1.56,0,2.79,1.11,2.82,2.61.05,2.8.02,5.61.02,8.5Z"/>
  <path class="cls-1" d="M76.9,58.52h-14.84c0-1.49,0-2.96,0-4.42,0-1.24,0-2.47,0-3.71.01-1.8,1.15-2.97,2.93-2.98,2.99-.01,5.99-.01,8.98,0,1.62,0,2.87,1.08,2.9,2.62.06,2.56.02,5.13.02,7.69,0,.24,0,.48,0,.8Z"/>
</svg>