<?xml version="1.0" encoding="utf-8"?>
<!-- Generator: Adobe Illustrator 26.5.0, SVG Export Plug-In . SVG Version: 6.00 Build 0)  -->
<svg version="1.1" id="Layer_1" xmlns="http://www.w3.org/2000/svg" xmlns:xlink="http://www.w3.org/1999/xlink" x="0px" y="0px"
	 viewBox="0 0 100 100" style="enable-background:new 0 0 100 100;" xml:space="preserve">
<style type="text/css">
	.st0{fill:#FFFFFF;}
</style>
<path class="st0" d="M20.5,36.9v32.5c0,2.8,2.3,5.1,5.1,5.1h27.3c-3.2-4.8-4.3-11.2-1.8-17.8c1.8-4.6,5.4-8.3,10-10
	c6.6-2.5,13-1.5,17.8,1.8V36.9H20.5z M39.3,64H31v-4.2h8.4V64z M39.3,51.5H31v-4.2h8.4V51.5z"/>
<path class="st0" d="M82,58c-1.4-3.4-4.1-6.1-7.4-7.4C62,45.5,50.1,57.4,55.1,70c1.4,3.4,4.1,6.1,7.4,7.4C75.1,82.5,87.1,70.6,82,58
	z M76.8,60.8l-9.4,9.4c-0.5,0.5-1.4,0.5-1.9,0L60.3,65c-0.5-0.5-0.5-1.4,0-1.9l1.1-1c0.5-0.5,1.4-0.5,1.9,0l2.3,2.3
	c0.5,0.5,1.4,0.5,1.9,0l6.5-6.5c0.5-0.5,1.4-0.5,1.9,0l1.1,1.1C77.3,59.4,77.4,60.2,76.8,60.8z"/>
<path class="st0" d="M79,25.3v7.4H20.5v-7.4c0-2.8,2.3-5.1,5.1-5.1h7.4V16h4.2v4.2h25.1V16h4.2v4.2h7.4C76.7,20.2,79,22.5,79,25.3z"
	/>
</svg>
