<svg width="83" height="83" viewBox="0 0 83 83" fill="none" xmlns="http://www.w3.org/2000/svg">
<g id="Eye-catching thumbnails 1">
<path id="Vector" d="M78.8748 70.5582C78.6258 70.691 78.659 70.9649 78.576 71.1807C77.9037 72.9486 76.2188 74.1521 74.3181 74.2019C74.2434 74.2019 74.1687 74.2019 74.1023 74.2019C52.3729 74.2019 30.6518 74.2019 8.9224 74.2019C6.4905 74.2019 4.623 72.6498 4.1914 70.2843C4.125 69.9274 4.125 69.5622 4.125 69.197C4.125 50.7295 4.125 32.262 4.125 13.7862C4.125 10.7318 6.0838 8.78125 9.1382 8.78125C30.6933 8.78125 52.2484 8.78125 73.8035 8.78125C76.4429 8.78125 77.995 9.95155 78.7586 12.508C78.7669 12.5412 78.8333 12.5578 78.8665 12.5827V70.5582H78.8748ZM41.5414 11.1302C30.7431 11.1302 19.9365 11.1302 9.1382 11.1302C7.3869 11.1302 6.4656 12.0349 6.4656 13.7613C6.4656 32.2537 6.4656 50.746 6.4656 69.2384C6.4656 70.9649 7.3952 71.8778 9.1382 71.8778C30.7182 71.8778 52.2982 71.8778 73.8699 71.8778C75.6461 71.8778 76.5425 70.9648 76.5425 69.172C76.5425 50.7294 76.5425 32.2869 76.5425 13.8443C76.5425 12.0266 75.6378 11.1302 73.7952 11.1302C63.0384 11.1302 52.2899 11.1302 41.5331 11.1302H41.5414Z" fill="white"/>
<path id="Vector_2" d="M45.9405 42.5877C46.9863 43.9323 47.9823 45.2271 48.9783 46.5053C49.3684 47.0033 49.4431 47.5262 49.053 48.0408C48.5716 48.6965 47.7084 48.655 47.1357 47.9329C45.6749 46.082 44.239 44.2145 42.7865 42.3553C39.5329 38.1721 36.2793 33.9889 33.0257 29.8057C31.8471 28.2868 30.0626 28.3117 28.9255 29.8472C23.5139 37.1844 18.1106 44.5216 12.6907 51.8505C12.2508 52.4481 12.1678 53.0374 12.4334 53.6765C12.7156 54.3654 13.3547 54.3571 13.9855 54.3571C31.1416 54.3571 48.2894 54.3571 65.4455 54.3571C66.6407 54.3571 67.1885 54.7223 67.1968 55.5191C67.1968 56.3159 66.649 56.6977 65.4621 56.6977C48.2811 56.6977 31.1084 56.6977 13.9274 56.6977C11.3461 56.6977 9.96826 55.3116 9.96826 52.7303C9.96826 41.3427 9.96826 29.9551 9.96826 18.5675C9.96826 16.036 11.3627 14.6416 13.8859 14.6416C32.3036 14.6416 50.7213 14.6416 69.139 14.6416C71.6207 14.6416 73.0317 16.0526 73.0317 18.5177C73.0317 30.0049 73.0317 41.4921 73.0317 52.9793C73.0317 54.963 71.7535 56.4736 69.9275 56.6811C69.0643 56.7807 68.4418 56.3657 68.3754 55.6353C68.3173 55.0045 68.7406 54.4899 69.4212 54.3654C70.4421 54.1828 70.6994 53.884 70.6994 52.8714C70.6994 41.4091 70.6994 29.9468 70.6994 18.4845C70.6994 17.3557 70.3093 16.9739 69.1473 16.9739C50.7047 16.9739 32.2621 16.9739 13.8195 16.9739C12.7405 16.9739 12.3006 17.364 12.3006 18.3683C12.3006 28.2453 12.3006 38.1306 12.3006 48.0076C12.3006 48.0989 12.3089 48.1819 12.3255 48.4309C13.1306 47.3436 13.8444 46.3808 14.5499 45.418C18.6916 39.7989 22.825 34.1881 26.9667 28.569C29.1662 25.581 32.6522 25.5229 34.9347 28.4445C37.9144 32.2542 40.8775 36.0805 43.8489 39.8985C44.0398 40.1475 44.239 40.3882 44.4631 40.6787C46.5381 38.031 48.5799 35.4414 50.6217 32.8435C51.5098 31.7064 52.6718 31.059 54.116 30.9926C55.6681 30.9179 56.9961 31.4989 57.9672 32.7024C61.7188 37.367 65.4372 42.0482 69.1639 46.7294C69.7034 47.41 69.6619 48.0823 69.0892 48.5305C68.5165 48.9787 67.8774 48.8542 67.3296 48.1653C63.7025 43.6252 60.0754 39.0768 56.4566 34.5367C55.1286 32.8767 53.5599 32.8933 52.2402 34.5782C50.1569 37.2342 48.0653 39.8902 45.9571 42.5877H45.9405Z" fill="white"/>
<path id="Vector_3" d="M50.7712 64.8651C44.762 64.8651 38.7611 64.8651 32.7519 64.8651C32.561 64.8651 32.3618 64.8734 32.1709 64.8651C31.4737 64.8153 31.0089 64.3505 31.0006 63.7114C30.9923 63.0723 31.4571 62.5909 32.146 62.5328C32.3369 62.5162 32.5361 62.5328 32.727 62.5328C44.8118 62.5328 56.8966 62.5328 68.9814 62.5328C69.0063 62.5328 69.0312 62.5328 69.0561 62.5328C70.16 62.5328 70.7161 62.9395 70.7078 63.7197C70.6912 64.4833 70.16 64.8651 69.0893 64.8651C62.9888 64.8651 56.88 64.8651 50.7795 64.8651H50.7712Z" fill="white"/>
<path id="Vector_4" d="M43.8658 20.4679C46.4471 20.4845 48.5304 22.601 48.5055 25.1906C48.4806 27.7719 46.3558 29.8386 43.7662 29.8137C41.2264 29.7888 39.1597 27.6806 39.1597 25.1242C39.1597 22.5429 41.2762 20.4513 43.8658 20.4679ZM43.8575 27.4731C45.1274 27.4648 46.1649 26.4107 46.1649 25.1325C46.1649 23.8709 45.1108 22.8085 43.8492 22.8002C42.5461 22.8002 41.4837 23.8709 41.5003 25.174C41.5252 26.4439 42.5793 27.4731 43.8575 27.4648V27.4731Z" fill="white"/>
<path id="Vector_5" d="M12.3006 63.7197C12.3006 62.5992 12.2923 61.487 12.3006 60.3665C12.3172 59.2128 13.1887 58.6816 14.1764 59.2626C16.0605 60.3665 17.928 61.487 19.7872 62.6324C20.7334 63.2134 20.7168 64.1928 19.7623 64.7738C17.928 65.9026 16.0771 67.0065 14.2179 68.1021C13.1804 68.708 12.3172 68.2017 12.3006 66.9982C12.2923 65.9026 12.3006 64.8153 12.3006 63.7197ZM14.6744 62.2838V65.1141C15.4878 64.6244 16.2265 64.1762 17.0399 63.6948C16.2099 63.1968 15.4795 62.7652 14.6744 62.2838Z" fill="white"/>
<path id="Vector_6" d="M26.3444 60.2002C28.2783 60.2168 29.8387 61.8187 29.8138 63.7692C29.7889 65.6616 28.187 67.222 26.2863 67.2054C24.3441 67.1805 22.7837 65.5786 22.8169 63.6364C22.8501 61.7357 24.4354 60.1919 26.3444 60.2002ZM27.4815 63.6862C27.4815 63.0554 26.9586 62.5325 26.3278 62.5325C25.6721 62.5325 25.1243 63.0803 25.1575 63.7443C25.1824 64.3751 25.7219 64.8814 26.3444 64.8648C26.9752 64.8482 27.4898 64.317 27.4815 63.6945V63.6862Z" fill="white"/>
</g>
</svg>
