<svg width="54" height="54" viewBox="0 0 54 54" fill="none" xmlns="http://www.w3.org/2000/svg">
<g id="goals 1">
<path id="Vector" d="M2.2085 43.384C2.4191 42.2824 3.0347 41.3752 3.6017 40.4464C7.3979 34.204 11.1887 27.9616 14.9903 21.7246C16.3943 19.4134 18.9917 18.5926 21.3299 19.6996C22.1507 20.0884 22.8095 20.6716 23.2793 21.4492C27.3887 28.1992 31.5143 34.933 35.5859 41.7046C37.3895 44.707 35.2187 48.4978 31.6871 48.6004C30.4775 48.6328 29.2733 48.6112 28.0637 48.6112C21.1571 48.6112 14.2451 48.6112 7.3385 48.6112C4.6115 48.6112 2.9753 47.353 2.2679 44.7232C2.2625 44.6962 2.2301 44.6746 2.2085 44.6476C2.2085 44.2264 2.2085 43.8106 2.2085 43.3894V43.384Z" fill="url(#paint0_linear_864_4555)"/>
<path id="Vector_2" d="M37.7678 48.5837C38.8046 47.1365 39.3392 45.6137 39.323 43.9127C39.3068 42.4439 38.864 41.1047 38.1026 39.8519C36.3422 36.9683 34.5926 34.0793 32.8268 31.2011C32.6432 30.9041 32.6162 30.6935 32.816 30.3857C33.3722 29.5217 33.8798 28.6253 34.4252 27.7505C36.3638 24.6185 40.7648 24.6077 42.6818 27.7505C45.4736 32.3243 48.2438 36.9089 50.9924 41.5043C52.8824 44.6579 50.69 48.5567 47.0126 48.5945C44.048 48.6269 41.0888 48.5999 38.1242 48.5999C38.0324 48.5999 37.9406 48.5891 37.7732 48.5837H37.7678Z" fill="url(#paint1_linear_864_4555)"/>
<path id="Vector_3" d="M26.9569 9.16373C27.6211 10.0007 28.2583 10.8053 28.9063 11.6045C29.1493 11.9015 29.2951 12.2039 29.1277 12.5765C28.9495 12.9761 28.5985 13.0409 28.2043 13.0355C25.9201 13.0301 23.6305 13.0355 21.3463 13.0355C21.1735 13.0355 21.0007 13.0355 20.7793 13.0355V16.1783H17.6743V15.7409C17.6743 12.8573 17.6743 9.97914 17.6743 7.09553C17.6743 5.91293 18.2791 5.30273 19.4455 5.30273C22.3615 5.30273 25.2721 5.30273 28.1881 5.30273C28.5823 5.30273 28.9387 5.35133 29.1223 5.74553C29.3059 6.13433 29.1385 6.45293 28.8901 6.75533C28.2475 7.53833 27.6211 8.33753 26.9569 9.16913V9.16373Z" fill="url(#paint2_linear_864_4555)"/>
</g>
<defs>
<linearGradient id="paint0_linear_864_4555" x1="29.7294" y1="22.3471" x2="9.08405" y2="46.2357" gradientUnits="userSpaceOnUse">
<stop stop-color="#18C8FF"/>
<stop offset="1" stop-color="#C608FF"/>
</linearGradient>
<linearGradient id="paint1_linear_864_4555" x1="48.0512" y1="27.8724" x2="31.9038" y2="41.0946" gradientUnits="userSpaceOnUse">
<stop stop-color="#18C8FF"/>
<stop offset="1" stop-color="#C608FF"/>
</linearGradient>
<linearGradient id="paint2_linear_864_4555" x1="26.9966" y1="6.46227" x2="19.2928" y2="14.6267" gradientUnits="userSpaceOnUse">
<stop stop-color="#18C8FF"/>
<stop offset="1" stop-color="#C608FF"/>
</linearGradient>
</defs>
</svg>
