<svg width="70" height="70" viewBox="0 0 70 70" fill="none" xmlns="http://www.w3.org/2000/svg">
<g id="Group creation -01 1">
<g id="Group">
<path id="Vector" d="M39.7604 23.6604C41.8604 24.9904 43.4004 27.2304 43.6804 29.8904C44.5204 30.3104 45.5004 30.5204 46.5504 30.5204C50.2604 30.5204 53.3404 27.5104 53.3404 23.7304C53.3404 20.0204 50.3304 16.9404 46.5504 16.9404C42.8404 17.0104 39.8304 20.0204 39.7604 23.6604ZM35.3504 37.5204C39.0604 37.5204 42.1404 34.5104 42.1404 30.7304C42.1404 26.9504 39.1304 23.9404 35.3504 23.9404C31.5704 23.9404 28.5604 26.9504 28.5604 30.7304C28.5604 34.5104 31.5704 37.5204 35.3504 37.5204ZM38.2204 38.0104H32.4804C27.7204 38.0104 23.8004 41.9304 23.8004 46.6904V53.6904V53.8304L24.2904 53.9704C28.8404 55.3704 32.8304 55.8604 36.0504 55.8604C42.4204 55.8604 46.1304 54.0404 46.3404 53.9004L46.7604 53.6904H46.9004V46.6904C46.9004 41.8604 42.9804 38.0104 38.2204 38.0104ZM49.4204 31.0104H43.7504C43.6804 33.3204 42.7004 35.3504 41.1604 36.8204C45.4304 38.0804 48.5104 42.0004 48.5104 46.6904V48.8604C54.1104 48.6504 57.4004 47.0404 57.6104 46.9704L58.0304 46.7604H58.1004V39.7604C58.1004 34.9304 54.1804 31.0104 49.4204 31.0104ZM23.4504 30.5204C24.7804 30.5204 26.0404 30.1004 27.0204 29.4704C27.3704 27.3004 28.4904 25.4104 30.1704 24.1504C30.1704 24.0104 30.1704 23.8704 30.1704 23.8004C30.1704 20.0904 27.1604 17.0104 23.3804 17.0104C19.6704 17.0104 16.5904 20.0204 16.5904 23.8004C16.7304 27.5104 19.7404 30.5204 23.4504 30.5204ZM29.5404 36.8204C28.0004 35.3504 27.0204 33.3204 26.9504 31.0104C26.7404 31.0104 26.5304 31.0104 26.3204 31.0104H20.5804C15.8204 31.0104 11.9004 34.9304 11.9004 39.6904V46.6904V46.8304L12.3904 46.9704C16.0304 48.0904 19.3204 48.6504 22.1204 48.7904V46.6904C22.1904 42.0004 25.2704 38.0804 29.5404 36.8204Z" fill="white"/>
</g>
<g id="Group_2">
<path id="Vector_2" d="M35.9805 10.5V15.75H41.0205V17.99H35.9805V23.31H33.6005V17.99H28.5605V15.75H33.6005V10.5H35.9805Z" fill="white"/>
</g>
</g>
</svg>
