<svg width="50" height="38" viewBox="0 0 50 38" fill="none" xmlns="http://www.w3.org/2000/svg">
<g id="Group 9105">
<path id="Vector" d="M41.8116 6.27772C41.6274 6.95669 41.4485 7.63039 41.2643 8.30936L36.201 6.49878C35.8168 6.36194 35.4167 6.29351 35.0115 6.29351C33.8746 6.29351 32.7956 6.85142 32.1377 7.79355C31.4798 8.72516 31.3166 9.92519 31.7061 10.9989L35.2588 20.936C34.7167 21.0939 34.1272 21.1729 33.4956 21.1729H12.5372C12.6951 21.9729 12.8056 22.7097 12.9951 23.4255C13.2004 24.2045 13.8267 24.6624 14.6373 24.6993C15.1636 24.7203 15.6952 24.7045 16.2268 24.7045C22.6164 24.7045 29.0008 24.7045 35.3904 24.7045C35.6062 24.7045 35.822 24.694 36.0378 24.7203C36.9431 24.8151 37.6221 25.5677 37.6273 26.4625C37.6273 27.3572 36.9589 28.1099 36.0536 28.2151C35.8589 28.2362 35.6641 28.2309 35.4641 28.2309C28.606 28.2309 21.748 28.2309 14.8899 28.2309C12.053 28.2309 9.96344 26.5098 9.43185 23.715C8.20024 17.257 6.97389 10.7989 5.75807 4.33557C5.64754 3.74082 5.36859 3.50923 4.76331 3.53028C3.80539 3.56713 2.84221 3.54607 1.88429 3.53555C0.789521 3.52502 0.00528963 2.78816 2.63344e-05 1.78287C-0.00523696 0.77758 0.778994 0.0249284 1.8685 0.0144018C2.96326 0.00387523 4.06329 -0.0119147 5.15806 0.0144018C6.60546 0.0512449 7.76865 0.677577 8.54762 1.90392C8.78973 2.28288 9.03184 2.3671 9.43712 2.3671C19.2321 2.35657 29.0324 2.35657 38.8274 2.36183C40.4642 2.36183 41.659 3.31449 41.9327 4.83032C42.0222 5.32507 41.938 5.80403 41.8116 6.27772Z" fill="white"/>
<path id="Vector_2" d="M37.0802 33.5838C37.0697 35.5312 35.4591 37.1155 33.5064 37.0944C31.5853 37.0734 30.0169 35.4786 30.0274 33.547C30.0379 31.5995 31.6485 30.0153 33.6012 30.0363C35.5223 30.0574 37.0907 31.6522 37.0802 33.5838Z" fill="white"/>
<path id="Vector_3" d="M13.5003 30.0363C15.4477 30.0468 17.0267 31.6679 17.0004 33.6206C16.9741 35.5417 15.374 37.1049 13.4477 37.0891C11.5003 37.0785 9.92127 35.4574 9.94759 33.5048C9.97391 31.5837 11.5739 30.0205 13.5003 30.0363Z" fill="white"/>
<path id="Vector_4" d="M49.6489 23.1782L48.3804 24.4467C48.1436 24.6835 47.833 24.7993 47.5278 24.7993C47.2225 24.7993 46.912 24.6835 46.6751 24.4467L42.3224 20.0939L40.496 23.1256C40.2855 23.4782 39.9328 23.6466 39.5802 23.6466C39.1539 23.6466 38.7328 23.3993 38.5644 22.9308L37.4065 19.6939L34.0011 10.1673C33.7379 9.43575 34.3064 8.73047 35.0064 8.73047C35.1274 8.73047 35.2485 8.75152 35.3748 8.79363L40.6223 10.6674L48.133 13.3516C48.9857 13.6569 49.1015 14.8148 48.3278 15.2833L45.2961 17.1096L49.6489 21.4624C50.1173 21.9361 50.1173 22.6993 49.6489 23.1677V23.1782Z" fill="white"/>
</g>
</svg>
