<?xml version="1.0" encoding="UTF-8"?>
<svg id="Layer_1" xmlns="http://www.w3.org/2000/svg" viewBox="0 0 100 100">
  <path d="M79,62.72c0-9.4.09-18.8-.04-28.2-.05-3.93,2.75-6.85,6.71-6.65,1.63.08,3.27,0,4.91.02,3.7.04,6.23,2.57,6.23,6.25,0,19.04,0,38.09,0,57.13,0,3.72-2.49,6.21-6.21,6.23-1.78,0-3.55,0-5.33,0-3.82-.01-6.26-2.44-6.27-6.26-.01-9.5,0-19.01,0-28.51Z"/>
  <path d="M46.27,73.19c0,5.96,0,11.91,0,17.87,0,4.03-2.4,6.42-6.42,6.43-1.78,0-3.55.01-5.33,0-3.54-.04-6.05-2.53-6.05-6.06-.01-12.19-.01-24.38,0-36.57,0-3.54,2.59-6.07,6.16-6.09,1.71,0,3.42.07,5.12-.02,3.75-.19,6.65,2.69,6.56,6.58-.14,5.95-.04,11.91-.04,17.87Z"/>
  <path d="M71.54,78.31c0,4.28,0,8.57,0,12.85,0,3.88-2.45,6.31-6.32,6.32-1.81,0-3.62.02-5.43,0-3.55-.04-6.04-2.51-6.05-6.06-.02-8.74-.02-17.48,0-26.22,0-3.5,2.45-5.98,5.94-6.07,1.98-.05,3.97-.05,5.95,0,3.43.09,5.88,2.59,5.9,6.01.02,4.39,0,8.78,0,13.16Z"/>
  <path d="M38.68,16.98c1.48.04,2.8.38,4.08.99,5.59,2.64,11.18,5.25,16.77,7.88,2.05.96,2.98.8,4.57-.78,7.09-7.09,14.19-14.18,21.27-21.28.71-.71,1.44-1.3,2.52-1.29,1.19.01,2.09.51,2.65,1.55.59,1.08.48,2.15-.23,3.14-.24.34-.55.63-.85.92-7.04,7.04-14.08,14.09-21.13,21.13-3.42,3.42-6.93,4.05-11.29,2-5.47-2.56-10.93-5.14-16.4-7.71-2.02-.95-3.02-.78-4.57.78-7.19,7.19-14.38,14.38-21.55,21.59-.97.97-2.03,1.46-3.38,1.03-1.96-.63-2.67-2.94-1.43-4.58.17-.22.37-.42.56-.62,7.34-7.34,14.68-14.68,22.01-22.02,1.79-1.79,3.95-2.67,6.39-2.74Z"/>
  <path d="M21,86.48c0,1.67.03,3.34,0,5.01-.06,3.5-2.52,5.95-6.01,5.99-1.91.02-3.83.02-5.74,0-3.52-.04-6.04-2.55-6.06-6.06-.02-3.34-.02-6.68,0-10.02.02-3.43,2.53-6,5.97-6.08,1.98-.04,3.97-.05,5.95,0,3.35.09,5.81,2.58,5.88,5.93.04,1.74,0,3.48,0,5.22Z"/>
</svg>