<svg width="100" height="100" viewBox="0 0 100 100" fill="none" xmlns="http://www.w3.org/2000/svg">
<g id="Higher Conversion 1">
<path id="Vector" d="M32.9995 58.1598C31.1195 55.0398 29.2362 51.9264 27.3495 48.8198C27.1961 48.6293 26.9859 48.4926 26.7495 48.4298C26.223 48.2612 25.7643 47.9285 25.4404 47.4805C25.1166 47.0325 24.9445 46.4926 24.9495 45.9398C24.8995 44.3698 24.8895 42.7998 24.9495 41.2298C24.9508 40.8623 25.0285 40.4991 25.1776 40.1633C25.3268 39.8274 25.5441 39.5263 25.8159 39.2789C26.0877 39.0316 26.4079 38.8435 26.7563 38.7266C27.1047 38.6097 27.4736 38.5665 27.8395 38.5998H74.3395C76.6895 38.5998 77.6595 39.5998 77.6595 41.9198C77.6595 43.2098 77.6595 44.4998 77.6595 45.7898C77.6833 46.3704 77.5163 46.9428 77.184 47.4196C76.8517 47.8963 76.3725 48.2511 75.8195 48.4298C75.5901 48.5064 75.3883 48.649 75.2395 48.8398C74.5795 49.8398 73.9495 50.9398 73.3195 51.9998C73.1995 52.1898 73.0995 52.3798 72.9895 52.5698C75.2457 54.1207 76.8237 56.4755 77.4004 59.1519C77.9771 61.8283 77.5089 64.6239 76.0916 66.9664C74.6744 69.3089 72.4153 71.021 69.7769 71.7523C67.1385 72.4835 64.3204 72.1785 61.8995 70.8998C60.8095 72.7198 59.6995 74.5298 58.6295 76.3698C58.5247 76.626 58.4868 76.9048 58.5195 77.1798C58.5195 79.5598 58.5195 81.9398 58.5195 84.3298C58.5463 84.7046 58.4607 85.0789 58.2737 85.4049C58.0866 85.7309 57.8067 85.9937 57.4695 86.1598C53.7795 88.3498 50.1195 90.5698 46.4695 92.7698C45.0595 93.6098 44.0695 93.0298 44.0695 91.3798C44.0695 88.9731 44.0695 86.5631 44.0695 84.1498C43.3495 84.0398 43.1695 84.4298 43.0695 84.9998C42.7995 86.8698 42.7995 86.9298 40.9095 87.0698C39.606 87.1232 38.3004 87.0999 36.9995 86.9998C36.8222 86.9928 36.6482 86.9491 36.4887 86.8714C36.3291 86.7936 36.1875 86.6836 36.0727 86.5481C35.958 86.4127 35.8727 86.2549 35.8222 86.0848C35.7718 85.9146 35.7572 85.7358 35.7795 85.5598C35.7795 84.6598 35.4695 84.0698 34.5195 83.9398C34.4049 83.9256 34.2952 83.8845 34.1995 83.8198C33.0995 83.1098 32.0895 82.9298 31.0395 84.0198C30.8136 84.1188 30.5667 84.1606 30.3208 84.1414C30.0748 84.1222 29.8374 84.0426 29.6295 83.9098C28.4295 82.8598 27.3195 81.7098 26.2295 80.5498C26.108 80.429 26.0139 80.2834 25.9539 80.1229C25.8938 79.9624 25.8691 79.7908 25.8814 79.6199C25.8938 79.449 25.9429 79.2828 26.0254 79.1326C26.1079 78.9824 26.2219 78.8518 26.3595 78.7498C26.5289 78.6304 26.6711 78.4765 26.7768 78.2984C26.8825 78.1202 26.9494 77.9216 26.973 77.7158C26.9966 77.5099 26.9764 77.3014 26.9138 77.1039C26.8511 76.9064 26.7475 76.7244 26.6095 76.5698C26.5058 76.4379 26.434 76.2839 26.3995 76.1198C26.3905 75.8568 26.3267 75.5986 26.2122 75.3617C26.0977 75.1248 25.935 74.9145 25.7345 74.7441C25.534 74.5737 25.3001 74.4471 25.0479 74.3723C24.7956 74.2975 24.5305 74.2762 24.2695 74.3098C24.1191 74.3143 23.9694 74.2873 23.83 74.2305C23.6907 74.1738 23.5647 74.0886 23.4602 73.9803C23.3556 73.872 23.2749 73.7431 23.2231 73.6018C23.1714 73.4605 23.1497 73.3099 23.1595 73.1598C23.1595 71.5898 23.1595 70.0298 23.1595 68.4698C23.1551 68.2909 23.1895 68.1131 23.2603 67.9488C23.3311 67.7844 23.4366 67.6374 23.5696 67.5177C23.7026 67.398 23.86 67.3084 24.0309 67.2553C24.2017 67.2022 24.3821 67.1866 24.5595 67.2098C25.4995 67.2098 26.1195 66.8998 26.2295 65.8998C26.2424 65.8455 26.2662 65.7945 26.2995 65.7498C26.9695 64.5998 27.2995 63.5198 26.1195 62.4298C25.8995 62.2298 25.9795 61.3698 26.2295 61.0798C27.2995 59.8698 28.4695 58.7498 29.6395 57.6298C29.8475 57.4328 30.1231 57.3231 30.4095 57.3231C30.696 57.3231 30.9715 57.4328 31.1795 57.6298C31.4995 57.8598 31.7895 58.1298 32.1795 58.3298C32.4148 58.4147 32.6603 58.4685 32.9095 58.4898L32.9995 58.1598ZM65.0995 62.5698C63.9595 62.4898 63.2295 63.3698 63.7195 64.3498C64.0318 64.9287 64.469 65.4309 64.9995 65.8198C65.1866 65.9242 65.3425 66.0765 65.4515 66.261C65.5604 66.4454 65.6184 66.6555 65.6195 66.8698C65.6195 67.2225 65.7597 67.5608 66.0091 67.8102C66.2585 68.0596 66.5968 68.1998 66.9495 68.1998C67.3023 68.1998 67.6406 68.0596 67.89 67.8102C68.1394 67.5608 68.2795 67.2225 68.2795 66.8698C68.2616 66.6624 68.3088 66.4546 68.4145 66.2754C68.5203 66.0961 68.6794 65.9543 68.8695 65.8698C69.4628 65.5916 69.9392 65.1135 70.2153 64.5192C70.4914 63.925 70.5495 63.2526 70.3795 62.6198C70.0518 61.8579 69.6211 61.1446 69.0995 60.4998C70.0995 60.3298 70.7295 59.4998 70.2195 58.5798C69.8796 57.9762 69.4121 57.454 68.8495 57.0498C68.6711 56.9516 68.5227 56.8066 68.4205 56.6304C68.3183 56.4542 68.2661 56.2534 68.2695 56.0498C68.2847 55.873 68.2632 55.695 68.2064 55.527C68.1497 55.3589 68.0589 55.2043 67.9397 55.0729C67.8205 54.9416 67.6755 54.8362 67.5137 54.7633C67.352 54.6905 67.1769 54.6519 66.9995 54.6498C66.8162 54.645 66.634 54.6788 66.4646 54.7489C66.2952 54.8191 66.1424 54.924 66.0161 55.0569C65.8898 55.1898 65.7928 55.3477 65.7314 55.5205C65.6699 55.6932 65.6455 55.877 65.6595 56.0598C65.6622 56.2707 65.603 56.4779 65.4893 56.6556C65.3755 56.8333 65.2122 56.9738 65.0195 57.0598C64.5687 57.3041 64.1896 57.6621 63.9198 58.0983C63.6501 58.5344 63.4992 59.0335 63.482 59.5461C63.4648 60.0586 63.582 60.5667 63.8219 61.0199C64.0618 61.4732 64.416 61.8558 64.8495 62.1298C64.9674 62.2479 65.0623 62.387 65.1295 62.5398L65.0995 62.5698ZM59.6995 69.3298C57.9239 67.6748 56.76 65.4681 56.397 63.0681C56.0339 60.6681 56.4929 58.2159 57.6995 56.1098C60.3395 51.6998 64.5895 50.1098 70.4995 51.3498L72.1395 48.6298H30.3795L35.6095 57.3098C35.6995 56.6898 35.7695 56.3098 35.8195 55.8798C35.8166 55.7035 35.8498 55.5285 35.9172 55.3656C35.9845 55.2027 36.0845 55.0553 36.211 54.9326C36.3375 54.8098 36.4878 54.7143 36.6527 54.6519C36.8175 54.5895 36.9934 54.5615 37.1695 54.5698C38.6829 54.5698 40.1929 54.5698 41.6995 54.5698C42.3595 54.5698 42.9395 54.9498 42.9095 55.5698C42.8395 57.0398 43.6895 57.5698 44.9095 57.8498C44.9663 57.8591 45.0206 57.8795 45.0695 57.9098C45.2362 58.0652 45.434 58.1835 45.6497 58.2568C45.8655 58.3302 46.0944 58.3568 46.3213 58.3351C46.5482 58.3134 46.7679 58.2437 46.9658 58.1307C47.1637 58.0178 47.3354 57.864 47.4695 57.6798C47.5704 57.5491 47.6986 57.4422 47.8453 57.3665C47.9919 57.2907 48.1533 57.248 48.3182 57.2414C48.4831 57.2347 48.6475 57.2642 48.7997 57.3279C48.952 57.3915 49.0884 57.4877 49.1995 57.6098C50.3495 58.6998 51.4695 59.8398 52.5695 60.9898C52.6746 61.0762 52.7609 61.1832 52.8232 61.3041C52.8855 61.4251 52.9225 61.5575 52.9319 61.6932C52.9412 61.829 52.9228 61.9652 52.8777 62.0935C52.8326 62.2219 52.7617 62.3397 52.6695 62.4398C51.5395 63.4398 51.7495 64.4398 52.4595 65.5798C52.5225 65.6727 52.5636 65.7787 52.5795 65.8898C52.6995 66.8898 53.2895 67.1298 54.1995 67.1698C55.1095 67.2098 55.6195 67.5998 55.6595 68.6298C55.6595 70.0498 55.6595 71.4798 55.6595 72.8998C55.6704 73.0837 55.6436 73.2678 55.5807 73.441C55.5177 73.6141 55.42 73.7725 55.2936 73.9065C55.1671 74.0405 55.0146 74.1471 54.8453 74.2199C54.6761 74.2927 54.4938 74.3301 54.3095 74.3298C53.8895 74.3298 53.4695 74.4598 53.0495 74.5198V74.7198C54.0495 74.7198 55.0495 74.7198 56.1095 74.7198C56.2133 74.701 56.3121 74.6612 56.3998 74.6027C56.4875 74.5442 56.5623 74.4683 56.6195 74.3798C57.6595 72.7198 58.6795 70.9998 59.6995 69.3298ZM39.3895 76.1298C40.4485 76.1337 41.4848 75.8233 42.3673 75.2379C43.2497 74.6524 43.9385 73.8182 44.3465 72.841C44.7545 71.8638 44.8633 70.7875 44.6592 69.7483C44.455 68.7092 43.947 67.7541 43.1996 67.0039C42.4522 66.2537 41.499 65.7421 40.4606 65.5341C39.4223 65.326 38.3456 65.4308 37.3668 65.8351C36.3881 66.2395 35.5513 66.9252 34.9626 67.8054C34.3738 68.6856 34.0595 69.7208 34.0595 70.7798C34.0542 71.4821 34.1883 72.1786 34.4541 72.8287C34.7198 73.4789 35.1119 74.0699 35.6076 74.5675C36.1033 75.0651 36.6929 75.4594 37.342 75.7276C37.9912 75.9957 38.6871 76.1324 39.3895 76.1298ZM46.7695 89.4098C47.0995 89.2298 47.3395 89.0998 47.5695 88.9598C49.9995 87.5098 52.4095 85.9998 54.8595 84.6198C55.1975 84.4727 55.4782 84.2192 55.6587 83.8978C55.8392 83.5765 55.9098 83.2049 55.8595 82.8398C55.7795 81.4398 55.8595 80.0398 55.8595 78.6398V77.5298H51.5295L52.4195 78.7198C53.0295 79.5498 53.0695 79.9798 52.4195 80.7198C51.6169 81.6539 50.7587 82.5389 49.8495 83.3698C48.5195 84.5498 48.4195 84.5098 46.9795 83.5098C46.9795 83.5098 46.8795 83.5098 46.7795 83.5098L46.7695 89.4098Z" fill="white"/>
<path id="Vector_2" d="M43.5303 28.0005C43.5343 26.589 43.9571 25.2105 44.7452 24.0396C45.5333 22.8686 46.6512 21.9579 47.9573 21.4228C49.2634 20.8878 50.6989 20.7524 52.082 21.0338C53.4651 21.3153 54.7336 22.0009 55.7267 23.0038C56.7198 24.0068 57.3929 25.2819 57.6607 26.6677C57.9286 28.0535 57.7791 29.4876 57.2311 30.7884C56.6832 32.0892 55.7616 33.198 54.583 33.9746C53.4043 34.7511 52.0217 35.1603 50.6103 35.1505C48.7245 35.1372 46.9208 34.3775 45.5939 33.0374C44.267 31.6974 43.525 29.8863 43.5303 28.0005Z" fill="white"/>
<path id="Vector_3" d="M72.4997 30.86C72.5036 31.5858 72.3644 32.3052 72.09 32.977C71.8157 33.6489 71.4115 34.2601 70.9006 34.7756C70.3898 35.2911 69.7823 35.7008 69.1129 35.9813C68.4435 36.2617 67.7254 36.4074 66.9997 36.41C65.8992 36.412 64.8228 36.0874 63.907 35.4772C62.9911 34.867 62.2769 33.9987 61.8548 32.9824C61.4328 31.966 61.3218 30.8473 61.536 29.7678C61.7503 28.6883 62.28 27.6967 63.0582 26.9185C63.8364 26.1403 64.828 25.6106 65.9074 25.3964C66.9869 25.1822 68.1057 25.2931 69.122 25.7152C70.1384 26.1372 71.0066 26.8514 71.6168 27.7673C72.227 28.6832 72.5517 29.7595 72.5497 30.86H72.4997Z" fill="white"/>
<path id="Vector_4" d="M39.8798 30.85C39.8798 32.3246 39.294 33.7388 38.2513 34.7816C37.2086 35.8243 35.7944 36.41 34.3198 36.41C32.8452 36.41 31.431 35.8243 30.3883 34.7816C29.3455 33.7388 28.7598 32.3246 28.7598 30.85C28.7598 29.3754 29.3455 27.9612 30.3883 26.9185C31.431 25.8758 32.8452 25.29 34.3198 25.29C35.7944 25.29 37.2086 25.8758 38.2513 26.9185C39.294 27.9612 39.8798 29.3754 39.8798 30.85Z" fill="white"/>
<path id="Vector_5" d="M47.5598 14.5799C47.5598 13.4599 47.5598 12.3399 47.5598 11.2199C47.5598 10.8645 47.701 10.5237 47.9523 10.2724C48.2036 10.0211 48.5444 9.87988 48.8998 9.87988C49.2552 9.87988 49.596 10.0211 49.8473 10.2724C50.0986 10.5237 50.2398 10.8645 50.2398 11.2199C50.2398 13.4199 50.2398 15.6265 50.2398 17.8399C50.263 18.0296 50.2457 18.2221 50.189 18.4046C50.1322 18.5871 50.0374 18.7555 49.9107 18.8986C49.784 19.0417 49.6284 19.1563 49.4542 19.2348C49.2799 19.3133 49.0909 19.3539 48.8998 19.3539C48.7087 19.3539 48.5197 19.3133 48.3454 19.2348C48.1712 19.1563 48.0156 19.0417 47.8889 18.8986C47.7622 18.7555 47.6674 18.5871 47.6106 18.4046C47.5539 18.2221 47.5366 18.0296 47.5598 17.8399C47.5498 16.7499 47.5598 15.6599 47.5598 14.5799Z" fill="white"/>
<path id="Vector_6" d="M55.0002 14.5395C55.0002 15.6495 55.0002 16.7695 55.0002 17.8895C55.0203 18.0737 55.0019 18.26 54.9463 18.4367C54.8908 18.6135 54.7991 18.7768 54.6773 18.9163C54.5554 19.0558 54.4059 19.1685 54.2382 19.2474C54.0706 19.3262 53.8884 19.3694 53.7032 19.3742C53.518 19.3791 53.3338 19.3455 53.1623 19.2756C52.9907 19.2056 52.8355 19.1009 52.7065 18.9679C52.5775 18.835 52.4774 18.6767 52.4126 18.5032C52.3479 18.3296 52.3198 18.1445 52.3302 17.9595C52.3302 15.6995 52.3302 13.4295 52.3302 11.1695C52.3142 10.9845 52.3368 10.7982 52.3966 10.6223C52.4564 10.4465 52.5521 10.285 52.6776 10.1482C52.8032 10.0113 52.9558 9.902 53.1258 9.82723C53.2958 9.75247 53.4795 9.71387 53.6652 9.71387C53.8509 9.71387 54.0346 9.75247 54.2046 9.82723C54.3746 9.902 54.5272 10.0113 54.6528 10.1482C54.7783 10.285 54.874 10.4465 54.9338 10.6223C54.9936 10.7982 55.0162 10.9845 55.0002 11.1695C55.0002 12.2995 55.0002 13.4195 55.0002 14.5395Z" fill="white"/>
<path id="Vector_7" d="M65.9201 19.5195C65.9201 20.4195 65.9201 21.3195 65.9201 22.2095C65.9361 22.3945 65.9135 22.5809 65.8537 22.7567C65.7939 22.9325 65.6982 23.094 65.5727 23.2309C65.4472 23.3678 65.2945 23.477 65.1245 23.5518C64.9545 23.6266 64.7708 23.6652 64.5851 23.6652C64.3994 23.6652 64.2157 23.6266 64.0457 23.5518C63.8757 23.477 63.7231 23.3678 63.5976 23.2309C63.472 23.094 63.3763 22.9325 63.3165 22.7567C63.2567 22.5809 63.2341 22.3945 63.2501 22.2095C63.2501 20.3595 63.2501 18.5095 63.2501 16.6695C63.2341 16.4845 63.2567 16.2982 63.3165 16.1223C63.3763 15.9465 63.472 15.785 63.5976 15.6482C63.7231 15.5113 63.8757 15.402 64.0457 15.3272C64.2157 15.2525 64.3994 15.2139 64.5851 15.2139C64.7708 15.2139 64.9545 15.2525 65.1245 15.3272C65.2945 15.402 65.4472 15.5113 65.5727 15.6482C65.6982 15.785 65.7939 15.9465 65.8537 16.1223C65.9135 16.2982 65.9361 16.4845 65.9201 16.6695C65.9401 17.6695 65.9201 18.5995 65.9201 19.5195Z" fill="white"/>
<path id="Vector_8" d="M33.6398 19.4996C33.6398 20.3996 33.6398 21.2996 33.6398 22.1896C33.6536 22.372 33.6294 22.5553 33.5687 22.7279C33.508 22.9004 33.412 23.0585 33.287 23.192C33.1619 23.3255 33.0105 23.4316 32.8422 23.5035C32.674 23.5754 32.4927 23.6115 32.3098 23.6096C32.1344 23.6125 31.9603 23.5795 31.7981 23.5128C31.6359 23.4461 31.489 23.347 31.3663 23.2216C31.2437 23.0961 31.148 22.947 31.085 22.7834C31.0219 22.6197 30.9929 22.4449 30.9998 22.2696C30.9498 20.4196 30.9998 18.5696 30.9998 16.7296C30.9913 16.5448 31.0211 16.3603 31.0874 16.1877C31.1538 16.015 31.2551 15.858 31.3851 15.7264C31.515 15.5948 31.6709 15.4916 31.8427 15.4232C32.0145 15.3548 32.1986 15.3227 32.3835 15.3289C32.5683 15.3351 32.7499 15.3795 32.9167 15.4594C33.0836 15.5392 33.2321 15.6527 33.3529 15.7927C33.4737 15.9328 33.5642 16.0963 33.6188 16.273C33.6733 16.4497 33.6907 16.6358 33.6698 16.8196C33.6598 17.7096 33.6398 18.6096 33.6398 19.4996Z" fill="white"/>
<path id="Vector_9" d="M35.76 19.4696C35.76 18.5796 35.76 17.6796 35.76 16.7896C35.744 16.6046 35.7666 16.4183 35.8264 16.2424C35.8862 16.0666 35.9819 15.9051 36.1075 15.7683C36.233 15.6314 36.3856 15.5221 36.5556 15.4474C36.7256 15.3726 36.9093 15.334 37.095 15.334C37.2808 15.334 37.4645 15.3726 37.6345 15.4474C37.8045 15.5221 37.9571 15.6314 38.0826 15.7683C38.2081 15.9051 38.3038 16.0666 38.3637 16.2424C38.4235 16.4183 38.4461 16.6046 38.43 16.7896C38.43 18.5996 38.43 20.4296 38.43 22.2396C38.4422 22.4247 38.4158 22.6103 38.3525 22.7847C38.2893 22.959 38.1905 23.1184 38.0624 23.2526C37.9344 23.3868 37.7799 23.4929 37.6087 23.5643C37.4375 23.6357 37.2533 23.6708 37.0678 23.6673C36.8824 23.6638 36.6997 23.6219 36.5313 23.5441C36.3629 23.4664 36.2124 23.3545 36.0895 23.2156C35.9666 23.0767 35.8738 22.9138 35.8171 22.7372C35.7604 22.5606 35.741 22.3741 35.76 22.1896C35.75 21.2696 35.76 20.3696 35.76 19.4696Z" fill="white"/>
<path id="Vector_10" d="M70.6996 19.5196C70.6996 20.3896 70.6996 21.2596 70.6996 22.1296C70.7179 22.3184 70.6962 22.5088 70.636 22.6886C70.5757 22.8684 70.4783 23.0335 70.35 23.1732C70.2217 23.3128 70.0654 23.4238 69.8913 23.499C69.7172 23.5742 69.5292 23.6119 69.3396 23.6096C69.1531 23.6134 68.9679 23.5775 68.7963 23.5045C68.6246 23.4314 68.4704 23.3228 68.3438 23.1858C68.2171 23.0488 68.121 22.8865 68.0617 22.7096C68.0024 22.5327 67.9812 22.3453 67.9996 22.1596C67.9996 20.373 67.9996 18.583 67.9996 16.7896C67.9814 16.607 68.0018 16.4226 68.0594 16.2483C68.117 16.074 68.2106 15.9138 68.3342 15.7781C68.4577 15.6423 68.6083 15.534 68.7764 15.4602C68.9444 15.3864 69.1261 15.3487 69.3096 15.3496C70.1096 15.3496 70.6196 15.8996 70.6696 16.8396C70.6749 16.8962 70.6749 16.9531 70.6696 17.0096V19.5196H70.6996Z" fill="white"/>
<path id="Vector_11" d="M65.0996 62.5703L67.8896 63.0103C67.2596 63.8403 66.6596 63.8403 66.1196 63.2803C65.8106 63.0111 65.4757 62.7732 65.1196 62.5703H65.0996Z" fill="white"/>
<path id="Vector_12" d="M68.3197 60.3897L66.1797 59.8697C66.6497 58.8697 67.2897 58.9997 68.3197 60.3897Z" fill="white"/>
</g>
</svg>
