<svg width="80" height="80" viewBox="0 0 80 80" fill="none" xmlns="http://www.w3.org/2000/svg">
<g id="Increase Brand Awareness 1">
<path id="Vector" d="M46.6962 43.9437C43.8082 44.1437 40.9522 43.5997 38.0402 44.6317C43.8242 37.7917 42.9282 28.8797 37.7282 23.4477C32.3442 17.8157 23.7362 16.9677 17.4482 21.4557C11.0722 26.0077 8.97624 34.4157 12.5682 41.2957C14.6562 45.2877 17.8882 47.9597 22.2322 49.1917C26.5762 50.4157 30.6962 49.7517 34.6482 47.5357C33.0242 50.3277 32.8962 53.1357 34.3602 55.9917C33.3122 56.4317 32.2722 56.4557 31.2242 56.1437C30.1442 55.8237 29.0562 55.5197 27.9842 55.1677C26.9122 54.8157 25.8642 54.8477 24.8002 55.1917C23.6322 55.5677 22.4642 55.9517 21.2722 56.2157C19.2562 56.6637 17.6162 55.9677 16.4162 54.3037C15.7122 53.3277 15.0802 52.3037 14.4242 51.2957C13.8722 50.4397 13.1282 49.8237 12.1922 49.4237C11.1762 48.9997 10.1602 48.5677 9.14424 48.1197C6.99224 47.1757 5.93624 45.3757 6.17624 43.0317C6.27224 42.0717 6.39224 41.1197 6.53624 40.1677C6.72024 38.9197 6.59224 37.7357 5.96824 36.5997C5.44824 35.6557 4.96824 34.6797 4.50424 33.7037C3.56024 31.7517 3.91224 29.7197 5.45624 28.2077C6.28024 27.3997 7.13624 26.6157 7.98424 25.8317C8.76824 25.1037 9.27224 24.2317 9.49624 23.1837C9.75224 22.0077 10.0242 20.8397 10.3442 19.6797C10.8722 17.7357 12.4482 16.4397 14.4482 16.2717C15.6962 16.1677 16.9442 16.0957 18.2002 16.0317C19.1202 15.9837 19.9442 15.6877 20.6802 15.1517C21.6082 14.4637 22.5282 13.7677 23.4562 13.0797C25.3442 11.6797 27.4482 11.6637 29.3362 13.0317C30.2482 13.6957 31.1522 14.3837 32.0562 15.0637C32.8482 15.6557 33.7282 15.9917 34.7202 16.0397C35.9202 16.0957 37.1282 16.1677 38.3282 16.2637C40.4722 16.4397 42.0642 17.7997 42.5842 19.8797C42.8482 20.9517 43.0962 22.0317 43.3362 23.1117C43.5762 24.2077 44.0882 25.1197 44.9282 25.8717C45.7522 26.6157 46.5602 27.3757 47.3522 28.1517C48.9522 29.7117 49.3042 31.7517 48.3282 33.7677C47.9842 34.4797 47.6642 35.2157 47.2402 35.8797C46.2242 37.4877 46.0802 39.1917 46.4162 41.0157C46.5922 41.9517 46.7282 42.9117 46.6882 43.9357L46.6962 43.9437Z" fill="white"/>
<path id="Vector_2" d="M20.1044 31.0236C20.8724 31.0236 21.6484 31.0076 22.4164 31.0236C23.1444 31.0396 23.5844 30.7116 23.8084 30.0236C24.2804 28.5356 24.7764 27.0556 25.2484 25.5676C25.4404 24.9676 25.7444 24.5116 26.4404 24.5196C27.1364 24.5276 27.4244 24.9836 27.6164 25.5836C28.0644 27.0236 28.5444 28.4636 29.0164 29.8956C29.3044 30.7836 29.6084 31.0076 30.5364 31.0076C32.0804 31.0076 33.6164 31.0236 35.1604 31.0076C35.7764 31.0076 36.2644 31.1836 36.4724 31.7996C36.6804 32.4156 36.3844 32.8556 35.8884 33.2156C34.6404 34.1116 33.3924 35.0236 32.1524 35.9276C31.3764 36.4956 31.2724 36.8076 31.5604 37.7116C32.0084 39.1036 32.4564 40.5036 32.9124 41.8876C33.1204 42.5116 33.2644 43.1276 32.6404 43.5916C32.0244 44.0396 31.4804 43.7676 30.9364 43.3596C29.7844 42.4956 28.6004 41.6556 27.4324 40.8156C26.5924 40.2076 26.2564 40.1996 25.4324 40.7996C24.2644 41.6476 23.0884 42.4876 21.9284 43.3516C21.4004 43.7436 20.8564 44.0556 20.2244 43.6156C19.5444 43.1436 19.7124 42.5036 19.9284 41.8636C20.3924 40.4716 20.8324 39.0796 21.3124 37.6956C21.5684 36.9436 21.3924 36.4076 20.7444 35.9516C19.4804 35.0636 18.2564 34.1436 17.0004 33.2396C16.5124 32.8876 16.1764 32.4876 16.3684 31.8476C16.5684 31.1836 17.0724 30.9996 17.7124 31.0076C18.5044 31.0236 19.3044 31.0076 20.0964 31.0076L20.1044 31.0236Z" fill="white"/>
<path id="Vector_3" d="M47.3278 46.4076V57.6876C44.9918 57.6316 42.6718 57.9116 40.3918 57.5676C37.5278 57.1356 35.6558 54.5836 35.7998 51.6476C35.9278 48.9356 38.1278 46.6156 40.9598 46.4316C43.0638 46.2956 45.1838 46.4076 47.3278 46.4076Z" fill="white"/>
<path id="Vector_4" d="M49.7441 58.2236V45.7676C52.1281 44.9676 54.4161 43.8156 56.7281 42.5596V61.1756C54.4721 59.9836 52.1761 58.9116 49.7441 58.2316V58.2236Z" fill="white"/>
<path id="Vector_5" d="M63.792 51.9678C63.792 55.2398 63.792 58.5198 63.792 61.7918C63.792 62.0558 63.792 62.3198 63.768 62.5838C63.632 63.7358 62.472 64.4558 61.432 63.9678C60.72 63.6318 60.08 63.1438 59.392 62.7438C59.152 62.5998 59.192 62.3838 59.192 62.1758C59.192 55.3118 59.192 48.4478 59.192 41.5838C59.192 41.3678 59.16 41.1518 59.408 41.0238C60.104 40.6478 60.768 40.1998 61.488 39.8798C62.488 39.4478 63.592 40.1278 63.752 41.1998C63.792 41.4878 63.792 41.7758 63.792 42.0638C63.792 45.3598 63.792 48.6638 63.792 51.9598V51.9678Z" fill="white"/>
<path id="Vector_6" d="M11.5281 51.7998C12.0001 52.0238 12.2401 52.3518 12.4641 52.6958C13.0561 53.5998 13.6401 54.5118 14.2481 55.4078C15.8961 57.8638 18.1841 58.9918 21.1521 58.6798C21.2481 58.6718 21.3441 58.6798 21.5041 58.6798C20.6081 60.5998 19.7361 62.4958 18.8641 64.3758C18.4561 65.2478 18.0481 66.1118 17.6401 66.9838C17.5361 67.1998 17.4561 67.4478 17.1601 67.4638C16.8641 67.4718 16.7681 67.2318 16.6401 67.0238C15.7121 65.4238 14.7601 63.8318 13.8561 62.2238C13.6241 61.8078 13.4161 61.6638 12.9041 61.7678C11.0641 62.1278 9.20812 62.4238 7.36012 62.7278C6.69612 62.8318 6.49612 62.5998 6.76012 62.0238C8.32812 58.6238 9.92012 55.2318 11.5201 51.7998H11.5281Z" fill="white"/>
<path id="Vector_7" d="M31.4643 58.6643C33.0003 58.9123 34.4723 58.6643 35.9123 57.9443C37.2563 59.1443 38.8483 59.8883 40.6963 60.0803V61.8083C40.6563 61.8243 40.6003 61.8723 40.5763 61.8563C39.5363 61.4243 39.0723 62.0003 38.6243 62.8563C37.8883 64.2563 37.0483 65.6003 36.2483 66.9683C36.1203 67.1923 36.0243 67.4803 35.6963 67.4643C35.3683 67.4483 35.3043 67.1603 35.1923 66.9203C33.9843 64.3363 32.7843 61.7443 31.5763 59.1603C31.5043 59.0083 31.4003 58.8723 31.4643 58.6563V58.6643Z" fill="white"/>
<path id="Vector_8" d="M47.32 67.9356C45.16 68.1836 43.72 67.3596 43.256 65.6476C43.144 65.2476 43.176 64.8396 43.168 64.4316C43.168 63.0156 43.168 61.5996 43.168 60.1436H47.32V67.9356Z" fill="white"/>
<path id="Vector_9" d="M73.208 53.1596C72.68 53.1596 72.152 53.1756 71.624 53.1596C70.872 53.1276 70.376 52.6396 70.376 51.9516C70.376 51.2716 70.872 50.7596 71.624 50.7436C72.656 50.7196 73.688 50.7196 74.72 50.7436C75.504 50.7596 76.04 51.2956 76.016 51.9916C75.992 52.6636 75.48 53.1436 74.72 53.1676C74.216 53.1836 73.712 53.1676 73.208 53.1676V53.1596Z" fill="white"/>
<path id="Vector_10" d="M72.8001 44.1756C72.7601 44.5436 72.6241 44.8316 72.3761 45.0796C71.6641 45.7916 70.9601 46.5116 70.2321 47.2156C69.6321 47.7916 68.9601 47.8076 68.4481 47.2956C67.9361 46.7836 67.9601 46.1116 68.5361 45.5116C69.2561 44.7756 69.9921 44.0476 70.7281 43.3276C71.1281 42.9276 71.6161 42.8556 72.1201 43.0956C72.5681 43.3116 72.7681 43.7116 72.8001 44.1836V44.1756Z" fill="white"/>
<path id="Vector_11" d="M69.2559 56.2236C69.6239 56.2556 69.9279 56.3836 70.1759 56.6316C70.9039 57.3596 71.6479 58.0796 72.3599 58.8236C72.8879 59.3756 72.9039 60.0716 72.4399 60.5596C71.9359 61.0796 71.2479 61.0796 70.6559 60.5116C69.8959 59.7756 69.1519 59.0316 68.4239 58.2716C68.0639 57.8956 67.9599 57.4396 68.1999 56.9436C68.4159 56.4876 68.7999 56.2876 69.2639 56.2236H69.2559Z" fill="white"/>
<path id="Vector_12" d="M66.2002 55.0083V48.9043C67.2962 48.9923 68.3522 50.5763 68.3842 51.6883C68.4322 53.2323 67.6562 54.4963 66.2002 55.0083Z" fill="white"/>
</g>
</svg>
