<svg width="84" height="84" viewBox="0 0 84 84" fill="none" xmlns="http://www.w3.org/2000/svg">
<g id="Instant reply 1">
<path id="Vector" d="M19.0935 50.0973C17.9228 50.8499 16.8441 51.4018 15.6065 51.5941C11.5591 52.2296 7.65395 49.0604 7.6205 44.9545C7.57033 38.2479 7.57869 31.5498 7.6205 24.8432C7.64559 21.2057 10.6309 18.2036 14.2601 18.0865C15.8322 18.0364 17.4127 18.0782 19.0935 18.0782C19.0935 16.6984 19.0935 15.3772 19.0935 14.0559C19.0935 13.203 19.1604 12.35 19.428 11.5305C20.3228 8.7626 22.8147 6.84765 25.7666 6.83928C35.1574 6.80583 44.5483 6.78911 53.9391 6.83928C57.7941 6.86437 60.5787 9.89987 60.5871 13.9221C60.5955 20.9297 60.5871 27.9373 60.5871 34.9365C60.5871 35.2124 60.5871 35.4884 60.5871 35.8145C65.7801 36.5086 69.9779 38.9086 73.0301 43.165C75.4134 46.4764 76.4838 50.2143 76.2747 54.2784C75.8399 62.5403 69.61 69.7653 60.5704 70.9026C60.4617 72.2155 60.0686 73.4447 59.2659 74.5067C57.8694 76.3548 55.9878 77.2746 53.6882 77.2746C44.4981 77.283 35.308 77.283 26.1178 77.2746C21.9952 77.2746 19.1019 74.3478 19.0935 70.1751C19.0852 63.7947 19.0935 57.4226 19.0935 51.0422V50.0889V50.0973ZM70.5466 60.1069C69.3591 60.4999 68.2135 61.0017 66.9842 61.2609C66.6163 61.3362 66.5996 61.6205 66.541 61.8713C66.24 63.017 65.8804 64.1459 65.4372 65.2999C67.6867 64.1292 69.426 62.4316 70.6803 60.2073C70.6887 60.1487 70.6971 60.0902 70.7054 60.0316C70.6553 60.0567 70.5967 60.0818 70.5466 60.1069ZM24.6628 21.8245C21.3764 21.8245 18.0817 21.8245 14.7953 21.8245C12.6713 21.8245 11.3668 23.1373 11.3584 25.2446C11.3584 31.625 11.3584 37.9971 11.3584 44.3775C11.3584 45.7155 11.81 46.7858 12.9974 47.4632C14.21 48.1572 15.389 47.9816 16.543 47.2457C18.3827 46.075 20.2475 44.9545 22.0872 43.7754C23.4335 42.9141 24.8886 42.4793 26.4941 42.496C29.1533 42.5211 31.8209 42.5043 34.4801 42.496C36.6376 42.496 37.9588 41.1998 37.9672 39.034C37.9839 34.4431 37.9839 29.8439 37.9672 25.253C37.9672 23.0788 36.6543 21.8161 34.4717 21.8161C31.2105 21.8161 27.9408 21.8161 24.6795 21.8161L24.6628 21.8245ZM63.4804 48.5586C60.2526 48.0903 57.0917 48.082 53.9056 48.5586C53.429 51.7614 53.429 54.9223 53.9056 58.125C57.1167 58.6017 60.2944 58.6101 63.4804 58.125C63.9404 54.9139 63.9404 51.7697 63.4804 48.5586ZM33.786 69.757C35.4167 69.757 37.0473 69.757 38.678 69.757C39.0041 69.757 39.3302 69.757 39.648 69.6566C40.5344 69.389 41.1281 68.5361 41.011 67.658C40.894 66.7298 40.1832 66.0107 39.255 66.0023C35.6425 65.9772 32.03 65.9772 28.4258 66.0023C27.4892 66.0023 26.7868 66.7131 26.6697 67.6413C26.5527 68.5444 27.1129 69.3723 28.0077 69.6483C28.3255 69.7486 28.6516 69.757 28.9777 69.757C30.5833 69.757 32.1888 69.757 33.7944 69.757H33.786ZM32.1387 58.4595C30.9847 58.4595 29.8307 58.4595 28.6767 58.4595C27.4725 58.4679 26.653 59.2121 26.6363 60.2992C26.6196 61.3278 27.4223 62.1975 28.5429 62.2142C30.9512 62.2477 33.3512 62.256 35.7595 62.2142C36.8968 62.1975 37.6661 61.3362 37.641 60.2909C37.6159 59.2205 36.8299 58.4846 35.6675 58.4763C34.4885 58.4595 33.3094 58.4763 32.1303 58.4763L32.1387 58.4595ZM31.3024 50.9251C30.3993 50.9251 29.4962 50.9168 28.5931 50.9251C27.4809 50.9419 26.6948 51.661 26.6363 52.6979C26.5778 53.7014 27.3304 54.6213 28.4091 54.6547C30.3408 54.7132 32.2725 54.7216 34.2041 54.6547C35.2912 54.6129 35.9853 53.7014 35.9184 52.6645C35.8599 51.6694 35.0822 50.9586 34.0034 50.9335C33.1003 50.9168 32.1972 50.9335 31.2941 50.9335L31.3024 50.9251ZM62.5689 44.6367C61.9334 42.9057 61.3146 41.3253 60.0185 40.1295C59.1321 39.31 58.3544 39.2681 57.4763 40.0291C56.0966 41.2333 55.4443 42.8639 54.8255 44.6284C57.4345 44.3775 59.9348 44.3775 62.5606 44.6284L62.5689 44.6367ZM67.4023 49.4868C67.6616 52.1042 67.6281 54.6129 67.4191 57.2136C69.0581 56.6115 70.5633 56.0178 71.7507 54.8303C72.8044 53.7767 72.8044 52.8903 71.7507 51.845C70.5633 50.6659 69.0664 50.0471 67.4107 49.4785L67.4023 49.4868ZM62.5439 62.0553C59.9097 62.3313 57.4094 62.3062 54.8339 62.072C55.3858 63.7194 56.0213 65.233 57.2171 66.4288C58.2373 67.4573 59.1153 67.4573 60.1439 66.4455C61.3481 65.2581 61.9752 63.7361 62.5522 62.0553H62.5439ZM49.9754 57.2052C49.7161 54.6045 49.7329 52.0959 49.9586 49.5537C48.3615 49.9384 46.4381 50.9837 45.5601 51.9202C44.6235 52.9237 44.5984 53.7767 45.5434 54.7467C46.7475 55.9843 48.2862 56.6198 49.9754 57.2052ZM49.3148 20.4949C48.6625 20.4949 48.0102 20.4781 47.3663 20.4949C46.3127 20.5283 45.5517 21.2642 45.5099 22.276C45.4681 23.2795 46.1622 24.1659 47.1907 24.2244C48.5621 24.2913 49.9419 24.2913 51.3133 24.2244C52.3335 24.1743 53.0778 23.2795 53.036 22.3011C52.9942 21.2976 52.2248 20.5367 51.1963 20.4949C50.5691 20.4698 49.9419 20.4949 49.3231 20.4949H49.3148ZM49.2395 31.7923C49.8667 31.7923 50.4938 31.809 51.1126 31.7923C52.2248 31.7505 53.0443 30.931 53.036 29.894C53.036 28.8404 52.2165 28.0543 51.0876 28.0376C49.8834 28.0209 48.6876 28.0209 47.4834 28.0376C46.296 28.0543 45.4848 28.832 45.4932 29.9191C45.4932 30.9728 46.296 31.7505 47.4332 31.7923C48.0353 31.809 48.6374 31.7923 49.2311 31.7923H49.2395ZM65.2449 41.3085C65.8804 42.4625 66.1982 43.6082 66.5243 44.7454C66.5912 44.9628 66.5327 45.289 66.8337 45.3726C68.0964 45.7071 69.3257 46.1419 70.58 46.6269C70.4128 45.289 66.9926 41.7852 65.2365 41.3085H65.2449ZM46.7225 59.9982C46.873 61.3111 50.3935 64.957 52.0409 65.3333C51.5475 64.1793 51.1126 63.017 50.8283 61.7961C50.7531 61.4616 50.5858 61.286 50.2513 61.2107C49.0304 60.9264 47.8681 60.4916 46.7141 59.9982H46.7225ZM52.1161 41.1831C49.6994 42.5378 47.9517 44.3022 46.6305 46.5517C46.7559 46.5517 46.873 46.6018 46.9566 46.5684C48.1022 46.1252 49.2562 45.7154 50.4437 45.4144C50.7363 45.3391 50.7614 45.1217 50.8116 44.9127C51.1126 43.7001 51.5391 42.5211 52.1161 41.1747V41.1831Z" fill="white"/>
<path id="Vector_2" d="M24.6883 26.349C27.0214 26.349 29.3544 26.3323 31.6791 26.349C32.6324 26.3574 33.3516 26.9762 33.5021 27.8291C33.661 28.6988 33.2596 29.5183 32.4819 29.8946C32.1558 30.0535 31.8129 30.1037 31.4617 30.1037C26.921 30.1037 22.3887 30.112 17.848 30.1037C16.602 30.1037 15.749 29.3009 15.749 28.2138C15.749 27.1267 16.5936 26.349 17.8396 26.3406C20.1225 26.3323 22.4054 26.3406 24.6799 26.3406L24.6883 26.349Z" fill="white"/>
<path id="Vector_3" d="M22.0455 37.3873C20.6406 37.3873 19.2358 37.3873 17.8309 37.3873C16.6017 37.3873 15.7404 36.5845 15.7571 35.4974C15.7654 34.4354 16.61 33.6327 17.7975 33.6327C20.6574 33.6159 23.5173 33.6159 26.3771 33.6327C27.573 33.6327 28.3925 34.4187 28.4008 35.4974C28.4092 36.6096 27.5813 37.3873 26.3437 37.3957C24.9138 37.3957 23.4838 37.3957 22.0539 37.3957L22.0455 37.3873Z" fill="white"/>
</g>
</svg>
