<svg width="60" height="60" viewBox="0 0 60 60" fill="none" xmlns="http://www.w3.org/2000/svg">
<g id="IT Lead Generation 1">
<path id="Vector" d="M21.7921 41.4004H27.6001C27.6001 42.3904 27.6001 43.3564 27.6001 44.3224C27.5576 45.4625 27.9117 46.5821 28.6021 47.4904C29.1902 48.2377 29.9884 48.7918 30.8941 49.0816C31.7998 49.3714 32.7715 49.3835 33.6841 49.1164C34.5972 48.851 35.4072 48.3127 36.0056 47.5738C36.604 46.8349 36.9622 45.9307 37.0321 44.9824C37.0921 44.0104 37.0321 43.0324 37.0681 42.0604C37.0681 41.8504 37.0681 41.6404 37.0681 41.4004H42.8461C43.6861 48.0604 40.8541 53.6404 34.1341 54.9964C28.2001 56.1664 22.2001 51.5404 21.8041 45.4744C21.7141 44.1244 21.7921 42.7564 21.7921 41.4004Z" fill="white"/>
<path id="Vector_2" d="M48.0482 23.7062C46.4214 23.705 44.8314 23.2218 43.4789 22.3176C42.1265 21.4134 41.0723 20.1287 40.4495 18.6258C39.8266 17.1229 39.6631 15.4691 39.9794 13.8733C40.2958 12.2775 41.0779 10.8113 42.227 9.65964C43.3761 8.50803 44.8407 7.72271 46.4358 7.40286C48.0309 7.08301 49.685 7.24296 51.1893 7.86252C52.6935 8.48208 53.9805 9.53346 54.8877 10.8839C55.7948 12.2344 56.2815 13.8233 56.2862 15.4502C56.2886 16.5335 56.0773 17.6067 55.6643 18.6083C55.2514 19.6098 54.645 20.5201 53.8798 21.287C53.1145 22.0539 52.2056 22.6623 51.2049 23.0774C50.2043 23.4925 49.1316 23.7062 48.0482 23.7062ZM53.2082 19.7042C50.5442 17.0342 45.6542 17.0282 42.9002 19.6742C45.1082 22.7642 50.4002 23.2202 53.2082 19.7042ZM48.0542 9.65419C47.6839 9.65182 47.3167 9.72241 46.9737 9.86195C46.6306 10.0015 46.3184 10.2072 46.0549 10.4674C45.7914 10.7276 45.5817 11.0371 45.4378 11.3784C45.2939 11.7196 45.2186 12.0859 45.2162 12.4562C45.224 13.2038 45.5241 13.9188 46.0522 14.448C46.5803 14.9773 47.2946 15.2788 48.0422 15.2882C48.7902 15.2866 49.5072 14.9892 50.0367 14.4608C50.5661 13.9325 50.8651 13.2162 50.8682 12.4682C50.8706 12.098 50.7995 11.731 50.6589 11.3885C50.5183 11.046 50.3111 10.7348 50.0494 10.4731C49.7876 10.2113 49.4764 10.0041 49.1339 9.86352C48.7914 9.72295 48.4244 9.6518 48.0542 9.65419Z" fill="white"/>
<path id="Vector_3" d="M24.8461 15.4798C24.846 17.1135 24.3602 18.7102 23.4504 20.0671C22.5406 21.4239 21.2479 22.4796 19.7367 23.1C18.2254 23.7204 16.5638 23.8775 14.9631 23.5513C13.3623 23.2251 11.8947 22.4303 10.7468 21.268C9.59886 20.1056 8.82242 18.6282 8.51617 17.0236C8.20992 15.4189 8.38768 13.7594 9.02687 12.256C9.66605 10.7526 10.7378 9.47316 12.1059 8.58034C13.474 7.68752 15.0766 7.22162 16.7101 7.24184C18.8768 7.27023 20.9451 8.15048 22.4677 9.69217C23.9903 11.2339 24.8447 13.313 24.8461 15.4798ZM21.7621 19.6798C18.7621 16.8178 13.8421 17.2138 11.4841 19.7218C12.1054 20.4873 12.8902 21.1038 13.781 21.5262C14.6718 21.9485 15.6459 22.166 16.6317 22.1625C17.6176 22.1591 18.5901 21.9348 19.4779 21.5062C20.3657 21.0776 21.1462 20.4556 21.7621 19.6858V19.6798ZM16.6021 9.64784C15.8652 9.64778 15.1579 9.93805 14.6334 10.4558C14.109 10.9735 13.8096 11.677 13.8001 12.4138C13.7978 12.785 13.8685 13.1529 14.0083 13.4967C14.1482 13.8404 14.3544 14.1533 14.6151 14.4174C14.8759 14.6815 15.1861 14.8916 15.528 15.0358C15.87 15.18 16.237 15.2555 16.6081 15.2578C16.9792 15.2602 17.3472 15.1894 17.691 15.0496C18.0347 14.9098 18.3476 14.7036 18.6117 14.4429C18.8758 14.1821 19.0859 13.8719 19.2301 13.5299C19.3743 13.188 19.4498 12.821 19.4521 12.4498C19.4498 12.0788 19.3741 11.7118 19.2293 11.3701C19.0846 11.0284 18.8737 10.7187 18.6089 10.4589C18.344 10.199 18.0303 9.99409 17.6859 9.85593C17.3415 9.71777 16.9732 9.64909 16.6021 9.65384V9.64784Z" fill="white"/>
<path id="Vector_4" d="M32.9999 22.0379C34.581 22.0106 36.1518 22.296 37.6222 22.8778C39.0926 23.4596 40.4335 24.3262 41.5679 25.4279C42.1679 26.0279 42.1679 26.8319 41.4659 27.1979C41.2417 27.3218 40.9806 27.3614 40.7298 27.3097C40.4789 27.258 40.2548 27.1183 40.0979 26.9159C38.6703 25.5139 36.8378 24.5966 34.8599 24.2939C33.0557 23.9985 31.2075 24.1254 29.4606 24.6647C27.7137 25.2039 26.1156 26.1409 24.7919 27.4019C24.6419 27.5339 24.5159 27.6779 24.3599 27.8039C24.1566 27.9893 23.8888 28.0875 23.6139 28.0774C23.339 28.0673 23.079 27.9497 22.8899 27.7499C22.7932 27.652 22.7175 27.5354 22.6674 27.4073C22.6173 27.2791 22.5937 27.1421 22.5982 27.0046C22.6027 26.8671 22.6351 26.7319 22.6935 26.6073C22.7519 26.4828 22.8351 26.3714 22.9379 26.2799C24.0354 25.1691 25.3085 24.2468 26.7059 23.5499C28.6526 22.5495 30.8111 22.0309 32.9999 22.0379Z" fill="white"/>
<path id="Vector_5" d="M27.5461 40.0981H21.7861V34.6201H27.5461V40.0981Z" fill="white"/>
<path id="Vector_6" d="M37.104 40.0858V34.6318H42.888V40.0858H37.104Z" fill="white"/>
<path id="Vector_7" d="M32.5562 25.4341C34.9373 25.3604 37.2525 26.2219 39.0062 27.8341C39.6062 28.3801 39.6722 28.9921 39.2462 29.4661C38.8202 29.9401 38.1902 29.9041 37.6022 29.3821C34.8602 26.9161 30.7382 26.8681 27.6242 29.2621C27.3362 29.4901 27.0662 29.7421 26.7842 29.9881C26.6872 30.0972 26.5688 30.1855 26.4365 30.2474C26.3042 30.3093 26.1606 30.3435 26.0146 30.348C25.8685 30.3525 25.7231 30.3271 25.5872 30.2735C25.4513 30.2199 25.3278 30.1391 25.2242 30.0361C25.1233 29.9299 25.0455 29.8038 24.9959 29.666C24.9463 29.5281 24.926 29.3814 24.9361 29.2353C24.9463 29.0891 24.9868 28.9467 25.0549 28.817C25.1231 28.6873 25.2176 28.5733 25.3322 28.4821C27.2517 26.5645 29.8433 25.471 32.5562 25.4341Z" fill="white"/>
<path id="Vector_8" d="M37.2 31.374C36.9759 31.6888 36.7162 31.9767 36.426 32.232C36.2371 32.3538 36.0096 32.4009 35.7879 32.3643C35.5661 32.3277 35.3659 32.21 35.226 32.034C34.7959 31.622 34.2789 31.3116 33.713 31.1257C33.1471 30.9398 32.5467 30.8832 31.956 30.96C30.9053 31.0863 29.9209 31.5397 29.142 32.256C28.8962 32.4944 28.572 32.6352 28.23 32.652C28.0506 32.6199 27.8802 32.5497 27.7301 32.4462C27.5801 32.3427 27.4539 32.2083 27.36 32.052C27.3028 31.8759 27.2871 31.6889 27.3142 31.5057C27.3412 31.3225 27.4103 31.1481 27.516 30.996C29.958 28.38 34.08 28.068 36.6 30.468C36.8307 30.7486 37.0317 31.0522 37.2 31.374Z" fill="white"/>
</g>
</svg>
