<svg width="50" height="50" viewBox="0 0 50 50" fill="none" xmlns="http://www.w3.org/2000/svg">
<g id="Lead 1">
<path id="Vector" d="M40.6808 1.25C41.2358 1.445 41.8208 1.535 42.3608 1.79C44.9258 3 46.2608 5.76 45.5958 8.52C44.9558 11.19 42.4608 13.065 39.6858 12.965C36.9008 12.86 34.5758 10.815 34.1108 8.055C33.6158 5.12 35.5408 2.175 38.4258 1.44C38.5958 1.395 38.7908 1.42 38.9158 1.255H40.6808V1.25Z" fill="white"/>
<path id="Vector_2" d="M10.8955 1.25C11.0905 1.415 11.3455 1.375 11.5755 1.435C14.2305 2.12 16.1255 4.7 15.9405 7.41C15.7455 10.28 13.6105 12.6 10.8605 12.935C7.74052 13.31 4.82052 11.185 4.31552 8.165C3.78052 4.965 5.82052 1.995 8.99552 1.355C9.07552 1.34 9.19053 1.385 9.22553 1.255H10.8955V1.25Z" fill="white"/>
<path id="Vector_3" d="M25.0252 19.1454C30.4352 19.1454 35.8502 19.1454 41.2602 19.1454C43.4302 19.1454 45.1002 20.4254 45.6302 22.4454C46.3252 25.1104 44.3152 27.8204 41.5602 27.8654C39.2702 27.9054 36.9852 27.8754 34.6952 27.8754C26.0502 27.8754 17.4102 27.8754 8.76522 27.8754C6.60022 27.8754 4.91022 26.6004 4.38022 24.5904C3.67022 21.8954 5.67522 19.1704 8.47022 19.1554C13.9902 19.1204 19.5102 19.1454 25.0302 19.1454H25.0252Z" fill="white"/>
<path id="Vector_4" d="M12.3398 30.6846H37.6098C37.5498 30.8796 37.3998 30.9696 37.2848 31.0796C34.7498 33.6196 32.2198 36.1546 29.6748 38.6846C29.4448 38.9096 29.3598 39.1346 29.3598 39.4546C29.3748 41.0296 29.3548 42.6096 29.3748 44.1846C29.3848 44.9196 29.0748 45.4046 28.4198 45.7246C26.5248 46.6546 24.6448 47.6146 22.7548 48.5496C21.6448 49.0996 20.6398 48.4546 20.6398 47.2096C20.6398 44.6146 20.6348 42.0146 20.6448 39.4196C20.6448 39.1146 20.5548 38.9046 20.3398 38.6946C17.7948 36.1646 15.2648 33.6246 12.7298 31.0896C12.6148 30.9746 12.5048 30.8546 12.3448 30.6846H12.3398Z" fill="white"/>
<path id="Vector_5" d="M25.0146 15.9596C21.8146 15.9746 19.1646 13.3546 19.1446 10.1546C19.1246 6.89462 21.7496 4.23462 24.9846 4.22462C28.1896 4.21962 30.8346 6.83462 30.8546 10.0346C30.8746 13.2996 28.2646 15.9446 25.0146 15.9596Z" fill="white"/>
</g>
</svg>
