<svg width="150" height="150" viewBox="0 0 150 150" fill="none" xmlns="http://www.w3.org/2000/svg">
<g id="Mesa de trabajo 1 copy 4 1">
<g id="Group">
<g id="OBJECTS">
<path id="Vector" d="M117.93 22.3203H37.9351C25.9229 22.3203 16.1851 32.0581 16.1851 44.0703V118.77C16.1851 130.783 25.9229 140.52 37.9351 140.52H117.93C129.942 140.52 139.68 130.783 139.68 118.77V44.0703C139.68 32.0581 129.942 22.3203 117.93 22.3203Z" fill="#060044"/>
<path id="Vector_2" d="M117.93 10.9053H37.9351C25.9229 10.9053 16.1851 20.6431 16.1851 32.6553V107.355C16.1851 119.367 25.9229 129.105 37.9351 129.105H117.93C129.942 129.105 139.68 119.367 139.68 107.355V32.6553C139.68 20.6431 129.942 10.9053 117.93 10.9053Z" fill="#FF0000"/>
<path id="Vector_3" style="mix-blend-mode:screen" opacity="0.3" d="M117.93 127.5H37.9351C32.1692 127.5 26.6393 125.211 22.5608 121.135C18.4823 117.06 16.189 111.531 16.1851 105.765V107.445C16.1851 113.214 18.4766 118.746 22.5555 122.825C26.6344 126.904 32.1666 129.195 37.9351 129.195H117.93C123.699 129.195 129.231 126.904 133.31 122.825C137.389 118.746 139.68 113.214 139.68 107.445V105.69C139.688 108.552 139.131 111.386 138.042 114.032C136.952 116.678 135.351 119.083 133.331 121.109C131.31 123.135 128.91 124.742 126.267 125.839C123.625 126.936 120.791 127.5 117.93 127.5Z" fill="url(#paint0_radial_1190_4472)"/>
<path id="Vector_4" style="mix-blend-mode:overlay" opacity="0.4" d="M37.9351 12.6003H117.93C123.696 12.6003 129.226 14.8897 133.304 18.9654C137.383 23.0411 139.676 28.5694 139.68 34.3353V32.6553C139.68 26.8868 137.389 21.3546 133.31 17.2757C129.231 13.1968 123.699 10.9053 117.93 10.9053H37.9351C32.1666 10.9053 26.6344 13.1968 22.5555 17.2757C18.4766 21.3546 16.1851 26.8868 16.1851 32.6553V34.3353C16.189 28.5694 18.4823 23.0411 22.5608 18.9654C26.6393 14.8897 32.1692 12.6003 37.9351 12.6003Z" fill="url(#paint1_linear_1190_4472)"/>
<path id="Vector_5" d="M77.79 48.4502C84.45 48.4502 90.96 48.6752 97.47 48.9752C99.5869 49.0096 101.696 49.2406 103.77 49.6652C105.981 50.0818 107.95 51.3265 109.275 53.1452C110.041 54.3197 110.58 55.6272 110.865 57.0002C111.236 58.7568 111.437 60.5451 111.465 62.3402C111.645 66.0452 111.885 69.7352 111.855 73.4252C111.888 76.538 111.718 79.6496 111.345 82.7402C111.184 84.1516 110.949 85.5536 110.64 86.9402C110.308 88.5018 109.526 89.9319 108.39 91.0541C107.255 92.1764 105.815 92.9415 104.25 93.2552C102.405 93.7271 100.514 93.9986 98.61 94.0652C93.675 94.3052 88.755 94.5452 83.82 94.6352C77.16 94.7402 70.5 94.6352 63.84 94.3652C61.635 94.2602 59.445 94.1852 57.24 94.0652C55.4308 93.9806 53.6332 93.7296 51.87 93.3152C50.1969 93.0252 48.6533 92.2279 47.4486 91.0312C46.2438 89.8345 45.4362 88.2963 45.135 86.6252C44.598 83.9288 44.2621 81.1963 44.13 78.4502C43.9225 73.4951 43.9926 68.5324 44.34 63.5852C44.43 61.8902 44.46 60.1952 44.715 58.5002C44.8597 57.4797 45.1008 56.4752 45.435 55.5002C45.8992 54.0757 46.7321 52.7994 47.8492 51.8009C48.9662 50.8024 50.3276 50.1173 51.795 49.8152C53.3233 49.4333 54.8862 49.2072 56.46 49.1402C60.96 48.9452 65.325 48.7202 69.765 48.6152C72.48 48.4652 75.195 48.4202 77.79 48.4502ZM71.07 81.2702L88.5 71.5202L71.13 61.7702L71.07 81.2702Z" fill="url(#paint2_linear_1190_4472)"/>
<path id="Vector_6" d="M71.0698 81.2705V61.7705L88.4998 71.5205L71.0698 81.2705Z" fill="url(#paint3_linear_1190_4472)"/>
</g>
</g>
</g>
<defs>
<radialGradient id="paint0_radial_1190_4472" cx="0" cy="0" r="1" gradientUnits="userSpaceOnUse" gradientTransform="translate(77.9401 117.405) scale(44.445 44.445)">
<stop stop-color="white"/>
<stop offset="1" stop-color="#DBDBDB"/>
</radialGradient>
<linearGradient id="paint1_linear_1190_4472" x1="92.8651" y1="51.4203" x2="51.4201" y2="-7.84473" gradientUnits="userSpaceOnUse">
<stop stop-color="#616161"/>
<stop offset="0.99" stop-color="white"/>
</linearGradient>
<linearGradient id="paint2_linear_1190_4472" x1="44.01" y1="71.5352" x2="111.855" y2="71.5352" gradientUnits="userSpaceOnUse">
<stop stop-color="white"/>
<stop offset="1" stop-color="#DBDBDB"/>
</linearGradient>
<linearGradient id="paint3_linear_1190_4472" x1="50.8498" y1="36.4055" x2="79.0198" y2="75.3755" gradientUnits="userSpaceOnUse">
<stop stop-color="#E65E5E"/>
<stop offset="0.12" stop-color="#E34C4C"/>
<stop offset="0.36" stop-color="#DF2B2B"/>
<stop offset="0.6" stop-color="#DC1313"/>
<stop offset="0.81" stop-color="#DA0505"/>
<stop offset="1" stop-color="#D90000"/>
</linearGradient>
</defs>
</svg>
