<svg width="26" height="29" viewBox="0 0 26 29" fill="none" xmlns="http://www.w3.org/2000/svg">
<g id="optimaization 1" clip-path="url(#clip0_1428_4571)">
<path id="Vector" d="M8.21649 25.7505V21.6399H9.00437V23.4075C9.00437 23.785 9.00437 24.1624 9.00437 24.5353C9.00437 24.9081 9.13944 24.9956 9.45459 24.9956H24.6719C25.3382 24.9956 25.3607 24.9956 25.3607 24.2867V20.6686C25.3607 19.992 25.3607 19.9735 24.6989 19.9735H13.0113L14.7311 18.1323L14.6681 18.0448H24.7619C25.3247 18.0448 25.3607 18.008 25.3607 17.428C25.3607 14.8932 25.3607 12.3584 25.3607 9.82354C25.3607 9.21132 25.3292 9.17449 24.7439 9.17449H14.2989L14.7491 8.37354H20.8586C20.9568 8.39227 21.0575 8.39227 21.1557 8.37354C21.2855 8.2913 21.4089 8.19896 21.5249 8.09735C21.4182 7.9864 21.2988 7.88903 21.1692 7.80735C21.0578 7.78404 20.943 7.78404 20.8316 7.80735C18.7335 7.80735 16.6355 7.80735 14.5285 7.80735C14.3327 7.82533 14.1356 7.79258 13.9554 7.71213C13.7752 7.63168 13.6177 7.50612 13.4975 7.34703C13.3271 7.1599 13.1419 6.98747 12.9438 6.83148L13.0068 6.70259H13.457C15.9377 6.70259 18.4094 6.70259 20.8946 6.70259C21.1332 6.70259 21.4934 6.79926 21.5024 6.4218C21.5114 6.04434 21.1467 6.13179 20.9126 6.13179H9.57164C9.36004 5.80497 9.71121 5.31243 9.23848 5.21116C8.90343 5.17163 8.56505 5.17163 8.23 5.21116V0.677033C8.37407 0.677033 8.52264 0.649414 8.68021 0.649414C13.0743 0.649414 17.4684 0.649414 21.8581 0.649414C22.2452 0.649414 22.3668 0.746081 22.3578 1.15116C22.3308 2.28354 22.3578 3.41132 22.3578 4.5391C22.3578 4.93497 22.4929 5.08227 22.8755 5.07307C23.776 5.07307 24.7214 5.07307 25.6399 5.07307H26.1126V25.7873L8.21649 25.7505ZM15.3074 1.45497C13.3985 1.45497 11.4851 1.45497 9.57164 1.45497C9.05389 1.45497 9.02688 1.48259 9.02688 2.02576C9.02688 2.87735 9.02688 3.73354 9.02688 4.58513C9.02688 4.91656 9.13043 5.04545 9.4771 5.04545H21.0837C21.4078 5.04545 21.5339 4.91656 21.5339 4.58513C21.5339 3.73354 21.5339 2.87735 21.5339 2.02576C21.5339 1.46878 21.5339 1.44576 20.9486 1.44576L15.3074 1.45497Z" fill="white"/>
<path id="Vector_2" d="M9.57611 24.3742V20.5996H24.7619V24.3742H9.57611Z" fill="white"/>
<path id="Vector_3" d="M14.4519 15.821C14.4999 15.5669 14.5692 15.3174 14.659 15.0753C14.7005 15.0188 14.7541 14.9727 14.8158 14.9408C14.8775 14.9089 14.9455 14.8919 15.0147 14.8912C17.8015 14.8406 20.5839 14.8037 23.3662 14.7623C23.4247 14.7623 23.4922 14.7623 23.5328 14.7623C23.6858 14.6702 23.8299 14.5644 23.983 14.4677C23.8344 14.371 23.6813 14.1961 23.5328 14.1961C21.2367 14.1961 18.9406 14.1961 16.6445 14.1961H16.1132V13.0821H23.4112C23.6453 13.0821 23.965 13.1374 23.956 12.7783C23.947 12.4193 23.6498 12.5021 23.4247 12.5021H16.0952C16.1672 11.959 15.8611 11.8945 15.4739 11.9221C15.3163 11.9221 15.1587 11.9221 15.0237 11.9221C14.695 11.9544 14.5464 11.8163 14.596 11.4204H23.4112C23.6408 11.4204 23.974 11.4802 23.974 11.1258C23.974 10.7713 23.6453 10.8404 23.4157 10.8404C20.5523 10.8404 17.6935 10.8404 14.8301 10.8404C14.4339 10.8404 14.1998 10.7391 14.0737 10.3525C13.9921 10.152 13.8958 9.95811 13.7856 9.77246H24.7619V17.4413C24.6493 17.4413 24.5277 17.469 24.4017 17.469C21.1001 17.469 17.7865 17.469 14.4609 17.469C14.2467 17.4389 14.0375 17.3785 13.8396 17.2894C13.8424 17.2276 13.85 17.166 13.8621 17.1053C14.0377 16.5253 14.4024 16.3734 15.0012 16.3826C17.7025 16.424 20.4038 16.3826 23.1051 16.3826H23.4112C23.6408 16.3826 23.965 16.4471 23.9695 16.0926C23.974 15.7382 23.6453 15.8026 23.4112 15.8026H14.4519V15.821Z" fill="white"/>
<path id="Vector_4" d="M8.93679 21.0093H7.17194C7.17194 20.7146 7.17194 20.4431 7.17194 20.1715C7.17194 19.8999 7.04588 19.8078 6.81627 19.7112C6.05991 19.4073 5.30805 19.0897 4.56519 18.7399C4.31307 18.6248 4.14199 18.611 3.9709 18.8273C3.79982 19.0437 3.63324 19.2554 3.48017 19.4488L2.12952 18.0678L2.77783 17.5108C2.96692 17.3451 2.95792 17.1748 2.85887 16.9354C2.53922 16.1851 2.24658 15.421 1.95844 14.6339C1.86839 14.3715 1.75134 14.2518 1.47671 14.2656C1.20207 14.2794 0.918437 14.2656 0.607788 14.2656V12.5026C0.92294 12.5026 1.22909 12.5026 1.53974 12.5026C1.85039 12.5026 1.89541 12.3921 1.98995 12.1527C2.27809 11.4024 2.59774 10.6659 2.9309 9.93862C2.99446 9.85159 3.02205 9.74253 3.00774 9.63491C2.99342 9.5273 2.93835 9.42973 2.85437 9.36322L2.12051 8.68655L3.49368 7.37005L4.13298 8.13417C4.29956 8.33671 4.46164 8.30909 4.69125 8.20322C5.38458 7.8856 6.08692 7.5864 6.79826 7.32401C7.05939 7.22735 7.17194 7.11227 7.16294 6.83608C7.15393 6.55989 7.16294 6.17782 7.16294 5.80957H8.92779C8.90296 6.1651 8.90296 6.52198 8.92779 6.87751C8.94845 6.96493 8.9873 7.04678 9.04168 7.11748C9.09606 7.18817 9.16471 7.24606 9.24294 7.28719C9.94978 7.60481 10.6791 7.8764 11.386 8.20782C11.6156 8.3137 11.7777 8.3229 11.9442 8.12957L12.6331 7.35163L13.9027 8.73259C13.7001 8.92592 13.4525 9.16528 13.2093 9.39084C12.9662 9.6164 13.0293 9.72687 13.1373 9.96163C13.4705 10.6751 13.7856 11.3978 14.0603 12.1343C14.1638 12.4105 14.2719 12.5486 14.569 12.5302C14.8661 12.5118 15.1318 12.5302 15.4694 12.5302V14.33C15.1993 14.33 14.9247 14.33 14.65 14.33C14.3754 14.33 14.1998 14.4451 14.1188 14.7443C13.8712 15.49 13.583 16.2266 13.2724 16.9446C13.1508 17.2162 13.1463 17.405 13.3669 17.5937C13.5875 17.7824 13.7586 17.962 13.9567 18.1507L12.6061 19.4488L12.0883 18.8043C11.9172 18.6018 11.7506 18.6386 11.5255 18.7445C10.7827 19.0897 10.0353 19.412 9.27445 19.7158C9.02233 19.8124 8.90077 19.9321 8.91878 20.2129C8.93679 20.4937 8.93679 20.7239 8.93679 21.0093ZM2.70129 13.46C2.70219 14.5451 3.01801 15.6056 3.60874 16.507C4.19948 17.4085 5.03856 18.1104 6.01975 18.524C7.00093 18.9375 8.08007 19.0441 9.12052 18.8302C10.161 18.6162 11.1159 18.0914 11.8645 17.3222C12.613 16.553 13.1215 15.574 13.3255 14.5091C13.5295 13.4443 13.4198 12.3415 13.0104 11.3404C12.6009 10.3393 11.9102 9.48492 11.0255 8.88548C10.1409 8.28605 9.10214 7.96851 8.04086 7.97306C6.62261 7.98157 5.26521 8.56327 4.26488 9.59123C3.26454 10.6192 2.70246 12.01 2.70129 13.46Z" fill="white"/>
<path id="Vector_5" d="M26.1125 27.965H8.2254V26.377H26.1125V27.965Z" fill="white"/>
<path id="Vector_6" d="M25.7929 4.48881H22.9205V1.1377L25.7929 4.48881Z" fill="white"/>
<path id="Vector_7" d="M9.69763 6.73926H12.507L11.6065 7.56323L9.69763 6.73926Z" fill="white"/>
<path id="Vector_8" d="M12.3269 19.9454H10.6071L11.7596 19.3193L12.3269 19.9454Z" fill="white"/>
<path id="Vector_9" d="M9.57611 4.48838V2.09473H20.9396V4.48838H9.57611Z" fill="white"/>
<path id="Vector_10" d="M3.25055 13.4407C3.25322 12.4697 3.53734 11.5213 4.06701 10.7153C4.59668 9.90932 5.34813 9.28195 6.2264 8.91245C7.10468 8.54296 8.07037 8.44793 9.00145 8.63938C9.93252 8.83082 10.7872 9.30015 11.4575 9.98805C12.1278 10.676 12.5836 11.5516 12.7674 12.5042C12.9511 13.4569 12.8546 14.4439 12.4899 15.3405C12.1252 16.2371 11.5088 17.003 10.7185 17.5416C9.92825 18.0801 8.99958 18.3671 8.04986 18.3661C6.77498 18.3625 5.55361 17.8418 4.65382 16.9184C3.75404 15.9949 3.24935 14.7442 3.25055 13.4407ZM5.4251 13.4407C5.42151 13.796 5.48709 14.1485 5.61801 14.4777C5.74893 14.8068 5.94258 15.106 6.18768 15.3579C6.43279 15.6098 6.72445 15.8093 7.0457 15.9449C7.36694 16.0804 7.71135 16.1493 8.05886 16.1474C8.58047 16.1483 9.09064 15.9911 9.52489 15.6957C9.95915 15.4002 10.298 14.9798 10.4986 14.4875C10.6993 13.9953 10.7527 13.4532 10.6521 12.9299C10.5516 12.4066 10.3015 11.9255 9.93365 11.5474C9.56576 11.1694 9.09652 10.9113 8.58522 10.8058C8.07392 10.7003 7.54351 10.7521 7.06101 10.9548C6.57851 11.1574 6.16559 11.5017 5.87441 11.9442C5.58324 12.3866 5.42688 12.9074 5.4251 13.4407Z" fill="white"/>
<path id="Vector_11" d="M5.96987 13.4363C5.97344 13.0159 6.0988 12.6061 6.3301 12.2585C6.56141 11.9109 6.88829 11.6412 7.26945 11.4835C7.6506 11.3257 8.06893 11.2871 8.47157 11.3723C8.87422 11.4576 9.24312 11.6629 9.53166 11.9624C9.82021 12.262 10.0155 12.6422 10.0927 13.0551C10.17 13.468 10.1258 13.8951 9.96583 14.2824C9.80582 14.6697 9.53713 14.9998 9.19371 15.231C8.85028 15.4622 8.44754 15.5841 8.03636 15.5814C7.48467 15.5753 6.95773 15.3464 6.57057 14.9445C6.18341 14.5426 5.96746 14.0004 5.96987 13.4363Z" fill="white"/>
</g>
<defs>
<clipPath id="clip0_1428_4571">
<rect width="26" height="29" fill="white"/>
</clipPath>
</defs>
</svg>
