<svg width="65" height="65" viewBox="0 0 65 65" fill="none" xmlns="http://www.w3.org/2000/svg">
<g id="Overcome Short Attention Spans&#226;&#128;&#168; 1">
<path id="Vector" d="M49.5948 39.3251H53.0593C53.8133 39.3251 53.9693 39.4811 53.9693 40.2221C53.9693 42.9651 53.9693 45.7059 53.9693 48.4446C53.9693 49.1856 53.8263 49.3351 53.0983 49.3351H43.2898C42.5748 49.3351 42.4253 49.1921 42.4253 48.4901V40.1896C42.4253 39.4876 42.5878 39.3251 43.2833 39.3251H46.7998V15.5481C46.7998 15.3856 46.7998 15.2231 46.7998 15.0606C46.7988 14.9818 46.814 14.9037 46.8442 14.831C46.8745 14.7583 46.9194 14.6925 46.976 14.6378C47.0325 14.583 47.0997 14.5404 47.1734 14.5125C47.247 14.4846 47.3256 14.472 47.4043 14.4756C47.9178 14.4756 48.4378 14.4756 48.9513 14.4756C49.0327 14.4675 49.1148 14.4763 49.1926 14.5016C49.2704 14.5268 49.342 14.5679 49.4031 14.6223C49.4642 14.6767 49.5134 14.7431 49.5475 14.8174C49.5816 14.8917 49.5999 14.9723 49.6013 15.0541C49.6111 15.2034 49.6111 15.3532 49.6013 15.5026V39.3251H49.5948Z" fill="white"/>
<path id="Vector_2" d="M21.4501 49.3352H16.5166C15.8666 49.3352 15.7041 49.1662 15.7041 48.5097V40.1637C15.7041 39.5137 15.8861 39.3252 16.5491 39.3252H26.3966C27.0466 39.3252 27.2481 39.4942 27.2481 40.1572V48.5032C27.2481 49.1532 27.0921 49.3352 26.4096 49.3352H21.4501Z" fill="white"/>
<path id="Vector_3" d="M35.1002 23.1794V25.9484C35.1002 26.8844 35.4772 27.2484 36.4002 27.2484C37.0502 27.2484 37.7327 27.2094 38.3957 27.2484C38.7144 27.2665 39.0192 27.3848 39.2667 27.5864C40.6317 28.8864 41.9707 30.2514 43.3032 31.6034C43.5945 31.8931 43.7589 32.2865 43.7601 32.6973C43.7613 33.1081 43.5993 33.5026 43.3097 33.7939C43.0201 34.0853 42.6266 34.2496 42.2158 34.2509C41.805 34.2521 41.4105 34.0901 41.1192 33.8004C40.1572 32.8644 39.2017 31.9219 38.2722 30.9469C38.0921 30.7349 37.8665 30.5663 37.6121 30.4538C37.3577 30.3412 37.0812 30.2876 36.8032 30.2969C35.5032 30.3359 34.1447 30.2579 32.8187 30.2969C32.4154 30.3323 32.0093 30.2793 31.6286 30.1415C31.2479 30.0037 30.902 29.7845 30.6148 29.4991C30.3276 29.2138 30.1061 28.8692 29.9659 28.4895C29.8256 28.1097 29.7699 27.7039 29.8027 27.3004C29.8807 25.6624 29.8027 24.0504 29.8027 22.3734C29.8027 22.0939 29.8027 21.8144 29.4582 21.7234C29.1137 21.6324 28.9382 21.8339 28.8082 22.1004C28.1582 23.2119 27.5472 24.3169 26.8972 25.4089C26.7897 25.6031 26.6416 25.7717 26.463 25.9033C26.2843 26.0349 26.0794 26.1264 25.8621 26.1715C25.6448 26.2165 25.4204 26.2141 25.2042 26.1644C24.9879 26.1147 24.785 26.0189 24.6092 25.8834C24.3246 25.6675 24.1259 25.3575 24.0485 25.0087C23.9711 24.6599 24.0201 24.295 24.1867 23.9789C25.0577 22.4189 25.9612 20.8719 26.8647 19.3314C27.0027 19.1026 27.2 18.9154 27.4357 18.7895C27.6714 18.6636 27.9368 18.6038 28.2037 18.6164C29.9652 18.6164 31.7332 18.6164 33.4947 18.6164C33.7108 18.6049 33.9269 18.6394 34.1287 18.7176C34.3305 18.7959 34.5133 18.9161 34.6651 19.0704C34.8169 19.2246 34.9342 19.4094 35.0092 19.6124C35.0842 19.8154 35.1152 20.032 35.1002 20.2479C35.1002 21.2229 35.1002 22.1979 35.1002 23.1794Z" fill="white"/>
<path id="Vector_4" d="M50.9468 23.2833V16.6143H51.3238H56.5238C56.8163 16.6143 57.1088 16.6143 57.2388 16.9458C57.3688 17.2773 57.1933 17.4853 56.9918 17.7063C56.4458 18.3043 55.9063 18.9088 55.3668 19.5198C55.0483 19.8773 55.0483 20.0788 55.3668 20.4363C55.9323 21.0863 56.5173 21.6973 57.0633 22.3538C57.1351 22.4441 57.1858 22.5493 57.2117 22.6618C57.2376 22.7743 57.2379 22.8911 57.2128 23.0038C57.1504 23.1002 57.066 23.1806 56.9666 23.2382C56.8672 23.2958 56.7555 23.3291 56.6408 23.3353C54.7948 23.3353 52.9553 23.3353 51.1093 23.3353C51.0531 23.3251 50.9984 23.3077 50.9468 23.2833Z" fill="white"/>
<path id="Vector_5" d="M29.1982 30.0166C29.9977 30.9331 30.0107 30.9396 31.9022 31.7001C31.4472 32.1421 31.0117 32.5581 30.6022 33.0001C30.0237 33.5721 29.4452 34.1441 28.8797 34.7291C28.7471 34.8731 28.5849 34.9866 28.4042 35.0618C28.2236 35.137 28.0287 35.1721 27.8332 35.1646H23.4002C23.189 35.1783 22.9773 35.1486 22.7781 35.0772C22.5789 35.0058 22.3965 34.8943 22.2421 34.7496C22.0877 34.6049 21.9646 34.4301 21.8805 34.2359C21.7963 34.0418 21.7529 33.8324 21.7529 33.6209C21.7529 33.4093 21.7963 33.1999 21.8805 33.0058C21.9646 32.8116 22.0877 32.6368 22.2421 32.4921C22.3965 32.3474 22.5789 32.2359 22.7781 32.1645C22.9773 32.0931 23.189 32.0634 23.4002 32.0771C24.4142 32.0771 25.4347 32.0771 26.4487 32.0771C26.6644 32.0895 26.88 32.0526 27.0794 31.9693C27.2787 31.8859 27.4565 31.7583 27.5992 31.5961C28.1452 31.0566 28.6717 30.5496 29.1982 30.0166Z" fill="white"/>
<path id="Vector_6" d="M32.4482 16.6852C31.9221 16.6864 31.4075 16.5316 30.9695 16.2403C30.5314 15.9489 30.1897 15.5342 29.9874 15.0485C29.7852 14.5629 29.7317 14.0281 29.8335 13.512C29.9353 12.9959 30.188 12.5216 30.5596 12.1491C30.9311 11.7767 31.4048 11.5228 31.9207 11.4197C32.4365 11.3166 32.9714 11.3689 33.4576 11.5699C33.9437 11.7709 34.3593 12.1117 34.6517 12.549C34.9441 12.9863 35.1002 13.5006 35.1002 14.0267C35.0985 14.7301 34.8187 15.4043 34.322 15.9023C33.8252 16.4003 33.1516 16.6817 32.4482 16.6852Z" fill="white"/>
<path id="Vector_7" d="M36.439 23.706V20.7095C37.1618 20.6606 37.8871 20.6606 38.61 20.7095C38.9612 20.7803 39.2735 20.9792 39.4861 21.2675C39.6988 21.5559 39.7966 21.913 39.7605 22.2695C39.7486 22.6206 39.6106 22.9558 39.3719 23.2136C39.1332 23.4714 38.8097 23.6346 38.4605 23.6735C37.8105 23.758 37.1475 23.706 36.439 23.706Z" fill="white"/>
<path id="Vector_8" d="M19.695 19.715C20.2735 19.715 20.8585 19.715 21.437 19.715C22.0155 19.715 22.243 19.988 22.243 20.365C22.243 20.742 21.9245 21.015 21.437 21.015C20.2865 21.015 19.136 21.015 17.9855 21.015C17.511 21.015 17.2185 20.755 17.212 20.365C17.2055 19.975 17.4915 19.715 17.9855 19.676C18.4795 19.637 19.123 19.715 19.695 19.715Z" fill="white"/>
<path id="Vector_9" d="M19.7339 26.7861C19.1424 26.7861 18.5444 26.7861 17.9464 26.7861C17.4784 26.7861 17.1989 26.5131 17.2119 26.1361C17.2112 26.0438 17.2302 25.9524 17.2676 25.868C17.3051 25.7836 17.3601 25.7081 17.4289 25.6466C17.4978 25.5851 17.579 25.539 17.6671 25.5113C17.7552 25.4836 17.8482 25.4751 17.9399 25.4861C19.1359 25.4861 20.3254 25.4861 21.5149 25.4861C21.6873 25.4861 21.8526 25.5546 21.9745 25.6765C22.0964 25.7984 22.1649 25.9638 22.1649 26.1361C22.1649 26.3085 22.0964 26.4739 21.9745 26.5958C21.8526 26.7177 21.6873 26.7861 21.5149 26.7861C20.9299 26.7926 20.3319 26.7861 19.7339 26.7861Z" fill="white"/>
</g>
</svg>
