<svg width="70" height="70" viewBox="0 0 70 70" fill="none" xmlns="http://www.w3.org/2000/svg">
<g id="Paid Social Media Marketing 1">
<path id="Vector" d="M8.39952 11.5645H61.5295C61.5295 11.8515 61.5715 12.1175 61.5715 12.3835C61.5715 21.6795 61.5715 30.9755 61.5715 40.2715C61.6278 41.2808 61.3842 42.2842 60.8715 43.1555C60.5633 43.7063 60.1146 44.1656 59.5711 44.4866C59.0276 44.8075 58.4087 44.9786 57.7775 44.9825C55.2155 44.9825 52.6465 44.9825 50.0775 44.9825C49.7867 44.9601 49.5102 44.8475 49.2865 44.6604C47.563 43.2062 45.5191 42.1815 43.3227 41.6704C41.1263 41.1593 38.84 41.1765 36.6515 41.7205C36.3845 41.7833 36.1065 41.7833 35.8395 41.7205C33.6341 41.1642 31.3278 41.1421 29.1121 41.6558C26.8964 42.1696 24.8351 43.2044 23.0995 44.6745C22.8462 44.8633 22.5404 44.9686 22.2245 44.9755C18.9578 44.9755 15.6912 44.9755 12.4245 44.9755C11.4215 44.9892 10.4508 44.6206 9.70971 43.9445C8.96862 43.2684 8.51268 42.3355 8.43452 41.3355C8.40202 40.9631 8.39033 40.5891 8.39952 40.2155C8.39952 30.9428 8.39952 21.6725 8.39952 12.4045V11.5645ZM36.9875 27.7625V19.3205C36.9875 16.8355 35.6575 15.4985 33.1865 15.4915H16.3095C13.8875 15.4915 12.5295 16.8565 12.5225 19.2645V36.1415C12.5225 38.5425 13.9225 39.9495 16.2955 39.9565H33.2425C35.5945 39.9565 36.9805 38.5565 36.9805 36.2045C36.9898 33.3905 36.9922 30.5765 36.9875 27.7625ZM48.5025 15.8625C46.2205 15.8625 43.9315 15.8625 41.6425 15.8625C40.8935 15.8625 40.4315 16.2825 40.4245 16.9055C40.4175 17.5285 40.9145 17.9695 41.7825 17.9695C46.2578 17.9695 50.7285 17.9695 55.1945 17.9695C56.1395 17.9695 56.5945 17.5985 56.5945 16.8845C56.5945 16.1705 56.1395 15.8625 55.1945 15.8625C52.9755 15.8275 50.7425 15.8345 48.5025 15.8345V15.8625ZM45.7025 22.9605H41.7125C40.9005 22.9605 40.4245 23.3735 40.4245 24.0175C40.4245 24.6615 40.9005 25.0675 41.7125 25.0675H49.6995C50.5045 25.0675 50.9805 24.6615 50.9805 24.0175C50.9805 23.3735 50.5045 22.9675 49.6995 22.9605H45.7025ZM45.3315 30.0515H41.7125C40.9075 30.0515 40.4315 30.4575 40.4245 31.1015C40.4175 31.7455 40.9005 32.1585 41.7055 32.1585H48.8525C49.6715 32.1585 50.1195 31.7735 50.1265 31.1085C50.1335 30.4435 49.6995 30.0305 48.8595 30.0235L45.3315 30.0515ZM42.9445 39.6905C43.4205 39.6905 43.8965 39.6905 44.3445 39.6905C44.623 39.6997 44.8938 39.598 45.0972 39.4077C45.3007 39.2173 45.4202 38.9539 45.4295 38.6755C45.4388 38.397 45.3371 38.1262 45.1467 37.9227C44.9564 37.7193 44.693 37.5997 44.4145 37.5905C43.391 37.531 42.365 37.531 41.3415 37.5905C41.2078 37.5922 41.0761 37.6223 40.9549 37.6788C40.8337 37.7353 40.7259 37.8168 40.6385 37.9181C40.5512 38.0193 40.4864 38.1379 40.4483 38.266C40.4102 38.3942 40.3997 38.529 40.4175 38.6615C40.4136 38.7946 40.437 38.9271 40.4864 39.0507C40.5358 39.1744 40.61 39.2867 40.7045 39.3805C40.799 39.4743 40.9117 39.5478 41.0357 39.5963C41.1598 39.6448 41.2924 39.6673 41.4255 39.6625C41.9435 39.7045 42.4405 39.6835 42.9445 39.6905Z" fill="white"/>
<path id="Vector_2" d="M40.1105 43.4004C42.5303 43.4046 44.8945 44.1266 46.9038 45.475C48.9132 46.8235 50.4773 48.7377 51.3982 50.9755C52.3191 53.2133 52.5554 55.674 52.0772 58.0461C51.599 60.4182 50.4277 62.5952 48.7118 64.3013C46.9958 66.0075 44.8122 67.1663 42.4373 67.6309C40.0625 68.0955 37.6032 67.8451 35.3707 66.9114C33.1383 65.9777 31.233 64.4026 29.8961 62.3856C28.5592 60.3686 27.8508 58.0002 27.8604 55.5804C27.8734 52.3419 29.1704 49.2408 31.467 46.9574C33.7635 44.674 36.872 43.3948 40.1105 43.4004ZM41.1605 48.5524C41.1626 48.2482 41.1439 47.9441 41.1045 47.6424C41.0744 47.3814 40.9463 47.1416 40.7461 46.9714C40.5459 46.8013 40.2886 46.7136 40.0261 46.7261C39.7637 46.7385 39.5158 46.8502 39.3326 47.0385C39.1494 47.2269 39.0446 47.4777 39.0395 47.7404C39.029 47.8896 39.029 48.0393 39.0395 48.1884C39.0955 48.6084 38.9135 48.7624 38.5215 48.9304C37.7593 49.2348 37.045 49.6474 36.4005 50.1554C34.6085 51.6254 34.7205 55.3004 37.6745 56.1404C38.0105 56.2384 38.3745 56.3434 38.6895 56.4274C39.748 56.627 40.7949 56.8841 41.8255 57.1974C43.1205 57.6664 43.2255 59.0384 42.1195 59.8434C41.6357 60.1891 41.0707 60.4037 40.4795 60.4662C39.8882 60.5288 39.2908 60.4372 38.7455 60.2004C38.3739 60.0871 38.0434 59.8678 37.7948 59.5693C37.5461 59.2709 37.3899 58.9063 37.3454 58.5204C37.3428 58.3751 37.3085 58.2321 37.245 58.1014C37.1815 57.9706 37.0903 57.8553 36.9777 57.7634C36.8652 57.6714 36.7339 57.6051 36.5931 57.569C36.4523 57.533 36.3054 57.528 36.1625 57.5544C36.0166 57.5696 35.8755 57.6145 35.7477 57.6864C35.62 57.7583 35.5083 57.8557 35.4198 57.9725C35.3312 58.0893 35.2675 58.223 35.2327 58.3655C35.1979 58.5079 35.1927 58.6559 35.2175 58.8004C35.2523 59.3444 35.4158 59.8724 35.6944 60.3409C35.9731 60.8094 36.359 61.2051 36.8204 61.4954C37.5177 61.9044 38.2375 62.2737 38.9765 62.6014C39.1795 64.1344 39.3755 64.4914 40.0475 64.5124C40.7195 64.5334 40.9925 64.1414 41.1745 62.7694C42.1555 62.2079 43.0916 61.5714 43.9745 60.8654C45.4865 59.4654 45.3745 56.0284 42.5745 55.1674C42.0075 54.9924 41.4125 54.8594 40.8315 54.7124C39.9468 54.5361 39.0746 54.3023 38.2204 54.0124C37.9678 53.9382 37.7421 53.7922 37.571 53.5921C37.3998 53.392 37.2905 53.1465 37.2564 52.8854C37.2223 52.6243 37.2648 52.3589 37.3788 52.1215C37.4928 51.8841 37.6733 51.685 37.8985 51.5484C38.3569 51.2007 38.8882 50.9613 39.4525 50.8484C39.8133 50.7467 40.1914 50.7213 40.5626 50.7736C40.9338 50.826 41.2901 50.955 41.6088 51.1525C41.9274 51.35 42.2015 51.6117 42.4135 51.9209C42.6256 52.2301 42.771 52.58 42.8405 52.9484C42.8945 53.1992 43.0434 53.4194 43.2561 53.5629C43.4688 53.7064 43.7287 53.7621 43.9815 53.7184C44.109 53.7149 44.2344 53.6858 44.3505 53.6328C44.4665 53.5798 44.5707 53.5041 44.6569 53.4101C44.7431 53.316 44.8095 53.2057 44.8522 53.0855C44.8949 52.9653 44.913 52.8377 44.9055 52.7104C44.9329 52.2046 44.8362 51.6997 44.6239 51.2398C44.4117 50.7798 44.0902 50.3787 43.6875 50.0714C42.8761 49.5237 42.0322 49.0258 41.1605 48.5804V48.5524Z" fill="white"/>
<path id="Vector_3" d="M8.33016 9.37261C8.32698 7.9797 8.41819 6.58818 8.60316 5.20761C9.01616 3.17761 10.5002 2.09961 12.6002 2.09961H57.4002C59.5002 2.09961 61.0682 3.20561 61.4672 5.27761C61.6385 6.62873 61.7203 7.9897 61.7122 9.35161L8.33016 9.37261ZM29.8272 6.22961C30.1562 6.22961 30.4852 6.22961 30.8072 6.22961C30.9351 6.23245 31.0623 6.20945 31.1812 6.162C31.3001 6.11455 31.4082 6.04361 31.499 5.95343C31.5898 5.86326 31.6615 5.75569 31.7099 5.63716C31.7582 5.51864 31.7821 5.39159 31.7802 5.26361C31.7968 5.1328 31.7859 4.99995 31.7482 4.8736C31.7104 4.74725 31.6466 4.63021 31.5609 4.52999C31.4752 4.42978 31.3694 4.34861 31.2505 4.29171C31.1315 4.23481 31.002 4.20344 30.8702 4.19961C30.1971 4.14015 29.5202 4.14015 28.8472 4.19961C28.7224 4.20907 28.6008 4.24377 28.4899 4.30162C28.3789 4.35946 28.2809 4.43924 28.2017 4.53612C28.1225 4.63299 28.0638 4.74494 28.0291 4.86518C27.9945 4.98542 27.9846 5.11145 28.0002 5.23561C27.9955 5.36295 28.0164 5.48994 28.0617 5.60905C28.107 5.72816 28.1757 5.83696 28.2639 5.92901C28.352 6.02105 28.4577 6.09447 28.5747 6.1449C28.6918 6.19533 28.8177 6.22176 28.9452 6.22261C29.2252 6.24361 29.5262 6.22261 29.8272 6.22961ZM16.4782 6.22961C16.7792 6.22961 17.0802 6.22961 17.3812 6.22961C17.5142 6.23446 17.6469 6.21194 17.7709 6.16344C17.895 6.11494 18.0077 6.0415 18.1022 5.94766C18.1967 5.85383 18.2709 5.74159 18.3203 5.61791C18.3696 5.49422 18.3931 5.36172 18.3892 5.22861C18.3987 5.09808 18.3815 4.96698 18.3385 4.84337C18.2954 4.71976 18.2276 4.60626 18.1391 4.50987C18.0505 4.41347 17.9432 4.33622 17.8237 4.28286C17.7042 4.2295 17.575 4.20117 17.4442 4.19961C16.7945 4.14013 16.1408 4.14013 15.4912 4.19961C15.3576 4.20654 15.2271 4.24172 15.1082 4.30284C14.9893 4.36395 14.8847 4.44961 14.8013 4.55414C14.7179 4.65868 14.6577 4.77972 14.6246 4.90926C14.5915 5.0388 14.5862 5.17389 14.6092 5.30561C14.6072 5.43204 14.631 5.55756 14.6791 5.6745C14.7272 5.79144 14.7986 5.89736 14.889 5.98578C14.9794 6.07421 15.0868 6.14329 15.2048 6.18883C15.3228 6.23436 15.4488 6.25538 15.5752 6.25061C15.8762 6.25061 16.1772 6.22961 16.4782 6.22961ZM23.1982 6.22961C23.5223 6.24711 23.8471 6.24711 24.1712 6.22961C24.4138 6.22228 24.6438 6.11979 24.8114 5.94427C24.9791 5.76875 25.0709 5.53431 25.0672 5.29161C25.0934 5.16573 25.0926 5.03573 25.0649 4.91018C25.0372 4.78462 24.9832 4.66636 24.9065 4.56318C24.8298 4.46001 24.7321 4.37426 24.6198 4.31159C24.5075 4.24892 24.3832 4.21076 24.2552 4.19961C23.5337 4.12609 22.8066 4.12609 22.0852 4.19961C21.9641 4.2106 21.8467 4.24629 21.74 4.30446C21.6333 4.36264 21.5397 4.44207 21.4649 4.53784C21.3901 4.63362 21.3358 4.74371 21.3052 4.86131C21.2746 4.97892 21.2685 5.10154 21.2872 5.22161C21.2815 5.34803 21.3013 5.47429 21.3454 5.59291C21.3895 5.71152 21.457 5.82008 21.5438 5.91213C21.6306 6.00418 21.7351 6.07786 21.8509 6.12879C21.9667 6.17972 22.0916 6.20686 22.2182 6.20861C22.5443 6.2308 22.8715 6.23547 23.1982 6.22261V6.22961Z" fill="white"/>
<path id="Vector_4" d="M32.2696 43.4697C30.261 44.7974 28.6137 46.6033 27.4759 48.7253C26.338 50.8472 25.7452 53.2186 25.7508 55.6263C25.7563 58.0341 26.36 60.4027 27.5077 62.5194C28.6553 64.636 30.3109 66.4343 32.3256 67.7527C29.3646 68.1447 25.1086 66.2967 22.8266 63.2587C19.6976 59.0587 19.2006 54.5787 21.5946 49.9587C23.7996 45.7027 27.4956 43.6237 32.2696 43.4697Z" fill="white"/>
<path id="Vector_5" d="M34.8736 27.6853V36.1273C34.8736 37.4153 34.4466 37.8423 33.1586 37.8423H16.3586C15.0776 37.8423 14.6436 37.3943 14.6436 36.1133V19.3133C14.6436 18.0533 15.0636 17.6123 16.2956 17.6123H33.2426C34.4606 17.6123 34.8666 18.0323 34.8736 19.2503C34.8806 22.0573 34.8736 24.8713 34.8736 27.6853Z" fill="white"/>
</g>
</svg>
