<svg width="70" height="70" viewBox="0 0 70 70" fill="none" xmlns="http://www.w3.org/2000/svg">
<g id="Performance Display Advertisingtent 1">
<path id="Vector" d="M6.50294 31.9484H16.6249C16.7859 32.7814 16.9119 33.5934 17.1149 34.3844C18.0231 37.9842 20.1632 41.1524 23.1635 43.3389C26.1639 45.5255 29.8352 46.5925 33.5402 46.3546C37.2451 46.1168 40.7499 44.5891 43.446 42.0369C46.1422 39.4846 47.8595 36.0688 48.2999 32.3824C48.2999 32.2144 48.5589 31.9414 48.6989 31.9414C51.9259 31.9414 55.1599 31.9414 58.3939 31.9414L58.5129 31.9974C58.5129 32.6134 58.5549 33.2714 58.5129 33.9154C58.475 34.2078 58.3347 34.4773 58.1168 34.676C57.8989 34.8746 57.6176 34.9896 57.3229 35.0004C56.3779 35.1824 55.4259 35.3784 54.4739 35.5394C54.3043 35.5566 54.1432 35.6226 54.0103 35.7294C53.8773 35.8363 53.7782 35.9794 53.7249 36.1414C53.0249 37.9194 52.2829 39.6834 51.5339 41.4404C51.4655 41.5736 51.437 41.7238 51.4519 41.8728C51.4668 42.0218 51.5245 42.1634 51.6179 42.2804C52.1989 43.1064 52.7589 43.9464 53.3049 44.7934C53.4164 44.9179 53.5009 45.0641 53.5531 45.2228C53.6054 45.3815 53.6242 45.5493 53.6084 45.7157C53.5926 45.882 53.5426 46.0433 53.4614 46.1894C53.3803 46.3354 53.2698 46.4631 53.1369 46.5644C51.6483 48.0904 50.1503 49.6024 48.6429 51.1004C48.5392 51.2309 48.4101 51.3392 48.2635 51.4186C48.1169 51.4981 47.9557 51.5471 47.7897 51.5628C47.6237 51.5785 47.4562 51.5605 47.2973 51.5099C47.1384 51.4593 46.9913 51.3772 46.8649 51.2684C46.0389 50.7224 45.2199 50.1764 44.4079 49.6094C44.2846 49.5047 44.1331 49.4388 43.9723 49.4201C43.8116 49.4014 43.649 49.4308 43.5049 49.5044C41.7339 50.2604 39.9349 50.9744 38.1639 51.7444C37.9164 51.8862 37.7352 52.1203 37.6599 52.3954C37.4219 53.3754 37.2539 54.3694 37.0439 55.3564C37.0321 55.5179 36.9872 55.6752 36.9121 55.8187C36.837 55.9621 36.7332 56.0886 36.6072 56.1903C36.4812 56.2921 36.3357 56.3668 36.1796 56.41C36.0236 56.4532 35.8603 56.4639 35.6999 56.4414C33.5579 56.4414 31.4159 56.4414 29.2739 56.4414C29.1185 56.4538 28.9621 56.4354 28.8138 56.3872C28.6655 56.3389 28.5282 56.2619 28.4098 56.1604C28.2914 56.0589 28.1943 55.935 28.1239 55.7958C28.0536 55.6566 28.0114 55.5049 27.9999 55.3494C27.7829 54.3624 27.6289 53.3684 27.3909 52.3884C27.356 52.2503 27.2933 52.1207 27.2066 52.0076C27.12 51.8945 27.0112 51.8001 26.8869 51.7304C25.1159 50.9604 23.3239 50.2464 21.5459 49.4904C21.4019 49.4168 21.2392 49.3874 21.0785 49.4061C20.9178 49.4248 20.7663 49.4907 20.6429 49.5954C19.8519 50.1554 19.0399 50.6804 18.2349 51.2124C18.1048 51.3327 17.951 51.4245 17.7834 51.4819C17.6157 51.5393 17.438 51.5612 17.2614 51.546C17.0848 51.5309 16.9134 51.4791 16.758 51.3939C16.6026 51.3087 16.4667 51.1921 16.3589 51.0514C14.8843 49.5861 13.4143 48.1161 11.9489 46.6414C11.8104 46.5373 11.6944 46.4061 11.6081 46.2559C11.5217 46.1057 11.4667 45.9395 11.4464 45.7674C11.4261 45.5952 11.441 45.4208 11.49 45.2546C11.5391 45.0884 11.6214 44.9339 11.7319 44.8004C12.2849 43.9604 12.8729 43.1344 13.4049 42.2804C13.464 42.1748 13.5007 42.0581 13.5127 41.9377C13.5248 41.8173 13.5119 41.6956 13.4749 41.5804C12.7469 39.7137 11.9886 37.8751 11.1999 36.0644C11.1342 35.9487 11.0457 35.8476 10.9398 35.767C10.834 35.6864 10.7129 35.628 10.5839 35.5954C9.68794 35.3784 8.77094 35.2244 7.86094 35.0494C6.78994 34.8464 6.46094 34.5034 6.46094 33.4394L6.50294 31.9484Z" fill="white"/>
<path id="Vector_2" d="M67.06 57.8125C67.0544 59.5952 66.5201 61.3362 65.5246 62.815C64.5291 64.2939 63.1173 65.4442 61.4678 66.1203C59.8183 66.7964 58.0052 66.968 56.2582 66.6132C54.5111 66.2584 52.9086 65.3933 51.6535 64.1274C50.3983 62.8615 49.547 61.2516 49.2072 59.5016C48.8674 57.7516 49.0544 55.9401 49.7446 54.2964C50.4348 52.6527 51.5971 51.2508 53.0845 50.268C54.5718 49.2853 56.3173 48.7658 58.1 48.7755C60.4856 48.7885 62.7688 49.7472 64.4485 51.4414C66.1282 53.1355 67.0674 55.4268 67.06 57.8125ZM56.273 58.9395C55.832 58.1625 55.433 57.4695 55.027 56.7765C54.9581 56.607 54.8533 56.4543 54.7198 56.3291C54.5864 56.2039 54.4273 56.1091 54.2537 56.0512C54.0801 55.9934 53.896 55.9738 53.7141 55.9939C53.5322 56.0139 53.3568 56.0732 53.2 56.1675C53.0497 56.2582 52.9203 56.3797 52.8203 56.5239C52.7203 56.6681 52.6518 56.8318 52.6194 57.0042C52.587 57.1767 52.5915 57.3541 52.6324 57.5248C52.6733 57.6954 52.7499 57.8555 52.857 57.9945C53.452 59.0515 54.068 60.0945 54.677 61.1515C55.3676 62.3462 56.2076 62.4559 57.197 61.4805L62.797 55.8805C63.574 55.1035 63.693 54.3545 63.126 53.7805C62.559 53.2065 61.838 53.3255 61.026 54.1235L56.273 58.9395Z" fill="white"/>
<path id="Vector_3" d="M31.3531 19.292C31.3288 19.2352 31.2983 19.1812 31.2621 19.131C30.6741 18.627 30.5621 18.151 30.8841 17.731C31.2061 17.311 31.6821 17.311 32.2841 17.731C33.0891 18.305 33.8941 18.872 34.6851 19.46C34.8385 19.5305 34.9684 19.6434 35.0595 19.7855C35.1506 19.9275 35.199 20.0928 35.199 20.2615C35.199 20.4303 35.1506 20.5955 35.0595 20.7376C34.9684 20.8796 34.8385 20.9926 34.6851 21.063C33.8941 21.623 33.0961 22.169 32.2911 22.708C31.7381 23.086 31.2411 23.051 30.9261 22.631C30.6111 22.211 30.7161 21.763 31.2621 21.315C31.3116 21.2813 31.3525 21.2366 31.3817 21.1844C31.4109 21.1321 31.4275 21.0738 31.4301 21.014C30.9401 21.112 30.4431 21.182 29.9601 21.315C28.3572 21.7643 26.9008 22.6278 25.7376 23.8187C24.5744 25.0096 23.7454 26.4858 23.3339 28.0989C22.9225 29.712 22.9432 31.4049 23.3939 33.0075C23.8446 34.61 24.7094 36.0656 25.9014 37.2277C27.0934 38.3898 28.5704 39.2175 30.1838 39.6275C31.7973 40.0374 33.4902 40.0152 35.0924 39.563C36.6945 39.1108 38.1493 38.2447 39.3103 37.0516C40.4713 35.8586 41.2977 34.3808 41.7061 32.767C41.7411 32.627 41.7761 32.487 41.8181 32.347C41.8812 32.1391 42.0211 31.963 42.2094 31.8546C42.3978 31.7462 42.6203 31.7137 42.8318 31.7637C43.0432 31.8136 43.2277 31.9423 43.3476 32.1235C43.4675 32.3048 43.5138 32.5248 43.4771 32.739C43.4329 33.0033 43.3745 33.265 43.3021 33.523C41.9021 38.549 36.8901 42.105 31.8501 41.678C29.0228 41.5612 26.3444 40.3786 24.3535 38.3677C22.3625 36.3568 21.2065 33.6669 21.1178 30.8385C21.0291 28.0101 22.0144 25.253 23.8755 23.1214C25.7366 20.9898 28.3356 19.6416 31.1501 19.348C31.2191 19.3345 31.287 19.3158 31.3531 19.292Z" fill="white"/>
<path id="Vector_4" d="M39.6973 16.2818C38.0843 15.4854 36.3545 14.9514 34.5733 14.6998C33.3623 14.5318 33.3623 14.5108 33.3623 13.2508V6.2998C37.0307 6.41568 40.6233 7.37371 43.8623 9.0998C42.4623 11.5008 41.0903 13.8738 39.6973 16.2818Z" fill="white"/>
<path id="Vector_5" d="M41.1885 17.1574L45.3885 9.94043C48.5003 11.897 51.1319 14.5286 53.0885 17.6404L45.8225 21.7844C44.601 19.9492 43.0256 18.3761 41.1885 17.1574Z" fill="white"/>
<path id="Vector_6" d="M11.9766 17.6189C13.9278 14.5029 16.5605 11.8702 19.6766 9.91895L23.8766 17.1359C22.0395 18.3546 20.464 19.9277 19.2426 21.7629L11.9766 17.6189Z" fill="white"/>
<path id="Vector_7" d="M31.6331 6.25781V13.9998C31.6331 14.3218 31.6331 14.5948 31.1921 14.6228C29.245 14.7632 27.3434 15.279 25.5921 16.1418C25.5221 16.1418 25.4451 16.1978 25.3261 16.2468L21.1611 9.09981C24.3892 7.36579 27.9713 6.39363 31.6331 6.25781Z" fill="white"/>
<path id="Vector_8" d="M32.2983 34.1246C31.6356 34.1042 30.9923 33.896 30.4433 33.5243C29.8943 33.1525 29.4622 32.6324 29.1973 32.0246C28.9071 31.4001 28.8001 30.706 28.8886 30.0231C28.9771 29.3401 29.2575 28.6963 29.6973 28.1663C30.1371 27.6364 30.7182 27.2421 31.3731 27.0292C32.0281 26.8163 32.73 26.7935 33.3973 26.9636C33.5484 27.0132 33.711 27.0156 33.8635 26.9706C34.0161 26.9256 34.1513 26.8353 34.2513 26.7116C36.0153 24.9266 37.8003 23.1626 39.5713 21.3776C39.7391 21.1729 39.9543 21.0124 40.1983 20.9099C40.4423 20.8074 40.7077 20.7661 40.9713 20.7896C41.2293 20.8193 41.4739 20.9201 41.6779 21.0808C41.8819 21.2415 42.0371 21.4557 42.1263 21.6996C42.2261 21.9501 42.2514 22.224 42.1992 22.4885C42.1471 22.753 42.0197 22.9968 41.8323 23.1906C41.3283 23.7366 40.7963 24.2476 40.2713 24.7726C38.9903 26.0536 37.7233 27.3556 36.4143 28.6086C36.2457 28.7444 36.1225 28.9284 36.0613 29.136C36 29.3436 36.0035 29.565 36.0713 29.7706C36.1784 30.3156 36.1599 30.8779 36.0171 31.4147C35.8744 31.9514 35.6111 32.4486 35.2474 32.8684C34.8836 33.2881 34.4289 33.6195 33.9179 33.8371C33.4069 34.0548 32.853 34.1531 32.2983 34.1246Z" fill="white"/>
<path id="Vector_9" d="M18.1507 23.184L16.4917 28.994H8.34375C8.54418 25.5389 9.49997 22.1697 11.1437 19.124L18.1507 23.184Z" fill="white"/>
<path id="Vector_10" d="M56.7004 28.98C56.4974 28.98 56.3364 29.022 56.1824 29.022H48.8744C48.6224 29.022 48.3214 29.106 48.2864 28.686C48.0774 26.8046 47.5371 24.9751 46.6904 23.282L53.9004 19.124C55.5358 22.1681 56.4911 25.5308 56.7004 28.98Z" fill="white"/>
</g>
</svg>
