<svg width="30" height="32" viewBox="0 0 30 32" fill="none" xmlns="http://www.w3.org/2000/svg">
<g id="performance 1">
<path id="Vector" d="M25.5 22.2574C26.2875 20.7129 26.7229 19.0132 26.775 17.2804H24.405V16.5514H26.781C26.7125 13.7552 25.6304 11.0792 23.736 9.02136C21.504 6.57336 18.708 5.30436 15.366 5.14236V7.54236H14.649V5.20836C12.849 4.81536 8.364 6.65436 6.939 8.35836L8.616 10.0234L8.1 10.5334L6.417 8.84436C4.45283 10.9349 3.3134 13.6667 3.21 16.5334H5.592V17.2624H3.222C3.22056 18.1208 3.33973 18.9751 3.576 19.8004C3.816 20.6134 4.122 21.4084 4.404 22.2274C4.34552 22.2382 4.2864 22.2452 4.227 22.2484C3.381 22.2484 2.538 22.2484 1.692 22.2484C1.61715 22.2602 1.54058 22.2433 1.4777 22.201C1.41481 22.1587 1.37026 22.0942 1.353 22.0204C0.365582 19.3771 0.167685 16.5039 0.783391 13.7503C1.3991 10.9966 2.80186 8.48132 4.821 6.51036C7.11929 4.22052 10.1369 2.79329 13.365 2.46936C18.348 1.97136 22.563 3.60036 25.926 7.30836C27.8509 9.42874 29.0764 12.0903 29.436 14.9314C29.7716 17.3337 29.4929 19.7819 28.626 22.0474C28.593 22.1314 28.479 22.2484 28.401 22.2484C27.459 22.2634 26.52 22.2574 25.5 22.2574Z" fill="white"/>
<path id="Vector_2" d="M21.3 12.7199C21.351 12.8369 21.405 12.9509 21.453 13.0679C21.735 13.7459 22.023 14.4179 22.29 15.1019C22.35 15.2579 22.404 15.3689 22.59 15.4229C22.83 15.5009 23.058 15.6119 23.295 15.6959C23.4011 15.7291 23.4932 15.7966 23.5568 15.8878C23.6203 15.9791 23.6517 16.0889 23.646 16.1999C23.646 16.6859 23.646 17.1689 23.646 17.6549C23.6465 17.7628 23.612 17.868 23.5476 17.9545C23.4832 18.0411 23.3925 18.1044 23.289 18.1349C22.989 18.2549 22.602 18.3059 22.389 18.5219C22.176 18.7379 22.2 19.1219 22.089 19.4219C21.888 19.8929 21.642 20.3459 21.438 20.8139C21.3867 20.9376 21.3783 21.0749 21.414 21.2039C21.4978 21.4416 21.598 21.6732 21.714 21.8969C21.7685 22.0025 21.7869 22.1231 21.7663 22.2402C21.7457 22.3572 21.6873 22.4643 21.6 22.5449L20.631 23.5109C20.5556 23.6034 20.4488 23.6649 20.3309 23.6837C20.2131 23.7026 20.0925 23.6774 19.992 23.6129C19.392 23.2139 18.861 23.2649 18.252 23.6519C17.823 23.9249 17.277 24.0149 16.791 24.2039C16.674 24.2493 16.5757 24.3328 16.512 24.4409C16.3983 24.6781 16.2982 24.9215 16.212 25.1699C16.1803 25.2834 16.1112 25.3827 16.0159 25.4519C15.9206 25.5211 15.8047 25.556 15.687 25.5509H14.295C14.183 25.5561 14.0723 25.5247 13.9797 25.4614C13.8872 25.398 13.8177 25.3062 13.782 25.1999C13.662 24.8999 13.611 24.5099 13.395 24.2999C13.179 24.0899 12.795 24.0989 12.477 23.9729C12.024 23.7809 11.577 23.5739 11.139 23.3399C11.0695 23.2918 10.9876 23.2646 10.9031 23.2614C10.8186 23.2582 10.735 23.2792 10.662 23.3219C10.449 23.4329 10.218 23.5169 9.999 23.6219C9.90162 23.672 9.79069 23.6895 9.68263 23.6716C9.57458 23.6538 9.47513 23.6017 9.399 23.5229C9.057 23.1929 8.72 22.8579 8.388 22.5179C8.30786 22.4428 8.25429 22.3437 8.23536 22.2355C8.21642 22.1273 8.23314 22.0158 8.283 21.9179C8.415 21.6179 8.661 21.2909 8.649 20.9849C8.637 20.6789 8.349 20.3849 8.211 20.0849C8.025 19.6379 7.869 19.1849 7.725 18.7199C7.71061 18.6415 7.67506 18.5684 7.62219 18.5087C7.56932 18.4489 7.50114 18.4048 7.425 18.3809C7.194 18.3089 6.972 18.2099 6.744 18.1289C6.6309 18.0961 6.53214 18.0262 6.46358 17.9304C6.39502 17.8346 6.36066 17.7186 6.366 17.6009C6.366 17.1359 6.366 16.6709 6.366 16.2029C6.35499 16.0846 6.38857 15.9664 6.46016 15.8715C6.53174 15.7766 6.63618 15.7119 6.753 15.6899C7.446 15.5519 7.788 15.1439 7.935 14.4479C8.07917 13.9659 8.29022 13.5064 8.562 13.0829C8.61678 13.0062 8.64819 12.9152 8.65245 12.821C8.65671 12.7268 8.63363 12.6333 8.586 12.5519C8.481 12.3569 8.406 12.1439 8.31 11.9519C8.24767 11.8407 8.22557 11.7113 8.24742 11.5856C8.26928 11.46 8.33376 11.3456 8.43 11.2619L9.36 10.3409C9.43822 10.2387 9.55218 10.1699 9.67904 10.1482C9.80589 10.1265 9.93627 10.1535 10.044 10.2239C10.2894 10.3968 10.5832 10.4876 10.8834 10.4833C11.1836 10.479 11.4747 10.3798 11.715 10.1999C12.156 9.92394 12.708 9.82794 13.215 9.63294C13.3422 9.58181 13.4481 9.48864 13.515 9.36894C13.6234 9.14239 13.7166 8.90888 13.794 8.66994C13.8285 8.55239 13.9019 8.45005 14.0022 8.37972C14.1025 8.3094 14.2237 8.27527 14.346 8.28294C14.792 8.28294 15.239 8.28294 15.687 8.28294C15.8102 8.268 15.9345 8.29932 16.036 8.37081C16.1374 8.44231 16.2087 8.5489 16.236 8.66994C16.374 9.35994 16.776 9.70494 17.472 9.86994C17.9598 10.0278 18.4294 10.237 18.873 10.4939C18.975 10.5419 19.074 10.5959 19.197 10.6589C19.125 10.7099 19.044 10.7699 18.96 10.8239C18.195 11.3369 17.43 11.8529 16.656 12.3479C16.5299 12.4236 16.3805 12.4502 16.236 12.4229C15.2453 12.1536 14.1935 12.2181 13.2431 12.6065C12.2928 12.9949 11.4969 13.6857 10.9785 14.5718C10.4602 15.458 10.2482 16.4903 10.3754 17.509C10.5026 18.5278 10.9619 19.4763 11.6823 20.2078C12.4026 20.9393 13.3439 21.413 14.3606 21.5559C15.3773 21.6987 16.4127 21.5026 17.3067 20.9978C18.2008 20.4931 18.9036 19.7079 19.3066 18.7636C19.7095 17.8194 19.7902 16.7686 19.536 15.7739C19.5077 15.6883 19.5009 15.597 19.5161 15.5081C19.5312 15.4192 19.5679 15.3354 19.623 15.2639C20.175 14.3999 20.736 13.5509 21.3 12.7199Z" fill="white"/>
<path id="Vector_3" d="M22.782 9.18556C21.54 11.0476 20.296 12.9086 19.05 14.7686C18.3 15.8996 17.541 17.0006 16.8 18.1286C16.5969 18.4685 16.2993 18.7419 15.9434 18.9156C15.5876 19.0893 15.1889 19.1556 14.796 19.1066C14.3813 19.0806 13.9834 18.9334 13.6517 18.6832C13.32 18.4331 13.069 18.0911 12.93 17.6996C12.7594 17.2451 12.7446 16.7469 12.888 16.2832C13.0313 15.8194 13.3247 15.4164 13.722 15.1376C16.668 13.2116 19.587 11.2376 22.515 9.29055L22.752 9.14355L22.782 9.18556Z" fill="white"/>
<path id="Vector_4" d="M8.45101 23.7004C8.35801 23.7004 8.26501 23.7004 8.17201 23.7004H0.97201C0.91405 23.7035 0.855971 23.7035 0.79801 23.7004C0.57601 23.6794 0.42301 23.5684 0.42301 23.3374C0.421282 23.2884 0.429768 23.2395 0.447932 23.1939C0.466095 23.1483 0.493538 23.107 0.528518 23.0726C0.563498 23.0382 0.605252 23.0114 0.651129 22.994C0.697006 22.9766 0.746003 22.9689 0.79501 22.9714C0.88201 22.9714 0.96901 22.9714 1.05901 22.9714C3.15901 22.9714 5.25901 22.9714 7.35901 22.9714C7.49999 22.9553 7.64277 22.9742 7.77467 23.0265C7.90656 23.0789 8.02348 23.163 8.11501 23.2714C8.23476 23.3951 8.3664 23.5066 8.50801 23.6044L8.45101 23.7004Z" fill="white"/>
<path id="Vector_5" d="M21.486 23.6191C21.702 23.4271 21.912 23.2291 22.137 23.0491C22.2082 23.0031 22.2923 22.981 22.377 22.9861C24.617 22.9861 26.86 22.9861 29.106 22.9861C29.406 22.9861 29.568 23.1301 29.568 23.3521C29.568 23.5741 29.4 23.7151 29.13 23.7151C26.646 23.7151 24.161 23.7151 21.675 23.7151C21.6296 23.7144 21.5844 23.7094 21.54 23.7001L21.486 23.6191Z" fill="white"/>
</g>
</svg>
