<svg width="126" height="126" viewBox="0 0 126 126" fill="none" xmlns="http://www.w3.org/2000/svg">
<g id="pin 1" clip-path="url(#clip0_1191_4531)">
<path id="Vector" d="M104.745 21.415H24.75C12.7378 21.415 3 31.1528 3 43.165V117.865C3 129.877 12.7378 139.615 24.75 139.615H104.745C116.757 139.615 126.495 129.877 126.495 117.865V43.165C126.495 31.1528 116.757 21.415 104.745 21.415Z" fill="#060044"/>
<path id="Vector_2" d="M104.745 10H24.75C12.7378 10 3 19.7378 3 31.75V106.45C3 118.462 12.7378 128.2 24.75 128.2H104.745C116.757 128.2 126.495 118.462 126.495 106.45V31.75C126.495 19.7378 116.757 10 104.745 10Z" fill="#D00000"/>
<path id="Vector_3" style="mix-blend-mode:screen" opacity="0.3" d="M104.745 126.595H24.75C18.9841 126.595 13.4542 124.306 9.37573 120.23C5.29724 116.154 3.00398 110.626 3 104.86V106.54C3 112.309 5.29151 117.841 9.37043 121.92C13.4493 125.999 18.9815 128.29 24.75 128.29H104.745C110.513 128.29 116.046 125.999 120.125 121.92C124.203 117.841 126.495 112.309 126.495 106.54V104.785C126.503 107.646 125.946 110.481 124.857 113.127C123.767 115.773 122.166 118.177 120.146 120.204C118.125 122.23 115.725 123.837 113.082 124.934C110.439 126.031 107.606 126.595 104.745 126.595Z" fill="url(#paint0_radial_1191_4531)"/>
<path id="Vector_4" style="mix-blend-mode:overlay" opacity="0.4" d="M24.75 11.695H104.745C110.511 11.695 116.041 13.9845 120.119 18.0601C124.198 22.1358 126.491 27.6641 126.495 33.43V31.75C126.495 25.9815 124.203 20.4493 120.125 16.3704C116.046 12.2915 110.513 10 104.745 10H24.75C18.9815 10 13.4493 12.2915 9.37043 16.3704C5.29151 20.4493 3 25.9815 3 31.75V33.43C3.00398 27.6641 5.29724 22.1358 9.37573 18.0601C13.4542 13.9845 18.9841 11.695 24.75 11.695Z" fill="url(#paint1_linear_1191_4531)"/>
<path id="Vector_5" d="M57.292 101.393C59.308 95.6092 61.324 89.8384 63.3526 84.0046C63.5181 84.0105 63.6808 84.0491 63.8314 84.118C70.585 88.6162 79.8712 85.189 83.9914 79.078C86.0182 76.0277 87.2326 72.5104 87.5194 68.8594C88.0108 63.391 87.2548 58.1368 84.1174 53.4748C79.7704 47.0488 73.483 44.302 65.923 44.5036C52.3402 44.8816 46.4056 55.6042 45.1582 64.084C44.3982 68.0473 44.756 72.1438 46.1914 75.9154C46.9253 77.5563 47.921 79.0671 49.1398 80.3884C49.4718 80.7405 49.8736 81.0194 50.3196 81.2074C50.7655 81.3953 51.2458 81.4881 51.7297 81.4798C52.2136 81.4715 52.6904 81.3622 53.1296 81.1591C53.5689 80.956 53.9609 80.6635 54.2806 80.3002C54.6436 79.995 54.9355 79.6142 55.1357 79.1843C55.336 78.7544 55.4397 78.2859 55.4397 77.8117C55.4397 77.3375 55.336 76.869 55.1357 76.4391C54.9355 76.0092 54.6436 75.6283 54.2806 75.3232C53.168 74.1557 52.484 72.6455 52.3402 71.0392C51.6436 66.4659 52.6092 61.7945 55.0618 57.8722C58.7032 52.3534 64.4488 50.5264 71.3536 52.5046C76.9606 54.1048 79.342 58.2502 80.2618 63.5422C81.0255 67.4667 80.23 71.5344 78.0442 74.8822C77.1223 76.4236 75.7171 77.6174 74.047 78.2781C72.3769 78.9389 70.5354 79.0296 68.8084 78.5362C68.2638 78.3572 67.7432 78.1117 67.2586 77.8054C65.734 76.8352 65.6332 76.4446 65.9986 74.6932C66.7924 71.1904 67.8256 67.7128 67.4098 64.0462C67.0948 61.3498 65.041 59.3212 62.7604 59.6866C61.6044 59.9044 60.5289 60.4313 59.6482 61.2112C58.3762 62.293 57.3909 63.6721 56.7799 65.2261C56.1688 66.7801 55.9509 68.4609 56.1454 70.1194C56.4591 72.2876 56.9094 74.4339 57.4936 76.5454C57.6432 76.9912 57.7032 77.4623 57.67 77.9314C56.2084 84.8488 54.709 91.7914 53.2222 98.671C53.134 99.0616 53.0206 99.4522 52.9198 99.8428C39.2236 94.2232 28.9798 77.1628 34.675 59.2204C36.04 54.8958 38.2691 50.8936 41.2271 47.4562C44.185 44.0189 47.8103 41.218 51.883 39.2236C55.9557 37.2291 60.391 36.0825 64.9201 35.8533C69.4492 35.6242 73.9776 36.3172 78.2308 37.8904C82.4841 39.4636 86.3735 41.8841 89.6634 45.0054C92.9532 48.1266 95.5748 51.8834 97.3694 56.0481C99.164 60.2127 100.094 64.6985 100.103 69.2333C100.113 73.7682 99.2007 78.2577 97.423 82.4296C89.5984 100.662 70.1944 105.727 57.292 101.393Z" fill="white"/>
</g>
<defs>
<radialGradient id="paint0_radial_1191_4531" cx="0" cy="0" r="1" gradientUnits="userSpaceOnUse" gradientTransform="translate(64.755 116.5) scale(44.445 44.445)">
<stop stop-color="white"/>
<stop offset="1" stop-color="#DBDBDB"/>
</radialGradient>
<linearGradient id="paint1_linear_1191_4531" x1="79.68" y1="50.515" x2="38.235" y2="-8.75" gradientUnits="userSpaceOnUse">
<stop stop-color="#616161"/>
<stop offset="0.99" stop-color="white"/>
</linearGradient>
<clipPath id="clip0_1191_4531">
<rect width="126" height="126" fill="white"/>
</clipPath>
</defs>
</svg>
