<svg width="60" height="60" viewBox="0 0 60 60" fill="none" xmlns="http://www.w3.org/2000/svg">
<g id="platform 1">
<path id="Vector" d="M3.57031 29.9218C3.57031 23.5198 3.57031 17.1118 3.57031 10.7098C3.57031 8.28577 5.53231 5.83177 7.93831 5.23177C8.52631 5.08777 9.12031 5.00977 9.73231 5.00977C20.6043 5.00977 31.4823 5.00977 42.3543 5.00977C45.8103 5.00977 48.4323 7.55977 48.4563 11.0218C48.4863 14.8738 48.4623 18.7318 48.4623 22.5838C48.4623 22.9978 48.3243 23.1418 47.9103 23.1478C47.2203 23.1478 46.5363 23.1478 45.8463 23.1478C45.3663 23.1478 45.2463 23.0218 45.2463 22.5358C45.2463 18.7738 45.2223 15.0178 45.2583 11.2558C45.2763 9.46777 44.1183 8.78377 42.8283 8.70577C42.5463 8.68777 42.2583 8.68177 41.9763 8.68177C31.2663 8.68177 20.5563 8.68177 9.85231 8.68177C9.49831 8.68177 9.14431 8.68177 8.79031 8.76577C7.87231 8.98177 7.33831 9.58777 7.26031 10.5238C7.24831 10.6798 7.24231 10.8298 7.24231 10.9858C7.24231 23.4958 7.24231 36.0118 7.24231 48.5218C7.24231 48.7378 7.24231 48.9478 7.26031 49.1638C7.33231 50.1178 7.92031 50.7418 8.87431 50.8438C9.21631 50.8798 9.55831 50.9038 9.90031 50.9038C18.2283 50.9038 26.5503 50.9038 34.8783 50.9038C35.4423 50.9038 35.5203 50.9758 35.5203 51.5278C35.5203 52.3798 35.5203 53.2378 35.5203 54.0898C35.5203 54.6298 35.4303 54.7198 34.8723 54.7258C33.9123 54.7258 32.9523 54.7258 31.9923 54.7258C24.6063 54.7258 17.2143 54.7258 9.82831 54.7258C8.49031 54.7258 7.24231 54.4258 6.14431 53.6458C4.39831 52.4098 3.58231 50.6818 3.57631 48.5638C3.57631 42.3478 3.57631 36.1378 3.57631 29.9218H3.57031Z" fill="white"/>
<path id="Vector_2" d="M45.9661 24.8878C51.8821 24.9358 56.4301 29.6698 56.4361 35.3578C56.4361 41.0638 51.9301 45.8158 45.9841 45.8278C40.0681 45.8398 35.5021 41.1058 35.4961 35.3518C35.4961 29.5738 40.1941 24.8938 45.9661 24.8818V24.8878ZM53.3461 35.3818C53.2861 30.9538 49.6861 27.9178 45.8521 27.9958C41.7241 28.0858 38.4901 31.4578 38.5861 35.5738C38.6761 39.5938 42.0601 42.8158 46.0741 42.7438C50.0581 42.6778 53.3341 39.4198 53.3461 35.3818Z" fill="white"/>
<path id="Vector_3" d="M26.0524 15.3965C30.3904 15.3965 34.7284 15.3965 39.0724 15.3965C39.6064 15.3965 39.7084 15.4925 39.7084 16.0385C39.7084 16.8785 39.7084 17.7245 39.7084 18.5645C39.7084 18.9965 39.5884 19.1165 39.1684 19.1165C30.3964 19.1165 21.6244 19.1165 12.8464 19.1165C12.4744 19.1165 12.3484 19.0085 12.3424 18.6425C12.3364 17.7185 12.3364 16.7945 12.3424 15.8705C12.3424 15.4985 12.4864 15.3965 12.9304 15.3965C17.3044 15.3965 21.6784 15.3965 26.0524 15.3965Z" fill="white"/>
<path id="Vector_4" d="M22.4158 44.6463C19.2598 44.6463 16.1098 44.6463 12.9538 44.6463C12.4438 44.6463 12.3418 44.5503 12.3418 44.0583C12.3418 43.1943 12.3418 42.3243 12.3418 41.4603C12.3418 41.0223 12.4738 40.9023 12.9238 40.9023C19.2538 40.9023 25.5898 40.9023 31.9198 40.9023C32.3818 40.9023 32.5198 41.0283 32.5198 41.4843C32.5198 42.3483 32.5198 43.2183 32.5198 44.0823C32.5198 44.5383 32.3998 44.6523 31.9558 44.6523C28.7758 44.6523 25.6018 44.6523 22.4218 44.6523L22.4158 44.6463Z" fill="white"/>
<path id="Vector_5" d="M22.4218 27.6482C19.2718 27.6482 16.1158 27.6482 12.9658 27.6482C12.4438 27.6482 12.3418 27.5462 12.3418 27.0302C12.3418 26.1902 12.3418 25.3442 12.3418 24.5042C12.3418 24.0182 12.4498 23.9102 12.9238 23.9102C19.2658 23.9102 25.6078 23.9102 31.9438 23.9102C32.3818 23.9102 32.5138 24.0362 32.5198 24.4802C32.5198 25.3322 32.5198 26.1842 32.5198 27.0422C32.5198 27.5342 32.3998 27.6542 31.9198 27.6542C28.7578 27.6542 25.5898 27.6542 22.4278 27.6542L22.4218 27.6482Z" fill="white"/>
<path id="Vector_6" d="M22.4525 32.0703C25.5965 32.0703 28.7345 32.0703 31.8785 32.0703C32.4065 32.0703 32.5205 32.1843 32.5205 32.7183C32.5205 33.5583 32.5205 34.4043 32.5205 35.2443C32.5205 35.6943 32.4005 35.8203 31.9565 35.8203C25.6025 35.8203 19.2485 35.8203 12.8945 35.8203C12.4745 35.8203 12.3485 35.6943 12.3425 35.2623C12.3365 34.3863 12.3425 33.5103 12.3425 32.6283C12.3425 32.1903 12.4745 32.0703 12.9245 32.0703C16.1045 32.0703 19.2785 32.0703 22.4585 32.0703H22.4525Z" fill="white"/>
<path id="Vector_7" d="M45.9898 49.8303C43.6738 51.5163 41.3878 53.1843 39.1018 54.8523C38.9278 54.9783 38.7598 55.1403 38.5258 55.0263C38.2738 54.9063 38.3038 54.6603 38.3038 54.4383C38.3038 51.6063 38.3038 48.7683 38.3038 45.9363C38.3038 45.8043 38.2918 45.6723 38.3518 45.5523C38.4538 45.3543 38.5978 45.2163 38.8318 45.3543C39.3238 45.6303 39.8158 45.9183 40.3078 46.2003C40.5058 46.3143 40.4998 46.5063 40.4998 46.6983C40.4998 48.0963 40.4998 49.4943 40.4998 50.8983C40.4998 51.0123 40.4998 51.1323 40.4998 51.2523C40.6678 51.2703 40.7458 51.1443 40.8418 51.0723C42.4138 49.8903 43.9858 48.7083 45.5518 47.5203C45.8398 47.3003 46.1358 47.3003 46.4398 47.5203C48.0298 48.6603 49.6138 49.8003 51.2038 50.9403C51.2758 50.9943 51.3538 51.0423 51.4318 51.0963C51.5278 50.9823 51.4798 50.8743 51.4798 50.7783C51.4558 49.4283 51.4258 48.0783 51.3898 46.7223C51.3838 46.4223 51.4798 46.2363 51.7438 46.0983C52.1398 45.8883 52.5178 45.6483 52.9078 45.4203C53.3578 45.1563 53.6038 45.2883 53.6098 45.8103C53.6098 47.4843 53.6098 49.1523 53.6098 50.8263C53.6098 52.0263 53.6098 53.2203 53.6098 54.4203C53.6098 54.6543 53.6578 54.9123 53.3818 55.0443C53.1298 55.1643 52.9558 54.9903 52.7758 54.8583C50.5198 53.1903 48.2578 51.5283 45.9838 49.8483L45.9898 49.8303Z" fill="white"/>
<path id="Vector_8" d="M50.3109 35.3763C50.3109 37.7823 48.2769 39.8883 45.9609 39.8823C43.6449 39.8823 41.6229 37.7763 41.6289 35.3643C41.6349 32.6403 43.8489 30.8823 45.9489 30.8463C48.2709 30.8043 50.3109 32.9523 50.3049 35.3763H50.3109ZM45.8169 32.7603C44.3589 32.7963 43.2309 33.9783 43.2609 35.4303C43.2969 36.8703 44.5029 38.0163 45.9489 37.9743C47.3589 37.9323 48.4929 36.7503 48.4689 35.3403C48.4449 33.8883 47.2449 32.7243 45.8169 32.7603Z" fill="white"/>
</g>
</svg>
