<svg width="85" height="85" viewBox="0 0 85 85" fill="none" xmlns="http://www.w3.org/2000/svg">
<g id="Post Manage 1">
<path id="Vector" d="M49.3733 63.9545C49.3733 66.6305 49.4737 69.1893 49.3399 71.7398C49.2228 74.006 47.3664 75.5697 45.0668 75.5697C36.2111 75.5781 27.3555 75.5697 18.4999 75.5697C15.9076 75.5697 14.1348 73.7635 14.1348 71.1294C14.1348 54.2041 14.1348 37.2706 14.1348 20.3453C14.1348 18.1795 14.1348 16.0137 14.1348 13.8479C14.1348 11.2305 15.9159 9.4493 18.525 9.43258C19.9465 9.43258 21.3765 9.43258 22.8315 9.43258C23.1911 10.5364 23.5423 11.6068 23.8852 12.6771C24.6963 15.1775 26.3604 16.39 28.9945 16.3983C30.8677 16.3983 32.7324 16.3983 34.6056 16.3983C37.1226 16.39 38.7784 15.1942 39.5811 12.8193C39.8989 11.866 40.2334 10.9211 40.5177 9.95104C40.6348 9.54129 40.8188 9.41585 41.2369 9.42422C42.5414 9.4493 43.8459 9.42422 45.1504 9.43258C47.3497 9.45766 49.1308 10.9211 49.3315 13.112C49.4988 14.9349 49.365 16.783 49.365 18.6227C49.0974 18.7983 48.8214 18.7147 48.5622 18.7147C43.8375 18.7147 39.1129 18.7147 34.3882 18.7147C30.575 18.7147 28.0078 21.2819 27.9994 25.0951C27.9994 35.9242 27.9994 46.745 27.9994 57.5741C27.9994 61.3539 30.5499 63.9127 34.3296 63.9295C39.0543 63.9462 43.779 63.9295 48.5037 63.9295C48.7713 63.9295 49.0389 63.9295 49.3817 63.9295L49.3733 63.9545ZM31.6955 69.0555C30.2739 69.0555 28.844 69.0555 27.4224 69.0555C26.628 69.0555 26.1681 69.4402 26.1597 70.0757C26.1513 70.7113 26.6196 71.1377 27.389 71.1377C30.2907 71.1461 33.184 71.1377 36.0857 71.1377C36.8885 71.1377 37.3233 70.7614 37.34 70.1008C37.3484 69.4318 36.9303 69.0555 36.1192 69.0555C34.6474 69.0472 33.1756 69.0555 31.6955 69.0555Z" fill="white"/>
<path id="Vector_2" d="M71.1162 51.2025H60.8222C60.6132 50.8931 60.7135 50.567 60.7052 50.2576C60.6466 48.2924 60.8891 46.3106 60.4041 44.3789C59.5763 41.0925 57.6362 38.6842 54.6091 37.1539C54.4753 37.087 54.3498 37.0201 54.2244 36.9448C54.191 36.9197 54.1659 36.8696 54.1408 36.8278C56.9338 33.0397 56.9171 29.5108 54.0906 26.977C51.515 24.669 47.6851 24.6858 45.1764 27.0188C42.3165 29.6864 42.3667 33.0898 45.3353 36.9699C45.2099 37.2124 44.9507 37.2542 44.7416 37.3713C41.2044 39.4452 39.2894 42.5225 39.1054 46.62C39.0385 48.1168 39.0971 49.6137 39.0971 51.1691H30.1495C29.9822 50.9349 30.0658 50.659 30.0658 50.3997C30.0658 42.0124 30.0658 33.625 30.0658 25.2293C30.0658 22.4196 31.6797 20.8057 34.5062 20.8057C45.2266 20.8057 55.9554 20.8057 66.6758 20.8057C69.4855 20.8057 71.1078 22.4363 71.1078 25.246C71.1078 33.6334 71.1078 42.0207 71.1078 50.4164V51.1941L71.1162 51.2025Z" fill="white"/>
<path id="Vector_3" d="M30.1326 53.335H71.0659C71.0659 55.0827 71.2081 56.8137 71.0324 58.5028C70.8067 60.6101 69.0924 61.8645 66.7928 61.8645C56.6828 61.8645 46.5812 61.8645 36.4712 61.8645C35.6099 61.8645 34.7486 61.8812 33.8873 61.8477C31.8051 61.7808 30.1159 60.0917 30.0824 58.0095C30.0574 56.5377 30.0824 55.0576 30.0824 53.5858C30.0824 53.5189 30.1159 53.452 30.141 53.335H30.1326ZM38.9297 58.7286C39.8914 58.7286 40.8447 58.7286 41.8063 58.7286C42.5171 58.7286 42.9185 58.3774 42.9185 57.8255C42.9185 57.2736 42.5171 56.9558 41.7896 56.9558C39.8747 56.9558 37.9513 56.9558 36.0364 56.9558C35.3005 56.9558 34.9326 57.2736 34.9326 57.8422C34.9326 58.4109 35.3172 58.7203 36.0531 58.7286C37.0148 58.737 37.9681 58.7286 38.9297 58.7286Z" fill="white"/>
<path id="Vector_4" d="M58.5891 51.1855H41.1956C41.204 47.8155 40.7106 44.4204 43.0353 41.4936C45.268 38.6922 49.0561 37.4546 52.493 38.5333C55.955 39.6204 58.4637 42.8315 58.5807 46.4106C58.6309 47.9827 58.5891 49.5548 58.5891 51.1855Z" fill="white"/>
<path id="Vector_5" d="M54.166 31.8773C54.166 34.3693 52.1758 36.3762 49.6922 36.4096C47.2002 36.4347 45.1348 34.3776 45.1348 31.8773C45.1348 29.4104 47.1501 27.37 49.6253 27.345C52.1256 27.3199 54.166 29.3603 54.166 31.8773Z" fill="white"/>
<path id="Vector_6" d="M38.4447 9.5C38.0852 10.6791 37.8176 11.8247 37.2991 12.8784C36.8559 13.7815 36.0615 14.2916 35.0497 14.3083C32.8588 14.3418 30.6762 14.3501 28.4853 14.3083C27.3564 14.2916 26.5202 13.6811 26.102 12.6358C25.7007 11.6407 25.408 10.6038 25.04 9.50836H38.4364L38.4447 9.5Z" fill="white"/>
</g>
</svg>
