<?xml version="1.0" encoding="UTF-8"?>
<svg id="Layer_1" xmlns="http://www.w3.org/2000/svg" viewBox="0 0 100 100">
  <defs>
    <style>
      .cls-1 {
        fill: #010101;
      }
    </style>
  </defs>
  <path class="cls-1" d="M58.07,75.65c0,3.2.12,6.26-.04,9.31-.14,2.71-2.36,4.58-5.11,4.58-10.59.01-21.18,0-31.77,0-3.1,0-5.22-2.16-5.22-5.31,0-20.24,0-40.49,0-60.73,0-2.59,0-5.18,0-7.77,0-3.13,2.13-5.26,5.25-5.28,1.7,0,3.41,0,5.15,0,.43,1.32.85,2.6,1.26,3.88.97,2.99,2.96,4.44,6.11,4.45,2.24,0,4.47,0,6.71,0,3.01-.01,4.99-1.44,5.95-4.28.38-1.14.78-2.27,1.12-3.43.14-.49.36-.64.86-.63,1.56.03,3.12,0,4.68.01,2.63.03,4.76,1.78,5,4.4.2,2.18.04,4.39.04,6.59-.32.21-.65.11-.96.11-5.65,0-11.3,0-16.95,0-4.56,0-7.63,3.07-7.64,7.63,0,12.95,0,25.89,0,38.84,0,4.52,3.05,7.58,7.57,7.6,5.65.02,11.3,0,16.95,0,.32,0,.64,0,1.05,0ZM36.93,81.75c-1.7,0-3.41,0-5.11,0-.95,0-1.5.46-1.51,1.22-.01.76.55,1.27,1.47,1.27,3.47.01,6.93,0,10.4,0,.96,0,1.48-.45,1.5-1.24.01-.8-.49-1.25-1.46-1.25-1.76-.01-3.52,0-5.29,0Z"/>
  <path class="cls-1" d="M84.07,60.4h-12.31c-.25-.37-.13-.76-.14-1.13-.07-2.35.22-4.72-.36-7.03-.99-3.93-3.31-6.81-6.93-8.64-.16-.08-.31-.16-.46-.25-.04-.03-.07-.09-.1-.14,3.34-4.53,3.32-8.75-.06-11.78-3.08-2.76-7.66-2.74-10.66.05-3.42,3.19-3.36,7.26.19,11.9-.15.29-.46.34-.71.48-4.23,2.48-6.52,6.16-6.74,11.06-.08,1.79-.01,3.58-.01,5.44h-10.7c-.2-.28-.1-.61-.1-.92,0-10.03,0-20.06,0-30.1,0-3.36,1.93-5.29,5.31-5.29,12.82,0,25.65,0,38.47,0,3.36,0,5.3,1.95,5.3,5.31,0,10.03,0,20.06,0,30.1v.93Z"/>
  <path class="cls-1" d="M35.06,62.95h48.95c0,2.09.17,4.16-.04,6.18-.27,2.52-2.32,4.02-5.07,4.02-12.09,0-24.17,0-36.26,0-1.03,0-2.06.02-3.09-.02-2.49-.08-4.51-2.1-4.55-4.59-.03-1.76,0-3.53,0-5.29,0-.08.04-.16.07-.3ZM45.58,69.4c1.15,0,2.29,0,3.44,0,.85,0,1.33-.42,1.33-1.08,0-.66-.48-1.04-1.35-1.04-2.29,0-4.59,0-6.88,0-.88,0-1.32.38-1.32,1.06,0,.68.46,1.05,1.34,1.06,1.15.01,2.29,0,3.44,0Z"/>
  <path class="cls-1" d="M69.09,60.38h-20.8c.01-4.03-.58-8.09,2.2-11.59,2.67-3.35,7.2-4.83,11.31-3.54,4.14,1.3,7.14,5.14,7.28,9.42.06,1.88.01,3.76.01,5.71Z"/>
  <path class="cls-1" d="M63.8,37.29c0,2.98-2.38,5.38-5.35,5.42-2.98.03-5.45-2.43-5.45-5.42,0-2.95,2.41-5.39,5.37-5.42,2.99-.03,5.43,2.41,5.43,5.42Z"/>
  <path class="cls-1" d="M45,10.53c-.43,1.41-.75,2.78-1.37,4.04-.53,1.08-1.48,1.69-2.69,1.71-2.62.04-5.23.05-7.85,0-1.35-.02-2.35-.75-2.85-2-.48-1.19-.83-2.43-1.27-3.74h16.02Z"/>
</svg>