<svg width="70" height="70" viewBox="0 0 70 70" fill="none" xmlns="http://www.w3.org/2000/svg">
<g id="PPC Management 1">
<path id="Vector" d="M38.0869 66.2344C37.1134 66.018 36.1585 65.7254 35.2309 65.3594C31.9409 63.7494 30.0439 61.0894 29.9879 57.4074C29.8899 51.1074 29.9529 44.8074 29.9879 38.5074C29.9879 37.8074 30.3589 37.3734 30.9749 37.3664C31.5909 37.3594 31.9899 37.7864 31.9899 38.5494C31.9899 44.6441 31.9899 50.7411 31.9899 56.8404C31.9215 58.1919 32.2503 59.5339 32.9357 60.7007C33.6211 61.8675 34.6331 62.8081 35.8469 63.4064C36.9278 63.9687 38.1355 64.2426 39.3532 64.2018C40.5709 64.161 41.7576 63.8068 42.7984 63.1734C43.8393 62.54 44.6992 61.6489 45.295 60.5861C45.8909 59.5233 46.2025 58.3248 46.1999 57.1064C46.1999 51.8004 46.1999 46.5434 46.1999 41.3004C46.2595 40.8206 46.3795 40.3502 46.5569 39.9004C44.0699 39.8292 41.6251 39.2402 39.3785 38.1711C37.1318 37.1021 35.1328 35.5764 33.5089 33.6914C31.8019 31.8262 30.5194 29.6132 29.7497 27.2048C28.9799 24.7965 28.7412 22.2499 29.0499 19.7404C29.4197 16.2468 30.7905 12.9344 32.9975 10.2011C35.2044 7.46775 38.1537 5.42984 41.4909 4.3322C44.8281 3.23456 48.4113 3.1239 51.8099 4.01351C55.2084 4.90312 58.2779 6.75516 60.6493 9.34708C63.0207 11.939 64.5933 15.1606 65.178 18.6246C65.7628 22.0887 65.3348 25.6479 63.9456 28.8747C62.5563 32.1014 60.2649 34.8584 57.3467 36.8143C54.4284 38.7701 51.0075 39.8418 47.4949 39.9004C48.1949 40.2434 48.1949 40.7894 48.1949 41.3564C48.1949 46.5294 48.1949 51.7094 48.1949 56.8824C48.255 59.1147 47.4923 61.2912 46.0518 62.9976C44.6113 64.704 42.5936 65.8212 40.3829 66.1364C40.3086 66.159 40.2379 66.192 40.1729 66.2344H38.0869ZM46.1999 10.9834H45.0799C43.9451 10.992 42.8469 11.3861 41.9654 12.1009C41.084 12.8157 40.4717 13.8088 40.2289 14.9174C40.0992 15.6825 40.0499 16.4591 40.0819 17.2344C40.0374 17.953 40.1454 18.6728 40.3989 19.3467C40.6524 20.0205 41.0456 20.6331 41.5527 21.1441C42.0598 21.6552 42.6693 22.0532 43.3411 22.3119C44.013 22.5707 44.732 22.6843 45.4509 22.6454C46.7179 22.6454 47.9919 22.6454 49.2589 22.6454C50.0248 22.6482 50.7603 22.9457 51.3129 23.4761C51.8654 24.0065 52.1927 24.7292 52.2269 25.4944C52.2269 26.0824 52.2269 26.6774 52.2269 27.2724C52.2215 28.05 51.9126 28.7948 51.366 29.348C50.8194 29.9011 50.0784 30.2188 49.3009 30.2334C47.9009 30.2824 46.5009 30.2824 45.1009 30.2334C44.7056 30.228 44.3154 30.1443 43.9526 29.9874C43.5898 29.8304 43.2616 29.6032 42.987 29.3189C42.7125 29.0345 42.4969 28.6987 42.3527 28.3306C42.2085 27.9626 42.1385 27.5696 42.1469 27.1744C42.1469 26.8874 42.1469 26.6004 42.1469 26.3134C42.1469 25.6134 41.7269 25.1794 41.1179 25.1864C40.5089 25.1934 40.1309 25.6204 40.1029 26.3344C40.1029 26.6774 40.1029 27.0344 40.1029 27.3774C40.1414 28.7062 40.7026 29.9662 41.6646 30.8836C42.6266 31.8011 43.9117 32.3019 45.2409 32.2774H46.1999C46.1999 32.9774 46.1999 33.5374 46.1999 34.1254C46.1999 34.8884 46.5849 35.3224 47.2149 35.3224C47.8449 35.3224 48.1949 34.8814 48.2089 34.1114C48.2089 33.5234 48.2089 32.9354 48.2089 32.2704C48.6499 32.2704 49.0139 32.2704 49.3709 32.2704C50.4745 32.2536 51.5411 31.8694 52.4019 31.1784C53.2628 30.4875 53.8687 29.5293 54.1239 28.4554C54.2735 27.6738 54.3322 26.8775 54.2989 26.0824C54.2989 22.7644 52.1989 20.6294 48.8669 20.6224C47.5579 20.6224 46.2419 20.6224 44.9399 20.6224C44.1942 20.5836 43.4908 20.2639 42.9714 19.7275C42.4519 19.1912 42.1548 18.478 42.1399 17.7314C42.1399 17.1364 42.1399 16.5414 42.1399 15.9534C42.1474 15.2386 42.4201 14.5521 42.9051 14.027C43.3902 13.5018 44.0529 13.1756 44.7649 13.1114C46.3783 13.0204 47.9955 13.0204 49.6089 13.1114C50.3149 13.1717 50.9736 13.4911 51.4583 14.0081C51.9429 14.525 52.2192 15.203 52.2339 15.9114C52.2339 16.3454 52.2339 16.7724 52.2759 17.1994C52.2903 17.4581 52.4037 17.7014 52.5927 17.8787C52.7817 18.0559 53.0317 18.1536 53.2909 18.1514C53.55 18.1412 53.7959 18.0341 53.98 17.8514C54.164 17.6686 54.2728 17.4235 54.2849 17.1644C54.3094 16.7354 54.3094 16.3054 54.2849 15.8764C54.2304 14.7443 53.796 13.6636 53.0517 12.8088C52.3074 11.954 51.2967 11.375 50.1829 11.1654C49.5235 11.0755 48.86 11.0194 48.1949 10.9974V9.98941C48.1949 9.66041 48.1949 9.33141 48.1949 9.00941C48.2035 8.87091 48.1836 8.73212 48.1365 8.60161C48.0893 8.4711 48.0159 8.35164 47.9208 8.25061C47.8257 8.14958 47.7109 8.06913 47.5834 8.01423C47.456 7.95933 47.3186 7.93114 47.1799 7.93141C47.0422 7.93757 46.9071 7.97134 46.7827 8.0307C46.6583 8.09006 46.5472 8.1738 46.4557 8.27696C46.3643 8.38012 46.2946 8.50058 46.2506 8.63122C46.2067 8.76185 46.1894 8.89998 46.1999 9.03741C46.1999 9.64641 46.1999 10.2624 46.1999 10.9834ZM37.1699 10.4304C36.8345 10.625 36.516 10.8475 36.2179 11.0954C33.5653 13.8651 32.0551 17.5335 31.989 21.368C31.9228 25.2025 33.3055 28.9208 35.8609 31.7804C36.0429 31.9764 36.2179 32.1724 36.4139 32.3544C36.6009 32.5374 36.8522 32.6399 37.1139 32.6399C37.3755 32.6399 37.6268 32.5374 37.8139 32.3544C37.9936 32.1657 38.0939 31.915 38.0939 31.6544C38.0939 31.3938 37.9936 31.1431 37.8139 30.9544C37.7089 30.8284 37.5899 30.7164 37.4779 30.5974C35.3638 28.3199 34.1234 25.368 33.9761 22.264C33.8288 19.16 34.784 16.1039 36.6729 13.6364C37.0439 13.1534 37.5339 12.7404 37.8489 12.2364C37.9385 12.0746 37.9951 11.8966 38.0155 11.7128C38.036 11.529 38.0198 11.3429 37.9679 11.1654C37.9049 10.8644 37.5059 10.6964 37.1699 10.4304ZM60.3539 20.9304C60.3539 24.9764 59.1009 28.1894 56.7699 30.6534L56.6019 30.8284C56.4914 30.9207 56.4011 31.0348 56.3365 31.1635C56.272 31.2923 56.2346 31.4329 56.2268 31.5767C56.2189 31.7204 56.2407 31.8643 56.2907 31.9993C56.3408 32.1343 56.4181 32.2576 56.5179 32.3614C56.9589 32.8024 57.5399 32.7464 58.0789 32.2144C60.2496 29.9743 61.6817 27.1229 62.1824 24.044C62.683 20.9651 62.2281 17.8068 60.8789 14.9944C60.1536 13.48 59.176 12.1 57.9879 10.9134C57.813 10.7178 57.5683 10.5986 57.3065 10.5816C57.0446 10.5646 56.7866 10.6511 56.5879 10.8224C56.4881 10.9178 56.4088 11.0324 56.3545 11.1594C56.3003 11.2863 56.2723 11.4229 56.2723 11.5609C56.2723 11.6989 56.3003 11.8355 56.3545 11.9624C56.4088 12.0894 56.4881 12.204 56.5879 12.2994C56.6859 12.4114 56.7839 12.5094 56.8819 12.6144C59.0252 14.869 60.2614 17.835 60.3539 20.9444V20.9304Z" fill="white"/>
<path id="Vector_2" d="M12.6908 37.9466C12.6908 39.5496 12.6908 41.1036 12.6908 42.6506C12.6659 42.7373 12.6214 42.8172 12.5607 42.8839C12.5 42.9507 12.4248 43.0026 12.3408 43.0356C11.6886 43.2352 11.1223 43.6479 10.7327 44.2076C10.343 44.7674 10.1525 45.4417 10.1918 46.1226C10.1918 47.0606 10.1918 48.0056 10.1918 48.9226C10.1679 49.5742 10.3612 50.2152 10.7413 50.7448C11.1215 51.2745 11.6669 51.6628 12.2918 51.8486C12.6278 51.9676 12.7468 52.1146 12.7188 52.4576C12.6943 52.8049 12.6943 53.1534 12.7188 53.5006C12.7071 53.6415 12.7248 53.7832 12.7706 53.9169C12.8165 54.0506 12.8896 54.1733 12.9853 54.2773C13.0811 54.3813 13.1973 54.4643 13.3267 54.521C13.4562 54.5778 13.596 54.6071 13.7373 54.6071C13.8786 54.6071 14.0184 54.5778 14.1479 54.521C14.2773 54.4643 14.3935 54.3813 14.4892 54.2773C14.585 54.1733 14.6581 54.0506 14.7039 53.9169C14.7498 53.7832 14.7675 53.6415 14.7558 53.5006C14.7558 53.0106 14.7558 52.5206 14.7558 52.1846C15.3607 51.8277 15.9407 51.4301 16.4918 50.9946C16.7683 50.7231 16.9823 50.3945 17.1189 50.0319C17.2555 49.6692 17.3114 49.2811 17.2828 48.8946C17.2828 47.9356 17.2828 46.9696 17.2828 46.0106C17.3069 45.3385 17.1077 44.6772 16.7164 44.1302C16.3251 43.5831 15.7637 43.181 15.1198 42.9866C14.9798 42.9376 14.7768 42.7766 14.7768 42.6646C14.7768 41.0756 14.7768 39.4866 14.7768 37.8906C16.7642 38.112 18.6219 38.9868 20.0586 40.3778C21.4952 41.7688 22.4295 43.5974 22.7148 45.5766C22.8373 47.0035 22.8794 48.4361 22.8408 49.8676C22.8408 52.0096 22.9318 54.1726 22.7218 56.3006C22.4583 58.4441 21.4318 60.421 19.8302 61.8696C18.2285 63.3183 16.1589 64.1418 13.9998 64.1896C11.8741 64.2602 9.79077 63.5839 8.11175 62.2783C6.43274 60.9727 5.26409 59.1202 4.8088 57.0426C4.67746 56.4043 4.60483 55.7552 4.5918 55.1036C4.5918 52.3806 4.5918 49.6576 4.5918 46.9346C4.59766 44.7436 5.39383 42.6283 6.83406 40.9772C8.2743 39.3261 10.2619 38.25 12.4318 37.9466H12.6908Z" fill="white"/>
<path id="Vector_3" d="M14.7352 29.4352C14.7352 31.7872 14.7352 34.1392 14.7352 36.4912C14.7352 36.7292 14.7352 37.0512 14.6232 37.1912C14.3642 37.4572 13.9932 37.8002 13.6782 37.7862C13.3632 37.7722 13.0272 37.4012 12.7822 37.0862C12.6632 36.9532 12.6982 36.6592 12.6982 36.4352C12.6982 31.8805 12.6982 27.3212 12.6982 22.7572C12.6528 20.5627 13.4101 18.4271 14.8279 16.7515C16.2457 15.076 18.2264 13.9756 20.3982 13.6572C21.8409 13.5267 23.2934 13.5502 24.7312 13.7272C24.8762 13.7308 25.0186 13.7666 25.1481 13.832C25.2777 13.8973 25.391 13.9907 25.4801 14.1052C25.5692 14.2197 25.6317 14.3526 25.6632 14.4942C25.6947 14.6358 25.6943 14.7827 25.6622 14.9242C25.6306 15.0638 25.5708 15.1954 25.4865 15.3111C25.4022 15.4267 25.2951 15.5239 25.1719 15.5967C25.0486 15.6695 24.9118 15.7163 24.7698 15.7342C24.6278 15.7522 24.4836 15.7409 24.3462 15.7012C22.1552 15.3582 20.0132 15.3792 18.0462 16.6252C17.0376 17.226 16.2015 18.0773 15.6189 19.0965C15.0363 20.1157 14.7271 21.2682 14.7212 22.4422C14.6652 24.7732 14.7212 27.1042 14.7212 29.4422L14.7352 29.4352Z" fill="white"/>
<path id="Vector_4" d="M15.2394 47.5162C15.2394 48.0062 15.2394 48.4962 15.2394 48.9862C15.2412 49.1198 15.2165 49.2524 15.1667 49.3763C15.1169 49.5002 15.0429 49.613 14.9491 49.7081C14.8554 49.8031 14.7436 49.8787 14.6204 49.9302C14.4972 49.9817 14.3649 50.0082 14.2314 50.0082C13.947 50.0258 13.6618 50.0258 13.3774 50.0082C13.2184 50.0284 13.057 50.0121 12.9053 49.9607C12.7536 49.9093 12.6155 49.8241 12.5016 49.7115C12.3876 49.5989 12.3007 49.4618 12.2475 49.3107C12.1943 49.1596 12.1761 48.9984 12.1944 48.8392C12.1944 47.9222 12.1944 47.0052 12.1944 46.0882C12.1772 45.9376 12.1937 45.7849 12.2428 45.6415C12.2918 45.498 12.3722 45.3672 12.4781 45.2586C12.584 45.1501 12.7127 45.0664 12.855 45.0138C12.9972 44.9611 13.1493 44.9408 13.3004 44.9542C15.0014 44.8912 15.2114 45.0872 15.2114 46.7812V47.4812L15.2394 47.5162Z" fill="white"/>
</g>
</svg>
