<svg width="50" height="50" viewBox="0 0 50 50" fill="none" xmlns="http://www.w3.org/2000/svg">
<g id="Professional Expertise 1">
<path id="Vector" d="M25.05 30.7441C23.1861 30.746 21.3637 30.1948 19.8134 29.1601C18.2632 28.1254 17.0549 26.6539 16.3417 24.932C15.6284 23.2101 15.4423 21.3152 15.8069 19.4874C16.1715 17.6596 17.0704 15.9811 18.3897 14.6646C19.709 13.3481 21.3894 12.4528 23.218 12.0921C25.0465 11.7314 26.941 11.9215 28.6614 12.6384C30.3819 13.3553 31.8508 14.5667 32.8822 16.1192C33.9135 17.6716 34.4609 19.4953 34.455 21.3591C34.451 23.8504 33.4582 26.2382 31.6947 27.9979C29.9312 29.7577 27.5413 30.7454 25.05 30.7441Z" fill="white"/>
<path id="Vector_2" d="M26.12 48.32C26.905 47.45 27.62 46.64 28.355 45.86C28.547 45.6903 28.687 45.4697 28.7587 45.2236C28.8304 44.9776 28.8308 44.7163 28.76 44.47C28.47 43.28 28.26 42.07 28.01 40.87C27.985 40.75 27.975 40.625 27.955 40.48C28.72 40.855 29.02 40.76 29.425 40.04C30.5517 38.04 31.6733 36.04 32.79 34.04L33.105 33.5C33.885 33.96 34.67 34.365 35.395 34.865C37.5412 36.2895 39.3663 38.1465 40.7533 40.3171C42.1404 42.4876 43.0589 44.9239 43.45 47.47C43.565 48.14 43.405 48.34 42.79 48.34H26.42C26.355 48.345 26.295 48.335 26.12 48.32Z" fill="white"/>
<path id="Vector_3" d="M24 48.3452H7.39501C6.68501 48.3452 6.52501 48.1652 6.65001 47.4602C7.72334 41.3836 10.9633 36.8536 16.37 33.8702L16.63 33.7402C16.66 33.7402 16.695 33.7402 16.76 33.7402L17.64 35.1602C18.64 36.7936 19.64 38.4286 20.64 40.0652C21.085 40.7852 21.355 40.8652 22.14 40.4902C21.925 41.5602 21.71 42.6002 21.5 43.6402C21.12 45.5402 21 45.0252 22.25 46.4452C22.815 47.0402 23.37 47.6452 24 48.3452Z" fill="white"/>
<path id="Vector_4" d="M22.56 4.27945C24.24 4.24945 23.81 4.49945 24.355 2.99945C24.475 2.66445 24.55 2.31445 24.69 1.99945C24.75 1.86445 24.93 1.68945 25.05 1.68945C25.1299 1.71162 25.2036 1.75207 25.2652 1.80761C25.3268 1.86314 25.3747 1.93225 25.405 2.00945C25.6329 2.584 25.8315 3.16976 26 3.76445C26.015 3.84576 26.046 3.92329 26.0911 3.99255C26.1363 4.0618 26.1947 4.12141 26.2631 4.16791C26.3315 4.21442 26.4084 4.2469 26.4894 4.26347C26.5704 4.28004 26.6539 4.28037 26.735 4.26445C27.33 4.26445 27.93 4.23945 28.525 4.26445C28.7 4.26445 28.865 4.42945 29.025 4.51945C28.94 4.67945 28.89 4.88445 28.76 4.98445C28.26 5.37945 27.76 5.74945 27.235 6.09945C27.1678 6.13259 27.108 6.17912 27.0595 6.23617C27.0109 6.29323 26.9745 6.35962 26.9524 6.43125C26.9304 6.50289 26.9233 6.57827 26.9315 6.65276C26.9397 6.72726 26.963 6.79929 27 6.86445C27.205 7.45445 27.41 8.04945 27.57 8.65945C27.5817 8.84721 27.5579 9.03548 27.5 9.21445C27.328 9.20463 27.159 9.16575 27 9.09945C26.5 8.74945 25.965 8.37945 25.47 7.99445C25.3661 7.89186 25.226 7.83433 25.08 7.83433C24.934 7.83433 24.7939 7.89186 24.69 7.99445C24.19 8.37945 23.69 8.74945 23.16 9.09945C23.0004 9.16232 22.8314 9.19782 22.66 9.20445C22.5981 9.02455 22.5709 8.8345 22.58 8.64445C22.745 8.03945 22.945 7.44445 23.155 6.84945C23.2181 6.71918 23.2277 6.56943 23.182 6.43213C23.1362 6.29483 23.0386 6.18083 22.91 6.11445C22.41 5.75945 21.88 5.38945 21.385 4.99945C21.26 4.89445 21.12 4.66445 21.155 4.53945C21.19 4.41445 21.435 4.30445 21.595 4.28445C21.9164 4.26711 22.2384 4.26544 22.56 4.27945Z" fill="white"/>
<path id="Vector_5" d="M43.08 19.8042C43.115 21.4842 42.8 21.0692 44.41 21.6192C44.7202 21.7067 45.0256 21.8102 45.325 21.9292C45.48 21.9992 45.705 22.1942 45.685 22.2892C45.6552 22.3796 45.6062 22.4626 45.5415 22.5325C45.4768 22.6023 45.3979 22.6575 45.31 22.6942C44.74 22.9142 44.155 23.0992 43.565 23.2642C43.4851 23.275 43.4083 23.302 43.3393 23.3435C43.2702 23.3851 43.2104 23.4404 43.1636 23.506C43.1167 23.5716 43.0838 23.6461 43.0668 23.7249C43.0499 23.8037 43.0493 23.8852 43.065 23.9642C43.065 24.5792 43.065 25.1892 43.065 25.8042C43.065 25.9642 42.95 26.2142 42.825 26.2592C42.7 26.3042 42.465 26.1692 42.365 26.0492C41.965 25.5492 41.585 25.0192 41.22 24.4842C41.1569 24.3617 41.0481 24.2688 40.9172 24.2258C40.7862 24.1828 40.6435 24.193 40.52 24.2542C39.93 24.4592 39.335 24.6642 38.73 24.8292C38.5364 24.8408 38.3421 24.8205 38.155 24.7692C38.1595 24.5734 38.2002 24.3802 38.275 24.1992C38.6 23.6992 38.95 23.1992 39.325 22.7492C39.3854 22.6914 39.4334 22.6219 39.4662 22.545C39.499 22.4681 39.5159 22.3853 39.5159 22.3017C39.5159 22.2181 39.499 22.1354 39.4662 22.0585C39.4334 21.9816 39.3854 21.9121 39.325 21.8542C38.9505 21.3891 38.6001 20.9051 38.275 20.4042C38.2069 20.2237 38.173 20.0321 38.175 19.8392C38.3502 19.7881 38.5329 19.7678 38.715 19.7792C39.335 19.9542 39.945 20.1592 40.55 20.3742C40.667 20.4323 40.8021 20.4424 40.9263 20.4022C41.0506 20.362 41.1542 20.2748 41.215 20.1592C41.585 19.6292 41.955 19.1042 42.355 18.5942C42.492 18.4762 42.6497 18.3847 42.82 18.3242C42.9296 18.4771 43.0156 18.6457 43.075 18.8242C43.0971 19.1505 43.0988 19.4778 43.08 19.8042Z" fill="white"/>
<path id="Vector_6" d="M15.5001 7.27509C15.3801 8.02509 15.2901 8.66509 15.1751 9.30009C15.1296 9.44663 15.1441 9.60519 15.2153 9.74106C15.2866 9.87694 15.4087 9.97907 15.5551 10.0251C16.1101 10.2801 16.6601 10.5551 17.1901 10.8601C17.3401 10.9451 17.4151 11.1651 17.5251 11.3201C17.3751 11.4201 17.2401 11.5801 17.0801 11.6101C16.4801 11.7301 15.8701 11.8201 15.2651 11.9051C14.9251 11.9501 14.7151 12.0751 14.6751 12.4651C14.6122 13.043 14.5187 13.6171 14.3951 14.1851C14.316 14.3961 14.2101 14.5961 14.0801 14.7801C13.8815 14.6499 13.7044 14.4896 13.5551 14.3051C13.2707 13.8198 13.0137 13.319 12.7851 12.8051C12.7628 12.7255 12.7241 12.6515 12.6715 12.5878C12.6188 12.5241 12.5533 12.4722 12.4793 12.4355C12.4053 12.3987 12.3244 12.3779 12.2419 12.3744C12.1593 12.3709 12.0769 12.3847 12.0001 12.4151C11.4001 12.5401 10.7901 12.6301 10.1851 12.7001C10.012 12.6835 9.84294 12.6379 9.68506 12.5651C9.71072 12.3747 9.77358 12.1912 9.87006 12.0251C10.2801 11.5701 10.7201 11.1401 11.1701 10.7201C11.2944 10.6299 11.3783 10.4943 11.4036 10.3428C11.4288 10.1912 11.3934 10.0358 11.3051 9.91009C11.0001 9.36009 10.7101 8.80009 10.4501 8.22509C10.4128 8.14703 10.3934 8.06161 10.3934 7.97509C10.3934 7.88858 10.4128 7.80316 10.4501 7.72509C10.5281 7.6878 10.6135 7.66845 10.7001 7.66845C10.7866 7.66845 10.872 7.6878 10.9501 7.72509C11.5401 7.99009 12.1101 8.29009 12.6801 8.59509C12.7339 8.63798 12.796 8.66929 12.8625 8.68705C12.929 8.70482 12.9985 8.70865 13.0666 8.69833C13.1346 8.688 13.1998 8.66373 13.2581 8.62704C13.3163 8.59035 13.3664 8.54202 13.4051 8.48509C13.8501 8.01509 14.3051 7.55509 14.7801 7.12009C14.8472 7.05992 14.927 7.01564 15.0135 6.99054C15.1001 6.96544 15.1912 6.96016 15.2801 6.97509C15.3851 7.00009 15.4401 7.21009 15.5001 7.27509Z" fill="white"/>
<path id="Vector_7" d="M7.00002 24.7957C6.97002 23.1457 7.26502 23.5457 5.69502 23.0057C5.36002 22.8907 5.01502 22.8057 4.69502 22.6607C4.56002 22.6007 4.39502 22.4257 4.39502 22.3057C4.39502 22.1857 4.57502 22.0107 4.71002 21.9607C5.26389 21.7419 5.82982 21.5549 6.40502 21.4007C6.50459 21.39 6.60072 21.3581 6.68702 21.3073C6.77332 21.2565 6.84781 21.1879 6.90552 21.1061C6.96324 21.0242 7.00285 20.931 7.02173 20.8327C7.04061 20.7343 7.03833 20.6331 7.01502 20.5357C6.98002 19.9729 6.98002 19.4085 7.01502 18.8457C7.06563 18.6655 7.14865 18.4961 7.26002 18.3457C7.42002 18.4307 7.62502 18.4807 7.72502 18.6107C8.10502 19.1107 8.47002 19.6107 8.81002 20.1107C8.84356 20.1833 8.89153 20.2484 8.95101 20.3019C9.01049 20.3555 9.08023 20.3963 9.156 20.422C9.23177 20.4478 9.31197 20.4578 9.39174 20.4516C9.47151 20.4453 9.54918 20.4229 9.62002 20.3857C10.1916 20.1674 10.774 19.9788 11.365 19.8207C11.5591 19.8135 11.7526 19.8441 11.935 19.9107C11.9241 20.0825 11.8853 20.2514 11.82 20.4107C11.48 20.9107 11.12 21.4107 10.74 21.9107C10.6827 21.9662 10.6371 22.0326 10.606 22.1061C10.5749 22.1795 10.5589 22.2584 10.5589 22.3382C10.5589 22.418 10.5749 22.4969 10.606 22.5704C10.6371 22.6438 10.6827 22.7102 10.74 22.7657C11.1 23.2207 11.445 23.6907 11.74 24.1757C11.8225 24.3685 11.8764 24.5723 11.9 24.7807C11.6982 24.8353 11.4883 24.8539 11.28 24.8357C10.69 24.6757 10.11 24.4807 9.53502 24.2757C9.41116 24.2151 9.26869 24.2047 9.13734 24.2466C9.00599 24.2886 8.8959 24.3796 8.83002 24.5007C8.50002 25.0007 8.13502 25.5357 7.73502 26.0407C7.63002 26.1707 7.39002 26.3007 7.27002 26.2607C7.15002 26.2207 7.04502 25.9757 7.03002 25.8107C6.99999 25.4733 6.98997 25.1343 7.00002 24.7957Z" fill="white"/>
<path id="Vector_8" d="M35 9.58055C34.875 8.81555 34.755 8.19555 34.685 7.58055C34.7026 7.35928 34.7532 7.14188 34.835 6.93555C35.0477 6.99652 35.25 7.08923 35.435 7.21055C35.8387 7.55921 36.2163 7.93689 36.565 8.34055C36.6194 8.42428 36.6911 8.49549 36.7751 8.54945C36.8592 8.60341 36.9538 8.6389 37.0526 8.65355C37.1514 8.66821 37.2522 8.6617 37.3483 8.63446C37.4444 8.60722 37.5336 8.55987 37.61 8.49555C38.0556 8.22576 38.5202 7.98847 39 7.78555C39.2278 7.72277 39.4639 7.69578 39.7 7.70555C39.7029 7.92845 39.6743 8.15065 39.615 8.36555C39.3917 8.86623 39.1431 9.3552 38.87 9.83055C38.8149 9.89913 38.7745 9.97825 38.7511 10.063C38.7278 10.1478 38.722 10.2365 38.7342 10.3236C38.7464 10.4107 38.7762 10.4944 38.8219 10.5696C38.8676 10.6447 38.9282 10.7097 39 10.7605C39.4447 11.1586 39.8655 11.5827 40.26 12.0305C40.3547 12.197 40.4159 12.3805 40.44 12.5705C40.2815 12.6408 40.1126 12.6848 39.94 12.7005C39.33 12.6305 38.725 12.5405 38.125 12.4155C38.0492 12.3901 37.9691 12.3802 37.8894 12.3864C37.8097 12.3925 37.732 12.4147 37.6611 12.4516C37.5901 12.4885 37.5274 12.5393 37.4765 12.6009C37.4256 12.6626 37.3877 12.7339 37.365 12.8105C37.11 13.3655 36.825 13.9105 36.525 14.4455C36.445 14.5905 36.255 14.6755 36.115 14.7905C35.995 14.6355 35.81 14.4955 35.775 14.3205C35.645 13.7072 35.545 13.0872 35.475 12.4605C35.475 12.3147 35.417 12.1748 35.3139 12.0716C35.2108 11.9685 35.0709 11.9105 34.925 11.9105C34.32 11.8205 33.71 11.7355 33.115 11.6105C32.9335 11.5399 32.7646 11.4403 32.615 11.3155C32.745 11.1505 32.84 10.9355 33.005 10.8405C33.535 10.5355 34.095 10.2905 34.63 9.98555C34.7761 9.87331 34.9014 9.73621 35 9.58055Z" fill="white"/>
<path id="Vector_9" d="M24.95 36.8906C25.476 37.332 25.8301 37.9444 25.95 38.6206C26.305 40.5556 26.74 42.4706 27.125 44.3956C27.1455 44.4921 27.1467 44.5916 27.1287 44.6886C27.1107 44.7855 27.0738 44.878 27.02 44.9606C26.395 45.6956 25.735 46.4056 25.02 47.1806C24.31 46.3956 23.62 45.6406 22.95 44.8656C22.8835 44.723 22.8728 44.5607 22.92 44.4106C23.335 42.3756 23.73 40.3356 24.19 38.3106C24.3866 37.8091 24.6417 37.3325 24.95 36.8906Z" fill="white"/>
<path id="Vector_10" d="M26.135 35.8109C27.385 34.7009 28.585 33.6209 29.8 32.5609C29.8624 32.5168 29.9333 32.486 30.0081 32.4705C30.083 32.455 30.1602 32.4552 30.235 32.4709C30.685 32.5909 31.12 32.7509 31.64 32.9159L28.465 38.5759L26.135 35.8109Z" fill="white"/>
<path id="Vector_11" d="M18.17 33.0356C18.63 32.8756 19.05 32.7106 19.48 32.5806C19.541 32.572 19.6031 32.576 19.6624 32.5923C19.7217 32.6087 19.7771 32.637 19.825 32.6756C21.18 33.7156 22.53 34.7656 23.925 35.8506L21.605 38.6106L18.17 33.0356Z" fill="white"/>
<path id="Vector_12" d="M21.58 32.0544C23.7265 31.6611 25.9239 31.6323 28.08 31.9694C27.02 32.9194 26.025 33.7994 24.995 34.7194L21.58 32.0544Z" fill="white"/>
</g>
</svg>
