<svg width="65" height="65" viewBox="0 0 65 65" fill="none" xmlns="http://www.w3.org/2000/svg">
<g id="Reach More People 1">
<path id="Vector" d="M6.63669 34.2935C6.67569 34.118 6.72769 33.949 6.76669 33.78C7.0453 32.4071 7.77008 31.1648 8.82815 30.2467C9.88622 29.3285 11.2182 28.786 12.6167 28.7035C14.1442 28.6125 15.6847 28.7035 17.1667 28.7035C17.3265 29.4833 17.5437 30.2503 17.8167 30.998C18.1754 31.6959 18.5838 32.3671 19.0387 33.0065C15.0672 34.5665 13.4162 37.628 13.7477 41.983C12.5452 41.827 11.4207 41.762 10.3352 41.515C9.07419 41.2225 7.85219 40.7675 6.61719 40.3775L6.63669 34.2935Z" fill="white"/>
<path id="Vector_2" d="M23.7964 50.4592V46.5982C23.6988 45.3506 23.8377 44.0957 24.2059 42.8997C24.655 41.7031 25.4523 40.6684 26.4951 39.9293C27.5378 39.1901 28.778 38.7803 30.0559 38.7527C31.6289 38.7527 33.2019 38.7137 34.7749 38.7527C36.3552 38.8113 37.857 39.4561 38.9878 40.5617C40.1185 41.6672 40.7971 43.1541 40.8914 44.7327C40.9694 46.5202 40.9239 48.3142 40.8914 50.1017C40.8914 50.2642 40.6704 50.4852 40.5014 50.5632C38.8533 51.2853 37.0954 51.7248 35.3014 51.8632C31.4865 52.2008 27.6428 51.7585 24.0044 50.5632C23.9329 50.5331 23.8634 50.4983 23.7964 50.4592Z" fill="white"/>
<path id="Vector_3" d="M26.1366 33.5852C26.2 35.1887 26.8662 36.7092 28.0021 37.8427C23.9721 39.4352 22.2886 42.4577 22.6266 46.7802C21.7556 46.6892 20.9431 46.6632 20.1631 46.5007C18.5511 46.1757 16.9456 45.7857 15.3401 45.3957C15.2573 45.3679 15.1825 45.3202 15.1224 45.2567C15.0623 45.1933 15.0188 45.116 14.9956 45.0317C14.9956 43.0102 14.9176 40.9822 15.0996 38.9737C15.3008 37.5386 15.9942 36.218 17.0612 35.2375C18.1282 34.257 19.5027 33.6776 20.9496 33.5982C22.6396 33.5397 24.3621 33.5852 26.1366 33.5852Z" fill="white"/>
<path id="Vector_4" d="M42.068 46.8003C42.4125 42.5233 40.768 39.4553 36.686 37.8303C37.8026 36.7238 38.4656 35.2402 38.545 33.6703C38.597 33.6248 38.623 33.5923 38.649 33.5923C40.495 33.6313 42.38 33.4623 44.187 33.7678C47.1575 34.2683 49.14 36.9138 49.205 40.0663C49.205 41.6523 49.205 43.2448 49.205 44.8373C49.2153 44.9588 49.1825 45.0801 49.1124 45.1799C49.0423 45.2797 48.9393 45.3517 48.8215 45.3833C47.3339 46.0265 45.7588 46.4449 44.148 46.6248C43.4915 46.7093 42.822 46.7483 42.068 46.8003Z" fill="white"/>
<path id="Vector_5" d="M44.9541 32.7863C46.1187 31.6202 46.7931 30.0527 46.8391 28.4053C48.7948 28.4043 50.7486 28.5259 52.6891 28.7693C55.3996 29.2698 57.3756 31.8763 57.4536 34.6518C57.4991 36.3743 57.4536 38.0968 57.4536 39.8193C57.4536 40.1248 57.3041 40.2223 57.0896 40.3198C55.6407 40.9482 54.1079 41.3621 52.5396 41.5483C51.8376 41.6393 51.1291 41.6913 50.3361 41.7628C50.7001 37.4858 49.0556 34.4113 44.9541 32.7863Z" fill="white"/>
<path id="Vector_6" d="M26.65 18.4274C26.6565 17.3511 26.982 16.3009 27.5855 15.4097C28.1889 14.5185 29.0432 13.8263 30.0401 13.4207C31.037 13.0151 32.1319 12.9142 33.1861 13.131C34.2404 13.3478 35.2066 13.8724 35.9627 14.6384C36.7187 15.4044 37.2305 16.3775 37.4334 17.4345C37.6363 18.4915 37.5211 19.5849 37.1024 20.5765C36.6837 21.568 35.9803 22.413 35.0813 23.0047C34.1822 23.5964 33.1278 23.9081 32.0515 23.9004C31.3374 23.8961 30.6311 23.7512 29.973 23.4737C29.3149 23.1963 28.718 22.7919 28.2163 22.2836C27.7146 21.7753 27.3181 21.1731 27.0493 20.5114C26.7806 19.8497 26.6449 19.1415 26.65 18.4274Z" fill="white"/>
<path id="Vector_7" d="M32.3376 38.3957C31.3436 38.397 30.3715 38.1034 29.5444 37.5521C28.7173 37.0007 28.0723 36.2165 27.691 35.2985C27.3097 34.3805 27.2093 33.37 27.4024 32.3949C27.5955 31.4199 28.0736 30.524 28.776 29.8206C29.4784 29.1173 30.3737 28.6381 31.3485 28.4437C32.3234 28.2493 33.3339 28.3484 34.2524 28.7285C35.1709 29.1086 35.956 29.7526 36.5084 30.579C37.0608 31.4055 37.3556 32.3771 37.3556 33.3712C37.3488 34.7005 36.8182 35.9736 35.8788 36.9142C34.9394 37.8548 33.667 38.3871 32.3376 38.3957Z" fill="white"/>
<path id="Vector_8" d="M18.5317 28.1974C18.542 27.0116 18.9735 25.8681 19.7492 24.9711C20.5248 24.0742 21.5941 23.4822 22.766 23.3009C23.9379 23.1197 25.1361 23.361 26.1465 23.9817C27.1569 24.6024 27.9137 25.5621 28.2817 26.6894C28.3207 26.8324 28.3792 26.9689 28.4117 27.1184C28.5553 27.452 28.5854 27.8234 28.4973 28.1757C28.4092 28.528 28.2079 28.8417 27.9242 29.0684C27.0607 29.8561 26.4766 30.9033 26.2602 32.0519C26.1904 32.2931 26.0358 32.5009 25.8247 32.6369C25.0629 33.0306 24.2126 33.2216 23.3556 33.1916C22.4985 33.1616 21.6637 32.9117 20.9312 32.4658C20.1987 32.0199 19.5932 31.3931 19.173 30.6455C18.7528 29.898 18.532 29.055 18.5317 28.1974Z" fill="white"/>
<path id="Vector_9" d="M10.1011 23.3086C10.1364 22.0309 10.6411 20.8111 11.5188 19.8819C12.3964 18.9527 13.5855 18.3792 14.8591 18.2711C16.1621 18.1959 17.4437 18.6275 18.4359 19.4755C19.428 20.3235 20.0539 21.5223 20.1826 22.8211C20.2023 22.9406 20.1848 23.0633 20.1325 23.1726C20.0801 23.2819 19.9955 23.3725 19.8901 23.4321C19.2199 23.9086 18.6504 24.5128 18.2143 25.2099C17.7781 25.9071 17.4839 26.6835 17.3486 27.4946C17.3247 27.5897 17.2811 27.6788 17.2206 27.756C17.1601 27.8333 17.0842 27.897 16.9976 27.9431C16.3775 28.1865 15.7149 28.3028 15.0491 28.2851C14.3833 28.2675 13.7277 28.1162 13.1215 27.8404C12.5152 27.5645 11.9705 27.1697 11.5198 26.6793C11.0691 26.1889 10.7214 25.6129 10.4976 24.9856C10.3286 24.4461 10.2311 23.8741 10.1011 23.3086Z" fill="white"/>
<path id="Vector_10" d="M40.6122 33.2278L39.7347 33.1498C39.0002 33.0198 38.4867 32.7858 38.3502 31.8498C38.2108 31.1311 37.9276 30.4481 37.5177 29.8415C37.1078 29.235 36.5795 28.7176 35.9647 28.3203C35.8533 28.2569 35.765 28.1598 35.7124 28.043C35.6599 27.9262 35.6458 27.7957 35.6722 27.6703C35.7634 26.7385 36.1172 25.8516 36.6926 25.1129C37.2679 24.3742 38.041 23.814 38.9222 23.4973C39.8146 23.1333 40.7963 23.0478 41.7383 23.252C42.6803 23.4561 43.5385 23.9405 44.2002 24.6413C44.913 25.3425 45.3979 26.2423 45.5916 27.2233C45.7852 28.2043 45.6786 29.2208 45.2857 30.1403C44.8913 31.0536 44.2391 31.8322 43.409 32.3805C42.579 32.9289 41.607 33.2234 40.6122 33.2278Z" fill="white"/>
<path id="Vector_11" d="M53.9502 23.1396C53.9455 23.9329 53.7535 24.7139 53.3898 25.419C53.0262 26.1241 52.5011 26.7333 51.8575 27.1971C51.2138 27.6608 50.4697 27.966 49.6857 28.0877C48.9018 28.2094 48.1002 28.1443 47.3462 27.8976C47.1756 27.866 47.02 27.7798 46.9028 27.652C46.7855 27.5242 46.713 27.3617 46.6962 27.1891C46.5692 26.4074 46.2863 25.6593 45.8641 24.9893C45.442 24.3193 44.8894 23.7411 44.2392 23.2891C44.1206 23.2208 44.0265 23.1168 43.9705 22.9919C43.9145 22.867 43.8993 22.7276 43.9272 22.5936C43.9996 21.2645 44.597 20.0185 45.588 19.1299C46.0788 18.6899 46.6513 18.3508 47.2731 18.1321C47.8948 17.9134 48.5535 17.8192 49.2117 17.8551C49.8698 17.8909 50.5144 18.0561 51.1087 18.341C51.703 18.626 52.2354 19.0253 52.6754 19.516C53.1154 20.0067 53.4544 20.5792 53.6732 21.201C53.8919 21.8227 53.986 22.4815 53.9502 23.1396Z" fill="white"/>
<path id="Vector_12" d="M26.1887 15.6387C25.712 16.7063 25.5271 17.8813 25.6527 19.0437C25.7783 20.2062 26.21 21.3145 26.9037 22.2557L26.3707 22.8732C25.5682 22.4245 24.6707 22.1728 23.7519 22.1389C22.8332 22.105 21.9195 22.2898 21.0862 22.6782C21.0277 22.3597 20.9887 22.0932 20.9172 21.8267C20.5827 20.3745 19.7031 19.1063 18.4602 18.2842C18.3988 18.2562 18.344 18.2156 18.2993 18.165C18.2546 18.1145 18.2211 18.0551 18.2008 17.9907C18.1806 17.9263 18.1741 17.8584 18.1819 17.7914C18.1896 17.7244 18.2113 17.6597 18.2457 17.6017C18.5259 16.8451 18.9869 16.1685 19.5886 15.6309C20.1903 15.0933 20.9143 14.7111 21.6975 14.5175C22.4808 14.3239 23.2995 14.3249 24.0824 14.5203C24.8652 14.7157 25.5883 15.0997 26.1887 15.6387Z" fill="white"/>
<path id="Vector_13" d="M46.1955 17.6802C45.2884 18.1398 44.5112 18.8199 43.9354 19.658C43.3596 20.4962 43.0036 21.4656 42.9 22.4772C42.25 22.3667 41.639 22.2237 41.0215 22.1522C40.0782 22.0672 39.1286 22.2191 38.259 22.5942C38.1779 22.6194 38.0919 22.6249 38.0082 22.6102C37.9245 22.5955 37.8456 22.5611 37.778 22.5097C37.6285 22.2822 37.2125 22.1392 37.4595 21.7297C37.9756 20.9049 38.2967 19.9732 38.398 19.0056C38.4994 18.038 38.3785 17.06 38.0445 16.1462C38.0365 16.0505 38.0499 15.9542 38.0836 15.8643C38.1173 15.7744 38.1706 15.6931 38.2395 15.6262C38.8454 15.0845 39.5755 14.7008 40.3652 14.5089C41.1549 14.3169 41.9798 14.3228 42.7666 14.526C43.5535 14.7291 44.2781 15.1233 44.8762 15.6735C45.4743 16.2237 45.9275 16.9129 46.1955 17.6802Z" fill="white"/>
<path id="Vector_14" d="M35.672 24.3688L34.567 27.5538C33.7493 27.2284 32.8699 27.087 31.9914 27.1398C31.1129 27.1926 30.2568 27.4383 29.484 27.8593C29.4485 26.6126 29.0485 25.4037 28.3335 24.3818C30.7766 24.2118 33.2283 24.2075 35.672 24.3688Z" fill="white"/>
</g>
</svg>
