<svg width="55" height="55" viewBox="0 0 55 55" fill="none" xmlns="http://www.w3.org/2000/svg">
<g id="reasearch 1">
<path id="Vector" d="M14.7893 12.1112C14.7893 13.7942 14.8003 15.3892 14.7783 16.9842C14.7783 17.1492 14.6078 17.3197 14.4868 17.4682C10.7688 21.9452 11.0438 28.4737 15.2293 32.4942C18.4798 35.6182 22.3793 36.5257 26.6363 35.0517C30.8053 33.5997 33.3133 30.5307 33.9733 26.1637C35.0568 19.0247 28.9793 12.7767 21.8293 13.5632C21.1033 13.6457 20.3883 13.8217 19.6403 13.9592V10.0377C20.8778 9.72966 22.1373 9.60316 23.4133 9.64716C26.4658 9.74616 29.2433 10.6702 31.7293 12.4522C32.0318 12.6667 32.1583 12.8977 32.1748 13.2882C32.3508 16.5387 33.9568 18.7937 36.9433 20.0917C37.1303 20.1742 37.3393 20.3832 37.3943 20.5757C39.8583 28.8972 34.1823 37.9337 25.6298 39.3252C17.5393 40.6452 10.2078 35.7337 8.3708 27.7587C7.0453 22.0222 9.5918 15.5872 14.4923 12.2927C14.5583 12.2487 14.6298 12.2102 14.7893 12.1167V12.1112Z" fill="url(#paint0_linear_864_4559)"/>
<path id="Vector_2" d="M41.3599 7.02912C40.6889 8.81662 40.0179 10.5986 39.3469 12.3806C39.3029 12.5016 39.2424 12.6226 39.2149 12.7491C39.0994 13.2276 39.4074 13.5301 39.8749 13.3651C40.8484 13.0296 41.8109 12.6721 42.7734 12.3201C43.7359 11.9736 44.6984 11.6216 45.6554 11.2696C46.3924 13.1561 45.9634 16.4726 43.2739 18.4031C40.7769 20.1961 37.3779 19.9376 35.1284 17.7981C32.9064 15.6806 32.4884 12.2981 34.1274 9.72962C35.8214 7.08412 39.0169 6.25912 41.3544 7.02362L41.3599 7.02912Z" fill="url(#paint1_linear_864_4559)"/>
<path id="Vector_3" d="M34.7437 41.019C36.3277 39.435 37.9007 37.8675 39.4957 36.2725C39.5177 36.289 39.5947 36.333 39.6607 36.399C41.9707 38.709 44.2917 41.0025 46.5852 43.329C48.3177 45.089 47.7732 47.916 45.5512 48.8565C44.2312 49.412 42.8397 49.1205 41.7397 48.0205C39.4737 45.7655 37.2132 43.494 34.9472 41.2335C34.8702 41.1565 34.7987 41.0685 34.7492 41.0135L34.7437 41.019ZM44.2532 44.396C43.4557 44.385 42.8122 45.0065 42.7957 45.7985C42.7792 46.5905 43.4062 47.245 44.1927 47.267C45.0067 47.2835 45.6722 46.6455 45.6777 45.837C45.6777 45.045 45.0452 44.407 44.2532 44.396Z" fill="url(#paint2_linear_864_4559)"/>
<path id="Vector_4" d="M15.8016 8.68457H18.6011V33.7096C17.5506 33.2256 16.6541 32.5711 15.8621 31.7736C15.7851 31.6966 15.7686 31.5371 15.7686 31.4161C15.7686 23.9031 15.7686 16.3956 15.7686 8.88257C15.7686 8.83307 15.7851 8.78907 15.8016 8.69007V8.68457Z" fill="url(#paint3_linear_864_4559)"/>
<path id="Vector_5" d="M19.6073 17.374H22.4893V34.798C21.5653 34.5945 20.6798 34.402 19.8053 34.193C19.7228 34.171 19.6513 34.017 19.6183 33.907C19.5853 33.8025 19.6128 33.6815 19.6128 33.566C19.6128 28.3575 19.6128 23.149 19.6128 17.946V17.374H19.6073Z" fill="url(#paint4_linear_864_4559)"/>
<path id="Vector_6" d="M23.5015 34.7819V20.2949H26.367V20.7899C26.367 25.0854 26.3615 29.3809 26.378 33.6764C26.378 34.0614 26.257 34.2374 25.894 34.3089C25.1185 34.4574 24.343 34.6169 23.5015 34.7819Z" fill="url(#paint5_linear_864_4559)"/>
<path id="Vector_7" d="M32.945 41.1569C32.1585 40.3704 31.3225 39.5289 30.459 38.6709C33.341 37.1089 35.585 34.8539 37.1195 31.9609C37.983 32.8189 38.83 33.6714 39.633 34.4744C37.433 36.6744 35.1725 38.9294 32.945 41.1624V41.1569Z" fill="url(#paint6_linear_864_4559)"/>
<path id="Vector_8" d="M30.2169 23.1768C30.2224 23.3418 30.2389 23.5013 30.2389 23.6608C30.2389 26.1908 30.2499 28.7153 30.2279 31.2453C30.2279 31.4873 30.1069 31.8118 29.9309 31.9548C29.1389 32.5983 28.3084 33.1868 27.4944 33.7973C27.4559 33.7588 27.4174 33.7258 27.3789 33.6873V23.1768H30.2224H30.2169Z" fill="url(#paint7_linear_864_4559)"/>
<path id="Vector_9" d="M42.8066 5.92871C44.6051 6.79771 45.8756 8.06821 46.7281 9.85571C44.6546 10.6092 42.6306 11.3517 40.4746 12.1382C41.2721 10.0152 42.0311 8.00221 42.8066 5.92871Z" fill="url(#paint8_linear_864_4559)"/>
<path id="Vector_10" d="M12.8535 46.2992C11.7755 46.2992 10.934 45.4522 10.9395 44.3742C10.9395 43.3072 11.7975 42.4492 12.8645 42.4492C13.926 42.4492 14.7895 43.3237 14.7895 44.3852C14.7895 45.4467 13.9205 46.3047 12.8535 46.2992Z" fill="url(#paint9_linear_864_4559)"/>
<path id="Vector_11" d="M39.5617 28.5395C39.5617 27.4725 40.4197 26.6035 41.4812 26.6035C42.5372 26.6035 43.4117 27.478 43.4117 28.534C43.4117 29.5845 42.5372 30.47 41.4812 30.47C40.4252 30.47 39.5617 29.601 39.5562 28.5395H39.5617Z" fill="url(#paint10_linear_864_4559)"/>
<path id="Vector_12" d="M47.1294 35.2161C47.1294 35.7331 46.6784 36.1731 46.1559 36.1731C45.6334 36.1731 45.1934 35.7221 45.1934 35.2051C45.1934 34.6881 45.6499 34.2426 46.1669 34.2481C46.6839 34.2481 47.1294 34.7046 47.1294 35.2161Z" fill="url(#paint11_linear_864_4559)"/>
<path id="Vector_13" d="M9.98247 5.78599C10.516 5.79699 10.945 6.24249 10.923 6.77049C10.901 7.28749 10.483 7.69449 9.96597 7.69449C9.43247 7.69449 8.99797 7.25999 9.00347 6.72649C9.00347 6.18749 9.44347 5.76949 9.98247 5.78049V5.78599Z" fill="url(#paint12_linear_864_4559)"/>
<path id="Vector_14" d="M44.7702 45.9418C44.5942 46.0628 44.4237 46.2498 44.2312 46.2828C43.9232 46.3323 43.7087 46.0903 43.7747 45.8098C43.8187 45.6338 44.0717 45.4138 44.2477 45.3973C44.4127 45.3808 44.5942 45.6173 44.7702 45.7383C44.7702 45.8043 44.7702 45.8758 44.7702 45.9418Z" fill="url(#paint13_linear_864_4559)"/>
</g>
<defs>
<linearGradient id="paint0_linear_864_4559" x1="32.2475" y1="12.8266" x2="11.0316" y2="34.0785" gradientUnits="userSpaceOnUse">
<stop stop-color="#18C8FF"/>
<stop offset="1" stop-color="#C608FF"/>
</linearGradient>
<linearGradient id="paint1_linear_864_4559" x1="43.5206" y1="8.12017" x2="34.4084" y2="17.2344" gradientUnits="userSpaceOnUse">
<stop stop-color="#18C8FF"/>
<stop offset="1" stop-color="#C608FF"/>
</linearGradient>
<linearGradient id="paint2_linear_864_4559" x1="45.1499" y1="37.6434" x2="36.026" y2="46.7725" gradientUnits="userSpaceOnUse">
<stop stop-color="#18C8FF"/>
<stop offset="1" stop-color="#C608FF"/>
</linearGradient>
<linearGradient id="paint3_linear_864_4559" x1="18.0595" y1="11.3527" x2="14.0907" y2="11.8019" gradientUnits="userSpaceOnUse">
<stop stop-color="#18C8FF"/>
<stop offset="1" stop-color="#C608FF"/>
</linearGradient>
<linearGradient id="paint4_linear_864_4559" x1="21.9373" y1="19.2317" x2="17.9495" y2="19.8925" gradientUnits="userSpaceOnUse">
<stop stop-color="#18C8FF"/>
<stop offset="1" stop-color="#C608FF"/>
</linearGradient>
<linearGradient id="paint5_linear_864_4559" x1="25.828" y1="21.8395" x2="21.9008" y2="22.6193" gradientUnits="userSpaceOnUse">
<stop stop-color="#18C8FF"/>
<stop offset="1" stop-color="#C608FF"/>
</linearGradient>
<linearGradient id="paint6_linear_864_4559" x1="37.8791" y1="32.942" x2="31.3502" y2="39.4514" gradientUnits="userSpaceOnUse">
<stop stop-color="#18C8FF"/>
<stop offset="1" stop-color="#C608FF"/>
</linearGradient>
<linearGradient id="paint7_linear_864_4559" x1="29.6944" y1="24.3091" x2="25.907" y2="25.33" gradientUnits="userSpaceOnUse">
<stop stop-color="#18C8FF"/>
<stop offset="1" stop-color="#C608FF"/>
</linearGradient>
<linearGradient id="paint8_linear_864_4559" x1="45.5326" y1="6.59075" x2="41.1267" y2="11.0279" gradientUnits="userSpaceOnUse">
<stop stop-color="#18C8FF"/>
<stop offset="1" stop-color="#C608FF"/>
</linearGradient>
<linearGradient id="paint9_linear_864_4559" x1="14.0534" y1="42.8597" x2="11.3216" y2="45.5915" gradientUnits="userSpaceOnUse">
<stop stop-color="#18C8FF"/>
<stop offset="1" stop-color="#C608FF"/>
</linearGradient>
<linearGradient id="paint10_linear_864_4559" x1="42.6746" y1="27.0158" x2="39.9311" y2="29.7514" gradientUnits="userSpaceOnUse">
<stop stop-color="#18C8FF"/>
<stop offset="1" stop-color="#C608FF"/>
</linearGradient>
<linearGradient id="paint11_linear_864_4559" x1="46.7592" y1="34.4533" x2="45.3933" y2="35.827" gradientUnits="userSpaceOnUse">
<stop stop-color="#18C8FF"/>
<stop offset="1" stop-color="#C608FF"/>
</linearGradient>
<linearGradient id="paint12_linear_864_4559" x1="10.5567" y1="5.98436" x2="9.19841" y2="7.34696" gradientUnits="userSpaceOnUse">
<stop stop-color="#18C8FF"/>
<stop offset="1" stop-color="#C608FF"/>
</linearGradient>
<linearGradient id="paint13_linear_864_4559" x1="44.5776" y1="45.4917" x2="43.9487" y2="46.2013" gradientUnits="userSpaceOnUse">
<stop stop-color="#18C8FF"/>
<stop offset="1" stop-color="#C608FF"/>
</linearGradient>
</defs>
</svg>
