<?xml version="1.0" encoding="utf-8"?>
<!-- Generator: Adobe Illustrator 26.5.0, SVG Export Plug-In . SVG Version: 6.00 Build 0)  -->
<svg version="1.1" id="Layer_1" xmlns="http://www.w3.org/2000/svg" xmlns:xlink="http://www.w3.org/1999/xlink" x="0px" y="0px"
	 viewBox="0 0 100 100" style="enable-background:new 0 0 100 100;" xml:space="preserve">
<style type="text/css">
	.st0{fill:#FFFFFF;}
</style>
<path class="st0" d="M24.6,46.6c0,9.4,5.2,17.6,12.9,21.9c0.1,0.1,0.1,0.2,0,0.3l-3.2,2.5c-0.1,0.1-0.2,0.1-0.2,0
	C25.8,66.2,20.4,57,20.4,46.6c0-16.1,13.3-29.2,29.4-29.3v4.2C36,21.6,24.6,32.8,24.6,46.6z"/>
<path class="st0" d="M49.5,12.7l9.6,6.6l-9.6,6.6V12.7z"/>
<path class="st0" d="M75.4,46.4c0-9.4-5.2-17.6-12.9-21.9c-0.1-0.1-0.1-0.2,0-0.3l3.2-2.5c0.1-0.1,0.2-0.1,0.2,0
	c8.2,5.2,13.6,14.4,13.6,24.8c0,16.1-13.3,29.2-29.4,29.3v-4.2C64,71.4,75.4,60.2,75.4,46.4z"/>
<path class="st0" d="M50.5,80.3l-9.6-6.6l9.6-6.6V80.3z"/>
<path class="st0" d="M63.8,42.6l-13.3,11L47,56.5c-0.3,0.3-0.7,0.4-1.1,0.5c-1.1,0.3-2.1,0.3-3.3-0.3c-0.4-0.2-0.8-0.5-1.1-0.8
	l-5.4-7.2c-0.6-0.8-0.7-1.3-0.6-1.8c0.8-3.7,4.6-4.1,6.2-1.9l3.3,4.4l0,0l13.7-11.4c2.1-1.7,5.7-0.5,5.6,3.4
	C64.3,41.9,64.1,42.3,63.8,42.6z"/>
<path class="st0" d="M63.8,42.6l-13.3,11c-2.1-1-3.9-2.4-5.4-4.2l13.7-11.4c2.1-1.7,5.7-0.5,5.6,3.4C64.3,41.9,64.1,42.3,63.8,42.6z
	"/>
</svg>
