<svg width="70" height="70" viewBox="0 0 70 70" fill="none" xmlns="http://www.w3.org/2000/svg">
<g id="Remarketing 1">
<path id="Vector" d="M65.6811 36.6727C65.551 36.9246 65.3475 37.1311 65.0975 37.2648C64.8475 37.3986 64.5628 37.4533 64.2811 37.4217C60.9351 37.4217 57.5821 37.4217 54.2361 37.4217C53.9999 37.4657 53.7558 37.4363 53.5368 37.3374C53.3178 37.2386 53.1343 37.075 53.0111 36.8687C52.9006 36.6374 52.8669 36.3769 52.9147 36.1251C52.9626 35.8733 53.0895 35.6433 53.2771 35.4687C54.9221 33.3127 56.5461 31.1427 58.1771 28.9797C58.8771 28.0697 59.5351 28.0767 60.2351 28.9797L65.2401 35.4687C65.3801 35.6577 65.5131 35.8607 65.6461 36.0567L65.6811 36.6727Z" fill="white"/>
<path id="Vector_2" d="M35.4901 43.7783C35.2283 43.6641 34.9815 43.5184 34.7551 43.3443C31.5024 40.1149 28.2521 36.8669 25.0041 33.6003C24.8224 33.4412 24.699 33.2261 24.6534 32.989C24.6077 32.7519 24.6425 32.5064 24.7521 32.2913C26.4974 28.2919 28.2474 24.2949 30.0021 20.3003C30.3801 19.4393 31.1781 19.3483 31.8851 20.0553L40.3621 28.5253L48.1531 36.3163C49.0911 37.2543 48.9581 37.9473 47.7331 38.4793L36.3371 43.4633C36.0781 43.5753 35.8121 43.6593 35.4901 43.7783Z" fill="white"/>
<path id="Vector_3" d="M23.5619 33.4316C23.9259 33.8656 24.2129 34.2716 24.5559 34.6216C27.5939 37.6736 30.6413 40.721 33.6979 43.7636C34.0479 44.1136 34.4539 44.4006 34.8739 44.7576C34.8039 44.8416 34.6989 44.9746 34.5869 45.0936L29.8829 49.7976C29.1829 50.4976 28.6859 50.4976 27.9579 49.7976C24.8219 46.671 21.6906 43.5396 18.5639 40.4036C17.8289 39.6686 17.8289 39.1856 18.5639 38.4716L23.5619 33.4316Z" fill="white"/>
<path id="Vector_4" d="M58.1913 38.5H60.2003C60.0753 40.7728 59.6032 43.0131 58.8003 45.143C55.3493 53.76 49.1543 59.367 40.0543 61.138C29.6523 63.161 21.0913 59.668 14.5393 51.338C14.3536 51.1595 14.237 50.921 14.2101 50.6649C14.1832 50.4087 14.2477 50.1512 14.3923 49.938C14.5019 49.7541 14.6733 49.6152 14.8759 49.5459C15.0784 49.4767 15.299 49.4817 15.4983 49.56C15.8173 49.7221 16.0895 49.9631 16.2893 50.26C18.9693 53.8719 22.6389 56.6294 26.8539 58.1986C31.0689 59.7678 35.6484 60.0814 40.0379 59.1014C44.4274 58.1214 48.4387 55.8899 51.5861 52.677C54.7335 49.4642 56.8819 45.4078 57.7713 40.999C57.9323 40.18 58.0443 39.354 58.1913 38.5Z" fill="white"/>
<path id="Vector_5" d="M11.8088 34.2575H9.7998C9.91403 32.3495 10.2861 30.4657 10.9058 28.6575C13.8948 19.9495 19.8098 14.2795 28.6998 11.8505C33.6091 10.5696 38.7908 10.8004 43.5668 12.5127C48.3428 14.225 52.4907 17.3391 55.4678 21.4475C55.9438 22.1125 55.8948 22.7425 55.3418 23.1135C54.7888 23.4845 54.2638 23.3095 53.8018 22.6865C52.5248 20.9442 51.0151 19.3851 49.3148 18.0525C46.1889 15.6162 42.4923 14.0189 38.5758 13.4123C34.6593 12.8056 30.6528 13.2097 26.9363 14.5862C23.2198 15.9627 19.9166 18.266 17.3402 21.2775C14.7638 24.289 12.9995 27.9088 12.2148 31.7935C12.0538 32.5915 11.9488 33.4035 11.8088 34.2575Z" fill="white"/>
<path id="Vector_6" d="M10.7313 35.3361C12.4253 35.3361 14.1263 35.3361 15.8203 35.3361C16.0492 35.3027 16.2828 35.3406 16.4894 35.4445C16.696 35.5485 16.8657 35.7135 16.9753 35.9171C17.0704 36.1279 17.0993 36.3626 17.058 36.5901C17.0167 36.8176 16.9073 37.0272 16.7443 37.1911C15.0363 39.3961 13.3423 41.6081 11.6273 43.8201C10.9833 44.6531 10.2833 44.6321 9.63929 43.7781L4.73929 37.2331C4.56245 37.0694 4.44159 36.8543 4.39385 36.6181C4.34611 36.3819 4.3739 36.1366 4.47329 35.9171C4.59093 35.7075 4.77032 35.5393 4.98702 35.4353C5.20372 35.3314 5.44719 35.2967 5.68429 35.3361H10.7313Z" fill="white"/>
<path id="Vector_7" d="M31.3389 49.9518L36.1899 45.0938C37.7999 46.6828 39.4099 48.2998 41.0129 49.9308C41.1219 50.0227 41.2095 50.1374 41.2696 50.2668C41.3297 50.3962 41.3609 50.5371 41.3609 50.6798C41.3609 50.8224 41.3297 50.9633 41.2696 51.0927C41.2095 51.2221 41.1219 51.3368 41.0129 51.4288C39.9115 52.5534 38.7962 53.6641 37.6669 54.7608C37.5729 54.8667 37.4576 54.9515 37.3285 55.0096C37.1994 55.0676 37.0594 55.0977 36.9179 55.0977C36.7763 55.0977 36.6363 55.0676 36.5072 55.0096C36.3781 54.9515 36.2628 54.8667 36.1689 54.7608C34.5379 53.1508 32.9349 51.5408 31.3389 49.9518Z" fill="white"/>
<path id="Vector_8" d="M13.9094 7.6997H5.50935C5.22718 7.73117 4.94406 7.6493 4.72223 7.47209C4.5004 7.29489 4.358 7.03685 4.32635 6.7547C4.30753 6.60454 4.32206 6.45208 4.3689 6.30818C4.41575 6.16428 4.49376 6.03248 4.59737 5.92218C4.70099 5.81188 4.82766 5.72579 4.96835 5.67005C5.10905 5.61431 5.26031 5.59029 5.41135 5.5997C6.46835 5.5997 7.51135 5.5997 8.58235 5.5997H21.8824C22.0829 5.58916 22.2838 5.58916 22.4844 5.5997C22.7417 5.62098 22.9816 5.73825 23.1566 5.92822C23.3315 6.11819 23.4286 6.36698 23.4286 6.6252C23.4286 6.88343 23.3315 7.13222 23.1566 7.32219C22.9816 7.51216 22.7417 7.62942 22.4844 7.6507C22.1134 7.6507 21.7284 7.6507 21.3504 7.6507L13.9094 7.6997Z" fill="white"/>
<path id="Vector_9" d="M43.7426 30.3174L38.0166 24.5634C38.5976 23.9964 39.2066 23.3734 39.8576 22.7854C39.9446 22.6937 40.0493 22.6207 40.1655 22.5708C40.2816 22.5209 40.4067 22.4951 40.5331 22.4951C40.6595 22.4951 40.7846 22.5209 40.9007 22.5708C41.0169 22.6207 41.1216 22.6937 41.2086 22.7854C42.6739 24.1854 44.1159 25.6251 45.5346 27.1044C45.6286 27.1952 45.7034 27.3039 45.7544 27.4242C45.8055 27.5445 45.8318 27.6738 45.8318 27.8044C45.8318 27.9351 45.8055 28.0644 45.7544 28.1847C45.7034 28.3049 45.6286 28.4137 45.5346 28.5044C44.9466 29.1414 44.3236 29.7364 43.7426 30.3174Z" fill="white"/>
<path id="Vector_10" d="M10.7866 12.7823H5.76759C5.54686 12.7883 5.32614 12.7695 5.10959 12.7263C4.89342 12.6721 4.70086 12.5488 4.56127 12.3751C4.42168 12.2014 4.34269 11.9868 4.33635 11.764C4.33001 11.5412 4.39666 11.3225 4.52614 11.1411C4.65562 10.9597 4.84085 10.8256 5.05359 10.7593C5.26564 10.7018 5.48499 10.6759 5.70459 10.6823H15.9876C16.2068 10.674 16.4261 10.6976 16.6386 10.7523C16.8605 10.8141 17.0529 10.9532 17.1813 11.1445C17.3096 11.3357 17.3654 11.5665 17.3386 11.7953C17.3402 12.0173 17.263 12.2327 17.1208 12.4032C16.9785 12.5737 16.7803 12.6882 16.5616 12.7263C16.3474 12.7695 16.129 12.7883 15.9106 12.7823H10.7866Z" fill="white"/>
<path id="Vector_11" d="M58.7161 12.4465C58.7161 12.9295 58.7161 13.3075 58.7161 13.6855C58.7039 13.9531 58.5912 14.2064 58.4004 14.3945C58.2097 14.5827 57.955 14.6919 57.6871 14.7005C57.4154 14.7005 57.1548 14.593 56.962 14.4016C56.7692 14.2101 56.66 13.9502 56.6581 13.6785C56.6581 13.2865 56.6581 12.8875 56.6581 12.4185C56.2381 12.4185 55.8811 12.4185 55.5311 12.4185C55.3867 12.433 55.2408 12.4175 55.1025 12.3731C54.9643 12.3287 54.8367 12.2563 54.7277 12.1604C54.6186 12.0646 54.5305 11.9472 54.4688 11.8158C54.4072 11.6844 54.3732 11.5416 54.3691 11.3965C54.3691 10.7665 54.8031 10.3535 55.5381 10.3255C55.8741 10.3255 56.2381 10.3255 56.6511 10.3255C56.6511 9.93348 56.6511 9.58348 56.6511 9.23348C56.6511 8.49848 57.0991 8.02948 57.7081 8.05048C57.8533 8.05736 57.9956 8.09372 58.1262 8.15733C58.2569 8.22095 58.3732 8.31049 58.4682 8.4205C58.5631 8.53052 58.6347 8.65871 58.6786 8.79728C58.7224 8.93584 58.7376 9.08187 58.7231 9.22648C58.7231 9.56248 58.7231 9.92648 58.7231 10.3325C59.1221 10.3325 59.4931 10.3325 59.8641 10.3325C60.1426 10.3325 60.4097 10.4431 60.6066 10.64C60.8035 10.8369 60.9141 11.104 60.9141 11.3825C60.9141 11.661 60.8035 11.928 60.6066 12.1249C60.4097 12.3219 60.1426 12.4325 59.8641 12.4325C59.5001 12.4605 59.1361 12.4465 58.7161 12.4465Z" fill="white"/>
<path id="Vector_12" d="M57.4626 58.1001C57.4626 57.6311 57.4626 57.2531 57.4626 56.8751C57.4586 56.7349 57.4836 56.5955 57.5358 56.4654C57.5881 56.3352 57.6665 56.2173 57.7663 56.1188C57.8661 56.0203 57.9851 55.9434 58.1159 55.8929C58.2467 55.8424 58.3865 55.8193 58.5266 55.8251C58.667 55.8286 58.8052 55.8603 58.9331 55.9182C59.061 55.9761 59.176 56.059 59.2713 56.1622C59.3666 56.2653 59.4402 56.3865 59.4878 56.5185C59.5355 56.6506 59.5561 56.7909 59.5486 56.9311C59.5486 57.2881 59.5486 57.6311 59.5486 58.1001C59.9476 58.1001 60.3186 58.1001 60.6896 58.1001C60.8348 58.0831 60.982 58.0971 61.1214 58.1411C61.2608 58.185 61.3894 58.258 61.4986 58.3552C61.6078 58.4524 61.6952 58.5716 61.755 58.705C61.8149 58.8384 61.8458 58.9829 61.8458 59.1291C61.8458 59.2753 61.8149 59.4198 61.755 59.5532C61.6952 59.6866 61.6078 59.8058 61.4986 59.903C61.3894 60.0002 61.2608 60.0732 61.1214 60.1171C60.982 60.1611 60.8348 60.1751 60.6896 60.1581C60.3326 60.1581 59.9896 60.1581 59.5626 60.1581C59.5626 60.5991 59.5626 60.9701 59.5626 61.3411C59.5712 61.4814 59.551 61.622 59.5031 61.7543C59.4553 61.8865 59.3808 62.0075 59.2844 62.1098C59.188 62.2121 59.0716 62.2936 58.9425 62.3492C58.8134 62.4048 58.6742 62.4334 58.5336 62.4331C58.3929 62.4401 58.2524 62.4176 58.1209 62.367C57.9895 62.3163 57.8702 62.2387 57.7706 62.1391C57.671 62.0395 57.5934 61.9202 57.5427 61.7888C57.4921 61.6573 57.4696 61.5168 57.4766 61.3761C57.4766 60.9981 57.4766 60.6271 57.4766 60.1581C57.0496 60.1581 56.6786 60.1581 56.3076 60.1581C56.1624 60.1751 56.0152 60.1611 55.8758 60.1171C55.7364 60.0732 55.6078 60.0002 55.4986 59.903C55.3894 59.8058 55.302 59.6866 55.2422 59.5532C55.1823 59.4198 55.1514 59.2753 55.1514 59.1291C55.1514 58.9829 55.1823 58.8384 55.2422 58.705C55.302 58.5716 55.3894 58.4524 55.4986 58.3552C55.6078 58.258 55.7364 58.185 55.8758 58.1411C56.0152 58.0971 56.1624 58.0831 56.3076 58.1001C56.6996 58.1001 57.0146 58.1001 57.4626 58.1001Z" fill="white"/>
<path id="Vector_13" d="M9.59726 56.2031C9.59726 55.7621 9.59726 55.3841 9.59726 55.0131C9.58669 54.8713 9.60542 54.7288 9.65229 54.5946C9.69916 54.4603 9.77316 54.3372 9.86969 54.2328C9.96621 54.1284 10.0832 54.0449 10.2134 53.9877C10.3435 53.9305 10.4841 53.9006 10.6263 53.9001C10.7664 53.895 10.906 53.9192 11.0363 53.9711C11.1665 54.0231 11.2845 54.1017 11.3827 54.2018C11.4808 54.3019 11.557 54.4214 11.6064 54.5527C11.6557 54.684 11.6771 54.8241 11.6693 54.9641C11.6693 55.3351 11.6693 55.7131 11.6693 56.1821C12.1103 56.1821 12.5023 56.1821 12.8873 56.1821C13.0276 56.1752 13.1679 56.1976 13.2991 56.2477C13.4304 56.2978 13.5498 56.3747 13.6499 56.4734C13.7499 56.5721 13.8283 56.6905 13.8802 56.8211C13.9321 56.9517 13.9563 57.0916 13.9513 57.2321C13.9504 57.3663 13.9227 57.4989 13.8699 57.6222C13.8171 57.7456 13.7402 57.8571 13.6437 57.9504C13.5472 58.0436 13.4331 58.1166 13.308 58.1652C13.1829 58.2137 13.0494 58.2368 12.9153 58.2331C12.7123 58.2331 12.5163 58.2331 12.3133 58.2331H11.6693C11.6693 58.5901 11.6693 58.9331 11.6693 59.2481C11.6693 60.0741 11.3053 60.5081 10.6473 60.5151C9.98926 60.5221 9.60426 60.0601 9.59726 59.2621C9.59726 58.9471 9.59726 58.6321 9.59726 58.2331C9.16326 58.2331 8.77126 58.2331 8.38626 58.2331C8.24447 58.2448 8.10178 58.227 7.96722 58.1808C7.83266 58.1346 7.70914 58.0609 7.60447 57.9646C7.4998 57.8682 7.41626 57.7512 7.35911 57.6209C7.30197 57.4906 7.27246 57.3499 7.27246 57.2076C7.27246 57.0653 7.30197 56.9246 7.35911 56.7943C7.41626 56.664 7.4998 56.5469 7.60447 56.4506C7.70914 56.3542 7.83266 56.2806 7.96722 56.2344C8.10178 56.1882 8.24447 56.1704 8.38626 56.1821C8.74326 56.1891 9.10026 56.2031 9.59726 56.2031Z" fill="white"/>
</g>
</svg>
