<?xml version="1.0" encoding="UTF-8"?>
<svg id="Layer_1" xmlns="http://www.w3.org/2000/svg" viewBox="0 0 100 100">
  <defs>
    <style>
      .cls-1 {
        fill: #fff;
      }
    </style>
  </defs>
  <path class="cls-1" d="M45.57,72.29v-1c0-6.91,0-13.82,0-20.74,0-1.52.46-1.97,1.99-1.98,2.65,0,5.31,0,7.96,0,1.4,0,1.9.49,1.9,1.88,0,6.94,0,13.89,0,20.83v.95h2.96v-1.01c0-10.8,0-21.6,0-32.4,0-1.7.42-2.11,2.14-2.11,2.59,0,5.18,0,7.78,0,1.46,0,1.94.48,1.94,1.94,0,10.83,0,21.66,0,32.49v1.07h2.88c.18-.28.08-.63.08-.95,0-14.75,0-29.5,0-44.25,0-1.76.4-2.15,2.19-2.15,2.56,0,5.12,0,7.68,0,1.52,0,1.98.46,1.98,1.99,0,14.78,0,29.56,0,44.34v1.08c.48,0,.91-.01,1.33,0,1.01.03,1.64.62,1.63,1.5-.01.88-.64,1.43-1.67,1.46-.15,0-.31,0-.46,0-14.38,0-28.76,0-43.14,0-.22,0-.43.01-.65,0-.88-.06-1.47-.65-1.48-1.46,0-.82.57-1.43,1.45-1.49.46-.03.92,0,1.51,0Z"/>
  <path class="cls-1" d="M12.98,55.84c2.84,1.76,5.87,1.66,8.89,1.64,3.91-.03,7.83,0,11.72,0,.22.29.12.57.12.84,0,8.92,0,17.84,0,26.76,0,1.59-.45,2.04-2.03,2.04-1.6,0-3.21,0-4.81,0-1.6,0-2.05-.44-2.05-2.01,0-6.63,0-13.27,0-19.9,0-1.19-.64-1.86-1.63-1.76-.83.09-1.32.65-1.33,1.59-.01,2.16,0,4.32,0,6.48,0,4.54,0,9.07,0,13.61,0,1.53-.46,1.99-1.98,2-1.76,0-3.52.01-5.28,0-1.05-.01-1.63-.56-1.63-1.59-.01-9.81,0-19.63,0-29.67Z"/>
  <path class="cls-1" d="M36.68,36.91c-2.18,0-4.28.03-6.37-.01-.97-.02-1.55.39-1.92,1.26-.72,1.66-1.47,3.3-2.24,5.01-1.39-.52-2.79-.57-4.28-.49,0-1.43,0-2.78,0-4.13,0-1.18-.55-1.81-1.51-1.79-.93.02-1.45.63-1.45,1.76,0,2.34,0,4.68,0,7.12,1.52,0,2.99-.05,4.46,0,3.47.13,5.42,3.46,3.85,6.54-.66,1.3-1.73,2.19-3.17,2.26-2.24.12-4.51.26-6.74-.11-4.01-.66-7.2-4.33-7.27-8.4-.06-3.58-.04-7.16-.01-10.74.02-2.46,1.96-4.38,4.44-4.39,5.92-.02,11.85-.02,17.77,0,2.49,0,4.38,1.91,4.45,4.38.01.49,0,.98,0,1.71Z"/>
  <path class="cls-1" d="M23.31,27.84c-4.07-.02-7.38-3.36-7.37-7.44.02-4.07,3.36-7.38,7.44-7.37,4.08.02,7.38,3.36,7.37,7.44-.02,4.07-3.36,7.38-7.44,7.37Z"/>
  <path class="cls-1" d="M29.35,54.51c1.97-3.32,1.93-6.41-.48-9.35-.19-.23-.19-.42-.08-.67.64-1.4,1.29-2.79,1.89-4.21.16-.37.38-.41.71-.41,3.18-.05,6.35-.13,9.53-.16,1.37-.02,2.06,1.03,1.46,2.25-1.92,3.89-3.87,7.76-5.82,11.64-.3.6-.79.92-1.48.92-1.88,0-3.76,0-5.74,0Z"/>
</svg>