<svg width="70" height="70" viewBox="0 0 70 70" fill="none" xmlns="http://www.w3.org/2000/svg">
<g id="Search Engine Optimization (SEO) 1">
<path id="Vector" d="M5.50879 15.9814H64.4488C64.4488 16.2824 64.4908 16.5694 64.4908 16.8494V56.8194C64.4908 58.3664 64.0778 58.7724 62.5378 58.7724H51.7998C51.7998 58.4364 51.7438 58.1494 51.7438 57.8624C51.6831 54.8664 51.6248 51.8658 51.5688 48.8604C51.5688 47.6634 51.4568 47.5724 50.2878 47.5514C49.9448 47.5514 49.5878 47.5514 49.2028 47.5514V45.0874C53.5218 44.8354 56.9798 42.9874 59.2688 39.2144C60.7863 36.7412 61.3185 33.7878 60.7598 30.9404C60.2415 27.8296 58.6134 25.0119 56.177 23.0093C53.7407 21.0067 50.6612 19.9548 47.5088 20.0484C44.5361 20.1378 41.7046 21.3371 39.572 23.4101C37.4394 25.4831 36.1604 28.2795 35.9868 31.2484C35.4478 37.6884 40.2428 44.2054 47.7398 45.0944V47.5304H46.1298C45.1498 47.5304 45.0238 47.6424 45.0448 48.6504C45.1008 51.7584 45.1591 54.8664 45.2198 57.9744C45.2198 58.2124 45.2198 58.4504 45.2198 58.8004H7.41979C5.92179 58.8004 5.52279 58.3944 5.52279 56.8825V15.9814H5.50879ZM21.0348 20.0414H10.5768C9.42179 20.0414 9.31679 20.1394 9.31679 21.2594C9.31679 27.6714 9.31679 34.0811 9.31679 40.4884C9.31679 41.5944 9.43579 41.7134 10.5838 41.7134H31.4998C32.5778 41.7134 32.7178 41.5734 32.7178 40.5234V21.2174C32.7178 20.1604 32.5918 20.0414 31.4928 20.0414H21.0348ZM23.7998 46.9004C21.2238 46.9004 18.6548 46.9004 16.0998 46.9004C15.8662 46.8626 15.6272 46.877 15.3998 46.9424C15.1758 47.0684 14.8818 47.3484 14.8958 47.5444C14.9098 47.7404 15.1828 48.0484 15.4068 48.2444C15.6308 48.4404 15.7638 48.2864 15.9528 48.2864C21.1748 48.2864 26.3968 48.2864 31.6188 48.2864C31.8561 48.3164 32.0971 48.2851 32.3188 48.1954C32.4254 48.1315 32.5169 48.0452 32.587 47.9424C32.6571 47.8397 32.7041 47.7231 32.7248 47.6004C32.7064 47.477 32.6604 47.3594 32.5901 47.2564C32.5197 47.1533 32.427 47.0675 32.3188 47.0054C32.0586 46.9037 31.7773 46.8676 31.4998 46.9004C28.9098 46.9004 26.3408 46.9004 23.7998 46.9004ZM23.7998 51.5134H16.0438C15.8102 51.4754 15.5711 51.4897 15.3438 51.5554C15.1268 51.6744 14.8538 51.9474 14.8538 52.1574C14.8785 52.2895 14.9313 52.4147 15.0086 52.5246C15.0859 52.6345 15.1859 52.7265 15.3018 52.7944C15.4838 52.9064 15.7708 52.8434 16.0018 52.8434C21.1678 52.8434 26.3338 52.8434 31.4998 52.8434C31.7378 52.8434 32.0318 52.9064 32.1998 52.7944C32.3181 52.7295 32.4208 52.6395 32.5006 52.5307C32.5805 52.4218 32.6355 52.2968 32.6618 52.1644C32.6618 51.9474 32.3888 51.6814 32.1648 51.5554C31.9371 51.4919 31.6985 51.4776 31.4648 51.5134H23.7998ZM11.0388 48.3004C11.3821 48.3533 11.7315 48.3533 12.0748 48.3004C12.3478 48.2024 12.5438 47.8874 12.7748 47.6704C12.5368 47.4324 12.3268 47.0264 12.0748 46.9704C11.3783 46.8711 10.6713 46.8711 9.97479 46.9704C9.82659 47.0174 9.69316 47.1021 9.58762 47.2163C9.48207 47.3304 9.40804 47.47 9.37279 47.6214C9.37279 47.8454 9.72979 48.1674 9.99579 48.2654C10.3392 48.3344 10.6916 48.3462 11.0388 48.3004ZM10.9968 52.8504C11.394 52.9032 11.7965 52.9032 12.1938 52.8504C12.3279 52.7961 12.4466 52.7095 12.5394 52.5984C12.6322 52.4873 12.6962 52.3551 12.7258 52.2134C12.6968 52.0738 12.6318 51.9441 12.5372 51.8373C12.4427 51.7305 12.3219 51.6502 12.1868 51.6044C11.4423 51.5239 10.6913 51.5239 9.94679 51.6044C9.72279 51.6044 9.35179 52.0174 9.37979 52.1854C9.41773 52.3393 9.49046 52.4825 9.5924 52.6038C9.69434 52.7252 9.82276 52.8215 9.96779 52.8854C10.311 52.9295 10.6593 52.9129 10.9968 52.8364V52.8504Z" fill="white"/>
<path id="Vector_2" d="M5.50879 14.5113C5.50879 11.9073 5.50879 9.36625 5.50879 6.81125C5.5106 6.64183 5.546 6.47445 5.61295 6.3188C5.6799 6.16315 5.77705 6.02233 5.8988 5.9045C6.02054 5.78666 6.16446 5.69414 6.3222 5.6323C6.47995 5.57047 6.6484 5.54054 6.81779 5.54425C7.05579 5.54425 7.30079 5.54425 7.51779 5.54425H62.4538C64.1268 5.54425 64.4908 5.90125 64.4908 7.56025C64.4908 9.81425 64.4908 12.0613 64.4908 14.3153C64.4748 14.3862 64.4489 14.4546 64.4138 14.5183L5.50879 14.5113ZM48.4258 10.6823C51.6178 10.6823 54.8028 10.6823 57.9948 10.6823C58.5548 10.6823 59.3528 10.8783 59.3388 9.98225C59.3248 9.08625 58.5688 9.33125 58.0298 9.33125H38.8148C38.6048 9.33125 38.3388 9.26825 38.1848 9.36625C38.0308 9.46425 37.5688 9.81425 37.5758 10.0243C37.5828 10.2343 37.9608 10.5073 38.2268 10.6613C38.4928 10.8153 38.6468 10.6613 38.8568 10.6613L48.4258 10.6823ZM14.4198 9.98225C14.417 9.51533 14.2764 9.05962 14.0158 8.67218C13.7552 8.28474 13.3861 7.9828 12.9547 7.80416C12.5233 7.62552 12.0488 7.57812 11.5905 7.66791C11.1323 7.75769 10.7108 7.98067 10.3787 8.30891C10.0466 8.63715 9.81872 9.05607 9.72359 9.51321C9.62847 9.97035 9.67033 10.4454 9.84393 10.8789C10.0175 11.3123 10.3151 11.6849 10.6995 11.95C11.0839 12.2152 11.5379 12.361 12.0048 12.3693C12.6385 12.3749 13.2486 12.1289 13.7013 11.6854C14.154 11.2419 14.4124 10.637 14.4198 10.0033V9.98225ZM19.3198 7.60925C18.6971 7.60547 18.098 7.84734 17.6524 8.2824C17.2069 8.71746 16.9508 9.31063 16.9398 9.93325C16.9301 10.4043 17.0608 10.8675 17.3152 11.264C17.5697 11.6604 17.9364 11.9722 18.3686 12.1595C18.8009 12.3469 19.2791 12.4013 19.7424 12.3159C20.2057 12.2305 20.6331 12.0092 20.9702 11.6801C21.3072 11.3509 21.5387 10.9289 21.6351 10.4678C21.7315 10.0067 21.6884 9.52726 21.5114 9.09068C21.3344 8.65409 21.0315 8.28006 20.6412 8.01624C20.2509 7.75242 19.7909 7.61074 19.3198 7.60925ZM26.5158 7.60925C26.2009 7.61281 25.8898 7.67921 25.6009 7.80456C25.3119 7.92991 25.0509 8.11168 24.8332 8.33922C24.6154 8.56676 24.4453 8.83549 24.3327 9.12965C24.2202 9.4238 24.1675 9.73747 24.1778 10.0523C24.2178 10.6587 24.489 11.2266 24.9355 11.639C25.3819 12.0513 25.9695 12.2767 26.5772 12.2686C27.1849 12.2606 27.7663 12.0196 28.2016 11.5955C28.6369 11.1715 28.8929 10.5965 28.9168 9.98925C28.916 9.67376 28.8521 9.36162 28.7288 9.07119C28.6056 8.78077 28.4255 8.51792 28.1992 8.29812C27.9729 8.07832 27.7049 7.906 27.411 7.79131C27.117 7.67661 26.8032 7.62185 26.4878 7.63025L26.5158 7.60925Z" fill="white"/>
<path id="Vector_3" d="M47.9986 21.4198C51.0722 21.4419 54.0127 22.6765 56.1808 24.8551C58.349 27.0337 59.5693 29.9802 59.5766 33.0538C59.5861 34.4572 59.3155 35.8483 58.7809 37.1459C58.2463 38.4435 57.4583 39.6215 56.463 40.6109C55.4677 41.6003 54.2851 42.3813 52.9844 42.9083C51.6837 43.4352 50.2909 43.6975 48.8876 43.6798C45.8141 43.6558 42.8743 42.4194 40.7075 40.2395C38.5407 38.0596 37.3221 35.1124 37.3166 32.0388C37.3072 30.6363 37.5776 29.2461 38.1118 27.9493C38.6461 26.6526 39.4336 25.4754 40.4282 24.4866C41.4229 23.4979 42.6047 22.7174 43.9046 22.1908C45.2044 21.6642 46.5963 21.4021 47.9986 21.4198ZM39.4306 32.1998C39.4359 34.6666 40.4105 37.0325 42.1443 38.7872C43.8781 40.5419 46.2321 41.5449 48.6986 41.5798C49.8479 41.5985 50.9894 41.3874 52.056 40.9589C53.1226 40.5304 54.0929 39.8932 54.9099 39.0847C55.7269 38.2762 56.3742 37.3126 56.8138 36.2505C57.2533 35.1884 57.4763 34.0492 57.4696 32.8998C57.4644 30.4391 56.4932 28.0788 54.7651 26.3271C53.0369 24.5754 50.69 23.5723 48.2296 23.5338C47.0774 23.5046 45.9311 23.7078 44.8591 24.1313C43.7871 24.5547 42.8114 25.1898 41.9902 25.9986C41.169 26.8074 40.5191 27.7733 40.0794 28.8387C39.6396 29.9042 39.419 31.0472 39.4306 32.1998Z" fill="white"/>
<path id="Vector_4" d="M50.3088 62.8603H46.6338V53.2773H50.3088V62.8603Z" fill="white"/>
<path id="Vector_5" d="M46.4873 48.9297H50.1833V51.8347H46.4873V48.9297Z" fill="white"/>
<path id="Vector_6" d="M50.4627 64.2949C50.5747 65.3939 50.6307 66.3949 49.6367 66.9829C49.3396 67.1708 48.9936 67.2664 48.6422 67.2576C48.2909 67.2489 47.95 67.1363 47.6627 66.9339C46.6827 66.3179 46.6267 65.3449 46.7247 64.2949H50.4627Z" fill="white"/>
<path id="Vector_7" d="M12.7678 40.2917H10.7168V21.4688H31.3248V40.2567H29.2248V26.0747C29.2248 24.9197 29.1198 24.8218 27.9998 24.8148H26.0118C24.8848 24.8148 24.8078 24.8987 24.8078 25.9977C24.8078 30.4497 24.8078 34.8994 24.8078 39.3467V40.2778H23.2258V39.4167C23.2258 36.3834 23.2258 33.3501 23.2258 30.3168C23.2258 29.3508 23.0788 29.2037 22.1058 29.1967H19.9358C18.9628 29.1967 18.8088 29.3507 18.8088 30.3097C18.8088 33.3104 18.8088 36.3134 18.8088 39.3187V40.2567H17.2408V37.6388C17.2408 36.2948 17.2408 34.9578 17.2408 33.6138C17.2408 32.9137 16.9958 32.5147 16.2118 32.5497C15.4278 32.5848 14.6018 32.5497 13.7968 32.5497C12.9918 32.5497 12.7538 32.8997 12.7608 33.5997C12.7608 35.5037 12.7608 37.4008 12.7608 39.3048L12.7678 40.2917Z" fill="white"/>
<path id="Vector_8" d="M26.1865 40.2777V26.2217H27.8105V40.2777H26.1865Z" fill="white"/>
<path id="Vector_9" d="M21.8473 40.2848H20.1953V30.6318H21.8473V40.2848Z" fill="white"/>
<path id="Vector_10" d="M14.2031 33.9287H15.8061V40.2637H14.2031V33.9287Z" fill="white"/>
<path id="Vector_11" d="M12.0116 11.0182C11.7424 11.0056 11.4885 10.8891 11.3031 10.6934C11.1178 10.4976 11.0155 10.2378 11.0176 9.96821C11.0303 9.69646 11.1501 9.44081 11.3508 9.25716C11.5515 9.07351 11.8168 8.97681 12.0886 8.98821C12.2238 8.9877 12.3576 9.01537 12.4814 9.06943C12.6053 9.1235 12.7166 9.20278 12.8081 9.30222C12.8997 9.40167 12.9695 9.51909 13.0131 9.64702C13.0568 9.77494 13.0733 9.91055 13.0616 10.0452C13.059 10.1788 13.0295 10.3105 12.9748 10.4325C12.9201 10.5544 12.8414 10.6641 12.7434 10.7549C12.6454 10.8457 12.5301 10.9159 12.4043 10.9611C12.2786 11.0063 12.145 11.0258 12.0116 11.0182Z" fill="white"/>
<path id="Vector_12" d="M20.3004 10.0455C20.2969 10.1791 20.2665 10.3107 20.211 10.4323C20.1555 10.5539 20.076 10.6631 19.9773 10.7532C19.8786 10.8434 19.7628 10.9128 19.6367 10.9571C19.5106 11.0015 19.3768 11.02 19.2434 11.0115C19.1095 11.0097 18.9773 10.9814 18.8544 10.9282C18.7315 10.8751 18.6203 10.7981 18.5273 10.7018C18.4342 10.6055 18.3611 10.4918 18.3122 10.3671C18.2634 10.2425 18.2396 10.1094 18.2424 9.97548C18.2551 9.70622 18.3715 9.45232 18.5672 9.26701C18.763 9.0817 19.0229 8.97937 19.2924 8.98148C19.4288 8.98418 19.5632 9.01396 19.6879 9.06909C19.8127 9.12421 19.9252 9.20358 20.019 9.30259C20.1128 9.40159 20.186 9.51825 20.2343 9.64578C20.2826 9.77332 20.3051 9.90918 20.3004 10.0455Z" fill="white"/>
<path id="Vector_13" d="M26.4248 11.0176C26.1667 11.0031 25.9246 10.888 25.7505 10.6969C25.5764 10.5058 25.4843 10.254 25.4938 9.99563C25.4993 9.72507 25.6096 9.46722 25.8016 9.27652C25.9936 9.08582 26.2523 8.97721 26.5228 8.97363C26.7929 8.98421 27.0488 9.09718 27.2387 9.28959C27.4285 9.482 27.5379 9.73944 27.5448 10.0096C27.5405 10.1504 27.5077 10.2888 27.4485 10.4165C27.3892 10.5442 27.3047 10.6586 27.2001 10.7528C27.0954 10.847 26.9728 10.919 26.8395 10.9645C26.7063 11.01 26.5652 11.0281 26.4248 11.0176Z" fill="white"/>
<path id="Vector_14" d="M40.7609 32.2423C40.7553 31.2759 40.9408 30.3181 41.3065 29.4236C41.6723 28.5292 42.2111 27.7158 42.8922 27.0302C43.5732 26.3447 44.3829 25.8004 45.2749 25.4287C46.1669 25.057 47.1235 24.8652 48.0899 24.8643C50.2006 24.8839 52.2206 25.7254 53.721 27.2101C55.2214 28.6948 56.0841 30.7058 56.1259 32.8163C56.138 33.7893 55.9562 34.755 55.5911 35.657C55.226 36.5591 54.6849 37.3794 53.9994 38.0701C53.3139 38.7608 52.4978 39.308 51.5985 39.6799C50.6993 40.0519 49.735 40.241 48.7619 40.2363C46.6506 40.2056 44.6344 39.3537 43.1407 37.8613C41.647 36.369 40.7934 34.3535 40.7609 32.2423ZM51.6179 32.1093C51.9609 32.2633 52.3879 32.6133 52.6049 32.5153C53.5919 32.0533 52.9829 31.1153 53.1159 30.3663C53.1457 30.2601 53.1501 30.1483 53.1285 30.0401C53.107 29.932 53.0602 29.8304 52.992 29.7437C52.9237 29.6571 52.836 29.5877 52.7359 29.5414C52.6357 29.4951 52.5261 29.4731 52.4159 29.4773C51.8032 29.4283 51.1876 29.4283 50.5749 29.4773C50.4418 29.5052 50.3175 29.565 50.2126 29.6516C50.1078 29.7381 50.0255 29.8489 49.9729 29.9743C49.9239 30.1843 50.1549 30.4713 50.3089 30.6743C50.3719 30.7653 50.5399 30.7933 50.7149 30.8773L48.8809 32.5923C48.6359 32.3753 48.3349 32.1513 48.0829 31.8923C47.5369 31.3113 47.0609 31.3673 46.5219 31.9273C45.7659 32.7253 44.9539 33.4673 44.1629 34.2233C43.8059 34.5663 43.5189 34.9233 43.9529 35.3923C44.3869 35.8613 44.7719 35.5183 45.1219 35.1823C45.8219 34.4823 46.5779 33.7823 47.3409 33.0823L48.1739 33.8173C48.9439 34.5173 49.0979 34.5173 49.8259 33.7753C50.4629 33.1943 51.0999 32.6133 51.6179 32.1093Z" fill="white"/>
</g>
</svg>
