<svg width="50" height="50" viewBox="0 0 50 50" fill="none" xmlns="http://www.w3.org/2000/svg">
<g id="seo 1" clip-path="url(#clip0_1426_4498)">
<path id="Vector" d="M-0.0542603 13.0615H50.0145V13.6218C50.0145 23.9788 50.0145 34.3376 50.0145 44.6983C50.0145 47.5556 48.1153 49.4436 45.2412 49.4436H4.747C1.84496 49.4436 -0.0374529 47.5556 -0.0374529 44.6479V13.0615H-0.0542603ZM24.9493 40.4181H41.4876C43.8406 40.4181 45.3365 38.9335 45.3365 36.5916C45.3365 32.4347 45.3365 28.2795 45.3365 24.1263C45.3365 21.7733 43.8518 20.3054 41.4932 20.3054H8.47261C6.11399 20.3054 4.62935 21.7789 4.62375 24.1263C4.62375 28.2833 4.62375 32.4365 4.62375 36.586C4.61877 36.922 4.64503 37.2577 4.70219 37.5889C4.87865 38.4164 5.34211 39.1549 6.01059 39.6737C6.67907 40.1925 7.50949 40.4582 8.35496 40.4237C13.8901 40.4274 19.4216 40.4256 24.9493 40.4181Z" fill="white"/>
<path id="Vector_2" d="M50.0144 11.2296H-0.0543074V10.6694C-0.0543074 8.67492 -0.0543074 6.68047 -0.0543074 4.69161C-0.0771214 4.07509 0.0275925 3.4605 0.253278 2.88632C0.478963 2.31214 0.820759 1.79074 1.25726 1.35476C1.69377 0.918782 2.21558 0.577615 2.79004 0.352622C3.36449 0.12763 3.9792 0.0236568 4.59569 0.0472141H45.3868C45.9981 0.0270977 46.607 0.132287 47.176 0.356308C47.7451 0.580328 48.2623 0.91844 48.6958 1.34983C49.1293 1.78122 49.4699 2.29677 49.6967 2.86473C49.9234 3.4327 50.0316 4.04107 50.0144 4.6524C50.0144 6.68607 50.0144 8.71414 50.0144 10.7478V11.2296ZM11.5595 5.62721C11.5562 6.16017 11.711 6.68214 12.0043 7.12713C12.2977 7.57211 12.7164 7.92011 13.2075 8.12713C13.6986 8.33415 14.2401 8.39089 14.7634 8.29017C15.2868 8.18946 15.7685 7.93581 16.1478 7.5613C16.527 7.18679 16.7866 6.70825 16.8938 6.18618C17.0011 5.66411 16.9511 5.12196 16.7502 4.6283C16.5493 4.13464 16.2066 3.71163 15.7653 3.41276C15.324 3.1139 14.804 2.9526 14.2711 2.94926C13.5538 2.9522 12.8666 3.23806 12.3589 3.74473C11.8512 4.2514 11.5639 4.93796 11.5595 5.65523V5.62721ZM21.4197 2.92125C20.8798 2.91133 20.349 3.06188 19.8946 3.35384C19.4403 3.6458 19.0828 4.06603 18.8675 4.56132C18.6521 5.0566 18.5886 5.60464 18.685 6.13604C18.7814 6.66744 19.0333 7.15828 19.4089 7.5464C19.7844 7.93452 20.2667 8.20245 20.7946 8.31627C21.3226 8.43008 21.8724 8.38465 22.3745 8.18573C22.8766 7.98682 23.3084 7.64336 23.6151 7.19887C23.9219 6.75438 24.0898 6.22885 24.0977 5.68884C24.1036 5.33262 24.0388 4.97875 23.9071 4.64772C23.7754 4.31669 23.5794 4.01506 23.3303 3.76029C23.0813 3.50551 22.7842 3.30265 22.4562 3.16344C22.1283 3.02423 21.776 2.95144 21.4197 2.94926V2.92125ZM7.10557 2.92125C6.56654 2.91251 6.037 3.06365 5.58379 3.3556C5.13058 3.64756 4.77402 4.06723 4.55912 4.56164C4.34421 5.05606 4.28059 5.60306 4.3763 6.13361C4.472 6.66415 4.72273 7.15445 5.09684 7.54261C5.47095 7.93078 5.95167 8.19942 6.47832 8.31462C7.00497 8.42982 7.55395 8.38641 8.05595 8.18989C8.55796 7.99336 8.99049 7.65251 9.29895 7.21038C9.60742 6.76824 9.77799 6.24464 9.78913 5.70565C9.79656 5.34776 9.73276 4.99196 9.60144 4.65894C9.47012 4.32593 9.27389 4.02235 9.02418 3.76586C8.77447 3.50938 8.47625 3.3051 8.14688 3.16491C7.8175 3.02472 7.46354 2.95141 7.10557 2.94926V2.92125Z" fill="white"/>
<path id="Vector_3" d="M24.9156 38.6301H8.55661C7.07197 38.6301 6.41089 37.969 6.41089 36.4844V24.1983C6.41089 22.7529 7.08318 22.0918 8.5342 22.0918H41.4316C42.877 22.0918 43.5493 22.7585 43.5493 24.1983C43.5493 28.3067 43.5493 32.4152 43.5493 36.5236C43.5493 37.9242 42.8658 38.6077 41.454 38.6077L24.9156 38.6301ZM40.1374 30.4282H40.1766C40.1766 29.5542 40.1766 28.6746 40.1766 27.8063C40.1923 26.6842 39.7707 25.6001 39.0011 24.7834C38.2315 23.9667 37.1743 23.4816 36.0532 23.4308C33.4649 23.3131 31.5321 24.8706 31.3416 27.4421C31.2128 29.3728 31.2128 31.3099 31.3416 33.2406C31.4249 34.3347 31.9121 35.3587 32.7085 36.1135C33.505 36.8683 34.5536 37.2999 35.6507 37.3244C36.7476 37.3488 37.8145 36.9644 38.6438 36.2458C39.4731 35.5273 40.0055 34.526 40.1374 33.4367C40.2019 32.4349 40.2019 31.43 40.1374 30.4282ZM13.5764 23.6437C12.8432 23.6233 12.1212 23.8268 11.5066 24.2272C10.8921 24.6275 10.4141 25.2057 10.1365 25.8846C9.2233 28.1256 10.327 31.1341 13.5932 31.2797C13.8545 31.2897 14.1111 31.3517 14.3481 31.4621C14.5852 31.5725 14.7978 31.729 14.9736 31.9226C15.1494 32.1161 15.2849 32.3428 15.372 32.5893C15.4592 32.8358 15.4963 33.0972 15.4812 33.3582C15.4894 33.8783 15.2906 34.3803 14.9287 34.7538C14.5667 35.1273 14.0712 35.3417 13.5512 35.3499C13.0311 35.3581 12.5291 35.1593 12.1556 34.7974C11.7821 34.4354 11.5677 33.9399 11.5595 33.4199C11.4923 32.7588 11.1337 32.3778 10.6071 32.417C10.0805 32.4563 9.73312 32.9213 9.77794 33.5879C9.85085 34.5349 10.2763 35.42 10.9703 36.0683C11.6643 36.7166 12.5763 37.081 13.5259 37.0894C14.4878 37.1032 15.4166 36.7386 16.1124 36.0743C16.8081 35.41 17.2152 34.499 17.246 33.5375C17.2937 33.0314 17.2369 32.5208 17.0791 32.0376C16.9213 31.5543 16.6658 31.1087 16.3285 30.7283C15.9912 30.3479 15.5793 30.0409 15.1184 29.8264C14.6575 29.6119 14.1574 29.4945 13.6492 29.4814C13.3638 29.4819 13.0815 29.4227 12.8203 29.3075C12.5592 29.1924 12.3251 29.0239 12.133 28.8128C11.9409 28.6017 11.7951 28.3528 11.705 28.082C11.615 27.8111 11.5826 27.5245 11.6099 27.2404C11.6588 26.7446 11.8909 26.2849 12.2608 25.9513C12.6307 25.6176 13.1118 25.434 13.61 25.4364C14.0985 25.4538 14.5629 25.653 14.9122 25.995C15.2615 26.337 15.4704 26.7972 15.498 27.2852C15.5652 27.9575 15.9126 28.3385 16.4336 28.3161C16.9546 28.2937 17.3076 27.8679 17.2796 27.1956C17.2311 26.2432 16.8208 25.3452 16.1325 24.685C15.4443 24.0249 14.53 23.6524 13.5764 23.6437ZM22.3049 31.2517H22.9044C23.8736 31.2517 24.8428 31.2517 25.812 31.2517C25.9403 31.27 26.0711 31.2603 26.1953 31.2232C26.3194 31.1861 26.4341 31.1225 26.5313 31.0368C26.6286 30.9511 26.706 30.8453 26.7584 30.7268C26.8109 30.6082 26.8369 30.4797 26.8349 30.3501C26.8328 30.2206 26.8027 30.093 26.7466 29.9761C26.6904 29.8593 26.6096 29.7561 26.5098 29.6735C26.4099 29.5909 26.2933 29.531 26.168 29.4978C26.0427 29.4646 25.9117 29.459 25.784 29.4814H22.2881V25.9182H27.4367C28.109 25.9182 28.5068 25.5877 28.5236 25.0555C28.5404 24.5232 28.109 24.1367 27.4031 24.1311C25.7224 24.1311 24.0417 24.1311 22.3609 24.1311C22.108 24.1143 21.8543 24.1521 21.6172 24.2418C21.3801 24.3316 21.165 24.4712 20.9865 24.6513C20.8081 24.8314 20.6703 25.0477 20.5827 25.2856C20.495 25.5235 20.4595 25.7775 20.4785 26.0303C20.4785 28.9211 20.4785 31.8082 20.4785 34.6916C20.4595 34.935 20.492 35.1797 20.574 35.4098C20.6559 35.6398 20.7854 35.8499 20.9541 36.0265C21.1227 36.2031 21.3267 36.3421 21.5527 36.4345C21.7787 36.5269 22.0217 36.5707 22.2657 36.5628C23.9969 36.5628 25.728 36.5628 27.4591 36.5628C27.5856 36.5784 27.714 36.5676 27.836 36.5309C27.9581 36.4943 28.0712 36.4326 28.1681 36.3499C28.2651 36.2672 28.3438 36.1652 28.3992 36.0504C28.4546 35.9356 28.4855 35.8106 28.49 35.6832C28.49 35.123 28.0978 34.7869 27.4367 34.7813C26.4507 34.7813 25.4647 34.7813 24.4787 34.7813H22.3385C22.3385 34.6244 22.3049 34.5404 22.3049 34.4507V31.2517Z" fill="white"/>
<path id="Vector_4" d="M14.2375 6.61258C13.9937 6.60526 13.7626 6.50251 13.5939 6.32648C13.4252 6.15044 13.3324 5.91519 13.3355 5.67138C13.3277 5.54504 13.3461 5.41845 13.3896 5.29957C13.4331 5.18068 13.5006 5.07206 13.5881 4.98052C13.6755 4.88897 13.7809 4.81648 13.8977 4.76759C14.0144 4.7187 14.14 4.69446 14.2666 4.6964C14.3932 4.69833 14.518 4.7264 14.6332 4.77884C14.7484 4.83128 14.8515 4.90696 14.9361 5.00113C15.0207 5.0953 15.0849 5.20594 15.1247 5.3261C15.1645 5.44625 15.1791 5.57334 15.1675 5.69939C15.163 5.94312 15.0631 6.17537 14.8892 6.34616C14.7153 6.51695 14.4812 6.61262 14.2375 6.61258Z" fill="white"/>
<path id="Vector_5" d="M22.3217 5.67708C22.3285 5.80337 22.3092 5.92969 22.2649 6.04815C22.2206 6.16661 22.1523 6.27466 22.0644 6.36552C21.9764 6.45638 21.8706 6.5281 21.7537 6.57619C21.6367 6.62428 21.511 6.6477 21.3846 6.645C21.2582 6.64229 21.1336 6.61351 21.0188 6.56046C20.904 6.50741 20.8014 6.43122 20.7174 6.33668C20.6334 6.24214 20.5698 6.13128 20.5307 6.01103C20.4915 5.89078 20.4776 5.76374 20.4898 5.63786C20.5121 5.4072 20.6208 5.19349 20.794 5.03957C20.9672 4.88564 21.1922 4.80287 21.4239 4.80783C21.6556 4.81279 21.8769 4.90512 22.0434 5.06631C22.2099 5.22751 22.3093 5.44567 22.3217 5.67708Z" fill="white"/>
<path id="Vector_6" d="M7.10003 6.61305C6.85533 6.6101 6.62165 6.51082 6.44965 6.33673C6.27766 6.16264 6.18122 5.92777 6.18124 5.68305C6.17731 5.55791 6.19916 5.4333 6.24542 5.31696C6.29169 5.20062 6.36138 5.09503 6.45017 5.00677C6.53897 4.9185 6.64496 4.84943 6.76158 4.80386C6.87819 4.75828 7.00293 4.73718 7.12804 4.74185C7.24894 4.74395 7.36818 4.77034 7.47868 4.81944C7.58917 4.86855 7.68866 4.93937 7.77124 5.0277C7.85382 5.11603 7.91779 5.22005 7.95936 5.3336C8.00093 5.44714 8.01925 5.56789 8.01322 5.68865C8.01324 5.93189 7.91739 6.16533 7.74645 6.33837C7.57551 6.51141 7.34325 6.6101 7.10003 6.61305Z" fill="white"/>
<path id="Vector_7" d="M38.3895 30.3837C38.3895 31.2016 38.3895 32.0196 38.3895 32.8431C38.4015 33.5406 38.1363 34.2143 37.652 34.7163C37.1678 35.2184 36.5042 35.5078 35.8068 35.5211C35.4569 35.5393 35.1069 35.4864 34.778 35.3656C34.4491 35.2448 34.1481 35.0586 33.8931 34.8183C33.6382 34.578 33.4345 34.2885 33.2945 33.9673C33.1545 33.6462 33.081 33.3 33.0784 32.9496C33.0261 31.2353 33.0261 29.5228 33.0784 27.8122C33.0713 27.4537 33.1368 27.0974 33.2709 26.7648C33.405 26.4322 33.6049 26.1302 33.8586 25.8768C34.1124 25.6234 34.4147 25.4239 34.7475 25.2903C35.0802 25.1566 35.4366 25.0917 35.7951 25.0992C36.1536 25.1068 36.5069 25.1867 36.8338 25.3342C37.1606 25.4818 37.4543 25.6938 37.6971 25.9577C37.94 26.2215 38.127 26.5317 38.2469 26.8697C38.3668 27.2076 38.4172 27.5663 38.3951 27.9242C38.3951 28.7422 38.3895 29.5657 38.3895 30.3837Z" fill="white"/>
</g>
<defs>
<clipPath id="clip0_1426_4498">
<rect width="50" height="49.3976" fill="white"/>
</clipPath>
</defs>
</svg>
