<svg width="70" height="70" viewBox="0 0 70 70" fill="none" xmlns="http://www.w3.org/2000/svg">
<g id="Shopping &#38; Feed Management 1">
<path id="Vector" d="M4.96973 36.7566V33.2566C5.06073 32.5566 5.13073 31.7936 5.23573 31.0586C6.09023 24.7232 8.93957 18.8245 13.3709 14.2169C17.8023 9.60937 23.5855 6.53231 29.8827 5.43156C30.9957 5.24256 32.1157 5.12356 33.2357 4.97656H36.7357C36.8827 4.97656 37.0297 5.04656 37.1837 5.06756C38.5837 5.27756 40.0537 5.40356 41.4677 5.69756C54.5577 8.39956 64.5537 20.2996 65.0087 33.6696C65.3377 40.0051 63.5956 46.2756 60.0457 51.5336C54.2777 60.0036 46.1997 64.5536 35.9587 64.9946C29.7167 65.3017 23.5471 63.5453 18.4027 59.9966C14.9889 57.7678 12.0743 54.8554 9.84299 51.4433C7.61163 48.0312 6.11198 44.1935 5.43873 40.1726C5.22873 39.0456 5.12373 37.8976 4.96973 36.7566ZM25.1997 25.8996C25.1507 25.6546 25.0947 25.4446 25.0597 25.1996C24.6164 22.7636 24.1777 20.3252 23.7437 17.8846C23.6177 17.1846 23.2747 16.7646 22.6727 16.7576C20.8714 16.7249 19.0747 16.7249 17.2827 16.7576C16.9942 16.7738 16.7239 16.9038 16.531 17.119C16.3382 17.3341 16.2384 17.617 16.2537 17.9056C16.2503 18.2017 16.3575 18.4885 16.5542 18.7098C16.751 18.9312 17.0232 19.0712 17.3177 19.1026C17.5905 19.1166 17.8639 19.1166 18.1367 19.1026H21.5247C21.9307 21.3216 22.3157 23.4706 22.7007 25.6196C23.8347 32.0409 24.9781 38.4342 26.1307 44.7996C26.3057 45.7866 26.6697 46.0736 27.6917 46.0736H46.8577C47.8377 46.0736 48.1597 45.8426 48.4327 44.9256C50.1781 39.1996 51.9164 33.4689 53.6477 27.7336C54.0047 26.5576 53.5217 25.9276 52.2477 25.9276C50.4697 25.9276 48.6917 25.9276 46.9137 25.9276C46.3887 25.9276 46.2137 25.7596 46.2137 25.2766C46.2396 24.7354 46.235 24.1932 46.1997 23.6526C46.2125 23.3964 46.1685 23.1406 46.071 22.9033C45.9735 22.6661 45.8249 22.4533 45.6356 22.2801C45.4464 22.107 45.2213 21.9777 44.9764 21.9015C44.7315 21.8254 44.4728 21.8042 44.2187 21.8396H42.3567C42.36 21.0113 42.3109 20.1836 42.2097 19.3616C42.0013 18.2716 41.3846 17.3024 40.4856 16.6519C39.5866 16.0014 38.4732 15.7187 37.3727 15.8616C36.3153 15.9864 35.3387 16.4897 34.6233 17.2784C33.908 18.0671 33.5021 19.088 33.4807 20.1526C33.4807 20.6986 33.4807 21.2376 33.4807 21.8256H31.5977C31.329 21.7909 31.0559 21.8178 30.7992 21.9043C30.5424 21.9908 30.3087 22.1346 30.1158 22.3248C29.9229 22.515 29.7758 22.7467 29.6857 23.0022C29.5956 23.2577 29.5648 23.5304 29.5957 23.7996C29.5607 24.4996 29.5047 25.1996 29.4557 25.9486L25.1997 25.8996ZM45.8217 47.3126C45.1475 47.325 44.4918 47.5356 43.9364 47.918C43.3809 48.3004 42.9502 48.8377 42.6979 49.4631C42.4456 50.0885 42.3829 50.7743 42.5175 51.4351C42.6521 52.0959 42.9781 52.7025 43.455 53.1793C43.9318 53.6561 44.5384 53.9822 45.1992 54.1168C45.86 54.2514 46.5458 54.1887 47.1712 53.9364C47.7966 53.6841 48.3339 53.2534 48.7163 52.6979C49.0987 52.1425 49.3092 51.4868 49.3217 50.8126C49.3274 50.3514 49.2407 49.8937 49.0668 49.4665C48.8929 49.0393 48.6353 48.6513 48.3092 48.3251C47.983 47.999 47.5949 47.7414 47.1678 47.5675C46.7406 47.3936 46.2829 47.3069 45.8217 47.3126ZM26.5997 50.7426C26.5971 51.4219 26.7954 52.0869 27.1697 52.6538C27.544 53.2207 28.0776 53.6642 28.7034 53.9286C29.3292 54.193 30.0193 54.2664 30.6867 54.1396C31.3541 54.0127 31.9691 53.6914 32.4543 53.2159C32.9395 52.7404 33.2732 52.132 33.4135 51.4673C33.5538 50.8026 33.4943 50.1112 33.2426 49.4802C32.991 48.8492 32.5583 48.3067 31.999 47.921C31.4398 47.5353 30.779 47.3236 30.0997 47.3126C29.6442 47.3061 29.1919 47.3899 28.7689 47.5591C28.3459 47.7283 27.9606 47.9796 27.6352 48.2985C27.3098 48.6173 27.0508 48.9975 26.8731 49.417C26.6954 49.8365 26.6025 50.287 26.5997 50.7426Z" fill="white"/>
<path id="Vector_2" d="M31.1221 38.7167L31.9691 24.2617H33.4531C33.4531 25.1367 33.5161 26.0467 34.7131 26.0817C35.4551 26.0817 35.7071 25.7037 35.9451 24.2547H39.7041C39.8987 24.7961 40.1326 25.3225 40.4041 25.8297C40.5091 26.0047 40.8871 26.0677 41.1461 26.0747C41.8881 26.0747 42.1541 25.6617 42.3431 24.2197H43.7991C44.0791 29.0567 44.3661 33.8657 44.6461 38.7167H31.1221ZM35.4901 37.2537C35.9171 37.2537 36.3511 37.2537 36.7781 37.2537C36.9298 37.2519 37.0796 37.2202 37.219 37.1605C37.3585 37.1007 37.4848 37.0141 37.5907 36.9056C37.6967 36.797 37.7802 36.6686 37.8365 36.5278C37.8929 36.387 37.9209 36.2364 37.9191 36.0847C37.9247 35.777 37.8088 35.4795 37.5965 35.2568C37.3843 35.034 37.0927 34.9039 36.7851 34.8947C35.9521 34.8947 35.1051 34.8947 34.2721 34.8947C33.9602 34.8947 33.6611 35.0186 33.4405 35.2392C33.22 35.4597 33.0961 35.7588 33.0961 36.0707C33.0961 36.3826 33.22 36.6817 33.4405 36.9023C33.6611 37.1228 33.9602 37.2467 34.2721 37.2467C34.6711 37.2747 35.0771 37.2537 35.4901 37.2537Z" fill="white"/>
<path id="Vector_3" d="M46.5286 28.3428H50.9386C50.8896 28.5388 50.8546 28.7208 50.8056 28.8958C49.359 33.6558 47.9146 38.4158 46.4726 43.1758C46.3746 43.4978 46.2836 43.7008 45.8636 43.7008C40.1516 43.7008 34.4466 43.7008 28.7416 43.7008C28.6296 43.7008 28.5106 43.7008 28.3566 43.7008C27.4396 38.6048 26.5226 33.5228 25.5986 28.3988H29.2316C29.2316 29.0288 29.2316 29.6448 29.2316 30.2538C29.0636 33.2031 28.8863 36.1478 28.6996 39.0878C28.6469 39.3627 28.6598 39.6463 28.7374 39.9153C28.815 40.1843 28.955 40.4312 29.146 40.6358C29.337 40.8405 29.5737 40.9972 29.8367 41.0931C30.0997 41.189 30.3817 41.2214 30.6596 41.1878C35.485 41.1878 40.3126 41.1878 45.1426 41.1878C46.4866 41.1878 47.1726 40.4878 47.0956 39.1368C46.9206 35.9238 46.7176 32.7038 46.5356 29.4838C46.5076 29.1058 46.5286 28.7558 46.5286 28.3428Z" fill="white"/>
<path id="Vector_4" d="M35.9308 21.7975C35.885 21.131 35.885 20.4621 35.9308 19.7955C36.0144 19.3228 36.2705 18.8979 36.6494 18.6031C37.0282 18.3082 37.503 18.1644 37.9818 18.1995C38.4679 18.2148 38.9316 18.4077 39.2851 18.7418C39.6385 19.0759 39.8572 19.528 39.8998 20.0125C39.9488 20.5865 39.8998 21.1745 39.8998 21.7975H35.9308Z" fill="white"/>
<path id="Vector_5" d="M45.8635 51.7997C45.6585 51.8079 45.4557 51.755 45.2808 51.6479C45.1059 51.5407 44.9668 51.384 44.881 51.1976C44.7953 51.0113 44.7667 50.8037 44.7991 50.6011C44.8315 50.3985 44.9232 50.2101 45.0628 50.0598C45.2023 49.9094 45.3834 49.8039 45.583 49.7565C45.7826 49.7091 45.9917 49.7221 46.184 49.7938C46.3762 49.8654 46.5428 49.9925 46.6627 50.1589C46.7826 50.3254 46.8504 50.5237 46.8575 50.7287C46.8651 50.8649 46.8451 51.0012 46.7988 51.1295C46.7525 51.2577 46.6808 51.3754 46.588 51.4753C46.4953 51.5753 46.3833 51.6556 46.2588 51.7113C46.1343 51.767 45.9999 51.7971 45.8635 51.7997Z" fill="white"/>
<path id="Vector_6" d="M29.9807 51.7997C29.8447 51.7989 29.7103 51.7706 29.5855 51.7165C29.4607 51.6624 29.3482 51.5836 29.2546 51.4848C29.1611 51.3861 29.0885 51.2694 29.0413 51.1419C28.994 51.0143 28.9731 50.8786 28.9797 50.7427C28.9797 50.4717 29.0874 50.2117 29.279 50.02C29.4707 49.8284 29.7307 49.7207 30.0017 49.7207C30.2728 49.7207 30.5327 49.8284 30.7244 50.02C30.916 50.2117 31.0237 50.4717 31.0237 50.7427C31.0317 50.8824 31.0103 51.0222 30.9608 51.1531C30.9114 51.284 30.8351 51.4031 30.7368 51.5027C30.6386 51.6023 30.5205 51.6802 30.3903 51.7314C30.26 51.7825 30.1205 51.8058 29.9807 51.7997Z" fill="white"/>
</g>
</svg>
