<svg width="60" height="60" viewBox="0 0 60 60" fill="none" xmlns="http://www.w3.org/2000/svg">
<g id="social media 1">
<path id="Vector" d="M7.50512 15.8217C7.50512 14.8917 7.43912 14.0217 7.52312 13.1637C7.63712 11.9757 8.54312 11.1057 9.76112 11.0937C13.2771 11.0517 16.7991 11.0817 20.3151 11.0817C20.3631 11.0817 20.4171 11.1117 20.5311 11.1537C20.5311 11.3397 20.5311 11.5377 20.5311 11.7357C20.5311 13.0677 20.5191 14.3997 20.5311 15.7377C20.5671 18.4797 22.4871 20.5077 25.2231 20.5617C28.4091 20.6217 31.5951 20.6217 34.7751 20.5617C37.5111 20.5077 39.4311 18.4857 39.4671 15.7377C39.4851 14.4057 39.4671 13.0737 39.4671 11.7357C39.4671 11.5377 39.4671 11.3397 39.4671 11.0757C39.7371 11.0757 39.9351 11.0757 40.1331 11.0757C43.3551 11.0757 46.5771 11.0757 49.7991 11.0757C51.5691 11.0757 52.5171 12.0177 52.5231 13.7757C52.5231 14.4357 52.5231 15.1017 52.5231 15.8277H51.8751C49.7811 15.8277 47.6931 15.8277 45.5991 15.8277C42.7011 15.8337 40.6731 17.8617 40.6671 20.7537C40.6611 23.7897 40.6611 26.8257 40.6671 29.8617C40.6671 32.7237 42.6831 34.7637 45.5511 34.7877C47.6451 34.8117 49.7331 34.7877 51.8271 34.7877C52.0311 34.7877 52.2291 34.7877 52.4811 34.7877V38.2917H7.50512V34.8177C7.71512 34.8057 7.91312 34.7937 8.11112 34.7937C10.1691 34.7937 12.2211 34.7937 14.2791 34.7937C17.3211 34.7877 19.3311 32.7837 19.3311 29.7477C19.3311 26.7657 19.3311 23.7837 19.3311 20.8017C19.3311 17.8377 17.3091 15.8217 14.3391 15.8157C12.0831 15.8157 9.82112 15.8157 7.49912 15.8157L7.50512 15.8217Z" fill="white"/>
<path id="Vector_2" d="M7.4707 40.7344H52.4407C52.4407 41.7244 52.5427 42.7144 52.4107 43.6684C52.2847 44.5744 51.6127 45.1504 50.7067 45.3724C50.3707 45.4564 50.0107 45.4624 49.6627 45.4624C36.5527 45.4624 23.4487 45.4624 10.3387 45.4624C8.3527 45.4624 7.4707 44.5684 7.4707 42.5704C7.4707 41.9824 7.4707 41.3884 7.4707 40.7344Z" fill="white"/>
<path id="Vector_3" d="M9.81591 32.4056C8.33391 32.4056 6.85191 32.4056 5.37591 32.4056C3.68391 32.4056 2.75391 31.4816 2.75391 29.8076C2.75391 26.7896 2.75391 23.7716 2.75391 20.7536C2.75391 19.1516 3.71391 18.1856 5.30391 18.1856C8.33991 18.1796 11.3759 18.1736 14.4119 18.1856C15.9899 18.1856 16.9679 19.1816 16.9679 20.7656C16.9739 23.7836 16.9739 26.8016 16.9679 29.8196C16.9679 31.4456 16.0019 32.3996 14.3699 32.4056C12.8519 32.4056 11.3339 32.4056 9.81591 32.4056ZM9.89391 22.9256C10.3139 22.9256 10.7219 22.9496 11.1179 22.9256C11.7539 22.8776 12.2159 22.3556 12.2159 21.7436C12.2159 21.1256 11.7479 20.6276 11.1059 20.5856C10.6979 20.5616 10.2899 20.5676 9.88791 20.5736C8.53791 20.6036 7.52991 21.4916 7.49391 22.8356C7.43991 24.8276 7.44591 26.8256 7.50591 28.8236C7.51791 29.1836 7.79991 29.6456 8.09991 29.8616C8.86191 30.3956 9.81591 29.7896 9.85791 28.7816C9.88791 28.0316 9.85791 27.2816 9.85791 26.4896C10.3019 26.4896 10.6739 26.5016 11.0399 26.4896C11.7179 26.4596 12.2099 25.9616 12.2219 25.3316C12.2339 24.6716 11.7419 24.1736 11.0279 24.1436C10.6619 24.1256 10.2959 24.1436 9.89991 24.1436V22.9376L9.89391 22.9256Z" fill="white"/>
<path id="Vector_4" d="M50.1121 32.4055C48.6121 32.4055 47.1121 32.4055 45.6121 32.4055C43.9861 32.3995 43.0321 31.4455 43.0261 29.8075C43.0201 26.8075 43.0261 23.8075 43.0261 20.8135C43.0261 19.1575 43.9981 18.1915 45.6541 18.1855C48.6541 18.1855 51.6541 18.1855 54.6481 18.1855C56.2801 18.1855 57.2401 19.1395 57.2401 20.7715C57.2461 23.7895 57.2461 26.8075 57.2401 29.8255C57.2401 31.4695 56.2981 32.3995 54.6541 32.4055C53.1361 32.4115 51.6181 32.4055 50.1001 32.4055H50.1121ZM46.6441 25.3915C46.6441 25.3915 46.6021 25.3915 46.5841 25.3915C46.5841 26.1295 46.5601 26.8735 46.5901 27.6115C46.6261 28.5055 47.3821 29.1175 48.1261 28.7755C49.8061 28.0015 51.4621 27.1855 53.0941 26.3155C53.8861 25.8955 53.8981 24.7615 53.1121 24.3415C51.4681 23.4595 49.7941 22.6375 48.1021 21.8515C47.4121 21.5335 46.7161 21.9775 46.6621 22.7275C46.6021 23.6095 46.6501 24.4975 46.6501 25.3855L46.6441 25.3915Z" fill="white"/>
<path id="Vector_5" d="M30.0006 18.186C28.4826 18.186 26.9646 18.192 25.4466 18.186C23.8446 18.18 22.8906 17.22 22.8906 15.624C22.8906 12.588 22.8906 9.55203 22.8906 6.51603C22.8906 4.96803 23.8686 3.97203 25.4166 3.96603C28.4706 3.95403 31.5246 3.95403 34.5786 3.96603C36.1326 3.96603 37.1046 4.96203 37.1106 6.51003C37.1106 9.56403 37.1106 12.618 37.1106 15.672C37.1106 17.196 36.1386 18.168 34.6086 18.18C33.0726 18.192 31.5366 18.18 30.0006 18.18V18.186ZM29.9766 14.628C31.9566 14.634 33.5526 13.062 33.5526 11.094C33.5526 9.13203 31.9446 7.51803 29.9946 7.52403C28.0566 7.53603 26.4606 9.11403 26.4486 11.046C26.4306 13.02 28.0086 14.616 29.9766 14.628Z" fill="white"/>
<path id="Vector_6" d="M25.4216 53.7422C25.7096 51.7502 25.9856 49.8302 26.2736 47.8682H33.7196C34.0016 49.7882 34.2836 51.7382 34.5776 53.7422C35.7836 53.7422 36.9596 53.7302 38.1416 53.7422C38.9156 53.7482 39.4076 54.1682 39.4556 54.8162C39.5096 55.4402 39.1496 55.9442 38.5316 56.0762C38.3336 56.1182 38.1296 56.1242 37.9256 56.1242C32.6276 56.1242 27.3356 56.1242 22.0376 56.1242C21.9236 56.1242 21.8156 56.1242 21.7016 56.1182C20.9756 56.0522 20.5136 55.5722 20.5256 54.9002C20.5376 54.2582 20.9996 53.7722 21.7076 53.7482C22.7036 53.7182 23.7056 53.7362 24.7076 53.7362C24.9296 53.7362 25.1456 53.7362 25.4156 53.7362L25.4216 53.7422Z" fill="white"/>
<path id="Vector_7" d="M30.0244 9.9123C30.6664 9.9243 31.1824 10.4403 31.1884 11.0763C31.1884 11.7243 30.6304 12.2763 29.9824 12.2583C29.3524 12.2463 28.8244 11.7123 28.8184 11.0823C28.8184 10.4283 29.3584 9.9003 30.0244 9.9063V9.9123Z" fill="white"/>
</g>
</svg>
