<svg width="34" height="33" viewBox="0 0 34 33" fill="none" xmlns="http://www.w3.org/2000/svg">
<g id="strategy 1">
<path id="Vector" d="M14.62 31.9712C14.5204 31.828 14.4393 31.6729 14.3786 31.5095C14.2018 30.7526 14.0386 29.9923 13.889 29.232C13.8798 29.1585 13.849 29.0894 13.8007 29.0332C13.7523 28.9771 13.6884 28.9364 13.617 28.9163C13.2158 28.7737 12.8248 28.6108 12.4406 28.4309C12.3782 28.3932 12.3058 28.3752 12.2329 28.3795C12.1601 28.3837 12.0902 28.4099 12.0326 28.4547C11.3764 28.8891 10.7066 29.3066 10.0504 29.7445C10.0019 29.7857 9.94563 29.8168 9.88488 29.836C9.82413 29.8551 9.76016 29.8618 9.69675 29.8558C9.63334 29.8498 9.57178 29.8311 9.51572 29.8009C9.45967 29.7707 9.41025 29.7296 9.37041 29.68C8.39801 28.6957 7.41767 27.717 6.42941 26.744C6.37816 26.7055 6.33534 26.657 6.3036 26.6014C6.27186 26.5458 6.25187 26.4843 6.24486 26.4207C6.23785 26.3571 6.24398 26.2927 6.26285 26.2316C6.28173 26.1704 6.31295 26.1137 6.35461 26.0651C6.80001 25.4134 7.19781 24.7515 7.62621 24.0998C7.67964 24.0363 7.71222 23.958 7.71951 23.8754C7.72681 23.7928 7.70848 23.71 7.66701 23.6382C7.48491 23.2666 7.32483 22.8846 7.18761 22.4943C7.16747 22.4175 7.12394 22.3488 7.06304 22.2978C7.00214 22.2467 6.92687 22.2157 6.84761 22.2092C6.08601 22.0531 5.32781 21.8698 4.56621 21.7272C4.19901 21.6491 4.12421 21.5643 4.12421 21.1977C4.12421 20.5426 4.12421 19.8875 4.12421 19.229C4.12421 18.8896 4.24321 18.7538 4.59341 18.7538H10.336C10.676 18.7538 10.795 18.8794 10.8052 19.2358C10.8431 20.7906 11.4665 22.274 12.551 23.3905C13.6355 24.507 15.1016 25.1746 16.6571 25.2603C18.2126 25.3459 19.7433 24.8433 20.9442 23.8526C22.1451 22.8619 22.9281 21.4559 23.137 19.9147C23.1642 19.6771 23.1778 19.4327 23.1914 19.1917C23.2118 18.8726 23.324 18.7436 23.6334 18.7402H29.4134C29.7296 18.7402 29.852 18.8692 29.8554 19.1849C29.8554 19.8637 29.8554 20.5426 29.8554 21.2452C29.864 21.3006 29.8614 21.3572 29.8476 21.4116C29.8338 21.4659 29.8092 21.517 29.7753 21.5616C29.7413 21.6063 29.6987 21.6437 29.65 21.6715C29.6012 21.6994 29.5474 21.7172 29.4916 21.7238C28.7096 21.8867 27.931 22.0632 27.1456 22.216C27.0665 22.223 26.9915 22.2541 26.9307 22.3051C26.8698 22.3561 26.8262 22.4245 26.8056 22.5011C26.6628 22.8982 26.4996 23.292 26.3194 23.6721C26.2827 23.736 26.2663 23.8094 26.2724 23.8828C26.2785 23.9561 26.3067 24.0259 26.3534 24.0828C26.7886 24.7379 27.2068 25.4066 27.6454 26.0583C27.6864 26.1074 27.717 26.1642 27.7353 26.2255C27.7537 26.2867 27.7593 26.351 27.752 26.4145C27.7447 26.478 27.7246 26.5393 27.6928 26.5948C27.661 26.6502 27.6183 26.6987 27.5672 26.7372C26.5812 27.7079 25.6054 28.6923 24.6262 29.6664C24.3678 29.9244 24.2522 29.9312 23.9462 29.7275C23.29 29.3066 22.6338 28.8891 21.9878 28.4581C21.928 28.4076 21.8538 28.3772 21.7757 28.3711C21.6976 28.365 21.6196 28.3836 21.5526 28.4241C21.1684 28.604 20.7774 28.7636 20.3762 28.9095C20.3049 28.9286 20.2408 28.9685 20.1924 29.0241C20.1439 29.0798 20.1132 29.1486 20.1042 29.2218C19.9478 29.9821 19.7914 30.7424 19.6146 31.4994C19.5567 31.6659 19.4779 31.8244 19.38 31.9712H14.62Z" fill="white"/>
<path id="Vector_2" d="M22.3312 17.1643V5.62371C22.3312 5.08402 22.3992 5.01953 22.95 5.01953H25.619C26.1426 5.01953 26.2242 5.10099 26.2242 5.61014V17.1813H27.4652C27.6828 17.1813 27.846 17.2627 27.8766 17.4935C27.8865 17.5412 27.8859 17.5904 27.875 17.6379C27.8641 17.6853 27.8431 17.7299 27.8134 17.7685C27.7838 17.8072 27.7461 17.839 27.7031 17.8618C27.66 17.8846 27.6125 17.898 27.5638 17.9008C27.4734 17.9094 27.3823 17.9094 27.2918 17.9008H6.71163C6.64023 17.9008 6.56883 17.9008 6.49743 17.9008C6.27643 17.9008 6.12683 17.7854 6.12003 17.5614C6.11448 17.5104 6.12058 17.4589 6.13786 17.4106C6.15514 17.3623 6.18316 17.3185 6.2198 17.2826C6.25645 17.2467 6.30077 17.2195 6.34944 17.2031C6.39812 17.1867 6.44987 17.1816 6.50083 17.188C6.91223 17.188 7.32703 17.188 7.77243 17.188V10.9256C7.77243 10.3927 7.84723 10.3214 8.39123 10.3214H11.152C11.5736 10.3214 11.6654 10.4164 11.6654 10.8441V17.1609H12.6276V7.36159C12.6276 6.87621 12.7126 6.79135 13.1886 6.79135C14.1202 6.79135 15.0518 6.79135 15.9834 6.79135C16.4254 6.79135 16.5172 6.88639 16.5172 7.32425V17.1677H17.4794V9.12322C17.4794 8.63445 17.5576 8.55977 18.0438 8.55977H20.8352C21.2806 8.55977 21.369 8.65142 21.3724 9.08928V17.1643H22.3312Z" fill="white"/>
<path id="Vector_3" d="M11.1214 7.98018C11.407 8.93397 11.169 9.65356 10.4584 10.0371C10.1494 10.1979 9.7949 10.2496 9.4527 10.1837C9.1105 10.1178 8.8007 9.93831 8.57371 9.67432C8.34671 9.41033 8.21588 9.07742 8.20249 8.72976C8.18911 8.3821 8.29397 8.04015 8.5 7.75955C8.9998 7.10106 9.7376 6.98226 10.6624 7.42012C11.628 6.58513 12.614 5.75013 13.6 4.91174C13.9638 4.60286 14.3344 4.30417 14.6846 3.9851C14.7706 3.89384 14.8865 3.83644 15.0113 3.82336C15.1361 3.81028 15.2615 3.84238 15.3646 3.91382C16.5954 4.56213 17.8398 5.19007 19.074 5.84178C19.1475 5.89745 19.2396 5.92286 19.3313 5.91275C19.4231 5.90265 19.5074 5.85781 19.567 5.78747C21.0324 4.46709 22.5046 3.16029 23.987 1.8467L24.1774 1.66681H23.2934C22.9874 1.66681 22.8344 1.53782 22.8344 1.30362C22.8344 1.06941 22.9874 0.94043 23.29 0.94043C23.868 0.94043 24.4426 0.94043 25.0206 0.94043C25.3368 0.94043 25.4558 1.06262 25.4592 1.38508C25.4592 1.9689 25.4592 2.55611 25.4592 3.13993C25.4592 3.3911 25.3606 3.56421 25.0954 3.56082C24.8302 3.55742 24.7316 3.37413 24.7316 3.13314C24.7316 2.83444 24.7316 2.53914 24.7316 2.16237L23.8 2.98718C22.4638 4.17518 21.1242 5.36318 19.7982 6.56137C19.7073 6.6625 19.5827 6.72721 19.4476 6.74344C19.3125 6.75968 19.1761 6.72633 19.0638 6.64962C17.8296 5.99792 16.5886 5.36997 15.3544 4.72166C15.2822 4.67092 15.1938 4.64841 15.106 4.65843C15.0183 4.66844 14.9373 4.71027 14.8784 4.77597C13.7224 5.77389 12.5562 6.75823 11.3934 7.74597L11.1214 7.98018Z" fill="white"/>
</g>
</svg>
