<svg width="59" height="59" viewBox="0 0 59 59" fill="none" xmlns="http://www.w3.org/2000/svg">
<g id="Strategy 1">
<path id="Vector" d="M19.6354 48.4922C19.7357 48.4686 19.7829 48.445 19.8301 48.4391C21.3582 48.3388 21.7004 47.973 21.7004 46.4213C21.7004 46.3328 21.7122 46.2443 21.7004 46.1558C21.5588 45.3534 21.8184 44.8637 22.6621 44.6395C23.0338 44.5392 23.2521 44.5038 23.5176 44.8106C23.8362 45.1823 24.1961 45.5186 24.556 45.8549C25.146 46.3977 25.913 46.4036 26.4971 45.8549C27.1343 45.2531 27.7538 44.6336 28.3556 43.9964C28.9279 43.3887 28.9161 42.6394 28.3438 42.014C27.9898 41.6246 27.6181 41.2529 27.2287 40.8989C27.0045 40.6983 27.0458 40.5272 27.1107 40.2558C27.329 39.359 27.8364 39.1112 28.7568 39.1584C30.5917 39.2528 30.928 38.8516 30.928 37.0167C30.928 36.4385 30.9398 35.8603 30.928 35.2821C30.9044 34.3263 30.3793 33.8012 29.4176 33.7717C28.9279 33.7599 28.4382 33.754 27.9485 33.7717C27.6535 33.7835 27.5237 33.6655 27.4175 33.3941C26.9986 32.3085 26.9868 32.3144 27.8187 31.4825C29.1108 30.1904 29.1108 29.6948 27.8246 28.4086C27.4057 27.9897 26.9927 27.5531 26.5561 27.146C25.9071 26.5383 25.1401 26.5383 24.497 27.146C24.1135 27.5059 23.7654 27.9071 23.3701 28.2493C23.2521 28.3555 22.9866 28.4027 22.845 28.3496C21.7063 27.9071 21.7063 27.9012 21.7063 26.6563C21.7063 26.4616 21.7063 26.2728 21.7063 26.0781C21.6709 25.0692 21.1694 24.5677 20.1723 24.5323C20.0189 24.5323 19.8596 24.5146 19.6649 24.5087C19.6531 24.3199 19.6354 24.1488 19.6354 23.9836C19.6354 21.1811 19.6354 18.3727 19.6354 15.5702C19.6354 13.4993 20.9393 12.1954 23.0161 12.1836C23.9601 12.1836 24.8982 12.1836 25.8599 12.1836C25.9189 12.4668 25.9543 12.7087 26.0192 12.9388C26.3909 14.2309 27.6122 15.1926 29.0459 15.2044C33.1287 15.228 37.2115 15.2339 41.2943 15.2044C42.8991 15.1926 44.1027 14.0834 44.3918 12.514C44.4095 12.4137 44.4449 12.3134 44.4626 12.2544C45.6957 12.2544 46.9111 12.1541 48.1029 12.278C49.5838 12.4373 50.6222 13.7294 50.6753 15.2221C50.6753 15.3283 50.6753 15.4345 50.6753 15.5348C50.6753 27.2463 50.6753 38.9519 50.6753 50.6634C50.6753 52.0853 50.1089 53.1591 48.7991 53.7255C48.3035 53.9379 47.7135 54.0146 47.1648 54.0146C39.1585 54.0323 31.1463 54.0264 23.14 54.0264C22.8096 54.0264 22.4733 54.0146 22.1488 53.9497C20.6797 53.6606 19.6531 52.4393 19.6236 50.9466C19.6059 50.1265 19.6236 49.3064 19.6236 48.4922H19.6354ZM42.6572 22.1369C42.6572 22.5027 42.6926 22.78 42.6572 23.0455C42.3917 24.8804 42.2029 26.733 41.8135 28.5443C40.7987 33.2466 38.7396 37.4238 35.2822 40.8458C33.3824 42.722 31.2171 44.2147 28.8512 45.4419C28.4854 45.6307 28.2612 45.8962 28.4559 46.3328C28.627 46.7104 28.9869 46.793 29.4412 46.5629C32.8573 44.7929 35.8663 42.5096 38.2322 39.4475C41.5303 35.1759 43.0879 30.2317 43.7251 24.9512C43.8313 24.0544 43.908 23.1576 44.0024 22.1487C44.4567 22.6443 44.8461 23.0632 45.2355 23.4821C45.5069 23.7771 45.8314 23.8892 46.1618 23.606C46.4981 23.311 46.4568 22.957 46.1618 22.6384C45.4302 21.836 44.6986 21.0336 43.9493 20.243C43.5894 19.8595 43.2885 19.8536 42.905 20.2017C42.1144 20.9215 41.3297 21.6472 40.545 22.3729C40.2323 22.662 40.1143 22.9806 40.3975 23.3405C40.6394 23.6532 41.0347 23.6296 41.4064 23.2933C41.8076 22.9334 42.197 22.5676 42.6513 22.1546L42.6572 22.1369ZM31.7304 27.1873C31.7304 28.8098 33.0343 30.1373 34.645 30.155C36.2793 30.1727 37.6245 28.8393 37.6304 27.1991C37.6304 25.5471 36.3147 24.2373 34.6627 24.2491C33.0343 24.255 31.7363 25.5589 31.7304 27.1873ZM44.9051 44.2324C44.8992 42.604 43.6012 41.306 41.9669 41.3001C40.3208 41.3001 38.9933 42.6276 38.9992 44.2678C39.0051 45.8785 40.3326 47.2001 41.9492 47.206C43.5953 47.206 44.911 45.8844 44.9051 44.2383V44.2324ZM45.265 34.7747C44.8461 35.1759 44.4744 35.5181 44.1204 35.8721C43.7605 36.232 43.731 36.6155 44.0319 36.8692C44.38 37.1642 44.7163 37.0698 44.9995 36.7571C45.3417 36.3854 45.678 36.0078 46.1146 35.524C46.3978 35.8721 46.5807 36.1317 46.799 36.3559C47.5129 37.0875 47.8315 37.1996 48.1796 36.8692C48.5277 36.5388 48.4097 36.173 47.7017 35.4886C47.4657 35.2585 47.1943 35.0756 46.8934 34.8337C47.3713 34.3735 47.7312 34.0372 48.0734 33.6891C48.4274 33.3292 48.4687 32.9339 48.1796 32.6802C47.8079 32.3557 47.4657 32.4855 47.1766 32.81C46.8462 33.1817 46.5276 33.5711 46.1736 33.99C45.7075 33.5062 45.3889 33.1581 45.0526 32.8277C44.6514 32.4265 44.2856 32.3793 44.0083 32.6979C43.6838 33.0696 43.8254 33.4059 44.144 33.7009C44.498 34.0372 44.852 34.3735 45.265 34.7688V34.7747Z" fill="url(#paint0_linear_864_4579)"/>
<path id="Vector_2" d="M10.4842 30.0373C11.1922 29.3352 11.8471 28.6862 12.5787 27.9605C12.9268 28.3322 13.328 28.7688 13.741 29.1877C14.3605 29.8072 14.8384 29.8839 15.6349 29.5358C15.9711 29.3883 16.3133 29.2585 16.6496 29.111C17.2219 28.8632 17.5229 28.4266 17.5346 27.8071C17.5464 27.2643 17.5229 26.7215 17.5524 26.1787C17.5583 26.0489 17.7058 25.8306 17.8001 25.8247C18.6557 25.7952 19.5111 25.807 20.4374 25.807C20.4374 26.4383 20.4374 27.0106 20.4374 27.5888C20.4492 28.5033 20.7207 28.8868 21.5585 29.2113C21.8535 29.3234 22.1426 29.4414 22.4317 29.5771C23.0807 29.878 23.6589 29.7718 24.1603 29.2703C24.5911 28.8396 25.0159 28.3912 25.4053 27.99C26.1014 28.6862 26.7622 29.3411 27.541 30.114C27.1575 30.4562 26.6973 30.8338 26.2725 31.2468C25.653 31.8486 25.5763 32.3383 25.9362 33.1407C26.007 33.3 26.0837 33.4593 26.1486 33.6186C26.6619 34.9048 26.8449 35.0346 28.2491 35.0346C28.6975 35.0346 29.1518 35.0346 29.6591 35.0346C29.6591 35.9491 29.6709 36.7869 29.6415 37.6247C29.6415 37.7309 29.4114 37.9079 29.2815 37.9197C28.7565 37.9551 28.2313 37.9315 27.7062 37.9374C27.0395 37.9374 26.5793 38.2501 26.3256 38.8696C26.1722 39.2413 26.013 39.613 25.8596 39.9847C25.6 40.5983 25.6943 41.1529 26.1663 41.6249C26.6147 42.0674 27.0808 42.4863 27.4938 42.8757C26.7681 43.5896 26.1132 44.2327 25.3993 44.9407C25.1102 44.6516 24.7149 44.2622 24.3256 43.8728C23.5762 43.1294 23.2104 43.1707 22.2074 43.4598C20.6911 43.8964 20.2664 44.8286 20.4021 46.2918C20.4965 47.3066 20.5201 47.1709 19.5171 47.1768C19.0097 47.1768 18.5022 47.1591 17.9949 47.1827C17.6173 47.2004 17.5052 47.047 17.5229 46.693C17.5465 46.2033 17.5288 45.7136 17.5229 45.2239C17.5229 44.5336 17.1924 44.0675 16.5493 43.8197C16.1894 43.6781 15.8355 43.5306 15.4873 43.3772C14.8679 43.0999 14.3191 43.212 13.8471 43.6722C13.387 44.1206 12.9563 44.5985 12.5492 45.0233C11.8176 44.2976 11.1686 43.6486 10.4016 42.8934C10.8028 42.5394 11.2453 42.1736 11.6524 41.7724C12.325 41.1175 12.3958 40.6573 12.0064 39.79C11.9415 39.6484 11.8766 39.5009 11.8176 39.3593C11.3043 38.079 11.1095 37.9492 9.71125 37.9492C8.75938 37.9492 8.28345 37.4772 8.28345 36.5332C8.28345 36.1851 8.29525 35.8311 8.28345 35.483C8.26575 35.1644 8.38375 35.0405 8.70825 35.0464C9.23335 35.0641 9.75845 35.0523 10.2836 35.0464C10.9503 35.0346 11.4046 34.7101 11.6465 34.0847C11.7881 33.7248 11.9297 33.3708 12.089 33.0168C12.3781 32.3796 12.2542 31.8191 11.7763 31.3294C11.3397 30.881 10.8795 30.4503 10.4665 30.0432L10.4842 30.0373ZM13.741 36.4742C13.741 39.377 16.0655 41.7252 18.9625 41.737C21.877 41.7488 24.2606 39.3888 24.2606 36.486C24.2606 33.5891 21.877 31.2055 18.9742 31.2173C16.0891 31.2232 13.741 33.5773 13.741 36.4742Z" fill="url(#paint1_linear_864_4579)"/>
<path id="Vector_3" d="M35.1404 13.959C33.217 13.959 31.2877 13.959 29.3643 13.959C27.907 13.959 27.1577 13.2097 27.1577 11.7701C27.1577 9.75234 27.7241 9.18594 29.7419 9.18594C30.267 9.18594 30.7921 9.19184 31.3172 9.18594C31.9131 9.17414 32.096 8.99124 32.1491 8.40714C32.2848 6.92624 33.5533 5.86424 35.1699 5.87014C36.7629 5.87014 38.0196 6.93214 38.1553 8.38944C38.2143 9.00894 38.3913 9.18004 39.0226 9.19184C39.6893 9.20364 40.356 9.19184 41.0168 9.19184C42.421 9.20954 43.1526 9.94704 43.1585 11.3394C43.1585 13.3749 42.5744 13.9708 40.5448 13.9708C38.7394 13.9708 36.9399 13.9708 35.1345 13.9708L35.1404 13.959Z" fill="url(#paint2_linear_864_4579)"/>
<path id="Vector_4" d="M36.3678 27.205C36.3678 28.1431 35.589 28.9042 34.6568 28.8924C33.7246 28.8806 32.9753 28.1018 32.993 27.1578C33.0048 26.2374 33.7482 25.5117 34.6745 25.5117C35.6244 25.5117 36.3737 26.261 36.3678 27.205Z" fill="url(#paint3_linear_864_4579)"/>
<path id="Vector_5" d="M41.9727 45.9376C41.0346 45.9435 40.2617 45.1824 40.2617 44.2502C40.2617 43.3357 41.0051 42.5805 41.9137 42.5628C42.8695 42.5451 43.6306 43.2708 43.6365 44.2207C43.6483 45.1706 42.9108 45.9317 41.9668 45.9376H41.9727Z" fill="url(#paint4_linear_864_4579)"/>
</g>
<defs>
<linearGradient id="paint0_linear_864_4579" x1="44.7374" y1="16.6449" x2="16.3184" y2="37.7396" gradientUnits="userSpaceOnUse">
<stop stop-color="#18C8FF"/>
<stop offset="1" stop-color="#C608FF"/>
</linearGradient>
<linearGradient id="paint1_linear_864_4579" x1="25.5742" y1="28.0841" x2="10.4042" y2="43.2543" gradientUnits="userSpaceOnUse">
<stop stop-color="#18C8FF"/>
<stop offset="1" stop-color="#C608FF"/>
</linearGradient>
<linearGradient id="paint2_linear_864_4579" x1="40.0995" y1="6.7338" x2="35.4669" y2="15.8843" gradientUnits="userSpaceOnUse">
<stop stop-color="#18C8FF"/>
<stop offset="1" stop-color="#C608FF"/>
</linearGradient>
<linearGradient id="paint3_linear_864_4579" x1="35.7226" y1="25.8722" x2="33.3237" y2="28.267" gradientUnits="userSpaceOnUse">
<stop stop-color="#18C8FF"/>
<stop offset="1" stop-color="#C608FF"/>
</linearGradient>
<linearGradient id="paint4_linear_864_4579" x1="42.9914" y1="42.9224" x2="40.5966" y2="45.3171" gradientUnits="userSpaceOnUse">
<stop stop-color="#18C8FF"/>
<stop offset="1" stop-color="#C608FF"/>
</linearGradient>
</defs>
</svg>
