<svg width="50" height="50" viewBox="0 0 50 50" fill="none" xmlns="http://www.w3.org/2000/svg">
<g id="unique 1">
<path id="Vector" d="M3.33502 3.25H22.95C22.95 3.43 22.91 3.61 22.91 3.79C22.91 9.95 22.91 16.1167 22.91 22.29V22.8H3.33502V3.25Z" fill="white"/>
<path id="Vector_2" d="M46.25 26.5498V46.1648H26.705V26.5948H45.705C45.89 26.5898 46.07 26.5648 46.25 26.5498Z" fill="white"/>
<path id="Vector_3" d="M46.25 13.895C46.14 14.455 46.055 15.02 45.91 15.57C45.4501 17.2877 44.5308 18.8476 43.2509 20.082C41.9711 21.3165 40.379 22.1789 38.6458 22.5765C36.9127 22.9741 35.1039 22.8918 33.4139 22.3387C31.724 21.7855 30.2167 20.7822 29.0541 19.4367C27.8915 18.0913 27.1175 16.4544 26.8153 14.7021C26.5131 12.9497 26.6941 11.1482 27.3389 9.49103C27.9837 7.83386 29.0679 6.38372 30.475 5.29645C31.882 4.20918 33.5588 3.52589 35.325 3.32C35.42 3.30376 35.5136 3.28036 35.605 3.25H37.365C37.4547 3.28194 37.5466 3.30701 37.64 3.325C39.5367 3.55032 41.3253 4.32835 42.7833 5.5623C44.2413 6.79624 45.3043 8.43163 45.84 10.265C46.015 10.875 46.115 11.51 46.25 12.135V13.895Z" fill="white"/>
<path id="Vector_4" d="M3.36499 26.6201H22.865V46.1451H3.36499V26.6201Z" fill="white"/>
</g>
</svg>
