<svg width="50" height="30" viewBox="0 0 50 30" fill="none" xmlns="http://www.w3.org/2000/svg">
<path id="Vector" d="M24.9556 29.9896C14.8818 29.6566 6.7501 25.6553 0.871082 17.4393C-0.286828 15.8211 -0.286828 14.1404 0.850029 12.5274C5.62904 5.75272 12.1502 1.57449 20.3924 0.37253C30.8294 -1.15203 39.7242 2.01156 46.9138 9.70201C47.7822 10.6334 48.5664 11.6428 49.2559 12.7095C50.2349 14.2185 50.2664 15.7794 49.2401 17.2572C44.5611 23.9902 38.1347 28.0696 30.0083 29.5369C28.3398 29.8387 26.6556 29.9636 24.9503 30L24.9556 29.9896ZM25.0977 24.573C25.6924 24.5886 26.4082 24.4949 27.1188 24.344C31.4557 23.4283 34.6662 19.6195 34.782 15.2383C34.8136 13.9531 33.8241 13.0685 32.6136 13.3079C31.7873 13.4744 31.2557 14.1196 31.2188 15.1134C31.082 18.8025 27.9135 21.1648 24.7135 21.0452C21.5029 20.9255 18.9555 18.532 18.6976 15.3059C18.466 12.3973 20.7292 9.64477 23.8029 9.10363C24.3293 9.00997 24.8766 9.02558 25.3977 8.90591C26.2767 8.70818 26.8135 7.88086 26.703 6.99631C26.5925 6.13256 25.8977 5.49776 25.0082 5.47174C24.4293 5.45613 23.8608 5.50817 23.2872 5.59142C18.5766 6.27305 14.8818 10.6698 15.1134 15.3216C15.3765 20.5613 19.6503 24.573 25.0924 24.5626L25.0977 24.573Z" fill="white"/>
</svg>
