<svg width="75" height="79" viewBox="0 0 75 79" fill="none" xmlns="http://www.w3.org/2000/svg">
<g id="writer 1">
<path id="Vector" d="M57.1147 63.463H56.2094C52.5044 63.463 48.7994 63.3959 45.0944 63.463C40.683 63.6023 36.364 62.1804 32.8981 59.4478C30.8025 57.8468 28.7069 56.2374 26.5778 54.6783C22.2086 51.4223 17.2709 49.0089 12.0177 47.5616C11.0852 47.3494 10.2534 46.8246 9.66023 46.0744C9.06711 45.3243 8.74837 44.3938 8.75692 43.4375C8.74775 42.5362 9.03958 41.6577 9.5862 40.941C10.1328 40.2243 10.9029 39.7105 11.7746 39.4811C12.5739 39.2923 13.4061 39.2923 14.2055 39.4811C17.5584 40.3193 20.576 41.9119 23.6105 43.4794C27.1059 45.2816 30.6265 47.0335 34.5075 47.8131C35.7732 48.0646 37.0222 48.2322 38.3382 48.3831C39.4447 48.5088 40.0147 48.14 40.1153 47.3605C40.2159 46.5809 39.6794 46.0109 38.5813 45.9187C34.7584 45.5581 31.0383 44.4773 27.6172 42.7334L27.2316 42.5155C27.3574 42.2808 27.4663 42.0544 27.5921 41.8365C30.5427 36.7568 33.4821 31.6715 36.4103 26.5806C36.451 26.4705 36.5144 26.3702 36.5964 26.2862C36.6784 26.2021 36.7771 26.1362 36.8861 26.0928C36.9952 26.0493 37.1121 26.0292 37.2294 26.0339C37.3468 26.0385 37.4618 26.0677 37.5671 26.1196C41.1063 27.231 44.3988 29.0125 47.2655 31.3669C47.8103 31.8028 48.3803 32.2052 48.9419 32.6327C51.269 34.5199 54.1316 35.6257 57.1231 35.7928L57.1147 63.463Z" fill="#060044"/>
<path id="Vector_2" d="M74.7679 35.9531V63.4053H59.6797V35.9531H74.7679Z" fill="#060044"/>
<path id="Vector_3" d="M25.0607 41.2687L15.1108 36.9099C15.1611 36.8093 15.2869 36.5662 15.421 36.3315L31.6325 8.18355C33.1413 5.56826 35.5303 4.93958 38.1539 6.44002L39.4951 7.2112C40.0321 7.48997 40.5047 7.87809 40.8826 8.35057C41.2605 8.82305 41.5353 9.36943 41.6893 9.95452C41.8432 10.5396 41.873 11.1505 41.7766 11.7478C41.6802 12.3451 41.4599 12.9155 41.1297 13.4225C38.1791 18.5525 35.2173 23.6797 32.2444 28.8041C29.9979 32.7494 27.7347 36.678 25.4547 40.5897C25.3122 40.8747 25.1613 41.1094 25.0607 41.2687Z" fill="#060044"/>
<path id="Vector_4" d="M8.4216 48.4434C11.5315 50.5054 15.1275 51.1425 18.4804 52.6345L13.6857 60.9414L4.29749 55.5264L8.4216 48.4434Z" fill="#060044"/>
<path id="Vector_5" d="M1.70733 55.1061C1.03863 54.5856 0.566603 53.8533 0.368615 53.0294C0.170627 52.2055 0.258426 51.3387 0.61762 50.5712C2.12644 46.9668 3.67718 43.3875 5.16085 39.7747C6.1457 37.3345 7.85777 35.2566 10.0645 33.8233C12.1434 32.4569 14.1886 31.0571 16.4184 29.5566C16.2591 29.8919 16.2004 30.068 16.1082 30.2272C14.9514 32.239 13.8031 34.2675 12.6044 36.2625C12.4106 36.5635 12.1118 36.7816 11.7661 36.8744C10.8239 37.0607 9.93263 37.4472 9.15269 38.0077C8.37275 38.5683 7.72233 39.2899 7.24546 40.1236C6.76858 40.9573 6.47637 41.8838 6.3886 42.8403C6.30083 43.7968 6.41956 44.7609 6.73674 45.6675C6.79583 45.9297 6.79583 46.2017 6.73674 46.4638C6.73674 46.598 6.59424 46.7321 6.5188 46.8662L1.70733 55.1061Z" fill="#060044"/>
<path id="Vector_6" d="M20.7855 53.7891C21.9842 54.5686 23.1661 55.3063 24.3145 56.0942C24.4273 56.1835 24.5205 56.2951 24.5883 56.422C24.6561 56.5489 24.697 56.6884 24.7085 56.8319C24.7085 57.888 24.7085 58.9526 24.7085 60.0088C24.7085 60.7491 24.4144 61.4591 23.8909 61.9825C23.3674 62.506 22.6575 62.8001 21.9172 62.8001C21.1769 62.8001 20.4669 62.506 19.9434 61.9825C19.4199 61.4591 19.1258 60.7491 19.1258 60.0088C19.1594 59.5707 19.1594 59.1308 19.1258 58.6927C18.8241 56.7899 19.6958 55.323 20.7855 53.7891Z" fill="#060044"/>
<path id="Vector_7" d="M11.6823 62.676L3.91187 67.1605V58.1914L11.6823 62.676Z" fill="#060044"/>
<path id="Vector_8" d="M27.2568 58.2656L31.9928 61.8952C31.6535 62.3343 31.1785 62.6489 30.6418 62.7899C30.1051 62.9309 29.5368 62.8904 29.0255 62.6747C27.5502 62.1131 27.0891 61.015 27.2568 58.2656Z" fill="#060044"/>
</g>
</svg>
