<svg width="175" height="142" viewBox="0 0 175 142" fill="none" xmlns="http://www.w3.org/2000/svg">
<path fill-rule="evenodd" clip-rule="evenodd" d="M56.62 18.5563C69.1921 7.0326 85.9482 -8.0423e-07 104.347 0C143.367 3.08835e-06 175 31.6325 175 70.6532C175 109.674 143.367 141.306 104.347 141.306C85.9482 141.306 69.1921 134.274 56.62 122.75C56.2655 122.562 55.9203 122.334 55.5891 122.063L5.99768 81.4886C-0.848541 75.8871 -0.848541 65.4192 5.99768 59.8178L55.5891 19.243C55.9203 18.972 56.2655 18.7439 56.62 18.5563Z" fill="url(#paint0_linear_1718_4539)"/>
<ellipse cx="52" cy="51.5" rx="52" ry="51.5" transform="matrix(4.37114e-08 -1 -1 -4.37114e-08 156 123)" fill="white"/>
<path d="M121.588 82.5304L119.95 84.1944C118.299 82.5499 116.713 80.9704 115.095 79.3649C119.58 73.8984 121.484 67.5999 120.405 60.5214C119.456 54.3139 116.375 49.2959 111.416 45.4414C101.887 38.0379 88.0159 39.3054 79.8129 48.3079C71.6099 57.3104 71.6489 71.1294 79.8779 80.0409C88.2499 89.1149 102.446 90.4344 112.397 82.0364C113.983 83.6289 115.576 85.2214 117.149 86.8009C116.622 87.3209 116.07 87.8734 115.524 88.4129C115.075 88.8549 115.062 89.5699 115.498 90.0249C117.766 92.4169 124.552 99.1704 126.957 101.536C127.412 101.985 128.147 101.978 128.595 101.517C130.045 100.022 133.132 96.9474 134.601 95.4719C135.05 95.0169 135.05 94.2889 134.601 93.8339C132.541 91.7799 130.474 89.7324 128.413 87.6784C126.697 85.9624 124.981 84.2464 123.239 82.5109C122.784 82.0559 122.043 82.0559 121.595 82.5109L121.588 82.5304ZM97.2134 80.4179C88.2499 80.4374 80.9114 73.1184 80.8984 64.1484C80.8919 55.1979 88.1784 47.8854 97.1224 47.8594C106.105 47.8334 113.437 55.1199 113.457 64.0899C113.476 73.0729 106.183 80.3984 97.2134 80.4179Z" fill="#060044"/>
<path d="M131.813 55.2172V51.6357H128.192V55.1977H124.585V58.8182H128.147V62.4257H131.767V58.8442H135.407V55.2237H131.813V55.2172Z" fill="#060044"/>
<path d="M84.636 102.375H88.2565V98.7939H84.636V102.375Z" fill="#060044"/>
<path d="M81.0414 84.1885H77.4209V87.7765H73.6899V91.371H77.3819V94.972H81.0024V91.41H84.6034V87.7895H81.0349V84.1885H81.0414Z" fill="#060044"/>
<path d="M124.397 44.4014H120.828V47.9504H124.397V44.4014Z" fill="#060044"/>
<path d="M101.542 52.0133C100.106 51.9873 98.6369 51.9678 97.1809 51.9678C95.7249 51.9678 94.2754 51.9938 92.8259 52.0133C88.6659 52.0913 85.7149 55.0683 85.6369 59.2348C85.6044 60.4178 85.6109 61.5878 85.6109 62.7253C85.6239 63.2453 85.6239 63.7588 85.6239 64.2723V65.7543C85.6109 66.8658 85.6109 68.0163 85.6239 69.1668C85.6954 73.4633 88.7244 76.4793 92.9949 76.5053C94.4509 76.5183 95.9134 76.5313 97.3694 76.5313C98.7149 76.5313 100.067 76.5183 101.412 76.5053C105.533 76.4728 108.588 73.5088 108.679 69.4658C108.757 65.9883 108.757 62.4718 108.679 59.0138C108.575 55.0423 105.579 52.0913 101.536 52.0068L101.542 52.0133ZM106.112 69.4073C106.04 72.0853 104.077 73.8988 101.393 73.9313C100.047 73.9443 98.7149 73.9443 97.3759 73.9443C95.9199 73.9443 94.4704 73.9443 93.0209 73.9313C90.1479 73.9053 88.2564 72.0138 88.2109 69.1343C88.1849 67.5158 88.2109 65.8973 88.2109 64.2788C88.2109 62.6603 88.1784 60.9508 88.2109 59.2933C88.2694 56.5243 90.1024 54.6458 92.8714 54.5938C94.3079 54.5613 95.7444 54.5483 97.1744 54.5483C98.6044 54.5483 100.047 54.5613 101.49 54.5938C104.129 54.6393 106.04 56.4528 106.092 59.0853C106.183 62.5173 106.183 65.9623 106.105 69.4073H106.112Z" fill="#060044"/>
<path d="M101.302 61.0216C100.788 60.2546 99.742 60.3456 99.2025 61.1451C98.5265 62.1656 97.9025 63.2121 97.181 64.3626C96.492 63.2706 95.881 62.2696 95.2505 61.2946C94.5745 60.2351 93.515 60.2351 92.826 61.3076C91.8705 62.8221 90.9215 64.3496 89.979 65.8771C89.485 66.6701 89.6085 67.3786 90.252 67.7946C90.8955 68.1976 91.5975 67.9896 92.0915 67.1966C92.722 66.2086 93.346 65.2076 94.035 64.1091C94.5745 64.9736 95.1595 65.7276 95.5755 66.5531C96.4725 68.3796 97.8505 68.4381 98.767 66.5791C99.183 65.7536 99.742 64.9931 100.307 64.1091C100.996 65.2141 101.653 66.2216 102.283 67.2551C102.628 67.7946 103.076 68.0936 103.72 67.9571C104.513 67.7816 104.961 66.8911 104.532 66.1761C103.486 64.4276 102.42 62.7051 101.308 61.0216H101.302Z" fill="#060044"/>
<defs>
<linearGradient id="paint0_linear_1718_4539" x1="34.1539" y1="15.0658" x2="132.27" y2="135.978" gradientUnits="userSpaceOnUse">
<stop stop-color="#18C8FF"/>
<stop offset="1" stop-color="#C608FF"/>
</linearGradient>
</defs>
</svg>
