<svg width="175" height="142" viewBox="0 0 175 142" fill="none" xmlns="http://www.w3.org/2000/svg">
<g id="Frame 38716">
<path id="Union" fill-rule="evenodd" clip-rule="evenodd" d="M118.38 18.5563C105.808 7.0326 89.0518 -8.04663e-07 70.6532 0C31.6325 1.72853e-06 -1.70565e-06 31.6325 0 70.6532C3.08835e-06 109.674 31.6325 141.306 70.6532 141.306C89.0518 141.306 105.808 134.274 118.38 122.75C118.735 122.562 119.08 122.334 119.411 122.063L169.002 81.4886C175.849 75.8871 175.849 65.4192 169.002 59.8178L119.411 19.243C119.08 18.972 118.735 18.7439 118.38 18.5563Z" fill="url(#paint0_linear_1718_4538)"/>
<ellipse id="Ellipse 186" cx="70.5" cy="71" rx="52" ry="51.5" transform="rotate(-90 70.5 71)" fill="white"/>
<g id="CLients Brief 1">
<path id="Vector" d="M89.2654 65.4885C89.2264 63.4995 87.9069 62.1475 85.9179 62.115C84.8844 62.089 83.8574 62.0825 82.8239 62.0825C81.7904 62.0825 80.7634 62.089 79.7234 62.115C77.8254 62.1475 76.4539 63.454 76.4149 65.339C76.3499 67.809 76.3499 70.279 76.4084 72.7555C76.4604 74.6795 77.8709 75.9795 79.8014 76.0055C80.7699 76.012 81.7254 76.012 82.6874 76.012C83.7339 76.012 84.7739 76.012 85.8139 76.0055C87.8744 75.986 89.2394 74.6275 89.2719 72.554C89.2914 71.3905 89.2719 70.227 89.2719 69.0635C89.2719 67.9 89.2979 66.6715 89.2719 65.482L89.2654 65.4885ZM87.7964 71.5985C87.3349 71.8845 86.8279 71.7415 86.4769 71.1695C86.0219 70.461 85.5799 69.7395 85.0794 68.9465C84.6894 69.564 84.2734 70.11 83.9744 70.7015C83.3309 72.0145 82.3429 72.0535 81.6799 70.721C81.3809 70.1295 80.9779 69.5835 80.5749 68.9465C80.0809 69.7395 79.6064 70.4675 79.1579 71.2085C78.9109 71.5985 78.5859 71.813 78.1244 71.709C77.5524 71.5855 77.2339 70.942 77.5394 70.4285C78.2934 69.174 79.0604 67.939 79.8599 66.7235C80.2304 66.171 80.9844 66.236 81.3679 66.8145C81.8554 67.549 82.2974 68.303 82.8174 69.122C83.3114 68.3355 83.7469 67.6205 84.2019 66.9185C84.6894 66.158 85.4499 66.158 85.9439 66.925C86.6264 68.017 87.3154 69.109 87.9914 70.2075C88.3489 70.7795 88.2579 71.2865 87.7964 71.5855V71.5985ZM89.2654 65.4885C89.2264 63.4995 87.9069 62.1475 85.9179 62.115C84.8844 62.089 83.8574 62.0825 82.8239 62.0825C81.7904 62.0825 80.7634 62.089 79.7234 62.115C77.8254 62.1475 76.4539 63.454 76.4149 65.339C76.3499 67.809 76.3499 70.279 76.4084 72.7555C76.4604 74.6795 77.8709 75.9795 79.8014 76.0055C80.7699 76.012 81.7254 76.012 82.6874 76.012C83.7339 76.012 84.7739 76.012 85.8139 76.0055C87.8744 75.986 89.2394 74.6275 89.2719 72.554C89.2914 71.3905 89.2719 70.227 89.2719 69.0635C89.2719 67.9 89.2979 66.6715 89.2719 65.482L89.2654 65.4885ZM87.7964 71.5985C87.3349 71.8845 86.8279 71.7415 86.4769 71.1695C86.0219 70.461 85.5799 69.7395 85.0794 68.9465C84.6894 69.564 84.2734 70.11 83.9744 70.7015C83.3309 72.0145 82.3429 72.0535 81.6799 70.721C81.3809 70.1295 80.9779 69.5835 80.5749 68.9465C80.0809 69.7395 79.6064 70.4675 79.1579 71.2085C78.9109 71.5985 78.5859 71.813 78.1244 71.709C77.5524 71.5855 77.2339 70.942 77.5394 70.4285C78.2934 69.174 79.0604 67.939 79.8599 66.7235C80.2304 66.171 80.9844 66.236 81.3679 66.8145C81.8554 67.549 82.2974 68.303 82.8174 69.122C83.3114 68.3355 83.7469 67.6205 84.2019 66.9185C84.6894 66.158 85.4499 66.158 85.9439 66.925C86.6264 68.017 87.3154 69.109 87.9914 70.2075C88.3489 70.7795 88.2579 71.2865 87.7964 71.5855V71.5985ZM95.5119 58.293H94.9984C91.8199 58.293 88.6414 58.3255 85.4564 58.2865C81.0429 58.215 77.5914 55.1535 77.0389 50.766C76.7854 48.7185 76.9739 46.658 76.9479 44.6105C76.9284 42.966 76.9479 41.328 76.9479 39.625H51.7539C47.9969 39.625 45.5464 42.082 45.5464 45.865V95.148C45.5464 98.905 48.0164 101.382 51.7669 101.382H89.3889C93.1459 101.382 95.6029 98.905 95.6029 95.1415V58.995C95.6029 58.7805 95.6679 58.5465 95.5119 58.293ZM51.5524 77.0975C50.6294 77.0975 50.0184 76.519 50.0249 75.739C50.0314 74.946 50.6359 74.4195 51.5784 74.4195H69.0244C69.7394 74.426 70.2464 74.7835 70.4024 75.3945C70.5454 75.973 70.3699 76.467 69.8889 76.831C69.6159 77.0455 69.2779 77.1105 68.9334 77.1105C63.1419 77.1105 57.3504 77.117 51.5524 77.104V77.0975ZM66.3919 81.94C66.3724 82.759 65.8134 83.2465 64.8384 83.2465C62.6284 83.253 60.4184 83.2465 58.2019 83.2465C56.0179 83.253 53.8274 83.253 51.6434 83.2465C50.6424 83.2465 50.0249 82.733 50.0249 81.9205C50.0184 81.121 50.6489 80.5685 51.6239 80.5685C56.0244 80.562 60.4184 80.562 64.8189 80.5685C65.8004 80.5685 66.4049 81.121 66.3854 81.9465L66.3919 81.94ZM68.8554 70.916C65.9694 70.9225 63.0899 70.9225 60.1974 70.9225C57.2919 70.916 54.3799 70.9225 51.4744 70.916C50.6099 70.916 50.0054 70.331 50.0249 69.564C50.0314 68.823 50.6164 68.2705 51.4419 68.225C51.6239 68.2185 51.8059 68.225 51.9879 68.225H68.8294C69.8174 68.2315 70.4284 68.745 70.4414 69.564C70.4479 70.396 69.8564 70.916 68.8554 70.916ZM48.3739 58.449C49.4139 54.861 51.7409 52.417 55.1794 50.922C53.4374 47.828 53.7039 45.267 55.9204 43.4145C57.8899 41.77 60.7824 41.7895 62.7584 43.4665C64.9099 45.28 65.1569 47.9255 63.4344 50.935C64.7929 51.494 66.0279 52.248 67.1004 53.2555C68.6344 54.6985 69.6939 56.434 70.2724 58.449C70.9159 60.6915 69.4079 62.856 67.0679 62.8885C61.9004 62.947 56.7394 62.9405 51.5719 62.8885C49.2384 62.8625 47.7174 60.7045 48.3674 58.4555L48.3739 58.449ZM60.9774 97.15C57.8249 97.1565 54.6724 97.1565 51.5199 97.15C50.6424 97.1435 50.0444 96.5715 50.0314 95.8045C50.0249 95.018 50.6424 94.4655 51.5589 94.459H60.9514C61.8679 94.4655 62.4399 94.9595 62.4594 95.746C62.4789 96.552 61.8809 97.1435 60.9709 97.15H60.9774ZM73.9644 97.15C71.2929 97.1695 68.6084 97.1695 65.9239 97.15C65.0009 97.1435 64.4289 96.565 64.4614 95.7395C64.4874 94.953 65.0399 94.4655 65.9629 94.459H69.9474C71.2734 94.459 72.6124 94.4525 73.9384 94.4655C74.8159 94.4655 75.4074 95.018 75.4139 95.785C75.4204 96.5455 74.8289 97.137 73.9514 97.1435L73.9644 97.15ZM89.5124 97.15C87.9849 97.1565 86.4509 97.1565 84.9234 97.1565C83.3244 97.15 81.7189 97.163 80.1264 97.15C79.3399 97.1305 78.8004 96.6365 78.7094 95.9605C78.6379 95.3495 79.0149 94.732 79.6064 94.5305C79.8209 94.472 80.0549 94.4655 80.2759 94.4655C83.3634 94.459 86.4379 94.459 89.5254 94.459C90.5069 94.4655 91.1244 94.9985 91.1244 95.8045C91.1179 96.6105 90.4809 97.15 89.5059 97.15H89.5124ZM89.2394 90.195H51.8969C51.8319 90.195 51.7539 90.2015 51.6889 90.195C50.6294 90.1885 50.0119 89.6815 50.0249 88.8495C50.0249 88.0175 50.6424 87.5235 51.7084 87.5235H89.2524C90.4874 87.5235 91.1309 87.985 91.1244 88.869C91.1179 89.753 90.4809 90.195 89.2329 90.195H89.2394ZM89.6424 83.2465C87.3674 83.253 85.0859 83.2465 82.8109 83.2465H75.9144C75.3359 83.2465 74.9069 83.006 74.6534 82.4925C74.4194 82.0245 74.4714 81.5695 74.7704 81.147C75.1149 80.6465 75.6284 80.5555 76.2004 80.5555C80.4644 80.562 84.7219 80.562 88.9924 80.562C89.2134 80.562 89.4474 80.5555 89.6684 80.562C90.5459 80.5945 91.1374 81.1535 91.1374 81.914C91.1309 82.681 90.5329 83.24 89.6489 83.24L89.6424 83.2465ZM91.1309 67.952C91.1244 68.3225 91.1244 68.693 91.1244 69.0635V70.1295C91.1309 70.929 91.1309 71.7545 91.1244 72.58C91.0724 75.6675 88.8949 77.8385 85.8269 77.8515C84.7804 77.858 83.7339 77.871 82.6809 77.871C81.7124 77.871 80.7439 77.8645 79.7754 77.8515C76.8114 77.8255 74.6209 75.7 74.5494 72.7945C74.4909 70.292 74.4909 67.77 74.5494 65.287C74.6209 62.4335 76.7789 60.308 79.6844 60.256C80.7179 60.2365 81.7709 60.2235 82.8174 60.2235C83.8639 60.2235 84.9039 60.243 85.9439 60.256C88.9339 60.3145 91.0529 62.453 91.1114 65.4495C91.1374 66.301 91.1309 67.1395 91.1309 67.9585V67.952ZM89.2654 65.4885C89.2264 63.4995 87.9069 62.1475 85.9179 62.115C84.8844 62.089 83.8574 62.0825 82.8239 62.0825C81.7904 62.0825 80.7634 62.089 79.7234 62.115C77.8254 62.1475 76.4539 63.454 76.4149 65.339C76.3499 67.809 76.3499 70.279 76.4084 72.7555C76.4604 74.6795 77.8709 75.9795 79.8014 76.0055C80.7699 76.012 81.7254 76.012 82.6874 76.012C83.7339 76.012 84.7739 76.012 85.8139 76.0055C87.8744 75.986 89.2394 74.6275 89.2719 72.554C89.2914 71.3905 89.2719 70.227 89.2719 69.0635C89.2719 67.9 89.2979 66.6715 89.2719 65.482L89.2654 65.4885ZM87.7964 71.5985C87.3349 71.8845 86.8279 71.7415 86.4769 71.1695C86.0219 70.461 85.5799 69.7395 85.0794 68.9465C84.6894 69.564 84.2734 70.11 83.9744 70.7015C83.3309 72.0145 82.3429 72.0535 81.6799 70.721C81.3809 70.1295 80.9779 69.5835 80.5749 68.9465C80.0809 69.7395 79.6064 70.4675 79.1579 71.2085C78.9109 71.5985 78.5859 71.813 78.1244 71.709C77.5524 71.5855 77.2339 70.942 77.5394 70.4285C78.2934 69.174 79.0604 67.939 79.8599 66.7235C80.2304 66.171 80.9844 66.236 81.3679 66.8145C81.8554 67.549 82.2974 68.303 82.8174 69.122C83.3114 68.3355 83.7469 67.6205 84.2019 66.9185C84.6894 66.158 85.4499 66.158 85.9439 66.925C86.6264 68.017 87.3154 69.109 87.9914 70.2075C88.3489 70.7795 88.2579 71.2865 87.7964 71.5855V71.5985Z" fill="#060044"/>
<path id="Vector_2" d="M93.4579 55.5957C90.8124 55.5957 88.1084 55.6347 85.4044 55.5892C82.1479 55.5307 79.6714 52.9957 79.6454 49.7392C79.6259 47.0612 79.6454 44.3832 79.6454 41.8027C84.2279 46.3852 88.8494 50.9937 93.4579 55.5957Z" fill="#060044"/>
<path id="Vector_3" d="M59.3199 60.2169C56.8824 60.2169 54.4514 60.2169 52.0139 60.2169C50.9739 60.2169 50.7334 59.8724 51.0519 58.8714C52.2089 55.2574 55.5954 52.8199 59.3914 52.8589C63.1939 52.8979 66.5024 55.3419 67.6139 58.9364C67.8999 59.8594 67.6464 60.2104 66.6974 60.2104C64.2404 60.2104 61.7834 60.2104 59.3199 60.2104V60.2169Z" fill="#060044"/>
<path id="Vector_4" d="M59.3265 44.8897C60.7825 44.8897 61.9265 46.0337 61.9395 47.4962C61.9525 48.9717 60.763 50.1807 59.307 50.1677C57.8965 50.1547 56.6875 48.9522 56.668 47.5352C56.6485 46.0857 57.851 44.8832 59.3265 44.8897Z" fill="#060044"/>
</g>
</g>
<defs>
<linearGradient id="paint0_linear_1718_4538" x1="140.846" y1="15.0658" x2="42.7298" y2="135.978" gradientUnits="userSpaceOnUse">
<stop stop-color="#18C8FF"/>
<stop offset="1" stop-color="#C608FF"/>
</linearGradient>
</defs>
</svg>
