<svg width="175" height="142" viewBox="0 0 175 142" fill="none" xmlns="http://www.w3.org/2000/svg">
<g id="Frame 38718">
<path id="Union" fill-rule="evenodd" clip-rule="evenodd" d="M118.38 18.5563C105.808 7.0326 89.0518 -8.0423e-07 70.6532 0C31.6325 3.08835e-06 0 31.6325 0 70.6532C0 109.674 31.6325 141.306 70.6532 141.306C89.0518 141.306 105.808 134.274 118.38 122.75C118.735 122.562 119.08 122.334 119.411 122.063L169.002 81.4886C175.849 75.8871 175.849 65.4192 169.002 59.8178L119.411 19.243C119.08 18.972 118.735 18.7439 118.38 18.5563Z" fill="url(#paint0_linear_1718_4540)"/>
<ellipse id="Ellipse 186" cx="70.5" cy="71" rx="52" ry="51.5" transform="rotate(-90 70.5 71)" fill="white"/>
<g id="Design &#38; Development 1">
<path id="Vector" d="M95.7655 89.1016V65.1621C95.7655 63.9661 94.797 62.9976 93.601 62.9976C92.405 62.9976 91.4365 63.9661 91.4365 65.1621V89.1016C89.571 89.8361 88.2645 91.1491 87.53 93.0211H54.952C54.952 93.0211 54.952 93.0211 54.9455 93.0211H52.1895C51.455 91.1491 50.1485 89.8361 48.283 89.1081V53.9236C50.584 52.7211 51.1625 52.1426 52.2155 49.9781H52.898C62.0435 49.9781 71.189 49.9781 80.3345 49.9781C82.0375 49.9781 83.1165 48.5481 82.5575 47.0661C82.226 46.1821 81.446 45.6751 80.393 45.6751C77.3445 45.6751 74.296 45.6751 71.2475 45.6751H52.222C51.0975 42.7501 48.1595 40.8651 44.8445 41.4956C42.199 41.9961 40.158 44.1671 39.703 47.0141C39.2545 49.8026 40.7365 52.2141 43.941 53.9236V89.1081C42.121 89.8296 40.7885 91.0581 40.0735 92.8976C38.8385 96.0696 40.3855 99.7291 43.512 101.094C46.697 102.479 50.3825 101.133 51.8645 97.9871C52.118 97.4476 52.404 97.3241 52.963 97.3241C53.6195 97.3241 54.2695 97.3241 54.926 97.3241C54.9715 97.3241 55.0105 97.3371 55.0625 97.3371C60.2625 97.3371 65.4495 97.3371 70.643 97.3306C75.31 97.3306 79.977 97.3371 84.644 97.3306C84.683 97.3306 84.722 97.3176 84.761 97.3176C85.4175 97.3176 86.0805 97.3176 86.737 97.3176C87.2895 97.3176 87.5755 97.4411 87.8355 97.9871C89.3175 101.133 93.003 102.479 96.1815 101.101C99.308 99.7291 100.855 96.0826 99.62 92.9041C98.9115 91.0776 97.5725 89.8361 95.7525 89.1146L95.7655 89.1016Z" fill="#060044"/>
<path id="Vector_2" d="M89.3696 59.053C92.1581 56.2385 94.9466 53.424 97.7416 50.616C97.8781 50.473 97.9301 50.3365 97.8911 50.148C97.6961 49.3095 97.3906 48.523 96.8576 47.834C93.8871 50.811 90.9426 53.7555 87.9851 56.713C88.5376 57.415 88.9536 58.2275 89.2461 59.0985C89.3046 59.0725 89.3436 59.0725 89.3631 59.0465L89.3696 59.053Z" fill="#060044"/>
<path id="Vector_3" d="M95.5899 46.5658C94.9464 46.0718 94.2184 45.7663 93.4319 45.5648C93.1069 45.4803 92.8924 45.5388 92.6519 45.7793C89.9999 48.4313 87.3349 51.0768 84.6764 53.7223C84.5464 53.8523 84.3579 53.9433 84.3384 54.1773C85.2289 54.4438 86.0154 54.9053 86.7434 55.4448C89.6944 52.4808 92.6259 49.5428 95.5964 46.5658H95.5899Z" fill="#060044"/>
<path id="Vector_4" d="M82.3496 62.1269C82.9736 61.9644 83.5846 61.7694 84.2021 61.5874C85.4176 61.2364 86.6266 60.8789 87.8356 60.5279C87.5756 58.0319 85.4436 55.8869 82.8956 55.5684C82.3496 57.4339 81.7971 59.2799 81.2771 61.1389C81.1016 61.7824 81.6866 62.3024 82.3496 62.1269Z" fill="#060044"/>
<path id="Vector_5" d="M100.952 43.8622C100.244 42.5817 99.1389 41.9642 97.6764 42.0617C96.2594 42.1527 95.3104 43.0367 94.4004 44.0897C96.8509 44.9412 98.4564 46.5792 99.2884 48.8997C99.7304 48.4902 100.211 48.1262 100.588 47.6842C101.485 46.6247 101.622 45.0907 100.946 43.8622H100.952Z" fill="#060044"/>
<path id="Vector_6" d="M77.9035 73.9309C80.6205 71.1359 81.745 67.7689 81.03 63.9274C79.886 57.8369 74.5625 53.9889 68.407 54.6844C62.05 55.3994 57.461 61.6914 58.7025 67.9574C59.203 70.4989 60.373 72.6439 62.3035 74.3729C63.3305 75.2894 63.9545 76.4074 64.1235 77.7724C64.1755 78.2339 64.2015 78.7019 64.2405 79.1699H75.5245C75.557 78.7084 75.557 78.2989 75.6155 77.8894C75.8495 76.2709 76.792 75.0749 77.9035 73.9309ZM75.1085 69.5759C74.621 69.8814 74.0945 69.7189 73.7175 69.1274C73.2365 68.3799 72.775 67.6259 72.2485 66.7874C71.839 67.4374 71.397 68.0094 71.085 68.6399C70.409 70.0179 69.369 70.0634 68.6735 68.6529C68.3615 68.0289 67.939 67.4569 67.51 66.7874C66.99 67.6194 66.496 68.3864 66.015 69.1664C65.7615 69.5759 65.417 69.7969 64.936 69.6929C64.338 69.5629 64 68.8934 64.3185 68.3539C65.105 67.0344 65.911 65.7279 66.756 64.4539C67.146 63.8689 67.939 63.9404 68.342 64.5514C68.8555 65.3184 69.33 66.1114 69.876 66.9824C70.396 66.1569 70.8575 65.4029 71.332 64.6619C71.8455 63.8624 72.645 63.8624 73.1585 64.6749C73.8865 65.8189 74.6015 66.9694 75.3165 68.1264C75.687 68.7244 75.596 69.2639 75.1085 69.5759Z" fill="#060044"/>
<path id="Vector_7" d="M67.8221 88.6402C69.2001 88.6792 70.5781 88.6792 71.9561 88.6402C73.9451 88.5817 75.5766 86.8526 75.5246 84.8896H64.2146C64.2666 86.9501 65.8331 88.5882 67.8286 88.6402H67.8221Z" fill="#060044"/>
<path id="Vector_8" d="M75.5439 81.1133H64.2339V82.9398H75.5439V81.1133Z" fill="#060044"/>
<path id="Vector_9" d="M56.5251 79.1829C57.0776 79.1829 57.5131 79.0529 57.8511 78.7279C58.5726 78.0324 59.3006 77.3369 59.9766 76.5959C60.6331 75.8744 60.5551 74.7694 59.8726 74.0739C59.1771 73.3654 58.0526 73.2874 57.3116 73.9634C56.5706 74.6394 55.8556 75.3544 55.1861 76.0954C54.6661 76.6674 54.5946 77.3759 54.9261 78.0844C55.2511 78.7929 55.8361 79.1374 56.5316 79.1829H56.5251Z" fill="#060044"/>
<path id="Vector_10" d="M81.7644 78.6048C82.1414 78.9883 82.6029 79.1768 83.2334 79.1833C83.9354 79.1378 84.5399 78.7738 84.8584 78.0393C85.1769 77.3048 85.0599 76.5963 84.5139 76.0113C83.8964 75.3483 83.2464 74.7178 82.5964 74.0873C81.7904 73.3138 80.6464 73.3138 79.8989 74.0613C79.1514 74.8153 79.1579 75.9528 79.9314 76.7588C80.5359 77.3828 81.1534 77.9873 81.7644 78.5983V78.6048Z" fill="#060044"/>
<path id="Vector_11" d="M56.6289 65.9364C56.6289 64.9354 55.8424 64.0839 54.8284 64.0449C54.1394 64.0189 53.4504 64.0189 52.7679 64.0449C51.7474 64.0839 50.9609 64.9159 50.9609 65.9234C50.9609 66.9244 51.7474 67.7629 52.7614 67.8149C53.0929 67.8344 53.4309 67.8149 53.7624 67.8149C54.1134 67.8149 54.4709 67.8279 54.8219 67.8149C55.8359 67.7629 56.6289 66.9309 56.6289 65.9299V65.9364Z" fill="#060044"/>
<path id="Vector_12" d="M88.7975 65.9422C88.7975 64.9412 88.011 64.1027 86.997 64.0507C86.6655 64.0312 86.3275 64.0507 85.996 64.0507C85.645 64.0507 85.2875 64.0377 84.9365 64.0507C83.916 64.1027 83.1295 64.9217 83.123 65.9292C83.123 66.9302 83.9095 67.7817 84.9235 67.8207C85.6125 67.8467 86.3015 67.8467 86.984 67.8207C88.0045 67.7817 88.791 66.9432 88.7975 65.9422Z" fill="#060044"/>
</g>
</g>
<defs>
<linearGradient id="paint0_linear_1718_4540" x1="140.846" y1="15.0658" x2="42.7298" y2="135.978" gradientUnits="userSpaceOnUse">
<stop stop-color="#18C8FF"/>
<stop offset="1" stop-color="#C608FF"/>
</linearGradient>
</defs>
</svg>
