<svg width="175" height="142" viewBox="0 0 175 142" fill="none" xmlns="http://www.w3.org/2000/svg">
<g id="Frame 38719">
<path id="Union" fill-rule="evenodd" clip-rule="evenodd" d="M56.62 18.5563C69.1921 7.0326 85.9482 -8.0423e-07 104.347 0C143.367 3.08835e-06 175 31.6325 175 70.6532C175 109.674 143.367 141.306 104.347 141.306C85.9482 141.306 69.1921 134.274 56.62 122.75C56.2655 122.562 55.9203 122.334 55.5891 122.063L5.99768 81.4886C-0.848541 75.8871 -0.848541 65.4192 5.99768 59.8178L55.5891 19.243C55.9203 18.972 56.2655 18.7439 56.62 18.5563Z" fill="url(#paint0_linear_1718_4541)"/>
<ellipse id="Ellipse 186" cx="52" cy="51.5" rx="52" ry="51.5" transform="matrix(4.37114e-08 -1 -1 -4.37114e-08 156 123)" fill="white"/>
<g id="Feedback &#38; Revision 1">
<path id="Vector" d="M125.268 73.464C124.254 73.672 123.22 73.7695 122.2 73.7695C114.621 73.7695 107.835 68.1275 106.424 60.6395C105.527 55.8815 106.691 51.3575 109.811 47.5615C100.23 47.555 90.668 47.5485 81.1 47.5745C76.9595 47.581 73.651 50.987 73.6315 55.1275C73.6185 58.787 73.6315 62.44 73.6315 66.093C73.6315 71.5725 73.625 77.039 73.638 82.512C73.6445 86.4315 76.628 89.6815 80.528 90.0065C82.712 90.1885 84.909 90.052 87.0995 90.0715C89.667 90.0845 92.228 90.0715 94.8605 90.0715V90.7345C94.8605 92.9835 94.854 95.2325 94.867 97.488C94.8735 98.632 95.7185 99.347 96.752 99.1195C97.116 99.0415 97.3825 98.8075 97.6685 98.593C101.315 95.8565 104.968 93.133 108.608 90.3835C108.907 90.156 109.206 90.065 109.577 90.065C114.166 90.0715 118.742 90.0715 123.331 90.0715C123.922 90.0715 124.514 90.0455 125.099 89.9285C128.81 89.1745 131.28 86.1715 131.287 82.3365C131.293 80.3605 131.293 78.378 131.293 76.402V70.89C129.506 72.138 127.465 73.0285 125.274 73.4575L125.268 73.464ZM84.4865 56.6745H99.352C100.028 56.6745 100.542 56.967 100.808 57.5975C101.055 58.176 100.964 58.7155 100.555 59.1965C100.223 59.58 99.7745 59.7165 99.287 59.7165C94.3275 59.7165 89.3745 59.723 84.4215 59.7165C83.3945 59.71 82.751 59.086 82.751 58.189C82.751 57.292 83.4205 56.6745 84.4865 56.6745ZM100.522 68.342C100.158 68.7385 99.677 68.8165 99.1635 68.8165C97.272 68.81 95.374 68.81 93.4825 68.81C90.4795 68.81 87.483 68.8165 84.48 68.81C83.505 68.81 82.8615 68.329 82.764 67.5425C82.621 66.5675 83.31 65.8005 84.363 65.8005C86.846 65.794 89.3355 65.8005 91.8185 65.8005C94.3015 65.8005 96.8755 65.794 99.3975 65.8005C100.08 65.8005 100.574 66.1255 100.821 66.756C101.042 67.341 100.938 67.8805 100.516 68.3485L100.522 68.342ZM120.796 77.9035C120.581 77.9165 120.36 77.91 120.139 77.91C114.257 77.9165 108.374 77.9165 102.492 77.9165C96.609 77.9165 90.4795 77.9165 84.48 77.91C83.4075 77.91 82.7445 77.3185 82.7445 76.402C82.7445 75.622 83.297 74.998 84.0705 74.9135C84.2655 74.9005 84.467 74.9005 84.662 74.9005H120.269C121.407 74.9005 121.985 75.2775 122.148 76.1225C122.31 77.0195 121.706 77.832 120.789 77.9035H120.796Z" fill="#060044"/>
<g id="Group">
<path id="Vector_2" d="M135.31 51.1362C135.102 51.3962 134.855 51.6107 134.595 51.8122C130.363 55.0947 126.132 58.3772 121.913 61.6727C121.504 61.9912 121.094 62.1212 120.587 62.0302C120.08 61.9392 119.56 61.9002 119.047 61.8287C118.371 61.7312 118.02 61.2892 118.098 60.6132C118.163 60.0217 118.247 59.4302 118.319 58.8387C118.358 58.4812 118.527 58.2147 118.806 57.9937C123.187 54.5942 127.568 51.1882 131.956 47.7822C132.495 47.3662 133.035 47.4182 133.451 47.9382C134.016 48.6467 134.569 49.3617 135.115 50.0832C135.225 50.2327 135.29 50.4147 135.381 50.5837L135.316 51.1232L135.31 51.1362Z" fill="#060044"/>
<path id="Vector_3" d="M133.165 58.8841C134.237 58.8841 135.011 59.9046 134.731 60.9381C133.6 65.1371 129.999 69.3101 124.65 70.3761C117.506 71.8061 110.792 66.7621 109.524 60.0541C108.777 56.0891 109.765 52.5466 112.319 49.4786C114.718 46.5926 117.818 45.0326 121.569 44.7531C121.939 44.7271 122.225 44.4281 122.225 44.0641V42.1661C122.225 41.8931 122.531 41.7436 122.752 41.9061L128.27 46.0661C128.465 46.2156 128.465 46.5016 128.27 46.6511L122.765 50.7981C122.55 50.9606 122.238 50.8046 122.238 50.5381V48.7311C122.238 48.3346 121.913 48.0161 121.517 48.0356C117.883 48.1916 113.463 51.1426 112.67 56.1216C111.786 61.6401 115.66 66.6776 121.25 67.3211C125.969 67.8606 130.409 64.6106 131.611 60.0606C131.8 59.3586 132.443 58.8841 133.165 58.8841Z" fill="#060044"/>
</g>
</g>
</g>
<defs>
<linearGradient id="paint0_linear_1718_4541" x1="34.1539" y1="15.0658" x2="132.27" y2="135.978" gradientUnits="userSpaceOnUse">
<stop stop-color="#18C8FF"/>
<stop offset="1" stop-color="#C608FF"/>
</linearGradient>
</defs>
</svg>
