<svg width="175" height="142" viewBox="0 0 175 142" fill="none" xmlns="http://www.w3.org/2000/svg">
<g id="Frame 38720">
<path id="Union" fill-rule="evenodd" clip-rule="evenodd" d="M118.38 18.5563C105.808 7.0326 89.0518 -8.0423e-07 70.6532 0C31.6325 3.08835e-06 0 31.6325 0 70.6532C0 109.674 31.6325 141.306 70.6532 141.306C89.0518 141.306 105.808 134.274 118.38 122.75C118.735 122.562 119.08 122.334 119.411 122.063L169.002 81.4886C175.849 75.8871 175.849 65.4192 169.002 59.8178L119.411 19.243C119.08 18.972 118.735 18.7439 118.38 18.5563Z" fill="url(#paint0_linear_1718_4542)"/>
<ellipse id="Ellipse 186" cx="70.5" cy="71" rx="52" ry="51.5" transform="rotate(-90 70.5 71)" fill="white"/>
<g id="Final Delivery 1">
<path id="Vector" d="M84.995 62.1728C84.371 61.5358 83.825 60.9573 83.253 60.3983C81.5045 58.6888 78.8785 58.6758 77.2275 60.3528C75.5895 62.0168 75.6155 64.6038 77.3185 66.3328C78.95 67.9903 80.601 69.6283 82.2585 71.2598C82.525 71.5198 82.5965 71.7343 82.499 72.1113C81.9725 74.0938 81.4915 76.0893 80.965 78.0718C80.8675 78.4488 80.913 78.6503 81.2185 78.8973C83.4025 80.6458 85.554 82.4333 87.7445 84.1753C88.4855 84.7603 88.83 85.5078 88.869 86.4048C89.0445 90.3503 89.207 94.3023 89.363 98.2478C89.4085 99.4438 88.713 100.198 87.5235 100.263C86.867 100.302 86.2105 100.315 85.5475 100.334C84.345 100.367 83.63 99.6908 83.578 98.4753C83.435 95.0823 83.2855 91.6893 83.1555 88.2963C83.1425 87.9128 83.0125 87.6658 82.707 87.4318C80.393 85.6508 78.092 83.8503 75.791 82.0563C75.453 81.7898 75.0955 81.5558 74.66 81.3608C74.3805 81.9003 74.114 82.4268 73.8475 82.9533C72.658 85.3128 71.41 87.6528 70.2985 90.0513C69.811 91.0978 69.057 91.4033 68.0495 91.3643C66.2425 91.2928 64.429 91.1953 62.622 91.1043C60.464 90.9938 58.306 90.8768 56.148 90.7793C54.8805 90.7208 54.185 89.9733 54.25 88.7123C54.2825 88.0948 54.3085 87.4773 54.341 86.8598C54.406 85.5988 55.173 84.9163 56.4405 84.9943C59.19 85.1503 61.946 85.2998 64.6955 85.4883C65.1505 85.5208 65.3455 85.3583 65.534 84.9878C66.8405 82.4073 68.199 79.8528 69.4795 77.2593C70.1035 76.0048 70.266 74.5878 70.617 73.2423C71.865 68.4323 73.0805 63.6158 74.322 58.8058C74.855 56.7388 76.5775 55.7118 78.6445 56.2188C79.8405 56.5113 81.017 56.9273 82.226 57.1223C84.3645 57.4668 86.009 59.4558 85.0145 62.1728H84.995Z" fill="#060044"/>
<path id="Vector_2" d="M101.174 54.6129C101.128 54.1124 100.842 53.7939 100.355 53.7744C99.4315 53.7354 98.5085 53.7614 97.54 53.7614V57.0049C97.5335 57.9214 97.28 58.1879 96.383 58.1944C95.356 58.1944 94.329 58.1944 93.302 58.1879C92.4505 58.1879 92.197 57.9344 92.1905 57.0894V53.7549H89.7595C88.817 53.7549 88.5375 54.0344 88.531 54.9639V65.2014C88.5375 66.1309 88.817 66.4104 89.753 66.4104C93.1525 66.4169 96.5455 66.4169 99.9385 66.4104C100.92 66.4104 101.18 66.1504 101.18 65.1689V54.9834C101.18 54.8599 101.18 54.7364 101.174 54.6129ZM99.048 63.9079C98.6255 63.9989 98.333 63.8039 98.1055 63.4464C97.6895 62.7704 97.2605 62.1074 96.812 61.3794C96.4415 61.9644 96.071 62.4584 95.798 63.0044C95.1935 64.2264 94.29 64.1874 93.705 62.9849C93.432 62.4454 93.0485 61.9449 92.691 61.3794C92.2425 62.1074 91.833 62.7639 91.417 63.4074C91.092 63.9274 90.637 64.0639 90.2145 63.8039C89.792 63.5309 89.7075 63.0629 90.0325 62.5429C90.65 61.5419 91.274 60.5344 91.898 59.5399C92.353 58.8379 93.0485 58.8379 93.4905 59.5334C93.9065 60.1769 94.303 60.8334 94.758 61.5484C95.2325 60.7944 95.642 60.1054 96.084 59.4359C96.4415 58.9094 97.124 58.8509 97.4685 59.3514C98.1965 60.4629 98.8985 61.5939 99.581 62.7379C99.8605 63.2059 99.568 63.7974 99.048 63.9079Z" fill="#060044"/>
<path id="Vector_3" d="M93.3021 73.0799C91.8851 73.0799 90.4616 73.0799 89.0446 73.0799C87.3481 73.0734 85.8986 72.5469 84.6896 71.2859C82.6811 69.1929 80.5881 67.1844 78.5536 65.1174C77.1886 63.7329 77.6501 61.5489 79.4311 60.9704C80.4451 60.6389 81.3291 60.9054 82.0766 61.6594C84.0916 63.6874 86.1261 65.7024 88.1346 67.7369C88.4336 68.0359 88.7326 68.1594 89.1551 68.1529C92.1776 68.1334 95.2066 68.1399 98.2291 68.1529C99.3081 68.1529 100.082 68.6924 100.491 69.6739C100.875 70.6034 100.719 71.4939 100.043 72.2609C99.5226 72.8524 98.8336 73.0864 98.0601 73.0864C96.4741 73.0864 94.8881 73.0864 93.3086 73.0864L93.3021 73.0799Z" fill="#060044"/>
<path id="Vector_4" d="M72.6124 58.4158C72.2224 59.9498 71.8389 61.4773 71.4554 63.0048C71.4034 63.2063 71.2929 63.3298 71.0654 63.3038C71.0264 63.3038 70.9809 63.3038 70.9419 63.3038C69.4664 63.0373 68.4784 63.7198 67.5164 64.7923C65.9174 66.5863 64.1949 68.2763 62.4854 69.9663C61.0684 71.3768 58.7674 70.7138 58.3189 68.7963C58.1239 67.9578 58.3189 67.1908 58.9234 66.5733C61.1854 64.2398 63.4474 61.9063 65.7354 59.6053C66.4829 58.8513 67.5099 58.5198 68.5304 58.4418C69.8564 58.3378 71.1954 58.4158 72.6059 58.4158H72.6124Z" fill="#060044"/>
<path id="Vector_5" d="M74.9199 48.3729C75.1149 46.4879 75.9599 44.9539 77.5134 43.8489C80.7309 41.5674 85.0989 42.7114 86.8019 46.2734C86.9709 46.6309 87.1594 46.7479 87.5429 46.7349C88.4659 46.7089 89.3954 46.7154 90.3184 46.7349C90.9359 46.7479 91.2869 47.0989 91.2739 47.6254C91.2609 48.1259 90.9229 48.4509 90.3249 48.4509C85.2419 48.4509 80.1589 48.4509 75.0824 48.4509C75.0499 48.4509 75.0109 48.4184 74.9264 48.3794L74.9199 48.3729Z" fill="#060044"/>
<path id="Vector_6" d="M75.8235 50.1992H86.542C86.4315 51.9542 85.7165 53.3647 84.293 54.3592C82.46 55.6397 80.51 55.7242 78.5405 54.6972C76.87 53.8197 75.739 51.9087 75.83 50.2057L75.8235 50.1992Z" fill="#060044"/>
<path id="Vector_7" d="M50.0835 76.7323C47.659 76.7323 45.228 76.7323 42.8035 76.7323C42.5955 76.7323 42.3875 76.7323 42.186 76.6998C41.7635 76.6218 41.5425 76.3163 41.523 75.9198C41.497 75.5168 41.692 75.1918 42.1015 75.0813C42.3355 75.0163 42.589 75.0098 42.8295 75.0098C47.6655 75.0098 52.5015 75.0098 57.331 75.0098C57.5585 75.0098 57.786 75.0098 58.0005 75.0618C58.436 75.1723 58.657 75.4778 58.631 75.9263C58.605 76.3683 58.358 76.6543 57.9095 76.7128C57.669 76.7453 57.4155 76.7388 57.1685 76.7388C54.8025 76.7388 52.4365 76.7388 50.0705 76.7388L50.0835 76.7323Z" fill="#060044"/>
<path id="Vector_8" d="M47.4576 65.5722C49.5961 65.5722 51.7346 65.5722 53.8731 65.5722C54.0161 65.5722 54.1591 65.5657 54.3021 65.5722C54.8156 65.6112 55.1731 65.9622 55.1731 66.4302C55.1731 66.8982 54.8221 67.2687 54.3086 67.2947C53.7756 67.3207 53.2426 67.3012 52.7031 67.3012C48.8616 67.3012 45.0136 67.3012 41.1721 67.3012C41.0291 67.3012 40.8861 67.3012 40.7431 67.3012C40.1646 67.2687 39.8201 66.9437 39.8201 66.4367C39.8201 65.9297 40.1646 65.5787 40.7366 65.5722C42.1146 65.5592 43.4926 65.5722 44.8706 65.5722C45.7351 65.5722 46.5996 65.5722 47.4641 65.5722H47.4576Z" fill="#060044"/>
<path id="Vector_9" d="M54.8676 56.1409C56.7006 56.1409 58.5271 56.1409 60.3601 56.1409C61.0166 56.1409 61.3676 56.4334 61.3806 56.9599C61.3936 57.4084 61.1856 57.7139 60.7436 57.8179C60.5486 57.8634 60.3341 57.8699 60.1326 57.8699C56.6551 57.8699 53.1841 57.8699 49.7066 57.8699C49.5441 57.8699 49.3751 57.8699 49.2126 57.8504C48.7056 57.7854 48.4196 57.4669 48.4326 56.9794C48.4456 56.4919 48.7446 56.1734 49.2581 56.1539C49.9146 56.1279 50.5711 56.1409 51.2341 56.1409C52.4496 56.1409 53.6586 56.1409 54.8741 56.1409H54.8676Z" fill="#060044"/>
<path id="Vector_10" d="M64.0716 48.4253C62.5116 48.4253 60.9451 48.4253 59.3851 48.4253C58.5986 48.4253 58.2281 48.1328 58.2411 47.5478C58.2541 46.9888 58.6246 46.7028 59.3591 46.6963C62.5051 46.6963 65.6511 46.6963 68.7906 46.6963C69.5056 46.6963 69.8891 47.0213 69.8761 47.5803C69.8631 48.1198 69.4991 48.4188 68.8166 48.4253C67.2371 48.4253 65.6511 48.4253 64.0716 48.4253Z" fill="#060044"/>
<path id="Vector_11" d="M46.3135 84.4541C47.672 84.4541 49.0305 84.4541 50.3825 84.4541C51.039 84.4541 51.442 84.7856 51.4485 85.2991C51.4485 85.8191 51.0455 86.1766 50.3955 86.1766C47.659 86.1766 44.9225 86.1831 42.1925 86.1766C41.5425 86.1766 41.159 85.8191 41.172 85.2861C41.185 84.7661 41.549 84.4606 42.1795 84.4541C43.5575 84.4476 44.9355 84.4541 46.3135 84.4541Z" fill="#060044"/>
<path id="Vector_12" d="M95.785 56.4394H93.9585V53.7939H95.785V56.4394Z" fill="#060044"/>
</g>
</g>
<defs>
<linearGradient id="paint0_linear_1718_4542" x1="140.846" y1="15.0658" x2="42.7298" y2="135.978" gradientUnits="userSpaceOnUse">
<stop stop-color="#18C8FF"/>
<stop offset="1" stop-color="#C608FF"/>
</linearGradient>
</defs>
</svg>
