<svg width="50" height="51" viewBox="0 0 50 51" fill="none" xmlns="http://www.w3.org/2000/svg">
<g id="Enhance Brand Recognition 1">
<path id="Vector" d="M35.3399 41.7044C34.8649 41.7394 34.3699 41.5394 33.8749 41.3244C31.0549 40.0794 28.2299 38.8394 25.4149 37.5844C25.1199 37.4544 24.8899 37.4494 24.5899 37.5844C21.6849 38.8794 18.7749 40.1644 15.8549 41.4344C14.3999 42.0644 12.8849 41.6344 12.0499 40.3894C11.6299 39.7644 11.4699 39.0694 11.5449 38.3194C11.8699 35.1444 12.1949 31.9694 12.5349 28.7944C12.5649 28.4894 12.4799 28.2794 12.2799 28.0594C10.1999 25.7494 8.13491 23.4244 6.05991 21.1094C5.30991 20.2794 4.90991 19.3494 5.17491 18.2194C5.48491 16.9094 6.33991 16.1494 7.64491 15.8644C10.6949 15.2044 13.7449 14.5444 16.7949 13.8894C17.1249 13.8194 17.3549 13.6994 17.5449 13.3694C19.0699 10.7144 20.6299 8.07443 22.1749 5.43443C22.7849 4.38943 23.6799 3.78443 24.9049 3.74443C26.1049 3.70443 27.0799 4.19943 27.6949 5.22443C29.3099 7.93943 30.8849 10.6744 32.4649 13.4094C32.6049 13.6544 32.7499 13.8294 33.0199 13.8794C35.1299 14.2344 37.1999 14.7694 39.2949 15.1994C40.3249 15.4094 41.3499 15.6444 42.3799 15.8694C44.8199 16.4044 45.7399 19.0294 44.0999 20.9144C41.9999 23.3244 39.8549 25.6944 37.7149 28.0694C37.4899 28.3194 37.4449 28.5494 37.4749 28.8594C37.8099 32.0544 38.1549 35.2444 38.4549 38.4394C38.6249 40.2244 37.2049 41.7144 35.3449 41.7094L35.3399 41.7044Z" fill="#060044"/>
<path id="Vector_2" d="M26.1151 44.7841C26.1151 45.4541 26.1201 46.1291 26.1151 46.7991C26.1051 47.5741 25.6451 48.0841 24.9901 48.0791C24.3351 48.0691 23.8901 47.5591 23.8851 46.7791C23.8801 45.4341 23.8801 44.0891 23.8851 42.7441C23.8851 41.9441 24.3101 41.4641 24.9851 41.4541C25.6851 41.4491 26.1101 41.9291 26.1151 42.7641C26.1201 43.4341 26.1151 44.1091 26.1151 44.7791V44.7841Z" fill="#060044"/>
<path id="Vector_3" d="M42.8749 28.4346C43.1499 28.5096 43.4599 28.5846 43.7649 28.6846C44.9549 29.0696 46.1499 29.4546 47.3399 29.8496C48.0199 30.0746 48.3399 30.6396 48.1449 31.2396C47.9449 31.8796 47.3599 32.1646 46.6599 31.9396C45.2849 31.4996 43.9149 31.0596 42.5449 30.5996C41.9549 30.3996 41.6599 29.9046 41.7599 29.3696C41.8599 28.8296 42.3149 28.4346 42.8749 28.4346Z" fill="#060044"/>
<path id="Vector_4" d="M39.74 4.994C39.76 5.254 39.63 5.494 39.465 5.724C38.655 6.839 37.85 7.959 37.03 9.069C36.575 9.684 35.95 9.819 35.42 9.439C34.865 9.044 34.795 8.399 35.26 7.759C36.075 6.624 36.895 5.499 37.72 4.374C38.035 3.949 38.45 3.744 38.985 3.919C39.465 4.074 39.75 4.469 39.745 4.999L39.74 4.994Z" fill="#060044"/>
<path id="Vector_5" d="M15.0451 8.58415C15.0051 9.05415 14.7701 9.38915 14.3301 9.56415C13.8751 9.74415 13.4351 9.64415 13.1551 9.27915C12.2051 8.02915 11.2801 6.75915 10.3901 5.46915C10.0551 4.98415 10.2751 4.33415 10.7651 4.02415C11.2901 3.69415 11.8951 3.82915 12.3051 4.38915C13.1151 5.49915 13.9251 6.61415 14.7301 7.72415C14.9151 7.97915 15.0751 8.24415 15.0451 8.57915V8.58415Z" fill="#060044"/>
<path id="Vector_6" d="M8.17509 29.6041C8.13509 30.0491 7.93009 30.4341 7.45009 30.5991C6.03009 31.0741 4.60509 31.5441 3.17509 31.9891C2.59009 32.1691 2.02509 31.8141 1.85009 31.2191C1.68509 30.6491 1.97509 30.0841 2.59509 29.8741C3.77009 29.4741 4.95009 29.1041 6.13009 28.7241C6.39009 28.6391 6.65009 28.5391 6.92009 28.4941C7.57509 28.3891 8.16009 28.9041 8.17509 29.6041Z" fill="#060044"/>
</g>
</svg>
