<svg width="50" height="51" viewBox="0 0 50 51" fill="none" xmlns="http://www.w3.org/2000/svg">
<g id="Stand Out in the Market&#226;&#128;&#168; 1">
<path id="Vector" d="M1.61999 17.9642C1.91999 17.3792 2.46999 17.1092 3.02499 16.8242C5.91499 15.3442 8.79499 13.8492 11.685 12.3692C12.55 11.9242 13.49 12.3642 13.72 13.2842C13.79 13.5692 13.72 13.8292 13.64 14.0892C13.42 14.7992 13.19 15.5042 12.96 16.2142C12.9 16.4042 12.9 16.5242 13.12 16.6442C20.215 20.4742 24.68 26.4592 27.29 33.9592C28.505 37.4492 29.18 41.0592 29.48 44.7392C29.56 45.7392 29.62 46.7442 29.655 47.7442C29.69 48.7142 29.12 49.2892 28.16 49.2892C26.06 49.2892 23.96 49.2892 21.86 49.2892C20.845 49.2892 20.305 48.7692 20.29 47.7542C20.245 44.6192 19.75 41.5492 18.88 38.5442C17.69 34.4192 15.775 30.7042 12.595 27.7242C11.785 26.9642 10.91 26.2842 9.92999 25.6742C9.68499 26.3692 9.42999 27.0292 9.21499 27.7042C9.01499 28.3292 8.59999 28.6792 7.96499 28.7292C7.33999 28.7742 6.90999 28.4692 6.60999 27.9142C4.97499 24.8792 3.32999 21.8542 1.68499 18.8292C1.67499 18.8092 1.63999 18.8042 1.61499 18.7892C1.61499 18.5142 1.61499 18.2392 1.61499 17.9692L1.61999 17.9642Z" fill="#060044"/>
<path id="Vector_2" d="M25.2751 2.52941C25.6901 2.66441 25.9901 2.93941 26.2851 3.25441C28.4601 5.61441 30.6451 7.96941 32.8351 10.3194C33.2151 10.7244 33.4201 11.1644 33.2501 11.7244C33.0551 12.3744 32.5851 12.7444 31.9101 12.7494C31.1851 12.7544 30.4551 12.7494 29.6801 12.7494V32.2044C29.1001 30.8894 28.5501 29.5794 27.9151 28.3144C26.0751 24.6544 23.7001 21.3844 20.6601 18.6244C20.4051 18.3894 20.2851 18.1594 20.2901 17.8044C20.3101 16.1344 20.3001 14.4594 20.3001 12.7494C19.5751 12.7494 18.8801 12.7394 18.1851 12.7494C17.5501 12.7644 17.0951 12.4994 16.8351 11.9344C16.5601 11.3394 16.7051 10.8244 17.1451 10.3494C19.4051 7.91941 21.6601 5.48941 23.9101 3.04941C24.1451 2.79441 24.4301 2.65441 24.7351 2.52441H25.2851L25.2751 2.52941Z" fill="#060044"/>
<path id="Vector_3" d="M32.42 34.0542C32.42 33.7892 32.42 33.6592 32.42 33.5292C32.42 29.0242 32.435 24.5242 32.42 20.0192C32.42 19.6692 32.54 19.4642 32.8 19.2642C34.055 18.2992 35.36 17.4142 36.77 16.6942C37.075 16.5392 37.1 16.3892 36.995 16.0992C36.77 15.4542 36.58 14.7992 36.375 14.1492C36.15 13.4292 36.27 12.8692 36.745 12.4942C37.275 12.0742 37.83 12.1042 38.405 12.4042C41.425 13.9642 44.445 15.5142 47.46 17.0742C48.39 17.5542 48.61 18.2792 48.11 19.1942C46.54 22.0892 44.96 24.9742 43.395 27.8692C43.085 28.4442 42.64 28.7892 41.97 28.7242C41.325 28.6592 40.95 28.2592 40.75 27.6542C40.535 26.9942 40.29 26.3442 40.055 25.6692C36.725 27.7292 34.54 30.7842 32.405 34.0542H32.42Z" fill="#060044"/>
</g>
</svg>
