<svg width="42" height="43" viewBox="0 0 42 43" fill="none" xmlns="http://www.w3.org/2000/svg">
<g id="Growth 2">
<path id="Vector" d="M33.1799 27.2514C33.1799 23.3034 33.2177 19.3554 33.1631 15.4074C33.1421 13.7568 34.3181 12.5304 35.9813 12.6144C36.6659 12.648 37.3547 12.6144 38.0435 12.6228C39.5975 12.6396 40.6601 13.7022 40.6601 15.2478C40.6601 23.2446 40.6601 31.2456 40.6601 39.2424C40.6601 40.8048 39.6143 41.8506 38.0519 41.859C37.3043 41.859 36.5609 41.859 35.8133 41.859C34.2089 41.8548 33.1841 40.8342 33.1799 39.2298C33.1757 35.2398 33.1799 31.2456 33.1799 27.2556V27.2514Z" fill="black"/>
<path id="Vector_2" d="M19.4335 31.6494C19.4335 34.1526 19.4335 36.6516 19.4335 39.1548C19.4335 40.8474 18.4255 41.8512 16.7371 41.8554C15.9895 41.8554 15.2461 41.8596 14.4985 41.8554C13.0117 41.8386 11.9575 40.7928 11.9575 39.3102C11.9533 34.1904 11.9533 29.0706 11.9575 23.9508C11.9575 22.464 13.0453 21.4014 14.5447 21.393C15.2629 21.393 15.9811 21.4224 16.6951 21.3846C18.2701 21.3048 19.4881 22.5144 19.4503 24.1482C19.3915 26.6472 19.4335 29.1504 19.4335 31.6536V31.6494Z" fill="black"/>
<path id="Vector_3" d="M30.0468 33.7999C30.0468 35.5975 30.0468 37.3993 30.0468 39.1969C30.0468 40.8265 29.0178 41.8471 27.3924 41.8513C26.6322 41.8513 25.872 41.8597 25.1118 41.8513C23.6208 41.8345 22.575 40.7971 22.5708 39.3061C22.5624 35.6353 22.5624 31.9645 22.5708 28.2937C22.5708 26.8237 23.5998 25.7821 25.0656 25.7443C25.8972 25.7233 26.733 25.7233 27.5646 25.7443C29.0052 25.7821 30.0342 26.8321 30.0426 28.2685C30.051 30.1123 30.0426 31.9561 30.0426 33.7957L30.0468 33.7999Z" fill="black"/>
<path id="Vector_4" d="M16.2455 8.04064C16.8671 8.05744 17.4215 8.20024 17.9591 8.45644C20.3069 9.56524 22.6547 10.6614 25.0025 11.766C25.8635 12.1692 26.2541 12.102 26.9219 11.4384C29.8997 8.46064 32.8817 5.48284 35.8553 2.50084C36.1535 2.20264 36.4601 1.95484 36.9137 1.95904C37.4135 1.96324 37.7915 2.17324 38.0267 2.61004C38.2745 3.06364 38.2283 3.51304 37.9301 3.92884C37.8293 4.07164 37.6991 4.19344 37.5731 4.31524C34.6163 7.27204 31.6595 10.233 28.6985 13.1898C27.2621 14.6262 25.7879 14.8908 23.9567 14.0298C21.6593 12.9546 19.3661 11.871 17.0687 10.7916C16.2203 10.3926 15.8003 10.464 15.1493 11.1192C12.1295 14.139 9.10968 17.1588 6.09828 20.187C5.69088 20.5944 5.24568 20.8002 4.67868 20.6196C3.85548 20.355 3.55728 19.3848 4.07808 18.696C4.14948 18.6036 4.23348 18.5196 4.31328 18.4356C7.39608 15.3528 10.4789 12.27 13.5575 9.18724C14.3093 8.43544 15.2165 8.06584 16.2413 8.03644L16.2455 8.04064Z" fill="black"/>
<path id="Vector_5" d="M8.82 37.2307C8.82 37.9321 8.8326 38.6335 8.82 39.3349C8.7948 40.8049 7.7616 41.8339 6.2958 41.8507C5.4936 41.8591 4.6872 41.8591 3.885 41.8507C2.4066 41.8339 1.3482 40.7797 1.3398 39.3055C1.3314 37.9027 1.3314 36.4999 1.3398 35.0971C1.3482 33.6565 2.4024 32.5771 3.8472 32.5435C4.6788 32.5267 5.5146 32.5225 6.3462 32.5435C7.7532 32.5813 8.7864 33.6271 8.8158 35.0341C8.8326 35.7649 8.8158 36.4957 8.8158 37.2265L8.82 37.2307Z" fill="black"/>
</g>
</svg>
