<svg width="50" height="51" viewBox="0 0 50 51" fill="none" xmlns="http://www.w3.org/2000/svg">
<g id="Get Customized Designs 1">
<path id="Vector" d="M44.9201 2.19922C45.0501 2.36422 45.2551 2.29422 45.4201 2.35422C47.2951 3.01922 47.9301 5.26922 46.6551 6.86922C45.4751 8.35422 44.2601 9.80922 43.0601 11.2792C41.5101 13.1792 39.9601 15.0792 38.4101 16.9792C38.3151 17.0992 38.2101 17.2092 38.1401 17.2892C36.1701 15.3192 34.2101 13.3592 32.2351 11.3842C33.8401 10.0692 35.4751 8.73422 37.1101 7.39922C38.8651 5.96422 40.6301 4.54422 42.3751 3.09422C42.8651 2.68422 43.4051 2.39922 43.9951 2.19922H44.9201Z" fill="#060044"/>
<path id="Vector_2" d="M2.67993 35.954V35.474C2.67993 29.609 2.67993 23.744 2.67993 17.874C2.67993 15.439 4.23493 13.874 6.65993 13.874C12.6049 13.874 18.5449 13.874 24.4899 13.874H24.8899C24.9349 14.059 24.8049 14.124 24.7399 14.214C24.1699 15.009 23.7399 15.874 23.5099 16.829C23.4549 17.059 23.3749 17.169 23.0999 17.214C19.3849 17.829 16.7949 20.724 16.5599 24.474C16.5199 25.074 16.5299 25.674 16.5349 26.279C16.5399 27.374 16.3449 28.389 15.7249 29.349C14.5299 31.204 15.5049 33.619 17.6149 34.189C18.5099 34.429 19.3949 34.349 20.1399 33.809C21.0899 33.114 22.1449 32.964 23.2499 32.989C24.7749 33.019 26.2799 32.954 27.6999 32.344C30.2049 31.274 31.6549 29.334 32.2249 26.714C32.3199 26.274 32.4649 26.064 32.9249 25.939C34.4099 25.539 35.6449 24.719 36.6249 23.534C38.1199 21.729 39.5949 19.904 41.0799 18.089C41.1549 17.999 41.2349 17.909 41.3599 17.769V35.949H2.67993V35.954Z" fill="#060044"/>
<path id="Vector_3" d="M16.92 46.8437V43.7237C16.75 43.6287 16.575 43.6737 16.415 43.6737C13.145 43.6737 9.86997 43.6737 6.59997 43.6737C4.54997 43.6737 3.03497 42.4337 2.73497 40.4837C2.64997 39.9437 2.71997 39.3787 2.71997 38.8037H41.335C41.7 40.9737 40.705 42.8387 38.85 43.4687C38.36 43.6337 37.855 43.6737 37.345 43.6737C34.12 43.6737 30.895 43.6737 27.67 43.6737C27.505 43.6737 27.335 43.6737 27.15 43.6737V46.8487C27.925 46.8487 28.705 46.8337 29.485 46.8487C30.195 46.8637 30.765 47.3937 30.835 48.0687C30.915 48.7787 30.47 49.4137 29.765 49.5837C29.63 49.6137 29.49 49.6187 29.35 49.6187C24.475 49.6187 19.595 49.6187 14.72 49.6187C13.825 49.6187 13.21 49.0437 13.21 48.2237C13.21 47.4087 13.83 46.8437 14.73 46.8387C15.45 46.8387 16.17 46.8387 16.915 46.8387L16.92 46.8437Z" fill="#060044"/>
<path id="Vector_4" d="M23.6799 30.1738C22.7499 30.1488 21.8299 30.2038 20.9249 30.4188C20.1699 30.5988 19.4549 30.8638 18.8299 31.3488C18.6099 31.5188 18.3749 31.5638 18.1649 31.3488C17.9699 31.1588 17.9899 30.9338 18.1449 30.7238C19.1149 29.4188 19.3249 27.9038 19.3449 26.3438C19.3549 25.4938 19.2999 24.6438 19.4799 23.8088C19.9349 21.7188 21.2599 20.4488 23.2999 19.9988C25.3899 19.5388 27.1949 20.1738 28.5299 21.8688C30.5749 24.4588 29.7149 28.3688 26.8449 29.6738C25.8399 30.1338 24.7649 30.2238 23.6749 30.1738H23.6799Z" fill="#060044"/>
<path id="Vector_5" d="M32.2451 23.2289C31.3701 20.1539 29.4051 18.1689 26.3101 17.2789C26.8401 15.2939 28.6401 14.4689 29.9251 13.2539C32.0451 15.3739 34.1451 17.4739 36.2751 19.6089C35.0751 20.8939 34.2451 22.6839 32.2451 23.2339V23.2289Z" fill="#060044"/>
</g>
</svg>
