<svg width="50" height="51" viewBox="0 0 50 51" fill="none" xmlns="http://www.w3.org/2000/svg">
<g id="Create a Strong First Impression 1">
<path id="Vector" d="M40.125 22.9988C40.42 23.2088 40.71 23.4088 40.98 23.5988C39.565 25.0088 38.17 26.4038 36.75 27.8188C36.58 27.5788 36.385 27.3088 36.19 27.0338C35.68 27.2488 35.185 27.4788 34.675 27.6738C34.405 27.7788 34.475 27.9838 34.475 28.1688C34.475 31.6088 34.475 35.0538 34.475 38.4938V41.5888C34.885 41.5888 35.28 41.5888 35.67 41.5888C36.42 41.5988 36.91 42.0538 36.895 42.7238C36.88 43.3738 36.405 43.7988 35.665 43.7988C28.06 43.7988 20.455 43.7988 12.85 43.7988C10.025 43.7988 7.19503 43.7988 4.37003 43.7988C3.51003 43.7988 2.97003 43.0738 3.24503 42.3188C3.40003 41.8888 3.80503 41.6088 4.31503 41.5888C4.51503 41.5788 4.71503 41.5888 4.91503 41.5888C5.11003 41.5888 5.31003 41.5888 5.54503 41.5888C5.54503 41.4088 5.54503 41.2588 5.54503 41.1088C5.54503 38.6638 5.54503 36.2238 5.54503 33.7788C5.54503 32.8588 5.94503 32.4538 6.85503 32.4488C8.19003 32.4488 9.53003 32.4488 10.865 32.4488C11.765 32.4488 12.18 32.8688 12.18 33.7788C12.18 36.3588 12.18 38.9388 12.18 41.5438C12.435 41.6238 12.695 41.5738 12.95 41.5788C13.065 41.4188 13.005 41.2438 13.005 41.0838C13.005 36.4738 13.005 31.8638 13.005 27.2538C13.005 26.2338 13.37 25.8638 14.39 25.8638C15.665 25.8638 16.94 25.8638 18.215 25.8638C19.255 25.8638 19.635 26.2388 19.635 27.2738C19.635 31.8538 19.635 36.4338 19.635 41.0138V41.5388C19.89 41.6288 20.15 41.5738 20.4 41.5738C20.51 41.4138 20.455 41.2388 20.455 41.0788C20.455 37.8838 20.48 34.6838 20.445 31.4888C20.435 30.4138 20.84 29.8938 22.015 29.9438C23.24 29.9988 24.475 29.9538 25.7 29.9538C26.695 29.9538 27.08 30.3438 27.08 31.3538C27.08 34.5788 27.08 37.8088 27.08 41.0338C27.08 41.1988 27.08 41.3688 27.08 41.5588H27.915C28.005 41.4538 27.96 41.3238 27.96 41.2088C27.96 36.8588 27.96 32.5088 27.97 28.1638C27.97 27.8588 27.895 27.7138 27.595 27.5988C23.3 25.9638 20.69 21.7138 21.125 17.1088C21.545 12.6838 24.95 9.01379 29.41 8.18379C35.015 7.13879 40.43 11.0238 41.23 16.6638C41.53 18.7638 41.215 20.7588 40.285 22.6588C40.23 22.7688 40.18 22.8788 40.12 22.9988H40.125ZM23.3 18.1188C23.28 22.4538 26.805 26.0488 31.115 26.0788C35.535 26.1088 39.105 22.5938 39.13 18.1838C39.16 13.8138 35.615 10.2438 31.225 10.2288C26.875 10.2138 23.32 13.7488 23.3 18.1188Z" fill="#060044"/>
<path id="Vector_2" d="M7.855 23.0688C7.47 23.8188 6.86 23.9838 6.135 23.9588C5.305 23.9288 4.475 23.9588 3.645 23.9538C2.685 23.9538 2.13 23.3938 2.125 22.4388C2.125 20.1488 2.125 17.8588 2.125 15.5688C2.125 14.6288 2.67 14.0938 3.615 14.0888C4.43 14.0888 5.245 14.0888 6.06 14.0888C6.57 14.0888 7.08 14.0588 7.5 14.4588C8.365 13.0038 9.205 11.5938 10.04 10.1838C10.47 9.45384 11.035 8.88884 11.875 8.68384C13.535 8.27884 14.835 9.67384 14.435 11.4188C14.275 12.1188 14.08 12.8138 13.89 13.5638C14.4 13.5638 14.87 13.5538 15.34 13.5638C16.79 13.5938 17.725 14.6888 17.53 16.1238C17.26 18.1138 16.975 20.1088 16.69 22.0988C16.515 23.3088 15.775 23.9488 14.565 23.9538C13.135 23.9538 11.705 23.9338 10.28 23.9638C9.36 23.9838 8.5 23.8988 7.85 23.0738L7.855 23.0688Z" fill="#060044"/>
<path id="Vector_3" d="M38.28 29.5588C39.76 28.0838 41.25 26.5988 42.72 25.1338C44.165 26.5588 45.67 27.9588 47.075 29.4538C48.22 30.6738 48.11 32.5588 46.965 33.7038C45.74 34.9288 43.84 35.0788 42.605 33.9188C41.12 32.5238 39.73 31.0288 38.285 29.5588H38.28Z" fill="#060044"/>
<path id="Vector_4" d="M31.2 13.8146C34.005 13.9096 36.25 15.0546 37.855 17.3846C38.25 17.9596 38.245 18.3346 37.865 18.9046C34.735 23.6346 27.74 23.6496 24.595 18.9346C24.19 18.3296 24.18 17.9696 24.59 17.3746C26.185 15.0546 28.415 13.9196 31.205 13.8096L31.2 13.8146ZM30.385 16.1546C28.91 16.3296 27.73 17.0146 26.78 18.1246C27.51 19.1696 29.345 20.2096 30.325 20.1046C29.555 19.6096 29.09 18.9896 29.12 18.0896C29.15 17.1896 29.64 16.5946 30.385 16.1546ZM32.11 20.1496C33.55 19.9396 34.735 19.2796 35.665 18.1596C34.705 16.9646 32.95 16.0296 32.215 16.2996C33.745 17.2746 33.695 18.8896 32.11 20.1496Z" fill="#060044"/>
</g>
</svg>
