<svg width="50" height="51" viewBox="0 0 50 51" fill="none" xmlns="http://www.w3.org/2000/svg">
<g id="Tell Your Brand&#226;&#128;&#153;s Story&#226;&#128;&#168; 1">
<path id="Vector" d="M44.5651 25.7595C44.5651 26.1945 44.3051 26.4745 43.7651 26.5895C42.2301 26.9195 40.6901 27.2395 39.1601 27.5745C35.5551 28.3695 31.9351 29.0945 28.4101 30.1995C26.1801 30.8945 24.1051 31.9695 22.0051 32.9695C20.4151 33.7295 18.8401 34.5195 17.2601 35.3045C16.5451 35.6595 16.3051 35.6045 15.8351 34.9495C13.8301 32.1595 11.8251 29.3695 9.82507 26.5795C9.36007 25.9295 9.38007 25.6945 9.96007 25.1145C12.3651 22.7045 14.8051 20.3245 17.0601 17.7645C18.4151 16.2245 19.5101 14.5045 20.6051 12.7795C22.6701 9.52452 24.6351 6.20952 26.5951 2.89452C27.1151 2.01452 27.6601 1.98452 28.2551 2.80952C33.5901 10.2295 38.9251 17.6495 44.2601 25.0745C44.4101 25.2845 44.5851 25.4845 44.5751 25.7695L44.5651 25.7595Z" fill="#060044"/>
<path id="Vector_2" d="M7.91505 26.5889C10.3551 29.9939 12.7601 33.3439 15.1851 36.7289C13.8001 37.7089 12.4101 38.7989 10.9151 39.7289C8.17505 41.4389 4.54505 40.6289 2.67005 37.9739C0.790054 35.3089 1.26505 31.6039 3.81005 29.5839C5.15505 28.5189 6.58005 27.5539 7.91005 26.5889H7.91505Z" fill="#060044"/>
<path id="Vector_3" d="M12.3 40.7143C13.985 39.4993 15.655 38.2993 17.36 37.0693C17.645 37.4693 17.93 37.8593 18.205 38.2493C19.725 40.3693 21.255 42.4793 22.76 44.6093C24.1 46.5093 23.195 48.9943 20.98 49.5293C19.745 49.8293 18.495 49.3343 17.675 48.1993C16.34 46.3493 15.01 44.4893 13.68 42.6343C13.23 42.0043 12.775 41.3793 12.3 40.7143Z" fill="#060044"/>
<path id="Vector_4" d="M41.385 11.1087C41.09 11.0837 40.835 10.9137 40.715 10.5737C40.59 10.2037 40.73 9.90374 41.025 9.67874C41.63 9.21874 42.24 8.76374 42.85 8.30874C44.25 7.25874 45.65 6.20874 47.05 5.16374C47.555 4.78374 47.985 4.79874 48.29 5.18374C48.605 5.58374 48.495 6.02374 47.97 6.41874C46 7.89874 44.03 9.37374 42.06 10.8487C41.875 10.9887 41.69 11.1187 41.385 11.1087Z" fill="#060044"/>
<path id="Vector_5" d="M39.5601 15.8789C38.1951 13.9839 36.8401 12.0939 35.4751 10.1989C36.5801 9.75394 38.3451 10.3939 39.2801 11.5439C40.4051 12.9289 40.2751 14.9489 39.5601 15.8789Z" fill="#060044"/>
<path id="Vector_6" d="M48.4599 15.7188C48.4599 16.3638 47.9099 16.7088 47.3199 16.4588C45.7699 15.8038 44.2299 15.1388 42.6849 14.4738C42.4499 14.3738 42.2049 14.2788 41.9749 14.1638C41.5249 13.9388 41.3649 13.5288 41.5549 13.1188C41.7349 12.7338 42.1449 12.5638 42.5749 12.7438C44.3499 13.4888 46.1149 14.2488 47.8849 15.0088C48.2149 15.1538 48.4449 15.3888 48.4599 15.7188Z" fill="#060044"/>
<path id="Vector_7" d="M38.33 7.89389C38.5 6.86389 38.68 5.76389 38.865 4.66389C38.945 4.18389 39.02 3.70389 39.11 3.22889C39.205 2.74389 39.565 2.47889 40.005 2.54389C40.44 2.60889 40.735 2.97889 40.66 3.46389C40.415 5.02889 40.15 6.59389 39.875 8.15389C39.8 8.56889 39.4199 8.81389 39.0099 8.76889C38.6099 8.72889 38.325 8.39889 38.325 7.89389H38.33Z" fill="#060044"/>
</g>
</svg>
