<?xml version="1.0" encoding="UTF-8"?>
<svg id="Layer_1" data-name="Layer 1" xmlns="http://www.w3.org/2000/svg" xmlns:xlink="http://www.w3.org/1999/xlink" viewBox="0 0 1000 1000">
  <defs>
    <style>
      .cls-1 {
        fill: #2f3649;
      }

      .cls-2 {
        fill: url(#linear-gradient);
      }
    </style>
    <linearGradient id="linear-gradient" x1="73.87" y1="500" x2="926.13" y2="500" gradientUnits="userSpaceOnUse">
      <stop offset="0" stop-color="#18c8ff"/>
      <stop offset=".99" stop-color="#c608ff"/>
    </linearGradient>
  </defs>
  <path class="cls-1" d="M229.73,233.54c-16.12,41.14-19.2,90.89-8.46,145.69,2.22,11.26,4.95,22.54,8.25,33.82h180.22v261.25c66.92,54.8,141.95,91.59,213.81,105.02v-366.27h248.9l-40.31-179.52H229.73Z"/>
  <path class="cls-2" d="M853.61,853.61c-50.6,50.6-121.02,74-199.67,72.46-77.16-1.52-162.21-27.03-244.2-74.42-51.25-29.6-101.29-67.74-147.47-113.92C66.98,542.42,15.1,277.66,146.38,146.38c85.52-85.52,227.68-93.32,370.36-34.38-103.46-30.6-202.03-17.73-264.47,44.71-109.72,109.72-66.36,330.95,96.85,494.16,19.48,19.48,39.78,37.23,60.62,53.24,68.86,52.91,143.59,86.55,213.81,98.88,86.62,15.25,166.37-1.89,219.74-55.27,62.46-62.44,75.33-161.02,44.71-264.47,58.94,142.7,51.16,284.84-34.38,370.36Z"/>
</svg>