<?xml version="1.0" encoding="UTF-8"?>
<svg xmlns="http://www.w3.org/2000/svg" version="1.1" viewBox="0 0 1920 1080">
  <defs>
    <style>
      .cls-1 {
        fill: #fff;
        fill-rule: evenodd;
      }

      .cls-2 {
        opacity: .1;
      }
    </style>
  </defs>
  <!-- Generator: Adobe Illustrator 28.6.0, SVG Export Plug-In . SVG Version: 1.2.0 Build 709)  -->
  <g>
    <g id="Layer_1">
      <g class="cls-2">
        <g id="Layer_1-2" data-name="Layer_1">
          <path class="cls-1" d="M103.3,72.8V2.4h-1.4v70.4H0v1.4h101.9v67.6H0v1.4h101.9v67.6H0v1.4h101.9v67.6H0v1.4h101.9v67.6H0v1.4h101.9v67.6H0v1.4h101.9v67.6H0v1.4h101.9v67.6H0v1.4h101.9v67.6H0v1.4h101.9v67.6H0v1.4h101.9v67.6H0v1.4h101.9v67.6H0v1.4h101.9v67.6H0v1.4h101.9v67.6H0v1.4h101.9v67.6H0v1.4h101.9v37.3h1.4v-37.3h75.7v37.3h1.4v-37.3h75.7v37.3h1.4v-37.3h75.7v37.3h1.4v-37.3h75.7v37.3h1.4v-37.3h75.7v37.3h1.4v-37.3h75.7v37.3h1.4v-37.3h75.7v37.3h1.4v-37.3h75.7v37.3h1.4v-37.3h75.7v37.3h1.4v-37.3h75.7v37.3h1.4v-37.3h75.7v37.3h1.4v-37.3h75.7v37.3h1.4v-37.3h75.7v37.3h1.4v-37.3h75.7v37.3h1.4v-37.3h75.7v37.3h1.4v-37.3h75.7v37.3h1.4v-37.3h75.7v37.3h1.4v-37.3h75.7v37.3h1.4v-37.3h75.7v37.3h1.4v-37.3h75.7v37.3h1.4v-37.3h75.7v37.3h1.4v-37.3h75.7v37.3h1.4v-37.3h120.3v-1.4h-120.3v-67.6h120.3v-1.4h-120.3v-67.6h120.3v-1.4h-120.3v-67.6h120.3v-1.4h-120.3v-67.6h120.3v-1.4h-120.3v-67.6h120.3v-1.4h-120.3v-67.6h120.3v-1.4h-120.3v-67.6h120.3v-1.4h-120.3v-67.6h120.3v-1.4h-120.3v-67.6h120.3v-1.4h-120.3v-67.6h120.3v-1.4h-120.3v-67.6h120.3v-1.4h-120.3v-67.6h120.3v-1.4h-120.3v-67.6h120.3v-1.4h-120.3v-67.6h120.3v-1.4h-120.3V2.4h-1.4v70.4h-75.7V2.4h-1.4v70.4h-75.7V2.4h-1.4v70.4h-75.7V2.4h-1.4v70.4h-75.7V2.4h-1.4v70.4h-75.7V2.4h-1.4v70.4h-75.7V2.4h-1.4v70.4h-75.7V2.4h-1.4v70.4h-75.7V2.4h-1.4v70.4h-75.7V2.4h-1.4v70.4h-75.7V2.4h-1.4v70.4h-75.7V2.4h-1.4v70.4h-75.7V2.4h-1.4v70.4h-75.7V2.4h-1.4v70.4h-75.7V2.4h-1.4v70.4h-75.7V2.4h-1.4v70.4h-75.7V2.4h-1.4v70.4h-75.7V2.4h-1.4v70.4h-75.7V2.4h-1.4v70.4h-75.7V2.4h-1.4v70.4h-75.7V2.4h-1.4v70.4h-75.7V2.4h-1.4v70.4h-75.7,0ZM1798.3,74.1h-75.7v67.6h75.7v-67.6ZM1798.3,143.2h-75.7v67.6h75.7v-67.6h0ZM1798.3,212.2h-75.7v67.6h75.7v-67.6h0ZM1798.3,281.2h-75.7v67.6h75.7v-67.6ZM1798.3,350.2h-75.7v67.6h75.7v-67.6ZM1798.3,419.2h-75.7v67.6h75.7v-67.6ZM1798.3,488.2h-75.7v67.6h75.7v-67.6h0ZM1798.3,557.3h-75.7v67.6h75.7v-67.6ZM1798.3,626.3h-75.7v67.6h75.7v-67.6ZM1798.3,695.3h-75.7v67.6h75.7v-67.6ZM1798.3,764.3h-75.7v67.6h75.7v-67.6ZM1798.3,833.3h-75.7v67.6h75.7v-67.6ZM1798.3,902.3h-75.7v67.6h75.7v-67.6ZM1798.3,971.3h-75.7v67.6h75.7v-67.6h0ZM1721.2,971.3v67.6h-75.7v-67.6h75.7ZM1721.2,902.3v67.6h-75.7v-67.6h75.7ZM1721.2,833.3v67.6h-75.7v-67.6h75.7ZM1721.2,764.3v67.6h-75.7v-67.6h75.7ZM1721.2,695.3v67.6h-75.7v-67.6h75.7ZM1721.2,626.3v67.6h-75.7v-67.6h75.7ZM1721.2,557.3v67.6h-75.7v-67.6h75.7ZM1721.2,488.2v67.6h-75.7v-67.6h75.7ZM1721.2,419.2v67.6h-75.7v-67.6h75.7ZM1721.2,350.2v67.6h-75.7v-67.6h75.7ZM1721.2,281.2v67.6h-75.7v-67.6h75.7ZM1721.2,212.2v67.6h-75.7v-67.6h75.7ZM1721.2,143.2v67.6h-75.7v-67.6h75.7ZM1721.2,74.1v67.6h-75.7v-67.6h75.7ZM1644.1,74.1h-75.7v67.6h75.7v-67.6ZM1644.1,143.2h-75.7v67.6h75.7v-67.6h0ZM1644.1,212.2h-75.7v67.6h75.7v-67.6h0ZM1644.1,281.2h-75.7v67.6h75.7v-67.6ZM1644.1,350.2h-75.7v67.6h75.7v-67.6ZM1644.1,419.2h-75.7v67.6h75.7v-67.6ZM1644.1,488.2h-75.7v67.6h75.7v-67.6h0ZM1644.1,557.3h-75.7v67.6h75.7v-67.6ZM1644.1,626.3h-75.7v67.6h75.7v-67.6ZM1644.1,695.3h-75.7v67.6h75.7v-67.6ZM1644.1,764.3h-75.7v67.6h75.7v-67.6ZM1644.1,833.3h-75.7v67.6h75.7v-67.6ZM1644.1,902.3h-75.7v67.6h75.7v-67.6ZM1644.1,971.3h-75.7v67.6h75.7v-67.6h0ZM1567,971.3v67.6h-75.7v-67.6h75.7ZM1567,902.3v67.6h-75.7v-67.6h75.7ZM1567,833.3v67.6h-75.7v-67.6h75.7ZM1567,764.3v67.6h-75.7v-67.6h75.7ZM1567,695.3v67.6h-75.7v-67.6h75.7ZM1567,626.3v67.6h-75.7v-67.6h75.7ZM1567,557.3v67.6h-75.7v-67.6h75.7ZM1567,488.2v67.6h-75.7v-67.6h75.7ZM1567,419.2v67.6h-75.7v-67.6h75.7ZM1567,350.2v67.6h-75.7v-67.6h75.7ZM1567,281.2v67.6h-75.7v-67.6h75.7ZM1567,212.2v67.6h-75.7v-67.6h75.7ZM1567,143.2v67.6h-75.7v-67.6h75.7ZM1567,74.1v67.6h-75.7v-67.6h75.7ZM1489.9,74.1h-75.7v67.6h75.7v-67.6ZM1489.9,143.2h-75.7v67.6h75.7v-67.6h0ZM1489.9,212.2h-75.7v67.6h75.7v-67.6h0ZM1489.9,281.2h-75.7v67.6h75.7v-67.6ZM1489.9,350.2h-75.7v67.6h75.7v-67.6ZM1489.9,419.2h-75.7v67.6h75.7v-67.6ZM1489.9,488.2h-75.7v67.6h75.7v-67.6h0ZM1489.9,557.3h-75.7v67.6h75.7v-67.6ZM1489.9,626.3h-75.7v67.6h75.7v-67.6ZM1489.9,695.3h-75.7v67.6h75.7v-67.6ZM1489.9,764.3h-75.7v67.6h75.7v-67.6ZM1489.9,833.3h-75.7v67.6h75.7v-67.6ZM1489.9,902.3h-75.7v67.6h75.7v-67.6ZM1489.9,971.3h-75.7v67.6h75.7v-67.6h0ZM1412.8,971.3v67.6h-75.7v-67.6h75.7ZM1412.8,902.3v67.6h-75.7v-67.6h75.7ZM1412.8,833.3v67.6h-75.7v-67.6h75.7ZM1412.8,764.3v67.6h-75.7v-67.6h75.7ZM1412.8,695.3v67.6h-75.7v-67.6h75.7ZM1412.8,626.3v67.6h-75.7v-67.6h75.7ZM1412.8,557.3v67.6h-75.7v-67.6h75.7ZM1412.8,488.2v67.6h-75.7v-67.6h75.7ZM1412.8,419.2v67.6h-75.7v-67.6h75.7ZM1412.8,350.2v67.6h-75.7v-67.6h75.7ZM1412.8,281.2v67.6h-75.7v-67.6h75.7ZM1412.8,212.2v67.6h-75.7v-67.6h75.7ZM1412.8,143.2v67.6h-75.7v-67.6h75.7ZM1412.8,74.1v67.6h-75.7v-67.6h75.7ZM1335.7,74.1h-75.7v67.6h75.7v-67.6ZM1335.7,143.2h-75.7v67.6h75.7v-67.6h0ZM1335.7,212.2h-75.7v67.6h75.7v-67.6h0ZM1335.7,281.2h-75.7v67.6h75.7v-67.6ZM1335.7,350.2h-75.7v67.6h75.7v-67.6ZM1335.7,419.2h-75.7v67.6h75.7v-67.6ZM1335.7,488.2h-75.7v67.6h75.7v-67.6h0ZM1335.7,557.3h-75.7v67.6h75.7v-67.6ZM1335.7,626.3h-75.7v67.6h75.7v-67.6ZM1335.7,695.3h-75.7v67.6h75.7v-67.6ZM1335.7,764.3h-75.7v67.6h75.7v-67.6ZM1335.7,833.3h-75.7v67.6h75.7v-67.6ZM1335.7,902.3h-75.7v67.6h75.7v-67.6ZM1335.7,971.3h-75.7v67.6h75.7v-67.6h0ZM1258.6,971.3v67.6h-75.7v-67.6h75.7ZM1258.6,902.3v67.6h-75.7v-67.6h75.7ZM1258.6,833.3v67.6h-75.7v-67.6h75.7ZM1258.6,764.3v67.6h-75.7v-67.6h75.7ZM1258.6,695.3v67.6h-75.7v-67.6h75.7ZM1258.6,626.3v67.6h-75.7v-67.6h75.7ZM1258.6,557.3v67.6h-75.7v-67.6h75.7ZM1258.6,488.2v67.6h-75.7v-67.6h75.7ZM1258.6,419.2v67.6h-75.7v-67.6h75.7ZM1258.6,350.2v67.6h-75.7v-67.6h75.7ZM1258.6,281.2v67.6h-75.7v-67.6h75.7ZM1258.6,212.2v67.6h-75.7v-67.6h75.7ZM1258.6,143.2v67.6h-75.7v-67.6h75.7ZM1258.6,74.1v67.6h-75.7v-67.6h75.7ZM1181.5,74.1h-75.7v67.6h75.7v-67.6ZM1181.5,143.2h-75.7v67.6h75.7v-67.6h0ZM1181.5,212.2h-75.7v67.6h75.7v-67.6h0ZM1181.5,281.2h-75.7v67.6h75.7v-67.6ZM1181.5,350.2h-75.7v67.6h75.7v-67.6ZM1181.5,419.2h-75.7v67.6h75.7v-67.6ZM1181.5,488.2h-75.7v67.6h75.7v-67.6h0ZM1181.5,557.3h-75.7v67.6h75.7v-67.6ZM1181.5,626.3h-75.7v67.6h75.7v-67.6ZM1181.5,695.3h-75.7v67.6h75.7v-67.6ZM1181.5,764.3h-75.7v67.6h75.7v-67.6ZM1181.5,833.3h-75.7v67.6h75.7v-67.6ZM1181.5,902.3h-75.7v67.6h75.7v-67.6ZM1181.5,971.3h-75.7v67.6h75.7v-67.6h0ZM1104.4,971.3v67.6h-75.7v-67.6h75.7ZM1104.4,902.3v67.6h-75.7v-67.6h75.7ZM1104.4,833.3v67.6h-75.7v-67.6h75.7ZM1104.4,764.3v67.6h-75.7v-67.6h75.7ZM1104.4,695.3v67.6h-75.7v-67.6h75.7ZM1104.4,626.3v67.6h-75.7v-67.6h75.7ZM1104.4,557.3v67.6h-75.7v-67.6h75.7ZM1104.4,488.2v67.6h-75.7v-67.6h75.7ZM1104.4,419.2v67.6h-75.7v-67.6h75.7ZM1104.4,350.2v67.6h-75.7v-67.6h75.7ZM1104.4,281.2v67.6h-75.7v-67.6h75.7ZM1104.4,212.2v67.6h-75.7v-67.6h75.7ZM1104.4,143.2v67.6h-75.7v-67.6h75.7ZM1104.4,74.1v67.6h-75.7v-67.6h75.7ZM1027.2,74.1h-75.7v67.6h75.7v-67.6ZM1027.2,143.2h-75.7v67.6h75.7v-67.6h0ZM1027.2,212.2h-75.7v67.6h75.7v-67.6h0ZM1027.2,281.2h-75.7v67.6h75.7v-67.6ZM1027.2,350.2h-75.7v67.6h75.7v-67.6ZM1027.2,419.2h-75.7v67.6h75.7v-67.6ZM1027.2,488.2h-75.7v67.6h75.7v-67.6h0ZM1027.2,557.3h-75.7v67.6h75.7v-67.6ZM1027.2,626.3h-75.7v67.6h75.7v-67.6ZM1027.2,695.3h-75.7v67.6h75.7v-67.6ZM1027.2,764.3h-75.7v67.6h75.7v-67.6ZM1027.2,833.3h-75.7v67.6h75.7v-67.6ZM1027.2,902.3h-75.7v67.6h75.7v-67.6ZM1027.2,971.3h-75.7v67.6h75.7v-67.6h0ZM950.1,971.3v67.6h-75.7v-67.6h75.7ZM950.1,902.3v67.6h-75.7v-67.6h75.7ZM950.1,833.3v67.6h-75.7v-67.6h75.7ZM950.1,764.3v67.6h-75.7v-67.6h75.7ZM950.1,695.3v67.6h-75.7v-67.6h75.7ZM950.1,626.3v67.6h-75.7v-67.6h75.7ZM950.1,557.3v67.6h-75.7v-67.6h75.7ZM950.1,488.2v67.6h-75.7v-67.6h75.7ZM950.1,419.2v67.6h-75.7v-67.6h75.7ZM950.1,350.2v67.6h-75.7v-67.6h75.7ZM950.1,281.2v67.6h-75.7v-67.6h75.7ZM950.1,212.2v67.6h-75.7v-67.6h75.7ZM950.1,143.2v67.6h-75.7v-67.6h75.7ZM950.1,74.1v67.6h-75.7v-67.6h75.7ZM873,74.1h-75.7v67.6h75.7v-67.6ZM873,143.2h-75.7v67.6h75.7v-67.6h0ZM873,212.2h-75.7v67.6h75.7v-67.6h0ZM873,281.2h-75.7v67.6h75.7v-67.6ZM873,350.2h-75.7v67.6h75.7v-67.6ZM873,419.2h-75.7v67.6h75.7v-67.6ZM873,488.2h-75.7v67.6h75.7v-67.6h0ZM873,557.3h-75.7v67.6h75.7v-67.6ZM873,626.3h-75.7v67.6h75.7v-67.6ZM873,695.3h-75.7v67.6h75.7v-67.6ZM873,764.3h-75.7v67.6h75.7v-67.6ZM873,833.3h-75.7v67.6h75.7v-67.6ZM873,902.3h-75.7v67.6h75.7v-67.6ZM873,971.3h-75.7v67.6h75.7v-67.6h0ZM795.9,971.3v67.6h-75.7v-67.6h75.7ZM795.9,902.3v67.6h-75.7v-67.6h75.7ZM795.9,833.3v67.6h-75.7v-67.6h75.7ZM795.9,764.3v67.6h-75.7v-67.6h75.7ZM795.9,695.3v67.6h-75.7v-67.6h75.7ZM795.9,626.3v67.6h-75.7v-67.6h75.7ZM795.9,557.3v67.6h-75.7v-67.6h75.7ZM795.9,488.2v67.6h-75.7v-67.6h75.7ZM795.9,419.2v67.6h-75.7v-67.6h75.7ZM795.9,350.2v67.6h-75.7v-67.6h75.7ZM795.9,281.2v67.6h-75.7v-67.6h75.7ZM795.9,212.2v67.6h-75.7v-67.6h75.7ZM795.9,143.2v67.6h-75.7v-67.6h75.7ZM795.9,74.1v67.6h-75.7v-67.6h75.7ZM718.8,74.1h-75.7v67.6h75.7v-67.6ZM718.8,143.2h-75.7v67.6h75.7v-67.6h0ZM718.8,212.2h-75.7v67.6h75.7v-67.6h0ZM718.8,281.2h-75.7v67.6h75.7v-67.6ZM718.8,350.2h-75.7v67.6h75.7v-67.6ZM718.8,419.2h-75.7v67.6h75.7v-67.6ZM718.8,488.2h-75.7v67.6h75.7v-67.6h0ZM718.8,557.3h-75.7v67.6h75.7v-67.6ZM718.8,626.3h-75.7v67.6h75.7v-67.6ZM718.8,695.3h-75.7v67.6h75.7v-67.6ZM718.8,764.3h-75.7v67.6h75.7v-67.6ZM718.8,833.3h-75.7v67.6h75.7v-67.6ZM718.8,902.3h-75.7v67.6h75.7v-67.6ZM718.8,971.3h-75.7v67.6h75.7v-67.6h0ZM641.7,971.3v67.6h-75.7v-67.6h75.7ZM641.7,902.3v67.6h-75.7v-67.6h75.7ZM641.7,833.3v67.6h-75.7v-67.6h75.7ZM641.7,764.3v67.6h-75.7v-67.6h75.7ZM641.7,695.3v67.6h-75.7v-67.6h75.7ZM641.7,626.3v67.6h-75.7v-67.6h75.7ZM641.7,557.3v67.6h-75.7v-67.6h75.7ZM641.7,488.2v67.6h-75.7v-67.6h75.7ZM641.7,419.2v67.6h-75.7v-67.6h75.7ZM641.7,350.2v67.6h-75.7v-67.6h75.7ZM641.7,281.2v67.6h-75.7v-67.6h75.7ZM641.7,212.2v67.6h-75.7v-67.6h75.7ZM641.7,143.2v67.6h-75.7v-67.6h75.7ZM641.7,74.1v67.6h-75.7v-67.6h75.7ZM564.6,74.1h-75.7v67.6h75.7v-67.6ZM564.6,143.2h-75.7v67.6h75.7v-67.6h0ZM564.6,212.2h-75.7v67.6h75.7v-67.6h0ZM564.6,281.2h-75.7v67.6h75.7v-67.6ZM564.6,350.2h-75.7v67.6h75.7v-67.6ZM564.6,419.2h-75.7v67.6h75.7v-67.6ZM564.6,488.2h-75.7v67.6h75.7v-67.6h0ZM564.6,557.3h-75.7v67.6h75.7v-67.6ZM564.6,626.3h-75.7v67.6h75.7v-67.6ZM564.6,695.3h-75.7v67.6h75.7v-67.6ZM564.6,764.3h-75.7v67.6h75.7v-67.6ZM564.6,833.3h-75.7v67.6h75.7v-67.6ZM564.6,902.3h-75.7v67.6h75.7v-67.6ZM564.6,971.3h-75.7v67.6h75.7v-67.6h0ZM487.5,971.3v67.6h-75.7v-67.6h75.7ZM487.5,902.3v67.6h-75.7v-67.6h75.7ZM487.5,833.3v67.6h-75.7v-67.6h75.7ZM487.5,764.3v67.6h-75.7v-67.6h75.7ZM487.5,695.3v67.6h-75.7v-67.6h75.7ZM487.5,626.3v67.6h-75.7v-67.6h75.7ZM487.5,557.3v67.6h-75.7v-67.6h75.7ZM487.5,488.2v67.6h-75.7v-67.6h75.7ZM487.5,419.2v67.6h-75.7v-67.6h75.7ZM487.5,350.2v67.6h-75.7v-67.6h75.7ZM487.5,281.2v67.6h-75.7v-67.6h75.7ZM487.5,212.2v67.6h-75.7v-67.6h75.7ZM487.5,143.2v67.6h-75.7v-67.6h75.7ZM487.5,74.1v67.6h-75.7v-67.6h75.7ZM410.4,74.1h-75.7v67.6h75.7v-67.6h0ZM410.4,143.2h-75.7v67.6h75.7v-67.6h0ZM410.4,212.2h-75.7v67.6h75.7v-67.6h0ZM410.4,281.2h-75.7v67.6h75.7v-67.6h0ZM410.4,350.2h-75.7v67.6h75.7v-67.6h0ZM410.4,419.2h-75.7v67.6h75.7v-67.6h0ZM410.4,488.2h-75.7v67.6h75.7v-67.6h0ZM410.4,557.3h-75.7v67.6h75.7v-67.6h0ZM410.4,626.3h-75.7v67.6h75.7v-67.6h0ZM410.4,695.3h-75.7v67.6h75.7v-67.6h0ZM410.4,764.3h-75.7v67.6h75.7v-67.6h0ZM410.4,833.3h-75.7v67.6h75.7v-67.6h0ZM410.4,902.3h-75.7v67.6h75.7v-67.6h0ZM410.4,971.3h-75.7v67.6h75.7v-67.6h0ZM333.3,971.3v67.6h-75.7v-67.6h75.7ZM333.3,902.3v67.6h-75.7v-67.6h75.7ZM333.3,833.3v67.6h-75.7v-67.6h75.7ZM333.3,764.3v67.6h-75.7v-67.6h75.7ZM333.3,695.3v67.6h-75.7v-67.6h75.7ZM333.3,626.3v67.6h-75.7v-67.6h75.7ZM333.3,557.3v67.6h-75.7v-67.6h75.7ZM333.3,488.2v67.6h-75.7v-67.6h75.7ZM333.3,419.2v67.6h-75.7v-67.6h75.7ZM333.3,350.2v67.6h-75.7v-67.6h75.7ZM333.3,281.2v67.6h-75.7v-67.6h75.7ZM333.3,212.2v67.6h-75.7v-67.6h75.7ZM333.3,143.2v67.6h-75.7v-67.6h75.7ZM333.3,74.1v67.6h-75.7v-67.6h75.7ZM256.2,74.1h-75.7v67.6h75.7v-67.6ZM256.2,143.2h-75.7v67.6h75.7v-67.6h0ZM256.2,212.2h-75.7v67.6h75.7v-67.6h0ZM256.2,281.2h-75.7v67.6h75.7v-67.6ZM256.2,350.2h-75.7v67.6h75.7v-67.6ZM256.2,419.2h-75.7v67.6h75.7v-67.6ZM256.2,488.2h-75.7v67.6h75.7v-67.6h0ZM256.2,557.3h-75.7v67.6h75.7v-67.6ZM256.2,626.3h-75.7v67.6h75.7v-67.6ZM256.2,695.3h-75.7v67.6h75.7v-67.6ZM256.2,764.3h-75.7v67.6h75.7v-67.6ZM256.2,833.3h-75.7v67.6h75.7v-67.6ZM256.2,902.3h-75.7v67.6h75.7v-67.6ZM256.2,971.3h-75.7v67.6h75.7v-67.6h0ZM179.1,971.3v67.6h-75.7v-67.6h75.7ZM179.1,902.3v67.6h-75.7v-67.6h75.7ZM179.1,833.3v67.6h-75.7v-67.6h75.7ZM179.1,764.3v67.6h-75.7v-67.6h75.7ZM179.1,695.3v67.6h-75.7v-67.6h75.7ZM179.1,626.3v67.6h-75.7v-67.6h75.7ZM179.1,557.3v67.6h-75.7v-67.6h75.7ZM179.1,488.2v67.6h-75.7v-67.6h75.7ZM179.1,419.2v67.6h-75.7v-67.6h75.7ZM179.1,350.2v67.6h-75.7v-67.6h75.7ZM179.1,281.2v67.6h-75.7v-67.6h75.7ZM179.1,212.2v67.6h-75.7v-67.6h75.7ZM179.1,143.2v67.6h-75.7v-67.6h75.7ZM179.1,74.1v67.6h-75.7v-67.6h75.7Z"/>
        </g>
      </g>
    </g>
  </g>
</svg>