<svg width="2324" height="1184" viewBox="0 0 2324 1184" fill="none" xmlns="http://www.w3.org/2000/svg">
<g filter="url(#filter0_f_1073_4808)">
<path d="M202.143 126.774C339.402 103.12 627.488 97.3946 751.036 245.844C849.223 221.138 960.454 194.888 1123.49 193.881C1464.68 191.771 1266.24 481.443 1320.17 785.216C1345.79 796.391 1375.29 805.475 1409.3 811.75C1710.91 867.399 2013.95 855.942 2080.74 655.441C2134.17 495.041 2189.17 719.547 2210 851.85C1991.45 996.156 1517.59 1214.71 1370.52 934.505C1344.63 885.178 1329.01 835.007 1320.17 785.216C1118.52 697.272 1156.62 479.768 1123.49 481.947C1086.15 484.402 906.616 510.59 775.201 280.628C768.091 268.188 759.997 256.611 751.036 245.844C610.06 281.318 495.976 313.611 294.062 263.442C20.0279 195.354 118.602 143.96 202.143 126.774Z" fill="url(#paint0_linear_1073_4808)"/>
<path d="M202.143 126.774C349.357 101.405 670.068 96.6584 775.201 280.628C906.616 510.59 1086.15 484.402 1123.49 481.947C1160.83 479.492 1107.69 756.1 1409.3 811.75C1710.91 867.399 2013.95 855.942 2080.74 655.441C2134.17 495.041 2189.17 719.547 2210 851.85C1991.45 996.156 1517.59 1214.71 1370.52 934.505C1186.68 584.243 1520.61 191.425 1123.49 193.881C726.369 196.336 636.604 348.552 294.062 263.442C20.0279 195.354 118.602 143.96 202.143 126.774Z" stroke="black"/>
</g>
<defs>
<filter id="filter0_f_1073_4808" x="0.400002" y="0.400002" width="2323.24" height="1183.2" filterUnits="userSpaceOnUse" color-interpolation-filters="sRGB">
<feFlood flood-opacity="0" result="BackgroundImageFix"/>
<feBlend mode="normal" in="SourceGraphic" in2="BackgroundImageFix" result="shape"/>
<feGaussianBlur stdDeviation="56.55" result="effect1_foregroundBlur_1073_4808"/>
</filter>
<linearGradient id="paint0_linear_1073_4808" x1="1591.7" y1="77.6721" x2="1871.26" y2="874.937" gradientUnits="userSpaceOnUse">
<stop stop-color="#18C8FF"/>
<stop offset="1" stop-color="#C608FF"/>
</linearGradient>
</defs>
</svg>
