<?xml version="1.0" encoding="utf-8"?>
<!-- Generator: Adobe Illustrator 26.5.0, SVG Export Plug-In . SVG Version: 6.00 Build 0)  -->
<svg version="1.1" id="Layer_1" xmlns="http://www.w3.org/2000/svg" xmlns:xlink="http://www.w3.org/1999/xlink" x="0px" y="0px"
	 viewBox="0 0 100 100" style="enable-background:new 0 0 100 100;" xml:space="preserve">
<style type="text/css">
	.st0{fill:#FFFFFF;}
</style>
<g>
	<path class="st0" d="M56.8,33.8c3,1.9,5.2,5.1,5.6,8.9c1.2,0.6,2.6,0.9,4.1,0.9c5.3,0,9.7-4.3,9.7-9.7c0-5.3-4.3-9.7-9.7-9.7
		C61.2,24.3,56.9,28.6,56.8,33.8z M50.5,53.6c5.3,0,9.7-4.3,9.7-9.7s-4.3-9.7-9.7-9.7s-9.7,4.3-9.7,9.7S45.1,53.6,50.5,53.6z
		 M54.6,54.3h-8.2c-6.8,0-12.4,5.6-12.4,12.4v10v0.2l0.7,0.2c6.5,2,12.2,2.7,16.8,2.7c9.1,0,14.4-2.6,14.7-2.8l0.6-0.3H67v-10
		C67,59.8,61.4,54.3,54.6,54.3z M70.6,44.3h-8.1c-0.1,3.3-1.5,6.2-3.7,8.3c6.1,1.8,10.5,7.4,10.5,14.1v3.1c8-0.3,12.7-2.6,13-2.7
		l0.6-0.3H83v-10C83,49.9,77.4,44.3,70.6,44.3z M33.5,43.6c1.9,0,3.7-0.6,5.1-1.5c0.5-3.1,2.1-5.8,4.5-7.6c0-0.2,0-0.4,0-0.5
		c0-5.3-4.3-9.7-9.7-9.7c-5.3,0-9.7,4.3-9.7,9.7C23.9,39.3,28.2,43.6,33.5,43.6z M42.2,52.6c-2.2-2.1-3.6-5-3.7-8.3
		c-0.3,0-0.6,0-0.9,0h-8.2c-6.8,0-12.4,5.6-12.4,12.4v10v0.2l0.7,0.2c5.2,1.6,9.9,2.4,13.9,2.6v-3C31.7,60,36.1,54.4,42.2,52.6z"/>
</g>
<g>
	<path class="st0" d="M51.4,15v7.5h7.2v3.2h-7.2v7.6H48v-7.6h-7.2v-3.2H48V15H51.4z"/>
</g>
</svg>
