<?xml version="1.0" encoding="utf-8"?>
<!-- Generator: Adobe Illustrator 26.5.0, SVG Export Plug-In . SVG Version: 6.00 Build 0)  -->
<svg version="1.1" id="Layer_1" xmlns="http://www.w3.org/2000/svg" xmlns:xlink="http://www.w3.org/1999/xlink" x="0px" y="0px"
	 viewBox="0 0 1953.3 2024.6" style="enable-background:new 0 0 1953.3 2024.6;" xml:space="preserve">
<style type="text/css">
	.st0{fill:#3C3C75;}
	.st1{fill:#FFFFFF;}
	.st2{fill:#516DE7;}
	.st3{fill:#1B2C56;}
	.st4{fill:#232363;}
	.st5{fill:#6B6BA5;}
	.st6{fill:#B6B6CC;}
	.st7{fill:#1A2C5B;}
	.st8{fill:#192271;}
	.st9{fill:#093663;}
	.st10{fill:#2468BA;}
	.st11{fill:#B9D9F9;}
	.st12{fill:#0D4175;}
	.st13{fill:#19C7FF;}
	.st14{fill:#23326C;}
	.st15{fill:#EFDFDF;}
	.st16{fill:#1B508E;}
	.st17{fill:#8BB6EA;}
	.st18{fill:#083E7F;}
	.st19{fill:#AA4E39;}
	.st20{fill:#2A3A6B;}
	.st21{fill:#C8D0FC;}
	.st22{fill:#3A181D;}
	.st23{fill:#EC9D86;}
	.st24{fill:#D67963;}
	.st25{fill:#C64334;}
	.st26{fill:#1C1C2D;}
	.st27{fill:#603039;}
	.st28{fill:#0D1935;}
	.st29{fill:#223A70;}
	.st30{fill:#5D9DA3;}
	.st31{fill:#3C5AAE;}
	.st32{fill:#6A8AD3;}
	.st33{fill:#19090C;}
	.st34{fill:#61697A;}
	.st35{fill:#1F3D7F;}
	.st36{fill:#2C2D2D;}
</style>
<path class="st0" d="M326.9,606.4c0-0.7-0.1-1.4-0.1-2.1c0-0.3,0-0.6,0-0.9c0-0.7,0-1.4,0-2.1c0-0.3,0-0.6,0-0.9c0-0.7,0-1.4,0.1-2
	c0-0.3,0-0.6,0.1-0.8c0-0.7,0.1-1.4,0.2-2c0-0.3,0.1-0.5,0.1-0.8c0.1-0.7,0.2-1.4,0.3-2c0-0.3,0.1-0.5,0.1-0.8
	c0.1-0.7,0.2-1.4,0.4-2.1c0-0.2,0.1-0.3,0.1-0.5c0-0.1,0-0.2,0.1-0.2c0.1-0.7,0.3-1.3,0.4-2c0-0.2,0.1-0.4,0.1-0.6
	c0.2-0.7,0.3-1.4,0.5-2c0.1-0.2,0.1-0.4,0.2-0.6c0.2-0.7,0.4-1.4,0.6-2.1c0.1-0.2,0.1-0.3,0.2-0.5c0.2-0.7,0.5-1.5,0.8-2.2
	c0-0.1,0.1-0.2,0.1-0.3c0,0,0,0,0,0c0.4-1.1,0.9-2.1,1.3-3.2c0.1-0.2,0.2-0.3,0.2-0.5c0.4-0.9,0.9-1.8,1.3-2.7
	c0.1-0.1,0.1-0.2,0.1-0.3c0-0.1,0.1-0.1,0.1-0.2c0.9-1.7,1.9-3.4,3-5c0,0,0-0.1,0.1-0.1c0.1-0.2,0.2-0.3,0.3-0.5
	c0.4-0.5,0.7-1,1.1-1.5c0.2-0.2,0.4-0.5,0.6-0.7c0.3-0.4,0.7-0.9,1-1.3c0.1-0.1,0.1-0.2,0.2-0.3c0.2-0.2,0.3-0.4,0.5-0.6
	c0.3-0.4,0.6-0.7,0.9-1.1c0.3-0.3,0.5-0.6,0.8-0.8c0.3-0.3,0.6-0.7,0.9-1c0.1-0.1,0.2-0.2,0.3-0.3c0.2-0.2,0.4-0.4,0.6-0.6
	c0.3-0.3,0.6-0.6,0.9-0.9c0.3-0.3,0.6-0.6,0.9-0.9c0.3-0.3,0.6-0.5,0.9-0.8c0.1-0.1,0.2-0.2,0.3-0.2c0.1-0.1,0.2-0.2,0.3-0.2
	c1-0.8,2-1.7,3.1-2.4l34-24.2c-1.1,0.8-2.1,1.6-3.1,2.4c-0.2,0.2-0.4,0.3-0.6,0.5c-0.3,0.3-0.6,0.5-0.9,0.8
	c-0.3,0.3-0.6,0.6-0.9,0.8c-0.3,0.3-0.6,0.6-0.9,0.8c-0.3,0.3-0.6,0.6-0.9,0.9c-0.3,0.3-0.6,0.7-0.9,1c-0.3,0.3-0.5,0.6-0.8,0.8
	c-0.3,0.3-0.6,0.7-0.9,1.1c-0.2,0.3-0.5,0.5-0.7,0.8c-0.4,0.4-0.7,0.9-1,1.3c-0.2,0.2-0.4,0.5-0.5,0.7c-0.4,0.5-0.7,1-1.1,1.5
	c-0.1,0.2-0.3,0.4-0.4,0.6c-1.1,1.6-2,3.2-3,4.9c-0.1,0.2-0.2,0.3-0.2,0.5c-0.5,0.9-0.9,1.8-1.3,2.7c-0.1,0.2-0.2,0.3-0.2,0.5
	c-0.5,1-0.9,2.1-1.3,3.2c0,0.1-0.1,0.2-0.1,0.3c-0.3,0.7-0.5,1.4-0.8,2.2c-0.1,0.2-0.1,0.3-0.1,0.5c-0.2,0.7-0.4,1.4-0.6,2.1
	c-0.1,0.2-0.1,0.4-0.2,0.6c-0.2,0.7-0.4,1.3-0.5,2c-0.1,0.2-0.1,0.4-0.1,0.7c-0.2,0.7-0.3,1.3-0.4,2c0,0.2-0.1,0.5-0.1,0.7
	c-0.1,0.7-0.2,1.4-0.4,2c0,0.3-0.1,0.5-0.1,0.8c-0.1,0.7-0.2,1.3-0.3,2c0,0.3-0.1,0.5-0.1,0.8c-0.1,0.7-0.1,1.3-0.2,2
	c0,0.3,0,0.6-0.1,0.8c0,0.7-0.1,1.3-0.1,2c0,0.3,0,0.6,0,0.9c0,0.7,0,1.4,0,2.1c0,0.3,0,0.6,0,0.9c0,0.7,0,1.4,0.1,2.1
	c0,0.3,0,0.5,0,0.8c0,0.7,0.1,1.5,0.2,2.3c0,0.2,0,0.5,0.1,0.7c0.1,0.9,0.2,1.7,0.3,2.6c0,0.1,0,0.3,0.1,0.4
	c0.1,0.6,0.2,1.3,0.3,1.9c0.1,0.3,0.1,0.6,0.1,0.9c0.1,0.6,0.2,1.2,0.3,1.7c0.1,0.4,0.1,0.8,0.2,1.1c0.1,0.5,0.2,1.1,0.4,1.6
	c0.1,0.4,0.2,0.9,0.3,1.3c0.1,0.5,0.3,1,0.4,1.5c0.1,0.5,0.2,0.9,0.4,1.4c0.2,0.7,0.4,1.4,0.6,2.1c0.1,0.3,0.2,0.6,0.3,0.9
	c0.3,1,0.7,2,1.1,3L332,630.7c-0.4-1-0.7-2-1.1-3c-0.1-0.3-0.2-0.6-0.3-1c-0.2-0.7-0.4-1.4-0.6-2.1c0-0.1,0-0.1-0.1-0.2
	c-0.1-0.4-0.2-0.8-0.3-1.2c-0.1-0.5-0.3-1-0.4-1.5c-0.1-0.4-0.2-0.9-0.3-1.3c-0.1-0.5-0.3-1.1-0.4-1.6c-0.1-0.4-0.2-0.8-0.2-1.2
	c-0.1-0.6-0.2-1.2-0.3-1.7c-0.1-0.3-0.1-0.6-0.2-0.9c-0.1-0.6-0.2-1.3-0.3-1.9c0,0,0,0,0,0c0-0.1,0-0.2,0-0.4
	c-0.1-0.9-0.2-1.7-0.3-2.6c0-0.2,0-0.5-0.1-0.7c-0.1-0.8-0.1-1.5-0.2-2.3C326.9,606.9,326.9,606.7,326.9,606.4z"/>
<polygon class="st1" points="332,630.7 475.1,1011.5 604,1354.8 741.4,1720.4 773.3,1693.3 639.8,1336.8 511.1,993.4 366.1,606.2 
	"/>
<path class="st0" d="M773.3,1693.3c0.3,0.9,0.7,1.7,1,2.6c0.2,0.5,0.4,0.9,0.6,1.4c0.3,0.6,0.6,1.2,0.8,1.8c0.2,0.4,0.4,0.9,0.6,1.3
	c0.4,0.7,0.7,1.4,1.1,2.2c0.1,0.3,0.3,0.5,0.4,0.8c0.5,0.9,1,1.9,1.6,2.8c0.2,0.3,0.4,0.6,0.5,0.9c0.4,0.6,0.8,1.2,1.1,1.8
	c0.2,0.4,0.5,0.7,0.7,1.1c0.3,0.4,0.5,0.7,0.8,1.1c0.9,1.3,1.9,2.6,2.9,3.9c1,1.3,2.1,2.5,3.1,3.7c0.2,0.2,0.4,0.4,0.5,0.6
	c1.1,1.2,2.3,2.4,3.5,3.5c0.7,0.6,1.4,1.3,2.1,1.9c0.4,0.4,0.8,0.7,1.3,1.1c0.4,0.3,0.7,0.6,1.1,0.9c0.5,0.4,1,0.8,1.5,1.2
	c0.3,0.3,0.7,0.5,1,0.8c0.5,0.4,1,0.7,1.5,1.1c0.3,0.2,0.7,0.5,1,0.7c0.6,0.4,1.2,0.8,1.8,1.2c0.3,0.2,0.6,0.4,1,0.6
	c0.6,0.4,1.2,0.7,1.8,1.1c0.3,0.2,0.6,0.4,0.9,0.5c0.9,0.5,1.9,1,2.9,1.5c0.2,0.1,0.4,0.2,0.6,0.3c1.2,0.6,2.4,1.1,3.6,1.6
	c0.9,0.4,1.8,0.7,2.7,1c0.4,0.2,0.8,0.3,1.3,0.4c0.5,0.2,1.1,0.4,1.6,0.5c0.4,0.1,0.9,0.3,1.3,0.4c0.5,0.1,1,0.3,1.6,0.4
	c0.4,0.1,0.9,0.2,1.3,0.3c0.5,0.1,1.1,0.2,1.6,0.4c0.4,0.1,0.9,0.2,1.3,0.3c0.6,0.1,1.1,0.2,1.7,0.3c0.4,0.1,0.9,0.1,1.3,0.2
	c0.6,0.1,1.2,0.1,1.8,0.2c0.4,0,0.8,0.1,1.2,0.1c0.8,0.1,1.5,0.1,2.3,0.2c0.2,0,0.4,0,0.7,0c1,0,2,0,3,0c0.3,0,0.6,0,0.9,0
	c0.7,0,1.4,0,2.1-0.1c0.4,0,0.7-0.1,1.1-0.1c0.6-0.1,1.3-0.1,1.9-0.2c0.4,0,0.8-0.1,1.2-0.2c0.6-0.1,1.2-0.2,1.8-0.3
	c0.4-0.1,0.8-0.1,1.2-0.2c0.6-0.1,1.2-0.2,1.8-0.4c0.4-0.1,0.8-0.2,1.1-0.3c0.7-0.2,1.3-0.3,2-0.5c0.3-0.1,0.6-0.2,1-0.3
	c1-0.3,2-0.6,2.9-1l0,0l478.9-173.3c6.1-2.2,11.6-5.5,16.3-9.7l-28.5,25.3c-4.7,4.2-10.3,7.6-16.4,9.8l-481.6,175
	c-1,0.4-2,0.7-2.9,1c-0.3,0.1-0.6,0.2-1,0.3c-0.7,0.2-1.3,0.4-2,0.5c-0.4,0.1-0.8,0.2-1.1,0.3c-0.6,0.1-1.2,0.3-1.9,0.4
	c-0.4,0.1-0.8,0.1-1.2,0.2c-0.6,0.1-1.2,0.2-1.8,0.3c-0.4,0.1-0.8,0.1-1.2,0.2c-0.6,0.1-1.3,0.1-1.9,0.2c-0.4,0-0.8,0.1-1.1,0.1
	c-0.7,0-1.4,0.1-2.1,0.1c-0.3,0-0.6,0-0.9,0c-1,0-2,0-3,0c-0.2,0-0.5,0-0.7,0c-0.8,0-1.5-0.1-2.3-0.1c-0.4,0-0.8-0.1-1.2-0.1
	c-0.6-0.1-1.2-0.1-1.8-0.2c-0.4-0.1-0.9-0.1-1.3-0.2c-0.6-0.1-1.1-0.2-1.7-0.3c-0.4-0.1-0.9-0.2-1.3-0.3c-0.5-0.1-1.1-0.2-1.6-0.4
	c-0.5-0.1-0.9-0.2-1.3-0.3c-0.5-0.1-1.1-0.3-1.6-0.4c-0.4-0.1-0.9-0.2-1.3-0.4c-0.5-0.2-1.1-0.3-1.6-0.5c-0.4-0.1-0.8-0.3-1.3-0.4
	c-0.9-0.3-1.8-0.7-2.6-1c0,0,0,0,0,0c-1.2-0.5-2.4-1-3.6-1.6c-0.2-0.1-0.4-0.2-0.6-0.3c-1-0.5-1.9-1-2.9-1.5
	c-0.1-0.1-0.3-0.1-0.4-0.2c-0.2-0.1-0.4-0.2-0.5-0.3c-0.6-0.4-1.2-0.7-1.9-1.1c-0.3-0.2-0.7-0.4-1-0.6c-0.6-0.4-1.2-0.8-1.8-1.2
	c-0.2-0.1-0.3-0.2-0.5-0.3c-0.2-0.1-0.4-0.3-0.5-0.4c-0.5-0.4-1-0.7-1.5-1.1c-0.3-0.2-0.7-0.5-1-0.8c-0.5-0.4-1-0.8-1.5-1.2
	c-0.1-0.1-0.2-0.1-0.2-0.2c-0.3-0.2-0.6-0.5-0.8-0.7c-0.4-0.4-0.8-0.7-1.3-1.1c-0.7-0.6-1.4-1.2-2.1-1.9c0,0,0,0,0,0
	c-1.2-1.1-2.4-2.3-3.5-3.5c-0.1-0.1-0.2-0.2-0.3-0.3c-0.1-0.1-0.2-0.2-0.3-0.3c-2.2-2.4-4.2-4.9-6.1-7.5c-0.1-0.1-0.2-0.3-0.3-0.4
	c-0.2-0.2-0.3-0.5-0.5-0.7c-0.2-0.4-0.5-0.7-0.7-1.1c-0.4-0.6-0.8-1.2-1.2-1.8c-0.2-0.3-0.4-0.6-0.5-0.9c0,0-0.1-0.1-0.1-0.1
	c-0.5-0.9-1-1.7-1.5-2.6c-0.1-0.3-0.3-0.5-0.4-0.8c-0.3-0.6-0.6-1.2-0.9-1.8c-0.1-0.1-0.1-0.3-0.2-0.4c-0.2-0.4-0.4-0.9-0.6-1.3
	c-0.3-0.6-0.6-1.2-0.8-1.8c-0.2-0.5-0.4-0.9-0.6-1.4c-0.1-0.4-0.3-0.7-0.5-1.1c-0.2-0.5-0.4-1-0.6-1.5L773.3,1693.3z"/>
<path class="st0" d="M361.1,583.3c-0.1-1-0.1-2-0.2-3c0-0.3,0-0.6,0-0.9c0-1,0-1.9,0-2.9c0-0.3,0-0.6,0-0.9c0-0.9,0.1-1.9,0.1-2.8
	c0-0.3,0-0.6,0.1-0.9c0.1-0.9,0.2-1.8,0.3-2.8c0-0.3,0.1-0.5,0.1-0.8c0.1-0.9,0.3-1.9,0.5-2.8c0-0.2,0.1-0.5,0.1-0.7
	c0.2-1,0.4-1.9,0.6-2.9c0-0.1,0-0.2,0.1-0.4c0,0,0-0.1,0-0.1c0.7-2.6,1.5-5.1,2.4-7.6c0,0,0,0,0-0.1c0-0.1,0.1-0.2,0.1-0.3
	c0.3-0.9,0.7-1.7,1.1-2.5c0-0.1,0.1-0.1,0.1-0.2c1-2.3,2.2-4.4,3.5-6.5c0.1-0.2,0.2-0.4,0.3-0.6c0,0,0,0,0.1-0.1
	c0.8-1.2,1.6-2.4,2.5-3.6c0,0,0-0.1,0.1-0.1c0.1-0.1,0.1-0.1,0.2-0.2c0.7-0.9,1.5-1.9,2.2-2.7c0.1-0.1,0.2-0.2,0.3-0.3
	c0.1-0.1,0.2-0.2,0.2-0.2c0.8-0.9,1.6-1.7,2.4-2.5c0,0,0.1-0.1,0.1-0.1c0,0,0,0,0,0c0.9-0.9,1.8-1.7,2.8-2.5c0,0,0,0,0,0
	c0.1-0.1,0.2-0.1,0.2-0.2c0.8-0.7,1.6-1.3,2.5-1.9c0.1-0.1,0.2-0.1,0.3-0.2c0.2-0.1,0.4-0.2,0.6-0.4c0.7-0.5,1.4-0.9,2.1-1.4
	c0.2-0.1,0.3-0.2,0.5-0.3c0.2-0.1,0.4-0.2,0.5-0.3c0.7-0.4,1.4-0.8,2.1-1.2c0.2-0.1,0.4-0.3,0.7-0.4c0.1-0.1,0.3-0.1,0.4-0.2
	c0.7-0.4,1.5-0.8,2.3-1.1c0.2-0.1,0.5-0.2,0.7-0.4c0.1,0,0.1-0.1,0.2-0.1c1.1-0.5,2.3-1,3.4-1.4c0,0,0,0,0,0c0.1,0,0.2-0.1,0.3-0.1
	c1.1-0.4,2.2-0.7,3.3-1.1c0.1,0,0.3-0.1,0.4-0.1c0.8-0.2,1.6-0.4,2.4-0.6l514.5-123.2c0.6-0.1,1.2-0.3,1.8-0.4
	c0.3-0.1,0.6-0.1,0.9-0.2c0.2,0,0.5-0.1,0.7-0.1c0.9-0.1,1.8-0.3,2.7-0.4c0,0,0.1,0,0.1,0c0.2,0,0.3,0,0.5,0
	c0.8-0.1,1.6-0.2,2.4-0.2c0.3,0,0.6,0,0.9,0c0.3,0,0.6,0,0.9,0c0.6,0,1.2,0,1.7,0l7.9,0c-0.8,0-1.6,0-2.5,0.1c-0.3,0-0.6,0-0.8,0
	c-0.7,0-1.5,0.1-2.2,0.2c-0.1,0-0.3,0-0.4,0c-0.9,0.1-1.7,0.2-2.6,0.4c-0.2,0-0.4,0.1-0.7,0.1c-0.8,0.2-1.7,0.3-2.5,0.5L413.8,519.7
	c-0.9,0.2-1.7,0.4-2.5,0.7c-1,0.3-2.1,0.6-3.1,1c-0.1,0-0.2,0.1-0.3,0.1c-1.1,0.4-2.1,0.8-3.2,1.3c-0.3,0.1-0.6,0.3-0.9,0.4
	c-0.7,0.3-1.4,0.7-2.1,1c-0.3,0.2-0.7,0.4-1,0.5c-0.6,0.4-1.3,0.7-1.9,1.1c-0.3,0.2-0.6,0.4-0.9,0.6c-0.6,0.4-1.3,0.8-1.9,1.3
	c-0.3,0.2-0.5,0.4-0.8,0.5c-0.8,0.6-1.5,1.1-2.2,1.8c-0.1,0.1-0.2,0.2-0.3,0.2c-0.9,0.7-1.7,1.5-2.6,2.3c-0.1,0.1-0.1,0.1-0.2,0.2
	c-0.8,0.7-1.5,1.5-2.2,2.3c-0.2,0.2-0.3,0.4-0.5,0.5c-0.7,0.8-1.4,1.6-2,2.5c-0.1,0.1-0.2,0.2-0.3,0.3c-0.8,1.1-1.6,2.2-2.3,3.3
	c-0.1,0.2-0.3,0.5-0.4,0.7c-0.7,1.1-1.3,2.3-1.9,3.4c0,0,0,0.1-0.1,0.1c-0.4,0.8-0.8,1.5-1.1,2.3c0,0.1-0.1,0.2-0.1,0.2
	c-0.3,0.7-0.7,1.5-1,2.3c-0.1,0.1-0.1,0.3-0.2,0.4c-0.9,2.2-1.6,4.6-2.2,7c0,0.2-0.1,0.4-0.1,0.5c-0.2,0.9-0.4,1.7-0.6,2.6
	c0,0.2-0.1,0.5-0.1,0.7c-0.2,0.8-0.3,1.7-0.4,2.5c0,0.3-0.1,0.5-0.1,0.8c-0.1,0.8-0.2,1.7-0.3,2.5c0,0.3-0.1,0.6-0.1,0.9
	c-0.1,0.8-0.1,1.7-0.1,2.5c0,0.3,0,0.6,0,0.9c0,0.9,0,1.7,0,2.6c0,0.3,0,0.6,0,0.9c0,0.9,0.1,1.8,0.1,2.8c0,0.2,0,0.5,0,0.7
	c0.1,1.1,0.2,2.2,0.3,3.3c0,0.1,0,0.1,0,0.2c0.2,1.2,0.3,2.4,0.6,3.6c0,0,0,0,0,0c0.2,1.2,0.5,2.5,0.8,3.8c0.1,0.4,0.2,0.8,0.3,1.1
	c0.2,0.9,0.5,1.8,0.7,2.7c0.2,0.6,0.3,1.2,0.5,1.8c0.1,0.3,0.2,0.6,0.3,0.9c0.3,1,0.7,2,1.1,3l406.4,1086.1c0.3,0.9,0.7,1.8,1.1,2.8
	c0.1,0.2,0.1,0.3,0.2,0.5c0.4,0.9,0.8,1.8,1.2,2.7c0.6,1.3,1.2,2.5,1.9,3.7c0.2,0.3,0.3,0.6,0.5,0.8c0.5,0.9,1,1.7,1.5,2.6
	c0.2,0.3,0.4,0.6,0.6,1c0.5,0.8,1.1,1.6,1.6,2.4c0.2,0.2,0.3,0.5,0.5,0.7c0.7,1,1.5,2,2.2,2.9c0.8,1,1.5,1.9,2.3,2.8
	c0.2,0.2,0.3,0.3,0.5,0.5c0.6,0.7,1.3,1.4,2,2.1c0.2,0.2,0.4,0.4,0.7,0.7c0.6,0.6,1.3,1.3,2,1.9c0.2,0.2,0.4,0.4,0.7,0.6
	c0.8,0.7,1.6,1.4,2.4,2c0.1,0.1,0.2,0.2,0.4,0.3c1,0.8,2,1.5,3,2.3c0,0,0.1,0.1,0.1,0.1c1,0.7,1.9,1.3,2.9,2
	c0.2,0.1,0.4,0.3,0.7,0.4c1,0.6,2,1.2,3,1.7c0.1,0.1,0.3,0.2,0.4,0.2c1.2,0.7,2.4,1.3,3.7,1.8c0.4,0.2,0.8,0.4,1.2,0.5
	c0.4,0.2,0.8,0.3,1.1,0.5c0.7,0.3,1.5,0.6,2.3,0.9c0.1,0,0.1,0,0.2,0.1c0.6,0.2,1.1,0.4,1.7,0.6c0.3,0.1,0.7,0.2,1,0.3
	c0.5,0.2,1,0.3,1.5,0.4c0.4,0.1,0.8,0.2,1.2,0.3c1.1,0.3,2.2,0.5,3.3,0.8c0.2,0,0.4,0.1,0.6,0.1c0.9,0.2,1.8,0.3,2.7,0.4
	c0.4,0.1,0.8,0.1,1.2,0.1c0.6,0.1,1.2,0.1,1.8,0.2c0.4,0,0.9,0.1,1.3,0.1c0.6,0,1.2,0.1,1.8,0.1c0.4,0,0.9,0,1.3,0
	c0.6,0,1.2,0,1.7,0c0.4,0,0.9,0,1.3-0.1c0.6,0,1.2-0.1,1.7-0.1c0.4,0,0.9-0.1,1.3-0.1c0.6-0.1,1.2-0.2,1.8-0.2
	c0.4-0.1,0.9-0.1,1.3-0.2c0.6-0.1,1.2-0.2,1.8-0.4c0.4-0.1,0.8-0.2,1.2-0.3c0.7-0.2,1.3-0.3,2-0.5c0.3-0.1,0.7-0.2,1-0.3
	c1-0.3,2-0.6,3-1l478.4-172.7c15.3-5.5,26.1-18.5,30.8-34.4l-2.3,7.7c-0.6,2.2-1.4,4.3-2.2,6.3c-0.1,0.4-0.3,0.7-0.5,1.1
	c-0.3,0.7-0.6,1.3-0.9,2c-0.7,1.6-1.6,3.1-2.4,4.5c-0.2,0.4-0.5,0.8-0.7,1.2c-6.2,10.1-15.3,18.1-26.7,22.2l-478.9,173.3
	c-1.1,0.4-2.2,0.7-3.2,1.1c-0.4,0.1-0.7,0.2-1.1,0.3c-0.7,0.2-1.5,0.4-2.2,0.6c-0.4,0.1-0.9,0.2-1.3,0.3c-0.7,0.1-1.3,0.3-2,0.4
	c-0.5,0.1-0.9,0.1-1.4,0.2c-0.6,0.1-1.3,0.2-1.9,0.3c-0.5,0.1-1,0.1-1.4,0.1c-0.6,0.1-1.3,0.1-1.9,0.1c-0.5,0-1,0-1.4,0.1
	c-0.6,0-1.3,0-1.9,0c-0.5,0-1,0-1.4,0c-0.6,0-1.3,0-1.9-0.1c-0.5,0-0.9-0.1-1.4-0.1c-0.7-0.1-1.3-0.1-1.9-0.2c-0.3,0-0.6,0-0.9-0.1
	c-0.1,0-0.3,0-0.4-0.1c-1-0.1-2-0.3-3-0.5c-0.2,0-0.4-0.1-0.6-0.1c-1.2-0.2-2.4-0.5-3.6-0.8c0,0-0.1,0-0.1,0
	c-0.4-0.1-0.8-0.2-1.2-0.3c-0.6-0.2-1.1-0.3-1.7-0.5c-0.3-0.1-0.7-0.2-1-0.3c-0.8-0.2-1.5-0.5-2.3-0.8c-0.8-0.3-1.5-0.6-2.3-0.9
	c-0.4-0.2-0.9-0.4-1.3-0.5c-0.4-0.2-0.7-0.3-1.1-0.5c-0.1-0.1-0.3-0.1-0.4-0.2c-0.4-0.2-0.8-0.4-1.2-0.6c-0.5-0.2-1-0.5-1.5-0.7
	c-0.4-0.2-0.8-0.4-1.1-0.6c-0.1,0-0.1-0.1-0.2-0.1c-0.1-0.1-0.2-0.1-0.3-0.2c-1.1-0.6-2.2-1.2-3.2-1.9c-0.1-0.1-0.3-0.1-0.4-0.2
	c-0.1-0.1-0.2-0.1-0.3-0.2c-1.1-0.7-2.2-1.4-3.2-2.2c0,0,0,0-0.1,0c0,0,0,0,0,0c-1.1-0.8-2.2-1.6-3.2-2.5c0,0-0.1,0-0.1-0.1
	c-0.1-0.1-0.2-0.2-0.3-0.2c-0.9-0.7-1.7-1.4-2.6-2.2c-0.1-0.1-0.2-0.2-0.3-0.2c-0.1-0.1-0.3-0.3-0.4-0.4c-0.7-0.7-1.4-1.3-2.1-2
	c-0.1-0.1-0.3-0.3-0.4-0.4c-0.1-0.1-0.2-0.2-0.3-0.3c-0.7-0.7-1.4-1.5-2.1-2.3c-0.1-0.1-0.3-0.3-0.4-0.4c0,0-0.1-0.1-0.1-0.1
	c-1.7-2-3.4-4-4.9-6.2c0-0.1-0.1-0.1-0.2-0.2c-0.1-0.2-0.2-0.4-0.4-0.6c-0.6-0.9-1.2-1.7-1.7-2.6c-0.1-0.2-0.2-0.3-0.3-0.5
	c-0.1-0.2-0.2-0.4-0.3-0.5c-0.6-0.9-1.1-1.8-1.6-2.8c-0.1-0.2-0.3-0.4-0.4-0.6c0-0.1-0.1-0.2-0.1-0.3c-0.7-1.3-1.4-2.6-2.1-4
	c0-0.1-0.1-0.1-0.1-0.2c-0.4-0.9-0.8-1.8-1.2-2.7c-0.1-0.2-0.1-0.3-0.2-0.5c-0.3-0.7-0.6-1.3-0.8-2c-0.1-0.3-0.3-0.7-0.4-1
	L366.1,606.2c-0.4-1.1-0.8-2.2-1.2-3.3c-0.1-0.3-0.2-0.7-0.3-1c-0.1-0.4-0.3-0.8-0.4-1.2c-0.1-0.2-0.1-0.5-0.2-0.7
	c-0.3-1-0.5-1.9-0.8-2.9c-0.1-0.4-0.2-0.8-0.3-1.2c-0.6-2.7-1.1-5.4-1.5-8c0-0.1,0-0.1,0-0.2c-0.2-1.2-0.3-2.4-0.4-3.6
	C361.1,583.8,361.1,583.6,361.1,583.3z"/>
<path class="st1" d="M413.8,519.7c-32.8,7.9-48.5,43.6-35,79.7l406.4,1086.1c12.7,34,47.9,52.6,78.4,41.6l478.4-172.7
	c27.7-10,40.7-44.3,29.2-76.7L1003.3,445.8c-12.2-34.2-46.1-56.3-75.8-49.2L413.8,519.7z"/>
<path class="st2" d="M421.8,541.5c-20.7,5-30.4,27.1-21.9,49.6l407,1077.1c8,21.3,30.2,33.1,49.4,26.5l477.8-165.8
	c17.6-6.3,25.6-27.6,18.3-47.8L981.6,454.2c-7.8-21.5-29.2-35.5-47.9-31.1l-109.6,25.4c-14.8,3.6-21.6,19.9-15.5,36.5
	c6.1,16.7-0.8,33-15.3,36.6l-174.9,41.5c-15.3,3.6-32.8-7.3-39.2-24.3c-6.4-17.1-24-28.1-39.5-24.5L421.8,541.5z"/>
<path class="st3" d="M1345.8,1494L974.9,467.1c-7.8-21.5-29.2-35.5-47.9-31.1l-109.6,25.4c-4.2,1-7.7,3.1-10.5,5.8
	c1.8-9.2,7.9-16.5,17.2-18.8L933.7,423c18.7-4.3,40.1,9.6,47.9,31.1l370.9,1026.9c5.1,14.3,2.7,29-5.4,38.7
	C1349.2,1511.9,1348.9,1502.9,1345.8,1494z"/>
<g>
	<path class="st4" d="M689.3,486c-9.7,2.3-14.3,13.1-10.3,24c4,10.9,15.1,17.8,24.7,15.5c9.6-2.4,14.2-13.1,10.2-24
		C710,490.6,698.9,483.7,689.3,486z"/>
</g>
<path class="st5" d="M709.8,505.1c-4-10.9-15-17.8-24.7-15.5c-1.4,0.3-2.7,0.9-3.9,1.6c2-2.5,4.7-4.4,8.1-5.2
	c9.6-2.3,20.7,4.6,24.7,15.5c3.4,9.3,0.5,18.5-6.4,22.5C711.3,519.3,712.4,512.2,709.8,505.1z"/>
<path class="st6" d="M384.3,793.1L482,1050c3.7,9.7,14,14.6,22.3,10.5l0,0c7.1-3.6,10.1-12.7,6.9-21.2L410.9,778.5
	c-3.5-9.1-13-12.3-20.5-6.9l-0.2,0.1C384,776.2,381.4,785.4,384.3,793.1z"/>
<g>
	<path class="st0" d="M504.3,1060.4c7.1-3.6,10.1-12.7,6.9-21.2L410.9,778.5c-3-7.7-10.3-11.1-17-8.7l0,0l6.8-2.2l0,0
		c6.7-2.2,13.9,1.2,16.9,8.8l100.9,261.8c3.3,8.5,0.3,17.7-6.9,21.3c-1,0.5-2.1,0.9-3.2,1.1l0,0l0,0c-0.6,0.1-1.3,0.2-1.9,0.3
		l-5.5,0.8l0,0C502,1061.3,503.2,1060.9,504.3,1060.4z"/>
</g>
<ellipse transform="matrix(0.8626 -0.5059 0.5059 0.8626 -312.3994 528.1715)" class="st7" cx="816.1" cy="839.2" rx="158.6" ry="186.9"/>
<path class="st8" d="M988.6,1459.4l-138.6,42.1l-10,3l-58.4,17.8l53.8,8l20.1,49.1c3.9,9.6,13.1,15.6,20.6,13.3l148.7-45.2
	c7.4-2.3,10.3-11.9,6.3-21.5l-21.8-53.4C1005.2,1463.1,996,1457.1,988.6,1459.4z"/>
<path class="st8" d="M975.6,1269.4l138.6-42.1l10-3l58.4-17.8l-36.1,35.3l20.1,49.1c3.9,9.6,1.1,19.2-6.3,21.5l-148.7,45.2
	c-7.4,2.3-16.6-3.7-20.6-13.3l-21.8-53.4C965.4,1281.3,968.2,1271.7,975.6,1269.4z"/>
<g>
	<path class="st9" d="M828.1,808.4c-4.5-16.7-14.9-23.5-23.3-26.2c-1,28.1-6.6,61.5-46.4,78.2C795.3,890.5,835.6,836,828.1,808.4z"
		/>
</g>
<g>
	<path class="st9" d="M1112.5,872.9c6.8-15.9,18-21.2,26.7-22.8c-3,27.9-2,61.8,35.1,83.9C1133.5,958.8,1101.2,899.2,1112.5,872.9z"
		/>
</g>
<g>
	<path class="st10" d="M1117.6,781.5c0,0.6,0,1.3,0,1.9c-0.4,30.2-11.5,58-29.7,79.7c-2.7,3.2-5.6,6.4-8.6,9.3
		c-23.7,23.3-56.4,37.7-92.6,37.7c-60.5,0-111.5-40.4-126.5-95.2c-1.2-4.4-2.2-8.9-2.9-13.5c-1-6.5-1.6-13.2-1.6-20
		c0-36.5,15.4-69.4,40.2-92.8c13.7,6.2,26.7,11.2,38.6,15.2c32.4,11.1,55.3,14.8,55.3,14.8l19.2,3c0,0,19.4,3.2,49.2,3.7
		c13.4,0.2,28.8-0.1,45.5-1.5C1112.6,741.2,1117.6,760.8,1117.6,781.5z"/>
</g>
<g>
	<g>
		<path class="st11" d="M986.7,913.4c-60.6,0-113.9-40.1-129.6-97.6c-1.2-4.5-2.2-9.2-3-13.8c-1.1-6.7-1.6-13.6-1.6-20.5
			c0-17.9,3.6-35.3,10.7-51.7c0.7-1.6,2.6-2.4,4.3-1.7c1.6,0.7,2.4,2.6,1.7,4.3c-6.7,15.6-10.2,32.1-10.2,49.1
			c0,6.5,0.5,13.1,1.5,19.5c0.7,4.4,1.7,8.9,2.8,13.1c14.9,54.7,65.7,92.8,123.3,92.8c34.1,0,66.2-13.1,90.4-36.8
			c3-2.9,5.8-6,8.4-9.1c1.6-1.9,3.1-3.8,4.6-5.8c1.1-1.4,3.1-1.7,4.5-0.7c1.4,1.1,1.7,3.1,0.7,4.5c-1.5,2.1-3.1,4.1-4.8,6.1
			c-2.7,3.3-5.7,6.5-8.8,9.6C1056.2,899.7,1022.5,913.4,986.7,913.4z"/>
	</g>
</g>
<g>
	<g>
		<path class="st1" d="M942.5,767.3c-43.8,8.2-70.7,33.9-82.3,47.7c-1.2-4.4-2.2-8.9-2.9-13.5c14.7-15.5,41.9-37.3,83.2-45.1
			c3-0.6,5.9,1.4,6.5,4.4C947.5,763.8,945.6,766.7,942.5,767.3z"/>
	</g>
	<g>
		<path class="st1" d="M1087.9,863.1c-2.7,3.2-5.6,6.4-8.6,9.3c-18.1-56.6-60.4-85.4-60.9-85.7c-2.5-1.7-3.2-5.1-1.5-7.7
			c1.7-2.6,5.1-3.2,7.7-1.6C1026.5,778.8,1067.8,806.8,1087.9,863.1z"/>
	</g>
</g>
<g>
	<path class="st1" d="M1355.1,505.7c-0.1,3.3-0.3,6.5-0.6,9.8c-2.4,28.2-11.2,56.8-27.6,84.8c-26,44.3-62.3,73.3-101.1,92.2
		c-3.4,1.6-6.8,3.2-10.2,4.7c-97.6,42.5-206.6,24.5-206.6,24.5l-19.2-3c0,0-106.1-17.2-183.7-87.5c-2.7-2.5-5.4-5-8.1-7.6
		c-30.9-30.3-56.2-69.6-66.7-120.5c-6.9-33.1-5.9-64.1,1.5-92.5c0.8-3.2,1.7-6.4,2.7-9.6C773.3,280.4,926,208.6,1070,225.1l17.8,2.5
		C1233.4,258.6,1359.2,377.9,1355.1,505.7z"/>
</g>
<g>
	<g>
		<path class="st1" d="M757.2,724.3l8.5-16.4c0,0-7.9-40,25-48.6c32.9-8.6,21.3,32.5,18.3,43.3c-3,10.8-3.4,46-4.1,76.6
			c-0.7,30.6-6,68.8-55.7,84.4c-49.7,15.7-119.6-70.3-129.3-81.8c-9.7-11.6-39.2-60.5-27.3-90.8c12-30.3,53.8-36.6,83.3-18.3
			c29.5,18.3,48.2,39.2,48.2,39.2S755.5,721,757.2,724.3z"/>
	</g>
</g>
<g>
	<path class="st12" d="M811.1,659.5c-4.6-4.7-11.8-5.8-21.2-3.4c-32.1,8.4-28.5,44.3-27.5,51.2l-6.4,12.3c-4.1-2.1-12.4-5.4-30-10.5
		c-3.6-3.9-21.4-22.4-48.3-39.1c-17.3-10.8-39.5-13.7-57.9-7.6c-7.3,2.4-13.6,6.1-18.8,10.9c0,0,0,0,0,0c-0.2,0.2-0.4,0.3-0.5,0.5
		c-4.7,4.5-8.4,9.9-10.8,16c-1.3,3.4-2.2,6.9-2.6,10.7c0,0.1,0,0.1,0,0.2c0,0,0,0.1,0,0.1c-3.5,30.7,20.4,71.1,30.5,83.1l1,1.1
		c27.3,32.7,76.5,83.8,118,83.8c4.7,0,9.3-0.7,13.7-2.1c1.7-0.5,2.6-2.4,2.1-4.1c-0.5-1.7-2.4-2.6-4.1-2.1
		c-19.3,6.1-44.3-3.5-74.5-28.3c-24.2-20-43.9-43.6-50.4-51.3l-1-1.2c-5.7-6.8-19-27.9-25.6-49.7c0.9-1.7,3.3-5.6,7.6-7.3
		c3.9-1.6,8.7-1.1,14.1,1.5c18.9,8.9,61.9,65.3,62.3,65.9c0,0,0,0,0,0c0,0,0,0,0.1,0.1c0.1,0.1,0.2,0.2,0.3,0.3c0,0,0.1,0.1,0.1,0.1
		c0.1,0.1,0.3,0.2,0.4,0.3c0,0,0.1,0,0.1,0c0.1,0.1,0.3,0.1,0.5,0.2c0,0,0,0,0.1,0c0,0,0,0,0,0c0.1,0,0.3,0.1,0.4,0.1c0,0,0,0,0.1,0
		c0.1,0,0.3,0,0.5,0c0,0,0,0,0,0c0,0,0.1,0,0.1,0c0.1,0,0.1,0,0.2,0c1.4-0.1,34.4-3.2,59.1,29.4c0.6,0.8,1.6,1.3,2.6,1.3
		c0.7,0,1.4-0.2,2-0.7c1.4-1.1,1.7-3.1,0.6-4.5c-21.4-28.3-48.9-31.9-60-32.1c4.3-12,17.7-46.2,37.2-69.2
		c10.9,3.2,22.8,7.2,27.5,9.5c-2.3,3.8-6.2,11.4-7.7,21c-2,12.8,0.1,31.8,21.1,49.4c0.6,0.5,1.3,0.8,2.1,0.8c0.9,0,1.8-0.4,2.5-1.2
		c1.1-1.4,1-3.4-0.4-4.6c-35.6-29.7-11.6-62.8-10.6-64.3c0,0,0,0,0,0c0.1-0.1,0.2-0.3,0.3-0.4l8.5-16.4c0.3-0.7,0.4-1.4,0.3-2.1
		c0-0.1-1.8-9.5,0.2-19.9c2.6-13.4,10.1-21.8,22.5-25c7.1-1.8,12.1-1.3,15,1.6c5.1,5.1,4.9,17.7-0.6,37.5l-0.1,0.3
		c-2.7,9.8-3.3,36.7-3.9,65.2c-0.1,4.1-0.2,8.2-0.3,12.2c-0.4,15.5-1.9,33.4-10.3,48.8c-0.9,1.6-0.3,3.5,1.3,4.4
		c1.6,0.9,3.5,0.3,4.4-1.3c9.1-16.6,10.7-35.5,11.1-51.7c0.1-4,0.2-8.1,0.3-12.2c0.6-26.9,1.2-54.6,3.7-63.7l0.1-0.3
		C814.7,694.1,821.4,669.9,811.1,659.5z M682.3,781.5c-11.1-14.2-44-55-61-63.1c-7.2-3.4-13.7-3.9-19.4-1.6
		c-3.1,1.2-5.4,3.2-7.2,5.1c-1.5-6.9-2.1-13.8-1.3-20.1c0,0,0,0,0-0.1c0.1-0.4,2.2-7.6,8.7-11c5.3-2.7,12.3-2.2,20.7,1.5
		c15.9,7,34.2,26.3,48.9,41.8c8.9,9.4,16.1,17,21.8,21C688.2,766,684.5,775.7,682.3,781.5z M696.3,749c-5.1-3.9-12.4-11.6-20-19.6
		c-15.1-15.9-33.9-35.8-51-43.3c-10-4.4-18.6-4.9-25.6-1.6c1.6-2.3,3.4-4.4,5.5-6.3c3-2.1,25.1-16.1,51.8,7.4
		c18.3,16.1,30.3,28.8,38.3,37.2c4.2,4.4,7.3,7.7,9.9,10C701.9,738.3,699,743.7,696.3,749z M708.7,727.3c-2.3-2.1-5.1-5.1-8.7-8.9
		c-8-8.5-20.2-21.4-38.7-37.6c-10.6-9.3-20.7-13.3-29.3-14.5c14.2-1.9,29.6,1.4,42.2,9.2c23.4,14.5,40.1,30.9,45.6,36.6
		C715.8,716.8,712.1,722,708.7,727.3z"/>
</g>
<g>
	<path class="st1" d="M1194.4,799.5l-6.1-17.4c0,0,13.4-38.6-18-51.6c-31.4-13.1-25.6,29.2-24.2,40.4c1.5,11.1-3.1,46-6.6,76.4
		c-3.5,30.4-3.7,68.9,43.4,91.4c47,22.5,128.2-52.9,139.4-63c11.2-10.1,47.3-54.5,39.7-86.1c-7.6-31.6-48.2-43.8-80-29.7
		c-31.8,14-53.2,32.1-53.2,32.1S1196.6,796.5,1194.4,799.5z"/>
</g>
<g>
	<path class="st12" d="M1142.9,771l0,0.3c1.2,9.3-2,36.9-5.2,63.6c-0.5,4.1-1,8.1-1.4,12.1c-1.9,16.1-2.9,35,3.8,52.8
		c0.6,1.7,2.5,2.5,4.2,1.9c1.7-0.6,2.5-2.5,1.9-4.2c-6.2-16.4-5.2-34.4-3.5-49.7c0.5-4,0.9-8,1.4-12.1c3.3-28.3,6.5-55.1,5.2-65.1
		l0-0.3c-2.6-20.3-1.1-32.8,4.7-37.2c3.3-2.5,8.3-2.3,15.1,0.5c11.8,4.9,18.1,14.3,18.8,27.9c0.5,10.5-2.6,19.6-2.6,19.7
		c-0.2,0.7-0.2,1.4,0,2.1l6.1,17.4c0.1,0.2,0.1,0.3,0.2,0.5c0,0,0,0,0,0c0.9,1.6,20,37.7-19.4,62.2c-1.5,0.9-2,2.9-1,4.5
		c0.5,0.8,1.4,1.4,2.3,1.5c0.7,0.1,1.5,0,2.2-0.5c23.3-14.5,28-33,27.8-46c-0.1-9.7-2.9-17.7-4.7-21.8c5-1.6,17.3-3.9,28.6-5.6
		c16.1,25.4,24.6,61.2,27.2,73.7c-11-1.4-38.7-1.7-63.9,23.4c-1.3,1.3-1.3,3.3,0,4.6c0.5,0.5,1.2,0.8,1.8,0.9c1,0.1,2-0.2,2.7-0.9
		c29-28.8,61.3-21.2,62.6-20.9c0.1,0,0.1,0,0.2,0c0,0,0.1,0,0.1,0c0,0,0,0,0,0c0.2,0,0.3,0,0.5,0c0,0,0,0,0.1,0c0.1,0,0.3,0,0.4,0
		c0,0,0,0,0,0c0,0,0,0,0.1,0c0.2,0,0.3-0.1,0.5-0.1c0,0,0.1,0,0.1,0c0.2-0.1,0.3-0.2,0.5-0.2c0,0,0.1-0.1,0.1-0.1
		c0.1-0.1,0.3-0.2,0.4-0.3c0,0,0,0,0.1-0.1c0,0,0,0,0,0c0.5-0.5,51-50.4,70.9-56.6c5.8-1.8,10.5-1.6,14.2,0.5c4,2.3,5.9,6.5,6.5,8.3
		c-9.5,20.7-25.7,39.7-32.3,45.7l-1.1,1c-7.5,6.8-30.3,27.4-57,43.8c-33.3,20.4-59.5,26.4-77.7,17.7c-1.6-0.8-3.5-0.1-4.3,1.5
		c-0.8,1.6-0.1,3.5,1.5,4.3c4.2,2,8.7,3.3,13.3,4c41.1,5.8,96.9-37.9,128.6-66.5l1.1-1c11.6-10.5,40.9-47.1,41.7-78c0,0,0-0.1,0-0.1
		c0-0.1,0-0.1,0-0.2c0.1-3.7-0.3-7.4-1.1-10.9c-1.5-6.4-4.4-12.2-8.4-17.3c-0.1-0.2-0.3-0.4-0.4-0.6c0,0,0,0,0,0
		c-4.4-5.4-10.2-10-17.1-13.4c-17.4-8.6-39.7-8.8-58.4-0.6c-29,12.8-49.2,28.7-53.3,32c-18.1,2.6-26.9,4.7-31.2,6.2l-4.6-13
		c2-6.8,10.5-41.8-20.1-54.6c-9-3.8-16.3-3.6-21.5,0.4C1138.4,736.7,1141.7,761.6,1142.9,771z M1253.3,838.7
		c6.1-3.2,14.4-9.8,24.5-17.8c16.7-13.3,37.5-29.9,54.2-34.6c8.9-2.5,15.8-2,20.7,1.4c6,4.2,7,11.6,7,12.1c0,0,0,0,0,0.1
		c-0.2,6.4-1.7,13.1-4.1,19.7c-1.5-2.2-3.6-4.4-6.4-6c-5.3-3.1-11.8-3.4-19.4-1.1c-18,5.6-56.3,41.5-69.2,54
		C1259.3,860.5,1256.9,850.4,1253.3,838.7z M1244.7,815.2c2.9-1.9,6.4-4.7,11.2-8.5c9-7.2,22.7-18.2,43.1-31.5
		c29.7-19.5,49.6-2.6,52.4-0.1c1.8,2.2,3.3,4.5,4.5,7c-6.5-4.3-15.1-4.9-25.6-2c-18,5-39.4,22.1-56.5,35.7
		c-8.6,6.9-16.9,13.4-22.5,16.6C1249.4,826.9,1247.2,821,1244.7,815.2z M1233.1,792.6c6.2-4.9,25-18.8,50.2-29.9
		c13.6-6,29.3-7.1,43.1-3.3c-8.6,0-19.2,2.5-31,10.3c-20.6,13.5-34.4,24.6-43.6,31.9c-4,3.2-7.3,5.8-9.8,7.6
		C1239.4,803.5,1236.4,797.8,1233.1,792.6z"/>
</g>
<g>
	<g>
		<path class="st13" d="M1081.3,251.4l-7.3-1.8c-187.7-27.9-321.9,102.9-265.4,198.9c56.4,96,221.6,120.2,221.6,120.2
			s154.2,29.2,238.5-43.6C1353,452.3,1268,285.3,1081.3,251.4z"/>
	</g>
</g>
<g>
	<g>
		<path class="st13" d="M1059,735.2c0,36-29.7,65.2-66.3,65.2c-36.6,0-66.3-29.2-66.3-65.2c0-11.3,3-22,8.1-31.3
			c32.4,11.1,55.3,14.8,55.3,14.8l19.2,3c0,0,19.4,3.2,49.2,3.7C1058.7,728.6,1059,731.9,1059,735.2z"/>
	</g>
</g>
<g>
	<path class="st1" d="M992.7,804.6c-38.9,0-70.5-31.1-70.5-69.3c0-2.3,1.9-4.2,4.2-4.2c2.3,0,4.2,1.9,4.2,4.2
		c0,33.6,27.9,61,62.2,61c34.3,0,62.2-27.4,62.2-61c0-2.3,1.9-4.2,4.2-4.2c2.3,0,4.2,1.9,4.2,4.2
		C1063.2,773.4,1031.6,804.6,992.7,804.6z"/>
</g>
<g>
	<g>
		
			<ellipse transform="matrix(0.7763 -0.6303 0.6303 0.7763 -325.9179 761.275)" class="st1" cx="909.8" cy="839.9" rx="22.2" ry="40"/>
	</g>
	<g>
		<path class="st1" d="M983.7,890.3c-2.5,6.7-13.6,8.7-24.8,4.5c-11.2-4.2-18.2-13-15.7-19.7c2.5-6.7,13.6-8.7,24.8-4.5
			C979.2,874.8,986.2,883.6,983.7,890.3z"/>
	</g>
</g>
<g>
	<g>
		<path class="st14" d="M1134.7,360.2c-9.7,0-17.6,9.9-17.6,22.1c0,12.2,7.9,22.1,17.6,22.1c9.7,0,17.6-9.9,17.6-22.1
			C1152.3,370,1144.4,360.2,1134.7,360.2z"/>
	</g>
	<g>
		
			<ellipse transform="matrix(0.1673 -0.9859 0.9859 0.1673 465.1839 1271.077)" class="st14" cx="985.1" cy="360.2" rx="22.1" ry="17.6"/>
	</g>
</g>
<g>
	<path class="st15" d="M1166,381.2c-0.5,3.7-6.8,6.1-14.2,5.2c-7.4-0.9-13-4.6-12.5-8.4c0.5-3.7,6.8-6.1,14.2-5.2
		S1166.5,377.4,1166,381.2z"/>
</g>
<g>
	<path class="st15" d="M1014.1,359c-0.5,3.7-6.8,6.1-14.2,5.2c-7.4-0.9-13-4.6-12.5-8.4c0.5-3.7,6.8-6.1,14.2-5.2
		C1009,351.5,1014.6,355.3,1014.1,359z"/>
</g>
<g>
	<g>
		<path class="st14" d="M1052.6,452.5c-2.1,0-4.3-0.2-6.4-0.6c-22.5-4-37-28.7-32.3-54.9c0.5-3,3.4-5,6.4-4.5c3,0.5,5,3.4,4.5,6.4
			c-3.6,20.2,6.8,39.1,23.3,42c7.8,1.4,15.9-1,22.7-6.6c7.1-5.9,12-14.7,13.8-24.6c0.5-3,3.4-5,6.4-4.5c3,0.5,5,3.4,4.5,6.4
			c-2.3,12.5-8.5,23.6-17.6,31.2C1070.4,449.2,1061.6,452.5,1052.6,452.5z"/>
	</g>
</g>
<g>
	<g>
		<path class="st16" d="M806.1,631.2c-2.7-2.5-5.4-5-8.1-7.6c5.4-33,5.9-63.9,1.6-92.1c-4.6-29.8-14.6-56.7-29.8-80
			c-12.3-18.9-26.1-32.2-37.1-41c0.8-3.2,1.7-6.4,2.7-9.6c0.3,0.2,0.7,0.5,1,0.8c10.9,8.5,26.9,23.1,41.1,44.8
			c15.9,24.4,26.4,52.5,31.2,83.6C813.5,561,812.6,594.9,806.1,631.2z"/>
	</g>
	<g>
		<path class="st16" d="M1355.1,505.7c-0.1,3.3-0.3,6.5-0.6,9.8c-24.4,7.2-45.8,19.8-64,37.6c-19.3,18.9-35.1,43.6-46.9,73.6
			c-9.4,23.9-14.8,47.4-17.8,65.8c-3.4,1.6-6.8,3.2-10.2,4.7c2.9-19.4,8.4-46,19.3-73.6c12.3-31.2,28.8-57.1,49-77
			C1304.1,526.9,1327.9,513.2,1355.1,505.7z"/>
	</g>
</g>
<g>
	<path class="st17" d="M1063.5,783.1c-128.4-10.9-167.6-94.4-167.6-94.4c13.7,6.2,26.7,11.2,38.6,15.2
		c32.4,11.1,55.3,14.8,55.3,14.8l19.2,3c0,0,19.4,3.2,49.2,3.7c13.4,0.2,28.8-0.1,45.5-1.5c0.2,0.4,0.4,0.7,0.5,1.1
		C1117.8,753.4,1094.9,785.8,1063.5,783.1z"/>
</g>
<g>
	<path class="st18" d="M1083.2,729.3c-2.2,0-4.1-1.8-4.2-4c-0.1-2.3,1.7-4.2,4-4.3c48.9-1.8,93-11.1,130.9-27.7
		c3.4-1.5,6.7-3,10-4.6c42.9-20.8,76.3-51.2,99.3-90.5c15.5-26.5,24.7-54.5,27.1-83.1c0.3-3.1,0.5-6.3,0.6-9.6
		c1.9-59.4-25.2-120.6-76.3-172.3c-24.4-24.7-53-46-85-63.5c-32.5-17.7-67-30.5-102.5-38.1l-17.6-2.5c-70.3-8-143,4.8-204.7,36.1
		c-63.3,32.1-107.8,80.7-125.3,136.8c-1,3.1-1.9,6.3-2.7,9.4c-7.4,28.9-7.9,59.4-1.4,90.6c9.4,45.1,31.4,84.9,65.6,118.4
		c2.6,2.5,5.2,5,8,7.5c44.4,40.2,98.3,62.9,135.7,74.8c2.2,0.7,3.4,3,2.7,5.2c-0.7,2.2-3,3.4-5.2,2.7
		c-38.2-12.2-93.3-35.4-138.8-76.6c-2.8-2.5-5.6-5.1-8.2-7.7c-35.4-34.7-58.2-76-67.9-122.7c-6.8-32.5-6.3-64.3,1.5-94.4
		c0.8-3.3,1.8-6.6,2.8-9.8c18.3-58.2,64.3-108.6,129.5-141.7c63.1-32.1,137.5-45.2,209.5-37c0,0,0.1,0,0.1,0l17.8,2.5
		c0.1,0,0.2,0,0.3,0.1c36.3,7.7,71.6,20.8,104.9,39c32.8,17.8,62,39.7,87,64.9c52.7,53.3,80.7,116.7,78.7,178.4
		c-0.1,3.4-0.3,6.7-0.6,10c-2.5,29.8-12,59-28.2,86.6c-23.9,40.7-58.5,72.3-102.9,93.8c-3.4,1.6-6.8,3.2-10.3,4.7
		c-38.9,17-84,26.5-133.9,28.3C1083.3,729.3,1083.3,729.3,1083.2,729.3z"/>
</g>
<g>
	<path class="st1" d="M1102.3,578.6c-40.3,0-70.9-5.5-72.8-5.8c-1.7-0.2-27-4.2-60.3-14.2c-2.2-0.7-3.4-3-2.8-5.2
		c0.7-2.2,3-3.5,5.2-2.8c33.6,10.1,58.9,13.9,59.2,13.9c0.1,0,0.1,0,0.2,0c0.4,0.1,38.8,7.2,86.9,5.4
		c44.1-1.6,105.5-11.3,148.1-48.1c14.3-12.4,23.9-27.8,28.3-45.8c4.3-17.4,3.7-36.3-1.7-56.4c-9.7-35.6-34.2-71.1-69.1-100
		c-38.8-32.2-88.3-54.4-143-64.4c-0.1,0-0.2,0-0.2-0.1l-7.1-1.7c-71.8-10.6-141.2,1.5-195.3,34.1c-2,1.2-4.5,0.6-5.7-1.4
		c-1.2-2-0.6-4.5,1.4-5.7c55.8-33.6,127.2-46.1,201-35.2c0.1,0,0.3,0,0.4,0.1l7.2,1.8c56,10.2,106.7,33.1,146.7,66.1
		c36.1,29.9,61.6,66.9,71.8,104.2c12,43.9,1.3,84.2-29.2,110.6c-19.7,17-44.7,29.9-74.4,38.4c-23.6,6.7-50.2,10.7-79,11.7
		C1112.6,578.5,1107.4,578.6,1102.3,578.6z"/>
</g>
<path class="st19" d="M1617.1,870.5c-2.5-3.7-17.1,2.5-22.9,18.3c3.5,9.6,6.4,19.1,7.9,24.6l0,0c0,0,1.6-15.5,8.1-25.4
	C1616.8,878,1620.1,874.8,1617.1,870.5z"/>
<path class="st20" d="M1488.1,905.4l30.4,42.4c2.4,3.3,7.1,3.7,9.9,0.8l85.9-86.2c2.2-2.2,2.5-5.8,0.7-8.4l-30.2-42.9
	c-2.3-3.3-7.1-3.7-10-0.8l-86.1,86.6C1486.6,899.2,1486.3,902.8,1488.1,905.4z"/>
<path class="st1" d="M1585.4,823.1c2.1,2.4,1.2,6.6-2,9.3s-7.4,2.9-9.5,0.5c-2.1-2.4-1.2-6.6,2-9.3
	C1579.1,820.9,1583.3,820.7,1585.4,823.1z"/>
<path class="st1" d="M1234.7,1734.1c-1.6-5.6-8.6-49.3-22.4-65.7c0,0-9.4,34-16.5,36.1c-7.1,2.1-13.4-4.2-13.4-4.2
	c-27.5,5.9-34.5-5.7-34.5-5.7s-35.4,41.3-41.7,49.6c0,0-21.6,12.3-27.9,15.6c-5.6,3-24.1,8.7-23.8,21.3c2.1-2.2,4.7-3.6,7.7-3.1
	c8.6,1.6,21.2,20,34.2,20.8c13,0.8,37-10.4,51.5-20.9c14.5-10.5,17.2-18,26.7-18.2c9.4-0.2,31.2-0.6,46-11.8
	c7.4-5.6,11.7-9.9,14.2-13.5C1234.8,1734.3,1234.8,1734.2,1234.7,1734.1z"/>
<path class="st1" d="M1333,1707.2c1.6-5.6,8.6-49.3,22.4-65.7c0,0,9.4,34,16.5,36.1c7.1,2.1,13.4-4.2,13.4-4.2
	c27.5,5.9,34.5-5.7,34.5-5.7s35.4,41.3,41.7,49.6c0,0,21.6,12.3,27.9,15.6c5.6,3,24.1,8.7,23.8,21.3c-2.1-2.2-4.7-3.6-7.7-3.1
	c-8.6,1.6-21.2,20-34.2,20.8c-13,0.8-37-10.4-51.5-20.9c-14.5-10.5-17.2-18-26.7-18.2c-9.4-0.2-31.2-0.6-46-11.8
	c-7.4-5.6-11.7-9.9-14.2-13.5C1332.9,1707.4,1332.9,1707.3,1333,1707.2z"/>
<path class="st1" d="M1293.5,1098.1c0.1-0.5,0.1-1.2,0.2-1.9c2.7-21.8,15.9-126.6,15.9-126.6s-31.1,1.9-34.4,13.8
	c-3.4,11.9,0,29.3,0,29.3l-29.3,94.1l-26.8-24c-4.5,10.2-11.3,23.9-18.2,31.7c-6.8,7.7-17.3,14.6-25,19.1c13.8,6.4,29,12.9,29,12.9
	s37.8,34.5,60.4,36.7c11.2-23.1,26.3-37.6,26.3-37.6l4.9-21.3l2.3-9.8C1294.2,1111.4,1292.4,1107,1293.5,1098.1z"/>
<path class="st21" d="M1474.6,1473.5c-1.1,11.5-13.6,26.8-13.6,26.8s-11.5,65.1-14.3,70.2c-1.9,3.2-7.6,3.6-11.4,3.5
	c-2.1-0.1-3.6-0.3-3.6-0.3c-7.6,1.8-45.1-14.3-45.1-14.3s-9.3-6.1-8.9-21.8c0.4-15.7,16.5-35.4,25.1-47.6
	c8.6-12.2,14.3-26.1,14.7-31.1c0.4-5-2.5-17.9-5.4-25.8c-2.9-7.9-21.1-80.9-29-98.8c-7.9-17.9-29.4-63-29.4-63s-70.2,184-73,198.7
	c-2.9,14.7-9.3,29.4-9.3,29.4s-4.3,66.9-6.4,76.2c-2.1,9.3-25,10.4-25,10.4c-19.2,0.3-53-14.7-53-14.7c-14.7-12.5-5-28.6,2.9-47.2
	c7.9-18.6,22.9-51.2,22.9-51.2c-0.7-4.7,2.1-59.7,6.9-82.2c4.8-22.5,28.3-151.2,37.8-186.3c9.5-35,34.3-58.8,34.3-58.8l4.9-21.3
	l2.3-9.8c4,2.6,10,4.4,18.2,7.1c9.7,3.3,24.9,3.4,39.2,2.9c1.3,0,2.7-0.1,4-0.2c3.2-0.1,6.4-0.3,9.4-0.4c1.4-0.1,2.7-0.1,4-0.2
	c5.1-0.2,9.7-0.3,13.2-0.2c8.2,0.3,19.6-0.2,29.2-1.4l-3,32c0,0,7.1,16.7,16,36.9c7.9,17.9,17.2,38.4,24.1,52.3
	c14.7,29.4,21.5,109.2,23.3,128.1C1478.2,1390.5,1475.7,1462,1474.6,1473.5z"/>
<path class="st1" d="M1416.4,1108.2l-16.7-143.3c0,0-15,33.2-28.9,33.8c-13.9,0.6-30-31.8-30-31.8l-2.8,0.2
	c-3.7,33.8-15.2,138.6-16,138c-0.7-0.5-17.5-5.7-28.3-9c-0.1,0.8-0.2,1.4-0.2,1.9c-2,16.4,5.7,17.5,23.5,23.5
	c17.8,6,53.7,1.3,69.8,2c16.1,0.6,44.3-2,47.7-6.4c0.9-1.2,1.4-5.5,1.6-11.1L1416.4,1108.2z"/>
<path class="st1" d="M1317,969l-7.3,0.6c0,0-13.2,104.8-15.9,126.6c10.8,3.3,27.6,8.5,28.3,9c0.4,0.3,4.1-30.6,7.8-64.2
	C1313.3,1032.3,1314.7,992.6,1317,969z"/>
<path class="st1" d="M1573.5,1094.4c0,0-8.4,24.5-15.6,44.8c-0.5,1.3-0.9,2.5-1.4,3.8c-4.2,11.8-7.9,21.4-8.9,22.6
	c-2.7,3.4-20.1,6-32.9,2c-12.8-4-27.9-9.7-48-45.3c-20.1-35.6-31.2-55-31.2-55s1.2,24,0.6,38.9l-19.8,2l-7.7-65.8
	c3.4-3.2,6.7-7.4,9-13c4.4-10.5,0.3-39.7-3.3-59.5c5.9,2,12.4,4.1,16.7,5.4c10.1,3,40.6,4,47,16.8c6.4,12.8,3,29.2,3,29.2l28.5,63.5
	l5.9-29.1C1532.1,1077.6,1573.5,1094.4,1573.5,1094.4z"/>
<path class="st22" d="M1425.1,855.4c0,0,5.9,8.1,5.9,13.7c0,5.7-10.3,15-12.3,14.7c-1.2-0.2-9.9-5.7-16.8-10.1
	c0.6-1.9,0.8-3.5,0.4-4.6c-0.5-1.3-1-2.7-1.6-4.3c-0.4-1-0.8-2-1.2-3c-0.2-0.4-0.4-0.9-0.5-1.4c-0.3-0.8-0.7-1.7-1-2.5
	c-0.5-1.2-1-2.4-1.5-3.4c-0.4-0.9-0.8-1.7-1.1-2.5c-0.5-1.2-1-2.2-1.3-2.6c-0.4-0.7,0-2.7,0.6-5.3c4-7.1,10.3-16.8,14.9-17.7
	c7.3-1.5,20.5,12,22.3,15.8C1433.6,846.1,1425.1,855.4,1425.1,855.4z"/>
<path class="st23" d="M1399.7,964.9c0,0-15,33.2-28.9,33.8c-13.9,0.6-30-31.8-30-31.8l12.4-2.9l-8.4-43.6c0,0-6.7,1-14.1,0.9
	c-5.4-0.1-11.2-0.7-15.1-2.6c-4.4-2.2-7-10.1-8.6-17.7c-0.3-1.4-0.5-2.8-0.7-4.1c-1.1-6.8-1.4-12.5-1.4-12.5
	c-9,0.3-16.5-4.6-12.1-8.1c4.3-3.5,14.7-12.7,14.7-12.7c-8.7-31.2,14.4-35.2,14.4-35.2c13.1,10.5,25.1,27.7,29.1,33.8
	c1,1.4,1.5,2.3,1.5,2.3s19.6-13,21.1-13c1.4,0,6.4,5.8,8.4,12.4c2,6.6-5.5,14.7-5.5,14.7l3.8,21.4l0.5,2.7l10.4,58.1L1399.7,964.9z"
	/>
<path class="st24" d="M1380.4,900l0.5,2.7l-36.1,17.7c0,0-6.7,1-14.1,0.9c27.4-6,25.1-37.6,20.4-59.2c1,1.4,1.5,2.3,1.5,2.3
	s19.6-13,21.1-13c1.4,0,6.4,5.8,8.4,12.4c2,6.6-5.5,14.7-5.5,14.7L1380.4,900z"/>
<g>
	<path class="st19" d="M1355.8,979.6c-0.9,0-1.8-0.7-1.9-1.6l-2.6-13.6l-6.6-34.6c-0.2-1.1,0.5-2.1,1.6-2.3c1.1-0.2,2.1,0.5,2.3,1.6
		l6.6,34.5l2.6,13.6c0.2,1.1-0.5,2.1-1.6,2.3C1356.1,979.6,1356,979.6,1355.8,979.6z"/>
</g>
<path class="st19" d="M1378.2,865.4c0-0.1-2.2-6.5-9.6-4.5c-2.6,0.7-4,2.8-4.9,5.2c-0.1,0.1-0.1,0.2-0.1,0.3c0,0,0,0,0,0
	c-1.4,4.4-0.7,9.8-0.7,10.2c0.1,0.7,0.7,1.2,1.3,1.2c0.1,0,0.1,0,0.2,0c0.7-0.1,1.2-0.8,1.1-1.5c0-0.1-0.5-4.4,0.3-8
	c1.7,0.5,4.8,1.8,5.1,4.3c0.1,0.7,0.7,1.1,1.3,1.1c0.1,0,0.1,0,0.2,0c0.7-0.1,1.2-0.8,1.1-1.5c-0.5-4-4.6-5.7-6.9-6.4
	c0.6-1.1,1.4-2,2.6-2.3c4.9-1.3,6.3,2.3,6.4,2.8c0.2,0.7,1,1.1,1.7,0.8C1378.1,866.8,1378.4,866.1,1378.2,865.4z"/>
<path class="st25" d="M1326.4,884.9v0.1c0,0.1,0,0.1-0.1,0.1c0,0,0,0-0.1,0c-0.6-0.4-1.2-0.8-1.8-1.2l-0.5-0.3
	c-5.4,10.1-12.3,15.1-16.8,17.4c-0.3-1.4-0.5-2.8-0.7-4.1c4-2.3,9.7-6.9,14.2-15.3c0.1-0.1,0.1-0.2,0.2-0.3
	c-0.5-0.4-1.1-0.8-1.6-1.3c0,0-0.1-0.1,0-0.2c0,0,0,0,0.1,0l0.1,0c1.1-0.3,2-0.3,2.8-0.1c0.8,0.2,1.5,0.5,2.1,0.9
	c0.6,0.4,1.1,1,1.5,1.7C1326,882.9,1326.3,883.8,1326.4,884.9z"/>
<path class="st22" d="M1386.1,901l-1.3,23.7l-3.9-21.9l-0.5-2.7l-2.5-14.2l-0.5-3l-0.8-4.2c0,0,7.5-8.1,5.5-14.7
	c-2-6.6-6.9-12.4-8.4-12.4c-1.4,0-21.1,13-21.1,13s-0.5-0.8-1.5-2.3c-1.3-1.9-3.3-4.9-5.9-8.4c-0.6-0.7-1.1-1.5-1.7-2.3
	c-5.6-7.4-13.4-16.6-21.5-23.1c0,0,1.5-1.1,4.9-2.6c0.8-0.3,1.7-0.7,2.7-1.1c3.2-1.2,7.6-2.4,13.2-3.4c1.2-0.2,2.4-0.4,3.7-0.6
	c3-0.4,6.4-0.8,10.1-1c24.9-1.5,39.8,2.1,41.3,6.7c1.5,4.7-5,20.9-3.8,23c1.2,2.2,5.9,13.1,8.2,19.7
	C1404.6,875.7,1386.1,901,1386.1,901z"/>
<path class="st26" d="M1306.5,858.8c-5.1-26.8,15.6-30.5,15.6-30.5s-31.7,0.4-27.3,15.1C1297.4,852.4,1302.7,856.8,1306.5,858.8z"/>
<g>
	<path class="st27" d="M1385.7,828.4c0,0.7-0.6,1.3-1.3,1.3c0,0,0,0,0,0c-0.8,0-19.5-0.1-28.8-2c-5.2-1.1-9.7-3.9-12.7-6.4
		c1.2-0.2,2.4-0.4,3.7-0.6c2.6,1.8,5.9,3.6,9.6,4.4c9,1.9,28.1,2,28.3,2C1385.1,827,1385.7,827.6,1385.7,828.4z"/>
	<path class="st27" d="M1387.6,837.5c-1.2,0.2-27.4,4.4-36.7,4.4c-0.8,0-1.5,0-2-0.1c-5-0.7-16-10.4-22-16c0.8-0.3,1.7-0.7,2.7-1.1
		c6.5,6,15.9,14,19.6,14.5c4.9,0.7,27-2.5,37.9-4.3c0.7-0.1,1.4,0.4,1.5,1.1C1388.8,836.7,1388.3,837.4,1387.6,837.5z"/>
	<path class="st27" d="M1376.5,846.3l-31.3,7.5c-0.6-0.7-1.1-1.5-1.7-2.3l32.4-7.8c0.7-0.2,1.4,0.3,1.6,1
		C1377.7,845.4,1377.3,846.1,1376.5,846.3z"/>
	<path class="st27" d="M1397.1,866.1c-2.5,5.5-12.3,14.1-19.2,19.8l-0.5-3c6.6-5.5,15.2-13.2,17.4-17.9c0.3-0.7,1.1-1,1.7-0.6
		C1397.1,864.6,1397.4,865.4,1397.1,866.1z"/>
</g>
<g>
	<path class="st27" d="M1427.5,842.6c-0.5,0.6-1.3,0.6-1.9,0.1c0,0-2.7-2.3-7.5-2.3c-3,0-13.7,7.7-21.8,14.1
		c-0.4-0.9-0.8-1.7-1.1-2.5c1.9-1.5,4.3-3.4,6.8-5.2c12.3-9,15.1-9,16.1-9c5.8,0,9.1,2.8,9.2,2.9
		C1427.9,841.2,1428,842.1,1427.5,842.6z"/>
	<path class="st27" d="M1418.7,855l-19.8,5.4c-0.3-0.8-0.7-1.7-1-2.5l20.2-5.5c0.7-0.2,1.4,0.2,1.6,0.9
		C1419.9,854.1,1419.4,854.8,1418.7,855z"/>
	<path class="st27" d="M1424.6,869.5c-0.2,0.6-0.7,1-1.3,1c-0.1,0-0.2,0-0.3,0l-22.4-5.6c-0.4-1-0.8-2-1.2-3l24.2,6
		C1424.3,868,1424.8,868.7,1424.6,869.5z"/>
</g>
<path class="st26" d="M1326.7,858.1c-0.2-0.5-0.7-0.8-1.2-0.7l-3.2,0.9l2-2.3c0.4-0.4,0.3-1-0.1-1.4c-0.4-0.4-1-0.3-1.4,0.1
	l-2.4,2.8c-0.7-0.6-1.5-0.9-2.3-0.8c-2,0.1-3.2,2.3-2.7,5s2.6,4.7,4.6,4.7c2-0.1,3.2-2.3,2.7-5c-0.1-0.3-0.2-0.6-0.3-0.9l3.6-1
	C1326.6,859.2,1326.9,858.7,1326.7,858.1z"/>
<path class="st22" d="M1310.3,843.7c0.4-2,1.4-3.8,2.8-5.3c0.7-0.8,1.6-1.4,2.6-1.9c1.1-0.5,2.3-0.7,3.6-0.7c0.3,0,0.6,0.1,0.9,0.2
	c0.2,0,0.3,0.1,0.5,0.1l0.4,0.1c0.3,0.1,0.5,0.2,0.8,0.3c0.2,0.1,0.5,0.2,0.7,0.4c1,0.5,1.8,1.2,2.6,2c1.4,1.6,2.3,3.5,2.3,5.6
	c-1.5-1.3-2.9-2.4-4.3-3.2c-0.7-0.4-1.4-0.7-2.1-1c-0.2-0.1-0.4-0.1-0.5-0.2c-0.2-0.1-0.4-0.1-0.5-0.1l-0.3-0.1l-0.2,0l-0.4-0.1
	c-0.6,0-1.2,0-1.9,0.2c-0.7,0.2-1.4,0.5-2.1,0.9C1313.5,841.6,1312,842.6,1310.3,843.7z"/>
<path class="st7" d="M1417.7,1029.5c-2.3,5.5-5.6,9.8-9,13l-9-77.5c0,0,6.9,2.4,14.7,5C1418,989.7,1422.1,1018.9,1417.7,1029.5z"/>
<path class="st7" d="M1338,967.2c-1.7,15.4-5,45.6-8.2,73.8c-16.6-8.7-15.2-48.4-12.9-72L1338,967.2z"/>
<path class="st1" d="M1594.3,1069.3c-1.3,3-20.8,25.2-20.8,25.2s-41.4-16.8-57.9-38.8l5.9-29.3c0,0,21.4,24.4,46.7,34.4
	c12.3,4.8,20.9,7.4,26.3,7.2C1594.5,1068.5,1594.4,1069,1594.3,1069.3z"/>
<path class="st28" d="M1594.4,1067.9c-5.4,0.2-14-2.4-26.3-7.2c-1.1-0.5-2.3-0.9-3.4-1.5c-0.5-0.2-0.9-0.4-1.4-0.6
	c-14.6-6.9-27.5-18-35-25.2l0,0c-4.3-4.2-6.9-7.1-6.9-7.1s2-2.5,7.3-3.5c0.1,0,0.1,0,0.2,0c5.6-1.1,14.9-0.6,29.5,5.9
	c2.2,1,4.2,2,6.2,3.1c0.3,0.2,0.7,0.4,1,0.6C1586.1,1044.3,1593.9,1062.4,1594.4,1067.9z"/>
<g>
	<path class="st7" d="M1557.8,1139.3c-0.5,1.3-0.9,2.5-1.4,3.8c-4.9-1.3-11.5-2.1-17.5,0.3c-6.6,2.6-11.6,8.5-14.7,17.6
		c-0.3,0.8-1.1,1.3-1.9,1.3c-0.2,0-0.4,0-0.6-0.1c-1-0.3-1.6-1.5-1.2-2.5c3.5-10.3,9.2-17,17-20
		C1544.8,1136.8,1552.3,1137.7,1557.8,1139.3z"/>
</g>
<g>
	<path class="st29" d="M1264.9,1441.6c-0.9-0.6-2.1-0.3-2.7,0.6c-0.1,0.1-6.3,9.8-14.1,19.4c-13.3,16.4-19.9,19-22.6,19.1
		c-3.9,0.1-6.8-0.8-8.7-2.6c-2.3-2.2-2.3-5.2-2.3-5.2c0-0.1,0-0.2,0-0.3c-0.7-4.3,2.1-59.4,6.9-81.4c1.4-6.7,4.5-22.9,8.4-43.3
		l2.8-14.5c0.2-1.1-0.5-2.1-1.6-2.3c-1.1-0.2-2.1,0.5-2.3,1.6l-2.8,14.5c-3.9,20.4-7,36.5-8.4,43.2c-4.8,22.3-7.6,76.9-6.9,82.7
		c0,0.9,0.3,4.8,3.4,7.8c2.5,2.5,6.2,3.8,10.9,3.8c0.2,0,0.5,0,0.7,0c13.8-0.4,37.3-36.1,39.9-40.2
		C1266.1,1443.4,1265.9,1442.1,1264.9,1441.6z"/>
	<path class="st29" d="M1478.4,1371.3l-0.3-3.1c-0.5-4.9-1.1-12.2-2-20.8c-0.1-1.1-1.1-1.9-2.2-1.8c-1.1,0.1-1.9,1.1-1.8,2.2
		c0.9,8.6,1.6,15.9,2,20.7l0.3,3.1c1.8,18.7-0.7,89.8-1.8,101.6c-0.8,8.7-8.9,20.1-12,24.2c-3.5-3.2-13-14.5-20-46.8
		c-0.2-1.1-1.3-1.7-2.4-1.5c-1.1,0.2-1.7,1.3-1.5,2.4c9,41.8,22.6,50.1,23.2,50.5c0.3,0.2,0.7,0.3,1,0.3c0.6,0,1.1-0.3,1.5-0.7
		c0.5-0.6,12.9-16,14-27.9C1477.7,1461.8,1480.1,1390.1,1478.4,1371.3z"/>
	<path class="st29" d="M1384.8,1333.5c-5.9-13.4-19.6-42.5-26-56c12.8-2.7,69.8-15,85.2-26c0.9-0.6,1.1-1.9,0.5-2.8
		c-0.6-0.9-1.9-1.1-2.8-0.5c-15.1,10.7-74.4,23.4-84.7,25.5c-0.4-0.8-0.7-1.4-0.9-1.9l63.8-47.5c0.9-0.7,1.1-1.9,0.4-2.8
		c-0.7-0.9-1.9-1.1-2.8-0.4l-65.1,48.5c-0.8,0.6-1,1.6-0.6,2.4c0.2,0.5,21.6,45.3,29.3,62.9c5.2,11.8,15.2,48.9,20.6,68.8
		c0.2,0.9,1,1.5,1.9,1.5c0.2,0,0.3,0,0.5-0.1c1.1-0.3,1.7-1.4,1.4-2.4C1397.5,1373,1389.4,1344,1384.8,1333.5z"/>
	<path class="st29" d="M1322.4,1152.6c-10.4-0.4-29.8-8.8-30-8.9c-1-0.4-2.2,0-2.6,1c-0.4,1,0,2.2,1,2.6c0.8,0.4,20.3,8.8,31.5,9.2
		c0,0,0,0,0.1,0c1.1,0,1.9-0.8,2-1.9C1324.3,1153.6,1323.5,1152.7,1322.4,1152.6z"/>
	<path class="st29" d="M1387.5,1164.2c0.2,0,0.4,0,0.6-0.1l25.6-8c1-0.3,1.6-1.4,1.3-2.5c-0.3-1-1.4-1.6-2.5-1.3l-25.6,8
		c-1,0.3-1.6,1.4-1.3,2.5C1385.9,1163.7,1386.6,1164.2,1387.5,1164.2z"/>
	<path class="st29" d="M1286.6,1360.9c-1.1,0-2,0.8-2.1,1.9l-4.1,100.7c0,1.1,0.8,2,1.9,2.1c0,0,0.1,0,0.1,0c1.1,0,1.9-0.8,2-1.9
		l4.1-100.7C1288.5,1361.9,1287.7,1361,1286.6,1360.9z"/>
</g>
<path class="st29" d="M1369.1,1250.2c0.5,4.4,0.9,7.6,1.1,9.3c0.1,1.1-0.6,2.1-1.7,2.2c-0.1,0-0.2,0-0.2,0c-1,0-1.8-0.7-2-1.7
	c-1.2-9.8-10-80.3-10.1-81c0-0.1,0-0.2,0-0.3v-54.2c1.3,0,2.7-0.1,4-0.2v54.2c0.3,2.6,5.6,44.6,8.4,67.4c2.5-1.5,6.4-5.8,5.5-17.7
	c-1.5-18.9-4.5-54.9-4.5-55.3c0-0.1,0-0.1,0-0.2V1124c1.4-0.1,2.7-0.1,4-0.2v49c0.2,1.9,3,36.8,4.5,55.2
	C1379.3,1243.9,1372.6,1248.8,1369.1,1250.2z"/>
<path class="st29" d="M1239.9,1585.9l-9,24c0,0-8.9,3.2-22.6,0c-13.6-3.2-23.3-12.2-23.3-12.2l1.8-26.5
	C1186.8,1571.2,1220.7,1586.1,1239.9,1585.9z"/>
<path class="st29" d="M1431.7,1573.7l-10,22.9c0,0-9.3,1.8-21.8-2.5c-12.5-4.3-19.3-15.8-19.3-15.8l6.1-19
	C1386.6,1559.4,1424.1,1575.5,1431.7,1573.7z"/>
<path class="st30" d="M1429,1191.1l-132.5-66.8l2.3-9.8c4,2.6,10,4.4,18.2,7.1c9.7,3.3,24.9,3.4,39.2,2.9c1.3,0,2.7-0.1,4-0.2
	c3.2-0.1,6.4-0.3,9.4-0.4c1.4-0.1,2.7-0.1,4-0.2c5.1-0.2,9.7-0.3,13.2-0.2c8.2,0.3,19.6-0.2,29.2-1.4l-3,32
	C1413,1154.2,1420.2,1171,1429,1191.1z"/>
<g>
	<path class="st7" d="M1294.8,1035.9c0-0.1-4.4-6.3-8.8-12.3c-2.6-3.6-4.7-6.4-6.2-8.4c-0.9-1.2-1.6-2.2-2.2-2.8
		c-0.8-1-1.8-2.2-3.2-1.6c-0.9,0.4-1.4,1.3-1.2,2.2c0.1,0.6,0.5,1.1,1,1.4c2,2.2,11.5,15.6,17.4,23.8c0.4,0.5,1,0.8,1.6,0.8
		c0.4,0,0.8-0.1,1.1-0.4C1295.2,1038.1,1295.4,1036.8,1294.8,1035.9z"/>
	<path class="st7" d="M1276.4,1127.5l-29.3-22.3c-0.9-0.7-2.1-0.5-2.8,0.4c-0.7,0.9-0.5,2.1,0.4,2.8l29.3,22.3
		c0.4,0.3,0.8,0.4,1.2,0.4c0.6,0,1.2-0.3,1.6-0.8C1277.4,1129.4,1277.2,1128.2,1276.4,1127.5z"/>
	<path class="st7" d="M1288.4,1112.6l-40.6-12.3c-1.1-0.3-2.2,0.3-2.5,1.3c-0.3,1,0.3,2.2,1.3,2.5l40.6,12.3
		c0.2,0.1,0.4,0.1,0.6,0.1c0.8,0,1.6-0.6,1.9-1.4C1290.1,1114,1289.5,1112.9,1288.4,1112.6z"/>
</g>
<path class="st1" d="M1219.1,1082.8c-4.5,10.2-11.3,23.9-18.2,31.7c-6.8,7.7-17.3,14.6-25,19.1c-10.3-4.8-19.9-9.6-21.7-11.5
	c-0.5-0.6-0.9-1.3-1.1-2.1c4.4-1.2,10.5-5,18.2-14.8c16.7-21.5,24.5-43.3,24.5-43.3L1219.1,1082.8z"/>
<path class="st28" d="M1195.8,1061.9c0,0-0.7,1.9-2,5.1c-3.3,7.7-10.6,23.1-22.4,38.2c-0.1,0.2-0.3,0.4-0.4,0.5
	c-7.4,9.4-13.4,13-17.8,14.2c-1.2-4.7,2.2-13.8,8.2-26.6c1.8-3.8,3.8-7.8,6-12.2c7-14,16.6-18,22.7-19
	C1193.5,1061.5,1195.8,1061.9,1195.8,1061.9z"/>
<path class="st31" d="M1226.9,1755.6c-9.8,11.4-30.2,13.4-44.4,13.4c-14.1,0-8.6-0.4-16.1,6.7c-7.5,7.1-39.3,29.1-59.3,31
	c-20,2-45.6-4.7-51.4-20.8c-0.6-1.7-0.9-3.3-1-4.8c2.1-2.2,4.7-3.6,7.7-3.1c8.6,1.6,21.2,20,34.2,20.8c13,0.8,37-10.4,51.5-20.9
	c14.5-10.5,17.2-18,26.7-18.2c9.4-0.2,31.2-0.6,46-11.8c7.4-5.6,11.7-9.9,14.2-13.5C1236.3,1739.9,1236.5,1744.5,1226.9,1755.6z"/>
<path class="st20" d="M1090.2,1753.2c-2.4,3-4.1,6.1-3.9,8.5c0.1,1.2,0.7,2.1,1.9,2.9c7.3,4.7,30.9-4.6,42.2-9
	c2.7-1.1,4.8-1.9,6.3-2.4c9-3,35.5,3.9,38.5,4.7c0.9,0.2,1.5,1,1.5,1.9c0,0.2,0,0.4-0.1,0.5c-0.3,1.1-1.4,1.7-2.4,1.4
	c-1.1-0.3-2.6-0.7-4.2-1.1c-9.6-2.3-26.3-5.6-31.9-3.7c-1.4,0.5-3.6,1.3-6.2,2.3c-13.4,5.2-27.9,10.5-37.8,10.5c-3.2,0-6-0.6-8-1.9
	c-2.3-1.4-3.5-3.5-3.7-6c-0.1-1.6,0.3-3.2,0.9-4.8L1090.2,1753.2z"/>
<path class="st32" d="M1182.5,1700.3c-27.5,5.9-34.5-5.7-34.5-5.7s-1.2-22.9,14.9-20.4C1179,1676.6,1182.5,1700.3,1182.5,1700.3z"/>
<g>
	<path class="st28" d="M1172.7,1711.2c-16.3-12.7-38.6-8.5-39.6-8.3c-1.8,0.4-3,2.1-2.6,3.9s2.1,3,3.9,2.6c0.2,0,20.3-3.8,34.3,7.1
		c0.6,0.5,1.3,0.7,2,0.7c1,0,2-0.4,2.6-1.3C1174.4,1714.4,1174.2,1712.4,1172.7,1711.2z"/>
	<path class="st28" d="M1165.2,1719.8c-16.3-12.7-38.6-8.5-39.6-8.3c-1.8,0.4-3,2.1-2.6,3.9c0.3,1.8,2.1,3,3.9,2.6
		c0.2,0,20.3-3.8,34.3,7.1c0.6,0.5,1.3,0.7,2,0.7c1,0,2-0.4,2.6-1.3C1166.9,1723,1166.7,1720.9,1165.2,1719.8z"/>
	<path class="st28" d="M1158.6,1730c-16.3-12.7-38.6-8.5-39.6-8.3c-1.8,0.4-3,2.1-2.6,3.9s2.1,3,3.9,2.6c0.2,0,20.3-3.8,34.3,7.1
		c0.6,0.5,1.3,0.7,2,0.7c1,0,2-0.4,2.6-1.3C1160.3,1733.2,1160,1731.1,1158.6,1730z"/>
	<path class="st28" d="M1149.9,1740.3c-16.3-12.7-38.6-8.5-39.6-8.3c-1.8,0.4-3,2.1-2.6,3.9s2.1,3,3.9,2.6c0.2,0,20.3-3.8,34.3,7.1
		c0.6,0.5,1.3,0.7,2,0.7c1,0,2-0.4,2.6-1.3C1151.6,1743.5,1151.4,1741.4,1149.9,1740.3z"/>
</g>
<ellipse class="st32" cx="1208.4" cy="1722.8" rx="11" ry="13.2"/>
<path class="st31" d="M1340.8,1728.7c9.8,11.4,30.2,13.4,44.4,13.4c14.1,0,8.6-0.4,16.1,6.7c7.5,7.1,39.3,29.1,59.3,31
	c20,2,45.6-4.7,51.4-20.8c0.6-1.7,0.9-3.3,1-4.8c-2.1-2.2-4.7-3.6-7.7-3.1c-8.6,1.6-21.2,20-34.2,20.8c-13,0.8-37-10.4-51.5-20.9
	c-14.5-10.5-17.2-18-26.7-18.2c-9.4-0.2-31.2-0.6-46-11.8c-7.4-5.6-11.7-9.9-14.2-13.5C1331.4,1712.9,1331.2,1717.5,1340.8,1728.7z"
	/>
<path class="st20" d="M1484.5,1730.2c0.7,1.6,1,3.3,0.9,4.8c-0.2,2.5-1.4,4.5-3.7,6c-2,1.3-4.8,1.9-8,1.9c-9.9,0-24.4-5.3-37.8-10.5
	c-2.5-1-4.7-1.9-6.2-2.3c-5.7-1.9-22.3,1.4-31.9,3.7c-1.6,0.4-3.1,0.8-4.2,1.1c-1.1,0.3-2.1-0.3-2.4-1.4c0-0.2-0.1-0.4-0.1-0.5
	c0-0.9,0.6-1.6,1.5-1.9c3-0.8,29.5-7.7,38.5-4.7c1.5,0.5,3.6,1.3,6.3,2.4c11.3,4.4,34.9,13.7,42.2,9c1.2-0.8,1.8-1.7,1.9-2.9
	c0.2-2.3-1.6-5.4-3.9-8.5L1484.5,1730.2z"/>
<path class="st32" d="M1385.2,1673.3c27.5,5.9,34.5-5.7,34.5-5.7s1.2-22.9-14.9-20.4C1388.7,1649.7,1385.2,1673.3,1385.2,1673.3z"/>
<g>
	<path class="st28" d="M1394.9,1684.3c16.3-12.7,38.6-8.5,39.6-8.3c1.8,0.4,3,2.1,2.6,3.9c-0.3,1.8-2.1,3-3.9,2.6
		c-0.2,0-20.3-3.8-34.3,7.1c-0.6,0.5-1.3,0.7-2,0.7c-1,0-2-0.4-2.6-1.3C1393.3,1687.5,1393.5,1685.4,1394.9,1684.3z"/>
	<path class="st28" d="M1402.5,1692.9c16.3-12.7,38.6-8.5,39.6-8.3c1.8,0.4,3,2.1,2.6,3.9c-0.3,1.8-2.1,3-3.9,2.6
		c-0.2,0-20.3-3.8-34.3,7.1c-0.6,0.5-1.3,0.7-2,0.7c-1,0-2-0.4-2.6-1.3C1400.8,1696.1,1401,1694,1402.5,1692.9z"/>
	<path class="st28" d="M1409.1,1703.1c16.3-12.7,38.6-8.5,39.6-8.3c1.8,0.4,3,2.1,2.6,3.9s-2.1,3-3.9,2.6c-0.2,0-20.3-3.8-34.3,7.1
		c-0.6,0.5-1.3,0.7-2,0.7c-1,0-2-0.4-2.6-1.3C1407.4,1706.3,1407.6,1704.2,1409.1,1703.1z"/>
	<path class="st28" d="M1417.7,1713.3c16.3-12.7,38.6-8.5,39.6-8.3c1.8,0.4,3,2.1,2.6,3.9c-0.3,1.8-2.1,3-3.9,2.6
		c-0.2,0-20.3-3.8-34.3,7.1c-0.6,0.5-1.3,0.7-2,0.7c-1,0-2-0.4-2.6-1.3C1416.1,1716.5,1416.3,1714.5,1417.7,1713.3z"/>
</g>
<ellipse class="st32" cx="1359.3" cy="1695.8" rx="11" ry="13.2"/>
<path class="st20" d="M1213.1,1665.9l-0.8,2.5c0,0-9.4,34-16.5,36.1c-7.1,2.1-13.4-4.2-13.4-4.2s-2.9-19.4-15.4-24.9l2.4-10.4
	C1179.8,1667.9,1196.9,1670.6,1213.1,1665.9z"/>
<path class="st23" d="M1208.3,1609.9c-13.6-3.2-23.3-12.2-23.3-12.2l-15.6,67.3c10.3,3,27.4,5.7,43.7,1l17.7-56
	C1230.9,1609.9,1221.9,1613.1,1208.3,1609.9z"/>
<path class="st20" d="M1402.2,1642.2l-1.7,6.3c-12.4,5.6-15.2,24.8-15.2,24.8s-6.3,6.3-13.4,4.2c-7.1-2.1-16.5-36.1-16.5-36.1
	l4.6-11.4C1368.7,1635.1,1383.4,1641.6,1402.2,1642.2z"/>
<path class="st23" d="M1399.8,1594.1c-12.5-4.3-19.3-15.8-19.3-15.8l-20.6,51.6c8.8,5.1,23.5,11.6,42.3,12.2l12.4-45.2
	C1410.8,1596.8,1405.6,1596.1,1399.8,1594.1z"/>
<path class="st23" d="M1193.7,1066.9c-3.3,7.7-10.6,23.1-22.4,38.2c-0.1,0.2-0.3,0.4-0.4,0.5l-9.5-12.4l-7.5-9.8l-6.5-8.5
	l-11.8-14.3c-15.7-1.2-25.1-17.1-25.1-17.1s-15.1,0.4-15.9-9.8c-0.8-10.2,13.6-50.3,17.8-54.1c4.2-3.8,18.2,4.9,18.2,4.9
	c-0.6-8.3,5-15.1,8.8-16c3.8-0.9,4.1,8.5,6.3,14.5c2.2,6,13,16,18.5,22.6c5,5.9,7.5,27.9,7.9,32.4c0.1,0.5,0.1,0.8,0.1,0.8l11.5,15
	l6.3,8.3L1193.7,1066.9z"/>
<g>
	<path class="st19" d="M1154.8,1046.4c0.4-0.4,0.9-0.7,1.4-0.7c9.3-0.6,12.4-2.9,13.4-4.3c0.9-1.2,0.6-2.1,0.6-2.1l0,0
		c2.2-0.7,4.2,1.7,3,3.8c-0.1,0.2-0.2,0.4-0.3,0.5c-2.4,3.4-7.6,5.4-15.6,6l-8.6,10.5c-0.5,0.6-1.3,0.9-2.1,0.7
		c-0.3-0.1-0.7-0.3-1-0.6c-0.7-0.7-0.6-1.9,0-2.6L1154.8,1046.4z"/>
	<path class="st19" d="M1094.6,1020.7c-1.4,5.7-2.2,10.4-2,13.2c0.4,5.1,3.7,8.7,9.6,10.5c0.2,0.1,0.5,0.1,0.7,0.2
		c3.9,1,7.4,1,7.6,1c0.2,0,0.4,0,0.6-0.1c1.1-0.4,22.8-7.8,30.4-21.1c0,0,0,0,0-0.1c1-1.8,1.8-3.7,2.2-5.7l2.7,5
		c-0.8,0.2-1.6,0.6-2.4,1.1c-4.8,3.2-8,10.8-9.4,22.8c-0.1,1,0.5,1.9,1.4,2.1c0.1,0,0.2,0,0.3,0.1c1.1,0.1,2.1-0.6,2.2-1.7
		c1.6-13.9,5.4-18.4,7.5-19.8c1.7-1.2,3.1-0.9,3.1-0.9c0.8,0.2,1.7-0.1,2.2-0.8c0.4-0.6,0.4-1.4,0.1-2.1l-7.3-13.5
		c-1.1-14.8-11.5-27-12-27.6c-0.1-0.2-0.3-0.3-0.5-0.4c-2.5-1.6-15.5-9.3-20.6-4.7c-3.7,3.3-12.4,26.3-16.4,42.3
		C1094.6,1020.6,1094.6,1020.6,1094.6,1020.7z M1129.4,1031.5l-30.5-11.7c1-3.9,2.3-8.2,3.8-12.4c15.5,2.3,30.1,13,34.5,16.4
		C1135.1,1026.7,1132.3,1029.3,1129.4,1031.5z M1139.1,1020.2c-5.1-4-19.4-14.1-35.1-16.7c1.5-4.3,3-8.4,4.5-12
		c12.8,1,28,12.7,31,15.1c0.7,3.2,1,6.5,0.6,9.9C1139.9,1017.9,1139.5,1019.1,1139.1,1020.2z M1137.4,1000.2
		c-6.2-4.4-17.1-11.2-27.4-12.5c1.5-3.5,2.8-6,3.6-6.7c1.5-1.3,8.1,0.3,15.5,4.9C1130.2,987.2,1134.5,992.8,1137.4,1000.2z
		 M1096.5,1033.6c-0.2-2.1,0.4-5.7,1.4-9.9l27.5,10.5c-0.3,0.2-0.6,0.4-0.9,0.5c-6.5,3.9-13,6.3-14.4,6.8c-0.9,0-3.9-0.1-6.8-1
		C1099,1039.2,1096.8,1036.9,1096.5,1033.6z"/>
</g>
<path class="st19" d="M1193.7,1066.9c-3.3,7.7-10.6,23.1-22.4,38.2c-0.1,0.2-0.3,0.4-0.4,0.5l-9.5-12.4l-7.5-9.8
	c9.2-8.7,21.7-21.3,29.8-29.7l6.3,8.3L1193.7,1066.9z"/>
<path class="st33" d="M1404.1,868.5c-2.3-6.4-6.9-17.2-8.2-19.8c-0.1-1.1,0.9-4.9,1.7-7.7c1.9-7,3.1-12.2,2.2-15.1
	c-2-6.4-19-9.6-43.3-8.1c-1.1,0.1-1.9,1-1.9,2.1c0.1,1.1,1,1.9,2.1,1.9c27.6-1.6,38.5,3,39.3,5.4c0.6,2.1-1.1,8.6-2.2,12.9
	c-1.7,6.5-2.2,8.9-1.4,10.4c1.1,1.9,5.7,12.8,8.1,19.4c0.2,0.6,0.8,4.6-9.4,20.6c-0.6,0.9-0.3,2.1,0.6,2.7c0.3,0.2,0.7,0.3,1.1,0.3
	c0.7,0,1.3-0.3,1.7-0.9C1404.9,876,1405,870.9,1404.1,868.5z"/>
<path class="st33" d="M1384,863.3c-1.9-6.1-7.1-13.8-10.3-13.8c-0.8,0-1.5,0-13.2,7.5c-0.9,0.6-1.2,1.8-0.6,2.7
	c0.6,0.9,1.8,1.2,2.7,0.6c7.4-4.7,10.1-6.2,11-6.7c1.4,1.1,4.9,5.5,6.5,10.9c1.4,4.5-3.1,10.7-5,12.7c-2.7,2.4-7.5,5.8-9.6,5.5
	c-2.6-0.4-5.3-3.7-6.1-4.9c-0.6-0.9-1.8-1.2-2.7-0.5c-0.9,0.6-1.2,1.8-0.5,2.7c0.4,0.6,4.1,6,8.9,6.6c0.3,0,0.5,0.1,0.8,0.1
	c4.7,0,10.9-5.5,12.1-6.6c0,0,0.1-0.1,0.1-0.1C1378.4,879.6,1386.3,870.9,1384,863.3z"/>
<g>
	<path class="st7" d="M1520.8,1029.5c-1.1-0.2-2.1,0.5-2.3,1.6l-9.5,47.4c-0.1-0.1-0.1-0.1-0.2-0.2c-0.8-0.7-2.1-0.6-2.8,0.2
		l-28.3,33.7c-0.7,0.8-0.6,2.1,0.2,2.8c0.4,0.3,0.8,0.5,1.3,0.5c0.6,0,1.1-0.2,1.5-0.7l27.5-32.8l-0.5,2.4l-7,34.2
		c-0.2,1.1,0.5,2.1,1.5,2.3c0.1,0,0.3,0,0.4,0c0.9,0,1.7-0.6,1.9-1.6l7-34.2l10.7-53.3C1522.6,1030.8,1521.9,1029.7,1520.8,1029.5z"
		/>
	<path class="st7" d="M1482.4,1022.8c0.9-0.7,1-1.9,0.4-2.8c-0.7-0.9-1.9-1-2.8-0.4l-42.5,32.3v-46.6c0-1.1-0.9-2-2-2
		c-1.1,0-2,0.9-2,2v62c0,1.1,0.9,2,2,2c1.1,0,2-0.9,2-2v-10.4L1482.4,1022.8z"/>
</g>
<g>
	<path class="st7" d="M1304.1,1119.2c-0.2,0-0.4,0-0.6-0.1c-12.9-4.4-13.3-17-11.7-23.2c1.8-14.8,8.4-67.3,12.2-97.3
		c0.1-1.1,1.1-1.9,2.2-1.7c1.1,0.1,1.9,1.1,1.7,2.2c-3.8,30.1-10.4,82.8-12.2,97.4c0,0.1,0,0.2-0.1,0.3c-0.2,0.6-3.6,14.2,9.1,18.6
		c1,0.4,1.6,1.5,1.2,2.5C1305.7,1118.6,1304.9,1119.2,1304.1,1119.2z"/>
</g>
<g>
	<path class="st34" d="M1344.6,1126.7c-0.6,0-1.3-0.3-1.6-0.9c-0.6-0.9-0.4-2.1,0.5-2.8l59.4-40.2c0.9-0.6,2.1-0.4,2.8,0.5
		c0.6,0.9,0.4,2.1-0.5,2.8l-59.4,40.2C1345.4,1126.6,1345,1126.7,1344.6,1126.7z"/>
</g>
<path class="st23" d="M1603.1,917.8c0,3.2-21.7,23.3-22.9,24.9c-1.2,1.6-12.5,20.5-12.5,20.5l-2.8,60.3l-0.4,8.3l-1.2,26.8
	c-14.6-6.9-27.5-18-35-25.2l0,0l0.6-10.6l0.6-11.1l2-36c0,0-6.8-26.9-2-34.6c4.8-7.6,15.7-13.5,15.7-13.5s-11.3-40.2-4-52.5
	c7.2-12.3,30.1-24.8,39.4-14.5C1589.8,870.8,1603.1,914.6,1603.1,917.8z"/>
<path class="st19" d="M1565,1023.5l-0.4,8.3l-1.2,26.8c-14.6-6.9-27.5-18-35-25.2l0,0l0.6-10.6l0.6-11.1
	C1539.8,1015.1,1553.9,1019.8,1565,1023.5z"/>
<path class="st19" d="M1604.9,917.8c0-3.8-13.6-48.1-23-58.5c-3-3.4-7.5-4.9-13-4.3c-0.5,0-1,0.1-1.5,0.2c0,0-0.1,0-0.1,0
	c-10.3,1.7-22.4,9.9-27.8,18.9c-6.8,11.6,1.5,45.2,3.5,52.6c-3.1,1.9-11,7-15.1,13.4c-5,7.9,0.7,31.8,1.7,35.7l-1,17.1
	c-0.1,1,0.7,1.9,1.7,2c0,0,0.1,0,0.1,0c1,0,1.8-0.8,1.8-1.7l0.9-16.3l21.4-10.2c0.9-0.4,1.3-1.5,0.9-2.5c-0.4-0.9-1.5-1.3-2.5-0.9
	l-20.3,9.7c-0.6-2.6-1.6-7.1-2.3-12.1c-1.8-12.8-0.5-17.3,0.5-18.9c4.5-7.1,14.9-12.8,15-12.9c0.8-0.4,1.1-1.3,0.9-2.1
	c-3.1-11-9.8-41.6-4.2-51.1c0.3-0.5,0.6-1,0.9-1.4c2.5,9.7,9.3,36,12.4,45.7c3.5,11-0.9,18.5-1.1,18.8c-0.5,0.9-0.3,2,0.6,2.5
	c0.3,0.2,0.6,0.3,1,0.3c0.6,0,1.2-0.3,1.6-0.9c0.2-0.4,5.5-9.2,1.4-21.9c-3.4-10.7-11.5-42.2-13.1-48.1c2.2-2.3,4.8-4.5,7.6-6.3
	c2.9,8.3,13.2,38.3,16.3,46.7c3.7,10.2,2.2,15.9,0.1,20.4c-0.4,0.9,0,2,0.9,2.5c0.3,0.1,0.5,0.2,0.8,0.2c0.7,0,1.4-0.4,1.7-1.1
	c3.4-7.1,3.4-14.1,0.1-23.3c-3.2-8.7-14.1-40.2-16.5-47.4c3-1.7,6.1-2.9,9.1-3.6c2.3,6,11,28.8,15.7,38.9
	c5.4,11.8,9.6,24.4,3.5,36.6c-0.9,0.9-1.7,1.7-2.4,2.3c-3.2,3.1-4.3,4.3-4.7,4.8c-0.6,0.8-0.4,1.9,0.4,2.6c0.8,0.6,2,0.5,2.6-0.3
	c0.3-0.4,2.4-2.4,4.3-4.3c0.9-0.9,1.8-1.7,2.6-2.6c0,0,0,0,0,0C1601.1,924.6,1604.9,920,1604.9,917.8z M1585.6,896.4
	c-4.4-9.6-12.6-30.9-15.3-37.8c3.8-0.2,6.8,0.9,8.9,3.1c8.6,9.6,21.6,51.4,22,56c-0.6,1.6-5,6.3-9.5,10.9
	C1594.1,917.4,1590.1,906.2,1585.6,896.4z"/>
<g>
	<path class="st1" d="M745.5,962.5c-8.1,0-14.7-9.1-14.7-20.3s6.6-20.3,14.7-20.3c8.1,0,14.7,9.1,14.7,20.3S753.6,962.5,745.5,962.5
		z M745.5,924.7c-6.6,0-11.9,7.9-11.9,17.5c0,9.7,5.3,17.5,11.9,17.5c6.6,0,11.9-7.9,11.9-17.5C757.4,932.6,752.1,924.7,745.5,924.7
		z"/>
</g>
<path class="st19" d="M959.4,1115.1c-2.7-0.4-8.4-7.5-13.1-14.9c-4.7-7.3-6-21.6-5.5-22.4c2.6-4.8,5.9-7.5,9.2-8.9
	c3.7-9.6,11.3-23.3,11.5-25.3c0.2-2.6-4.2-7.4-10.1-7.2c-5.9,0.2-25.6,39.9-25.6,39.9l-31.6,26c4.8,6.2,19.8,27.5,16.5,46.4
	c0,0,13.6-2.8,28.3-10.7c14.7-7.9,35.3-30.9,35.3-30.9S962.1,1115.5,959.4,1115.1z"/>
<path class="st1" d="M638.4,1808.7c-10.3-6.8-15.9-13.9-15.9-13.9s-11.5-25.8-17.5-39.7c-6-13.9-13.9-24.2-13.9-24.2
	c11.1-28.6-1.6-36.6-19.1-35.4c-17.5,1.2-24.2,5.6-30.2,12.3c-6,6.8,3.3,16.3,3.3,16.3c-6.6,1.2-17.6-8.7-17.6-8.7
	s-9,33.7-11.5,57.8c2.4,5.8,6.1,11.9,11.5,16.9c15.5,14.3,16.7,10.7,20.4,17.9c3.8,7.1,29,47.3,45.2,46.5
	c16.2-0.8,31.2-12.7,48.3-15.5c10.1-1.7,14,0.9,15.2,5.7c0.7-1.6,1.3-3.4,1.5-5.3C660.7,1823.4,648.8,1815.4,638.4,1808.7z"/>
<path class="st21" d="M749.8,1367.5c-21.6-29.4-81.9-100.5-81.9-100.5c-2-10.4-4.1-20.3-6-28.5c-2.2-9.5-4-16.7-4.8-20
	c-0.3-1.2-0.5-1.9-0.5-1.9c0.4-1.2,0.8-2.5,1-3.9c1.8-9.1,1.2-21.8,1.2-21.8s-2.7-0.2-7-0.9c-1.3-0.2-2.7-0.4-4.3-0.7
	c-2.3-0.4-4.8-0.9-7.5-1.5c-1.3-0.3-2.5-0.6-3.9-0.9c-2.6-0.7-5.2-1.4-8-2.3c-1.2-0.4-2.5-0.8-3.8-1.3c-7.8-2.8-15.6-6.6-21.8-11.6
	c-7.3-6-15.3-13-22.2-19.5c-1-0.9-2-1.9-3-2.8c-4.5-4.3-8.5-8.4-11.5-11.8l-8.5,15.3c0,0-13.2,13.8-26.5,28.6
	c-1.1,1.2-2.3,2.5-3.4,3.8c-6.1,6.8-12,13.6-16.5,19.2c-14.9,18.5-24.2,51-12.4,108.2c11.9,57.2,28.8,95.8,28.8,95.8l0.5,68
	c-31.9,61.3-22.7,156.1-21.6,164.3c0.3,2,0.8,4,1.9,5.8h0c45.5-16.4,73.3-5.3,73.3-5.3c-3.7-30.3,2-138.8,3.4-162.4c0,0,0,0,0,0
	c0.2-2.9,0.3-4.5,0.3-4.5s6.2-5.1,5.7-28.8c-0.5-23.7-2.6-127.2-2.6-127.2l2,1.6l54.3,44.2l27.2,22.1l51,68.5c0,0-0.1,1.2-0.4,3.2
	c-0.2,1.2-0.5,2.6-0.9,4.2v0c-0.4,1.6-1,3.4-1.7,5.3v0c-1,2.8-2.4,5.8-4.2,8.9c-6.7,11.3-25.2,59.8-25.2,59.8
	c3.1,22.2,50,60.8,59.2,51.5c8.2-8.2,32.6-83.7,38.5-116.5c0.3-1.6,0.5-3,0.7-4.3c0.3-2.3,0.5-4.3,0.6-5.9
	C790.1,1438.1,771.4,1396.9,749.8,1367.5z"/>
<path class="st1" d="M859,1189.3c-12.7-36.6-10.4-55.4-10.4-55.4l-76.7,40.4l-10.3-64.6c3.6-8.1,7.6-27.4-2.8-36.4
	c-10.5-9-53.5-22.4-53.5-22.4s-3.1,26.9-21.5,21.8c-18.4-5.1-26.6-35.9-29.2-53.8c0,0-25.7-20.4-44.1-24.7c-18.4-4.3-20.2,7-20.2,7
	L496.8,980l-19.7-41.7c0,0,9.9-11.7,22-22.9c11.2-10.4,24.7-14.2,28.1-20.5c-7,1.9-16.8,2-29.4-1.6c-29.1-8.3-53.9-39.9-53.9-39.9
	c-15.3,40.4-21.5,114.8-20.2,141.9c1.3,27.1,55.6,45.6,71.3,51.4c15.7,5.8,96,31.4,96,31.4s-2.2,3.5-5.5,8.7
	c-4.9,7.9-12.3,19.6-17.7,28.7c-3.9,6.5-6.9,11.6-7.3,12.8c-1.3,4,22.4,26.9,42.2,43.1c19.7,16.1,56.1,19.3,56.1,19.3l20.6-28.6
	l10.1-14c15.5-6.7,21.7-13.9,21.7-13.9c0.2,3,0.4,6.3,0.8,9.6c3.4,36.2,13.7,89.5,28.8,94.4c16.6,5.4,78.9-16.6,82.1-16.1
	c3.1,0.4,45.3,4,50.7,3.6c0.6-0.1,1.3-0.2,1.8-0.4C870.8,1219.9,865.4,1207.9,859,1189.3z"/>
<path class="st23" d="M741.6,966.2c0,0-0.9,5.9-2.9,12.5c-0.4,1.3-0.9,2.7-1.4,4.1c-2.2,5.9-5.2,11.4-9.3,12.8c-4,1.4-8.7,1-12.8,0
	c-5.8-1.4-10.5-3.8-10.7-3.9l0,0l-11,51.8l11.6,7.4c0,0-3.1,26.9-21.5,21.8c-18.4-5.1-26.6-35.9-29.2-53.8l7.1,4l15.1-59.5
	c1.2,0.2,2.5,0.4,3.8,0.6c0,0-6.2,38.2,18.7,39.3c0,0,0-6.2,0.1-13.6c0.2-10.5,0.7-23.6,2.2-25.4c1.3-1.6,5.3-3.8,8.6-6.7
	c2.9-2.6,5.3-5.7,4.7-9.4c-1.1-7.9-3.7-16.4-2.8-24.1c0,0,23.2-5.9,16.1-26.3l5.1,2.5c0,0,16.4,5.9,12.2,46.4c0,0,6.5,8.2,9.3,9.9
	c0.2,0.1,0.3,0.2,0.4,0.3C757,959.4,751.7,966.2,741.6,966.2z"/>
<path class="st23" d="M680.5,963.9c-24.3-3.1-23.8-17.3-23.8-17.3s0.6-9.6,12.7-4C681.6,948.4,680.5,963.9,680.5,963.9z"/>
<g>
	<path class="st19" d="M691.5,1056.6c-0.1,0-0.2,0-0.4,0c-1.1-0.2-1.8-1.2-1.6-2.3l2-11.1l7.5-35.2c0.2-1.1,1.3-1.8,2.3-1.5
		c1.1,0.2,1.8,1.3,1.5,2.3l-7.5,35.1l-2,11C693.3,1055.9,692.5,1056.6,691.5,1056.6z"/>
</g>
<path class="st26" d="M745.9,930.1c6.2-8.8,15.2-15,12.1-20.8c-4-7.6-24.9-9.1-24.9-9.1S744.9,904.5,745.9,930.1z"/>
<path class="st26" d="M733.2,900.3l-5.1-2.5c0,0-6.4-16.7,0.6-19.8L733.2,900.3z"/>
<path class="st22" d="M728.6,877.9c0,0-14.7,0.3-22.9,9.1c0,0-31.4-11-36.8,0c0,0-22.9,7.9-24.1,29.4c-1.1,21.5,11.9,30.3,11.9,30.3
	s0.6-9.6,12.7-4c12.2,5.7,11,21.2,11,21.2s-6.2,38.2,18.7,39.3c0,0-0.3-36,2.3-39.1c2.5-3.1,14.4-8.2,13.3-16.1
	c-1.1-7.9-3.7-16.4-2.8-24.1c0,0,23.2-5.9,16.1-26.3C728.1,897.7,721.7,881,728.6,877.9z"/>
<path class="st24" d="M715.3,995.6c-5.8-1.4-10.5-3.8-10.7-3.9l0,0l-5.3-2c0.2-10.5,0.7-23.6,2.2-25.4c1.3-1.6,5.3-3.8,8.6-6.7
	C711.8,970.2,713.9,985.6,715.3,995.6z"/>
<path class="st19" d="M676.5,956.9c-3.3-6.8-6.5-10.2-9.8-10.2c0,0,0,0,0,0c-3.3,0-5,3.5-5.1,3.7c-0.3,0.7,0,1.4,0.6,1.8
	c0.7,0.3,1.4,0,1.8-0.6c0,0,1.1-2.2,2.7-2.2c0,0,0,0,0,0c0.5,0,1.4,0.2,2.6,1.3l-3,4.6c-0.4,0.6-0.2,1.4,0.4,1.8
	c0.2,0.1,0.5,0.2,0.7,0.2c0.4,0,0.9-0.2,1.1-0.6l2.6-3.9c0.9,1.2,1.9,2.9,3,5.2c0.2,0.5,0.7,0.7,1.2,0.7c0.2,0,0.4,0,0.6-0.1
	C676.6,958.4,676.8,957.6,676.5,956.9z"/>
<path class="st22" d="M656.7,946.7c0,0-13-8.8-11.9-30.3c0.7-13.6,10.1-21.7,16.9-25.9c-5.1-4.2-13.8-10.6-18.8-10
	c-7.4,0.9-25.2,19.9-24.1,25.2c1.1,5.3,10.7,21.5,11.2,28.9c0.4,7.4-20.4,20.6-16.4,29.4c3.9,8.7,3.5,12.2,16.2,19
	c12.7,6.8,18.4,12.3,18.8,10.9c0.4-1.3-2-14.2-0.9-15.5c1.1-1.3,10.7-4.8,11.8-10.7c0.4-2,0.5-7,0.5-12.8
	C656.6,950.7,656.7,946.7,656.7,946.7z"/>
<g>
	<path class="st27" d="M706.4,885.8c-0.6-0.4-1.4-0.2-1.8,0.4c-0.2,0.3-5,8.6-2.9,26.1c1.9,15.8,2,23.7,2,24.7l-2.5,11.8
		c-0.1,0.7,0.3,1.4,1,1.6c0.1,0,0.2,0,0.3,0c0.6,0,1.2-0.4,1.3-1l2.5-12c0-0.1,0-0.2,0-0.2c0-0.3,0.1-8-2-25.2
		c-2-16.5,2.5-24.4,2.5-24.5C707.2,887,707,886.2,706.4,885.8z"/>
	<path class="st27" d="M695.4,883.3c-0.6,0.5-13.8,13.7-8.4,33.9c5.3,20,5,26.8,4.8,30.5c0,0.7-0.4,2.6-0.9,5
		c-2.1,10-6.5,30.7-0.3,42.1c0.2,0.4,0.7,0.7,1.2,0.7c0.2,0,0.4-0.1,0.6-0.2c0.6-0.3,0.9-1.1,0.5-1.8c-5.7-10.6-1.5-30.7,0.6-40.3
		c0.6-2.7,0.9-4.4,1-5.4c0.2-3.8,0.6-10.9-4.9-31.3c-5-18.6,7.5-31.1,7.7-31.3c0.5-0.5,0.5-1.3,0-1.9
		C696.7,882.8,695.9,882.8,695.4,883.3z"/>
	<path class="st27" d="M688.9,883.6c0.6-0.5,0.6-1.3,0.2-1.9c-0.5-0.6-1.3-0.6-1.9-0.2c-0.2,0.2-5.5,4.6-9.3,14.5
		c-6.4,16.4-3.9,35-0.7,47.8c0.2,0.6,0.7,1,1.3,1c0.1,0,0.2,0,0.3,0c0.7-0.2,1.1-0.9,1-1.6c-5.6-22.3-2.8-37.3,0.6-46
		C683.8,887.9,688.8,883.7,688.9,883.6z"/>
	<path class="st27" d="M669.5,904.2c1.6-4,2.9-7.1,2.7-9.6c-0.1-0.7-0.7-1.3-1.4-1.2c-0.7,0.1-1.3,0.7-1.2,1.4
		c0.1,1.8-1.1,4.9-2.5,8.4c-2,4.9-4.4,11-4.9,17.7c-0.9,11.9,5.9,22.1,6.2,22.5c0.3,0.4,0.7,0.6,1.1,0.6c0.3,0,0.5-0.1,0.7-0.2
		c0.6-0.4,0.8-1.2,0.4-1.8c-0.1-0.1-6.6-9.8-5.7-20.9C665.3,914.8,667.6,908.9,669.5,904.2z"/>
	<path class="st27" d="M719.5,901.1c-0.7-0.2-1.4,0.1-1.7,0.8l-7.2,21.6c-0.2,0.7,0.1,1.4,0.8,1.7c0.1,0,0.3,0.1,0.4,0.1
		c0.6,0,1.1-0.4,1.3-0.9l7.2-21.6C720.6,902.1,720.2,901.4,719.5,901.1z"/>
	<path class="st27" d="M653.4,896.5c-1.2-0.6-11.6-5.4-16.6-3c-4.8,2.3-11.2,13.5-11.9,14.8c-0.4,0.6-0.1,1.4,0.5,1.8
		c0.2,0.1,0.4,0.2,0.6,0.2c0.5,0,0.9-0.2,1.2-0.7c1.8-3.2,7.3-12,10.8-13.7c3.3-1.6,11.4,1.6,14.3,3c0.7,0.3,1.4,0,1.8-0.6
		C654.4,897.6,654.1,896.8,653.4,896.5z"/>
	<path class="st27" d="M646.4,905.3l-18.5,14c-0.6,0.4-0.7,1.3-0.3,1.8c0.3,0.3,0.7,0.5,1.1,0.5c0.3,0,0.6-0.1,0.8-0.3l18.5-14
		c0.6-0.4,0.7-1.3,0.3-1.8C647.8,904.9,647,904.8,646.4,905.3z"/>
	<path class="st27" d="M647.3,931c-0.7-0.3-1.4,0.1-1.7,0.8c-0.4,1-9.3,25.6-9.5,35.1c-0.2,9.7,7.2,21.3,7.6,21.8
		c0.3,0.4,0.7,0.6,1.1,0.6c0.2,0,0.5-0.1,0.7-0.2c0.6-0.4,0.8-1.2,0.4-1.8c-0.1-0.1-7.3-11.4-7.1-20.3c0.2-9.1,9.3-34,9.4-34.3
		C648.4,932,648,931.3,647.3,931z"/>
	<path class="st27" d="M651.9,940.4c-0.7,0-1.4,0.5-1.4,1.2l-1.9,24.2c-0.1,0.7,0.5,1.4,1.2,1.4c0,0,0.1,0,0.1,0
		c0.7,0,1.3-0.5,1.3-1.2l1.9-24.2C653.2,941.1,652.6,940.4,651.9,940.4z"/>
</g>
<path class="st25" d="M738.7,978.7c-0.4,1.3-0.9,2.7-1.4,4.1c-3.5-3.1-8.7-8-10.7-12.4l-0.4,0.3c-0.7,0.5-1.4,1-2.1,1.5
	c-0.1,0-0.1,0-0.2,0c0,0,0,0,0-0.1l0-0.1c0.1-1.3,0.5-2.2,0.9-3c0.5-0.8,1.1-1.4,1.7-2c0.7-0.5,1.4-1,2.3-1.2
	c0.9-0.3,1.9-0.4,3.1-0.2l0.1,0c0.1,0,0.1,0.1,0.1,0.1c0,0,0,0,0,0.1c-0.6,0.6-1.3,1.1-2,1.7l-0.5,0.4c0.1,0.1,0.1,0.2,0.2,0.3
	C731.2,971.4,735.3,975.6,738.7,978.7z"/>
<path class="st26" d="M737.4,940.5c-0.9-0.6-2.2-0.3-2.7,0.7c-1.1,1.8-4.8,6.7-8,6c-3.8-0.9-4.2-6.8-4.2-6.9c-0.1-1.1-1-1.9-2.1-1.9
	c-1.1,0.1-1.9,1-1.9,2.1c0,0.2,0.2,3,1.6,5.7l-3.3,1c-0.7,0.2-1.1,1-0.9,1.7c0.2,0.7,1,1.1,1.7,0.9l3.3-1l-0.9,3.4
	c-0.2,0.7,0.2,1.4,0.9,1.6c0.1,0,0.2,0,0.3,0c0.6,0,1.1-0.4,1.3-1l0.7-2.8c0.7,0.5,1.6,0.9,2.5,1.1c0.5,0.1,1.1,0.2,1.6,0.2
	c5.8,0,10.2-7.1,10.7-8C738.6,942.3,738.3,941.1,737.4,940.5z"/>
<path class="st22" d="M720.4,928c0.2-1.2,0.7-2.2,1.2-3.2c0.6-1,1.3-1.9,2.1-2.7c1.7-1.6,3.9-3,6.5-3.3c0.6-0.1,1.3-0.1,1.9-0.1
	c0.3,0,0.6,0,1,0.1c0.3,0.1,0.6,0.1,0.9,0.2c1.3,0.3,2.4,0.9,3.4,1.6c2,1.4,3.4,3.4,4,5.6c-2.1-0.9-3.9-1.8-5.7-2.3
	c-1.8-0.5-3.3-0.7-4.9-0.4c-1.6,0.2-3.2,0.8-5,1.7C724.2,925.9,722.4,926.9,720.4,928z"/>
<g>
	<path class="st7" d="M495.1,980.9l21.6,47c0.3,0.7,1.1,1.2,1.8,1.2c0.3,0,0.6-0.1,0.8-0.2c1-0.5,1.4-1.6,1-2.6l-21.6-47l-19.7-41.7
		c-0.5-1-1.6-1.4-2.6-0.9c-1,0.5-1.4,1.6-0.9,2.6L495.1,980.9z"/>
	<path class="st7" d="M834.8,1141.1c-0.5-1-1.7-1.3-2.7-0.8l-61.1,32.2l-25.8,9.8c-1,0.4-1.5,1.5-1.1,2.6c0.3,0.8,1.1,1.3,1.9,1.3
		c0.2,0,0.5,0,0.7-0.1l25.9-9.9c0.1,0,0.1-0.1,0.2-0.1l61.3-32.2C835,1143.3,835.3,1142.1,834.8,1141.1z"/>
	<path class="st7" d="M609.2,1081.3l-17.5-4.9c-2.1-0.7-80.5-25.7-95.9-31.4c-0.8-0.3-1.6-0.6-2.6-1c-18.1-6.6-66.2-24.3-67.5-48.7
		c-0.4-8-0.1-19.9,0.8-33.5c0.1-1.1-0.8-2-1.8-2.1c-1.1-0.1-2,0.8-2.1,1.8c-0.9,13.7-1.2,25.8-0.8,33.9c1.3,27,51.3,45.4,70,52.3
		c0.9,0.3,1.8,0.7,2.6,0.9c15.6,5.8,95.3,31.2,96.1,31.4c0,0,0,0,0.1,0l17.6,4.9c0.2,0,0.4,0.1,0.5,0.1c0.9,0,1.7-0.6,1.9-1.5
		C610.8,1082.7,610.2,1081.6,609.2,1081.3z"/>
</g>
<g>
	<path class="st7" d="M577.5,1051c-3.9-3.2-45.2-43.8-72.6-70.8c-0.8-0.8-2-0.8-2.8,0c-0.8,0.8-0.8,2,0,2.8
		c0.2,0.2,18.3,18.1,36.3,35.8c10.6,10.4,19,18.6,25.1,24.5c3.6,3.5,6.4,6.2,8.4,8c2.7,2.6,3.8,3.6,4.7,3.6c0.3,0,0.7-0.1,1-0.4
		c0.8-0.5,1.1-1.5,0.8-2.3C578.4,1051.6,578,1051.2,577.5,1051z"/>
	<path class="st7" d="M772.4,1171.1l-32.7-34.2c-0.8-0.8-2-0.8-2.8-0.1c-0.8,0.8-0.8,2-0.1,2.8l32.7,34.2c0.4,0.4,0.9,0.6,1.4,0.6
		c0.5,0,1-0.2,1.4-0.5C773.2,1173.2,773.2,1171.9,772.4,1171.1z"/>
	<path class="st7" d="M586.8,1087.6c-0.3-1.1-1.3-1.7-2.4-1.4c-1.1,0.3-1.7,1.3-1.4,2.4l12.9,52c0.2,0.9,1,1.5,1.9,1.5
		c0.2,0,0.3,0,0.5-0.1c1.1-0.3,1.7-1.3,1.4-2.4L586.8,1087.6z"/>
	<path class="st7" d="M725.7,1083.7l-11.3,10.9c-0.5,0.5-0.7,1.3-0.5,2c5.9,19-4.3,36.5-4.4,36.7c-0.6,0.9-0.2,2.2,0.7,2.7
		c0.3,0.2,0.7,0.3,1,0.3c0.7,0,1.3-0.3,1.7-1c0.5-0.8,10.8-18.5,5.1-38.7l10.4-10.1c0.8-0.8,0.8-2,0-2.8
		C727.8,1083,726.5,1083,725.7,1083.7z"/>
</g>
<g>
	<path class="st35" d="M681.9,1296.7c-0.2,1-1,1.6-1.9,1.6c-0.1,0-0.2,0-0.4,0l-89.3-16.4l0.2,36.1c0,0.1,0,0.6,0,1.6
		c0.3,13.4,2.1,103.8,2.5,125.6c0.5,21.6-4.5,28.5-6,30.1c-0.3,0.6-0.9,1.8-1.9,3.3c0,0,0,0,0,0c-2.4,3.8-6.6,9.4-11.7,11.2
		c-1.1,0.4-2.3,0.6-3.4,0.6c-1.5,0-3-0.4-4.4-1.1c-10.7-5.4-15.2-39.1-15.6-43c-0.1-1.1,0.6-2.1,1.7-2.2c1.1-0.1,2.1,0.6,2.2,1.7
		c1.7,13.7,6.8,36.6,13.5,39.9c1.5,0.8,3.1,0.9,4.7,0.3c5.2-1.8,10.1-9.9,11.5-12.8c0.1-0.3,0.3-0.5,0.5-0.7c0,0,5.4-5.3,5-27.3
		c-0.5-23.4-2.6-126.2-2.6-127.2l-0.2-38.5l0-7.6c0-1,0.7-1.8,1.6-2c0.1,0,4.4-0.8,10.7-2.1c1.3-1.9,3-5.6,4.8-10.5c0,0,0,0,0,0
		c6.6-17.9,15.5-52,21-74.1c1.3,0.5,2.5,0.9,3.8,1.3c-4.4,17.9-12.9,51.1-19.9,71.1c3-0.7,7.6-3.1,9.5-10.4
		c2.5-9.5,12.8-41.5,18.4-58.4c1.3,0.3,2.6,0.7,3.9,0.9c-5.5,16.8-16,49.2-18.4,58.5c-3,11.3-11.5,13.3-14.9,13.6
		c-1,2.7-2,5-2.9,6.9c15.3-3.4,37.3-8.9,46.5-14.5c0.9-0.6,2.2-0.3,2.7,0.7c0.6,0.9,0.3,2.2-0.7,2.7c-13.8,8.4-53.4,16.3-62.1,18
		l0,4.3l90,16.5C681.4,1294.6,682.1,1295.7,681.9,1296.7z"/>
	<path class="st35" d="M724.7,1453.6c0-0.1-0.1-0.1-0.1-0.2l-51-68.5c-0.1-0.1-0.2-0.2-0.3-0.4l-25.6-20.9c-0.8-0.7-2.1-0.6-2.8,0.3
		c-0.7,0.8-0.6,2.1,0.3,2.8l25.4,20.7l50.8,68.2l25,41.9c0.4,0.6,1,1,1.7,1c0.3,0,0.7-0.1,1-0.3c0.9-0.6,1.2-1.8,0.7-2.7
		L724.7,1453.6z"/>
	<path class="st35" d="M723.1,1463.4c-0.3-1.1-1.4-1.7-2.4-1.4c-1.1,0.3-1.7,1.4-1.4,2.4l17.8,66.3c0.2,0.9,1,1.5,1.9,1.5
		c0.2,0,0.3,0,0.5-0.1c1.1-0.3,1.7-1.4,1.4-2.4L723.1,1463.4z"/>
	<path class="st35" d="M790.4,1467.7c-0.5-1-1.7-1.3-2.7-0.8c-4,2.1-7.6,2.3-10.8,0.6c-4.9-2.6-9.2-9.7-12.4-20.5
		c-2.5-8.4-3.4-16.2-3.4-16.3c-0.1-1.1-1.1-1.9-2.2-1.7c-1.1,0.1-1.9,1.1-1.7,2.2c0,0.3,1,8.1,3.5,16.9c3.6,12.1,8.4,19.8,14.4,23
		c2,1.1,4.2,1.6,6.4,1.6c2.6,0,5.3-0.7,8.1-2.2C790.5,1469.9,790.9,1468.7,790.4,1467.7z"/>
	<path class="st35" d="M657,1218.5L657,1218.5c-0.2,0-0.3,0.1-0.5,0.1c-0.9,0-1.7-0.6-1.9-1.5l-7.1-27.8c1.6,0.3,3,0.5,4.3,0.7
		l5.8,22.7l0.9,3.4C658.7,1217.2,658.1,1218.2,657,1218.5z"/>
	<path class="st35" d="M580.5,1152.1c-7.9,14.3-19.7,22.4-28.9,26.8c-11.9,5.7-22,6.7-22.4,6.7c-0.1,0-0.1,0-0.2,0
		c-0.5,0-1-0.2-1.3-0.5c-0.4-0.3-0.6-0.8-0.7-1.3c-0.1-1.1,0.7-2,1.8-2.1c0,0,0.9-0.1,2.2-0.3c3.5-0.6,10.8-2.2,18.9-6.1
		c12.3-5.9,21.5-14.6,27.5-26C578.5,1150.2,579.5,1151.1,580.5,1152.1z"/>
</g>
<path class="st26" d="M581.8,1641.1c0,0-3.8,8.5-18.9,12.7c-4.9,1.4-11.1,2.3-18.7,2.3c-6.9,0-12.5-0.4-17.1-1
	c-11-1.5-16.2-4.7-18.6-8.7h0c5.7-2,11-3.7,16.1-4.9c14.6-3.6,26.8-4.4,36.1-4C574.4,1638,581.8,1641.1,581.8,1641.1z"/>
<path class="st26" d="M875.5,1225.4c-4.7-5.5-10.1-17.6-16.5-36.2c-0.1-0.4-0.2-0.7-0.4-1c-0.3-0.9-0.6-1.8-0.9-2.8
	c-7.5-22.7-9.1-38-9.3-45.7c-0.1-3.9,0.1-5.9,0.1-5.9l0,0c0.3-0.1,3.3-0.9,7.3,1.7c5.4,3.4,12.7,13,17.7,38.5c0,0.1,0,0.1,0,0.2
	c0.2,1,0.4,2,0.6,2.9C881.5,1215,879.6,1223.6,875.5,1225.4z"/>
<path class="st26" d="M527.8,893.4c-0.1,0.5-0.3,1.1-0.6,1.6c-7,1.9-16.8,2-29.4-1.6c-4.5-1.3-9-3.1-13.2-5.4
	c-19.6-10.2-35.4-28.1-39.5-33.1c-0.7-0.9-1.1-1.3-1.1-1.3s0.3-3.7,4.9-6.2c4.3-2.4,12.5-3.6,27.9,0.8c5.7,1.6,11.1,3.9,16.1,6.6
	C515.1,867,529.3,887.5,527.8,893.4z"/>
<path class="st20" d="M545.2,1724.1c-6.6,1.2-17.6-8.7-17.6-8.7s7.1-18.3,6.4-23c-0.3-1.6-1.7-9.2-3.4-18.7
	c9.2-2.3,21.7-4.4,34.5-3.5l3.4,25.7c-14.8,1.5-21.1,5.7-26.6,12C535.9,1714.5,545.2,1724.1,545.2,1724.1z"/>
<path class="st23" d="M565.1,1670l-2.2-16.3l-2.2-16.3c-9.3-0.4-21.5,0.3-36.1,4c0.7,4,1.6,8.7,2.5,13.6c1.1,6.2,2.3,12.7,3.4,18.6
	C539.8,1671.2,552.3,1669.1,565.1,1670z"/>
<path class="st32" d="M593.1,1730.6c-0.1-1.1-1.1-1.9-2.2-1.7c-1.1,0.1-1.9,1.1-1.7,2.2c0,0.3,0.9,8.5-5.6,9.7
	c-5.5,1.1-25.8-10.7-37.3-18.4c-0.9-0.6-2.1-0.4-2.7,0.6c-0.6,0.9-0.4,2.1,0.6,2.7c0.1,0.1,7.8,5.2,16.4,10
	c14.1,7.9,19.9,9.1,22.4,9.1c0.7,0,1.1-0.1,1.4-0.1C592.4,1743.1,593.6,1734.8,593.1,1730.6z"/>
<path class="st0" d="M656.8,1844.6c-5.2,11.4-20.5,14.5-33.4,17.3c-14.7,3.2-42.9,6.8-63.2-16.3c-20.3-23-18.3-26.2-18.3-26.2
	s-22.2-9.5-25.8-28.6c-0.8-4.3-0.7-10.6,0.1-17.7c2.4,5.8,6.1,11.9,11.5,16.9c15.5,14.3,16.7,10.7,20.4,17.9
	c3.8,7.1,29,47.3,45.2,46.5c16.2-0.8,31.2-12.7,48.3-15.5C651.6,1837.2,655.5,1839.8,656.8,1844.6z"/>
<g>
	<path class="st32" d="M633,1802.8C633,1802.8,633,1802.8,633,1802.8c-6.9,0.1-10.1,4.6-12.7,8.3c-2.4,3.4-4,5.4-7,5.6
		c-5.7,0.3-17.7-4.5-28.2-8.8c-4.7-1.9-9.2-3.7-13.2-5.1c-14.8-5.2-23.3,7.7-23.4,7.8c-0.6,0.9-0.3,2.1,0.6,2.7
		c0.9,0.6,2.1,0.3,2.7-0.6c0.3-0.4,6.9-10.4,18.7-6.2c3.9,1.4,8.3,3.2,13,5c11,4.5,22.4,9.1,29.2,9.1c0.2,0,0.5,0,0.7,0
		c5-0.3,7.7-4,10-7.2c2.5-3.5,4.7-6.6,9.5-6.6c1.1,0,2-0.9,2-2C635,1803.7,634.1,1802.8,633,1802.8z"/>
	<path class="st32" d="M520.5,1749.6c-0.9-0.6-2.1-0.3-2.7,0.6c-0.6,0.9-0.3,2.1,0.6,2.7c0.2,0.1,17.8,12,20.2,47.7
		c0.1,1,0.9,1.8,2,1.8c0,0,0.1,0,0.1,0c1.1-0.1,1.9-1,1.8-2.1C540,1762.7,521.3,1750.1,520.5,1749.6z"/>
</g>
<g>
	<path class="st28" d="M601.6,1753.2c2.1,0.4,4.2-1,4.7-3.1c0.4-2.1-1-4.2-3.1-4.7c-19.4-3.9-40.3,3.6-41.2,3.9
		c-2.1,0.8-3.1,3-2.4,5.1c0.6,1.6,2.1,2.6,3.7,2.6c0.5,0,0.9-0.1,1.4-0.2C564.9,1756.7,584.4,1749.7,601.6,1753.2z"/>
	<path class="st28" d="M606.1,1765.6c2.1,0.4,4.2-1,4.7-3.1c0.4-2.1-1-4.2-3.1-4.7c-19.4-3.9-40.3,3.6-41.2,3.9
		c-2.1,0.8-3.1,3-2.4,5.1c0.6,1.6,2.1,2.6,3.7,2.6c0.5,0,0.9-0.1,1.4-0.2C569.4,1769.1,588.9,1762.1,606.1,1765.6z"/>
	<path class="st28" d="M612,1778.4c2.1,0.4,4.2-1,4.7-3.1c0.4-2.1-1-4.2-3.1-4.7c-19.4-3.9-40.3,3.6-41.2,3.9
		c-2.1,0.8-3.1,3-2.4,5.1c0.6,1.6,2.1,2.6,3.7,2.6c0.5,0,0.9-0.1,1.4-0.2C575.3,1782,594.7,1774.9,612,1778.4z"/>
	<path class="st28" d="M619.4,1783.5c-19.4-3.9-40.3,3.6-41.2,3.9c-2.1,0.8-3.1,3-2.4,5.1c0.6,1.6,2.1,2.6,3.7,2.6
		c0.5,0,0.9-0.1,1.4-0.2c0.2-0.1,19.6-7.1,36.9-3.6c2.1,0.4,4.2-1,4.7-3.1C623,1786,621.6,1783.9,619.4,1783.5z"/>
</g>
<path class="st0" d="M749.7,1771.2c0.1,3.1-1.5,6.1-4.1,7.8c-5.6,3.7-17,9.4-34.1,9.7c-25.4,0.5-38.9-15.4-47.3-39.4
	c-8.3-24.1-24.3-38.8-29.3-44.7c-4.9-6-19.6-50.1-16.4-58.2c0.9-2.2,5.3-5.4,11.4-8.9c1.9,13.6,6.4,32.4,16.5,48.9
	c17.9,29.4,29.4,54.8,35.4,66.4c6,11.5,7.1,17.9,18.3,23.2c8.4,4,36-5.2,49.2-10.1C749.5,1767.5,749.7,1769.2,749.7,1771.2z"/>
<path class="st1" d="M681.7,1752.7c6,11.5,7.1,17.9,18.3,23.2c8.4,4,36-5.2,49.2-10.1c-2.8-18.9-16.4-17-20.2-18.7
	c-4.4-2-7.1-13.5-7.5-29.8c-0.4-16.3-2.3-59.2-2.3-59.2c13.6-30.6-6.4-33-6.4-33l-15.5,25c0,0-15.9,7.9-23.8,1.2
	c-7.9-6.8-0.4-34.6-0.4-34.6s-27.1,11.3-43.1,20.6c1.9,13.6,6.4,32.4,16.5,48.9C664.3,1715.7,675.8,1741.1,681.7,1752.7z"/>
<g>
	<path class="st32" d="M645.9,1626.9c-1,0.4-1.4,1.6-1,2.6c11.1,24.9-3.2,49.8-3.4,50.1c-0.6,0.9-0.2,2.2,0.7,2.7
		c0.3,0.2,0.7,0.3,1,0.3c0.7,0,1.3-0.3,1.7-1c0.6-1.1,15.6-26.9,3.6-53.7C648,1626.9,646.9,1626.4,645.9,1626.9z"/>
	<path class="st32" d="M691.9,1666.2c2.5,0,6.6-0.6,13.7-2.3c7.1-1.7,14-3.8,14.1-3.8c1-0.3,1.6-1.4,1.3-2.5s-1.4-1.6-2.5-1.3
		c-13.9,4.2-24.5,6.3-27.3,6c0.4-1.8,3.6-6.6,7.4-10.7c0.7-0.8,0.7-2.1-0.1-2.8c-0.8-0.7-2.1-0.7-2.8,0.1c-9,9.8-9.2,14.1-7.7,16
		C688.6,1665.5,689.4,1666.2,691.9,1666.2z"/>
	<path class="st32" d="M731.4,1745.7c-0.9-0.3-9.1-3-14.4-1.3c-2.7,0.9-4.8,3.6-7,6.4c-2.3,3-4.7,6.1-7.2,6.2
		c-2.1,0.1-10.4-3.6-23.8-13.7c-0.9-0.7-2.1-0.5-2.8,0.4c-0.7,0.9-0.5,2.1,0.4,2.8c3.2,2.4,19.5,14.5,26.2,14.5c0.1,0,0.1,0,0.2,0
		c4.3-0.2,7.4-4.2,10.1-7.7c1.7-2.3,3.6-4.6,5.1-5.1c3.4-1.1,9.8,0.6,11.9,1.3c1,0.4,2.2-0.2,2.5-1.2
		C733,1747.2,732.5,1746.1,731.4,1745.7z"/>
</g>
<g>
	<path class="st28" d="M696.5,1677.4l22.5,6.8c0.4,0.1,0.8,0.2,1.1,0.2c1.7,0,3.3-1.1,3.8-2.8c0.6-2.1-0.6-4.3-2.6-4.9l-22.5-6.8
		c-2.1-0.6-4.3,0.6-4.9,2.6C693.3,1674.5,694.4,1676.7,696.5,1677.4z"/>
	<path class="st28" d="M696.5,1690.4l22.5,6.8c0.4,0.1,0.8,0.2,1.1,0.2c1.7,0,3.3-1.1,3.8-2.8c0.6-2.1-0.6-4.3-2.6-4.9l-22.5-6.8
		c-2.1-0.6-4.3,0.6-4.9,2.6C693.3,1687.6,694.4,1689.8,696.5,1690.4z"/>
	<path class="st28" d="M721.3,1702.7l-22.5-6.8c-2.1-0.6-4.3,0.6-4.9,2.6c-0.6,2.1,0.6,4.3,2.6,4.9l22.5,6.8
		c0.4,0.1,0.8,0.2,1.1,0.2c1.7,0,3.3-1.1,3.8-2.8C724.6,1705.5,723.4,1703.3,721.3,1702.7z"/>
	<path class="st28" d="M721.3,1715.8l-22.5-6.8c-2.1-0.6-4.3,0.6-4.9,2.6c-0.6,2.1,0.6,4.3,2.6,4.9l22.5,6.8
		c0.4,0.1,0.8,0.2,1.1,0.2c1.7,0,3.3-1.1,3.8-2.8C724.6,1718.6,723.4,1716.4,721.3,1715.8z"/>
</g>
<path class="st23" d="M726.6,1580.3l-12.6,25.1c-11.5-3.5-21.9-10.9-29.1-16.8l14.5-34.4C706.6,1563.8,717,1573.6,726.6,1580.3z"/>
<path class="st20" d="M673,1616.8c0,0-7.6,27.8,0.4,34.6c7.9,6.8,23.8-1.2,23.8-1.2l7.1-11.5v-14.1l9.7-19.3
	c-11.5-3.5-21.9-10.9-29.1-16.8L673,1616.8z"/>
<path class="st23" d="M532.1,808.2c-4.6,4.5-9.3,18.4-13,26.1c-3.4,7-22.4,18.2-26.3,20.5c-0.5,0.3-0.7,0.4-0.7,0.4l-5.7,22.7l0,0.2
	l-1.7,9.8c-19.6-10.2-35.4-28.1-39.5-33.1l3.8-7.6l4.5-9.1l3.7-7.5c-5.3-14.8,5.4-29.9,5.4-29.9s-6.5-13.7,2.4-18.5
	c9-4.9,51.5-8.2,56.7-5.9c5.2,2.3,3,18.6,3,18.6c7.3-4,15.9-1.6,18.2,1.5C545.1,799.5,536.7,803.7,532.1,808.2z"/>
<g>
	<path class="st19" d="M477.9,842.5c0.5,0.1,1,0.5,1.3,1c4.3,8.3,7.7,10.1,9.4,10.5c1.4,0.3,2.2-0.3,2.2-0.3h0
		c1.5,1.8,0.1,4.5-2.2,4.3c-0.2,0-0.4-0.1-0.6-0.1c-4.1-0.8-8-4.7-11.9-11.8l-13.1-3.5c-0.8-0.2-1.3-0.9-1.4-1.6
		c-0.1-0.4,0-0.7,0.1-1.1c0.4-0.9,1.4-1.4,2.4-1.1L477.9,842.5z"/>
	<path class="st19" d="M476.7,777c-5.7,1-10.4,2.2-12.8,3.6c-4.5,2.4-6.4,6.9-5.6,13.1c0,0.2,0.1,0.5,0.1,0.7c0.6,4,2.2,7.2,2.2,7.3
		c0.1,0.2,0.2,0.3,0.3,0.5c0.8,0.8,16.5,17.6,31.7,19.1c0,0,0,0,0.1,0c2.1,0.2,4.1,0.1,6.1-0.3l-3.5,4.5c-0.5-0.6-1.2-1.2-2-1.8
		c-4.8-3.1-13.1-2.9-24.6,0.7c-0.9,0.3-1.5,1.2-1.4,2.2c0,0.1,0,0.2,0.1,0.3c0.3,1,1.4,1.6,2.5,1.3c13.3-4.2,19-2.6,21.1-1.3
		c1.8,1.1,2.1,2.4,2.1,2.5c0.1,0.9,0.7,1.5,1.6,1.7c0.7,0.1,1.5-0.2,1.9-0.8l9.4-12.2c13-7.1,19.9-21.5,20.3-22.2
		c0.1-0.2,0.1-0.4,0.2-0.6c0.4-3,2.1-17.9-4.1-20.7c-4.5-2-29-0.5-45.3,2.4C476.9,777,476.8,777,476.7,777z M481.2,813.2l-1.8-32.6
		c4-0.6,8.4-1.2,12.9-1.7c4.3,15.1,0.5,32.8-0.9,38.2C487.9,816.4,484.4,814.9,481.2,813.2z M495.4,817.4c1.6-6.3,5-23.5,0.8-38.9
		c4.5-0.4,9-0.7,12.8-0.8c4.3,12.1-0.2,30.8-1.1,34.5c-2.6,1.9-5.6,3.6-8.8,4.6C497.9,817.1,496.6,817.3,495.4,817.4z M513,807.7
		c1.5-7.5,3.2-20.2,0.2-30.1c3.8,0,6.6,0.2,7.6,0.6c1.8,0.8,3,7.5,1.8,16.2C521.9,795.8,518.6,802,513,807.7z M465.8,784
		c1.9-1,5.3-2,9.6-2.8l1.6,29.4c-0.3-0.2-0.6-0.4-0.9-0.6c-6.2-4.4-11.1-9.3-12.1-10.4c-0.4-0.8-1.5-3.6-1.9-6.7
		C461.7,788.6,462.8,785.6,465.8,784z"/>
</g>
<path class="st0" d="M486.3,878.2l-1.7,9.8c-19.6-10.2-35.4-28.1-39.5-33.1l3.8-7.6l4.5-9.1C462.7,849.9,477,867.1,486.3,878.2z"/>
<path class="st31" d="M661.8,1238.5c-62.7,5.1-104.2-85.8-104.2-85.8l8.5-15.3c3,3.4,6.9,7.5,11.5,11.8c1,0.9,1.9,1.9,3,2.8
	c7,6.6,14.9,13.5,22.2,19.5c6.2,5.1,14,8.8,21.8,11.6c1.3,0.5,2.5,0.9,3.8,1.3c2.7,0.9,5.4,1.6,8,2.3c1.3,0.3,2.6,0.7,3.9,0.9
	c2.7,0.6,5.2,1.1,7.5,1.5c1.6,0.3,3,0.5,4.3,0.7c4.3,0.7,7,0.9,7,0.9s0.6,12.7-1.2,21.8c-0.3,1.4-0.6,2.7-1,3.9c0,0,0.2,0.7,0.5,1.9
	C657.9,1221.8,659.7,1229.1,661.8,1238.5z"/>
<g>
	<path class="st33" d="M647.6,936.2c-0.8,0-1.5-0.5-1.8-1.2c-2.3-5.6-3.2-11.9-2.9-18.7c1.2-22.6,24.4-30.9,25.4-31.2
		c1-0.4,2.2,0.2,2.5,1.2c0.4,1-0.2,2.2-1.2,2.5l0,0c-0.2,0.1-21.7,7.8-22.7,27.7c-0.3,6.2,0.5,11.9,2.6,17c0.4,1-0.1,2.2-1.1,2.6
		C648.1,936.2,647.8,936.2,647.6,936.2z"/>
</g>
<path class="st33" d="M681.5,954.9c-1.8-6.6-5.6-11.4-11.2-14c-4.9-2.3-8.9-2.6-11.7-0.9c-3.5,2.1-3.8,6.3-3.8,6.6
	c0,0.3-0.1,3.2,1.9,6.8c0.5,1,1.7,1.3,2.7,0.8c1-0.5,1.3-1.7,0.8-2.7c-1.3-2.4-1.4-4.4-1.4-4.7c0-0.3,0.3-2.4,1.9-3.3
	c1.6-1,4.4-0.6,8,1.1c10.8,5,9.9,19.2,9.9,19.3c-0.1,1.1,0.7,2,1.8,2.1c0,0,0.1,0,0.1,0c1,0,1.9-0.8,2-1.8
	C682.5,963.9,682.8,959.8,681.5,954.9z"/>
<path class="st23" d="M910.7,1148.8c0,0-7.1,3.2-10.1,7.9c-1.5,2.4-14.4,12-26.4,20.6c-0.2,0.1-0.3,0.2-0.5,0.4
	c-5.8,4.1-11.3,8-15.1,10.7c-0.3-0.9-0.6-1.8-0.9-2.8c-7.5-22.7-9.1-38-9.3-45.7l6.5-3.6l1-0.6l12-6.7c0,0,8.6-13,9.6-17
	c1-3.9,1.7-26.3,0-30.7c-1.7-4.4,7.1-7.9,10.8-4.2c3.7,3.7,7.4,14.3,4.4,23.6C892.7,1100.6,914.6,1126.4,910.7,1148.8z"/>
<path class="st19" d="M911.8,1133.3c-3.6-15.7-14.3-29.7-17-33.1c2.7-9.9-1.2-20.5-5.2-24.5c-2.9-2.9-8-2.5-11.2-0.4
	c-2.5,1.7-3.5,4.2-2.6,6.6c1.6,4,0.8,25.9-0.1,29.6c-0.6,2.6-5.7,10.8-9.1,16l-6.8,3.8c-0.9,0.5-1.2,1.6-0.7,2.5
	c0.5,0.9,1.6,1.2,2.5,0.7l5.8-3.2c1.5,2,4.6,5.7,8.9,8.7c1.4,1,2.5,2.3,3.2,3.9l4.2,9.5c0.3,0.7,1,1.1,1.7,1.1
	c0.3,0,0.5-0.1,0.7-0.2c0.9-0.4,1.4-1.5,0.9-2.4l-4.2-9.5c-1-2.2-2.5-4-4.4-5.4c-4.1-2.9-7-6.5-8.3-8.2c2.2-3.4,8.2-12.9,9.1-16.5
	c1-3.8,1.9-26.8-0.1-31.8c-0.4-0.9,0.4-1.7,1.2-2.2c1.9-1.2,5.1-1.6,6.6,0c3,3,6.8,12.7,4,21.7c-0.2,0.6-0.1,1.3,0.4,1.8
	c0.1,0.2,13,15.5,16.9,32.3c0.2,0.9,1,1.4,1.8,1.4c0.1,0,0.3,0,0.4,0C911.4,1135.3,912,1134.3,911.8,1133.3z"/>
<path class="st36" d="M985.3,1132.7l-47.2,22c-2.1,1-4.7,0.2-5.9-1.9l-4.6-8.1l-51.2-89.2c-1.4-2.4-0.3-5.4,2.2-6.5l46.7-19.5
	c2.1-0.9,4.5-0.1,5.7,1.9l50.9,85.5l5.5,9.2C988.7,1128.5,987.8,1131.5,985.3,1132.7z"/>
<polygon class="st1" points="880.4,1053.3 927,1033.8 975.3,1115.1 929.4,1138.6 "/>
<path class="st19" d="M873.7,1177.5c-5.8,4.1-11.3,8-15.1,10.7c-0.3-0.9-0.6-1.8-0.9-2.8c-7.5-22.7-9.1-38-9.3-45.7l6.5-3.6
	L873.7,1177.5z"/>
<path class="st23" d="M940.8,1077.9c-0.4,0.8,0.9,15.1,5.5,22.4c4.7,7.3,10.4,14.4,13.1,14.9c2.7,0.4,14.9-8,14.9-8
	s4.4-11.1,1.5-18.6c-2.9-7.5-11.5-19.5-12.9-20.2C961.7,1067.7,948.1,1064.1,940.8,1077.9z"/>
<path class="st19" d="M977.6,1087.8C977.6,1087.8,977.6,1087.8,977.6,1087.8c-2.8-7.4-11.6-20.1-13.8-21.2
	c-2.3-1.2-16.9-4.3-24.6,10.3c-0.8,1.5,0.2,10.5,2.7,17.9c0,0.1,0.1,0.3,0.1,0.4c0.8,2.2,1.7,4.3,2.8,6c2.2,3.5,9.8,14.9,14.3,15.7
	c0.1,0,0.3,0,0.4,0c3.3,0,11.2-5.2,15.8-8.3c0.3-0.2,0.5-0.5,0.7-0.8C976.3,1107.3,980.7,1096,977.6,1087.8z M947.9,1099.3
	c-0.9-1.4-1.6-3-2.2-4.7c1.4-3.1,8.5-17.2,22.6-16.2c2,3.1,4,6.5,5.3,9.5l-23.3,14.9C949.5,1101.6,948.7,1100.5,947.9,1099.3z
	 M942.6,1078.5c6.6-12.1,18.5-8.8,19.5-8.5c0.6,0.5,2,2.3,3.7,4.6c-6.5,0.3-12.4,3.4-17.3,9c-1.8,2.1-3.2,4.1-4.2,5.9
	C943,1084.5,942.5,1079.8,942.6,1078.5z M972.8,1105.9c-5.3,3.6-11.7,7.3-13.1,7.4c-1-0.2-3.8-2.8-7.4-7.6l22.3-14.3
	C975.7,1097.1,973.5,1104,972.8,1105.9z"/>
<path class="st1" d="M749.9,946.5c-0.1-0.8-0.9-1.2-1.6-1.1l-4.8,0.9c0.2-1.3,0.3-2.7,0.3-4.1c0-11.2-6.6-20.3-14.7-20.3
	s-14.7,9.1-14.7,20.3c0,0.2,0,0.3,0,0.5l-37.4,5.7c-0.8,0.1-1.3,0.8-1.2,1.6c0.1,0.7,0.7,1.2,1.4,1.2c0.1,0,0.1,0,0.2,0l37.2-5.7
	c1.1,9.7,7.2,17,14.5,17c6.3,0,11.7-5.5,13.8-13.2l5.9-1.2C749.5,948,750,947.3,749.9,946.5z M729.1,959.8
	c-6.6,0-11.9-7.9-11.9-17.5c0-9.7,5.3-17.5,11.9-17.5s11.9,7.9,11.9,17.5C741,951.9,735.6,959.8,729.1,959.8z"/>
<polygon class="st1" points="937.1,978.9 954,861.9 844.2,905.7 876.9,931.5 835.7,983.8 863.2,1005.4 904.4,953.2 "/>
<g>
	<path class="st13" d="M859.9,1001.8c-0.6,0-1.1-0.2-1.5-0.5l-27.5-21.7c-1.1-0.8-1.3-2.4-0.4-3.5l39.7-50.3l-30.8-24.2
		c-0.7-0.5-1-1.4-0.9-2.3c0.1-0.9,0.7-1.6,1.5-1.9l109.8-43.9c0.8-0.3,1.8-0.2,2.4,0.4c0.7,0.5,1,1.4,0.9,2.3l-16.9,117
		c-0.1,0.9-0.7,1.6-1.5,1.9c-0.8,0.3-1.8,0.2-2.4-0.4l-30.8-24.2l-39.7,50.3c-0.4,0.5-1,0.8-1.6,0.9
		C860.1,1001.8,860,1001.8,859.9,1001.8z M835.9,977.3l23.6,18.6l39.7-50.3c0.4-0.5,1-0.8,1.6-0.9c0.7-0.1,1.3,0.1,1.8,0.5
		l29.3,23.1l15.7-108.6l-101.9,40.7l29.3,23.1c0.5,0.4,0.8,1,0.9,1.6c0.1,0.7-0.1,1.3-0.5,1.8L835.9,977.3z"/>
</g>
<path class="st1" d="M1584.3,580.5h-235.7h-17h-99.3l76.4,28.4v64.5c0,12.6,10.2,22.9,22.9,22.9h252.7c12.6,0,22.9-10.2,22.9-22.9
	v-70.1C1607.2,590.7,1596.9,580.5,1584.3,580.5z"/>
<g>
	<path class="st16" d="M1584.3,700.5h-169c-2.3,0-4.2-1.9-4.2-4.2c0-2.3,1.9-4.2,4.2-4.2h169c10.3,0,18.7-8.4,18.7-18.7v-70.1
		c0-10.3-8.4-18.7-18.7-18.7h-328.9l54.8,20.4c1.6,0.6,2.7,2.2,2.7,3.9v64.5c0,10.3,8.4,18.7,18.7,18.7c2.3,0,4.2,1.9,4.2,4.2
		c0,2.3-1.9,4.2-4.2,4.2c-14.9,0-27-12.1-27-27v-61.7l-73.7-27.4c-1.9-0.7-3-2.7-2.6-4.6c0.4-2,2.1-3.4,4.1-3.4h352
		c14.9,0,27,12.1,27,27v70.1C1611.3,688.4,1599.2,700.5,1584.3,700.5z"/>
</g>
<g>
	<g>
		<path class="st1" d="M787.7,244.1H536.5c-12.6,0-22.9,10.2-22.9,22.9V331c0,12.6,10.2,22.9,22.9,22.9h202.2l37,63.8
			c0,0,0-39.2,0-63.8h12c12.6,0,22.9-10.2,22.9-22.9v-64.1C810.6,254.3,800.3,244.1,787.7,244.1z"/>
		<g>
			<path class="st16" d="M775.7,421.8c-1.5,0-2.8-0.8-3.6-2.1L736.3,358h-26.9c-2.3,0-4.2-1.9-4.2-4.2s1.9-4.2,4.2-4.2h29.3
				c1.5,0,2.9,0.8,3.6,2.1l29.2,50.4v-48.3c0-2.3,1.9-4.2,4.2-4.2h12c10.3,0,18.7-8.4,18.7-18.7v-64.1c0-10.3-8.4-18.7-18.7-18.7
				H536.5c-10.3,0-18.7,8.4-18.7,18.7V331c0,10.3,8.4,18.7,18.7,18.7h105.6c2.3,0,4.2,1.9,4.2,4.2s-1.9,4.2-4.2,4.2H536.5
				c-14.9,0-27-12.1-27-27v-64.1c0-14.9,12.1-27,27-27h251.2c14.9,0,27,12.1,27,27V331c0,14.9-12.1,27-27,27h-7.9v59.6
				c0,1.9-1.3,3.5-3.1,4C776.4,421.8,776.1,421.8,775.7,421.8z"/>
		</g>
	</g>
</g>
<g>
	<g>
		<path class="st1" d="M840.1,1013.4c-3.9,3.9-7.9,7.7-11.9,11.3c-1.4,1.3-3.6,1.2-4.9-0.3c-1.3-1.4-1.2-3.6,0.3-4.9
			c3.9-3.5,7.9-7.3,11.6-11c1.3-1.3,3.5-1.3,4.9,0C841.5,1009.9,841.5,1012.1,840.1,1013.4z"/>
	</g>
	<g>
		<path class="st1" d="M802,1045.8c-0.1,0.1-0.3,0.3-0.4,0.4c-9.3,6.6-19,12.8-29,18.3c-1.7,0.9-3.8,0.3-4.7-1.3
			c-0.9-1.7-0.3-3.8,1.3-4.7c9.7-5.4,19.3-11.4,28.3-17.9c1.6-1.1,3.7-0.7,4.8,0.8C803.3,1042.7,803.1,1044.6,802,1045.8z
			 M742.8,1078.7c-0.3,0.3-0.7,0.6-1.1,0.7c-10.5,4.4-21.4,8.2-32.4,11.3c-1.8,0.5-3.7-0.5-4.3-2.4c-0.5-1.8,0.5-3.7,2.4-4.3
			c10.7-3.1,21.3-6.8,31.6-11.1c1.8-0.7,3.8,0.1,4.5,1.9C744.1,1076.2,743.7,1077.7,742.8,1078.7z M677.8,1097.4
			c-0.5,0.5-1.1,0.8-1.9,1c-11.2,1.9-22.7,3.2-34.1,3.8c-1.9,0.1-3.5-1.4-3.6-3.3c-0.1-1.9,1.3-3.5,3.3-3.6
			c11.1-0.6,22.3-1.9,33.3-3.7c1.9-0.3,3.7,0.9,4,2.8C678.9,1095.5,678.5,1096.6,677.8,1097.4z M610.2,1101.2
			c-0.7,0.7-1.6,1.1-2.6,1c-11.4-0.6-22.8-1.9-34-3.8c-1.9-0.3-3.1-2.1-2.8-4c0.3-1.9,2.1-3.1,4-2.8c11,1.9,22.2,3.1,33.3,3.7
			c1.9,0.1,3.4,1.7,3.3,3.6C611.2,1099.8,610.8,1100.6,610.2,1101.2z M543.6,1089.9c-0.9,0.9-2.1,1.2-3.4,0.9
			c-10.9-3.2-21.8-7-32.3-11.3c-1.8-0.7-2.6-2.8-1.9-4.5c0.7-1.8,2.7-2.6,4.5-1.9c10.3,4.3,20.9,8,31.6,11.1
			c1.8,0.5,2.9,2.4,2.4,4.3C544.3,1089,544,1089.5,543.6,1089.9z M481.1,1063.9c-1.1,1.1-2.7,1.3-4.1,0.6
			c-9.9-5.5-19.7-11.7-29-18.3c-1.6-1.1-1.9-3.3-0.8-4.8c1.1-1.6,3.3-1.9,4.8-0.8c9.1,6.5,18.6,12.5,28.3,17.9
			c1.7,0.9,2.3,3,1.3,4.7C481.5,1063.5,481.3,1063.7,481.1,1063.9z"/>
	</g>
	<g>
		<path class="st1" d="M426,1024.6c-1.3,1.3-3.4,1.4-4.7,0.1c-4-3.6-8-7.4-11.9-11.3c-1.3-1.3-1.3-3.5,0-4.9c1.3-1.3,3.5-1.3,4.9,0
			c3.8,3.8,7.7,7.5,11.6,11c1.4,1.3,1.5,3.5,0.3,4.9C426.1,1024.5,426,1024.5,426,1024.6z"/>
	</g>
</g>
<path class="st1" d="M693.2,621.6l8.5-1.4l-8-3.1c-4.4-1.8-7.5-5.9-7.9-10.6l-1.5-16.5l-5,15.8c-1.4,4.6-5.3,7.9-10,8.7l-8.5,1.4
	l8,3.1c4.4,1.8,7.5,5.9,7.9,10.6l1.5,16.5l5-15.8C684.6,625.7,688.5,622.3,693.2,621.6z"/>
<path class="st1" d="M1299.2,272.1l10.6-1.7l-10-4c-5.6-2.2-9.4-7.4-10-13.3l-1.8-20.7l-6.2,19.8c-1.8,5.7-6.7,9.9-12.6,10.9
	l-10.6,1.7l10,4c5.6,2.2,9.4,7.4,10,13.3l1.8,20.7l6.2-19.8C1288.4,277.2,1293.3,273,1299.2,272.1z"/>
<path class="st1" d="M1548.4,780.4l6.6-1l-6.2-2.4c-3.4-1.4-5.8-4.5-6.1-8.2l-1.1-12.7l-3.8,12.2c-1.1,3.5-4.1,6.1-7.8,6.7l-6.6,1
	l6.2,2.4c3.4,1.4,5.8,4.5,6.1,8.2l1.1,12.7l3.8-12.2C1541.7,783.6,1544.7,781,1548.4,780.4z"/>
</svg>
