<svg width="83" height="83" viewBox="0 0 83 83" fill="none" xmlns="http://www.w3.org/2000/svg">
<g id="It 1" clip-path="url(#clip0_1416_4669)">
<path id="Vector" d="M27.642 18.0261C30.7714 15.9933 34.4171 14.8984 38.1487 14.8705C38.1487 13.4483 38.1487 12.0705 38.1487 10.7017C38.1487 10.4883 37.7131 10.2394 37.4287 10.1061C36.6457 9.7522 35.9618 9.21103 35.4374 8.53033C34.913 7.84962 34.5642 7.05032 34.4218 6.20293C34.2794 5.35555 34.3477 4.48613 34.6208 3.67141C34.8939 2.85668 35.3633 2.12169 35.9876 1.53127C36.6119 0.940864 37.3719 0.513188 38.2006 0.285982C39.0293 0.0587756 39.9011 0.0390247 40.7393 0.228472C41.5774 0.417919 42.356 0.81074 43.0064 1.37227C43.6568 1.93381 44.159 2.64679 44.4687 3.44832C44.9638 4.68041 44.9627 6.05635 44.4655 7.28762C43.9684 8.51889 43.0138 9.50987 41.802 10.0528C41.534 10.1317 41.3049 10.3071 41.1587 10.5452C41.0126 10.7832 40.9599 11.067 41.0109 11.3417C41.0642 12.4083 41.0109 13.4839 41.0109 14.5505C41.0315 14.6864 41.0853 14.815 41.1674 14.9251C41.2496 15.0352 41.3577 15.1233 41.482 15.1817C45.2428 15.8946 48.7076 17.7074 51.4376 20.3905C51.4376 20.0261 51.4998 19.795 51.4998 19.555C51.4998 16.8883 51.5442 14.2217 51.4998 11.555C51.4558 11.1112 51.5614 10.6655 51.7997 10.2887C52.0381 9.91181 52.3956 9.62541 52.8153 9.47498C54.7265 8.5861 56.5753 7.58165 58.4865 6.69276C58.7332 6.59712 58.9378 6.41654 59.0632 6.18351C59.1887 5.95048 59.2269 5.68032 59.1709 5.42165C59.1194 4.11609 59.562 2.83911 60.4106 1.84557C61.2591 0.852026 62.4511 0.215009 63.7487 0.0616522C64.9246 -0.0751155 66.1123 0.187254 67.1212 0.806629C68.13 1.426 68.9015 2.36645 69.3116 3.47695C69.7218 4.58744 69.7469 5.80356 69.3828 6.93001C69.0188 8.05647 68.2867 9.0279 67.3042 9.68832C66.3754 10.319 65.2674 10.6321 64.1458 10.5808C63.0243 10.5295 61.9495 10.1166 61.082 9.40387C60.9047 9.20873 60.6619 9.08553 60.3997 9.05767C60.1375 9.02981 59.8742 9.09924 59.6598 9.25276C58.0865 10.0972 56.4598 10.8439 54.8776 11.6883C54.7254 11.7862 54.5971 11.9168 54.5017 12.0706C54.4064 12.2243 54.3465 12.3974 54.3265 12.5772C54.282 16.2128 54.2553 19.8572 54.3265 23.4928C54.4699 24.2164 54.7537 24.905 55.162 25.5194C55.2065 25.6172 55.4465 25.6616 55.5976 25.6528L60.9931 25.1639C60.9931 24.4616 60.9931 23.5728 60.9931 22.6839C60.9931 21.5994 61.5087 21.1017 62.5931 21.0928C64.6465 21.0928 66.6998 21.0928 68.7531 21.0928L69.1265 20.2839C69.5071 19.4775 70.0874 18.7817 70.8123 18.2625C71.5372 17.7432 72.3828 17.4177 73.2687 17.3169C74.1547 17.216 75.0518 17.3431 75.8748 17.686C76.6979 18.029 77.4198 18.5765 77.972 19.2767C78.5242 19.9769 78.8884 20.8065 79.0301 21.6868C79.1718 22.5672 79.0863 23.4692 78.7817 24.3072C78.4771 25.1453 77.9635 25.8917 77.2896 26.4756C76.6157 27.0595 75.8038 27.4617 74.9309 27.6439C73.7763 27.8916 72.5716 27.7354 71.5183 27.2015C70.465 26.6676 69.627 25.7883 69.1442 24.7105C69.0672 24.4427 68.8939 24.2128 68.6576 24.0652C68.4213 23.9175 68.1387 23.8624 67.8642 23.9105C66.5665 23.9639 65.2687 23.9105 63.8287 23.9105C63.7927 24.5767 63.7927 25.2444 63.8287 25.9105C63.8287 26.1061 64.1665 26.3372 64.3976 26.4439C67.1655 27.6133 69.4714 29.6616 70.9591 32.2723C72.4468 34.883 73.0335 37.9109 72.6287 40.8883C72.3831 43.2483 71.5122 45.4999 70.1059 47.4109C68.6996 49.322 66.8088 50.8231 64.6287 51.7594C64.3744 51.8335 64.1549 51.9961 64.0098 52.2177C63.8648 52.4394 63.8037 52.7056 63.8376 52.9683C63.8376 54.3816 63.8376 55.795 63.8376 57.3416C65.4465 57.3416 66.9931 57.3416 68.5398 57.3416C68.7265 57.3416 68.9576 56.9416 69.0731 56.6839C69.3551 56.0342 69.7662 55.4486 70.2814 54.9626C70.7966 54.4766 71.4052 54.1004 72.0702 53.8568C72.7353 53.6133 73.4429 53.5074 74.1501 53.5457C74.8573 53.5839 75.5493 53.7655 76.1842 54.0794C76.8121 54.3774 77.3735 54.7988 77.8349 55.3185C78.2963 55.8382 78.6483 56.4455 78.8698 57.1043C79.0913 57.763 79.1778 58.4596 79.1242 59.1525C79.0705 59.8454 78.8778 60.5204 78.5576 61.1372C78.1137 62.0061 77.4348 62.7329 76.598 63.2348C75.7613 63.7366 74.8004 63.9934 73.8248 63.9758C72.8493 63.9582 71.8983 63.6669 71.0802 63.1352C70.2621 62.6035 69.6098 61.8527 69.1976 60.9683C69.1214 60.7146 68.9564 60.4968 68.7328 60.3548C68.5091 60.2127 68.2418 60.156 67.9798 60.195C66.2553 60.2483 64.522 60.195 62.7887 60.195C61.5353 60.195 61.0642 59.715 61.0109 58.4172C61.0109 56.6394 61.0109 54.7905 61.0109 53.0216H54.3798C54.3798 53.3594 54.3798 53.6439 54.3798 53.9105C54.3798 58.1328 54.3798 62.3461 54.3798 66.5594C54.3489 66.81 54.4043 67.0636 54.5368 67.2785C54.6692 67.4933 54.871 67.6567 55.1087 67.7416C56.7265 68.5061 58.3176 69.3239 59.9087 70.1416C60.0826 70.2582 60.2921 70.3097 60.5003 70.2869C60.7084 70.2641 60.9018 70.1686 61.0465 70.0172C61.879 69.2902 62.9216 68.8475 64.0229 68.7532C65.1242 68.6589 66.2268 68.9179 67.1709 69.4928C68.1145 70.0483 68.862 70.8834 69.31 71.8824C69.758 72.8815 69.8843 73.9952 69.6714 75.0692C69.4586 76.1433 68.9171 77.1246 68.1219 77.8773C67.3267 78.63 66.3172 79.1169 65.2331 79.2705C64.4824 79.3905 63.7146 79.344 62.9838 79.1346C62.253 78.9251 61.5772 78.5577 61.004 78.0583C60.4309 77.5589 59.9744 76.9397 59.6668 76.2445C59.3593 75.5493 59.2082 74.795 59.2242 74.035C59.2726 73.7063 59.2015 73.3712 59.0236 73.0906C58.8458 72.8101 58.5732 72.6026 58.2553 72.5061C56.4776 71.6172 54.6998 70.7283 52.922 69.8394C52.479 69.6733 52.1047 69.3629 51.8596 68.9581C51.6145 68.5534 51.5128 68.0779 51.5709 67.6083C51.5709 63.1016 51.5709 58.595 51.5709 54.0972V53.0839H41.0465V68.9328C41.899 69.1981 42.6714 69.6733 43.2926 70.3147C43.9138 70.9561 44.3641 71.7432 44.602 72.6039C45.0103 73.908 44.8924 75.3201 44.2737 76.5385C43.6549 77.757 42.5843 78.6852 41.2905 79.125C39.9966 79.5648 38.5821 79.4813 37.349 78.8923C36.1159 78.3033 35.162 77.2555 34.6909 75.9728C34.1855 74.7437 34.1743 73.3669 34.6596 72.1297C35.1449 70.8925 36.0891 69.8905 37.2953 69.3328C37.5864 69.2427 37.8358 69.0519 37.9988 68.7944C38.1617 68.537 38.2275 68.2299 38.1842 67.9283C38.1842 63.3061 38.1842 58.6839 38.1842 54.0616V53.0661H27.642V54.035C27.642 58.6216 27.642 63.2172 27.642 67.8128C27.6809 68.227 27.5828 68.6426 27.3628 68.9958C27.1429 69.3491 26.8132 69.6204 26.4242 69.7683C24.2731 70.8083 22.1398 71.9016 20.0687 72.9328C20.0384 73.7588 19.9493 74.5816 19.802 75.395C19.5222 76.4959 18.8889 77.4746 17.9994 78.1811C17.1099 78.8875 16.0132 79.2827 14.8776 79.3061C13.7514 79.3306 12.6468 78.9949 11.7246 78.348C10.8025 77.701 10.1111 76.7765 9.75098 75.7091C9.39089 74.6417 9.381 73.4873 9.72274 72.4139C10.0645 71.3406 10.74 70.4043 11.6509 69.7416C12.5668 69.0695 13.6784 68.7175 14.8142 68.74C15.95 68.7625 17.0468 69.1582 17.9353 69.8661C18.1475 70.0864 18.4333 70.2208 18.7383 70.2438C19.0432 70.2667 19.346 70.1766 19.5887 69.9905C21.1176 69.1816 22.6909 68.4528 24.2198 67.6439C24.3595 67.5712 24.4818 67.4693 24.5785 67.3451C24.6751 67.2208 24.7438 67.0771 24.7798 66.9239C24.7798 62.5594 24.7798 58.2039 24.7798 53.8394V53.0839H18.1042V55.1105C18.1042 56.8883 18.1042 58.5683 18.1042 60.3016C18.1042 61.5639 17.6242 62.0794 16.3887 62.0794C14.6553 62.0794 12.922 62.0794 11.1887 62.0794C10.9276 62.0381 10.6603 62.0928 10.4365 62.2333C10.2126 62.3739 10.0472 62.5908 9.9709 62.8439C9.48877 63.9363 8.64118 64.8267 7.57379 65.362C6.50641 65.8973 5.28589 66.0441 4.12201 65.7772C2.94935 65.5185 1.90098 64.8652 1.15209 63.9264C0.403209 62.9877 -0.000828056 61.8204 0.00749663 60.6195C0.0158213 59.4187 0.436004 58.2571 1.19783 57.3288C1.95966 56.4005 3.01698 55.7618 4.19312 55.5194C5.36416 55.276 6.58337 55.4459 7.64327 56.0001C8.70316 56.5544 9.53826 57.4588 10.0065 58.5594C10.0692 58.7894 10.2145 58.9881 10.4146 59.1177C10.6146 59.2472 10.8554 59.2985 11.0909 59.2616C12.442 59.2616 13.7576 59.2616 15.2776 59.2616V52.8261C13.9258 52.5473 12.6425 52.0041 11.5014 51.2276C10.3604 50.4512 9.38407 49.4568 8.62868 48.3016C7.4695 46.556 6.8795 44.4941 6.93979 42.3994C7.05535 37.5905 9.6509 34.3994 15.2509 32.355V23.9372C13.6687 23.9372 12.0953 23.9372 10.522 23.9372C10.3353 23.9372 10.1309 24.3728 10.0065 24.6394C9.65257 25.4224 9.11139 26.1063 8.43069 26.6307C7.74999 27.1551 6.95068 27.5039 6.10329 27.6463C5.25591 27.7887 4.3865 27.7204 3.57177 27.4473C2.75704 27.1742 2.02205 26.7048 1.43164 26.0805C0.841225 25.4562 0.413549 24.6962 0.186343 23.8675C-0.0408632 23.0388 -0.0606141 22.167 0.128833 21.3288C0.31828 20.4907 0.711101 19.7121 1.27264 19.0617C1.83417 18.4113 2.54715 17.9091 3.34868 17.5994C4.58098 17.1066 5.95603 17.1089 7.18669 17.6058C8.41736 18.1027 9.40849 19.0558 9.95312 20.2661C10.0337 20.533 10.2095 20.7609 10.4471 20.9068C10.6847 21.0526 10.9676 21.1061 11.242 21.0572C12.602 21.0572 13.9531 21.0572 15.3131 21.0572C17.9798 21.0572 18.1042 21.1461 18.1042 23.8128V32.1505C18.842 32.3105 19.5531 32.4261 20.2376 32.6305C22.2901 33.2226 24.1071 34.4397 25.4358 36.1125C26.7644 37.7853 27.5387 39.8306 27.6509 41.9639C27.6509 42.1416 27.6509 42.3105 27.6953 42.4883C27.693 42.7708 27.7498 43.0508 27.862 43.3101C27.9743 43.5693 28.1395 43.8023 28.347 43.994C28.5546 44.1857 28.8 44.3318 29.0674 44.4231C29.3348 44.5143 29.6183 44.5487 29.8998 44.5239C30.1756 44.5093 30.4453 44.4376 30.6918 44.3132C30.9384 44.1888 31.1563 44.0145 31.3319 43.8013C31.5074 43.5881 31.6367 43.3408 31.7115 43.0749C31.7864 42.8091 31.8051 42.5306 31.7665 42.2572C31.7318 39.6611 30.9826 37.1246 29.6012 34.9262C28.2197 32.7279 26.2594 30.9525 23.9353 29.795C22.6446 29.1891 21.3177 28.6636 19.962 28.2216C20.7844 25.5017 22.2406 23.0158 24.2109 20.9683C24.4165 20.7741 24.5778 20.5377 24.6837 20.2753C24.7895 20.013 24.8375 19.7309 24.8242 19.4483C24.8242 17.1639 24.8242 14.8883 24.8242 12.6039C24.8375 12.4154 24.7903 12.2277 24.6896 12.0678C24.5889 11.908 24.4399 11.7844 24.2642 11.715C22.5753 10.8972 20.8983 10.0587 19.2331 9.19943C19.068 9.09358 18.8703 9.0506 18.6761 9.07834C18.482 9.10608 18.3042 9.20268 18.1753 9.35054C17.3298 10.0813 16.2741 10.5248 15.1604 10.6174C14.0467 10.71 12.9323 10.4468 11.9777 9.86574C11.0231 9.28467 10.2774 8.41568 9.84812 7.38386C9.41882 6.35204 9.32798 5.21061 9.58868 4.12387C9.83885 3.02751 10.4292 2.03828 11.2753 1.29753C12.1214 0.55679 13.18 0.102447 14.2998 -0.000569968C15.0325 -0.0630434 15.7701 0.0292652 16.4648 0.270363C17.1595 0.511461 17.7958 0.895959 18.3322 1.3989C18.8687 1.90183 19.2934 2.51197 19.5788 3.18969C19.8641 3.86741 20.0038 4.59757 19.9887 5.33276C19.9413 5.63596 20.0052 5.94606 20.1685 6.20583C20.3319 6.46561 20.5838 6.6575 20.8776 6.7461C22.8153 7.63498 24.6909 8.65721 26.6109 9.59054C26.9466 9.72439 27.2306 9.96241 27.421 10.2696C27.6114 10.5768 27.6982 10.937 27.6687 11.2972C27.6242 13.5194 27.642 15.6705 27.642 18.0261ZM17.1709 5.33276C17.1338 4.72496 16.8662 4.15421 16.4227 3.73695C15.9792 3.3197 15.3932 3.08737 14.7842 3.08737C14.1753 3.08737 13.5893 3.3197 13.1458 3.73695C12.7023 4.15421 12.4347 4.72496 12.3976 5.33276C12.3777 5.65843 12.4247 5.98473 12.5356 6.29157C12.6466 6.5984 12.8191 6.87928 13.0427 7.11692C13.2663 7.35456 13.5361 7.54393 13.8356 7.67338C14.1351 7.80282 14.458 7.8696 14.7842 7.8696C15.1105 7.8696 15.4333 7.80282 15.7328 7.67338C16.0323 7.54393 16.3022 7.35456 16.5258 7.11692C16.7493 6.87928 16.9219 6.5984 17.0329 6.29157C17.1438 5.98473 17.1908 5.65843 17.1709 5.33276ZM39.5976 7.74165C40.2258 7.72114 40.822 7.45941 41.2623 7.01082C41.7026 6.56224 41.9532 5.96127 41.962 5.33276C41.9579 5.01876 41.892 4.70863 41.7681 4.42009C41.6442 4.13155 41.4646 3.87025 41.2397 3.6511C41.0147 3.43196 40.7489 3.25926 40.4572 3.14287C40.1655 3.02648 39.8538 2.96868 39.5398 2.97276C39.2258 2.97685 38.9157 3.04274 38.6271 3.16668C38.3386 3.29062 38.0773 3.47018 37.8581 3.6951C37.639 3.92003 37.4663 4.18591 37.3499 4.47758C37.2335 4.76924 37.1757 5.08098 37.1798 5.39498C37.2027 6.02234 37.4669 6.61663 37.9174 7.05386C38.3679 7.49109 38.9698 7.73749 39.5976 7.74165ZM7.64201 22.4705C7.61927 21.8439 7.35656 21.2499 6.9082 20.8115C6.45985 20.373 5.86015 20.1237 5.23312 20.115C4.59896 20.115 3.99077 20.3669 3.54235 20.8153C3.09393 21.2637 2.84201 21.8719 2.84201 22.5061C2.84201 23.1403 3.09393 23.7484 3.54235 24.1969C3.99077 24.6453 4.59896 24.8972 5.23312 24.8972C5.87291 24.8902 6.48424 24.6317 6.93499 24.1777C7.38575 23.7236 7.63972 23.1104 7.64201 22.4705ZM76.282 58.6661C76.2715 58.1963 76.1229 57.7401 75.8546 57.3544C75.5863 56.9686 75.2104 56.6704 74.7737 56.4971C74.337 56.3237 73.8589 56.2829 73.3991 56.3796C72.9393 56.4764 72.5182 56.7065 72.1884 57.0412C71.8586 57.3758 71.6347 57.8002 71.5447 58.2614C71.4547 58.7225 71.5025 59.2 71.6822 59.6341C71.862 60.0683 72.1656 60.4398 72.5553 60.7024C72.9449 60.965 73.4033 61.1069 73.8731 61.1105C74.5145 61.0989 75.1258 60.8365 75.5761 60.3796C76.0264 59.9227 76.2798 59.3076 76.282 58.6661ZM5.24201 63.0216C5.56769 63.0415 5.89398 62.9946 6.20082 62.8836C6.50765 62.7727 6.78853 62.6001 7.02617 62.3765C7.26381 62.1529 7.45318 61.8831 7.58263 61.5836C7.71207 61.2841 7.77885 60.9613 7.77885 60.635C7.77885 60.3087 7.71207 59.9859 7.58263 59.6864C7.45318 59.3869 7.26381 59.117 7.02617 58.8935C6.78853 58.6699 6.50765 58.4973 6.20082 58.3864C5.89398 58.2754 5.56769 58.2284 5.24201 58.2483C4.63421 58.2854 4.06346 58.553 3.64621 58.9965C3.22895 59.44 2.99662 60.026 2.99662 60.635C2.99662 61.2439 3.22895 61.8299 3.64621 62.2734C4.06346 62.7169 4.63421 62.9845 5.24201 63.0216ZM14.7531 76.355C15.2275 76.362 15.6932 76.2278 16.0911 75.9694C16.489 75.711 16.801 75.3401 16.9874 74.9038C17.1739 74.4676 17.2263 73.9857 17.1381 73.5196C17.0499 73.0534 16.825 72.624 16.4921 72.2861C16.1591 71.9481 15.7332 71.7168 15.2684 71.6216C14.8036 71.5265 14.321 71.5717 13.882 71.7516C13.443 71.9315 13.0675 72.2379 12.8031 72.6318C12.5388 73.0258 12.3976 73.4894 12.3976 73.9639C12.4064 74.59 12.656 75.1887 13.0947 75.6356C13.5333 76.0826 14.1272 76.3434 14.7531 76.3639V76.355ZM66.7442 5.33276C66.7641 5.00709 66.7171 4.68079 66.6062 4.37396C66.4952 4.06712 66.3227 3.78624 66.0991 3.5486C65.8755 3.31096 65.6057 3.12159 65.3062 2.99215C65.0067 2.86271 64.6838 2.79593 64.3576 2.79593C64.0313 2.79593 63.7085 2.86271 63.409 2.99215C63.1095 3.12159 62.8396 3.31096 62.616 3.5486C62.3925 3.78624 62.2199 4.06712 62.1089 4.37396C61.998 4.68079 61.951 5.00709 61.9709 5.33276C62.008 5.94057 62.2756 6.51131 62.7191 6.92857C63.1626 7.34583 63.7486 7.57815 64.3576 7.57815C64.9665 7.57815 65.5525 7.34583 65.996 6.92857C66.4395 6.51131 66.7071 5.94057 66.7442 5.33276ZM76.282 22.4883C76.2802 22.0139 76.1372 21.5508 75.8714 21.1578C75.6056 20.7649 75.2289 20.4599 74.7892 20.2817C74.3496 20.1034 73.8668 20.06 73.4024 20.1569C72.938 20.2539 72.5129 20.4867 72.1813 20.826C71.8496 21.1652 71.6263 21.5954 71.5398 22.0618C71.4534 22.5283 71.5076 23.0099 71.6957 23.4455C71.8838 23.881 72.1971 24.2508 72.596 24.5077C72.9948 24.7646 73.461 24.8971 73.9353 24.8883C74.5604 24.8677 75.1533 24.6066 75.5906 24.1595C76.0278 23.7123 76.2755 23.1137 76.282 22.4883ZM39.5442 76.3727C40.0179 76.378 40.4824 76.2425 40.8789 75.9834C41.2754 75.7243 41.586 75.3532 41.7714 74.9173C41.9567 74.4814 42.0084 74.0003 41.9199 73.535C41.8314 73.0697 41.6066 72.6411 41.2742 72.3037C40.9418 71.9663 40.5166 71.7352 40.0527 71.6397C39.5887 71.5443 39.1069 71.5888 38.6683 71.7676C38.2297 71.9464 37.854 72.2514 37.589 72.644C37.324 73.0366 37.1816 73.4991 37.1798 73.9728C37.1909 74.5997 37.4424 75.1984 37.8825 75.6451C38.3226 76.0918 38.9175 76.3523 39.5442 76.3727ZM64.4331 71.5905C63.9592 71.58 63.4929 71.7105 63.0933 71.9656C62.6938 72.2207 62.3791 72.5887 62.1891 73.023C61.9992 73.4574 61.9427 73.9383 62.0267 74.4048C62.1107 74.8714 62.3315 75.3024 62.661 75.6431C62.9905 75.9839 63.4138 76.2191 63.8772 76.3187C64.3407 76.4184 64.8233 76.378 65.2637 76.2028C65.7042 76.0276 66.0826 75.7255 66.351 75.3347C66.6193 74.944 66.7655 74.4823 66.7709 74.0083C66.7644 73.3783 66.5148 72.7751 66.0742 72.3246C65.6337 71.8741 65.0362 71.6111 64.4065 71.5905H64.4331Z" fill="white"/>
</g>
<defs>
<clipPath id="clip0_1416_4669">
<rect width="83" height="83" fill="white"/>
</clipPath>
</defs>
</svg>
