<svg width="80" height="80" viewBox="0 0 80 80" fill="none" xmlns="http://www.w3.org/2000/svg">
<g id="linkdin 2">
<path id="Vector" d="M35.7761 56.1912C35.6314 56.3834 35.4765 56.5676 35.312 56.7432C33.6 58.4392 32 60.1352 30.2561 61.8072C29.2908 62.8057 28.0919 63.548 26.7678 63.9671C25.4437 64.3861 24.0361 64.4686 22.6721 64.2072C21.0787 64.0042 19.5817 63.3323 18.371 62.2769C17.1602 61.2214 16.2905 59.83 15.8721 58.2792C15.3551 56.7573 15.2861 55.1189 15.6733 53.5589C16.0605 51.9989 16.8875 50.5829 18.0561 49.4792C19.7041 47.7912 21.3921 46.1352 23.0561 44.4632L23.504 43.9992L16.6801 37.1992C14.5121 39.2792 12.1281 41.2792 10.0961 43.5992C8.20572 45.678 6.83856 48.1778 6.1081 50.8909C5.37763 53.6041 5.30494 56.4523 5.89605 59.1992C6.47828 62.3256 7.85745 65.2489 9.90017 67.6862C11.9429 70.1235 14.58 71.9925 17.5565 73.1123C20.533 74.2321 23.7481 74.5648 26.8908 74.0783C30.0335 73.5918 32.9975 72.3026 35.496 70.3352C38.1441 68.2552 40.384 65.6552 42.808 63.2872C42.8174 63.2641 42.8174 63.2383 42.808 63.2152L35.7761 56.1912Z" fill="white"/>
<path id="Vector_2" d="M73.072 22.2632C74.4321 19.8582 74.8759 17.0423 74.3215 14.3356C73.767 11.6289 72.2517 9.21431 70.0555 7.5379C67.8593 5.86148 65.1306 5.03652 62.3735 5.21543C59.6163 5.39433 57.0171 6.56501 55.056 8.51118C50.608 12.8952 51.136 19.2152 53.16 22.1912C53.5171 21.1465 54.1002 20.1934 54.8676 19.3998C55.635 18.6061 56.5679 17.9913 57.6 17.5992C56 14.0232 56.608 11.0312 59.2 9.03918C60.3972 8.12893 61.8753 7.66644 63.3779 7.73191C64.8805 7.79739 66.3128 8.3867 67.4263 9.39765C68.5399 10.4086 69.2645 11.7774 69.4745 13.2667C69.6845 14.756 69.3666 16.2718 68.576 17.5512C69.6315 17.9478 70.584 18.5775 71.3624 19.3934C72.1409 20.2092 72.7252 21.1902 73.072 22.2632Z" fill="white"/>
<path id="Vector_3" d="M43.0399 22.288C44.4292 19.8106 44.8487 16.9055 44.2169 14.1363C43.5851 11.3671 41.9471 8.93133 39.6207 7.30169C37.2944 5.67205 34.4456 4.96473 31.6271 5.31699C28.8087 5.66924 26.2216 7.05596 24.3679 9.20804C20.6239 13.528 21.1679 19.488 23.1439 22.168C23.8479 19.848 25.5439 18.504 27.6079 17.536C26.7753 16.277 26.4144 14.7641 26.5892 13.2648C26.7639 11.7655 27.463 10.3762 28.5628 9.34232C29.6627 8.30849 31.0926 7.6967 32.5999 7.61504C34.1072 7.53337 35.5948 7.98709 36.7999 8.89603C37.9607 9.73647 38.8058 10.9422 39.1999 12.32C39.4545 13.192 39.5227 14.1078 39.4 15.0078C39.2773 15.9079 38.9666 16.772 38.4879 17.544C40.6559 18.52 42.3199 19.904 43.0399 22.288Z" fill="white"/>
<path id="Vector_4" d="M53.1361 52.2391C54.0721 49.9991 54.1281 49.9351 57.5841 47.5591C56.1201 43.7751 56.6481 41.0231 59.1841 39.0631C60.2778 38.2246 61.6129 37.7616 62.9908 37.7429C64.3688 37.7241 65.716 38.1507 66.8321 38.9591C67.9773 39.7594 68.822 40.9195 69.2321 42.2551C69.5088 43.1421 69.592 44.0781 69.476 45C69.3601 45.9219 69.0478 46.8082 68.5601 47.5991C70.7121 48.5751 72.3601 49.9991 73.0641 52.2951C74.3675 50.017 74.8408 47.3575 74.4032 44.7697C73.9655 42.1819 72.6441 39.8258 70.6641 38.1031C68.5414 36.2443 65.8085 35.2323 62.9871 35.2603C60.1657 35.2884 57.4534 36.3545 55.3681 38.2551C53.4588 39.9831 52.1969 42.3113 51.791 44.8543C51.3851 47.3972 51.8596 50.0025 53.1361 52.2391Z" fill="white"/>
<path id="Vector_5" d="M63.2 58.2076C64.6894 58.2089 66.1641 57.9131 67.5377 57.3375C68.9114 56.762 70.1564 55.9182 71.2 54.8556C71.4393 54.6173 71.5793 54.2971 71.592 53.9596C71.5391 52.8321 71.1305 51.7504 70.4249 50.8694C69.7192 49.9884 68.7528 49.3535 67.664 49.0556C67.4666 49.0388 67.2699 49.0958 67.112 49.2156C65.9821 50.1085 64.5841 50.5942 63.144 50.5942C61.7039 50.5942 60.3059 50.1085 59.176 49.2156C59.0182 49.0958 58.8215 49.0388 58.624 49.0556C57.5323 49.3452 56.5619 49.9768 55.855 50.8578C55.1482 51.7388 54.742 52.823 54.696 53.9516C54.7091 54.2868 54.8393 54.6067 55.064 54.8556C56.131 55.9248 57.3995 56.7717 58.7961 57.347C60.1927 57.9224 61.6896 58.215 63.2 58.2076Z" fill="white"/>
<path id="Vector_6" d="M62.7039 28.1441C64.2526 28.1826 65.7937 27.9156 67.2391 27.3582C68.6845 26.8009 70.006 25.9643 71.1279 24.8961C71.2984 24.7422 71.4279 24.5482 71.5047 24.3317C71.5815 24.1153 71.6032 23.8831 71.5679 23.6561C71.4506 22.5815 71.0159 21.5663 70.3191 20.7399C69.6223 19.9134 68.6952 19.3133 67.6559 19.0161C67.435 18.9999 67.2158 19.0654 67.0399 19.2001C65.9181 20.0694 64.5391 20.5411 63.1199 20.5411C61.7007 20.5411 60.3218 20.0694 59.1999 19.2001C59.0455 19.0717 58.8485 19.006 58.6479 19.0161C57.5714 19.3025 56.6122 19.92 55.9058 20.7814C55.1995 21.6427 54.7818 22.7044 54.7119 23.8161C54.7182 24.1967 54.8601 24.5626 55.1119 24.8481C57.1189 26.8904 59.8414 28.0723 62.7039 28.1441Z" fill="white"/>
<path id="Vector_7" d="M33.048 28.1529C34.5491 28.161 36.0366 27.8686 37.4229 27.293C38.8092 26.7173 40.0663 25.8699 41.12 24.8009C41.3615 24.535 41.5004 24.1918 41.512 23.8329C41.4469 22.7214 41.0342 21.6585 40.3322 20.7943C39.6303 19.9302 38.6745 19.3084 37.6 19.0169C37.3812 18.9979 37.1636 19.0638 36.992 19.2009C35.8674 20.0779 34.4821 20.5543 33.056 20.5543C31.6298 20.5543 30.2446 20.0779 29.12 19.2009C28.9614 19.081 28.7667 19.0189 28.568 19.0249C27.5043 19.3214 26.5563 19.935 25.8503 20.784C25.1442 21.633 24.7137 22.677 24.616 23.7769C24.5936 23.9933 24.6242 24.212 24.705 24.414C24.7858 24.6161 24.9145 24.7955 25.08 24.9369C27.2195 26.9999 30.0758 28.1527 33.048 28.1529Z" fill="white"/>
<path id="Vector_8" d="M33.0559 18.8408C33.991 18.8408 34.9051 18.5635 35.6826 18.044C36.4601 17.5244 37.0661 16.786 37.424 15.9221C37.7818 15.0582 37.8755 14.1075 37.693 13.1904C37.5106 12.2732 37.0603 11.4308 36.3991 10.7696C35.7379 10.1083 34.8954 9.65805 33.9783 9.47562C33.0611 9.29318 32.1105 9.38681 31.2466 9.74466C30.3826 10.1025 29.6442 10.7085 29.1247 11.486C28.6052 12.2635 28.3279 13.1777 28.3279 14.1128C28.3279 15.3667 28.826 16.5693 29.7127 17.456C30.5994 18.3426 31.8019 18.8408 33.0559 18.8408Z" fill="white"/>
<path id="Vector_9" d="M63.096 48.8876C64.0318 48.8892 64.947 48.6131 65.7257 48.0942C66.5045 47.5752 67.1117 46.8369 67.4705 45.9727C67.8294 45.1084 67.9237 44.1571 67.7415 43.2392C67.5593 42.3213 67.1089 41.4781 66.4472 40.8164C65.7855 40.1547 64.9423 39.7043 64.0244 39.5221C63.1065 39.3399 62.1552 39.4342 61.291 39.7931C60.4267 40.1519 59.6884 40.7592 59.1695 41.5379C58.6505 42.3166 58.3744 43.2318 58.376 44.1676C58.3749 44.7878 58.4963 45.402 58.7331 45.9751C58.97 46.5483 59.3176 47.069 59.7561 47.5075C60.1946 47.946 60.7153 48.2937 61.2885 48.5305C61.8616 48.7673 62.4758 48.8887 63.096 48.8876Z" fill="white"/>
<path id="Vector_10" d="M63.1039 18.8407C64.0407 18.8455 64.9578 18.5718 65.7388 18.0545C66.5198 17.5371 67.1296 16.7995 67.4906 15.935C67.8517 15.0706 67.9478 14.1184 67.7668 13.1992C67.5858 12.2801 67.1358 11.4354 66.4739 10.7724C65.8121 10.1094 64.9682 9.658 64.0493 9.47543C63.1305 9.29285 62.1781 9.38736 61.3131 9.74695C60.448 10.1065 59.7093 10.715 59.1906 11.4951C58.672 12.2753 58.3968 13.1919 58.3999 14.1287C58.3999 15.377 58.8953 16.5743 59.7772 17.4578C60.6592 18.3412 61.8556 18.8386 63.1039 18.8407Z" fill="white"/>
<path id="Vector_11" d="M24.7999 42.5272L29.3039 38.0312L22.4799 31.1992L17.9519 35.7032L24.7999 42.5272Z" fill="white"/>
<path id="Vector_12" d="M48.56 57.3677L41.712 50.5117L37.248 54.9917L44.096 61.8397L48.56 57.3677Z" fill="white"/>
<path id="Vector_13" d="M45.104 29.4648C44.856 29.2008 44.68 28.8328 44.44 28.7928C44.2672 28.7678 44.0911 28.7776 43.9222 28.8216C43.7532 28.8655 43.5947 28.9428 43.456 29.0488C42.384 30.0488 41.368 31.1048 40.336 32.1448C39.936 32.5448 39.8 32.9928 40.224 33.4328C40.648 33.8728 41.104 33.7448 41.512 33.3448C42.544 32.3048 43.592 31.2808 44.616 30.2328C44.8 29.991 44.9633 29.7341 45.104 29.4648Z" fill="white"/>
<path id="Vector_14" d="M45.9919 39.0161C46.1999 39.2721 46.3679 39.6481 46.5999 39.7041C46.7712 39.7402 46.9481 39.7395 47.1191 39.7023C47.29 39.6651 47.4512 39.5921 47.5919 39.4881C48.6799 38.4801 49.7199 37.4001 50.7919 36.3441C50.8972 36.2756 50.9849 36.1832 51.0478 36.0745C51.1107 35.9658 51.1472 35.8438 51.1542 35.7184C51.1612 35.5929 51.1386 35.4676 51.0881 35.3526C51.0377 35.2375 50.9609 35.136 50.8639 35.0561C50.4319 34.6401 49.9839 34.7761 49.5759 35.1761C48.5439 36.2241 47.5039 37.2481 46.4719 38.3041C46.2893 38.5254 46.1286 38.7638 45.9919 39.0161Z" fill="white"/>
<path id="Vector_15" d="M42.56 38.1522C42.328 37.8882 42.16 37.5122 41.92 37.4642C41.7483 37.4342 41.5723 37.44 41.4029 37.4813C41.2336 37.5226 41.0746 37.5985 40.936 37.7042C39.864 38.7042 38.848 39.7682 37.808 40.8002C37.408 41.2002 37.264 41.6002 37.664 42.0882C38.064 42.5762 38.504 42.4722 39 41.9842C40.032 40.9682 41.056 39.9522 42.064 38.9122C42.253 38.6751 42.4191 38.4206 42.56 38.1522Z" fill="white"/>
<path id="Vector_16" d="M36.4239 32.0009C36.1919 31.7289 36.0159 31.3529 35.7839 31.3129C35.6111 31.2851 35.4345 31.2935 35.2651 31.3376C35.0957 31.3817 34.9373 31.4604 34.7999 31.5689C33.7199 32.5689 32.704 33.6329 31.664 34.6729C31.256 35.0809 31.144 35.5369 31.576 35.9689C32.008 36.4009 32.472 36.2409 32.864 35.8409C33.888 34.8249 34.9199 33.8009 35.9359 32.7689C36.1226 32.5289 36.286 32.2718 36.4239 32.0009Z" fill="white"/>
<path id="Vector_17" d="M44.304 48.5594C44.5307 48.4965 44.7465 48.3994 44.944 48.2714C46.096 47.1434 47.248 46.0074 48.36 44.8474C48.4402 44.7764 48.503 44.6879 48.5435 44.5887C48.5839 44.4896 48.601 44.3824 48.5932 44.2756C48.5855 44.1687 48.5532 44.0651 48.4989 43.9728C48.4445 43.8805 48.3696 43.802 48.28 43.7434C48.1167 43.6592 47.9357 43.6152 47.752 43.6152C47.5683 43.6152 47.3872 43.6592 47.224 43.7434C46.024 44.7994 44.872 45.9834 43.752 47.1994C43.6811 47.3188 43.6372 47.4523 43.6234 47.5905C43.6096 47.7287 43.6261 47.8682 43.672 47.9994C43.768 48.2394 44.08 48.3834 44.304 48.5594Z" fill="white"/>
<path id="Vector_18" d="M35.776 56.1914L42.784 63.1994C42.7933 63.2225 42.7933 63.2483 42.784 63.2714C40.384 65.6714 38.12 68.2394 35.472 70.3194C32.9745 72.2808 30.0138 73.5655 26.8754 74.0496C23.737 74.5338 20.5267 74.201 17.5543 73.0834C14.5819 71.9659 11.9476 70.1012 9.90558 67.6693C7.86352 65.2374 6.48259 62.3203 5.89598 59.1994C5.30353 56.4513 5.37554 53.6015 6.10604 50.8868C6.83654 48.1722 8.20441 45.6711 10.096 43.5914C12.128 41.2874 14.512 39.2874 16.68 37.1914L23.504 43.9994L23.056 44.4634C21.392 46.1354 19.704 47.7914 18.056 49.4794C16.8874 50.583 16.0604 51.9991 15.6732 53.5591C15.2861 55.1191 15.3551 56.7575 15.872 58.2794C16.2904 59.8301 17.1602 61.2216 18.3709 62.2771C19.5816 63.3325 21.0787 64.0044 22.672 64.2074C24.036 64.4688 25.4436 64.3863 26.7677 63.9672C28.0918 63.5482 29.2907 62.8059 30.256 61.8074C32 60.1354 33.6 58.4394 35.312 56.7434C35.4764 56.5678 35.6313 56.3836 35.776 56.1914Z" fill="white"/>
<path id="Vector_19" d="M73.072 22.2641C72.7253 21.1911 72.141 20.2102 71.3625 19.3943C70.5841 18.5785 69.6316 17.9488 68.576 17.5521C69.3917 16.273 69.7297 14.7469 69.5302 13.243C69.3308 11.7391 68.6069 10.3538 67.486 9.33148C66.3651 8.30912 64.9193 7.71529 63.4035 7.65466C61.8876 7.59404 60.399 8.07052 59.2 9.00011C56.6 10.9921 56 13.9841 57.6 17.5601C56.5594 17.9535 55.6191 18.573 54.8471 19.3741C54.0751 20.1751 53.4907 21.1377 53.136 22.1921C51.112 19.2161 50.584 12.8961 55.032 8.51211C56.9884 6.54378 59.5936 5.35372 62.3623 5.16361C65.131 4.9735 67.8743 5.7963 70.0814 7.47876C72.2884 9.16121 73.8087 11.5886 74.3589 14.3087C74.9091 17.0288 74.4517 19.8562 73.072 22.2641Z" fill="white"/>
<path id="Vector_20" d="M43.04 22.2883C42.32 19.8883 40.64 18.5203 38.52 17.5443C38.9933 16.7699 39.2984 15.9046 39.4155 15.0046C39.5327 14.1047 39.4592 13.1901 39.2 12.3203C38.9053 11.2926 38.3578 10.3551 37.6076 9.59343C36.8574 8.83174 35.9284 8.27011 34.9053 7.95984C33.8822 7.64957 32.7976 7.60054 31.7507 7.81723C30.7038 8.03392 29.7278 8.50942 28.912 9.20032C27.7313 10.2018 26.9477 11.5926 26.7027 13.1213C26.4577 14.65 26.7674 16.216 27.576 17.5363C25.512 18.5043 23.816 19.8483 23.112 22.1683C21.16 19.4883 20.592 13.5283 24.336 9.20832C26.177 7.01383 28.7734 5.58867 31.6132 5.21379C34.4531 4.83892 37.3303 5.54154 39.6777 7.18313C42.0252 8.82472 43.6724 11.2862 44.2948 14.0822C44.9172 16.8783 44.4695 19.806 43.04 22.2883Z" fill="white"/>
<path id="Vector_21" d="M53.136 52.2391C51.8605 50.0017 51.3873 47.3958 51.7947 44.8528C52.202 42.3098 53.4655 39.9821 55.376 38.2551C57.4614 36.3545 60.1736 35.2884 62.995 35.2603C65.8164 35.2323 68.5493 36.2443 70.672 38.1031C72.6521 39.8258 73.9735 42.1819 74.4111 44.7697C74.8487 47.3575 74.3755 50.017 73.072 52.2951C72.368 49.9671 70.72 48.5751 68.568 47.5991C69.0557 46.8082 69.3681 45.9219 69.484 45C69.5999 44.0781 69.5167 43.1421 69.24 42.2551C68.83 40.9195 67.9852 39.7594 66.84 38.9591C65.724 38.1507 64.3768 37.7241 62.9988 37.7429C61.6208 37.7616 60.2857 38.2246 59.192 39.0631C56.624 41.0231 56.096 43.7751 57.592 47.5591C54.128 49.9351 54.072 49.9991 53.136 52.2391Z" fill="white"/>
<path id="Vector_22" d="M63.2 58.2076C61.6896 58.215 60.1927 57.9224 58.7961 57.347C57.3995 56.7717 56.131 55.9248 55.064 54.8556C54.8393 54.6067 54.7091 54.2868 54.696 53.9516C54.742 52.823 55.1482 51.7388 55.855 50.8578C56.5619 49.9768 57.5323 49.3452 58.624 49.0556C58.8215 49.0388 59.0182 49.0958 59.176 49.2156C60.3059 50.1085 61.7039 50.5942 63.144 50.5942C64.5841 50.5942 65.9821 50.1085 67.112 49.2156C67.2699 49.0958 67.4666 49.0388 67.664 49.0556C68.7528 49.3535 69.7192 49.9884 70.4249 50.8694C71.1305 51.7504 71.5391 52.8321 71.592 53.9596C71.5793 54.2971 71.4393 54.6173 71.2 54.8556C70.1564 55.9182 68.9114 56.762 67.5377 57.3375C66.1641 57.9131 64.6894 58.2089 63.2 58.2076Z" fill="white"/>
<path id="Vector_23" d="M62.7039 28.1448C59.8263 28.0813 57.0874 26.8956 55.0719 24.8408C54.82 24.5553 54.6782 24.1894 54.6719 23.8088C54.7418 22.6971 55.1595 21.6354 55.8658 20.7741C56.5721 19.9127 57.5314 19.2952 58.6079 19.0088C58.7144 18.9996 58.8216 19.0119 58.9233 19.0449C59.025 19.0779 59.119 19.1309 59.1999 19.2008C60.3251 20.0799 61.712 20.5574 63.1399 20.5574C64.5678 20.5574 65.9546 20.0799 67.0799 19.2008C67.2557 19.0661 67.4749 19.0006 67.6959 19.0168C68.7352 19.314 69.6623 19.9142 70.3591 20.7406C71.0558 21.567 71.4906 22.5822 71.6079 23.6568C71.6432 23.8838 71.6215 24.116 71.5447 24.3324C71.4678 24.5489 71.3384 24.7429 71.1679 24.8968C70.0411 25.9698 68.7131 26.8093 67.2605 27.3667C65.8078 27.9242 64.2592 28.1886 62.7039 28.1448Z" fill="white"/>
<path id="Vector_24" d="M33.048 28.1525C30.067 28.165 27.1981 27.0174 25.048 24.9525C24.8825 24.8111 24.7539 24.6317 24.673 24.4297C24.5922 24.2276 24.5617 24.009 24.584 23.7925C24.6817 22.6926 25.1122 21.6486 25.8183 20.7996C26.5243 19.9506 27.4724 19.337 28.536 19.0405C28.7347 19.0345 28.9295 19.0966 29.088 19.2165C30.2126 20.0936 31.5979 20.5699 33.024 20.5699C34.4502 20.5699 35.8355 20.0936 36.96 19.2165C37.1316 19.0794 37.3492 19.0136 37.568 19.0325C38.6462 19.3253 39.6047 19.9507 40.307 20.8196C41.0093 21.6886 41.4198 22.7568 41.48 23.8725C41.4682 24.2136 41.3413 24.5406 41.12 24.8005C40.0663 25.8696 38.8092 26.7169 37.4229 27.2926C36.0366 27.8683 34.5491 28.1606 33.048 28.1525Z" fill="white"/>
<path id="Vector_25" d="M33.0559 18.8407C32.1205 18.8359 31.2075 18.5538 30.4325 18.03C29.6575 17.5061 29.0553 16.7642 28.702 15.898C28.3488 15.0318 28.2605 14.0803 28.4483 13.1639C28.636 12.2475 29.0914 11.4073 29.7567 10.7498C30.4221 10.0923 31.2676 9.64691 32.1861 9.47004C33.1047 9.29318 34.0551 9.39277 34.917 9.75623C35.779 10.1197 36.5138 10.7307 37.0284 11.5118C37.543 12.293 37.8143 13.2093 37.8079 14.1447C37.7974 15.3966 37.2916 16.5934 36.4011 17.4734C35.5106 18.3534 34.3079 18.845 33.0559 18.8407Z" fill="white"/>
<path id="Vector_26" d="M63.0959 48.8876C62.1601 48.8844 61.2464 48.6036 60.4703 48.0808C59.6942 47.5579 59.0907 46.8165 58.7363 45.9504C58.3819 45.0843 58.2924 44.1326 58.4792 43.2156C58.6661 42.2987 59.1208 41.4578 59.7859 40.7995C60.4509 40.1412 61.2964 39.695 62.2152 39.5175C63.134 39.34 64.0848 39.4391 64.9472 39.8023C65.8096 40.1656 66.5449 40.7765 67.0598 41.5579C67.5748 42.3393 67.8463 43.2559 67.8399 44.1916C67.8378 44.8118 67.7133 45.4254 67.4736 45.9973C67.2339 46.5693 66.8836 47.0882 66.4429 47.5245C66.0021 47.9608 65.4796 48.3058 64.9053 48.5397C64.3309 48.7736 63.7161 48.8918 63.0959 48.8876Z" fill="white"/>
<path id="Vector_27" d="M63.104 18.8408C62.1682 18.8392 61.2539 18.5599 60.4769 18.0384C59.7 17.5168 59.0952 16.7764 58.7393 15.911C58.3834 15.0455 58.2924 14.0939 58.4776 13.1766C58.6629 12.2594 59.1162 11.4177 59.7802 10.7583C60.4441 10.0988 61.2888 9.6512 62.2073 9.47213C63.1258 9.29307 64.0768 9.3906 64.9398 9.75236C65.8029 10.1141 66.5391 10.7239 67.0554 11.5044C67.5717 12.2848 67.8447 13.201 67.84 14.1368C67.8389 14.7569 67.7155 15.3707 67.4767 15.9431C67.2379 16.5154 66.8885 17.035 66.4486 17.472C66.0086 17.909 65.4866 18.2549 64.9127 18.4898C64.3388 18.7246 63.7241 18.8439 63.104 18.8408Z" fill="white"/>
<path id="Vector_28" d="M24.8 42.5272L17.96 35.6872L22.48 31.1992L29.296 38.0472L24.8 42.5272Z" fill="white"/>
<path id="Vector_29" d="M48.56 57.3677L44.096 61.8397L37.248 54.9917L41.712 50.5117L48.56 57.3677Z" fill="white"/>
<path id="Vector_30" d="M45.1039 29.465C44.9648 29.7453 44.8015 30.013 44.6159 30.265C43.5919 31.313 42.5439 32.337 41.5119 33.377C41.1039 33.777 40.6559 33.905 40.2239 33.465C39.7919 33.025 39.9359 32.577 40.3359 32.177C41.3679 31.137 42.3839 30.081 43.4559 29.081C43.5928 28.9708 43.7505 28.8892 43.9195 28.8411C44.0886 28.793 44.2655 28.7794 44.4399 28.801C44.6799 28.801 44.8559 29.201 45.1039 29.465Z" fill="white"/>
<path id="Vector_31" d="M45.9919 39.0161C46.1209 38.7648 46.2736 38.5264 46.4479 38.3041C47.4799 37.2481 48.5199 36.2241 49.5519 35.1761C49.9599 34.7761 50.4079 34.6401 50.8399 35.0561C50.9369 35.136 51.0137 35.2375 51.0641 35.3526C51.1146 35.4676 51.1372 35.5929 51.1302 35.7184C51.1232 35.8438 51.0867 35.9658 51.0238 36.0745C50.9609 36.1832 50.8732 36.2756 50.7679 36.3441C49.7199 37.4001 48.6799 38.4801 47.5679 39.4881C47.4272 39.5921 47.266 39.6651 47.0951 39.7023C46.9241 39.7395 46.7472 39.7402 46.5759 39.7041C46.3999 39.6481 46.1999 39.2721 45.9919 39.0161Z" fill="white"/>
<path id="Vector_32" d="M42.5601 38.1512C42.4214 38.4335 42.2552 38.7015 42.0641 38.9512C41.0561 39.9912 40.0321 41.0072 39.0001 42.0232C38.5041 42.5112 38.0241 42.5432 37.6641 42.1272C37.3041 41.7112 37.4081 41.2392 37.8081 40.8392C38.8481 39.8072 39.8641 38.7432 40.9361 37.7432C41.0747 37.6376 41.2337 37.5617 41.403 37.5204C41.5724 37.4791 41.7484 37.4732 41.9201 37.5032C42.1601 37.5112 42.3281 37.8872 42.5601 38.1512Z" fill="white"/>
<path id="Vector_33" d="M36.4241 32.0001C36.2879 32.2821 36.1245 32.55 35.9361 32.8001C34.9201 33.8321 33.8881 34.8561 32.8641 35.8721C32.4721 36.2721 32.0161 36.4321 31.5761 36.0001C31.1361 35.5681 31.2561 35.1121 31.6641 34.7041C32.7041 33.6641 33.7201 32.6001 34.8001 31.6001C34.9374 31.4917 35.0958 31.4129 35.2652 31.3688C35.4346 31.3248 35.6113 31.3164 35.7841 31.3441C36.0001 31.3761 36.1921 31.7521 36.4241 32.0001Z" fill="white"/>
<path id="Vector_34" d="M44.304 48.5594C44.08 48.3834 43.768 48.2394 43.672 48.0074C43.6261 47.8762 43.6096 47.7367 43.6234 47.5985C43.6372 47.4603 43.6811 47.3268 43.752 47.2074C44.872 46.0234 46.024 44.8554 47.224 43.7434C47.3872 43.6592 47.5683 43.6152 47.752 43.6152C47.9357 43.6152 48.1167 43.6592 48.28 43.7434C48.3696 43.802 48.4445 43.8805 48.4989 43.9728C48.5532 44.0651 48.5855 44.1687 48.5932 44.2756C48.601 44.3824 48.5839 44.4896 48.5435 44.5887C48.503 44.6879 48.4402 44.7764 48.36 44.8474C47.248 46.0074 46.096 47.1434 44.944 48.2714C44.7465 48.3994 44.5307 48.4965 44.304 48.5594Z" fill="white"/>
</g>
</svg>
