<svg width="80" height="75" viewBox="0 0 80 75" fill="none" xmlns="http://www.w3.org/2000/svg">
<g id="demand 1" clip-path="url(#clip0_1416_4671)">
<path id="Vector" d="M77.1893 16.5965C77.0509 17.2538 76.9384 17.9197 76.7828 18.577C76.1568 21.2874 74.8 23.7744 72.8598 25.7679C70.9197 27.7614 68.4703 29.1851 65.7779 29.8844C63.0855 30.5836 60.2529 30.5317 57.5879 29.7342C54.9229 28.9367 52.5274 27.4242 50.6616 25.361C48.7958 23.2977 47.5311 20.7626 47.0049 18.0311C46.4786 15.2996 46.7109 12.4761 47.6766 9.86734C48.6423 7.25858 50.3044 4.96433 52.4823 3.23382C54.6603 1.50331 57.2708 0.402717 60.0303 0.0516052C60.1948 0.0205321 60.3567 -0.0228333 60.5147 -0.078125H63.412C63.5699 -0.0228333 63.7318 0.0205321 63.8963 0.0516052C66.967 0.444724 69.8446 1.76585 72.1443 3.83836C74.444 5.91087 76.0562 8.636 76.7655 11.6494C76.9298 12.3327 77.0509 13.0159 77.1893 13.6992V16.5965ZM68.4455 21.6646V8.64836H55.4725V21.6213L68.4455 21.6646Z" fill="white"/>
<path id="Vector_2" d="M14.625 28.6621L23.8271 37.8556C23.706 37.9854 23.5504 38.167 23.386 38.3313C21.9417 39.7929 20.4628 41.2199 19.0617 42.6556C17.0847 44.6892 15.9837 47.4167 15.995 50.2529C16.0063 53.089 17.1291 55.8077 19.1222 57.8254C21.1396 59.7918 23.829 60.918 26.6456 60.9758C29.4623 61.0336 32.1956 60.0187 34.292 58.1367C35.7968 56.7443 37.2152 55.2481 38.6682 53.8124C38.8447 53.6209 39.0094 53.4187 39.1612 53.207L48.4239 62.461C44.3071 66.7854 40.1904 71.1097 34.1363 73.047C20.5233 77.3713 5.82063 68.6362 3.38171 54.5908C2.6321 50.8019 2.83043 46.8866 3.95906 43.1929C5.08769 39.4992 7.11163 36.1417 9.8509 33.4189C11.399 31.8016 13.0422 30.2708 14.625 28.6621Z" fill="white"/>
<path id="Vector_3" d="M27.0962 16.4844C30.028 19.4249 33.081 22.4865 36.0475 25.4271L27.027 34.4909L18.041 25.5482L27.0962 16.4844Z" fill="white"/>
<path id="Vector_4" d="M60.6967 50.1631L51.6935 59.1231L42.647 50.0766L51.6502 41.082C54.6081 44.0485 57.6524 47.0842 60.6967 50.1631Z" fill="white"/>
<path id="Vector_5" d="M46.0541 28.3145L47.4205 32.4226L41.6519 34.3685L47.8357 40.5004L35.1308 44.7382L33.747 40.6474L39.5416 38.7015L33.3838 32.5609L46.0541 28.3145Z" fill="white"/>
<path id="Vector_6" d="M64.104 13.0156V17.2967H59.8315V13.0156H64.104Z" fill="white"/>
</g>
<defs>
<clipPath id="clip0_1416_4671">
<rect width="80" height="74.5946" fill="white"/>
</clipPath>
</defs>
</svg>
