<svg width="80" height="66" viewBox="0 0 80 66" fill="none" xmlns="http://www.w3.org/2000/svg">
<g id="analysis 1">
<path id="Vector" d="M63.1521 44.5357C63.1521 50.9037 63.1521 57.269 63.1521 63.6317C63.1076 63.9319 63.134 64.2384 63.2293 64.5266C63.3245 64.8148 63.4859 65.0767 63.7005 65.2913C63.9151 65.5059 64.177 65.6673 64.4652 65.7625C64.7534 65.8577 65.0599 65.8842 65.3601 65.8397C67.6961 65.8397 70.0294 65.8397 72.3601 65.8397C74.0641 65.8397 74.7601 65.1597 74.7601 63.4397V25.6637C74.7601 24.0637 74.0481 23.3037 72.3601 23.2637H65.6561C63.8081 23.2637 63.1521 23.9197 63.1521 25.7437V44.5357Z" fill="white"/>
<path id="Vector_2" d="M36.0721 46.5928V29.7928C36.0874 29.5264 36.0874 29.2593 36.0721 28.9928C36.0628 28.7483 36.0053 28.5081 35.9029 28.2859C35.8004 28.0637 35.6551 27.864 35.4751 27.6982C35.2952 27.5324 35.0843 27.4038 34.8545 27.3198C34.6247 27.2358 34.3805 27.1981 34.1361 27.2088C31.5761 27.2088 29.0161 27.2088 26.4561 27.2088C26.2058 27.2003 25.9562 27.2414 25.7219 27.3299C25.4876 27.4184 25.2731 27.5524 25.0908 27.7242C24.9086 27.896 24.7622 28.1023 24.6601 28.331C24.558 28.5597 24.5023 28.8064 24.4961 29.0568C24.4961 29.2328 24.4961 29.4168 24.4961 29.5928V63.4408C24.4961 63.6408 24.4961 63.8488 24.4961 64.0488C24.5247 64.5341 24.7378 64.9901 25.0919 65.3233C25.4459 65.6565 25.9139 65.8417 26.4001 65.8408C28.9601 65.8408 31.5201 65.8408 34.0801 65.8408C34.3249 65.8516 34.5695 65.8139 34.7998 65.73C35.03 65.6461 35.2415 65.5177 35.4221 65.352C35.6026 65.1863 35.7487 64.9866 35.852 64.7643C35.9553 64.5421 36.0138 64.3017 36.0241 64.0568C36.0394 63.7904 36.0394 63.5233 36.0241 63.2568L36.0721 46.5928Z" fill="white"/>
<path id="Vector_3" d="M55.416 50.3997V37.2157C55.416 35.6157 54.688 34.9277 53.128 34.9277H46.136C44.488 34.9277 43.8 35.6237 43.792 37.3277V63.5197C43.792 65.1197 44.504 65.8397 46.112 65.8397C48.416 65.8397 50.7253 65.8397 53.04 65.8397C54.728 65.8397 55.44 65.1517 55.44 63.4397L55.416 50.3997Z" fill="white"/>
<path id="Vector_4" d="M5.12012 24.3526C5.24812 23.9686 5.36012 23.5526 5.50412 23.2086C5.77883 22.4708 6.20286 21.7978 6.74968 21.2314C7.2965 20.6651 7.95433 20.2178 8.682 19.9174C9.40966 19.617 10.1915 19.4701 10.9786 19.4858C11.7656 19.5015 12.541 19.6794 13.2561 20.0086C13.4388 20.11 13.6498 20.1485 13.8565 20.1182C14.0633 20.0878 14.2543 19.9903 14.4001 19.8406C17.7281 17.3286 21.0668 14.8353 24.4161 12.3606C24.5781 12.2722 24.7 12.1249 24.7566 11.9493C24.8131 11.7736 24.8001 11.5829 24.7201 11.4166C24.3711 10.3534 24.3525 9.20947 24.6667 8.1355C24.9809 7.06154 25.6131 6.108 26.4801 5.40059C27.2754 4.65751 28.2751 4.16968 29.3502 4C30.4253 3.83032 31.5266 3.98656 32.5121 4.44859C33.55 4.83651 34.4424 5.5361 35.0669 6.45136C35.6914 7.36662 36.0174 8.45271 36.0001 9.56059C35.974 9.89057 36.0623 10.2195 36.2503 10.492C36.4383 10.7644 36.7144 10.9638 37.0321 11.0566C39.5201 12.2486 41.9841 13.4966 44.5041 14.7446C44.9398 13.9407 45.5594 13.2511 46.3123 12.7323C47.0653 12.2134 47.9302 11.8799 48.8366 11.759C49.7429 11.6381 50.6651 11.7332 51.5277 12.0366C52.3903 12.3399 53.1689 12.843 53.8001 13.5046L63.4001 7.76859C62.9767 6.56623 62.9605 5.25795 63.3542 4.04553C63.7479 2.8331 64.5295 1.78386 65.5786 1.05964C66.6276 0.335412 67.8858 -0.0235743 69.159 0.0380417C70.4323 0.0996577 71.6499 0.578454 72.6241 1.40059C73.719 2.30322 74.4455 3.57543 74.6666 4.97707C74.8877 6.3787 74.588 7.81278 73.8241 9.00859C73.0675 10.2171 71.8879 11.1004 70.5154 11.4865C69.1429 11.8725 67.6757 11.7335 66.4001 11.0966C66.2301 10.9946 66.0336 10.9455 65.8356 10.9555C65.6376 10.9655 65.447 11.0341 65.2881 11.1526C62.1414 13.0406 58.9895 14.9073 55.8321 16.7526C55.6815 16.8215 55.5559 16.9354 55.4728 17.0787C55.3897 17.222 55.3531 17.3876 55.3681 17.5526C55.3579 18.9267 54.8594 20.2524 53.9617 21.2929C53.0641 22.3334 51.8257 23.0208 50.468 23.2324C49.1102 23.4439 47.7214 23.1658 46.5497 22.4478C45.3781 21.7297 44.4999 20.6185 44.0721 19.3126C43.9358 18.9733 43.6873 18.691 43.3681 18.5126C40.5121 17.0646 37.6001 15.6406 34.7041 14.2006C34.5799 14.1243 34.4339 14.0916 34.289 14.1075C34.1442 14.1234 34.0087 14.1871 33.9041 14.2886C33.088 14.9658 32.0979 15.3999 31.0469 15.5413C29.9959 15.6828 28.9263 15.5259 27.9601 15.0886C27.8292 15.0437 27.6903 15.0268 27.5524 15.0392C27.4146 15.0517 27.2809 15.093 27.1601 15.1606C23.6828 17.7206 20.2295 20.3019 16.8001 22.9046C16.704 22.9933 16.6295 23.103 16.5823 23.225C16.5352 23.347 16.5166 23.4783 16.5281 23.6086C17.3281 26.9766 15.5281 30.1206 12.3361 30.8726C11.5746 31.058 10.7833 31.0872 10.0102 30.9583C9.23704 30.8294 8.49805 30.5452 7.83783 30.1227C7.17761 29.7003 6.60987 29.1484 6.16889 28.5004C5.72791 27.8524 5.42284 27.1218 5.27212 26.3526C5.2447 26.2708 5.20707 26.1929 5.16012 26.1206L5.12012 24.3526Z" fill="white"/>
<path id="Vector_5" d="M5.12012 44.0712C5.33333 43.5828 5.70057 43.1776 6.16574 42.9176C6.6309 42.6576 7.1684 42.557 7.69612 42.6312C9.91212 42.6872 12.1361 42.6312 14.3601 42.6312C16.0321 42.6312 16.7121 43.3192 16.7121 44.9832V63.4872C16.7121 65.1672 16.0401 65.8392 14.3761 65.8392C12.1601 65.8392 9.93612 65.7912 7.72012 65.8392C7.19663 65.9173 6.66188 65.8259 6.19408 65.5783C5.72627 65.3307 5.34994 64.94 5.12012 64.4632V44.0712Z" fill="white"/>
<path id="Vector_6" d="M63.152 44.5369V25.7769C63.152 23.9529 63.808 23.2969 65.656 23.2969H72.384C74.032 23.2969 74.784 24.0249 74.784 25.6969V63.4569C74.784 65.1609 74.104 65.8569 72.384 65.8569C70.0587 65.8569 67.7253 65.8569 65.384 65.8569C65.0838 65.9014 64.7773 65.875 64.4891 65.7797C64.2009 65.6845 63.939 65.5231 63.7244 65.3085C63.5097 65.0939 63.3484 64.832 63.2531 64.5438C63.1579 64.2556 63.1315 63.9491 63.176 63.6489C63.1547 57.2702 63.1467 50.8995 63.152 44.5369Z" fill="white"/>
<path id="Vector_7" d="M36.0721 46.591V63.2391C36.0874 63.5055 36.0874 63.7726 36.0721 64.0391C36.0618 64.2839 36.0033 64.5243 35.9 64.7466C35.7967 64.9688 35.6506 65.1685 35.4701 65.3342C35.2895 65.4999 35.078 65.6284 34.8478 65.7122C34.6175 65.7961 34.3729 65.8338 34.1281 65.823C31.5681 65.823 29.0081 65.823 26.4481 65.823C25.9537 65.8364 25.4735 65.6568 25.1092 65.3223C24.7449 64.9879 24.525 64.5248 24.4961 64.031C24.4961 63.8311 24.4961 63.623 24.4961 63.423V29.583C24.4961 29.407 24.4961 29.223 24.4961 29.047C24.5086 28.5512 24.715 28.08 25.071 27.7345C25.4269 27.389 25.9041 27.1968 26.4001 27.199C28.9601 27.199 31.5201 27.199 34.0801 27.199C34.3245 27.1883 34.5687 27.226 34.7985 27.31C35.0283 27.394 35.2392 27.5226 35.4191 27.6884C35.5991 27.8542 35.7444 28.0539 35.8469 28.2761C35.9493 28.4983 36.0068 28.7386 36.0161 28.983C36.0314 29.2495 36.0314 29.5166 36.0161 29.783L36.0721 46.591Z" fill="white"/>
<path id="Vector_8" d="M55.4161 50.4005V63.4405C55.4161 65.1525 54.7281 65.8405 53.0161 65.8405C50.7014 65.8405 48.3921 65.8405 46.0881 65.8405C44.4881 65.8405 43.7761 65.1365 43.7681 63.5205V37.2965C43.7681 35.6245 44.4641 34.8965 46.1121 34.8965H53.1041C54.7041 34.8965 55.3841 35.6245 55.3921 37.1845L55.4161 50.4005Z" fill="white"/>
</g>
</svg>
