<svg width="100" height="62" viewBox="0 0 100 62" fill="none" xmlns="http://www.w3.org/2000/svg">
<g id="delevery 1" clip-path="url(#clip0_1416_4737)">
<path id="Vector" d="M-0.22583 29.292C-0.0117598 28.71 0.393144 28.2172 0.923133 27.8938C1.45312 27.5704 2.07707 27.4353 2.69366 27.5105C11.7863 27.5105 20.8716 27.5105 29.9496 27.5105C31.0513 27.5105 32.153 27.7085 32.5606 28.8411C32.814 29.4089 32.9262 30.0293 32.8879 30.6496C32.8495 31.2699 32.6617 31.8718 32.3403 32.4041C32.0561 32.7651 31.6808 33.044 31.2529 33.2121C30.825 33.3802 30.3599 33.4316 29.9055 33.3608H16.575C12.003 33.3608 7.41993 33.3608 2.8479 33.3608C2.21812 33.4497 1.57651 33.3301 1.02136 33.0202C0.466205 32.7104 0.0281076 32.2274 -0.22583 31.6453V29.292Z" fill="white"/>
<path id="Vector_2" d="M89.5512 53.0886C89.1867 51.2805 88.6896 49.5015 88.0639 47.7661C87.0002 45.4418 85.1853 43.5415 82.9102 42.3699C80.6352 41.1983 78.0319 40.8234 75.5178 41.3052C73.0038 41.7871 70.7247 43.0978 69.0462 45.0272C67.3676 46.9565 66.3869 49.3927 66.2613 51.9449C66.2613 52.8906 65.8758 53.1436 64.9613 53.1326C57.9986 53.1326 51.0359 53.1326 44.0291 53.1326C42.6741 53.1326 42.6741 53.1326 42.5639 51.758C42.3682 48.9868 41.1707 46.3809 39.194 44.4252C37.2173 42.4695 34.5962 41.2972 31.8183 41.1264C29.0404 40.9557 26.295 41.798 24.0928 43.4968C21.8907 45.1956 20.3818 47.6351 19.8469 50.3614C19.7314 50.9709 19.665 51.5887 19.6486 52.2088C19.6486 52.8797 19.2961 53.1326 18.6571 53.1326C17.8088 53.1326 16.9605 53.1326 16.1122 53.1326C15.4285 53.1435 14.7497 53.0153 14.1173 52.7558C13.4849 52.4963 12.912 52.1109 12.4337 51.6232C11.9554 51.1354 11.5816 50.5556 11.3352 49.9189C11.0887 49.2822 10.9748 48.6021 11.0003 47.9201C10.9232 44.4341 11.0003 40.9371 11.0003 37.4511C11.0003 36.1975 11.6283 35.6696 13.0495 35.6256C14.2834 35.6256 15.5283 35.6256 16.7732 35.6256C21.3452 35.6256 25.9283 35.6256 30.5003 35.6256C31.6099 35.6536 32.6893 35.2625 33.5226 34.5306C34.3559 33.7987 34.8818 32.7799 34.9952 31.6778C35.4249 28.5767 34.2791 26.2893 31.8664 25.5855C31.1724 25.4066 30.4567 25.3252 29.7402 25.3436C24.3418 25.3436 18.9546 25.3436 13.5563 25.3436C13.1414 25.3076 12.7292 25.2452 12.3224 25.1566C12.1404 25.1528 11.9612 25.1117 11.7958 25.0361C11.6303 24.9605 11.4821 24.8518 11.3603 24.7169C11.2386 24.5819 11.1457 24.4235 11.0876 24.2514C11.0295 24.0792 11.0073 23.8971 11.0224 23.716C11.0224 23.4521 11.0224 23.1992 11.0224 22.9353C11.0224 21.4727 11.3529 21.1648 12.8291 21.1648H38.1681C39.3377 21.2361 40.4985 20.9232 41.4732 20.274C43.3902 18.8994 43.6766 16.5021 43.0817 13.9619C42.7884 13.0019 42.175 12.1709 41.3433 11.6068C40.5117 11.0427 39.5118 10.7795 38.5096 10.8608C30.0854 10.8608 21.639 10.8608 13.1707 10.8608C11.2757 10.8608 10.9673 10.5528 10.9673 8.66139C10.9673 7.61669 10.9673 6.57199 10.9673 5.52729C10.8884 4.30596 11.2677 3.09903 12.0314 2.14157C12.7951 1.18411 13.8885 0.544667 15.0986 0.34778C16.2453 0.0930938 17.4163 -0.0359665 18.591 -0.0371094C34.0147 -0.0371094 49.4385 -0.0371094 64.8622 -0.0371094C68.608 -0.0371094 70.3707 1.6674 70.3707 5.39533C70.3707 7.48472 70.3707 9.57412 70.3707 11.6635C70.3707 12.8292 70.58 13.0271 71.7478 13.0271C73.3122 13.0271 74.8766 13.0271 76.452 13.0271C78.1634 12.9813 79.8506 13.4384 81.3039 14.3417C82.7572 15.2449 83.9126 16.5545 84.6266 18.1077C85.8274 20.45 87.0613 22.8033 88.119 25.2116C88.5579 26.2508 89.2402 27.1696 90.1087 27.891C90.9771 28.6124 92.0062 29.1153 93.1096 29.3574C94.0571 29.5994 94.9935 29.9183 95.941 30.1162C96.9683 30.2961 97.9044 30.8179 98.5966 31.5967C99.2888 32.3755 99.6964 33.3654 99.7529 34.405C99.9606 35.8225 100.086 37.2508 100.127 38.6827C100.127 41.7179 100.127 44.753 100.127 47.7881C100.174 48.4593 100.083 49.1328 99.8604 49.7678C99.6378 50.4028 99.2881 50.986 98.8326 51.4818C98.3771 51.9776 97.8253 52.3757 97.2108 52.652C96.5962 52.9282 95.9318 53.0768 95.2579 53.0886C93.363 53.1986 91.369 53.0886 89.5512 53.0886ZM86.158 29.2365C84.7147 26.3443 83.3817 23.6391 82.0156 20.9339C81.3905 19.6185 80.4045 18.507 79.1721 17.7284C77.9397 16.9498 76.5114 16.5361 75.0529 16.5351C73.9512 16.5351 72.7613 16.5351 71.6156 16.5351C70.7673 16.5351 70.4037 16.777 70.4147 17.7118C70.4147 21.1978 70.4147 24.6948 70.4147 28.1808C70.4147 29.2804 70.569 29.4564 71.7368 29.4674H84.891C85.3175 29.4155 85.7406 29.3384 86.158 29.2365Z" fill="white"/>
<path id="Vector_3" d="M23.3276 18.9313H8.43266C7.33096 18.9313 6.32842 18.7663 5.87672 17.6886C5.62262 17.1304 5.50227 16.5208 5.52522 15.908C5.54817 15.2953 5.71378 14.6964 6.00893 14.1586C6.26186 13.7678 6.62095 13.4569 7.04426 13.2622C7.46758 13.0675 7.93765 12.997 8.3996 13.0589H37.881C40.6132 13.0589 41.836 14.8184 40.9216 17.4577C40.7343 17.9338 40.3959 18.3355 39.9582 18.6016C39.5206 18.8677 39.0077 18.9835 38.4979 18.9313H23.3276Z" fill="white"/>
<path id="Vector_4" d="M86.488 52.6475C86.4879 54.3912 85.9687 56.0956 84.9963 57.5442C84.0239 58.9927 82.6421 60.1202 81.0265 60.7834C79.4109 61.4466 77.6343 61.6156 75.9223 61.269C74.2103 60.9223 72.6401 60.0757 71.411 58.8365C70.182 57.5973 69.3496 56.0216 69.0196 54.3093C68.6895 52.597 68.8767 50.8254 69.5573 49.2195C70.2379 47.6136 71.3813 46.2458 72.8422 45.2897C74.3031 44.3337 76.0157 43.8326 77.7625 43.85C80.0847 43.8732 82.3039 44.8103 83.9378 46.4577C85.5716 48.105 86.4881 50.3294 86.488 52.6475ZM77.5422 56.3644C78.0497 56.3865 78.5566 56.3074 79.0331 56.1317C79.5096 55.9561 79.9463 55.6873 80.3176 55.3413C80.6889 54.9952 80.9874 54.5788 81.1956 54.1163C81.4039 53.6537 81.5176 53.1544 81.5303 52.6475C81.5368 51.6443 81.1516 50.678 80.4565 49.9534C79.7614 49.2288 78.811 48.8028 77.8066 48.7656C76.8032 48.733 75.8278 49.0991 75.0945 49.7836C74.3613 50.4681 73.9301 51.4151 73.8956 52.4166C73.8674 52.9167 73.9401 53.4173 74.1095 53.8887C74.2789 54.3602 74.5414 54.7929 74.8816 55.1611C75.2217 55.5294 75.6325 55.8256 76.0895 56.0323C76.5466 56.239 77.0406 56.352 77.5422 56.3644Z" fill="white"/>
<path id="Vector_5" d="M39.9855 52.6471C39.9855 54.387 39.4686 56.088 38.5002 57.5347C37.5317 58.9814 36.1552 60.109 34.5448 60.7749C32.9343 61.4407 31.1622 61.615 29.4525 61.2755C27.7429 60.9361 26.1724 60.0982 24.9398 58.8678C23.7072 57.6375 22.8678 56.0699 22.5278 54.3634C22.1877 52.6568 22.3622 50.888 23.0293 49.2804C23.6964 47.6729 24.826 46.2989 26.2754 45.3323C27.7248 44.3656 29.4288 43.8496 31.172 43.8496C33.5015 43.8753 35.7283 44.8105 37.3756 46.4548C39.0229 48.0991 39.9597 50.3218 39.9855 52.6471ZM31.172 56.43C31.929 56.4278 32.6683 56.2013 33.2962 55.7792C33.9241 55.3571 34.4124 54.7584 34.699 54.059C34.9857 53.3597 35.0579 52.5911 34.9064 51.8507C34.755 51.1103 34.3867 50.4315 33.8483 49.9003C33.3099 49.3691 32.6257 49.0094 31.8822 48.8668C31.1388 48.7242 30.3697 48.8051 29.6724 49.0993C28.9751 49.3935 28.381 49.8877 27.9655 50.5193C27.5499 51.1509 27.3315 51.8915 27.3381 52.6471C27.3555 53.6475 27.7681 54.6006 28.4862 55.2989C29.2042 55.9971 30.1696 56.3839 31.172 56.375V56.43Z" fill="white"/>
</g>
<defs>
<clipPath id="clip0_1416_4737">
<rect width="100" height="61.0169" fill="white"/>
</clipPath>
</defs>
</svg>
