<svg width="65" height="64" viewBox="0 0 65 64" fill="none" xmlns="http://www.w3.org/2000/svg">
<g id="Artboard 1 1" clip-path="url(#clip0_1418_4821)">
<path id="Vector" d="M32.4999 -0.117188V3.60081C23.6889 3.80822 16.3681 7.16518 10.722 13.8868C6.71797 18.5876 4.4388 24.5145 4.26155 30.6869C3.98117 36.9833 5.82856 43.1907 9.50609 48.3091C13.1836 53.4276 18.4772 57.159 24.5339 58.9022C37.6621 62.6202 50.8902 57.0893 57.366 45.2516C60.2032 40.027 61.3073 34.0362 60.5189 28.1434C59.7306 22.2506 57.0905 16.7607 52.9796 12.4656L53.3407 17.0209L49.615 17.3436L48.7162 6.72731L59.3402 5.8439L59.6628 9.5619L55.8219 9.90758C55.922 10.0565 56.0296 10.2 56.1446 10.3378C60.6975 15.269 63.5535 21.5274 64.295 28.198C64.3641 28.7895 64.4409 29.381 64.5177 29.9802V33.8211C64.4708 34.0005 64.4349 34.1827 64.4102 34.3665C64.1617 37.732 63.3678 41.0347 62.0596 44.1454C59.3741 50.5083 54.7047 55.8332 48.7469 59.3266C42.7892 62.82 35.8622 64.2948 28.9982 63.5314C22.1342 62.768 15.7005 59.8071 10.656 55.09C5.61149 50.3729 2.22615 44.1522 1.00446 37.3547C0.804735 36.1948 0.681826 35.0502 0.520508 33.8441V29.8419C0.520508 29.6652 0.597326 29.4809 0.628054 29.3042C0.835463 27.8677 0.973735 26.4081 1.27333 24.9947C2.63296 18.8143 5.79609 13.1764 10.3621 8.79499C14.9282 4.41356 20.6917 1.48568 26.9229 0.382131C28.1059 0.190085 29.3043 0.0518127 30.495 -0.109506L32.4999 -0.117188Z" fill="white"/>
<path id="Vector_2" d="M34.4051 47.226H30.6333V51.5201C21.7454 50.9747 13.4491 43.2237 12.7808 33.7444H17.0672V29.9956H12.8038C13.234 21.4842 20.7084 12.942 30.6179 12.1738V16.491H34.359V12.1738C38.944 12.5924 43.2392 14.5978 46.5039 17.8442C49.7686 21.0907 51.798 25.3746 52.2423 29.9572H47.9174V33.7213H52.2269C51.62 42.4556 44.2455 50.7058 34.4051 51.5585V47.226ZM27.2917 38.63C27.3904 38.5693 27.4853 38.5026 27.5759 38.4303C29.7269 36.6251 31.8854 34.8275 34.021 32.9992C34.2363 32.7703 34.357 32.4685 34.359 32.1542C34.359 28.4746 34.359 24.7951 34.359 21.1155V20.4932H30.6256V21.2614C30.6256 24.3341 30.6256 27.3685 30.6256 30.4258C30.6394 30.6079 30.6072 30.7906 30.532 30.957C30.4569 31.1234 30.3411 31.2683 30.1954 31.3784C29.2122 32.1466 28.2673 32.9685 27.3148 33.7751L24.8873 35.8261L27.2917 38.63Z" fill="white"/>
</g>
<defs>
<clipPath id="clip0_1418_4821">
<rect width="65" height="63.8182" fill="white"/>
</clipPath>
</defs>
</svg>
