<svg width="65" height="51" viewBox="0 0 65 51" fill="none" xmlns="http://www.w3.org/2000/svg">
<g id="Artboard 1 copy 5 1">
<path id="Vector" d="M18.7741 49.962H4.09517C2.79412 49.962 2.56453 49.7095 2.7329 48.4314C3.57475 41.9338 7.0034 37.3266 13.0801 34.9234C15.3402 34.0486 17.7688 33.6963 20.1844 33.8927C22.5999 34.0892 24.9397 34.8294 27.0287 36.0579C29.1177 37.2865 30.9019 38.9715 32.2476 40.987C33.5934 43.0026 34.4659 45.2963 34.7999 47.6967C34.8638 48.1074 34.9047 48.5213 34.9224 48.9365C34.9224 49.6176 34.6851 49.9161 33.9887 49.9544H18.7741V49.962Z" fill="white"/>
<path id="Vector_2" d="M60.0477 13.4788C59.9139 14.0067 59.7267 14.5195 59.489 15.0094C59.2304 15.3969 59.0923 15.8523 59.0923 16.3181C59.0923 16.784 59.2304 17.2394 59.489 17.6268C59.7605 18.0826 59.9311 18.5912 59.9894 19.1185C60.0477 19.6458 59.9923 20.1794 59.827 20.6834C59.6616 21.1875 59.3901 21.6502 59.0308 22.0405C58.6715 22.4308 58.2327 22.7395 57.7441 22.9458C57.3251 23.0814 56.9583 23.3431 56.6939 23.6952C56.4294 24.0473 56.2803 24.4726 56.267 24.9127C56.2189 25.4589 56.054 25.9884 55.7835 26.4653C55.5129 26.9422 55.143 27.3554 54.6989 27.6769C54.2547 27.9984 53.7467 28.2207 53.2091 28.3287C52.6716 28.4368 52.1171 28.428 51.5832 28.3031C51.1684 28.1766 50.7245 28.1823 50.3131 28.3195C49.9017 28.4566 49.5432 28.7184 49.2873 29.0684C48.9388 29.4822 48.5042 29.8149 48.0137 30.043C47.5233 30.2712 46.9889 30.3895 46.4479 30.3895C45.907 30.3895 45.3725 30.2712 44.8821 30.043C44.3916 29.8149 43.957 29.4822 43.6086 29.0684C43.3306 28.7301 42.9618 28.4783 42.5455 28.3427C42.1292 28.2071 41.6829 28.1934 41.259 28.3031C40.7295 28.4318 40.1781 28.4427 39.6439 28.3348C39.1098 28.2269 38.6058 28.003 38.1678 27.6788C37.7297 27.3546 37.3682 26.9382 37.1089 26.4588C36.8496 25.9795 36.6987 25.4491 36.6671 24.9051C36.6655 24.4932 36.5357 24.0921 36.2956 23.7575C36.0556 23.4228 35.7173 23.1712 35.3278 23.0377C34.8095 22.8292 34.3431 22.5098 33.9614 22.1019C33.5797 21.694 33.2919 21.2075 33.1183 20.6765C32.9447 20.1455 32.8895 19.5829 32.9565 19.0283C33.0236 18.4737 33.2112 17.9405 33.5063 17.4661C33.7383 17.1282 33.8625 16.728 33.8625 16.3181C33.8625 15.9083 33.7383 15.508 33.5063 15.1702C33.2061 14.7076 33.0128 14.184 32.9404 13.6373C32.8679 13.0907 32.9182 12.5348 33.0875 12.01C33.2568 11.4852 33.5409 11.0048 33.9192 10.6035C34.2974 10.2023 34.7603 9.89038 35.2742 9.69045C35.6822 9.53034 36.0336 9.25302 36.2842 8.89346C36.5348 8.5339 36.6734 8.10818 36.6824 7.67C36.721 7.14097 36.8725 6.62637 37.1268 6.16085C37.3811 5.69534 37.7322 5.28973 38.1565 4.97136C38.5807 4.65298 39.0683 4.42923 39.5863 4.31519C40.1043 4.20115 40.6408 4.19945 41.1595 4.31023C41.6271 4.44857 42.1257 4.44139 42.5891 4.28966C43.0525 4.13793 43.4588 3.84882 43.754 3.46072C44.0998 3.07829 44.522 2.77261 44.9932 2.5634C45.4645 2.35419 45.9744 2.24609 46.49 2.24609C47.0056 2.24609 47.5155 2.35419 47.9868 2.5634C48.458 2.77261 48.8802 3.07829 49.226 3.46072C49.5222 3.84746 49.9289 4.13506 50.3922 4.2854C50.8556 4.43575 51.3537 4.44174 51.8205 4.30258C52.3124 4.19667 52.8209 4.19296 53.3143 4.29169C53.8078 4.39042 54.2757 4.58947 54.689 4.8765C55.1023 5.16354 55.4523 5.53243 55.7171 5.96031C55.982 6.38818 56.1561 6.86591 56.2287 7.36387C56.228 7.89671 56.3905 8.417 56.6942 8.8548C56.9979 9.29261 57.4284 9.62695 57.9277 9.8129C59.3666 10.4099 59.9252 11.6726 60.0477 13.4788ZM46.4709 24.6755C48.1278 24.6755 49.7475 24.1838 51.1248 23.2628C52.5022 22.3418 53.5753 21.0328 54.2083 19.5016C54.8414 17.9703 55.0058 16.2857 54.6809 14.661C54.356 13.0362 53.5563 11.5444 52.383 10.3744C51.2098 9.20436 49.7158 8.40876 48.0902 8.08829C46.4645 7.76783 44.7803 7.93692 43.2509 8.57414C41.7214 9.21137 40.4153 10.2881 39.4981 11.668C38.5809 13.0479 38.0937 14.6689 38.0982 16.3258C38.1163 18.5386 39.0049 20.6554 40.5719 22.218C42.1388 23.7806 44.258 24.6635 46.4709 24.6755Z" fill="white"/>
<path id="Vector_3" d="M18.8353 15.1721C20.5631 15.1782 22.2501 15.6967 23.6831 16.6619C25.1161 17.6272 26.2305 18.9958 26.8854 20.5946C27.5402 22.1934 27.7061 23.9506 27.362 25.6437C27.0178 27.3368 26.1792 28.8898 24.9521 30.1061C23.7251 31.3225 22.1648 32.1475 20.4688 32.4767C18.7727 32.806 17.0171 32.6247 15.424 31.9558C13.831 31.287 12.4722 30.1606 11.5196 28.7192C10.567 27.2778 10.0633 25.5863 10.0724 23.8586C10.0734 22.7117 10.3012 21.5763 10.7429 20.5179C11.1846 19.4594 11.8313 18.4988 12.6458 17.6914C13.4604 16.884 14.4266 16.2457 15.4889 15.8133C16.5511 15.381 17.6885 15.1631 18.8353 15.1721Z" fill="white"/>
<path id="Vector_4" d="M55.701 32.2983C55.127 33.8901 54.5836 35.4361 54.0096 36.9744C53.8981 37.1876 53.7563 37.3835 53.5887 37.556C53.3883 37.4244 53.2079 37.2645 53.053 37.0815C51.9356 35.1682 50.8335 33.2549 49.7085 31.311C50.0759 30.9436 50.4126 30.5457 50.7799 30.2625C50.8475 30.2132 50.9245 30.1782 51.0061 30.1598C51.0877 30.1414 51.1722 30.1399 51.2545 30.1554C52.5623 30.4382 53.9278 30.2577 55.1172 29.6448C56.3067 29.032 57.2462 28.0248 57.775 26.7956C57.775 26.7956 57.775 26.7956 57.8592 26.7344C57.9357 26.8415 58.0199 26.9334 58.0888 27.0482C59.1296 28.839 60.1705 30.6375 61.196 32.4054C61.2715 32.6119 61.3154 32.8287 61.3261 33.0483C61.1156 33.1144 60.8962 33.1479 60.6756 33.1478C59.0378 32.9105 57.4076 32.6044 55.701 32.2983Z" fill="white"/>
<path id="Vector_5" d="M35.0833 26.6504C35.3984 27.4177 35.8702 28.1108 36.4685 28.6854C37.0668 29.2599 37.7784 29.7033 38.5578 29.9872C39.4681 30.3476 40.4664 30.4223 41.4202 30.2015C41.5946 30.1367 41.7859 30.1332 41.9626 30.1916C42.1392 30.25 42.2907 30.3669 42.3921 30.5229C42.6466 30.8116 42.923 31.0802 43.2187 31.3265C42.0707 33.3087 40.9227 35.2985 39.7671 37.2807C39.6905 37.4108 39.4533 37.5869 39.3767 37.5562C39.1941 37.4634 39.0504 37.3089 38.9711 37.12C38.443 35.7118 37.9379 34.296 37.4405 32.8801C37.3792 32.6964 37.3027 32.5204 37.2185 32.3214C35.5578 32.6199 33.92 32.9184 32.2822 33.1939C32.0602 33.2017 31.8383 33.1759 31.624 33.1174C31.6316 32.8931 31.6728 32.6712 31.7465 32.4592C32.8179 30.5382 33.9276 28.6402 35.0833 26.6504Z" fill="white"/>
<path id="Vector_6" d="M49.349 20.7427C48.6511 20.3662 47.9741 19.9523 47.3209 19.5028C47.0907 19.278 46.7817 19.1521 46.4599 19.1521C46.1381 19.1521 45.8291 19.278 45.5989 19.5028C45.0019 19.9467 44.3285 20.2682 43.5784 20.735C43.8157 19.7095 44.0147 18.8064 44.2443 17.911C44.2965 17.7746 44.3006 17.6244 44.2561 17.4853C44.2116 17.3462 44.1211 17.2264 43.9994 17.1456C43.3029 16.5717 42.6218 15.9594 41.8105 15.2553C42.571 15.1428 43.3379 15.0789 44.1065 15.064C44.4495 15.1265 44.8033 15.0504 45.0902 14.8524C45.3772 14.6544 45.5739 14.3507 45.6372 14.0078C45.8438 13.3114 46.1882 12.6609 46.5249 11.8496C46.9229 12.791 47.2903 13.6022 47.604 14.4287C47.6528 14.6078 47.7614 14.7647 47.9118 14.8733C48.0622 14.9819 48.2453 15.0357 48.4306 15.0257C49.2954 15.064 50.1602 15.1558 51.2087 15.2323C50.4434 15.9058 49.8158 16.4951 49.1347 17.0079C48.9523 17.1195 48.8167 17.2936 48.7533 17.4978C48.69 17.7021 48.7031 17.9224 48.7903 18.1176C48.9587 18.9441 49.127 19.763 49.349 20.7427Z" fill="white"/>
</g>
</svg>
