<svg width="90" height="90" viewBox="0 0 90 90" fill="none" xmlns="http://www.w3.org/2000/svg">
<g id="High quality 1" clip-path="url(#clip0_1416_4726)">
<path id="Vector" d="M30.8774 0.275391C32.2743 0.594174 33.6532 0.987036 35.0084 1.45231C37.7977 2.54685 40.5399 3.73554 43.2468 4.98308C43.8526 5.26755 44.5136 5.41504 45.1829 5.41504C45.8521 5.41504 46.5131 5.26755 47.1189 4.98308C49.8376 3.80616 52.5916 2.74693 55.3574 1.64062C56.6004 1.0674 57.9487 0.757611 59.3173 0.730733C60.6859 0.703855 62.0452 0.960472 63.3098 1.48444C64.5744 2.00841 65.7169 2.7884 66.6654 3.77535C67.614 4.76229 68.348 5.93484 68.8214 7.21924C69.9983 10.1027 71.1752 12.9979 72.3522 15.9167C72.5498 16.4566 72.8628 16.9468 73.2693 17.3534C73.6759 17.7599 74.1661 18.0729 74.706 18.2705C77.5071 19.4475 80.2846 20.6244 83.0622 21.8013C84.3439 22.2822 85.5121 23.0235 86.4931 23.9784C87.4741 24.9333 88.2466 26.0811 88.7618 27.3494C89.2771 28.6177 89.524 29.9791 89.487 31.3476C89.45 32.7161 89.1298 34.062 88.5466 35.3006C87.3697 37.9958 86.334 40.7027 85.1218 43.3625C84.804 44.0089 84.6387 44.7196 84.6387 45.4398C84.6387 46.1601 84.804 46.8707 85.1218 47.5171C86.2987 50.1887 87.3462 52.9192 88.4289 55.6261C88.9903 56.8705 89.2886 58.2176 89.3049 59.5827C89.3212 60.9479 89.0552 62.3017 88.5237 63.5592C87.9922 64.8167 87.2066 65.9509 86.2161 66.8905C85.2256 67.8301 84.0517 68.5549 82.7679 69.0195C79.9786 70.1964 77.1775 71.3733 74.3529 72.409C73.7551 72.6198 73.2105 72.9587 72.7571 73.4018C72.3038 73.845 71.9527 74.3818 71.7284 74.9747C70.6339 77.7169 69.4452 80.4239 68.2918 83.1425C67.8197 84.4331 67.084 85.6113 66.1316 86.6019C65.1793 87.5926 64.031 88.3741 62.76 88.8966C61.4891 89.4192 60.1232 89.6714 58.7494 89.6371C57.3756 89.6029 56.024 89.2829 54.7807 88.6976C52.0267 87.5207 49.2609 86.3438 46.5422 85.1668C45.9509 84.8904 45.3061 84.7471 44.6533 84.7471C44.0005 84.7471 43.3557 84.8904 42.7643 85.1668C40.0221 86.3438 37.2328 87.4383 34.5258 88.5564C33.2754 89.1265 31.9201 89.4303 30.546 89.4485C29.1718 89.4668 27.8089 89.199 26.5438 88.6621C25.2787 88.1253 24.1391 87.3313 23.1974 86.3304C22.2557 85.3295 21.5324 84.1437 21.0736 82.8483C19.8967 79.9884 18.7198 77.1167 17.5428 74.245C17.3527 73.7294 17.0549 73.2601 16.6693 72.8685C16.2838 72.4769 15.8193 72.1718 15.3067 71.9735C12.5213 70.8123 9.73592 69.6354 6.95054 68.4428C1.18361 65.983 -1.029 60.4632 1.419 54.6845C2.53707 52.06 3.61984 49.4237 4.79677 46.8227C5.10898 46.1932 5.27632 45.5018 5.2865 44.7992C5.29668 44.0966 5.14946 43.4006 4.85561 42.7623C3.67869 40.0554 2.59592 37.3014 1.50138 34.5238C0.941913 33.28 0.645234 31.934 0.629919 30.5702C0.614603 29.2064 0.88098 27.8541 1.41237 26.598C1.94377 25.3418 2.72874 24.2089 3.71815 23.2702C4.70756 22.3314 5.8801 21.607 7.16238 21.1422C9.987 19.9653 12.8234 18.7884 15.6715 17.7056C16.2377 17.5046 16.7532 17.1824 17.1821 16.7617C17.611 16.3409 17.943 15.8316 18.1548 15.2694C19.3318 12.3389 20.5793 9.38477 21.8622 6.53662C22.6353 4.75881 23.8882 3.2314 25.4805 2.12553C27.0727 1.01966 28.9415 0.37902 30.8774 0.275391ZM58.7705 83.0955C59.4842 83.1066 60.1846 82.9011 60.7792 82.5061C61.3738 82.1111 61.8347 81.5451 62.1012 80.8829C63.2781 77.9994 64.5609 75.1277 65.7496 72.2442C66.2787 70.8976 67.0857 69.6775 68.1178 68.6636C69.15 67.6497 70.3843 66.8646 71.7402 66.3596C74.553 65.2651 77.3541 64.1117 80.1552 62.9583C80.6497 62.8249 81.1074 62.5804 81.4932 62.2434C81.879 61.9064 82.1828 61.4858 82.3814 61.0136C82.58 60.5414 82.6683 60.0301 82.6394 59.5187C82.6105 59.0072 82.4653 58.5091 82.2148 58.0623C81.0378 55.2495 79.9786 52.4366 78.8252 49.6473C78.2348 48.3049 77.9348 46.8529 77.9449 45.3864C77.9551 43.92 78.2751 42.4722 78.8841 41.1382C80.061 38.3371 81.2379 35.5125 82.4148 32.6996C82.6643 32.2612 82.8113 31.7721 82.8448 31.2688C82.8783 30.7655 82.7976 30.2612 82.6085 29.7936C82.4194 29.326 82.1269 28.9073 81.753 28.5687C81.3791 28.2302 80.9334 27.9807 80.4494 27.8389C77.6719 26.662 74.8943 25.4851 72.0932 24.3082C70.7337 23.7735 69.5036 22.9554 68.4849 21.9083C67.4661 20.8611 66.6821 19.609 66.1851 18.2352C65.1141 15.5165 64.0078 12.8214 62.9132 10.1145C61.8187 7.40755 60.3005 6.74847 57.5229 7.86655L49.1079 11.2443C47.8181 11.7835 46.4305 12.0494 45.0327 12.0251C43.635 12.0008 42.2574 11.6868 40.9872 11.1031C38.1508 9.92616 35.2908 8.67862 32.4427 7.5017C32.013 7.27391 31.5384 7.14369 31.0527 7.1203C30.567 7.0969 30.0821 7.18092 29.6325 7.36636C29.1829 7.5518 28.7798 7.8341 28.4518 8.19315C28.1239 8.5522 27.8791 8.97917 27.735 9.44362C26.511 12.3153 25.2909 15.1909 24.0748 18.0705C23.5746 19.3208 22.8282 20.4579 21.88 21.4142C20.9318 22.3705 19.8011 23.1265 18.555 23.6373L9.82223 27.3446C7.32715 28.3921 6.66807 29.9574 7.65669 32.4407C8.83361 35.2535 9.90461 38.0546 11.0462 40.8557C11.591 42.1431 11.8628 43.5294 11.8446 44.9272C11.8263 46.3249 11.5184 47.7037 10.9403 48.9765C9.76338 51.7187 8.58646 54.4845 7.40953 57.2149C6.33853 59.7453 6.98584 61.3106 9.528 62.4052C12.2467 63.5821 14.9418 64.759 17.6723 65.9359C19.0126 66.4694 20.2275 67.2752 21.2404 68.3022C22.2534 69.3293 23.0421 70.5554 23.5569 71.9029C24.7338 74.7628 25.9108 77.611 27.1701 80.4474C27.3116 80.9345 27.5617 81.3831 27.9016 81.7596C28.2415 82.1361 28.6624 82.4305 29.1325 82.6209C29.6027 82.8112 30.1099 82.8924 30.616 82.8584C31.122 82.8244 31.6138 82.6761 32.0543 82.4246C34.7965 81.3301 37.5388 80.2355 40.2928 79.0822C41.6615 78.4649 43.1459 78.1456 44.6474 78.1456C46.1489 78.1456 47.6332 78.4649 49.002 79.0822C51.7442 80.2591 54.4982 81.436 57.2405 82.6129C57.7818 82.813 58.3821 82.966 58.7705 83.0955Z" fill="white"/>
<path id="Vector_2" d="M18.4717 45.1076C18.4671 39.8797 20.012 34.7677 22.9115 30.4174C25.8109 26.0672 29.9346 22.674 34.7617 20.6664C39.5887 18.6588 44.9025 18.1269 50.0317 19.138C55.1609 20.1491 59.8754 22.6577 63.5795 26.347C67.2835 30.0363 69.811 34.7407 70.8426 39.8658C71.8742 44.9909 71.3636 50.3068 69.3754 55.1419C67.3871 59.9769 64.0104 64.1142 59.6718 67.031C55.3332 69.9478 50.2274 71.5132 44.9995 71.5295C41.5213 71.5419 38.0748 70.8677 34.8576 69.5455C31.6404 68.2234 28.7158 66.2793 26.2514 63.8248C23.7869 61.3702 21.8312 58.4533 20.4962 55.2415C19.1612 52.0296 18.4732 48.5858 18.4717 45.1076ZM42.9752 46.5669C42.8105 46.5669 42.7634 46.5669 42.7398 46.4846L39.2091 42.9538C38.9081 42.6095 38.5393 42.3309 38.1259 42.1353C37.7125 41.9397 37.2633 41.8314 36.8061 41.817C36.349 41.8027 35.8938 41.8826 35.469 42.0519C35.0441 42.2211 34.6586 42.476 34.3366 42.8008C34.0204 43.1141 33.7707 43.488 33.6025 43.9001C33.4342 44.3122 33.3509 44.754 33.3575 45.1991C33.3641 45.6442 33.4605 46.0833 33.6408 46.4903C33.8212 46.8972 34.0819 47.2635 34.4072 47.5673C36.5021 49.7015 38.6206 51.816 40.7626 53.9109C41.0948 54.2879 41.5091 54.5836 41.9736 54.7753C42.438 54.967 42.9403 55.0495 43.4417 55.0166C43.943 54.9836 44.4302 54.836 44.8655 54.5851C45.3009 54.3343 45.6729 53.9869 45.9528 53.5696C46.7414 52.5575 47.4828 51.5336 48.2478 50.5096C50.7194 47.2142 53.2145 43.9189 55.6742 40.5999C55.9897 40.2555 56.2287 39.8481 56.3753 39.4047C56.522 38.9612 56.5731 38.4917 56.5252 38.0271C56.4772 37.5624 56.3315 37.1132 56.0974 36.709C55.8633 36.3048 55.5463 35.9547 55.1672 35.6819C54.7881 35.4091 54.3554 35.2196 53.8978 35.1261C53.4402 35.0325 52.9679 35.037 52.5122 35.1391C52.0564 35.2413 51.6274 35.4388 51.2535 35.7187C50.8796 35.9987 50.5692 36.3546 50.3428 36.7632L42.9752 46.5669Z" fill="white"/>
</g>
<defs>
<clipPath id="clip0_1416_4726">
<rect width="90" height="90" fill="white"/>
</clipPath>
</defs>
</svg>
