<svg width="65" height="67" viewBox="0 0 65 67" fill="none" xmlns="http://www.w3.org/2000/svg">
<g id="Artboard 1 copy 3 1" clip-path="url(#clip0_1418_4859)">
<path id="Vector" d="M7.29674 63.4529C6.80904 63.3149 6.32866 63.1521 5.85745 62.9654C3.53602 61.9517 2.42947 59.8083 2.66935 56.9297H65.5878V58.81C65.5491 58.9416 65.5027 59.0731 65.464 59.2124C65.2722 60.1066 64.8553 60.9371 64.2527 61.625C63.6501 62.3129 62.8817 62.8356 62.0205 63.1434C61.6646 63.2749 61.2467 63.3678 60.9217 63.4839H56.8592V59.1583H54.77V63.4529H52.5569V59.1428H50.3438V63.4529H48.2545V59.1428H46.0336V63.4529H7.29674Z" fill="white"/>
<path id="Vector_2" d="M59.0338 50.3823H54.7856V35.2156H57.8808L51.4814 25.6514L45.1207 35.2002H48.216V50.3746H43.9136V22.1692H47.0088L45.6237 20.0645H59.0338V50.3823Z" fill="white"/>
<path id="Vector_3" d="M61.2164 17.7999H60.4426C55.2271 17.7999 49.9884 17.8154 44.7265 17.8464C44.5265 17.8706 44.3239 17.8323 44.1465 17.7367C43.9691 17.6411 43.8257 17.4929 43.7361 17.3124C43.442 16.7862 43.0706 16.2987 42.6605 15.6797H61.9051C63.1432 15.6797 63.4527 15.9737 63.4527 17.2273C63.4527 29.5257 63.4527 41.8241 63.4527 54.1226C63.4527 54.316 63.4527 54.5172 63.4527 54.7571H4.85986V24.4547C5.52534 24.8261 6.19082 25.1743 6.8176 25.5767C6.94141 25.6618 6.94915 25.9791 6.94915 26.188C6.94915 29.7682 6.94915 33.3535 6.94915 36.944V52.544H61.2164V17.7999Z" fill="white"/>
<path id="Vector_4" d="M19.9794 15.6858C19.9718 17.4033 19.4549 19.0799 18.4942 20.5035C17.5334 21.9272 16.1721 23.0339 14.5823 23.6837C12.9924 24.3335 11.2456 24.4972 9.56276 24.1541C7.8799 23.8109 6.33662 22.9764 5.12815 21.756C3.91967 20.5356 3.1003 18.9842 2.77368 17.2981C2.44706 15.6119 2.62788 13.8668 3.29325 12.2834C3.95862 10.7001 5.07865 9.34963 6.51166 8.40292C7.94466 7.45622 9.62626 6.9558 11.3437 6.96497C12.4841 6.968 13.6127 7.19626 14.6646 7.63664C15.7165 8.07703 16.6711 8.72086 17.4735 9.53118C18.2759 10.3415 18.9103 11.3023 19.3404 12.3585C19.7704 13.4147 19.9876 14.5454 19.9794 15.6858ZM8.09372 11.3447V19.9882L16.7372 15.6703L8.09372 11.3447Z" fill="white"/>
<path id="Vector_5" d="M9.18506 26.3496L11.3053 26.574V37.3532H24.8547L23.4077 39.5508H26.4565V50.3841H9.18506V26.3496ZM24.2976 43.9306H11.3672V46.0353H24.2976V43.9306ZM11.3517 41.6943H15.6154V39.605H11.3517V41.6943ZM17.8672 41.6943H22.1309V39.605H17.8672V41.6943Z" fill="white"/>
<path id="Vector_6" d="M33.0343 50.3765V39.5973H36.1295C35.9516 39.3032 35.851 39.1098 35.7272 38.9318C34.2337 36.68 32.717 34.4437 31.2468 32.1765C31.0171 31.8084 30.8865 31.3873 30.8676 30.9538C30.8676 29.0116 30.8676 27.0848 30.8676 25.1116V24.3919H17.9141C18.0766 24.214 18.1462 24.1056 18.2391 24.0282C19.4198 23.0368 20.3861 21.8151 21.0789 20.4378C21.1293 20.3397 21.2016 20.2544 21.2901 20.1887C21.3787 20.1229 21.4812 20.0784 21.5897 20.0586C26.2325 20.0586 30.8754 20.0586 35.673 20.0586L34.2956 22.1866H37.3135V50.3765H33.0343Z" fill="white"/>
<path id="Vector_7" d="M35.3862 5.85874L38.4196 2.82541C38.8695 3.26001 39.4374 3.55263 40.0524 3.66684C40.6675 3.78104 41.3025 3.71178 41.8785 3.46767C42.4746 3.23796 42.9865 2.83197 43.346 2.30384C43.7054 1.77571 43.8954 1.15055 43.8904 0.511719H48.2005C48.2005 1.15047 48.3932 1.77437 48.7536 2.30178C49.1139 2.82918 49.6251 3.23554 50.2201 3.46767C50.826 3.71302 51.4917 3.77043 52.1307 3.63243C52.7696 3.49443 53.3523 3.1674 53.8029 2.69386C54.2904 3.22005 54.7624 3.76172 55.2654 4.24148C55.7684 4.72124 56.31 5.21648 56.813 5.68851C56.3548 6.13951 56.0392 6.71521 55.9054 7.34407C55.7716 7.97293 55.8255 8.62725 56.0605 9.22573C56.2954 9.8242 56.701 10.3405 57.2269 10.7104C57.7527 11.0803 58.3757 11.2875 59.0184 11.3064V13.4111H53.6791C53.6612 12.2152 53.3635 11.0401 52.8099 9.97995C52.2563 8.91976 51.4621 8.00392 50.491 7.30577C49.1145 6.2805 47.4229 5.76863 45.7088 5.85874C43.7589 5.96378 41.9208 6.80216 40.5632 8.20573C39.2055 9.6093 38.4287 11.4743 38.3886 13.4266H33.0493V11.376C33.6829 11.3638 34.2994 11.1683 34.8243 10.8133C35.3492 10.4583 35.76 9.95881 36.0072 9.3753C36.2543 8.79179 36.3272 8.14918 36.217 7.52514C36.1068 6.9011 35.8183 6.32232 35.3862 5.85874Z" fill="white"/>
<path id="Vector_8" d="M13.5107 35.21V26.582H28.6851C28.6378 27.3551 28.6378 28.1304 28.6851 28.9035C28.7865 29.801 28.7073 30.7098 28.4522 31.5762C28.197 32.4427 27.7711 33.2494 27.1994 33.9487C26.949 34.3829 26.5804 34.737 26.1366 34.9699C25.6927 35.2028 25.1919 35.3048 24.6923 35.2642C21.2101 35.1713 17.728 35.2642 14.2536 35.2642L13.5107 35.21Z" fill="white"/>
<path id="Vector_9" d="M41.7859 50.3739H39.5263V20.0174H38.3037L40.6251 16.543L42.9466 19.9787L41.7859 20.0328V50.3739Z" fill="white"/>
<path id="Vector_10" d="M50.3825 50.3761V33.0737L49.1831 33.0195L51.5045 29.5684L53.826 33.0273H52.5724V50.3761H50.3825Z" fill="white"/>
<path id="Vector_11" d="M30.852 50.3807H28.7085V37.4039H27.4395L29.7609 33.9141L32.0823 37.3498H30.852V50.3807Z" fill="white"/>
<path id="Vector_12" d="M21.9917 17.7968L22.2084 15.7539H38.5512C38.1024 16.4271 37.6846 17.0771 37.2435 17.6962C37.1243 17.8015 36.9691 17.8569 36.8102 17.8509H22.1929C22.1239 17.841 22.0564 17.8228 21.9917 17.7968Z" fill="white"/>
<path id="Vector_13" d="M49.2687 13.4715H42.8848C42.6758 11.9239 44.0919 10.3762 45.8639 10.2524C46.3025 10.2248 46.7422 10.2877 47.1554 10.4373C47.5687 10.5869 47.9467 10.8199 48.2661 11.1218C48.5854 11.4237 48.8392 11.7881 49.0117 12.1924C49.1842 12.5966 49.2717 13.032 49.2687 13.4715Z" fill="white"/>
</g>
<defs>
<clipPath id="clip0_1418_4859">
<rect width="65" height="66.5476" fill="white"/>
</clipPath>
</defs>
</svg>
