<svg width="65" height="61" viewBox="0 0 65 61" fill="none" xmlns="http://www.w3.org/2000/svg">
<g id="Artboard 1 copy 6 1" clip-path="url(#clip0_1418_4825)">
<path id="Vector" d="M15.5327 0.0546875H18.0095C18.1355 0.100674 18.2651 0.136248 18.3969 0.161051C20.1391 0.377938 21.8203 0.941049 23.3416 1.81726C24.8629 2.69346 26.1936 3.86507 27.2554 5.26315C28.3173 6.66123 29.0888 8.25755 29.5246 9.9582C29.9604 11.6588 30.0516 13.4295 29.793 15.1659C29.7763 15.4232 29.8608 15.6767 30.0286 15.8725C30.6895 16.579 31.3809 17.24 32.0647 17.9238C37.4082 23.3078 42.7669 28.6716 48.1408 34.0151C48.2398 34.1161 48.358 34.1964 48.4885 34.2512C48.6189 34.306 48.759 34.3342 48.9005 34.3342C52.1259 33.841 55.4195 34.5659 58.1398 36.3677C60.8601 38.1696 62.8125 40.9194 63.6167 44.0816C63.7914 44.7426 63.8978 45.4112 64.0421 46.0798V48.5641C64.0421 48.7312 63.9737 48.906 63.9206 49.0655C63.5407 50.3647 63.214 51.679 62.7582 52.9478C62.6168 53.3453 62.3251 53.6715 61.9457 53.8561C61.5664 54.0408 61.1297 54.0693 60.7296 53.9355C60.3291 53.7779 59.9665 53.5371 59.666 53.2289C57.6375 51.2308 55.6318 49.2099 53.6565 47.227L50.7391 50.1444C50.9027 50.2598 51.0599 50.3841 51.2101 50.5166L56.8474 56.1463C58.0098 57.3239 57.7591 58.6686 56.2396 59.3372C54.0918 60.2962 51.7259 60.6605 49.3892 60.3921C47.0524 60.1237 44.8307 59.2324 42.9563 57.8115C41.0819 56.3905 39.6237 54.4921 38.7341 52.3147C37.8445 50.1373 37.5563 47.7609 37.8995 45.434C37.9357 45.2853 37.9293 45.1295 37.8809 44.9843C37.8325 44.8392 37.7441 44.7106 37.626 44.6135C35.643 42.6457 33.6753 40.6628 31.7 38.6875C27.648 34.6355 23.5961 30.5836 19.5441 26.5316C19.4456 26.4299 19.3275 26.3492 19.1969 26.2943C19.0663 26.2395 18.926 26.2117 18.7844 26.2125C15.9807 26.6452 13.1124 26.1581 10.6088 24.8241C8.10515 23.4901 6.10099 21.381 4.89634 18.8127C4.05823 17.0788 3.61848 15.1794 3.60928 13.2536C3.60008 11.3278 4.02166 9.4243 4.84316 7.68248C4.94638 7.39164 5.12446 7.13316 5.35945 6.93311C5.59444 6.73306 5.87802 6.59852 6.18161 6.54304C6.48519 6.48756 6.79803 6.51312 7.08859 6.61713C7.37914 6.72114 7.63713 6.89993 7.83654 7.13547C9.76628 9.03482 11.6808 10.9342 13.5954 12.8867C13.7279 13.0349 13.8498 13.1923 13.96 13.3577L16.9306 10.3872C16.7792 10.2852 16.6345 10.1736 16.4976 10.0529C14.5602 8.12313 12.6229 6.20099 10.7008 4.25605C10.4677 4.05439 10.2916 3.79515 10.19 3.50419C10.0884 3.21323 10.0649 2.90072 10.1218 2.59783C10.1787 2.29494 10.314 2.01226 10.5142 1.77799C10.7145 1.54371 10.9726 1.36603 11.263 1.26267C11.7079 1.05452 12.1675 0.879306 12.6381 0.738454C13.5802 0.480142 14.5602 0.275012 15.5327 0.0546875Z" fill="white"/>
<path id="Vector_2" d="M64.042 10.3181C63.7026 10.7912 63.3373 11.2452 62.948 11.6781C60.9119 13.7522 58.8454 15.8035 56.87 17.8092L46.2869 7.25638C46.2869 7.30196 46.2869 7.34755 46.2869 7.25638C48.5129 5.02274 50.7313 2.7967 52.965 0.578263C53.2158 0.367574 53.4883 0.184202 53.7779 0.03125H54.606C55.0519 0.304656 55.4761 0.611993 55.8748 0.950535C58.306 3.35131 60.7219 5.76982 63.1227 8.20605C63.4655 8.60322 63.7754 9.02753 64.0496 9.47482L64.042 10.3181Z" fill="white"/>
<path id="Vector_3" d="M31.1984 43.3295L21.3218 53.2061L10.9133 42.7672L20.79 32.8906L31.1984 43.3295Z" fill="white"/>
<path id="Vector_4" d="M8.61859 45.8594L18.2141 55.4473C18.0839 55.5165 17.9494 55.5774 17.8114 55.6296L6.30897 60.2489C5.96272 60.4417 5.56289 60.5159 5.17051 60.4602C4.77812 60.4045 4.41473 60.222 4.13579 59.9404C3.85685 59.6589 3.67767 59.2939 3.6256 58.901C3.57354 58.5081 3.65144 58.109 3.84742 57.7645C5.45047 53.7987 7.03073 49.8252 8.61859 45.8594Z" fill="white"/>
<path id="Vector_5" d="M36.4785 17.1869L43.6429 9.99219L54.0513 20.3778L46.8642 27.565L36.4785 17.1869Z" fill="white"/>
</g>
<defs>
<clipPath id="clip0_1418_4825">
<rect width="65" height="60.7792" fill="white"/>
</clipPath>
</defs>
</svg>
