<svg width="62" height="64" viewBox="0 0 62 64" fill="none" xmlns="http://www.w3.org/2000/svg">
<g id="Artboard 1 copy 2 1" clip-path="url(#clip0_1418_4874)">
<path id="Vector" d="M25.0538 -0.138672C26.0894 0.209269 27.1249 0.532358 28.1522 0.896867C28.5638 1.02147 28.9168 1.29017 29.1465 1.65377C29.3762 2.01737 29.4673 2.45155 29.4031 2.87682C29.3534 15.9992 29.4031 29.1132 29.4031 42.2356V43.064C28.3261 43.064 27.3154 43.064 26.2965 43.064C24.6825 43.1767 23.0607 43.0511 21.4833 42.6912C20.1231 42.3076 18.8758 41.6012 17.8474 40.6319C16.819 39.6626 16.0399 38.4592 15.5766 37.1242C15.5314 36.957 15.4383 36.8068 15.3088 36.692C15.1792 36.5771 15.0189 36.5027 14.8475 36.478C13.32 36.1366 11.9081 35.4021 10.7516 34.3474C9.59503 33.2927 8.73396 31.9543 8.25357 30.4646C7.77319 28.9749 7.69014 27.3856 8.01265 25.854C8.33515 24.3223 9.05204 22.9014 10.0923 21.7319L10.3409 21.442C10.0261 21.0443 9.6947 20.6715 9.41304 20.2656C8.57257 19.0498 8.044 17.6459 7.87387 16.1777C7.70375 14.7095 7.89729 13.222 8.43746 11.8462C8.97763 10.4704 9.84784 9.2486 10.9714 8.28834C12.095 7.32808 13.4375 6.65887 14.8807 6.33966C15.004 6.31173 15.1201 6.25822 15.2214 6.18259C15.3227 6.10695 15.407 6.01088 15.4689 5.90059C16.0127 4.32214 16.9878 2.92755 18.2836 1.87481C19.5794 0.822075 21.1441 0.153272 22.8005 -0.0558292C22.8753 -0.0747674 22.9476 -0.102578 23.0159 -0.138672H25.0538ZM25.7663 11.0534C25.8281 10.5733 25.6999 10.088 25.4089 9.70102C25.1179 9.31409 24.6873 9.0562 24.2088 8.98236C23.7695 8.92745 23.3254 9.03656 22.9616 9.28879C22.5978 9.54102 22.3398 9.91863 22.2372 10.3493C22.1891 10.5835 22.1696 10.8228 22.1792 11.0617C22.195 11.5146 22.077 11.9621 21.8397 12.3482C21.6025 12.7343 21.2566 13.0418 20.8454 13.2322C20.2075 13.5553 19.553 13.8701 18.94 14.2346C18.2832 14.5835 17.7354 15.1069 17.3568 15.7471C16.9783 16.3873 16.7836 17.1195 16.7944 17.8631C16.774 18.3368 16.9406 18.7994 17.2583 19.1512C17.5761 19.5031 18.0194 19.7159 18.4926 19.7437C18.9667 19.7561 19.4276 19.5873 19.7816 19.2718C20.1356 18.9563 20.356 18.5177 20.398 18.0454C20.4591 17.7322 20.6367 17.4539 20.8951 17.2667C21.4087 16.927 21.9886 16.6868 22.552 16.3968C23.541 15.9048 24.369 15.1405 24.9384 14.1939C25.5079 13.2473 25.7951 12.1577 25.7663 11.0534ZM21.1105 31.7642C21.5484 31.8024 21.9851 31.6796 22.339 31.4188C22.6928 31.158 22.9393 30.7772 23.0324 30.3476C23.1331 29.9154 23.0647 29.4611 22.8414 29.0777C22.6181 28.6942 22.2568 28.4106 21.8312 28.2848C20.3941 27.8319 19.1211 26.9678 18.1696 25.7995C18.0241 25.618 17.8439 25.4672 17.6395 25.3562C17.4351 25.2452 17.2106 25.1761 16.9791 25.1529C16.7477 25.1298 16.5139 25.1531 16.2916 25.2214C16.0692 25.2898 15.8628 25.4018 15.6843 25.551C15.4953 25.7001 15.3389 25.8863 15.2246 26.0981C15.1102 26.3099 15.0404 26.5428 15.0195 26.7826C14.9985 27.0224 15.0269 27.2639 15.1027 27.4923C15.1786 27.7207 15.3004 27.9312 15.4606 28.1108C16.7273 29.6881 18.4126 30.8767 20.3235 31.5405C20.5796 31.6334 20.8428 31.7054 21.1105 31.7559V31.7642Z" fill="white"/>
<path id="Vector_2" d="M39.3105 -0.140153C39.7744 -0.0324569 40.2466 0.0586702 40.7023 0.191219C42.0908 0.548087 43.3702 1.24103 44.4277 2.20898C45.4852 3.17692 46.2884 4.39014 46.7664 5.74171C46.8171 5.90646 46.9132 6.05362 47.0435 6.16641C47.1739 6.2792 47.3334 6.35307 47.5037 6.3796C49.0178 6.72102 50.4176 7.44868 51.567 8.49173C52.7164 9.53478 53.576 10.8577 54.0623 12.3316C54.5486 13.8055 54.645 15.3803 54.342 16.9025C54.0391 18.4247 53.3471 19.8426 52.3335 21.018L51.9855 21.4156L52.5074 22.0452C53.4719 23.238 54.1161 24.6571 54.3789 26.1683C54.6418 27.6796 54.5146 29.2329 54.0094 30.6812C53.5042 32.1295 52.6378 33.425 51.4921 34.4449C50.3464 35.4649 48.9594 36.1755 47.4623 36.5097C47.3395 36.539 47.2241 36.5931 47.1229 36.6686C47.0218 36.744 46.9371 36.8394 46.8741 36.9487C46.2826 38.7502 45.129 40.3146 43.5827 41.412C42.0364 42.5094 40.179 43.0821 38.2833 43.046C36.527 43.104 34.779 43.046 32.9647 43.046V42.3418C32.9647 28.9875 32.9647 15.6304 32.9647 2.27058C32.9472 2.06726 32.9907 1.86333 33.0895 1.6848C33.1884 1.50627 33.3382 1.36123 33.5198 1.26818C34.5689 0.604743 35.741 0.159572 36.9661 -0.0407413C37.0761 -0.0692102 37.184 -0.105193 37.2891 -0.148438L39.3105 -0.140153ZM36.5601 10.9608C36.5199 12.078 36.8035 13.183 37.3767 14.1428C37.9499 15.1025 38.7883 15.8761 39.791 16.3705C40.3378 16.6604 40.9094 16.9007 41.4479 17.2403C41.71 17.4255 41.8909 17.7043 41.9532 18.0191C41.9931 18.4914 42.2115 18.9308 42.564 19.2479C42.9164 19.5649 43.3764 19.7357 43.8503 19.7256C44.0905 19.7141 44.3261 19.6547 44.543 19.5509C44.76 19.4471 44.954 19.301 45.1137 19.1212C45.2735 18.9414 45.3957 18.7315 45.4732 18.5038C45.5507 18.2762 45.582 18.0353 45.5652 17.7954C45.5698 17.0917 45.3883 16.3992 45.0391 15.7882C44.69 15.1772 44.1856 14.6693 43.5769 14.316C42.9798 13.9559 42.3631 13.6296 41.7295 13.3384C41.2399 13.1429 40.8251 12.7968 40.5451 12.35C40.2651 11.9033 40.1345 11.379 40.1721 10.8531C40.1907 10.6026 40.1566 10.351 40.072 10.1145C39.9874 9.87795 39.8541 9.66178 39.6808 9.47991C39.5076 9.29805 39.2981 9.15452 39.0659 9.05857C38.8338 8.96263 38.5841 8.91641 38.333 8.92289C38.0786 8.92804 37.8281 8.9864 37.5976 9.09421C37.3671 9.20202 37.1618 9.3569 36.9948 9.54887C36.8278 9.74084 36.7028 9.96565 36.628 10.2088C36.5531 10.452 36.53 10.7082 36.5601 10.9608ZM41.1662 31.7545C41.3754 31.7245 41.5829 31.6831 41.7875 31.6302C43.9315 30.9573 45.8058 29.6198 47.1392 27.8111C47.2922 27.6263 47.4067 27.4128 47.4759 27.1831C47.5452 26.9534 47.5677 26.7121 47.5422 26.4736C47.5167 26.235 47.4438 26.0039 47.3276 25.794C47.2114 25.5841 47.0544 25.3996 46.8658 25.2513C46.479 24.9611 45.9936 24.835 45.5145 24.9001C45.0354 24.9652 44.6012 25.2164 44.306 25.5992C43.9407 26.0953 43.5086 26.5386 43.0219 26.9164C42.2025 27.4331 41.3438 27.8846 40.4537 28.2668C40.0502 28.4189 39.713 28.708 39.501 29.0835C39.289 29.4591 39.2157 29.8972 39.2939 30.3213C39.3793 30.7465 39.6163 31.1262 39.9606 31.3898C40.305 31.6535 40.7334 31.783 41.1662 31.7545Z" fill="white"/>
<path id="Vector_3" d="M0.490234 21.0662C0.682429 20.6029 1.02689 20.2191 1.46671 19.9781C1.90653 19.7371 2.41539 19.6534 2.90925 19.7407C3.34832 19.7407 3.78739 19.7407 4.22646 19.7407C4.70104 19.7407 5.15619 19.9292 5.49177 20.2648C5.82735 20.6004 6.01587 21.0555 6.01587 21.5301C6.01587 22.0047 5.82735 22.4598 5.49177 22.7954C5.15619 23.131 4.70104 23.3195 4.22646 23.3195C3.572 23.3195 2.90925 23.3195 2.25479 23.3195C1.86537 23.2956 1.49149 23.1581 1.17936 22.924C0.867234 22.6899 0.630536 22.3695 0.498519 22.0023L0.490234 21.0662Z" fill="white"/>
<path id="Vector_4" d="M20.9861 46.0117H41.3407C41.2993 47.4118 41.523 48.8035 41.1005 50.1539C40.8107 51.1019 40.2594 51.949 39.5099 52.5978C38.8403 53.2328 37.9472 53.5782 37.0246 53.5587C32.957 53.5007 28.8811 53.5587 24.8052 53.5587C24.4143 53.5383 24.0351 53.4185 23.7034 53.2108C22.8838 52.7601 22.1997 52.0985 21.7219 51.2944C21.2441 50.4904 20.9901 49.5731 20.9861 48.6379C20.9613 47.7929 20.9861 46.9313 20.9861 46.0117Z" fill="white"/>
<path id="Vector_5" d="M24.5977 57.1465H37.7283C37.7283 57.9749 37.7946 58.8696 37.7283 59.7146C37.6832 60.1217 37.489 60.4978 37.183 60.7701C36.877 61.0424 36.481 61.1917 36.0714 61.1892C32.8405 61.1892 29.6097 61.1892 26.3788 61.1892C25.9334 61.1856 25.5062 61.0121 25.1845 60.7042C24.8627 60.3963 24.6706 59.9771 24.6474 59.5324C24.6059 58.9773 24.6474 58.414 24.6474 57.8755L24.5977 57.1465Z" fill="white"/>
<path id="Vector_6" d="M59.1187 19.5113C59.4335 19.5113 59.7566 19.5113 60.0714 19.5113C60.5459 19.5025 61.0046 19.6826 61.3464 20.0119C61.6882 20.3413 61.8851 20.793 61.8939 21.2675C61.9027 21.7421 61.7226 22.2008 61.3932 22.5426C61.0639 22.8843 60.6122 23.0813 60.1376 23.0901C59.4423 23.1274 58.7454 23.1274 58.05 23.0901C57.5975 23.0536 57.1758 22.8464 56.8703 22.5106C56.5648 22.1748 56.3984 21.7355 56.4047 21.2816C56.411 20.8277 56.5896 20.3931 56.9044 20.0659C57.2191 19.7388 57.6464 19.5435 58.0997 19.5196C58.4394 19.4947 58.779 19.5113 59.1187 19.5113Z" fill="white"/>
<path id="Vector_7" d="M53.6594 5.45084C53.6594 4.19162 55.7305 2.1951 56.882 2.26137C57.2147 2.26664 57.5386 2.36903 57.8138 2.55596C58.089 2.74289 58.3036 3.00619 58.4312 3.31348C58.5878 3.61905 58.6456 3.96572 58.5967 4.30558C58.5477 4.64544 58.3943 4.96168 58.1578 5.21059C57.6464 5.76645 57.0924 6.28164 56.5009 6.75147C56.2456 6.94542 55.9423 7.06645 55.6236 7.10169C55.3048 7.13693 54.9825 7.08505 54.6909 6.95159C54.3993 6.81812 54.1494 6.60805 53.9678 6.34377C53.7861 6.07949 53.6795 5.77089 53.6594 5.45084Z" fill="white"/>
<path id="Vector_8" d="M53.5933 37.571C53.6053 37.2262 53.7092 36.8908 53.8941 36.5996C54.0791 36.3083 54.3384 36.0717 54.6454 35.9141C54.942 35.7425 55.2845 35.6671 55.6257 35.6983C55.967 35.7294 56.2901 35.8656 56.5508 36.0881C57.1265 36.5492 57.6665 37.0532 58.1662 37.5958C58.469 37.9209 58.6374 38.3487 58.6374 38.7929C58.6374 39.2372 58.469 39.6649 58.1662 39.99C57.8797 40.3157 57.4808 40.5214 57.0493 40.5659C56.6178 40.6105 56.1853 40.4906 55.8383 40.2302C55.2084 39.733 54.626 39.1783 54.0986 38.5734C53.8819 38.2658 53.7116 37.9281 53.5933 37.571Z" fill="white"/>
<path id="Vector_9" d="M8.75058 5.28574C8.73684 5.61333 8.63989 5.93203 8.46886 6.21177C8.29782 6.4915 8.05835 6.72307 7.77303 6.88461C7.49404 7.06697 7.16481 7.15708 6.83184 7.14221C6.49886 7.12735 6.17897 7.00826 5.91734 6.80176C5.2756 6.29746 4.67451 5.74347 4.11965 5.1449C3.85913 4.81401 3.72492 4.40118 3.74105 3.98036C3.75717 3.55953 3.92258 3.15818 4.20765 2.84819C4.49272 2.53821 4.87883 2.33982 5.29684 2.28857C5.71484 2.23732 6.13744 2.33655 6.48896 2.56848C7.15984 3.102 7.78348 3.69237 8.35293 4.33304C8.54124 4.62435 8.67591 4.94699 8.75058 5.28574Z" fill="white"/>
<path id="Vector_10" d="M8.67566 37.3549C8.67566 38.6555 6.61286 40.6686 5.45306 40.5858C5.1121 40.5786 4.78101 40.47 4.50211 40.2737C4.22321 40.0774 4.00916 39.8025 3.88732 39.4839C3.73991 39.1736 3.69261 38.8251 3.75198 38.4867C3.81134 38.1483 3.97444 37.8367 4.2187 37.5951C4.71004 37.0747 5.23294 36.585 5.78443 36.1288C6.03626 35.9272 6.3379 35.7974 6.65744 35.7532C6.97697 35.709 7.30252 35.752 7.59962 35.8776C7.89673 36.0033 8.15436 36.2069 8.34523 36.4669C8.53611 36.727 8.65314 37.0338 8.68394 37.3549H8.67566Z" fill="white"/>
</g>
<defs>
<clipPath id="clip0_1418_4874">
<rect width="62" height="64" fill="white"/>
</clipPath>
</defs>
</svg>
