<svg width="65" height="65" viewBox="0 0 65 65" fill="none" xmlns="http://www.w3.org/2000/svg">
<g id="fAST 1">
<path id="Vector" d="M16.6015 46.4039C16.1859 45.431 15.8498 44.5555 15.4253 43.7506C15.3394 43.6411 15.231 43.5512 15.1074 43.4871C14.9838 43.423 14.8479 43.3862 14.7089 43.3792C12.489 43.3792 10.2867 43.3792 8.04914 43.3792C7.84264 43.4076 7.63254 43.3946 7.43115 43.3407C7.22977 43.2869 7.04117 43.1934 6.87641 43.0657C6.71164 42.938 6.57404 42.7787 6.47168 42.5972C6.36931 42.4156 6.30424 42.2154 6.28028 42.0083C6.17415 40.9912 6.86401 40.2837 8.04914 40.2395C9.90643 40.2395 11.7726 40.2395 13.6299 40.2395H14.4347L14.019 37.1616H3.28208C2.90367 37.1804 2.5314 37.0605 2.23507 36.8244C1.93874 36.5883 1.73869 36.2523 1.67242 35.8792C1.60634 35.5325 1.66511 35.1735 1.83832 34.866C2.01153 34.5584 2.288 34.3221 2.61876 34.1988C2.94401 34.1099 3.28149 34.074 3.61816 34.0927H14.0102L14.4259 30.9795H8.8009C8.46482 30.9795 8.11989 30.9795 7.78381 30.9795C7.58417 30.9808 7.38631 30.9418 7.20207 30.8649C7.01782 30.788 6.85096 30.6748 6.71145 30.532C6.57193 30.3892 6.46264 30.2197 6.39008 30.0337C6.31752 29.8477 6.28318 29.649 6.28913 29.4494C6.28642 29.2425 6.32623 29.0372 6.40608 28.8462C6.48593 28.6552 6.60414 28.4827 6.75337 28.3393C6.90261 28.1958 7.0797 28.0846 7.27368 28.0123C7.46766 27.9401 7.6744 27.9085 7.8811 27.9194C10.0214 27.9194 12.1794 27.9194 14.3197 27.9194C15.0449 27.9194 15.4606 27.7867 15.6729 27.035C15.9278 26.2647 16.2382 25.5139 16.6015 24.7885H11.4984C11.1627 24.7921 10.8277 24.7595 10.499 24.6912C10.1787 24.6041 9.89602 24.414 9.69447 24.1503C9.49293 23.8866 9.38374 23.5639 9.38374 23.2319C9.38374 22.9 9.49293 22.5773 9.69447 22.3136C9.89602 22.0499 10.1787 21.8598 10.499 21.7726C10.8067 21.7044 11.1213 21.6717 11.4365 21.6753C13.6564 21.6753 15.8586 21.6753 18.0962 21.6753C18.2544 21.6703 18.41 21.6342 18.5542 21.5689C18.6984 21.5037 18.8283 21.4106 18.9364 21.295C22.2675 17.0769 26.9543 14.1399 32.2028 12.9814L32.5654 12.893V10.8765C32.0259 10.8765 31.5041 10.8765 30.9823 10.8765C29.8441 10.8722 28.7472 10.4492 27.9009 9.68804C27.0545 8.92691 26.5179 7.88093 26.3933 6.74953C26.2687 5.61812 26.5648 4.48042 27.2252 3.55334C27.8856 2.62625 28.864 1.97462 29.9741 1.72269C30.2644 1.65788 30.561 1.62526 30.8585 1.6254C35.086 1.6254 39.3136 1.6254 43.5323 1.6254C44.3917 1.61362 45.2348 1.86026 45.9523 2.33335C46.6698 2.80645 47.2287 3.48418 47.5565 4.27868C47.9438 5.03707 48.104 5.89117 48.0177 6.73839C47.9314 7.5856 47.6024 8.38988 47.07 9.05458C46.6375 9.64205 46.0705 10.1173 45.4165 10.4404C44.7625 10.7636 44.0406 10.9253 43.3112 10.9119C42.8602 10.9119 42.4268 10.9119 41.8873 10.9119V12.8753C49.6172 14.7326 55.2244 19.1901 58.488 26.4689C60.7537 31.6164 61.0062 37.4266 59.1955 42.7512C58.205 42.4859 57.2232 42.1498 56.215 41.9818C55.2067 41.8137 54.1631 41.8137 53.0841 41.743C53.9222 39.563 54.3007 37.2333 54.1956 34.9001C54.0906 32.5669 53.5044 30.2806 52.4739 28.1847C50.9044 24.8823 48.2859 22.1923 45.027 20.5344C41.7904 18.8532 38.0989 18.2575 34.4978 18.8353C30.8966 19.4132 27.5768 21.134 25.0288 23.7435C22.4807 26.353 20.8396 29.7129 20.3477 33.3268C19.8558 36.9407 20.5393 40.6169 22.2972 43.8125C24.177 47.1937 27.1459 49.8391 30.7206 51.3181C34.2953 52.7971 38.2654 53.0227 41.9846 51.9581C41.6474 54.0649 41.8234 56.222 42.4975 58.2464C41.1001 58.4233 39.7912 58.6797 38.4822 58.7328C34.7546 58.9636 31.0268 58.2829 27.6212 56.7496C24.2157 55.2163 21.2348 52.8766 18.9364 49.9328C18.7008 49.6942 18.3864 49.5496 18.052 49.5259C15.8321 49.5259 13.6299 49.5259 11.3834 49.5259C10.101 49.5259 9.36693 48.951 9.38462 47.9693C9.40231 46.9876 10.1275 46.457 11.3569 46.4481L16.6015 46.4039Z" fill="white"/>
<path id="Vector_2" d="M37.4917 49.4814C34.6967 49.535 31.9507 48.7442 29.6122 47.2124C27.2738 45.6806 25.4518 43.4791 24.3843 40.8955C23.3168 38.3119 23.0534 35.4664 23.6286 32.7307C24.2038 29.9951 25.5908 27.4966 27.6084 25.5616C29.626 23.6267 32.1803 22.3454 34.9376 21.885C37.6949 21.4247 40.5269 21.8067 43.0636 22.9813C45.6004 24.1559 47.7238 26.0683 49.1565 28.4687C50.5892 30.8691 51.2645 33.6459 51.0942 36.4362C50.9815 38.5669 50.3565 40.6391 49.2722 42.4768C49.1136 42.7351 48.8913 42.9482 48.6266 43.0959C46.6271 44.1445 44.9353 45.696 43.7181 47.5976C43.5364 47.871 43.2822 48.0884 42.984 48.2256C41.2689 49.0459 39.3929 49.4748 37.4917 49.4814ZM35.6167 30.139C35.6167 31.8548 35.6167 33.5618 35.6167 35.2776C35.6243 35.7973 35.8013 36.3003 36.1208 36.7103C37.589 38.2758 39.1279 39.7704 40.6579 41.2828C40.8525 41.5016 41.108 41.6573 41.3917 41.7298C41.6754 41.8023 41.9742 41.7883 42.2499 41.6897C42.5187 41.6137 42.7616 41.4657 42.9523 41.2616C43.1429 41.0574 43.2741 40.805 43.3315 40.5316C43.3889 40.2583 43.3704 39.9744 43.2779 39.7108C43.1855 39.4473 43.0227 39.214 42.8071 39.0364C41.6043 37.7893 40.3395 36.5865 39.1456 35.3306C38.8977 35.0578 38.7509 34.7081 38.7299 34.3401C38.7299 32.5712 38.7299 30.8024 38.7299 29.0335C38.7299 27.6361 38.7299 26.2387 38.7299 24.8413C38.7492 24.5871 38.7058 24.3321 38.6034 24.0986C38.5011 23.8651 38.343 23.6603 38.143 23.5022C37.943 23.3442 37.7072 23.2376 37.4564 23.192C37.2056 23.1464 36.9474 23.163 36.7046 23.2405C36.3567 23.3561 36.0594 23.5881 35.8628 23.8975C35.6662 24.2069 35.5824 24.5746 35.6256 24.9386C35.6167 26.7163 35.6167 28.4233 35.6167 30.139Z" fill="white"/>
<path id="Vector_3" d="M54.1809 63.3852C52.3478 63.3799 50.5573 62.8312 49.036 61.8084C47.5147 60.7855 46.3308 59.3346 45.6341 57.6389C44.9375 55.9433 44.7593 54.0791 45.122 52.2822C45.4848 50.4852 46.3723 48.8362 47.6723 47.5437C48.9722 46.2512 50.6263 45.3731 52.4253 45.0206C54.2243 44.6681 56.0874 44.857 57.779 45.5634C59.4706 46.2698 60.9148 47.4619 61.9289 48.989C62.943 50.5162 63.4815 52.3098 63.4763 54.1429C63.4646 56.5997 62.4798 58.9518 60.7376 60.684C58.9954 62.4163 56.6378 63.3876 54.1809 63.3852ZM53.6857 54.7267C53.1019 54.0899 52.642 53.5238 52.1202 53.0374C51.8376 52.7489 51.4519 52.5845 51.048 52.5803C50.6441 52.5762 50.2552 52.7327 49.9666 53.0153C49.6781 53.298 49.5137 53.6836 49.5096 54.0875C49.5054 54.4914 49.6619 54.8804 49.9445 55.1689C50.9793 56.2567 52.0318 57.318 53.1196 58.344C53.2821 58.5174 53.4841 58.6491 53.7084 58.7278C53.9327 58.8066 54.1726 58.83 54.4079 58.7961C54.6432 58.7623 54.8668 58.6721 55.0598 58.5334C55.2528 58.3946 55.4094 58.2113 55.5164 57.999C56.6131 55.9118 57.6567 53.7892 58.6827 51.6666C58.7698 51.4921 58.8214 51.302 58.8342 51.1074C58.8471 50.9128 58.8211 50.7176 58.7577 50.5331C58.6943 50.3487 58.5948 50.1788 58.465 50.0332C58.3352 49.8877 58.1777 49.7694 58.0017 49.6854C57.8146 49.5839 57.6082 49.5231 57.396 49.5068C57.1838 49.4905 56.9706 49.5192 56.7702 49.591C56.5699 49.6628 56.387 49.7761 56.2334 49.9234C56.0798 50.0708 55.9591 50.2488 55.879 50.446C55.145 51.7904 54.4816 53.1524 53.6857 54.7267Z" fill="white"/>
<path id="Vector_4" d="M3.18483 30.9351C2.98707 30.9386 2.79058 30.9029 2.60674 30.8299C2.4229 30.7569 2.25538 30.6481 2.11389 30.5099C1.97239 30.3717 1.85973 30.2068 1.78244 30.0247C1.70515 29.8427 1.66476 29.6471 1.66362 29.4493C1.65527 29.2455 1.68822 29.0422 1.76048 28.8515C1.83273 28.6608 1.94281 28.4867 2.08409 28.3396C2.22536 28.1926 2.39492 28.0756 2.58257 27.9957C2.77021 27.9159 2.97206 27.8748 3.17599 27.875C3.38041 27.8762 3.58259 27.9176 3.771 27.9969C3.95941 28.0762 4.13036 28.1918 4.27408 28.3372C4.4178 28.4825 4.53149 28.6548 4.60864 28.8441C4.68579 29.0334 4.7249 29.236 4.72374 29.4404C4.71447 29.8416 4.54797 30.2231 4.26012 30.5027C3.97227 30.7822 3.5861 30.9375 3.18483 30.9351Z" fill="white"/>
<path id="Vector_5" d="M1.65477 41.7959C1.65125 41.5916 1.68845 41.3886 1.76421 41.1988C1.83997 41.0091 1.95276 40.8363 2.09601 40.6905C2.23927 40.5448 2.41011 40.4291 2.59856 40.3501C2.78702 40.2711 2.98933 40.2304 3.19367 40.2305C3.58281 40.2599 3.94644 40.4353 4.21176 40.7215C4.47708 41.0077 4.6245 41.3835 4.6245 41.7738C4.6245 42.164 4.47708 42.5399 4.21176 42.8261C3.94644 43.1122 3.58281 43.2876 3.19367 43.3171C2.78927 43.3149 2.40182 43.1544 2.11421 42.8701C1.82661 42.5858 1.6617 42.2002 1.65477 41.7959Z" fill="white"/>
</g>
</svg>
