<svg width="80" height="80" viewBox="0 0 80 80" fill="none" xmlns="http://www.w3.org/2000/svg">
<g id="customaization 1" clip-path="url(#clip0_1416_4744)">
<path id="Vector" d="M0.304082 39.917C0.304082 30.2211 0.304082 20.5315 0.304082 10.8482C0.236569 9.4756 0.452353 8.10374 0.938 6.8181C1.42365 5.53246 2.16876 4.36055 3.12694 3.37535C4.08512 2.39015 5.23586 1.61275 6.50751 1.09156C7.77916 0.570357 9.14448 0.316521 10.5185 0.345851C30.1345 0.345851 49.7441 0.345851 69.3473 0.345851C70.7038 0.298477 72.0555 0.531719 73.3177 1.03097C74.5799 1.53021 75.7254 2.28471 76.6825 3.2472C77.6396 4.20969 78.3876 5.35944 78.8797 6.62444C79.3719 7.88943 79.5975 9.24242 79.5425 10.5987C79.5425 30.1827 79.5425 49.7635 79.5425 69.341C79.5914 70.7026 79.3581 72.0595 78.8573 73.3265C78.3566 74.5935 77.5991 75.7433 76.6326 76.7035C75.6661 77.6637 74.5114 78.4136 73.2411 78.906C71.9709 79.3985 70.6124 79.6229 69.2513 79.565H10.6913C4.55688 79.565 0.323282 75.3122 0.313682 69.1395C0.300882 59.3987 0.297682 49.6578 0.304082 39.917ZM25.8209 17.0595H13.3409C12.9653 17.0528 12.5898 17.0753 12.2177 17.1266C11.8956 17.1794 11.5875 17.2968 11.3119 17.4717C11.0364 17.6467 10.7991 17.8756 10.6143 18.1446C10.4295 18.4137 10.3011 18.7174 10.2368 19.0374C10.1725 19.3574 10.1736 19.6871 10.2401 20.0067C10.3679 20.6249 10.7226 21.1728 11.2344 21.5424C11.7462 21.912 12.3778 22.0765 13.0049 22.0035C21.4721 22.0035 29.9425 22.0035 38.4161 22.0035C38.6758 21.9696 38.9392 22.0293 39.159 22.1717C39.3788 22.3142 39.5408 22.5301 39.6161 22.7811C40.2423 24.199 41.2671 25.4044 42.5658 26.2506C43.8645 27.0968 45.3812 27.5473 46.9313 27.5473C48.4814 27.5473 49.998 27.0968 51.2967 26.2506C52.5955 25.4044 53.6203 24.199 54.2465 22.7811C54.3339 22.5168 54.5119 22.2919 54.7491 22.1461C54.9862 22.0003 55.2672 21.943 55.5425 21.9842C59.3313 21.9842 63.1297 21.9842 66.9377 21.9842C67.3459 22.0109 67.7543 21.9363 68.1269 21.7673C68.4994 21.5983 68.8244 21.3399 69.0732 21.0152C69.322 20.6905 69.4868 20.3094 69.553 19.9057C69.6192 19.502 69.5848 19.0883 69.4529 18.701C69.2601 18.1635 68.892 17.7064 68.4079 17.4034C67.9238 17.1004 67.3519 16.9691 66.7841 17.0307C63.0145 17.0307 59.2417 17.0307 55.4657 17.0307C55.2181 17.0688 54.965 17.0185 54.7508 16.8886C54.5366 16.7587 54.3751 16.5574 54.2945 16.3203C53.6738 14.8839 52.6464 13.6606 51.3388 12.8012C50.0313 11.9418 48.5008 11.4839 46.9361 11.4839C45.3714 11.4839 43.8409 11.9418 42.5333 12.8012C41.2258 13.6606 40.1983 14.8839 39.5777 16.3203C39.5164 16.5511 39.3713 16.7508 39.1707 16.8803C38.9702 17.0099 38.7285 17.0601 38.4929 17.021C34.2977 17.0499 30.0641 17.0595 25.8209 17.0595ZM47.9009 57.9075C47.8049 57.7155 47.7473 57.5811 47.6897 57.4562C47.1039 55.9639 46.0847 54.6812 44.7633 53.7734C43.4419 52.8657 41.8789 52.3745 40.2758 52.3631C38.6727 52.3517 37.1029 52.8207 35.7688 53.7097C34.4346 54.5986 33.3973 55.8668 32.7905 57.3507C32.5601 57.8882 32.2433 57.9075 31.8305 57.9075C25.7057 57.9075 19.5841 57.9075 13.4657 57.9075C13.146 57.8878 12.8254 57.8878 12.5057 57.9075C11.9224 57.9552 11.3748 58.208 10.9601 58.6209C10.5454 59.0339 10.2903 59.5804 10.2401 60.1634C10.1856 60.7031 10.314 61.2454 10.6048 61.7033C10.8955 62.1612 11.3317 62.508 11.8433 62.6883C12.3468 62.8235 12.8679 62.8818 13.3889 62.861C19.4753 62.861 25.5553 62.861 31.6289 62.861C31.8779 62.8215 32.1329 62.8723 32.3477 63.0044C32.5625 63.1364 32.723 63.341 32.8001 63.5811C33.4207 65.0174 34.4482 66.2407 35.7557 67.1001C37.0633 67.9595 38.5938 68.4174 40.1585 68.4174C41.7232 68.4174 43.2537 67.9595 44.5612 67.1001C45.8688 66.2407 46.8962 65.0174 47.5169 63.5811C47.5721 63.3371 47.7204 63.1243 47.9302 62.988C48.14 62.8517 48.3947 62.8027 48.6401 62.8515C51.7697 62.8515 54.9089 62.8515 58.0385 62.8515C60.9953 62.8515 63.9617 62.8515 66.9185 62.8515C67.2655 62.889 67.6166 62.853 67.9488 62.7459C68.281 62.6387 68.5869 62.4628 68.8467 62.2297C69.1064 61.9965 69.3142 61.7112 69.4564 61.3924C69.5986 61.0737 69.6721 60.7285 69.6721 60.3794C69.6721 60.0304 69.5986 59.6852 69.4564 59.3665C69.3142 59.0477 69.1064 58.7624 68.8467 58.5292C68.5869 58.2961 68.281 58.1202 67.9488 58.013C67.6166 57.9059 67.2655 57.8699 66.9185 57.9075C66.0545 57.9075 65.1809 57.9075 64.3073 57.9075H47.9009ZM49.7633 42.4226H53.3249C57.9137 42.4226 62.4929 42.4226 67.0817 42.4226C67.4896 42.4442 67.8964 42.3636 68.2654 42.1884C68.6343 42.0132 68.9538 41.7488 69.1949 41.4191C69.436 41.0893 69.5911 40.7047 69.6462 40.3C69.7013 39.8953 69.6546 39.4832 69.5105 39.1011C69.3007 38.5707 68.9188 38.1262 68.4262 37.839C67.9335 37.5517 67.3585 37.4383 66.7937 37.5171H37.6097C35.8625 37.5171 34.1249 37.5171 32.3873 37.5171C32.2331 37.5069 32.0837 37.4598 31.9516 37.3795C31.8196 37.2993 31.7089 37.1884 31.6289 37.0563C30.1697 33.8018 27.6833 31.9874 24.1025 31.997C20.5217 32.0067 18.1121 33.821 16.6337 37.0178C16.5554 37.1508 16.4484 37.2646 16.3205 37.351C16.1926 37.4374 16.0471 37.4941 15.8945 37.5171C14.8289 37.5746 13.7537 37.5171 12.6785 37.5171C12.3435 37.4961 12.0077 37.544 11.6919 37.6577C11.3761 37.7715 11.087 37.9488 10.8423 38.1786C10.5977 38.4084 10.4027 38.6859 10.2694 38.994C10.1361 39.3021 10.0674 39.6342 10.0674 39.9698C10.0674 40.3055 10.1361 40.6376 10.2694 40.9457C10.4027 41.2538 10.5977 41.5313 10.8423 41.7611C11.087 41.9909 11.3761 42.1682 11.6919 42.282C12.0077 42.3957 12.3435 42.4436 12.6785 42.4226C13.6385 42.4226 14.6465 42.4226 15.6353 42.4226C15.871 42.3806 16.114 42.4282 16.3165 42.5561C16.519 42.6839 16.6663 42.8829 16.7297 43.1139C17.3081 44.5854 18.3266 45.8426 19.6462 46.7137C20.9657 47.5848 22.522 48.0274 24.1025 47.9811C25.6834 48.0301 27.241 47.5899 28.5624 46.7205C29.8837 45.851 30.9044 44.5948 31.4849 43.1235C31.546 42.8945 31.6897 42.6963 31.8882 42.567C32.0867 42.4376 32.326 42.3862 32.5601 42.4226C38.2913 42.4323 44.0129 42.4226 49.7249 42.4226H49.7633Z" fill="white"/>
</g>
<defs>
<clipPath id="clip0_1416_4744">
<rect width="80" height="80" fill="white" transform="translate(0 0.00195312)"/>
</clipPath>
</defs>
</svg>
