<svg width="65" height="63" viewBox="0 0 65 63" fill="none" xmlns="http://www.w3.org/2000/svg">
<g id="Artboard 1 copy 1" clip-path="url(#clip0_1418_4851)">
<path id="Vector" d="M19.6058 15.735L20.3589 16.0664C21.1121 16.3978 21.8653 16.7518 22.6185 17.0531C22.8664 17.1272 23.1323 17.1139 23.3716 17.0154C24.878 16.4204 26.3843 15.7953 27.8907 15.1551C28.1449 15.0434 28.3543 14.8499 28.4857 14.6053C28.8773 13.709 29.2389 12.7976 29.5552 11.8788C29.5824 11.7547 29.6562 11.6458 29.7612 11.5743C29.8663 11.5029 29.9947 11.4744 30.1201 11.4947C31.7545 11.4947 33.3889 11.4947 35.0308 11.4947C35.1659 11.4791 35.3018 11.5156 35.411 11.5968C35.5201 11.6779 35.5942 11.7976 35.6183 11.9315C35.9496 12.8353 36.281 13.7316 36.6576 14.6053C36.7714 14.8388 36.9632 15.0253 37.1999 15.1325C38.7063 15.7953 40.2478 16.4355 41.8244 17.0531C42.0505 17.136 42.2987 17.136 42.5249 17.0531C43.4061 16.6916 44.2798 16.2999 45.1459 15.8857C45.2652 15.8105 45.408 15.782 45.547 15.8056C45.686 15.8293 45.8113 15.9034 45.8991 16.0137C47.0213 17.1736 48.1586 18.3184 49.3185 19.4482C49.3781 19.4876 49.4293 19.5385 49.4689 19.598C49.5085 19.6575 49.5358 19.7243 49.5491 19.7945C49.5624 19.8648 49.5616 19.9369 49.5465 20.0068C49.5315 20.0767 49.5026 20.1428 49.4616 20.2014C49.07 21.0073 48.6632 21.896 48.3168 22.7847C48.223 23.0452 48.223 23.3302 48.3168 23.5906C48.9043 25.097 49.552 26.5581 50.1319 28.057C50.1758 28.2145 50.2579 28.3588 50.3709 28.477C50.4839 28.5953 50.6243 28.6838 50.7797 28.7348C51.6609 29.0512 52.527 29.4202 53.4082 29.7365C53.5409 29.7656 53.6575 29.8441 53.7344 29.956C53.8114 30.0679 53.8428 30.2048 53.8225 30.3391C53.8225 31.9584 53.8225 33.5702 53.8225 35.1895C53.8406 35.3345 53.8034 35.481 53.7182 35.5996C53.633 35.7183 53.5062 35.8005 53.363 35.8297C52.4592 36.1461 51.563 36.485 50.6893 36.8616C50.4571 36.9833 50.2756 37.1835 50.1771 37.4265C49.5219 38.9328 48.8967 40.4392 48.2866 41.9907C48.2003 42.2162 48.2003 42.4657 48.2866 42.6912C48.6482 43.595 49.0398 44.4837 49.4616 45.3725C49.5034 45.4301 49.5332 45.4954 49.5494 45.5647C49.5656 45.634 49.5678 45.7058 49.5558 45.7759C49.5439 45.8461 49.5181 45.9131 49.4799 45.9732C49.4418 46.0332 49.392 46.0851 49.3336 46.1256C48.1661 47.2705 47.0213 48.4379 45.8464 49.5752C45.754 49.6417 45.6477 49.6865 45.5355 49.7061C45.4233 49.7256 45.3081 49.7195 45.1986 49.6881C44.2948 49.3266 43.4136 48.8973 42.5098 48.5358C42.2668 48.4458 41.9996 48.4458 41.7566 48.5358C40.2503 49.1383 38.7439 49.7861 37.2376 50.3811C37.089 50.4231 36.9533 50.5017 36.8428 50.6095C36.7323 50.7174 36.6505 50.8512 36.6049 50.9987C36.2961 51.8799 35.9271 52.7385 35.6032 53.6197C35.5775 53.7542 35.5018 53.874 35.3915 53.955C35.2811 54.036 35.1442 54.0723 35.0082 54.0566C33.3738 54.0566 31.7394 54.0566 30.105 54.0566C29.9796 54.0768 29.8512 54.0483 29.7461 53.9769C29.6411 53.9055 29.5674 53.7965 29.5401 53.6724C29.2163 52.7686 28.8321 51.8949 28.5158 50.9911C28.4627 50.8368 28.3712 50.6985 28.25 50.5891C28.1288 50.4798 27.9819 50.403 27.8229 50.366C26.3617 49.7936 24.9081 49.1961 23.462 48.5734C23.3257 48.4849 23.1689 48.4329 23.0067 48.4223C22.8445 48.4118 22.6823 48.443 22.5356 48.5132C21.677 48.935 20.7807 49.2664 19.9221 49.6881C19.8135 49.7551 19.6838 49.779 19.5584 49.7554C19.433 49.7317 19.321 49.6621 19.2442 49.5601C18.0994 48.3927 16.9847 47.2328 15.7721 46.088C15.7142 46.0468 15.6651 45.9946 15.6277 45.9342C15.5902 45.8739 15.5652 45.8068 15.554 45.7366C15.5427 45.6665 15.5456 45.5949 15.5624 45.5259C15.5791 45.4569 15.6095 45.3919 15.6516 45.3348C16.0658 44.4536 16.4726 43.5648 16.8341 42.661C16.9163 42.4322 16.9163 42.1819 16.8341 41.953C16.2165 40.4467 15.5838 38.9027 14.9361 37.3963C14.8349 37.155 14.6542 36.9557 14.4239 36.8314C13.5427 36.4549 12.654 36.1159 11.7502 35.7996C11.607 35.7704 11.4802 35.6882 11.395 35.5695C11.3098 35.4508 11.2726 35.3044 11.2907 35.1594C11.2907 33.5401 11.2907 31.9283 11.2907 30.309C11.2704 30.1747 11.3018 30.0377 11.3788 29.9258C11.4557 29.8139 11.5723 29.7355 11.705 29.7064C12.6088 29.3826 13.505 29.0436 14.3787 28.6595C14.6299 28.5381 14.8281 28.3292 14.9361 28.072C15.5888 26.5657 16.2215 25.0468 16.8341 23.5153C16.9163 23.2865 16.9163 23.0362 16.8341 22.8073C16.465 21.9035 16.0809 21.0148 15.6516 20.1336C15.6088 20.0763 15.5781 20.011 15.5613 19.9416C15.5446 19.8721 15.5421 19.8 15.5541 19.7295C15.5661 19.6591 15.5922 19.5918 15.631 19.5318C15.6698 19.4718 15.7203 19.4203 15.7796 19.3804C16.9471 18.2356 18.0994 17.0757 19.2593 15.9158C19.3712 15.8488 19.4868 15.7885 19.6058 15.735ZM41.9449 42.6987C43.9931 40.7848 45.4025 38.2869 45.982 35.5443C46.5614 32.8016 46.2827 29.9471 45.1838 27.3683C44.0848 24.7896 42.2188 22.6115 39.8392 21.1299C37.4595 19.6482 34.6816 18.9349 31.8825 19.0867C28.9629 19.2296 26.1654 20.3021 23.8985 22.1476C21.6316 23.9931 20.014 26.5149 19.2819 29.3449C17.8735 34.8807 20.1857 40.2132 23.1984 42.661C24.5692 38.2775 27.4538 35.536 32.1085 35.3477C37.1999 35.1519 40.3934 37.9236 41.9449 42.6836V42.6987Z" fill="white"/>
<path id="Vector_2" d="M59.1098 46.4029C59.5316 46.1619 59.8028 45.9887 60.0814 45.8531C60.3024 45.7314 60.5625 45.7018 60.8051 45.771C61.0478 45.8401 61.2533 46.0023 61.3769 46.2222C61.4408 46.3246 61.4836 46.4388 61.5026 46.558C61.5217 46.6772 61.5167 46.799 61.4879 46.9162C61.4591 47.0335 61.4072 47.1438 61.3351 47.2406C61.2629 47.3374 61.1722 47.4188 61.0681 47.48C59.6521 48.3311 58.2211 49.1746 56.7825 49.973C56.6465 50.0607 56.4894 50.1102 56.3277 50.1164C56.166 50.1226 56.0055 50.0853 55.8632 50.0084C55.7208 49.9314 55.6017 49.8176 55.5183 49.6789C55.4349 49.5402 55.3903 49.3816 55.3892 49.2198C55.3364 47.5628 55.3364 45.9058 55.3892 44.2489C55.3891 44.1233 55.4142 43.999 55.4629 43.8833C55.5116 43.7676 55.583 43.6628 55.6728 43.575C55.7627 43.4873 55.8691 43.4184 55.986 43.3725C56.1028 43.3265 56.2277 43.3044 56.3532 43.3074C56.6056 43.3133 56.8454 43.4188 57.0203 43.6008C57.1953 43.7828 57.2912 44.0266 57.2872 44.279C57.2872 44.6631 57.2872 45.0322 57.2872 45.4464H57.483C57.9273 44.392 58.432 43.3676 58.7935 42.2831C61.8062 33.486 60.817 25.1534 55.826 17.2852C55.8246 17.2677 55.8246 17.25 55.826 17.2325C55.3289 16.4793 55.3364 15.9144 55.8636 15.5604C56.3909 15.2064 56.9106 15.3947 57.4152 16.1705C60.2992 20.5269 61.998 25.5597 62.344 30.7727C62.6901 35.9858 61.6714 41.199 59.3885 45.8983C59.268 46.0339 59.2228 46.1393 59.1098 46.4029Z" fill="white"/>
<path id="Vector_3" d="M46.1474 6.18486C45.929 5.80075 45.7784 5.56726 45.6503 5.32625C45.5807 5.21651 45.5338 5.09391 45.5124 4.96572C45.491 4.83753 45.4955 4.70634 45.5257 4.57993C45.5559 4.45352 45.6112 4.33445 45.6882 4.22978C45.7652 4.1251 45.8625 4.03695 45.9742 3.97053C46.0865 3.90311 46.2116 3.85986 46.3415 3.84355C46.4715 3.82723 46.6034 3.83821 46.7289 3.87578C46.8544 3.91335 46.9706 3.97668 47.0702 4.06173C47.1698 4.14678 47.2506 4.25168 47.3073 4.36971C48.1132 5.6953 48.904 7.03595 49.6798 8.3766C50.1694 9.23522 49.7777 9.94321 48.776 9.9658C47.36 10.0035 45.9441 10.0035 44.5281 10.0185C44.3699 10.0185 44.2042 10.0185 44.0461 10.0185C43.7943 10.0146 43.5541 9.91232 43.3767 9.73357C43.1994 9.55482 43.099 9.31378 43.0971 9.06199C43.095 8.93681 43.1182 8.81249 43.1652 8.69643C43.2121 8.58037 43.282 8.47494 43.3705 8.38641C43.459 8.29788 43.5645 8.22805 43.6805 8.18108C43.7966 8.13411 43.9209 8.11096 44.0461 8.11299C44.4818 8.12152 44.917 8.07598 45.3415 7.97742C45.0553 7.83432 44.7691 7.67615 44.4754 7.54811C34.9553 3.38306 25.7966 4.03832 17.0071 9.61181C16.9243 9.66453 16.8414 9.72479 16.7586 9.76998C16.6527 9.846 16.5327 9.90012 16.4057 9.92918C16.2787 9.95824 16.1471 9.96164 16.0187 9.93919C15.8904 9.91675 15.7678 9.8689 15.6581 9.79845C15.5485 9.72801 15.454 9.63639 15.3802 9.52896C15.3079 9.4226 15.2587 9.30223 15.2358 9.17566C15.213 9.04908 15.2169 8.91911 15.2474 8.79416C15.278 8.66921 15.3344 8.55206 15.4131 8.45029C15.4917 8.34852 15.5909 8.2644 15.7041 8.20337C16.8298 7.45335 17.9965 6.76689 19.1988 6.14721C27.9959 1.94449 36.8206 1.89679 45.6729 6.0041L46.1474 6.18486Z" fill="white"/>
<path id="Vector_4" d="M6.08622 18.9648C5.62678 19.2058 5.33304 19.3865 4.99412 19.5447C4.88192 19.6093 4.75785 19.6507 4.62932 19.6663C4.50078 19.682 4.37042 19.6715 4.246 19.6357C4.12158 19.5998 4.00566 19.5393 3.90515 19.4577C3.80464 19.376 3.72161 19.275 3.661 19.1606C3.60204 19.0499 3.5656 18.9287 3.55377 18.8039C3.54194 18.6791 3.55496 18.5532 3.59208 18.4334C3.62919 18.3136 3.68967 18.2024 3.77002 18.1062C3.85036 18.0099 3.94898 17.9306 4.06018 17.8727C5.46862 17.1195 6.88458 16.3136 8.31562 15.5679C8.45946 15.4709 8.62801 15.417 8.80146 15.4124C8.97491 15.4079 9.14605 15.453 9.29476 15.5423C9.44347 15.6317 9.56358 15.7617 9.64096 15.917C9.71834 16.0723 9.74978 16.2465 9.73159 16.419C9.73159 18.0308 9.67886 19.6501 9.61861 21.2619C9.6231 21.3923 9.60021 21.5222 9.55143 21.6432C9.50264 21.7642 9.42905 21.8737 9.33538 21.9645C9.24171 22.0554 9.13005 22.1255 9.0076 22.1706C8.88515 22.2156 8.75461 22.2345 8.62442 22.226C8.36186 22.2067 8.11767 22.0841 7.94541 21.885C7.77315 21.6859 7.68689 21.4266 7.70554 21.164C7.72042 20.8714 7.70019 20.5781 7.64529 20.2903C7.54738 20.4862 7.42687 20.6745 7.33649 20.8778C3.20156 30.3377 3.8267 39.4436 9.32487 48.1955C9.83703 49.0164 9.85962 49.5662 9.32487 49.9278C8.79012 50.2893 8.24783 50.1236 7.69801 49.2499C1.73287 39.7097 1.1002 29.8155 5.80001 19.5673C5.89039 19.4091 5.95818 19.251 6.08622 18.9648Z" fill="white"/>
<path id="Vector_5" d="M18.8227 59.2673C19.0713 59.7268 19.252 60.0205 19.4027 60.3519C19.4691 60.4634 19.5117 60.5875 19.5279 60.7163C19.5441 60.8451 19.5334 60.9758 19.4966 61.1003C19.4599 61.2248 19.3977 61.3403 19.3142 61.4396C19.2306 61.539 19.1274 61.6199 19.011 61.6775C18.9058 61.7378 18.7897 61.7767 18.6694 61.7919C18.5491 61.8072 18.4269 61.7984 18.31 61.7662C18.193 61.734 18.0836 61.679 17.9881 61.6043C17.8925 61.5296 17.8127 61.4367 17.7532 61.331C16.9323 59.9 16.1113 58.4614 15.3431 57.0003C15.2585 56.862 15.213 56.7033 15.2115 56.5412C15.2099 56.3791 15.2524 56.2196 15.3343 56.0797C15.4162 55.9398 15.5345 55.8248 15.6767 55.7468C15.8188 55.6689 15.9794 55.6309 16.1414 55.637C17.7984 55.637 19.4554 55.637 21.1049 55.6822C21.2311 55.685 21.3556 55.7133 21.4707 55.7652C21.5859 55.8171 21.6894 55.8917 21.7751 55.9844C21.8609 56.0772 21.9271 56.1863 21.9698 56.3051C22.0125 56.424 22.0308 56.5503 22.0237 56.6764C22.012 56.9288 21.9009 57.1664 21.7146 57.3371C21.5283 57.5079 21.282 57.598 21.0295 57.5877C20.6734 57.5823 20.3176 57.6126 19.9676 57.6781C20.1257 57.7685 20.2764 57.8589 20.4421 57.9342C29.8643 62.1444 38.9777 61.5871 47.7823 56.1793C47.9706 56.0663 48.1438 55.9308 48.3321 55.8178C48.4399 55.7371 48.5632 55.6793 48.6942 55.6481C48.8252 55.6168 48.9612 55.6127 49.0938 55.636C49.2265 55.6592 49.353 55.7094 49.4655 55.7835C49.578 55.8575 49.6742 55.9537 49.7481 56.0663C49.8222 56.1746 49.8723 56.2974 49.895 56.4266C49.9176 56.5558 49.9124 56.6884 49.8796 56.8154C49.8468 56.9424 49.7871 57.0609 49.7047 57.163C49.6222 57.265 49.5189 57.3482 49.4016 57.407C48.029 58.2931 46.6056 59.0978 45.1387 59.8171C41.1085 61.7118 36.7029 62.6733 32.2498 62.6303C27.7967 62.5873 23.4106 61.5408 19.4177 59.5686L18.8227 59.2673Z" fill="white"/>
<path id="Vector_6" d="M37.3885 29.2916C37.3826 30.2454 37.0942 31.1762 36.5597 31.9663C36.0253 32.7564 35.2688 33.3705 34.3857 33.7311C33.5026 34.0917 32.5324 34.1825 31.5977 33.9923C30.663 33.802 29.8056 33.3391 29.1337 32.6619C28.4618 31.9848 28.0056 31.1238 27.8226 30.1877C27.6396 29.2515 27.738 28.2821 28.1054 27.4018C28.4729 26.5215 29.0928 25.7698 29.8871 25.2415C30.6814 24.7133 31.6143 24.4321 32.5682 24.4336C33.2041 24.4346 33.8336 24.5612 34.4204 24.8061C35.0072 25.0511 35.5399 25.4095 35.9878 25.8609C36.4357 26.3124 36.79 26.8478 37.0304 27.4365C37.2708 28.0253 37.3925 28.6557 37.3885 29.2916Z" fill="white"/>
</g>
<defs>
<clipPath id="clip0_1418_4851">
<rect width="65" height="62.9365" fill="white"/>
</clipPath>
</defs>
</svg>
