<svg width="90" height="90" viewBox="0 0 90 90" fill="none" xmlns="http://www.w3.org/2000/svg">
<g id="Expert Team 1">
<path id="Vector" d="M46.8451 62.6695C47.3041 62.7595 47.7631 62.8495 48.2221 62.9395C53.8381 64.0465 57.9781 67.1425 60.6871 72.1735C62.1001 74.7925 62.7211 77.6095 62.6941 80.5795C62.6761 82.8565 62.6941 85.1335 62.6941 87.4015V88.0315H27.4051C27.2881 87.9325 27.3241 87.7975 27.3241 87.6805C27.3241 85.0705 27.2611 82.4605 27.3421 79.8505C27.5041 74.6035 29.6101 70.2565 33.5971 66.8275C36.2431 64.5505 39.3121 63.2365 42.7501 62.7595C42.9031 62.7415 43.0921 62.7775 43.1731 62.5705C34.5511 61.0495 31.4911 52.9225 32.5621 47.7655C33.8671 41.4385 39.1681 37.0735 45.5491 37.3525C51.7411 37.6225 56.5651 42.1765 57.5101 48.0805C58.4821 54.1105 54.6571 61.1485 46.8451 62.6695Z" fill="#FDFDFD"/>
<path id="Vector_2" d="M71.7298 72.7753C76.0768 73.4503 79.3978 75.6373 81.4768 79.5163C82.9888 82.3423 83.0788 84.8533 82.8718 88.0303H67.7968C67.5808 83.1613 68.3368 78.1933 66.5278 73.3873C67.3558 73.1263 68.1478 72.9103 69.0658 72.8023C68.6518 72.5053 68.2198 72.5683 67.8598 72.4063C67.6348 72.3073 67.3738 72.2893 67.1398 72.2173C66.5008 72.0103 66.0058 71.7223 65.6998 71.0113C64.5118 68.2843 62.7838 65.9263 60.6058 63.8923C60.2908 63.6043 60.1738 63.2533 60.1738 62.8303C60.2008 59.0863 61.7128 56.0983 64.8988 54.1183C68.5258 51.8503 72.2428 51.9043 75.8428 54.1993C79.9558 56.8273 81.5308 62.0743 79.5778 66.5653C78.1468 69.8503 75.5998 71.8213 72.0988 72.5773C71.9908 72.6043 71.8558 72.5773 71.7298 72.7753Z" fill="#FDFDFD"/>
<path id="Vector_3" d="M21.2308 72.7946C21.9508 72.9746 22.6618 73.1456 23.4808 73.3526C21.6898 78.1226 22.4008 83.0906 22.2208 88.0226H7.14577C6.83977 84.3776 7.27177 80.9216 9.53077 77.9066C11.7538 74.9366 14.7508 73.2536 18.4228 72.7226C16.5778 72.3536 14.9128 71.6786 13.4368 70.5176C9.42277 67.3676 8.39677 61.5716 11.1688 57.2696C13.2748 54.0116 16.3258 52.4186 20.2048 52.5266C24.5788 52.6616 28.4488 55.8656 29.5018 60.0956C29.7268 61.0136 29.8618 61.9316 29.8438 62.8766C29.8348 63.2816 29.7178 63.5966 29.4208 63.8756C27.7828 65.4236 26.3608 67.1426 25.2628 69.1226C24.9298 69.7166 24.5338 70.3106 24.3268 70.9496C24.0748 71.7506 23.4988 72.0296 22.8058 72.2276C22.2748 72.3806 21.7438 72.5246 21.2128 72.6686C21.2128 72.7136 21.2128 72.7496 21.2218 72.7946H21.2308Z" fill="#FDFDFD"/>
<path id="Vector_4" d="M32.9942 30.1332C32.2562 30.8802 31.6082 31.5462 30.9422 32.1942C29.1872 33.9132 27.4322 35.6232 25.6592 37.3332C25.4252 37.5582 25.4162 37.8012 25.4612 38.0712C25.7132 39.5472 25.9742 41.0232 26.2262 42.5082C26.5322 44.3352 26.8382 46.1532 27.1712 48.1062C26.1182 47.6832 25.2542 47.1432 24.3452 46.6752C22.2662 45.5952 20.1872 44.5062 18.1172 43.4082C17.8202 43.2552 17.5862 43.2642 17.3072 43.4082C15.5882 44.3262 13.8602 45.2262 12.1322 46.1352C10.8812 46.7922 9.63918 47.4402 8.28918 48.1422C8.33418 47.1612 8.55018 46.3062 8.69418 45.4512C9.09918 43.0482 9.51318 40.6452 9.93618 38.2512C10.0172 37.8012 9.91818 37.5042 9.54918 37.1712C7.09218 34.9572 4.67118 32.7072 2.24118 30.4752C2.15118 30.3942 2.03418 30.3312 2.03418 30.1242C3.29418 29.9442 4.57218 29.7732 5.84118 29.5932C7.94718 29.3052 10.0532 28.9992 12.1592 28.7472C12.7982 28.6662 13.1042 28.3782 13.3562 27.7842C13.9052 26.5062 14.5802 25.2822 15.2102 24.0312C15.9932 22.4562 16.7852 20.8722 17.5682 19.2972C17.5952 19.2432 17.6402 19.2072 17.7122 19.1172C18.2702 19.9812 18.6392 20.8992 19.0802 21.7812C20.1512 23.9142 21.1952 26.0652 22.2392 28.2072C22.3832 28.4952 22.5812 28.6392 22.9052 28.6842C25.8122 29.0892 28.7192 29.5122 31.6352 29.9262C32.0492 29.9892 32.4542 30.0522 33.0032 30.1332H32.9942Z" fill="#FDFDFD"/>
<path id="Vector_5" d="M81.7832 48.1607C80.1722 47.3147 78.6962 46.5407 77.2202 45.7757C75.7082 44.9837 74.1872 44.2007 72.6842 43.3907C72.4142 43.2467 72.1982 43.2557 71.9372 43.3907C70.1822 44.3267 68.4092 45.2447 66.6542 46.1717C65.4302 46.8107 64.1972 47.4587 62.8382 48.1697C63.0632 46.8737 63.2522 45.7127 63.4502 44.5427C63.8102 42.4457 64.1702 40.3577 64.5302 38.2607C64.6022 37.8287 64.5392 37.5047 64.1792 37.1627C61.8752 34.9667 59.6162 32.7257 57.3392 30.5027C57.2492 30.4217 57.1862 30.3137 57.0332 30.1427C57.8432 30.0167 58.5632 29.8997 59.2922 29.7917C61.8302 29.4317 64.3682 29.0537 66.9062 28.7207C67.4732 28.6487 67.7072 28.3337 67.9232 27.8747C69.2732 25.0937 70.6412 22.3217 72.0092 19.5497C72.0812 19.4057 72.1802 19.2797 72.3332 19.0547C72.8192 20.0267 73.2692 20.9267 73.7102 21.8267C74.7542 23.9507 75.7982 26.0657 76.8332 28.1987C76.9772 28.4957 77.1842 28.6307 77.4992 28.6667C79.3352 28.9007 81.1802 29.1527 83.0162 29.4047C84.6632 29.6297 86.3102 29.8727 87.9572 30.1067C88.0112 30.3767 87.7952 30.4577 87.6782 30.5657C85.2392 32.7977 82.8092 35.0297 80.3522 37.2437C79.9832 37.5767 80.0282 37.9367 80.0912 38.3237C80.3882 40.0517 80.7032 41.7707 81.0002 43.4987C81.2612 44.9927 81.5042 46.4957 81.7742 48.1607H81.7832Z" fill="#FDFDFD"/>
<path id="Vector_6" d="M29.853 12.9178C32.688 12.5128 35.505 12.0808 38.331 11.7118C40.266 11.4598 40.248 11.4868 41.049 9.82184C42.291 7.23884 43.569 4.68284 44.838 2.10884C44.865 2.05484 44.91 2.00984 44.946 1.96484C45.216 1.96484 45.225 2.21684 45.297 2.36084C46.665 5.13284 48.042 7.90484 49.374 10.6948C49.617 11.1988 49.923 11.4688 50.472 11.5408C53.379 11.9368 56.295 12.3508 59.202 12.7558C59.526 12.8008 59.85 12.8728 60.255 12.9538C59.796 13.5838 59.256 14.0158 58.761 14.5018C56.826 16.3828 54.9 18.2638 52.956 20.1358C52.632 20.4508 52.731 20.7928 52.794 21.1258C53.082 22.8268 53.388 24.5278 53.685 26.2378C53.946 27.7768 54.198 29.3068 54.477 30.9808C53.235 30.3418 52.11 29.7568 50.985 29.1718C49.086 28.1728 47.196 27.1738 45.306 26.1658C45.099 26.0578 44.946 26.0578 44.73 26.1658C41.904 27.6778 39.06 29.1718 36.225 30.6658C36.045 30.7648 35.847 30.8278 35.559 30.9448C35.694 30.0808 35.802 29.2888 35.937 28.4968C36.36 26.0308 36.792 23.5738 37.224 21.1078C37.296 20.6848 37.269 20.3518 36.9 19.9918C34.569 17.7688 32.283 15.5098 29.979 13.2688C29.898 13.1968 29.835 13.1248 29.862 12.9268L29.853 12.9178Z" fill="#FDFDFD"/>
</g>
</svg>
