<svg width="65" height="59" viewBox="0 0 65 59" fill="none" xmlns="http://www.w3.org/2000/svg">
<g id="Artboard 1 copy 4 1">
<path id="Vector" d="M0.0205078 27.1319C0.193222 26.3691 0.315561 25.5847 0.531454 24.829C1.37221 21.8371 3.22312 19.2287 5.76957 17.4471C8.31602 15.6655 11.4009 14.8207 14.4997 15.0563C20.4728 15.3729 25.7262 20.1802 26.7337 26.2396C27.0628 28.2354 26.9381 30.2797 26.3687 32.2207C25.7993 34.1617 24.8 35.9494 23.4448 37.4512C22.0897 38.9529 20.4136 40.13 18.541 40.895C16.6685 41.6601 14.6477 41.9934 12.6287 41.8702C11.6068 41.8054 10.5993 41.496 9.57737 41.3377C9.25402 41.2789 8.9208 41.3087 8.61304 41.424C7.40404 41.9565 6.22383 42.5467 4.92128 43.1656C5.20194 42.0573 5.44662 41.0498 5.73447 40.0495C5.79891 39.8957 5.80364 39.7235 5.74774 39.5664C5.69183 39.4093 5.57932 39.2788 5.43222 39.2003C3.96265 38.1242 2.73202 36.7552 1.81793 35.1797C0.903845 33.6042 0.326143 31.8564 0.121258 30.0465C0.0976816 29.9286 0.0639731 29.8131 0.0205078 29.701V27.1319ZM18.3858 29.3268C18.6255 29.3406 18.8658 29.3406 19.1054 29.3268C19.3218 29.3158 19.5259 29.2225 19.6757 29.0659C19.8255 28.9094 19.9099 28.7015 19.9114 28.4848C19.9265 28.3776 19.9196 28.2685 19.8912 28.164C19.8628 28.0595 19.8134 27.9619 19.7461 27.8771C19.6788 27.7923 19.5949 27.7221 19.4997 27.6707C19.4044 27.6193 19.2996 27.5878 19.1918 27.5781C18.6709 27.5133 18.1439 27.5133 17.623 27.5781C17.5151 27.5878 17.4104 27.6193 17.3151 27.6707C17.2198 27.7221 17.136 27.7923 17.0687 27.8771C17.0014 27.9619 16.952 28.0595 16.9236 28.164C16.8952 28.2685 16.8883 28.3776 16.9033 28.4848C16.9031 28.702 16.9869 28.9109 17.1371 29.0678C17.2873 29.2247 17.4923 29.3175 17.7093 29.3268C17.9346 29.342 18.1606 29.342 18.3858 29.3268ZM8.4979 29.3268C8.6994 29.3268 8.9081 29.3268 9.1096 29.3268C9.3442 29.3349 9.57277 29.2516 9.74725 29.0946C9.92172 28.9376 10.0285 28.719 10.0451 28.4848C10.0531 28.3623 10.0356 28.2394 9.99388 28.1239C9.95214 28.0084 9.88702 27.9028 9.80258 27.8136C9.71814 27.7245 9.61621 27.6537 9.50316 27.6057C9.39011 27.5578 9.26838 27.5337 9.14558 27.5349C8.70268 27.4953 8.25714 27.4953 7.81424 27.5349C7.70021 27.54 7.58847 27.5686 7.48603 27.619C7.3836 27.6693 7.29269 27.7404 7.21902 27.8275C7.14535 27.9147 7.09051 28.0162 7.05795 28.1256C7.0254 28.235 7.01582 28.35 7.02983 28.4632C7.03077 28.5757 7.05386 28.6869 7.09776 28.7904C7.14167 28.894 7.20555 28.9878 7.28574 29.0667C7.36593 29.1456 7.46087 29.2078 7.56513 29.25C7.66939 29.2922 7.78094 29.3134 7.8934 29.3124C8.08771 29.3412 8.31079 29.3268 8.49071 29.3268H8.4979ZM13.5354 29.3268C13.7368 29.3376 13.9385 29.3376 14.1399 29.3268C14.2523 29.3278 14.3638 29.3063 14.4677 29.2635C14.5716 29.2207 14.666 29.1575 14.7451 29.0777C14.8242 28.9979 14.8866 28.9031 14.9285 28.7988C14.9704 28.6945 14.991 28.5828 14.9891 28.4704C15.0041 28.3636 14.9972 28.2548 14.9687 28.1508C14.9402 28.0467 14.8908 27.9496 14.8234 27.8654C14.756 27.7811 14.6721 27.7116 14.5768 27.6609C14.4816 27.6103 14.377 27.5796 14.2694 27.5709C13.7485 27.5061 13.2215 27.5061 12.7006 27.5709C12.5913 27.5784 12.4847 27.6087 12.3878 27.6599C12.2909 27.7111 12.2058 27.7821 12.138 27.8682C12.0702 27.9543 12.0212 28.0537 11.9942 28.1599C11.9671 28.2661 11.9626 28.3768 11.981 28.4848C11.979 28.7007 12.0614 28.9088 12.2106 29.0647C12.3598 29.2206 12.5641 29.3121 12.7798 29.3196C13.024 29.3399 13.2693 29.3423 13.5138 29.3268H13.5354Z" fill="white"/>
<path id="Vector_2" d="M19.7604 57.4368C19.9259 56.2206 20.0627 55.1483 20.2138 54.0761C20.3433 53.1549 20.0339 52.7663 19.1199 52.7591C18.0261 52.7591 16.961 52.7591 15.8096 52.7591V43.5189C18.1172 43.1495 20.3107 42.2606 22.2244 40.9191C24.1381 39.5777 25.7219 37.8189 26.8561 35.7755C26.9222 35.6633 27.0117 35.5667 27.1185 35.4922C27.2253 35.4177 27.3469 35.3671 27.475 35.3438C31.1739 35.3437 34.8801 35.3438 38.5791 35.3438C38.6708 35.3509 38.7621 35.3629 38.8525 35.3797V52.7591H38.1329C34.2468 52.7591 30.3607 52.7591 26.4747 52.7591C26.1226 52.7452 25.7714 52.8017 25.4414 52.9253C25.1115 53.0489 24.8095 53.237 24.5532 53.4787C23.1787 54.6949 21.7538 55.8464 20.3505 57.0194C20.1922 57.1058 20.0339 57.1921 19.7604 57.4368ZM28.5329 44.7351C28.7344 44.7351 28.9359 44.7351 29.1374 44.7351C29.2545 44.7361 29.3706 44.7136 29.4789 44.669C29.5872 44.6244 29.6855 44.5586 29.768 44.4755C29.8505 44.3923 29.9155 44.2935 29.9592 44.1848C30.0029 44.0762 30.0244 43.9598 30.0225 43.8427C30.0264 43.7298 30.0075 43.6172 29.9669 43.5117C29.9263 43.4062 29.8649 43.3099 29.7863 43.2287C29.7077 43.1474 29.6136 43.0828 29.5095 43.0387C29.4055 42.9946 29.2936 42.9719 29.1805 42.972C28.7372 42.9432 28.2925 42.9432 27.8492 42.972C27.6163 42.972 27.393 43.0645 27.2284 43.2291C27.0637 43.3938 26.9712 43.6171 26.9712 43.8499C26.9712 44.0828 27.0637 44.3061 27.2284 44.4707C27.393 44.6354 27.6163 44.7279 27.8492 44.7279C28.0867 44.7495 28.3098 44.7351 28.5329 44.7351ZM23.5457 44.7351C23.7688 44.7351 23.9919 44.7351 24.215 44.7351C24.3269 44.7402 24.4387 44.7219 24.5432 44.6814C24.6476 44.6409 24.7425 44.5791 24.8218 44.4999C24.901 44.4206 24.9628 44.3258 25.0033 44.2213C25.0438 44.1168 25.0621 44.005 25.057 43.8931C25.0734 43.7811 25.0657 43.6669 25.0343 43.5582C25.0029 43.4494 24.9485 43.3487 24.8748 43.2628C24.8012 43.1768 24.7099 43.1077 24.6073 43.06C24.5046 43.0123 24.3929 42.9872 24.2798 42.9864C23.8008 42.9472 23.3194 42.9472 22.8405 42.9864C22.7326 42.9898 22.6266 43.0153 22.529 43.0613C22.4313 43.1072 22.3441 43.1726 22.2727 43.2535C22.2012 43.3344 22.1471 43.429 22.1135 43.5316C22.08 43.6341 22.0678 43.7425 22.0777 43.8499C22.0687 43.962 22.0831 44.0748 22.1199 44.1811C22.1568 44.2873 22.2152 44.3848 22.2917 44.4673C22.3681 44.5498 22.4608 44.6156 22.5639 44.6604C22.6671 44.7053 22.7784 44.7283 22.8909 44.7279C23.0996 44.7495 23.3298 44.7279 23.5457 44.7279V44.7351ZM33.4264 44.7351C33.6661 44.7492 33.9064 44.7492 34.1461 44.7351C34.3577 44.7078 34.5522 44.6044 34.6932 44.4441C34.8341 44.2839 34.9119 44.0777 34.9119 43.8643C34.9119 43.6509 34.8341 43.4448 34.6932 43.2845C34.5522 43.1243 34.3577 43.0208 34.1461 42.9936C33.6671 42.9548 33.1858 42.9548 32.7068 42.9936C32.5993 42.9971 32.4937 43.0224 32.3962 43.0678C32.2987 43.1132 32.2114 43.1778 32.1395 43.2578C32.0676 43.3378 32.0125 43.4314 31.9777 43.5332C31.9429 43.6349 31.929 43.7427 31.9368 43.8499C31.9298 43.964 31.9465 44.0783 31.9859 44.1856C32.0252 44.2928 32.0864 44.3908 32.1655 44.4733C32.2446 44.5558 32.3399 44.621 32.4455 44.6648C32.551 44.7086 32.6645 44.7301 32.7787 44.7279C32.9802 44.7495 33.2105 44.7279 33.4264 44.7279V44.7351Z" fill="white"/>
<path id="Vector_3" d="M53.7487 20.8142C52.5828 20.9725 51.5034 21.1236 50.4167 21.2603C47.9843 21.5842 45.5447 21.8936 43.1123 22.2247C42.942 22.2809 42.7568 22.2714 42.5931 22.1982C42.4294 22.125 42.2989 21.9933 42.2272 21.8289C40.9822 19.6124 39.694 17.4247 38.4419 15.2153C38.3864 15.1112 38.3574 14.9951 38.3574 14.8771C38.3574 14.7592 38.3864 14.643 38.4419 14.5389C40.6008 11.6603 42.7597 8.84651 44.9186 6.01112C44.9784 5.95677 45.0435 5.90855 45.1129 5.86719L53.7487 20.8142Z" fill="white"/>
<path id="Vector_4" d="M49.906 50.7151L44.7462 48.2395C43.5516 47.671 42.3642 47.0881 41.148 46.5412C40.9961 46.4966 40.8647 46.4002 40.7766 46.2687C40.6885 46.1372 40.6493 45.979 40.6658 45.8215C40.6658 44.6053 40.6658 43.382 40.6658 42.1586C40.6736 42.0482 40.7053 41.9408 40.7587 41.8438C40.8121 41.7469 40.886 41.6628 40.9753 41.5972C43.8538 40.1939 46.7324 38.8122 49.6541 37.4305C49.7221 37.4106 49.7921 37.3985 49.8628 37.3945L49.906 50.7151Z" fill="white"/>
<path id="Vector_5" d="M40.8027 22.9441C39.4786 23.6638 38.2264 24.4986 36.8951 25.1031C36.0049 25.5063 34.9967 25.5646 34.066 25.2668C33.1353 24.9689 32.3483 24.3362 31.8576 23.4911C31.3465 22.6649 31.1629 21.6774 31.3426 20.7227C31.5224 19.768 32.0526 18.915 32.8291 18.3312C34.0597 17.4533 35.4198 16.7624 36.7655 15.9492C38.1257 18.3312 39.457 20.6053 40.8027 22.9441Z" fill="white"/>
<path id="Vector_6" d="M39.4351 25.8019L41.7019 24.4922L45.4513 30.969C44.7964 31.0265 44.2207 31.0985 43.645 31.1201C43.5688 31.1152 43.4943 31.0948 43.4263 31.0602C43.3582 31.0255 43.298 30.9773 43.2492 30.9186C41.9898 29.2562 40.7376 27.5507 39.4351 25.8019Z" fill="white"/>
<path id="Vector_7" d="M60.4848 5.97656C60.7466 6.17724 60.9728 6.42051 61.154 6.69621C61.2397 6.88626 61.247 7.10245 61.1742 7.29782C61.1014 7.49319 60.9545 7.65197 60.7654 7.73969C60.0458 8.17867 59.3261 8.59606 58.5633 9.02065C58.1099 9.28692 57.6566 9.56758 57.1888 9.80506C56.9829 9.91739 56.7414 9.9449 56.5155 9.88172C56.2897 9.81854 56.0975 9.66967 55.9798 9.46683C55.919 9.36652 55.8793 9.25488 55.863 9.13871C55.8468 9.02255 55.8544 8.90429 55.8854 8.79116C55.9164 8.67803 55.9701 8.5724 56.0432 8.4807C56.1164 8.38901 56.2074 8.31318 56.3108 8.25783C57.4982 7.53819 58.6928 6.87612 59.909 6.19245C60.0961 6.10806 60.2884 6.03594 60.4848 5.97656Z" fill="white"/>
<path id="Vector_8" d="M51.7556 5.98894C51.0359 5.98894 50.5682 5.478 50.7049 4.90948C51.0359 3.52776 51.4245 2.16044 51.8059 0.807513C51.8337 0.69691 51.8848 0.59353 51.9558 0.504326C52.0269 0.415121 52.1162 0.342159 52.2178 0.290345C52.3193 0.238532 52.4308 0.209068 52.5448 0.203935C52.6587 0.198802 52.7724 0.218118 52.8782 0.260585C52.9849 0.277924 53.0867 0.317528 53.1771 0.376821C53.2675 0.436113 53.3443 0.513764 53.4027 0.604725C53.4611 0.695685 53.4997 0.797916 53.5159 0.904767C53.5322 1.01162 53.5258 1.1207 53.4971 1.22491C53.1589 2.66419 52.7775 4.04591 52.3601 5.43482C52.2809 5.70109 51.8923 5.8666 51.7556 5.98894Z" fill="white"/>
<path id="Vector_9" d="M62.5285 16.3515C62.5285 17.0352 62.0751 17.4957 61.521 17.3662C60.0817 17.0352 58.6856 16.6466 57.2895 16.2364C57.1802 16.2011 57.08 16.1424 56.9956 16.0645C56.9113 15.9866 56.8449 15.8913 56.8011 15.7852C56.7573 15.6791 56.7371 15.5647 56.7419 15.45C56.7467 15.3353 56.7764 15.223 56.8289 15.1209C56.8663 15.0082 56.9266 14.9044 57.0059 14.816C57.0853 14.7276 57.182 14.6565 57.2901 14.6072C57.3982 14.5579 57.5152 14.5314 57.634 14.5294C57.7528 14.5274 57.8707 14.5499 57.9803 14.5956C59.2397 14.9194 60.4919 15.2648 61.7441 15.6103C61.9205 15.6505 62.0839 15.7346 62.219 15.855C62.3408 16.0081 62.4446 16.1747 62.5285 16.3515Z" fill="white"/>
<path id="Vector_10" d="M52.3025 14.7331L49.6902 10.1777C51.5541 10.2065 53.0509 12.7613 52.3025 14.7331Z" fill="white"/>
</g>
</svg>
