<svg width="65" height="65" viewBox="0 0 65 65" fill="none" xmlns="http://www.w3.org/2000/svg">
<g id="Artboard 1 copy 4 8">
<path id="Vector" d="M62.0297 22.8081V24.8881C61.9972 25.0311 61.9452 25.1741 61.9192 25.3236C61.1977 29.4446 58.8837 32.2786 54.9317 33.6566C53.7943 33.9888 52.6191 34.1745 51.4347 34.2091C50.3297 34.3001 49.2182 34.2091 48.0482 34.2091V39.4091H16.9002V34.2351C15.6002 34.2351 14.4172 34.2351 13.2082 34.2351C11.7155 34.2585 10.2706 34.7647 9.08961 35.678C7.90867 36.5912 7.05526 37.8623 6.65714 39.3011C6.25902 40.7399 6.3376 42.269 6.88112 43.6594C7.42464 45.0498 8.40386 46.2268 9.6722 47.0141C10.7689 47.7216 12.0461 48.0984 13.3512 48.0996C14.5342 48.0996 15.7172 48.0996 16.9392 48.0996V42.8996H48.1002V48.0996H51.5062V51.5706H48.0612V56.7056H16.9002V51.5381C15.6457 51.5381 14.4562 51.5381 13.2667 51.5381C10.9709 51.5152 8.74715 50.7331 6.94233 49.314C5.13751 47.8948 3.85303 45.9183 3.2892 43.6926C3.1722 43.2311 3.0747 42.7696 2.9707 42.3081V40.0006C3.01505 39.8979 3.04987 39.7913 3.0747 39.6821C3.4315 37.2147 4.66278 34.9576 6.54425 33.3219C8.42571 31.6862 10.8322 30.7808 13.3252 30.7706C14.5147 30.7706 15.6977 30.7706 16.9457 30.7706V25.6226H48.1002V30.7641C49.4002 30.7641 50.5962 30.7641 51.8182 30.7641C53.2475 30.7282 54.6307 30.2511 55.7781 29.3981C56.9256 28.5451 57.781 27.358 58.2272 25.9996C58.6597 24.6351 58.6636 23.1708 58.2382 21.804C57.8128 20.4372 56.9787 19.2337 55.8482 18.3556C53.4887 16.5226 50.7652 17.0036 48.0482 16.9581V22.0996H16.9002V16.8996H13.5007V13.4481H16.9587V8.30664H48.1002V13.4676C49.4002 13.4676 50.5767 13.4676 51.7857 13.4676C54.0643 13.5022 56.2685 14.2842 58.0594 15.6934C59.8503 17.1026 61.1287 19.0611 61.6982 21.2676C61.8217 21.7616 61.9192 22.2881 62.0297 22.8081Z" fill="white"/>
<path id="Vector_2" d="M2.9707 11.6219C3.5362 11.0889 4.1082 10.5624 4.6737 10.0229C4.9077 9.80189 5.1287 9.55489 5.4017 9.27539L11.5897 15.1904L5.3887 21.1314L2.9707 18.6549V18.5444C3.15244 18.4166 3.3261 18.2776 3.4907 18.1284C4.4657 17.1664 5.44287 16.1936 6.4222 15.2099L2.9707 11.7324V11.6219Z" fill="white"/>
<path id="Vector_3" d="M62.0294 49.9199C61.8539 50.0564 61.6589 50.1669 61.4964 50.3164L56.2964 55.2954L55.8934 55.6659L53.5014 53.2999C54.6259 52.2079 55.7829 51.0964 56.9594 49.9654L53.4624 46.4879L55.9519 44.0049C57.6289 45.6169 59.3709 47.2939 61.1519 48.9579C61.4314 49.2309 61.7564 49.4649 62.0554 49.7184L62.0294 49.9199Z" fill="white"/>
</g>
</svg>
