<svg width="65" height="65" viewBox="0 0 65 65" fill="none" xmlns="http://www.w3.org/2000/svg">
<g id="Artboard 1 copy 23">
<path id="Vector" d="M61.0481 58.5004C60.8653 58.9464 60.5412 59.3202 60.1256 59.5644C59.71 59.8086 59.2258 59.9098 58.7471 59.8524C41.2231 59.8524 23.6991 59.8524 6.17514 59.8524C5.84679 59.8659 5.51826 59.8308 5.20014 59.7484C4.80309 59.6298 4.46131 59.3736 4.23615 59.0258C4.01099 58.6779 3.91721 58.2612 3.97164 57.8504C4.02337 57.4411 4.21562 57.0624 4.51556 56.779C4.8155 56.4957 5.20451 56.3253 5.61614 56.2969C5.81764 56.2969 6.02564 56.2969 6.22714 56.2969C23.7381 56.2969 41.2448 56.2969 58.7471 56.2969C59.2258 56.2396 59.71 56.3407 60.1256 56.5849C60.5412 56.8291 60.8653 57.2029 61.0481 57.6489V58.5004Z" fill="white"/>
<path id="Vector_2" d="M39.6501 52.6951H25.3501V32.2266C25.3501 30.1336 26.5396 28.9766 28.6001 28.9766H36.4001C38.4476 28.9766 39.6501 30.1791 39.6501 32.2266V52.6951Z" fill="white"/>
<path id="Vector_3" d="M47.2678 10.5231C46.5073 9.76905 45.7338 9.02805 44.9863 8.25455C44.7968 8.08882 44.6457 7.88386 44.5434 7.6539C44.4411 7.42393 44.39 7.17446 44.3937 6.92278C44.3974 6.6711 44.4558 6.42324 44.5649 6.19639C44.6739 5.96954 44.831 5.76913 45.0253 5.60905C45.4004 5.32516 45.855 5.16603 46.3253 5.15405C49.0228 5.11505 51.7138 5.15405 54.4113 5.15405C54.67 5.13465 54.9298 5.17222 55.1725 5.26411C55.4151 5.356 55.6346 5.49997 55.8156 5.68589C55.9965 5.87181 56.1345 6.09515 56.2198 6.34018C56.3051 6.5852 56.3357 6.84595 56.3093 7.10405C56.3093 9.78205 56.3093 12.4579 56.3093 15.1316C56.3325 15.5115 56.2324 15.8889 56.0239 16.2074C55.8155 16.5259 55.5098 16.7687 55.1523 16.8996C54.8036 17.0376 54.4206 17.0629 54.0568 16.9719C53.693 16.881 53.3669 16.6784 53.1243 16.3926C52.3313 15.5996 51.5318 14.8001 50.6998 13.9486C50.5308 14.0981 50.3813 14.2216 50.2383 14.3581C47.9308 16.5421 45.6168 18.7196 43.3223 20.9166C43.0068 21.2442 42.617 21.4909 42.1859 21.6357C41.7547 21.7806 41.295 21.8193 40.8458 21.7486C35.6783 21.0986 30.5498 20.4811 25.3498 19.8571C24.5763 19.7596 23.8028 19.6491 23.0228 19.6101C22.7239 19.5997 22.4311 19.6966 22.1973 19.8831C19.0448 22.6521 15.9183 25.4536 12.7723 28.2356C12.5467 28.478 12.2731 28.6707 11.9688 28.8013C11.6645 28.9319 11.3363 28.9976 11.0052 28.9941C10.6741 28.9906 10.3474 28.918 10.046 28.781C9.7445 28.644 9.47498 28.4456 9.25462 28.1984C9.03427 27.9512 8.86794 27.6608 8.76627 27.3457C8.66461 27.0305 8.62985 26.6976 8.66422 26.3683C8.69859 26.039 8.80133 25.7204 8.96587 25.4331C9.13042 25.1457 9.35313 24.8959 9.61977 24.6996L16.1588 18.8496C17.4068 17.7446 18.6808 16.6526 19.8963 15.5086C20.226 15.1823 20.6278 14.9382 21.0693 14.7959C21.5108 14.6536 21.9796 14.6172 22.4378 14.6896C28.3744 15.4392 34.3089 16.1759 40.2413 16.8996C40.4357 16.9218 40.6313 16.8683 40.7873 16.7501C42.9149 14.7524 45.0339 12.7482 47.1443 10.7376C47.195 10.672 47.2365 10.5998 47.2678 10.5231Z" fill="white"/>
<path id="Vector_4" d="M58.6755 52.7017H44.3755V52.1037C44.3755 47.0467 44.3755 41.9919 44.3755 36.9392C44.3755 34.8917 45.578 33.6892 47.6255 33.6892H55.406C55.842 33.6527 56.2807 33.7117 56.6916 33.8622C57.1025 34.0126 57.4756 34.2508 57.785 34.5602C58.0944 34.8696 58.3326 35.2427 58.483 35.6536C58.6335 36.0644 58.6925 36.5032 58.656 36.9392C58.656 42.0092 58.656 47.0814 58.656 52.1557L58.6755 52.7017Z" fill="white"/>
<path id="Vector_5" d="M20.5727 52.7023H6.32471V52.1693C6.32471 50.2193 6.32471 48.3408 6.32471 46.4298C6.32471 44.4213 7.54671 43.2188 9.57471 43.2188H17.3747C19.4092 43.2188 20.6247 44.4018 20.6247 46.4298C20.6247 48.3408 20.6247 50.2518 20.6247 52.1693C20.5987 52.3318 20.5857 52.4943 20.5727 52.7023Z" fill="white"/>
</g>
</svg>
