<svg width="60" height="60" viewBox="0 0 60 60" fill="none" xmlns="http://www.w3.org/2000/svg">
<g id="Artboard 1 copy 2 16">
<path id="Vector" d="M21.3359 56.4C20.9382 56.2536 20.6024 55.9757 20.3841 55.6123C20.1659 55.249 20.0783 54.822 20.1359 54.402C20.1359 52.8 20.1359 51.198 20.7359 49.68C22.3019 45.816 25.2119 43.734 29.3939 43.23C28.5955 43.1484 27.8225 42.9027 27.1235 42.5083C26.4245 42.1138 25.8146 41.5793 25.3319 40.938C24.8631 40.2981 24.5334 39.5671 24.364 38.7921C24.1945 38.0171 24.189 37.2153 24.3479 36.438C24.5853 35.0825 25.3123 33.8613 26.3907 33.0063C27.4691 32.1513 28.8239 31.7221 30.1979 31.8C31.5576 31.8512 32.8552 32.3825 33.8603 33.2997C34.8654 34.2169 35.5129 35.4607 35.6879 36.81C36.0539 39.99 34.2839 42.288 30.6599 43.302C31.9537 43.3891 33.2173 43.7326 34.3772 44.3125C35.537 44.8924 36.57 45.6972 37.4159 46.68C38.9048 48.3519 39.7548 50.4962 39.8159 52.734C39.8159 53.334 39.8159 53.874 39.8159 54.432C39.8868 54.8542 39.805 55.2878 39.5851 55.6551C39.3652 56.0224 39.0215 56.2993 38.6159 56.436L21.3359 56.4Z" fill="white"/>
<path id="Vector_2" d="M42.6899 56.3996C43.3439 52.4696 42.8159 48.7796 40.4219 45.4316C41.9832 44.1669 43.8956 43.4129 45.8999 43.2716C45.274 43.1167 44.6604 42.9161 44.0639 42.6716C43.4673 42.374 42.9208 41.9853 42.4439 41.5196C42.0017 41.0419 41.6481 40.4893 41.3999 39.8876C41.1334 39.2748 40.9712 38.6218 40.9199 37.9556C40.8755 37.2866 40.9342 36.6147 41.0939 35.9636C41.4283 34.6865 42.1997 33.567 43.274 32.7997C44.3482 32.0324 45.6574 31.6658 46.9739 31.7636C48.313 31.8618 49.5766 32.4214 50.5493 33.347C51.5219 34.2726 52.1435 35.507 52.3079 36.8396C52.5779 39.4496 51.1079 42.5276 47.2379 43.2596C49.5026 43.419 51.6434 44.3528 53.3009 45.9043C54.9583 47.4558 56.0314 49.5303 56.3399 51.7796C56.3616 51.876 56.3918 51.9704 56.4299 52.0616V55.2596C56.1907 55.7645 55.7805 56.1683 55.2719 56.3996H42.6899Z" fill="white"/>
<path id="Vector_3" d="M3.6001 52.0739C3.7501 51.4079 3.8521 50.7299 4.0621 50.0819C4.67177 48.2445 5.80431 46.6249 7.32089 45.4216C8.83747 44.2184 10.6722 43.4838 12.6001 43.3079L12.8821 43.2779C9.1441 42.2399 7.3801 40.0259 7.7461 36.8819C7.8797 35.4881 8.52538 34.1933 9.55828 33.248C10.5912 32.3026 11.9379 31.7738 13.3381 31.7639C14.6802 31.7524 15.9847 32.2065 17.0295 33.0489C18.0743 33.8914 18.7947 35.0699 19.0681 36.3839C19.2263 37.1609 19.2193 37.9626 19.0478 38.7367C18.8762 39.5109 18.5438 40.2404 18.0721 40.8779C17.6144 41.5173 17.0337 42.0589 16.364 42.471C15.6943 42.8831 14.9491 43.1574 14.1721 43.2779C16.1539 43.4329 18.0397 44.1956 19.5721 45.4619C17.1721 48.7799 16.6441 52.4879 17.3041 56.4299H4.7041C4.21269 56.1839 3.82232 55.7745 3.6001 55.2719V52.0739Z" fill="white"/>
<path id="Vector_4" d="M3.6001 24.222C3.7201 23.622 3.8161 22.98 3.9721 22.368C4.45746 20.3832 5.57267 18.609 7.15077 17.311C8.72886 16.0131 10.6849 15.2612 12.7261 15.168C14.0175 15.0482 15.3198 15.1913 16.5544 15.5887C17.789 15.9861 18.9303 16.6295 19.9093 17.4801C20.8884 18.3308 21.6849 19.371 22.2508 20.538C22.8168 21.705 23.1404 22.9745 23.2021 24.27C23.2621 25.02 23.2681 25.776 23.2621 26.532C23.2823 26.7609 23.2521 26.9913 23.1736 27.2072C23.0951 27.4231 22.9702 27.6192 22.8077 27.7817C22.6453 27.9441 22.4492 28.069 22.2333 28.1475C22.0174 28.226 21.7869 28.2562 21.5581 28.236C16.1581 28.236 10.7581 28.236 5.3161 28.236C4.94987 28.2458 4.58937 28.1437 4.28274 27.9432C3.97611 27.7427 3.73796 27.4534 3.6001 27.114V24.222Z" fill="white"/>
<path id="Vector_5" d="M14.112 3.59961C15.1428 3.77756 16.1195 4.18794 16.968 4.79961C18.0385 5.63968 18.7755 6.83298 19.0474 8.16635C19.3192 9.49972 19.1081 10.8863 18.4519 12.0784C17.7956 13.2705 16.7369 14.1904 15.4649 14.6739C14.1929 15.1574 12.7904 15.1729 11.508 14.7176C10.2361 14.2826 9.16243 13.4058 8.48203 12.2464C7.80162 11.0871 7.55963 9.72218 7.8 8.39961C7.95893 7.20487 8.50495 6.09511 9.35449 5.24015C10.204 4.38519 11.3103 3.83214 12.504 3.66561C12.5951 3.64843 12.6852 3.6264 12.774 3.59961H14.112Z" fill="white"/>
<path id="Vector_6" d="M56.4 5.44761C56.088 6.38361 55.416 6.69561 54.456 6.69561C44.732 6.69561 35.006 6.69561 25.278 6.69561C24.078 6.69561 23.376 5.98761 23.478 4.94361C23.5251 4.63334 23.6587 4.34263 23.8635 4.10489C24.0684 3.86715 24.3361 3.69201 24.636 3.59961H55.272C55.5394 3.70838 55.7792 3.87513 55.9743 4.08784C56.1693 4.30054 56.3148 4.55389 56.4 4.82961V5.44761Z" fill="white"/>
<path id="Vector_7" d="M26.7959 9.80371H53.0999V23.0457C53.0999 24.3417 52.4999 24.9237 51.2039 24.9237H41.4659C41.4659 25.5897 41.4659 26.2197 41.4659 26.8497C41.4511 27.1622 41.3329 27.4608 41.1297 27.6987C40.9266 27.9366 40.6502 28.1002 40.3439 28.1637C40.0436 28.2532 39.7223 28.2432 39.4282 28.135C39.134 28.0269 38.8827 27.8265 38.7119 27.5637C38.5379 27.2234 38.4319 26.8525 38.3999 26.4717C38.3519 25.9797 38.3999 25.4817 38.3999 24.9237H28.6619C27.3839 24.9237 26.7959 24.3237 26.7959 23.0697V9.80371ZM38.2799 17.8317C39.0479 18.6177 39.7499 19.3497 40.4699 20.0577C40.5987 20.2049 40.7553 20.3252 40.9308 20.4116C41.1063 20.498 41.2972 20.5488 41.4924 20.5611C41.6876 20.5733 41.8833 20.5468 42.0683 20.4831C42.2532 20.4194 42.4237 20.3197 42.5699 20.1897C43.7699 19.0437 44.9699 17.8557 46.1039 16.6557C46.2951 16.4518 46.4199 16.1945 46.4617 15.9181C46.5034 15.6417 46.4603 15.3591 46.3379 15.1077C46.2414 14.848 46.0727 14.6213 45.8515 14.4544C45.6304 14.2875 45.3661 14.1873 45.0899 14.1657C44.8332 14.1359 44.5732 14.1695 44.3326 14.2636C44.0919 14.3578 43.8781 14.5096 43.7099 14.7057C43.0139 15.4137 42.3179 16.1097 41.5979 16.8237C40.8479 16.0677 40.1519 15.3537 39.4379 14.6577C39.2943 14.4954 39.1179 14.3654 38.9204 14.2764C38.7228 14.1874 38.5086 14.1414 38.2919 14.1414C38.0752 14.1414 37.861 14.1874 37.6634 14.2764C37.4659 14.3654 37.2895 14.4954 37.1459 14.6577C36.0599 15.7317 34.9799 16.8177 33.8999 17.8977C33.7162 18.0684 33.5786 18.2828 33.4999 18.5209C33.4213 18.759 33.4041 19.0132 33.4499 19.2597C33.4867 19.5357 33.6018 19.7953 33.7814 20.008C33.9611 20.2206 34.1979 20.3774 34.4639 20.4597C34.7396 20.5638 35.04 20.584 35.3272 20.5178C35.6144 20.4517 35.8756 20.302 36.0779 20.0877C36.8039 19.3497 37.5179 18.5997 38.2799 17.8317Z" fill="white"/>
</g>
</svg>
