<svg width="60" height="60" viewBox="0 0 60 60" fill="none" xmlns="http://www.w3.org/2000/svg">
<g id="Artboard 1 22">
<path id="Vector" d="M18.8519 31.7039H11.4419C10.7362 31.7342 10.0318 31.618 9.37325 31.3625C8.71468 31.107 8.1162 30.7178 7.61558 30.2195C7.11496 29.7211 6.72306 29.1244 6.46461 28.467C6.20615 27.8096 6.08675 27.1057 6.11393 26.3999C6.11393 21.4199 6.11393 16.4439 6.11393 11.4719C6.08242 10.763 6.19882 10.0553 6.45573 9.39392C6.71263 8.73251 7.10442 8.13182 7.60616 7.63008C8.10789 7.12835 8.70858 6.73656 9.37 6.47965C10.0314 6.22274 10.7391 6.10634 11.4479 6.13786H26.3999C27.1083 6.1072 27.8153 6.22424 28.476 6.48153C29.1367 6.73882 29.7367 7.13074 30.2377 7.63238C30.7388 8.13402 31.1301 8.73442 31.3866 9.39541C31.6431 10.0564 31.7594 10.7635 31.7279 11.4719C31.7279 16.4519 31.7279 21.4279 31.7279 26.3999C31.7551 27.1057 31.6357 27.8096 31.3773 28.467C31.1188 29.1244 30.7269 29.7211 30.2263 30.2195C29.7257 30.7178 29.1272 31.107 28.4686 31.3625C27.81 31.618 27.1057 31.7342 26.3999 31.7039H18.8519ZM19.7999 20.9999L22.9799 18.8939C24.8519 17.6459 24.9299 17.6459 26.7899 18.9419C27.2579 19.2719 27.7319 19.5899 28.2719 19.9619C28.2719 16.9319 28.2719 14.0159 28.2719 11.1059C28.2638 10.8811 28.2101 10.6603 28.1141 10.4569C28.0182 10.2535 27.8819 10.0717 27.7136 9.92246C27.5454 9.77325 27.3485 9.65974 27.1351 9.58882C26.9217 9.5179 26.6961 9.49104 26.4719 9.50986H11.3579C11.1174 9.49395 10.8763 9.5296 10.6507 9.61443C10.4251 9.69926 10.2202 9.83131 10.0498 10.0017C9.87939 10.1722 9.74734 10.377 9.66251 10.6026C9.57768 10.8282 9.54202 11.0694 9.55793 11.3099C9.55793 13.9539 9.55793 16.6019 9.55793 19.2539C9.56495 19.3987 9.58098 19.543 9.60593 19.6859L13.2839 16.9259C14.4839 16.0319 15.1619 16.0619 16.2059 17.1299C17.3999 18.4259 18.5999 19.7159 19.7999 20.9999Z" fill="white"/>
<path id="Vector_2" d="M53.8861 18.9423C53.8861 21.4143 53.8861 23.8803 53.8861 26.3523C53.9196 27.0651 53.8037 27.7769 53.5458 28.4422C53.2879 29.1075 52.8938 29.7116 52.3886 30.2155C51.8835 30.7195 51.2786 31.1123 50.6128 31.3687C49.9469 31.6251 49.2348 31.7394 48.5221 31.7043H40.4701C39.7544 31.7373 39.0397 31.6198 38.3723 31.3594C37.7048 31.0991 37.0993 30.7016 36.595 30.1927C36.0907 29.6839 35.6986 29.0749 35.4442 28.4051C35.1898 27.7354 35.0787 27.0197 35.1181 26.3043V11.4603C35.0851 10.7446 35.2026 10.03 35.463 9.3625C35.7233 8.69503 36.1208 8.08958 36.6297 7.58523C37.1385 7.08089 37.7475 6.68887 38.4173 6.43447C39.087 6.18008 39.8027 6.06897 40.5181 6.10832H48.5341C49.25 6.07442 49.9651 6.19126 50.633 6.4513C51.3009 6.71133 51.9067 7.10874 52.4113 7.61781C52.9158 8.12688 53.3078 8.73624 53.5619 9.40644C53.8159 10.0766 53.9264 10.7927 53.8861 11.5083C53.8921 13.9683 53.8861 16.4523 53.8861 18.9423ZM44.4541 14.6403C45.2881 14.6403 46.1221 14.6403 46.9561 14.6403C47.1888 14.6541 47.4218 14.6202 47.6409 14.5407C47.86 14.4611 48.0605 14.3376 48.2301 14.1778C48.3998 14.0179 48.5349 13.825 48.6273 13.611C48.7197 13.397 48.7673 13.1664 48.7673 12.9333C48.7673 12.7002 48.7197 12.4696 48.6273 12.2556C48.5349 12.0416 48.3998 11.8488 48.2301 11.6889C48.0605 11.529 47.86 11.4055 47.6409 11.326C47.4218 11.2464 47.1888 11.2125 46.9561 11.2263C45.3001 11.2263 43.6481 11.2263 42.0001 11.2263C41.7671 11.2123 41.5338 11.2464 41.3147 11.3266C41.0955 11.4067 40.8952 11.5312 40.7263 11.6922C40.5574 11.8533 40.4235 12.0474 40.333 12.2625C40.2424 12.4775 40.1972 12.709 40.2001 12.9423C40.2031 13.1731 40.2524 13.401 40.3452 13.6124C40.438 13.8238 40.5724 14.0143 40.7403 14.1727C40.9082 14.3311 41.1063 14.4541 41.3227 14.5345C41.5391 14.6148 41.7695 14.6508 42.0001 14.6403C42.8161 14.6463 43.6321 14.6403 44.4541 14.6403ZM44.5201 20.6403C45.3541 20.6403 46.1881 20.6403 47.0221 20.6403C47.474 20.6403 47.9074 20.4608 48.227 20.1412C48.5466 19.8217 48.7261 19.3882 48.7261 18.9363C48.7261 18.4844 48.5466 18.051 48.227 17.7314C47.9074 17.4118 47.474 17.2323 47.0221 17.2323C45.3541 17.2323 43.6841 17.2323 42.0121 17.2323C41.5602 17.2323 41.1267 17.4118 40.8072 17.7314C40.4876 18.051 40.3081 18.4844 40.3081 18.9363C40.3081 19.3882 40.4876 19.8217 40.8072 20.1412C41.1267 20.4608 41.5602 20.6403 42.0121 20.6403C42.8461 20.6223 43.6861 20.6103 44.5201 20.6103V20.6403ZM44.5201 23.2023H42.0001C41.5482 23.2023 41.1147 23.3818 40.7952 23.7014C40.4756 24.021 40.2961 24.4544 40.2961 24.9063C40.2961 25.3582 40.4756 25.7917 40.7952 26.1112C41.1147 26.4308 41.5482 26.6103 42.0001 26.6103C43.6761 26.6103 45.3461 26.6103 47.0101 26.6103C47.462 26.6103 47.8954 26.4308 48.215 26.1112C48.5346 25.7917 48.7141 25.3582 48.7141 24.9063C48.7141 24.4544 48.5346 24.021 48.215 23.7014C47.8954 23.3818 47.462 23.2023 47.0101 23.2023C46.2001 23.1663 45.3601 23.1723 44.5441 23.1723L44.5201 23.2023Z" fill="white"/>
<path id="Vector_3" d="M17.2561 35.1183H23.0161C23.7151 35.0967 24.4111 35.2184 25.0612 35.4762C25.7112 35.7339 26.3016 36.1222 26.7958 36.617C27.29 37.1117 27.6776 37.7025 27.9346 38.3529C28.1916 39.0032 28.3126 39.6994 28.2901 40.3983C28.2901 41.9983 28.2901 43.5983 28.2901 45.1983C28.3126 45.8978 28.1914 46.5944 27.9341 47.2452C27.6767 47.896 27.2886 48.4871 26.7937 48.982C26.2989 49.4768 25.7078 49.8649 25.057 50.1223C24.4062 50.3797 23.7096 50.5008 23.0101 50.4783C20.0101 50.4783 16.9741 50.4783 13.9501 50.4783C13.6222 50.492 13.3037 50.5912 13.0261 50.7663C11.6701 51.6363 10.3261 52.5663 8.98811 53.4423C8.72098 53.6757 8.3891 53.8223 8.03663 53.8623C7.68417 53.9024 7.32785 53.8342 7.01512 53.6668C6.70239 53.4994 6.44808 53.2406 6.28605 52.9251C6.12401 52.6095 6.06195 52.252 6.10811 51.9003C6.10811 48.0783 6.10811 44.2563 6.10811 40.4403C6.07752 39.7317 6.19455 39.0244 6.45178 38.3635C6.70901 37.7025 7.10083 37.1021 7.60237 36.6006C8.10392 36.099 8.70423 35.7072 9.36523 35.45C10.0262 35.1928 10.7335 35.0757 11.4421 35.1063L17.2561 35.1183Z" fill="white"/>
<path id="Vector_4" d="M42.8038 53.8921C40.8658 53.8921 38.9338 53.8921 36.9958 53.8921C36.2946 53.9164 35.5959 53.7961 34.9431 53.5387C34.2904 53.2813 33.6976 52.8923 33.2018 52.3958C32.7059 51.8994 32.3175 51.3062 32.0609 50.6532C31.8042 50.0002 31.6847 49.3013 31.7098 48.6001C31.7098 45.8441 31.7098 43.0901 31.7098 40.3381C31.6918 39.6476 31.8142 38.9607 32.0696 38.3189C32.325 37.6772 32.7081 37.094 33.1956 36.6047C33.6832 36.1155 34.265 35.7304 34.9059 35.4728C35.5468 35.2152 36.2333 35.0904 36.9238 35.1061C40.8358 35.1061 44.7458 35.1061 48.6538 35.1061C49.3441 35.0889 50.0306 35.2119 50.672 35.4676C51.3134 35.7233 51.8962 36.1064 52.3853 36.5938C52.8743 37.0812 53.2595 37.6627 53.5174 38.3032C53.7753 38.9436 53.9006 39.6298 53.8858 40.3201C53.8858 43.0921 53.8858 45.8641 53.8858 48.6361C53.903 49.3271 53.7799 50.0144 53.5239 50.6565C53.2679 51.2986 52.8843 51.8821 52.3963 52.3718C51.9084 52.8614 51.3262 53.247 50.685 53.5052C50.0438 53.7634 49.3569 53.8889 48.6658 53.8741C46.7158 53.8981 44.7598 53.8921 42.8038 53.8921ZM42.8038 50.4781C44.7238 50.4781 46.6438 50.4781 48.5578 50.4781C48.8167 50.5082 49.079 50.4791 49.3251 50.3931C49.5711 50.307 49.7944 50.1663 49.9781 49.9814C50.1618 49.7965 50.3011 49.5724 50.3856 49.3258C50.4701 49.0793 50.4975 48.8168 50.4658 48.5581C50.4658 45.8581 50.4658 43.1561 50.4658 40.4521C50.4953 40.1975 50.4677 39.9395 50.3851 39.6969C50.3026 39.4543 50.1671 39.2331 49.9884 39.0493C49.8098 38.8655 49.5926 38.7237 49.3524 38.6343C49.1122 38.5448 48.8552 38.5099 48.5998 38.5321H37.0498C36.7873 38.4997 36.5209 38.5278 36.2709 38.6142C36.0209 38.7006 35.794 38.8431 35.6075 39.0307C35.421 39.2183 35.28 39.4461 35.1951 39.6966C35.1102 39.9471 35.0838 40.2138 35.1178 40.4761V48.5281C35.084 48.7906 35.1105 49.0574 35.1954 49.3081C35.2803 49.5589 35.4212 49.787 35.6075 49.975C35.7938 50.163 36.0206 50.3061 36.2705 50.3933C36.5204 50.4804 36.787 50.5095 37.0498 50.4781H42.8038Z" fill="white"/>
<path id="Vector_5" d="M39.3839 44.4779C39.3839 43.9079 39.3839 43.3439 39.3839 42.7739C39.3778 42.4834 39.447 42.1962 39.5846 41.9403C39.7222 41.6843 39.9237 41.4683 40.1694 41.3132C40.4151 41.158 40.6967 41.069 40.987 41.0548C41.2772 41.0405 41.5662 41.1016 41.8259 41.2319C42.9839 41.7719 44.1179 42.3599 45.2579 42.9419C45.5427 43.0747 45.783 43.2869 45.9501 43.553C46.1172 43.8191 46.2039 44.1277 46.1999 44.4419C46.2221 44.7642 46.147 45.0858 45.9844 45.365C45.8218 45.6442 45.5792 45.8682 45.2879 46.0079C44.1359 46.6079 42.9839 47.2079 41.8139 47.7359C41.5552 47.8606 41.2688 47.9166 40.9822 47.8985C40.6956 47.8805 40.4185 47.7891 40.1774 47.633C39.9364 47.4769 39.7396 47.2615 39.6058 47.0073C39.4721 46.7532 39.406 46.469 39.4139 46.1819C39.3719 45.5999 39.3839 45.0479 39.3839 44.4779Z" fill="white"/>
</g>
</svg>
