<svg width="70" height="70" viewBox="0 0 70 70" fill="none" xmlns="http://www.w3.org/2000/svg">
<g id="Artboard 1 copy 5 3">
<path id="Vector" d="M16.2892 20.2441V23.5061C16.2892 25.8301 16.2892 28.1541 16.2892 30.5061C16.2599 31.2862 16.3916 32.064 16.6761 32.7909C16.9606 33.5179 17.3918 34.1785 17.9428 34.7314C18.4938 35.2844 19.1528 35.718 19.8788 36.0051C20.6047 36.2922 21.382 36.4266 22.1622 36.4001C23.3032 36.4001 24.4442 36.4001 25.5782 36.4001C25.8523 36.3887 26.1258 36.4333 26.3821 36.5312C26.6384 36.6292 26.8719 36.7784 27.0685 36.9697C27.2651 37.1611 27.4206 37.3905 27.5254 37.6441C27.6302 37.8976 27.6822 38.1698 27.6782 38.4441C27.6782 41.0201 27.6782 43.5961 27.6782 46.1441C27.6638 46.255 27.6427 46.3648 27.6152 46.4731C26.7262 46.4731 25.8442 46.4731 24.9622 46.4731C24.8731 46.4497 24.7907 46.4058 24.7215 46.3451C24.6522 46.2844 24.5981 46.2084 24.5632 46.1231C24.3607 45.5268 23.9746 45.0099 23.4603 44.6465C22.946 44.2831 22.3299 44.0918 21.7002 44.1001C21.0503 44.0875 20.4137 44.2851 19.8853 44.6635C19.3568 45.0419 18.9646 45.5809 18.7672 46.2001C18.7039 46.3027 18.618 46.3894 18.5161 46.4537C18.4142 46.518 18.299 46.5582 18.1792 46.5711C17.3812 46.6131 16.5832 46.5711 15.7852 46.5711C15.3722 46.5711 15.0292 46.6971 15.0152 47.1521C15.0012 47.6071 15.3442 47.7891 15.7922 47.7821C16.5692 47.7821 17.3462 47.7821 18.1162 47.7821C18.27 47.753 18.4292 47.7849 18.5599 47.8712C18.6906 47.9574 18.7825 48.0912 18.8162 48.2441C19.0351 48.8285 19.4303 49.3303 19.947 49.6802C20.4637 50.03 21.0763 50.2107 21.7002 50.1971C22.3148 50.1984 22.9145 50.0083 23.4162 49.6533C23.9179 49.2984 24.2968 48.7961 24.5002 48.2161C24.6822 47.7261 24.9762 47.7191 25.3822 47.7191H53.2912C53.6062 47.7191 53.9282 47.7191 54.2432 47.7191C54.6842 47.7191 55.0342 47.6211 55.0202 47.0961C55.0062 46.5711 54.6702 46.5151 54.2642 46.5151H50.2322C50.0634 46.5082 49.8951 46.4918 49.7282 46.4661V45.6611C49.7282 41.6081 49.7282 37.5481 49.7282 33.4951C49.7282 31.0591 48.4542 29.7991 46.0182 29.7991H38.4232C38.4232 29.1551 38.4232 28.5951 38.4232 28.0351C38.4333 27.9594 38.4584 27.8864 38.4968 27.8203C38.5352 27.7543 38.5863 27.6964 38.6472 27.6501C41.2722 25.9701 42.4202 23.4501 42.8472 20.4681C42.8735 20.3909 42.9063 20.3159 42.9452 20.2441H56.7632C58.5552 20.2441 59.5632 21.2381 59.5632 23.0441V49.0841C59.5632 50.9251 58.5832 51.8841 56.7632 51.8841H13.3002C11.4592 51.8841 10.4512 50.8761 10.4512 49.0841V23.1001C10.4512 21.2381 11.4592 20.2511 13.3352 20.2441H16.2892Z" fill="white"/>
<path id="Vector_2" d="M17.5562 23.2676H21.6512C21.6512 23.5196 21.7002 23.7576 21.7002 23.9676C21.7002 25.0596 21.7002 26.1516 21.7002 27.2436C21.7002 29.6656 23.0092 30.9676 25.4172 30.9676H45.8572C47.8522 30.9676 48.5452 31.6676 48.5452 33.6906C48.5452 37.6806 48.5452 41.6706 48.5452 45.6536C48.5452 46.3536 48.3282 46.5426 47.6562 46.5076C46.7112 46.4516 45.7592 46.5076 44.7442 46.5076V37.2186C44.7442 37.0856 44.7442 36.9456 44.7442 36.8126C44.7442 36.3646 44.7022 35.9516 44.1212 35.9586C43.5402 35.9656 43.5332 36.3716 43.5332 36.7846V46.4656H28.9102V45.7096C28.9102 43.3856 28.9102 41.0616 28.9102 38.7096C28.947 38.2406 28.8818 37.7691 28.7189 37.3278C28.5561 36.8864 28.2995 36.4856 27.9668 36.1529C27.6342 35.8203 27.2333 35.5637 26.792 35.4008C26.3506 35.238 25.8792 35.1727 25.4102 35.2096C24.1362 35.2096 22.8552 35.2096 21.5882 35.1536C20.5069 35.0878 19.4892 34.6208 18.7343 33.8439C17.9794 33.067 17.5418 32.0363 17.5072 30.9536C17.4372 28.4966 17.5072 26.0536 17.5072 23.5756C17.5151 23.4717 17.5315 23.3687 17.5562 23.2676Z" fill="white"/>
<path id="Vector_3" d="M18.1998 63.8194C18.1998 63.2034 18.1578 62.6294 18.1998 62.0694C18.2604 61.6401 18.4524 61.24 18.7495 60.9242C19.0465 60.6083 19.434 60.3922 19.8588 60.3054C20.2197 60.247 20.5854 60.2236 20.9508 60.2354C30.2678 60.2354 39.5778 60.2354 48.8948 60.2354C51.3098 60.2354 52.1288 61.5864 51.6948 63.8474L18.1998 63.8194Z" fill="white"/>
<path id="Vector_4" d="M29.2808 20.4122C30.6808 20.0412 31.1778 19.0122 31.4718 17.8572C31.6398 17.1992 31.7378 16.5202 31.9058 15.8622C32.1298 14.9522 32.5358 14.7982 33.3058 15.2812C34.9788 16.2892 36.6308 17.3392 38.3318 18.3052C39.2348 18.8162 40.2288 19.1662 41.1668 19.6282C41.3628 19.7192 41.6148 19.9922 41.6008 20.1602C41.553 21.2898 41.2751 22.3977 40.784 23.416C40.2929 24.4343 39.5989 25.3416 38.7448 26.0822C37.833 26.914 36.6434 27.3751 35.4093 27.3751C34.1751 27.3751 32.9855 26.914 32.0738 26.0822C30.4525 24.6185 29.4531 22.5897 29.2808 20.4122ZM35.4408 25.7042C36.4795 25.6602 37.4701 25.2541 38.2408 24.5562C38.4088 24.4092 38.3738 24.0172 38.4298 23.7372C38.1288 23.7372 37.7298 23.5202 37.5478 23.6532C36.9654 24.1825 36.2067 24.4757 35.4198 24.4757C34.6328 24.4757 33.8741 24.1825 33.2918 23.6532C33.1238 23.5202 32.7108 23.7022 32.4168 23.7372C32.4728 24.0172 32.4168 24.4372 32.6058 24.5562C33.3784 25.273 34.3871 25.6815 35.4408 25.7042Z" fill="white"/>
<path id="Vector_5" d="M42.4482 18.7597C40.4689 18.1047 38.5857 17.189 36.8482 16.0367C35.8962 15.4487 34.9652 14.8397 34.0482 14.2587C32.5292 13.3347 31.2902 13.8177 30.8072 15.5327C30.5972 16.2747 30.5272 17.0587 30.2892 17.7867C30.1403 18.257 29.8698 18.6796 29.5052 19.0117C28.9592 19.4737 28.6372 19.3127 28.4412 18.6337C27.9479 16.8704 28.1318 14.9863 28.9569 13.3517C29.782 11.7171 31.1885 10.4501 32.9002 9.79971C34.1493 9.30212 35.5153 9.17481 36.8349 9.43301C38.1544 9.69122 39.3717 10.324 40.3412 11.2557C41.3483 12.1263 42.0895 13.2634 42.4796 14.5363C42.8696 15.8092 42.8927 17.1663 42.5462 18.4517C42.5462 18.5287 42.5042 18.6057 42.4482 18.7597Z" fill="white"/>
<path id="Vector_6" d="M27.9442 20.2998C28.2172 21.2868 28.4132 22.2668 28.7492 23.1978C29.3563 24.979 30.5319 26.5113 32.0952 27.5588C32.3203 27.7541 32.465 28.026 32.5012 28.3218C32.5332 28.816 32.5332 29.3117 32.5012 29.8058H29.4212C27.9652 29.8058 26.5092 29.8058 25.0532 29.8058C24.7718 29.8183 24.4909 29.7729 24.2277 29.6725C23.9646 29.572 23.7249 29.4186 23.5234 29.2217C23.322 29.0249 23.1631 28.7888 23.0565 28.528C22.95 28.2673 22.8982 27.9874 22.9042 27.7058C22.8692 25.3398 22.9042 22.9738 22.9042 20.6078C22.9135 20.5036 22.9322 20.4005 22.9602 20.2998H27.9442Z" fill="white"/>
<path id="Vector_7" d="M42.133 58.9822H27.895C27.993 58.7722 28.07 58.6042 28.154 58.4362C28.924 56.8472 29.708 55.2582 30.45 53.6552C30.618 53.2772 30.765 53.0812 31.22 53.0812C33.747 53.0812 36.274 53.0812 38.801 53.0812C38.9478 53.0698 39.0944 53.1049 39.2201 53.1815C39.3458 53.2582 39.4441 53.3725 39.501 53.5082C40.306 55.2372 41.153 56.9452 41.979 58.6602C42.0377 58.7639 42.0891 58.8715 42.133 58.9822Z" fill="white"/>
<path id="Vector_8" d="M21.7002 22.0008H17.5002C17.4884 21.0651 17.5399 20.1296 17.6542 19.2008C17.7894 18.7397 18.0876 18.3435 18.4933 18.086C18.8989 17.8284 19.3844 17.7271 19.8592 17.8008C20.3281 17.8377 20.7692 18.038 21.1056 18.3668C21.4421 18.6955 21.6525 19.1319 21.7002 19.5998C21.7002 20.2998 21.7002 21.1258 21.7002 22.0008Z" fill="white"/>
<path id="Vector_9" d="M20.1882 16.5338H19.0612C19.0356 16.3739 19.0192 16.2126 19.0122 16.0508C19.0122 13.0408 19.0122 10.0331 19.0122 7.02778C19.0122 6.95778 19.0122 6.86678 19.0122 6.82478C19.1872 6.60078 19.3412 6.25078 19.5652 6.19478C19.9642 6.09678 20.1812 6.41178 20.1812 6.81778C20.1812 7.79778 20.1812 8.77778 20.1812 9.75778C20.1952 11.9838 20.1882 14.2168 20.1882 16.5338Z" fill="white"/>
<path id="Vector_10" d="M23.5411 47.1449C23.5402 47.3912 23.4904 47.6349 23.3947 47.8619C23.2989 48.0888 23.1591 48.2945 22.9833 48.467C22.8076 48.6395 22.5993 48.7755 22.3706 48.867C22.1419 48.9584 21.8973 49.0036 21.6511 48.9999C21.406 49.0009 21.1633 48.9528 20.9372 48.8585C20.7111 48.7641 20.5062 48.6254 20.3346 48.4505C20.163 48.2756 20.0281 48.0682 19.9381 47.8403C19.848 47.6125 19.8044 47.3689 19.8101 47.1239C19.81 46.877 19.8591 46.6326 19.9544 46.4048C20.0497 46.1771 20.1894 45.9706 20.3653 45.7973C20.5412 45.624 20.7497 45.4875 20.9789 45.3955C21.208 45.3036 21.4532 45.2582 21.7001 45.2619C22.1916 45.2747 22.6588 45.4785 23.0025 45.83C23.3462 46.1816 23.5394 46.6533 23.5411 47.1449Z" fill="white"/>
<path id="Vector_11" d="M33.712 28.4619H37.212C37.212 28.7209 37.212 29.0289 37.212 29.3369C37.212 29.6449 37.051 29.8059 36.715 29.7989C35.917 29.7989 35.119 29.7989 34.321 29.7989C33.845 29.7989 33.621 29.6589 33.698 29.1759C33.7161 28.9384 33.7208 28.7 33.712 28.4619Z" fill="white"/>
</g>
</svg>
