<svg width="68" height="68" viewBox="0 0 68 68" fill="none" xmlns="http://www.w3.org/2000/svg">
<g id="Artboard 1 copy 3 11">
<path id="Vector" d="M29.2946 61.1255H18.1834C17.8116 61.157 17.4375 61.1075 17.0867 60.9803C16.736 60.8531 16.4171 60.6513 16.152 60.3888C15.8869 60.1263 15.6819 59.8093 15.5513 59.4598C15.4207 59.1104 15.3675 58.7367 15.3954 58.3647C15.3954 46.7457 15.3954 35.1223 15.3954 23.4943C15.364 23.1465 15.4059 22.7959 15.5184 22.4653C15.631 22.1347 15.8117 21.8314 16.0488 21.5751C16.286 21.3187 16.5743 21.115 16.8951 20.977C17.216 20.8391 17.5622 20.77 17.9114 20.7743C20.5566 20.7267 23.2086 20.7743 25.8538 20.7743C25.9371 20.787 26.0191 20.8075 26.0986 20.8355V32.5247C26.0986 33.7623 26.9418 34.5647 28.0366 34.3063C28.4134 34.1979 28.7571 33.9969 29.0362 33.7215C31.0762 31.8651 33.0686 29.9883 35.0814 28.1183L35.5574 27.6763C35.707 27.8055 35.8566 27.9211 35.9926 28.0503C38.0326 29.9339 40.0726 31.8107 42.065 33.7079C42.2949 34.0137 42.6223 34.2319 42.9931 34.3264C43.3639 34.4208 43.7558 34.3858 44.104 34.2272C44.4522 34.0686 44.7358 33.7958 44.9078 33.4541C45.0799 33.1123 45.1301 32.7221 45.0502 32.3479C45.0502 28.7303 45.0502 25.1127 45.0502 21.4679V20.7879C45.2882 20.7879 45.4786 20.7471 45.669 20.7471C48.0422 20.7471 50.429 20.7471 52.7886 20.7471C54.7742 20.7539 55.7602 21.7603 55.7602 23.7459V58.1403C55.7602 60.1259 54.7538 61.1187 52.7682 61.1255H41.8474C41.8474 59.9763 41.8474 58.8747 41.8474 57.7731C41.8474 57.6235 42.0718 57.4331 42.235 57.3311C44.2752 56.1347 45.956 54.4115 47.1013 52.3423C48.2466 50.273 48.8143 47.9337 48.7447 45.5696C48.6752 43.2055 47.9711 40.9037 46.7061 38.9053C45.4412 36.9069 43.662 35.2855 41.555 34.2111C41.2584 34.0487 40.9237 33.9688 40.5858 33.9797C40.2478 33.9907 39.919 34.092 39.6336 34.2733C39.3481 34.4546 39.1165 34.7091 38.9629 35.0103C38.8093 35.3115 38.7393 35.6484 38.7602 35.9859C38.7602 39.1955 38.7602 42.3869 38.7602 45.5603C38.7819 45.7324 38.7473 45.907 38.6615 46.0578C38.5757 46.2085 38.4433 46.3275 38.2842 46.3967C37.5022 46.8047 36.7338 47.2603 35.9722 47.7567C35.8564 47.8402 35.7172 47.8852 35.5744 47.8852C35.4316 47.8852 35.2924 47.8402 35.1766 47.7567C34.4014 47.2807 33.6194 46.8183 32.8102 46.3967C32.6574 46.3221 32.5323 46.2009 32.4528 46.0505C32.3734 45.9002 32.3437 45.7285 32.3682 45.5603C32.3682 42.4368 32.3682 39.3133 32.3682 36.1899C32.3682 34.3063 30.913 33.4699 29.2742 34.3947C24.9698 36.8835 22.5694 40.6099 22.4402 45.5603C22.2974 50.6603 24.5618 54.5635 28.873 57.2767C29.013 57.3385 29.1302 57.4425 29.2082 57.5741C29.2863 57.7058 29.3212 57.8586 29.3082 58.0111C29.281 59.0379 29.2946 60.0443 29.2946 61.1255Z" fill="white"/>
<path id="Vector_2" d="M39.9434 61.098H31.1986C31.1986 59.9964 31.1306 58.9084 31.1986 57.8408C31.2766 57.4023 31.1991 56.9504 30.9793 56.563C30.7596 56.1756 30.4114 55.8772 29.995 55.7192C22.6986 51.7208 22.3382 41.1876 29.315 36.6112C29.4351 36.5269 29.5719 36.4693 29.7162 36.4423C29.8605 36.4153 30.0089 36.4196 30.1514 36.4548C30.2567 36.5593 30.339 36.6846 30.3929 36.8228C30.4467 36.9611 30.471 37.109 30.4642 37.2572C30.4914 40.3988 30.4914 43.5427 30.4642 46.6888C30.4451 46.8597 30.4809 47.0323 30.5665 47.1815C30.6521 47.3306 30.783 47.4487 30.9402 47.5184C32.3614 48.3004 33.7554 49.1164 35.1494 49.946C35.2749 50.0372 35.426 50.0864 35.5812 50.0864C35.7363 50.0864 35.8875 50.0372 36.013 49.946C37.4002 49.1096 38.8418 48.28 40.2698 47.4844C40.4083 47.4173 40.5222 47.3082 40.5955 47.1728C40.6687 47.0373 40.6975 46.8823 40.6778 46.7296C40.6778 43.588 40.6778 40.4464 40.6778 37.3048C40.6778 37.0056 40.7934 36.5636 40.9974 36.4548C41.1501 36.4199 41.3087 36.4195 41.4616 36.4536C41.6145 36.4877 41.7579 36.5555 41.8814 36.652C43.5102 37.7579 44.8201 39.272 45.6803 41.043C46.5405 42.8139 46.9207 44.7796 46.783 46.7435C46.6454 48.7074 45.9946 50.6008 44.8957 52.2344C43.7969 53.868 42.2885 55.1845 40.5214 56.0524C40.3142 56.1229 40.1378 56.2632 40.0225 56.4492C39.9072 56.6352 39.86 56.8555 39.889 57.0724C39.9706 58.3984 39.9434 59.7176 39.9434 61.098Z" fill="white"/>
<path id="Vector_3" d="M52.2443 18.8496H51.6799C49.0687 18.8496 46.4643 18.8496 43.8531 18.8496C43.7695 18.8662 43.6833 18.8657 43.5998 18.8482C43.5164 18.8306 43.4373 18.7963 43.3674 18.7474C43.2975 18.6985 43.2383 18.6359 43.1932 18.5635C43.1481 18.4911 43.1182 18.4103 43.1051 18.326C42.6088 16.7181 41.6105 15.3113 40.2564 14.3121C38.9023 13.313 37.2638 12.7738 35.5809 12.7738C33.8981 12.7738 32.2595 13.313 30.9054 14.3121C29.5514 15.3113 28.553 16.7181 28.0567 18.326C27.9547 18.6388 27.8731 18.836 27.4719 18.8292C24.7043 18.8292 21.9367 18.8292 19.1691 18.8292C19.0943 18.8292 19.0127 18.8292 18.7407 18.7748C18.9447 18.5504 19.0399 18.3532 19.1895 18.292C19.8695 17.9928 20.5903 17.7548 21.2771 17.4556C21.4728 17.352 21.6266 17.1838 21.7123 16.9796C22.2223 15.81 22.7187 14.6268 23.1947 13.4436C23.2662 13.2342 23.2662 13.007 23.1947 12.7976C22.9295 12.1176 22.6371 11.492 22.3243 10.8528C22.2536 10.7424 22.2263 10.6098 22.2477 10.4805C22.269 10.3511 22.3375 10.2343 22.4399 10.1524C23.3375 9.29564 24.2011 8.39124 25.0987 7.53444C25.1824 7.47215 25.2793 7.42994 25.3818 7.41107C25.4844 7.39221 25.59 7.39719 25.6903 7.42564C26.4451 7.71804 27.1727 8.31644 27.9139 8.32324C28.6551 8.33004 29.3555 7.73164 30.0967 7.43924C30.6815 7.20124 31.2935 7.04484 31.8783 6.81364C32.0852 6.73294 32.2564 6.58101 32.3611 6.38524C32.6467 5.70524 32.9051 5.07284 33.1363 4.39964C33.1645 4.25686 33.2466 4.13045 33.3658 4.04683C33.4849 3.9632 33.6317 3.92881 33.7755 3.95084C34.9791 3.95084 36.1827 3.95084 37.3931 3.95084C37.5268 3.93013 37.6635 3.96064 37.7757 4.03628C37.8878 4.11192 37.9674 4.22712 37.9983 4.35884C38.2149 5.01667 38.4692 5.66147 38.7599 6.29004C38.8873 6.53265 39.0936 6.72456 39.3447 6.83404C40.4599 7.32364 41.6023 7.75884 42.7107 8.26204C42.8352 8.33236 42.9757 8.36931 43.1187 8.36931C43.2617 8.36931 43.4022 8.33236 43.5267 8.26204C44.1319 7.96964 44.7575 7.72484 45.3627 7.43924C45.4203 7.39674 45.4857 7.366 45.5551 7.34881C45.6246 7.33161 45.6968 7.32828 45.7675 7.33902C45.8383 7.34976 45.9062 7.37435 45.9674 7.41139C46.0286 7.44842 46.082 7.49717 46.1243 7.55484C46.9585 8.42524 47.8107 9.27751 48.6811 10.1116C48.7979 10.1963 48.8773 10.323 48.9027 10.465C48.928 10.607 48.8974 10.7534 48.8171 10.8732C48.5043 11.5124 48.2119 12.1584 47.9535 12.8248C47.8825 13.032 47.8825 13.2569 47.9535 13.464C48.4159 14.6336 48.9055 15.7964 49.4087 16.9524C49.5015 17.1711 49.6641 17.3528 49.8711 17.4692C50.5511 17.7684 51.2311 17.9996 51.9111 18.2852C52.0743 18.3532 52.1899 18.53 52.3259 18.6592L52.2443 18.8496Z" fill="white"/>
<path id="Vector_4" d="M43.105 32.0548L38.141 27.4512C37.6922 27.0296 37.257 26.608 36.781 26.2C36.6291 26.0209 36.44 25.877 36.2269 25.7783C36.0138 25.6796 35.7817 25.6285 35.5468 25.6285C35.312 25.6285 35.0799 25.6796 34.8668 25.7783C34.6537 25.877 34.4646 26.0209 34.3126 26.2L28.5598 31.5856L28.0566 32.0208V20.8008H43.105V32.0548Z" fill="white"/>
</g>
</svg>
