<svg width="65" height="65" viewBox="0 0 65 65" fill="none" xmlns="http://www.w3.org/2000/svg">
<g id="fAST 1">
<path id="Vector" d="M16.6015 46.4039C16.1859 45.431 15.8498 44.5555 15.4253 43.7506C15.3394 43.6411 15.231 43.5512 15.1074 43.4871C14.9838 43.423 14.8479 43.3862 14.7089 43.3792C12.489 43.3792 10.2867 43.3792 8.04914 43.3792C7.84264 43.4076 7.63254 43.3946 7.43115 43.3407C7.22977 43.2869 7.04117 43.1934 6.87641 43.0657C6.71164 42.938 6.57404 42.7787 6.47168 42.5972C6.36931 42.4156 6.30424 42.2154 6.28028 42.0083C6.17415 40.9912 6.86401 40.2837 8.04914 40.2395C9.90643 40.2395 11.7726 40.2395 13.6299 40.2395H14.4347L14.019 37.1616H3.28208C2.90367 37.1804 2.5314 37.0605 2.23507 36.8244C1.93874 36.5883 1.73869 36.2523 1.67242 35.8792C1.60634 35.5325 1.66511 35.1735 1.83832 34.866C2.01153 34.5584 2.288 34.3221 2.61876 34.1988C2.94401 34.1099 3.28149 34.074 3.61816 34.0927H14.0102L14.4259 30.9795H8.8009C8.46482 30.9795 8.11989 30.9795 7.78381 30.9795C7.58417 30.9808 7.38631 30.9418 7.20207 30.8649C7.01782 30.788 6.85096 30.6748 6.71145 30.532C6.57193 30.3892 6.46264 30.2197 6.39008 30.0337C6.31752 29.8477 6.28318 29.649 6.28913 29.4494C6.28642 29.2425 6.32623 29.0372 6.40608 28.8462C6.48593 28.6552 6.60414 28.4827 6.75337 28.3393C6.90261 28.1958 7.0797 28.0846 7.27368 28.0123C7.46766 27.9401 7.6744 27.9085 7.8811 27.9194C10.0214 27.9194 12.1794 27.9194 14.3197 27.9194C15.0449 27.9194 15.4606 27.7867 15.6729 27.035C15.9278 26.2647 16.2382 25.5139 16.6015 24.7885H11.4984C11.1627 24.7921 10.8277 24.7595 10.499 24.6912C10.1787 24.6041 9.89602 24.414 9.69447 24.1503C9.49293 23.8866 9.38374 23.5639 9.38374 23.2319C9.38374 22.9 9.49293 22.5773 9.69447 22.3136C9.89602 22.0499 10.1787 21.8598 10.499 21.7726C10.8067 21.7044 11.1213 21.6717 11.4365 21.6753C13.6564 21.6753 15.8586 21.6753 18.0962 21.6753C18.2544 21.6703 18.41 21.6342 18.5542 21.5689C18.6984 21.5037 18.8283 21.4106 18.9364 21.295C22.2675 17.0769 26.9543 14.1399 32.2028 12.9814L32.5654 12.893V10.8765C32.0259 10.8765 31.5041 10.8765 30.9823 10.8765C29.8441 10.8722 28.7472 10.4492 27.9009 9.68804C27.0545 8.92691 26.5179 7.88093 26.3933 6.74953C26.2687 5.61812 26.5648 4.48042 27.2252 3.55334C27.8856 2.62625 28.864 1.97462 29.9741 1.72269C30.2644 1.65788 30.561 1.62526 30.8585 1.6254C35.086 1.6254 39.3136 1.6254 43.5323 1.6254C44.3917 1.61362 45.2348 1.86026 45.9523 2.33335C46.6698 2.80645 47.2287 3.48418 47.5565 4.27868C47.9438 5.03707 48.104 5.89117 48.0177 6.73839C47.9314 7.5856 47.6024 8.38988 47.07 9.05458C46.6375 9.64205 46.0705 10.1173 45.4165 10.4404C44.7625 10.7636 44.0406 10.9253 43.3112 10.9119C42.8602 10.9119 42.4268 10.9119 41.8873 10.9119V12.8753C49.6172 14.7326 55.2244 19.1901 58.488 26.4689C60.7537 31.6164 61.0062 37.4266 59.1955 42.7512C58.205 42.4859 57.2232 42.1498 56.215 41.9818C55.2067 41.8137 54.1631 41.8137 53.0841 41.743C53.9222 39.563 54.3007 37.2333 54.1956 34.9001C54.0906 32.5669 53.5044 30.2806 52.4739 28.1847C50.9044 24.8823 48.2859 22.1923 45.027 20.5344C41.7904 18.8532 38.0989 18.2575 34.4978 18.8353C30.8966 19.4132 27.5768 21.134 25.0288 23.7435C22.4807 26.353 20.8396 29.7129 20.3477 33.3268C19.8558 36.9407 20.5393 40.6169 22.2972 43.8125C24.177 47.1937 27.1459 49.8391 30.7206 51.3181C34.2953 52.7971 38.2654 53.0227 41.9846 51.9581C41.6474 54.0649 41.8234 56.222 42.4975 58.2464C41.1001 58.4233 39.7912 58.6797 38.4822 58.7328C34.7546 58.9636 31.0268 58.2829 27.6212 56.7496C24.2157 55.2163 21.2348 52.8766 18.9364 49.9328C18.7008 49.6942 18.3864 49.5496 18.052 49.5259C15.8321 49.5259 13.6299 49.5259 11.3834 49.5259C10.101 49.5259 9.36693 48.951 9.38462 47.9693C9.40231 46.9876 10.1275 46.457 11.3569 46.4481L16.6015 46.4039Z" fill="white"/>
<path id="Vector_2" d="M37.4914 49.4814C34.6965 49.535 31.9504 48.7442 29.612 47.2124C27.2736 45.6806 25.4515 43.4791 24.384 40.8955C23.3165 38.3119 23.0532 35.4664 23.6284 32.7307C24.2036 29.9951 25.5906 27.4966 27.6081 25.5616C29.6257 23.6267 32.18 22.3454 34.9373 21.885C37.6946 21.4247 40.5267 21.8067 43.0634 22.9813C45.6001 24.1559 47.7236 26.0683 49.1562 28.4687C50.5889 30.8691 51.2642 33.6459 51.0939 36.4362C50.9812 38.5669 50.3563 40.6391 49.272 42.4768C49.1134 42.7351 48.8911 42.9482 48.6264 43.0959C46.6268 44.1445 44.935 45.696 43.7178 47.5976C43.5361 47.871 43.282 48.0884 42.9837 48.2256C41.2686 49.0459 39.3926 49.4748 37.4914 49.4814ZM35.6165 30.139C35.6165 31.8548 35.6165 33.5618 35.6165 35.2776C35.6241 35.7973 35.8011 36.3003 36.1206 36.7103C37.5887 38.2758 39.1276 39.7704 40.6577 41.2828C40.8522 41.5016 41.1078 41.6573 41.3914 41.7298C41.6751 41.8023 41.974 41.7883 42.2497 41.6897C42.5185 41.6137 42.7614 41.4657 42.952 41.2616C43.1427 41.0574 43.2738 40.805 43.3312 40.5316C43.3886 40.2583 43.3701 39.9744 43.2777 39.7108C43.1852 39.4473 43.0224 39.214 42.8069 39.0364C41.604 37.7893 40.3393 36.5865 39.1453 35.3306C38.8974 35.0578 38.7507 34.7081 38.7296 34.3401C38.7296 32.5712 38.7296 30.8024 38.7296 29.0335C38.7296 27.6361 38.7296 26.2387 38.7296 24.8413C38.749 24.5871 38.7055 24.3321 38.6032 24.0986C38.5009 23.8651 38.3428 23.6603 38.1427 23.5022C37.9427 23.3442 37.707 23.2376 37.4562 23.192C37.2054 23.1464 36.9472 23.163 36.7043 23.2405C36.3565 23.3561 36.0591 23.5881 35.8626 23.8975C35.666 24.2069 35.5822 24.5746 35.6253 24.9386C35.6165 26.7163 35.6165 28.4233 35.6165 30.139Z" fill="white"/>
<path id="Vector_3" d="M54.1812 63.3852C52.348 63.3799 50.5575 62.8312 49.0362 61.8084C47.5149 60.7855 46.3311 59.3346 45.6344 57.6389C44.9377 55.9433 44.7595 54.0791 45.1223 52.2822C45.4851 50.4852 46.3726 48.8362 47.6725 47.5437C48.9725 46.2512 50.6265 45.3731 52.4255 45.0206C54.2245 44.6681 56.0876 44.857 57.7792 45.5634C59.4709 46.2698 60.9151 47.4619 61.9292 48.989C62.9433 50.5162 63.4817 52.3098 63.4765 54.1429C63.4648 56.5997 62.48 58.9518 60.7378 60.684C58.9956 62.4163 56.638 63.3876 54.1812 63.3852ZM53.6859 54.7267C53.1022 54.0899 52.6423 53.5238 52.1205 53.0374C51.8378 52.7489 51.4521 52.5845 51.0483 52.5803C50.6444 52.5762 50.2554 52.7327 49.9669 53.0153C49.6784 53.298 49.514 53.6836 49.5098 54.0875C49.5057 54.4914 49.6621 54.8804 49.9448 55.1689C50.9796 56.2567 52.032 57.318 53.1199 58.344C53.2824 58.5174 53.4843 58.6491 53.7086 58.7278C53.9329 58.8066 54.1729 58.83 54.4082 58.7961C54.6434 58.7623 54.8671 58.6721 55.06 58.5334C55.253 58.3946 55.4097 58.2113 55.5167 57.999C56.6134 55.9118 57.657 53.7892 58.6829 51.6666C58.7701 51.4921 58.8216 51.302 58.8345 51.1074C58.8474 50.9128 58.8213 50.7176 58.7579 50.5331C58.6945 50.3487 58.595 50.1788 58.4652 50.0332C58.3354 49.8877 58.1779 49.7694 58.0019 49.6854C57.8148 49.5839 57.6085 49.5231 57.3963 49.5068C57.1841 49.4905 56.9708 49.5192 56.7705 49.591C56.5701 49.6628 56.3872 49.7761 56.2336 49.9234C56.0801 50.0708 55.9593 50.2488 55.8793 50.446C55.1452 51.7904 54.4819 53.1524 53.6859 54.7267Z" fill="white"/>
<path id="Vector_4" d="M3.18508 30.9351C2.98732 30.9386 2.79082 30.9029 2.60699 30.8299C2.42315 30.7569 2.25563 30.6481 2.11413 30.5099C1.97263 30.3717 1.85997 30.2068 1.78268 30.0247C1.70539 29.8427 1.665 29.6471 1.66387 29.4493C1.65552 29.2455 1.68846 29.0422 1.76072 28.8515C1.83298 28.6608 1.94305 28.4867 2.08433 28.3396C2.22561 28.1926 2.39517 28.0756 2.58281 27.9957C2.77045 27.9159 2.97231 27.8748 3.17623 27.875C3.38065 27.8762 3.58284 27.9176 3.77125 27.9969C3.95966 28.0762 4.1306 28.1918 4.27433 28.3372C4.41805 28.4825 4.53173 28.6548 4.60888 28.8441C4.68603 29.0334 4.72514 29.236 4.72398 29.4404C4.71471 29.8416 4.54821 30.2231 4.26036 30.5027C3.97251 30.7822 3.58635 30.9375 3.18508 30.9351Z" fill="white"/>
<path id="Vector_5" d="M1.65501 41.7959C1.65149 41.5916 1.68869 41.3886 1.76445 41.1988C1.84021 41.0091 1.95301 40.8363 2.09626 40.6905C2.23951 40.5448 2.41035 40.4291 2.59881 40.3501C2.78727 40.2711 2.98957 40.2304 3.19392 40.2305C3.58305 40.2599 3.94668 40.4353 4.212 40.7215C4.47732 41.0077 4.62475 41.3835 4.62475 41.7738C4.62475 42.164 4.47732 42.5399 4.212 42.8261C3.94668 43.1122 3.58305 43.2876 3.19392 43.3171C2.78952 43.3149 2.40206 43.1544 2.11446 42.8701C1.82685 42.5858 1.66194 42.2002 1.65501 41.7959Z" fill="white"/>
</g>
</svg>
