<svg width="57" height="53" viewBox="0 0 57 53" fill="none" xmlns="http://www.w3.org/2000/svg">
<g id="customaization 1" clip-path="url(#clip0_1416_4615)">
<path id="Vector" d="M1.62244 26.4416C1.62244 19.8766 1.62244 13.3159 1.62244 6.7596C1.57673 5.8302 1.72284 4.90134 2.05166 4.03085C2.38048 3.16036 2.88499 2.36689 3.53376 1.69982C4.18252 1.03276 4.96167 0.506397 5.82268 0.153503C6.68369 -0.199392 7.60813 -0.37126 8.53844 -0.351401C21.8201 -0.351401 35.0974 -0.351401 48.3704 -0.351401C49.2889 -0.383477 50.2041 -0.225553 51.0587 0.112479C51.9134 0.450511 52.689 0.961369 53.337 1.61306C53.985 2.26474 54.4915 3.04322 54.8247 3.89973C55.1579 4.75623 55.3107 5.67232 55.2734 6.5906C55.2734 19.8506 55.2734 33.1084 55.2734 46.3641C55.3065 47.286 55.1486 48.2047 54.8095 49.0626C54.4705 49.9205 53.9576 50.6989 53.3032 51.3491C52.6488 51.9992 51.867 52.507 51.0069 52.8404C50.1468 53.1738 49.2271 53.3257 48.3054 53.2866H8.65544C4.50194 53.2866 1.63544 50.4071 1.62894 46.2276C1.62028 39.6323 1.61811 33.0369 1.62244 26.4416ZM18.8994 10.9651H10.4494C10.1951 10.9606 9.94089 10.9758 9.68894 11.0106C9.47085 11.0463 9.26224 11.1258 9.07567 11.2442C8.88909 11.3627 8.72842 11.5177 8.60332 11.6999C8.47822 11.882 8.39128 12.0877 8.34774 12.3043C8.30419 12.521 8.30494 12.7442 8.34994 12.9606C8.43646 13.3792 8.67665 13.7502 9.02316 14.0004C9.36968 14.2507 9.79738 14.3621 10.2219 14.3126C15.9549 14.3126 21.6901 14.3126 27.4274 14.3126C27.6033 14.2897 27.7816 14.3301 27.9304 14.4265C28.0793 14.523 28.189 14.6692 28.2399 14.8391C28.6639 15.7992 29.3578 16.6153 30.2372 17.1883C31.1165 17.7612 32.1434 18.0662 33.1929 18.0662C34.2425 18.0662 35.2694 17.7612 36.1487 17.1883C37.0281 16.6153 37.7219 15.7992 38.1459 14.8391C38.2052 14.6602 38.3257 14.5079 38.4862 14.4092C38.6468 14.3105 38.8371 14.2717 39.0234 14.2996C41.5888 14.2996 44.1606 14.2996 46.7389 14.2996C47.0153 14.3176 47.2919 14.2672 47.5441 14.1527C47.7963 14.0383 48.0164 13.8633 48.1849 13.6435C48.3533 13.4236 48.4649 13.1656 48.5097 12.8922C48.5546 12.6189 48.5313 12.3388 48.4419 12.0766C48.3114 11.7126 48.0622 11.4031 47.7344 11.198C47.4066 10.9928 47.0194 10.9039 46.6349 10.9456C44.0826 10.9456 41.5281 10.9456 38.9714 10.9456C38.8038 10.9714 38.6324 10.9374 38.4874 10.8494C38.3424 10.7614 38.233 10.6252 38.1784 10.4646C37.7582 9.49208 37.0625 8.66382 36.1772 8.08193C35.2919 7.50005 34.2556 7.18999 33.1962 7.18999C32.1368 7.18999 31.1005 7.50005 30.2152 8.08193C29.3298 8.66382 28.6342 9.49208 28.2139 10.4646C28.1725 10.6209 28.0742 10.7561 27.9384 10.8438C27.8026 10.9316 27.639 10.9655 27.4794 10.9391C24.6389 10.9586 21.7724 10.9651 18.8994 10.9651ZM33.8494 38.6226C33.7844 38.4926 33.7454 38.4016 33.7064 38.3171C33.3099 37.3067 32.6197 36.4382 31.725 35.8235C30.8303 35.2089 29.7721 34.8763 28.6866 34.8686C27.6012 34.8609 26.5383 35.1785 25.635 35.7804C24.7317 36.3823 24.0293 37.2409 23.6184 38.2456C23.4624 38.6096 23.2479 38.6226 22.9684 38.6226C18.8214 38.6226 14.6766 38.6226 10.5339 38.6226C10.3175 38.6093 10.1004 38.6093 9.88394 38.6226C9.489 38.6549 9.11826 38.8261 8.83746 39.1057C8.55666 39.3853 8.38395 39.7553 8.34994 40.1501C8.31305 40.5155 8.40002 40.8827 8.59687 41.1927C8.79373 41.5027 9.08906 41.7376 9.43544 41.8596C9.77637 41.9512 10.1292 41.9906 10.4819 41.9766C14.6029 41.9766 18.7196 41.9766 22.8319 41.9766C23.0006 41.9498 23.1732 41.9842 23.3186 42.0736C23.4641 42.163 23.5727 42.3015 23.6249 42.4641C24.0452 43.4366 24.7409 44.2649 25.6262 44.8468C26.5115 45.4287 27.5478 45.7387 28.6072 45.7387C29.6666 45.7387 30.7029 45.4287 31.5882 44.8468C32.4735 44.2649 33.1692 43.4366 33.5894 42.4641C33.6269 42.2989 33.7273 42.1548 33.8693 42.0626C34.0114 41.9703 34.1838 41.9371 34.3499 41.9701C36.4689 41.9701 38.5944 41.9701 40.7134 41.9701C42.7154 41.9701 44.7239 41.9701 46.7259 41.9701C46.9609 41.9955 47.1986 41.9711 47.4235 41.8986C47.6485 41.8261 47.8556 41.707 48.0315 41.5491C48.2074 41.3912 48.348 41.1981 48.4443 40.9822C48.5406 40.7664 48.5904 40.5327 48.5904 40.2963C48.5904 40.06 48.5406 39.8263 48.4443 39.6105C48.348 39.3946 48.2074 39.2015 48.0315 39.0436C47.8556 38.8857 47.6485 38.7666 47.4235 38.6941C47.1986 38.6216 46.9609 38.5972 46.7259 38.6226C46.1409 38.6226 45.5494 38.6226 44.9579 38.6226H33.8494ZM35.1104 28.1381H37.5219C40.6289 28.1381 43.7294 28.1381 46.8364 28.1381C47.1126 28.1527 47.3881 28.0982 47.6379 27.9795C47.8877 27.8609 48.104 27.6818 48.2673 27.4586C48.4305 27.2353 48.5355 26.9749 48.5728 26.7009C48.6101 26.4269 48.5786 26.1479 48.4809 25.8891C48.3389 25.53 48.0804 25.2291 47.7468 25.0346C47.4132 24.8401 47.0239 24.7633 46.6414 24.8166H26.8814C25.6984 24.8166 24.5219 24.8166 23.3454 24.8166C23.2411 24.8098 23.1399 24.7778 23.0505 24.7235C22.9611 24.6692 22.8861 24.5941 22.8319 24.5046C21.8439 22.3011 20.1604 21.0726 17.7359 21.0791C15.3114 21.0856 13.6799 22.3141 12.6789 24.4786C12.6259 24.5686 12.5535 24.6457 12.4669 24.7042C12.3803 24.7626 12.2818 24.8011 12.1784 24.8166C11.4569 24.8556 10.7289 24.8166 10.0009 24.8166C9.77411 24.8024 9.54678 24.8348 9.33296 24.9119C9.11914 24.9889 8.92336 25.1089 8.75771 25.2645C8.59206 25.4201 8.46004 25.608 8.3698 25.8166C8.27955 26.0252 8.23299 26.2501 8.23299 26.4774C8.23299 26.7046 8.27955 26.9295 8.3698 27.1381C8.46004 27.3467 8.59206 27.5346 8.75771 27.6902C8.92336 27.8458 9.11914 27.9658 9.33296 28.0428C9.54678 28.1199 9.77411 28.1523 10.0009 28.1381C10.6509 28.1381 11.3334 28.1381 12.0029 28.1381C12.1626 28.1096 12.3271 28.1418 12.4642 28.2284C12.6013 28.315 12.7011 28.4497 12.7439 28.6061C13.1356 29.6025 13.8252 30.4537 14.7187 31.0435C15.6121 31.6333 16.6658 31.933 17.7359 31.9016C18.8064 31.9348 19.861 31.6368 20.7556 31.0481C21.6503 30.4594 22.3414 29.6088 22.7344 28.6126C22.7758 28.4576 22.8731 28.3234 23.0075 28.2358C23.1419 28.1482 23.3039 28.1134 23.4624 28.1381C27.3429 28.1446 31.2169 28.1381 35.0844 28.1381H35.1104Z" fill="white"/>
</g>
<defs>
<clipPath id="clip0_1416_4615">
<rect width="57" height="53" fill="white"/>
</clipPath>
</defs>
</svg>
