<svg width="28" height="24" viewBox="0 0 28 24" fill="none" xmlns="http://www.w3.org/2000/svg">
<path d="M6.96638 23.354C5.08904 23.354 3.57438 22.7673 2.42238 21.594C1.27038 20.3993 0.694375 18.8313 0.694375 16.89V6.71395C0.694375 4.77262 1.27038 3.21529 2.42238 2.04195C3.57438 0.847286 5.08904 0.249952 6.96638 0.249952C8.20371 0.249952 9.30238 0.516619 10.2624 1.04995C11.2224 1.58329 11.9584 2.34062 12.4704 3.32195C13.0037 4.30329 13.2704 5.43395 13.2704 6.71395V16.89C13.2704 18.17 13.0037 19.3006 12.4704 20.282C11.9584 21.2633 11.2224 22.0206 10.2624 22.554C9.30238 23.0873 8.20371 23.354 6.96638 23.354ZM6.96638 19.482C7.49971 19.482 7.92638 19.2686 8.24638 18.842C8.58771 18.4153 8.75838 17.85 8.75838 17.146V6.45795C8.75838 5.75395 8.58771 5.18862 8.24638 4.76195C7.92638 4.33529 7.49971 4.12195 6.96638 4.12195C6.43304 4.12195 6.00638 4.33529 5.68638 4.76195C5.36638 5.18862 5.20638 5.75395 5.20638 6.45795V17.146C5.20638 17.85 5.36638 18.4153 5.68638 18.842C6.00638 19.2686 6.43304 19.482 6.96638 19.482ZM20.5384 18.938C20.4957 18.9806 20.485 19.0233 20.5064 19.066C20.5277 19.1086 20.5704 19.13 20.6344 19.13H27.3224C27.429 19.13 27.5144 19.1726 27.5784 19.258C27.6637 19.322 27.7064 19.4073 27.7064 19.514V22.618C27.7064 22.7246 27.6637 22.8206 27.5784 22.906C27.5144 22.97 27.429 23.002 27.3224 23.002H15.4824C15.3757 23.002 15.2797 22.97 15.1944 22.906C15.1304 22.8206 15.0984 22.7246 15.0984 22.618V19.386C15.0984 19.194 15.1517 19.034 15.2584 18.906C16.1117 17.7753 16.709 17.0073 17.0504 16.602C18.9277 14.1913 20.261 12.3673 21.0504 11.13C22.2024 9.29529 22.7784 7.74862 22.7784 6.48995C22.7784 5.76462 22.629 5.20995 22.3304 4.82595C22.053 4.42062 21.669 4.21795 21.1784 4.21795C20.6877 4.21795 20.293 4.42062 19.9944 4.82595C19.6957 5.20995 19.557 5.71129 19.5784 6.32995V7.64195C19.5784 7.74862 19.5357 7.84462 19.4504 7.92995C19.3864 7.99395 19.301 8.02595 19.1944 8.02595H15.3864C15.2797 8.02595 15.1837 7.99395 15.0984 7.92995C15.0344 7.84462 15.0024 7.74862 15.0024 7.64195V6.13795C15.0877 4.38862 15.717 2.99129 16.8904 1.94595C18.0637 0.879286 19.557 0.345953 21.3704 0.345953C23.1624 0.345953 24.6024 0.911286 25.6904 2.04195C26.7997 3.17262 27.3544 4.66595 27.3544 6.52195C27.3544 7.63129 27.173 8.68729 26.8104 9.68995C26.469 10.6926 25.9037 11.77 25.1144 12.922C24.517 13.7966 23.493 15.162 22.0424 17.018L20.5384 18.938Z" fill="white"/>
</svg>
