<svg width="76" height="48" viewBox="0 0 76 48" fill="none" xmlns="http://www.w3.org/2000/svg">
<g id="delevery 1">
<path id="Vector" d="M1.52808 23.01C1.68352 22.5865 1.97755 22.2281 2.3624 21.9928C2.74725 21.7576 3.20034 21.6593 3.64808 21.714C10.2507 21.714 16.8481 21.714 23.4401 21.714C24.2401 21.714 25.0401 21.858 25.3361 22.682C25.5201 23.095 25.6016 23.5463 25.5737 23.9976C25.5459 24.4489 25.4095 24.8867 25.1761 25.274C24.9698 25.5366 24.6972 25.7394 24.3865 25.8618C24.0757 25.9841 23.738 26.0214 23.4081 25.97H13.7281C10.4081 25.97 7.08008 25.97 3.76008 25.97C3.30276 26.0346 2.83686 25.9476 2.43373 25.7222C2.0306 25.4968 1.71247 25.1454 1.52808 24.722V23.01Z" fill="white"/>
<path id="Vector_2" d="M66.7201 40.3218C66.4555 39.0064 66.0945 37.7123 65.6401 36.4498C64.8677 34.7589 63.5498 33.3765 61.8978 32.5242C60.2458 31.6719 58.3553 31.3991 56.5297 31.7496C54.7042 32.1002 53.0492 33.0537 51.8303 34.4573C50.6115 35.8609 49.8993 37.6331 49.8081 39.4898C49.8081 40.1778 49.5281 40.3618 48.8641 40.3538C43.8081 40.3538 38.7521 40.3538 33.6641 40.3538C32.6801 40.3538 32.6801 40.3538 32.6001 39.3538C32.4581 37.3378 31.5884 35.4421 30.1531 34.0194C28.7177 32.5966 26.8144 31.7438 24.7972 31.6196C22.78 31.4953 20.7864 32.1081 19.1873 33.344C17.5882 34.5798 16.4925 36.3545 16.1041 38.3378C16.0202 38.7812 15.972 39.2307 15.9601 39.6818C15.9601 40.1698 15.7041 40.3538 15.2401 40.3538C14.6241 40.3538 14.0081 40.3538 13.3921 40.3538C12.8957 40.3618 12.4028 40.2685 11.9435 40.0797C11.4843 39.8909 11.0683 39.6106 10.721 39.2558C10.3736 38.9009 10.1022 38.4791 9.92327 38.0159C9.74432 37.5528 9.66158 37.058 9.68012 36.5618C9.62412 34.0258 9.68012 31.4818 9.68012 28.9458C9.68012 28.0338 10.1361 27.6498 11.1681 27.6178C12.0641 27.6178 12.9681 27.6178 13.8721 27.6178C17.1921 27.6178 20.5201 27.6178 23.8401 27.6178C24.6459 27.6382 25.4296 27.3537 26.0347 26.8212C26.6399 26.2888 27.0218 25.5476 27.1041 24.7458C27.4161 22.4898 26.5841 20.8258 24.8321 20.3138C24.3281 20.1837 23.8085 20.1245 23.2881 20.1378C19.3681 20.1378 15.4561 20.1378 11.5361 20.1378C11.2349 20.1117 10.9356 20.0662 10.6401 20.0018C10.508 19.999 10.3779 19.9692 10.2577 19.9141C10.1376 19.8591 10.03 19.7801 9.94155 19.6819C9.85311 19.5837 9.78571 19.4685 9.7435 19.3433C9.70129 19.218 9.68517 19.0855 9.69612 18.9538C9.69612 18.7618 9.69612 18.5778 9.69612 18.3858C9.69612 17.3218 9.93612 17.0978 11.0081 17.0978H29.4081C30.2574 17.1497 31.1003 16.9221 31.8081 16.4498C33.2001 15.4498 33.4081 13.7058 32.9761 11.8578C32.7631 11.1595 32.3177 10.5549 31.7138 10.1446C31.1099 9.73419 30.3838 9.54269 29.6561 9.60183C23.5388 9.60183 17.4055 9.60183 11.2561 9.60183C9.88012 9.60183 9.65612 9.37783 9.65612 8.00183C9.65612 7.24183 9.65612 6.48183 9.65612 5.72183C9.59881 4.83333 9.87427 3.95532 10.4288 3.25878C10.9834 2.56224 11.7774 2.09706 12.6561 1.95383C13.4888 1.76855 14.3391 1.67466 15.1921 1.67383C26.3921 1.67383 37.5921 1.67383 48.7921 1.67383C51.5121 1.67383 52.7921 2.91383 52.7921 5.62583C52.7921 7.14583 52.7921 8.66583 52.7921 10.1858C52.7921 11.0338 52.9441 11.1778 53.7921 11.1778C54.9281 11.1778 56.0641 11.1778 57.2081 11.1778C58.4509 11.1445 59.676 11.4771 60.7313 12.1341C61.7866 12.7912 62.6257 13.7439 63.1441 14.8738C64.0161 16.5778 64.9121 18.2898 65.6801 20.0418C65.9989 20.7978 66.4943 21.4662 67.1249 21.991C67.7555 22.5158 68.5028 22.8817 69.3041 23.0578C69.9921 23.2338 70.6721 23.4658 71.3601 23.6098C72.1061 23.7407 72.7858 24.1203 73.2885 24.6869C73.7911 25.2534 74.0871 25.9735 74.1281 26.7298C74.2789 27.761 74.3698 28.8001 74.4001 29.8418C74.4001 32.0498 74.4001 34.2578 74.4001 36.4658C74.4338 36.9541 74.3679 37.4441 74.2062 37.906C74.0446 38.368 73.7907 38.7922 73.4599 39.1529C73.1291 39.5136 72.7284 39.8032 72.2822 40.0042C71.8359 40.2052 71.3535 40.3132 70.8641 40.3218C69.4881 40.4018 68.0401 40.3218 66.7201 40.3218ZM64.2561 22.9698C63.2081 20.8658 62.2401 18.8978 61.2481 16.9298C60.7942 15.9729 60.0783 15.1643 59.1833 14.5979C58.2884 14.0315 57.2512 13.7305 56.1921 13.7298C55.3921 13.7298 54.5281 13.7298 53.6961 13.7298C53.0801 13.7298 52.8161 13.9058 52.8241 14.5858C52.8241 17.1218 52.8241 19.6658 52.8241 22.2018C52.8241 23.0018 52.9361 23.1298 53.7841 23.1378H63.3361C63.6458 23.1001 63.953 23.044 64.2561 22.9698Z" fill="white"/>
<path id="Vector_3" d="M18.6319 15.4734H7.81589C7.01589 15.4734 6.28788 15.3534 5.95988 14.5694C5.77537 14.1633 5.68798 13.7198 5.70464 13.2741C5.7213 12.8284 5.84156 12.3926 6.05588 12.0014C6.23956 11.7171 6.50031 11.491 6.8077 11.3493C7.11509 11.2077 7.45644 11.1564 7.79188 11.2014H29.1999C31.1839 11.2014 32.0719 12.4814 31.4079 14.4014C31.2718 14.7478 31.0261 15.0401 30.7083 15.2336C30.3905 15.4272 30.0181 15.5114 29.6479 15.4734H18.6319Z" fill="white"/>
<path id="Vector_4" d="M64.496 40.0019C64.496 41.2704 64.119 42.5103 63.4128 43.5641C62.7067 44.6179 61.7034 45.4381 60.5302 45.9206C59.357 46.4031 58.0669 46.526 56.8237 46.2738C55.5805 46.0216 54.4403 45.4057 53.5479 44.5043C52.6554 43.6028 52.051 42.4564 51.8113 41.2108C51.5716 39.9651 51.7076 38.6763 52.2018 37.508C52.696 36.3398 53.5263 35.3447 54.5871 34.6492C55.648 33.9537 56.8916 33.5892 58.16 33.6019C59.8463 33.6187 61.4578 34.3005 62.6442 35.4989C63.8306 36.6973 64.4961 38.3155 64.496 40.0019ZM58 42.7059C58.3686 42.7219 58.7366 42.6644 59.0827 42.5366C59.4287 42.4088 59.7458 42.2133 60.0154 41.9616C60.2851 41.7098 60.5018 41.4068 60.653 41.0704C60.8042 40.7339 60.8868 40.3707 60.896 40.0019C60.9007 39.2721 60.621 38.5691 60.1163 38.042C59.6115 37.5148 58.9214 37.2049 58.192 37.1779C57.4634 37.1541 56.7551 37.4205 56.2227 37.9184C55.6902 38.4164 55.3771 39.1053 55.352 39.8339C55.3316 40.1977 55.3844 40.5619 55.5074 40.9049C55.6304 41.2478 55.821 41.5626 56.068 41.8305C56.315 42.0984 56.6133 42.3139 56.9452 42.4643C57.2771 42.6146 57.6358 42.6968 58 42.7059Z" fill="white"/>
<path id="Vector_5" d="M30.728 40.0016C30.728 41.2674 30.3526 42.5047 29.6494 43.5572C28.9461 44.6097 27.9466 45.43 26.7772 45.9144C25.6077 46.3988 24.3209 46.5255 23.0794 46.2786C21.8379 46.0316 20.6976 45.4221 19.8025 44.527C18.9074 43.632 18.2979 42.4916 18.051 41.2501C17.804 40.0087 17.9308 38.7218 18.4152 37.5524C18.8996 36.3829 19.7199 35.3834 20.7723 34.6802C21.8248 33.9769 23.0622 33.6016 24.328 33.6016C26.0196 33.6203 27.6366 34.3006 28.8328 35.4968C30.029 36.693 30.7093 38.31 30.728 40.0016ZM24.328 42.7536C24.8777 42.752 25.4146 42.5872 25.8705 42.2801C26.3265 41.973 26.681 41.5375 26.8892 41.0287C27.0973 40.52 27.1497 39.9608 27.0398 39.4222C26.9298 38.8836 26.6624 38.3898 26.2714 38.0033C25.8805 37.6169 25.3836 37.3552 24.8438 37.2515C24.3039 37.1477 23.7454 37.2066 23.2391 37.4206C22.7327 37.6346 22.3013 37.9942 21.9996 38.4537C21.6978 38.9131 21.5392 39.4519 21.544 40.0016C21.5566 40.7294 21.8563 41.4227 22.3777 41.9307C22.8991 42.4386 23.6001 42.72 24.328 42.7136V42.7536Z" fill="white"/>
</g>
</svg>
