<svg width="22" height="24" viewBox="0 0 22 24" fill="none" xmlns="http://www.w3.org/2000/svg">
<path id="01" d="M6.43513 23.352C4.55779 23.352 3.04313 22.7653 1.89113 21.592C0.739125 20.3973 0.163125 18.8293 0.163125 16.888V6.712C0.163125 4.77067 0.739125 3.21333 1.89113 2.04C3.04313 0.845332 4.55779 0.247999 6.43513 0.247999C7.67246 0.247999 8.77113 0.514666 9.73113 1.048C10.6911 1.58133 11.4271 2.33867 11.9391 3.32C12.4725 4.30133 12.7391 5.432 12.7391 6.712V16.888C12.7391 18.168 12.4725 19.2987 11.9391 20.28C11.4271 21.2613 10.6911 22.0187 9.73113 22.552C8.77113 23.0853 7.67246 23.352 6.43513 23.352ZM6.43513 19.48C6.96846 19.48 7.39513 19.2667 7.71513 18.84C8.05646 18.4133 8.22713 17.848 8.22713 17.144V6.456C8.22713 5.752 8.05646 5.18667 7.71513 4.76C7.39513 4.33333 6.96846 4.12 6.43513 4.12C5.90179 4.12 5.47513 4.33333 5.15513 4.76C4.83513 5.18667 4.67513 5.752 4.67513 6.456V17.144C4.67513 17.848 4.83513 18.4133 5.15513 18.84C5.47513 19.2667 5.90179 19.48 6.43513 19.48ZM16.9031 0.695999C17.0738 0.631999 17.2338 0.599998 17.3831 0.599998H21.2551C21.3618 0.599998 21.4471 0.642665 21.5111 0.727999C21.5965 0.791999 21.6391 0.877333 21.6391 0.983999V22.616C21.6391 22.7227 21.5965 22.8187 21.5111 22.904C21.4471 22.968 21.3618 23 21.2551 23H17.5111C17.4045 23 17.3085 22.968 17.2231 22.904C17.1591 22.8187 17.1271 22.7227 17.1271 22.616V5.144C17.1271 5.05867 17.0738 5.016 16.9671 5.016L14.5031 5.304H14.4391C14.2045 5.304 14.0871 5.18667 14.0871 4.952L13.9911 2.2C13.9911 1.98667 14.0871 1.83733 14.2791 1.752L16.9031 0.695999Z" fill="white"/>
</svg>
