<svg width="62" height="55" viewBox="0 0 62 55" fill="none" xmlns="http://www.w3.org/2000/svg">
<g id="Editing 1">
<path id="Vector" d="M33.5603 50.5099H10.2058C5.9093 50.5099 3.0558 47.6499 3.0558 43.3599C3.0558 31.3653 3.0558 19.3728 3.0558 7.38243C3.00274 5.74839 3.54595 4.15086 4.58409 2.88787C5.62223 1.62487 7.0844 0.782689 8.6978 0.518431C9.15609 0.451258 9.61924 0.42299 10.0823 0.433931C22.9653 0.433931 35.844 0.433931 48.7183 0.433931C52.1568 0.433931 54.7828 2.42943 55.5628 5.63393C55.6774 6.10674 55.7406 6.59055 55.7513 7.07693C55.7513 9.74193 55.7513 12.4069 55.7513 15.0719C55.7513 15.1954 55.7513 15.3189 55.7513 15.4944C54.355 15.2736 52.9268 15.5895 51.7538 16.3784L51.7083 15.3839H43.6418V23.4309H47.0283C46.2353 24.8024 45.5268 26.0959 44.7338 27.3309C44.5908 27.5454 44.0838 27.4999 43.6483 27.5844C43.6192 27.6358 43.6057 27.6945 43.6093 27.7534C43.7978 28.9819 43.2778 29.9829 42.6798 31.0034C40.0798 35.4364 37.5643 39.9084 34.9643 44.3284C33.935 45.9681 33.4441 47.8885 33.5603 49.8209C33.5733 50.0289 33.5603 50.2499 33.5603 50.5099ZM21.9578 26.1219C21.9578 28.1499 21.9578 30.1779 21.9578 32.2124C21.9578 34.5654 24.1093 35.8134 26.1568 34.6759C26.4168 34.5329 26.6703 34.3834 26.9238 34.2339L36.6218 28.6309C37.0857 28.4074 37.4778 28.0583 37.7534 27.6233C38.0291 27.1883 38.1774 26.6848 38.1814 26.1698C38.1855 25.6549 38.0452 25.149 37.7764 24.7097C37.5076 24.2705 37.1212 23.9153 36.6608 23.6844L26.2998 17.7044C24.0833 16.4044 21.9513 17.6589 21.9448 20.2199C21.9513 22.1894 21.9578 24.1524 21.9578 26.1219ZM15.1913 15.3449H7.1443V23.3919H15.1913V15.3449ZM7.1378 35.5794H15.1653V27.5324H7.1378V35.5794ZM7.1378 11.2044H15.1978V4.51593C13.2478 4.51593 11.3628 4.46393 9.4648 4.51593C8.84619 4.57242 8.26937 4.85237 7.84225 5.30341C7.41514 5.75445 7.16701 6.34567 7.1443 6.96643C7.0793 8.37043 7.1183 9.76793 7.1183 11.2044H7.1378ZM43.6548 4.50943V11.2044H51.7148C51.7148 9.74843 51.7668 8.33793 51.7148 6.92743C51.6814 6.30702 51.4226 5.72017 50.9868 5.27726C50.5511 4.83436 49.9686 4.56592 49.3488 4.52243C47.4378 4.46393 45.5658 4.50943 43.6353 4.50943H43.6548ZM7.1118 39.7134C7.1118 41.0134 7.1118 42.3134 7.1118 43.5549C7.10196 43.7238 7.10196 43.8931 7.1118 44.0619C7.18295 44.6978 7.47992 45.2869 7.94871 45.7223C8.41749 46.1577 9.02696 46.4104 9.6663 46.4344C10.8038 46.4669 11.9478 46.4344 13.0853 46.4344H15.1848V39.7134H7.1118Z" fill="white"/>
<path id="Vector_2" d="M49.9533 23.7695L56.9798 27.8385L44.6298 49.3275L37.5708 45.265L49.9533 23.7695ZM51.1363 28.2675C50.7983 28.482 50.3368 28.625 50.1418 28.9175C49.3618 30.146 48.6403 31.4135 47.9513 32.694C47.8096 32.9939 47.7879 33.3366 47.8906 33.652C47.9933 33.9674 48.2127 34.2316 48.5038 34.3905C48.6418 34.4811 48.7964 34.5433 48.9586 34.5737C49.1208 34.6041 49.2875 34.602 49.4489 34.5675C49.6103 34.5331 49.7633 34.4669 49.8989 34.3729C50.0346 34.279 50.1503 34.159 50.2393 34.02C51.0063 32.785 51.7538 31.5305 52.4168 30.237C52.5024 30.0232 52.5354 29.792 52.5129 29.5628C52.4904 29.3336 52.4131 29.1131 52.2876 28.92C52.162 28.727 51.9919 28.5669 51.7915 28.4533C51.5912 28.3398 51.3665 28.276 51.1363 28.2675Z" fill="white"/>
<path id="Vector_3" d="M47.0283 50.5093C47.8343 49.1183 48.5493 47.8573 49.2903 46.6093C49.4125 46.4731 49.5736 46.3778 49.7518 46.3363C50.3329 46.1871 50.8445 45.8416 51.2 45.3582C51.5554 44.8749 51.7327 44.2835 51.7018 43.6843C51.673 42.8008 51.9157 41.9296 52.3973 41.1883C53.4113 39.5113 54.3473 37.7953 55.3483 36.0988C55.4517 35.9053 55.5985 35.7384 55.7773 35.6113V36.1443C55.7773 38.5948 55.7773 41.0453 55.7773 43.4958C55.8145 44.4235 55.6599 45.3489 55.3231 46.214C54.9863 47.0792 54.4745 47.8656 53.8199 48.5239C53.1652 49.1822 52.3817 49.6983 51.5185 50.04C50.6552 50.3816 49.7307 50.5414 48.8028 50.5093H47.0283Z" fill="white"/>
<path id="Vector_4" d="M51.3057 21.4281C51.7347 20.6871 52.0987 19.9981 52.5212 19.3416C52.8663 18.7759 53.4143 18.3634 54.0534 18.1882C54.6925 18.013 55.3743 18.0885 55.9597 18.3991C56.8794 18.8688 57.7733 19.3874 58.6377 19.9526C59.1661 20.294 59.5528 20.8155 59.7261 21.4203C59.8994 22.0251 59.8476 22.6722 59.5802 23.2416C59.2292 24.0021 58.7742 24.7106 58.3452 25.4906L51.3057 21.4281Z" fill="white"/>
<path id="Vector_5" d="M43.0958 51.5888C42.6213 51.9138 42.2573 52.2388 41.8608 52.4338C40.7515 53.0708 39.6291 53.6948 38.4938 54.3058C37.3693 54.9168 36.3553 54.3903 36.3098 53.1228C36.2578 51.6473 36.2643 50.1653 36.2578 48.6898C36.2816 48.3622 36.3272 48.0364 36.3943 47.7148L43.0958 51.5888Z" fill="white"/>
</g>
</svg>
