<svg width="49" height="56" viewBox="0 0 49 56" fill="none" xmlns="http://www.w3.org/2000/svg">
<g id="Raw 1">
<path id="Vector" d="M44.2404 55.7211H0.820403C0.584062 55.6022 0.389609 55.4141 0.263011 55.1818C0.136413 54.9495 0.0836976 54.6841 0.111903 54.4211C0.111903 44.2638 0.111903 34.1021 0.111903 23.9361C0.111903 22.9611 0.443403 22.6361 1.4119 22.6361C4.8894 22.6361 8.3669 22.6361 11.8444 22.6361C12.3138 22.6228 12.7808 22.7092 13.2144 22.8896C13.648 23.07 14.0384 23.3402 14.3599 23.6826C16.0239 25.3791 17.7334 27.0301 19.3909 28.7331C19.9131 29.2963 20.55 29.7409 21.2587 30.037C21.9673 30.333 22.7313 30.4735 23.4989 30.4491C30.1679 30.4491 36.8369 30.4491 43.5059 30.4491C44.5784 30.4491 44.8774 30.7481 44.8774 31.8011C44.8774 39.3411 44.8774 46.8789 44.8774 54.4146C44.8977 54.6694 44.8493 54.925 44.7373 55.1548C44.6252 55.3846 44.4537 55.5801 44.2404 55.7211ZM4.0119 42.5716V32.7891C4.0119 31.8726 3.7064 31.4241 3.0629 31.4111C2.4194 31.3981 2.0749 31.8531 2.0749 32.8086C2.0749 39.3086 2.0749 45.8281 2.0749 52.3671C2.06185 52.5597 2.06185 52.753 2.0749 52.9456C2.09488 53.1616 2.1919 53.3632 2.34824 53.5136C2.50458 53.6639 2.7098 53.753 2.9264 53.7646C3.13105 53.7984 3.34104 53.758 3.51858 53.6508C3.69612 53.5435 3.82956 53.3765 3.8949 53.1796C3.96496 52.9703 3.99795 52.7503 3.9924 52.5296C4.0184 49.1951 4.0119 45.8801 4.0119 42.5716ZM2.0619 27.5111C2.0619 27.8621 2.0619 28.2196 2.0619 28.5706C2.08208 28.8044 2.1876 29.0226 2.35834 29.1836C2.52908 29.3446 2.7531 29.4372 2.9877 29.4436C3.22229 29.45 3.45105 29.3699 3.63035 29.2185C3.80965 29.0671 3.92696 28.855 3.9599 28.6226C3.99891 27.8821 3.99891 27.1401 3.9599 26.3996C3.94773 26.2804 3.91216 26.1649 3.85522 26.0595C3.79829 25.9541 3.7211 25.861 3.62811 25.7855C3.53511 25.71 3.42812 25.6536 3.31328 25.6196C3.19845 25.5855 3.07802 25.5745 2.9589 25.5871C2.72653 25.5869 2.50316 25.677 2.33585 25.8382C2.16853 25.9995 2.07032 26.2194 2.0619 26.4516C2.0684 26.8026 2.0879 27.1601 2.0879 27.5111H2.0619Z" fill="white"/>
<path id="Vector_2" d="M46.6911 55.7223C46.7301 55.2478 46.8016 54.7733 46.8016 54.2988C46.8016 46.7155 46.8016 39.1321 46.8016 31.5488C46.8245 31.1408 46.7606 30.7326 46.6142 30.3511C46.4679 29.9696 46.2423 29.6234 45.9524 29.3354C45.6626 29.0474 45.315 28.824 44.9325 28.6801C44.5501 28.5361 44.1415 28.4749 43.7336 28.5003H42.9731V26.5503H46.3921C46.8471 26.5503 47.3086 26.5503 47.7701 26.5503C47.895 26.5433 48.02 26.5612 48.1379 26.603C48.2557 26.6448 48.3641 26.7096 48.4567 26.7937C48.5492 26.8778 48.6241 26.9795 48.677 27.0928C48.7299 27.2061 48.7597 27.3289 48.7646 27.4538C48.7646 27.5903 48.7646 27.7333 48.7646 27.8763C48.7646 36.7033 48.7646 45.5325 48.7646 54.3638C48.8036 54.6358 48.7555 54.9132 48.627 55.1561C48.4985 55.399 48.2964 55.5949 48.0496 55.7158L46.6911 55.7223Z" fill="white"/>
<path id="Vector_3" d="M11.8184 20.6995V4.18945H35.1079V28.4605C34.9259 28.4605 34.7374 28.4605 34.5554 28.4605C30.8309 28.4995 27.0999 28.4995 23.3819 28.4995C22.9217 28.5113 22.4642 28.4266 22.0388 28.2508C21.6133 28.0751 21.2295 27.8121 20.9119 27.479C19.3324 25.8735 17.7074 24.3135 16.1474 22.6885C14.9644 21.4535 13.6384 20.6085 11.8184 20.6995ZM20.5544 22.6495C20.8813 22.5809 21.1996 22.4763 21.5034 22.3375C24.1554 20.6995 26.8074 19.0875 29.4269 17.378C29.6969 17.2099 29.9196 16.9757 30.0741 16.6977C30.2285 16.4196 30.3096 16.1068 30.3096 15.7887C30.3096 15.4706 30.2285 15.1578 30.0741 14.8797C29.9196 14.6017 29.6969 14.3675 29.4269 14.1995C26.8269 12.5225 24.1987 10.8801 21.5424 9.27245C21.25 9.09488 20.9152 8.99933 20.5731 8.99585C20.2311 8.99236 19.8944 9.08106 19.5985 9.25264C19.3025 9.42421 19.0583 9.67232 18.8914 9.9709C18.7244 10.2695 18.641 10.6075 18.6499 10.9495C18.6109 14.1995 18.6499 17.5015 18.6499 20.784C18.669 21.2835 18.8756 21.7576 19.2286 22.1117C19.5815 22.4659 20.0548 22.6741 20.5544 22.695V22.6495Z" fill="white"/>
<path id="Vector_4" d="M9.81629 5.10002H5.98779V1.29102H9.81629V5.10002Z" fill="white"/>
<path id="Vector_5" d="M37.123 5.09934V1.27734H40.9385V5.09934H37.123Z" fill="white"/>
<path id="Vector_6" d="M9.82295 10.9509H5.98145V7.12891H9.82295V10.9509Z" fill="white"/>
<path id="Vector_7" d="M9.81663 16.8005H5.99463V12.959H9.81663V16.8005Z" fill="white"/>
<path id="Vector_8" d="M40.9386 28.4996H37.1426V24.5996H40.9386V28.4996Z" fill="white"/>
<path id="Vector_9" d="M40.9452 10.9503H37.1362V7.13477H40.9452V10.9503Z" fill="white"/>
<path id="Vector_10" d="M40.9514 12.9648V16.7998H37.1294V12.9648H40.9514Z" fill="white"/>
<path id="Vector_11" d="M40.9514 18.8027V22.6052H37.1489V18.8027H40.9514Z" fill="white"/>
<path id="Vector_12" d="M9.82945 20.6995H5.98145V18.8145H9.82945V20.6995Z" fill="white"/>
<path id="Vector_13" d="M28.3286 15.851L20.6001 20.7V11.002L28.3286 15.851Z" fill="white"/>
</g>
</svg>
