<svg width="28" height="24" viewBox="0 0 28 24" fill="none" xmlns="http://www.w3.org/2000/svg">
<path d="M7.01325 23.352C5.13592 23.352 3.62125 22.7653 2.46925 21.592C1.31725 20.3973 0.74125 18.8293 0.74125 16.888V6.712C0.74125 4.77067 1.31725 3.21333 2.46925 2.04C3.62125 0.845332 5.13592 0.247999 7.01325 0.247999C8.25058 0.247999 9.34925 0.514666 10.3093 1.048C11.2693 1.58133 12.0053 2.33867 12.5173 3.32C13.0506 4.30133 13.3173 5.432 13.3173 6.712V16.888C13.3173 18.168 13.0506 19.2987 12.5173 20.28C12.0053 21.2613 11.2693 22.0187 10.3093 22.552C9.34925 23.0853 8.25058 23.352 7.01325 23.352ZM7.01325 19.48C7.54658 19.48 7.97325 19.2667 8.29325 18.84C8.63458 18.4133 8.80525 17.848 8.80525 17.144V6.456C8.80525 5.752 8.63458 5.18667 8.29325 4.76C7.97325 4.33333 7.54658 4.12 7.01325 4.12C6.47992 4.12 6.05325 4.33333 5.73325 4.76C5.41325 5.18667 5.25325 5.752 5.25325 6.456V17.144C5.25325 17.848 5.41325 18.4133 5.73325 18.84C6.05325 19.2667 6.47992 19.48 7.01325 19.48ZM27.0493 13.528C27.1559 14.3387 27.2093 15.128 27.2093 15.896C27.2093 16.8347 27.1666 17.6347 27.0813 18.296C26.9106 19.832 26.3133 21.048 25.2893 21.944C24.2866 22.8187 22.9319 23.256 21.2253 23.256C19.4546 23.256 18.0146 22.7867 16.9053 21.848C15.7959 20.9093 15.1986 19.6613 15.1133 18.104C15.0493 17.528 15.0173 16.9093 15.0173 16.248C15.0173 15.992 15.1453 15.864 15.4013 15.864H19.1453C19.4013 15.864 19.5293 15.992 19.5293 16.248C19.5293 16.7387 19.5613 17.1973 19.6253 17.624C19.6893 18.1787 19.8599 18.616 20.1373 18.936C20.4146 19.2347 20.7773 19.384 21.2253 19.384C21.6519 19.384 22.0039 19.2347 22.2812 18.936C22.5586 18.6373 22.7399 18.232 22.8253 17.72C22.8893 16.9733 22.9213 16.2053 22.9213 15.416C22.9213 14.4133 22.8679 13.624 22.7613 13.048C22.6759 12.5573 22.4946 12.184 22.2173 11.928C21.9613 11.6507 21.6306 11.512 21.2253 11.512C20.9053 11.512 20.5853 11.6507 20.2653 11.928C20.1373 12.0133 20.0519 12.056 20.0093 12.056C19.9239 12.056 19.8279 12.0027 19.7213 11.896L17.8013 9.944C17.7159 9.85867 17.6733 9.76267 17.6733 9.656C17.6733 9.57067 17.7053 9.48533 17.7693 9.4L21.6413 4.632C21.6839 4.58933 21.6946 4.54667 21.6733 4.504C21.6519 4.46133 21.6093 4.44 21.5453 4.44H15.7853C15.6786 4.44 15.5826 4.408 15.4973 4.344C15.4333 4.25867 15.4013 4.16267 15.4013 4.056V0.983999C15.4013 0.877333 15.4333 0.791999 15.4973 0.727999C15.5826 0.642665 15.6786 0.599998 15.7853 0.599998H26.7933C26.8999 0.599998 26.9853 0.642665 27.0493 0.727999C27.1346 0.791999 27.1773 0.877333 27.1773 0.983999V4.184C27.1773 4.35467 27.1239 4.51467 27.0173 4.664L23.4333 9.176C23.4119 9.21867 23.4013 9.26133 23.4013 9.304C23.4013 9.34667 23.4226 9.368 23.4653 9.368C24.4039 9.45333 25.1933 9.88 25.8333 10.648C26.4946 11.416 26.8999 12.376 27.0493 13.528Z" fill="white"/>
</svg>
