<svg width="30" height="24" viewBox="0 0 30 24" fill="none" xmlns="http://www.w3.org/2000/svg">
<path d="M7.232 23.354C5.35467 23.354 3.84 22.7673 2.688 21.594C1.536 20.3993 0.96 18.8313 0.96 16.89V6.71395C0.96 4.77262 1.536 3.21529 2.688 2.04195C3.84 0.847286 5.35467 0.249952 7.232 0.249952C8.46933 0.249952 9.568 0.516619 10.528 1.04995C11.488 1.58329 12.224 2.34062 12.736 3.32195C13.2693 4.30329 13.536 5.43395 13.536 6.71395V16.89C13.536 18.17 13.2693 19.3006 12.736 20.282C12.224 21.2633 11.488 22.0206 10.528 22.554C9.568 23.0873 8.46933 23.354 7.232 23.354ZM7.232 19.482C7.76533 19.482 8.192 19.2686 8.512 18.842C8.85333 18.4153 9.024 17.85 9.024 17.146V6.45795C9.024 5.75395 8.85333 5.18862 8.512 4.76195C8.192 4.33529 7.76533 4.12195 7.232 4.12195C6.69867 4.12195 6.272 4.33529 5.952 4.76195C5.632 5.18862 5.472 5.75395 5.472 6.45795V17.146C5.472 17.85 5.632 18.4153 5.952 18.842C6.272 19.2686 6.69867 19.482 7.232 19.482ZM29.156 13.274C29.2627 13.274 29.348 13.3166 29.412 13.402C29.4973 13.466 29.54 13.5513 29.54 13.658V16.954C29.54 17.0606 29.4973 17.1566 29.412 17.242C29.348 17.306 29.2627 17.338 29.156 17.338H28.164C28.0573 17.338 28.004 17.3913 28.004 17.498V22.618C28.004 22.7246 27.9613 22.8206 27.876 22.906C27.812 22.97 27.7267 23.002 27.62 23.002H23.876C23.7693 23.002 23.6733 22.97 23.588 22.906C23.524 22.8206 23.492 22.7246 23.492 22.618V17.498C23.492 17.3913 23.4387 17.338 23.332 17.338H15.332C15.2253 17.338 15.1293 17.306 15.044 17.242C14.98 17.1566 14.948 17.0606 14.948 16.954V14.33C14.948 14.138 14.9693 13.978 15.012 13.85L19.268 0.921951C19.332 0.708618 19.4707 0.601952 19.684 0.601952H23.748C23.876 0.601952 23.972 0.644618 24.036 0.729952C24.1 0.793952 24.1107 0.900619 24.068 1.04995L20.228 13.082C20.2067 13.21 20.2493 13.274 20.356 13.274H23.332C23.4387 13.274 23.492 13.2206 23.492 13.114V9.78595C23.492 9.67929 23.524 9.59395 23.588 9.52995C23.6733 9.44462 23.7693 9.40195 23.876 9.40195H27.62C27.7267 9.40195 27.812 9.44462 27.876 9.52995C27.9613 9.59395 28.004 9.67929 28.004 9.78595V13.114C28.004 13.2206 28.0573 13.274 28.164 13.274H29.156Z" fill="white"/>
</svg>
