<svg width="58" height="72" viewBox="0 0 58 72" fill="none" xmlns="http://www.w3.org/2000/svg">
<g id="Top notch 1">
<path id="Vector" d="M41.7499 55.4829L38.2474 54.9354C37.4086 54.7848 36.5474 54.8146 35.721 55.0228C34.8947 55.231 34.1221 55.6129 33.4549 56.1429C32.4574 56.8929 31.5124 57.7479 30.5149 58.5129C29.3224 59.4204 28.6624 59.4129 27.4624 58.5129C26.7124 57.9354 25.9624 57.3279 25.2649 56.6979C24.4251 55.9117 23.4014 55.3486 22.2877 55.0604C21.1739 54.7721 20.0057 54.7678 18.8899 55.0479C17.9074 55.2504 16.9174 55.4004 15.8899 55.5129C15.6697 55.5743 15.4396 55.5916 15.2128 55.5637C14.986 55.5358 14.7669 55.4632 14.5682 55.3503C14.3696 55.2374 14.1952 55.0863 14.0552 54.9056C13.9151 54.725 13.8122 54.5185 13.7524 54.2979C13.3249 53.3379 12.9574 52.3479 12.6274 51.3504C12.3 50.2621 11.7081 49.2719 10.9045 48.4683C10.1009 47.6647 9.11066 47.0728 8.02236 46.7454C7.09236 46.4379 6.17736 46.0929 5.28486 45.7179C3.98736 45.1704 3.66486 44.5704 3.86736 43.1754C4.06986 41.7804 4.30236 40.5354 4.45986 39.2079C4.55889 38.4271 4.49685 37.6343 4.27756 36.8784C4.05827 36.1225 3.68639 35.4195 3.18486 34.8129C2.43486 33.8604 1.63986 32.9529 0.934863 31.9929C-0.0401367 30.7179 -0.0401367 30.0879 0.934863 28.8279C1.57236 27.9879 2.24736 27.1779 2.93736 26.3829C3.6269 25.5942 4.12182 24.6548 4.38233 23.6401C4.64285 22.6254 4.66169 21.5637 4.43736 20.5404C4.27236 19.6029 4.10736 18.6654 3.96486 17.7279C3.72486 16.2279 4.03986 15.6279 5.46486 15.0354C6.41736 14.6454 7.38486 14.2854 8.35236 13.9554C9.32333 13.6251 10.2038 13.0727 10.9238 12.3423C11.6438 11.6119 12.1835 10.7235 12.4999 9.74793C12.8449 8.78043 13.1899 7.81293 13.5799 6.86043C14.1799 5.42043 14.6149 5.14293 16.1824 5.30793C17.2249 5.41293 18.2674 5.61543 19.3024 5.81043C20.2926 6.02274 21.3187 6.00108 22.2991 5.7472C23.2795 5.49331 24.1871 5.01419 24.9499 4.34793C25.7524 3.67293 26.5624 2.99043 27.3949 2.34543C28.6999 1.33293 29.2849 1.34043 30.6199 2.34543C31.2586 2.81236 31.872 3.31308 32.4574 3.84543C33.3425 4.74025 34.447 5.38712 35.6605 5.72141C36.8739 6.0557 38.1538 6.06571 39.3724 5.75043C40.3699 5.53293 41.3974 5.44293 42.4174 5.31543C42.7662 5.25657 43.1246 5.32289 43.4293 5.50267C43.7339 5.68245 43.9652 5.96412 44.0824 6.29793C44.5091 7.20087 44.8773 8.13029 45.1849 9.08043C45.5207 10.3328 46.184 11.4731 47.1068 12.3839C48.0295 13.2948 49.1783 13.9434 50.4349 14.2629C51.1697 14.4917 51.8908 14.7621 52.5949 15.0729C54.0499 15.6879 54.3349 16.2279 54.0949 17.7729C53.9524 18.6879 53.8099 19.6029 53.6374 20.5104C53.3912 21.5577 53.3988 22.6486 53.6598 23.6923C53.9207 24.736 54.4273 25.7022 55.1374 26.5104C55.8274 27.3054 56.5024 28.1154 57.1399 28.9554C58.0249 30.1179 58.0249 30.7779 57.1399 31.9554C56.5024 32.7504 55.8274 33.5004 55.1374 34.3179C54.4273 35.1261 53.9207 36.0923 53.6598 37.136C53.3988 38.1797 53.3912 39.2707 53.6374 40.3179C53.8099 41.2779 53.9749 42.2379 54.1249 43.2054C54.3274 44.5629 54.0199 45.1629 52.7674 45.7104C51.8224 46.1154 50.8624 46.4604 49.8874 46.7979C48.8251 47.1202 47.8587 47.6994 47.0738 48.4843C46.2888 49.2693 45.7096 50.2357 45.3874 51.2979C45.0499 52.2954 44.6899 53.2929 44.2624 54.2529C43.7524 55.3479 43.2499 55.6029 41.7499 55.4829ZM28.9999 9.80793C24.927 9.80349 20.9443 11.0076 17.5562 13.268C14.1681 15.5283 11.5268 18.7431 9.96682 22.5054C8.40682 26.2677 7.99826 30.4083 8.79284 34.4029C9.58743 38.3975 11.5494 42.0666 14.4305 44.9455C17.3115 47.8244 20.9819 49.7837 24.9772 50.5754C28.9724 51.3671 33.1126 50.9555 36.8738 49.3927C40.635 47.83 43.8478 45.1864 46.1057 41.7966C48.3635 38.4068 49.5648 34.4233 49.5574 30.3504C49.5415 24.9045 47.3701 19.6864 43.5178 15.8369C39.6655 11.9874 34.4458 9.8198 28.9999 9.80793Z" fill="white"/>
<path id="Vector_2" d="M48.6427 52.04C50.6002 58.25 52.5052 64.25 54.4027 70.25C54.6652 71.09 54.3277 71.5175 53.4277 71.5175C48.6727 71.5175 43.9177 71.5175 39.1777 71.5175C38.9134 71.5482 38.647 71.4802 38.4297 71.3266C38.2124 71.173 38.0595 70.9445 38.0002 70.685C36.8902 67.13 35.7502 63.59 34.6777 60.035C34.6542 59.8872 34.6635 59.7359 34.705 59.592C34.7464 59.4482 34.8191 59.3152 34.9177 59.2025C35.3784 58.7348 35.9563 58.3997 36.591 58.2321C37.2257 58.0645 37.8938 58.0707 38.5252 58.25C39.5002 58.445 40.4902 58.61 41.4802 58.7525C42.6262 58.9988 43.8223 58.833 44.8581 58.2843C45.8939 57.7355 46.7029 56.839 47.1427 55.7525C47.6977 54.62 48.1027 53.405 48.6427 52.04Z" fill="white"/>
<path id="Vector_3" d="M9.35023 52.0479C9.50773 52.4154 9.62023 52.6403 9.70273 52.8653C9.91273 53.4203 10.1002 53.9753 10.3102 54.5303C11.6677 58.1904 13.7002 59.3379 17.5402 58.6329C18.4477 58.4679 19.3627 58.3478 20.2702 58.1903C20.8249 58.1162 21.3894 58.1809 21.913 58.3785C22.4365 58.5762 22.9029 58.9006 23.2702 59.3228C23.3387 59.4181 23.385 59.5275 23.4058 59.643C23.4265 59.7585 23.4212 59.8772 23.3902 59.9903C22.2727 63.5904 21.1402 67.1828 20.0002 70.7829C19.9501 71.0103 19.819 71.2118 19.6314 71.3498C19.4437 71.4878 19.2123 71.5529 18.9802 71.5329C14.1502 71.5329 9.32023 71.5329 4.49023 71.5329C3.63523 71.5329 3.37273 71.0828 3.66523 70.1679C5.19523 65.2928 6.72773 60.4229 8.26273 55.5579L9.35023 52.0479Z" fill="white"/>
<path id="Vector_4" d="M29 13.1299C32.4134 13.1299 35.75 14.1425 38.5875 16.0397C41.4251 17.9368 43.636 20.6331 44.9405 23.7873C46.245 26.9415 46.5844 30.4118 45.9158 33.759C45.2472 37.1062 43.6005 40.1798 41.1843 42.5907C38.7681 45.0017 35.6909 46.6416 32.3423 47.303C28.9937 47.9643 25.5241 47.6174 22.3727 46.306C19.2214 44.9947 16.5299 42.7778 14.6389 39.9362C12.748 37.0945 11.7426 33.7557 11.75 30.3424C11.76 25.7739 13.5818 21.3959 16.8157 18.169C20.0496 14.9421 24.4315 13.1299 29 13.1299ZM39.68 27.4324C39.6961 27.3015 39.684 27.1687 39.6444 27.0429C39.6048 26.9171 39.5388 26.8013 39.4506 26.7032C39.3625 26.6051 39.2544 26.5271 39.1335 26.4743C39.0126 26.4216 38.8819 26.3953 38.75 26.3974C36.875 26.1199 35 25.8349 33.125 25.4974C32.9675 25.4591 32.8196 25.3887 32.6906 25.2907C32.5615 25.1926 32.4541 25.0689 32.375 24.9274C31.52 23.2024 30.74 21.4399 29.8775 19.7224C29.7125 19.3774 29.3 18.9724 28.9925 18.9724C28.685 18.9724 28.2425 19.3924 28.0925 19.7224C27.26 21.3949 26.48 23.1049 25.7 24.8074C25.6255 25.0164 25.4913 25.1988 25.3139 25.3322C25.1366 25.4655 24.924 25.5438 24.7025 25.5574C23.0025 25.7674 21.3025 26.0174 19.6025 26.3074C19.1391 26.3601 18.7103 26.5785 18.395 26.9224C18.05 27.4549 18.59 27.8449 18.95 28.2124C20.18 29.4874 21.41 30.7624 22.7 32.0149C22.8659 32.1558 22.9839 32.3449 23.0377 32.5558C23.0914 32.7668 23.0783 32.9892 23 33.1924C22.52 35.0824 22.0925 36.9874 21.7025 38.8999C21.6544 39.0953 21.6503 39.2989 21.6905 39.4961C21.7307 39.6932 21.8142 39.879 21.935 40.0399C22.1238 40.1165 22.327 40.1508 22.5304 40.1404C22.7339 40.13 22.9326 40.0752 23.1125 39.9799C24.7775 39.1849 26.4275 38.3449 28.0475 37.4524C28.3204 37.273 28.6398 37.1774 28.9663 37.1774C29.2928 37.1774 29.6122 37.273 29.885 37.4524C31.5425 38.3749 33.245 39.2224 34.955 40.0474C35.1274 40.1288 35.3157 40.1711 35.5063 40.1711C35.6969 40.1711 35.8852 40.1288 36.0575 40.0474C36.1682 39.9047 36.2452 39.7389 36.2829 39.5623C36.3206 39.3856 36.3179 39.2028 36.275 39.0274C35.87 37.0699 35.42 35.1199 34.94 33.1699C34.8789 32.9928 34.8727 32.8014 34.9223 32.6207C34.9718 32.4401 35.0747 32.2786 35.2175 32.1574C36.545 30.8299 37.85 29.4799 39.1475 28.1299C39.3415 27.9104 39.5194 27.6773 39.68 27.4324Z" fill="white"/>
</g>
</svg>
