<svg width="75" height="75" viewBox="0 0 75 75" fill="none" xmlns="http://www.w3.org/2000/svg">
<g id="tailored 1">
<path id="Vector" d="M47.2498 56.0395C45.8641 61.0914 45.7047 66.4011 46.7848 71.527H46.0348C39.6748 71.527 33.3173 71.527 26.9623 71.527C26.8642 71.5465 26.7632 71.5462 26.6652 71.526C26.5673 71.5059 26.4743 71.4663 26.3918 71.4097C26.3094 71.3531 26.2391 71.2806 26.1851 71.1964C26.131 71.1122 26.0944 71.0181 26.0773 70.9195C25.7315 69.8966 25.3258 68.8948 24.8623 67.9195C24.5276 67.0642 23.9236 66.341 23.1415 65.8593C22.3594 65.3776 21.4418 65.1636 20.5273 65.2495C18.7198 65.3845 16.9273 65.752 15.1273 65.9995C14.4456 66.1181 13.7564 66.1883 13.0648 66.2095C12.5254 66.2501 11.9879 66.1089 11.538 65.8086C11.088 65.5082 10.7516 65.0658 10.5823 64.552C10.265 63.4976 10.0342 62.419 9.89232 61.327C9.74982 60.517 9.74982 59.782 8.86482 59.2495C8.6438 59.0964 8.46656 58.8883 8.35062 58.6457C8.23468 58.4031 8.18405 58.1345 8.20375 57.8663C8.22344 57.5982 8.31277 57.3398 8.46291 57.1168C8.61305 56.8937 8.8188 56.7137 9.05982 56.5945C9.67482 56.2345 10.3423 55.957 11.1148 55.582L9.05232 55.0495C7.82982 54.7195 7.55232 54.247 7.97232 53.0845C8.09982 52.7095 8.18982 52.3345 8.28732 51.952C8.52732 50.977 8.33982 50.5795 7.35732 50.2945C6.63982 50.1238 5.91381 49.9912 5.18232 49.897C5.06982 49.897 4.94982 49.897 4.83732 49.897C2.80482 49.4995 2.24982 48.457 3.14232 46.612C3.35042 46.1998 3.58076 45.7992 3.83232 45.412C4.40982 44.4895 5.00982 43.5895 5.57982 42.667C7.59732 39.412 7.55982 39.3745 7.18482 35.5795C6.79482 31.5745 7.10982 27.682 9.20982 24.1045C10.8503 21.3608 13.1203 19.047 15.8323 17.3545C19.0843 15.2633 22.7557 13.9115 26.5873 13.3945C26.6138 14.4843 26.7266 15.5702 26.9248 16.642C27.3359 18.1457 27.8368 19.6233 28.4248 21.067C28.5898 21.487 28.5898 21.6895 28.2373 21.982C25.6066 24.0152 23.5441 26.692 22.2488 29.7542C20.9535 32.8164 20.4691 36.1607 20.8423 39.4645C21.2884 43.8512 23.1914 47.962 26.2475 51.1404C29.3036 54.3189 33.3365 56.3817 37.7023 56.9995C40.7083 57.4245 43.7713 57.1682 46.6648 56.2495C46.8073 56.137 46.9573 56.107 47.2498 56.0395Z" fill="white"/>
<path id="Vector_2" d="M29.8349 23.1746C30.5849 24.3221 31.2449 25.4246 31.9274 26.4671C32.1524 26.8271 32.1224 27.0671 31.7624 27.3896C27.7499 31.0796 26.2649 35.6396 27.6824 40.8896C29.0999 46.1396 32.6474 49.3346 37.9424 50.4746C45.5324 52.1171 53.0099 46.4996 53.7449 38.7371C53.9138 36.8744 53.7046 34.9969 53.1299 33.2171C52.9199 33.4871 52.7699 33.6671 52.6274 33.8621L49.7099 37.7396C49.0724 38.5871 48.5474 38.7746 48.0149 38.3621C47.4824 37.9496 47.5199 37.4396 48.1424 36.6146C49.3799 34.9646 50.5949 33.3071 51.8924 31.6871C51.9697 31.6129 52.0313 31.5238 52.0733 31.4252C52.1154 31.3266 52.137 31.2205 52.137 31.1133C52.137 31.0061 52.1154 30.9 52.0733 30.8014C52.0313 30.7028 51.9697 30.6138 51.8924 30.5396C50.9849 29.4671 50.0849 28.3871 49.1549 27.3371C48.9299 27.0821 48.7574 26.9171 48.9749 26.5871C49.7249 25.4621 50.3849 24.3371 51.2249 23.0171L55.2449 27.1721C56.7449 25.1546 58.3424 23.0846 59.8799 20.9846C60.0581 20.7056 60.3081 20.4797 60.6037 20.3305C60.8993 20.1814 61.2295 20.1146 61.5599 20.1371C64.4249 20.1746 67.2899 20.1371 70.1624 20.1371H70.6424C70.899 20.1371 71.145 20.239 71.3265 20.4204C71.5079 20.6019 71.6099 20.848 71.6099 21.1046C71.6099 21.3612 71.5079 21.6072 71.3265 21.7887C71.145 21.9701 70.899 22.0721 70.6424 22.0721C70.1549 22.0721 69.6674 22.0721 69.1874 22.0721C66.8249 22.0721 64.4699 22.0721 62.1149 22.0721C61.9232 22.0528 61.7299 22.0859 61.5556 22.1678C61.3813 22.2496 61.2324 22.3773 61.1249 22.5371C59.6249 24.5871 58.0974 26.6196 56.5424 28.6346C56.4285 28.7578 56.3592 28.9156 56.3456 29.0829C56.332 29.2501 56.3749 29.4171 56.4674 29.5571C57.7702 32.1635 58.4056 35.0526 58.3166 37.9651C58.2276 40.8777 57.4169 43.7226 55.9574 46.2446C55.0124 47.9771 55.2074 49.3046 56.7074 50.6096C57.9224 49.8596 58.8449 50.3396 59.7749 51.2771C62.9474 54.5096 66.1649 57.7046 69.3749 60.8996C69.9104 61.3675 70.3055 61.9751 70.5161 62.6544C70.7266 63.3338 70.7444 64.0582 70.5674 64.7471C70.4019 65.4065 70.0623 66.0094 69.5842 66.4927C69.106 66.9761 68.5067 67.322 67.8491 67.4945C67.1914 67.667 66.4995 67.6596 65.8457 67.4731C65.1918 67.2867 64.6001 66.928 64.1324 66.4346C61.6799 64.0196 59.2574 61.5671 56.8274 59.1296L54.1274 56.4371C53.1674 55.4696 53.0624 54.8471 53.6774 53.6621C52.5899 52.2071 51.0674 51.9071 49.3949 52.8371C46.63 54.4325 43.4868 55.2546 40.2949 55.2172C37.103 55.1798 33.9799 54.2843 31.2533 52.6245C28.5266 50.9647 26.2967 48.6018 24.7975 45.7836C23.2983 42.9654 22.585 39.7958 22.7324 36.6071C22.8216 34.1671 23.4194 31.7727 24.4875 29.5772C25.5555 27.3817 27.0703 25.4334 28.9349 23.8571C29.1899 23.6696 29.4749 23.4671 29.8349 23.1746Z" fill="white"/>
<path id="Vector_3" d="M46.2001 28.335H34.5001C34.2376 25.98 32.8726 24.1875 31.5526 22.38C29.8364 20.2091 28.8122 17.5726 28.6126 14.8125C28.4179 12.5781 28.9767 10.3428 30.2001 8.46297C31.4234 6.58311 33.2408 5.16687 35.3626 4.44001C37.1081 3.7472 38.9762 3.41654 40.8535 3.46812C42.7307 3.51969 44.5778 3.95242 46.2826 4.74001C48.3437 5.62656 50.0515 7.17304 51.1377 9.13622C52.2238 11.0994 52.6266 13.3679 52.2826 15.585C51.9343 17.9706 50.9959 20.2314 49.5526 22.1625C48.93 22.9672 48.3565 23.8088 47.8351 24.6825C47.2501 25.815 46.7851 27 46.2001 28.335ZM39.5251 20.325C39.4876 20.97 39.7651 21.405 40.3801 21.4575C40.9951 21.51 41.4001 21.135 41.4526 20.31C41.5291 19.4993 41.8905 18.7419 42.4726 18.1725C43.0027 17.6243 43.5034 17.0485 43.9726 16.4475C44.4484 15.7582 44.7 14.9391 44.6933 14.1016C44.6866 13.2641 44.4219 12.4491 43.9351 11.7675C43.4167 11.0996 42.7155 10.5966 41.9167 10.3197C41.1178 10.0427 40.2557 10.0038 39.4351 10.2075C38.6281 10.4211 37.9009 10.8656 37.3427 11.4864C36.7845 12.1072 36.4196 12.8774 36.2926 13.7025C36.246 13.9508 36.2984 14.2075 36.4385 14.4178C36.5787 14.628 36.7955 14.775 37.0426 14.8275C37.1644 14.8524 37.29 14.8527 37.4119 14.8283C37.5338 14.8039 37.6495 14.7553 37.7523 14.6854C37.8551 14.6154 37.9428 14.5256 38.0103 14.4212C38.0778 14.3168 38.1236 14.1999 38.1451 14.0775C38.1976 13.905 38.2201 13.7175 38.2876 13.545C38.4314 13.1084 38.7053 12.7263 39.0727 12.4501C39.4401 12.1739 39.8833 12.0168 40.3426 12C40.7708 11.9429 41.2063 12.0187 41.5899 12.2173C41.9736 12.4158 42.287 12.7275 42.4876 13.11C42.7083 13.4948 42.799 13.9405 42.7463 14.3809C42.6936 14.8214 42.5003 15.2331 42.1951 15.555C41.7826 16.05 41.3251 16.515 40.8976 16.995C40.045 17.8977 39.5562 19.0837 39.5251 20.325ZM40.5001 22.92C39.9001 22.92 39.5326 23.3325 39.5326 24.0225C39.5148 24.1617 39.5263 24.303 39.5663 24.4375C39.6064 24.572 39.6742 24.6965 39.7653 24.8032C39.8565 24.9099 39.9689 24.9963 40.0955 25.0569C40.2221 25.1175 40.3599 25.1509 40.5001 25.155C40.6395 25.1505 40.7765 25.1175 40.9026 25.058C41.0287 24.9985 41.1413 24.9138 41.2334 24.809C41.3255 24.7043 41.3951 24.5818 41.438 24.4491C41.4808 24.3164 41.496 24.1763 41.4826 24.0375C41.5008 23.8978 41.4889 23.7559 41.4478 23.6212C41.4067 23.4865 41.3374 23.3621 41.2444 23.2563C41.1514 23.1506 41.0369 23.0658 40.9086 23.0078C40.7802 22.9498 40.641 22.9199 40.5001 22.92Z" fill="white"/>
<path id="Vector_4" d="M46.3273 30.082C46.5823 31.762 46.1248 32.332 44.5048 32.332H36.5398C34.8373 32.332 34.4248 31.852 34.6048 30.082H46.3273Z" fill="white"/>
<path id="Vector_5" d="M65.8276 18.5854H61.1926C60.6376 18.5854 60.1801 18.4054 60.0676 17.7829C59.9551 17.1604 60.3826 16.6579 61.1851 16.6504C62.9176 16.6504 64.6426 16.6504 66.3751 16.6504C67.7326 16.6504 69.0976 16.6504 70.4551 16.6504C71.2576 16.6504 71.7076 17.0329 71.6851 17.6404C71.6626 18.2479 71.2501 18.5779 70.5001 18.5854H65.8276Z" fill="white"/>
<path id="Vector_6" d="M44.9327 34.0352C45.1802 35.5352 44.7002 36.1202 43.2527 36.1202C41.4327 36.1202 39.6127 36.1202 37.7927 36.1202C36.2927 36.1202 35.8202 35.6102 36.0077 34.0352H44.9327Z" fill="white"/>
<path id="Vector_7" d="M67.0498 15.0753C65.9623 15.0753 64.8823 15.0753 63.7948 15.0753C63.0448 15.0753 62.6023 14.7153 62.5948 14.1303C62.5873 13.5453 62.9998 13.1403 63.7498 13.1328C65.9998 13.1328 68.2498 13.1328 70.4998 13.1328C71.2498 13.1328 71.6923 13.5003 71.6998 14.0928C71.7073 14.6853 71.2498 15.0603 70.4998 15.0678C69.3598 15.0828 68.2048 15.0753 67.0498 15.0753Z" fill="white"/>
<path id="Vector_8" d="M42.7877 37.5674C43.0277 39.1124 42.5177 39.7124 41.0252 39.7199H40.0577C38.4227 39.7199 38.0027 39.2549 38.1602 37.5674H42.7877Z" fill="white"/>
</g>
</svg>
