<svg width="75" height="44" viewBox="0 0 75 44" fill="none" xmlns="http://www.w3.org/2000/svg">
<g id="delevery 1">
<path id="Vector" d="M3.30762 21.5697C3.45335 21.1727 3.729 20.8366 4.0898 20.6161C4.4506 20.3955 4.87536 20.3034 5.29512 20.3547C11.4851 20.3547 17.6701 20.3547 23.8501 20.3547C24.6001 20.3547 25.3501 20.4897 25.6276 21.2622C25.8001 21.6494 25.8765 22.0725 25.8504 22.4955C25.8243 22.9186 25.6964 23.3291 25.4776 23.6922C25.2842 23.9383 25.0287 24.1285 24.7374 24.2432C24.4461 24.3579 24.1294 24.3929 23.8201 24.3447H14.7451C11.6326 24.3447 8.51262 24.3447 5.40012 24.3447C4.97138 24.4053 4.5346 24.3237 4.15667 24.1123C3.77873 23.901 3.48049 23.5717 3.30762 23.1747V21.5697Z" fill="white"/>
<path id="Vector_2" d="M64.4249 37.7999C64.1768 36.5667 63.8384 35.3534 63.4124 34.1699C62.6883 32.5847 61.4527 31.2886 59.9039 30.4896C58.3552 29.6905 56.5829 29.4348 54.8714 29.7635C53.1599 30.0921 51.6084 30.986 50.4657 32.3019C49.323 33.6177 48.6554 35.2792 48.5699 37.0199C48.5699 37.6649 48.3074 37.8374 47.6849 37.8299C42.9449 37.8299 38.2049 37.8299 33.4349 37.8299C32.5124 37.8299 32.5124 37.8299 32.4374 36.8924C32.3042 35.0024 31.4889 33.2251 30.1433 31.8913C28.7976 30.5575 27.0132 29.758 25.1221 29.6415C23.231 29.525 21.362 30.0996 19.8629 31.2581C18.3637 32.4167 17.3365 34.0805 16.9724 35.9399C16.8937 36.3556 16.8486 36.7769 16.8374 37.1999C16.8374 37.6574 16.5974 37.8299 16.1624 37.8299C15.5849 37.8299 15.0074 37.8299 14.4299 37.8299C13.9644 37.8373 13.5024 37.7499 13.0718 37.5729C12.6413 37.3959 12.2513 37.1331 11.9257 36.8005C11.6001 36.4678 11.3456 36.0723 11.1778 35.6381C11.0101 35.2039 10.9325 34.7401 10.9499 34.2749C10.8974 31.8974 10.9499 29.5124 10.9499 27.1349C10.9499 26.2799 11.3774 25.9199 12.3449 25.8899C13.1849 25.8899 14.0324 25.8899 14.8799 25.8899C17.9924 25.8899 21.1124 25.8899 24.2249 25.8899C24.9803 25.909 25.715 25.6423 26.2823 25.1431C26.8496 24.6439 27.2077 23.9491 27.2849 23.1974C27.5774 21.0824 26.7974 19.5224 25.1549 19.0424C24.6824 18.9204 24.1952 18.8648 23.7074 18.8774C20.0324 18.8774 16.3649 18.8774 12.6899 18.8774C12.4074 18.8528 12.1269 18.8103 11.8499 18.7499C11.726 18.7472 11.604 18.7193 11.4914 18.6677C11.3788 18.6161 11.2779 18.542 11.195 18.45C11.1121 18.3579 11.0489 18.2499 11.0093 18.1325C10.9697 18.0151 10.9546 17.8908 10.9649 17.7674C10.9649 17.5874 10.9649 17.4149 10.9649 17.2349C10.9649 16.2374 11.1899 16.0274 12.1949 16.0274H29.4449C30.2411 16.076 31.0313 15.8626 31.6949 15.4199C32.9999 14.4824 33.1949 12.8474 32.7899 11.1149C32.5902 10.4602 32.1726 9.8934 31.6065 9.50869C31.0403 9.12398 30.3596 8.94444 29.6774 8.99988C23.9424 8.99988 18.1924 8.99988 12.4274 8.99988C11.1374 8.99988 10.9274 8.78988 10.9274 7.49988C10.9274 6.78738 10.9274 6.07488 10.9274 5.36238C10.8737 4.52942 11.1319 3.70628 11.6518 3.05328C12.1717 2.40027 12.9161 1.96416 13.7399 1.82988C14.5205 1.65618 15.3177 1.56816 16.1174 1.56738C26.6174 1.56738 37.1174 1.56738 47.6174 1.56738C50.1674 1.56738 51.3674 2.72988 51.3674 5.27238C51.3674 6.69738 51.3674 8.12238 51.3674 9.54738C51.3674 10.3424 51.5099 10.4774 52.3049 10.4774C53.3699 10.4774 54.4349 10.4774 55.5074 10.4774C56.6724 10.4461 57.821 10.7579 58.8104 11.3739C59.7998 11.99 60.5863 12.8831 61.0724 13.9424C61.8899 15.5399 62.7299 17.1449 63.4499 18.7874C63.7487 19.4961 64.2132 20.1228 64.8044 20.6148C65.3956 21.1068 66.0962 21.4497 66.8474 21.6149C67.4924 21.7799 68.1299 21.9974 68.7749 22.1324C69.4743 22.255 70.1115 22.611 70.5827 23.1421C71.054 23.6733 71.3314 24.3484 71.3699 25.0574C71.5113 26.0241 71.5964 26.9983 71.6249 27.9749C71.6249 30.0449 71.6249 32.1149 71.6249 34.1849C71.6565 34.6426 71.5946 35.102 71.4431 35.5351C71.2916 35.9681 71.0535 36.3659 70.7434 36.704C70.4333 37.0422 70.0577 37.3137 69.6393 37.5021C69.2209 37.6905 68.7686 37.7918 68.3099 37.7999C67.0199 37.8749 65.6624 37.7999 64.4249 37.7999ZM62.1149 21.5324C61.1324 19.5599 60.2249 17.7149 59.2949 15.8699C58.8693 14.9728 58.1981 14.2147 57.3592 13.6837C56.5202 13.1527 55.5478 12.8705 54.5549 12.8699C53.8049 12.8699 52.9949 12.8699 52.2149 12.8699C51.6374 12.8699 51.3899 13.0349 51.3974 13.6724C51.3974 16.0499 51.3974 18.4349 51.3974 20.8124C51.3974 21.5624 51.5024 21.6824 52.2974 21.6899H61.2524C61.5427 21.6545 61.8307 21.6019 62.1149 21.5324Z" fill="white"/>
<path id="Vector_3" d="M19.3424 14.5052H9.20236C8.45236 14.5052 7.76986 14.3927 7.46236 13.6577C7.28938 13.277 7.20745 12.8612 7.22307 12.4434C7.23869 12.0255 7.35143 11.617 7.55236 11.2502C7.72455 10.9837 7.96901 10.7717 8.25719 10.6389C8.54537 10.5061 8.86538 10.458 9.17986 10.5002H29.2499C31.1099 10.5002 31.9424 11.7002 31.3199 13.5002C31.1923 13.8249 30.9619 14.099 30.664 14.2804C30.3661 14.4619 30.0169 14.5409 29.6699 14.5052H19.3424Z" fill="white"/>
<path id="Vector_4" d="M62.3398 37.5003C62.3398 38.6895 61.9863 39.8519 61.3243 40.8399C60.6624 41.8278 59.7217 42.5968 58.6219 43.0491C57.522 43.5014 56.3126 43.6167 55.1471 43.3802C53.9816 43.1438 52.9126 42.5664 52.0759 41.7213C51.2393 40.8761 50.6726 39.8014 50.4479 38.6336C50.2232 37.4658 50.3506 36.2576 50.814 35.1623C51.2773 34.0671 52.0557 33.1342 53.0502 32.4822C54.0448 31.8302 55.2107 31.4884 56.3998 31.5003C57.9807 31.5161 59.4915 32.1552 60.6037 33.2787C61.716 34.4022 62.3399 35.9193 62.3398 37.5003ZM56.2498 40.0353C56.5953 40.0504 56.9404 39.9964 57.2648 39.8766C57.5892 39.7568 57.8865 39.5735 58.1393 39.3375C58.392 39.1015 58.5952 38.8174 58.737 38.502C58.8787 38.1866 58.9562 37.846 58.9648 37.5003C58.9692 36.8161 58.707 36.1571 58.2338 35.6629C57.7606 35.1687 57.1136 34.8781 56.4298 34.8528C55.7467 34.8305 55.0827 35.0802 54.5835 35.5471C54.0844 36.0139 53.7908 36.6597 53.7673 37.3428C53.7482 37.6839 53.7977 38.0253 53.913 38.3468C54.0283 38.6684 54.207 38.9635 54.4386 39.2146C54.6701 39.4658 54.9498 39.6678 55.2609 39.8088C55.5721 39.9498 55.9084 40.0268 56.2498 40.0353Z" fill="white"/>
<path id="Vector_5" d="M30.6826 37.5C30.6826 38.6867 30.3307 39.8467 29.6714 40.8334C29.0121 41.8201 28.0751 42.5892 26.9787 43.0433C25.8824 43.4974 24.676 43.6162 23.5121 43.3847C22.3482 43.1532 21.2791 42.5818 20.44 41.7426C19.6009 40.9035 19.0294 39.8344 18.7979 38.6705C18.5664 37.5067 18.6852 36.3003 19.1393 35.2039C19.5935 34.1075 20.3625 33.1705 21.3492 32.5112C22.3359 31.8519 23.4959 31.5 24.6826 31.5C26.2685 31.5175 27.7844 32.1553 28.9059 33.2768C30.0273 34.3982 30.6651 35.9141 30.6826 37.5ZM24.6826 40.08C25.198 40.0785 25.7013 39.924 26.1288 39.6361C26.5562 39.3483 26.8886 38.94 27.0837 38.463C27.2789 37.986 27.328 37.4618 27.2249 36.9569C27.1218 36.4519 26.8711 35.989 26.5046 35.6267C26.1381 35.2644 25.6723 35.019 25.1662 34.9218C24.6601 34.8245 24.1365 34.8797 23.6618 35.0804C23.1871 35.281 22.7826 35.6181 22.4997 36.0488C22.2168 36.4796 22.0682 36.9847 22.0726 37.5C22.0845 38.1823 22.3654 38.8324 22.8542 39.3085C23.3431 39.7847 24.0002 40.0485 24.6826 40.0425V40.08Z" fill="white"/>
</g>
</svg>
