<svg width="66" height="64" viewBox="0 0 66 64" fill="none" xmlns="http://www.w3.org/2000/svg">
<g id="integration 1">
<path id="Vector" d="M64.1373 29.7073H49.6923V40.4998H51.6948L47.8623 46.2523C46.5798 44.3248 45.3498 42.5023 44.0523 40.5448H46.0248V29.7223H35.3373V22.5598H38.8698V27.6898L54.6873 17.1373L38.9373 6.6373V11.7373H35.3223V0.862305H64.1373V29.7073Z" fill="white"/>
<path id="Vector_2" d="M35.2925 62.138V47.693H24.5375V49.6955L18.7925 45.863L24.5 42.053V44.033H35.2625V33.338H42.44V36.848H37.31C40.8575 42.173 44.3225 47.3855 47.8625 52.688L58.3625 36.893H53.2775V33.293H64.1375V62.138H35.2925Z" fill="white"/>
<path id="Vector_3" d="M2.8623 62.1377V33.3077H17.3148V22.5527H15.2973L19.1373 16.7852L22.9548 22.5002H20.9673V33.2627H31.6623V40.4402H28.1523V35.3102L12.3198 45.8627L28.1073 56.3627V51.2777H31.7073V62.1377H2.8623Z" fill="white"/>
<path id="Vector_4" d="M13.7074 29.6772H2.8999V0.907227H31.6924V15.3147H42.4474V13.2972L48.2149 17.1372L42.4999 20.9547V18.9672H31.7374V29.6622H24.5599V26.1447H29.6974L19.1374 10.3122L8.6374 26.0622H13.7224L13.7074 29.6772Z" fill="white"/>
</g>
</svg>
