<svg width="404" height="287" viewBox="0 0 404 287" fill="none" xmlns="http://www.w3.org/2000/svg">
<g id="1">
<path id="Vector 28" d="M64.2719 0.5H286.581C297.078 0.5 306.885 5.72859 312.735 14.4439L391.097 131.182C398.478 142.177 398.194 156.614 390.386 167.31L312.825 273.571C306.894 281.696 297.44 286.5 287.382 286.5H67.6911C41.0894 286.5 26.465 255.565 43.3487 235.008L97.3104 169.305C106.842 157.699 107.181 141.074 98.129 129.09L39.1361 50.9852C23.4617 30.2329 38.2653 0.5 64.2719 0.5Z" fill="#18C8FF" fill-opacity="0.15" stroke="url(#paint0_linear_1860_4849)"/>
<g id="Ellipse 91" filter="url(#filter0_f_1860_4849)">
<circle cx="103.5" cy="147.5" r="40.5" fill="url(#paint1_linear_1860_4849)"/>
</g>
<circle id="Ellipse 86" cx="103.5" cy="147.5" r="40.5" fill="url(#paint2_linear_1860_4849)"/>
<path id="1_2" d="M101 131.15C101.267 131.05 101.517 131 101.75 131H107.8C107.967 131 108.1 131.067 108.2 131.2C108.333 131.3 108.4 131.433 108.4 131.6V165.4C108.4 165.567 108.333 165.717 108.2 165.85C108.1 165.95 107.967 166 107.8 166H101.95C101.783 166 101.633 165.95 101.5 165.85C101.4 165.717 101.35 165.567 101.35 165.4V138.1C101.35 137.967 101.267 137.9 101.1 137.9L97.25 138.35H97.15C96.7833 138.35 96.6 138.167 96.6 137.8L96.45 133.5C96.45 133.167 96.6 132.933 96.9 132.8L101 131.15Z" fill="white"/>
</g>
<defs>
<filter id="filter0_f_1860_4849" x="13" y="57" width="181" height="181" filterUnits="userSpaceOnUse" color-interpolation-filters="sRGB">
<feFlood flood-opacity="0" result="BackgroundImageFix"/>
<feBlend mode="normal" in="SourceGraphic" in2="BackgroundImageFix" result="shape"/>
<feGaussianBlur stdDeviation="25" result="effect1_foregroundBlur_1860_4849"/>
</filter>
<linearGradient id="paint0_linear_1860_4849" x1="284.824" y1="-10.906" x2="397.89" y2="196.119" gradientUnits="userSpaceOnUse">
<stop stop-color="#18C8FF"/>
<stop offset="1" stop-color="#C608FF"/>
</linearGradient>
<linearGradient id="paint1_linear_1860_4849" x1="120.106" y1="103.922" x2="156.76" y2="151.599" gradientUnits="userSpaceOnUse">
<stop stop-color="#18C8FF"/>
<stop offset="1" stop-color="#C608FF"/>
</linearGradient>
<linearGradient id="paint2_linear_1860_4849" x1="120.106" y1="103.922" x2="156.76" y2="151.599" gradientUnits="userSpaceOnUse">
<stop stop-color="#18C8FF"/>
<stop offset="1" stop-color="#C608FF"/>
</linearGradient>
</defs>
</svg>
