<svg width="404" height="287" viewBox="0 0 404 287" fill="none" xmlns="http://www.w3.org/2000/svg">
<path d="M64.2719 0.5H286.581C297.078 0.5 306.885 5.72859 312.735 14.4439L391.097 131.182C398.478 142.177 398.194 156.614 390.386 167.31L312.825 273.571C306.894 281.696 297.44 286.5 287.382 286.5H67.6911C41.0894 286.5 26.465 255.565 43.3487 235.008L97.3104 169.305C106.842 157.699 107.181 141.074 98.129 129.09L39.1361 50.9852C23.4617 30.2329 38.2653 0.5 64.2719 0.5Z" fill="#18C8FF" fill-opacity="0.15" stroke="url(#paint0_linear_1860_4850)"/>
<g filter="url(#filter0_f_1860_4850)">
<circle cx="107.5" cy="147.5" r="40.5" fill="url(#paint1_linear_1860_4850)"/>
</g>
<circle cx="107.5" cy="147.5" r="40.5" fill="url(#paint2_linear_1860_4850)"/>
<path d="M106.85 159.65C106.783 159.717 106.767 159.783 106.8 159.85C106.833 159.917 106.9 159.95 107 159.95H117.45C117.617 159.95 117.75 160.017 117.85 160.15C117.983 160.25 118.05 160.383 118.05 160.55V165.4C118.05 165.567 117.983 165.717 117.85 165.85C117.75 165.95 117.617 166 117.45 166H98.95C98.7833 166 98.6333 165.95 98.5 165.85C98.4 165.717 98.35 165.567 98.35 165.4V160.35C98.35 160.05 98.4333 159.8 98.6 159.6C99.9333 157.833 100.867 156.633 101.4 156C104.333 152.233 106.417 149.383 107.65 147.45C109.45 144.583 110.35 142.167 110.35 140.2C110.35 139.067 110.117 138.2 109.65 137.6C109.217 136.967 108.617 136.65 107.85 136.65C107.083 136.65 106.467 136.967 106 137.6C105.533 138.2 105.317 138.983 105.35 139.95V142C105.35 142.167 105.283 142.317 105.15 142.45C105.05 142.55 104.917 142.6 104.75 142.6H98.8C98.6333 142.6 98.4833 142.55 98.35 142.45C98.25 142.317 98.2 142.167 98.2 142V139.65C98.3333 136.917 99.3167 134.733 101.15 133.1C102.983 131.433 105.317 130.6 108.15 130.6C110.95 130.6 113.2 131.483 114.9 133.25C116.633 135.017 117.5 137.35 117.5 140.25C117.5 141.983 117.217 143.633 116.65 145.2C116.117 146.767 115.233 148.45 114 150.25C113.067 151.617 111.467 153.75 109.2 156.65L106.85 159.65Z" fill="white"/>
<defs>
<filter id="filter0_f_1860_4850" x="17" y="57" width="181" height="181" filterUnits="userSpaceOnUse" color-interpolation-filters="sRGB">
<feFlood flood-opacity="0" result="BackgroundImageFix"/>
<feBlend mode="normal" in="SourceGraphic" in2="BackgroundImageFix" result="shape"/>
<feGaussianBlur stdDeviation="25" result="effect1_foregroundBlur_1860_4850"/>
</filter>
<linearGradient id="paint0_linear_1860_4850" x1="284.824" y1="-10.906" x2="397.89" y2="196.119" gradientUnits="userSpaceOnUse">
<stop stop-color="#18C8FF"/>
<stop offset="1" stop-color="#C608FF"/>
</linearGradient>
<linearGradient id="paint1_linear_1860_4850" x1="124.106" y1="103.922" x2="160.76" y2="151.599" gradientUnits="userSpaceOnUse">
<stop stop-color="#18C8FF"/>
<stop offset="1" stop-color="#C608FF"/>
</linearGradient>
<linearGradient id="paint2_linear_1860_4850" x1="124.106" y1="103.922" x2="160.76" y2="151.599" gradientUnits="userSpaceOnUse">
<stop stop-color="#18C8FF"/>
<stop offset="1" stop-color="#C608FF"/>
</linearGradient>
</defs>
</svg>
