<svg width="404" height="287" viewBox="0 0 404 287" fill="none" xmlns="http://www.w3.org/2000/svg">
<g id="3">
<path id="Vector 29" d="M64.2719 0.5H286.581C297.078 0.5 306.885 5.72859 312.735 14.4439L391.097 131.182C398.478 142.177 398.194 156.614 390.386 167.31L312.825 273.571C306.894 281.696 297.44 286.5 287.382 286.5H67.6911C41.0894 286.5 26.465 255.565 43.3487 235.008L97.3104 169.305C106.842 157.699 107.181 141.074 98.129 129.09L39.1361 50.9852C23.4617 30.2329 38.2653 0.5 64.2719 0.5Z" fill="#18C8FF" fill-opacity="0.15" stroke="url(#paint0_linear_1860_4851)"/>
<g id="Ellipse 89" filter="url(#filter0_f_1860_4851)">
<circle cx="117.5" cy="147.5" r="40.5" fill="url(#paint1_linear_1860_4851)"/>
</g>
<circle id="Ellipse 88" cx="117.5" cy="147.5" r="40.5" fill="url(#paint2_linear_1860_4851)"/>
<path id="3_2" d="M126.95 151.2C127.117 152.467 127.2 153.7 127.2 154.9C127.2 156.367 127.133 157.617 127 158.65C126.733 161.05 125.8 162.95 124.2 164.35C122.633 165.717 120.517 166.4 117.85 166.4C115.083 166.4 112.833 165.667 111.1 164.2C109.367 162.733 108.433 160.783 108.3 158.35C108.2 157.45 108.15 156.483 108.15 155.45C108.15 155.05 108.35 154.85 108.75 154.85H114.6C115 154.85 115.2 155.05 115.2 155.45C115.2 156.217 115.25 156.933 115.35 157.6C115.45 158.467 115.717 159.15 116.15 159.65C116.583 160.117 117.15 160.35 117.85 160.35C118.517 160.35 119.067 160.117 119.5 159.65C119.933 159.183 120.217 158.55 120.35 157.75C120.45 156.583 120.5 155.383 120.5 154.15C120.5 152.583 120.417 151.35 120.25 150.45C120.117 149.683 119.833 149.1 119.4 148.7C119 148.267 118.483 148.05 117.85 148.05C117.35 148.05 116.85 148.267 116.35 148.7C116.15 148.833 116.017 148.9 115.95 148.9C115.817 148.9 115.667 148.817 115.5 148.65L112.5 145.6C112.367 145.467 112.3 145.317 112.3 145.15C112.3 145.017 112.35 144.883 112.45 144.75L118.5 137.3C118.567 137.233 118.583 137.167 118.55 137.1C118.517 137.033 118.45 137 118.35 137H109.35C109.183 137 109.033 136.95 108.9 136.85C108.8 136.717 108.75 136.567 108.75 136.4V131.6C108.75 131.433 108.8 131.3 108.9 131.2C109.033 131.067 109.183 131 109.35 131H126.55C126.717 131 126.85 131.067 126.95 131.2C127.083 131.3 127.15 131.433 127.15 131.6V136.6C127.15 136.867 127.067 137.117 126.9 137.35L121.3 144.4C121.267 144.467 121.25 144.533 121.25 144.6C121.25 144.667 121.283 144.7 121.35 144.7C122.817 144.833 124.05 145.5 125.05 146.7C126.083 147.9 126.717 149.4 126.95 151.2Z" fill="white"/>
</g>
<defs>
<filter id="filter0_f_1860_4851" x="27" y="57" width="181" height="181" filterUnits="userSpaceOnUse" color-interpolation-filters="sRGB">
<feFlood flood-opacity="0" result="BackgroundImageFix"/>
<feBlend mode="normal" in="SourceGraphic" in2="BackgroundImageFix" result="shape"/>
<feGaussianBlur stdDeviation="25" result="effect1_foregroundBlur_1860_4851"/>
</filter>
<linearGradient id="paint0_linear_1860_4851" x1="284.824" y1="-10.906" x2="397.89" y2="196.119" gradientUnits="userSpaceOnUse">
<stop stop-color="#18C8FF"/>
<stop offset="1" stop-color="#C608FF"/>
</linearGradient>
<linearGradient id="paint1_linear_1860_4851" x1="134.106" y1="103.922" x2="170.76" y2="151.599" gradientUnits="userSpaceOnUse">
<stop stop-color="#18C8FF"/>
<stop offset="1" stop-color="#C608FF"/>
</linearGradient>
<linearGradient id="paint2_linear_1860_4851" x1="134.106" y1="103.922" x2="170.76" y2="151.599" gradientUnits="userSpaceOnUse">
<stop stop-color="#18C8FF"/>
<stop offset="1" stop-color="#C608FF"/>
</linearGradient>
</defs>
</svg>
