<svg width="65" height="65" viewBox="0 0 65 65" fill="none" xmlns="http://www.w3.org/2000/svg">
<g id="Editing 1">
<path id="Vector" d="M34.5603 55.5099H11.2058C6.9093 55.5099 4.0558 52.6499 4.0558 48.3599C4.0558 36.3653 4.0558 24.3728 4.0558 12.3824C4.00274 10.7484 4.54595 9.15086 5.58409 7.88787C6.62223 6.62487 8.0844 5.78269 9.6978 5.51843C10.1561 5.45126 10.6192 5.42299 11.0823 5.43393C23.9653 5.43393 36.844 5.43393 49.7183 5.43393C53.1568 5.43393 55.7828 7.42943 56.5628 10.6339C56.6774 11.1067 56.7406 11.5905 56.7513 12.0769C56.7513 14.7419 56.7513 17.4069 56.7513 20.0719C56.7513 20.1954 56.7513 20.3189 56.7513 20.4944C55.355 20.2736 53.9268 20.5895 52.7538 21.3784L52.7083 20.3839H44.6418V28.4309H48.0283C47.2353 29.8024 46.5268 31.0959 45.7338 32.3309C45.5908 32.5454 45.0838 32.4999 44.6483 32.5844C44.6192 32.6358 44.6057 32.6945 44.6093 32.7534C44.7978 33.9819 44.2778 34.9829 43.6798 36.0034C41.0798 40.4364 38.5643 44.9084 35.9643 49.3284C34.935 50.9681 34.4441 52.8885 34.5603 54.8209C34.5733 55.0289 34.5603 55.2499 34.5603 55.5099ZM22.9578 31.1219C22.9578 33.1499 22.9578 35.1779 22.9578 37.2124C22.9578 39.5654 25.1093 40.8134 27.1568 39.6759C27.4168 39.5329 27.6703 39.3834 27.9238 39.2339L37.6218 33.6309C38.0857 33.4074 38.4778 33.0583 38.7534 32.6233C39.0291 32.1883 39.1774 31.6848 39.1814 31.1698C39.1855 30.6549 39.0452 30.149 38.7764 29.7097C38.5076 29.2705 38.1212 28.9153 37.6608 28.6844L27.2998 22.7044C25.0833 21.4044 22.9513 22.6589 22.9448 25.2199C22.9513 27.1894 22.9578 29.1524 22.9578 31.1219ZM16.1913 20.3449H8.1443V28.3919H16.1913V20.3449ZM8.1378 40.5794H16.1653V32.5324H8.1378V40.5794ZM8.1378 16.2044H16.1978V9.51593C14.2478 9.51593 12.3628 9.46393 10.4648 9.51593C9.84619 9.57242 9.26937 9.85237 8.84225 10.3034C8.41514 10.7545 8.16701 11.3457 8.1443 11.9664C8.0793 13.3704 8.1183 14.7679 8.1183 16.2044H8.1378ZM44.6548 9.50943V16.2044H52.7148C52.7148 14.7484 52.7668 13.3379 52.7148 11.9274C52.6814 11.307 52.4226 10.7202 51.9868 10.2773C51.5511 9.83436 50.9686 9.56592 50.3488 9.52243C48.4378 9.46393 46.5658 9.50943 44.6353 9.50943H44.6548ZM8.1118 44.7134C8.1118 46.0134 8.1118 47.3134 8.1118 48.5549C8.10196 48.7238 8.10196 48.8931 8.1118 49.0619C8.18295 49.6978 8.47992 50.2869 8.94871 50.7223C9.41749 51.1577 10.027 51.4104 10.6663 51.4344C11.8038 51.4669 12.9478 51.4344 14.0853 51.4344H16.1848V44.7134H8.1118Z" fill="white"/>
<path id="Vector_2" d="M50.9533 28.7686L57.9798 32.8376L45.6298 54.3266L38.5708 50.2641L50.9533 28.7686ZM52.1363 33.2666C51.7983 33.4811 51.3368 33.6241 51.1418 33.9166C50.3618 35.1451 49.6403 36.4126 48.9513 37.6931C48.8096 37.9929 48.7879 38.3357 48.8906 38.651C48.9933 38.9664 49.2127 39.2306 49.5038 39.3896C49.6418 39.4801 49.7964 39.5423 49.9586 39.5727C50.1208 39.6031 50.2875 39.601 50.4489 39.5665C50.6103 39.5321 50.7633 39.4659 50.8989 39.372C51.0346 39.278 51.1503 39.158 51.2393 39.0191C52.0063 37.7841 52.7538 36.5296 53.4168 35.2361C53.5024 35.0223 53.5354 34.791 53.5129 34.5618C53.4904 34.3326 53.4131 34.1121 53.2876 33.9191C53.162 33.726 52.9919 33.5659 52.7915 33.4523C52.5912 33.3388 52.3665 33.2751 52.1363 33.2666Z" fill="white"/>
<path id="Vector_3" d="M48.0283 55.5103C48.8343 54.1193 49.5493 52.8583 50.2903 51.6103C50.4125 51.4741 50.5736 51.3787 50.7518 51.3373C51.3329 51.1881 51.8445 50.8425 52.2 50.3592C52.5554 49.8758 52.7327 49.2845 52.7018 48.6853C52.673 47.8018 52.9157 46.9306 53.3973 46.1893C54.4113 44.5123 55.3473 42.7963 56.3483 41.0998C56.4517 40.9063 56.5985 40.7394 56.7773 40.6123V41.1453C56.7773 43.5958 56.7773 46.0463 56.7773 48.4968C56.8145 49.4245 56.6599 50.3499 56.3231 51.215C55.9863 52.0802 55.4745 52.8665 54.8199 53.5249C54.1652 54.1832 53.3817 54.6993 52.5185 55.0409C51.6552 55.3826 50.7307 55.5424 49.8028 55.5103H48.0283Z" fill="white"/>
<path id="Vector_4" d="M52.3057 26.4291C52.7347 25.6881 53.0987 24.9991 53.5212 24.3426C53.8663 23.7769 54.4143 23.3643 55.0534 23.1892C55.6925 23.014 56.3743 23.0895 56.9597 23.4001C57.8794 23.8698 58.7733 24.3884 59.6377 24.9536C60.1661 25.295 60.5528 25.8165 60.7261 26.4212C60.8994 27.026 60.8476 27.6732 60.5802 28.2426C60.2292 29.0031 59.7742 29.7116 59.3452 30.4916L52.3057 26.4291Z" fill="white"/>
<path id="Vector_5" d="M44.0958 56.5888C43.6213 56.9138 43.2573 57.2388 42.8608 57.4338C41.7515 58.0708 40.6291 58.6948 39.4938 59.3058C38.3693 59.9168 37.3553 59.3903 37.3098 58.1228C37.2578 56.6473 37.2643 55.1653 37.2578 53.6898C37.2816 53.3622 37.3272 53.0364 37.3943 52.7148L44.0958 56.5888Z" fill="white"/>
</g>
</svg>
