<svg width="65" height="65" viewBox="0 0 65 65" fill="none" xmlns="http://www.w3.org/2000/svg">
<g id="fAST 1">
<path id="Vector" d="M16.6015 46.4029C16.1859 45.4301 15.8498 44.5545 15.4253 43.7496C15.3394 43.6401 15.231 43.5502 15.1074 43.4861C14.9838 43.4221 14.8479 43.3852 14.7089 43.3782C12.489 43.3782 10.2867 43.3782 8.04914 43.3782C7.84264 43.4067 7.63254 43.3936 7.43115 43.3398C7.22977 43.286 7.04117 43.1925 6.87641 43.0648C6.71164 42.9371 6.57404 42.7778 6.47168 42.5962C6.36931 42.4146 6.30424 42.2144 6.28028 42.0073C6.17415 40.9902 6.86401 40.2827 8.04914 40.2385C9.90643 40.2385 11.7726 40.2385 13.6299 40.2385H14.4347L14.019 37.1607H3.28208C2.90367 37.1794 2.5314 37.0595 2.23507 36.8234C1.93874 36.5874 1.73869 36.2513 1.67242 35.8783C1.60634 35.5315 1.66511 35.1726 1.83832 34.865C2.01153 34.5574 2.288 34.3211 2.61876 34.1978C2.94401 34.1089 3.28149 34.073 3.61816 34.0917H14.0102L14.4259 30.9785H8.8009C8.46482 30.9785 8.11989 30.9785 7.78381 30.9785C7.58417 30.9798 7.38631 30.9408 7.20207 30.864C7.01782 30.7871 6.85096 30.6738 6.71145 30.531C6.57193 30.3882 6.46264 30.2187 6.39008 30.0327C6.31752 29.8467 6.28318 29.648 6.28913 29.4485C6.28642 29.2415 6.32623 29.0362 6.40608 28.8452C6.48593 28.6543 6.60414 28.4817 6.75337 28.3383C6.90261 28.1949 7.0797 28.0836 7.27368 28.0114C7.46766 27.9391 7.6744 27.9075 7.8811 27.9184C10.0214 27.9184 12.1794 27.9184 14.3197 27.9184C15.0449 27.9184 15.4606 27.7858 15.6729 27.034C15.9278 26.2637 16.2382 25.513 16.6015 24.7875H11.4984C11.1627 24.7911 10.8277 24.7585 10.499 24.6903C10.1787 24.6031 9.89602 24.413 9.69447 24.1493C9.49293 23.8856 9.38374 23.5629 9.38374 23.231C9.38374 22.899 9.49293 22.5763 9.69447 22.3126C9.89602 22.0489 10.1787 21.8588 10.499 21.7717C10.8067 21.7034 11.1213 21.6708 11.4365 21.6744C13.6564 21.6744 15.8586 21.6744 18.0962 21.6744C18.2544 21.6694 18.41 21.6332 18.5542 21.5679C18.6984 21.5027 18.8283 21.4096 18.9364 21.2941C22.2675 17.0759 26.9543 14.1389 32.2028 12.9805L32.5654 12.892V10.8755C32.0259 10.8755 31.5041 10.8755 30.9823 10.8755C29.8441 10.8712 28.7472 10.4482 27.9009 9.68706C27.0545 8.92593 26.5179 7.87996 26.3933 6.74855C26.2687 5.61715 26.5648 4.47945 27.2252 3.55236C27.8856 2.62527 28.864 1.97365 29.9741 1.72171C30.2644 1.65691 30.561 1.62428 30.8585 1.62443C35.086 1.62443 39.3136 1.62443 43.5323 1.62443C44.3917 1.61264 45.2348 1.85928 45.9523 2.33238C46.6698 2.80547 47.2287 3.4832 47.5565 4.27771C47.9438 5.03609 48.104 5.8902 48.0177 6.73741C47.9314 7.58462 47.6024 8.3889 47.07 9.05361C46.6375 9.64107 46.0705 10.1163 45.4165 10.4395C44.7625 10.7626 44.0406 10.9243 43.3112 10.9109C42.8602 10.9109 42.4268 10.9109 41.8873 10.9109V12.8743C49.6172 14.7316 55.2244 19.1891 58.488 26.468C60.7537 31.6155 61.0062 37.4256 59.1955 42.7502C58.205 42.4849 57.2232 42.1488 56.215 41.9808C55.2067 41.8128 54.1631 41.8128 53.0841 41.742C53.9222 39.562 54.3007 37.2323 54.1956 34.8991C54.0906 32.5659 53.5044 30.2796 52.4739 28.1837C50.9044 24.8813 48.2859 22.1913 45.027 20.5335C41.7904 18.8522 38.0989 18.2565 34.4978 18.8344C30.8966 19.4122 27.5768 21.133 25.0288 23.7425C22.4807 26.3521 20.8396 29.7119 20.3477 33.3258C19.8558 36.9397 20.5393 40.616 22.2972 43.8116C24.177 47.1927 27.1459 49.8381 30.7206 51.3171C34.2953 52.7962 38.2654 53.0217 41.9846 51.9571C41.6474 54.064 41.8234 56.221 42.4975 58.2454C41.1001 58.4223 39.7912 58.6788 38.4822 58.7318C34.7546 58.9626 31.0268 58.2819 27.6212 56.7486C24.2157 55.2153 21.2348 52.8756 18.9364 49.9318C18.7008 49.6932 18.3864 49.5486 18.052 49.5249C15.8321 49.5249 13.6299 49.5249 11.3834 49.5249C10.101 49.5249 9.36693 48.9501 9.38462 47.9684C9.40231 46.9866 10.1275 46.456 11.3569 46.4471L16.6015 46.4029Z" fill="white"/>
<path id="Vector_2" d="M37.4914 49.4805C34.6965 49.534 31.9504 48.7432 29.612 47.2114C27.2736 45.6797 25.4515 43.4781 24.384 40.8945C23.3165 38.3109 23.0532 35.4654 23.6284 32.7298C24.2036 29.9941 25.5906 27.4956 27.6081 25.5607C29.6257 23.6257 32.18 22.3444 34.9373 21.884C37.6946 21.4237 40.5267 21.8058 43.0634 22.9803C45.6001 24.1549 47.7236 26.0673 49.1562 28.4678C50.5889 30.8682 51.2642 33.6449 51.0939 36.4352C50.9812 38.5659 50.3563 40.6381 49.272 42.4758C49.1134 42.7341 48.8911 42.9473 48.6264 43.0949C46.6268 44.1435 44.935 45.695 43.7178 47.5966C43.5361 47.87 43.282 48.0874 42.9837 48.2246C41.2686 49.0449 39.3926 49.4738 37.4914 49.4805ZM35.6165 30.1381C35.6165 31.8539 35.6165 33.5608 35.6165 35.2766C35.6241 35.7963 35.8011 36.2994 36.1206 36.7094C37.5887 38.2748 39.1276 39.7695 40.6577 41.2818C40.8522 41.5007 41.1078 41.6563 41.3914 41.7288C41.6751 41.8013 41.974 41.7873 42.2497 41.6887C42.5185 41.6128 42.7614 41.4647 42.952 41.2606C43.1427 41.0564 43.2738 40.804 43.3312 40.5307C43.3886 40.2573 43.3701 39.9734 43.2777 39.7099C43.1852 39.4463 43.0224 39.213 42.8069 39.0354C41.604 37.7884 40.3393 36.5855 39.1453 35.3297C38.8974 35.0568 38.7507 34.7071 38.7296 34.3391C38.7296 32.5702 38.7296 30.8014 38.7296 29.0325C38.7296 27.6351 38.7296 26.2378 38.7296 24.8404C38.749 24.5862 38.7055 24.3311 38.6032 24.0976C38.5009 23.8641 38.3428 23.6593 38.1427 23.5013C37.9427 23.3432 37.707 23.2366 37.4562 23.191C37.2054 23.1454 36.9472 23.162 36.7043 23.2395C36.3565 23.3551 36.0591 23.5872 35.8626 23.8965C35.666 24.2059 35.5822 24.5736 35.6253 24.9376C35.6165 26.7153 35.6165 28.4223 35.6165 30.1381Z" fill="white"/>
<path id="Vector_3" d="M54.1812 63.3842C52.348 63.379 50.5575 62.8302 49.0362 61.8074C47.5149 60.7846 46.3311 59.3336 45.6344 57.6379C44.9377 55.9423 44.7595 54.0781 45.1223 52.2812C45.4851 50.4843 46.3726 48.8353 47.6725 47.5427C48.9725 46.2502 50.6265 45.3721 52.4255 45.0196C54.2245 44.6672 56.0876 44.856 57.7792 45.5624C59.4709 46.2688 60.9151 47.4609 61.9292 48.9881C62.9433 50.5152 63.4817 52.3088 63.4765 54.142C63.4648 56.5988 62.48 58.9508 60.7378 60.6831C58.9956 62.4153 56.638 63.3866 54.1812 63.3842ZM53.6859 54.7257C53.1022 54.0889 52.6423 53.5229 52.1205 53.0364C51.8378 52.7479 51.4521 52.5835 51.0483 52.5794C50.6444 52.5752 50.2554 52.7317 49.9669 53.0143C49.6784 53.297 49.514 53.6827 49.5098 54.0865C49.5057 54.4904 49.6621 54.8794 49.9448 55.1679C50.9796 56.2557 52.032 57.3171 53.1199 58.343C53.2824 58.5165 53.4843 58.6481 53.7086 58.7269C53.9329 58.8056 54.1729 58.829 54.4082 58.7952C54.6434 58.7613 54.8671 58.6712 55.06 58.5324C55.253 58.3936 55.4097 58.2103 55.5167 57.9981C56.6134 55.9108 57.657 53.7882 58.6829 51.6656C58.7701 51.4911 58.8216 51.301 58.8345 51.1064C58.8474 50.9118 58.8213 50.7166 58.7579 50.5322C58.6945 50.3477 58.595 50.1778 58.4652 50.0322C58.3354 49.8867 58.1779 49.7685 58.0019 49.6845C57.8148 49.583 57.6085 49.5221 57.3963 49.5058C57.1841 49.4896 56.9708 49.5182 56.7705 49.59C56.5701 49.6618 56.3872 49.7751 56.2336 49.9224C56.0801 50.0698 55.9593 50.2479 55.8793 50.4451C55.1452 51.7894 54.4819 53.1514 53.6859 54.7257Z" fill="white"/>
<path id="Vector_4" d="M3.18508 30.9351C2.98732 30.9386 2.79082 30.9029 2.60699 30.8299C2.42315 30.7569 2.25563 30.6481 2.11413 30.5099C1.97263 30.3717 1.85997 30.2068 1.78268 30.0247C1.70539 29.8427 1.665 29.6471 1.66387 29.4493C1.65552 29.2455 1.68846 29.0422 1.76072 28.8515C1.83298 28.6608 1.94305 28.4867 2.08433 28.3396C2.22561 28.1926 2.39517 28.0756 2.58281 27.9957C2.77045 27.9159 2.97231 27.8748 3.17623 27.875C3.38065 27.8762 3.58284 27.9176 3.77125 27.9969C3.95966 28.0762 4.1306 28.1918 4.27433 28.3372C4.41805 28.4825 4.53173 28.6548 4.60888 28.8441C4.68603 29.0334 4.72514 29.236 4.72398 29.4404C4.71471 29.8416 4.54821 30.2231 4.26036 30.5027C3.97251 30.7822 3.58635 30.9375 3.18508 30.9351Z" fill="white"/>
<path id="Vector_5" d="M1.65501 41.7949C1.65149 41.5906 1.68869 41.3876 1.76445 41.1979C1.84021 41.0081 1.95301 40.8353 2.09626 40.6896C2.23951 40.5438 2.41035 40.4281 2.59881 40.3491C2.78727 40.2701 2.98957 40.2295 3.19392 40.2295C3.58305 40.259 3.94668 40.4344 4.212 40.7205C4.47732 41.0067 4.62475 41.3826 4.62475 41.7728C4.62475 42.1631 4.47732 42.5389 4.212 42.8251C3.94668 43.1113 3.58305 43.2867 3.19392 43.3161C2.78952 43.3139 2.40206 43.1534 2.11446 42.8691C1.82685 42.5848 1.66194 42.1993 1.65501 41.7949Z" fill="white"/>
</g>
</svg>
