<svg width="65" height="65" viewBox="0 0 65 65" fill="none" xmlns="http://www.w3.org/2000/svg">
<g id="Affordable Pricing for Social Media Graphics&#226;&#128;&#168; 1">
<path id="Vector" d="M20.8586 49.9461L16.0161 41.5611L21.8661 38.1811C22.5161 37.8236 23.1271 37.4661 23.7511 37.0956C24.0848 36.8928 24.4565 36.7605 24.8433 36.7068C25.2301 36.6532 25.6238 36.6793 26.0001 36.7836L37.7846 39.9361C38.0923 39.9969 38.3828 40.1247 38.6356 40.3104C38.8884 40.4961 39.0972 40.7351 39.2474 41.0105C39.3975 41.2859 39.4851 41.5909 39.5042 41.904C39.5233 42.2171 39.4732 42.5305 39.3576 42.8221C39.1597 43.3161 38.7794 43.7152 38.2954 43.9366C37.8114 44.158 37.2608 44.1849 36.7576 44.0116L28.3466 41.7951L28.0801 41.7236C27.6511 41.6261 27.2741 41.7236 27.1506 42.1786C27.0271 42.6336 27.3131 42.9066 27.7421 43.0236L30.8621 43.8491C33.1241 44.4471 35.4121 45.0126 37.6481 45.6496C38.0875 45.7874 38.5511 45.8303 39.0083 45.7753C39.4655 45.7204 39.9059 45.569 40.3001 45.3311C43.2381 43.6216 46.1891 41.9316 49.1336 40.2286C50.5506 39.4096 51.9611 38.5841 53.3781 37.7716C53.6666 37.5746 53.9926 37.4394 54.3358 37.3743C54.679 37.3093 55.0319 37.3159 55.3724 37.3938C55.7129 37.4716 56.0337 37.6189 56.3145 37.8265C56.5954 38.0342 56.8304 38.2976 57.0046 38.6003C57.1789 38.903 57.2887 39.2385 57.3272 39.5856C57.3657 39.9328 57.332 40.2842 57.2283 40.6177C57.1246 40.9512 56.9531 41.2598 56.7245 41.5239C56.496 41.788 56.2153 42.002 55.9001 42.1526C50.2668 45.4416 44.6118 48.7241 38.9351 52.0001C38.4969 52.2629 38.0088 52.4316 37.5019 52.4954C36.9949 52.5592 36.4802 52.5167 35.9906 52.3706C32.3116 51.3501 28.6001 50.4336 24.9601 49.4001C23.5691 49.0101 22.2951 48.9581 21.0991 49.8616C21.0216 49.8969 20.9412 49.9252 20.8586 49.9461Z" fill="white"/>
<path id="Vector_2" d="M40.2478 27.1502C38.0441 28.1284 35.5839 28.3702 33.232 27.8397C30.88 27.3093 28.7617 26.0349 27.1913 24.2055C25.6208 22.3761 24.6819 20.0893 24.5137 17.6842C24.3455 15.279 24.957 12.8838 26.2575 10.8536C27.5581 8.82349 29.4784 7.26664 31.7336 6.41401C33.9888 5.56137 36.4588 5.45837 38.7771 6.12029C41.0955 6.78221 43.1387 8.17378 44.6038 10.0886C46.0688 12.0034 46.8777 14.3394 46.9103 16.7502C45.7382 16.8908 44.6116 17.289 43.6115 17.9164C42.6114 18.5437 41.7625 19.3845 41.1257 20.3786C40.4889 21.3726 40.0799 22.4953 39.9281 23.666C39.7764 24.8368 39.8855 26.0266 40.2478 27.1502ZM36.4323 22.7497C37.3654 22.5845 38.2228 22.1297 38.8828 21.4497C39.2101 21.1168 39.451 20.7088 39.5843 20.2614C39.7177 19.814 39.7394 19.3407 39.6477 18.8829C39.5561 18.4252 39.3537 17.9968 39.0583 17.6352C38.763 17.2737 38.3836 16.9899 37.9533 16.8087C37.577 16.6501 37.1877 16.5239 36.7898 16.4317C35.9253 16.2107 35.0413 16.0742 34.1898 15.7817C33.9341 15.7037 33.7036 15.5594 33.5218 15.3634C33.34 15.1675 33.2132 14.9269 33.1545 14.6661C33.0957 14.4053 33.107 14.1336 33.1872 13.8786C33.2675 13.6236 33.4138 13.3944 33.6113 13.2142C33.9959 12.8298 34.4799 12.56 35.009 12.4349C35.5382 12.3098 36.0918 12.3343 36.6078 12.5057C37.0742 12.5759 37.5032 12.8015 37.8252 13.146C38.1473 13.4905 38.3436 13.9337 38.3823 14.4037C38.3823 14.6117 38.7788 14.8912 39.0323 14.9367C39.4028 15.0017 39.6433 14.7092 39.6823 14.2867C39.697 14.1009 39.6795 13.914 39.6303 13.7342C39.4759 13.0875 39.1358 12.4999 38.652 12.0438C38.1681 11.5876 37.5616 11.2828 36.9068 11.1667C36.5038 11.0562 36.3933 10.9002 36.4258 10.5167C36.4549 10.2206 36.4549 9.92234 36.4258 9.62622C36.3961 9.47142 36.3112 9.33267 36.1868 9.23582C36.0625 9.13896 35.9072 9.0906 35.7498 9.09972C35.5774 9.09972 35.4121 9.1682 35.2902 9.2901C35.1683 9.412 35.0998 9.57733 35.0998 9.74972C35.0803 10.0658 35.0803 10.3827 35.0998 10.6987C35.0998 11.0237 34.9763 11.1082 34.6903 11.2317C33.9875 11.4893 33.3295 11.8556 32.7403 12.3172C32.3863 12.6426 32.1208 13.0526 31.969 13.5089C31.8171 13.9651 31.7838 14.4524 31.8722 14.925C31.9607 15.3977 32.1679 15.84 32.4744 16.2105C32.7809 16.581 33.1766 16.8674 33.6243 17.0427C33.9489 17.1773 34.2836 17.286 34.6253 17.3677C35.5223 17.5952 36.4388 17.7577 37.3228 18.0177C37.5103 18.0642 37.6865 18.1482 37.8406 18.2647C37.9948 18.3811 38.1237 18.5276 38.2197 18.6952C38.3157 18.8629 38.3767 19.0483 38.3991 19.2402C38.4214 19.4321 38.4047 19.6265 38.3498 19.8117C38.1223 20.7412 37.0498 21.4042 35.7953 21.4042C34.5408 21.4042 33.4683 20.7542 33.2343 19.8312C33.2092 19.76 33.1939 19.6856 33.1888 19.6102C33.1888 19.1357 32.9483 18.8172 32.4348 18.8432C31.9213 18.8692 31.7848 19.2657 31.8628 19.8182C31.9646 20.4378 32.2387 21.0162 32.6536 21.4875C33.0685 21.9587 33.6076 22.3038 34.2093 22.4832C34.4953 22.5937 34.8008 22.6652 35.1193 22.7562C35.1193 23.1592 35.1193 23.5297 35.1193 23.9067C35.1193 24.4657 35.3598 24.7582 35.7693 24.7322C36.3023 24.7322 36.4193 24.3357 36.4193 23.8807L36.4323 22.7497Z" fill="white"/>
<path id="Vector_3" d="M9.04808 41.1578C10.0491 40.5793 10.9981 40.0073 11.9536 39.5003C12.0893 39.407 12.2446 39.3461 12.4075 39.3221C12.5705 39.2981 12.7367 39.3117 12.8936 39.3619C13.0504 39.4121 13.1937 39.4975 13.3125 39.6116C13.4312 39.7258 13.5222 39.8656 13.5786 40.0203L20.9171 52.7213C21.3266 53.4363 21.2551 53.9563 20.5466 54.3853C18.5706 55.5683 16.5772 56.7231 14.5666 57.8498C13.8321 58.2658 13.3511 58.0643 12.9156 57.3103L5.60958 44.6418C5.50248 44.5118 5.42651 44.359 5.38749 44.1952C5.34846 44.0313 5.34741 43.8607 5.38442 43.6964C5.42142 43.5321 5.4955 43.3784 5.60099 43.2471C5.70648 43.1158 5.84059 43.0103 5.99308 42.9388L6.22708 42.7958L7.85858 41.8533C7.96908 42.0288 8.07958 42.1978 8.18358 42.3733L11.9991 48.9903C12.0966 49.1528 12.1681 49.3868 12.3046 49.4453C12.5646 49.5493 12.9546 49.6728 13.1366 49.5558C13.3186 49.4388 13.3641 49.0423 13.3901 48.7628C13.3901 48.6263 13.2471 48.4703 13.1626 48.3273L9.32108 41.6518C9.23658 41.5088 9.15858 41.3658 9.04808 41.1578Z" fill="white"/>
<path id="Vector_4" d="M41.2227 24.6997C41.2227 22.9534 41.9164 21.2786 43.1512 20.0438C44.386 18.809 46.0608 18.1152 47.8072 18.1152C49.5535 18.1152 51.2283 18.809 52.4631 20.0438C53.6979 21.2786 54.3917 22.9534 54.3917 24.6997C54.3917 26.4461 53.6979 28.1208 52.4631 29.3557C51.2283 30.5905 49.5535 31.2842 47.8072 31.2842C46.0608 31.2842 44.386 30.5905 43.1512 29.3557C41.9164 28.1208 41.2227 26.4461 41.2227 24.6997ZM47.1312 26.9812L46.9752 27.0397L45.1487 25.1677C45.0846 25.1054 45.009 25.0563 44.926 25.0233C44.843 24.9902 44.7543 24.9738 44.665 24.975C44.5756 24.9762 44.4874 24.995 44.4054 25.0303C44.3233 25.0656 44.249 25.1167 44.1867 25.1807C44.1243 25.2448 44.0753 25.3204 44.0422 25.4034C44.0091 25.4864 43.9927 25.5751 43.9939 25.6644C43.9951 25.7538 44.0139 25.842 44.0492 25.924C44.0845 26.0061 44.1356 26.0804 44.1997 26.1427C45.205 27.1654 46.219 28.1794 47.2417 29.1847C47.3056 29.2721 47.3893 29.3431 47.4859 29.392C47.5824 29.441 47.6892 29.4665 47.7974 29.4665C47.9057 29.4665 48.0124 29.441 48.109 29.392C48.2055 29.3431 48.2892 29.2721 48.3532 29.1847C49.3737 28.1772 50.3877 27.1567 51.3952 26.1427C51.457 26.0804 51.5061 26.0065 51.5394 25.9253C51.5727 25.844 51.5897 25.757 51.5894 25.6692C51.5891 25.5814 51.5715 25.4945 51.5376 25.4134C51.5037 25.3324 51.4542 25.2589 51.3919 25.197C51.3296 25.1351 51.2557 25.0861 51.1745 25.0528C51.0932 25.0194 51.0062 25.0024 50.9184 25.0027C50.8305 25.003 50.7436 25.0206 50.6626 25.0545C50.5816 25.0884 50.508 25.1379 50.4462 25.2002C49.9132 25.7202 49.3932 26.2532 48.8667 26.7797C48.7692 26.8707 48.6522 26.9487 48.4767 27.0917V21.0792C48.4767 20.2797 48.2817 19.9417 47.8267 19.9287C47.3717 19.9157 47.1767 20.2537 47.1767 21.0467V27.0072L47.1312 26.9812Z" fill="white"/>
<path id="Vector_5" d="M51.1223 37.5309L40.6183 43.6148L40.5078 43.5499C40.6258 43.2763 40.774 43.0168 40.9498 42.7763C42.9431 40.7483 44.9495 38.7333 46.9688 36.7313C47.2544 36.4169 47.6161 36.1812 48.0192 36.0469C48.4222 35.9126 48.853 35.8843 49.2701 35.9646C49.6873 36.0449 50.0767 36.2311 50.4011 36.5054C50.7255 36.7797 50.9738 37.1328 51.1223 37.5309Z" fill="white"/>
<path id="Vector_6" d="M44.9278 36.7832L40.8328 40.8782L39.0518 38.7462C39.8751 37.8763 40.7429 37.0497 41.6518 36.2697C42.1544 35.9038 42.7818 35.7523 43.396 35.8486C44.0102 35.9449 44.5611 36.281 44.9278 36.7832Z" fill="white"/>
</g>
</svg>
