<svg width="63" height="59" viewBox="0 0 63 59" fill="none" xmlns="http://www.w3.org/2000/svg">
<g id="Style 1">
<path id="Vector" d="M18.2853 40.9267L21.7043 35.0117C22.7508 35.6162 23.7778 36.1817 24.7723 36.7927C24.8993 36.8947 25.06 36.9452 25.2225 36.9344C25.385 36.9236 25.5375 36.8521 25.6498 36.7342C26.3806 36.2283 27.1499 35.7806 27.9508 35.3952C28.116 35.3432 28.2575 35.2344 28.3503 35.0881C28.4431 34.9418 28.4812 34.7674 28.4578 34.5957C28.4253 33.4647 28.4578 32.3272 28.4578 31.1572H35.2633C35.3088 31.9214 35.3088 32.6876 35.2633 33.4517C35.1203 34.6282 35.3543 35.4602 36.6478 35.8112C37.1815 36.0169 37.668 36.3287 38.0778 36.7277C38.1936 36.8484 38.3514 36.9197 38.5185 36.927C38.6855 36.9342 38.849 36.8769 38.9748 36.7667C39.9433 36.1687 40.9248 35.6162 41.9973 35.0117L45.4228 40.9332C44.6753 41.3622 43.9733 41.8432 43.2063 42.1942C42.2768 42.6102 41.7828 43.1172 42.0753 44.2482C42.1625 44.8978 42.1361 45.5577 41.9973 46.1982C41.9619 46.3421 41.9799 46.4939 42.0481 46.6254C42.1163 46.7569 42.2299 46.8592 42.3678 46.9132C43.3818 47.4657 44.3698 48.0572 45.4228 48.6617C44.2723 50.6507 43.1478 52.5617 42.0038 54.5832C40.9508 53.9787 39.9303 53.4132 38.9293 52.8022C38.804 52.7102 38.6498 52.6662 38.4948 52.6781C38.3397 52.69 38.1941 52.7571 38.0843 52.8672C37.3278 53.3703 36.5397 53.824 35.7248 54.2257C35.5772 54.272 35.4509 54.3695 35.3687 54.5005C35.2865 54.6316 35.2537 54.7877 35.2763 54.9407C35.2763 56.1302 35.2763 57.3262 35.2763 58.5482H28.4188V57.6512C28.4188 56.7412 28.4188 55.8312 28.4188 54.9147C28.4429 54.7776 28.4167 54.6364 28.3451 54.517C28.2735 54.3976 28.1612 54.308 28.0288 54.2647C27.1621 53.8314 26.328 53.3461 25.5263 52.8087C25.4264 52.7296 25.3027 52.6866 25.1753 52.6866C25.0479 52.6866 24.9242 52.7296 24.8243 52.8087C23.8103 53.4067 22.7898 53.9917 21.6978 54.6222L18.2788 48.7007C18.9936 48.2432 19.7312 47.8223 20.4888 47.4397C21.4248 47.0172 21.9058 46.5102 21.6198 45.3792C21.5327 44.7296 21.5591 44.0698 21.6978 43.4292C21.7347 43.2853 21.7173 43.1329 21.649 43.0011C21.5806 42.8692 21.4661 42.7671 21.3273 42.7142C20.3263 42.1227 19.3318 41.5377 18.2853 40.9267ZM31.8508 39.6787C30.8374 39.6762 29.846 39.9737 29.0013 40.5335C28.1566 41.0934 27.4965 41.8906 27.104 42.8249C26.7115 43.7592 26.6042 44.7887 26.7957 45.7839C26.9871 46.779 27.4688 47.6952 28.1799 48.4172C28.891 49.1391 29.7999 49.6345 30.792 49.841C31.7841 50.0475 32.8151 49.9558 33.7552 49.5775C34.6954 49.1991 35.5025 48.5511 36.0751 47.715C36.6476 46.8789 36.96 45.892 36.9728 44.8787C36.9788 44.2007 36.851 43.5282 36.5967 42.8997C36.3423 42.2712 35.9665 41.699 35.4907 41.216C35.0149 40.7329 34.4485 40.3485 33.8239 40.0847C33.1993 39.8209 32.5288 39.683 31.8508 39.6787Z" fill="white"/>
<path id="Vector_2" d="M39.5277 10.585H35.2832V27.6735H28.4322V10.65H24.1357L31.8447 0.25C34.4122 3.695 36.9407 7.101 39.5277 10.585Z" fill="white"/>
<path id="Vector_3" d="M50.6555 17.4485V13.165L61.0555 20.861L50.6555 28.557V24.2995C49.9002 24.2472 49.1422 24.2472 48.387 24.2995C47.5787 24.4165 46.8408 24.8244 46.3119 25.4467C45.7829 26.069 45.4992 26.8629 45.514 27.6795C45.514 29.792 45.514 31.898 45.4035 34.0625L43.2195 30.2925L38.7865 32.847C38.7345 32.8015 38.689 32.7755 38.689 32.756C38.754 30.364 38.5655 27.933 38.9425 25.606C39.6835 20.926 43.993 17.4745 48.7445 17.416C49.362 17.4355 49.973 17.4485 50.6555 17.4485Z" fill="white"/>
<path id="Vector_4" d="M13.0401 24.2996V28.5831L2.64014 20.8806L13.0011 13.1846V17.3901C14.0866 17.4421 15.1136 17.4421 16.1211 17.5526C20.5151 18.0531 24.3501 21.7646 24.8506 26.1391C25.0911 28.3556 25.0001 30.6111 25.0586 32.9836L20.4501 30.3316L18.2661 34.1016H18.1556V33.3151C18.1556 31.4951 18.1556 29.6686 18.1556 27.8421C18.173 27.3711 18.0929 26.9016 17.9202 26.463C17.7475 26.0245 17.486 25.6264 17.1521 25.2937C16.8183 24.9611 16.4192 24.701 15.98 24.53C15.5409 24.3589 15.0711 24.2804 14.6001 24.2996H13.0401Z" fill="white"/>
<path id="Vector_5" d="M31.8185 46.5165C31.4796 46.5126 31.1495 46.408 30.8702 46.216C30.5909 46.0241 30.3749 45.7534 30.2498 45.4385C30.1246 45.1235 30.0959 44.7785 30.1672 44.4472C30.2386 44.1158 30.4069 43.8132 30.6506 43.5777C30.8943 43.3422 31.2026 43.1845 31.5361 43.1246C31.8697 43.0647 32.2136 43.1052 32.524 43.2412C32.8345 43.3771 33.0975 43.6022 33.2798 43.888C33.462 44.1737 33.5552 44.5072 33.5475 44.846C33.5356 45.2955 33.3477 45.7223 33.0244 46.0347C32.7011 46.3471 32.268 46.5201 31.8185 46.5165Z" fill="white"/>
</g>
</svg>
