<svg width="85" height="84" viewBox="0 0 85 84" fill="none" xmlns="http://www.w3.org/2000/svg">
<g id="247 1">
<path id="Vector" d="M71.1418 29.726C74.3362 29.7679 76.6943 31.0975 78.1159 33.9323C78.6177 34.9357 78.81 36.0145 78.81 37.135C78.81 40.2207 78.81 43.3147 78.81 46.4004C78.7933 50.6568 75.7578 53.7508 71.5014 53.8595C71.401 53.8595 71.3007 53.8679 71.1501 53.8763C70.7906 55.716 70.3306 57.5306 69.67 59.2783C68.0728 63.4761 65.6311 67.1054 62.328 70.1409C61.9349 70.5005 61.8262 70.8099 61.8931 71.3534C62.2861 74.5311 59.9196 77.4579 56.6249 77.9261C53.4807 78.3693 50.5037 76.0864 49.9351 72.7917C49.425 69.7813 51.5825 66.6873 54.618 66.0517C55.9476 65.7758 57.2186 65.8928 58.4228 66.5116C58.8493 66.7291 59.0834 66.6287 59.3844 66.3277C64.059 61.7368 66.5844 56.1759 66.7265 49.6282C66.8436 44.4102 66.8101 39.1838 66.7349 33.9573C66.5844 22.777 58.1636 12.8844 47.1672 10.8859C34.097 8.51098 21.9215 16.614 19.0365 29.6173C18.6519 31.3316 18.5181 33.0877 18.5181 34.8521C18.5264 40.2541 18.5181 45.6478 18.5181 51.0498C18.5181 52.9397 17.5982 53.8595 15.6916 53.8512C14.4373 53.8512 13.1829 53.9515 11.9453 53.6338C8.71748 52.7975 6.49312 49.9962 6.46803 46.6596C6.44295 43.4485 6.44295 40.229 6.46803 37.0179C6.49312 32.9622 9.59552 29.8515 13.6596 29.7511C13.785 29.7511 13.9104 29.7511 14.0944 29.7511C15.7836 21.1129 20.2741 14.3646 27.8169 9.75696C32.8761 6.66292 38.437 5.34168 44.3491 5.6929C57.9545 6.49567 68.8923 16.6726 71.1501 29.726H71.1418Z" fill="white"/>
<path id="Vector_2" d="M35.3757 29.7511V25.018C35.1582 24.8591 34.9241 24.9344 34.7067 24.9344C32.5743 24.9344 30.4336 24.9344 28.3012 24.9344C26.8294 24.9344 25.7507 23.9058 25.7423 22.5428C25.734 21.163 26.796 20.1261 28.2594 20.1177C30.6426 20.1094 33.0342 20.0927 35.4175 20.1177C38.085 20.1428 40.1672 22.2418 40.209 24.9177C40.2341 26.5232 40.2258 28.1288 40.209 29.7343C40.1756 32.4521 38.1018 34.5426 35.384 34.5761C33.8035 34.5928 32.2231 34.5761 30.6092 34.5761V39.3259C30.8015 39.468 31.0356 39.3928 31.2531 39.3928C33.4105 39.3928 35.5763 39.3928 37.7338 39.3928C39.147 39.4011 40.209 40.4464 40.2174 41.7844C40.2258 43.1223 39.1721 44.2011 37.7756 44.2094C35.3422 44.2262 32.9004 44.2429 30.467 44.2094C27.8831 44.176 25.8009 42.077 25.759 39.4931C25.734 37.8374 25.734 36.1817 25.759 34.5259C25.8009 31.9002 27.8831 29.8096 30.5088 29.7678C32.1144 29.7427 33.7116 29.7678 35.384 29.7678L35.3757 29.7511Z" fill="white"/>
<path id="Vector_3" d="M49.8676 29.7261H54.6926C54.6926 27.4516 54.6926 25.2021 54.6926 22.9443C54.6926 22.6182 54.6843 22.2837 54.7595 21.9743C55.0355 20.7618 56.1895 19.9673 57.402 20.1179C58.6062 20.2684 59.5093 21.2802 59.5093 22.568C59.5177 26.7826 59.5093 31.0055 59.5093 35.2201C59.5093 37.3274 59.5093 39.4347 59.5093 41.542C59.5093 43.1308 58.5058 44.2263 57.0843 44.2179C55.6627 44.2179 54.6926 43.1141 54.6843 41.5169C54.6843 39.234 54.6843 36.9511 54.6843 34.5762C53.062 34.5762 51.4732 34.5929 49.876 34.5762C48.2119 34.5595 46.8739 33.8571 45.9039 32.5024C45.3353 31.708 45.0426 30.8048 45.0426 29.8265C45.0426 27.4181 45.0259 25.0098 45.0426 22.6015C45.0426 21.1882 46.0795 20.1346 47.4258 20.1179C48.7972 20.1095 49.8509 21.1799 49.8593 22.6349C49.8676 24.9847 49.8593 27.3429 49.8593 29.7345L49.8676 29.7261Z" fill="white"/>
<path id="Vector_4" d="M42.617 46.6352C47.4086 46.6352 52.2085 46.6352 57.0001 46.6352C58.3213 46.6352 59.3582 47.5383 59.5004 48.7676C59.6342 49.955 58.8732 51.0589 57.6858 51.3683C57.4684 51.4268 57.2426 51.4435 57.0168 51.4435C47.4253 51.4435 37.8421 51.4435 28.2506 51.4435C26.921 51.4435 25.8925 50.532 25.7587 49.3028C25.6249 48.0819 26.4277 46.953 27.6402 46.677C27.9329 46.6101 28.2423 46.6185 28.5349 46.6185C33.2262 46.6185 37.9258 46.6185 42.617 46.6185V46.6352Z" fill="white"/>
<path id="Vector_5" d="M44.3313 58.6844C42.224 58.6844 40.1669 58.6844 38.1098 58.6844C36.5043 58.6844 35.4088 57.7144 35.4004 56.2928C35.3921 54.8378 36.4875 53.8594 38.1433 53.8594C40.3509 53.8594 42.5585 53.8594 44.7745 53.8594C48.0442 53.8594 49.9341 56.251 49.148 59.4119C47.7933 64.9059 46.4135 70.3999 45.0421 75.8856C44.6658 77.3908 43.4366 78.227 42.107 77.9093C40.7105 77.5748 39.983 76.287 40.3593 74.7567C41.6387 69.6055 42.9265 64.4544 44.2059 59.3032C44.2561 59.1109 44.2812 58.9185 44.3313 58.676V58.6844Z" fill="white"/>
</g>
</svg>
