<?xml version="1.0" encoding="UTF-8"?>
<svg id="Layer_1" xmlns="http://www.w3.org/2000/svg" viewBox="0 0 100 100">
  <defs>
    <style>
      .cls-1 {
        fill: #010101;
      }
    </style>
  </defs>
  <path class="cls-1" d="M84.1,35.54c3.82.05,6.64,1.64,8.34,5.03.6,1.2.83,2.49.83,3.83,0,3.69,0,7.39,0,11.08-.02,5.09-3.65,8.79-8.74,8.92-.12,0-.24.01-.42.02-.43,2.2-.98,4.37-1.77,6.46-1.91,5.02-4.83,9.36-8.78,12.99-.47.43-.6.8-.52,1.45.47,3.8-2.36,7.3-6.3,7.86-3.76.53-7.32-2.2-8-6.14-.61-3.6,1.97-7.3,5.6-8.06,1.59-.33,3.11-.19,4.55.55.51.26.79.14,1.15-.22,5.59-5.49,8.61-12.14,8.78-19.97.14-6.24.1-12.49.01-18.74-.18-13.37-10.25-25.2-23.4-27.59-15.63-2.84-30.19,6.85-33.64,22.4-.46,2.05-.62,4.15-.62,6.26.01,6.46,0,12.91,0,19.37,0,2.26-1.1,3.36-3.38,3.35-1.5,0-3,.12-4.48-.26-3.86-1-6.52-4.35-6.55-8.34-.03-3.84-.03-7.69,0-11.53.03-4.85,3.74-8.57,8.6-8.69.15,0,.3,0,.52,0,2.02-10.33,7.39-18.4,16.41-23.91,6.05-3.7,12.7-5.28,19.77-4.86,16.27.96,29.35,13.13,32.05,28.74Z"/>
  <path class="cls-1" d="M41.33,35.57v-5.66c-.26-.19-.54-.1-.8-.1-2.55,0-5.11,0-7.66,0-1.76,0-3.05-1.23-3.06-2.86-.01-1.65,1.26-2.89,3.01-2.9,2.85-.01,5.71-.03,8.56,0,3.19.03,5.68,2.54,5.73,5.74.03,1.92.02,3.84,0,5.76-.04,3.25-2.52,5.75-5.77,5.79-1.89.02-3.78,0-5.71,0v5.68c.23.17.51.08.77.08,2.58,0,5.17,0,7.75,0,1.69.01,2.96,1.26,2.97,2.86.01,1.6-1.25,2.89-2.92,2.9-2.91.02-5.83.04-8.74,0-3.09-.04-5.58-2.55-5.63-5.64-.03-1.98-.03-3.96,0-5.94.05-3.14,2.54-5.64,5.68-5.69,1.92-.03,3.83,0,5.83,0Z"/>
  <path class="cls-1" d="M58.66,35.54h5.77c0-2.72,0-5.41,0-8.11,0-.39-.01-.79.08-1.16.33-1.45,1.71-2.4,3.16-2.22,1.44.18,2.52,1.39,2.52,2.93.01,5.04,0,10.09,0,15.13,0,2.52,0,5.04,0,7.56,0,1.9-1.2,3.21-2.9,3.2-1.7,0-2.86-1.32-2.87-3.23,0-2.73,0-5.46,0-8.3-1.94,0-3.84.02-5.75,0-1.99-.02-3.59-.86-4.75-2.48-.68-.95-1.03-2.03-1.03-3.2,0-2.88-.02-5.76,0-8.64,0-1.69,1.24-2.95,2.85-2.97,1.64-.01,2.9,1.27,2.91,3.01.01,2.81,0,5.63,0,8.49Z"/>
  <path class="cls-1" d="M49.99,55.76c5.73,0,11.47,0,17.2,0,1.58,0,2.82,1.08,2.99,2.55.16,1.42-.75,2.74-2.17,3.11-.26.07-.53.09-.8.09-11.47,0-22.93,0-34.4,0-1.59,0-2.82-1.09-2.98-2.56-.16-1.46.8-2.81,2.25-3.14.35-.08.72-.07,1.07-.07,5.61,0,11.23,0,16.84,0Z"/>
  <path class="cls-1" d="M52.04,70.17c-2.52,0-4.98,0-7.44,0-1.92,0-3.23-1.16-3.24-2.86-.01-1.74,1.3-2.91,3.28-2.91,2.64,0,5.28,0,7.93,0,3.91,0,6.17,2.86,5.23,6.64-1.62,6.57-3.27,13.14-4.91,19.7-.45,1.8-1.92,2.8-3.51,2.42-1.67-.4-2.54-1.94-2.09-3.77,1.53-6.16,3.07-12.32,4.6-18.48.06-.23.09-.46.15-.75Z"/>
</svg>