<svg width="60" height="60" viewBox="0 0 60 60" fill="none" xmlns="http://www.w3.org/2000/svg">
<g id="Account-based Marketing (ABM) 1">
<path id="Vector" d="M33.912 29.8976V32.6996L31.074 33.2576L31.122 33.1676C30.8057 33.0407 30.4754 32.9521 30.138 32.9036C29.088 32.8676 28.038 32.9036 26.988 32.9036C26.388 32.9036 26.28 33.0116 26.28 33.5816V44.7536C26.28 45.3536 26.406 45.4556 26.97 45.4616H29.742V47.8616H5.87402V11.2616H6.40802C7.93802 11.2616 9.46802 11.2616 10.998 11.2616C11.2092 11.2912 11.4245 11.2641 11.6217 11.1829C11.8189 11.1017 11.9909 10.9694 12.12 10.7996C12.2892 10.5791 12.5139 10.4074 12.771 10.302C13.0282 10.1966 13.3087 10.1613 13.584 10.1996C17.862 10.1996 22.146 10.1996 26.424 10.1996C26.626 10.1729 26.8314 10.2005 27.0191 10.2796C27.2068 10.3587 27.3701 10.4864 27.492 10.6496C27.6643 10.8825 27.8963 11.0646 28.1635 11.1765C28.4307 11.2885 28.7232 11.3262 29.01 11.2856C30.624 11.2436 32.238 11.2856 33.936 11.2856C33.936 12.2816 33.936 13.2476 33.936 14.2196C33.9332 14.2607 33.9215 14.3008 33.9018 14.337C33.8822 14.3732 33.8549 14.4048 33.822 14.4296C32.91 14.9296 31.994 15.4216 31.074 15.9056C31.044 15.8696 31.008 15.8456 31.008 15.8216C31.008 14.7176 30.972 14.7176 29.808 14.7176H9.64802C8.73602 14.7176 8.70602 14.7176 8.70602 15.6296V22.0316C8.70602 22.7816 8.77202 22.8416 9.54002 22.8416C14.74 22.8416 19.94 22.8416 25.14 22.8416C25.3147 22.8197 25.4918 22.8552 25.6444 22.9429C25.7971 23.0306 25.917 23.1657 25.986 23.3276C26.304 23.9696 26.694 24.5756 27.054 25.2116C26.28 25.3616 26.262 25.3796 26.262 26.1476V29.4416C26.262 30.1556 26.34 30.2276 27.072 30.2276C27.804 30.2276 28.518 30.2276 29.238 30.2276C29.9163 30.2658 30.5916 30.3459 31.26 30.4676C31.9725 30.6067 32.7111 30.4987 33.354 30.1616L33.912 29.8976ZM13.392 27.7796C13.392 27.1796 13.392 26.5376 13.392 25.9196C13.392 25.4936 13.236 25.2836 12.792 25.2836H9.29402C8.88602 25.2836 8.69402 25.4636 8.69402 25.8836C8.69402 27.1356 8.69402 28.3896 8.69402 29.6456C8.69402 30.0476 8.83802 30.2456 9.29402 30.2456H12.852C13.236 30.2456 13.422 30.0776 13.416 29.6876C13.386 29.0516 13.392 28.4156 13.392 27.7796ZM22.2 27.7376C22.2 27.1376 22.2 26.5016 22.2 25.8836C22.2 25.4696 22.026 25.2836 21.6 25.2836H18.096C17.694 25.2836 17.496 25.4516 17.496 25.8836C17.496 27.1556 17.496 28.4216 17.496 29.6936C17.496 30.0896 17.676 30.2576 18.06 30.2576H21.6C22.026 30.2576 22.2 30.0536 22.2 29.6576C22.2 29.0036 22.2 28.3676 22.2 27.7376ZM13.392 35.3996C13.392 34.7636 13.392 34.1276 13.392 33.4976C13.392 33.0656 13.23 32.8976 12.792 32.8976C11.628 32.8976 10.458 32.8976 9.29402 32.8976C8.87402 32.8976 8.69402 33.0836 8.69402 33.4976C8.69402 34.7696 8.69402 36.0356 8.69402 37.3076C8.69402 37.7276 8.89202 37.9076 9.29402 37.9076C10.458 37.9076 11.628 37.9076 12.792 37.9076C13.206 37.9076 13.392 37.7336 13.392 37.3076C13.386 36.6536 13.392 36.0356 13.392 35.3996ZM22.2 35.3996C22.2 34.7996 22.2 34.1636 22.2 33.5456C22.2 33.1196 22.038 32.9456 21.6 32.9456C20.448 32.9456 19.296 32.9456 18.144 32.9456C17.718 32.9456 17.544 33.1136 17.544 33.5456C17.544 34.8016 17.544 36.0556 17.544 37.3076C17.544 37.7156 17.706 37.9076 18.144 37.9076C19.314 37.9076 20.484 37.9076 21.648 37.9076C22.104 37.9076 22.248 37.6976 22.248 37.2776C22.2 36.5996 22.2 35.9996 22.2 35.3996ZM13.392 43.0016C13.392 42.3656 13.392 41.7296 13.392 41.0936C13.392 40.6796 13.218 40.4936 12.792 40.4936C11.62 40.4936 10.45 40.4936 9.28202 40.4936C8.87402 40.4936 8.68202 40.6556 8.68202 41.0936C8.68202 42.3656 8.68202 43.6376 8.68202 44.9096C8.68202 45.2936 8.85602 45.5096 9.24602 45.5096C10.446 45.5096 11.616 45.5096 12.804 45.5096C13.224 45.5096 13.404 45.3056 13.374 44.9096C13.386 44.2376 13.392 43.6196 13.392 43.0016ZM22.2 42.9536C22.2 42.3536 22.2 41.7536 22.2 41.1536C22.2 40.6976 22.032 40.4996 21.564 40.5056C20.428 40.5056 19.294 40.5056 18.162 40.5056C17.712 40.5056 17.502 40.6556 17.508 41.1056C17.508 42.3416 17.508 43.5776 17.508 44.8136C17.508 45.2456 17.676 45.4436 18.108 45.4136C19.254 45.4136 20.406 45.4136 21.558 45.4136C21.99 45.4136 22.194 45.2456 22.158 44.8136C22.2 44.2256 22.2 43.5896 22.2 42.9536ZM19.878 12.6656H23.01C23.334 12.6656 23.61 12.6176 23.61 12.2216C23.61 11.8256 23.298 11.7836 23.01 11.7836H16.8C16.5 11.7836 16.2 11.7836 16.164 12.2036C16.128 12.6236 16.482 12.6656 16.806 12.6656H19.878Z" fill="#ECF2F2"/>
<path id="Vector_2" d="M30.6597 35.8496C32.2233 36.4707 33.908 36.7272 35.5857 36.5996C35.8977 36.5996 36.1857 36.5516 36.5097 36.5336C37.0342 36.4011 37.5882 36.4497 38.0817 36.6716C38.3817 36.8456 38.8977 36.6716 39.3657 36.6296V37.1036C39.3657 42.8216 39.3657 48.5396 39.3657 54.2576C39.3932 54.4847 39.3371 54.7141 39.2079 54.9029C39.0788 55.0917 38.8853 55.227 38.6637 55.2836C37.1997 55.8053 35.6355 55.9839 34.0917 55.8056C33.0797 55.6574 32.0778 55.447 31.0917 55.1756C30.7317 55.0916 30.5997 54.8276 30.6057 54.4376C30.6057 48.3896 30.6057 42.3436 30.6057 36.2996C30.6297 36.1736 30.6477 36.0416 30.6597 35.8496Z" fill="#ECF2F2"/>
<path id="Vector_3" d="M51.7079 23.2139C51.4259 23.2139 51.2279 23.2619 51.0239 23.2679L40.9259 23.5919C40.8035 23.6041 40.6803 23.5784 40.573 23.5183C40.4656 23.4582 40.3794 23.3666 40.3259 23.2559C38.9279 20.8139 37.5119 18.3779 36.1259 15.9299C36.0749 15.8392 36.0446 15.7383 36.0374 15.6346C36.0301 15.5308 36.046 15.4267 36.0839 15.3299C37.9679 12.2579 39.8759 9.19185 41.8259 6.04785C45.1139 11.7899 48.3899 17.4719 51.7079 23.2139Z" fill="#ECF2F2"/>
<path id="Vector_4" d="M32.0941 29.7056C31.6868 29.7249 31.2818 29.635 30.921 29.4451C30.5602 29.2552 30.2567 28.9723 30.0421 28.6256C28.7881 26.4776 27.5341 24.3236 26.3101 22.1576C26.1595 21.9092 26.0609 21.6328 26.0202 21.3452C25.9795 21.0576 25.9976 20.7647 26.0733 20.4843C26.149 20.2039 26.2808 19.9417 26.4607 19.7137C26.6407 19.4856 26.865 19.2965 27.1201 19.1576C29.3041 17.8676 31.5121 16.6076 33.7201 15.3476C33.8128 15.2697 33.9226 15.215 34.0406 15.1881C34.1586 15.1611 34.2814 15.1627 34.3986 15.1926C34.5159 15.2225 34.6244 15.2799 34.7151 15.3601C34.8058 15.4402 34.876 15.5409 34.9201 15.6536C36.6081 18.5576 38.2901 21.4696 39.9661 24.3896C40.0423 24.4839 40.095 24.595 40.12 24.7136C40.145 24.8323 40.1416 24.9551 40.1099 25.0722C40.0783 25.1892 40.0195 25.2971 39.9382 25.3871C39.8568 25.477 39.7554 25.5464 39.6421 25.5896C37.4161 26.8796 35.1901 28.1696 32.9461 29.4356C32.674 29.5597 32.388 29.6503 32.0941 29.7056Z" fill="#ECF2F2"/>
<path id="Vector_5" d="M30.0656 15.5996C30.1143 15.7133 30.1388 15.8359 30.1376 15.9596C30.1365 16.0832 30.1097 16.2053 30.0589 16.3181C30.0082 16.4309 29.9346 16.5319 29.8428 16.6148C29.751 16.6977 29.643 16.7606 29.5256 16.7996C28.7396 17.1836 28.0196 17.6996 27.2396 18.0896C25.6436 18.8876 24.8996 20.0996 25.2476 21.9356H9.59961V15.5996H30.0656Z" fill="#ECF2F2"/>
<path id="Vector_6" d="M47.5202 29.8682V44.4002C46.5832 44.3052 45.6368 44.422 44.751 44.7419C43.8651 45.0617 43.0624 45.5765 42.4022 46.2482C41.7265 46.924 41.2109 47.7426 40.8932 48.6438C40.5755 49.5451 40.4637 50.5061 40.5662 51.4562C40.3802 51.2822 40.2542 51.2162 40.2182 51.1202C40.1972 50.985 40.1972 50.8473 40.2182 50.7122C40.2182 45.9842 40.2182 41.2562 40.2182 36.5282C40.2008 36.3713 40.2296 36.2129 40.301 36.0722C40.3724 35.9315 40.4833 35.8147 40.6202 35.7362C41.7062 35.0222 41.8982 34.2182 41.2202 33.1022C40.8002 32.4002 40.3022 31.8002 39.8042 31.0502C40.2902 30.7922 40.6682 30.4082 41.3462 30.4922C43.4232 30.834 45.5536 30.6186 47.5202 29.8682Z" fill="#ECF2F2"/>
<path id="Vector_7" d="M46.914 45.2581C47.9942 45.2676 49.0474 45.597 49.9406 46.2047C50.8338 46.8123 51.5269 47.6711 51.9323 48.6724C52.3378 49.6737 52.4374 50.7727 52.2187 51.8306C51.9999 52.8885 51.4726 53.8579 50.7033 54.6163C49.934 55.3748 48.9572 55.8882 47.8963 56.0919C46.8354 56.2955 45.7379 56.1802 44.7425 55.7605C43.747 55.3409 42.8982 54.6356 42.3033 53.7339C41.7085 52.8322 41.3941 51.7744 41.4 50.6941C41.4031 49.9745 41.5484 49.2627 41.8276 48.5995C42.1068 47.9363 42.5143 47.3348 43.0267 46.8296C43.5392 46.3244 44.1464 45.9255 44.8135 45.6558C45.4806 45.3861 46.1945 45.251 46.914 45.2581ZM47.334 53.4601C47.6813 53.3345 48.0184 53.1821 48.342 53.0041C48.5134 52.9207 48.6642 52.8002 48.7832 52.6514C48.9023 52.5025 48.9868 52.329 49.0304 52.1434C49.0741 51.9579 49.0759 51.7649 49.0357 51.5785C48.9955 51.3922 48.9143 51.2171 48.798 51.0661C48.4544 50.7901 48.0724 50.5657 47.664 50.4001C47.538 50.3281 47.346 50.2261 47.334 50.1181C47.3124 49.7184 47.3124 49.3178 47.334 48.9181C47.5336 48.929 47.7255 48.9994 47.8848 49.1202C48.0441 49.241 48.1636 49.4068 48.228 49.5961C48.282 49.7581 48.558 49.8481 48.732 49.9681C48.84 49.7641 49.086 49.4761 49.02 49.3681C48.8006 48.977 48.5189 48.6244 48.186 48.3241C47.9267 48.1647 47.6429 48.0492 47.346 47.9821L47.466 47.8681C47.292 47.6641 47.136 47.3161 46.938 47.2681C46.41 47.1781 46.524 47.6761 46.458 47.9581C46.1448 48.0683 45.8383 48.1965 45.54 48.3421C45.2614 48.4656 45.033 48.6802 44.8924 48.9505C44.7517 49.2209 44.7072 49.531 44.766 49.8301C44.892 50.5621 45.45 50.7961 46.068 50.9821C46.224 51.0301 46.446 51.1801 46.464 51.3121C46.4915 51.6996 46.4915 52.0886 46.464 52.4761C46.032 52.3681 45.696 52.2481 45.6 51.8401C45.504 51.4321 45.318 51.2941 45 51.4501C44.9079 51.534 44.8375 51.639 44.7947 51.7559C44.7518 51.8729 44.7379 51.9985 44.754 52.1221C44.8326 52.4014 44.9858 52.6541 45.1972 52.8528C45.4087 53.0516 45.6703 53.1889 45.954 53.2501C46.254 53.3341 46.434 53.4241 46.44 53.7781C46.4648 53.8587 46.5107 53.9312 46.573 53.9882C46.6352 54.0451 46.7115 54.0845 46.794 54.1021C46.9757 54.0535 47.1335 53.9405 47.238 53.7841C47.364 53.7361 47.328 53.5621 47.334 53.4601Z" fill="#ECF2F2"/>
<path id="Vector_8" d="M54.3061 23.2803C54.1381 23.4783 54.0001 23.7663 53.7901 23.8383C53.5336 23.883 53.2695 23.834 53.0461 23.7003C52.8961 23.6283 52.8181 23.4123 52.7281 23.2503C49.2561 17.2503 45.7881 11.2503 42.3241 5.25031C42.2272 5.10896 42.1448 4.95819 42.0781 4.80031C42.0041 4.64106 41.996 4.45905 42.0556 4.29387C42.1151 4.12869 42.2375 3.99372 42.3961 3.91831C42.5392 3.83264 42.71 3.80603 42.8724 3.8441C43.0348 3.88218 43.176 3.98196 43.2661 4.12231C43.3485 4.23154 43.4208 4.34802 43.4821 4.47031L53.9461 22.5543C54.0601 22.7583 54.1561 22.9803 54.3061 23.2803Z" fill="#ECF2F2"/>
<path id="Vector_9" d="M29.7844 44.5744H27.1924V33.7744H30.1324C29.5324 34.6564 29.8024 35.5744 29.7904 36.4984C29.7904 38.9944 29.7904 41.4844 29.7904 43.9744L29.7844 44.5744Z" fill="#ECF2F2"/>
<path id="Vector_10" d="M37.7399 27.6836C37.7399 29.7776 38.8439 31.2836 39.9899 32.8196C41.0159 34.1876 40.9259 34.6196 39.4499 35.4596C38.3879 36.0596 38.3219 36.0596 37.8599 34.9496C37.1039 33.1496 36.3499 31.3496 35.5979 29.5496C35.5319 29.3936 35.4779 29.2316 35.3999 29.0276L37.7399 27.6836Z" fill="#ECF2F2"/>
<path id="Vector_11" d="M40.6138 27.8523C42.6688 27.4293 44.7977 27.5367 46.7998 28.1643C47.0749 28.3065 47.3276 28.4885 47.5498 28.7043C47.3364 28.9064 47.0961 29.078 46.8358 29.2143C45.1707 29.7661 43.4008 29.9263 41.6638 29.6823C41.6004 29.6679 41.5409 29.64 41.4891 29.6007C41.4374 29.5614 41.3946 29.5115 41.3638 29.4543C41.0938 28.9503 40.8718 28.4343 40.6138 27.8523Z" fill="#ECF2F2"/>
<path id="Vector_12" d="M30.5996 34.6018C30.8637 34.4291 31.1405 34.2766 31.4276 34.1458C32.9295 33.6548 34.5179 33.4851 36.0896 33.6478C36.1685 33.6579 36.2439 33.6866 36.3096 33.7314C36.3753 33.7763 36.4294 33.836 36.4676 33.9058C36.7196 34.4278 36.9236 34.9678 37.1516 35.5078C35.5196 36.1618 31.3076 35.6158 30.5996 34.6018Z" fill="#ECF2F2"/>
<path id="Vector_13" d="M51.066 15.8462L47.856 10.2842C48.4792 10.3442 49.0793 10.5511 49.607 10.888C50.1348 11.2249 50.5751 11.6821 50.892 12.2222C51.2241 12.7626 51.4143 13.3782 51.4447 14.0118C51.4751 14.6454 51.3448 15.2764 51.066 15.8462Z" fill="#ECF2F2"/>
<path id="Vector_14" d="M29.4597 29.364H27.1797V26.082C27.4077 26.208 27.6417 26.262 27.7317 26.406C28.3137 27.366 28.8717 28.344 29.4597 29.364Z" fill="#ECF2F2"/>
<path id="Vector_15" d="M40.4761 29.6403L39.3361 30.3063C38.8528 29.4875 38.6057 28.5509 38.6221 27.6003C38.6086 27.5117 38.6137 27.4213 38.6372 27.3349C38.6608 27.2485 38.7021 27.1679 38.7586 27.0984C38.8151 27.0289 38.8855 26.972 38.9654 26.9313C39.0452 26.8906 39.1327 26.8671 39.2221 26.8623L40.4761 29.6403Z" fill="#ECF2F2"/>
<path id="Vector_16" d="M49.3081 7.86001C49.3921 7.65001 49.4461 7.50601 49.5121 7.36801C49.7701 6.81001 50.0101 6.24001 50.3161 5.70601C50.379 5.62152 50.4617 5.5538 50.5569 5.50881C50.6521 5.46381 50.7569 5.44294 50.8621 5.44801C51.1801 5.51401 51.1921 5.79001 51.0601 6.04801C50.7721 6.64801 50.5021 7.29601 50.1841 7.90201C50.1233 7.98272 50.0456 8.04921 49.9565 8.09688C49.8674 8.14454 49.769 8.17223 49.6681 8.17801C49.5481 8.20201 49.4221 7.98001 49.3081 7.86001Z" fill="#ECF2F2"/>
<path id="Vector_17" d="M55.9799 15.978C55.2659 15.924 54.7799 15.888 54.2399 15.84C53.9579 15.84 53.7179 15.696 53.7419 15.366C53.7659 15.036 54.0299 14.94 54.3419 14.97C54.8519 15.024 55.3619 15.072 55.8779 15.114C56.1839 15.114 56.4779 15.246 56.3759 15.6C56.3219 15.792 56.0459 15.918 55.9799 15.978Z" fill="#ECF2F2"/>
<path id="Vector_18" d="M55.1521 10.1458C55.0733 10.259 54.9783 10.3601 54.8701 10.4458C54.4272 10.7366 53.9663 10.9991 53.4901 11.2318C53.3341 11.3038 53.0821 11.1718 52.8901 11.1358C52.9441 10.9318 52.9321 10.6378 53.0581 10.5358C53.526 10.2218 54.013 9.93727 54.5161 9.68376C54.8221 9.51576 55.1521 9.71976 55.1521 10.1458Z" fill="#ECF2F2"/>
<path id="Vector_19" d="M34.932 30.2041C35.28 31.0321 35.622 31.8601 36.012 32.7721L34.812 32.7181V30.2221L34.932 30.2041Z" fill="#ECF2F2"/>
<path id="Vector_20" d="M9.59961 26.1904H12.5156V29.3644H9.59961V26.1904Z" fill="#ECF2F2"/>
<path id="Vector_21" d="M18.3838 26.1904H21.2998V29.3644H18.3838V26.1904Z" fill="#ECF2F2"/>
<path id="Vector_22" d="M9.59961 36.966V33.792H12.5276V36.966H9.59961Z" fill="#ECF2F2"/>
<path id="Vector_23" d="M18.3721 36.972V33.792H21.2821V36.972H18.3721Z" fill="#ECF2F2"/>
<path id="Vector_24" d="M12.5276 41.4004V44.5684H9.59961V41.4004H12.5276Z" fill="#ECF2F2"/>
<path id="Vector_25" d="M21.2939 44.5744H18.3779V41.4004H21.2939V44.5744Z" fill="#ECF2F2"/>
<path id="Vector_26" d="M46.4402 50.1842C46.0382 50.1002 45.6182 50.0522 45.6182 49.5842C45.6182 49.1162 46.0082 48.9842 46.4402 48.9482V50.1842Z" fill="#ECF2F2"/>
<path id="Vector_27" d="M47.3398 52.4881V51.2881C47.7118 51.3541 48.1438 51.3721 48.1438 51.8881C48.1438 52.4041 47.7478 52.4041 47.3398 52.4881Z" fill="#ECF2F2"/>
</g>
</svg>
