<svg width="60" height="60" viewBox="0 0 60 60" fill="none" xmlns="http://www.w3.org/2000/svg">
<g id="Affordable Pricing for Social Media Graphics&#226;&#128;&#168; 1">
<path id="Vector" d="M19.2542 46.1043L14.7842 38.3643L20.1842 35.2443C20.7842 34.9143 21.3482 34.5843 21.9242 34.2423C22.2322 34.0551 22.5753 33.933 22.9324 33.8834C23.2894 33.8339 23.6528 33.858 24.0002 33.9543L34.8782 36.8643C35.1622 36.9205 35.4304 37.0384 35.6637 37.2098C35.8971 37.3812 36.0898 37.6018 36.2284 37.8561C36.367 38.1103 36.4479 38.3918 36.4655 38.6808C36.4831 38.9698 36.4369 39.2591 36.3302 39.5283C36.1475 39.9843 35.7964 40.3527 35.3497 40.5571C34.9029 40.7615 34.3947 40.7863 33.9302 40.6263L26.1662 38.5803L25.9202 38.5143C25.5242 38.4243 25.1762 38.5143 25.0622 38.9343C24.9482 39.3543 25.2122 39.6063 25.6082 39.7143L28.4882 40.4763C30.5762 41.0283 32.6882 41.5503 34.7522 42.1383C35.1578 42.2655 35.5857 42.3051 36.0078 42.2544C36.4298 42.2037 36.8363 42.0639 37.2002 41.8443C39.9122 40.2663 42.6362 38.7063 45.3542 37.1343C46.6622 36.3783 47.9642 35.6163 49.2722 34.8663C49.5384 34.6845 49.8394 34.5596 50.1562 34.4996C50.473 34.4396 50.7987 34.4457 51.1131 34.5175C51.4274 34.5894 51.7235 34.7254 51.9827 34.917C52.242 35.1087 52.4589 35.3519 52.6197 35.6313C52.7806 35.9107 52.882 36.2204 52.9175 36.5408C52.953 36.8613 52.922 37.1856 52.8262 37.4935C52.7305 37.8014 52.5722 38.0862 52.3612 38.33C52.1502 38.5738 51.8911 38.7713 51.6002 38.9103C46.4002 41.9463 41.1802 44.9763 35.9402 48.0003C35.5357 48.2429 35.0852 48.3986 34.6172 48.4575C34.1492 48.5164 33.6741 48.4771 33.2222 48.3423C29.8262 47.4003 26.4002 46.5543 23.0402 45.6003C21.7562 45.2403 20.5802 45.1923 19.4762 46.0263C19.4047 46.0589 19.3304 46.085 19.2542 46.1043Z" fill="white"/>
<path id="Vector_2" d="M37.1521 25.0619C35.1179 25.9648 32.8469 26.188 30.6759 25.6984C28.5049 25.2087 26.5496 24.0323 25.0999 22.3437C23.6503 20.655 22.7835 18.5441 22.6283 16.324C22.473 14.1039 23.0375 11.8929 24.238 10.0189C25.4385 8.14491 27.2111 6.70782 29.2928 5.92077C31.3745 5.13372 33.6545 5.03865 35.7945 5.64965C37.9345 6.26065 39.8206 7.54517 41.173 9.31269C42.5254 11.0802 43.272 13.2366 43.3021 15.4619C42.2201 15.5917 41.1802 15.9593 40.2571 16.5383C39.3339 17.1174 38.5503 17.8935 37.9625 18.8111C37.3746 19.7287 36.9971 20.765 36.857 21.8457C36.7169 22.9264 36.8177 24.0247 37.1521 25.0619ZM33.6301 20.9999C34.4914 20.8474 35.2828 20.4276 35.8921 19.7999C36.1942 19.4926 36.4165 19.116 36.5396 18.703C36.6627 18.29 36.6828 17.8531 36.5982 17.4306C36.5136 17.008 36.3268 16.6126 36.0541 16.2788C35.7815 15.9451 35.4313 15.6831 35.0341 15.5159C34.6867 15.3694 34.3274 15.253 33.9601 15.1679C33.1621 14.9639 32.3461 14.8379 31.5601 14.5679C31.3241 14.4959 31.1113 14.3626 30.9435 14.1818C30.7756 14.0009 30.6586 13.7788 30.6044 13.5381C30.5501 13.2973 30.5606 13.0465 30.6346 12.8112C30.7087 12.5758 30.8438 12.3642 31.0261 12.1979C31.3811 11.8431 31.8278 11.594 32.3163 11.4785C32.8048 11.363 33.3157 11.3856 33.7921 11.5439C34.2226 11.6087 34.6186 11.8169 34.9159 12.1349C35.2132 12.4529 35.3944 12.862 35.4301 13.2959C35.4301 13.4879 35.7961 13.7459 36.0301 13.7879C36.3721 13.8479 36.5941 13.5779 36.6301 13.1879C36.6437 13.0164 36.6274 12.8438 36.5821 12.6779C36.4395 12.0809 36.1256 11.5385 35.679 11.1175C35.2324 10.6964 34.6725 10.415 34.0681 10.3079C33.6961 10.2059 33.5941 10.0619 33.6241 9.70789C33.651 9.43455 33.651 9.15924 33.6241 8.88589C33.5967 8.743 33.5183 8.61493 33.4035 8.52552C33.2887 8.43612 33.1453 8.39147 33.0001 8.39989C32.841 8.39989 32.6883 8.46311 32.5758 8.57563C32.4633 8.68815 32.4001 8.84076 32.4001 8.99989C32.3821 9.29162 32.3821 9.58417 32.4001 9.87589C32.4001 10.1759 32.2861 10.2539 32.0221 10.3679C31.3733 10.6056 30.7659 10.9437 30.2221 11.3699C29.8953 11.6702 29.6503 12.0487 29.5101 12.4699C29.3699 12.891 29.3392 13.3408 29.4208 13.7771C29.5024 14.2134 29.6937 14.6217 29.9766 14.9637C30.2595 15.3057 30.6248 15.57 31.0381 15.7319C31.3377 15.8561 31.6467 15.9564 31.9621 16.0319C32.7901 16.2419 33.6361 16.3919 34.4521 16.6319C34.6252 16.6748 34.7878 16.7524 34.9301 16.8598C35.0724 16.9673 35.1914 17.1025 35.28 17.2573C35.3686 17.4121 35.4249 17.5832 35.4455 17.7603C35.4662 17.9374 35.4507 18.1169 35.4001 18.2879C35.1901 19.1459 34.2001 19.7579 33.0421 19.7579C31.8841 19.7579 30.8941 19.1579 30.6781 18.3059C30.6549 18.2401 30.6408 18.1715 30.6361 18.1019C30.6361 17.6639 30.4141 17.3699 29.9401 17.3939C29.4661 17.4179 29.3401 17.7839 29.4121 18.2939C29.5061 18.8658 29.759 19.3998 30.142 19.8348C30.525 20.2697 31.0227 20.5883 31.5781 20.7539C31.8421 20.8559 32.1241 20.9219 32.4181 21.0059C32.4181 21.3779 32.4181 21.7199 32.4181 22.0679C32.4181 22.5839 32.6401 22.8539 33.0181 22.8299C33.5101 22.8299 33.6181 22.4639 33.6181 22.0439L33.6301 20.9999Z" fill="white"/>
<path id="Vector_3" d="M8.35207 37.9923C9.27607 37.4583 10.1521 36.9303 11.0341 36.4623C11.1594 36.3762 11.3027 36.3199 11.4531 36.2977C11.6035 36.2756 11.757 36.2882 11.9018 36.3345C12.0466 36.3808 12.1788 36.4597 12.2884 36.565C12.398 36.6704 12.4821 36.7994 12.5341 36.9423L19.3081 48.6663C19.6861 49.3263 19.6201 49.8063 18.9661 50.2023C17.1421 51.2943 15.3021 52.3603 13.4461 53.4003C12.7681 53.7843 12.3241 53.5983 11.9221 52.9023L5.17807 41.2083C5.07921 41.0883 5.00909 40.9473 4.97307 40.796C4.93704 40.6448 4.93607 40.4873 4.97023 40.3356C5.00439 40.1839 5.07277 40.0421 5.17014 39.9209C5.26752 39.7997 5.39132 39.7023 5.53207 39.6363L5.74807 39.5043L7.25407 38.6343C7.35607 38.7963 7.45807 38.9523 7.55407 39.1143L11.0761 45.2223C11.1661 45.3723 11.2321 45.5883 11.3581 45.6423C11.5981 45.7383 11.9581 45.8523 12.1261 45.7443C12.2941 45.6363 12.3361 45.2703 12.3601 45.0123C12.3601 44.8863 12.2281 44.7423 12.1501 44.6103L8.60407 38.4483C8.52607 38.3163 8.45407 38.1843 8.35207 37.9923Z" fill="white"/>
<path id="Vector_4" d="M38.0518 22.7997C38.0518 21.1877 38.6921 19.6417 39.832 18.5019C40.9718 17.362 42.5178 16.7217 44.1298 16.7217C45.7417 16.7217 47.2877 17.362 48.4276 18.5019C49.5674 19.6417 50.2078 21.1877 50.2078 22.7997C50.2078 24.4117 49.5674 25.9576 48.4276 27.0975C47.2877 28.2373 45.7417 28.8777 44.1298 28.8777C42.5178 28.8777 40.9718 28.2373 39.832 27.0975C38.6921 25.9576 38.0518 24.4117 38.0518 22.7997ZM43.5058 24.9057L43.3618 24.9597L41.6758 23.2317C41.6167 23.1742 41.5468 23.1288 41.4702 23.0983C41.3936 23.0678 41.3117 23.0527 41.2293 23.0538C41.1468 23.0549 41.0654 23.0722 40.9896 23.1048C40.9139 23.1374 40.8453 23.1846 40.7878 23.2437C40.7302 23.3028 40.6849 23.3726 40.6544 23.4492C40.6239 23.5258 40.6087 23.6077 40.6098 23.6902C40.611 23.7726 40.6283 23.8541 40.6609 23.9298C40.6935 24.0056 40.7407 24.0742 40.7998 24.1317C41.7278 25.0757 42.6638 26.0117 43.6078 26.9397C43.6668 27.0203 43.7441 27.0858 43.8332 27.131C43.9223 27.1762 44.0208 27.1997 44.1208 27.1997C44.2207 27.1997 44.3192 27.1762 44.4083 27.131C44.4975 27.0858 44.5747 27.0203 44.6338 26.9397C45.5758 26.0097 46.5118 25.0677 47.4418 24.1317C47.4989 24.0742 47.5441 24.006 47.5749 23.931C47.6056 23.8559 47.6213 23.7756 47.6211 23.6946C47.6208 23.6135 47.6045 23.5333 47.5733 23.4585C47.542 23.3837 47.4963 23.3158 47.4388 23.2587C47.3812 23.2016 47.313 23.1563 47.238 23.1256C47.163 23.0948 47.0827 23.0791 47.0016 23.0794C46.9206 23.0797 46.8404 23.0959 46.7656 23.1272C46.6908 23.1585 46.6229 23.2042 46.5658 23.2617C46.0738 23.7417 45.5938 24.2337 45.1078 24.7197C45.0178 24.8037 44.9098 24.8757 44.7478 25.0077V19.4577C44.7478 18.7197 44.5678 18.4077 44.1478 18.3957C43.7278 18.3837 43.5478 18.6957 43.5478 19.4277V24.9297L43.5058 24.9057Z" fill="white"/>
<path id="Vector_5" d="M47.1901 34.6442L37.4941 40.2602L37.3921 40.2002C37.501 39.9477 37.6378 39.7082 37.8001 39.4862C39.6401 37.6142 41.4921 35.7542 43.3561 33.9062C43.6197 33.616 43.9536 33.3984 44.3256 33.2744C44.6977 33.1505 45.0953 33.1243 45.4804 33.1984C45.8654 33.2726 46.2249 33.4445 46.5244 33.6977C46.8238 33.9509 47.053 34.2768 47.1901 34.6442Z" fill="white"/>
<path id="Vector_6" d="M41.4719 33.9542L37.6919 37.7342L36.0479 35.7662C36.8079 34.9633 37.6089 34.2003 38.4479 33.4802C38.9119 33.1425 39.4909 33.0027 40.0579 33.0916C40.6249 33.1804 41.1334 33.4907 41.4719 33.9542Z" fill="white"/>
</g>
</svg>
