<svg width="80" height="80" viewBox="0 0 80 80" fill="none" xmlns="http://www.w3.org/2000/svg">
<g id="Attractive headers and covers 1">
<path id="Vector" d="M64.5681 52.9039H62.2881V38.9039H17.7601V52.8799H15.4321V15.4639H64.5681V52.9039ZM35.2961 18.9839H18.9441V35.3039H35.2961V18.9839ZM40.0401 18.9519V25.9279H61.0481V18.9519H40.0401ZM62.2401 29.5359H38.8801V31.7759H62.2401V29.5359ZM38.8481 36.4719H62.2241V34.2159H38.8481V36.4719Z" fill="white"/>
<path id="Vector_2" d="M66.9757 20.1113V17.8073C68.3437 17.8073 69.7117 17.6793 71.0477 17.8393C72.8397 18.0473 73.9837 19.5673 73.9837 21.4633C73.9837 30.9833 73.9837 40.5033 73.9837 50.0233C73.9837 52.8313 73.9837 55.6393 73.9837 58.4473C73.9837 60.8393 72.5437 62.2953 70.1757 62.2953C63.0717 62.2953 55.9677 62.2953 48.8637 62.2953H48.2877C48.1357 61.9673 48.2157 61.6473 48.2157 61.3433C48.1917 59.1033 46.7357 57.6153 44.5117 57.6073C41.5117 57.6073 38.5037 57.6073 35.5037 57.6073C33.3117 57.6073 31.8237 59.0953 31.8077 61.2713C31.8077 61.5833 31.8077 61.8953 31.8077 62.1993C31.5757 62.3673 31.3517 62.2953 31.1437 62.2953C24.0397 62.2953 16.9357 62.2953 9.83174 62.2953C7.49574 62.2953 6.03174 60.8393 6.03174 58.5193C6.03174 46.1913 6.03174 33.8633 6.03174 21.5433C6.03174 19.2553 7.49574 17.7833 9.77574 17.7753C10.8477 17.7753 11.9197 17.7753 13.0237 17.7753V20.1193C12.3037 20.1193 11.5837 20.1193 10.8557 20.1193C9.35974 20.1353 8.37574 21.1033 8.37574 22.5993C8.37574 32.6553 8.37574 42.7113 8.37574 52.7673C8.37574 54.3033 9.35174 55.2713 10.9037 55.2713C30.3117 55.2713 49.7197 55.2713 69.1277 55.2713C70.6797 55.2713 71.6557 54.3033 71.6557 52.7673C71.6557 42.7113 71.6557 32.6553 71.6557 22.5993C71.6557 21.1033 70.6717 20.1353 69.1757 20.1273C68.4717 20.1273 67.7677 20.1273 66.9917 20.1273L66.9757 20.1113Z" fill="white"/>
<path id="Vector_3" d="M20.0962 52.8722V41.2402H59.8802V52.8722H20.0962ZM28.2642 44.7602H23.6322V49.3602H28.2642V44.7602ZM37.6402 44.7602H33.0082V49.3602H37.6402V44.7602ZM47.0162 44.7602H42.3842V49.3602H47.0162V44.7602ZM56.3922 44.7602H51.7602V49.3602H56.3922V44.7602Z" fill="white"/>
<path id="Vector_4" d="M15.3919 13.0398C15.3919 11.0718 15.3679 9.12775 15.3999 7.18375C15.4079 6.51175 15.8479 6.12775 16.5199 6.06375C16.7119 6.04775 16.9119 6.06375 17.1039 6.06375C32.3519 6.06375 47.5999 6.06375 62.8559 6.06375C64.2959 6.06375 64.6079 6.37575 64.6079 7.82375C64.6079 9.55175 64.6079 11.2798 64.6079 13.0478H15.3919V13.0398ZM17.7519 10.6878H20.0319V8.43975H17.7519V10.6878ZM22.4719 8.41575V10.6798H24.7119V8.41575H22.4719ZM29.4079 10.7198V8.43175H27.1439V10.7198H29.4079Z" fill="white"/>
<path id="Vector_5" d="M30.6401 69.2797V64.6797H49.3281V69.2797H30.6401Z" fill="white"/>
<path id="Vector_6" d="M23.8003 73.9523C24.4723 72.5123 25.5123 71.6803 27.0083 71.6803C35.6723 71.6483 44.3283 71.6563 52.9923 71.6803C54.4243 71.6803 55.6003 72.5763 56.1283 73.9603H23.8003V73.9523Z" fill="white"/>
<path id="Vector_7" d="M10.7441 22.4727H13.0081V52.8807H10.7441V22.4727Z" fill="white"/>
<path id="Vector_8" d="M69.2557 52.9041H66.9917V22.4961H69.2557V52.9041Z" fill="white"/>
<path id="Vector_9" d="M38.8721 59.9756H41.1201V62.2396H38.8721V59.9756Z" fill="white"/>
<path id="Vector_10" d="M36.4321 62.272H34.2241C33.9681 60.624 34.1601 59.744 36.4321 59.96V62.272Z" fill="white"/>
<path id="Vector_11" d="M45.8081 62.2724H43.5601V60.0404C45.3761 59.6884 46.1041 60.2164 45.8081 62.2724Z" fill="white"/>
</g>
</svg>
