<svg width="60" height="60" viewBox="0 0 60 60" fill="none" xmlns="http://www.w3.org/2000/svg">
<g id="B2B 1">
<path id="Vector" d="M17.8082 21.8576C18.2842 21.4969 18.6614 21.0218 18.9048 20.4763C19.1481 19.9309 19.2497 19.3328 19.2002 18.7376C19.1391 17.8601 18.7363 17.0415 18.0782 16.4576C17.43 15.8649 16.5813 15.5396 15.703 15.5474C14.8246 15.5552 13.9818 15.8954 13.3442 16.4996C12.9655 16.8468 12.6713 17.276 12.4841 17.7544C12.2969 18.2328 12.2217 18.7477 12.2642 19.2596C12.2938 19.7654 12.4331 20.2587 12.6725 20.7053C12.9118 21.1518 13.2454 21.5409 13.6502 21.8456C11.8502 22.9796 11.2502 23.8196 10.8482 25.5716C9.00024 24.5096 7.03224 21.4256 7.57224 17.8796C7.84175 16.0236 8.73607 14.315 10.1076 13.0357C11.4791 11.7565 13.2457 10.9831 15.116 10.8433C16.9863 10.7034 18.8483 11.2055 20.3948 12.2666C21.9413 13.3277 23.0797 14.8843 23.6222 16.6796C24.1148 18.2976 24.0906 20.0289 23.5528 21.6324C23.0151 23.2359 21.9907 24.6318 20.6222 25.6256C20.4954 24.8159 20.1727 24.0495 19.6823 23.3928C19.1919 22.7362 18.5486 22.2092 17.8082 21.8576Z" fill="white"/>
<path id="Vector_2" d="M51.708 25.998C51.33 24.198 50.682 23.346 48.918 22.236C49.4008 21.8678 49.78 21.3808 50.0187 20.8224C50.2574 20.2641 50.3474 19.6535 50.28 19.05C50.1931 18.1709 49.7617 17.3619 49.08 16.8C48.4031 16.213 47.5253 15.9108 46.6305 15.9566C45.7357 16.0025 44.8934 16.3929 44.28 17.046C42.876 18.54 43.038 20.526 44.724 22.26C43.9979 22.6145 43.3667 23.1368 42.8826 23.7836C42.3985 24.4305 42.0754 25.1834 41.94 25.98C40.104 24.882 37.98 21.69 38.736 17.808C39.0988 16.002 40.0559 14.3695 41.4548 13.171C42.8537 11.9725 44.6136 11.2771 46.4539 11.1956C48.2942 11.1141 50.1087 11.6513 51.608 12.7215C53.1074 13.7916 54.2051 15.3331 54.726 17.1C55.2067 18.7131 55.1745 20.4356 54.6339 22.0296C54.0932 23.6235 53.0708 25.0102 51.708 25.998Z" fill="white"/>
<path id="Vector_3" d="M14.5381 53.6402V35.4482H48.0001V53.6402H14.5381ZM31.2721 36.6362H16.5661C15.8761 36.6362 15.7261 36.7922 15.7261 37.4882V51.6002C15.7261 52.3322 15.8701 52.4762 16.5901 52.4762H45.8641C46.5841 52.4762 46.7281 52.3322 46.7281 51.6002V37.5362C46.7281 36.7742 46.5901 36.6362 45.8401 36.6362H31.2721Z" fill="white"/>
<path id="Vector_4" d="M46.854 27.6717C45.6408 27.6618 44.4431 27.3982 43.338 26.8977C43.2212 26.8628 43.1226 26.7837 43.0632 26.6773C43.0038 26.5708 42.9883 26.4454 43.02 26.3277C43.1281 25.3983 43.5719 24.5404 44.2679 23.915C44.9639 23.2897 45.8643 22.9401 46.8 22.9317C47.7404 22.9263 48.6494 23.2699 49.351 23.8962C50.0526 24.5224 50.497 25.3867 50.598 26.3217C50.6193 26.3811 50.6283 26.4442 50.6243 26.5072C50.6203 26.5702 50.6035 26.6317 50.5748 26.6879C50.5461 26.7441 50.5062 26.7939 50.4576 26.8341C50.4089 26.8743 50.3526 26.9041 50.292 26.9217C49.2096 27.4049 48.0393 27.6602 46.854 27.6717Z" fill="white"/>
<path id="Vector_5" d="M15.7859 27.2697C14.5535 27.2767 13.3347 27.0124 12.2159 26.4957C12.1067 26.461 12.0151 26.3854 11.9603 26.2848C11.9055 26.1842 11.8917 26.0662 11.9219 25.9557C12.0271 25.0204 12.4732 24.1567 13.1749 23.5296C13.8766 22.9024 14.7848 22.5557 15.7259 22.5557C16.667 22.5557 17.5752 22.9024 18.2769 23.5296C18.9786 24.1567 19.4247 25.0204 19.5299 25.9557C19.5598 26.0654 19.5459 26.1826 19.491 26.2822C19.4362 26.3819 19.3447 26.4563 19.2359 26.4897C18.1561 26.997 16.9789 27.2631 15.7859 27.2697Z" fill="white"/>
<path id="Vector_6" d="M29.1301 27.6002H36.1021C36.5941 27.6002 36.8581 27.7982 36.8581 28.1582C36.8581 28.5182 36.6001 28.7162 36.0961 28.7162H29.4301L30.1741 29.4902C30.4801 29.7962 30.7741 30.0902 31.0921 30.4142C31.1437 30.467 31.1844 30.5294 31.2119 30.598C31.2394 30.6665 31.2531 30.7397 31.2523 30.8136C31.2514 30.8874 31.2361 30.9603 31.2071 31.0282C31.178 31.0961 31.1359 31.1576 31.0831 31.2092C31.0303 31.2608 30.9679 31.3015 30.8994 31.329C30.8309 31.3565 30.7576 31.3702 30.6838 31.3694C30.6099 31.3685 30.537 31.3531 30.4691 31.3241C30.4012 31.2951 30.3397 31.253 30.2881 31.2002C30.1621 31.0862 30.0481 30.9602 29.9281 30.8462L27.6001 28.6142C27.5352 28.5576 27.4821 28.4885 27.4442 28.4112C27.4062 28.3338 27.3841 28.2496 27.379 28.1635C27.374 28.0775 27.3862 27.9913 27.4149 27.91C27.4436 27.8288 27.4882 27.754 27.5461 27.6902C28.4701 26.7302 29.4181 25.7882 30.3661 24.8522C30.4139 24.7994 30.4723 24.7572 30.5374 24.7284C30.6025 24.6995 30.6729 24.6846 30.7441 24.6846C30.8153 24.6846 30.8858 24.6995 30.9509 24.7284C31.016 24.7572 31.0743 24.7994 31.1221 24.8522C31.1809 24.8994 31.2284 24.9593 31.261 25.0273C31.2937 25.0953 31.3106 25.1698 31.3106 25.2452C31.3106 25.3206 31.2937 25.3951 31.261 25.4631C31.2284 25.5311 31.1809 25.591 31.1221 25.6382C30.7381 26.0462 30.3361 26.4302 29.9221 26.8382L29.1301 27.6002Z" fill="white"/>
<path id="Vector_7" d="M34.8001 12.2463C34.1341 11.5743 33.5521 10.9983 33.0001 10.4103C32.6461 10.0503 32.6041 9.73233 32.8861 9.49233C33.1681 9.25233 33.4861 9.34233 33.7741 9.61833L36.2761 12.1203C36.7861 12.6303 36.7081 12.9243 36.1741 13.3983C35.4001 14.0403 34.7461 14.7603 34.0501 15.4503L33.6901 15.8103C33.6418 15.8775 33.5788 15.9327 33.506 15.972C33.4332 16.0112 33.3525 16.0334 33.2698 16.0369C33.1872 16.0403 33.1049 16.025 33.029 15.992C32.9532 15.959 32.8859 15.9092 32.8321 15.8463C32.7703 15.7924 32.7218 15.725 32.6903 15.6494C32.6588 15.5737 32.6451 15.4918 32.6503 15.41C32.6555 15.3282 32.6795 15.2487 32.7204 15.1777C32.7613 15.1066 32.818 15.0459 32.8861 15.0003L34.1641 13.7103C34.2601 13.6143 34.3501 13.5123 34.4941 13.3563H33.9901H27.7621C27.3841 13.3563 27.1081 13.2063 27.0961 12.8043C27.0841 12.4023 27.3541 12.2403 27.7381 12.2403H34.8001V12.2463Z" fill="white"/>
<path id="Vector_8" d="M49.1998 19.4105C49.2105 19.8873 49.0789 20.3565 48.8218 20.7582C48.5647 21.1599 48.1937 21.4759 47.7563 21.6659C47.3188 21.8558 46.8346 21.9111 46.3655 21.8247C45.8965 21.7383 45.4638 21.5141 45.1228 21.1807C44.7817 20.8473 44.5477 20.4199 44.4506 19.9529C44.3536 19.4859 44.3978 19.0006 44.5778 18.5589C44.7577 18.1172 45.0652 17.7392 45.461 17.473C45.8567 17.2068 46.3228 17.0646 46.7998 17.0645C47.4271 17.0643 48.0295 17.3097 48.478 17.7482C48.9266 18.1867 49.1857 18.7833 49.1998 19.4105Z" fill="white"/>
<path id="Vector_9" d="M15.7324 21.4021C15.2629 21.4033 14.8036 21.265 14.4128 21.0048C14.0221 20.7445 13.7174 20.3741 13.5374 19.9404C13.3575 19.5068 13.3104 19.0294 13.4021 18.569C13.4939 18.1085 13.7203 17.6857 14.0527 17.3541C14.3851 17.0226 14.8086 16.7972 15.2692 16.7066C15.7299 16.6161 16.2071 16.6644 16.6403 16.8454C17.0735 17.0264 17.4432 17.3321 17.7024 17.7235C17.9617 18.115 18.0988 18.5746 18.0964 19.0441C18.0964 19.3543 18.0352 19.6614 17.9164 19.9479C17.7975 20.2343 17.6233 20.4945 17.4037 20.7136C17.1841 20.9326 16.9234 21.1062 16.6366 21.2243C16.3498 21.3425 16.0426 21.4029 15.7324 21.4021Z" fill="white"/>
<path id="Vector_10" d="M45.6838 37.7998V51.3238H16.8838V37.7998H45.6838ZM25.5838 45.1318L25.7458 44.9518C26.1415 44.5944 26.413 44.1202 26.5209 43.598C26.6288 43.0758 26.5675 42.5328 26.3458 42.0478C26.1497 41.5524 25.8023 41.1314 25.3531 40.8448C24.9039 40.5583 24.3757 40.4207 23.8438 40.4518H22.0618C21.5278 40.4518 21.3178 40.6618 21.3118 41.1718V49.1218C21.2997 49.205 21.3066 49.2899 21.332 49.37C21.3573 49.4502 21.4004 49.5236 21.4581 49.5848C21.5158 49.6459 21.5866 49.6932 21.6652 49.7232C21.7437 49.7532 21.828 49.765 21.9118 49.7578C22.6378 49.7578 23.3698 49.7578 24.0958 49.7578C24.6343 49.7316 25.1505 49.535 25.57 49.1964C25.9895 48.8578 26.2906 48.3946 26.4298 47.8738C26.5729 47.3841 26.569 46.8632 26.4186 46.3758C26.2682 45.8883 25.9779 45.4557 25.5838 45.1318ZM40.2778 45.1318C40.2758 45.1099 40.2758 45.0878 40.2778 45.0658L40.4038 44.9278C40.7918 44.573 41.0585 44.1052 41.1662 43.5905C41.2738 43.0759 41.217 42.5404 41.0038 42.0598C40.8125 41.5613 40.4689 41.1358 40.0219 40.8439C39.5748 40.552 39.0471 40.4085 38.5138 40.4338C37.9138 40.4338 37.3138 40.4338 36.7138 40.4338C36.2278 40.4338 36.0298 40.6258 36.0298 41.1118C36.0298 43.7818 36.0298 46.4458 36.0298 49.1158C36.0213 49.1967 36.031 49.2784 36.0581 49.3551C36.0853 49.4317 36.1292 49.5014 36.1867 49.5589C36.2442 49.6164 36.3139 49.6603 36.3905 49.6875C36.4672 49.7146 36.5489 49.7243 36.6298 49.7158C37.3258 49.7158 38.0278 49.7158 38.7238 49.7158C39.2986 49.6887 39.8476 49.4693 40.2828 49.0929C40.718 48.7164 41.0142 48.2047 41.1238 47.6398C41.2139 47.187 41.1832 46.7185 41.0346 46.2814C40.8861 45.8443 40.6251 45.454 40.2778 45.1498V45.1318ZM29.5318 48.8338V45.8338H29.9998C30.9658 45.8338 31.9258 45.8338 32.8858 45.8338C33.4078 45.8338 33.5938 45.6538 33.5938 45.1378C33.5938 43.8658 33.5938 42.5938 33.5938 41.3218C33.5938 40.8418 33.3838 40.6258 32.9218 40.6258C31.6378 40.6258 30.3478 40.6258 29.0578 40.6258C28.6798 40.6258 28.4218 40.7698 28.3918 41.1718C28.3618 41.5738 28.6318 41.7718 29.0818 41.7718H32.4598V44.7718H29.1418C28.5838 44.7718 28.3918 44.9638 28.3918 45.5278C28.3918 46.7878 28.3918 48.0418 28.3918 49.3018C28.3918 49.7938 28.5718 49.9738 29.0578 49.9858C29.6578 49.9858 30.2998 49.9858 30.9238 49.9858C31.5478 49.9858 32.3218 49.9858 33.0118 49.9858C33.1312 49.9598 33.2429 49.906 33.3377 49.8289C33.4325 49.7518 33.5079 49.6534 33.5578 49.5418C33.6178 49.4098 33.4378 49.1278 33.2938 48.9838C33.1498 48.8398 32.9758 48.8938 32.8078 48.8938C31.7218 48.8278 30.6418 48.8338 29.5318 48.8338Z" fill="white"/>
<path id="Vector_11" d="M22.4521 44.544V41.598C23.0515 41.5585 23.6528 41.5585 24.2521 41.598C24.6206 41.6531 24.9527 41.8505 25.1771 42.1478C25.4015 42.4451 25.5002 42.8187 25.4521 43.188C25.4223 43.5384 25.2668 43.8662 25.0143 44.111C24.7618 44.3558 24.4293 44.5011 24.0782 44.52C23.5322 44.568 23.0161 44.544 22.4521 44.544Z" fill="white"/>
<path id="Vector_12" d="M22.4404 48.6723V45.7083C23.0537 45.6662 23.6692 45.6662 24.2824 45.7083C24.5988 45.7654 24.8856 45.9306 25.0936 46.1758C25.3015 46.421 25.4178 46.7309 25.4224 47.0523C25.4601 47.3802 25.3774 47.7105 25.1898 47.982C25.0022 48.2535 24.7224 48.4476 24.4024 48.5283C23.7526 48.6219 23.097 48.67 22.4404 48.6723Z" fill="white"/>
<path id="Vector_13" d="M37.2002 41.5742C37.7282 41.5742 38.2202 41.5742 38.7182 41.5742C39.1112 41.5742 39.4882 41.7304 39.7661 42.0083C40.0441 42.2862 40.2002 42.6632 40.2002 43.0562C40.2002 43.4493 40.0441 43.8262 39.7661 44.1042C39.4882 44.3821 39.1112 44.5382 38.7182 44.5382C38.2202 44.5382 37.7282 44.5382 37.2002 44.5382V41.5742Z" fill="white"/>
<path id="Vector_14" d="M37.1641 48.6421V45.6781C37.7221 45.6781 38.2621 45.6421 38.7961 45.6781C39.1646 45.7192 39.5044 45.897 39.7483 46.1764C39.9922 46.4557 40.1224 46.8164 40.1134 47.1871C40.1044 47.5579 39.9566 47.9117 39.6994 48.1789C39.4422 48.446 39.0942 48.607 38.7241 48.6301C38.2201 48.6661 37.7101 48.6421 37.1641 48.6421Z" fill="white"/>
</g>
</svg>
