<svg width="65" height="65" viewBox="0 0 65 65" fill="none" xmlns="http://www.w3.org/2000/svg">
<g id="Beat the Competition&#226;&#128;&#168; 1">
<path id="Vector" d="M55.2499 47.8009H43.6084V38.2979H55.2499V47.8009Z" fill="white"/>
<path id="Vector_2" d="M35.7892 7.91016C36.2939 8.05859 36.7818 8.259 37.2452 8.50816C37.8419 8.86812 38.3089 9.40832 38.5788 10.0509C38.8486 10.6934 38.9074 11.405 38.7467 12.0832C38.4412 13.6302 37.4467 14.5207 35.8282 14.9042C35.9323 14.9411 36.0387 14.9715 36.1467 14.9952C37.2157 15.1907 38.1837 15.7513 38.8855 16.5811C39.5873 17.4109 39.9793 18.4585 39.9947 19.5452C39.9947 20.3252 39.9947 21.0987 39.9947 21.9047H30.6477C30.7062 20.3577 30.3877 18.7652 31.2457 17.3157C31.5849 16.7071 32.0566 16.1825 32.6259 15.7809C33.1952 15.3792 33.8476 15.1107 34.5347 14.9952L34.6842 14.9627C34.2145 14.783 33.7602 14.5657 33.3257 14.3127C32.7631 13.9569 32.3212 13.4395 32.0579 12.8282C31.7946 12.2169 31.7222 11.5403 31.8502 10.8872C31.9374 10.2011 32.2337 9.55861 32.6989 9.04692C33.1641 8.53522 33.7755 8.17917 34.4502 8.02716L34.8597 7.91016H35.7892Z" fill="white"/>
<path id="Vector_3" d="M41.1448 24.2969V47.7814H29.5098V24.2969H41.1448Z" fill="white"/>
<path id="Vector_4" d="M15.3984 31.3037H27.0399V47.7747H15.3984V31.3037Z" fill="white"/>
<path id="Vector_5" d="M21.801 21.9566C21.983 21.9956 22.1715 22.0346 22.36 22.0866C23.3553 22.3365 24.2404 22.9076 24.8785 23.7113C25.5165 24.515 25.8719 25.5066 25.8895 26.5326C25.8895 27.3191 25.8895 28.1121 25.8895 28.9246H16.536C16.6205 27.6246 16.3345 26.2726 16.8415 25.0246C17.1184 24.2579 17.5932 23.5781 18.2176 23.0541C18.842 22.5301 19.5939 22.1806 20.397 22.0411L20.683 21.9631C18.421 21.1831 17.433 19.7206 17.784 17.7771C17.9518 16.9581 18.4068 16.2261 19.067 15.7133C19.7272 15.2004 20.549 14.9406 21.384 14.9806C22.219 15.0206 23.0122 15.3579 23.6203 15.9315C24.2285 16.5052 24.6114 17.2773 24.7 18.1086C24.7716 18.9937 24.5161 19.8742 23.9818 20.5835C23.4474 21.2927 22.6715 21.7812 21.801 21.9566Z" fill="white"/>
<path id="Vector_6" d="M49.9981 28.9641C50.1931 29.0096 50.3946 29.0486 50.5896 29.1006C51.5765 29.3562 52.4531 29.9267 53.0865 30.7255C53.7199 31.5243 54.0756 32.5079 54.0996 33.5271C54.0996 34.3201 54.0996 35.1131 54.0996 35.9321H44.7591C44.7591 34.2161 44.4731 32.4546 45.6106 30.9206C46.329 29.9166 47.4113 29.2332 48.6266 29.0161C48.6907 29.0071 48.7539 28.9919 48.8151 28.9706C48.8151 28.9706 48.8151 28.9706 48.8671 28.9056C48.3883 28.8266 47.931 28.6496 47.5239 28.3856C47.1168 28.1217 46.7685 27.7764 46.5011 27.3716C46.2307 26.9723 46.0481 26.5202 45.9652 26.0451C45.8823 25.5701 45.901 25.0829 46.0201 24.6156C46.214 23.8012 46.6933 23.0831 47.3709 22.5915C48.0486 22.0999 48.8799 21.8672 49.7143 21.9355C50.5487 22.0039 51.331 22.3688 51.9197 22.9641C52.5083 23.5595 52.8642 24.346 52.9231 25.1811C52.9744 26.0585 52.7065 26.9249 52.1689 27.6203C51.6313 28.3156 50.8602 28.7929 49.9981 28.9641Z" fill="white"/>
</g>
</svg>
