<svg width="100" height="100" viewBox="0 0 100 100" fill="none" xmlns="http://www.w3.org/2000/svg">
<g id="Boosted website trrafic 1">
<path id="Vector" d="M79.3696 28.7604V43.7604H78.4496C74.5196 43.7604 70.5896 43.7604 66.6596 43.7604C65.7538 43.6766 64.8446 43.8809 64.0617 44.3442C63.2788 44.8075 62.6621 45.5061 62.2996 46.3404C62.2278 46.437 62.1363 46.5173 62.0311 46.5759C61.926 46.6345 61.8096 46.6701 61.6896 46.6804C61.0696 46.6804 60.4396 46.6804 59.8096 46.6804C59.1729 46.6689 58.5484 46.8551 58.0219 47.2133C57.4953 47.5714 57.0928 48.084 56.8696 48.6804C56.5912 49.2674 56.5109 49.9289 56.6407 50.5655C56.7706 51.2021 57.1035 51.7793 57.5896 52.2104C58.8696 53.4504 60.2096 54.6104 61.5096 55.8104C61.7194 56.0483 61.91 56.3024 62.0796 56.5704L61.9396 56.8104C61.3296 56.8104 60.7096 56.8104 60.0996 56.8104C59.4007 56.7511 58.7017 56.9224 58.1093 57.298C57.517 57.6737 57.064 58.233 56.8196 58.8904C56.5745 59.5481 56.5482 60.2673 56.7445 60.9411C56.9409 61.6149 57.3495 62.2074 57.9096 62.6304C59.1296 63.7304 60.3496 64.8204 61.5396 65.9404C61.7853 66.254 62.0028 66.5886 62.1896 66.9404C61.3196 66.9404 60.7196 66.9404 60.1296 66.9404C59.4299 66.8832 58.7305 67.0542 58.136 67.4276C57.5416 67.8011 57.084 68.357 56.8319 69.0122C56.5797 69.6674 56.5464 70.3866 56.7371 71.0623C56.9278 71.7379 57.3321 72.3337 57.8896 72.7604C59.0996 73.8704 60.3196 74.9604 61.5196 76.0804C61.7856 76.3942 62.0263 76.7286 62.2396 77.0804H14.8996C12.0496 77.0804 10.3496 75.4104 10.3496 72.5804C10.3496 58.2804 10.3496 43.9804 10.3496 29.6804V28.8304H16.5096C16.8729 28.8719 17.2409 28.8308 17.5862 28.7103C17.9314 28.5898 18.245 28.3929 18.5036 28.1343C18.7621 27.8758 18.959 27.5622 19.0795 27.2169C19.2001 26.8717 19.2411 26.5037 19.1996 26.1404V22.5104C19.5096 22.5104 19.7696 22.5104 20.0396 22.5104C21.6996 22.5104 23.3796 22.6204 25.0396 22.5104C25.6785 22.4242 26.3289 22.5136 26.9208 22.7691C27.5128 23.0245 28.024 23.4364 28.3996 23.9604C29.3996 25.1904 30.6596 26.2604 31.7096 27.4704C32.1 27.9407 32.5962 28.3118 33.1576 28.5534C33.719 28.795 34.3297 28.9002 34.9396 28.8604C49.3796 28.8604 63.8196 28.8604 78.2596 28.8604L79.3696 28.7604ZM51.4796 65.8404V47.9104C51.4796 47.2704 51.1796 47.0304 50.5696 47.0404C49.5696 47.0404 48.5696 47.0404 47.5696 47.0404C46.5696 47.0404 46.3096 47.1304 46.3096 48.2904V65.0004C46.3096 65.2704 46.3096 65.5304 46.3096 65.8404H51.4796ZM33.1496 65.8404V47.8404C33.1649 47.7309 33.1544 47.6193 33.1189 47.5146C33.0834 47.4099 33.024 47.3149 32.9453 47.2372C32.8667 47.1595 32.7709 47.1012 32.6658 47.067C32.5606 47.0329 32.4489 47.0238 32.3396 47.0404H29.2296C28.0496 47.0404 27.9596 47.1104 27.9596 48.2704V65.0604C27.9596 65.3204 27.9596 65.5804 27.9596 65.8504L33.1496 65.8404ZM30.6796 38.8404L31.3196 39.4004L38.5696 46.0004C39.4396 46.7904 39.9596 46.8004 40.8296 46.0004L48.6096 38.8604C49.027 38.5096 49.4211 38.1322 49.7896 37.7304C49.9502 37.5029 50.0275 37.227 50.0083 36.9492C49.9891 36.6714 49.8747 36.4087 49.6844 36.2054C49.494 36.0022 49.2394 35.8708 48.9635 35.8334C48.6875 35.7961 48.4071 35.8551 48.1696 36.0004C47.9295 36.1774 47.7023 36.3712 47.4896 36.5804L40.3796 43.1204C40.1696 43.3204 39.9396 43.5004 39.6996 43.6904L39.0996 43.1704L31.7896 36.4904C31.0296 35.8004 30.4696 35.7204 29.8396 36.3004C26.7496 39.1404 23.6796 42.0104 20.6096 44.8804C20.4827 44.9849 20.3786 45.1144 20.3038 45.2608C20.229 45.4072 20.185 45.5674 20.1747 45.7315C20.1644 45.8956 20.1879 46.0601 20.2438 46.2147C20.2997 46.3693 20.3868 46.5108 20.4996 46.6304C20.6135 46.749 20.7501 46.8433 20.9013 46.9077C21.0525 46.9722 21.2152 47.0054 21.3796 47.0054C21.544 47.0054 21.7067 46.9722 21.8579 46.9077C22.0091 46.8433 22.1458 46.749 22.2596 46.6304C22.4096 46.5104 22.5396 46.3704 22.6796 46.2404L28.3796 41.0004C29.1296 40.2704 29.8896 39.5704 30.6796 38.8504V38.8404ZM35.0796 70.8404H52.5196C52.9096 70.8404 53.2896 70.8404 53.6696 70.8404C53.9872 70.8327 54.2894 70.7024 54.5131 70.4769C54.7368 70.2513 54.8645 69.948 54.8696 69.6304C54.8649 69.3125 54.7392 69.0083 54.5181 68.7798C54.297 68.5513 53.9972 68.4156 53.6796 68.4004C53.4596 68.4004 53.2396 68.4004 53.0196 68.4004H17.2396C16.9704 68.3703 16.6988 68.3703 16.4296 68.4004C16.1499 68.4595 15.8998 68.6149 15.723 68.8396C15.5462 69.0642 15.4539 69.3439 15.4622 69.6296C15.4706 69.9154 15.579 70.1892 15.7686 70.4031C15.9582 70.6171 16.2169 70.7577 16.4996 70.8004C16.769 70.8255 17.0402 70.8255 17.3096 70.8004L35.0796 70.8404ZM42.3096 65.8404C42.3096 61.6904 42.3096 57.6004 42.3096 53.5104C42.3096 52.9804 41.9296 52.8304 41.4796 52.8304H38.3496C37.2496 52.8304 37.1196 52.9604 37.1196 54.0404V65.0004C37.1196 65.2704 37.1196 65.5404 37.1196 65.8304L42.3096 65.8404ZM18.8296 65.8404H23.9996C23.9996 61.7504 23.9996 57.7204 23.9996 53.6904C23.9996 53.0904 23.6896 52.8604 23.1296 52.8604H19.6896C19.1296 52.8604 18.8296 53.0904 18.8296 53.6904V65.8404Z" fill="white"/>
<path id="Vector_2" d="M79.3899 26.28H78.3899C63.9832 26.28 49.5699 26.28 35.1499 26.28C34.8163 26.2974 34.4833 26.2379 34.1764 26.1061C33.8695 25.9743 33.597 25.7738 33.3799 25.52C31.9999 24 30.4699 22.52 28.9999 21C28.7091 20.6746 28.3509 20.4166 27.9503 20.2439C27.5496 20.0712 27.116 19.9879 26.6799 20C24.2499 20 21.8199 20 19.3899 20C19.0276 19.9528 18.6593 19.9892 18.3134 20.1066C17.9674 20.2239 17.6529 20.419 17.3941 20.6768C17.1353 20.9346 16.9391 21.2484 16.8204 21.5939C16.7018 21.9394 16.664 22.3076 16.7099 22.67C16.7099 23.84 16.7099 25.01 16.7099 26.23H10.3499V25.47C10.3499 21.92 10.3499 18.37 10.3499 14.82C10.3088 14.2302 10.3942 13.6385 10.6004 13.0845C10.8066 12.5304 11.1288 12.0268 11.5454 11.6073C11.962 11.1879 12.4634 10.8623 13.0161 10.6523C13.5687 10.4424 14.1598 10.3529 14.7499 10.39H74.9999C76.0441 10.3336 77.071 10.6745 77.8742 11.3441C78.6775 12.0138 79.1975 12.9626 79.3299 14C79.3498 14.353 79.3498 14.7069 79.3299 15.06C79.3899 18.74 79.3899 22.45 79.3899 26.28ZM61.8499 21.55C62.19 21.55 62.5268 21.483 62.841 21.3528C63.1552 21.2227 63.4408 21.0319 63.6813 20.7914C63.9218 20.5509 64.1125 20.2654 64.2427 19.9511C64.3729 19.6369 64.4399 19.3001 64.4399 18.96C64.4399 18.6199 64.3729 18.2831 64.2427 17.9688C64.1125 17.6546 63.9218 17.3691 63.6813 17.1286C63.4408 16.8881 63.1552 16.6973 62.841 16.5671C62.5268 16.437 62.19 16.37 61.8499 16.37C61.5097 16.37 61.1729 16.437 60.8587 16.5671C60.5445 16.6973 60.259 16.8881 60.0185 17.1286C59.7779 17.3691 59.5872 17.6546 59.457 17.9688C59.3269 18.2831 59.2599 18.6199 59.2599 18.96C59.2599 19.3001 59.3269 19.6369 59.457 19.9511C59.5872 20.2654 59.7779 20.5509 60.0185 20.7914C60.259 21.0319 60.5445 21.2227 60.8587 21.3528C61.1729 21.483 61.5097 21.55 61.8499 21.55ZM73.9199 19C73.9212 18.659 73.8552 18.3212 73.7256 18.0058C73.596 17.6904 73.4054 17.4037 73.1648 17.1621C72.9242 16.9206 72.6382 16.7289 72.3233 16.5981C72.0084 16.4673 71.6708 16.4 71.3299 16.4C70.9769 16.378 70.6231 16.4286 70.2904 16.5486C69.9577 16.6685 69.6531 16.8554 69.3954 17.0976C69.1376 17.3398 68.9322 17.6322 68.7918 17.9568C68.6514 18.2814 68.579 18.6313 68.579 18.985C68.579 19.3387 68.6514 19.6886 68.7918 20.0132C68.9322 20.3378 69.1376 20.6302 69.3954 20.8724C69.6531 21.1146 69.9577 21.3014 70.2904 21.4214C70.6231 21.5414 70.9769 21.592 71.3299 21.57C71.669 21.5726 72.0054 21.5081 72.3195 21.3801C72.6336 21.2522 72.9193 21.0633 73.1601 20.8244C73.4008 20.5855 73.5919 20.3012 73.7223 19.9881C73.8527 19.675 73.9199 19.3392 73.9199 19ZM54.9199 19C54.916 18.6595 54.8447 18.3231 54.7102 18.0102C54.5756 17.6974 54.3805 17.4143 54.136 17.1772C53.8915 16.9402 53.6025 16.7538 53.2856 16.629C52.9688 16.5042 52.6303 16.4434 52.2899 16.45C51.9497 16.4546 51.6138 16.5261 51.3014 16.6605C50.9889 16.7949 50.706 16.9896 50.4687 17.2333C50.2314 17.4771 50.0445 17.7652 49.9186 18.0812C49.7927 18.3972 49.7303 18.7349 49.7349 19.075C49.7395 19.4151 49.811 19.751 49.9454 20.0635C50.0798 20.3759 50.2744 20.6589 50.5182 20.8961C50.762 21.1334 51.0501 21.3203 51.366 21.4462C51.682 21.5721 52.0197 21.6346 52.3599 21.63C52.7103 21.6319 53.0574 21.5621 53.3799 21.4248C53.7024 21.2876 53.9934 21.0859 54.235 20.8321C54.4767 20.5783 54.6639 20.2777 54.7851 19.9489C54.9063 19.6201 54.959 19.2699 54.9399 18.92L54.9199 19Z" fill="white"/>
<path id="Vector_3" d="M84.2605 62.37V76.2C84.2605 77.78 83.7305 78.32 82.1505 78.32H66.6005C65.0505 78.32 64.4805 77.76 64.4805 76.19V48.37C64.4805 46.81 65.0505 46.25 66.6105 46.25H82.1605C83.7305 46.25 84.2605 46.79 84.2605 48.38V62.37ZM74.4505 65.37C74.8734 65.3998 75.298 65.3431 75.6983 65.2033C76.0985 65.0636 76.4661 64.8437 76.7786 64.5571C77.0911 64.2705 77.3419 63.9233 77.5157 63.5365C77.6894 63.1498 77.7826 62.7317 77.7894 62.3078C77.7962 61.8839 77.7165 61.463 77.5552 61.0709C77.3939 60.6788 77.1544 60.3236 76.8513 60.0272C76.5482 59.7307 76.1879 59.4992 75.7923 59.3466C75.3967 59.1941 74.9741 59.1238 74.5505 59.14C73.7529 59.1705 72.9973 59.5056 72.4393 60.0762C71.8812 60.6468 71.563 61.4096 71.5502 62.2076C71.5374 63.0057 71.8309 63.7783 72.3704 64.3666C72.9099 64.9548 73.6543 65.3139 74.4505 65.37ZM74.5405 55.26C75.3662 55.2521 76.1551 54.9171 76.7343 54.3285C77.3135 53.74 77.6358 52.9458 77.6305 52.12C77.6122 51.2932 77.2716 50.5062 76.6812 49.9271C76.0908 49.3479 75.2975 49.0224 74.4705 49.02C73.6421 49.0332 72.8527 49.3742 72.2753 49.9685C71.698 50.5627 71.3798 51.3616 71.3905 52.19C71.3877 52.6021 71.4676 53.0106 71.6256 53.3912C71.7835 53.7719 72.0163 54.117 72.31 54.406C72.6037 54.6951 72.9525 54.9223 73.3356 55.0741C73.7187 55.226 74.1285 55.2994 74.5405 55.29V55.26ZM71.3805 72.26C71.3706 72.8774 71.5442 73.4838 71.8792 74.0025C72.2142 74.5212 72.6956 74.9288 73.2624 75.1738C73.8293 75.4187 74.456 75.4899 75.0633 75.3785C75.6707 75.267 76.2313 74.9778 76.6741 74.5475C77.117 74.1173 77.4223 73.5653 77.5513 72.9614C77.6802 72.3576 77.6271 71.729 77.3987 71.1554C77.1702 70.5817 76.7766 70.0887 76.2679 69.7389C75.7591 69.389 75.1579 69.198 74.5405 69.19C74.1274 69.1847 73.7174 69.2615 73.3342 69.4159C72.951 69.5703 72.6024 69.7993 72.3084 70.0896C72.0144 70.3798 71.781 70.7255 71.6217 71.1067C71.4624 71.4879 71.3804 71.8969 71.3805 72.31V72.26Z" fill="white"/>
<path id="Vector_4" d="M70.9999 87.1498V80.8398H77.6799V87.1498H79.8899C81.1399 87.1498 82.3999 87.1498 83.6499 87.1498C83.8078 87.1445 83.9652 87.1707 84.1129 87.2269C84.2606 87.283 84.3957 87.368 84.5102 87.4769C84.6247 87.5859 84.7163 87.7165 84.7798 87.8612C84.8433 88.0059 84.8773 88.1618 84.8799 88.3198C84.8886 88.6372 84.7752 88.9459 84.5631 89.1822C84.351 89.4184 84.0563 89.5644 83.7399 89.5898C83.5201 89.6048 83.2996 89.6048 83.0799 89.5898H65.8899C65.6735 89.6049 65.4563 89.6049 65.2399 89.5898C64.9243 89.562 64.631 89.4154 64.4194 89.1797C64.2078 88.9439 64.0936 88.6366 64.0999 88.3198C64.1024 88.1618 64.1364 88.0059 64.1999 87.8612C64.2634 87.7165 64.355 87.5859 64.4695 87.4769C64.584 87.368 64.7191 87.283 64.8668 87.2269C65.0145 87.1707 65.1719 87.1445 65.3299 87.1498C66.8799 87.1498 68.4399 87.1498 69.9999 87.1498H70.9999Z" fill="white"/>
<path id="Vector_5" d="M86.7598 52.9297V49.1797C87.446 49.1445 88.1335 49.1445 88.8198 49.1797C88.9716 49.1978 89.1173 49.2505 89.2455 49.3337C89.3738 49.4169 89.4813 49.5285 89.5598 49.6597C89.5904 49.8111 89.5856 49.9675 89.5457 50.1167C89.5058 50.2659 89.4319 50.4039 89.3298 50.5197C88.5498 51.3297 87.7098 52.0597 86.7598 52.9297Z" fill="white"/>
<path id="Vector_6" d="M86.75 73.0999V69.3399C87.49 69.3399 88.22 69.3399 88.94 69.3399C89.0799 69.3379 89.2172 69.3778 89.3342 69.4546C89.4512 69.5314 89.5425 69.6415 89.5963 69.7706C89.6501 69.8998 89.664 70.0421 89.6362 70.1792C89.6083 70.3164 89.54 70.442 89.44 70.5399C88.62 71.3999 87.72 72.1799 86.75 73.0999Z" fill="white"/>
<path id="Vector_7" d="M86.79 59.2998C87.52 59.2998 88.25 59.2998 88.97 59.2998C89.69 59.2998 89.89 60.0898 89.35 60.6198C88.57 61.3998 87.72 62.1298 86.79 62.9798V59.2998Z" fill="white"/>
<path id="Vector_8" d="M61.93 73.0703C61 72.2203 60.15 71.4803 59.36 70.6903C59.2705 70.5798 59.2084 70.4498 59.1788 70.3107C59.1493 70.1717 59.1531 70.0276 59.19 69.8903C59.2705 69.762 59.3771 69.6521 59.5028 69.5676C59.6286 69.4832 59.7707 69.4262 59.92 69.4003C60.586 69.3601 61.2539 69.3601 61.92 69.4003L61.93 73.0703Z" fill="white"/>
<path id="Vector_9" d="M61.9996 49.1797V52.9097C60.9996 51.9997 59.9996 51.1697 59.2096 50.2797C58.8396 49.8697 59.2096 49.2297 59.8496 49.1897C60.4896 49.1497 61.1996 49.1797 61.9996 49.1797Z" fill="white"/>
<path id="Vector_10" d="M61.9402 59.2996V62.9996C61.0002 62.1396 60.1402 61.3996 59.3402 60.5896C59.2259 60.4964 59.1436 60.3699 59.1045 60.2276C59.0654 60.0854 59.0716 59.9346 59.1222 59.796C59.1727 59.6575 59.2652 59.5381 59.3867 59.4546C59.5082 59.371 59.6527 59.3273 59.8002 59.3296C60.4902 59.2496 61.2002 59.2996 61.9402 59.2996Z" fill="white"/>
</g>
</svg>
