<svg width="100" height="100" viewBox="0 0 100 100" fill="none" xmlns="http://www.w3.org/2000/svg">
<g id="Brand Trust and 1">
<path id="Vector" d="M93.0003 58.1799C92.6021 58.5399 92.1813 58.8739 91.7403 59.1799C89.9603 60.3299 88.1603 61.4499 86.3603 62.5699C85.1903 63.3099 84.5203 63.1699 83.7903 62.0199C79.6503 55.4599 75.5136 48.8865 71.3803 42.2999C70.6403 41.1199 70.7903 40.4999 71.9903 39.7399L77.5903 36.2299C78.7803 35.4899 79.4003 35.6199 80.1503 36.8099L92.7503 56.8099C92.8224 56.9217 92.9062 57.0256 93.0003 57.1199V58.1799ZM81.1203 42.7899C81.1242 42.3504 81.0414 41.9145 80.8766 41.5071C80.7117 41.0997 80.4681 40.7289 80.1597 40.4158C79.8513 40.1027 79.4841 39.8536 79.0792 39.6827C78.6744 39.5118 78.2397 39.4225 77.8003 39.4199C76.9118 39.4199 76.0597 39.7728 75.4314 40.4011C74.8032 41.0293 74.4503 41.8814 74.4503 42.7699C74.4503 43.6583 74.8032 44.5104 75.4314 45.1387C76.0597 45.7669 76.9118 46.1199 77.8003 46.1199C78.2375 46.1212 78.6706 46.0359 79.0746 45.8689C79.4787 45.7019 79.8457 45.4565 80.1544 45.1469C80.463 44.8373 80.7073 44.4696 80.8731 44.065C81.0389 43.6605 81.1229 43.2271 81.1203 42.7899Z" fill="white"/>
<path id="Vector_2" d="M28.5402 45.3096L32.0502 47.4996C32.8402 47.9896 33.6502 48.4396 34.3802 48.9896C34.6449 49.2285 34.9887 49.3607 35.3452 49.3607C35.7018 49.3607 36.0456 49.2285 36.3102 48.9896C37.3696 48.3244 38.5655 47.907 39.8088 47.7685C41.052 47.63 42.3104 47.7739 43.4902 48.1896C45.2902 48.6996 47.0102 49.5196 48.7702 50.1896V50.4896C48.5402 50.6596 48.3202 50.8496 48.0802 51.0096C46.3302 52.2596 44.5702 53.4996 42.8402 54.7596C41.5659 55.6074 40.6753 56.9217 40.3602 58.4196C40.1568 59.3484 40.2293 60.3165 40.5686 61.2048C40.9079 62.0931 41.4994 62.8629 42.2702 63.4196C43.0083 64.0334 43.9166 64.4066 44.8731 64.4888C45.8295 64.5711 46.7882 64.3584 47.6202 63.8796C48.6315 63.3139 49.6067 62.6861 50.5402 61.9996C52.0002 60.9996 53.4502 59.9296 54.8102 58.9996C59.3502 62.3796 64.2002 65.1896 68.8702 68.2496C70.2502 69.1596 71.6502 70.0296 73.0302 70.9196C73.3155 71.0935 73.5834 71.2944 73.8302 71.5196C74.3359 71.9693 74.6664 72.5831 74.7633 73.2528C74.8603 73.9225 74.7175 74.6049 74.3602 75.1796C73.9388 75.7079 73.3428 76.0686 72.6793 76.1969C72.0158 76.3252 71.3282 76.2127 70.7402 75.8796C70.4405 75.7268 70.15 75.5565 69.8702 75.3696L60.7502 69.5896C60.5302 69.4596 60.3202 69.2496 60.1002 69.2296C59.9601 69.2179 59.8191 69.2359 59.6864 69.2825C59.5538 69.329 59.4324 69.403 59.3302 69.4996C59.2805 69.6312 59.261 69.7723 59.2731 69.9125C59.2852 70.0527 59.3287 70.1884 59.4002 70.3096C59.6118 70.5307 59.8627 70.7105 60.1402 70.8396C63.4102 72.8596 66.6902 74.9396 70.0002 76.9996C70.4284 77.2736 70.8127 77.6108 71.1402 77.9996C71.5725 78.4391 71.836 79.0169 71.8843 79.6315C71.9326 80.2461 71.7626 80.858 71.4043 81.3596C71.046 81.8613 70.5223 82.2205 69.9253 82.3741C69.3283 82.5278 68.6962 82.4659 68.1402 82.1996C67.6806 82.0022 67.2446 81.754 66.8402 81.4596C63.6402 79.2596 60.4602 77.0396 57.2702 74.8296C57.0802 74.7096 56.9002 74.4896 56.7102 74.4896C56.5202 74.4896 55.9802 74.4896 55.8502 74.7096C55.7202 74.9296 55.8502 75.3196 55.9602 75.5796C56.0702 75.8396 56.3402 75.8796 56.5502 76.0196C59.2402 77.8796 61.9302 79.7296 64.6002 81.5996C65.0588 81.9171 65.4611 82.3092 65.7902 82.7596C66.1261 83.2006 66.311 83.738 66.3175 84.2923C66.324 84.8466 66.1519 85.3883 65.8265 85.8371C65.5011 86.2859 65.0398 86.618 64.511 86.7841C63.9821 86.9503 63.4138 86.9417 62.8902 86.7596C62.3369 86.597 61.8159 86.3398 61.3502 85.9996C58.3502 83.7896 55.3502 81.5496 52.4202 79.3296C52.2402 79.1996 52.0702 78.9896 51.8702 78.9696C51.6702 78.9496 51.1702 78.9696 51.0802 79.1196C50.971 79.4062 50.971 79.723 51.0802 80.0096C51.1402 80.1896 51.4002 80.2996 51.5802 80.4396L58.5102 85.7096C58.7356 85.8752 58.9526 86.0521 59.1602 86.2396C59.7078 86.6807 60.0731 87.3086 60.1857 88.0027C60.2983 88.6968 60.1503 89.408 59.7702 89.9996C59.3566 90.5382 58.7608 90.9075 58.0943 91.0382C57.4279 91.1689 56.7367 91.0521 56.1502 90.7096C54.5602 89.8396 53.0202 88.8896 51.3802 87.9396C52.7202 86.2496 53.2902 84.4296 51.9602 82.5596C50.6302 80.6896 48.8002 80.5596 46.7902 81.2096C46.4902 77.2796 44.8802 75.9896 41.0502 76.6496C41.3302 74.0096 40.1602 72.3696 37.6902 71.8396C37.9356 70.9529 38.0699 70.0393 38.0902 69.1196C37.8102 66.2096 34.6702 64.7396 31.9102 66.1896C30.2402 66.9996 28.6202 67.9996 27.0002 68.9996L26.1402 69.4796C25.6016 68.2967 25.4477 66.9746 25.7002 65.6996C25.776 65.4479 25.7591 65.1775 25.6527 64.9372C25.5464 64.6969 25.3575 64.5026 25.1202 64.3896C23.1202 63.1496 21.1202 61.8896 19.1202 60.6396C19.1202 60.6396 19.1202 60.6396 18.9902 60.4796L28.5402 45.3096Z" fill="white"/>
<path id="Vector_3" d="M39.25 42.8801L37.25 12.1201H64.83C65.4967 22.3601 66.1633 32.6135 66.83 42.8801H39.25ZM52.35 28.5601H59.89C60.49 28.5601 61 28.4501 60.89 27.7101C60.78 26.5201 60.6 25.3301 60.47 24.1401C60.41 23.5701 60.07 23.3901 59.56 23.3901H44.27C43.59 23.3901 43.27 23.7001 43.37 24.3901C43.49 25.3901 43.6 26.3901 43.71 27.3901C43.82 28.3901 43.92 28.5801 44.97 28.5801L52.35 28.5601Z" fill="white"/>
<path id="Vector_4" d="M61.0901 61.5801C63.1243 61.3582 65.0808 60.6741 66.8101 59.5801C67.2701 59.3001 67.6101 58.9701 67.2701 58.4401C66.9301 57.9101 66.5201 58.2001 66.0901 58.3801C64.6659 59.0617 63.1832 59.614 61.6601 60.0301C60.6048 60.2704 59.5018 60.1893 58.4931 59.7972C57.4843 59.4051 56.616 58.72 56.0001 57.8301C55.3501 56.9701 55.2201 56.9501 54.3101 57.6001C52.1901 59.1001 50.0901 60.6001 47.9501 62.1001C47.3595 62.5149 46.6989 62.8198 46.0001 63.0001C45.3428 63.1675 44.6502 63.1309 44.0143 62.8951C43.3784 62.6593 42.8293 62.2355 42.4401 61.6801C42.005 61.1641 41.7313 60.5316 41.6531 59.8613C41.5748 59.1909 41.6955 58.5123 42.0001 57.9101C42.2832 57.2429 42.7304 56.6581 43.3001 56.2101C46.5301 53.9201 49.7301 51.5801 53.1201 49.5301C55.5494 47.9894 58.4781 47.4416 61.3001 48.0001C62.2943 48.2535 63.2449 48.6546 64.1201 49.1901C64.3195 49.3341 64.5591 49.4116 64.8051 49.4116C65.051 49.4116 65.2907 49.3341 65.4901 49.1901C67.2501 48.0001 69.0001 46.9301 70.8001 45.8201L71.6401 45.3301L81.1801 60.5201L78.6301 62.1601C77.4501 62.9001 76.2701 63.6501 75.0801 64.3701C74.8375 64.4743 74.6425 64.6654 74.5334 64.9059C74.4243 65.1463 74.4088 65.4188 74.4901 65.6701C74.7554 67.0644 74.5843 68.5066 74.0001 69.8001L61.0901 61.5801Z" fill="white"/>
<path id="Vector_5" d="M15.1295 63.2304C14.7439 63.0925 14.3665 62.9323 13.9995 62.7504C11.9995 61.5204 9.99954 60.2704 7.99954 59.0204C7.78266 58.9316 7.59034 58.7919 7.43885 58.6131C7.28735 58.4343 7.18112 58.2217 7.12914 57.9931C7.07716 57.7646 7.08095 57.5269 7.1402 57.3002C7.19945 57.0735 7.31241 56.8643 7.46954 56.6904L20.0295 36.6904C20.6895 35.6904 21.3595 35.5104 22.4295 36.1704L28.2395 39.8204C28.4663 39.9066 28.6682 40.0477 28.8273 40.2309C28.9863 40.4141 29.0975 40.6338 29.151 40.8705C29.2045 41.1071 29.1985 41.3534 29.1337 41.5872C29.0689 41.821 28.9472 42.0351 28.7795 42.2104C24.6195 48.8771 20.4462 55.5171 16.2595 62.1304C15.9334 62.5457 15.5534 62.9156 15.1295 63.2304ZM22.3595 46.1204C23.2472 46.1258 24.101 45.7796 24.7343 45.1575C25.3676 44.5355 25.729 43.6881 25.7395 42.8004C25.737 41.9117 25.3856 41.0595 24.7609 40.4273C24.1362 39.7951 23.2882 39.4335 22.3995 39.4204C21.9563 39.4138 21.5161 39.4952 21.1045 39.66C20.6929 39.8248 20.3182 40.0696 20.0019 40.3803C19.6856 40.6909 19.4342 41.0613 19.2621 41.4699C19.0901 41.8784 19.0008 42.3171 18.9995 42.7604C18.9928 43.2035 19.0751 43.6435 19.2416 44.0542C19.408 44.4649 19.6553 44.838 19.9686 45.1513C20.282 45.4647 20.6551 45.7119 21.0658 45.8784C21.4765 46.0449 21.9164 46.1272 22.3595 46.1204Z" fill="white"/>
<path id="Vector_6" d="M37.2803 6.84961H64.7103V10.6396H37.2803V6.84961Z" fill="white"/>
<path id="Vector_7" d="M42.6802 77.6602C43.1553 77.6416 43.6264 77.7531 44.0427 77.9827C44.4591 78.2123 44.8048 78.5512 45.0425 78.9629C45.2803 79.3747 45.4011 79.8435 45.3919 80.3189C45.3826 80.7942 45.2437 81.258 44.9902 81.6602C44.6315 82.2111 44.1486 82.67 43.5802 83.0002C41.8602 84.0802 40.0902 85.0802 38.3202 86.0902C36.5502 87.1002 34.9002 86.7102 34.1302 85.3602C33.3602 84.0102 33.9602 82.3602 35.5602 81.3602C37.3402 80.3002 39.1102 79.2502 40.9102 78.2502C41.4835 78.0066 42.0754 77.8093 42.6802 77.6602Z" fill="white"/>
<path id="Vector_8" d="M39.6998 75.9398C39.6622 76.4155 39.5073 76.8746 39.2491 77.2759C38.9908 77.6773 38.6372 78.0084 38.2198 78.2397C36.2898 79.4097 34.3598 80.5898 32.3498 81.6098C31.6013 81.961 30.759 82.0593 29.9498 81.8898C29.5104 81.7881 29.1083 81.5658 28.7886 81.2478C28.4689 80.9298 28.2444 80.5288 28.1404 80.09C28.0364 79.6513 28.0571 79.1922 28.2001 78.7645C28.3431 78.3369 28.6028 77.9577 28.9498 77.6697C31.2696 75.9535 33.7673 74.4918 36.3998 73.3097C37.9998 72.5697 39.6998 73.9998 39.6998 75.9398Z" fill="white"/>
<path id="Vector_9" d="M51.2798 85.0003C51.2449 85.4691 51.0929 85.9216 50.8378 86.3164C50.5828 86.7112 50.2327 87.0358 49.8198 87.2603C47.8198 88.4403 45.8998 89.6103 43.8898 90.6903C43.5245 90.9283 43.1072 91.0747 42.6733 91.1171C42.2394 91.1594 41.8017 91.0965 41.3973 90.9335C40.993 90.7706 40.6339 90.5125 40.3505 90.1812C40.0672 89.8499 39.868 89.4551 39.7698 89.0303C39.6487 88.5059 39.6933 87.9569 39.8975 87.459C40.1017 86.961 40.4554 86.5387 40.9098 86.2503C43.0289 84.8649 45.2222 83.5964 47.4798 82.4503C47.8955 82.2386 48.3601 82.1418 48.8258 82.1698C49.2914 82.1977 49.7412 82.3495 50.1285 82.6095C50.5159 82.8694 50.8268 83.2281 51.0292 83.6484C51.2316 84.0687 51.3181 84.5354 51.2798 85.0003Z" fill="white"/>
<path id="Vector_10" d="M33.72 67C34.2527 66.9336 34.7933 67.0218 35.2773 67.2541C35.7613 67.4864 36.1684 67.8529 36.45 68.31C36.6847 68.7136 36.7983 69.1762 36.777 69.6426C36.7557 70.1091 36.6005 70.5595 36.33 70.94C35.9779 71.4523 35.5254 71.8878 35 72.22C33.29 73.28 31.54 74.22 29.8 75.22C29.5119 75.3936 29.207 75.5376 28.89 75.65C28.2818 75.877 27.6139 75.8865 26.9995 75.6769C26.3852 75.4673 25.8624 75.0514 25.52 74.5C25.2473 73.9284 25.172 73.2825 25.3059 72.6636C25.4398 72.0447 25.7754 71.4877 26.26 71.08C26.4937 70.9009 26.7411 70.7404 27 70.6C28.73 69.6 30.46 68.6 32.21 67.6C32.6957 67.3582 33.2008 67.1575 33.72 67Z" fill="white"/>
<path id="Vector_11" d="M36.3099 18.7502C36.7765 26.1236 37.2499 33.4936 37.7299 40.8602L37.5299 41.0402C36.7999 39.1402 35.2599 38.4402 33.3799 38.1702L36.1699 18.7402L36.3099 18.7502Z" fill="white"/>
</g>
</svg>
