<svg width="65" height="65" viewBox="0 0 65 65" fill="none" xmlns="http://www.w3.org/2000/svg">
<g id="Catch Attention Quickly&#226;&#128;&#168; 1">
<path id="Vector" d="M32.7403 9.75C32.9332 9.8582 33.0886 10.0224 33.1861 10.2209C33.2836 10.4193 33.3185 10.6427 33.2863 10.8615C33.2863 11.3685 33.2863 11.8755 33.2863 12.3825C33.2863 12.8895 32.9483 13.3055 32.4868 13.2925C32.0253 13.2795 31.7393 12.9285 31.7328 12.3825C31.7263 11.8365 31.7328 11.3425 31.7328 10.8225C31.7043 10.6117 31.7391 10.3971 31.8329 10.2061C31.9266 10.0152 32.0751 9.85639 32.2593 9.75H32.7403Z" fill="white"/>
<path id="Vector_2" d="M19.3438 36.5362L18.2323 36.3997C17.0298 36.2502 16.6333 35.5547 17.1273 34.4497C17.9658 32.5842 18.8108 30.7122 19.6363 28.8402C19.7242 28.6355 19.76 28.4121 19.7403 28.1902C19.5518 24.9402 20.2148 21.8722 22.2753 19.2267C23.8685 17.1489 26.1922 15.7546 28.7753 15.3267C34.2028 14.3777 39.1103 15.5282 43.0753 19.4867C45.6753 22.0542 46.6113 25.3042 46.3968 28.9052C46.1737 32.4843 44.9384 35.9264 42.8348 38.8307C41.3197 40.9859 40.5029 43.5543 40.4948 46.1887C40.4948 47.4887 40.4948 48.7887 40.4948 50.0887C40.4948 50.6997 40.2868 50.9142 39.6823 50.9142C35.05 50.9142 30.4133 50.9142 25.7723 50.9142C25.1808 50.9142 24.9533 50.6932 24.9533 50.0757V43.5757C24.9533 42.8542 24.8038 42.7112 24.0693 42.7112C23.3348 42.7112 22.7693 42.7112 22.1193 42.7112C21.7486 42.725 21.379 42.6619 21.0339 42.5257C20.6888 42.3896 20.3757 42.1834 20.1143 41.9201C19.8529 41.6569 19.6489 41.3423 19.5152 40.9963C19.3814 40.6503 19.3209 40.2803 19.3373 39.9097C19.3438 38.8437 19.3438 37.6997 19.3438 36.5362ZM35.0998 27.8197C35.1648 25.6032 35.2428 23.3932 35.3078 21.1832C35.3078 20.6047 35.0933 20.3772 34.5148 20.3772C33.4488 20.3772 32.3893 20.3772 31.3298 20.3772C30.7773 20.3772 30.5368 20.6242 30.5498 21.1637C30.5498 21.8137 30.6018 22.5287 30.6278 23.2112C30.7665 26.9812 30.9051 30.7468 31.0438 34.5082C31.0438 35.0737 31.3168 35.3077 31.8758 35.3142C32.5648 35.3142 33.2473 35.3142 33.9363 35.3142C34.6253 35.3142 34.8593 35.1647 34.8853 34.4107C34.9698 32.2137 35.0413 30.0167 35.0998 27.8197ZM35.0023 38.9087C35.0022 38.5121 34.8839 38.1245 34.6626 37.7955C34.4412 37.4664 34.1268 37.2107 33.7596 37.0611C33.3923 36.9115 32.9887 36.8747 32.6005 36.9555C32.2122 37.0363 31.8568 37.2309 31.5796 37.5145C31.3024 37.7982 31.116 38.158 31.0443 38.548C30.9725 38.938 31.0185 39.3406 31.1766 39.7044C31.3346 40.0681 31.5974 40.3765 31.9315 40.5902C32.2656 40.8039 32.6558 40.9132 33.0523 40.9042C33.5758 40.8973 34.0754 40.6836 34.4419 40.3098C34.8085 39.9359 35.0123 39.4322 35.0088 38.9087H35.0023Z" fill="white"/>
<path id="Vector_3" d="M42.4449 13.1628C42.091 13.9728 41.6297 14.7314 41.0734 15.4183C40.8264 15.6848 40.4689 15.5613 40.2024 15.3273C40.0611 15.2317 39.9598 15.0875 39.9178 14.9221C39.8759 14.7567 39.8962 14.5817 39.9749 14.4303C40.3194 13.7803 40.6834 13.1303 41.0734 12.5128C41.1557 12.3799 41.2832 12.2811 41.4324 12.2346C41.5816 12.188 41.7426 12.1968 41.8859 12.2593C42.072 12.3177 42.2309 12.4411 42.3335 12.607C42.4362 12.7729 42.4757 12.9702 42.4449 13.1628Z" fill="white"/>
<path id="Vector_4" d="M49.8484 29.6398C49.4974 29.6398 49.1529 29.6398 48.8019 29.6398C48.6115 29.6223 48.4346 29.5342 48.3057 29.3929C48.1769 29.2516 48.1055 29.0673 48.1055 28.8761C48.1055 28.6849 48.1769 28.5006 48.3057 28.3593C48.4346 28.218 48.6115 28.1299 48.8019 28.1123C49.5104 28.1123 50.2254 28.1123 50.9339 28.1123C51.0315 28.1114 51.1282 28.1302 51.2182 28.1677C51.3082 28.2052 51.3897 28.2605 51.4578 28.3304C51.5258 28.4003 51.579 28.4832 51.6141 28.5742C51.6492 28.6652 51.6655 28.7624 51.6619 28.8598C51.664 29.0567 51.5902 29.2469 51.4559 29.3909C51.3215 29.5348 51.137 29.6217 50.9404 29.6333C50.5764 29.6333 50.2189 29.6333 49.8549 29.6333L49.8484 29.6398Z" fill="white"/>
<path id="Vector_5" d="M15.1256 29.6401C14.7941 29.6401 14.4756 29.6401 14.1246 29.6401C14.0184 29.6499 13.9113 29.6375 13.8102 29.6036C13.7091 29.5696 13.6161 29.515 13.5373 29.4431C13.4585 29.3712 13.3955 29.2837 13.3524 29.1861C13.3094 29.0885 13.2871 28.983 13.2871 28.8764C13.2871 28.7697 13.3094 28.6642 13.3524 28.5666C13.3955 28.469 13.4585 28.3815 13.5373 28.3096C13.6161 28.2378 13.7091 28.1831 13.8102 28.1492C13.9113 28.1153 14.0184 28.1028 14.1246 28.1126C14.8071 28.1126 15.4896 28.1126 16.1786 28.1126C16.2828 28.1152 16.3854 28.1382 16.4807 28.1804C16.5759 28.2226 16.6619 28.2832 16.7337 28.3586C16.8056 28.4341 16.8618 28.5229 16.8993 28.6201C16.9368 28.7173 16.9547 28.821 16.9521 28.9251C16.9437 29.1211 16.8585 29.3059 16.715 29.4397C16.5716 29.5734 16.3812 29.6454 16.1851 29.6401C15.8276 29.6466 15.4766 29.6401 15.1256 29.6401Z" fill="white"/>
<path id="Vector_6" d="M23.4389 12.1416C23.6149 12.2375 23.7714 12.3653 23.9004 12.5186C24.2709 13.0906 24.6024 13.6886 24.9209 14.2866C24.9856 14.3685 25.0317 14.4635 25.0557 14.565C25.0798 14.6666 25.0814 14.7721 25.0603 14.8743C25.0393 14.9766 24.9961 15.0729 24.9338 15.1567C24.8716 15.2404 24.7917 15.3095 24.6999 15.3591C24.2709 15.5996 23.9134 15.4761 23.6339 15.0016C23.3544 14.5271 22.9839 13.8771 22.6654 13.2921C22.3469 12.7071 22.6719 12.1546 23.4389 12.1416Z" fill="white"/>
<path id="Vector_7" d="M16.6141 18.9023C16.7409 18.9409 16.8647 18.9887 16.9846 19.0453C17.5371 19.3508 18.0831 19.6563 18.6226 19.9813C18.7252 20.0249 18.8176 20.0895 18.8938 20.1709C18.97 20.2523 19.0284 20.3487 19.0651 20.454C19.1019 20.5593 19.1162 20.6711 19.1071 20.7822C19.098 20.8934 19.0658 21.0014 19.0126 21.0993C18.9747 21.1791 18.921 21.2503 18.8547 21.3086C18.7884 21.3669 18.7109 21.4111 18.6269 21.4384C18.543 21.4658 18.4544 21.4758 18.3665 21.4678C18.2785 21.4598 18.1932 21.4339 18.1156 21.3918C17.4286 21.0561 16.7642 20.6761 16.1266 20.2543C16.0283 20.1451 15.9548 20.016 15.9111 19.8758C15.8673 19.7356 15.8543 19.5875 15.8731 19.4418C15.8991 19.1233 16.1721 18.9218 16.6141 18.9023Z" fill="white"/>
<path id="Vector_8" d="M48.4248 18.9019C48.5803 18.9045 48.7313 18.9551 48.8569 19.0468C48.9826 19.1386 49.0768 19.2669 49.1266 19.4143C49.1764 19.5616 49.1795 19.7208 49.1353 19.87C49.0911 20.0191 49.0018 20.151 48.8798 20.2474C48.2298 20.6634 47.5408 21.0469 46.8518 21.4044C46.7795 21.4422 46.7003 21.4652 46.6189 21.4719C46.5376 21.4786 46.4557 21.469 46.3782 21.4435C46.3006 21.4181 46.2289 21.3773 46.1674 21.3237C46.1058 21.2701 46.0556 21.2047 46.0198 21.1314C45.8999 20.9919 45.8395 20.8109 45.8516 20.6274C45.8638 20.4438 45.9475 20.2724 46.0848 20.1499C46.7933 19.7144 47.5213 19.3179 48.2493 18.9149C48.3069 18.9021 48.366 18.8978 48.4248 18.9019Z" fill="white"/>
<path id="Vector_9" d="M31.8501 21.5928H34.1056L33.6636 34.0598H32.3051L31.8501 21.5928Z" fill="white"/>
<path id="Vector_10" d="M33.0201 38.1551C33.2345 38.1669 33.4359 38.2617 33.5815 38.4194C33.7271 38.5772 33.8055 38.7855 33.8001 39.0001C33.7868 39.1972 33.6972 39.3814 33.5504 39.5136C33.4036 39.6459 33.2111 39.7158 33.0136 39.7086C32.8108 39.7018 32.6187 39.6155 32.4788 39.4684C32.339 39.3213 32.2626 39.1251 32.2661 38.9221C32.2596 38.8208 32.2746 38.7193 32.31 38.6241C32.3454 38.529 32.4005 38.4424 32.4716 38.37C32.5428 38.2976 32.6284 38.241 32.723 38.204C32.8175 38.167 32.9187 38.1503 33.0201 38.1551Z" fill="white"/>
</g>
</svg>
