<?xml version="1.0" encoding="utf-8"?>
<!-- Generator: Adobe Illustrator 26.5.0, SVG Export Plug-In . SVG Version: 6.00 Build 0)  -->
<svg version="1.1" id="Layer_1" xmlns="http://www.w3.org/2000/svg" xmlns:xlink="http://www.w3.org/1999/xlink" x="0px" y="0px"
	 viewBox="0 0 2000 2000" style="enable-background:new 0 0 2000 2000;" xml:space="preserve">
<style type="text/css">
	.st0{opacity:0.7;}
	.st1{fill:#FFFFFF;}
	.st2{fill:#DF9179;}
	.st3{fill:#D9DDF7;}
	.st4{fill:#240448;}
	.st5{opacity:0.42;}
	.st6{fill:#A2ADDB;}
	.st7{fill:#5C6CFF;}
	.st8{opacity:0.7;fill:#FFFFFF;}
	.st9{opacity:0.5;fill:#B3BDF4;}
	.st10{opacity:0.5;fill:#FFFFFF;}
	.st11{fill:#FCCC6C;}
	.st12{fill:#2CA3DB;}
	.st13{fill:#FDFDFF;stroke:#141416;stroke-miterlimit:10;}
	.st14{fill:#FDFDFF;}
	.st15{fill:none;stroke:#141416;stroke-miterlimit:10;}
	.st16{fill:#2A1237;}
	.st17{fill:#B3BDF4;}
	.st18{fill:#CFD8DC;}
	.st19{opacity:0.7;fill:#B3BDF4;}
	.st20{fill-rule:evenodd;clip-rule:evenodd;fill:#5865F2;}
	.st21{fill-rule:evenodd;clip-rule:evenodd;fill:#FFFFFF;}
	.st22{fill:url(#SVGID_1_);}
	.st23{fill:#F5F9FD;}
	.st24{fill:#A9C9DD;}
	.st25{fill:#C8DAEA;}
</style>
<g>
	<g class="st0">
		<path class="st1" d="M1384.3,1365.5c-0.2,0-0.5,0-0.7-0.1l-209.7-62c-1.3-0.4-2-1.7-1.6-3c0.4-1.3,1.7-2,3-1.6l209.7,62
			c1.3,0.4,2,1.7,1.6,3C1386.3,1364.9,1385.4,1365.5,1384.3,1365.5z"/>
	</g>
	<g>
		<path class="st1" d="M1384.3,1365.5c-0.5,0-0.9-0.1-1.4-0.4c-1.1-0.8-1.4-2.3-0.6-3.4l141.1-207.5c0.8-1.1,2.3-1.4,3.4-0.6
			c1.1,0.8,1.4,2.3,0.6,3.4l-141.1,207.5C1385.9,1365.2,1385.1,1365.5,1384.3,1365.5z"/>
	</g>
	<g class="st0">
		<path class="st1" d="M1610.1,904.8c0,0-0.1,0-0.1,0l-112.5-4.7c-0.8,0-1.6-0.5-2-1.2c-0.4-0.7-0.4-1.6,0-2.4l69.7-125.8
			c0.7-1.2,2.1-1.6,3.3-0.9c1.2,0.7,1.6,2.1,0.9,3.3l-67.8,122.3l108.6,4.6c1.3,0.1,2.4,1.2,2.3,2.5
			C1612.5,903.8,1611.4,904.8,1610.1,904.8z"/>
	</g>
	<g class="st0">
		<path class="st1" d="M549.9,1288.9c-1,0-2-0.7-2.3-1.7c-0.4-1.3,0.3-2.7,1.6-3.1l232.5-74.5l-193.3-190.7
			c-0.7-0.7-0.9-1.9-0.5-2.8l194.6-399.2l-133.3-57.1c-1.2-0.5-1.8-2-1.3-3.2c0.5-1.2,2-1.8,3.2-1.3l135.7,58.1
			c0.6,0.3,1.1,0.8,1.3,1.4c0.2,0.6,0.2,1.3-0.1,1.9l-194.9,400L787.9,1209c0.6,0.6,0.9,1.5,0.7,2.3c-0.2,0.8-0.8,1.5-1.6,1.8
			l-236.4,75.8C550.3,1288.9,550.1,1288.9,549.9,1288.9z"/>
	</g>
	<g>
		<path class="st1" d="M549.8,1288.9c-0.4,0-0.8-0.1-1.2-0.3L414.1,1209c-1.2-0.7-1.5-2.2-0.9-3.3c0.7-1.2,2.2-1.5,3.3-0.9
			l134.5,79.6c1.2,0.7,1.5,2.2,0.9,3.3C551.5,1288.5,550.7,1288.9,549.8,1288.9z"/>
	</g>
	<g>
		<path class="st1" d="M1500.5,1188.5c-0.8,0-1.5-0.4-2-1l-114.7-164.6l-194.5,154c-1.1,0.8-2.6,0.7-3.4-0.4
			c-0.8-1.1-0.7-2.6,0.4-3.4l196.5-155.6c0.5-0.4,1.2-0.6,1.9-0.5c0.7,0.1,1.3,0.5,1.6,1l116.2,166.7c0.8,1.1,0.5,2.6-0.6,3.4
			C1501.5,1188.3,1501,1188.5,1500.5,1188.5z"/>
	</g>
	<g>
		<path class="st1" d="M1174.7,878.3c-0.5,0-1-0.2-1.4-0.5c-1.1-0.8-1.3-2.3-0.5-3.4l153.2-212c0.8-1.1,2.3-1.3,3.4-0.5
			c1.1,0.8,1.3,2.3,0.5,3.4l-153.2,212C1176.2,877.9,1175.4,878.3,1174.7,878.3z"/>
	</g>
	<g>
		<path class="st1" d="M1335.8,666.2c-0.3,0-0.7-0.1-1-0.2l-165.9-74.7c-1.2-0.6-1.8-2-1.2-3.2c0.6-1.2,2-1.8,3.2-1.2l165.9,74.7
			c1.2,0.6,1.8,2,1.2,3.2C1337.6,665.7,1336.7,666.2,1335.8,666.2z"/>
	</g>
	<g class="st0">
		<path class="st1" d="M544,919c-0.1,0-0.2,0-0.4,0c-1.3-0.2-2.2-1.4-2-2.8l29.6-192.3c0.2-1.3,1.4-2.2,2.8-2c1.3,0.2,2.2,1.4,2,2.8
			l-29.6,192.3C546.3,918.1,545.2,919,544,919z"/>
	</g>
	<g>
		<path class="st1" d="M544,919c-0.7,0-1.4-0.3-1.9-0.9L411.6,749.7c-0.8-1.1-0.6-2.6,0.4-3.4c1.1-0.8,2.6-0.6,3.4,0.4L546,915.1
			c0.8,1.1,0.6,2.6-0.4,3.4C545.1,918.8,544.6,919,544,919z"/>
	</g>
	<g>
		<path class="st1" d="M918.4,843.4c-0.8,0-1.6-0.4-2.1-1.2L783.7,616.9c-0.7-1.2-0.3-2.7,0.9-3.3c1.2-0.7,2.7-0.3,3.3,0.9
			l132.6,225.3c0.7,1.2,0.3,2.7-0.9,3.3C919.2,843.3,918.8,843.4,918.4,843.4z"/>
	</g>
	<g>
		<path class="st1" d="M1072.6,677c-0.2,0-0.3,0-0.5,0L785.3,618c-1.3-0.3-2.2-1.6-1.9-2.9c0.3-1.3,1.6-2.2,2.9-1.9l286.8,58.9
			c1.3,0.3,2.2,1.6,1.9,2.9C1074.7,676.2,1073.7,677,1072.6,677z"/>
	</g>
	<g class="st0">
		<path class="st1" d="M1024.3,855.9c-0.2,0-0.4,0-0.6-0.1c-1.3-0.4-2.1-1.7-1.7-3l48.3-178.9c0.3-1.3,1.7-2.1,3-1.7
			c1.3,0.4,2.1,1.7,1.7,3l-48.3,178.9C1026.3,855.2,1025.3,855.9,1024.3,855.9z"/>
	</g>
	<g>
		<path class="st1" d="M1156.4,947.3c-1.2,0-2.2-0.9-2.4-2.1c-0.2-1.3,0.7-2.6,2.1-2.7l341.2-47.3c1.3-0.2,2.6,0.7,2.7,2.1
			c0.2,1.3-0.7,2.6-2.1,2.7l-341.2,47.3C1156.6,947.3,1156.5,947.3,1156.4,947.3z"/>
	</g>
	<g>
		<path class="st1" d="M1497.6,900c-0.8,0-1.5-0.3-2-1l-169.7-233.8c-0.8-1.1-0.5-2.6,0.5-3.4c1.1-0.8,2.6-0.5,3.4,0.5l169.7,233.8
			c0.8,1.1,0.5,2.6-0.5,3.4C1498.6,899.9,1498.1,900,1497.6,900z"/>
	</g>
	<g class="st0">
		<path class="st1" d="M1384.3,1021.8c-0.2,0-0.4,0-0.6-0.1l-206.3-56.8c-1.3-0.4-2.1-1.7-1.7-3c0.4-1.3,1.7-2.1,3-1.7L1385,1017
			c1.3,0.4,2.1,1.7,1.7,3C1386.4,1021.1,1385.4,1021.8,1384.3,1021.8z"/>
	</g>
	<g>
		<path class="st1" d="M928.1,1068.2c-0.2,0-0.4,0-0.6-0.1l-394.3-92c-1.3-0.3-2.1-1.6-1.8-2.9c0.3-1.3,1.6-2.1,2.9-1.8l394.3,92
			c1.3,0.3,2.1,1.6,1.8,2.9C930.2,1067.4,929.2,1068.2,928.1,1068.2z"/>
	</g>
	
		<ellipse transform="matrix(0.7071 -0.7071 0.7071 0.7071 -72.909 1165.7394)" class="st1" cx="1370.7" cy="670.9" rx="113.4" ry="113.4"/>
	
		<ellipse transform="matrix(0.7071 -0.7071 0.7071 0.7071 -521.4132 694.0717)" class="st1" cx="577.1" cy="976.4" rx="147.7" ry="147.7"/>
	<path class="st2" d="M984.5,1413.3c0,0,177.6,7.3,177.3-125.4c-0.4-132.6-233.6,71.2-233.6,71.2L984.5,1413.3z"/>
	<path class="st3" d="M913.8,1440.1c-10.9,0-20.1-7.9-21.8-18.7l-60.5-384.6l-33.5-212.7c-0.9-5.8,0.5-11.7,4-16.5
		c3.5-4.8,8.6-7.9,14.4-8.8l341.5-53.8c1.1-0.2,2.3-0.3,3.5-0.3c10.9,0,20.1,7.9,21.8,18.7l33.4,211.9l60.7,385.4
		c0.9,5.8-0.5,11.7-4,16.5c-3.5,4.8-8.6,7.9-14.4,8.8l-341.5,53.8C916.1,1440,914.9,1440.1,913.8,1440.1z"/>
	<g>
		<path class="st4" d="M1161.3,748.3c9,0,16.9,6.6,18.4,15.7l33.4,211.9l60.7,385.4c1.6,10.2-5.3,19.7-15.5,21.3l-341.5,53.8
			c-1,0.2-2,0.2-2.9,0.2c-9,0-16.9-6.6-18.4-15.7l-60.5-384.6l-33.5-212.7c-1.6-10.2,5.3-19.7,15.5-21.3l341.5-53.8
			C1159.3,748.3,1160.3,748.3,1161.3,748.3L1161.3,748.3z M1161.3,741.3L1161.3,741.3c-1.3,0-2.7,0.1-4,0.3l-341.5,53.8
			c-6.8,1.1-12.7,4.7-16.7,10.2c-4,5.5-5.7,12.3-4.6,19l33.5,212.7l60.5,384.6c1,6.1,4.1,11.6,8.7,15.5c4.6,3.9,10.5,6.1,16.5,6.1
			c1.3,0,2.7-0.1,4-0.3l341.5-53.8c13.9-2.2,23.5-15.3,21.3-29.3l-60.7-385.4l-33.4-211.9c-1-6.1-4.1-11.6-8.7-15.5
			C1173.2,743.5,1167.3,741.3,1161.3,741.3L1161.3,741.3z"/>
	</g>
	<path class="st1" d="M887.7,1368.6l378.3-57.6l7.7,50.3c1.6,10.2-5.3,19.7-15.5,21.3l-341.5,53.8c-10.2,1.6-19.7-5.3-21.3-15.5
		L887.7,1368.6z"/>
	<path class="st1" d="M1187.8,814.4l-378,59.7l-7.9-50.3c-1.7-10.2,5.2-19.7,15.4-21.4l341.2-55.6c10.2-1.7,19.7,5.2,21.4,15.4
		L1187.8,814.4z"/>
	<g class="st5">
		
			<ellipse transform="matrix(0.7071 -0.7071 0.7071 0.7071 -458.7201 1049.5248)" class="st1" cx="1037.5" cy="1078.5" rx="132.7" ry="132.7"/>
	</g>
	<path class="st6" d="M1024.2,951.3l-1-9.6c-75.7,7.8-130.6,76.2-122.5,151.2l9.6-1C902.7,1021.9,954.3,958.2,1024.2,951.3z"/>
	<path class="st6" d="M1050.9,1205.7l1,9.6c75.8-7.7,130.6-76.3,122.5-151.2l-9.6,1C1172.3,1134.8,1121.2,1198.6,1050.9,1205.7z"/>
	<path class="st7" d="M1027.5,1138.1c34.1-3.8,36.3-3.2,42.2-5.2c26.1-8.8,29.6-44.6,5-58.1c7.6-6.6,12.2-16.5,11-27.2
		c-1.8-17.5-17.6-30.2-35.1-28.4l-22,2.3l-0.8-7.3c-0.3-3.2-3.2-5.5-6.4-5.1c-3.2,0.3-5.5,3.2-5.1,6.4l0.8,7.3l-1.7,0.2l-0.7-6.6
		c-0.3-3.2-3.2-5.5-6.4-5.1c-3.2,0.3-5.5,3.2-5.1,6.4l0.7,6.6l-13.1,1.4c-3.2,0.3-5.5,3.2-5.1,6.4c0.3,3.2,3.2,5.5,6.4,5.1l13.1-1.4
		l9.7,92.2l-13.1,1.4c-3.2,0.3-5.5,3.2-5.1,6.4c0.3,3.2,3.2,5.5,6.4,5.1l13.1-1.4l0.7,6.6l11.5-1.2L1027.5,1138.1z M1051.9,1030.8
		c11.2-1.2,21.2,7,22.4,18.1c1.2,11.1-7,21.1-18.1,22.2l-35.3,3.7l-4.2-40.3L1051.9,1030.8z M1022,1086.3l35.3-3.7
		c11.2-1.2,21.2,7,22.4,18.1c1.2,11.1-6.9,21.1-18.1,22.2l-35.3,3.7L1022,1086.3z"/>
	<path class="st8" d="M854.9,928.5l16.9,97c0.4,2.5,2.9,4.3,5.4,3.8l281.2-45.9c2.6-0.4,4.4-2.9,3.9-5.5l-18.2-95.6
		c-0.5-2.5-2.9-4.2-5.4-3.8L858.9,923C856.2,923.4,854.5,925.9,854.9,928.5z"/>
	<path class="st9" d="M1087.5,1111.6l9.5,59.2c0.4,2.6,2.9,4.4,5.5,3.9l91.4-16.6c2.6-0.5,4.3-2.9,3.8-5.5l-10.7-57.9
		c-0.5-2.5-2.9-4.2-5.4-3.8l-90.2,15.3C1088.8,1106.7,1087.1,1109.1,1087.5,1111.6z"/>
	<path class="st10" d="M898.7,1138l141.2-22.9c2.6-0.4,4.4-2.9,3.9-5.5l-10.7-57.9c-0.5-2.5-2.8-4.2-5.4-3.8l-140.1,21.6L898.7,1138
		z"/>
	<path class="st8" d="M912.3,1223.7l4.8,29c0.4,2.2,2.4,3.7,4.6,3.3l282.7-46.1c2.2-0.4,3.7-2.4,3.3-4.6l-4.2-27.9
		c-0.3-2.2-2.4-3.7-4.6-3.4L915.6,1219C913.4,1219.4,911.9,1221.5,912.3,1223.7z"/>
	<g>
		<path class="st11" d="M599,1066.5l-12.5,49l-2.1,8.3c-2.2,0.1-4.3,0.1-6.5,0.1c-5.4,0-10.7-0.3-16-0.8c-4-0.4-7.9-0.9-11.7-1.6
			c-8.8-1.5-17.4-3.8-25.6-6.7c-5.5-1.9-10.9-4.2-16.1-6.7l15.6-61L599,1066.5z"/>
	</g>
	<g>
		<g>
			<path class="st12" d="M690.3,1074.2c-14.4,15.4-31.8,27.8-51.2,36.4c-14.6,6.5-30.4,10.8-46.9,12.5c-3.2,0.3-6.3,0.5-9.6,0.7
				c-2.1,0.1-4.3,0.1-6.4,0.1c-5.3,0-10.5-0.3-15.7-0.8c-3.9-0.4-7.7-0.9-11.5-1.6c-8.6-1.5-17-3.8-25.1-6.7
				c-5.4-1.9-10.7-4.2-15.8-6.7c-2.7-1.3-5.4-2.7-8-4.2c-0.1-30.7,13.6-60.2,38-78.9c1.3-1,2.6-2,3.9-2.9c1.2-0.8,2.4-1.6,3.6-2.4
				c13.8-8.6,29.8-13.9,47-14.6c1.4-0.1,2.8-0.1,4.2-0.1c1.1,0,2.3,0,3.4,0.1c16.6,0.6,32.1,5.3,45.5,13.2c7.5,4.4,14.4,9.8,20.5,16
				C677.2,1045.5,685.5,1059.1,690.3,1074.2z"/>
		</g>
	</g>
	<g>
		<g>
			<path class="st13" d="M546.4,1023.8l2.3-46.9l2.1-30.1l1-14.3c0.9-13.1,12.3-23,25.4-22.1c1,0.1,2,0.2,3,0.4
				c9.6,1.9,17,9.5,18.7,18.9c0.4,2,0.5,4,0.4,6.1l-3.5,50.5l-1.4,19.7C593.6,1019.1,545.5,1036.9,546.4,1023.8z"/>
		</g>
	</g>
	<g>
		<g>
			<g>
				<polygon class="st12" points="607.3,975.6 538.4,993.4 546.4,1034.3 603.3,1026.1 				"/>
			</g>
		</g>
	</g>
	<g>
		<g>
			<g>
				<path class="st14" d="M537.9,971.4L537.9,971.4c-14.8-6.7-21.4-24.1-14.7-38.9l10-22.2c8.8-19.5,31.7-28.2,51.2-19.3l0,0
					c19.5,8.8,28.2,31.7,19.3,51.2l-2.3,5.2C590.5,971.6,562.1,982.3,537.9,971.4z"/>
				<path class="st15" d="M537.9,971.4L537.9,971.4c-14.8-6.7-21.4-24.1-14.7-38.9l10-22.2c8.8-19.5,31.7-28.2,51.2-19.3l0,0
					c19.5,8.8,28.2,31.7,19.3,51.2l-2.3,5.2C590.5,971.6,562.1,982.3,537.9,971.4z"/>
			</g>
		</g>
	</g>
	<path class="st16" d="M630,920.5c-0.2-0.9-0.5-1.7-0.9-2.5c-1.4-2.8-4.1-5-7.2-5.8c-0.5-0.1-1.2-0.3-1.4-0.8c-0.1-0.3,0-0.6,0-0.8
		c0.5-2.2,1.5-4.2,2.4-6.3c5-11.1,4-29.2-8.7-34.8c-2.4-1.1-5-1.6-7.6-1.5c-0.5,0-1.1,0.1-1.5,0.4c-0.5,0.4-0.6,1.2-0.7,1.8
		c-0.2,1.8,0,3.7,0.4,5.4c-1.7-6.9-5.7-13.4-12.8-16c-2-0.8-4.6-1.5-6.7-0.4c-1.6,0.8-2.5,2.7-2.9,4.5c-0.4,1.8-0.3,3.6-0.7,5.4
		c0-0.8-0.5-1.6-1-2.3c-6.6-8.4-17.5-10.2-27.6-7.8c-13.2,3.1-27.1,13-32.4,25.8c-7.8,18.9,10.6,27,26.8,26.7
		c6.8-0.1,13.6-1.3,20.3-0.3c13.1,2,15.2,12.1,20,22.4c4,8.7,12,14.1,21.9,13.3c7.3-0.6,14.1-5,17.5-11.5
		C629.6,931.3,631.2,925.4,630,920.5z"/>
	<g>
		<g>
			<g>
				<path class="st14" d="M611.7,941.3c-2,9.9-11.6,16.3-21.5,14.3c-9.9-2-16.3-11.6-14.3-21.5c2-9.9,11.6-16.3,21.5-14.3
					C607.3,921.8,613.7,931.4,611.7,941.3z"/>
				<path class="st15" d="M611.7,941.3c-2,9.9-11.6,16.3-21.5,14.3c-9.9-2-16.3-11.6-14.3-21.5c2-9.9,11.6-16.3,21.5-14.3
					C607.3,921.8,613.7,931.4,611.7,941.3z"/>
			</g>
		</g>
	</g>
	<g>
		<path class="st11" d="M1356.5,740.6l9.6,37.5l1.6,6.3c1.7,0.1,3.3,0.1,5,0.1c4.1,0,8.2-0.2,12.2-0.6c3-0.3,6-0.7,9-1.2
			c6.7-1.2,13.3-2.9,19.6-5.1c4.2-1.5,8.3-3.2,12.3-5.1l-11.9-46.6L1356.5,740.6z"/>
	</g>
	<g>
		<path class="st7" d="M1283.9,746.5c11.2,11.7,24.7,21.3,39.8,27.8c11.4,5,23.7,8.2,36.5,9.5c2.5,0.2,4.9,0.4,7.4,0.5
			c1.7,0.1,3.3,0.1,5,0.1c4.1,0,8.2-0.2,12.2-0.6c3-0.3,6-0.7,9-1.2c6.7-1.2,13.3-2.9,19.6-5.1c4.2-1.5,8.3-3.2,12.3-5.1
			c2.1-1,4.2-2.1,6.3-3.2c0.1-23.4-10.6-46-29.6-60.2c-1-0.8-2-1.5-3.1-2.2c-0.9-0.6-1.9-1.2-2.8-1.8c-10.7-6.6-23.2-10.6-36.6-11.2
			c-1.1,0-2.2-0.1-3.3-0.1c-0.9,0-1.8,0-2.6,0c-12.9,0.4-25,4.1-35.5,10.1c-5.9,3.4-11.2,7.5-16,12.2
			C1294.1,724.6,1287.6,735,1283.9,746.5z"/>
	</g>
	<g>
		<g>
			<path class="st13" d="M1382.5,714.4l4.8-35.5l2.7-22.9l1.3-10.9c1.2-10-6-19-16-20.2c-0.8-0.1-1.6-0.1-2.3-0.1
				c-7.5,0.1-14.1,4.7-16.7,11.6c-0.6,1.4-0.9,2.9-1.1,4.5l-4.5,38.4l-1.7,15C1347.8,704.3,1381.4,724.4,1382.5,714.4z"/>
		</g>
	</g>
	<g>
		<g>
			<g>
				<path class="st14" d="M1403.1,671.4L1403.1,671.4c11.3-5.1,16.3-18.4,11.2-29.7l-7.7-17c-6.7-14.9-24.2-21.5-39.1-14.8l0,0
					c-14.9,6.7-21.5,24.2-14.8,39.1l1.8,4C1362.9,671.5,1384.7,679.7,1403.1,671.4z"/>
				<path class="st15" d="M1403.1,671.4L1403.1,671.4c11.3-5.1,16.3-18.4,11.2-29.7l-7.7-17c-6.7-14.9-24.2-21.5-39.1-14.8l0,0
					c-14.9,6.7-21.5,24.2-14.8,39.1l1.8,4C1362.9,671.5,1384.7,679.7,1403.1,671.4z"/>
			</g>
		</g>
	</g>
	
		<ellipse transform="matrix(0.2925 -0.9563 0.9563 0.2925 360.0902 1733.3269)" class="st16" cx="1351.4" cy="623.3" rx="23.6" ry="23.6"/>
	
		<ellipse transform="matrix(4.760800e-03 -1 1 4.760800e-03 778.6193 1997.8014)" class="st16" cx="1393" cy="607.7" rx="20.2" ry="20.2"/>
	
		<ellipse transform="matrix(0.5609 -0.8279 0.8279 0.5609 104.899 1395.2666)" class="st16" cx="1367.8" cy="598.7" rx="16.1" ry="16.1"/>
	
		<ellipse transform="matrix(0.6287 -0.7777 0.7777 0.6287 36.442 1270.8699)" class="st16" cx="1349" cy="597.3" rx="9.3" ry="9.3"/>
	
		<ellipse transform="matrix(0.1062 -0.9943 0.9943 0.1062 606.9919 1927.6307)" class="st16" cx="1375.8" cy="626.2" rx="16.1" ry="16.1"/>
	<g>
		<g>
			<g>
				<path class="st14" d="M1342.5,648.4c1.5,7.6,8.9,12.5,16.4,11c7.6-1.5,12.5-8.9,11-16.4c-1.5-7.6-8.9-12.5-16.4-11
					C1345.9,633.5,1341,640.9,1342.5,648.4z"/>
				<path class="st15" d="M1342.5,648.4c1.5,7.6,8.9,12.5,16.4,11c7.6-1.5,12.5-8.9,11-16.4c-1.5-7.6-8.9-12.5-16.4-11
					C1345.9,633.5,1341,640.9,1342.5,648.4z"/>
			</g>
		</g>
	</g>
	<path class="st1" d="M1418.3,1126.3c-10.8,15.5-17.1,34.4-17.1,54.7c0,53.2,43.1,96.3,96.3,96.3c53.2,0,96.3-43.1,96.3-96.3
		c0-53.2-43.1-96.3-96.3-96.3C1464.7,1084.7,1435.7,1101.2,1418.3,1126.3L1418.3,1126.3z"/>
	<g>
		<path class="st11" d="M1510.4,1240.3l-8.1,31.8l-1.4,5.4c-1.4,0.1-2.8,0.1-4.2,0.1c-3.5,0-7-0.2-10.4-0.5c-2.6-0.3-5.1-0.6-7.6-1
			c-5.7-1-11.3-2.5-16.6-4.3c-3.6-1.3-7.1-2.7-10.4-4.3l10.1-39.5L1510.4,1240.3z"/>
	</g>
	<path class="st16" d="M1484.4,1159.6h-16.5c-7.7,0-13.9-6.2-13.9-13.9l0,0c0-7.7,6.2-13.9,13.9-13.9h16.5c7.7,0,13.9,6.2,13.9,13.9
		v0C1498.3,1153.4,1492.1,1159.6,1484.4,1159.6z"/>
	<g>
		<path class="st17" d="M1572.1,1245.3c-9.5,10-21,18.1-33.8,23.6c-9.7,4.2-20.1,7-31,8.1c-2.1,0.2-4.2,0.4-6.3,0.4
			c-1.4,0.1-2.8,0.1-4.2,0.1c-3.5,0-7-0.2-10.4-0.5c-2.6-0.3-5.1-0.6-7.6-1c-5.7-1-11.3-2.5-16.6-4.3c-3.6-1.3-7.1-2.7-10.4-4.3
			c-1.8-0.9-3.6-1.8-5.3-2.7c0-19.9,9-39,25.1-51.2c0.9-0.6,1.7-1.3,2.6-1.9c0.8-0.5,1.6-1.1,2.4-1.5c9.1-5.6,19.7-9,31.1-9.5
			c0.9,0,1.9-0.1,2.8-0.1c0.8,0,1.5,0,2.2,0c10.9,0.4,21.2,3.4,30.1,8.6c5,2.9,9.5,6.4,13.6,10.4
			C1563.4,1226.7,1568.9,1235.5,1572.1,1245.3z"/>
	</g>
	<g>
		<g>
			<path class="st13" d="M1488.3,1218l-4.1-30.2l-2.3-19.5l-1.1-9.2c-1-8.5,5.1-16.2,13.5-17.1c0.7-0.1,1.3-0.1,2-0.1
				c6.3,0.1,11.9,4,14.2,9.8c0.5,1.2,0.8,2.5,1,3.8l3.8,32.6l1.5,12.7C1517.8,1209.4,1489.2,1226.5,1488.3,1218z"/>
		</g>
	</g>
	<g>
		<g>
			<g>
				<path class="st14" d="M1477.4,1185.1L1477.4,1185.1c-10.4-1.9-17.3-11.8-15.4-22.1l2.8-15.6c2.5-13.7,15.5-22.7,29.2-20.3l0,0
					c13.7,2.5,22.7,15.5,20.3,29.2l-0.7,3.6C1510.5,1176.9,1494.3,1188.1,1477.4,1185.1z"/>
				<path class="st15" d="M1477.4,1185.1L1477.4,1185.1c-10.4-1.9-17.3-11.8-15.4-22.1l2.8-15.6c2.5-13.7,15.5-22.7,29.2-20.3l0,0
					c13.7,2.5,22.7,15.5,20.3,29.2l-0.7,3.6C1510.5,1176.9,1494.3,1188.1,1477.4,1185.1z"/>
			</g>
		</g>
	</g>
	<path class="st16" d="M1496.4,1149.6h-21.1c-9.8,0-17.8-8-17.8-17.8l0,0c0-9.8,8-17.8,17.8-17.8h21.1c9.8,0,17.8,8,17.8,17.8l0,0
		C1514.2,1141.6,1506.3,1149.6,1496.4,1149.6z"/>
	<path class="st16" d="M1513.9,1144.1h-13.4c-6.2,0-11.3-5.1-11.3-11.3l0,0c0-6.2,5.1-11.3,11.3-11.3h13.4c6.2,0,11.3,5.1,11.3,11.3
		l0,0C1525.2,1139.1,1520.1,1144.1,1513.9,1144.1z"/>
	<path class="st16" d="M1498.2,1160.2l-3.9-10.4c-2.7-7.1,0.9-15.1,8-17.8l0,0c7.1-2.7,15.1,0.9,17.8,8l3.9,10.4
		c2.7,7.1-0.9,15.1-8,17.8h0C1508.9,1171,1500.9,1167.4,1498.2,1160.2z"/>
	<g>
		<g>
			<g>
				<path class="st14" d="M1518.8,1161.9c-1.3,6.4-7.5,10.6-13.9,9.3s-10.6-7.5-9.3-13.9c1.3-6.4,7.5-10.6,13.9-9.3
					C1515.9,1149.3,1520.1,1155.5,1518.8,1161.9z"/>
				<path class="st15" d="M1518.8,1161.9c-1.3,6.4-7.5,10.6-13.9,9.3s-10.6-7.5-9.3-13.9c1.3-6.4,7.5-10.6,13.9-9.3
					C1515.9,1149.3,1520.1,1155.5,1518.8,1161.9z"/>
			</g>
		</g>
	</g>
	<g>
		<path class="st1" d="M577.1,727.1c-10,0-18.1-8.1-18.1-18.1c0-10,8.1-18.1,18.1-18.1c10,0,18.1,8.1,18.1,18.1
			C595.2,719,587.1,727.1,577.1,727.1z M577.1,695.7c-7.3,0-13.3,6-13.3,13.3c0,7.3,6,13.3,13.3,13.3s13.3-6,13.3-13.3
			C590.4,701.7,584.4,695.7,577.1,695.7z"/>
	</g>
	
		<ellipse transform="matrix(0.2298 -0.9732 0.9732 0.2298 -42.1545 1059.9639)" class="st1" cx="648.6" cy="556.6" rx="15.7" ry="15.7"/>
	<g>
		<path class="st1" d="M403.2,1215c-10,0-18.1-8.1-18.1-18.1c0-10,8.1-18.1,18.1-18.1c10,0,18.1,8.1,18.1,18.1
			C421.4,1206.8,413.2,1215,403.2,1215z M403.2,1183.6c-7.3,0-13.3,6-13.3,13.3c0,7.3,6,13.3,13.3,13.3c7.3,0,13.3-6,13.3-13.3
			C416.5,1189.5,410.6,1183.6,403.2,1183.6z"/>
	</g>
	
		<ellipse transform="matrix(0.7071 -0.7071 0.7071 0.7071 -315.3383 1277.427)" class="st1" cx="1384.3" cy="1019.4" rx="15.7" ry="15.7"/>
	<circle class="st1" cx="1167.5" cy="585.7" r="11.1"/>
	
		<ellipse transform="matrix(0.161 -0.987 0.987 0.161 -215.5177 1164.4249)" class="st10" cx="577.1" cy="709" rx="11.1" ry="11.1"/>
	<circle class="st1" cx="1612.5" cy="904.8" r="11.1"/>
	
		<ellipse transform="matrix(0.9223 -0.3864 0.3864 0.9223 -405.4191 397.604)" class="st10" cx="786.2" cy="1207.2" rx="11.1" ry="11.1"/>
	
		<ellipse transform="matrix(0.2298 -0.9732 0.9732 0.2298 458.0272 2118.4094)" class="st1" cx="1567.4" cy="769.8" rx="15.7" ry="15.7"/>
	
		<ellipse transform="matrix(0.7071 -0.7071 0.7071 0.7071 -404.397 505.92)" class="st1" cx="408.5" cy="741.1" rx="32.1" ry="32.1"/>
	
		<ellipse transform="matrix(0.9239 -0.3827 0.3827 0.9239 -175.0971 461.4853)" class="st1" cx="1072.5" cy="670.9" rx="32.1" ry="32.1"/>
	
		<ellipse transform="matrix(0.7071 -0.7071 0.7071 0.7071 -554.039 1373.231)" class="st1" cx="1380.6" cy="1355.4" rx="32.1" ry="32.1"/>
	<circle class="st1" cx="553.1" cy="1277.3" r="63.8"/>
	<circle class="st1" cx="786.2" cy="611" r="13.7"/>
	<circle class="st1" cx="1497.6" cy="897.6" r="56.3"/>
	<circle class="st18" cx="996" cy="810.3" r="16.7"/>
	<path class="st19" d="M926.8,1290.2l4.5,27.1c0.6,3.4,3.8,5.8,7.3,5.2L1218,1276c3.5-0.6,5.9-3.9,5.2-7.4l-5.1-27.1
		c-0.6-3.4-3.9-5.6-7.3-5.1L932,1282.9C928.6,1283.4,926.3,1286.7,926.8,1290.2z"/>
	<g>
		<circle class="st20" cx="553.1" cy="1277.3" r="47.9"/>
		<path class="st21" d="M543,1273.4c3,0,5.5,2.8,5.5,6.3s-2.4,6.3-5.5,6.3s-5.5-2.8-5.5-6.3C537.5,1276.2,540,1273.4,543,1273.4
			L543,1273.4z M563.3,1273.4c3,0,5.5,2.8,5.5,6.3s-2.4,6.3-5.5,6.3c-3,0-5.5-2.8-5.5-6.3C557.8,1276.2,560.3,1273.4,563.3,1273.4z
			 M546.1,1256.6l-1.8-3.4c-4.9,0.9-8.2,2-12.6,3.9c-5.7,8.6-10.6,21-9.1,36.2c5.6,4.2,9.3,6,15.6,8.1l3.4-5.5l-5.2-2.5l1.1-1
			c11.7,4.7,19.5,4.7,31.2,0l1.1,1l-5.2,2.5l3.4,5.5c6.3-2.1,10-3.9,15.6-8.1c1.5-15.2-3.5-27.6-9.1-36.2c-4.5-1.9-7.7-3-12.6-3.9
			l-1.8,3.4C555.4,1255.9,550.9,1255.9,546.1,1256.6L546.1,1256.6z"/>
	</g>
	<linearGradient id="SVGID_1_" gradientUnits="userSpaceOnUse" x1="1497.4366" y1="851.2272" x2="1497.4366" y2="946.5695">
		<stop  offset="0" style="stop-color:#39B0E3"/>
		<stop  offset="1" style="stop-color:#1D93D2"/>
	</linearGradient>
	<circle class="st22" cx="1497.4" cy="897.6" r="50.4"/>
	<g>
		<path id="XMLID_1_" class="st23" d="M1519.2,873.8l-52.5,19.8c-2,0.8-1.9,3.6,0.2,4.2l18.4,5.2c0.2,0.1,0.5,0.2,0.7,0.4l21.7,17.4
			c2.1,1.7,5.2,0.6,5.8-2l8.3-42.9C1521.9,874.4,1520.5,873.3,1519.2,873.8z"/>
		<path class="st24" d="M1488.9,918.1l6.6-7.1l-7.8-6.3l-1.7,14C1487,919.1,1488.1,918.9,1488.9,918.1z"/>
		<path class="st25" d="M1509.9,882.9l-30.3,18.5l4.8,15.7c0.3,0.9,0.9,1.5,1.6,1.7l1.7-14l22.7-21.2
			C1510.9,883.2,1510.4,882.6,1509.9,882.9z"/>
	</g>
	<path class="st10" d="M1201.2,689.2c0,0.7-0.4,1.2-1,1.5l-9.5,3.6c-3.3,1.3-6,4-7.2,7.3l-3.6,9.9c0,0.1-0.1,0.1-0.1,0.2
		c0,0.1-0.1,0.1-0.1,0.2c-0.1,0.1-0.1,0.1-0.2,0.2c-0.1,0.1-0.2,0.2-0.4,0.2c-0.1,0-0.2,0.1-0.3,0.1c-0.1,0-0.2,0-0.3,0l-0.3,0
		c-0.1,0-0.2,0-0.3-0.1c-0.1-0.1-0.3-0.2-0.4-0.3c-0.1-0.1-0.1-0.1-0.2-0.2c0,0-0.1-0.1-0.1-0.1c0-0.1-0.1-0.1-0.1-0.2l-3.6-9.9
		c-1.2-3.4-3.8-6-7.2-7.3l-9.5-3.6c-0.6-0.2-1-0.8-1-1.5c0-0.7,0.5-1.3,1.1-1.5l8.7-2.7c3.8-1.2,6.7-4.1,8-7.8l3.5-10.4
		c0-0.1,0.1-0.2,0.2-0.3c0-0.1,0.1-0.1,0.2-0.2c0.1-0.1,0.3-0.2,0.5-0.3c0.1,0,0.1,0,0.2-0.1c0.1,0,0.2,0,0.3,0c0.1,0,0.2,0,0.3,0
		c0.1,0,0.1,0,0.2,0.1c0.2,0.1,0.3,0.2,0.5,0.3c0.1,0.1,0.1,0.1,0.1,0.2c0.1,0.1,0.2,0.2,0.2,0.4l3.5,10.4c1.3,3.7,4.2,6.6,8,7.8
		l8.7,2.7C1200.7,687.9,1201.2,688.5,1201.2,689.2z"/>
	<path class="st10" d="M867.6,1421.4c0.5,0.4,0.8,1,0.7,1.7l-2.3,9.9c-0.8,3.5-0.1,7.1,2,10.1l6.2,8.6c0,0.1,0.1,0.1,0.1,0.2
		c0,0.1,0.1,0.1,0.1,0.2c0,0.1,0.1,0.2,0.1,0.3c0,0.1,0,0.3,0,0.4c0,0.1,0,0.2-0.1,0.3c0,0.1-0.1,0.2-0.1,0.2l-0.2,0.2
		c-0.1,0.1-0.1,0.1-0.2,0.2c-0.1,0.1-0.3,0.1-0.4,0.2c-0.1,0-0.2,0-0.3,0c-0.1,0-0.1,0-0.2,0c-0.1,0-0.2,0-0.3,0l-10.3-2.6
		c-3.5-0.9-7.2-0.2-10.1,1.8l-8.3,5.8c-0.5,0.4-1.3,0.4-1.8,0c-0.6-0.4-0.8-1.1-0.6-1.8l2.6-8.7c1.1-3.8,0.4-7.9-2-11l-6.7-8.8
		c-0.1-0.1-0.1-0.2-0.2-0.3c0-0.1-0.1-0.1-0.1-0.2c0-0.2,0-0.4,0-0.6c0-0.1,0-0.1,0.1-0.2c0-0.1,0.1-0.2,0.1-0.3
		c0.1-0.1,0.1-0.2,0.2-0.2c0,0,0.1-0.1,0.1-0.1c0.2-0.1,0.3-0.2,0.5-0.2c0.1,0,0.1,0,0.2,0c0.1,0,0.3,0,0.4,0l10.6,2.9
		c3.8,1,7.9,0.2,10.9-2.2l7.1-5.7C866.3,1421,867,1421,867.6,1421.4z"/>
</g>
</svg>
