<svg width="60" height="60" viewBox="0 0 60 60" fill="none" xmlns="http://www.w3.org/2000/svg">
<g id="Complete Digital Marketing Solutions&#226;&#128;&#168; 1">
<path id="Vector" d="M30.558 47.8017C28.962 47.8017 27.366 47.8017 25.758 47.8017C25.4097 47.8201 25.0614 47.7647 24.7359 47.6392C24.4105 47.5136 24.1152 47.3208 23.8694 47.0733C23.6236 46.8258 23.4328 46.5292 23.3095 46.2029C23.1863 45.8766 23.1333 45.5279 23.154 45.1797C23.154 44.5797 23.322 43.9317 23.094 43.4577C22.866 42.9837 22.236 42.7797 21.786 42.4497C19.4278 40.7186 17.6351 38.3277 16.6343 35.5788C15.6334 32.8298 15.4692 29.846 16.1625 27.0039C16.8557 24.1617 18.3752 21.5886 20.5293 19.6092C22.6834 17.6297 25.3755 16.3327 28.266 15.8817C30.218 15.5595 32.215 15.6348 34.1372 16.1031C36.0593 16.5714 37.8672 17.423 39.4522 18.6069C41.0373 19.7908 42.367 21.2826 43.3615 22.9928C44.3561 24.7031 44.995 26.5966 45.24 28.5597C45.996 34.6617 43.65 39.5097 38.55 42.9597C38.3494 43.0474 38.1826 43.1976 38.0744 43.388C37.9663 43.5783 37.9226 43.7985 37.95 44.0157C37.9741 44.4434 37.9741 44.8721 37.95 45.2997C37.9516 45.6266 37.8882 45.9505 37.7635 46.2527C37.6388 46.5549 37.4553 46.8292 37.2236 47.0598C36.9919 47.2904 36.7166 47.4726 36.4139 47.5958C36.1111 47.7191 35.7869 47.7809 35.46 47.7777C33.846 47.8137 32.202 47.8017 30.558 47.8017ZM29.358 46.1337C29.358 43.6917 29.292 41.3337 29.358 38.9337C29.4916 37.5664 29.1037 36.1992 28.272 35.1057C28.1446 34.9731 28.0686 34.7994 28.0576 34.6158C28.0466 34.4322 28.1013 34.2506 28.212 34.1037C28.4672 33.6364 28.5598 33.0974 28.4751 32.5716C28.3903 32.0459 28.1332 31.5633 27.744 31.1997C27.3608 30.8321 26.8691 30.598 26.3421 30.5323C25.8151 30.4665 25.281 30.5727 24.8191 30.8349C24.3573 31.0972 23.9925 31.5015 23.779 31.9878C23.5655 32.474 23.5146 33.0163 23.634 33.5337C23.7518 34.051 24.0376 34.5147 24.4469 34.8524C24.8562 35.19 25.3658 35.3825 25.896 35.3997C26.119 35.3695 26.3455 35.4176 26.537 35.5358C26.7285 35.6539 26.8731 35.8349 26.946 36.0477C27.0373 36.2598 27.152 36.4611 27.288 36.6477C27.5978 37.0791 27.7444 37.6064 27.702 38.1357C27.702 40.6197 27.702 43.1037 27.702 45.5877V46.1337H29.358ZM33.474 46.1337V45.5997C33.474 43.3737 33.528 41.1417 33.474 38.9097C33.3953 37.8441 33.6878 36.7841 34.302 35.9097C34.3843 35.7492 34.5115 35.6162 34.6681 35.5267C34.8247 35.4372 35.004 35.3952 35.184 35.4057C35.7025 35.4061 36.2072 35.2386 36.6226 34.9281C37.0379 34.6177 37.3415 34.1811 37.488 33.6837C37.6479 33.1802 37.6411 32.6385 37.4684 32.1391C37.2958 31.6398 36.9666 31.2095 36.5298 30.9122C36.093 30.615 35.572 30.4666 35.0441 30.4892C34.5163 30.5119 34.0098 30.7042 33.6 31.0377C33.169 31.3309 32.8529 31.7642 32.7052 32.264C32.5575 32.7639 32.5875 33.2995 32.79 33.7797C32.9581 34.061 33.0286 34.3899 32.9907 34.7154C32.9527 35.0409 32.8083 35.3447 32.58 35.5797C32.43 35.7897 32.328 36.0297 32.178 36.2397C31.9032 36.6432 31.7702 37.1265 31.8 37.6137C31.8 40.2777 31.8 42.9357 31.8 45.5937V46.1457L33.474 46.1337Z" fill="white"/>
<path id="Vector_2" d="M30.5219 50.2739H25.8419C25.1939 50.2739 24.8159 49.9619 24.8159 49.4519C24.8159 48.9419 25.1939 48.6299 25.8419 48.6299H35.3099C35.9579 48.6299 36.3359 48.9359 36.3359 49.4519C36.3359 49.9679 35.9579 50.2739 35.3099 50.2739H30.5219Z" fill="white"/>
<path id="Vector_3" d="M30.6298 51.0957H33.7138C34.3138 51.0957 34.6918 51.4197 34.6918 51.9177C34.6918 52.4157 34.3198 52.7337 33.7138 52.7397H27.4378C26.8378 52.7397 26.4658 52.4157 26.4658 51.9117C26.4658 51.4077 26.8318 51.0957 27.4378 51.0957H30.6298Z" fill="white"/>
<path id="Vector_4" d="M31.398 10.7522C31.398 11.2862 31.398 11.8142 31.398 12.3482C31.402 12.4566 31.3845 12.5648 31.3464 12.6664C31.3084 12.7681 31.2507 12.8612 31.1765 12.9404C31.1023 13.0196 31.0131 13.0834 30.9142 13.1279C30.8152 13.1725 30.7085 13.1971 30.6 13.2002C30.4879 13.2013 30.3767 13.1792 30.2736 13.1351C30.1705 13.0911 30.0776 13.0261 30.0009 12.9443C29.9242 12.8626 29.8653 12.7657 29.828 12.66C29.7906 12.5543 29.7757 12.442 29.784 12.3302C29.784 11.2622 29.784 10.2002 29.784 9.13816C29.7782 9.02781 29.7951 8.91744 29.8337 8.81386C29.8722 8.71028 29.9315 8.61568 30.0079 8.53587C30.0843 8.45606 30.1763 8.39274 30.2781 8.34979C30.3799 8.30685 30.4895 8.2852 30.6 8.28616C30.7121 8.28597 30.823 8.30872 30.926 8.35299C31.029 8.39727 31.1219 8.46215 31.1989 8.54364C31.2759 8.62512 31.3354 8.7215 31.3737 8.82684C31.4121 8.93217 31.4285 9.04425 31.422 9.15616C31.41 9.69016 31.398 10.2002 31.398 10.7522Z" fill="white"/>
<path id="Vector_5" d="M18.6542 17.7537C18.4982 17.9637 18.3782 18.2997 18.1682 18.3537C18.0255 18.4115 17.8717 18.4367 17.7181 18.4273C17.5644 18.418 17.4148 18.3744 17.2802 18.2997C16.4162 17.5257 15.6002 16.6917 14.8022 15.8457C14.7326 15.774 14.6783 15.6889 14.6425 15.5955C14.6068 15.5022 14.5904 15.4026 14.5943 15.3027C14.5982 15.2028 14.6224 15.1048 14.6654 15.0146C14.7083 14.9243 14.7692 14.8437 14.8442 14.7777C14.9116 14.6993 14.9943 14.6355 15.0872 14.5901C15.1801 14.5447 15.2813 14.5187 15.3846 14.5136C15.4879 14.5086 15.5911 14.5246 15.688 14.5607C15.7849 14.5968 15.8734 14.6523 15.9482 14.7237C16.7762 15.5097 17.5802 16.3257 18.3782 17.1237C18.504 17.3172 18.5972 17.53 18.6542 17.7537Z" fill="white"/>
<path id="Vector_6" d="M45.7859 14.4658C46.0019 14.6398 46.3259 14.7778 46.4219 15.0118C46.475 15.148 46.4962 15.2946 46.4837 15.4402C46.4712 15.5859 46.4254 15.7267 46.3499 15.8518C45.5699 16.7098 44.7359 17.5258 43.8959 18.3298C43.819 18.3996 43.729 18.4531 43.631 18.4874C43.533 18.5216 43.4292 18.5358 43.3256 18.529C43.2221 18.5223 43.1209 18.4948 43.0282 18.4483C42.9355 18.4017 42.8531 18.3369 42.7859 18.2578C42.7149 18.1875 42.6586 18.1039 42.6202 18.0117C42.5818 17.9195 42.562 17.8207 42.562 17.7208C42.562 17.621 42.5818 17.5221 42.6202 17.4299C42.6586 17.3378 42.7149 17.2541 42.7859 17.1838C43.5779 16.3558 44.3939 15.5518 45.1859 14.7538C45.3721 14.6313 45.5739 14.5345 45.7859 14.4658Z" fill="white"/>
<path id="Vector_7" d="M10.7999 31.3385C10.2839 31.3385 9.77389 31.3385 9.25789 31.3385C9.14444 31.3482 9.03021 31.3342 8.92245 31.2975C8.81468 31.2607 8.71572 31.202 8.63184 31.125C8.54796 31.048 8.481 30.9544 8.43519 30.8502C8.38938 30.7459 8.36572 30.6333 8.36572 30.5195C8.36572 30.4056 8.38938 30.293 8.43519 30.1887C8.481 30.0845 8.54796 29.9909 8.63184 29.9139C8.71572 29.8369 8.81468 29.7782 8.92245 29.7414C9.03021 29.7047 9.14444 29.6907 9.25789 29.7005C10.3019 29.7005 11.3519 29.7005 12.3959 29.7005C12.5074 29.6906 12.6198 29.7037 12.7261 29.7391C12.8323 29.7746 12.9301 29.8315 13.0134 29.9063C13.0967 29.9812 13.1637 30.0724 13.2103 30.1743C13.2568 30.2761 13.2819 30.3865 13.2839 30.4985C13.286 30.6145 13.2637 30.7298 13.2184 30.8366C13.1731 30.9435 13.1059 31.0397 13.021 31.1189C12.9361 31.1981 12.8355 31.2586 12.7258 31.2964C12.616 31.3343 12.4995 31.3486 12.3839 31.3385C11.8439 31.3445 11.3159 31.3385 10.7999 31.3385Z" fill="white"/>
<path id="Vector_8" d="M50.3401 29.6938C50.8681 29.6938 51.4021 29.6938 51.9361 29.6938C52.0495 29.6841 52.1637 29.698 52.2715 29.7348C52.3793 29.7715 52.4782 29.8303 52.5621 29.9073C52.646 29.9843 52.713 30.0779 52.7588 30.1821C52.8046 30.2863 52.8282 30.3989 52.8282 30.5128C52.8282 30.6267 52.8046 30.7393 52.7588 30.8435C52.713 30.9478 52.646 31.0414 52.5621 31.1183C52.4782 31.1953 52.3793 31.2541 52.2715 31.2908C52.1637 31.3276 52.0495 31.3415 51.9361 31.3318C50.8761 31.3318 49.8141 31.3318 48.7501 31.3318C48.6366 31.3415 48.5224 31.3276 48.4146 31.2908C48.3069 31.2541 48.2079 31.1953 48.124 31.1183C48.0401 31.0414 47.9732 30.9478 47.9274 30.8435C47.8816 30.7393 47.8579 30.6267 47.8579 30.5128C47.8579 30.3989 47.8816 30.2863 47.9274 30.1821C47.9732 30.0779 48.0401 29.9843 48.124 29.9073C48.2079 29.8303 48.3069 29.7715 48.4146 29.7348C48.5224 29.698 48.6366 29.6841 48.7501 29.6938C49.2781 29.6818 49.8001 29.6938 50.3401 29.6938Z" fill="white"/>
<path id="Vector_9" d="M26.052 33.8039C25.8375 33.8024 25.632 33.7178 25.4787 33.5678C25.3253 33.4179 25.2362 33.2143 25.23 32.9999C25.2476 32.7948 25.3414 32.6037 25.4931 32.4645C25.6448 32.3253 25.8431 32.248 26.049 32.248C26.2548 32.248 26.4532 32.3253 26.6049 32.4645C26.7565 32.6037 26.8504 32.7948 26.868 32.9999C26.859 33.2123 26.7697 33.4134 26.6183 33.5626C26.4669 33.7118 26.2645 33.798 26.052 33.8039Z" fill="white"/>
<path id="Vector_10" d="M35.1122 33.8039C34.8976 33.801 34.6922 33.7161 34.5383 33.5666C34.3843 33.4171 34.2934 33.2143 34.2842 32.9999C34.283 32.8373 34.3301 32.678 34.4194 32.5422C34.5087 32.4064 34.6363 32.3001 34.7861 32.2368C34.9358 32.1735 35.101 32.156 35.2607 32.1865C35.4203 32.2171 35.5674 32.2943 35.6832 32.4084C35.799 32.5225 35.8783 32.6684 35.9112 32.8276C35.9441 32.9868 35.929 33.1522 35.8679 33.3029C35.8068 33.4535 35.7024 33.5827 35.5678 33.674C35.4333 33.7653 35.2748 33.8147 35.1122 33.8159V33.8039Z" fill="white"/>
</g>
</svg>
