<svg width="59" height="59" viewBox="0 0 59 59" fill="none" xmlns="http://www.w3.org/2000/svg">
<g id="Consistency 1">
<path id="Vector" d="M1.48051 26.5501C1.76371 25.9837 1.68111 25.3583 1.77551 24.7565C2.45401 20.4259 4.08831 16.5083 6.72561 13.0096C7.17401 12.4137 7.65781 11.8473 8.14161 11.2573C6.80821 9.93572 5.46891 8.61412 4.05291 7.21582H17.7645V20.7386C16.5078 19.476 15.2334 18.2016 13.8823 16.8505C9.15051 22.8803 8.28321 29.2936 11.1093 36.2674C8.73161 37.3943 6.35391 38.5212 3.93491 39.6717C3.26231 38.2675 2.75491 36.822 2.35371 35.3352C1.98201 33.9605 1.75191 32.5622 1.59851 31.1462C1.58671 31.0341 1.65161 30.8807 1.47461 30.8217V26.5501H1.48051Z" fill="white"/>
<path id="Vector_2" d="M32.2373 1.47461C32.8509 1.71651 33.5058 1.65161 34.1371 1.75191C39.1757 2.53661 43.6243 4.57801 47.4711 7.92921C47.5537 8.00001 47.6422 8.06491 47.7425 8.14161C49.0641 6.80821 50.3857 5.47481 51.784 4.06471V17.7704H38.2612C39.5179 16.5137 40.7923 15.2393 42.1493 13.8882C36.1195 9.15641 29.7121 8.28911 22.7383 11.1152C21.6114 8.73751 20.4845 6.35981 19.334 3.94081C20.7382 3.26821 22.1837 2.75491 23.6705 2.35961C25.0983 1.97611 26.5497 1.73421 28.0247 1.59261C28.125 1.58081 28.2489 1.63391 28.2961 1.48051H32.2373V1.47461Z" fill="white"/>
<path id="Vector_3" d="M29.4993 18.5498C35.5409 18.5498 40.4438 23.4409 40.4497 29.4943C40.4615 35.5595 35.5291 40.486 29.4698 40.4624C23.4164 40.4447 18.5312 35.5359 18.543 29.4943C18.5548 23.4468 23.4518 18.5557 29.4993 18.5557V18.5498Z" fill="white"/>
<path id="Vector_4" d="M45.1224 42.1495C49.8424 36.1197 50.7097 29.7182 47.8895 22.7444C50.2672 21.6175 52.6567 20.4847 55.1465 19.3047C59.3591 29.6533 57.9903 39.1051 50.9044 47.784C52.1906 49.0643 53.524 50.3918 54.9341 51.8019H41.2461V38.2437C42.5087 39.5122 43.7713 40.7866 45.1224 42.1495Z" fill="white"/>
<path id="Vector_5" d="M7.20312 41.2354H20.7849C19.4928 42.5216 18.2243 43.7842 16.8673 45.1294C22.8676 49.8435 29.2691 50.7167 36.2606 47.8847C37.3875 50.2624 38.5203 52.6578 39.7003 55.1417C29.3517 59.3602 19.8999 57.9855 11.1974 50.8878C9.92302 52.1799 8.60142 53.5192 7.20312 54.947V41.2295V41.2354Z" fill="white"/>
</g>
</svg>
