<svg width="70" height="70" viewBox="0 0 70 70" fill="none" xmlns="http://www.w3.org/2000/svg">
<g id="Content Marketing 1">
<path id="Vector" d="M17.0518 6.72656C17.2828 6.72656 17.4788 6.72656 17.6678 6.72656H60.4868C62.9998 6.72656 64.5328 8.25956 64.5328 10.7656C64.5328 26.9356 64.5328 43.1079 64.5328 59.2826C64.5328 61.7886 62.9998 63.3286 60.5008 63.3286H23.9258C21.3708 63.3286 19.8728 61.8166 19.8728 59.2476C19.8728 44.0576 19.8728 28.8606 19.8728 13.6706C19.9354 12.4198 19.7241 11.1704 19.2538 10.0097C18.7835 8.84898 18.0654 7.80497 17.1498 6.95056C17.1098 6.87929 17.077 6.80426 17.0518 6.72656ZM49.6368 22.7636C49.6368 20.1782 49.6368 17.5952 49.6368 15.0146C49.6831 14.658 49.6206 14.2957 49.4575 13.9753C49.2945 13.6548 49.0384 13.391 48.7229 13.2185C48.4075 13.046 48.0472 12.9728 47.6894 13.0085C47.3316 13.0442 46.993 13.1871 46.7178 13.4186C44.7508 14.7206 42.7838 16.0156 40.7958 17.2966C40.6589 17.3697 40.5472 17.4821 40.4748 17.6194C40.4024 17.7566 40.3728 17.9124 40.3898 18.0666C40.3898 21.1699 40.3898 24.2732 40.3898 27.3766C40.376 27.5313 40.4069 27.6868 40.4789 27.8246C40.5509 27.9623 40.6608 28.0765 40.7958 28.1536C42.7651 29.4229 44.7228 30.7039 46.6688 31.9966C46.954 32.244 47.3082 32.3981 47.6836 32.4381C48.059 32.4781 48.4378 32.4022 48.7688 32.2206C49.0793 32.0336 49.3295 31.7614 49.4896 31.4362C49.6497 31.111 49.7129 30.7467 49.6718 30.3866C49.6298 27.8456 49.6368 25.3046 49.6368 22.7636ZM38.4998 17.6396C38.4441 17.6133 38.3853 17.5945 38.3248 17.5836H33.7678C33.4036 17.5497 33.0364 17.5969 32.6926 17.7217C32.3488 17.8465 32.0369 18.0459 31.7793 18.3055C31.5216 18.5651 31.3247 18.8786 31.2025 19.2234C31.0804 19.5681 31.0361 19.9356 31.0728 20.2996C31.0728 21.9166 31.0728 23.5406 31.0728 25.1576C31.0361 25.5242 31.081 25.8945 31.2042 26.2418C31.3274 26.589 31.526 26.9048 31.7855 27.1664C32.0451 27.4279 32.3593 27.6289 32.7056 27.7547C33.0519 27.8806 33.4218 27.9284 33.7888 27.8946C35.1888 27.8946 36.5888 27.8946 37.9888 27.8946C38.1568 27.8946 38.3318 27.8946 38.5208 27.8526L38.4998 17.6396ZM42.1538 43.6376H56.5038C56.7042 43.6516 56.9053 43.6516 57.1058 43.6376C57.341 43.6231 57.5611 43.5166 57.7183 43.341C57.8755 43.1654 57.9572 42.935 57.9458 42.6996C57.9478 42.4759 57.8627 42.2603 57.7085 42.0983C57.5543 41.9363 57.3432 41.8406 57.1198 41.8316C56.9192 41.8211 56.7183 41.8211 56.5178 41.8316H27.8738C27.6548 41.814 27.4347 41.814 27.2158 41.8316C27.0016 41.8495 26.8028 41.9501 26.6617 42.1122C26.5205 42.2743 26.4481 42.485 26.4598 42.6996C26.4423 42.9119 26.5042 43.1232 26.6335 43.2926C26.7628 43.462 26.9503 43.5774 27.1598 43.6166C27.3771 43.6528 27.5978 43.6645 27.8178 43.6516L42.1538 43.6376ZM47.7538 57.9246H56.5738C56.7942 57.9329 57.0149 57.9165 57.2318 57.8756C57.4405 57.8384 57.6295 57.7289 57.7656 57.5664C57.9018 57.4038 57.9764 57.1986 57.9764 56.9866C57.9764 56.7745 57.9018 56.5693 57.7656 56.4067C57.6295 56.2442 57.4405 56.1348 57.2318 56.0976C57.0354 56.0627 56.836 56.0487 56.6368 56.0556H38.9618C38.7238 56.0556 38.4228 56.0136 38.2618 56.1326C38.1008 56.2516 37.6668 56.6366 37.6668 56.9096C37.7185 57.2599 37.9011 57.5775 38.1778 57.7986C38.3388 57.9386 38.6748 57.9106 38.9268 57.9106L47.7538 57.9246ZM35.6998 50.7706H43.3998C43.6002 50.7847 43.8013 50.7847 44.0018 50.7706C44.1134 50.7652 44.2228 50.7377 44.3236 50.6895C44.4244 50.6414 44.5147 50.5736 44.589 50.4902C44.6633 50.4068 44.7202 50.3093 44.7564 50.2036C44.7926 50.0979 44.8073 49.986 44.7998 49.8746C44.8156 49.6509 44.7443 49.4298 44.6007 49.2576C44.4572 49.0853 44.2526 48.9753 44.0298 48.9506C43.8692 48.9331 43.7073 48.9331 43.5468 48.9506H27.7198C27.5592 48.9329 27.3973 48.9329 27.2368 48.9506C27.0138 48.9702 26.8075 49.0765 26.6622 49.2467C26.5169 49.4169 26.4442 49.6373 26.4598 49.8606C26.4531 49.9715 26.4686 50.0826 26.5052 50.1875C26.5419 50.2924 26.5989 50.389 26.6732 50.4717C26.7474 50.5543 26.8373 50.6215 26.9376 50.6692C27.038 50.7169 27.1468 50.7442 27.2578 50.7496C27.4582 50.7637 27.6593 50.7637 27.8598 50.7496L35.6998 50.7706ZM33.9288 29.7706C34.3838 32.0386 34.7898 34.2296 35.2658 36.4136C35.3148 36.6566 35.413 36.887 35.5543 37.0907C35.6955 37.2944 35.8769 37.4671 36.0873 37.5981C36.2977 37.7292 36.5327 37.816 36.7778 37.853C37.0229 37.89 37.273 37.8766 37.5128 37.8136C37.9793 37.6969 38.3838 37.4068 38.6439 37.0023C38.904 36.5978 39.0001 36.1094 38.9128 35.6366C38.8218 35.1046 38.7168 34.5726 38.6118 34.0476C38.3224 32.6476 38.0378 31.2312 37.7578 29.7986L33.9288 29.7706ZM52.3598 50.7706C53.9208 50.7706 55.4818 50.7706 57.0428 50.7706C57.1694 50.7817 57.297 50.7663 57.4175 50.7254C57.5379 50.6846 57.6485 50.6191 57.7423 50.5332C57.836 50.4473 57.9109 50.3428 57.9621 50.2264C58.0133 50.11 58.0398 49.9842 58.0398 49.8571C58.0398 49.7299 58.0133 49.6041 57.9621 49.4877C57.9109 49.3713 57.836 49.2668 57.7423 49.1809C57.6485 49.095 57.5379 49.0296 57.4175 48.9887C57.297 48.9478 57.1694 48.9325 57.0428 48.9436H47.5998C47.3825 48.9362 47.1702 49.0093 47.0036 49.1488C46.8369 49.2883 46.7277 49.4844 46.6968 49.6996C46.5778 50.2596 47.0188 50.7426 47.6978 50.7496C49.2448 50.7846 50.7848 50.7706 52.3248 50.7706H52.3598ZM31.1008 57.9246C32.2768 57.9246 33.4598 57.9246 34.6008 57.9246C35.3008 57.9246 35.6928 57.5746 35.6998 57.0076C35.7068 56.4406 35.3148 56.0696 34.5658 56.0696C32.2324 56.0696 29.9154 56.0696 27.6148 56.0696C26.8168 56.0696 26.4108 56.3986 26.4248 57.0146C26.4388 57.6306 26.8448 57.9246 27.6498 57.9316L31.1008 57.9246ZM51.5128 19.1726V26.3126C52.4063 26.15 53.2061 25.6574 53.7533 24.9325C54.3005 24.2076 54.5552 23.3035 54.4668 22.3996C54.4068 21.6086 54.0831 20.8606 53.5475 20.2755C53.0119 19.6904 52.2954 19.302 51.5128 19.1726Z" fill="white"/>
<path id="Vector_2" d="M17.9622 24.9414H9.49922C6.97222 24.9414 5.47422 23.4224 5.47422 20.8954C5.47422 18.3684 5.47422 15.6944 5.47422 13.0904C5.45491 11.6778 5.91099 10.2996 6.76918 9.17737C7.62737 8.05512 8.83787 7.25389 10.2062 6.9024C11.1155 6.6615 12.0676 6.63032 12.9906 6.81124C13.9137 6.99216 14.7836 7.38043 15.5346 7.94674C16.2857 8.51305 16.8982 9.2426 17.326 10.0803C17.7539 10.918 17.9858 11.842 18.0042 12.7824C18.1232 16.7654 18.0042 20.7484 18.0042 24.7314C17.9985 24.8028 17.9844 24.8733 17.9622 24.9414Z" fill="white"/>
</g>
</svg>
