<svg width="60" height="60" viewBox="0 0 60 60" fill="none" xmlns="http://www.w3.org/2000/svg">
<g id="Content Marketing 2">
<path id="Vector" d="M9.07178 18.0895H18.8698C22.4098 18.0895 24.8698 15.6415 24.8698 12.0895C24.8698 9.64752 24.8698 7.19952 24.8698 4.75152V4.10352H25.4338C30.9478 4.10352 36.4678 4.10352 41.9818 4.10352C46.3678 4.10352 49.7818 6.79152 50.7358 10.9255C50.8817 11.6239 50.9501 12.3362 50.9398 13.0495C50.9398 24.3535 50.9398 35.6575 50.9398 46.9615C50.9398 51.4975 48.0718 54.9655 43.6738 55.7635C43.1447 55.8536 42.6085 55.8958 42.0718 55.8895C34.0398 55.8895 26.0058 55.8895 17.9698 55.8895C13.7998 55.8775 10.4338 53.3995 9.38978 49.5235C9.18333 48.7301 9.08048 47.9133 9.08378 47.0935C9.08378 37.8235 9.08378 28.5535 9.08378 19.2895L9.07178 18.0895ZM41.3998 18.1255C40.8838 16.6795 40.3678 15.2515 39.8578 13.8295C38.7358 10.6855 35.1778 9.97152 32.9278 12.4435C31.1278 14.4115 29.3638 16.3975 27.5878 18.3715L23.9998 22.3255C23.697 22.0928 23.3421 21.9373 22.9658 21.8725C22.5894 21.8077 22.203 21.8355 21.8398 21.9535C19.5358 22.7635 17.2318 23.5735 14.9398 24.4255C14.4519 24.5854 14.0384 24.9166 13.7759 25.3578C13.5134 25.7991 13.4195 26.3204 13.5118 26.8255C13.7398 27.6775 13.3858 28.2055 12.9958 28.8115C12.8218 29.0815 12.6598 29.3575 12.4858 29.6275C12.313 29.878 12.204 30.167 12.1685 30.4692C12.1329 30.7714 12.1718 31.0778 12.2818 31.3615L13.4818 34.6855C13.5709 34.9671 13.7265 35.2231 13.9353 35.4319C14.1442 35.6408 14.4002 35.7964 14.6818 35.8855C15.2398 36.0715 15.7918 36.2695 16.3558 36.4375C16.5146 36.4736 16.6627 36.5468 16.7878 36.6511C16.913 36.7554 17.0116 36.8878 17.0758 37.0375C17.2867 37.5872 17.7006 38.0349 18.232 38.2883C18.7635 38.5418 19.3719 38.5816 19.9318 38.3995C20.0895 38.3305 20.2665 38.3198 20.4313 38.3693C20.5962 38.4187 20.7381 38.5251 20.8318 38.6695C22.8058 40.8295 24.7978 42.9775 26.7778 45.1315C27.1285 45.5533 27.5827 45.8767 28.096 46.0703C28.6092 46.2638 29.1639 46.3207 29.7058 46.2355C30.2982 46.1724 30.8597 45.9387 31.3219 45.5627C31.7841 45.1867 32.1273 44.6847 32.3098 44.1175C32.5267 43.5581 32.5787 42.9482 32.4596 42.3601C32.3405 41.7721 32.0553 41.2305 31.6378 40.7995C30.6598 39.7135 29.6578 38.6455 28.6378 37.5715L27.1378 35.9275L28.4218 34.2775C28.3738 34.2775 28.4218 34.2775 28.5178 34.2775C32.8018 34.9375 37.0858 35.5855 41.3698 36.2695C44.2378 36.7195 46.5778 34.5235 46.1338 31.7035C45.9708 30.973 45.7439 30.2583 45.4558 29.5675C45.0958 28.5295 44.7238 27.4975 44.3578 26.4775C45.2595 25.9434 45.949 25.1142 46.3098 24.1302C46.6706 23.1463 46.6804 22.0679 46.3378 21.0775C45.6778 19.1275 44.0038 18.1135 41.3998 18.1255ZM40.7998 47.4295C42.8158 47.4295 44.8318 47.4295 46.8538 47.4295C47.0638 47.4295 47.3398 47.4715 47.4538 47.3575C47.6938 47.1595 47.9878 46.8655 47.9878 46.6075C47.9878 46.3495 47.6878 46.0675 47.4598 45.8575C47.3578 45.7615 47.1178 45.7915 46.9438 45.7915H34.6318C34.4338 45.7915 34.1818 45.7915 34.0618 45.8695C33.8398 46.0555 33.5518 46.3435 33.5578 46.5775C33.622 46.8883 33.8022 47.1629 34.0618 47.3455C34.2058 47.4655 34.5058 47.4295 34.7338 47.4295C36.7498 47.4355 38.7718 47.4295 40.7998 47.4295ZM40.7998 49.4815H34.3918C33.8398 49.4815 33.5158 49.8055 33.5158 50.2855C33.5136 50.3977 33.5352 50.509 33.5789 50.6123C33.6227 50.7155 33.6878 50.8084 33.7699 50.8848C33.8519 50.9613 33.9492 51.0195 34.0554 51.0558C34.1615 51.0921 34.2741 51.1057 34.3858 51.0955C35.5858 51.0955 36.7858 51.0955 37.9858 51.0955C40.9858 51.0955 44.0218 51.0955 47.0398 51.0955C47.2346 51.1306 47.4355 51.0987 47.6098 51.005C47.7841 50.9113 47.9216 50.7613 47.9998 50.5795C48.2338 49.9795 47.8198 49.4875 47.0998 49.4875L40.7998 49.4815ZM18.6898 47.4295H23.0158C23.1935 47.4446 23.3721 47.4446 23.5498 47.4295C23.6489 47.4242 23.7459 47.3992 23.8353 47.3561C23.9246 47.313 24.0046 47.2526 24.0704 47.1784C24.1363 47.1041 24.1867 47.0176 24.2189 46.9237C24.2511 46.8298 24.2643 46.7305 24.2578 46.6315C24.2677 46.4323 24.1991 46.2372 24.0667 46.088C23.9343 45.9388 23.7487 45.8474 23.5498 45.8335C23.39 45.8217 23.2296 45.8217 23.0698 45.8335H14.3518C14.1418 45.8335 13.8658 45.7915 13.7518 45.9055C13.5178 46.0975 13.2298 46.3975 13.2298 46.6495C13.2298 46.9015 13.5238 47.2015 13.7578 47.3995C13.8958 47.5075 14.1658 47.4715 14.3578 47.4715C15.7978 47.4355 17.2438 47.4295 18.6898 47.4295ZM18.6898 49.4815H14.2498C14.0364 49.4693 13.8226 49.4978 13.6198 49.5655C13.4512 49.634 13.3146 49.7633 13.2368 49.9277C13.159 50.0921 13.1458 50.2798 13.1998 50.4535C13.3078 50.9515 13.6738 51.1075 14.1598 51.1075C17.1898 51.1075 20.2198 51.1075 23.2498 51.1075C23.9098 51.1075 24.2878 50.8015 24.2878 50.2915C24.2878 49.7815 23.9158 49.4875 23.2498 49.4875L18.6898 49.4815Z" fill="white"/>
<path id="Vector_2" d="M23.2438 4.27832V4.75232C23.2438 7.23632 23.2438 9.71432 23.2438 12.1923C23.2438 14.6703 21.6598 16.3923 19.2718 16.4403C16.0438 16.5363 12.8158 16.4403 9.50977 16.4403C9.58177 16.2303 9.63577 16.0503 9.70177 15.8763C10.1779 14.6588 10.9272 13.5668 11.8918 12.6843L18.7738 6.35432C20.0158 5.20832 21.9418 4.30832 23.2438 4.27832Z" fill="white"/>
<path id="Vector_3" d="M41.9282 34.7342L37.3562 34.0382C34.4282 33.5882 31.5062 33.1262 28.5782 32.6942C28.4403 32.6909 28.3072 32.6429 28.199 32.5574C28.0908 32.4719 28.0133 32.3536 27.9782 32.2202C27.0262 29.5122 26.0622 26.8082 25.0862 24.1082C25.0382 23.9987 25.0239 23.8774 25.0453 23.7598C25.0667 23.6423 25.1227 23.5337 25.2062 23.4482C28.2002 20.1302 31.2002 16.8002 34.2002 13.4702C34.4687 13.1362 34.8234 12.8818 35.2259 12.7347C35.6284 12.5876 36.0635 12.5533 36.4841 12.6354C36.9048 12.7176 37.2949 12.9131 37.6125 13.2008C37.9301 13.4886 38.1631 13.8577 38.2862 14.2682C40.3622 20.0202 42.4162 25.7762 44.4482 31.5362C45.0422 33.2222 43.8602 34.8002 41.9282 34.7342Z" fill="white"/>
<path id="Vector_4" d="M19.3682 36.8642C18.7682 36.8642 18.5822 36.4742 18.4322 36.0482C17.4322 33.2482 16.4322 30.4282 15.4322 27.5882C14.9342 26.1842 14.9642 26.1122 16.3502 25.6142L21.9902 23.5982C22.8362 23.2982 23.1482 23.4482 23.4482 24.2882C24.5042 27.2482 25.5562 30.2042 26.6042 33.1562C26.8922 33.9662 26.7602 34.2722 26.0042 34.5542L19.7102 36.7622C19.5782 36.8102 19.4402 36.8402 19.3682 36.8642ZM24.2702 29.5022C24.2702 28.7522 23.7482 28.3622 23.1842 28.5482C21.5162 29.1162 19.8502 29.6862 18.1862 30.2582C18.0826 30.2868 17.986 30.3363 17.9021 30.4035C17.8182 30.4707 17.7489 30.5543 17.6984 30.6492C17.6479 30.7441 17.6172 30.8482 17.6082 30.9553C17.5993 31.0624 17.6122 31.1702 17.6462 31.2722C17.673 31.3766 17.7215 31.4743 17.7886 31.5588C17.8556 31.6432 17.9397 31.7126 18.0354 31.7624C18.1311 31.8122 18.2361 31.8413 18.3438 31.8478C18.4514 31.8543 18.5592 31.8381 18.6602 31.8002C20.3522 31.2422 22.0382 30.6722 23.7062 30.0602C24.0002 29.9642 24.1502 29.6282 24.2702 29.5022ZM17.2982 29.3042L17.4182 29.2022C17.4892 29.194 17.5595 29.1799 17.6282 29.1602C19.3442 28.5602 21.0662 28.0082 22.7702 27.3602C22.8857 27.2974 22.9872 27.2119 23.0687 27.1087C23.1502 27.0056 23.2099 26.887 23.2442 26.7602C23.3702 26.1602 22.8002 25.7102 22.1402 25.9262C20.8682 26.3402 19.6142 26.7842 18.3542 27.2162C17.9342 27.3602 17.5022 27.4802 17.0942 27.6602C17.004 27.689 16.9206 27.736 16.8492 27.7981C16.7777 27.8603 16.7197 27.9364 16.6787 28.0218C16.6377 28.1072 16.6146 28.2 16.6107 28.2947C16.6068 28.3893 16.6223 28.4837 16.6562 28.5722C16.8002 28.8602 17.0762 29.0642 17.2982 29.3042ZM19.2902 34.5962L19.4102 34.5062C19.5422 34.4702 19.6862 34.4402 19.8182 34.3922L24.5102 32.7842C25.1102 32.5682 25.3922 32.1842 25.2062 31.6802C25.0202 31.1762 24.6062 31.0442 23.9582 31.2662C22.7942 31.6562 21.6362 32.0582 20.4782 32.4662C20.0222 32.6222 19.5602 32.7602 19.1162 32.9402C19.0202 32.966 18.9307 33.012 18.8538 33.075C18.7769 33.138 18.7142 33.2167 18.6699 33.3057C18.6257 33.3948 18.6009 33.4922 18.5971 33.5916C18.5934 33.691 18.6108 33.79 18.6482 33.8822C18.7562 34.1522 19.0682 34.3562 19.2902 34.5962Z" fill="white"/>
<path id="Vector_5" d="M22.2002 37.6378C23.2022 37.2778 24.1982 36.9058 25.2002 36.5638C25.2812 36.5538 25.3633 36.5615 25.441 36.5864C25.5187 36.6113 25.5901 36.6527 25.6502 36.7078C27.2582 38.4598 28.8842 40.1998 30.4862 41.9998C30.7622 42.3108 30.9065 42.7168 30.8885 43.1322C30.8706 43.5476 30.6919 43.9398 30.3902 44.2258C30.2408 44.3746 30.063 44.492 29.8674 44.5709C29.6719 44.6499 29.4625 44.6888 29.2516 44.6855C29.0407 44.6821 28.8327 44.6365 28.6397 44.5514C28.4468 44.4662 28.2728 44.3433 28.1282 44.1898C26.1422 42.0538 24.1862 39.9058 22.2002 37.7998C22.2002 37.7458 22.2002 37.7038 22.2002 37.6378Z" fill="white"/>
<path id="Vector_6" d="M43.8 24.8882L42 19.8002C42.561 19.7364 43.1277 19.8533 43.6176 20.1339C44.1075 20.4145 44.4951 20.8441 44.724 21.3602C45.0127 21.9624 45.0783 22.6476 44.9091 23.2937C44.7399 23.9397 44.3468 24.5048 43.8 24.8882Z" fill="white"/>
<path id="Vector_7" d="M14.466 29.7178L16.2 34.6078C15.528 34.4818 15 34.3798 14.82 33.6298C14.6497 32.9189 14.4023 32.2288 14.082 31.5718C13.9018 31.2709 13.8412 30.9133 13.9124 30.5699C13.9835 30.2265 14.1811 29.9223 14.466 29.7178Z" fill="white"/>
</g>
</svg>
