<svg width="100" height="100" viewBox="0 0 100 100" fill="none" xmlns="http://www.w3.org/2000/svg">
<g id="Cost-Effective 1">
<path id="Vector" d="M16.3002 80.3603V64.2103C16.3002 62.9203 16.6802 62.5503 17.9802 62.5503H27.6502C28.8202 62.5503 29.2402 62.9703 29.2402 64.1503V80.3103H32.8202V54.8503C32.8202 53.3503 33.1402 53.0403 34.6602 53.0403H44.0902C45.3602 53.0403 45.7502 53.4403 45.7602 54.7303V80.3203H49.3402V43.5203C49.3402 41.9403 49.6402 41.6403 51.1902 41.6403H60.5502C61.8802 41.6403 62.2702 42.0303 62.2702 43.3603V60.3603C63.4402 59.6403 64.5602 59.0003 65.6202 58.2803C65.8002 58.1603 65.8502 57.7403 65.8502 57.4503C65.8502 49.2436 65.8502 41.0303 65.8502 32.8103C65.8502 30.4103 65.9402 30.3203 68.3602 30.3203H77.0002C78.3702 30.3203 78.7602 30.7103 78.7602 32.0903C78.7602 40.4903 78.7602 48.887 78.7602 57.2803C78.7272 57.5529 78.7834 57.8289 78.9204 58.0669C79.0574 58.3049 79.2679 58.492 79.5202 58.6003C82.3744 60.1257 84.6694 62.5194 86.0731 65.4354C87.4769 68.3513 87.9166 71.6382 87.3286 74.8206C86.7407 78.003 85.1556 80.9158 82.8027 83.1377C80.4498 85.3596 77.451 86.7754 74.2402 87.1803C72.0562 87.482 69.8325 87.2949 67.7296 86.6326C65.6267 85.9702 63.6971 84.8491 62.0802 83.3503C61.9076 83.1813 61.7025 83.049 61.4774 82.9613C61.2523 82.8737 61.0117 82.8325 60.7702 82.8403C45.1236 82.8403 29.4769 82.8403 13.8302 82.8403C13.5902 82.8403 13.3602 82.8403 13.1302 82.8403C12.9574 82.8558 12.7832 82.8352 12.6187 82.7796C12.4543 82.7241 12.3032 82.635 12.1751 82.5178C12.047 82.4007 11.9447 82.2582 11.8747 82.0994C11.8047 81.9406 11.7686 81.7689 11.7686 81.5953C11.7686 81.4217 11.8047 81.2501 11.8747 81.0912C11.9447 80.9324 12.047 80.7899 12.1751 80.6728C12.3032 80.5557 12.4543 80.4665 12.6187 80.411C12.7832 80.3555 12.9574 80.3348 13.1302 80.3503C14.1702 80.3403 15.1802 80.3603 16.3002 80.3603ZM83.7202 72.0003C83.7084 69.7484 83.0304 67.5503 81.7717 65.6829C80.5129 63.8155 78.7298 62.3624 76.6467 61.5065C74.5637 60.6507 72.274 60.4304 70.066 60.8733C67.858 61.3163 65.8305 62.4028 64.2388 63.9959C62.6471 65.5889 61.5624 67.6174 61.1214 69.8258C60.6803 72.0342 60.9026 74.3237 61.7603 76.406C62.618 78.4882 64.0727 80.2701 65.9411 81.5272C67.8096 82.7843 70.0083 83.4604 72.2602 83.4703C73.7675 83.4756 75.2609 83.1825 76.6544 82.6078C78.0478 82.0331 79.3137 81.1883 80.379 80.122C81.4444 79.0557 82.2881 77.7891 82.8616 76.3952C83.435 75.0013 83.7269 73.5076 83.7202 72.0003Z" fill="white"/>
<path id="Vector_2" d="M72.5098 17.65C71.9398 17.46 71.5098 17.34 71.1198 17.19C70.9619 17.1464 70.8143 17.0716 70.6856 16.9701C70.557 16.8686 70.4499 16.7424 70.3708 16.5989C70.2916 16.4554 70.2419 16.2976 70.2245 16.1347C70.2072 15.9717 70.2226 15.807 70.2698 15.65C70.3105 15.4921 70.3836 15.3443 70.4843 15.216C70.585 15.0877 70.7113 14.9817 70.855 14.9046C70.9988 14.8275 71.157 14.7811 71.3196 14.7683C71.4822 14.7555 71.6457 14.7765 71.7998 14.83C73.1298 15.19 74.4398 15.6 75.7998 16.03C75.9589 16.0701 76.1081 16.1423 76.2381 16.2422C76.3682 16.3421 76.4764 16.4676 76.5561 16.611C76.6357 16.7544 76.6851 16.9126 76.7013 17.0758C76.7174 17.239 76.6999 17.4038 76.6498 17.56C76.3698 18.83 76.0798 20.09 75.7698 21.35C75.7501 21.5252 75.6938 21.6943 75.6046 21.8464C75.5154 21.9984 75.3953 22.1301 75.252 22.2328C75.1088 22.3355 74.9455 22.4071 74.7729 22.4428C74.6003 22.4785 74.4221 22.4775 74.2498 22.44C74.0789 22.3979 73.9186 22.3209 73.7788 22.2139C73.639 22.107 73.5228 21.9723 73.4373 21.8184C73.3519 21.6645 73.2992 21.4946 73.2824 21.3194C73.2656 21.1442 73.2852 20.9674 73.3398 20.8C73.3398 20.61 73.3998 20.42 73.4598 20.09C72.5798 20.68 71.7998 21.19 71.0298 21.72L20.9298 55.72H20.8598C19.8598 56.37 19.1398 56.35 18.6898 55.66C18.2398 54.97 18.4998 54.3 19.4298 53.66L39.6998 39.92L71.6198 18.27C71.8798 18.1 72.1298 17.92 72.5098 17.65Z" fill="white"/>
<path id="Vector_3" d="M81.2297 72.0003C81.2277 73.7641 80.7028 75.4877 79.7215 76.9533C78.7402 78.4188 77.3464 79.5606 75.7163 80.2342C74.0862 80.9078 72.293 81.083 70.5633 80.7377C68.8337 80.3924 67.2452 79.5421 65.9987 78.2942C64.7522 77.0463 63.9037 75.4569 63.5603 73.7268C63.2169 71.9968 63.3942 70.2038 64.0696 68.5745C64.745 66.9451 65.8883 65.5526 67.355 64.5729C68.8217 63.5932 70.5459 63.0703 72.3096 63.0703C74.6706 63.0912 76.9288 64.0391 78.5974 65.7096C80.266 67.38 81.2114 69.6393 81.2297 72.0003ZM73.5596 66.0003C73.5758 65.8876 73.5758 65.7731 73.5596 65.6603C73.5171 65.3846 73.3783 65.1328 73.1677 64.9498C72.9572 64.7667 72.6886 64.6641 72.4097 64.6603C72.266 64.6363 72.1189 64.6419 71.9774 64.6768C71.836 64.7116 71.7031 64.775 71.587 64.863C71.4709 64.951 71.374 65.0618 71.3022 65.1886C71.2305 65.3154 71.1854 65.4555 71.1696 65.6003C71.1096 66.1803 70.7996 66.3503 70.3796 66.6003C69.7435 66.8965 69.2145 67.3823 68.8654 67.9911C68.5163 68.5998 68.3641 69.3016 68.4296 70.0003C68.4459 70.7078 68.7007 71.389 69.1526 71.9336C69.6046 72.4781 70.2273 72.854 70.9196 73.0003C71.5596 73.1903 72.2496 73.2703 72.9196 73.5203C73.2496 73.6503 73.7297 74.0603 73.6897 74.2703C73.6476 74.4853 73.5631 74.6897 73.4412 74.8717C73.3193 75.0537 73.1624 75.2096 72.9797 75.3303C72.3297 75.7103 71.6197 75.4303 70.9797 74.7303C70.8893 74.5945 70.7726 74.4783 70.6365 74.3884C70.5004 74.2985 70.3476 74.2368 70.1872 74.207C70.0269 74.1771 69.8622 74.1797 69.7028 74.2147C69.5435 74.2496 69.3928 74.3161 69.2597 74.4103C69.1206 74.5025 69.0024 74.6228 68.9129 74.7636C68.8234 74.9044 68.7644 75.0624 68.7399 75.2274C68.7154 75.3924 68.7258 75.5608 68.7706 75.7215C68.8153 75.8822 68.8934 76.0317 68.9996 76.1603C69.4034 76.6612 69.8824 77.0963 70.4196 77.4503C70.7996 77.7003 71.0897 77.8503 71.1497 78.3903C71.1608 78.5364 71.2013 78.6788 71.2687 78.8089C71.3362 78.939 71.4291 79.0541 71.5421 79.1475C71.6551 79.2408 71.7857 79.3105 71.9261 79.3522C72.0666 79.3939 72.2141 79.4069 72.3596 79.3903C72.5016 79.4012 72.6442 79.384 72.7794 79.3395C72.9147 79.2951 73.0398 79.2244 73.1476 79.1315C73.2554 79.0386 73.3437 78.9252 73.4076 78.798C73.4714 78.6708 73.5095 78.5323 73.5196 78.3903C73.5196 77.7903 73.8797 77.6303 74.2997 77.3903C74.9211 77.0841 75.4341 76.5953 75.7701 75.9895C76.1061 75.3836 76.249 74.6896 76.1796 74.0003C76.1408 73.318 75.8775 72.6677 75.4308 72.1504C74.9841 71.6332 74.379 71.2781 73.7096 71.1403C73.0096 70.9403 72.2896 70.8103 71.6096 70.5703C71.3396 70.4703 70.9896 70.1703 70.9596 69.9303C70.9569 69.7553 70.9901 69.5816 71.0572 69.4199C71.1243 69.2582 71.2238 69.112 71.3496 68.9903C71.5171 68.8592 71.7094 68.7635 71.9149 68.709C72.1205 68.6544 72.335 68.6422 72.5454 68.6731C72.7558 68.7039 72.9577 68.7772 73.1389 68.8885C73.3202 68.9997 73.4769 69.1467 73.5996 69.3203C73.6893 69.4718 73.81 69.6027 73.9538 69.7043C74.0976 69.806 74.2613 69.8761 74.434 69.9101C74.6068 69.9441 74.7848 69.9412 74.9564 69.9016C75.128 69.862 75.2892 69.7866 75.4296 69.6803C75.5715 69.5745 75.6889 69.4393 75.7738 69.2839C75.8586 69.1285 75.9089 68.9567 75.9212 68.7801C75.9336 68.6035 75.9077 68.4264 75.8453 68.2607C75.7829 68.0951 75.6854 67.9449 75.5596 67.8203C74.9353 67.1687 74.2671 66.5606 73.5596 66.0003Z" fill="white"/>
</g>
</svg>
