<svg width="65" height="65" viewBox="0 0 65 65" fill="none" xmlns="http://www.w3.org/2000/svg">
<g id="Create a Strong Brand Identity 1">
<path id="Vector" d="M42.8545 54.5997H12.896V11.8232H42.8545C42.8545 12.6422 42.8545 13.4677 42.8545 14.2932C42.8545 14.3582 42.77 14.4427 42.6985 14.4752C42.2045 14.7417 41.704 14.9952 41.145 15.2812V14.7222C41.145 14.1307 40.924 13.9292 40.326 13.9292H15.5155C14.768 13.9292 14.5925 14.0982 14.5925 14.8457V21.1832C14.5925 21.9567 14.7745 22.1322 15.535 22.1322C22.945 22.1322 30.3333 22.1214 37.7 22.0997C37.8812 22.0891 38.0625 22.1185 38.231 22.186C38.3995 22.2534 38.5511 22.3571 38.675 22.4897C39.7516 23.5851 41.0122 24.4827 42.3995 25.1417C42.5632 25.1778 42.7067 25.2756 42.7999 25.4149C42.8932 25.5542 42.9291 25.7241 42.9 25.8892C42.9 34.6772 42.9 43.4674 42.9 52.2597L42.8545 54.5997ZM31.9605 45.4022C32.1412 45.0389 32.3408 44.6852 32.5585 44.3427C33.1435 43.4977 33.7675 42.6852 34.3525 41.8467C35.7791 39.8501 36.4117 37.3941 36.127 34.9567C35.9094 32.8678 34.9093 30.9387 33.3277 29.557C31.746 28.1753 29.7 27.4434 27.6008 27.5084C25.5016 27.5735 23.5048 28.4306 22.0117 29.9076C20.5186 31.3845 19.6398 33.3719 19.552 35.4702C19.4462 37.9433 20.2122 40.3749 21.7165 42.3407C22.2365 43.0297 22.7435 43.7252 23.2375 44.4402C23.4338 44.7614 23.6118 45.0934 23.7705 45.4347H23.452C22.6785 45.4347 22.5095 45.6102 22.5095 46.3837V48.5287C22.5095 49.0877 22.724 49.2957 23.296 49.3087C23.738 49.3087 24.18 49.3087 24.596 49.3087C24.5959 50.1607 24.9302 50.9786 25.5271 51.5864C26.124 52.1942 26.9357 52.5434 27.7875 52.5587C29.5165 52.6042 30.7125 51.4602 31.1155 49.3087C31.5315 49.3087 31.9605 49.3087 32.4155 49.3087C33.02 49.3087 33.2215 49.0942 33.2215 48.5027C33.2215 47.9112 33.2215 47.3392 33.2215 46.7607C33.215 45.4997 33.215 45.4997 31.9605 45.4022ZM37.687 49.9522H40.404C40.911 49.9522 41.1645 49.7442 41.1775 49.3542C41.1905 48.9642 40.9045 48.7042 40.391 48.7042H34.996C34.515 48.7042 34.229 48.9382 34.216 49.3152C34.203 49.6922 34.502 49.9652 35.0155 49.9652L37.687 49.9522ZM18.005 49.9522H20.722C21.216 49.9522 21.4955 49.7312 21.515 49.3607C21.5345 48.9902 21.229 48.7107 20.7285 48.7107H15.3335C14.82 48.7107 14.5405 48.9512 14.5535 49.3607C14.5665 49.7702 14.82 49.9587 15.327 49.9587L18.005 49.9522ZM18.005 53.0657H20.722C21.1965 53.0657 21.489 52.8187 21.489 52.4157C21.489 52.0127 21.1965 51.7657 20.7155 51.7657H15.3075C14.82 51.7657 14.5535 52.0062 14.5535 52.4157C14.5535 52.8252 14.807 53.0267 15.314 53.0267L18.005 53.0657ZM37.6545 53.0657H40.417C40.8915 53.0657 41.1385 52.8512 41.1515 52.4742C41.1645 52.0972 40.898 51.8242 40.417 51.8242C38.5883 51.8242 36.7597 51.8242 34.931 51.8242C34.4695 51.8242 34.177 52.0972 34.19 52.4742C34.203 52.8512 34.4825 53.0657 34.9375 53.0657H37.6545ZM27.2415 24.8557C27.2415 25.1677 27.2415 25.5057 27.2415 25.7917C27.2415 25.9641 27.31 26.1295 27.4319 26.2514C27.5538 26.3733 27.7191 26.4417 27.8915 26.4417C27.9783 26.4475 28.0654 26.4346 28.1469 26.404C28.2283 26.3733 28.3023 26.3257 28.3639 26.2641C28.4254 26.2026 28.4731 26.1286 28.5037 26.0471C28.5344 25.9657 28.5472 25.8786 28.5415 25.7917C28.5415 25.1547 28.5415 24.5177 28.5415 23.8807C28.5418 23.7149 28.4787 23.5552 28.3651 23.4344C28.2515 23.3135 28.096 23.2407 27.9305 23.2307C27.7581 23.2307 27.5928 23.2992 27.4709 23.4211C27.349 23.543 27.2805 23.7084 27.2805 23.8807C27.2285 24.1992 27.2415 24.5242 27.2415 24.8557ZM19.838 30.7057C19.766 30.5585 19.6667 30.4261 19.5455 30.3157C18.967 29.9517 18.3755 29.6137 17.7775 29.2887C17.7116 29.2451 17.6373 29.2158 17.5594 29.2027C17.4815 29.1895 17.4016 29.1928 17.3251 29.2124C17.2485 29.232 17.1769 29.2675 17.1149 29.3164C17.0529 29.3654 17.0018 29.4268 16.965 29.4967C16.9182 29.5643 16.886 29.6409 16.8705 29.7216C16.8549 29.8023 16.8564 29.8854 16.8747 29.9655C16.8931 30.0456 16.9279 30.121 16.977 30.1869C17.0262 30.2528 17.0885 30.3078 17.16 30.3482C17.7385 30.7057 18.3235 31.0567 18.928 31.3687C19.383 31.6027 19.8445 31.3037 19.838 30.7057ZM36.361 31.4662C36.4642 31.4629 36.5668 31.4476 36.6665 31.4207C37.349 31.0372 38.0445 30.6732 38.688 30.2247C38.818 30.1337 38.831 29.6722 38.688 29.4837C38.6066 29.396 38.5043 29.3303 38.3906 29.2928C38.277 29.2553 38.1556 29.2472 38.038 29.2692C37.3605 29.5843 36.7085 29.9516 36.088 30.3677C36.007 30.4533 35.9471 30.5567 35.9132 30.6696C35.8794 30.7824 35.8724 30.9017 35.893 31.0177C35.9905 31.1997 36.2505 31.3557 36.361 31.4662ZM16.9 36.4322C17.251 36.4322 17.6085 36.4322 17.966 36.4322C18.0408 36.4332 18.1149 36.4189 18.184 36.3903C18.2531 36.3617 18.3157 36.3194 18.368 36.2659C18.4202 36.2125 18.4611 36.1489 18.4881 36.0792C18.5151 36.0095 18.5276 35.935 18.525 35.8602C18.541 35.7845 18.5405 35.7061 18.5236 35.6305C18.5066 35.5549 18.4736 35.4839 18.4267 35.4222C18.3798 35.3606 18.3202 35.3097 18.2519 35.2731C18.1837 35.2365 18.1083 35.2151 18.031 35.2102C17.2905 35.1712 16.5485 35.1712 15.808 35.2102C15.7294 35.2135 15.6524 35.2336 15.5823 35.2694C15.5123 35.3051 15.4507 35.3556 15.402 35.4173C15.3532 35.479 15.3184 35.5506 15.2998 35.627C15.2813 35.7035 15.2794 35.783 15.2945 35.8602C15.2935 35.9356 15.308 36.0103 15.337 36.0799C15.3659 36.1494 15.4088 36.2123 15.463 36.2647C15.5172 36.317 15.5815 36.3577 15.652 36.3843C15.7225 36.4109 15.7977 36.4228 15.873 36.4192C16.185 36.4452 16.5295 36.4322 16.9 36.4322ZM38.87 36.4322C39.208 36.4322 39.5525 36.4322 39.8905 36.4322C39.9707 36.4357 40.0509 36.4232 40.1263 36.3957C40.2017 36.3681 40.271 36.326 40.3302 36.2717C40.3893 36.2173 40.4372 36.1519 40.471 36.0791C40.5049 36.0063 40.5241 35.9275 40.5275 35.8472C40.5309 35.767 40.5185 35.6869 40.4909 35.6114C40.4634 35.536 40.4212 35.4667 40.3669 35.4076C40.3126 35.3484 40.2472 35.3006 40.1743 35.2667C40.1015 35.2328 40.0227 35.2137 39.9425 35.2102C39.234 35.1777 38.519 35.1777 37.8105 35.2102C37.729 35.209 37.6481 35.2257 37.5739 35.2594C37.4996 35.293 37.4337 35.3427 37.3808 35.4048C37.328 35.467 37.2896 35.54 37.2684 35.6188C37.2471 35.6975 37.2436 35.78 37.258 35.8602C37.2545 35.9442 37.2694 36.028 37.3015 36.1057C37.3337 36.1833 37.3825 36.2531 37.4443 36.31C37.5062 36.3669 37.5797 36.4096 37.6598 36.4353C37.7399 36.4609 37.8246 36.4687 37.908 36.4582L38.87 36.4322ZM21.996 24.8167C21.398 24.8167 21.1055 25.2977 21.346 25.7397C21.6515 26.3247 21.996 26.8967 22.3405 27.4687C22.3759 27.5433 22.4265 27.6095 22.489 27.6634C22.5516 27.7172 22.6247 27.7573 22.7036 27.7812C22.7826 27.805 22.8657 27.8121 22.9475 27.802C23.0294 27.7918 23.1082 27.7647 23.179 27.7222C23.2567 27.6838 23.3251 27.6289 23.3794 27.5614C23.4338 27.4939 23.4728 27.4154 23.4939 27.3313C23.5149 27.2473 23.5174 27.1596 23.5012 27.0745C23.485 26.9893 23.4504 26.9087 23.4 26.8382C23.088 26.2662 22.75 25.7007 22.412 25.1482C22.2931 25.015 22.1524 24.9029 21.996 24.8167ZM33.761 24.8167C33.6765 24.8752 33.4555 24.9467 33.358 25.1027C32.9875 25.6877 32.643 26.2922 32.3115 26.9032C32.2687 26.9698 32.2405 27.0448 32.2288 27.1231C32.2171 27.2014 32.2221 27.2813 32.2437 27.3575C32.2652 27.4337 32.3026 27.5045 32.3535 27.5651C32.4044 27.6257 32.4677 27.6749 32.539 27.7092C32.6044 27.7548 32.6786 27.7863 32.7569 27.8015C32.8351 27.8167 32.9157 27.8154 32.9935 27.7977C33.0712 27.7799 33.1444 27.7461 33.2082 27.6984C33.2721 27.6507 33.3254 27.5902 33.3645 27.5207C33.7285 26.9292 34.086 26.3312 34.4045 25.7137C34.619 25.2912 34.3265 24.8297 33.761 24.8167Z" fill="white"/>
<path id="Vector_2" d="M55.6856 54.6002H49.3286V39.5332H55.6856V54.6002Z" fill="white"/>
<path id="Vector_3" d="M37.1412 20.8585H15.8667V15.21H39.8452C39.9178 15.4638 39.9166 15.7331 39.8417 15.9864C39.7669 16.2396 39.6216 16.4663 39.4227 16.64C38.3957 17.589 37.4727 18.655 36.5562 19.6885C36.5209 19.7556 36.5025 19.8303 36.5025 19.9062C36.5025 19.9821 36.5209 20.0568 36.5562 20.124C36.7334 20.3825 36.9289 20.6279 37.1412 20.8585ZM30.6412 17.407H25.5322C24.9992 17.407 24.7327 17.6215 24.7327 18.057C24.7327 18.4925 25.0057 18.707 25.5322 18.707C28.9512 18.707 32.368 18.707 35.7827 18.707C36.3222 18.707 36.6212 18.4665 36.6082 18.057C36.5952 17.6475 36.3157 17.459 35.7827 17.459L30.6412 17.407ZM19.0257 15.6C18.5491 15.6013 18.0836 15.7434 17.6875 16.0085C17.2915 16.2735 16.9826 16.6497 16.7997 17.0898C16.6167 17.5298 16.5679 18.0141 16.6593 18.4818C16.7508 18.9496 16.9784 19.3798 17.3135 19.7186C17.6487 20.0574 18.0765 20.2895 18.5432 20.386C19.01 20.4824 19.4947 20.4387 19.9367 20.2605C20.3787 20.0823 20.7582 19.7774 21.0274 19.3842C21.2967 18.991 21.4438 18.527 21.4502 18.0505C21.4572 17.7289 21.3995 17.4093 21.2804 17.1105C21.1614 16.8118 20.9835 16.54 20.7573 16.3114C20.5311 16.0828 20.2612 15.902 19.9638 15.7798C19.6663 15.6575 19.3473 15.5964 19.0257 15.6Z" fill="white"/>
<path id="Vector_4" d="M37.9795 19.8965C39.0492 18.5153 40.346 17.3262 41.8145 16.38C45.6105 14.001 49.725 14.3 53.1765 17.277C54.0865 18.057 54.8925 18.954 55.7765 19.8185C54.6451 21.3545 53.231 22.6605 51.61 23.6665C50.0805 24.6018 48.3047 25.0548 46.514 24.9665C45.1146 24.8866 43.7519 24.4887 42.5295 23.803C40.7652 22.8206 39.2175 21.4918 37.9795 19.8965ZM43.1795 19.8965C43.1782 20.619 43.3912 21.3256 43.7915 21.927C44.1919 22.5285 44.7615 22.9977 45.4285 23.2754C46.0955 23.5531 46.8299 23.6267 47.5388 23.487C48.2476 23.3473 48.8992 23.0006 49.4109 22.4906C49.9227 21.9806 50.2718 21.3304 50.414 20.622C50.5562 19.9136 50.4852 19.179 50.2099 18.511C49.9346 17.843 49.4674 17.2717 48.8674 16.8692C48.2674 16.4667 47.5615 16.2512 46.839 16.25C45.8713 16.2517 44.9438 16.6373 44.2601 17.3222C43.5765 18.0071 43.1925 18.9352 43.1925 19.903L43.1795 19.8965Z" fill="white"/>
<path id="Vector_5" d="M46.7026 54.6002H44.1416V25.9092L46.7026 26.3187V54.6002Z" fill="white"/>
<path id="Vector_6" d="M49.6665 38.2269L52.507 33.1504L55.341 38.2594L49.6665 38.2269Z" fill="white"/>
<path id="Vector_7" d="M44.1221 13.8974V11.8174H46.7221V13.4879L44.1221 13.8974Z" fill="white"/>
<path id="Vector_8" d="M29.9324 45.3958C29.6496 43.1064 30.1294 40.7876 31.2974 38.7983C31.3624 38.6813 31.4858 38.5708 31.4858 38.4538C31.4858 38.2068 31.5249 37.8818 31.3884 37.7323C31.2856 37.6628 31.1699 37.6149 31.0481 37.5914C30.9263 37.568 30.801 37.5695 30.6799 37.5958C30.2054 37.6738 29.7438 37.8948 29.2693 37.9273C28.9229 37.8813 28.5841 37.7895 28.2618 37.6543C28.0279 37.6088 27.7224 37.5178 27.5599 37.6543C27.2055 37.8631 26.803 37.9765 26.3917 37.9833C25.9805 37.9901 25.5745 37.8902 25.2134 37.6933C25.0559 37.6116 24.8833 37.5629 24.7063 37.5503C24.2253 37.5503 24.0564 38.0638 24.2644 38.5578C24.7217 39.4615 25.1275 40.3903 25.4799 41.3398C25.8983 42.6446 26.0052 44.0293 25.7919 45.3828C25.1418 45.4998 25.1874 45.4738 24.8753 44.9018C24.4365 44.0897 23.9435 43.3079 23.3998 42.5618C22.3849 41.355 21.6104 39.965 21.1184 38.4668C20.4684 35.9383 20.6373 33.5398 22.3208 31.4078C23.2287 30.2585 24.4712 29.4196 25.8767 29.0074C27.2821 28.5951 28.7809 28.6298 30.1658 29.1066C31.5506 29.5835 32.753 30.4789 33.6067 31.669C34.4604 32.8592 34.9231 34.2852 34.9309 35.7498C34.9684 37.859 34.2953 39.9195 33.0198 41.5998C32.4088 42.4275 31.8022 43.2725 31.1999 44.1348C31.0316 44.3616 30.9061 44.6171 30.8294 44.8888C30.7449 45.4088 30.4523 45.5323 29.9324 45.3958ZM27.7809 29.2498C26.076 29.3096 24.4572 30.0137 23.251 31.2199C22.0447 32.4262 21.3407 34.045 21.2809 35.7498C21.2809 36.2698 21.4953 36.5623 21.8918 36.5688C22.2883 36.5753 22.5029 36.2958 22.5419 35.7758C22.5604 34.8676 22.8085 33.9788 23.2632 33.1923C23.7178 32.4058 24.3641 31.7472 25.1418 31.2778C25.9746 30.7884 26.9255 30.5367 27.8914 30.5498C27.9815 30.558 28.0724 30.5472 28.1581 30.5182C28.2438 30.4892 28.3226 30.4426 28.3893 30.3814C28.456 30.3202 28.5092 30.2458 28.5454 30.1629C28.5817 30.0799 28.6002 29.9903 28.5999 29.8998C28.5999 29.5163 28.3399 29.3083 27.8719 29.3018L27.7809 29.2498Z" fill="white"/>
<path id="Vector_9" d="M28.6778 45.409H27.0593C27.2893 43.3244 26.9548 41.2164 26.0908 39.3055C26.6693 39.1755 27.2088 39.0455 27.7548 38.9285C27.8382 38.9093 27.9249 38.9093 28.0083 38.9285L29.6333 39.2925C28.768 41.2075 28.4378 43.3212 28.6778 45.409Z" fill="white"/>
<path id="Vector_10" d="M31.954 46.7158V48.0158H23.79V46.7158H31.954Z" fill="white"/>
<path id="Vector_11" d="M29.796 49.3418C29.796 49.859 29.5905 50.355 29.2249 50.7207C28.8592 51.0863 28.3632 51.2918 27.846 51.2918C27.3288 51.2918 26.8328 51.0863 26.4671 50.7207C26.1014 50.355 25.896 49.859 25.896 49.3418H29.796Z" fill="white"/>
<path id="Vector_12" d="M19.0582 16.861C19.289 16.8649 19.5136 16.9369 19.7035 17.0681C19.8935 17.1992 20.0404 17.3837 20.1258 17.5981C20.2111 17.8126 20.2312 18.0476 20.1833 18.2734C20.1355 18.4992 20.0219 18.7058 19.8568 18.8673C19.6918 19.0287 19.4827 19.1377 19.2559 19.1805C19.0291 19.2234 18.7946 19.1982 18.5821 19.1081C18.3696 19.018 18.1884 18.867 18.0615 18.6742C17.9345 18.4814 17.8675 18.2554 17.8687 18.0245C17.8669 17.869 17.8966 17.7147 17.956 17.571C18.0155 17.4273 18.1035 17.2971 18.2147 17.1884C18.3258 17.0796 18.4579 16.9946 18.6029 16.9383C18.7479 16.882 18.9028 16.8557 19.0582 16.861ZM19.0257 18.655C19.1981 18.655 19.3635 18.5865 19.4854 18.4646C19.6073 18.3427 19.6757 18.1774 19.6757 18.005C19.6364 17.87 19.5542 17.7514 19.4417 17.667C19.3292 17.5826 19.1924 17.537 19.0517 17.537C18.9111 17.537 18.7742 17.5826 18.6617 17.667C18.5492 17.7514 18.4671 17.87 18.4277 18.005C18.4272 18.1688 18.4885 18.3267 18.5994 18.4472C18.7102 18.5677 18.8625 18.6419 19.0257 18.655Z" fill="white"/>
<path id="Vector_13" d="M49.1662 20.1503C49.1347 20.672 48.923 21.1666 48.5674 21.5495C48.2117 21.9324 47.7341 22.18 47.2162 22.2498C46.6709 22.3311 46.1143 22.2215 45.6405 21.9396C45.1667 21.6577 44.8049 21.2208 44.6162 20.7028C44.4231 20.1858 44.4189 19.6172 44.6045 19.0974C44.79 18.5776 45.1533 18.1402 45.6302 17.8623C45.6132 18.2943 45.7114 18.723 45.9147 19.1045C46.118 19.486 46.4191 19.8065 46.7872 20.0333C47.1392 20.2583 47.5438 20.3875 47.9611 20.408C48.3784 20.4285 48.7938 20.3397 49.1662 20.1503Z" fill="white"/>
<path id="Vector_14" d="M48.9448 18.7524C48.7788 18.9629 48.5451 19.1095 48.2833 19.1676C48.0216 19.2256 47.7478 19.1915 47.5083 19.0709C47.283 18.9519 47.0998 18.7664 46.9835 18.5397C46.8672 18.3129 46.8235 18.0559 46.8583 17.8034C46.8973 17.5629 47.0013 17.4719 47.2483 17.5239C47.6043 17.5906 47.9411 17.7353 48.2345 17.9478C48.5278 18.1602 48.7704 18.435 48.9448 18.7524Z" fill="white"/>
</g>
</svg>
