<?xml version="1.0" encoding="utf-8"?>
<!-- Generator: Adobe Illustrator 26.5.0, SVG Export Plug-In . SVG Version: 6.00 Build 0)  -->
<svg version="1.1" id="Layer_1" xmlns="http://www.w3.org/2000/svg" xmlns:xlink="http://www.w3.org/1999/xlink" x="0px" y="0px"
	 viewBox="0 0 100 100" style="enable-background:new 0 0 100 100;" xml:space="preserve">
<style type="text/css">
	.st0{fill-rule:evenodd;clip-rule:evenodd;fill:#FFFFFF;}
</style>
<path class="st0" d="M68.8,54.2l7,12.1l2.4-2.4l-2.3-5.1c1.9-2.8,3.3-6.1,4-9.5l5.2-2v-6.2l-5.2-2c-0.7-3.5-2.1-6.7-4-9.5l2.3-5.1
	l-4.4-4.4l-5.1,2.3c-2.8-1.9-6.1-3.3-9.5-4l-1.5-4c-0.3-0.7-1-1.2-1.8-1.2h-3.6c-0.8,0-1.5,0.5-1.8,1.2l-1.5,4
	c-3.5,0.7-6.7,2.1-9.5,4l-5.1-2.3l-4.4,4.4l2.3,5.1c-1.9,2.8-3.3,6.1-4,9.5l-5.2,2v6.2l5.2,2c0.7,3.5,2.1,6.7,4,9.5l-2.3,5.1
	l2.4,2.4l7-12.1c-2.2-3.3-3.4-7.3-3-11.7c0.8-8.3,7.4-15.1,15.7-16c10.7-1.2,19.8,7.2,19.8,17.7C71.9,47.9,70.7,51.3,68.8,54.2
	L68.8,54.2z M58,42.3l17.4,30.1c0.7,1.3,0.9,2.8,0.4,4.1c-0.7,1.8-2.4,2.9-4.3,2.9l-34.8,0c-1.4,0-2.9-0.6-3.8-1.7
	c-1.2-1.5-1.3-3.5-0.4-5.2L50,42.5c0.7-1.3,2-2.2,3.4-2.4C55.3,39.8,57.1,40.7,58,42.3L58,42.3z M54.6,70.5
	c-1.7-0.4-3.2,1.1-2.8,2.8c0.2,0.8,0.9,1.5,1.7,1.7c1.7,0.4,3.2-1.1,2.8-2.8C56.1,71.3,55.4,70.7,54.6,70.5z M54,66.3
	c-1,0-1.8-0.8-1.8-1.7l-0.5-12.5c0-0.5,0.2-0.9,0.5-1.3c0.4-0.4,0.8-0.5,1.3-0.5h0.9c0.5,0,0.9,0.2,1.3,0.5c0.4,0.4,0.5,0.8,0.5,1.3
	l-0.5,12.5C55.8,65.6,55,66.3,54,66.3L54,66.3z"/>
</svg>
