<svg width="53" height="33" viewBox="0 0 53 33" fill="none" xmlns="http://www.w3.org/2000/svg">
<g id="delevery 1" clip-path="url(#clip0_1429_4791)">
<path id="Vector" d="M-0.119751 15.8416C-0.00629376 15.5269 0.208305 15.2604 0.489199 15.0855C0.770093 14.9106 1.10079 14.8375 1.42758 14.8782C6.24669 14.8782 11.0619 14.8782 15.8732 14.8782C16.4571 14.8782 17.041 14.9852 17.2571 15.5978C17.3913 15.9048 17.4508 16.2404 17.4305 16.5759C17.4102 16.9114 17.3106 17.2369 17.1403 17.5248C16.9897 17.72 16.7908 17.8708 16.564 17.9618C16.3372 18.0527 16.0907 18.0805 15.8499 18.0422H8.7847C6.36152 18.0422 3.9325 18.0422 1.50933 18.0422C1.17554 18.0903 0.835492 18.0256 0.54126 17.858C0.247027 17.6904 0.014836 17.4292 -0.119751 17.1144V15.8416Z" fill="white"/>
<path id="Vector_2" d="M47.4627 28.7155C47.2721 27.7382 47.0121 26.7766 46.6849 25.8386C46.1286 24.5823 45.1795 23.5551 43.9897 22.9218C42.7999 22.2886 41.4384 22.0859 40.1236 22.3464C38.8088 22.6068 37.6169 23.3153 36.7391 24.3582C35.8613 25.401 35.3484 26.7178 35.2827 28.0973C35.2827 28.6085 35.0811 28.7452 34.6028 28.7393C30.9615 28.7393 27.3202 28.7393 23.6558 28.7393C22.9472 28.7393 22.9472 28.7393 22.8896 27.9963C22.7872 26.4984 22.1609 25.0899 21.1272 24.0328C20.0935 22.9757 18.7227 22.342 17.2699 22.2497C15.8171 22.1574 14.3813 22.6127 13.2297 23.531C12.078 24.4492 11.2889 25.7678 11.0092 27.2414C10.9487 27.5709 10.9141 27.9048 10.9055 28.24C10.9055 28.6026 10.7211 28.7393 10.3869 28.7393C9.94328 28.7393 9.49964 28.7393 9.056 28.7393C8.69845 28.7452 8.34347 28.6759 8.01273 28.5356C7.68198 28.3954 7.3824 28.1871 7.13225 27.9234C6.8821 27.6598 6.68662 27.3464 6.55774 27.0022C6.42886 26.6581 6.36928 26.2905 6.38263 25.9218C6.3423 24.0376 6.38263 22.1474 6.38263 20.2631C6.38263 19.5855 6.71104 19.3002 7.45428 19.2764C8.09958 19.2764 8.75064 19.2764 9.40169 19.2764C11.7928 19.2764 14.1896 19.2764 16.5806 19.2764C17.1609 19.2915 17.7254 19.0802 18.1612 18.6846C18.597 18.289 18.872 17.7383 18.9313 17.1425C19.156 15.4663 18.5568 14.23 17.2951 13.8495C16.9321 13.7529 16.5578 13.7088 16.1831 13.7188C13.3599 13.7188 10.5425 13.7188 7.71931 13.7188C7.50234 13.6993 7.28681 13.6656 7.07402 13.6177C6.97887 13.6156 6.88515 13.5935 6.79862 13.5526C6.7121 13.5117 6.6346 13.453 6.57091 13.38C6.50722 13.3071 6.45868 13.2214 6.42828 13.1284C6.39788 13.0354 6.38626 12.9369 6.39415 12.8391C6.39415 12.6964 6.39415 12.5597 6.39415 12.417C6.39415 11.6265 6.567 11.4601 7.33905 11.4601H20.5907C21.2023 11.4986 21.8094 11.3295 22.3192 10.9786C23.3217 10.2356 23.4715 8.93979 23.1603 7.56673C23.007 7.04783 22.6862 6.59866 22.2512 6.29376C21.8163 5.98886 21.2934 5.84658 20.7693 5.89051C16.3636 5.89051 11.9464 5.89051 7.51766 5.89051C6.52667 5.89051 6.36534 5.72408 6.36534 4.70171C6.36534 4.13703 6.36534 3.57235 6.36534 3.00767C6.32407 2.34752 6.52245 1.69515 6.92185 1.17762C7.32125 0.660094 7.89306 0.314462 8.52593 0.208041C9.1256 0.0703775 9.73803 0.000617761 10.3524 0C18.4186 0 26.4848 0 34.551 0C36.5099 0 37.4318 0.921322 37.4318 2.93634C37.4318 4.0657 37.4318 5.19507 37.4318 6.32443C37.4318 6.95449 37.5413 7.06149 38.152 7.06149C38.9701 7.06149 39.7883 7.06149 40.6122 7.06149C41.5072 7.03673 42.3895 7.28381 43.1496 7.77203C43.9096 8.26025 44.5139 8.96809 44.8873 9.80762C45.5153 11.0737 46.1606 12.3457 46.7137 13.6474C46.9433 14.2091 47.3001 14.7058 47.7542 15.0957C48.2084 15.4856 48.7466 15.7575 49.3237 15.8883C49.8192 16.0191 50.3089 16.1915 50.8044 16.2985C51.3417 16.3957 51.8312 16.6778 52.1932 17.0987C52.5552 17.5197 52.7684 18.0547 52.7979 18.6166C52.9065 19.3828 52.972 20.1549 52.9938 20.9289C52.9938 22.5694 52.9938 24.21 52.9938 25.8505C53.0181 26.2133 52.9706 26.5773 52.8542 26.9206C52.7378 27.2638 52.5549 27.579 52.3167 27.847C52.0784 28.115 51.7898 28.3302 51.4685 28.4795C51.1471 28.6288 50.7996 28.7091 50.4472 28.7155C49.4562 28.775 48.4134 28.7155 47.4627 28.7155ZM45.6881 15.823C44.9334 14.2597 44.2362 12.7975 43.5218 11.3352C43.1949 10.6242 42.6792 10.0235 42.0347 9.60263C41.3902 9.18179 40.6432 8.95814 39.8805 8.95762C39.3043 8.95762 38.682 8.95762 38.0828 8.95762C37.6392 8.95762 37.4491 9.08839 37.4548 9.59363C37.4548 11.4779 37.4548 13.3681 37.4548 15.2523C37.4548 15.8467 37.5355 15.9418 38.1462 15.9478H45.0255C45.2486 15.9197 45.4698 15.878 45.6881 15.823Z" fill="white"/>
<path id="Vector_3" d="M12.3637 10.2385H4.4694C3.88551 10.2385 3.35416 10.1493 3.11476 9.56647C2.98009 9.26456 2.9163 8.93485 2.92847 8.60347C2.94063 8.2721 3.0284 7.94816 3.18483 7.65734C3.31888 7.44599 3.5092 7.27784 3.73356 7.17253C3.95791 7.06722 4.20705 7.02909 4.45189 7.06259H20.077C21.5251 7.06259 22.1732 8.01418 21.6886 9.44157C21.5893 9.69906 21.4099 9.91635 21.178 10.0603C20.946 10.2042 20.6742 10.2668 20.404 10.2385H12.3637Z" fill="white"/>
<path id="Vector_4" d="M45.8386 28.473C45.8385 29.4161 45.5634 30.3379 45.048 31.1213C44.5326 31.9047 43.8003 32.5145 42.944 32.8732C42.0878 33.2319 41.1462 33.3233 40.2388 33.1358C39.3314 32.9483 38.4992 32.4904 37.8478 31.8202C37.1964 31.1501 36.7553 30.2978 36.5804 29.3718C36.4054 28.4457 36.5046 27.4876 36.8653 26.619C37.2261 25.7505 37.832 25.0108 38.6063 24.4937C39.3806 23.9767 40.2883 23.7057 41.2141 23.7151C42.4449 23.7276 43.621 24.2344 44.487 25.1254C45.3529 26.0163 45.8387 27.2194 45.8386 28.473ZM41.0973 30.4833C41.3663 30.4952 41.6349 30.4524 41.8875 30.3574C42.1401 30.2624 42.3715 30.1171 42.5683 29.9299C42.7651 29.7428 42.9233 29.5175 43.0337 29.2674C43.144 29.0172 43.2043 28.7472 43.211 28.473C43.2144 27.9305 43.0103 27.4079 42.6419 27.016C42.2735 26.6241 41.7698 26.3937 41.2375 26.3736C40.7057 26.3559 40.1887 26.5539 39.8001 26.9241C39.4114 27.2943 39.1829 27.8065 39.1646 28.3481C39.1497 28.6186 39.1882 28.8894 39.278 29.1443C39.3678 29.3993 39.5069 29.6333 39.6872 29.8325C39.8675 30.0316 40.0852 30.1919 40.3274 30.3037C40.5697 30.4155 40.8315 30.4765 41.0973 30.4833Z" fill="white"/>
<path id="Vector_5" d="M21.1922 28.4728C21.1922 29.4138 20.9183 30.3337 20.405 31.1162C19.8917 31.8986 19.1622 32.5085 18.3086 32.8686C17.4551 33.2287 16.5159 33.3229 15.6097 33.1393C14.7036 32.9558 13.8713 32.5026 13.218 31.8372C12.5647 31.1718 12.1198 30.324 11.9396 29.401C11.7594 28.4781 11.8519 27.5214 12.2054 26.652C12.559 25.7826 13.1577 25.0395 13.9259 24.5167C14.694 23.9939 15.5972 23.7148 16.521 23.7148C17.7557 23.7288 18.9359 24.2345 19.809 25.1238C20.682 26.0131 21.1786 27.2152 21.1922 28.4728ZM16.521 30.5187C16.9223 30.5175 17.3141 30.395 17.6469 30.1668C17.9797 29.9385 18.2385 29.6147 18.3904 29.2364C18.5423 28.8582 18.5806 28.4425 18.5003 28.0421C18.42 27.6417 18.2249 27.2746 17.9395 26.9873C17.6542 26.7 17.2915 26.5054 16.8975 26.4283C16.5035 26.3512 16.0958 26.3949 15.7263 26.554C15.3567 26.7132 15.0419 26.9805 14.8216 27.322C14.6013 27.6636 14.4856 28.0641 14.4891 28.4728C14.4983 29.0139 14.717 29.5294 15.0976 29.907C15.4781 30.2846 15.9898 30.4938 16.521 30.489V30.5187Z" fill="white"/>
</g>
<defs>
<clipPath id="clip0_1429_4791">
<rect width="53" height="33" fill="white"/>
</clipPath>
</defs>
</svg>
