<svg width="60" height="60" viewBox="0 0 60 60" fill="none" xmlns="http://www.w3.org/2000/svg">
<g id="Demand Generation 1">
<path id="Vector" d="M53.796 18.0543C53.712 18.4743 53.634 18.9003 53.538 19.3203C53.1378 21.0594 52.2685 22.6555 51.0246 23.9352C49.7808 25.2148 48.2099 26.129 46.4828 26.5784C44.7558 27.0277 42.9386 26.9951 41.2288 26.484C39.519 25.9729 37.982 25.0028 36.7849 23.6793C35.5878 22.3558 34.7764 20.7295 34.4389 18.9772C34.1014 17.2248 34.2507 15.4134 34.8706 13.74C35.4905 12.0665 36.5572 10.595 37.9549 9.48542C39.3525 8.37581 41.0276 7.67055 42.798 7.4463C42.9021 7.42672 43.0045 7.39862 43.104 7.3623H44.964C45.0654 7.39939 45.1698 7.4275 45.276 7.4463C47.2449 7.69703 49.0901 8.54339 50.5646 9.87202C52.039 11.2006 53.0723 12.9481 53.526 14.8803C53.628 15.3183 53.706 15.7563 53.796 16.1943V18.0543ZM48.192 21.2943V12.9723H39.888V21.2943H48.192Z" fill="white"/>
<path id="Vector_2" d="M13.6861 25.7998L19.5901 31.6918L19.3081 31.9978C18.3781 32.9278 17.4301 33.8458 16.5181 34.7938C15.2496 36.0973 14.5433 37.8466 14.5512 39.6654C14.559 41.4842 15.2804 43.2273 16.5601 44.5198C17.854 45.7799 19.5783 46.5013 21.3841 46.5381C23.1898 46.5748 24.942 45.9242 26.2861 44.7178C27.2521 43.8238 28.1581 42.8698 29.0881 41.9398C29.2029 41.8156 29.3111 41.6854 29.4121 41.5498C31.4221 43.5658 33.3781 45.5158 35.3461 47.4838C32.7061 50.2378 30.0721 53.0338 26.1841 54.2638C17.4601 56.9998 8.02813 51.4318 6.46813 42.4258C5.98527 39.9971 6.11117 37.4867 6.83461 35.1185C7.55804 32.7503 8.85651 30.5981 10.6141 28.8538C11.6161 27.7978 12.6721 26.7958 13.6861 25.7998Z" fill="white"/>
<path id="Vector_3" d="M21.6838 18L27.4198 23.73L21.5998 29.52L15.8638 23.784L21.6838 18Z" fill="white"/>
<path id="Vector_4" d="M43.1998 39.5461L37.4278 45.3121L31.6318 39.5161L37.3978 33.7441L43.1998 39.5461Z" fill="white"/>
<path id="Vector_5" d="M33.8338 25.5596L34.7158 28.1996L31.0198 29.4416L34.9738 33.3776L26.8318 36.0956L25.9498 33.4556L29.6638 32.2016L25.7158 28.2656L33.8338 25.5596Z" fill="white"/>
<path id="Vector_6" d="M45.4079 15.7559V18.4799H42.6719V15.7559H45.4079Z" fill="white"/>
</g>
</svg>
