<?xml version="1.0" encoding="UTF-8"?>
<svg id="Layer_1" xmlns="http://www.w3.org/2000/svg" viewBox="0 0 100 100">
  <defs>
    <style>
      .cls-1 {
        fill: #fff;
      }
    </style>
  </defs>
  <path class="cls-1" d="M81.94,26.69c-.35,1.29-.69,2.57-1.04,3.86l-9.62-3.44c-.73-.26-1.49-.39-2.26-.39-2.16,0-4.21,1.06-5.46,2.85-1.25,1.77-1.56,4.05-.82,6.09l6.75,18.88c-1.03.3-2.15.45-3.35.45H26.32c.3,1.52.51,2.92.87,4.28.39,1.48,1.58,2.35,3.12,2.42,1,.04,2.01.01,3.02.01,12.14,0,24.27,0,36.41,0,.41,0,.82-.02,1.23.03,1.72.18,3.01,1.61,3.02,3.31,0,1.7-1.27,3.13-2.99,3.33-.37.04-.74.03-1.12.03-13.03,0-26.06,0-39.09,0-5.39,0-9.36-3.27-10.37-8.58-2.34-12.27-4.67-24.54-6.98-36.82-.21-1.13-.74-1.57-1.89-1.53-1.82.07-3.65.03-5.47.01-2.08-.02-3.57-1.42-3.58-3.33-.01-1.91,1.48-3.34,3.55-3.36,2.08-.02,4.17-.05,6.25,0,2.75.07,4.96,1.26,6.44,3.59.46.72.92.88,1.69.88,18.61-.02,37.23-.02,55.84-.01,3.11,0,5.38,1.81,5.9,4.69.17.94.01,1.85-.23,2.75Z"/>
  <path class="cls-1" d="M72.95,78.57c-.02,3.7-3.08,6.71-6.79,6.67-3.65-.04-6.63-3.07-6.61-6.74.02-3.7,3.08-6.71,6.79-6.67,3.65.04,6.63,3.07,6.61,6.74Z"/>
  <path class="cls-1" d="M28.15,71.83c3.7.02,6.7,3.1,6.65,6.81-.05,3.65-3.09,6.62-6.75,6.59-3.7-.02-6.7-3.1-6.65-6.81.05-3.65,3.09-6.62,6.75-6.59Z"/>
  <path class="cls-1" d="M96.83,58.8l-2.41,2.41c-.45.45-1.04.67-1.62.67s-1.17-.22-1.62-.67l-8.27-8.27-3.47,5.76c-.4.67-1.07.99-1.74.99-.81,0-1.61-.47-1.93-1.36l-2.2-6.15-6.47-18.1c-.5-1.39.58-2.73,1.91-2.73.23,0,.46.04.7.12l9.97,3.56,14.27,5.1c1.62.58,1.84,2.78.37,3.67l-5.76,3.47,8.27,8.27c.89.9.89,2.35,0,3.24Z"/>
</svg>