<svg width="60" height="60" viewBox="0 0 60 60" fill="none" xmlns="http://www.w3.org/2000/svg">
<g id="Email Marketing 1">
<path id="Vector" d="M11.064 54.7138C13.026 52.9738 14.976 51.2278 16.938 49.4938L25.2 42.1738L25.566 41.8678L27.906 43.9318L30.42 46.1398C30.5444 46.2844 30.6987 46.4004 30.8721 46.48C31.0456 46.5596 31.2341 46.6007 31.425 46.6007C31.6158 46.6007 31.8044 46.5596 31.9778 46.48C32.1513 46.4004 32.3055 46.2844 32.43 46.1398C34.056 44.7238 35.67 43.2958 37.32 41.8438L39.642 43.8777L51.804 54.5998L51.9 54.7078L11.064 54.7138Z" fill="white"/>
<path id="Vector_2" d="M15.2158 13.002H47.6518V13.602C47.6518 18.702 47.6518 23.802 47.6518 28.902C47.6547 29.1247 47.5708 29.3399 47.4178 29.502C42.1538 34.13 36.8798 38.764 31.5958 43.4039L31.4518 43.5119C31.3498 43.434 31.2358 43.356 31.1278 43.26L15.5998 29.526C15.4757 29.4304 15.3766 29.3064 15.3108 29.1643C15.245 29.0222 15.2144 28.8664 15.2218 28.71C15.2218 23.676 15.2218 18.642 15.2218 13.608L15.2158 13.002ZM39.9298 25.8H41.2078C41.3882 25.8121 41.5693 25.7871 41.7396 25.7265C41.91 25.6658 42.066 25.5708 42.1982 25.4473C42.3303 25.3238 42.4356 25.1745 42.5076 25.0086C42.5796 24.8427 42.6168 24.6638 42.6168 24.483C42.6168 24.3021 42.5796 24.1232 42.5076 23.9573C42.4356 23.7914 42.3303 23.6421 42.1982 23.5186C42.066 23.3951 41.91 23.3001 41.7396 23.2395C41.5693 23.1788 41.3882 23.1538 41.2078 23.166C40.7938 23.166 40.3798 23.166 39.9178 23.166V15.912C39.9329 15.7343 39.9329 15.5556 39.9178 15.378C39.8749 15.0831 39.7325 14.8117 39.5143 14.6087C39.296 14.4058 39.0151 14.2834 38.7178 14.262C38.4263 14.2381 38.1355 14.3159 37.8949 14.4822C37.6543 14.6484 37.4786 14.8929 37.3978 15.174C37.3348 15.4227 37.3165 15.6808 37.3438 15.936C37.3619 16.0662 37.3325 16.1985 37.2608 16.3088C37.1892 16.419 37.0802 16.4996 36.9538 16.536C34.2513 17.7523 31.3544 18.4796 28.3978 18.684C26.6638 18.822 24.9238 18.846 23.1958 18.966C22.3999 19.0277 21.6563 19.3866 21.1128 19.9712C20.5692 20.5559 20.2655 21.3236 20.2618 22.122C20.2618 23.694 20.2618 25.27 20.2618 26.85C20.2677 27.6421 20.5684 28.4036 21.1053 28.986C21.6422 29.5684 22.3768 29.9299 23.1658 30C23.8498 30.06 24.5458 30.054 25.2358 30.078L25.7698 30.108C25.7698 31.908 25.7698 33.708 25.7698 35.472C25.7515 35.7822 25.7615 36.0935 25.7998 36.402C25.8524 36.707 26.0154 36.982 26.2577 37.1746C26.5001 37.3671 26.8048 37.4637 27.1138 37.4459C27.2955 37.4427 27.4746 37.4018 27.6397 37.3259C27.8048 37.2499 27.9524 37.1405 28.073 37.0046C28.1937 36.8687 28.2849 36.7093 28.3408 36.5363C28.3967 36.3634 28.4161 36.1808 28.3978 36C28.3978 34.296 28.3978 32.592 28.3978 30.888V30.288C31.2947 30.5185 34.1333 31.2281 36.7978 32.388C37.1818 32.562 37.3498 32.754 37.3018 33.174C37.2766 33.3957 37.2971 33.6203 37.3618 33.834C37.4534 34.1297 37.6493 34.3822 37.9131 34.5444C38.1768 34.7067 38.4905 34.7676 38.7958 34.716C39.1174 34.6659 39.409 34.4982 39.614 34.2455C39.8191 33.9928 39.9231 33.673 39.9058 33.348C39.9058 31.032 39.9058 28.716 39.9058 26.4L39.9298 25.8Z" fill="white"/>
<path id="Vector_3" d="M8.49023 53.4598V26.7598L23.5982 40.1098L8.49023 53.4598Z" fill="white"/>
<path id="Vector_4" d="M54.372 26.8438V53.3997C49.314 48.9538 44.328 44.5618 39.312 40.1398L54.372 26.8438Z" fill="white"/>
<path id="Vector_5" d="M37.2598 10.3201H25.7998L31.5298 5.28613L37.2598 10.3201Z" fill="white"/>
<path id="Vector_6" d="M50.3042 21.8223L53.2022 24.3663L50.3042 26.9223V21.8223Z" fill="white"/>
<path id="Vector_7" d="M12.6002 21.9482V26.8622L9.8042 24.4022L12.6002 21.9482Z" fill="white"/>
<path id="Vector_8" d="M28.4521 21.3356C31.482 21.0967 34.458 20.3987 37.2782 19.2656V29.7356C34.4583 28.6005 31.4823 27.9005 28.4521 27.6596V21.3356Z" fill="white"/>
<path id="Vector_9" d="M25.7522 21.5996V27.5096C24.9122 27.4736 24.0842 27.4676 23.2682 27.3656C23.1062 27.3656 22.8722 26.9696 22.8662 26.7656C22.8662 25.2716 22.8662 23.7656 22.8662 22.2836C22.8662 21.9176 23.0282 21.6356 23.4182 21.6236C24.1682 21.5996 24.9362 21.5996 25.7522 21.5996Z" fill="white"/>
</g>
</svg>
