<svg width="50" height="50" viewBox="0 0 50 50" fill="none" xmlns="http://www.w3.org/2000/svg">
<g id="Engagement 1">
<path id="Vector" d="M23.5199 48.7504C23.1749 48.5254 22.7599 48.5704 22.3799 48.4954C16.5949 47.3604 12.1849 42.4904 11.6249 36.6154C11.4799 35.1204 11.5949 33.6204 11.5449 32.0854H18.9399C19.0399 32.2054 18.9699 32.3804 18.9749 32.5404C19.0199 33.7754 18.8849 35.0154 19.0599 36.2454C19.4799 39.1304 22.0499 41.3254 25.0049 41.3254C27.9599 41.3254 30.5349 39.1254 30.9599 36.2454C31.0349 35.7504 31.0349 35.2604 31.0349 34.7654C31.0349 33.8704 31.0349 32.9804 31.0349 32.0654H38.4199C38.5699 35.4154 38.5499 38.7254 36.8049 41.7454C34.4849 45.7504 31.0549 48.0954 26.4399 48.6554C26.3749 48.6654 26.3199 48.6704 26.3049 48.7454H23.5199V48.7504Z" fill="white"/>
<path id="Vector_2" d="M48.7495 20.8249C48.3795 21.6299 47.7445 21.8649 46.8845 21.8599C43.4095 21.8299 39.9295 21.8449 36.4545 21.8449C35.3745 21.8449 34.8295 21.3049 34.8345 20.2249C34.8395 19.0249 34.7495 17.8149 35.1145 16.6399C35.5045 15.3899 36.1645 14.3199 37.1645 13.4199C38.4645 14.6699 39.9945 15.3499 41.7895 15.3499C43.5695 15.3499 45.0945 14.6899 46.3945 13.4449C46.7245 13.6199 46.9445 13.9249 47.1745 14.1999C47.9595 15.1449 48.4445 16.2349 48.6595 17.4449C48.6745 17.5249 48.6295 17.6399 48.7545 17.6749V20.8299L48.7495 20.8249Z" fill="white"/>
<path id="Vector_3" d="M20.3743 9.52453C23.0143 12.0995 27.0143 12.0745 29.6043 9.54453C29.9293 9.72453 30.1543 10.0245 30.3843 10.3045C31.4043 11.5595 31.9293 12.9945 31.9543 14.6145C31.9643 15.2495 31.9643 15.8845 31.9543 16.5145C31.9393 17.3545 31.3593 17.9445 30.5193 17.9445C26.8393 17.9495 23.1593 17.9495 19.4793 17.9445C18.7493 17.9445 18.1043 17.4745 18.0743 16.7895C18.0043 15.2345 17.9043 13.6645 18.5143 12.1695C18.9293 11.1545 19.5193 10.2645 20.3743 9.51953V9.52453Z" fill="white"/>
<path id="Vector_4" d="M12.8395 13.4152C14.0595 14.5302 14.8045 15.8752 15.0745 17.4852C15.2445 18.5002 15.1745 19.5202 15.1545 20.5402C15.1395 21.3102 14.5145 21.8452 13.6945 21.8452C11.5945 21.8502 9.48955 21.8452 7.38955 21.8452C5.85955 21.8452 4.32955 21.8452 2.79955 21.8452C1.81455 21.8452 1.25455 21.2802 1.25955 20.2852C1.26455 19.0652 1.16955 17.8452 1.53455 16.6502C1.90955 15.4052 2.68955 14.1602 3.60455 13.4352C4.88455 14.6652 6.40955 15.3452 8.20455 15.3452C9.99955 15.3452 11.5345 14.6752 12.8495 13.4102L12.8395 13.4152Z" fill="white"/>
<path id="Vector_5" d="M24.9941 1.25C27.0391 1.25 28.7091 2.91 28.7091 4.955C28.7091 7 27.0491 8.67 25.0041 8.67C22.9591 8.67 21.2891 7.01 21.2891 4.965C21.2891 2.92 22.9491 1.25 24.9891 1.25H24.9941Z" fill="white"/>
<path id="Vector_6" d="M4.50501 8.8504C4.50501 6.8054 6.17501 5.1454 8.22001 5.1504C10.265 5.1504 11.925 6.8204 11.92 8.8704C11.92 10.9154 10.25 12.5754 8.20001 12.5704C6.16001 12.5704 4.49501 10.8954 4.50001 8.8504H4.50501Z" fill="white"/>
<path id="Vector_7" d="M45.499 8.8804C45.489 10.9204 43.814 12.5804 41.769 12.5704C39.729 12.5604 38.074 10.8854 38.084 8.8404C38.094 6.8004 39.769 5.1454 41.814 5.1504C43.854 5.1604 45.509 6.8354 45.499 8.8804Z" fill="white"/>
<path id="Vector_8" d="M18.9691 29.2596H11.5491C11.5491 28.6746 11.5491 28.0946 11.5491 27.5146C11.5491 26.7296 11.5441 25.9397 11.5491 25.1547C11.5591 24.3097 12.1341 23.7146 12.9641 23.7096C14.4941 23.6996 16.0191 23.6996 17.5491 23.7096C18.3291 23.7096 18.9441 24.2646 18.9591 25.0146C18.9841 26.4146 18.9691 27.8196 18.9691 29.2646V29.2596Z" fill="white"/>
<path id="Vector_9" d="M38.4493 29.2599H31.0293C31.0293 28.5149 31.0293 27.7799 31.0293 27.0499C31.0293 26.4299 31.0293 25.8149 31.0293 25.1949C31.0343 24.2949 31.6043 23.7099 32.4943 23.7049C33.9893 23.6999 35.4893 23.6999 36.9843 23.7049C37.7943 23.7049 38.4193 24.2449 38.4343 25.0149C38.4643 26.2949 38.4443 27.5799 38.4443 28.8599C38.4443 28.9799 38.4443 29.0999 38.4443 29.2599H38.4493Z" fill="white"/>
</g>
</svg>
