<svg width="88" height="88" viewBox="0 0 88 88" fill="none" xmlns="http://www.w3.org/2000/svg">
<g id="Engaging banners 1">
<g id="Group">
<path id="Vector" d="M5.54395 28.0892C5.89595 27.746 6.01915 27.2356 6.42395 26.91C7.04875 26.4084 7.74395 26.2764 8.51835 26.2764C24.7103 26.2764 40.9023 26.2764 57.0943 26.2764C64.5479 26.2764 72.0103 26.2764 79.4639 26.2764C81.4703 26.2764 82.4471 27.2532 82.4471 29.2772C82.4471 39.2388 82.4471 49.2004 82.4471 59.162C82.4471 61.2124 81.4703 62.1804 79.4023 62.1804C56.0031 62.1804 32.6039 62.1716 9.20475 62.2068C7.60315 62.2068 6.30955 61.9076 5.54395 60.3852V28.0892ZM8.13995 59.5844H79.8423V28.89H8.13995V59.5844Z" fill="white"/>
<path id="Vector_2" d="M20.8296 82.6842C15.8224 82.605 11.8976 78.5482 11.9768 73.541C12.056 68.569 16.1568 64.653 21.1816 64.7498C26.0832 64.8378 29.9728 68.9562 29.8936 73.9634C29.8144 78.7858 25.6872 82.7634 20.8296 82.6842ZM20.8208 80.1058C24.3232 80.1674 27.2536 77.3778 27.324 73.9106C27.3944 70.3202 24.6136 67.3722 21.0672 67.3018C17.5296 67.2314 14.5992 70.0298 14.5376 73.5498C14.4672 77.149 17.2392 80.0354 20.8208 80.1058Z" fill="white"/>
<path id="Vector_3" d="M40.1368 73.7517C40.1192 75.9077 38.3944 77.5797 36.2296 77.5445C34.1264 77.5093 32.428 75.7757 32.4544 73.6813C32.4808 71.5605 34.2672 69.8269 36.3792 69.8709C38.4824 69.9149 40.1544 71.6397 40.1368 73.7517ZM37.5672 73.7429C37.5848 73.0213 37.0216 72.4317 36.3176 72.4317C35.6312 72.4317 35.0152 73.0301 35.024 73.7253C35.024 74.3941 35.5872 74.9573 36.256 74.9837C36.9864 75.0101 37.5496 74.4821 37.5672 73.7517V73.7429Z" fill="white"/>
<path id="Vector_4" d="M51.7087 77.5447C49.5791 77.5535 47.8895 75.8903 47.8631 73.7695C47.8367 71.6223 49.5439 69.8711 51.6735 69.8623C53.7943 69.8535 55.5543 71.6135 55.5455 73.7343C55.5367 75.8375 53.8207 77.5359 51.7087 77.5447ZM52.9759 73.7431C52.9935 73.0567 52.3951 72.4407 51.6999 72.4319C51.0223 72.4319 50.4591 72.9687 50.4327 73.6551C50.3975 74.3943 50.9167 74.9575 51.6471 74.9839C52.3599 75.0015 52.9583 74.4471 52.9759 73.7519V73.7431Z" fill="white"/>
<path id="Vector_5" d="M70.9016 73.717C70.9016 75.873 69.1856 77.5626 67.0296 77.545C64.9176 77.5274 63.228 75.8202 63.228 73.7082C63.228 71.5874 64.988 69.8362 67.1088 69.8626C69.212 69.889 70.9016 71.605 70.9016 73.717ZM67.1088 74.9754C67.8304 74.9578 68.3672 74.3858 68.3408 73.6554C68.3144 72.9778 67.7336 72.4234 67.0736 72.4234C66.3872 72.4234 65.78 73.0394 65.7976 73.7258C65.8064 74.4386 66.396 74.9842 67.1176 74.9666L67.1088 74.9754Z" fill="white"/>
<path id="Vector_6" d="M46.5607 44.1848C46.5607 47.5112 46.5607 50.8464 46.5607 54.1728C46.5607 56.012 45.5135 57.0592 43.6831 57.0592C37.0479 57.0592 30.4215 57.0592 23.7863 57.0592C21.9911 57.0592 20.9351 56.0208 20.9263 54.2256C20.9263 47.564 20.9263 40.9112 20.9263 34.2496C20.9263 32.4456 21.9823 31.4072 23.7775 31.4072C30.4391 31.4072 37.0919 31.4072 43.7535 31.4072C45.5135 31.4072 46.5607 32.4456 46.5695 34.1968C46.5695 37.5232 46.5695 40.8584 46.5695 44.1848H46.5607ZM43.9471 50.864V33.9944H23.5311V48.1096C23.8215 47.9512 23.8743 47.6872 23.9887 47.4848C24.7543 46.112 25.5199 44.7392 26.2503 43.3488C26.7607 42.3808 27.5263 41.7912 28.6263 41.7912C29.7263 41.7912 30.4831 42.3808 31.0023 43.34C32.0231 45.2584 33.0703 47.1592 34.1175 49.06C34.2143 49.236 34.2495 49.4824 34.5047 49.5704C35.1559 48.3824 35.8247 47.212 36.4407 46.0152C36.9687 44.9944 37.7343 44.3432 38.9047 44.3608C40.0399 44.3696 40.7879 45.0208 41.3071 46.0064C42.1431 47.5904 43.0143 49.1568 43.9559 50.8728L43.9471 50.864ZM28.6175 44.352C26.9279 47.4584 25.2735 50.4768 23.6279 53.4952C23.4519 53.812 23.3903 54.1464 23.5751 54.4544H34.1263C32.2783 51.0576 30.4655 47.74 28.6175 44.352ZM43.0055 54.4984C41.5975 51.9112 40.2511 49.456 38.8695 46.9128C38.1303 48.268 37.5495 49.5792 36.7487 50.732C35.9391 51.9024 35.9039 52.9056 36.7927 53.9792C36.8279 54.0144 36.8455 54.0672 36.8631 54.1112C36.9775 54.4104 37.1799 54.5072 37.4967 54.4984C39.2919 54.4808 41.0783 54.4984 43.0055 54.4984Z" fill="white"/>
<path id="Vector_7" d="M58.7224 32.7098C61.3272 32.7098 63.9232 32.7098 66.528 32.7098C66.7744 32.7098 67.0296 32.701 67.276 32.7362C67.892 32.833 68.2528 33.2202 68.332 33.8274C68.4112 34.4434 68.1208 34.8922 67.5664 35.1474C67.3112 35.2618 67.0384 35.2707 66.7568 35.2707C61.4328 35.2707 56.1 35.2707 50.776 35.2707C50.6 35.2707 50.424 35.2706 50.2568 35.2442C49.5792 35.121 49.1216 34.5754 49.1392 33.9418C49.1568 33.2642 49.6672 32.7362 50.4064 32.7186C51.5856 32.6922 52.756 32.7098 53.9352 32.7098C55.5368 32.7098 57.1384 32.7098 58.74 32.7098H58.7224Z" fill="white"/>
<path id="Vector_8" d="M74.2456 44.2286C72.8288 42.8206 71.456 41.4654 70.1008 40.1014C69.652 39.6526 69.5112 39.1158 69.8192 38.535C70.092 38.007 70.5496 37.8046 71.1304 37.8662C71.4736 37.9014 71.7288 38.1038 71.9576 38.3414C73.5856 39.9694 75.2224 41.5886 76.8416 43.2254C77.5192 43.9118 77.5192 44.5718 76.8416 45.2582C75.2048 46.9126 73.5592 48.5582 71.9048 50.195C71.3064 50.7846 70.5672 50.8198 70.0392 50.3094C69.4936 49.7902 69.5024 48.9982 70.1008 48.3822C71.456 47.0094 72.8288 45.663 74.2544 44.2374L74.2456 44.2286Z" fill="white"/>
<path id="Vector_9" d="M13.7632 44.2375C15.1536 45.6191 16.5 46.9479 17.8376 48.3031C18.5416 49.0159 18.4888 49.9663 17.7496 50.4151C17.1864 50.7583 16.632 50.6967 16.1744 50.2479C14.4496 48.5407 12.7336 46.8335 11.0352 45.0999C10.5072 44.5631 10.516 43.8943 11.044 43.3575C12.7424 41.6239 14.4496 39.9079 16.1832 38.2095C16.7288 37.6727 17.5032 37.7167 17.996 38.2183C18.4976 38.7287 18.48 39.5031 17.908 40.0927C16.5616 41.4655 15.1888 42.8207 13.7632 44.2375Z" fill="white"/>
<path id="Vector_10" d="M57.5165 37.8311C59.7429 37.8311 61.9693 37.8311 64.1957 37.8311C65.2253 37.8311 65.7885 38.2887 65.7885 39.1071C65.7885 39.9079 65.1989 40.3919 64.1957 40.3919C59.6989 40.3919 55.1933 40.3919 50.6965 40.3919C49.4821 40.3919 48.7781 39.4239 49.2973 38.4911C49.5877 37.9807 50.0541 37.8223 50.6261 37.8223C52.9229 37.8311 55.2285 37.8223 57.5253 37.8223L57.5165 37.8311Z" fill="white"/>
<path id="Vector_11" d="M55.4926 42.9521C57.147 42.9521 58.7926 42.9521 60.447 42.9521C61.3886 42.9521 61.943 43.4625 61.9254 44.2633C61.9078 45.0289 61.3622 45.5041 60.4558 45.5129C57.1734 45.5129 53.8998 45.5129 50.6174 45.5129C49.7022 45.5129 49.095 44.9673 49.1214 44.2017C49.139 43.4537 49.7198 42.9609 50.6086 42.9609C52.2366 42.9609 53.8646 42.9609 55.4926 42.9609V42.9521Z" fill="white"/>
<path id="Vector_12" d="M53.6273 50.6355C52.6065 50.6355 51.5769 50.6443 50.5561 50.6355C49.6937 50.6267 49.1129 50.0899 49.1217 49.3419C49.1305 48.6291 49.7025 48.0835 50.5209 48.0835C52.5977 48.0659 54.6657 48.0659 56.7425 48.0835C57.5433 48.0835 58.1153 48.6643 58.0977 49.3771C58.0889 50.0987 57.5257 50.6179 56.6985 50.6267C55.6777 50.6443 54.6481 50.6267 53.6273 50.6267V50.6355Z" fill="white"/>
<path id="Vector_13" d="M51.6472 55.7476C51.2248 55.7476 50.8024 55.7652 50.38 55.7476C49.6584 55.7036 49.148 55.1932 49.1304 54.5156C49.1128 53.882 49.5792 53.2748 50.248 53.2308C51.216 53.1692 52.1928 53.1692 53.1608 53.2308C53.8648 53.2836 54.296 53.9084 54.2344 54.6036C54.1816 55.2636 53.7064 55.7124 52.9936 55.7476C52.5448 55.774 52.096 55.7476 51.6472 55.7476Z" fill="white"/>
<path id="Vector_14" d="M20.9173 77.5447C18.7965 77.5447 17.1069 75.8551 17.0981 73.7431C17.0981 71.5959 18.8141 69.8535 20.9349 69.8623C23.0557 69.8623 24.7893 71.6311 24.7717 73.7607C24.7541 75.8639 23.0381 77.5535 20.9173 77.5447ZM22.2109 73.7519C22.2285 73.0655 21.6389 72.4407 20.9437 72.4319C20.2837 72.4231 19.6941 72.9775 19.6589 73.6463C19.6237 74.3767 20.1517 74.9575 20.8733 74.9839C21.5949 75.0103 22.1845 74.4647 22.2109 73.7519Z" fill="white"/>
<path id="Vector_15" d="M35.0859 35.2697C37.1891 35.2873 38.8963 37.0209 38.8787 39.1153C38.8699 41.2361 37.0923 42.9785 34.9715 42.9433C32.8331 42.9169 31.1611 41.1657 31.1963 39.0009C31.2315 36.8889 32.9387 35.2433 35.0771 35.2609L35.0859 35.2697ZM35.0331 40.3913C35.7195 40.3913 36.3267 39.7665 36.3091 39.0801C36.2915 38.3761 35.6931 37.8217 34.9803 37.8393C34.2851 37.8569 33.7659 38.3937 33.7659 39.0889C33.7659 39.8105 34.3379 40.3913 35.0331 40.3825V40.3913Z" fill="white"/>
</g>
<path id="Vector_16" d="M48.1888 15.981H11.5808C10.6128 15.981 9.8208 15.189 9.8208 14.221V11.053C9.8208 10.085 10.6128 9.29297 11.5808 9.29297H48.1976C49.1656 9.29297 49.9576 10.085 49.9576 11.053V14.221C49.9576 15.189 49.1656 15.981 48.1976 15.981H48.1888ZM11.5808 10.9474C11.5192 10.9474 11.4752 11.0002 11.4752 11.053V14.221C11.4752 14.2826 11.528 14.3266 11.5808 14.3266H48.1976C48.2592 14.3266 48.3032 14.2738 48.3032 14.221V11.053C48.3032 10.9914 48.2504 10.9474 48.1976 10.9474H11.5808Z" fill="white"/>
<path id="Vector_17" d="M29.1985 21.2691H11.3257C10.6481 21.2691 10.0938 20.7147 10.0938 20.0371V18.8843C10.0938 18.2067 10.6481 17.6523 11.3257 17.6523H29.1985C29.8761 17.6523 30.4305 18.2067 30.4305 18.8843V20.0371C30.4305 20.7147 29.8761 21.2691 29.1985 21.2691ZM11.3257 18.7523C11.2553 18.7523 11.1937 18.8139 11.1937 18.8843V20.0371C11.1937 20.1075 11.2553 20.1691 11.3257 20.1691H29.1985C29.2689 20.1691 29.3305 20.1075 29.3305 20.0371V18.8843C29.3305 18.8139 29.2689 18.7523 29.1985 18.7523H11.3257Z" fill="white"/>
</g>
</svg>
