<svg width="53" height="53" viewBox="0 0 53 53" fill="none" xmlns="http://www.w3.org/2000/svg">
<g id="Execution 1">
<path id="Vector" d="M43.6404 26.5103C43.6404 32.0912 43.6404 37.6721 43.6404 43.253C43.6404 46.0885 41.9338 48.3993 39.3103 49.1095C38.7697 49.2579 38.1867 49.3268 37.6249 49.3321C29.765 49.348 21.8998 49.3427 14.0399 49.3374C10.632 49.3374 8.04559 46.7669 8.02439 43.3431C8.00849 40.8468 8.02439 38.3452 8.02439 35.8489C8.02439 30.0825 8.04029 24.3161 8.01379 18.5497C8.00319 16.4721 8.68689 14.7761 10.261 13.3557C13.0965 10.7958 15.9002 8.19348 18.6244 5.50638C19.9812 4.16548 21.5129 3.63018 23.3573 3.64078C28.0902 3.66728 32.8231 3.65138 37.556 3.65138C41.054 3.65138 43.6351 6.20598 43.6404 9.71458C43.651 15.3114 43.6404 20.9082 43.6404 26.505V26.5103ZM23.1824 35.3136C24.4703 37.2746 25.7211 39.1826 26.9719 41.0853C27.8199 42.3732 29.3569 42.4951 30.3745 41.3503C31.3815 40.2214 32.3779 39.0872 33.3796 37.9583C34.7364 36.4213 36.0985 34.8896 37.45 33.3473C38.0012 32.7166 38.1178 31.8474 37.7627 31.1955C37.4447 30.6125 36.6868 30.2786 35.8812 30.3793C35.33 30.4482 34.9166 30.7397 34.5562 31.1478C32.9026 33.0399 31.2437 34.9267 29.5848 36.8135C29.4788 36.9354 29.3675 37.0467 29.235 37.1845C27.9365 35.2076 26.6857 33.289 25.419 31.3757C24.6399 30.1991 23.1241 30.0348 22.1595 31.0365C19.5784 33.7289 16.9973 36.4213 14.448 39.1455C14.1671 39.4476 13.9816 39.914 13.9233 40.3327C13.812 41.0747 14.3208 41.8114 15.031 42.14C15.7465 42.4739 16.5256 42.3414 17.1086 41.7425C18.0202 40.8044 18.9106 39.8398 19.8063 38.8858C20.914 37.7092 22.0217 36.5326 23.1824 35.303V35.3136ZM11.8298 17.8607C11.957 17.8766 12.0312 17.8872 12.1107 17.8925C14.4056 18.0091 16.7005 18.131 18.9901 18.2423C21.3433 18.3589 22.9757 16.8219 22.981 14.4687C22.9863 12.2798 22.981 10.0909 22.981 7.90198C22.981 7.75358 22.9651 7.61048 22.9545 7.45678C22.2337 7.45678 21.6613 7.65818 21.179 8.12458C20.3469 8.93018 19.5095 9.72518 18.6721 10.5202C16.6687 12.4388 14.66 14.3574 12.6566 16.276C12.2167 16.7 11.8616 17.1664 11.8245 17.8607H11.8298ZM32.7065 18.0674C31.3497 18.0674 29.9982 18.0568 28.6414 18.0674C27.5178 18.078 26.7917 18.82 26.7758 19.9277C26.7599 21.0089 27.4542 21.8251 28.5407 21.841C31.3444 21.8728 34.1428 21.8675 36.9465 21.841C37.7309 21.8357 38.3298 21.4382 38.6001 20.6591C39.0612 19.3447 38.1708 18.078 36.7716 18.0674C35.4148 18.0515 34.0633 18.0674 32.7065 18.0674ZM32.7277 10.4884C31.355 10.4884 29.9876 10.4778 28.6149 10.4884C27.5284 10.499 26.8023 11.241 26.7705 12.3275C26.744 13.4299 27.4648 14.2514 28.5619 14.262C31.3497 14.2885 34.1375 14.2832 36.92 14.262C37.6461 14.262 38.2238 13.9228 38.5365 13.2285C39.1248 11.9088 38.2291 10.499 36.7875 10.4884C35.4307 10.4778 34.0792 10.4884 32.7224 10.4884H32.7277Z" fill="url(#paint0_linear_864_4553)"/>
</g>
<defs>
<linearGradient id="paint0_linear_864_4553" x1="36.8332" y1="8.51327" x2="5.38422" y2="33.0323" gradientUnits="userSpaceOnUse">
<stop stop-color="#18C8FF"/>
<stop offset="1" stop-color="#C608FF"/>
</linearGradient>
</defs>
</svg>
