<?xml version="1.0" encoding="utf-8"?>
<!-- Generator: Adobe Illustrator 26.5.0, SVG Export Plug-In . SVG Version: 6.00 Build 0)  -->
<svg version="1.1" id="Layer_1" xmlns="http://www.w3.org/2000/svg" xmlns:xlink="http://www.w3.org/1999/xlink" x="0px" y="0px"
	 viewBox="0 0 100 100" style="enable-background:new 0 0 100 100;" xml:space="preserve">
<style type="text/css">
	.st0{fill:#FFFFFF;}
</style>
<g id="Reboot_00000059301545880504840150000001109690058757993360_">
	<path class="st0" d="M26.2,16.2c-5.6,3.1-9.1,9.1-9.1,15.6v22h22c6.4,0,12.4-3.5,15.6-9.1C65.5,25.2,45.7,5.5,26.2,16.2z
		 M43.4,25.3c1.2,0,2.2,1.5,2.2,3.3s-1,3.3-2.2,3.3s-2.2-1.5-2.2-3.3S42.2,25.3,43.4,25.3z M30.5,25.3c1.2,0,2.2,1.5,2.2,3.3
		s-1,3.3-2.2,3.3c-1.2,0-2.2-1.5-2.2-3.3S29.2,25.3,30.5,25.3L30.5,25.3z M46.1,38c-3.4,5.1-10.3,6.5-15.4,3.1
		c-1.2-0.8-2.3-1.9-3.1-3.1c-0.3-0.6-0.1-1.3,0.4-1.6c0.5-0.3,1.2-0.2,1.6,0.3c2.7,4,8.1,5.1,12.1,2.4c0.9-0.6,1.8-1.4,2.4-2.4
		c0.4-0.5,1.1-0.6,1.7-0.2C46.3,36.8,46.4,37.5,46.1,38z M67.3,55.4c0.1,0.3,0,0.7-0.2,1l-1.7,1.7c-0.8,0.8-1.1,1.9-1,3l0.4,2.4
		c0.1,0.4-0.1,0.7-0.4,0.9c-0.3,0.2-0.7,0.2-1,0.1l-2.2-1.2c-1-0.5-2.1-0.5-3.1,0L56,64.4c-0.3,0.2-0.7,0.1-1-0.1
		c-0.3-0.2-0.5-0.6-0.4-0.9L55,61c0.2-1.1-0.2-2.2-1-3l-1.7-1.7c-0.3-0.2-0.4-0.6-0.2-1c0.1-0.3,0.4-0.6,0.8-0.6l2.4-0.4
		c1.1-0.1,2-0.8,2.5-1.8l1.1-2.2c0.2-0.3,0.5-0.5,0.9-0.5c0.4,0,0.7,0.2,0.8,0.5l1.1,2.2c0.5,1,1.4,1.7,2.5,1.8l2.4,0.4
		C66.9,54.8,67.2,55.1,67.3,55.4z M77.3,43H58C54.4,50.9,46.6,56,38,56.2v13.5c0,1.4,1.2,2.6,2.6,2.6H66l7.5,6.7
		c0.9,0.8,2.3,0.8,3.2-0.2c0.4-0.4,0.6-1,0.6-1.5v-5c3.1,0,5.6-2.5,5.6-5.6V48.7C82.9,45.6,80.4,43.1,77.3,43
		C77.3,43,77.3,43,77.3,43z M68.8,58.1L67,59.8c-0.2,0.2-0.3,0.5-0.3,0.8l0.4,2.4c0.3,1.8-0.9,3.5-2.7,3.9c-0.7,0.1-1.5,0-2.2-0.3
		l-2.6-1.4l-2.6,1.4c-1.6,0.9-3.6,0.3-4.5-1.4c-0.4-0.7-0.5-1.4-0.3-2.2l0.4-2.4c0.1-0.3,0-0.6-0.3-0.8l-1.7-1.7
		c-0.9-0.9-1.2-2.2-0.8-3.4c0.4-1.2,1.4-2.1,2.7-2.3l2.9-0.4l1.3-2.6c0.8-1.6,2.8-2.3,4.5-1.5c0.6,0.3,1.2,0.8,1.5,1.5l1.1,2.2
		c0.1,0.3,0.4,0.5,0.7,0.5l2.4,0.4c1.8,0.3,3.1,1.9,2.8,3.8C69.6,56.9,69.2,57.6,68.8,58.1L68.8,58.1z"/>
</g>
</svg>
