<svg width="100" height="100" viewBox="0 0 100 100" fill="none" xmlns="http://www.w3.org/2000/svg">
<g id="Flexible Campaigns 1">
<path id="Vector" d="M81.4895 90.1202H18.6895C16.9795 89.4902 16.3895 88.2602 16.3995 86.4502C16.3995 66.3569 16.3995 46.2602 16.3995 26.1602C16.3995 23.8802 17.4995 22.7502 19.7695 22.7402H27.3695C27.5995 22.7402 27.8395 22.7402 28.0895 22.7902C28.1061 23.4947 28.2875 24.1855 28.6192 24.8072C28.9509 25.4289 29.4236 25.9642 29.9995 26.3702C31.2095 27.2402 32.6095 27.1702 33.9995 27.1702C34.8195 30.2302 35.6195 33.2402 36.4495 36.2402C36.6149 36.9401 36.8774 37.6133 37.2295 38.2402C37.8268 39.1606 38.7352 39.8354 39.7888 40.1413C40.8425 40.4473 41.971 40.3639 42.9683 39.9065C43.9656 39.4492 44.765 38.6482 45.2206 37.6501C45.6761 36.652 45.7574 35.5233 45.4495 34.4702C44.7795 32.2602 43.9995 30.0702 43.2695 27.8702C43.1995 27.6602 43.1595 27.4402 43.0895 27.1902C43.5692 27.1652 44.0499 27.1652 44.5295 27.1902C46.4395 27.4202 48.3395 27.6602 50.2395 27.9302C51.8801 28.1085 53.5093 28.3789 55.1195 28.7402C57.7666 29.4663 60.1791 30.8689 62.1195 32.8102C62.8836 33.5888 63.8578 34.1283 64.9232 34.3626C65.9886 34.597 67.0992 34.5163 68.1195 34.1302C69.1508 33.8271 70.0693 33.2258 70.7597 32.402C71.4501 31.5782 71.8814 30.5686 71.9995 29.5002C72.1331 27.8772 72.1665 26.2474 72.0995 24.6202C72.0995 24.0202 72.0995 23.4202 72.0995 22.8002C75.2495 22.8002 78.2895 22.8002 81.3195 22.8002C81.7464 22.8133 82.1608 22.947 82.5148 23.186C82.8688 23.4249 83.1478 23.7592 83.3195 24.1502C83.6062 24.8025 83.7527 25.5077 83.7495 26.2202C83.7495 46.2936 83.7495 66.3636 83.7495 86.4302C83.7895 88.2502 83.1995 89.4902 81.4895 90.1202ZM41.2695 43.2402H22.9995C22.6277 43.2267 22.2556 43.2535 21.8895 43.3202C21.5684 43.3782 21.2794 43.5514 21.0769 43.8074C20.8743 44.0633 20.7722 44.3843 20.7895 44.7102C20.7707 45.0193 20.8603 45.3252 21.0428 45.5753C21.2254 45.8254 21.4894 46.004 21.7895 46.0802C22.186 46.1723 22.5927 46.2127 22.9995 46.2002H59.6895C60.1795 46.2002 60.5495 46.2002 60.7795 46.8002C61.192 47.9062 61.9327 48.8597 62.9023 49.533C63.8719 50.2062 65.0241 50.567 66.2045 50.567C67.385 50.567 68.5372 50.2062 69.5068 49.533C70.4764 48.8597 71.2171 47.9062 71.6295 46.8002C71.6774 46.5984 71.8 46.4223 71.9725 46.3072C72.1451 46.1922 72.3549 46.1468 72.5595 46.1802C74.2695 46.1802 75.9795 46.1802 77.6795 46.1802C78.7595 46.1802 79.4595 45.4802 79.3795 44.5902C79.361 44.3887 79.3021 44.193 79.2064 44.0147C79.1108 43.8364 78.9802 43.6792 78.8226 43.5523C78.6649 43.4254 78.4834 43.3316 78.2888 43.2762C78.0941 43.2209 77.8903 43.2053 77.6895 43.2302C76.0395 43.2302 74.3795 43.2302 72.6895 43.2302C72.434 43.2778 72.1701 43.224 71.9535 43.0803C71.737 42.9365 71.5849 42.7142 71.5295 42.4602C71.0962 41.3926 70.3543 40.4785 69.3985 39.8349C68.4428 39.1914 67.3168 38.8476 66.1645 38.8476C65.0123 38.8476 63.8863 39.1914 62.9306 39.8349C61.9748 40.4785 61.2328 41.3926 60.7995 42.4602C60.7463 42.714 60.5967 42.9371 60.3821 43.0826C60.1676 43.2281 59.9049 43.2846 59.6495 43.2402C53.5495 43.2302 47.4095 43.2402 41.2695 43.2402ZM47.2695 69.6202C47.3395 69.8002 47.4095 69.9402 47.4695 70.0902C47.8642 71.24 48.6107 72.2363 49.6032 72.9381C50.5958 73.6399 51.784 74.0115 52.9995 74.0002C54.1962 74.0145 55.3671 73.6525 56.3468 72.9652C57.3266 72.278 58.0656 71.3003 58.4595 70.1702C58.6395 69.6802 58.8895 69.6202 59.3295 69.6202H71.4395C73.5295 69.6202 75.6095 69.6202 77.6895 69.6202C78.032 69.6643 78.3792 69.5889 78.6725 69.4067C78.9658 69.2246 79.1873 68.9468 79.2995 68.6202C79.6395 67.6202 78.9095 66.7502 77.6795 66.7502C71.5995 66.7502 65.5162 66.7502 59.4295 66.7502C59.2098 66.7919 58.9824 66.7463 58.7957 66.623C58.609 66.4998 58.4776 66.3087 58.4295 66.0902C58.0189 64.9937 57.2855 64.0475 56.3261 63.3763C55.3667 62.7052 54.2263 62.3407 53.0555 62.3309C51.8846 62.3212 50.7384 62.6667 49.7679 63.3217C48.7974 63.9768 48.0484 64.9107 47.6195 66.0002C47.5542 66.2329 47.4067 66.434 47.2045 66.5664C47.0023 66.6988 46.7589 66.7534 46.5195 66.7202C38.6795 66.7202 30.8329 66.7202 22.9795 66.7202C22.7195 66.7202 22.4495 66.7202 22.1795 66.7202C21.8174 66.7374 21.4748 66.8897 21.2194 67.147C20.9639 67.4043 20.8141 67.748 20.7995 68.1102C20.7944 68.4752 20.9242 68.8292 21.1642 69.1042C21.4041 69.3792 21.7373 69.5559 22.0995 69.6002C22.366 69.6154 22.6331 69.6154 22.8995 69.6002H47.3195L47.2695 69.6202ZM58.2695 57.9102H77.2695C77.5095 57.9102 77.7495 57.9102 77.9895 57.9102C78.3683 57.8927 78.7263 57.7323 78.9916 57.4614C79.257 57.1906 79.4098 56.8293 79.4195 56.4502C79.417 56.2537 79.3751 56.0597 79.2964 55.8797C79.2176 55.6996 79.1035 55.5372 78.9608 55.402C78.8182 55.2669 78.6499 55.1616 78.4659 55.0926C78.2819 55.0236 78.0859 54.9922 77.8895 55.0002C77.6195 55.0002 77.3595 55.0002 77.0895 55.0002H39.2995C39.091 55.0357 38.878 55.0357 38.6695 55.0002C38.4219 54.9275 38.2067 54.7723 38.0595 54.5602C37.6646 53.406 36.9188 52.4041 35.9263 51.6947C34.9338 50.9854 33.7445 50.604 32.5245 50.604C31.3046 50.604 30.1152 50.9854 29.1228 51.6947C28.1303 52.4041 27.3844 53.406 26.9895 54.5602C26.9205 54.6831 26.8243 54.7885 26.7081 54.8682C26.5919 54.948 26.459 55 26.3195 55.0202C25.0895 55.0202 23.8595 55.0202 22.6295 55.0202C21.3995 55.0202 20.8095 55.5602 20.7995 56.4502C20.7895 57.3402 21.4995 57.9402 22.6795 57.9402C23.8595 57.9402 24.9295 57.9402 26.0395 57.9402C26.2805 57.8958 26.5293 57.9473 26.7329 58.0836C26.9365 58.22 27.0789 58.4305 27.1295 58.6702C27.5601 59.7464 28.3032 60.6689 29.2631 61.3187C30.2229 61.9685 31.3554 62.3158 32.5145 62.3158C33.6736 62.3158 34.8062 61.9685 35.766 61.3187C36.7258 60.6689 37.469 59.7464 37.8995 58.6702C37.9547 58.4283 38.0978 58.2155 38.3011 58.0732C38.5044 57.9309 38.7533 57.8692 38.9995 57.9002C45.4095 57.9202 51.8395 57.9102 58.2695 57.9102ZM41.1195 81.3202H59.7795C60.2095 81.3202 60.5295 81.3202 60.7795 81.8702C61.1827 82.9954 61.9237 83.9685 62.901 84.6564C63.8783 85.3444 65.0443 85.7136 66.2395 85.7136C67.4347 85.7136 68.6007 85.3444 69.5781 84.6564C70.5554 83.9685 71.2963 82.9954 71.6995 81.8702C71.7449 81.6818 71.8597 81.5174 72.021 81.4099C72.1823 81.3024 72.3781 81.2597 72.5695 81.2902C74.3095 81.2902 76.0395 81.2902 77.7795 81.2902C77.9843 81.3143 78.1917 81.2948 78.3884 81.2329C78.585 81.171 78.7663 81.0682 78.9203 80.9313C79.0743 80.7943 79.1976 80.6262 79.2821 80.4382C79.3665 80.2502 79.4101 80.0464 79.4101 79.8402C79.4101 79.6341 79.3665 79.4303 79.2821 79.2423C79.1976 79.0542 79.0743 78.8862 78.9203 78.7492C78.7663 78.6122 78.585 78.5094 78.3884 78.4476C78.1917 78.3857 77.9843 78.3662 77.7795 78.3902C76.0995 78.3902 74.4095 78.3902 72.7795 78.3902C72.5406 78.4173 72.3 78.3574 72.1016 78.2215C71.9033 78.0856 71.7605 77.8828 71.6995 77.6502C71.275 76.5692 70.5347 75.6412 69.575 74.987C68.6154 74.3329 67.4809 73.9831 66.3195 73.9831C65.1582 73.9831 64.0237 74.3329 63.0641 74.987C62.1044 75.6412 61.3641 76.5692 60.9395 77.6502C60.8841 77.9021 60.7336 78.1228 60.5193 78.2663C60.305 78.4098 60.0435 78.4649 59.7895 78.4202C47.5695 78.4202 35.3462 78.4202 23.1195 78.4202C22.8264 78.4053 22.5327 78.4053 22.2395 78.4202C21.928 78.4337 21.6304 78.553 21.3959 78.7584C21.1613 78.9639 21.0039 79.2432 20.9495 79.5502C20.6995 80.5502 21.4595 81.3102 22.6595 81.3102L41.1195 81.3202Z" fill="white"/>
<path id="Vector_2" d="M69.1397 19.7802C69.1397 22.6402 69.1397 25.4902 69.1397 28.3402C69.1779 28.7682 69.1205 29.1994 68.9717 29.6025C68.8229 30.0056 68.5863 30.3706 68.2791 30.6711C67.9719 30.9716 67.6018 31.2001 67.1954 31.34C66.7891 31.4799 66.3568 31.5278 65.9297 31.4802C65.2745 31.3948 64.6607 31.1123 64.1697 30.6702C60.6676 27.3181 56.0805 25.3314 51.2397 25.0702C49.5697 24.9402 47.9097 24.6802 46.2397 24.4302C46.0397 24.4302 45.7197 24.1202 45.7197 23.9502C45.7197 21.2002 45.7197 18.4502 45.7197 15.7002C45.7197 15.1102 46.1597 15.2102 46.4997 15.1602C49.2497 14.8002 52.0197 14.5302 54.7397 14.0602C58.208 13.4438 61.3967 11.7585 63.8597 9.24016C64.2696 8.74217 64.8289 8.3895 65.455 8.23446C66.081 8.07942 66.7403 8.13025 67.3352 8.37942C67.9301 8.62859 68.4288 9.06283 68.7574 9.61776C69.0861 10.1727 69.2272 10.8187 69.1597 11.4602C69.1197 14.2302 69.1397 17.0002 69.1397 19.7802Z" fill="white"/>
<path id="Vector_3" d="M42.7003 18.3597H35.8403C35.5508 18.349 35.2613 18.3793 34.9803 18.4497C34.6578 18.547 34.3812 18.7572 34.2012 19.0419C34.0212 19.3266 33.9499 19.6667 34.0003 19.9997C34.0334 20.3507 34.2004 20.6754 34.4668 20.9064C34.7331 21.1373 35.0782 21.2567 35.4303 21.2397C37.5103 21.2397 39.5903 21.2397 41.6703 21.2397C41.9903 21.2397 42.3003 21.2397 42.6703 21.2397V24.2397H33.0703C31.5303 24.2397 31.0703 23.7597 31.0703 22.2397C31.0703 20.5297 31.0703 18.8197 31.0703 17.1197C31.0703 16.1197 31.5703 15.4797 32.4303 15.4697C35.8403 15.4697 39.2503 15.4697 42.7203 15.4697L42.7003 18.3597Z" fill="white"/>
<path id="Vector_4" d="M37.0801 27.2002H40.0001C40.9001 29.8902 41.8301 32.5802 42.7001 35.3002C42.7637 35.505 42.7849 35.7206 42.7625 35.9339C42.7401 36.1472 42.6745 36.3537 42.5697 36.5408C42.4649 36.7279 42.3232 36.8917 42.153 37.0223C41.9829 37.1529 41.7879 37.2474 41.5801 37.3002C41.3832 37.3688 41.1747 37.3973 40.9666 37.3839C40.7586 37.3706 40.5554 37.3156 40.369 37.2224C40.1825 37.1292 40.0167 36.9996 39.8812 36.8412C39.7457 36.6828 39.6433 36.4988 39.5801 36.3002C38.7001 33.3102 37.9101 30.2802 37.0801 27.2002Z" fill="white"/>
<path id="Vector_5" d="M66.21 41.7803C66.7935 41.7804 67.3639 41.9541 67.8484 42.2794C68.3329 42.6048 68.7096 43.0669 68.9306 43.607C69.1516 44.1472 69.2068 44.7409 69.0893 45.3125C68.9717 45.8841 68.6867 46.4078 68.2705 46.8169C67.8543 47.226 67.3258 47.502 66.7523 47.6097C66.1787 47.7175 65.5861 47.6521 65.0498 47.4219C64.5135 47.1917 64.0579 46.8071 63.7409 46.317C63.424 45.827 63.26 45.2538 63.27 44.6703C63.2979 43.9041 63.6182 43.1777 64.1649 42.6403C64.7117 42.1028 65.4434 41.7951 66.21 41.7803Z" fill="white"/>
<path id="Vector_6" d="M53.0501 71.0703C52.4735 71.0644 51.9115 70.8879 51.4351 70.563C50.9587 70.2381 50.5891 69.7794 50.373 69.2448C50.1569 68.7102 50.1039 68.1235 50.2207 67.5588C50.3376 66.9941 50.619 66.4766 51.0295 66.0717C51.4401 65.6667 51.9613 65.3924 52.5276 65.2832C53.0938 65.1741 53.6797 65.2351 54.2113 65.4585C54.743 65.6819 55.1966 66.0577 55.5149 66.5385C55.8332 67.0193 56.0021 67.5837 56.0001 68.1603C55.9975 68.5451 55.9191 68.9256 55.7695 69.2801C55.6198 69.6345 55.4018 69.9561 55.1278 70.2263C54.8539 70.4965 54.5294 70.7101 54.1729 70.855C53.8164 70.9998 53.4349 71.073 53.0501 71.0703Z" fill="white"/>
<path id="Vector_7" d="M32.5399 59.3599C31.9579 59.3658 31.3873 59.1982 30.9009 58.8786C30.4145 58.5589 30.0343 58.1016 29.8089 57.565C29.5834 57.0284 29.5228 56.4369 29.6349 55.8657C29.747 55.2946 30.0267 54.7697 30.4383 54.3582C30.8498 53.9466 31.3746 53.667 31.9458 53.5549C32.5169 53.4428 33.1085 53.5033 33.6451 53.7288C34.1817 53.9543 34.639 54.3344 34.9587 54.8208C35.2783 55.3072 35.4459 55.8778 35.4399 56.4598C35.4321 57.2266 35.1241 57.9597 34.5819 58.5018C34.0397 59.044 33.3066 59.352 32.5399 59.3599Z" fill="white"/>
<path id="Vector_8" d="M66.2303 82.78C65.6543 82.78 65.0913 82.609 64.6126 82.2888C64.1338 81.9686 63.7608 81.5136 63.5409 80.9812C63.3209 80.4489 63.2639 79.8633 63.377 79.2986C63.4901 78.7338 63.7682 78.2153 64.1762 77.8087C64.5842 77.4022 65.1036 77.1258 65.6687 77.0147C66.2339 76.9035 66.8193 76.9626 67.3509 77.1844C67.8824 77.4061 68.3362 77.7807 68.6547 78.2605C68.9733 78.7404 69.1423 79.304 69.1403 79.88C69.135 80.6492 68.8264 81.3853 68.2816 81.9283C67.7367 82.4713 66.9995 82.7773 66.2303 82.78Z" fill="white"/>
</g>
</svg>
