<svg width="102" height="102" viewBox="0 0 102 102" fill="none" xmlns="http://www.w3.org/2000/svg">
<g id="Fun stories and carousels 1">
<path id="Vector" d="M4.78369 46.7669C6.59929 44.3903 9.03709 42.6563 11.1179 40.5551C11.6687 40.0043 12.2501 39.4841 12.8417 38.9639C13.6271 38.2703 14.5451 38.2703 15.1571 38.9537C15.7487 39.6065 15.6977 40.5041 14.9531 41.1977C12.8111 43.2173 10.6487 45.2165 8.49649 47.2259C8.36389 47.3483 8.24149 47.4707 8.03749 47.6543C8.81269 48.3785 9.57769 49.0925 10.3427 49.8065C11.8625 51.2243 13.3823 52.6217 14.8919 54.0497C15.6773 54.7943 15.7589 55.6817 15.1469 56.3549C14.5043 57.0587 13.5965 57.0383 12.7601 56.2733C10.4243 54.1109 8.09869 51.9281 5.76289 49.7759C5.33449 49.3781 5.13049 48.8477 4.79389 48.3989V46.7771L4.78369 46.7669Z" fill="white"/>
<path id="Vector_2" d="M51.0813 15.3103C59.0577 15.3103 67.0239 15.4021 75.0003 15.2695C78.9477 15.2083 81.8649 18.0133 81.8445 22.1341C81.7731 38.1073 81.8139 54.0805 81.8139 70.0639C81.8139 74.3887 79.2945 76.9081 75.0003 76.9081C58.9965 76.9081 42.9927 76.9081 26.9889 76.9081C22.6845 76.9081 20.1753 74.3887 20.1753 70.0639C20.1753 54.0295 20.1753 37.9951 20.1753 21.9607C20.1753 18.5947 21.9909 16.1671 25.0101 15.4429C25.6629 15.2899 26.3259 15.3103 26.9889 15.3103C35.0265 15.3103 43.0539 15.3103 51.0915 15.3103H51.0813ZM23.2557 36.8935V37.8931C23.2557 48.6337 23.2557 59.3641 23.2557 70.1047C23.2557 72.6955 24.3981 73.8379 26.9991 73.8379C43.0029 73.8379 58.9965 73.8379 75.0003 73.8379C77.5911 73.8379 78.7335 72.6955 78.7335 70.0945C78.7335 59.3539 78.7335 48.6235 78.7335 37.8829C78.7335 37.5667 78.8253 37.2199 78.6315 36.8935H23.2557ZM78.7131 33.7417C78.7131 29.5495 78.7641 25.4389 78.6927 21.3181C78.6621 19.4617 77.2953 18.4009 75.2859 18.4009C59.1087 18.4009 42.9315 18.4009 26.7441 18.4009C24.4389 18.4009 23.2659 19.5841 23.2557 21.9097C23.2557 24.9799 23.2557 28.0399 23.2557 31.1101C23.2557 31.9771 23.2557 32.8441 23.2557 33.7417H78.7131Z" fill="white"/>
<path id="Vector_3" d="M32.4459 92.2998C29.0697 92.2896 26.3157 89.5152 26.3361 86.139C26.3565 82.7118 29.1309 79.968 32.5581 79.9884C35.9037 79.9986 38.6781 82.8036 38.6781 86.1594C38.6781 89.5662 35.8935 92.31 32.4459 92.2998ZM32.4561 89.2092C34.1799 89.2296 35.5569 87.8934 35.5875 86.1798C35.6181 84.5172 34.1901 83.0688 32.5071 83.0688C30.8343 83.0688 29.4777 84.405 29.4369 86.0778C29.3961 87.8118 30.7323 89.1888 32.4459 89.2092H32.4561Z" fill="white"/>
<path id="Vector_4" d="M50.99 92.2992C47.5934 92.2992 44.8496 89.586 44.8394 86.2098C44.8394 82.7724 47.573 79.998 50.99 79.998C54.3662 79.998 57.1202 82.7418 57.1406 86.118C57.161 89.5656 54.4478 92.2992 51.0002 92.3094L50.99 92.2992ZM54.0602 86.1384C54.0602 84.486 52.6934 83.0988 51.041 83.0682C49.3478 83.0376 47.93 84.4248 47.9198 86.118C47.9096 87.8418 49.256 89.1984 50.9798 89.2086C52.7036 89.2086 54.0602 87.8622 54.0602 86.1384Z" fill="white"/>
<path id="Vector_5" d="M69.4924 92.3002C66.1162 92.3206 63.3418 89.587 63.301 86.221C63.2704 82.8244 66.055 80.0093 69.4618 79.9991C72.8686 79.9889 75.6532 82.7837 75.6328 86.1905C75.6124 89.5871 72.8992 92.2901 69.4924 92.3105V92.3002ZM69.472 89.2097C71.206 89.2097 72.5422 87.8633 72.532 86.1293C72.532 84.4667 71.1754 83.0897 69.5128 83.0693C67.8298 83.0489 66.4018 84.4463 66.3814 86.1293C66.361 87.8225 67.7482 89.2097 69.4618 89.2097H69.472Z" fill="white"/>
<path id="Vector_6" d="M93.9627 47.6438C91.6473 45.4916 89.4135 43.3904 87.1593 41.3096C86.7411 40.922 86.4249 40.4936 86.4555 39.9122C86.4861 39.3002 86.7819 38.8208 87.3633 38.5658C88.0059 38.2802 88.5975 38.423 89.1075 38.8922C90.2805 39.9734 91.4433 41.0648 92.6061 42.146C93.7893 43.2476 94.9929 44.3492 96.1659 45.461C97.5735 46.7972 97.5837 48.47 96.1761 49.7858C93.8607 51.9686 91.5147 54.131 89.1789 56.2934C88.3629 57.0482 87.4143 57.0788 86.7921 56.3852C86.1495 55.6814 86.2515 54.8246 87.1083 54.0188C89.3625 51.9074 91.6269 49.796 93.9627 47.6234V47.6438Z" fill="white"/>
<path id="Vector_7" d="M46.3694 58.4051C49.5926 54.7739 52.8158 51.1631 56.0288 47.5523C57.7118 45.6653 59.6804 45.6653 61.343 47.5421C64.5968 51.2039 67.8404 54.8759 71.1146 58.5275C72.0632 59.5883 72.563 60.7715 72.5426 62.1995C72.5222 63.9437 72.5528 65.6879 72.5324 67.4321C72.5018 69.5435 71.2574 70.7675 69.1358 70.7675C57.0182 70.7675 44.9006 70.7675 32.783 70.7675C30.7124 70.7675 29.4782 69.5435 29.4272 67.4831C29.4272 67.3913 29.4272 67.2995 29.4272 67.2077C29.0498 64.3721 30.0494 62.1791 32.2322 60.3125C34.1906 58.6397 35.9144 56.6813 37.7504 54.8657C39.311 53.3153 41.0756 53.3051 42.6566 54.8657C43.8398 56.0183 45.0026 57.1913 46.1756 58.3541C46.196 58.3745 46.2266 58.3745 46.3592 58.4153L46.3694 58.4051ZM40.2188 56.7119C37.7402 59.2007 35.3636 61.5773 32.987 63.9641C32.7524 64.1987 32.5586 64.4843 32.5484 64.8311C32.5382 65.7593 32.5484 66.6773 32.5484 67.6361H69.452C69.452 65.8613 69.4316 64.1171 69.4622 62.3831C69.4826 61.6079 69.2174 61.0163 68.7074 60.4451C65.5148 56.8853 62.3426 53.3051 59.1602 49.7351C59.0072 49.5617 58.9052 49.3169 58.5992 49.2863C55.376 52.9175 52.1324 56.5487 48.899 60.1901C47.2874 61.9955 45.5024 62.0465 43.7786 60.3227C42.6056 59.1599 41.453 57.9665 40.2188 56.7119Z" fill="white"/>
<path id="Vector_8" d="M34.843 41.4936C37.8316 41.4936 40.198 43.8906 40.1878 46.8894C40.1878 49.878 37.7704 52.275 34.792 52.2444C31.7932 52.224 29.4268 49.8372 29.437 46.8384C29.437 43.8498 31.8442 41.4834 34.843 41.4834V41.4936ZM34.8124 49.164C36.0976 49.164 37.0972 48.1848 37.1074 46.9098C37.1176 45.6246 36.1384 44.6046 34.8736 44.5944C33.5476 44.574 32.5276 45.5838 32.5378 46.8996C32.5378 48.1848 33.5272 49.164 34.8226 49.164H34.8124Z" fill="white"/>
<path id="Vector_9" d="M34.0272 21.4809C36.5976 21.4809 38.6886 23.5515 38.6682 26.1015C38.6478 28.6107 36.5874 30.6711 34.068 30.6915C31.5486 30.7119 29.4576 28.6617 29.4372 26.1423C29.4168 23.5413 31.4466 21.4809 34.0272 21.4707V21.4809ZM35.5878 26.0913C35.5878 25.2549 34.8738 24.5511 34.0272 24.5613C33.1806 24.5613 32.5482 25.1937 32.5278 26.0301C32.4972 26.8971 33.1602 27.6009 34.017 27.6213C34.8534 27.6417 35.5878 26.9277 35.5878 26.0913Z" fill="white"/>
<path id="Vector_10" d="M51.0818 21.4707C53.0096 21.4707 54.9272 21.4707 56.855 21.4707C57.9872 21.4707 58.7012 22.0725 58.691 23.0007C58.691 23.9187 57.9668 24.5409 56.8448 24.5511C52.9382 24.5511 49.0214 24.5511 45.1148 24.5511C43.9928 24.5511 43.2788 23.9289 43.2788 23.0007C43.2788 22.0725 43.9826 21.4809 45.125 21.4707C47.114 21.4707 49.0928 21.4707 51.0818 21.4707Z" fill="white"/>
<path id="Vector_11" d="M48.6639 27.6217C49.8981 27.6217 51.1323 27.6115 52.3563 27.6217C53.4069 27.6319 54.0801 28.2541 54.0597 29.1823C54.0393 30.0595 53.3865 30.6817 52.3869 30.6919C49.9185 30.7123 47.4603 30.7021 44.9919 30.6919C43.9617 30.6919 43.2579 30.0187 43.2783 29.1313C43.2987 28.2337 43.9923 27.6319 45.0531 27.6217C46.2567 27.6115 47.4603 27.6217 48.6537 27.6217H48.6639Z" fill="white"/>
</g>
</svg>
