<svg width="80" height="80" viewBox="0 0 80 80" fill="none" xmlns="http://www.w3.org/2000/svg">
<g id="Get Better Leads 1">
<path id="Vector" d="M37.8002 77.3925C36.9762 77.0325 36.0802 77.0085 35.2242 76.8165C27.5202 75.0645 21.1202 67.7845 20.4242 59.9285C20.1122 56.4325 20.3522 52.9285 20.2882 49.4245C20.2722 48.4565 20.2882 47.4885 20.2882 46.4805H33.3602C33.4962 46.6965 33.4242 46.9445 33.4242 47.1765C33.4242 50.7045 33.4082 54.2325 33.4402 57.7605C33.4642 60.8565 35.6642 63.4965 38.6642 64.1125C41.6642 64.7285 44.6642 63.2245 45.9602 60.4485C46.4082 59.4885 46.5842 58.4645 46.5762 57.4085C46.5682 53.7845 46.5762 50.1605 46.5762 46.4965H59.6482C59.7922 46.6645 59.7122 46.8885 59.7122 47.0965C59.7122 50.5525 59.7202 54.0085 59.7122 57.4645C59.6962 67.5125 52.6962 75.6725 42.7682 77.2245C42.4802 77.2725 42.1362 77.1285 41.8962 77.4085H37.8082L37.8002 77.3925Z" fill="white"/>
<path id="Vector_2" d="M50.8959 28.8958H29.1279C28.1919 21.7198 32.8719 16.5198 38.8399 15.7598C36.7919 15.1998 35.1439 14.1198 34.1679 12.1998C33.1919 10.2798 33.1599 8.31981 34.0799 6.37581C35.4159 3.54381 38.6079 2.06381 41.6319 2.83981C44.6879 3.62381 46.7439 6.47181 46.5519 9.64781C46.3679 12.6798 43.9759 15.2718 40.9439 15.7358C44.1359 16.1678 46.7759 17.5758 48.7439 20.1438C50.7199 22.7278 51.1679 25.6958 50.9039 28.8958H50.8959Z" fill="white"/>
<path id="Vector_3" d="M33.3758 42.0399H20.3198V33.3359H33.3758V42.0399Z" fill="white"/>
<path id="Vector_4" d="M46.6001 33.3037H59.6561V42.0077H46.6001V33.3037Z" fill="white"/>
<path id="Vector_5" d="M53.8242 25.2958C54.4642 23.9518 55.0722 22.6877 55.7122 21.3438C58.3522 22.5998 60.9602 23.8477 63.6242 25.1117C62.9922 26.4397 62.3842 27.7198 61.7362 29.0638C59.1042 27.8078 56.4962 26.5598 53.8242 25.2878V25.2958Z" fill="white"/>
<path id="Vector_6" d="M25.952 6.26384C25.328 7.63184 24.744 8.90384 24.136 10.2478C21.48 9.03984 18.848 7.83984 16.168 6.61584C16.768 5.28784 17.36 3.99984 17.984 2.63184C20.632 3.83984 23.256 5.03984 25.952 6.26384Z" fill="white"/>
<path id="Vector_7" d="M62.0161 2.6084C62.6242 3.9444 63.2082 5.2164 63.8322 6.5844C61.1842 7.7924 58.5362 9.0004 55.8642 10.2244C55.2482 8.8724 54.6642 7.5844 54.0562 6.2404C56.7282 5.0244 59.3362 3.8324 62.0161 2.6084Z" fill="white"/>
<path id="Vector_8" d="M18.2962 29.104C17.6562 27.76 17.0482 26.496 16.4082 25.152C19.0402 23.896 21.6562 22.648 24.3122 21.376C24.9522 22.712 25.5602 23.992 26.2002 25.328C23.5522 26.592 20.9602 27.832 18.2962 29.104Z" fill="white"/>
<path id="Vector_9" d="M24.624 13.5918V17.9038H15.936V13.5918H24.624Z" fill="white"/>
<path id="Vector_10" d="M55.3599 13.5918H64.0639V17.9118H55.3599V13.5918Z" fill="white"/>
</g>
</svg>
