<svg width="50" height="50" viewBox="0 0 50 50" fill="none" xmlns="http://www.w3.org/2000/svg">
<g id="Growth 1">
<path id="Vector" d="M39.5008 31.3595C39.5008 26.6595 39.5458 21.9595 39.4808 17.2595C39.4558 15.2945 40.8558 13.8345 42.8358 13.9345C43.6508 13.9745 44.4708 13.9345 45.2908 13.9445C47.1408 13.9645 48.4058 15.2295 48.4058 17.0695C48.4058 26.5895 48.4058 36.1145 48.4058 45.6345C48.4058 47.4945 47.1608 48.7395 45.3008 48.7495C44.4108 48.7495 43.5258 48.7495 42.6358 48.7495C40.7258 48.7445 39.5058 47.5295 39.5008 45.6195C39.4958 40.8695 39.5008 36.1145 39.5008 31.3645V31.3595Z" fill="white"/>
<path id="Vector_2" d="M23.1342 36.5946C23.1342 39.5746 23.1342 42.5496 23.1342 45.5296C23.1342 47.5446 21.9342 48.7396 19.9242 48.7446C19.0342 48.7446 18.1492 48.7496 17.2592 48.7446C15.4892 48.7246 14.2342 47.4796 14.2342 45.7146C14.2292 39.6196 14.2292 33.5246 14.2342 27.4296C14.2342 25.6596 15.5292 24.3946 17.3142 24.3846C18.1692 24.3846 19.0242 24.4196 19.8742 24.3746C21.7492 24.2796 23.1992 25.7196 23.1542 27.6646C23.0842 30.6396 23.1342 33.6196 23.1342 36.5996V36.5946Z" fill="white"/>
<path id="Vector_3" d="M35.7708 39.1546C35.7708 41.2946 35.7708 43.4396 35.7708 45.5796C35.7708 47.5196 34.5458 48.7346 32.6108 48.7396C31.7058 48.7396 30.8008 48.7496 29.8958 48.7396C28.1208 48.7196 26.8758 47.4846 26.8708 45.7096C26.8608 41.3396 26.8608 36.9696 26.8708 32.5996C26.8708 30.8496 28.0958 29.6096 29.8408 29.5646C30.8308 29.5396 31.8258 29.5396 32.8158 29.5646C34.5308 29.6096 35.7558 30.8596 35.7658 32.5696C35.7758 34.7646 35.7658 36.9596 35.7658 39.1496L35.7708 39.1546Z" fill="white"/>
<path id="Vector_4" d="M19.3399 8.49006C20.0799 8.51006 20.7399 8.68006 21.3799 8.98506C24.1749 10.3051 26.9699 11.6101 29.7649 12.9251C30.7899 13.4051 31.2549 13.3251 32.0499 12.5351C35.5949 8.99006 39.1449 5.44506 42.6849 1.89506C43.0399 1.54006 43.4049 1.24506 43.9449 1.25006C44.5399 1.25506 44.9899 1.50506 45.2699 2.02506C45.5649 2.56506 45.5099 3.10006 45.1549 3.59506C45.0349 3.76506 44.8799 3.91006 44.7299 4.05506C41.2099 7.57506 37.6899 11.1001 34.1649 14.6201C32.4549 16.3301 30.6999 16.6451 28.5199 15.6201C25.7849 14.3401 23.0549 13.0501 20.3199 11.7651C19.3099 11.2901 18.8099 11.3751 18.0349 12.1551C14.4399 15.7501 10.8449 19.3451 7.25991 22.9501C6.77491 23.4351 6.24491 23.6801 5.56991 23.4651C4.58991 23.1501 4.23491 21.9951 4.85491 21.1751C4.93991 21.0651 5.03991 20.9651 5.13491 20.8651C8.80491 17.1951 12.4749 13.5251 16.1399 9.85506C17.0349 8.96006 18.1149 8.52006 19.3349 8.48506L19.3399 8.49006Z" fill="white"/>
<path id="Vector_5" d="M10.5004 43.2405C10.5004 44.0755 10.5154 44.9105 10.5004 45.7455C10.4704 47.4955 9.24039 48.7205 7.49539 48.7405C6.54039 48.7505 5.58039 48.7505 4.62539 48.7405C2.86539 48.7205 1.60539 47.4655 1.59539 45.7105C1.58539 44.0405 1.58539 42.3705 1.59539 40.7005C1.60539 38.9855 2.86039 37.7005 4.58039 37.6605C5.57039 37.6405 6.56539 37.6355 7.55539 37.6605C9.23039 37.7055 10.4604 38.9505 10.4954 40.6255C10.5154 41.4955 10.4954 42.3655 10.4954 43.2355L10.5004 43.2405Z" fill="white"/>
</g>
</svg>
