<?xml version="1.0" encoding="UTF-8"?>
<svg id="Layer_1" xmlns="http://www.w3.org/2000/svg" viewBox="0 0 100 100">
  <defs>
    <style>
      .cls-1 {
        fill: #010101;
      }
    </style>
  </defs>
  <path class="cls-1" d="M22.68,59.63c-1.4.9-2.69,1.56-4.17,1.79-4.84.76-9.51-3.03-9.55-7.94-.06-8.02-.05-16.03,0-24.05.03-4.35,3.6-7.94,7.94-8.08,1.88-.06,3.77-.01,5.78-.01,0-1.65,0-3.23,0-4.81,0-1.02.08-2.04.4-3.02,1.07-3.31,4.05-5.6,7.58-5.61,11.23-.04,22.46-.06,33.69,0,4.61.03,7.94,3.66,7.95,8.47.01,8.38,0,16.76,0,25.13,0,.33,0,.66,0,1.05,6.21.83,11.23,3.7,14.88,8.79,2.85,3.96,4.13,8.43,3.88,13.29-.52,9.88-7.97,18.52-18.78,19.88-.13,1.57-.6,3.04-1.56,4.31-1.67,2.21-3.92,3.31-6.67,3.31-10.99.01-21.98.01-32.97,0-4.93,0-8.39-3.5-8.4-8.49-.01-7.63,0-15.25,0-22.88v-1.14ZM84.21,71.6c-1.42.47-2.79,1.07-4.26,1.38-.44.09-.46.43-.53.73-.36,1.37-.79,2.72-1.32,4.1,2.69-1.4,4.77-3.43,6.27-6.09.01-.07.02-.14.03-.21-.06.03-.13.06-.19.09ZM29.34,25.82c-3.93,0-7.87,0-11.8,0-2.54,0-4.1,1.57-4.11,4.09,0,7.63,0,15.25,0,22.88,0,1.6.54,2.88,1.96,3.69,1.45.83,2.86.62,4.24-.26,2.2-1.4,4.43-2.74,6.63-4.15,1.61-1.03,3.35-1.55,5.27-1.53,3.18.03,6.37.01,9.55,0,2.58,0,4.16-1.55,4.17-4.14.02-5.49.02-10.99,0-16.48,0-2.6-1.57-4.11-4.18-4.11-3.9,0-7.81,0-11.71,0ZM75.76,57.79c-3.86-.56-7.64-.57-11.45,0-.57,3.83-.57,7.61,0,11.44,3.84.57,7.64.58,11.45,0,.55-3.84.55-7.6,0-11.44ZM40.25,83.14c1.95,0,3.9,0,5.85,0,.39,0,.78,0,1.16-.12,1.06-.32,1.77-1.34,1.63-2.39-.14-1.11-.99-1.97-2.1-1.98-4.32-.03-8.64-.03-12.95,0-1.12,0-1.96.85-2.1,1.96-.14,1.08.53,2.07,1.6,2.4.38.12.77.13,1.16.13,1.92,0,3.84,0,5.76,0ZM38.28,69.63c-1.38,0-2.76,0-4.14,0-1.44.01-2.42.9-2.44,2.2-.02,1.23.94,2.27,2.28,2.29,2.88.04,5.75.05,8.63,0,1.36-.02,2.28-1.05,2.25-2.3-.03-1.28-.97-2.16-2.36-2.17-1.41-.02-2.82,0-4.23,0ZM37.28,60.62c-1.08,0-2.16-.01-3.24,0-1.33.02-2.27.88-2.34,2.12-.07,1.2.83,2.3,2.12,2.34,2.31.07,4.62.08,6.93,0,1.3-.05,2.13-1.14,2.05-2.38-.07-1.19-1-2.04-2.29-2.07-1.08-.02-2.16,0-3.24,0ZM74.67,53.1c-.76-2.07-1.5-3.96-3.05-5.39-1.06-.98-1.99-1.03-3.04-.12-1.65,1.44-2.43,3.39-3.17,5.5,3.12-.3,6.11-.3,9.25,0ZM80.45,58.9c.31,3.13.27,6.13.02,9.24,1.96-.72,3.76-1.43,5.18-2.85,1.26-1.26,1.26-2.32,0-3.57-1.42-1.41-3.21-2.15-5.19-2.83ZM74.64,73.93c-3.15.33-6.14.3-9.22.02.66,1.97,1.42,3.78,2.85,5.21,1.22,1.23,2.27,1.23,3.5.02,1.44-1.42,2.19-3.24,2.88-5.25ZM59.61,68.13c-.31-3.11-.29-6.11-.02-9.15-1.91.46-4.21,1.71-5.26,2.83-1.12,1.2-1.15,2.22-.02,3.38,1.44,1.48,3.28,2.24,5.3,2.94ZM58.82,24.23c-.78,0-1.56-.02-2.33,0-1.26.04-2.17.92-2.22,2.13-.05,1.2.78,2.26,2.01,2.33,1.64.08,3.29.08,4.93,0,1.22-.06,2.11-1.13,2.06-2.3-.05-1.2-.97-2.11-2.2-2.16-.75-.03-1.5,0-2.24,0ZM58.73,37.74c.75,0,1.5.02,2.24,0,1.33-.05,2.31-1.03,2.3-2.27,0-1.26-.98-2.2-2.33-2.22-1.44-.02-2.87-.02-4.31,0-1.42.02-2.39.95-2.38,2.25,0,1.26.96,2.19,2.32,2.24.72.02,1.44,0,2.15,0ZM77.87,49.12c.76,1.38,1.14,2.75,1.53,4.11.08.26.01.65.37.75,1.51.4,2.98.92,4.48,1.5-.2-1.6-4.29-5.79-6.39-6.36ZM55.72,71.47c.18,1.57,4.39,5.93,6.36,6.38-.59-1.38-1.11-2.77-1.45-4.23-.09-.4-.29-.61-.69-.7-1.46-.34-2.85-.86-4.23-1.45ZM62.17,48.97c-2.89,1.62-4.98,3.73-6.56,6.42.15,0,.29.06.39.02,1.37-.53,2.75-1.02,4.17-1.38.35-.09.38-.35.44-.6.36-1.45.87-2.86,1.56-4.47Z"/>
  <path class="cls-1" d="M29.37,31.23c2.79,0,5.58-.02,8.36,0,1.14.01,2,.75,2.18,1.77.19,1.04-.29,2.02-1.22,2.47-.39.19-.8.25-1.22.25-5.43,0-10.85.01-16.28,0-1.49,0-2.51-.96-2.51-2.26,0-1.3,1.01-2.23,2.5-2.24,2.73-.01,5.46,0,8.18,0h0Z"/>
  <path class="cls-1" d="M26.21,44.43c-1.68,0-3.36,0-5.04,0-1.47,0-2.5-.96-2.48-2.26.01-1.27,1.02-2.23,2.44-2.23,3.42-.02,6.84-.02,10.26,0,1.43,0,2.41.94,2.42,2.23.01,1.33-.98,2.26-2.46,2.27-1.71,0-3.42,0-5.13,0Z"/>
</svg>