<svg width="27" height="27" viewBox="0 0 27 27" fill="none" xmlns="http://www.w3.org/2000/svg">
<g id="keyword 1" clip-path="url(#clip0_1428_4567)">
<path id="Vector" d="M0.203668 8.25293H26.7785V23.7207C26.4811 23.4233 26.2639 23.1942 26.0289 22.9592C25.6274 22.5547 25.2318 22.1442 24.8153 21.7516C24.7792 21.7266 24.7484 21.6947 24.7249 21.6577C24.7013 21.6206 24.6855 21.5792 24.6782 21.5359C24.671 21.4926 24.6726 21.4483 24.6829 21.4057C24.6931 21.363 24.7119 21.3228 24.738 21.2875C25.4989 19.7657 25.7368 18.0355 25.4147 16.3648C25.0927 14.6941 24.2287 13.1762 22.9566 12.0463C21.6845 10.9164 20.0753 10.2375 18.3783 10.1149C16.6812 9.9922 14.9911 10.4326 13.5698 11.3678C12.1484 12.3029 11.075 13.6808 10.5161 15.2878C9.95707 16.8948 9.94361 18.6413 10.4778 20.2567C11.0119 21.8721 12.0639 23.2663 13.4707 24.2233C14.8775 25.1802 16.5606 25.6466 18.2593 25.5501C19.3287 25.5009 20.3743 25.2187 21.3232 24.7232C21.3549 24.7002 21.391 24.6837 21.4291 24.6747C21.4673 24.6657 21.5069 24.6644 21.5456 24.6707C21.5843 24.6771 21.6214 24.691 21.6547 24.7118C21.688 24.7325 21.7168 24.7596 21.7396 24.7916C22.3732 25.44 23.0216 26.0766 23.7296 26.7845H23.3697H12.6612C9.67075 26.7845 6.68329 26.7845 3.69879 26.7845C2.87054 26.8128 2.0608 26.5356 1.42352 26.0059C0.786245 25.4761 0.365875 24.7306 0.242338 23.9111C0.211469 23.6814 0.19854 23.4497 0.203668 23.218V8.25293Z" fill="white"/>
<path id="Vector_2" d="M26.7904 6.36138H0.227471C0.215901 6.31346 0.207946 6.26474 0.203674 6.21563C0.203674 5.29649 0.203674 4.38032 0.203674 3.46117C0.232757 2.6061 0.586239 1.79417 1.19232 1.1903C1.7984 0.586434 2.61162 0.235919 3.46678 0.209961H3.76424H23.2447C24.7529 0.209961 25.8653 0.864368 26.4989 2.2416C26.6678 2.61654 26.7627 3.02053 26.7785 3.43143C26.8172 4.39816 26.7904 5.3649 26.7904 6.36138ZM13.5 4.52012C13.7291 4.52012 13.9611 4.52012 14.1931 4.52012C14.4119 4.50598 14.6183 4.41386 14.775 4.2605C14.9316 4.10713 15.0281 3.90268 15.0468 3.68427C15.0708 3.46519 15.0113 3.24512 14.88 3.06808C14.7487 2.89104 14.5555 2.77009 14.3389 2.72943C13.7839 2.67589 13.2251 2.67589 12.6701 2.72943C12.4528 2.76607 12.2578 2.88449 12.125 3.06039C11.9923 3.23629 11.9319 3.45632 11.9562 3.67534C11.9717 3.89846 12.0677 4.10837 12.2264 4.26597C12.3851 4.42357 12.5956 4.51812 12.8189 4.53202C13.0479 4.53202 13.2799 4.52012 13.5 4.52012ZM4.79047 4.52012C5.03141 4.52012 5.27235 4.52012 5.51329 4.52012C5.73532 4.51316 5.94676 4.42363 6.10629 4.26906C6.26582 4.11448 6.36196 3.90596 6.37592 3.68427C6.40849 3.46166 6.35218 3.23517 6.21916 3.05373C6.08614 2.87229 5.88709 2.75046 5.665 2.71455C5.11011 2.65952 4.55114 2.65952 3.99626 2.71455C3.77616 2.75324 3.57977 2.87611 3.44872 3.05713C3.31768 3.23815 3.26227 3.46309 3.29426 3.68427C3.31122 3.90217 3.40528 4.1069 3.55955 4.26172C3.71383 4.41654 3.91822 4.51131 4.13606 4.52905C4.35618 4.53202 4.5763 4.52012 4.80237 4.52012H4.79047ZM9.1512 4.52012C9.37429 4.52012 9.59441 4.52012 9.8175 4.52012C10.0464 4.51325 10.2646 4.42142 10.4296 4.26252C10.5946 4.10361 10.6945 3.889 10.7099 3.66047C10.7277 3.43704 10.6608 3.21507 10.5225 3.03871C10.3841 2.86235 10.1845 2.7445 9.96326 2.70861C9.42704 2.65803 8.88726 2.65803 8.35104 2.70861C8.23828 2.72563 8.13002 2.76483 8.03252 2.82396C7.93501 2.88309 7.8502 2.96096 7.78298 3.05308C7.71576 3.14519 7.66748 3.24972 7.64091 3.36061C7.61435 3.47151 7.61003 3.58657 7.62822 3.69914C7.64645 3.91815 7.74486 4.12273 7.90459 4.27367C8.06432 4.42462 8.27413 4.51131 8.49382 4.51715C8.71989 4.53202 8.94298 4.5231 9.1631 4.5231L9.1512 4.52012Z" fill="white"/>
<path id="Vector_3" d="M21.7247 23.0459C20.4087 24.0274 18.7698 24.4743 17.1377 24.2966C15.5056 24.1189 14.0013 23.3299 12.9273 22.0882C11.8533 20.8465 11.2892 19.2442 11.3485 17.6035C11.4079 15.9628 12.0862 14.4055 13.2471 13.2446C14.408 12.0837 15.9653 11.4054 17.606 11.346C19.2467 11.2867 20.849 11.8508 22.0907 12.9248C23.3324 13.9988 24.1214 15.5031 24.2991 17.1352C24.4768 18.7673 24.0299 20.4062 23.0484 21.7222C23.1168 21.7906 23.1823 21.868 23.2566 21.9423C24.3275 23.0191 25.3983 24.09 26.4751 25.1578C26.6147 25.2792 26.7155 25.439 26.7647 25.6173C26.8139 25.7956 26.8094 25.9845 26.7517 26.1603C26.7033 26.3102 26.6171 26.4452 26.5015 26.5522C26.3859 26.6592 26.2447 26.7347 26.0914 26.7714C25.9382 26.8082 25.7781 26.8049 25.6265 26.762C25.475 26.719 25.337 26.6378 25.2258 26.5261C24.8183 26.1424 24.4286 25.7379 24.036 25.3363C23.3399 24.6363 22.6458 23.9422 21.9537 23.2541C21.8734 23.1827 21.802 23.1203 21.7247 23.0459ZM17.8429 13.203C16.9251 13.2018 16.0276 13.4728 15.2639 13.9818C14.5001 14.4907 13.9044 15.2146 13.5521 16.0621C13.1998 16.9095 13.1067 17.8424 13.2846 18.7428C13.4625 19.6432 13.9034 20.4706 14.5515 21.1204C15.1997 21.7702 16.0259 22.2132 16.9258 22.3934C17.8257 22.5736 18.7589 22.4829 19.6072 22.1327C20.4556 21.7826 21.1811 21.1888 21.6919 20.4263C22.2028 19.6639 22.4761 18.7671 22.4773 17.8493C22.4808 17.2392 22.3634 16.6344 22.1319 16.0698C21.9004 15.5053 21.5594 14.9922 21.1285 14.5602C20.6976 14.1282 20.1854 13.7859 19.6215 13.5529C19.0575 13.32 18.453 13.201 17.8429 13.203Z" fill="white"/>
</g>
<defs>
<clipPath id="clip0_1428_4567">
<rect width="27" height="27" fill="white"/>
</clipPath>
</defs>
</svg>
