<?xml version="1.0" encoding="UTF-8"?>
<svg id="Layer_1" xmlns="http://www.w3.org/2000/svg" viewBox="0 0 100 100">
  <path d="M81.36,2.5c1.11.39,2.28.57,3.36,1.08,5.13,2.42,7.8,7.94,6.47,13.46-1.28,5.34-6.27,9.09-11.82,8.89-5.57-.21-10.22-4.3-11.15-9.82-.99-5.87,2.86-11.76,8.63-13.23.34-.09.73-.04.98-.37h3.53Z"/>
  <path d="M21.79,2.5c.39.33.9.25,1.36.37,5.31,1.37,9.1,6.53,8.73,11.95-.39,5.74-4.66,10.38-10.16,11.05-6.24.75-12.08-3.5-13.09-9.54-1.07-6.4,3.01-12.34,9.36-13.62.16-.03.39.06.46-.2h3.34Z"/>
  <path d="M50.05,38.29c10.82,0,21.65,0,32.47,0,4.34,0,7.68,2.56,8.74,6.6,1.39,5.33-2.63,10.75-8.14,10.84-4.58.08-9.15.02-13.73.02-17.29,0-34.57,0-51.86,0-4.33,0-7.71-2.55-8.77-6.57-1.42-5.39,2.59-10.84,8.18-10.87,11.04-.07,22.08-.02,33.12-.02h0Z"/>
  <path d="M24.68,61.37h50.54c-.12.39-.42.57-.65.79-5.07,5.08-10.13,10.15-15.22,15.21-.46.45-.63.9-.63,1.54.03,3.15-.01,6.31.03,9.46.02,1.47-.6,2.44-1.91,3.08-3.79,1.86-7.55,3.78-11.33,5.65-2.22,1.1-4.23-.19-4.23-2.68,0-5.19-.01-10.39.01-15.58,0-.61-.18-1.03-.61-1.45-5.09-5.06-10.15-10.14-15.22-15.21-.23-.23-.45-.47-.77-.81Z"/>
  <path d="M50.03,31.92c-6.4.03-11.7-5.21-11.74-11.61-.04-6.52,5.21-11.84,11.68-11.86,6.41-.01,11.7,5.22,11.74,11.62.04,6.53-5.18,11.82-11.68,11.85Z"/>
</svg>