<svg width="60" height="60" viewBox="0 0 60 60" fill="none" xmlns="http://www.w3.org/2000/svg">
<g id="Learn about Your Project&#226;&#128;&#168; 1">
<path id="Vector" d="M26.4718 46.1284H25.8718C21.9358 46.1284 18.0018 46.1284 14.0698 46.1284C13.2236 46.1577 12.3803 46.0127 11.5925 45.7022C10.8047 45.3918 10.0892 44.9226 9.49045 44.3238C8.8917 43.725 8.42251 43.0095 8.11206 42.2217C7.8016 41.4339 7.65652 40.5907 7.68583 39.7444V20.4304C7.68583 20.2984 7.68583 20.1604 7.68583 20.0284C7.70016 19.8348 7.78515 19.6531 7.92465 19.518C8.06414 19.3829 8.24842 19.3037 8.44245 19.2956C8.63648 19.2874 8.82674 19.3509 8.97706 19.4738C9.12739 19.5968 9.22731 19.7706 9.25783 19.9624C9.27588 20.146 9.27588 20.3309 9.25783 20.5144C9.25783 26.9544 9.25783 33.3924 9.25783 39.8284C9.22673 40.9186 9.58637 41.984 10.2718 42.8323C10.9573 43.6806 11.9234 44.2559 12.9958 44.4544C13.3721 44.5196 13.7542 44.5457 14.1358 44.5324C18.3838 44.5324 22.6318 44.5324 26.8798 44.5324C27.8518 44.5324 28.0798 44.7604 28.0798 45.7324C28.0743 46.0921 28.1146 46.451 28.1998 46.8004C28.3073 47.2435 28.5789 47.6292 28.9598 47.8798C29.3407 48.1304 29.8024 48.2271 30.2518 48.1504C30.6941 48.0937 31.1018 47.8815 31.4019 47.5517C31.702 47.2219 31.8749 46.7961 31.8898 46.3504C31.8898 46.0504 31.8898 45.7504 31.8898 45.4504C31.8795 45.3332 31.8943 45.2152 31.9332 45.1041C31.972 44.9931 32.0341 44.8916 32.1153 44.8064C32.1965 44.7213 32.2949 44.6544 32.404 44.6103C32.5131 44.5661 32.6303 44.5457 32.7478 44.5504C32.8918 44.5504 33.0418 44.5504 33.1918 44.5504C37.3918 44.5504 41.5618 44.4784 45.7378 44.5504C46.3975 44.578 47.0557 44.4692 47.6714 44.2308C48.287 43.9925 48.8469 43.6296 49.316 43.1651C49.7851 42.7005 50.1533 42.1441 50.3976 41.5308C50.6419 40.9174 50.757 40.2603 50.7358 39.6004C50.6638 33.2284 50.7358 26.8564 50.7358 20.4904C50.7358 19.3564 50.3578 19.0144 49.1458 19.1224V40.2784C49.1458 42.0784 48.2218 43.0144 46.4218 43.0144H13.8358C11.9398 43.0144 10.8778 41.9464 10.8778 40.0144V16.4404C10.8778 14.5324 11.9338 13.4404 13.8238 13.4404H46.4338C48.1678 13.4404 49.1158 14.3944 49.1218 16.1224V17.4604C49.3378 17.4604 49.5298 17.4604 49.7218 17.4604C50.4035 17.4588 51.0579 17.7277 51.5416 18.208C52.0252 18.6883 52.2987 19.3408 52.3018 20.0224C52.3018 26.7424 52.3018 33.4624 52.3018 40.1824C52.2533 41.7799 51.5825 43.2952 50.4324 44.4049C49.2823 45.5146 47.744 46.131 46.1458 46.1224C42.1438 46.1224 38.1478 46.1224 34.1458 46.1224H33.5458C33.5491 46.6857 33.4219 47.2421 33.1741 47.7481C32.9264 48.254 32.5648 48.6956 32.1178 49.0384C31.4661 49.5412 30.6532 49.7887 29.8318 49.7344C27.9658 49.6444 26.7238 48.3184 26.4718 46.1284ZM30.8098 41.4004H46.3798C47.2858 41.4004 47.5198 41.1664 47.5198 40.2544C47.5198 32.2544 47.5198 24.2404 47.5198 16.2124C47.5198 15.2884 47.2858 15.0544 46.3798 15.0484H30.7798L30.8098 41.4004ZM21.2098 20.2744C21.2098 19.8244 21.2098 19.3744 21.2098 18.9244C21.1779 18.3313 20.927 17.771 20.5059 17.3521C20.0847 16.9331 19.5232 16.6853 18.9298 16.6564C18.0658 16.6264 17.2078 16.6564 16.3438 16.6564C15.7415 16.6832 15.1712 16.9356 14.7465 17.3637C14.3219 17.7917 14.0738 18.3639 14.0518 18.9664C14.0518 19.8124 14.0518 20.6584 14.0518 21.5044C14.0707 22.1071 14.3157 22.6806 14.7382 23.1109C15.1606 23.5411 15.7296 23.7966 16.3318 23.8264C17.1898 23.8564 18.0538 23.8264 18.9178 23.8264C19.5202 23.7997 20.0904 23.5472 20.5151 23.1192C20.9398 22.6912 21.1878 22.119 21.2098 21.5164C21.2458 21.1144 21.2338 20.7004 21.2278 20.2864L21.2098 20.2744ZM20.8798 29.4364H15.8578C15.2278 29.4364 14.8618 29.7424 14.8618 30.2344C14.8618 30.7264 15.2338 31.0324 15.8578 31.0324H25.7998C26.3998 31.0324 26.7898 30.7264 26.7898 30.2344C26.7898 29.7424 26.4178 29.4364 25.7938 29.4364H20.8798ZM19.6378 35.8264H15.8578C15.2278 35.8264 14.8618 36.1264 14.8618 36.6244C14.8618 37.1224 15.2338 37.4224 15.8578 37.4224H23.3998C23.9998 37.4224 24.3898 37.1164 24.3898 36.6244C24.3898 36.1324 24.0238 35.8264 23.3998 35.8264H19.6378ZM19.1338 27.8404V27.8704C20.2618 27.8704 21.3838 27.8704 22.5118 27.8704C23.1118 27.8704 23.5078 27.4504 23.3998 26.9404C23.2918 26.4304 22.9918 26.2804 22.4278 26.2804L15.8278 26.2444C15.2278 26.2444 14.8798 26.5504 14.8738 27.0304C14.8763 27.1471 14.9032 27.2619 14.9528 27.3675C15.0025 27.473 15.0737 27.567 15.1619 27.6434C15.2501 27.7197 15.3533 27.7767 15.465 27.8106C15.5766 27.8446 15.6941 27.8547 15.8098 27.8404H19.1338ZM23.2078 34.2304C23.8078 34.2304 24.4738 34.2304 25.1038 34.2304C25.214 34.24 25.325 34.2266 25.4298 34.191C25.5345 34.1554 25.6307 34.0984 25.7122 34.0236C25.7938 33.9489 25.8589 33.858 25.9034 33.7567C25.948 33.6555 25.971 33.5461 25.971 33.4354C25.971 33.3248 25.948 33.2154 25.9034 33.1141C25.8589 33.0129 25.7938 32.922 25.7122 32.8472C25.6307 32.7725 25.5345 32.7155 25.4298 32.6799C25.325 32.6443 25.214 32.6308 25.1038 32.6404C23.8318 32.6404 22.5558 32.6404 21.2758 32.6404C21.1656 32.6308 21.0546 32.6443 20.9499 32.6799C20.8452 32.7155 20.749 32.7725 20.6674 32.8472C20.5859 32.922 20.5208 33.0129 20.4762 33.1141C20.4317 33.2154 20.4087 33.3248 20.4087 33.4354C20.4087 33.5461 20.4317 33.6555 20.4762 33.7567C20.5208 33.858 20.5859 33.9489 20.6674 34.0236C20.749 34.0984 20.8452 34.1554 20.9499 34.191C21.0546 34.2266 21.1656 34.24 21.2758 34.2304C21.9478 34.2364 22.5778 34.2304 23.2078 34.2304ZM25.1998 18.2584C24.6838 18.2584 24.1678 18.2584 23.6578 18.2584C23.4478 18.2584 23.2463 18.3419 23.0978 18.4904C22.9493 18.6389 22.8658 18.8404 22.8658 19.0504C22.8658 19.2605 22.9493 19.4619 23.0978 19.6105C23.2463 19.759 23.4478 19.8424 23.6578 19.8424C24.6838 19.8424 25.7098 19.8424 26.7418 19.8424C26.8514 19.8525 26.962 19.8395 27.0662 19.8041C27.1705 19.7688 27.2661 19.712 27.347 19.6373C27.4279 19.5626 27.4922 19.4718 27.5358 19.3707C27.5793 19.2696 27.6011 19.1605 27.5998 19.0504C27.5992 18.942 27.5765 18.8348 27.5331 18.7354C27.4896 18.636 27.4264 18.5465 27.3472 18.4724C27.268 18.3983 27.1746 18.3411 27.0726 18.3043C26.9705 18.2675 26.8621 18.2519 26.7538 18.2584C26.2378 18.2464 25.7278 18.2584 25.1998 18.2584ZM25.2358 20.6584C24.7198 20.6584 24.2098 20.6584 23.6938 20.6584C23.5836 20.6488 23.4726 20.6623 23.3679 20.6979C23.2632 20.7335 23.167 20.7905 23.0854 20.8652C23.0039 20.94 22.9388 21.0309 22.8942 21.1321C22.8497 21.2334 22.8267 21.3428 22.8267 21.4534C22.8267 21.5641 22.8497 21.6735 22.8942 21.7747C22.9388 21.876 23.0039 21.9669 23.0854 22.0416C23.167 22.1164 23.2632 22.1734 23.3679 22.209C23.4726 22.2446 23.5836 22.258 23.6938 22.2484C24.7018 22.2484 25.7158 22.2484 26.6938 22.2484C26.804 22.258 26.915 22.2446 27.0198 22.209C27.1245 22.1734 27.2207 22.1164 27.3022 22.0416C27.3838 21.9669 27.4489 21.876 27.4934 21.7747C27.538 21.6735 27.561 21.5641 27.561 21.4534C27.561 21.3428 27.538 21.2334 27.4934 21.1321C27.4489 21.0309 27.3838 20.94 27.3022 20.8652C27.2207 20.7905 27.1245 20.7335 27.0198 20.6979C26.915 20.6623 26.804 20.6488 26.6938 20.6584C26.2438 20.6464 25.7458 20.6524 25.2478 20.6524L25.2358 20.6584ZM16.7998 34.2304H17.9998C18.1087 34.2346 18.2172 34.2164 18.3187 34.177C18.4202 34.1376 18.5126 34.0778 18.5902 34.0014C18.6677 33.9249 18.7288 33.8334 18.7697 33.7325C18.8106 33.6315 18.8304 33.5233 18.8278 33.4144C18.8255 33.3104 18.8027 33.2079 18.7607 33.1127C18.7187 33.0175 18.6584 32.9315 18.5832 32.8596C18.508 32.7877 18.4193 32.7314 18.3223 32.6938C18.2253 32.6562 18.1218 32.638 18.0178 32.6404C17.2378 32.6404 16.4578 32.6404 15.6778 32.6404C15.5693 32.6355 15.4609 32.6529 15.3594 32.6916C15.2579 32.7303 15.1654 32.7895 15.0878 32.8655C15.0101 32.9414 14.9489 33.0326 14.908 33.1332C14.867 33.2338 14.8472 33.3418 14.8498 33.4504C14.8637 33.6584 14.9578 33.8528 15.1123 33.9927C15.2668 34.1327 15.4695 34.2071 15.6778 34.2004C16.0558 34.2424 16.4398 34.2004 16.7998 34.2304Z" fill="white"/>
<path id="Vector_2" d="M39.1258 24.6478H34.1998C33.5638 24.6478 33.1978 24.3658 33.1858 23.8738C33.1738 23.3818 33.5518 23.0578 34.2118 23.0518H44.1178C44.7538 23.0518 45.1138 23.3398 45.1258 23.8318C45.1378 24.3238 44.7658 24.6478 44.1058 24.6478H39.1258Z" fill="white"/>
<path id="Vector_3" d="M39.1082 31.0315H34.1282C33.9119 31.0625 33.6921 31.0067 33.5168 30.8763C33.3415 30.746 33.2248 30.5516 33.1922 30.3355C33.1778 30.2152 33.1909 30.0932 33.2304 29.9786C33.2698 29.8641 33.3347 29.7599 33.4201 29.6739C33.5055 29.588 33.6092 29.5224 33.7235 29.4822C33.8378 29.4419 33.9597 29.428 34.0802 29.4415C35.5082 29.4415 36.9362 29.4415 38.3642 29.4415H44.1842C44.7302 29.4415 45.0662 29.7055 45.1262 30.1375C45.1862 30.5695 44.8022 31.0375 44.1842 31.0375L39.1082 31.0315Z" fill="white"/>
<path id="Vector_4" d="M39.1558 32.6284H44.1838C44.7478 32.6284 45.0958 32.9104 45.1258 33.3724C45.1299 33.4874 45.1092 33.602 45.0652 33.7083C45.0212 33.8147 44.9548 33.9103 44.8706 33.9888C44.7864 34.0673 44.6864 34.1268 44.5772 34.1633C44.468 34.1998 44.3523 34.2125 44.2378 34.2004H34.1278C33.9115 34.2313 33.6918 34.1755 33.5165 34.0451C33.3411 33.9148 33.2245 33.7204 33.1918 33.5044C33.1258 32.9944 33.5158 32.6104 34.1278 32.6104L39.1558 32.6284Z" fill="white"/>
<path id="Vector_5" d="M39.1618 35.8262H44.1898C44.7898 35.8262 45.1618 36.1802 45.1258 36.6782C45.0898 37.1762 44.7478 37.4162 44.1838 37.4222H34.1278C33.5278 37.4222 33.1558 37.0682 33.1858 36.5702C33.2158 36.0722 33.5638 35.8262 34.1338 35.8262H39.1618Z" fill="white"/>
<path id="Vector_6" d="M37.1402 21.4495H34.1402C33.5402 21.4495 33.1562 21.1255 33.1682 20.6275C33.1802 20.1295 33.5402 19.8535 34.1342 19.8535H40.2002C40.8002 19.8535 41.1842 20.1775 41.1722 20.6755C41.1602 21.1735 40.8002 21.4435 40.2002 21.4495H37.1402Z" fill="white"/>
<path id="Vector_7" d="M41.9402 27.8401H39.7022C39.1022 27.8401 38.7602 27.5161 38.7662 27.0361C38.7722 26.5561 39.1262 26.2441 39.7142 26.2441C41.2102 26.2441 42.7022 26.2441 44.1902 26.2441C44.7902 26.2441 45.1322 26.5621 45.1262 27.0481C45.1202 27.5341 44.7662 27.8341 44.1782 27.8401H41.9402Z" fill="white"/>
<path id="Vector_8" d="M35.1479 27.8399C34.7699 27.8399 34.3859 27.8399 34.0019 27.8399C33.8922 27.8416 33.7833 27.8209 33.6819 27.779C33.5805 27.7371 33.4888 27.6749 33.4124 27.5962C33.3359 27.5175 33.2764 27.424 33.2374 27.3215C33.1985 27.2189 33.1809 27.1095 33.1859 26.9999C33.1897 26.8959 33.2141 26.7936 33.2575 26.699C33.3009 26.6044 33.3625 26.5193 33.4389 26.4485C33.5152 26.3777 33.6048 26.3227 33.7024 26.2865C33.8 26.2504 33.9038 26.2339 34.0079 26.2379C34.7879 26.2379 35.5679 26.2379 36.3479 26.2379C36.4516 26.2339 36.5551 26.2505 36.6524 26.2867C36.7497 26.3229 36.8388 26.378 36.9147 26.4488C36.9905 26.5197 37.0516 26.6049 37.0944 26.6994C37.1372 26.794 37.1608 26.8961 37.1639 26.9999C37.1655 27.1083 37.1453 27.2159 37.1046 27.3164C37.0639 27.4168 37.0034 27.5081 36.9267 27.5847C36.8501 27.6614 36.7588 27.7219 36.6583 27.7626C36.5579 27.8034 36.4503 27.8235 36.3419 27.8219H35.1419L35.1479 27.8399Z" fill="white"/>
<path id="Vector_9" d="M17.6939 22.2477C17.2979 22.2477 16.8959 22.2477 16.4939 22.2477C16.381 22.2539 16.268 22.2361 16.1624 22.1953C16.0569 22.1545 15.9612 22.0918 15.8818 22.0112C15.8023 21.9306 15.7409 21.8341 15.7017 21.728C15.6624 21.6218 15.6461 21.5086 15.6539 21.3957C15.6539 20.6277 15.6539 19.8657 15.6539 19.0977C15.6457 18.985 15.662 18.8719 15.7018 18.7662C15.7415 18.6604 15.8038 18.5646 15.8843 18.4853C15.9647 18.406 16.0614 18.3451 16.1677 18.3068C16.274 18.2686 16.3874 18.2539 16.4999 18.2637C17.2679 18.2637 18.0299 18.2637 18.7919 18.2637C18.9051 18.2545 19.0189 18.2702 19.1254 18.3095C19.2319 18.3489 19.3285 18.411 19.4085 18.4916C19.4884 18.5722 19.5499 18.6692 19.5885 18.776C19.6271 18.8827 19.6419 18.9966 19.6319 19.1097C19.6319 19.8777 19.6319 20.6397 19.6319 21.4017C19.6391 21.5152 19.6218 21.6289 19.5815 21.7351C19.5411 21.8414 19.4784 21.9378 19.3978 22.0179C19.3171 22.098 19.2202 22.16 19.1137 22.1996C19.0071 22.2392 18.8933 22.2556 18.7799 22.2477C18.4259 22.2597 18.0599 22.2477 17.6939 22.2477Z" fill="white"/>
</g>
</svg>
