<svg width="60" height="60" viewBox="0 0 60 60" fill="none" xmlns="http://www.w3.org/2000/svg">
<g id="LinkedIn Lead Generation 1">
<path id="Vector" d="M48.8879 47.9159V47.1119C48.8879 43.2719 48.8879 39.4259 48.8879 35.5859C48.9087 31.9841 47.6963 28.4837 45.4521 25.6665C43.2079 22.8492 40.0672 20.8849 36.5519 20.0999C35.7178 19.8992 34.8654 19.7846 34.0079 19.7579C31.1159 19.6979 28.2119 19.4759 25.3439 20.0159C22.0891 20.6765 19.1243 22.3435 16.8686 24.7811C14.613 27.2187 13.1805 30.3037 12.7739 33.5999C12.6919 34.3571 12.6518 35.1182 12.6539 35.8799C12.6539 39.6419 12.6539 43.4039 12.6539 47.1659V47.8619C12.4709 47.888 12.2866 47.904 12.1019 47.9099C10.6019 47.9099 9.1019 47.9099 7.6079 47.9099C7.19118 47.9414 6.77256 47.8825 6.38077 47.737C5.98897 47.5916 5.63327 47.3632 5.33804 47.0674C5.04282 46.7716 4.81506 46.4154 4.67039 46.0233C4.52572 45.6313 4.46756 45.2125 4.4999 44.7959C4.4999 35.5159 4.4999 26.2299 4.4999 16.9379C4.4999 16.7639 4.4999 16.5839 4.4999 16.3799H57.0419V17.0459C57.0419 26.2459 57.0419 35.4339 57.0419 44.6099C57.0419 46.7639 55.9079 47.9099 53.7659 47.9159H48.8879Z" fill="white"/>
<path id="Vector_2" d="M57 15.0596H4.52402C4.52402 14.8796 4.52402 14.7236 4.52402 14.5736C4.52402 13.0676 4.52402 11.5736 4.52402 10.0676C4.50732 9.66779 4.57325 9.26882 4.71771 8.89564C4.86217 8.52246 5.08204 8.18308 5.36359 7.89872C5.64514 7.61435 5.98231 7.39111 6.35404 7.24295C6.72577 7.09478 7.12406 7.02488 7.52402 7.0376H53.784C55.89 7.0376 57.042 8.1956 57.042 10.3016C57.042 11.6856 57.042 13.0676 57.042 14.4476C57.042 14.6396 57 14.8376 57 15.0596ZM8.46002 11.0696C8.4584 11.3694 8.51656 11.6665 8.63109 11.9436C8.74562 12.2207 8.91423 12.4722 9.12707 12.6833C9.33991 12.8945 9.59271 13.0611 9.87068 13.1735C10.1487 13.2858 10.4462 13.3416 10.746 13.3376C11.3513 13.3344 11.9305 13.0914 12.3568 12.6617C12.7831 12.232 13.0216 11.6509 13.02 11.0456C13.0122 10.4402 12.767 9.86215 12.3372 9.43575C11.9074 9.00934 11.3274 8.7687 10.722 8.7656C10.1168 8.77194 9.53875 9.01805 9.1147 9.44997C8.69066 9.88189 8.45522 10.4643 8.46002 11.0696ZM26.82 11.0696C26.825 10.4715 26.5953 9.89523 26.1803 9.4645C25.7652 9.03376 25.1979 8.78285 24.6 8.7656C23.9956 8.76707 23.4159 9.00537 22.9851 9.42937C22.5544 9.85337 22.307 10.4293 22.296 11.0336C22.2773 11.3421 22.3214 11.6512 22.4258 11.942C22.5302 12.2329 22.6926 12.4996 22.9032 12.7258C23.1138 12.9519 23.3682 13.1329 23.6509 13.2578C23.9336 13.3826 24.2388 13.4486 24.5478 13.4519C24.8568 13.4552 25.1633 13.3956 25.4486 13.2767C25.7339 13.1579 25.992 12.9823 26.2073 12.7606C26.4227 12.5389 26.5907 12.2757 26.7011 11.9871C26.8116 11.6985 26.8623 11.3904 26.85 11.0816L26.82 11.0696ZM17.634 13.3376C18.2393 13.3392 18.8205 13.1007 19.2501 12.6744C19.6798 12.2481 19.9228 11.6688 19.926 11.0636C19.9419 10.754 19.8946 10.4443 19.7871 10.1535C19.6795 9.86269 19.5139 9.59681 19.3003 9.37202C19.0868 9.14723 18.8297 8.96823 18.5448 8.84592C18.2599 8.7236 17.9531 8.66053 17.643 8.66053C17.333 8.66053 17.0261 8.7236 16.7412 8.84592C16.4563 8.96823 16.1993 9.14723 15.9857 9.37202C15.7721 9.59681 15.6065 9.86269 15.499 10.1535C15.3914 10.4443 15.3441 10.754 15.36 11.0636C15.3616 11.6662 15.6017 12.2437 16.0278 12.6698C16.4539 13.0959 17.0314 13.336 17.634 13.3376Z" fill="white"/>
<path id="Vector_3" d="M26.1179 33.2276C25.0679 34.7456 25.3079 36.2276 26.1779 37.6856C26.2945 37.9044 26.3446 38.1526 26.3219 38.3996C26.1942 39.749 26.6039 41.0943 27.4619 42.1436C27.5596 42.2742 27.624 42.4265 27.6498 42.5875C27.6757 42.7485 27.662 42.9134 27.6101 43.068C27.5582 43.2226 27.4695 43.3622 27.3518 43.475C27.234 43.5878 27.0906 43.6704 26.9339 43.7156C25.8959 44.0576 24.8639 44.4476 23.8079 44.7356C23.0061 44.9004 22.266 45.2852 21.6705 45.8468C21.0749 46.4085 20.6475 47.1248 20.4359 47.9156H17.8379C17.8379 47.6876 17.8379 47.4956 17.8379 47.3156C17.8379 43.4756 17.8379 39.6336 17.8379 35.7896C17.7764 33.1937 18.6718 30.666 20.3536 28.6877C22.0354 26.7093 24.3861 25.4187 26.9579 25.0616C28.3271 24.9194 29.7049 24.8792 31.0799 24.9416C32.7361 24.8342 34.3991 24.9655 36.0179 25.3316C38.2088 25.9663 40.1386 27.2865 41.5241 29.0985C42.9095 30.9105 43.6777 33.1189 43.7159 35.3996C43.7159 39.4016 43.7159 43.4036 43.7159 47.3996V47.8436H41.0939C40.6019 46.0436 39.2939 45.0956 37.5779 44.6156C36.5999 44.3996 35.6099 44.0096 34.6199 43.6856C34.4577 43.642 34.3089 43.5586 34.1871 43.443C34.0653 43.3273 33.9743 43.183 33.9225 43.0232C33.8706 42.8635 33.8595 42.6933 33.8901 42.5281C33.9208 42.363 33.9922 42.2081 34.0979 42.0776C34.9199 41.0522 35.3191 39.7515 35.2139 38.4416C35.2093 38.1219 35.2727 37.8049 35.3999 37.5116C37.0019 33.6296 34.5659 30.3476 30.3899 30.7436C28.8479 30.8936 27.2939 30.9356 25.7459 31.0676C25.6077 31.078 25.4734 31.1183 25.3522 31.1856C25.231 31.2529 25.1258 31.3457 25.0439 31.4576C25.0241 31.5941 25.0325 31.7332 25.0686 31.8663C25.1048 31.9995 25.1678 32.1238 25.2539 32.2316C25.5175 32.584 25.8062 32.9169 26.1179 33.2276Z" fill="white"/>
<path id="Vector_4" d="M16.5359 44.1002V52.8002C16.5507 53.02 16.5507 53.2405 16.5359 53.4602C16.5015 53.7547 16.3672 54.0285 16.1554 54.236C15.9436 54.4435 15.667 54.572 15.3719 54.6002C15.0717 54.6386 14.7676 54.5692 14.5138 54.4044C14.26 54.2396 14.0729 53.99 13.9859 53.7002C13.9198 53.4293 13.8895 53.151 13.8959 52.8722C13.8959 47.1842 13.8959 41.4982 13.8959 35.8142C13.861 33.8612 14.2195 31.9212 14.9502 30.1097C15.6808 28.2982 16.7685 26.6523 18.1486 25.27C19.5286 23.8877 21.1728 22.7973 22.9831 22.0637C24.7934 21.3302 26.7328 20.9685 28.6859 21.0002C30.7439 21.0002 32.8139 20.9342 34.8539 21.1262C41.0819 21.7262 46.4939 26.9282 47.4539 33.1262C47.5919 34.058 47.664 34.9983 47.6699 35.9402C47.6699 41.5622 47.6699 47.1902 47.6699 52.8122C47.6792 53.1129 47.6489 53.4134 47.5799 53.7062C47.4939 53.9951 47.3077 54.2439 47.0548 54.4077C46.8018 54.5716 46.4987 54.6399 46.1999 54.6002C45.895 54.5709 45.6104 54.4341 45.3972 54.2143C45.1839 53.9944 45.0558 53.7059 45.0359 53.4002C45.0359 53.1602 45.0359 52.9202 45.0359 52.6802C45.0359 47.0342 45.0359 41.3882 45.0359 35.7422C45.0845 33.6021 44.5481 31.4892 43.4844 29.6315C42.4208 27.7738 40.8702 26.2416 38.9999 25.2002C37.2782 24.163 35.3037 23.6211 33.2939 23.6342C31.1579 23.6342 29.0099 23.5622 26.8859 23.7662C21.5759 24.2762 16.9499 29.0462 16.6859 34.3802C16.5119 37.6142 16.6499 40.8662 16.6499 44.1062L16.5359 44.1002Z" fill="white"/>
<path id="Vector_5" d="M33.924 38.1903C33.924 38.5683 33.924 38.9523 33.924 39.3303C33.928 40.1689 33.5987 40.9747 33.0085 41.5705C32.4183 42.1663 31.6156 42.5033 30.777 42.5073C29.9384 42.5112 29.1325 42.1819 28.5367 41.5917C27.9409 41.0016 27.604 40.1989 27.6 39.3603C27.5578 38.5608 27.5578 37.7597 27.6 36.9603C27.6078 36.6063 27.7284 36.2641 27.9443 35.9835C28.1601 35.7029 28.4599 35.4986 28.8 35.4003C29.143 35.23 29.5281 35.1631 29.9085 35.2079C30.2888 35.2526 30.6479 35.407 30.942 35.6523C31.0937 35.8106 31.2927 35.9154 31.509 35.9511C31.7254 35.9868 31.9475 35.9514 32.142 35.8503C33.198 35.4183 33.792 35.8143 33.888 36.9543C33.924 37.3743 33.888 37.7943 33.888 38.2143L33.924 38.1903Z" fill="white"/>
<path id="Vector_6" d="M31.4399 47.01C31.8719 47.322 32.2319 47.61 32.6399 47.85C32.74 47.9427 32.8584 48.0133 32.9875 48.0573C33.1166 48.1012 33.2535 48.1175 33.3894 48.105C33.5252 48.0926 33.6569 48.0517 33.7758 47.985C33.8948 47.9183 33.9984 47.8274 34.0799 47.718C34.6799 47.118 35.2799 46.44 35.9339 45.84C36.0261 45.7675 36.1325 45.715 36.2462 45.6861C36.3598 45.6572 36.4783 45.6524 36.5939 45.672C37.1084 45.8102 37.6118 45.9867 38.0999 46.2C38.6041 46.3765 39.0444 46.6989 39.3649 47.1263C39.6854 47.5536 39.8717 48.0666 39.8999 48.6C39.9599 49.512 39.8999 50.43 39.8999 51.384H37.7219C37.7219 50.982 37.7219 50.574 37.7219 50.184C37.7219 49.794 37.6319 49.344 37.1219 49.332C36.6119 49.32 36.4619 49.74 36.4679 50.202V51.402H31.4399V47.01Z" fill="white"/>
<path id="Vector_7" d="M25.0798 51.3663C25.0798 50.8923 25.0798 50.4603 25.0798 50.0223C25.0798 49.5843 24.8938 49.2603 24.4138 49.2843C23.9338 49.3083 23.8138 49.6143 23.8138 50.0283C23.8138 50.4423 23.8138 50.9043 23.8138 51.3723H21.5998C21.6418 50.1723 21.4078 48.9723 21.8038 47.8203C21.9094 47.4839 22.0862 47.1741 22.3223 46.9122C22.5584 46.6502 22.8481 46.4422 23.1718 46.3023C23.8138 46.0323 24.5218 45.5943 25.1338 45.7023C25.7458 45.8103 26.1658 46.4523 26.6518 46.9023C26.9638 47.1783 27.2518 47.5023 27.5338 47.8023C27.6972 47.9964 27.9304 48.1184 28.183 48.142C28.4356 48.1656 28.6873 48.0888 28.8838 47.9283L30.0838 47.0643V51.4083L25.0798 51.3663Z" fill="white"/>
<path id="Vector_8" d="M34.6861 35.2742C34.3738 34.8895 33.9501 34.6108 33.4731 34.4765C32.9961 34.3423 32.4892 34.3589 32.0221 34.5242C31.852 34.5523 31.6774 34.5249 31.5241 34.4462C30.7596 33.9752 29.8447 33.8124 28.9646 33.9906C28.0845 34.1688 27.3051 34.6749 26.7841 35.4062L26.6221 35.3582C26.7191 34.9305 26.8661 34.5156 27.0601 34.1222C27.6301 33.2162 27.6601 33.2342 27.1501 32.3522C28.5541 32.2382 29.9521 32.0402 31.3501 32.0342C33.2101 32.0282 34.2541 32.9282 34.6861 35.2742Z" fill="white"/>
<path id="Vector_9" d="M28.9321 43.2002C29.5074 43.4554 30.1297 43.5872 30.7591 43.5872C31.3884 43.5872 32.0108 43.4554 32.5861 43.2002C32.6701 43.6502 32.6761 43.6562 31.1581 44.7002C31.0714 44.7595 30.9731 44.7999 30.8697 44.8185C30.7662 44.8371 30.66 44.8336 30.5581 44.8082C29.4361 44.2022 28.8841 43.6382 28.9321 43.2002Z" fill="white"/>
<path id="Vector_10" d="M26.79 45.132C28.056 44.532 28.314 44.532 29.634 45.78L28.434 46.632L26.79 45.132Z" fill="white"/>
<path id="Vector_11" d="M33.2279 46.74L31.9199 45.792C33.1199 44.592 33.3839 44.508 34.7819 45.114C34.5179 45.402 34.2719 45.678 34.0199 45.942C33.7679 46.206 33.5159 46.446 33.2279 46.74Z" fill="white"/>
<path id="Vector_12" d="M10.7221 10.044C10.8622 10.0332 11.0031 10.0515 11.1358 10.0978C11.2685 10.144 11.3902 10.2171 11.4933 10.3126C11.5964 10.4081 11.6787 10.5239 11.735 10.6527C11.7912 10.7815 11.8203 10.9205 11.8203 11.061C11.8203 11.2016 11.7912 11.3406 11.735 11.4694C11.6787 11.5981 11.5964 11.7139 11.4933 11.8094C11.3902 11.9049 11.2685 11.978 11.1358 12.0243C11.0031 12.0705 10.8622 12.0888 10.7221 12.078C10.4659 12.0583 10.2265 11.9426 10.0519 11.7541C9.87728 11.5655 9.78027 11.318 9.78027 11.061C9.78027 10.804 9.87728 10.5565 10.0519 10.368C10.2265 10.1794 10.4659 10.0637 10.7221 10.044Z" fill="white"/>
<path id="Vector_13" d="M24.5518 12.0784C24.2948 12.0637 24.0529 11.9525 23.8746 11.767C23.6962 11.5815 23.5946 11.3354 23.59 11.0781C23.5854 10.8208 23.6783 10.5713 23.85 10.3795C24.0217 10.1878 24.2595 10.0681 24.5158 10.0444C24.6555 10.0314 24.7965 10.0475 24.9297 10.0915C25.063 10.1355 25.1858 10.2066 25.2903 10.3002C25.3949 10.3939 25.479 10.5081 25.5374 10.6357C25.5958 10.7633 25.6272 10.9017 25.6297 11.042C25.6322 11.1823 25.6057 11.3217 25.5518 11.4513C25.498 11.5809 25.418 11.698 25.3168 11.7953C25.2156 11.8926 25.0955 11.9679 24.9638 12.0166C24.8322 12.0654 24.6919 12.0864 24.5518 12.0784Z" fill="white"/>
<path id="Vector_14" d="M18.6601 11.0643C18.6676 11.2044 18.6461 11.3446 18.5969 11.476C18.5478 11.6074 18.4721 11.7272 18.3745 11.828C18.2769 11.9288 18.1596 12.0084 18.0299 12.0618C17.9001 12.1152 17.7608 12.1413 17.6205 12.1384C17.4803 12.1355 17.3421 12.1037 17.2147 12.045C17.0873 11.9863 16.9733 11.9019 16.88 11.7972C16.7867 11.6924 16.716 11.5695 16.6723 11.4362C16.6286 11.3029 16.6129 11.162 16.6261 11.0223C16.6504 10.766 16.7708 10.5284 16.963 10.3571C17.1553 10.1858 17.4052 10.0935 17.6626 10.0989C17.9201 10.1042 18.166 10.2066 18.351 10.3857C18.536 10.5648 18.6464 10.8072 18.6601 11.0643Z" fill="white"/>
</g>
</svg>
