<svg width="100" height="100" viewBox="0 0 100 100" fill="none" xmlns="http://www.w3.org/2000/svg">
<g id="Long-Term Growth 1">
<path id="Vector" d="M32.8703 60.0002L42.7004 69.8402L53.8503 58.7002C57.2012 63.606 62.2364 67.111 68.0004 68.5502V88.9202H18.1604C16.5004 88.9202 16.1104 88.5302 16.1104 86.8502V49.6202H18.3004C19.9104 49.6202 21.5204 49.6202 23.1204 49.6202C23.5552 49.6616 23.9586 49.8651 24.2504 50.1902C25.1804 51.3202 26.0204 52.5202 26.9004 53.6902C27.2928 54.3093 27.8808 54.7795 28.571 55.0264C29.2612 55.2733 30.014 55.2826 30.7101 55.0528C31.4062 54.8231 32.0056 54.3675 32.4133 53.7583C32.8209 53.1491 33.0135 52.4213 32.9604 51.6902V49.6202H38.0904C40.3104 49.6202 41.3804 48.5502 41.3804 46.3502C41.3804 41.9569 41.3804 37.5702 41.3804 33.1902C41.3804 31.0435 40.3004 29.9669 38.1404 29.9602H16.1404V27.2002H58.1404C49.567 35.5935 47.6304 45.2602 52.3304 56.2002L42.8104 65.7202L33.1003 56.0002L18.0004 69.6302L19.8704 71.7202L32.8703 60.0002ZM55.4304 80.4602H52.6003V72.1502H44.1604V80.4402H41.3904C41.3904 77.6702 41.3904 74.9502 41.3904 72.2402C41.3487 71.7756 41.1514 71.3386 40.8304 71.0002C38.4804 68.5902 36.0904 66.2202 33.7104 63.8502C33.5103 63.6502 33.3004 63.4702 32.9504 63.1602V80.4402H30.1004V67.3402C27.3204 70.1102 24.6704 72.7502 22.1004 75.4202C21.8937 75.6856 21.7842 76.0139 21.7904 76.3502C21.7904 77.7102 21.7904 79.0802 21.7904 80.5402H19.0004V83.2502H66.5903V80.4702H63.8304V69.3402H61.0004V80.4402H58.2204V66.5202H55.4304V80.4602Z" fill="white"/>
<path id="Vector_2" d="M16.1198 24.3497C16.1198 20.0497 16.1198 15.8697 16.1198 11.6997C16.1141 11.5153 16.1466 11.3316 16.2152 11.1603C16.2838 10.9889 16.387 10.8336 16.5185 10.704C16.6499 10.5745 16.8067 10.4735 16.979 10.4073C17.1513 10.3412 17.3354 10.3114 17.5198 10.3197C17.7598 10.3197 17.9898 10.3197 18.2198 10.3197H70.1698C71.8998 10.3197 72.2798 10.6997 72.2798 12.4197V21.4897C70.6298 21.7997 69.0398 22.0097 67.4998 22.4297C65.9598 22.8497 64.7598 23.4297 63.3798 23.8897C62.7711 24.1405 62.1264 24.2924 61.4698 24.3397C46.7298 24.3397 31.9931 24.3397 17.2598 24.3397L16.1198 24.3497ZM27.3398 17.3497C27.3437 16.5154 27.0997 15.6987 26.6386 15.0033C26.1775 14.3079 25.5202 13.7652 24.7501 13.4441C23.98 13.123 23.1319 13.0379 22.3134 13.1997C21.4949 13.3615 20.7429 13.7629 20.1529 14.3529C19.5629 14.9428 19.1616 15.6948 18.9998 16.5133C18.8379 17.3319 18.923 18.18 19.2441 18.9501C19.5652 19.7202 20.1079 20.3775 20.8033 20.8386C21.4987 21.2996 22.3154 21.5437 23.1498 21.5397C24.2578 21.5293 25.3175 21.0845 26.101 20.301C26.8846 19.5175 27.3293 18.4578 27.3398 17.3497ZM34.3398 13.1197C33.5088 13.1237 32.6976 13.3735 32.0084 13.8376C31.3191 14.3017 30.7826 14.9594 30.4665 15.7279C30.1503 16.4963 30.0686 17.3411 30.2317 18.1559C30.3948 18.9707 30.7953 19.719 31.3829 20.3066C31.9705 20.8942 32.7188 21.2947 33.5336 21.4578C34.3484 21.6209 35.1932 21.5392 35.9617 21.223C36.7301 20.9069 37.3878 20.3704 37.8519 19.6811C38.3161 18.9919 38.5658 18.1807 38.5698 17.3497C38.5698 16.2279 38.1241 15.1519 37.3308 14.3587C36.5376 13.5654 35.4616 13.1197 34.3398 13.1197ZM45.5598 13.1197C44.7289 13.1276 43.9189 13.3812 43.2318 13.8486C42.5448 14.316 42.0114 14.9762 41.6989 15.7462C41.3864 16.5161 41.3087 17.3613 41.4756 18.1753C41.6425 18.9893 42.0466 19.7357 42.637 20.3205C43.2273 20.9053 43.9775 21.3023 44.793 21.4615C45.6086 21.6208 46.453 21.5351 47.22 21.2153C47.9869 20.8955 48.6421 20.3559 49.1029 19.6645C49.5638 18.973 49.8097 18.1607 49.8098 17.3297C49.8072 16.7742 49.6951 16.2247 49.4801 15.7125C49.2651 15.2003 48.9514 14.7355 48.5567 14.3445C48.1621 13.9536 47.6943 13.6442 47.1801 13.4341C46.6658 13.2239 46.1153 13.1171 45.5598 13.1197Z" fill="white"/>
<path id="Vector_3" d="M38.5399 32.8298V46.8298H30.1499V50.8298C30.18 51.0923 30.18 51.3573 30.1499 51.6198C30.067 51.8745 29.9563 52.1193 29.8199 52.3498C29.5899 52.2198 29.2799 52.1598 29.1299 51.9598C27.9699 50.4598 26.8199 48.9598 25.7099 47.3998C25.5793 47.1969 25.3956 47.0337 25.1787 46.928C24.9619 46.8222 24.7202 46.7779 24.4799 46.7998C20.7999 46.7998 17.1199 46.7998 13.3799 46.7998V32.7998L38.5399 32.8298ZM35.6999 43.9998V41.2598H16.1599V43.9998H35.6999ZM24.5799 38.3298H35.6999V35.6198H24.5799V38.3298ZM16.1499 38.3298H21.6599V35.6198H16.1499V38.3298Z" fill="white"/>
<path id="Vector_4" d="M75.0802 60.7698H72.2702V43.4798C71.9802 43.7498 71.8102 43.8898 71.6502 44.0498C69.2102 46.4798 66.7602 48.9098 64.3402 51.3798C64.0598 51.6923 63.8941 52.0908 63.8702 52.5098C63.8702 54.0198 63.8702 55.5098 63.8702 57.2898C62.36 56.0459 61.1008 54.5254 60.1602 52.8098L80.8702 32.0898C81.3302 32.5898 81.8702 33.2198 82.4802 33.8198C83.6569 35.1216 84.8984 36.3631 86.2002 37.5398C87.7139 38.8548 88.6719 40.6955 88.8802 42.6898C89.3587 45.2781 89.1609 47.9461 88.3059 50.4356C87.451 52.925 85.9679 55.1516 84.0002 56.8998C83.938 56.9586 83.8711 57.0121 83.8002 57.0598C83.7191 57.0907 83.6354 57.1141 83.5502 57.1298V36.4798C83.2802 36.6998 83.1202 36.8098 82.9902 36.9398C80.5002 39.4098 77.9902 41.9398 75.5502 44.3898C75.2786 44.709 75.1235 45.111 75.1102 45.5298C75.1102 50.2698 75.1102 55.0098 75.1102 59.7398L75.0802 60.7698Z" fill="white"/>
<path id="Vector_5" d="M56 56.7396L58 54.7396C59.5364 57.2887 61.6584 59.4347 64.19 60.9996C67.6575 63.1226 71.735 64.0263 75.7748 63.5669C79.8146 63.1076 83.5852 61.3117 86.4876 58.4645C89.39 55.6172 91.2579 51.8818 91.7946 47.8515C92.3314 43.8213 91.5061 39.7272 89.45 36.2196C89.2607 35.8706 89.1707 35.4762 89.19 35.0796C89.25 33.9996 89.4 32.9296 89.52 31.8496C92.71 33.5796 95.46 42.7896 94.52 48.5496C93.8481 52.8538 91.8677 56.847 88.8478 59.9868C85.8279 63.1265 81.9148 65.2608 77.64 66.0996C73.5105 66.8844 69.2405 66.4119 65.3825 64.7432C61.5244 63.0744 58.256 60.2864 56 56.7396Z" fill="white"/>
<path id="Vector_6" d="M77.8497 30.6302L58.9297 49.5302C57.4597 45.9602 58.1397 39.6002 62.1597 35.1202C66.1797 30.6402 72.9197 28.7402 77.8497 30.6302Z" fill="white"/>
<path id="Vector_7" d="M70.8701 69.1904H76.4901V91.1104C76.4901 92.7204 76.0801 93.1104 74.4901 93.1104H72.8201C71.3101 93.1104 70.8701 92.6704 70.8701 91.1904V69.1904Z" fill="white"/>
<path id="Vector_8" d="M75.9996 27.0996C73.2128 26.9178 70.4173 27.2813 67.7696 28.1696C63.2291 29.7146 59.4836 32.9922 57.3499 37.2877C55.2162 41.5831 54.8674 46.548 56.3796 51.0996C56.5246 51.3712 56.566 51.6862 56.4961 51.986C56.4262 52.2859 56.2497 52.5501 55.9996 52.7296C55.5613 53.1565 55.1505 53.6108 54.7696 54.0896H54.4196C53.9596 52.5196 53.3596 50.9696 53.0596 49.3696C52.5194 46.564 52.5556 43.6779 53.1662 40.8868C53.7768 38.0957 54.949 35.458 56.6113 33.1343C58.2737 30.8106 60.3914 28.8494 62.8358 27.3701C65.2801 25.8908 67.9999 24.9244 70.8296 24.5296C72.3596 24.3196 73.6096 24.4196 74.5596 25.7996C74.9891 26.2857 75.4722 26.7218 75.9996 27.0996Z" fill="white"/>
<path id="Vector_9" d="M87.5603 23.0996C87.2003 26.7096 86.8503 30.1896 86.5603 33.4196L76.8604 24.0796L87.5603 23.0996Z" fill="white"/>
<path id="Vector_10" d="M77.8896 60.2796C77.8896 55.4996 77.8896 50.9396 77.8896 46.3896C77.8938 46.1629 77.9749 45.9443 78.1197 45.7696C78.8897 44.9296 79.6797 44.1196 80.6197 43.1396C80.6197 43.6296 80.6897 43.8796 80.6897 44.1396C80.6897 48.8796 80.6897 53.6096 80.6897 58.3496C80.6897 58.9596 80.5496 59.3496 79.9496 59.5196C79.3496 59.6896 78.6696 59.9996 77.8896 60.2796Z" fill="white"/>
<path id="Vector_11" d="M69.3904 60.2705C68.5304 59.9205 67.7204 59.6205 66.9404 59.2705C66.8516 59.1877 66.7815 59.0868 66.7349 58.9747C66.6884 58.8626 66.6664 58.7418 66.6704 58.6205C66.6704 56.9205 66.6704 55.2305 66.6704 53.5305C66.6911 53.2243 66.8104 52.9331 67.0104 52.7005C67.7404 51.9005 68.5104 51.1405 69.3904 50.2305V60.2705Z" fill="white"/>
<path id="Vector_12" d="M38.5796 80.4596H35.8096V69.8896C36.7596 70.8896 37.6096 71.6996 38.4496 72.5596C38.5354 72.6747 38.5779 72.8163 38.5696 72.9596C38.5796 75.4396 38.5796 77.9196 38.5796 80.4596Z" fill="white"/>
<path id="Vector_13" d="M49.77 75V80.5H47V75H49.77Z" fill="white"/>
<path id="Vector_14" d="M27.27 80.4803H24.54C24.54 79.3303 24.54 78.1703 24.54 77.0203C24.54 76.8803 24.69 76.7203 24.81 76.6003C25.57 75.8003 26.35 75.0003 27.25 74.0703L27.27 80.4803Z" fill="white"/>
<path id="Vector_15" d="M23.1204 18.7297C22.8436 18.7277 22.5735 18.6436 22.3444 18.4881C22.1152 18.3327 21.9374 18.1127 21.8332 17.8562C21.7291 17.5996 21.7034 17.3179 21.7594 17.0468C21.8153 16.7756 21.9504 16.5271 22.1476 16.3327C22.3448 16.1383 22.5952 16.0068 22.8671 15.9547C23.1391 15.9026 23.4204 15.9323 23.6754 16.0401C23.9305 16.1479 24.1478 16.3289 24.3 16.5602C24.4522 16.7915 24.5324 17.0628 24.5304 17.3397C24.5226 17.7093 24.371 18.0613 24.1076 18.3209C23.8443 18.5805 23.4902 18.7271 23.1204 18.7297Z" fill="white"/>
<path id="Vector_16" d="M34.3699 18.7297C34.093 18.7316 33.8218 18.6514 33.5905 18.4993C33.3592 18.3471 33.1782 18.1297 33.0704 17.8747C32.9626 17.6196 32.9329 17.3383 32.9849 17.0664C33.037 16.7944 33.1686 16.544 33.363 16.3468C33.5574 16.1496 33.8058 16.0145 34.077 15.9586C34.3482 15.9026 34.6299 15.9283 34.8864 16.0325C35.143 16.1366 35.3629 16.3145 35.5184 16.5436C35.6739 16.7727 35.7579 17.0428 35.7599 17.3197C35.7574 17.6894 35.6108 18.0436 35.3512 18.3069C35.0916 18.5702 34.7396 18.7218 34.3699 18.7297Z" fill="white"/>
<path id="Vector_17" d="M45.61 15.9297C45.9813 15.9297 46.3374 16.0772 46.5999 16.3397C46.8625 16.6023 47.01 16.9584 47.01 17.3297C47.01 17.701 46.8625 18.0571 46.5999 18.3196C46.3374 18.5822 45.9813 18.7297 45.61 18.7297C45.2387 18.7297 44.8826 18.5822 44.62 18.3196C44.3575 18.0571 44.21 17.701 44.21 17.3297C44.21 16.9584 44.3575 16.6023 44.62 16.3397C44.8826 16.0772 45.2387 15.9297 45.61 15.9297Z" fill="white"/>
</g>
</svg>
