<svg width="80" height="80" viewBox="0 0 80 80" fill="none" xmlns="http://www.w3.org/2000/svg">
<g id="Maximize Your ROI 1">
<path id="Vector" d="M5.06404 12.2161C5.33604 11.8161 5.70404 11.6721 6.20004 11.6801C7.98404 11.7041 9.76004 11.6881 11.528 11.6881C11.712 11.5281 11.632 11.3361 11.632 11.1681C11.632 9.52006 11.632 7.87206 11.632 6.22406C11.632 5.51206 11.912 5.14406 12.432 5.12806C12.952 5.12006 13.24 5.48806 13.24 6.20006C13.24 11.5681 13.24 16.9441 13.24 22.3121C13.24 31.5121 13.248 40.7201 13.248 49.9201C13.248 54.7361 13.248 59.5441 13.232 64.3601C13.232 64.6001 13.232 64.8401 13.232 65.1201H20.952C21.112 64.8961 21.032 64.6481 21.032 64.4161C21.032 59.8481 21.032 55.2801 21.032 50.7121C21.032 49.4081 21.16 49.2801 22.496 49.2801C25.552 49.2801 28.6 49.2801 31.656 49.2801C32.632 49.2801 32.864 49.5121 32.864 50.5041C32.864 55.1201 32.864 59.7281 32.864 64.3441V65.1201H37.36C37.512 64.9041 37.424 64.6321 37.424 64.3761C37.424 57.5601 37.424 50.7361 37.424 43.9201C37.424 42.8081 37.632 42.6001 38.744 42.6001C41.816 42.6001 44.896 42.6001 47.968 42.6001C49.048 42.6001 49.264 42.8081 49.264 43.8801C49.264 50.6961 49.264 57.5201 49.264 64.3361V65.1201H53.784V37.7521C52.616 37.7521 51.424 37.7681 50.232 37.7521C49.696 37.7521 49.072 37.9361 48.736 37.2961C48.392 36.6321 48.96 36.2641 49.28 35.8481C52.896 31.1281 56.528 26.4241 60.16 21.7121C60.84 20.8241 61.288 20.8321 61.976 21.7281C65.648 26.4881 69.32 31.2481 72.984 36.0161C73.064 36.1201 73.144 36.2321 73.224 36.3361C73.472 36.6321 73.6 36.9361 73.4 37.3121C73.2 37.6721 72.88 37.7601 72.504 37.7601C71.128 37.7601 69.744 37.7601 68.328 37.7601V65.1761C69.624 65.1761 70.904 65.1761 72.192 65.1761C72.432 65.1761 72.68 65.1521 72.896 65.3201C73.192 65.5521 73.312 65.8481 73.2 66.2001C73.08 66.5761 72.784 66.7681 72.384 66.7761C71.4 66.7761 70.424 66.7761 69.44 66.7761C68.552 66.7761 67.656 66.7761 66.672 66.7761V68.5041C66.672 69.7521 66.672 71.0001 66.672 72.2481C66.672 72.9681 66.4 73.3281 65.88 73.3441C65.352 73.3521 65.072 72.9921 65.072 72.2801C65.072 70.4801 65.072 68.6801 65.072 66.8321H57.304C57.304 67.6401 57.304 68.4481 57.304 69.2641C57.304 70.3121 57.304 71.3601 57.304 72.4081C57.304 72.9441 57.064 73.3441 56.48 73.3361C55.904 73.3281 55.696 72.9361 55.696 72.3841C55.696 70.5441 55.696 68.6961 55.696 66.8161H47.928C47.928 68.1281 47.928 69.4161 47.928 70.6961C47.928 71.2721 47.936 71.8561 47.928 72.4321C47.912 72.9761 47.656 73.3521 47.08 73.3281C46.544 73.3041 46.328 72.9361 46.328 72.4161C46.328 70.5681 46.328 68.7201 46.328 66.8321H38.552C38.552 67.4081 38.552 68.0001 38.552 68.5841C38.552 69.8321 38.56 71.0801 38.552 72.3281C38.552 72.9761 38.232 73.3681 37.736 73.3361C37.112 73.2961 36.944 72.8721 36.944 72.3121C36.944 70.4881 36.944 68.6641 36.944 66.8081H29.16C29.16 68.5361 29.16 70.2481 29.16 71.9521C29.16 72.9601 28.912 73.3681 28.328 73.3361C27.768 73.3121 27.552 72.9281 27.552 71.9521C27.552 70.2561 27.552 68.5681 27.552 66.8241H19.776C19.776 68.5121 19.776 70.1761 19.776 71.8401C19.776 72.0641 19.776 72.2881 19.776 72.5121C19.76 73.0161 19.496 73.3201 19 73.3281C18.496 73.3361 18.224 73.0081 18.192 72.5281C18.16 71.9761 18.176 71.4161 18.176 70.8561C18.176 69.5201 18.176 68.1841 18.176 66.7681C17.136 66.7681 16.12 66.7681 15.104 66.7681C14.304 66.7681 13.496 66.7681 12.696 66.7681C11.888 66.7681 11.608 66.4961 11.608 65.6881C11.608 63.8881 11.608 62.0881 11.608 60.2001H8.52804C7.76804 60.2001 7.00804 60.1761 6.25604 60.2081C5.75204 60.2321 5.35204 60.0881 5.04004 59.6961V59.0241C5.37604 58.6561 5.79204 58.5681 6.28004 58.5761C7.76804 58.6001 9.26404 58.5921 10.752 58.5761C11.024 58.5761 11.32 58.6721 11.568 58.5041V50.8001C9.77604 50.8001 8.01604 50.7841 6.26404 50.8081C5.76804 50.8081 5.35204 50.7121 5.04004 50.3201V49.6481C5.36804 49.2641 5.78404 49.1761 6.27204 49.1841C7.44804 49.2081 8.62404 49.2001 9.80804 49.1841C10.4 49.1841 10.992 49.2481 11.568 49.1361V41.4161C9.77604 41.4161 8.02404 41.4081 6.27204 41.4161C5.78404 41.4161 5.36004 41.3361 5.04004 40.9521V40.2801C5.36004 39.8881 5.77604 39.7761 6.26404 39.7921C7.01604 39.8161 7.77604 39.7921 8.53604 39.7921H11.576V32.0161C9.78404 32.0161 8.03204 32.0001 6.28004 32.0241C5.79204 32.0241 5.37604 31.9521 5.04004 31.5761V30.9041C5.35204 30.5121 5.75204 30.3841 6.25604 30.3921C8.02404 30.4161 9.79204 30.4001 11.576 30.4001V22.6321C9.79204 22.6321 8.04804 22.6161 6.29604 22.6401C5.80804 22.6401 5.37604 22.5761 5.04004 22.2081V21.5361C5.34404 21.1201 5.74404 21.0081 6.24804 21.0161C8.02404 21.0401 9.79204 21.0241 11.576 21.0241V13.2561C9.81604 13.2561 8.08004 13.2401 6.35204 13.2641C5.84804 13.2641 5.40004 13.2081 5.04004 12.8401V12.1681L5.06404 12.2161ZM58.184 50.3281C58.184 53.8881 58.184 57.4481 58.184 61.0161C58.184 61.2401 58.176 61.4641 58.224 61.6801C58.32 62.1041 58.624 62.3361 59.048 62.2961C59.472 62.2641 59.744 62.0161 59.776 61.5681C59.792 61.3921 59.784 61.2161 59.784 61.0321C59.784 53.9121 59.784 46.7841 59.784 39.6641C59.784 39.4641 59.792 39.2641 59.76 39.0641C59.704 38.6961 59.472 38.4641 59.096 38.4241C58.696 38.3761 58.408 38.5361 58.248 38.9201C58.152 39.1601 58.176 39.4001 58.176 39.6481C58.176 43.2081 58.176 46.7681 58.176 50.3361L58.184 50.3281ZM27.928 54.2161C27.928 55.9681 27.928 57.6401 27.928 59.3041C27.928 59.9441 28.24 60.3521 28.728 60.3121C29.288 60.2641 29.528 59.9121 29.528 59.3601C29.528 57.4241 29.528 55.4881 29.528 53.5441C29.528 52.9521 29.232 52.6241 28.632 52.6161C27.672 52.6001 26.72 52.6081 25.76 52.6161C25.232 52.6161 24.888 52.9121 24.904 53.4321C24.912 53.9521 25.256 54.2161 25.792 54.2161C26.48 54.2161 27.168 54.2161 27.928 54.2161ZM44.344 47.5361C44.344 49.3041 44.344 50.9921 44.344 52.6801C44.344 53.2321 44.568 53.6241 45.136 53.6241C45.704 53.6241 45.952 53.2241 45.952 52.6881C45.952 50.7521 45.96 48.8161 45.952 46.8801C45.952 46.2321 45.648 45.9441 45 45.9361C44.088 45.9201 43.176 45.9361 42.264 45.9361C41.728 45.9361 41.328 46.1601 41.328 46.7441C41.328 47.3201 41.712 47.5441 42.264 47.5441C42.928 47.5441 43.6 47.5441 44.36 47.5441L44.344 47.5361Z" fill="white"/>
<path id="Vector_2" d="M37.0562 23.2956C37.0322 28.7836 32.5522 33.2316 27.0802 33.1916C21.6002 33.1516 17.2002 28.6796 17.2242 23.1756C17.2482 17.7436 21.7282 13.2956 27.1682 13.3116C32.6482 13.3276 37.0802 17.7996 37.0562 23.2876V23.2956ZM29.9442 25.4956C29.9442 23.9836 29.4162 23.1916 28.2562 22.7596C27.7762 22.5836 27.2722 22.4796 26.7842 22.3276C26.1122 22.1196 25.8482 21.7356 25.9362 21.1036C26.0162 20.5196 26.4802 20.0876 27.0562 20.0476C27.6642 20.0076 28.1842 20.4076 28.3202 21.0156C28.3442 21.1196 28.3202 21.2396 28.3522 21.3436C28.4722 21.8156 28.7682 22.0876 29.2722 22.0076C29.7442 21.9356 29.9602 21.6236 29.9362 21.1596C29.8882 20.0716 29.3762 19.2476 28.4082 18.7516C28.1122 18.5996 27.9042 18.4876 27.9122 18.0876C27.9202 17.6556 27.6082 17.3996 27.1762 17.3756C26.7442 17.3516 26.3842 17.5996 26.3762 18.0156C26.3682 18.4956 26.0962 18.6236 25.7602 18.8156C24.6962 19.4396 24.2402 20.4076 24.3522 21.6236C24.4642 22.8076 25.1682 23.5036 26.2722 23.8396C26.7362 23.9836 27.2162 24.0956 27.6802 24.2396C28.0882 24.3596 28.3042 24.6236 28.3362 25.0636C28.3922 25.7916 27.9682 26.3596 27.2882 26.4476C26.6082 26.5356 26.0402 26.1036 25.9442 25.3596C25.8722 24.7756 25.6242 24.4396 25.0082 24.4956C24.4882 24.5436 24.2402 25.0156 24.3602 25.6796C24.5362 26.6076 25.0162 27.3356 25.8722 27.7516C26.1762 27.9036 26.3442 28.0396 26.3602 28.4236C26.3762 28.8716 26.7122 29.1436 27.1762 29.1276C27.6082 29.1116 27.9202 28.8556 27.9122 28.4156C27.9122 28.0156 28.1122 27.9036 28.4082 27.7516C29.4322 27.2236 29.9122 26.3516 29.9442 25.4956Z" fill="white"/>
<path id="Vector_3" d="M48.4882 20.1596C47.4882 20.7116 46.5362 21.2316 45.5922 21.7756C45.1122 22.0476 44.6562 22.1196 44.3042 21.6076C44.0162 21.1836 44.2242 20.7116 44.8162 20.3756C46.3842 19.4876 47.9522 18.6076 49.5202 17.7276C50.1122 17.3916 50.6082 17.5916 50.8082 18.2556C51.3282 20.0236 51.8402 21.7996 52.3442 23.5676C52.4882 24.0796 52.3922 24.5196 51.8162 24.6796C51.2482 24.8316 50.9442 24.5196 50.7922 23.9916C50.5362 23.1036 50.2722 22.2076 49.9762 21.1756C49.2242 23.0476 48.4082 24.7036 47.3922 26.2636C44.2482 31.0956 39.9122 34.5676 34.8642 37.2156C30.5442 39.4796 25.9602 40.9996 21.1602 41.8796C21.0322 41.9036 20.8962 41.9116 20.7602 41.9276C20.2482 41.9836 19.8562 41.8156 19.7762 41.2716C19.6882 40.6876 20.0562 40.4316 20.5762 40.3276C21.5122 40.1436 22.4642 39.9916 23.3842 39.7676C30.0642 38.1276 36.2162 35.4156 41.4002 30.7916C44.4722 28.0476 46.8002 24.7756 48.3282 20.9436C48.4002 20.7596 48.4642 20.5676 48.5202 20.3756C48.5282 20.3436 48.5042 20.2956 48.4802 20.1756L48.4882 20.1596Z" fill="white"/>
</g>
</svg>
