<svg width="100" height="100" viewBox="0 0 100 100" fill="none" xmlns="http://www.w3.org/2000/svg">
<g id="Measurable Results 1">
<path id="Vector" d="M65.6896 86.5899H16.4796C14.8196 86.5899 14.3496 86.1199 14.3496 84.4899V24.9999C14.3496 23.3799 14.7996 22.9299 16.3496 22.9299H26.8196H27.4396C26.9578 24.671 26.5706 26.437 26.2796 28.2199C26.1739 28.8691 26.2164 29.5338 26.404 30.1642C26.5916 30.7947 26.9194 31.3745 27.3628 31.8602C27.8063 32.346 28.3539 32.7252 28.9647 32.9693C29.5754 33.2134 30.2335 33.3162 30.8896 33.2699C38.6496 33.2699 46.4029 33.2699 54.1496 33.2699C57.4296 33.2699 59.3196 30.7499 58.6896 27.2699C58.4196 25.8099 57.8896 24.3999 57.4696 22.9199H60.6496C63.3996 22.9199 66.1496 22.9199 68.8996 22.9199C70.0896 22.9199 70.6496 23.4199 70.6496 24.5699C70.6496 31.2499 70.6496 37.9299 70.6496 44.5699C70.6348 44.7482 70.6081 44.9252 70.5696 45.0999H66.7696C65.5796 45.0999 64.3996 45.0999 63.2096 45.0999C62.2528 45.1155 61.3265 45.4391 60.5681 46.0228C59.8097 46.6064 59.2597 47.419 58.9996 48.3399C58.7176 49.2767 58.7619 50.2814 59.1252 51.1897C59.4885 52.098 60.1494 52.8561 60.9996 53.3399C61.2535 53.4528 61.4649 53.6434 61.6033 53.8843C61.7417 54.1251 61.7999 54.4038 61.7696 54.6799C61.7696 62.0899 61.7696 69.4899 61.7696 76.8999C61.6972 78.622 61.9864 80.3401 62.6185 81.9436C63.2506 83.5472 64.2116 85.0005 65.4396 86.2099C65.4896 86.2799 65.5396 86.3699 65.6896 86.5899ZM38.7396 39.1899H24.9996C23.7296 39.1899 23.2296 39.6199 23.2196 40.8599C23.2196 43.6999 23.2196 46.5333 23.2196 49.3599C23.2196 50.5499 23.7496 51.0199 24.9496 51.0199H52.3896C53.6396 51.0199 54.1096 50.5599 54.1096 49.2899C54.1096 46.5399 54.1096 43.7999 54.1096 41.0499C54.1096 39.5899 53.6996 39.1899 52.2596 39.1899H38.7396ZM38.6596 61.4099H24.5296C24.24 61.3899 23.9493 61.3899 23.6596 61.4099C23.3385 61.44 23.0385 61.5832 22.8132 61.814C22.5879 62.0448 22.4519 62.3482 22.4296 62.6699C22.3687 62.9868 22.4242 63.315 22.5859 63.5942C22.7475 63.8734 23.0045 64.085 23.3096 64.1899C23.6678 64.3054 24.0436 64.3562 24.4196 64.3399C33.9196 64.3399 43.4263 64.3399 52.9396 64.3399C53.2765 64.3516 53.6133 64.3146 53.9396 64.2299C54.2553 64.1259 54.5256 63.9166 54.7054 63.6371C54.8851 63.3575 54.9634 63.0247 54.9271 62.6943C54.8908 62.364 54.7421 62.0561 54.5059 61.8223C54.2697 61.5885 53.9603 61.4429 53.6296 61.4099C53.3433 61.3898 53.0559 61.3898 52.7696 61.4099H38.6596ZM38.6596 55.4799H24.0496C23.8472 55.4578 23.6424 55.4777 23.448 55.5383C23.2537 55.5989 23.0739 55.699 22.9199 55.8323C22.766 55.9656 22.6412 56.1292 22.5534 56.3129C22.4656 56.4966 22.4167 56.6964 22.4096 56.8999C22.4067 57.1072 22.4462 57.313 22.5257 57.5044C22.6052 57.6959 22.723 57.8691 22.872 58.0134C23.0209 58.1576 23.1978 58.2699 23.3917 58.3432C23.5856 58.4166 23.7925 58.4495 23.9996 58.4399C24.1796 58.4399 24.3496 58.4399 24.5196 58.4399H52.8596C53.2435 58.4586 53.628 58.4181 53.9996 58.3199C54.2879 58.2234 54.5386 58.0387 54.7162 57.792C54.8938 57.5452 54.9893 57.2489 54.9893 56.9449C54.9893 56.6409 54.8938 56.3446 54.7162 56.0978C54.5386 55.8511 54.2879 55.6664 53.9996 55.5699C53.6362 55.4842 53.262 55.4539 52.8896 55.4799H38.6596Z" fill="white"/>
<path id="Vector_2" d="M64.7295 51.0005C64.1695 51.0005 63.7295 51.0005 63.3195 51.0005C62.9238 51.0062 62.5412 50.8583 62.2522 50.5879C61.9632 50.3176 61.7902 49.9457 61.7695 49.5505C61.7707 49.347 61.8129 49.1458 61.8937 48.9591C61.9745 48.7723 62.0923 48.6038 62.2399 48.4637C62.3874 48.3236 62.5618 48.2148 62.7525 48.1438C62.9432 48.0728 63.1463 48.041 63.3495 48.0505H72.4595C76.2495 48.0505 80.0395 48.0505 83.8295 48.0505C84.1042 48.0731 84.3713 48.1523 84.6139 48.2831C84.8566 48.4139 85.0696 48.5934 85.2395 48.8105C85.3577 49.0266 85.4196 49.2691 85.4196 49.5155C85.4196 49.7618 85.3577 50.0043 85.2395 50.2205C84.799 50.5944 84.2679 50.8462 83.6995 50.9505C83.3213 51.0023 82.9378 51.0023 82.5595 50.9505V52.0205C82.5595 60.4271 82.5595 68.8405 82.5595 77.2605C82.6302 79.2758 82.022 81.2565 80.8325 82.8849C79.6429 84.5133 77.941 85.695 75.9995 86.2405C70.1595 87.8305 64.7195 83.5605 64.6995 77.3305C64.6995 69.3305 64.6995 61.2505 64.6995 53.2105L64.7295 51.0005ZM79.5095 68.7305V51.0805H67.6895C67.6895 52.4005 67.6895 53.6705 67.6895 54.9305C67.7278 55.0576 67.7987 55.1726 67.8952 55.2638C67.9917 55.355 68.1104 55.4194 68.2395 55.4505C69.0695 55.5205 69.9095 55.4505 70.7495 55.4505C70.9106 55.441 71.0719 55.4636 71.2242 55.517C71.3765 55.5703 71.5167 55.6533 71.6367 55.7612C71.7566 55.8691 71.854 55.9997 71.9232 56.1455C71.9923 56.2912 72.0319 56.4493 72.0395 56.6105C72.0145 57.1635 71.7908 57.689 71.4095 58.0905C71.1795 58.3405 70.6195 58.3605 70.1995 58.3805C69.3795 58.3805 68.5495 58.3805 67.7195 58.3805V61.3805H70.3595C71.4595 61.3805 72.1295 61.9605 72.1095 62.8605C72.0895 63.7605 71.4195 64.3205 70.3295 64.3305C69.4695 64.3305 68.6095 64.3305 67.7095 64.3305V68.6905L79.5095 68.7305Z" fill="white"/>
<path id="Vector_3" d="M37.9997 19.9C38.6397 16.97 40.2097 15.45 42.5397 15.46C44.8697 15.47 46.3697 16.93 47.0397 19.78C48.0523 19.9642 49.0538 20.2046 50.0397 20.5C51.6366 21.0881 53.0287 22.1265 54.0475 23.4896C55.0662 24.8527 55.6679 26.4819 55.7797 28.18C55.8597 29.76 55.3697 30.29 53.7797 30.29H31.1797C29.6297 30.29 29.1797 29.76 29.1797 28.24C29.3141 26.0844 30.2304 24.052 31.7567 22.5239C33.2829 20.9958 35.3143 20.077 37.4697 19.94C37.6497 19.94 37.7897 19.92 37.9997 19.9Z" fill="white"/>
</g>
</svg>
