<svg width="150" height="150" viewBox="0 0 150 150" fill="none" xmlns="http://www.w3.org/2000/svg">
<g id="Mesa de trabajo 1 1">
<g id="Group">
<g id="OBJECTS">
<path id="Vector" d="M115.005 27.2695H35.0098C22.9976 27.2695 13.2598 37.0073 13.2598 49.0195V123.72C13.2598 135.732 22.9976 145.47 35.0098 145.47H115.005C127.017 145.47 136.755 135.732 136.755 123.72V49.0195C136.755 37.0073 127.017 27.2695 115.005 27.2695Z" fill="#060044"/>
<path id="Vector_2" d="M115.005 15.8398H35.0098C22.9976 15.8398 13.2598 25.5776 13.2598 37.5898V112.29C13.2598 124.302 22.9976 134.04 35.0098 134.04H115.005C127.017 134.04 136.755 124.302 136.755 112.29V37.5898C136.755 25.5776 127.017 15.8398 115.005 15.8398Z" fill="#1356FF"/>
<path id="Vector_3" style="mix-blend-mode:overlay" opacity="0.4" d="M115.005 132.375H34.9948C29.2289 132.371 23.7006 130.078 19.6249 125.999C15.5492 121.921 13.2598 116.391 13.2598 110.625V112.305C13.2598 118.071 15.5492 123.601 19.6249 127.679C23.7006 131.758 29.2289 134.051 34.9948 134.055H115.005C120.771 134.051 126.299 131.758 130.375 127.679C134.45 123.601 136.74 118.071 136.74 112.305V110.625C136.74 116.391 134.45 121.921 130.375 125.999C126.299 130.078 120.771 132.371 115.005 132.375Z" fill="url(#paint0_linear_1190_4489)"/>
<path id="Vector_4" style="mix-blend-mode:overlay" opacity="0.4" d="M34.9948 17.5348H115.005C120.771 17.5388 126.299 19.8321 130.375 23.9106C134.45 27.9891 136.74 33.519 136.74 39.2848V37.5898C136.74 31.824 134.45 26.2941 130.375 22.2156C126.299 18.1371 120.771 15.8438 115.005 15.8398H34.9948C29.2289 15.8438 23.7006 18.1371 19.6249 22.2156C15.5492 26.2941 13.2598 31.824 13.2598 37.5898V39.2848C13.2598 33.519 15.5492 27.9891 19.6249 23.9106C23.7006 19.8321 29.2289 17.5388 34.9948 17.5348Z" fill="url(#paint1_linear_1190_4489)"/>
<path id="Vector_5" d="M54.2848 79.9946H64.7848C65.4448 79.9946 65.3698 79.9046 65.3698 80.5946V112.71H79.7248V80.5796C79.7248 79.9196 79.7248 79.9946 80.3398 79.9946H89.9998C90.4198 79.9946 90.4198 79.9946 90.4798 79.5896C91.0948 75.5396 91.7248 71.4746 92.3398 67.4096C92.4448 66.7196 92.4298 66.7196 91.7248 66.7196H80.2048C79.7698 66.7196 79.7698 66.7196 79.7698 66.2696V58.1996C79.7652 57.5758 79.8205 56.9529 79.9348 56.3396C80.0892 55.1421 80.6012 54.019 81.4041 53.1171C82.2069 52.2152 83.2632 51.5766 84.4348 51.2846C85.4136 51.0277 86.4231 50.9066 87.4348 50.9246H92.5948C93.1198 50.9246 93.0748 50.9246 93.0748 50.4446V40.1246C93.0673 40.0498 93.0673 39.9744 93.0748 39.8996C93.0748 39.7046 93.0748 39.6146 92.8048 39.5846C92.2648 39.5846 91.7398 39.4196 91.2148 39.3596C88.8898 39.0596 86.5798 38.8496 84.2398 38.7596C82.2308 38.6552 80.2166 38.7912 78.2398 39.1646C75.9259 39.6026 73.7351 40.5393 71.8198 41.9096C69.1773 43.86 67.2527 46.6283 66.3448 49.7846C65.6699 52.0369 65.3411 54.3786 65.3698 56.7296V66.2696C65.3698 66.7346 65.3698 66.7196 64.9348 66.7196H53.9998C53.8198 66.7196 53.7448 66.7196 53.7598 66.9596V79.4996C53.7598 80.0246 53.6848 79.9946 54.2848 79.9946Z" fill="url(#paint2_linear_1190_4489)"/>
</g>
</g>
</g>
<defs>
<linearGradient id="paint0_linear_1190_4489" x1="60.0748" y1="93.54" x2="101.505" y2="152.805" gradientUnits="userSpaceOnUse">
<stop stop-color="#616161"/>
<stop offset="0.99" stop-color="white"/>
</linearGradient>
<linearGradient id="paint1_linear_1190_4489" x1="89.9248" y1="56.3548" x2="48.4798" y2="-2.89516" gradientUnits="userSpaceOnUse">
<stop stop-color="#616161"/>
<stop offset="0.99" stop-color="white"/>
</linearGradient>
<linearGradient id="paint2_linear_1190_4489" x1="67.6048" y1="44.5196" x2="96.2698" y2="122.7" gradientUnits="userSpaceOnUse">
<stop stop-color="white"/>
<stop offset="1" stop-color="#DBDBDB"/>
</linearGradient>
</defs>
</svg>
