<svg width="150" height="150" viewBox="0 0 150 150" fill="none" xmlns="http://www.w3.org/2000/svg">
<g id="Mesa de trabajo 1 copy 1">
<g id="Group">
<g id="OBJECTS">
<path id="Vector" d="M115.005 21.5547H35.0098C22.9976 21.5547 13.2598 31.2925 13.2598 43.3047V118.005C13.2598 130.017 22.9976 139.755 35.0098 139.755H115.005C127.017 139.755 136.755 130.017 136.755 118.005V43.3047C136.755 31.2925 127.017 21.5547 115.005 21.5547Z" fill="url(#paint0_linear_1190_4481)"/>
<path id="Vector_2" d="M115.005 10.1406H35.0098C22.9976 10.1406 13.2598 19.8784 13.2598 31.8906V106.591C13.2598 118.603 22.9976 128.341 35.0098 128.341H115.005C127.017 128.341 136.755 118.603 136.755 106.591V31.8906C136.755 19.8784 127.017 10.1406 115.005 10.1406Z" fill="#030303"/>
<path id="Vector_3" d="M115.005 126.66H34.9948C29.2289 126.656 23.7006 124.363 19.6249 120.284C15.5492 116.206 13.2598 110.676 13.2598 104.91V106.605C13.2598 109.459 13.822 112.286 14.9142 114.923C16.0065 117.56 17.6075 119.956 19.6258 121.974C21.6441 123.992 24.0401 125.593 26.6771 126.686C29.3142 127.778 32.1405 128.34 34.9948 128.34H115.005C117.859 128.34 120.685 127.778 123.322 126.686C125.959 125.593 128.355 123.992 130.374 121.974C132.392 119.956 133.993 117.56 135.085 114.923C136.178 112.286 136.74 109.459 136.74 106.605V104.91C136.74 110.676 134.45 116.206 130.375 120.284C126.299 124.363 120.771 126.656 115.005 126.66Z" fill="url(#paint1_linear_1190_4481)"/>
<path id="Vector_4" style="mix-blend-mode:overlay" opacity="0.4" d="M34.9948 11.8206H115.005C120.771 11.8246 126.299 14.1179 130.375 18.1964C134.45 22.2748 136.74 27.8048 136.74 33.5706V31.8906C136.74 26.1248 134.45 20.5948 130.375 16.5164C126.299 12.4379 120.771 10.1446 115.005 10.1406H34.9948C29.2289 10.1446 23.7006 12.4379 19.6249 16.5164C15.5492 20.5948 13.2598 26.1248 13.2598 31.8906V33.5706C13.2598 27.8048 15.5492 22.2748 19.6249 18.1964C23.7006 14.1179 29.2289 11.8246 34.9948 11.8206Z" fill="url(#paint2_linear_1190_4481)"/>
<path id="Vector_5" d="M82.0199 63.3755L107.415 33.8555H101.415L79.3349 59.4905L61.7249 33.8555H41.3999L68.0399 72.6155L41.3999 103.575H47.3999L70.7099 76.5005L89.3249 103.5H109.635L82.0049 63.3755H82.0199ZM73.7699 72.9605L71.0699 69.0905L49.5899 38.3855H58.8449L76.1699 63.1655L78.8699 67.0355L101.37 99.2555H92.1449L73.7699 72.9605Z" fill="white"/>
</g>
</g>
</g>
<defs>
<linearGradient id="paint0_linear_1190_4481" x1="59.2348" y1="31.2597" x2="88.1398" y2="121.845" gradientUnits="userSpaceOnUse">
<stop stop-color="#404040"/>
<stop offset="1"/>
</linearGradient>
<linearGradient id="paint1_linear_1190_4481" x1="60.0748" y1="87.8402" x2="101.505" y2="147.09" gradientUnits="userSpaceOnUse">
<stop stop-color="#616161"/>
<stop offset="0.99" stop-color="#242424"/>
</linearGradient>
<linearGradient id="paint2_linear_1190_4481" x1="89.9248" y1="50.6406" x2="48.4798" y2="-8.60938" gradientUnits="userSpaceOnUse">
<stop stop-color="#616161"/>
<stop offset="0.99" stop-color="white"/>
</linearGradient>
</defs>
</svg>
