<svg width="150" height="150" viewBox="0 0 150 150" fill="none" xmlns="http://www.w3.org/2000/svg">
<g id="Mesa de trabajo 1 copy 3 1">
<g id="Group">
<g id="OBJECTS">
<path id="Vector" d="M116.22 19.8594H36.2251C24.2129 19.8594 14.4751 29.5972 14.4751 41.6094V116.309C14.4751 128.322 24.2129 138.059 36.2251 138.059H116.22C128.232 138.059 137.97 128.322 137.97 116.309V41.6094C137.97 29.5972 128.232 19.8594 116.22 19.8594Z" fill="#060044"/>
<path id="Vector_2" d="M116.22 8.44531H36.2251C24.2129 8.44531 14.4751 18.1831 14.4751 30.1953V104.895C14.4751 116.908 24.2129 126.645 36.2251 126.645H116.22C128.232 126.645 137.97 116.908 137.97 104.895V30.1953C137.97 18.1831 128.232 8.44531 116.22 8.44531Z" fill="#0060D1"/>
<path id="Vector_3" style="mix-blend-mode:overlay" opacity="0.4" d="M116.205 124.965H36.2101C33.3558 124.965 30.5295 124.403 27.8925 123.311C25.2555 122.219 22.8594 120.618 20.8411 118.599C18.8229 116.581 17.2219 114.185 16.1296 111.548C15.0373 108.911 14.4751 106.085 14.4751 103.23V104.91C14.4751 110.676 16.7645 116.206 20.8402 120.285C24.9159 124.363 30.4442 126.656 36.2101 126.66H116.205C119.065 126.666 121.898 126.108 124.542 125.018C127.186 123.927 129.589 122.326 131.614 120.306C133.638 118.286 135.244 115.886 136.34 113.244C137.436 110.602 138 107.771 138 104.91V103.23C137.998 106.089 137.433 108.92 136.336 111.56C135.239 114.2 133.633 116.598 131.608 118.616C129.584 120.635 127.182 122.235 124.539 123.324C121.896 124.414 119.064 124.971 116.205 124.965Z" fill="url(#paint0_linear_1190_4462)"/>
<path id="Vector_4" style="mix-blend-mode:overlay" opacity="0.4" d="M36.2101 10.1403H116.205C119.064 10.1344 121.896 10.6921 124.539 11.7816C127.182 12.871 129.584 14.4708 131.608 16.4895C133.633 18.5082 135.239 20.9061 136.336 23.5461C137.433 26.1862 137.998 29.0165 138 31.8753V30.1953C138 24.4269 135.709 18.8947 131.63 14.8157C127.551 10.7368 122.019 8.44531 116.25 8.44531H36.2101C30.4442 8.44929 24.9159 10.7426 20.8402 14.821C16.7645 18.8995 14.4751 24.4295 14.4751 30.1953V31.8753C14.4751 26.1108 16.765 20.5824 20.8411 16.5063C24.9172 12.4302 30.4456 10.1403 36.2101 10.1403Z" fill="url(#paint1_linear_1190_4462)"/>
<path id="Vector_5" d="M109.095 70.9961C109.119 67.932 108.611 64.8869 107.595 61.9961C107.065 60.3708 106.182 58.8827 105.01 57.6381C103.838 56.3935 102.406 55.423 100.815 54.7961C97.6025 53.5545 94.111 53.2173 90.7202 53.8211C88.7937 54.0874 86.951 54.7804 85.3265 55.8496C83.702 56.9188 82.3367 58.3371 81.3302 60.0011C81.3302 60.1061 81.2252 60.2711 81.0602 60.2261C80.8952 60.1811 81.0002 60.0011 81.0002 59.8961C81.0002 58.3961 81.0002 56.7761 81.0002 55.2161C81.0002 54.6911 80.8802 54.5261 80.3402 54.5261C76.6502 54.5261 72.9452 54.5261 69.2552 54.5261C68.7002 54.5261 68.5352 54.6461 68.5352 55.2161C68.5352 61.9661 68.5352 68.7161 68.5352 75.4811C68.5352 82.2461 68.5352 88.9811 68.5352 95.7311C68.5352 96.2411 68.6402 96.4211 69.1802 96.4211C73.0602 96.4211 76.9452 96.4211 80.8352 96.4211C81.3752 96.4211 81.4952 96.2711 81.4952 95.7461C81.4952 89.0261 81.4952 82.3111 81.4952 75.6011C81.4652 74.1277 81.5859 72.6551 81.8552 71.2061C81.9489 70.2323 82.2443 69.2887 82.7225 68.4353C83.2007 67.5819 83.8514 66.8373 84.633 66.249C85.4146 65.6607 86.3101 65.2414 87.2625 65.018C88.2149 64.7946 89.2035 64.7718 90.1652 64.9511C91.3745 64.9794 92.542 65.3999 93.4916 66.1493C94.4412 66.8987 95.1216 67.9364 95.4302 69.1061C95.9288 70.728 96.1618 72.4198 96.1202 74.1161C96.1202 81.3161 96.1202 88.5261 96.1202 95.7461C96.1202 96.2861 96.2702 96.4211 96.7952 96.4211C100.74 96.4211 104.67 96.4211 108.615 96.4211C109.08 96.4211 109.2 96.2861 109.2 95.8361C109.14 87.5411 109.17 79.2611 109.095 70.9961Z" fill="url(#paint2_linear_1190_4462)"/>
<path id="Vector_6" d="M59.655 54.5254H48C47.505 54.5254 47.355 54.6604 47.355 55.1704C47.355 61.9204 47.355 68.6704 47.355 75.4204C47.355 82.1704 47.355 88.9404 47.355 95.7304C47.355 96.2404 47.46 96.4204 48.015 96.4204C51.915 96.4204 55.815 96.4204 59.715 96.4204C60.21 96.4204 60.36 96.3004 60.36 95.7904C60.36 82.2404 60.36 68.7004 60.36 55.1704C60.315 54.6304 60.135 54.5254 59.655 54.5254Z" fill="url(#paint3_linear_1190_4462)"/>
<path id="Vector_7" d="M53.8652 33.7051C51.8601 33.7051 49.9372 34.5016 48.5194 35.9194C47.1017 37.3371 46.3052 39.26 46.3052 41.2651C46.3052 43.2701 47.1017 45.193 48.5194 46.6108C49.9372 48.0286 51.8601 48.8251 53.8652 48.8251C55.8702 48.8251 57.7931 48.0286 59.2109 46.6108C60.6287 45.193 61.4252 43.2701 61.4252 41.2651C61.4252 39.26 60.6287 37.3371 59.2109 35.9194C57.7931 34.5016 55.8702 33.7051 53.8652 33.7051Z" fill="url(#paint4_linear_1190_4462)"/>
</g>
</g>
</g>
<defs>
<linearGradient id="paint0_linear_1190_4462" x1="61.2901" y1="86.1455" x2="102.72" y2="145.41" gradientUnits="userSpaceOnUse">
<stop stop-color="#616161"/>
<stop offset="0.99" stop-color="white"/>
</linearGradient>
<linearGradient id="paint1_linear_1190_4462" x1="91.1401" y1="48.9603" x2="49.6951" y2="-10.3047" gradientUnits="userSpaceOnUse">
<stop stop-color="#616161"/>
<stop offset="0.99" stop-color="white"/>
</linearGradient>
<linearGradient id="paint2_linear_1190_4462" x1="77.1002" y1="38.7461" x2="95.3702" y2="105.616" gradientUnits="userSpaceOnUse">
<stop stop-color="white"/>
<stop offset="1" stop-color="#DBDBDB"/>
</linearGradient>
<linearGradient id="paint3_linear_1190_4462" x1="46.095" y1="47.2054" x2="64.365" y2="114.09" gradientUnits="userSpaceOnUse">
<stop stop-color="white"/>
<stop offset="1" stop-color="#DBDBDB"/>
</linearGradient>
<linearGradient id="paint4_linear_1190_4462" x1="54.8252" y1="44.8201" x2="73.0952" y2="111.705" gradientUnits="userSpaceOnUse">
<stop stop-color="white"/>
<stop offset="1" stop-color="#DBDBDB"/>
</linearGradient>
</defs>
</svg>
