<svg width="150" height="150" viewBox="0 0 150 150" fill="none" xmlns="http://www.w3.org/2000/svg">
<g id="Mesa de trabajo 1 copy 2 1">
<g id="Group">
<g id="OBJECTS">
<path id="Vector" d="M115.845 19.8604H35.8501C23.8379 19.8604 14.1001 29.5982 14.1001 41.6104V116.31C14.1001 128.323 23.8379 138.06 35.8501 138.06H115.845C127.857 138.06 137.595 128.323 137.595 116.31V41.6104C137.595 29.5982 127.857 19.8604 115.845 19.8604Z" fill="#060044"/>
<path id="Vector_2" d="M115.845 8.44531H35.8501C23.8379 8.44531 14.1001 18.1831 14.1001 30.1953V104.895C14.1001 116.908 23.8379 126.645 35.8501 126.645H115.845C127.857 126.645 137.595 116.908 137.595 104.895V30.1953C137.595 18.1831 127.857 8.44531 115.845 8.44531Z" fill="url(#paint0_radial_1190_4452)"/>
<path id="Vector_3" style="mix-blend-mode:overlay" opacity="0.4" d="M115.845 124.965H35.8501C30.0842 124.965 24.5543 122.676 20.4758 118.6C16.3973 114.525 14.1041 108.996 14.1001 103.23V104.91C14.1001 110.679 16.3916 116.211 20.4705 120.29C24.5494 124.369 30.0816 126.66 35.8501 126.66H115.845C121.614 126.66 127.146 124.369 131.225 120.29C135.304 116.211 137.595 110.679 137.595 104.91V103.23C137.591 108.996 135.298 114.525 131.219 118.6C127.141 122.676 121.611 124.965 115.845 124.965Z" fill="url(#paint1_linear_1190_4452)"/>
<path id="Vector_4" style="mix-blend-mode:overlay" opacity="0.4" d="M35.8501 10.1403H115.845C121.611 10.1403 127.141 12.4298 131.219 16.5054C135.298 20.5811 137.591 26.1095 137.595 31.8753V30.1953C137.595 24.4269 135.304 18.8947 131.225 14.8157C127.146 10.7368 121.614 8.44531 115.845 8.44531H35.8501C30.0816 8.44531 24.5494 10.7368 20.4705 14.8157C16.3916 18.8947 14.1001 24.4269 14.1001 30.1953V31.8753C14.1041 26.1095 16.3973 20.5811 20.4758 16.5054C24.5543 12.4298 30.0842 10.1403 35.8501 10.1403Z" fill="url(#paint2_linear_1190_4452)"/>
<path id="Vector_5" d="M113.145 52.5757C113.092 49.6308 112.586 46.7116 111.645 43.9207C110.701 41.0426 109.081 38.433 106.92 36.311C104.758 34.189 102.12 32.6165 99.2249 31.7257C96.2324 30.8253 93.1248 30.3655 89.9999 30.3607C80.6699 30.1207 71.3399 30.1207 62.0099 30.3607C59.2113 30.3691 56.4248 30.7269 53.7149 31.4257C50.7375 32.1581 47.9812 33.5989 45.6803 35.6255C43.3795 37.6522 41.6023 40.2046 40.4999 43.0657C39.7091 45.096 39.2042 47.2264 38.9999 49.3957C38.6999 52.2457 38.6249 55.1107 38.6099 57.9607C38.6099 63.5107 38.6099 69.0607 38.6099 74.6107C38.6099 75.4957 38.6099 76.3807 38.6099 77.2657C38.6099 79.4107 38.6999 81.5707 38.8349 83.7157C38.9099 84.8407 39.0149 85.9657 39.1949 87.0757C39.768 91.3561 41.679 95.346 44.6549 98.4757C46.0377 99.8884 47.6318 101.078 49.3799 102.001C51.7716 103.212 54.3458 104.023 56.9999 104.401C58.2869 104.595 59.584 104.715 60.8849 104.761C62.5349 104.761 64.1849 104.881 65.8499 104.881C74.3849 104.881 82.9349 105.076 91.4699 104.686C94.011 104.621 96.5327 104.223 98.9699 103.501C101.123 102.842 103.151 101.828 104.97 100.501C108.772 97.673 111.434 93.5746 112.47 88.9507C113.076 86.0703 113.378 83.1341 113.37 80.1907C113.4 70.9957 113.46 61.7857 113.145 52.5757ZM106.575 77.2357C106.575 79.6057 106.575 81.9757 106.275 84.3457C106.135 87.145 105.255 89.8571 103.725 92.2057C102.988 93.2719 102.081 94.2095 101.04 94.9807C99.5473 96.1134 97.8284 96.9115 95.9999 97.3207C94.5869 97.6557 93.1455 97.8566 91.6949 97.9207C82.4549 98.3407 73.2149 98.2057 63.9749 98.0707C61.4596 98.1061 58.9471 97.8901 56.4749 97.4257C53.4589 96.8702 50.7318 95.2785 48.7649 92.9257C47.421 91.2355 46.4958 89.2515 46.0649 87.1357C45.6553 85.05 45.4394 82.931 45.4199 80.8057C45.3449 78.3607 45.2699 75.9007 45.2999 73.4557C45.2999 66.8557 45.1949 60.2707 45.4649 53.6707C45.4819 51.5817 45.7182 49.5003 46.1699 47.4607C46.6099 45.3088 47.6121 43.312 49.0743 41.6732C50.5366 40.0343 52.4069 38.8121 54.4949 38.1307C56.5486 37.4554 58.6931 37.0963 60.8549 37.0657C70.0949 36.7207 79.3349 36.8107 88.5749 36.9757C90.6145 36.9702 92.6512 37.1308 94.6649 37.4557C96.4989 37.6903 98.2635 38.3067 99.8447 39.2652C101.426 40.2238 102.789 41.5031 103.845 43.0207C105.049 44.8834 105.808 46.9978 106.065 49.2007C106.512 53.3146 106.683 57.4539 106.575 61.5907C106.62 66.8557 106.605 72.0007 106.575 77.2357Z" fill="url(#paint3_linear_1190_4452)"/>
<path id="Vector_6" d="M84.6603 50.4749C80.3145 48.2055 75.2518 47.7316 70.5603 49.1549C67.7793 49.9344 65.2138 51.3403 63.0603 53.2649C61.8775 54.3165 60.8476 55.5282 60.0003 56.8649C58.9765 58.3999 58.1736 60.0713 57.6153 61.8299C56.7153 64.7499 56.5179 67.8412 57.0393 70.8519C57.5606 73.8626 58.7859 76.7076 60.6153 79.1549C61.4532 80.2654 62.42 81.2724 63.4953 82.1549C64.7533 83.249 66.1504 84.172 67.6503 84.8999C69.9097 85.9962 72.3711 86.6141 74.8803 86.7149C76.6728 86.7857 78.4671 86.6295 80.2203 86.2499C82.5461 85.7143 84.7564 84.7641 86.7453 83.4449C88.5535 82.2212 90.1411 80.6996 91.4403 78.9449C93.0948 76.7001 94.2401 74.1216 94.7963 71.3889C95.3525 68.6563 95.3063 65.8353 94.6609 63.1223C94.0155 60.4093 92.7865 57.8697 91.0593 55.6803C89.3322 53.4908 87.1485 51.7042 84.6603 50.4449V50.4749ZM82.2903 78.2999C81.42 78.8264 80.4811 79.2302 79.5003 79.4999C76.976 80.2699 74.2723 80.2178 71.7795 79.3512C69.2867 78.4845 67.1338 76.8482 65.6316 74.6783C64.1294 72.5084 63.3555 69.9173 63.4218 67.279C63.4881 64.6406 64.391 62.0916 66.0003 59.9999C67.4513 58.098 69.4183 56.6532 71.6672 55.8375C73.916 55.0218 76.3519 54.8697 78.6848 55.3992C81.0177 55.9286 83.1492 57.1174 84.8256 58.824C86.502 60.5306 87.6525 62.683 88.1403 65.0249C88.684 67.5717 88.4114 70.2251 87.3613 72.6081C86.3111 74.9911 84.5368 76.9827 82.2903 78.2999Z" fill="url(#paint4_linear_1190_4452)"/>
<path id="Vector_7" d="M95.91 43.125C94.7165 43.125 93.5719 43.5991 92.728 44.443C91.8841 45.2869 91.41 46.4315 91.41 47.625C91.3956 48.2199 91.5021 48.8115 91.7232 49.364C91.9443 49.9164 92.2752 50.4183 92.696 50.839C93.1167 51.2598 93.6186 51.5907 94.171 51.8118C94.7235 52.0328 95.3151 52.1394 95.91 52.125C97.1035 52.125 98.248 51.6509 99.092 50.807C99.9359 49.9631 100.41 48.8185 100.41 47.625C100.41 46.4315 99.9359 45.2869 99.092 44.443C98.248 43.5991 97.1035 43.125 95.91 43.125Z" fill="url(#paint5_linear_1190_4452)"/>
</g>
</g>
</g>
<defs>
<radialGradient id="paint0_radial_1190_4452" cx="0" cy="0" r="1" gradientUnits="userSpaceOnUse" gradientTransform="translate(33.0001 129.435) scale(138.09 138.09)">
<stop stop-color="#FCC400"/>
<stop offset="0.46" stop-color="#FF007C"/>
<stop offset="1" stop-color="#5E00D2"/>
</radialGradient>
<linearGradient id="paint1_linear_1190_4452" x1="60.9301" y1="86.1455" x2="102.36" y2="145.41" gradientUnits="userSpaceOnUse">
<stop stop-color="#616161"/>
<stop offset="0.99" stop-color="white"/>
</linearGradient>
<linearGradient id="paint2_linear_1190_4452" x1="90.7801" y1="48.9603" x2="49.3351" y2="-10.3047" gradientUnits="userSpaceOnUse">
<stop stop-color="#616161"/>
<stop offset="0.99" stop-color="white"/>
</linearGradient>
<linearGradient id="paint3_linear_1190_4452" x1="55.2299" y1="35.7007" x2="116.505" y2="129.916" gradientUnits="userSpaceOnUse">
<stop stop-color="white"/>
<stop offset="1" stop-color="#DBDBDB"/>
</linearGradient>
<linearGradient id="paint4_linear_1190_4452" x1="55.2453" y1="35.6849" x2="116.535" y2="129.9" gradientUnits="userSpaceOnUse">
<stop stop-color="white"/>
<stop offset="1" stop-color="#DBDBDB"/>
</linearGradient>
<linearGradient id="paint5_linear_1190_4452" x1="78.375" y1="20.655" x2="139.65" y2="114.87" gradientUnits="userSpaceOnUse">
<stop stop-color="white"/>
<stop offset="1" stop-color="#DBDBDB"/>
</linearGradient>
</defs>
</svg>
