<svg width="124" height="130" viewBox="0 0 124 130" fill="none" xmlns="http://www.w3.org/2000/svg">
<g id="Pinterest">
<g id="OBJECTS">
<path id="Vector" d="M101.745 11.415H21.75C9.73781 11.415 0 21.1528 0 33.165V107.865C0 119.877 9.73781 129.615 21.75 129.615H101.745C113.757 129.615 123.495 119.877 123.495 107.865V33.165C123.495 21.1528 113.757 11.415 101.745 11.415Z" fill="#060044"/>
<path id="Vector_2" d="M101.745 0H21.75C9.73781 0 0 9.73781 0 21.75V96.45C0 108.462 9.73781 118.2 21.75 118.2H101.745C113.757 118.2 123.495 108.462 123.495 96.45V21.75C123.495 9.73781 113.757 0 101.745 0Z" fill="#DC0000"/>
<path id="Vector_3" style="mix-blend-mode:screen" opacity="0.3" d="M101.745 116.595H21.75C15.9841 116.595 10.4542 114.306 6.37573 110.23C2.29724 106.154 0.00397646 100.626 0 94.8602V96.5402C0 102.309 2.29151 107.841 6.37043 111.92C10.4493 115.999 15.9815 118.29 21.75 118.29H101.745C107.513 118.29 113.046 115.999 117.125 111.92C121.203 107.841 123.495 102.309 123.495 96.5402V94.7852C123.503 97.6465 122.946 100.481 121.857 103.127C120.767 105.773 119.166 108.177 117.146 110.204C115.125 112.23 112.725 113.837 110.082 114.934C107.439 116.031 104.606 116.595 101.745 116.595Z" fill="url(#paint0_radial_1376_4446)"/>
<path id="Vector_4" style="mix-blend-mode:overlay" opacity="0.4" d="M21.75 1.695H101.745C107.511 1.695 113.041 3.98445 117.119 8.06012C121.198 12.1358 123.491 17.6641 123.495 23.43V21.75C123.495 15.9815 121.203 10.4493 117.125 6.37043C113.046 2.29151 107.513 0 101.745 0H21.75C15.9815 0 10.4493 2.29151 6.37043 6.37043C2.29151 10.4493 0 15.9815 0 21.75V23.43C0.00397646 17.6641 2.29724 12.1358 6.37573 8.06012C10.4542 3.98445 15.9841 1.695 21.75 1.695Z" fill="url(#paint1_linear_1376_4446)"/>
</g>
<path id="Vector_5" d="M52.2232 94.582C54.2392 88.7986 56.2552 83.0278 58.2838 77.194C58.4493 77.2 58.612 77.2385 58.7626 77.3074C65.5162 81.8056 74.8024 78.3784 78.9226 72.2674C80.9494 69.2171 82.1637 65.6999 82.4506 62.0488C82.942 56.5804 82.186 51.3262 79.0486 46.6642C74.7016 40.2382 68.4142 37.4914 60.8542 37.693C47.2714 38.071 41.3368 48.7936 40.0894 57.2734C39.3294 61.2367 39.6871 65.3333 41.1226 69.1048C41.8564 70.7458 42.8522 72.2565 44.071 73.5778C44.4029 73.9299 44.8048 74.2089 45.2507 74.3968C45.6967 74.5847 46.177 74.6775 46.6608 74.6692C47.1447 74.6609 47.6215 74.5517 48.0608 74.3486C48.5 74.1455 48.892 73.8529 49.2118 73.4896C49.5748 73.1845 49.8667 72.8036 50.0669 72.3737C50.2671 71.9439 50.3709 71.4754 50.3709 71.0011C50.3709 70.5269 50.2671 70.0584 50.0669 69.6285C49.8667 69.1986 49.5748 68.8178 49.2118 68.5126C48.0992 67.3451 47.4152 65.835 47.2714 64.2286C46.5747 59.6554 47.5403 54.9839 49.993 51.0616C53.6344 45.5428 59.38 43.7158 66.2848 45.694C71.8918 47.2942 74.2732 51.4396 75.193 56.7316C75.9566 60.6562 75.1612 64.7239 72.9754 68.0716C72.0534 69.613 70.6483 70.8068 68.9782 71.4676C67.3081 72.1283 65.4665 72.219 63.7396 71.7256C63.1949 71.5466 62.6744 71.3012 62.1898 70.9948C60.6652 70.0246 60.5644 69.634 60.9298 67.8826C61.7236 64.3798 62.7568 60.9022 62.341 57.2356C62.026 54.5392 59.9722 52.5106 57.6916 52.876C56.5355 53.0939 55.4601 53.6207 54.5794 54.4006C53.3073 55.4824 52.3221 56.8615 51.711 58.4155C51.1 59.9696 50.882 61.6504 51.0766 63.3088C51.3902 65.4771 51.8405 67.6234 52.4248 69.7348C52.5744 70.1807 52.6343 70.6517 52.6012 71.1208C51.1396 78.0382 49.6402 84.9808 48.1534 91.8604C48.0652 92.251 47.9518 92.6416 47.851 93.0322C34.1548 87.4126 23.911 70.3522 29.6062 52.4098C30.9712 48.0853 33.2002 44.083 36.1582 40.6457C39.1162 37.2083 42.7414 34.4075 46.8141 32.413C50.8868 30.4185 55.3222 29.272 59.8513 29.0428C64.3803 28.8136 68.9088 29.5066 73.162 31.0798C77.4152 32.653 81.3047 35.0736 84.5945 38.1948C87.8843 41.316 90.506 45.0729 92.3006 49.2375C94.0951 53.4022 95.0252 57.8879 95.0344 62.4228C95.0437 66.9576 94.1318 71.4471 92.3542 75.619C84.5296 93.8512 65.1256 98.9164 52.2232 94.582Z" fill="white"/>
</g>
<defs>
<radialGradient id="paint0_radial_1376_4446" cx="0" cy="0" r="1" gradientUnits="userSpaceOnUse" gradientTransform="translate(61.755 106.5) scale(44.445 44.445)">
<stop stop-color="white"/>
<stop offset="1" stop-color="#DBDBDB"/>
</radialGradient>
<linearGradient id="paint1_linear_1376_4446" x1="76.68" y1="40.515" x2="35.235" y2="-18.75" gradientUnits="userSpaceOnUse">
<stop stop-color="#616161"/>
<stop offset="0.99" stop-color="white"/>
</linearGradient>
</defs>
</svg>
