<?xml version="1.0" encoding="UTF-8"?>
<svg id="Layer_1" xmlns="http://www.w3.org/2000/svg" viewBox="0 0 100 100">
  <defs>
    <style>
      .cls-1 {
        fill: #fff;
      }
    </style>
  </defs>
  <path class="cls-1" d="M5.95,49.87c0-10.67,0-21.35,0-32.02,0-4.04,3.27-8.13,7.28-9.13.98-.24,1.97-.37,2.99-.37,18.12,0,36.25,0,54.37,0,5.76,0,10.13,4.25,10.17,10.02.05,6.42.01,12.85.01,19.27,0,.69-.23.93-.92.94-1.15,0-2.29,0-3.44,0-.8,0-1-.21-1-1.02,0-6.27-.04-12.53.02-18.8.03-2.98-1.9-4.12-4.05-4.25-.47-.03-.95-.04-1.42-.04-17.85,0-35.7,0-53.54,0-.59,0-1.18,0-1.77.14-1.53.36-2.42,1.37-2.55,2.93-.02.26-.03.51-.03.77,0,20.85,0,41.71,0,62.56,0,.36,0,.71.03,1.07.12,1.59,1.1,2.63,2.69,2.8.57.06,1.14.1,1.71.1,13.88,0,27.75,0,41.63,0,.94,0,1.07.12,1.07,1.04,0,1.42,0,2.85,0,4.27,0,.9-.15,1.05-1.08,1.06-1.6,0-3.2,0-4.8,0-12.31,0-24.63,0-36.94,0-2.23,0-4.31-.5-6.14-1.8-2.91-2.06-4.27-4.94-4.28-8.47,0-10.36,0-20.71,0-31.07h-.01Z"/>
  <path class="cls-1" d="M76.61,41.48c9.86.08,17.44,7.97,17.45,17.45,0,9.51-7.51,17.43-17.42,17.45-9.86.02-17.47-7.87-17.48-17.46,0-9.63,7.83-17.43,17.45-17.45ZM88.91,58.97c-.1-7.38-6.1-12.44-12.49-12.31-6.88.15-12.27,5.77-12.11,12.63.15,6.7,5.79,12.07,12.48,11.95,6.64-.11,12.1-5.54,12.12-12.27Z"/>
  <path class="cls-1" d="M43.42,25.66c7.23,0,14.46,0,21.7,0,.89,0,1.06.16,1.06,1.07,0,1.4,0,2.81,0,4.21,0,.72-.2.92-.9.92-14.62,0-29.24,0-43.87,0-.62,0-.83-.18-.84-.79-.01-1.54-.01-3.08,0-4.62,0-.62.24-.79.98-.79,7.29,0,14.58,0,21.87,0Z"/>
  <path class="cls-1" d="M37.36,74.41c-5.26,0-10.51,0-15.77,0-.85,0-1.02-.16-1.02-.98,0-1.44,0-2.89,0-4.33,0-.73.22-.93.97-.93,10.55,0,21.11,0,31.66,0,.77,0,1,.21,1,.97,0,1.44,0,2.89,0,4.33,0,.76-.2.95-.94.95-5.3,0-10.59,0-15.89,0Z"/>
  <path class="cls-1" d="M37.37,46.08c-5.25,0-10.51,0-15.76,0-.87,0-1.04-.17-1.04-1.03,0-1.4,0-2.81,0-4.21,0-.81.18-.99.97-.99,10.57,0,21.14,0,31.7,0,.73,0,.95.21.96.95,0,1.42,0,2.84,0,4.27,0,.82-.2,1.02-1,1.02-5.27,0-10.55,0-15.82,0Z"/>
  <path class="cls-1" d="M37.42,53.45c5.24,0,10.47,0,15.71,0,.88,0,1.07.19,1.07,1.08,0,1.4,0,2.81,0,4.21,0,.75-.2.96-.94.96-10.59,0-21.18,0-31.77,0-.7,0-.91-.21-.92-.93-.01-1.46,0-2.92,0-4.39,0-.73.22-.93.97-.93,5.3,0,10.59,0,15.89,0Z"/>
  <path class="cls-1" d="M76.65,83.05c-3.86,2.81-7.67,5.59-11.48,8.37-.29.21-.57.48-.96.29-.42-.2-.37-.61-.37-.98,0-4.72,0-9.45,0-14.17,0-.22-.02-.44.08-.64.17-.33.41-.56.8-.33.82.46,1.64.94,2.46,1.41.33.19.32.51.32.83,0,2.33,0,4.66,0,7,0,.19,0,.39,0,.59.28.03.41-.18.57-.3,2.62-1.97,5.24-3.94,7.85-5.92q.72-.55,1.48,0c2.65,1.9,5.29,3.8,7.94,5.7.12.09.25.17.38.26.16-.19.08-.37.08-.53-.04-2.25-.09-4.5-.15-6.76-.01-.5.15-.81.59-1.04.66-.35,1.29-.75,1.94-1.13.75-.44,1.16-.22,1.17.65,0,2.79,0,5.57,0,8.36,0,2,0,3.99,0,5.99,0,.39.08.82-.38,1.04-.42.2-.71-.09-1.01-.31-3.76-2.78-7.53-5.55-11.32-8.35Z"/>
  <path class="cls-1" d="M83.85,58.96c0,4.01-3.39,7.52-7.25,7.51-3.86,0-7.23-3.51-7.22-7.53.01-4.54,3.7-7.47,7.2-7.53,3.87-.07,7.27,3.51,7.26,7.55ZM76.36,54.6c-2.43.06-4.31,2.03-4.26,4.45.06,2.4,2.07,4.31,4.48,4.24,2.35-.07,4.24-2.04,4.2-4.39-.04-2.42-2.04-4.36-4.42-4.3Z"/>
</svg>