<svg width="50" height="50" viewBox="0 0 50 50" fill="none" xmlns="http://www.w3.org/2000/svg">
<g id="polish 1" clip-path="url(#clip0_1426_4494)">
<path id="Vector" d="M-0.0341187 28.2562L7.00565 25.6369L12.3125 23.6653C13.3426 23.3 14.2769 22.7065 15.0453 21.9292C15.8138 21.1519 16.3965 20.211 16.75 19.1767C18.1894 15.2903 19.6344 11.4058 21.0852 7.52326C21.142 7.36417 21.2045 7.21076 21.3068 6.95508C21.4034 7.18235 21.4716 7.31871 21.5227 7.46644C22.9716 11.3642 24.4318 15.2278 25.8579 19.1199C26.2246 20.1932 26.8336 21.1677 27.6376 21.9678C28.4416 22.7679 29.4191 23.3721 30.4943 23.7335C34.4034 25.1596 38.3011 26.6255 42.1988 28.0744C42.3125 28.1142 42.4147 28.1653 42.6079 28.2505C42.4204 28.3414 42.3011 28.4096 42.1761 28.4551C38.2557 29.9172 34.3371 31.3717 30.4204 32.8187C29.3692 33.1764 28.4133 33.7692 27.6256 34.5519C26.838 35.3346 26.2392 36.2867 25.875 37.3358C24.4356 41.2335 22.9886 45.135 21.5341 49.0403C21.4772 49.188 21.4147 49.3414 21.3125 49.6085C21.1875 49.3017 21.0966 49.0971 21.017 48.8812C19.5966 45.046 18.1761 41.2051 16.75 37.3642C16.3933 36.3218 15.8044 35.374 15.0278 34.5925C14.2512 33.811 13.3072 33.2161 12.267 32.8528L0.568154 28.4892L-0.0341187 28.2562Z" fill="white"/>
<path id="Vector_2" d="M50.0341 14.6531C48.841 15.0963 47.6705 15.6418 46.4489 15.9656C45.876 16.0754 45.3489 16.3535 44.9349 16.7644C44.521 17.1753 44.239 17.7004 44.125 18.2725C43.8047 19.353 43.4253 20.4152 42.9887 21.4543C42.9319 21.6077 42.858 21.7611 42.7614 21.9884C42.1478 20.3463 41.5512 18.7952 40.9944 17.227C40.9373 17.0272 40.831 16.8449 40.685 16.6969C40.539 16.549 40.3582 16.4401 40.1591 16.3804C38.608 15.8122 37.0682 15.2441 35.3921 14.6077L35.9091 14.3861C37.3466 13.852 38.75 13.3066 40.2273 12.7952C40.4012 12.7396 40.5591 12.6429 40.6876 12.5133C40.8162 12.3838 40.9117 12.2251 40.966 12.0509C41.5341 10.4656 42.1364 8.89178 42.7557 7.20996C42.858 7.4486 42.9319 7.60201 42.9944 7.77814C43.5285 9.20996 44.0682 10.6475 44.5853 12.0906C44.6376 12.2538 44.7285 12.4019 44.8501 12.5225C44.9717 12.6432 45.1206 12.7328 45.2841 12.7838C46.8637 13.352 48.4432 13.9486 50.0171 14.5338L50.0341 14.6531Z" fill="white"/>
<path id="Vector_3" d="M31.8807 8.28986C31.5739 7.47168 31.2785 6.79554 31.0682 6.091C31.0095 5.86266 30.8896 5.65469 30.7214 5.48948C30.5532 5.32428 30.343 5.20811 30.1137 5.1535C29.4205 4.93191 28.7387 4.64213 27.9432 4.341C28.8296 4.01145 29.608 3.77282 30.358 3.42623C30.6086 3.2909 30.8081 3.07742 30.9262 2.81827C31.2557 2.06827 31.4944 1.28986 31.8466 0.40918C32.1819 1.28986 32.4148 2.06827 32.7671 2.81259C32.9046 3.08533 33.1283 3.30504 33.4035 3.43759C34.1364 3.76145 34.9035 4.00577 35.7955 4.341C34.983 4.64782 34.3126 4.94327 33.6137 5.1535C33.379 5.21299 33.1649 5.33545 32.9947 5.50768C32.8245 5.67991 32.7045 5.89536 32.6478 6.13077C32.4546 6.81827 32.1762 7.48873 31.8807 8.28986Z" fill="white"/>
</g>
<defs>
<clipPath id="clip0_1426_4494">
<rect width="50" height="50" fill="white"/>
</clipPath>
</defs>
</svg>
