<svg width="84" height="84" viewBox="0 0 84 84" fill="none" xmlns="http://www.w3.org/2000/svg">
<g id="Post Management-01 1">
<path id="Vector" fill-rule="evenodd" clip-rule="evenodd" d="M45.7808 39.648L39.1448 43.932C38.9768 43.932 38.8088 44.1 38.7248 44.1C38.3048 44.1 37.8008 43.68 37.8008 43.176V34.608C37.8008 33.852 38.5568 33.432 39.1448 33.852L45.7808 38.136C46.2848 38.472 46.2848 39.228 45.7808 39.648Z" stroke="white" stroke-miterlimit="10"/>
<path id="Vector_2" fill-rule="evenodd" clip-rule="evenodd" d="M60.8998 35.1123L56.6998 34.1883C56.4478 33.3483 56.1118 32.5923 55.6918 31.8363L57.9598 28.2243C58.2118 27.8883 58.1278 27.4683 57.8758 27.1323L53.6758 22.9323C53.4238 22.6803 52.9198 22.5963 52.5838 22.8483L48.9718 25.1163C48.2158 24.6963 47.4598 24.3603 46.6198 24.1083L45.6958 19.9083C45.6118 19.4883 45.2758 19.2363 44.8558 19.2363H38.8918C38.4718 19.2363 38.1358 19.4883 38.0518 19.9083L37.1278 24.1083C36.2878 24.3603 35.5318 24.6963 34.7758 25.1163L31.1638 22.8483C30.8278 22.5963 30.3238 22.6803 30.0718 22.9323L25.8718 27.1323C25.6198 27.3843 25.5358 27.8883 25.7878 28.2243L28.0558 31.8363C27.6358 32.5923 27.3838 33.3483 27.0478 34.1883L22.8478 35.1123C22.4278 35.1963 22.1758 35.5323 22.1758 35.9523V41.9163C22.1758 42.3363 22.4278 42.6723 22.8478 42.7563L27.0478 43.6803C27.2998 44.5203 27.6358 45.2763 28.0558 46.0323L25.9558 49.5603C25.7038 49.8963 25.7878 50.3163 26.0398 50.6523L30.2398 54.8523C30.4918 55.1043 30.9958 55.1883 31.3318 54.9363L34.9438 52.6683C35.6998 53.0883 36.4558 53.4243 37.2958 53.6763L38.2198 57.8763C38.3038 58.2963 38.6398 58.5483 39.0598 58.5483H45.0238C45.4438 58.5483 45.7798 58.2963 45.8638 57.8763L46.7878 53.6763C47.6278 53.4243 48.3838 53.0883 49.1398 52.6683L52.7518 54.9363C53.0878 55.1883 53.5078 55.1043 53.8438 54.8523L58.0438 50.6523C58.2958 50.3163 58.3798 49.8963 58.1278 49.5603L55.8598 45.9483C56.2798 45.1923 56.5318 44.4363 56.8678 43.5963L61.0678 42.6723C61.4878 42.5883 61.7398 42.2523 61.7398 41.8323V35.8683C61.5718 35.5323 61.3198 35.1963 60.8998 35.1123ZM41.9998 48.9723C36.4558 48.9723 31.9198 44.4363 31.9198 38.8923C31.9198 33.2643 36.4558 28.7283 41.9998 28.7283C44.7718 28.7283 47.2918 29.9043 49.1398 31.6683C50.9878 33.4323 52.0798 36.0363 52.0798 38.8083C52.1638 44.5203 47.6278 48.9723 41.9998 48.9723Z" fill="white"/>
<path id="Vector_3" fill-rule="evenodd" clip-rule="evenodd" d="M39.9847 14.0279L38.4727 12.5999C38.1367 12.2639 38.1367 11.6759 38.4727 11.3399C38.8088 11.0039 39.3967 11.0039 39.7327 11.3399L42.5888 14.1959C42.9248 14.5319 42.9248 15.1199 42.5888 15.4559L39.7327 18.3119C39.3967 18.6479 38.8088 18.6479 38.4727 18.3119C38.1367 17.9759 38.1367 17.3879 38.4727 17.0519L39.7327 15.7919C27.8047 16.8839 18.7327 26.7119 18.7327 38.8919C18.7327 50.0639 26.7127 59.6399 37.6327 61.6559C38.1367 61.7399 38.3887 62.1599 38.3047 62.6639C38.2207 63.0839 37.8847 63.3359 37.4647 63.3359C37.3807 63.3359 37.3808 63.3359 37.2968 63.3359C25.5368 61.1519 16.9688 50.8199 16.9688 38.8079C17.0528 25.8719 27.0487 15.1199 39.9847 14.0279Z" fill="white"/>
<path id="Vector_4" fill-rule="evenodd" clip-rule="evenodd" d="M66.9484 38.8923C66.9484 52.4163 56.1964 63.4203 42.6724 63.8403L44.1004 65.2683C44.4364 65.6043 44.4364 66.1923 44.1004 66.5283C43.7644 66.8643 43.1764 66.8643 42.8404 66.5283L39.9844 63.6723C39.6484 63.3363 39.6484 62.7483 39.9844 62.4123L42.8404 59.5563C43.1764 59.2203 43.7644 59.2203 44.1004 59.5563C44.4364 59.8923 44.4364 60.4803 44.1004 60.8163L42.6724 62.2443C55.1884 61.9083 65.1844 51.6603 65.1844 39.0603C65.1844 27.4683 56.5324 17.6403 45.1084 16.0443C44.6044 15.9603 44.2684 15.5403 44.3524 15.0363C44.4364 14.5323 44.8564 14.2803 45.2764 14.2803C57.7084 15.8763 66.9484 26.3763 66.9484 38.8923Z" fill="white"/>
</g>
</svg>
