<?xml version="1.0" encoding="utf-8"?>
<!-- Generator: Adobe Illustrator 26.5.0, SVG Export Plug-In . SVG Version: 6.00 Build 0)  -->
<svg version="1.1" id="Layer_1" xmlns="http://www.w3.org/2000/svg" xmlns:xlink="http://www.w3.org/1999/xlink" x="0px" y="0px"
	 viewBox="0 0 100 100" style="enable-background:new 0 0 100 100;" xml:space="preserve">
<style type="text/css">
	.st0{fill-rule:evenodd;clip-rule:evenodd;fill:none;stroke:#000000;stroke-miterlimit:10;}
	.st1{fill-rule:evenodd;clip-rule:evenodd;}
</style>
<path class="st0" d="M54.5,47.2l-7.9,5.1c-0.2,0-0.4,0.2-0.5,0.2c-0.5,0-1.1-0.5-1.1-1.1V41.2c0-0.9,0.9-1.4,1.6-0.9l7.9,5.1
	C55.1,45.8,55.1,46.7,54.5,47.2z"/>
<path class="st1" d="M72.5,41.8l-5-1.1c-0.3-1-0.7-1.9-1.2-2.8l2.7-4.3c0.3-0.4,0.2-0.9-0.1-1.3l-5-5c-0.3-0.3-0.9-0.4-1.3-0.1
	l-4.3,2.7c-0.9-0.5-1.8-0.9-2.8-1.2l-1.1-5c-0.1-0.5-0.5-0.8-1-0.8h-7.1c-0.5,0-0.9,0.3-1,0.8l-1.1,5c-1,0.3-1.9,0.7-2.8,1.2
	l-4.3-2.7c-0.4-0.3-1-0.2-1.3,0.1l-5,5c-0.3,0.3-0.4,0.9-0.1,1.3l2.7,4.3c-0.5,0.9-0.8,1.8-1.2,2.8l-5,1.1c-0.5,0.1-0.8,0.5-0.8,1
	v7.1c0,0.5,0.3,0.9,0.8,1l5,1.1c0.3,1,0.7,1.9,1.2,2.8L30.9,59c-0.3,0.4-0.2,0.9,0.1,1.3l5,5c0.3,0.3,0.9,0.4,1.3,0.1l4.3-2.7
	c0.9,0.5,1.8,0.9,2.8,1.2l1.1,5c0.1,0.5,0.5,0.8,1,0.8h7.1c0.5,0,0.9-0.3,1-0.8l1.1-5c1-0.3,1.9-0.7,2.8-1.2l4.3,2.7
	c0.4,0.3,0.9,0.2,1.3-0.1l5-5c0.3-0.4,0.4-0.9,0.1-1.3l-2.7-4.3c0.5-0.9,0.8-1.8,1.2-2.8l5-1.1c0.5-0.1,0.8-0.5,0.8-1v-7.1
	C73.3,42.3,73,41.9,72.5,41.8z M50,58.3c-6.6,0-12-5.4-12-12c0-6.7,5.4-12.1,12-12.1c3.3,0,6.3,1.4,8.5,3.5s3.5,5.2,3.5,8.5
	C62.1,53,56.7,58.3,50,58.3z"/>
<path class="st1" d="M47.6,16.7L45.8,15c-0.4-0.4-0.4-1.1,0-1.5c0.4-0.4,1.1-0.4,1.5,0c0,0,0,0,0,0l3.4,3.4c0.4,0.4,0.4,1.1,0,1.5
	l-3.4,3.4c-0.4,0.4-1.1,0.4-1.5,0c-0.4-0.4-0.4-1.1,0-1.5l0,0l1.5-1.5c-14.2,1.3-25,13-25,27.5c0,13.3,9.5,24.7,22.5,27.1
	c0.6,0.1,0.9,0.6,0.8,1.2c-0.1,0.5-0.5,0.8-1,0.8c-0.1,0-0.1,0-0.2,0c-14-2.6-24.2-14.9-24.2-29.2C20.3,30.8,32.2,18,47.6,16.7
	L47.6,16.7z"/>
<path class="st1" d="M79.7,46.3c0,16.1-12.8,29.2-28.9,29.7l1.7,1.7c0.4,0.4,0.4,1.1,0,1.5c-0.4,0.4-1.1,0.4-1.5,0c0,0,0,0,0,0
	l-3.4-3.4c-0.4-0.4-0.4-1.1,0-1.5l3.4-3.4c0.4-0.4,1.1-0.4,1.5,0s0.4,1.1,0,1.5l0,0l-1.7,1.7c14.9-0.4,26.8-12.6,26.8-27.6
	c0-13.8-10.3-25.5-23.9-27.4c-0.6-0.1-1-0.6-0.9-1.2c0.1-0.6,0.6-0.9,1.1-0.9C68.7,18.9,79.7,31.4,79.7,46.3L79.7,46.3z"/>
</svg>
