<svg width="80" height="80" viewBox="0 0 80 80" fill="none" xmlns="http://www.w3.org/2000/svg">
<g id="Reach the Right People 1">
<path id="Vector" d="M51.9919 51.7443C50.4879 48.1523 47.9439 45.7123 44.2719 44.3123C46.5679 42.5683 47.7759 40.3524 47.6159 37.5203C47.4959 35.4403 46.6319 33.6883 45.0639 32.3123C41.8799 29.5203 37.0399 29.8803 34.3199 33.1043C31.6479 36.2723 31.8239 41.3043 35.9039 44.3043C34.1279 45.0003 32.5439 45.9123 31.1999 47.2163C29.8719 48.5043 28.8719 50.0163 28.1759 51.7443C21.9359 45.6403 21.4479 34.9763 28.1119 28.2083C34.7199 21.4963 45.6079 21.5283 52.1519 28.3123C58.7759 35.1843 58.1119 45.7443 51.9919 51.7443Z" fill="white"/>
<path id="Vector_2" d="M5.55182 73.6876C2.19982 70.3116 1.53582 63.7516 5.59982 59.3596C9.61582 55.0236 16.3278 54.7596 20.6878 58.7436C24.9518 62.6396 25.2958 69.3916 21.3758 73.7036C20.3838 71.7436 18.9278 70.2716 16.8638 69.3516C18.1598 68.1196 18.8318 66.6796 18.7118 64.9276C18.6158 63.5436 18.0558 62.3756 17.0478 61.4236C15.1198 59.6156 12.0718 59.5356 10.0718 61.2236C7.66382 63.2636 7.61582 65.9756 9.95982 69.3916C7.97582 70.2876 6.51182 71.7196 5.55182 73.6796V73.6876Z" fill="white"/>
<path id="Vector_3" d="M74.4638 20.4079C73.4958 18.4159 72.0078 16.9999 70.0318 16.0799C72.9198 13.1519 71.9118 9.82392 70.2398 8.23992C68.1758 6.27992 64.9438 6.30392 62.9118 8.28792C61.2398 9.91992 60.3358 13.2319 63.1678 16.0719C62.2158 16.5599 61.3118 17.0959 60.5598 17.8479C59.8158 18.5839 59.2318 19.4239 58.7598 20.3599C55.6158 17.3279 54.6078 10.8319 58.6798 6.27992C62.6398 1.85592 69.5038 1.51192 73.7918 5.52792C78.0238 9.48792 78.3678 16.3839 74.4718 20.4079H74.4638Z" fill="white"/>
<path id="Vector_4" d="M21.424 20.3916C20.472 18.4396 19 17.0077 16.976 16.0796C18.32 14.7997 18.976 13.2956 18.792 11.4876C18.656 10.1436 18.064 9.00765 17.048 8.10365C14.944 6.23965 11.728 6.36765 9.78402 8.38365C7.70402 10.5356 7.81602 13.6157 10.128 16.0556C9.20802 16.5756 8.29602 17.0796 7.54402 17.8237C6.78402 18.5757 6.16802 19.4317 5.70402 20.4076C1.90402 16.6557 2.10402 9.75965 6.11202 5.79165C10.32 1.62365 17.12 1.71965 21.24 6.01565C25.384 10.3356 24.824 16.9356 21.424 20.3916Z" fill="white"/>
<path id="Vector_5" d="M74.4721 73.5277C73.5441 71.6237 72.1041 70.2397 70.1041 69.3117C71.5041 67.9677 72.1361 66.3837 71.8561 64.5037C71.6721 63.2157 71.0561 62.1597 70.0641 61.3277C67.9281 59.5357 64.8801 59.7117 62.9441 61.7197C60.9201 63.8237 61.0321 66.7437 63.2881 69.3197C61.3441 70.2237 59.8721 71.6237 58.9281 73.5517C55.0721 69.7917 55.3841 62.8477 59.5601 58.9117C63.8801 54.8397 70.7601 55.2317 74.6801 59.7677C78.6321 64.3437 77.4641 70.7277 74.4641 73.5277H74.4721Z" fill="white"/>
<path id="Vector_6" d="M40.2561 56.7519C36.4801 56.7359 33.2401 55.6719 30.3121 53.6239C29.8481 53.2959 29.7361 53.0159 29.9441 52.4559C31.5121 48.3439 35.5841 45.5519 40.0721 45.5439C44.5681 45.5439 48.6241 48.3119 50.2081 52.4399C50.4081 52.9679 50.3841 53.2559 49.8801 53.6079C46.9281 55.6799 43.6561 56.7279 40.2481 56.7439L40.2561 56.7519Z" fill="white"/>
<path id="Vector_7" d="M40.0798 32.3439C43.2158 32.3439 45.7358 34.8719 45.7278 37.9999C45.7198 41.0719 43.1998 43.6079 40.1198 43.6319C37.0238 43.6559 34.4398 41.0959 34.4238 37.9919C34.4158 34.8799 36.9518 32.3359 40.0798 32.3359V32.3439Z" fill="white"/>
<path id="Vector_8" d="M7.0957 75.128C7.8637 72.536 10.5037 70.616 13.3437 70.592C16.3037 70.568 18.9517 72.4 19.8157 75.072C16.8157 77.76 10.9597 78.224 7.1037 75.128H7.0957Z" fill="white"/>
<path id="Vector_9" d="M72.9599 21.7843C69.4399 24.6323 63.8239 24.6403 60.2959 21.8323C60.9279 19.4003 63.4079 17.5123 66.1999 17.3283C69.1839 17.1363 71.7519 18.8163 72.9679 21.7843H72.9599Z" fill="white"/>
<path id="Vector_10" d="M19.9197 21.7921C16.4237 24.6401 10.7437 24.6401 7.26367 21.8321C7.85567 19.4561 10.3357 17.5361 13.0797 17.3361C16.1197 17.1201 18.6957 18.7841 19.9197 21.7921Z" fill="white"/>
<path id="Vector_11" d="M72.984 74.9678C69.544 77.7758 63.776 77.7598 60.48 74.9758C61.216 72.4878 63.704 70.6398 66.448 70.5518C69.44 70.4558 71.92 72.1278 72.984 74.9598V74.9678Z" fill="white"/>
<path id="Vector_12" d="M40.0881 8.08792C42.0481 8.08792 43.6401 9.69592 43.6161 11.6319C43.5921 13.5759 41.9601 15.1679 40.0321 15.1359C38.1281 15.1119 36.5601 13.5279 36.5441 11.6159C36.5281 9.67992 38.1281 8.07992 40.0881 8.08792Z" fill="white"/>
<path id="Vector_13" d="M68.8798 36.4561C70.8478 36.4561 72.4318 38.0241 72.4238 39.9761C72.4238 41.8961 70.8558 43.4721 68.9438 43.4961C66.9998 43.5201 65.3758 41.9361 65.3518 40.0001C65.3278 38.0561 66.9118 36.4641 68.8798 36.4561Z" fill="white"/>
<path id="Vector_14" d="M40.0879 64.8242C42.0479 64.8242 43.6399 66.4162 43.6239 68.3602C43.6079 70.3042 41.9919 71.8802 40.0399 71.8642C38.1279 71.8482 36.5599 70.2722 36.5519 68.3522C36.5359 66.4082 38.1359 64.8242 40.0959 64.8242H40.0879Z" fill="white"/>
<path id="Vector_15" d="M12.1921 36.4562C14.1601 36.4722 15.7121 38.0482 15.6801 40.0162C15.6481 41.9442 14.0881 43.4882 12.1681 43.4962C10.2321 43.4962 8.61605 41.8882 8.62405 39.9522C8.62405 38.0002 10.2161 36.4402 12.1921 36.4562Z" fill="white"/>
<path id="Vector_16" d="M13.4238 61.9279C15.3038 61.9119 16.8238 63.4079 16.8318 65.2799C16.8398 67.1039 15.3438 68.6319 13.5198 68.6639C11.6638 68.6959 10.1038 67.1919 10.0718 65.3359C10.0398 63.4799 11.5598 61.9359 13.4238 61.9199V61.9279Z" fill="white"/>
<path id="Vector_17" d="M16.9119 12.0157C16.9199 13.8717 15.4639 15.3597 13.6079 15.3837C11.7439 15.4077 10.1999 13.8877 10.2159 12.0157C10.2239 10.1837 11.7359 8.67969 13.5679 8.67969C15.3999 8.67969 16.9039 10.1757 16.9119 12.0157Z" fill="white"/>
<path id="Vector_18" d="M69.9441 12.0157C69.9521 13.8637 68.4881 15.3597 66.6401 15.3837C64.7681 15.4077 63.2401 13.8957 63.2481 12.0157C63.2561 10.1757 64.7601 8.67969 66.5921 8.67969C68.4241 8.67969 69.9361 10.1757 69.9441 12.0157Z" fill="white"/>
<path id="Vector_19" d="M63.4082 65.3203C63.4082 63.4803 64.9122 61.9763 66.7442 61.9923C68.5442 62.0083 70.0162 63.4883 70.0242 65.2963C70.0242 67.1203 68.4962 68.6563 66.6882 68.6323C64.8802 68.6083 63.4162 67.1203 63.4162 65.3203H63.4082Z" fill="white"/>
<path id="Vector_20" d="M52.6479 53.9043C53.0799 53.4563 53.576 52.9523 54.032 52.4883C55.568 54.0163 57.096 55.5443 58.608 57.0563C58.12 57.5043 57.6079 57.9763 57.1359 58.4083C55.7039 56.9683 54.1599 55.4243 52.6479 53.9043Z" fill="white"/>
<path id="Vector_21" d="M26.2316 52.5762C26.6076 52.9682 27.0876 53.4642 27.5036 53.8962C26.0476 55.3522 24.5596 56.8402 23.0556 58.3442C22.7036 57.9202 22.2476 57.3842 21.8076 56.8562C23.1676 55.5442 24.6956 54.0642 26.2316 52.5762Z" fill="white"/>
<path id="Vector_22" d="M23.0803 21.5518C24.5923 23.0638 26.0643 24.5438 27.4883 25.9598C27.0403 26.4318 26.5602 26.9518 26.1122 27.4318C24.6402 25.9518 23.1523 24.4638 21.6562 22.9758C22.0963 22.5278 22.6003 22.0318 23.0803 21.5518Z" fill="white"/>
<path id="Vector_23" d="M58.52 23.0724C57.064 24.5364 55.584 26.0164 54.08 27.5204C53.6 27.0004 53.12 26.4884 52.688 26.0244C54.128 24.5844 55.624 23.0964 57.064 21.6484C57.48 22.0564 57.984 22.5444 58.512 23.0644L58.52 23.0724Z" fill="white"/>
<path id="Vector_24" d="M39.0161 16.9679C39.7281 17.0559 40.4081 17.1279 41.1521 16.9199V21.2799H39.0161V16.9759V16.9679Z" fill="white"/>
<path id="Vector_25" d="M58.792 41.0557V38.9277H63.568C63.408 39.6157 63.408 40.3117 63.568 41.0557H58.792Z" fill="white"/>
<path id="Vector_26" d="M41.1682 58.7041V62.9361H39.0322V58.7041H41.1682Z" fill="white"/>
<path id="Vector_27" d="M21.3515 41.0637H17.5355C17.5755 40.3437 17.6155 39.6637 17.5195 38.9277H21.3595V41.0637H21.3515Z" fill="white"/>
</g>
</svg>
