<svg width="60" height="60" viewBox="0 0 60 60" fill="none" xmlns="http://www.w3.org/2000/svg">
<g id="report 1">
<path id="Vector" d="M27.3424 43.374V42.774C27.3424 38.628 27.3424 34.482 27.3424 30.33C27.3424 29.418 27.6184 29.148 28.5364 29.142C30.1264 29.142 31.7224 29.142 33.3124 29.142C34.1524 29.142 34.4524 29.436 34.4524 30.27C34.4524 34.434 34.4524 38.604 34.4524 42.768V43.338H36.2284V42.732C36.2284 36.252 36.2284 29.772 36.2284 23.292C36.2284 22.272 36.4804 22.026 37.5124 22.026C39.0664 22.026 40.6204 22.026 42.1804 22.026C43.0564 22.026 43.3444 22.314 43.3444 23.19C43.3444 29.688 43.3444 36.186 43.3444 42.684V43.326H45.0724C45.1804 43.158 45.1204 42.948 45.1204 42.756C45.1204 33.906 45.1204 25.056 45.1204 16.206C45.1204 15.15 45.3604 14.916 46.4344 14.916C47.9704 14.916 49.5064 14.916 51.0424 14.916C51.9544 14.916 52.2304 15.192 52.2304 16.11C52.2304 24.978 52.2304 33.846 52.2304 42.714V43.362C52.5184 43.362 52.7764 43.356 53.0284 43.362C53.6344 43.38 54.0124 43.734 54.0064 44.262C54.0004 44.79 53.6224 45.12 53.0044 45.138C52.9144 45.138 52.8184 45.138 52.7284 45.138C44.1004 45.138 35.4724 45.138 26.8444 45.138C26.7124 45.138 26.5864 45.144 26.4544 45.138C25.9264 45.102 25.5724 44.748 25.5664 44.262C25.5664 43.77 25.9084 43.404 26.4364 43.368C26.7124 43.35 26.9884 43.368 27.3424 43.368V43.374Z" fill="white"/>
<path id="Vector_2" d="M7.78796 33.5039C9.49196 34.5599 11.31 34.4999 13.122 34.4879C15.468 34.4699 17.82 34.4879 20.154 34.4879C20.286 34.6619 20.226 34.8299 20.226 34.9919C20.226 40.3439 20.226 45.6959 20.226 51.0479C20.226 52.0019 19.956 52.2719 19.008 52.2719C18.048 52.2719 17.082 52.2719 16.122 52.2719C15.162 52.2719 14.892 52.0079 14.892 51.0659C14.892 47.0879 14.892 43.1039 14.892 39.1259C14.892 38.4119 14.508 38.0099 13.914 38.0699C13.416 38.1239 13.122 38.4599 13.116 39.0239C13.11 40.3199 13.116 41.6159 13.116 42.9119C13.116 45.6359 13.116 48.3539 13.116 51.0779C13.116 51.9959 12.84 52.2719 11.928 52.2779C10.872 52.2779 9.81596 52.2839 8.75996 52.2779C8.12996 52.2719 7.78196 51.9419 7.78196 51.3239C7.77596 45.4379 7.78196 39.5459 7.78196 33.5219L7.78796 33.5039Z" fill="white"/>
<path id="Vector_3" d="M22.0073 22.1457C20.6993 22.1457 19.4393 22.1637 18.1853 22.1397C17.6033 22.1277 17.2553 22.3737 17.0333 22.8957C16.6013 23.8917 16.1513 24.8757 15.6893 25.9017C14.8553 25.5897 14.0153 25.5597 13.1213 25.6077C13.1213 24.7497 13.1213 23.9397 13.1213 23.1297C13.1213 22.4217 12.7913 22.0437 12.2153 22.0557C11.6573 22.0677 11.3453 22.4337 11.3453 23.1117C11.3453 24.5157 11.3453 25.9197 11.3453 27.3837C12.2573 27.3837 13.1393 27.3537 14.0213 27.3837C16.1033 27.4617 17.2733 29.4597 16.3313 31.3077C15.9353 32.0877 15.2933 32.6217 14.4293 32.6637C13.0853 32.7357 11.7233 32.8197 10.3853 32.5977C7.97931 32.2017 6.06531 29.9997 6.02331 27.5577C5.98731 25.4097 5.99931 23.2617 6.01731 21.1137C6.02931 19.6377 7.19331 18.4857 8.68131 18.4797C12.2333 18.4677 15.7913 18.4677 19.3433 18.4797C20.8373 18.4797 21.9713 19.6257 22.0133 21.1077C22.0193 21.4017 22.0133 21.6957 22.0133 22.1337L22.0073 22.1457Z" fill="white"/>
<path id="Vector_4" d="M13.9865 16.7044C11.5445 16.6924 9.55847 14.6884 9.56447 12.2404C9.57647 9.79837 11.5805 7.81237 14.0285 7.81837C16.4765 7.83037 18.4565 9.83437 18.4505 12.2824C18.4385 14.7244 16.4345 16.7104 13.9865 16.7044Z" fill="white"/>
<path id="Vector_5" d="M17.6092 32.7063C18.7912 30.7143 18.7672 28.8603 17.3212 27.0963C17.2072 26.9583 17.2072 26.8443 17.2732 26.6943C17.6572 25.8543 18.0472 25.0203 18.4072 24.1683C18.5032 23.9463 18.6352 23.9223 18.8332 23.9223C20.7412 23.8923 22.6432 23.8443 24.5512 23.8263C25.3732 23.8143 25.7872 24.4443 25.4272 25.1763C24.2752 27.5103 23.1052 29.8323 21.9352 32.1603C21.7552 32.5203 21.4612 32.7123 21.0472 32.7123C19.9192 32.7123 18.7912 32.7123 17.6032 32.7123L17.6092 32.7063Z" fill="white"/>
</g>
</svg>
