<svg width="53" height="53" viewBox="0 0 53 53" fill="none" xmlns="http://www.w3.org/2000/svg">
<g id="Reporting 1">
<path id="Vector" d="M19.6206 30.3528C19.4722 30.48 19.3397 30.6549 19.1701 30.7291C18.5553 30.9888 17.9299 31.222 17.3045 31.4499C17.0713 31.5347 16.9812 31.6513 16.9865 31.911C16.9971 33.5805 16.9971 35.25 16.9865 36.9248C16.9865 37.1633 17.0713 37.2693 17.2886 37.3488C17.9299 37.582 18.5712 37.8205 19.1966 38.0855C19.3503 38.1544 19.4987 38.3187 19.5729 38.4777C19.8432 39.0713 20.0976 39.6702 20.3202 40.2797C20.3838 40.4546 20.3838 40.6931 20.3202 40.8627C20.0764 41.4828 19.7743 42.0817 19.5305 42.7018C19.4775 42.8396 19.5252 43.0887 19.6259 43.1947C19.9916 43.5922 20.3997 43.9526 20.7866 44.3236C20.7654 44.3607 20.7442 44.4031 20.723 44.4402C20.5799 44.4402 20.4368 44.4402 20.2937 44.4402C15.9636 44.4402 11.6388 44.4402 7.30872 44.4402C6.40242 44.4402 6.15332 44.1858 6.15332 43.2689C6.15332 30.6178 6.15332 17.9614 6.15332 5.31026C6.15332 4.41456 6.40242 4.16016 7.27692 4.16016C14.9301 4.16016 22.5833 4.16016 30.2365 4.16016H30.7347C30.7347 4.41986 30.7347 4.64246 30.7347 4.86506C30.7347 6.14236 30.7347 7.41436 30.7347 8.69166C30.74 9.86826 31.5032 10.6315 32.6692 10.6368C34.0048 10.6421 35.3404 10.6368 36.676 10.6368C36.8403 10.6368 36.9993 10.6368 37.1848 10.6368V22.3975C36.7237 22.2332 36.2732 22.0901 35.8333 21.9099C35.7485 21.8728 35.6902 21.7244 35.6478 21.6184C35.3987 20.9824 35.1708 20.3411 34.9005 19.7157C34.8422 19.5779 34.6302 19.4242 34.4871 19.4242C32.8176 19.403 31.1481 19.4189 29.4733 19.403C29.2189 19.403 29.0599 19.4825 29.0175 19.7263C28.9539 20.0867 28.7313 20.145 28.3974 20.145C25.2068 20.1344 22.0215 20.1397 18.8309 20.1397C18.0942 20.1397 17.7338 20.3782 17.7232 20.8658C17.7179 21.3587 18.073 21.5972 18.8097 21.5972C21.7883 21.5972 24.7616 21.5972 27.7402 21.5972H28.2225C28.2437 21.6396 28.2596 21.6873 28.2808 21.7297C28.1536 21.8198 28.037 21.9311 27.8992 21.9947C27.3003 22.2544 26.7014 22.5088 26.0919 22.7314C25.917 22.795 25.6785 22.8003 25.5036 22.7314C24.8994 22.4929 24.3058 22.2226 23.7175 21.9417C23.4737 21.8251 23.3147 21.841 23.1239 22.0477C22.6893 22.5141 22.2388 22.9699 21.7671 23.3992C21.6293 23.5264 21.4014 23.6218 21.2159 23.6271C20.352 23.6536 19.4828 23.6324 18.6189 23.6377C18.0465 23.6377 17.7073 23.9292 17.7179 24.3744C17.7285 24.8037 18.0624 25.0793 18.603 25.0899C19.0482 25.1005 19.4987 25.0899 19.928 25.0899C19.9492 25.1641 19.9598 25.1906 19.9545 25.1906C19.2708 25.6358 19.4722 26.1658 19.7849 26.7329C19.9969 27.1198 20.1506 27.5332 20.3255 27.936C20.5375 28.4236 20.3414 28.7363 19.8167 28.7416C19.3927 28.7416 18.9687 28.7363 18.5394 28.7416C18.0359 28.7522 17.7179 29.0384 17.7179 29.4624C17.7179 29.8758 18.0465 30.1726 18.5394 30.1991C18.7037 30.2097 18.8733 30.1991 19.0429 30.1991C19.2072 30.1991 19.3715 30.1991 19.5358 30.1991C19.5623 30.2468 19.5888 30.2892 19.6153 30.3369L19.6206 30.3528ZM26.0389 13.0218C28.4663 13.0218 30.8937 13.0218 33.3211 13.0218C34.0684 13.0218 34.397 12.7939 34.3917 12.2851C34.3864 11.7816 34.0578 11.5643 33.2999 11.5643C28.4769 11.5643 23.6539 11.5643 18.8309 11.5643C18.6666 11.5643 18.4917 11.5484 18.3327 11.5855C17.9458 11.6703 17.7126 11.93 17.7338 12.3275C17.755 12.7197 17.9882 12.9688 18.3963 13.0112C18.5288 13.0271 18.6666 13.0165 18.8044 13.0165C21.2159 13.0165 23.6274 13.0165 26.0389 13.0165V13.0218ZM26.0866 16.4986C28.5034 16.4986 30.9149 16.4986 33.3317 16.4986C33.4854 16.4986 33.6391 16.5092 33.7875 16.4827C34.1479 16.4244 34.3546 16.2071 34.3917 15.8467C34.4235 15.4863 34.2645 15.216 33.92 15.11C33.7345 15.0517 33.5331 15.0464 33.337 15.0464C28.4928 15.0464 23.6486 15.0464 18.8044 15.0464C18.6083 15.0464 18.4069 15.0517 18.2214 15.11C17.8769 15.2213 17.7073 15.4969 17.7391 15.8467C17.7762 16.1965 17.9776 16.435 18.3433 16.488C18.4917 16.5092 18.6454 16.5039 18.7991 16.5039C21.2265 16.5039 23.6592 16.5039 26.0866 16.5039V16.4986ZM14.2464 22.6307C14.2464 22.159 14.2464 21.6926 14.2464 21.2209C14.2464 21.205 14.2464 21.1891 14.2464 21.1732C14.2305 20.6273 13.9867 20.3517 13.4408 20.3411C12.455 20.3252 11.4692 20.3252 10.4887 20.3411C9.94282 20.3517 9.68842 20.6326 9.68312 21.1732C9.67782 22.1431 9.67782 23.113 9.68312 24.0829C9.68312 24.6076 9.93752 24.8991 10.441 24.9097C11.4533 24.9309 12.4709 24.9309 13.4832 24.9097C13.992 24.8991 14.2305 24.6076 14.2411 24.0829C14.2464 23.6006 14.2411 23.113 14.2411 22.6307H14.2464ZM14.2464 14.0606C14.2464 13.5624 14.2517 13.0589 14.2464 12.5607C14.2358 12.0466 13.9761 11.7604 13.4673 11.7498C12.4656 11.7339 11.4692 11.7339 10.4675 11.7498C9.96402 11.7551 9.68842 12.0466 9.68842 12.5554C9.67782 13.5412 9.67782 14.527 9.68842 15.5075C9.68842 16.0269 9.95342 16.2972 10.4675 16.3078C11.4692 16.3184 12.4656 16.3184 13.4673 16.3078C13.9867 16.3025 14.2358 16.0322 14.2464 15.5075C14.257 15.0252 14.2464 14.5376 14.2464 14.0553V14.0606ZM14.2464 31.2485C14.2464 30.7503 14.2517 30.2468 14.2464 29.7486C14.2358 29.2239 13.9867 28.9536 13.4726 28.9483C12.4709 28.9324 11.4745 28.9377 10.4728 28.9483C9.95342 28.9536 9.69372 29.2239 9.68842 29.7433C9.67782 30.7291 9.67782 31.7149 9.68842 32.6954C9.68842 33.2042 9.96402 33.501 10.4675 33.5063C11.4692 33.5222 12.4656 33.5222 13.4673 33.5063C13.9761 33.501 14.2411 33.2148 14.2517 32.7007C14.2623 32.2184 14.2517 31.7308 14.2517 31.2485H14.2464Z" fill="url(#paint0_linear_864_4574)"/>
<path id="Vector_2" d="M31.9431 47.9229C31.4555 47.9229 30.9679 47.907 30.4856 47.9282C30.2047 47.9441 30.0881 47.8328 30.0033 47.5837C29.8125 47.0378 29.6111 46.4972 29.3779 45.9725C29.309 45.8241 29.1394 45.681 28.9804 45.6121C28.037 45.204 27.0883 44.8065 26.1343 44.4249C25.9859 44.3666 25.7845 44.3454 25.6414 44.4037C25.0796 44.6263 24.5337 44.9019 23.9719 45.1192C23.8447 45.1669 23.6062 45.1245 23.5108 45.0344C22.7741 44.3295 22.0533 43.614 21.3537 42.8773C21.253 42.7713 21.2106 42.5222 21.2636 42.3844C21.4756 41.8332 21.7459 41.3032 21.9632 40.752C22.0215 40.5983 22.0003 40.3757 21.9367 40.2167C21.5657 39.2733 21.1788 38.3405 20.7707 37.4077C20.6965 37.2381 20.5428 37.0579 20.3838 36.9837C19.8591 36.7452 19.3185 36.5491 18.7779 36.353C18.5553 36.2735 18.4387 36.1728 18.444 35.9025C18.4652 34.9008 18.4599 33.8991 18.444 32.8974C18.444 32.6324 18.55 32.5211 18.7726 32.4416C19.3132 32.2455 19.8591 32.0494 20.3838 31.8162C20.5481 31.742 20.7018 31.5565 20.776 31.3869C21.1788 30.4594 21.5657 29.5213 21.942 28.5832C22.0056 28.4242 22.0268 28.2016 21.9632 28.0479C21.7512 27.4967 21.4756 26.972 21.2636 26.4155C21.2106 26.2777 21.253 26.0286 21.3537 25.9226C22.0427 25.1965 22.7688 24.5022 23.4631 23.7814C23.6433 23.5959 23.7864 23.5641 24.0143 23.6754C24.5337 23.9245 25.0584 24.1683 25.5937 24.375C25.7633 24.4386 26.0018 24.4227 26.1714 24.3538C27.1148 23.9881 28.0476 23.5959 28.9804 23.1984C29.1394 23.1295 29.309 22.9864 29.3779 22.8327C29.6111 22.308 29.8178 21.7674 30.0086 21.2215C30.0987 20.9724 30.2153 20.8611 30.4962 20.8664C31.482 20.8823 32.4731 20.8823 33.4589 20.8664C33.7451 20.8611 33.8564 20.983 33.9412 21.2268C34.1267 21.7568 34.3228 22.2815 34.556 22.7956C34.6302 22.9599 34.8051 23.1242 34.9747 23.1931C35.9022 23.6012 36.8403 23.9881 37.7784 24.3591C37.948 24.428 38.1865 24.4386 38.3561 24.375C38.8914 24.1683 39.4161 23.9245 39.9355 23.6754C40.1369 23.58 40.2747 23.5747 40.4496 23.7549C41.1598 24.4863 41.8912 25.1912 42.5961 25.9279C42.6968 26.0339 42.7339 26.283 42.6809 26.4261C42.4689 26.9773 42.1986 27.5073 41.9813 28.0585C41.923 28.2122 41.9442 28.4348 42.0078 28.5938C42.3788 29.5372 42.7657 30.47 43.1685 31.4028C43.2427 31.5724 43.3964 31.7526 43.5607 31.8268C44.0854 32.06 44.6313 32.2561 45.1719 32.4522C45.3998 32.537 45.5058 32.6483 45.5005 32.9133C45.4846 33.915 45.4846 34.9167 45.5005 35.9184C45.5005 36.1516 45.4369 36.2735 45.209 36.353C44.6366 36.5544 44.0695 36.7664 43.513 37.0102C43.3646 37.0738 43.2321 37.2593 43.1632 37.4183C42.7604 38.3458 42.3735 39.2839 42.0025 40.2273C41.9389 40.3863 41.923 40.6089 41.9813 40.7626C42.1933 41.3138 42.4689 41.8385 42.6809 42.395C42.7339 42.5328 42.6915 42.7872 42.5908 42.8932C41.9018 43.6193 41.1757 44.3136 40.4761 45.0344C40.2959 45.2146 40.1528 45.2411 39.9196 45.1298C39.3896 44.8701 38.849 44.6316 38.2978 44.4143C38.1547 44.3613 37.9533 44.3772 37.8049 44.4408C36.8509 44.8224 35.9022 45.2199 34.9588 45.628C34.7998 45.6969 34.6302 45.8347 34.5666 45.9884C34.3334 46.5131 34.1267 47.0537 33.9359 47.5996C33.8511 47.8487 33.7292 47.9547 33.4536 47.9441C32.9554 47.9176 32.4519 47.9388 31.9484 47.9388L31.9431 47.9229ZM38.3402 34.445C38.3508 30.894 35.5153 28.0373 31.9696 28.0373C28.4451 28.0373 25.6149 30.8463 25.5937 34.392C25.5725 37.9112 28.4398 40.7838 31.9855 40.7944C35.457 40.805 38.3349 37.9324 38.3455 34.4503L38.3402 34.445Z" fill="url(#paint1_linear_864_4574)"/>
<path id="Vector_3" d="M36.994 9.19521C36.358 9.19521 35.669 9.19521 34.9747 9.19521C34.2168 9.19521 33.4589 9.19521 32.701 9.19521C32.4254 9.19521 32.1922 9.12101 32.1922 8.81361C32.1816 7.31901 32.1922 5.82441 32.1922 4.38281C33.7928 5.98341 35.3987 7.58931 36.9993 9.19521H36.994Z" fill="url(#paint2_linear_864_4574)"/>
<path id="Vector_4" d="M31.0525 34.932C32.0436 33.9674 32.9923 33.0504 33.9357 32.1335C34.0682 32.0063 34.1901 31.8685 34.3332 31.7625C34.7042 31.4816 35.2183 31.5134 35.5416 31.8261C35.8755 32.1441 35.9338 32.637 35.6688 33.0292C35.5946 33.1405 35.4992 33.2412 35.4038 33.3366C34.259 34.492 33.1195 35.6474 31.9747 36.8028C31.3546 37.4282 30.9041 37.4229 30.2681 36.7922C29.6745 36.2039 29.0862 35.6156 28.4979 35.022C27.9997 34.5185 27.9573 33.9567 28.376 33.5433C28.7947 33.1352 29.3247 33.1776 29.8229 33.6705C30.2522 34.0998 30.6656 34.5398 31.0525 34.932Z" fill="url(#paint3_linear_864_4574)"/>
</g>
<defs>
<linearGradient id="paint0_linear_864_4574" x1="31.2523" y1="8.45471" x2="3.61686" y2="29.7449" gradientUnits="userSpaceOnUse">
<stop stop-color="#18C8FF"/>
<stop offset="1" stop-color="#C608FF"/>
</linearGradient>
<linearGradient id="paint1_linear_864_4574" x1="40.3281" y1="23.7533" x2="21.1142" y2="42.9517" gradientUnits="userSpaceOnUse">
<stop stop-color="#18C8FF"/>
<stop offset="1" stop-color="#C608FF"/>
</linearGradient>
<linearGradient id="paint2_linear_864_4574" x1="36.0794" y1="4.8959" x2="32.6647" y2="8.31016" gradientUnits="userSpaceOnUse">
<stop stop-color="#18C8FF"/>
<stop offset="1" stop-color="#C608FF"/>
</linearGradient>
<linearGradient id="paint3_linear_864_4574" x1="34.3545" y1="32.1779" x2="30.4944" y2="37.4243" gradientUnits="userSpaceOnUse">
<stop stop-color="#18C8FF"/>
<stop offset="1" stop-color="#C608FF"/>
</linearGradient>
</defs>
</svg>
