<svg width="50" height="50" viewBox="0 0 50 50" fill="none" xmlns="http://www.w3.org/2000/svg">
<g id="research 1">
<path id="Vector" d="M28.965 48.3702H4C3.56179 48.2753 3.13573 48.131 2.73 47.9402C1.895 47.4402 1.73 46.5902 1.73 45.6852C1.73 31.9052 1.73 18.1285 1.73 4.35519C1.7277 4.06845 1.75282 3.78215 1.805 3.50019C1.86111 3.08882 2.04384 2.70512 2.32785 2.40229C2.61186 2.09946 2.98308 1.89253 3.39 1.81019C3.73018 1.73865 4.07749 1.70677 4.425 1.71519H36.315C36.545 1.71519 36.77 1.71519 37 1.71519C37.4667 1.74251 37.9111 1.92365 38.2639 2.23032C38.6167 2.53698 38.858 2.95188 38.95 3.41019C39.0076 3.72343 39.0327 4.04178 39.025 4.36019C39.025 10.3602 39.025 16.3602 39.025 22.3602V22.8602H38.745C37.0938 22.5845 35.4043 22.6406 33.775 23.0252C30.8369 23.637 28.1819 25.1991 26.22 27.4702C23.7911 30.2168 22.5491 33.8136 22.7655 37.4736C22.982 41.1337 24.6393 44.559 27.375 47.0002C27.885 47.5002 28.435 47.9202 28.965 48.3702ZM20.385 11.0252H20.655C24.39 11.0252 28.13 10.9952 31.865 11.0252C32.2859 11.04 32.7032 10.9435 33.0749 10.7456C33.4466 10.5476 33.7596 10.2551 33.9822 9.89764C34.2048 9.54015 34.3292 9.13027 34.3429 8.70936C34.3565 8.28844 34.259 7.87136 34.06 7.50019C33.56 6.60019 32.72 6.38519 31.775 6.38519H9C8.75724 6.3836 8.51475 6.402 8.275 6.44019C7.71297 6.52227 7.20481 6.8195 6.85778 7.26915C6.51074 7.7188 6.35198 8.2857 6.415 8.85019C6.46617 9.47679 6.76067 10.0584 7.23542 10.4706C7.71017 10.8827 8.32743 11.0926 8.955 11.0552C12.76 11.0002 16.57 11.0252 20.385 11.0252ZM14.57 15.7252C12.57 15.7252 10.535 15.6702 8.52 15.7252C8.15724 15.7355 7.80256 15.8348 7.48717 16.0143C7.17178 16.1939 6.90533 16.4481 6.71126 16.7548C6.51719 17.0615 6.40144 17.4111 6.37419 17.773C6.34695 18.1349 6.40904 18.4979 6.555 18.8302C6.74096 19.3069 7.07619 19.7105 7.51059 19.9809C7.94498 20.2513 8.45521 20.3738 8.965 20.3302C12.695 20.3302 16.4283 20.3302 20.165 20.3302C20.3323 20.327 20.4993 20.3136 20.665 20.2902C21.2267 20.2261 21.745 19.957 22.1205 19.5344C22.4961 19.1119 22.7024 18.5655 22.7 18.0002C22.7 16.7102 21.905 15.7902 20.625 15.7552C18.61 15.6852 16.59 15.7252 14.57 15.7252Z" fill="white"/>
<path id="Vector_2" d="M45.64 48.3698C44.887 48.0525 44.219 47.5627 43.69 46.9398C42.93 46.1548 42.15 45.3898 41.39 44.6298C36.625 47.5448 31.3 45.3948 28.955 41.8548C27.7266 39.9984 27.204 37.7632 27.482 35.5546C27.76 33.346 28.8202 31.3101 30.4703 29.8159C32.1204 28.3218 34.2513 27.4684 36.4766 27.4104C38.7019 27.3524 40.8743 28.0937 42.6 29.4998C44.3271 30.885 45.488 32.854 45.8637 35.0359C46.2395 37.2177 45.8042 39.4617 44.64 41.3448C44.73 41.4398 44.82 41.5548 44.925 41.6548C45.675 42.4098 46.425 43.1548 47.18 43.9048C47.7575 44.3802 48.1733 45.0231 48.37 45.7448V46.2898C48.263 46.7898 48.0194 47.2503 47.6663 47.6201C47.3132 47.99 46.8645 48.2547 46.37 48.3848L45.64 48.3698ZM36.68 32.0248C35.4441 32.0328 34.262 32.5313 33.3937 33.4109C32.5254 34.2904 32.0421 35.4789 32.05 36.7148C32.058 37.9507 32.5566 39.1328 33.4361 40.0011C34.3157 40.8694 35.5041 41.3528 36.74 41.3448C37.352 41.3409 37.9572 41.2164 38.521 40.9786C39.0849 40.7408 39.5964 40.3942 40.0264 39.9587C40.4563 39.5232 40.7962 39.0073 41.0268 38.4404C41.2573 37.8735 41.374 37.2668 41.37 36.6548C41.3661 36.0428 41.2417 35.4376 41.0038 34.8738C40.766 34.3099 40.4194 33.7984 39.9839 33.3685C39.5484 32.9385 39.0325 32.5986 38.4656 32.368C37.8987 32.1375 37.292 32.0209 36.68 32.0248Z" fill="white"/>
</g>
</svg>
