<svg width="60" height="60" viewBox="0 0 60 60" fill="none" xmlns="http://www.w3.org/2000/svg">
<g id="Revise and Improve 1">
<path id="Vector" d="M19.9982 25.4163H31.2362C30.6362 25.9683 30.1622 26.4303 29.7002 26.9283C29.4703 27.1672 29.2961 27.4541 29.1902 27.7683C28.6982 29.4123 28.2422 31.0563 27.7802 32.7063C27.5462 33.5223 28.0262 33.9963 28.8362 33.7683C30.4982 33.3063 32.1662 32.8383 33.8162 32.3403C34.1181 32.2425 34.3933 32.0761 34.6202 31.8543C36.6902 29.8023 38.7482 27.7323 40.8002 25.6803C40.949 25.5236 41.1492 25.4256 41.3642 25.4043C44.9642 25.4043 48.5102 25.4043 52.0802 25.4043H52.2602V46.9023H19.9982V46.3743C19.9982 44.2083 19.9622 42.0423 19.9982 39.8823C20.032 39.5439 19.9631 39.2032 19.8004 38.9046C19.6377 38.606 19.3889 38.3634 19.0862 38.2083C18.0482 37.6083 17.0582 36.8763 15.9902 36.1623L17.0582 35.4483C17.8562 34.9143 18.6482 34.3683 19.4582 33.8523C19.6297 33.7503 19.7694 33.6025 19.8616 33.4255C19.9538 33.2485 19.9949 33.0493 19.9802 32.8503C19.9802 30.5583 19.9802 28.2663 19.9802 25.9743L19.9982 25.4163ZM21.5642 36.8943H50.7362V35.4003H21.5642V36.8943ZM21.5642 39.9723H50.7362V38.4903H21.5642V39.9723ZM21.5642 43.0503H50.7362V41.5683H21.5642V43.0503ZM38.4842 33.8163H50.7362V32.3403H38.4842V33.8163ZM50.7362 30.7563V29.2743H40.8002V30.7563H50.7362ZM23.1002 29.2563V30.7443H26.1002V29.2563H23.1002Z" fill="white"/>
<path id="Vector_2" d="M39.9902 48.4677V52.2777H7.72217V7.72168H40.0022V8.16568C40.0022 10.8417 40.0022 13.5177 40.0022 16.1937C39.9829 16.4534 39.8797 16.6998 39.7082 16.8957C39.3662 17.3097 38.9702 17.6877 38.5982 18.0957L38.4782 18.0477V10.3257C38.4782 9.46768 38.2502 9.23368 37.4042 9.23368H10.2782C9.46817 9.23368 9.23417 9.47368 9.22817 10.3017C9.22817 13.6977 9.22817 17.0977 9.22817 20.5017C9.22817 21.3117 9.46817 21.5457 10.2902 21.5457H35.0822C34.2782 22.3497 33.5762 23.0637 32.8442 23.7477C32.7362 23.8557 32.4902 23.8497 32.3102 23.8497H19.5662C18.6842 23.8497 18.4622 24.0717 18.4622 24.9537C18.4622 27.3537 18.4622 29.7537 18.4622 32.1537C18.4903 32.3224 18.4635 32.4956 18.3858 32.648C18.308 32.8003 18.1833 32.9236 18.0302 32.9997C17.6702 33.1977 17.3402 33.4437 16.9442 33.7077C16.9442 33.5337 16.9442 33.4317 16.9442 33.3237C16.9442 32.5977 16.6802 32.3457 15.9542 32.3457H10.2002C9.48017 32.3457 9.22217 32.6037 9.22217 33.3297C9.22217 35.2377 9.22217 37.1457 9.22217 39.0537C9.22217 39.7737 9.48017 40.0317 10.2062 40.0377H15.5462C16.7462 40.0377 16.8662 39.9417 16.9322 38.6757C17.4362 39.0117 17.9162 39.2757 18.3662 39.6477C18.4562 39.7137 18.4442 39.9417 18.4442 40.0917C18.4442 42.5477 18.4442 44.9997 18.4442 47.4477C18.4442 48.2577 18.6842 48.4977 19.5122 48.4977H39.9722L39.9902 48.4677ZM16.9262 26.9277C16.9262 25.9677 16.9262 25.0017 16.9262 24.0417C16.9262 23.3517 16.6562 23.0817 15.9662 23.0817H10.2002C9.51017 23.0817 9.24017 23.3517 9.24017 24.0417C9.24017 25.9677 9.24017 27.8877 9.24017 29.8137C9.24017 30.5037 9.51017 30.7737 10.2002 30.7737H15.9602C16.6502 30.7737 16.9202 30.5037 16.9202 29.8137C16.9262 28.8537 16.9262 27.8877 16.9262 26.9277ZM13.1222 41.5437H10.1222C9.52217 41.5437 9.21617 41.8317 9.21617 42.4617C9.21617 44.4177 9.21617 46.3717 9.21617 48.3237C9.21617 48.9237 9.49817 49.2357 10.1282 49.2357H15.9962C16.5962 49.2357 16.9022 48.9477 16.9022 48.3177C16.9022 46.3697 16.9022 44.4157 16.9022 42.4557C16.9022 41.8257 16.6202 41.5497 15.9902 41.5437H13.1222Z" fill="white"/>
<path id="Vector_3" d="M36.9242 10.7998V11.9998C36.9242 14.4518 36.9242 16.9038 36.9242 19.3558C36.9242 19.7818 36.7682 20.0218 36.3242 20.0218H10.9442H10.8062V10.7998H36.9242ZM35.3642 16.1998H12.3302V17.6758H35.3642V16.1998ZM15.4082 14.5858H30.7322V13.1038H15.4082V14.5858ZM32.3342 14.5858H35.3342V13.1038H32.3342V14.5858Z" fill="white"/>
<path id="Vector_4" d="M39.2342 19.6797L41.8622 22.3077L33.8522 30.3177L31.2002 27.6897L39.2342 19.6797Z" fill="white"/>
<path id="Vector_5" d="M10.7998 38.436V33.876H15.3538C15.4438 34.368 15.4798 34.806 14.8978 35.076C14.6555 35.1999 14.4281 35.3508 14.2198 35.526C14.1094 35.5943 14.0183 35.6897 13.9551 35.8031C13.8919 35.9165 13.8587 36.0442 13.8587 36.174C13.8587 36.3038 13.8919 36.4315 13.9551 36.5449C14.0183 36.6583 14.1094 36.7537 14.2198 36.822C14.405 36.9751 14.6062 37.1079 14.8198 37.218C14.939 37.2602 15.0482 37.3265 15.1407 37.4127C15.2332 37.4988 15.3071 37.6031 15.3577 37.7189C15.4083 37.8348 15.4346 37.9598 15.435 38.0862C15.4354 38.2127 15.4098 38.3378 15.3598 38.454L10.7998 38.436Z" fill="white"/>
<path id="Vector_6" d="M45.3902 18.7981L42.7622 16.1581C43.3622 15.5581 43.9142 14.8441 44.5622 14.2621C44.9362 13.9777 45.4013 13.8398 45.8699 13.8744C46.3385 13.909 46.7783 14.1137 47.1065 14.45C47.4347 14.7863 47.6286 15.2309 47.6518 15.7003C47.6749 16.1696 47.5257 16.6312 47.2322 16.9981C46.6802 17.6521 46.0022 18.2161 45.3902 18.7981Z" fill="white"/>
<path id="Vector_7" d="M43.0862 21.1444L40.3862 18.4504L41.5502 17.4004L44.2082 20.0464L43.0862 21.1444Z" fill="white"/>
<path id="Vector_8" d="M32.2319 31.1996L29.5859 31.9556L30.3419 29.3096L32.2319 31.1996Z" fill="white"/>
<path id="Vector_9" d="M10.7998 29.2024V24.6484H15.3598V29.2024H10.7998Z" fill="white"/>
<path id="Vector_10" d="M15.3478 47.6815H10.7998V43.1035H15.3538L15.3478 47.6815Z" fill="white"/>
</g>
</svg>
