<svg width="80" height="80" viewBox="0 0 80 80" fill="none" xmlns="http://www.w3.org/2000/svg">
<g id="Save Time and Money 1">
<path id="Vector" d="M75.768 62.0877C75.24 63.3917 74.104 63.9037 72.904 64.3997C65.56 67.4317 58.224 70.4797 50.896 73.5357C48.36 74.5917 45.792 74.7117 43.152 73.9997C36.016 72.0717 28.88 70.1517 21.744 68.2317C21.608 68.1917 21.48 68.1357 21.32 68.0797C21.312 67.9037 21.288 67.7197 21.288 67.5357C21.288 63.5117 21.288 59.4957 21.272 55.4717C21.272 55.0077 21.4 54.7917 21.848 54.6077C24.512 53.4957 27.168 52.3517 29.824 51.2157C31.2 50.6237 32.616 50.3837 34.128 50.5357C37.056 50.8237 39.992 51.0397 42.928 51.2797C43.584 51.3357 44.2 51.4957 44.472 52.1677C44.752 52.8557 44.456 53.4477 44.024 53.9757C43.216 54.9517 42.064 55.0797 40.928 55.2157C39.28 55.4157 37.616 55.4557 35.984 55.7837C34.664 56.0557 33.44 56.5597 32.408 57.4477C31.424 58.2957 31.656 59.6397 32.888 60.0397C37.168 61.4237 41.456 62.7757 45.744 64.1197C46.792 64.4477 47.872 64.3837 48.936 64.1517C56.392 62.5517 63.856 60.9597 71.312 59.3517C72.056 59.1917 72.792 59.1517 73.536 59.3357C74.76 59.6397 75.392 60.5277 75.768 61.6557V62.0797V62.0877Z" fill="white"/>
<path id="Vector_2" d="M33.6479 58.5123C34.7759 57.6083 36.1119 57.3363 37.4879 57.1763C39.1359 56.9843 40.8079 57.0483 42.4239 56.6243C43.3679 56.3763 44.2159 55.9683 44.9279 55.2883C45.8319 54.4163 46.3119 53.3763 46.1759 52.0723H49.7759C49.7759 52.5203 49.7599 52.9363 49.7759 53.3523C49.7919 53.8163 50.0399 54.0963 50.5199 54.1123C51.0239 54.1283 51.3119 53.8483 51.3519 53.3603C51.3839 52.9443 51.3519 52.5283 51.3519 52.0483C52.7519 52.0323 53.9679 51.6323 54.8319 50.5203C55.5039 49.6563 55.7599 48.6563 55.7039 47.5683C55.5919 45.3363 54.1279 44.0003 51.3759 43.6723V38.6483C52.4799 38.6483 53.5679 38.6483 54.6559 38.6483C55.2319 38.6483 55.7039 38.5283 55.7439 37.8483C55.7759 37.3203 55.3999 37.0323 54.6799 37.0243C53.5839 37.0163 52.4959 37.0243 51.3439 37.0243C51.3439 36.5763 51.3439 36.1843 51.3439 35.7923C51.3359 35.2963 51.0799 34.9843 50.5839 34.9683C50.0479 34.9523 49.7759 35.2643 49.7599 35.8003C49.7599 36.1763 49.7599 36.5443 49.7599 37.0003C48.2319 37.0723 46.8959 37.5123 46.0399 38.8563C45.4959 39.7123 45.3119 40.6643 45.4239 41.6723C45.6559 43.8403 47.0639 45.0483 49.7119 45.3203V50.3843C49.0159 50.5043 48.2959 50.3843 47.5919 50.4403C46.8879 50.4963 46.1439 50.2243 45.4639 50.7283C44.5359 49.6643 43.2559 49.6563 41.9919 49.5523C39.4319 49.3523 36.8719 49.1443 34.3119 48.9043C32.3519 48.7203 30.5119 49.1363 28.7359 49.9283C28.5039 50.0323 28.2719 50.1283 27.9999 50.2403C27.7039 49.3603 27.6959 48.4723 27.5519 47.6083C27.4959 47.2403 27.7679 47.1923 27.9839 47.0883C32.5439 44.8723 35.4879 41.2563 37.0159 36.4723C37.8959 33.7283 38.0159 30.9203 37.4239 28.0963C37.3519 27.7523 37.3999 27.5363 37.6319 27.2963C38.4079 26.4883 39.1759 25.6643 39.9279 24.8323C40.1359 24.6003 40.3599 24.5283 40.6639 24.5283C47.3519 24.5283 54.0319 24.5283 60.7199 24.5283C60.9599 24.5283 61.1599 24.5523 61.3439 24.7443C65.5759 29.1603 69.5839 33.7603 72.1759 39.3683C75.1199 45.7123 74.1599 51.6643 70.0319 57.1923C69.5359 57.8563 68.9359 58.2243 68.0959 58.4003C61.9759 59.6723 55.8879 61.1043 49.7519 62.3123C47.8719 62.6803 46.1119 62.6643 44.2719 62.0163C40.9999 60.8643 37.6639 59.8963 34.3519 58.8483C34.1199 58.7763 33.8399 58.7683 33.6319 58.5203L33.6479 58.5123Z" fill="white"/>
<path id="Vector_3" d="M64.8801 9.07197C64.8081 9.83997 64.4561 10.544 64.1281 11.248C63.0081 13.664 61.4081 15.76 59.7041 17.776C59.5121 18.008 59.3041 18.048 59.0401 18.048C53.4561 18.048 47.8641 18.048 42.2801 18.048C42.0401 18.048 41.8401 18.04 41.6641 17.824C39.6081 15.36 37.6961 12.824 36.5761 9.75997C36.1681 8.63997 36.3681 7.84797 37.1841 7.03197C39.7361 4.47997 42.6401 3.55997 46.1121 4.87197C48.3361 5.71197 50.4641 6.78397 52.7201 7.54397C56.4641 8.81597 60.2961 9.31197 64.2401 8.95197C64.4001 8.93597 64.5681 8.93597 64.7281 8.95197C64.7681 8.95197 64.8001 9.00797 64.8881 9.07997L64.8801 9.07197Z" fill="white"/>
<path id="Vector_4" d="M12.6799 61.0638C12.6799 58.0718 12.6799 55.0798 12.6799 52.0878C12.6799 51.0798 12.7919 50.9758 13.8159 50.9758C15.4719 50.9758 17.1359 50.9918 18.7919 50.9758C19.4559 50.9678 19.7039 51.2477 19.6959 51.9037C19.6879 58.0237 19.6879 64.1517 19.6959 70.2717C19.6959 70.9277 19.4319 71.1997 18.7759 71.1917C17.0719 71.1758 15.3599 71.1917 13.6559 71.1917C12.8559 71.1917 12.6719 71.0158 12.6719 70.1998C12.6719 67.1598 12.6719 64.1198 12.6719 61.0878L12.6799 61.0638Z" fill="white"/>
<path id="Vector_5" d="M20.6482 15.9357C30.7202 15.9997 36.2082 24.4477 36.1922 31.5037C36.1762 40.0477 29.0082 47.2237 20.4642 47.2077C11.8962 47.1917 4.83217 40.1597 4.80817 31.6157C4.78417 22.7757 11.6962 15.9277 20.6482 15.9277V15.9357ZM20.4562 45.7037C28.2322 45.7197 34.7282 39.4157 34.6482 31.7197C34.5442 22.5677 27.8082 17.4637 20.5442 17.4397C13.4242 17.4157 6.53617 22.3197 6.35217 31.6397C6.20017 39.3197 12.6962 45.6957 20.4562 45.7117V45.7037Z" fill="white"/>
<path id="Vector_6" d="M4.104 53.4004H11.04V68.7364H4.104V53.4004Z" fill="white"/>
<path id="Vector_7" d="M50.6481 22.9519C47.2801 22.9519 43.9201 22.9519 40.5521 22.9519C39.4641 22.9519 38.8081 22.4239 38.7201 21.5279C38.6161 20.4879 39.2161 19.7679 40.2561 19.6799C40.3521 19.6799 40.4401 19.6719 40.5361 19.6719C47.2881 19.6719 54.0481 19.6719 60.8001 19.6719C61.9681 19.6719 62.6241 20.3039 62.6161 21.3359C62.6001 22.3519 61.9201 22.9519 60.7441 22.9519C57.3761 22.9519 54.0161 22.9519 50.6481 22.9519Z" fill="white"/>
<path id="Vector_8" d="M49.728 38.6558V43.7038C48.768 43.7678 47.976 43.4718 47.432 42.6798C46.808 41.7678 46.792 40.7838 47.328 39.8398C47.84 38.9438 48.68 38.6078 49.728 38.6558Z" fill="white"/>
<path id="Vector_9" d="M51.3838 50.4244V45.3604C52.9998 45.3044 54.1758 46.4084 54.1598 47.9364C54.1438 49.4244 52.9518 50.5044 51.3838 50.4244Z" fill="white"/>
<path id="Vector_10" d="M20.5121 44.0558C14.0241 44.0558 8.05614 39.5758 7.92814 31.3838C7.82414 24.5838 13.6081 18.9758 20.4801 18.9678C27.3841 18.9678 33.2081 24.6158 33.0721 31.4238C32.9041 39.6318 26.9361 44.0478 20.5121 44.0638V44.0558ZM18.5281 31.5998C18.5361 32.5038 19.0721 33.2398 19.9601 33.4318C20.3441 33.5198 20.4961 33.6958 20.6241 34.0238C20.9841 34.9598 21.3681 35.8798 21.7361 36.8158C21.9281 37.3118 22.2881 37.5438 22.7761 37.3598C23.3041 37.1598 23.4081 36.7278 23.2001 36.2078C22.8481 35.3438 22.5201 34.4718 22.1681 33.6078C22.0081 33.2158 21.8721 32.8798 22.2081 32.4638C22.5281 32.0718 22.5921 31.5118 22.4001 31.0558C22.1921 30.5598 22.3521 30.2478 22.6241 29.8718C23.7201 28.3598 24.8001 26.8398 25.8721 25.3038C26.3041 24.6798 26.0481 23.9998 25.3681 23.9358C24.9201 23.8958 24.7041 24.2158 24.4881 24.5278C23.3921 26.0718 22.2961 27.6078 21.2081 29.1598C21.0161 29.4318 20.8321 29.5518 20.4801 29.5598C19.3201 29.5758 18.5201 30.4478 18.5361 31.5918L18.5281 31.5998ZM21.3201 21.0718H21.3041C21.3041 20.9358 21.3041 20.7918 21.3041 20.6558C21.2881 20.1358 21.0481 19.7918 20.5121 19.7838C19.9841 19.7758 19.7121 20.1118 19.7041 20.6318C19.7041 21.0238 19.6961 21.4238 19.7441 21.8158C19.8001 22.2158 20.0801 22.4078 20.4881 22.4158C20.8881 22.4158 21.1681 22.2318 21.2561 21.8398C21.3121 21.5918 21.3041 21.3358 21.3281 21.0798L21.3201 21.0718ZM21.2961 41.9598C21.2961 41.7998 21.3041 41.6318 21.2961 41.4718C21.2561 40.9918 21.0161 40.6638 20.5201 40.6558C19.9841 40.6478 19.7281 40.9838 19.7041 41.5038C19.6881 41.8318 19.6881 42.1598 19.7041 42.4798C19.7361 42.9598 19.9601 43.2798 20.4801 43.2958C20.9921 43.3038 21.2401 42.9998 21.2961 42.5278C21.3201 42.3438 21.2961 42.1518 21.2961 41.9678V41.9598ZM30.9041 32.3278C30.9041 32.3278 30.9041 32.3278 30.9041 32.3358C31.0641 32.3358 31.2321 32.3358 31.3921 32.3358C31.9201 32.3278 32.2481 32.0478 32.2401 31.5278C32.2401 30.9918 31.8961 30.7438 31.3681 30.7598C31.0161 30.7598 30.6721 30.7518 30.3201 30.7758C29.8801 30.7998 29.6401 31.0558 29.6081 31.4878C29.5761 31.9518 29.8241 32.2398 30.2721 32.3198C30.4721 32.3598 30.6881 32.3198 30.8961 32.3198L30.9041 32.3278ZM10.0641 32.3358C10.2001 32.3358 10.3441 32.3358 10.4801 32.3358C11.0001 32.3358 11.3441 32.1038 11.3681 31.5678C11.3841 30.9758 11.0161 30.7518 10.4641 30.7598C10.1601 30.7598 9.85614 30.7598 9.55214 30.7598C9.04814 30.7598 8.74414 31.0238 8.73614 31.5198C8.72814 32.0478 9.04014 32.3278 9.56814 32.3358C9.72814 32.3358 9.89614 32.3358 10.0561 32.3358H10.0641Z" fill="white"/>
<path id="Vector_11" d="M20.88 31.5122C20.856 31.7282 20.752 31.8962 20.504 31.9122C20.264 31.9202 20.104 31.7842 20.096 31.5442C20.088 31.3282 20.232 31.2002 20.432 31.1682C20.672 31.1362 20.824 31.2562 20.88 31.5122Z" fill="white"/>
</g>
</svg>
