<?xml version="1.0" encoding="UTF-8"?>
<svg id="Layer_1" xmlns="http://www.w3.org/2000/svg" viewBox="0 0 100 100">
  <defs>
    <style>
      .cls-1 {
        fill: #fff;
      }
    </style>
  </defs>
  <path class="cls-1" d="M12.51,26.37c0-1.55-.11-3,.03-4.43.19-1.98,1.7-3.43,3.73-3.45,5.86-.07,11.73-.02,17.59-.02.08,0,.17.05.36.12,0,.31,0,.64,0,.97,0,2.22-.02,4.44,0,6.67.06,4.57,3.26,7.95,7.82,8.04,5.31.1,10.62.1,15.92,0,4.56-.09,7.76-3.46,7.82-8.04.03-2.22,0-4.44,0-6.67,0-.33,0-.66,0-1.1.45,0,.78,0,1.11,0,5.37,0,10.74,0,16.11,0,2.95,0,4.53,1.57,4.54,4.5,0,1.1,0,2.21,0,3.42h-1.08c-3.49,0-6.97,0-10.46,0-4.83.01-8.21,3.39-8.22,8.21-.01,5.06-.01,10.12,0,15.18,0,4.77,3.36,8.17,8.14,8.21,3.49.04,6.97,0,10.46,0,.34,0,.67,0,1.09,0v5.84H12.51v-5.79c.35-.02.68-.04,1.01-.04,3.43,0,6.85,0,10.28,0,5.07-.01,8.42-3.35,8.42-8.41,0-4.97,0-9.94,0-14.91,0-4.94-3.37-8.3-8.32-8.31-3.76,0-7.53,0-11.4,0Z"/>
  <path class="cls-1" d="M12.45,67.89h74.95c0,1.65.17,3.3-.05,4.89-.21,1.51-1.33,2.47-2.84,2.84-.56.14-1.16.15-1.74.15-21.85,0-43.69,0-65.54,0-3.31,0-4.78-1.49-4.78-4.82,0-.98,0-1.97,0-3.06Z"/>
  <path class="cls-1" d="M16.36,54.01c-2.47,0-4.94,0-7.4,0-2.82,0-4.37-1.54-4.37-4.33,0-5.03,0-10.06,0-15.09,0-2.67,1.6-4.28,4.25-4.28,5.06-.01,10.12-.02,15.18,0,2.63,0,4.26,1.66,4.26,4.3.01,5.03.01,10.06,0,15.09,0,2.71-1.61,4.3-4.33,4.31-2.53,0-5.06,0-7.59,0ZM16.49,38.21c.7,0,1.38.04,2.04,0,1.06-.08,1.83-.95,1.83-1.97,0-1.03-.78-1.86-1.85-1.93-.68-.04-1.36-.03-2.03-.02-2.25.05-3.93,1.53-3.99,3.77-.09,3.32-.08,6.65.02,9.98.02.6.49,1.37.99,1.73,1.27.89,2.86-.12,2.93-1.8.05-1.25,0-2.5,0-3.82.74,0,1.36.02,1.97,0,1.13-.05,1.95-.88,1.97-1.93.02-1.1-.8-1.93-1.99-1.98-.61-.03-1.22,0-1.88,0v-2.01Z"/>
  <path class="cls-1" d="M83.52,54.01c-2.5,0-5,0-7.5,0-2.71-.01-4.3-1.6-4.31-4.33-.01-5,0-10,0-14.99,0-2.76,1.62-4.37,4.38-4.38,5,0,10,0,14.99,0,2.72,0,4.32,1.59,4.32,4.31.01,5.03.01,10.06,0,15.09,0,2.74-1.57,4.29-4.31,4.3-2.53.01-5.06,0-7.59,0ZM77.74,42.32s-.07,0-.1,0c0,1.23-.04,2.47.01,3.7.06,1.49,1.32,2.51,2.56,1.94,2.8-1.29,5.56-2.65,8.28-4.1,1.32-.7,1.34-2.59.03-3.29-2.74-1.47-5.53-2.84-8.35-4.15-1.15-.53-2.31.21-2.4,1.46-.1,1.47-.02,2.95-.02,4.43Z"/>
  <path class="cls-1" d="M50,30.31c-2.53,0-5.06.01-7.59,0-2.67-.01-4.26-1.61-4.26-4.27,0-5.06,0-10.12,0-15.18,0-2.58,1.63-4.24,4.21-4.25,5.09-.02,10.18-.02,15.27,0,2.59,0,4.21,1.66,4.22,4.24,0,5.09,0,10.18,0,15.27,0,2.54-1.62,4.16-4.17,4.18-2.56.02-5.12,0-7.68,0ZM49.96,24.38c3.3.01,5.96-2.61,5.96-5.89,0-3.27-2.68-5.96-5.93-5.95-3.23.02-5.89,2.65-5.91,5.87-.03,3.29,2.6,5.95,5.88,5.97Z"/>
  <path class="cls-1" d="M42.37,89.57c.48-3.32.94-6.52,1.42-9.79h12.41c.47,3.2.94,6.45,1.43,9.79,2.01,0,3.97-.02,5.94,0,1.29.01,2.11.71,2.19,1.79.09,1.04-.51,1.88-1.54,2.1-.33.07-.67.08-1.01.08-8.83,0-17.65,0-26.48,0-.19,0-.37,0-.56-.01-1.21-.11-1.98-.91-1.96-2.03.02-1.07.79-1.88,1.97-1.92,1.66-.05,3.33-.02,5-.02.37,0,.73,0,1.18,0Z"/>
  <path class="cls-1" d="M50.04,16.52c1.07.02,1.93.88,1.94,1.94,0,1.08-.93,2-2.01,1.97-1.05-.02-1.93-.91-1.94-1.96,0-1.09.9-1.97,2.01-1.96Z"/>
</svg>