<svg width="80" height="80" viewBox="0 0 80 80" fill="none" xmlns="http://www.w3.org/2000/svg">
<g id="Stay Ahead of Competitors 1">
<path id="Vector" d="M65.7919 25.3204C65.7439 28.3124 64.328 31.9924 61.496 35.1284C60.72 35.9844 60.7199 36.0324 61.3599 37.0164C61.8559 37.7844 61.8159 37.9844 61.0479 38.4964C60.0319 39.1764 59 39.8404 57.984 40.5284C57.472 40.8804 57.1119 40.7844 56.7599 40.2724C55.9839 39.1364 55.968 39.1444 54.696 39.5764C44.872 42.9044 34.4959 36.4804 33.1039 26.2084C31.8719 17.1284 38.4799 8.69643 47.5999 7.73643C57.3999 6.70443 65.8399 14.2884 65.7919 25.3204ZM49.4879 36.9364C56.5999 36.9524 62.368 31.2164 62.384 24.1204C62.4 16.9764 56.6159 11.1764 49.5119 11.1924C42.4239 11.2084 36.6479 16.9844 36.6399 24.0644C36.6399 31.1524 42.3919 36.9204 49.4959 36.9364H49.4879Z" fill="white"/>
<path id="Vector_2" d="M43.8638 45.7275H54.2958V72.3355H43.8638V45.7275Z" fill="white"/>
<path id="Vector_3" d="M36.0161 50.2158V72.3518H25.5601V50.2158H36.0161Z" fill="white"/>
<path id="Vector_4" d="M7.27197 55.8398H17.736V72.3518H7.27197V55.8398Z" fill="white"/>
<path id="Vector_5" d="M74.664 56.2798C74.64 56.8878 74.4 57.2878 73.96 57.5758C72.88 58.2878 71.808 59.0238 70.712 59.7118C69.832 60.2638 69.104 60.0958 68.512 59.2158C66.432 56.1038 64.36 52.9838 62.296 49.8638C61.864 49.2078 61.928 48.9278 62.6 48.4798C63.984 47.5598 65.384 46.6558 66.76 45.7118C67.328 45.3198 67.736 45.3998 68.104 45.9678C70.176 49.1118 72.264 52.2558 74.352 55.3918C74.552 55.6878 74.664 55.9998 74.664 56.2798Z" fill="white"/>
<path id="Vector_6" d="M28.9521 39.6555C27.2961 40.2715 26.9921 40.5115 25.2001 42.5275C23.2561 40.4715 22.7441 37.1915 23.9521 34.5115C25.1921 31.7675 28.0081 29.9995 31.0001 30.0955C31.2481 30.1035 31.4881 30.1355 31.7361 30.1355C32.2001 30.1355 32.4641 30.3355 32.6481 30.7915C33.7601 33.5675 35.4641 35.9435 37.7761 37.8475C38.2001 38.1995 38.2721 38.5355 38.1601 39.0395C37.8641 40.3515 37.3121 41.5275 36.3681 42.5755C35.4641 41.1515 34.2561 40.1595 32.5921 39.6395C33.6721 38.8075 34.3281 37.7835 34.2401 36.4315C34.1841 35.5195 33.8161 34.7275 33.1281 34.1035C31.6961 32.8075 29.5361 32.9115 28.2401 34.3195C26.8241 35.8635 27.0801 37.8635 28.9521 39.6395V39.6555Z" fill="white"/>
<path id="Vector_7" d="M13.5998 45.6885C15.1358 43.8005 15.2158 42.1285 13.8478 40.8565C12.6238 39.7205 10.7998 39.7205 9.59177 40.8565C8.23977 42.1365 8.31977 43.7925 9.84777 45.6805C8.61577 46.1365 7.64777 46.9205 6.91177 48.0005C4.75177 46.0005 4.81577 41.9605 7.02377 39.5765C9.42377 36.9845 13.4158 36.8005 16.0158 39.1685C18.5598 41.4885 18.8398 45.5205 16.5598 48.0325C15.8238 46.9365 14.8398 46.1365 13.5998 45.6805V45.6885Z" fill="white"/>
<path id="Vector_8" d="M35.008 43.744C32.664 45.52 28.928 45.52 26.584 43.744C27.136 42.216 28.896 41.08 30.752 41.056C32.616 41.032 34.4 42.16 35.008 43.736V43.744Z" fill="white"/>
<path id="Vector_9" d="M65.3198 44.6716C64.2958 45.3516 63.2798 46.0236 62.1998 46.7356C61.1038 45.1036 60.0398 43.5116 58.9438 41.8716C59.9918 41.1756 60.9998 40.5116 62.0558 39.8076C63.1438 41.4316 64.2158 43.0316 65.3118 44.6716H65.3198Z" fill="white"/>
<path id="Vector_10" d="M15.2878 49.1835C13.2478 50.6875 10.0958 50.6875 8.17578 49.1755C8.97578 47.7835 10.1598 47.0555 11.7678 47.0635C13.3518 47.0795 14.4958 47.8315 15.2878 49.1835Z" fill="white"/>
<path id="Vector_11" d="M30.7999 38.4235C29.8159 38.4235 29.0159 37.6555 28.9919 36.6795C28.9759 35.6955 29.8159 34.8475 30.8079 34.8555C31.7679 34.8555 32.5759 35.6875 32.5759 36.6555C32.5759 37.6235 31.7759 38.4235 30.7999 38.4235Z" fill="white"/>
<path id="Vector_12" d="M11.704 44.5601C10.92 44.5441 10.264 43.8721 10.272 43.0961C10.28 42.3201 10.96 41.6561 11.736 41.6641C12.504 41.6641 13.176 42.3681 13.168 43.1281C13.16 43.9041 12.464 44.5761 11.704 44.5601Z" fill="white"/>
<path id="Vector_13" d="M57.4479 31.8722C56.0479 29.3202 53.9119 27.7602 51.0319 27.1682C53.6559 25.6242 54.6239 23.6882 53.9519 21.4082C53.3759 19.4402 51.4479 18.0402 49.4159 18.1042C47.3199 18.1682 45.4399 19.6962 45.0239 21.6882C44.5359 24.0082 45.5759 25.9122 48.0639 27.1522C45.1519 27.7522 42.9919 29.3122 41.5919 31.8882C38.8479 29.4482 37.3919 24.6562 38.9839 20.2402C40.6159 15.7282 44.9359 12.7842 49.7759 12.8802C54.5919 12.9762 58.7359 16.1202 60.2159 20.7202C61.6479 25.1762 59.8399 29.8722 57.4479 31.8642V31.8722Z" fill="white"/>
<path id="Vector_14" d="M56.144 33.0485C52.648 35.9845 46.28 35.9845 42.936 33.0725C43.728 30.7205 46.424 28.8485 49.2 28.7205C52.152 28.5845 54.904 30.2885 56.144 33.0485Z" fill="white"/>
<path id="Vector_15" d="M46.584 22.7363C46.584 21.0643 47.896 19.7683 49.576 19.7843C51.184 19.8003 52.512 21.1523 52.488 22.7603C52.464 24.3683 51.096 25.7203 49.52 25.6963C47.88 25.6723 46.592 24.3763 46.592 22.7443L46.584 22.7363Z" fill="white"/>
</g>
</svg>
