<svg width="100" height="100" viewBox="0 0 100 100" fill="none" xmlns="http://www.w3.org/2000/svg">
<g id="Targeted Audience 1">
<path id="Vector" d="M50.4698 56H47.7198C47.0598 56 46.5598 56.23 46.5598 57C46.5598 57.77 47.0698 58 47.7198 58H50.3698C50.6598 59.4 50.8598 60.73 51.2098 62C52.1502 65.3193 54.0453 68.289 56.6598 70.54C56.9263 70.7529 57.1074 71.0546 57.1698 71.39C57.1698 73.13 57.1698 74.88 57.1698 76.69H47.5398C47.5398 76.37 47.5398 76.06 47.5398 75.69V67.08C47.5398 66.42 47.3298 65.91 46.5998 65.92C45.8698 65.93 45.6497 66.44 45.6698 67.1C45.6698 67.31 45.6698 67.52 45.6698 67.73V76.6H20.7698C20.7698 76.28 20.7698 75.96 20.7698 75.65V67.65C20.7698 67.44 20.7698 67.23 20.7698 67.02C20.7698 66.4 20.4798 65.95 19.7698 65.95C19.0598 65.95 18.7698 66.41 18.7698 67.02C18.7698 68.74 18.7698 70.45 18.7698 72.16V76.6H9.19975C9.19975 76.25 9.19975 75.9 9.19975 75.6C9.19975 71.93 9.25975 68.26 9.19975 64.6C9.12723 62.5315 9.59098 60.4793 10.5459 58.643C11.5009 56.8066 12.9146 55.2485 14.6498 54.12C17.3701 52.1996 20.5919 51.1152 23.9198 51C24.0938 51.0033 24.2649 51.0455 24.4206 51.1233C24.5763 51.2012 24.7127 51.3128 24.8198 51.45C25.7544 53.1094 27.1706 54.4461 28.8811 55.2835C30.5916 56.1209 32.5159 56.4195 34.3998 56.14C35.8904 56.0113 37.3247 55.5097 38.5706 54.6814C39.8166 53.8531 40.8342 52.7247 41.5298 51.4C41.6311 51.2749 41.7591 51.1741 41.9045 51.1049C42.0498 51.0357 42.2088 50.9999 42.3698 51C45.1417 51.1007 47.8484 51.8691 50.2598 53.24C50.3903 53.3517 50.496 53.4894 50.5701 53.6445C50.6441 53.7995 50.6849 53.9683 50.6898 54.14C50.6573 54.7642 50.5838 55.3855 50.4698 56Z" fill="white"/>
<path id="Vector_2" d="M52.4805 57.88H55.0505C55.7105 57.88 56.3005 57.75 56.3005 56.94C56.3005 56.13 55.7405 55.94 55.0605 55.94H52.5605C51.7105 49.24 59.9505 40.94 67.3805 41.03C67.3805 41.82 67.3805 42.62 67.3805 43.42C67.3805 44.22 67.3805 44.86 68.3205 44.87C69.2605 44.88 69.3205 44.18 69.3205 43.45C69.3205 42.72 69.3205 41.84 69.3205 41.04C73.2111 41.259 76.8839 42.9072 79.6338 45.6682C82.3837 48.4292 84.0171 52.1085 84.2205 56C83.3305 56 82.4405 56 81.5405 56C80.8805 56 80.3705 56.23 80.3505 56.93C80.3305 57.63 80.8405 57.93 81.5005 57.93H84.1705C83.9705 61.8153 82.3378 65.4886 79.5878 68.2404C76.8378 70.9923 73.1656 72.6274 69.2805 72.83V70.1C69.2805 69.44 69.0405 68.96 68.2805 68.96C67.5205 68.96 67.3705 69.45 67.3605 70.06C67.3605 70.95 67.3605 71.84 67.3605 72.73C60.6305 72.79 52.8305 66.64 52.4805 57.88ZM74.9005 57C74.9005 56.1359 74.7303 55.2803 74.3996 54.482C74.0689 53.6836 73.5842 52.9583 72.9732 52.3473C72.3622 51.7362 71.6369 51.2516 70.8385 50.9209C70.0402 50.5902 69.1846 50.42 68.3205 50.42C67.4564 50.42 66.6007 50.5902 65.8024 50.9209C65.0041 51.2516 64.2787 51.7362 63.6677 52.3473C63.0567 52.9583 62.572 53.6836 62.2413 54.482C61.9107 55.2803 61.7405 56.1359 61.7405 57C61.7405 58.7451 62.4337 60.4188 63.6677 61.6528C64.9017 62.8868 66.5753 63.58 68.3205 63.58C70.0656 63.58 71.7392 62.8868 72.9732 61.6528C74.2072 60.4188 74.9005 58.7451 74.9005 57Z" fill="white"/>
<path id="Vector_3" d="M37.3802 26.1299C38.6802 30.2699 40.1202 34.1299 44.8202 35.4099C44.6102 36.1299 44.4302 36.8499 44.2002 37.5499C43.4725 39.8461 42.2889 41.9719 40.7202 43.7999C36.5302 48.5799 30.2802 48.6599 26.0002 43.9999C23.8433 41.5213 22.3622 38.5282 21.7002 35.3099C28.1402 34.4099 32.9002 30.5899 37.3802 26.1299Z" fill="white"/>
<path id="Vector_4" d="M45.4503 33.4998C44.6113 33.3617 43.8129 33.0412 43.1114 32.5609C42.4099 32.0805 41.8224 31.4521 41.3902 30.7198C40.1905 28.7451 39.3793 26.5592 39.0002 24.2798C38.9541 24.047 38.8589 23.8267 38.721 23.6336C38.5831 23.4405 38.4055 23.279 38.2003 23.1598C37.9202 23.0598 37.3203 23.4098 37.0403 23.7198C34.3439 26.8006 31.1495 29.4068 27.5903 31.4298C25.6468 32.5268 23.4856 33.1823 21.2603 33.3498C20.7964 31.9405 20.6367 30.4488 20.7919 28.9733C20.947 27.4977 21.4134 26.0719 22.1603 24.7898C24.1603 21.4098 27.3703 19.6598 31.1603 18.7898C33.5435 18.239 36.0274 18.301 38.3803 18.9698C40.4096 19.4765 42.22 20.6275 43.5398 22.2502C44.8596 23.8729 45.6176 25.8798 45.7003 27.9698C45.7103 29.7998 45.5103 31.5898 45.4503 33.4998Z" fill="white"/>
<path id="Vector_5" d="M26.3599 47C30.8899 50.1 35.3599 50.15 39.9299 47.17C40.5099 50.32 39.5099 52.17 36.5099 53.58C35.4828 54.059 34.3632 54.3073 33.2299 54.3073C32.0966 54.3073 30.977 54.059 29.9499 53.58C26.9999 52.29 25.8899 50.74 26.3599 47Z" fill="white"/>
<path id="Vector_6" d="M69.9395 74.7998C69.9395 75.8898 70.0095 76.9598 69.9395 78.0198C69.8957 78.4204 69.7014 78.7895 69.3959 79.0523C69.0904 79.3151 68.6965 79.4521 68.2938 79.4356C67.8911 79.4191 67.5098 79.2503 67.2268 78.9633C66.9438 78.6764 66.7804 78.2927 66.7695 77.8898C66.7695 76.8898 66.7695 75.8898 66.7695 74.7998H69.9395Z" fill="white"/>
<path id="Vector_7" d="M66.7305 39.1004C66.7305 38.0404 66.7305 37.0304 66.7305 36.0104C66.7506 35.6073 66.9223 35.2267 67.2113 34.9449C67.5002 34.6631 67.8849 34.5009 68.2884 34.4907C68.6918 34.4806 69.0842 34.6233 69.3869 34.8903C69.6895 35.1573 69.8801 35.5288 69.9205 35.9304C70.0005 37.0004 70.0005 38.0004 70.0005 39.1004H66.7305Z" fill="white"/>
<path id="Vector_8" d="M86.1797 55.3196C87.2597 55.3196 88.2997 55.2596 89.3397 55.3196C89.7446 55.3649 90.1169 55.5629 90.3809 55.8733C90.6448 56.1836 90.7804 56.583 90.7599 56.9899C90.7395 57.3968 90.5647 57.7806 90.271 58.063C89.9774 58.3454 89.5871 58.5051 89.1797 58.5096C88.1797 58.5096 87.1797 58.5096 86.1797 58.5096V55.3196Z" fill="white"/>
<path id="Vector_9" d="M63.6698 56.8801C63.6829 55.6528 64.1777 54.4797 65.0474 53.6136C65.9172 52.7476 67.0924 52.2579 68.3198 52.2501C68.9519 52.2209 69.5834 52.3201 70.1761 52.5419C70.7688 52.7636 71.3103 53.1033 71.768 53.5403C72.2257 53.9772 72.59 54.5025 72.8389 55.0843C73.0878 55.6661 73.2161 56.2923 73.2161 56.9251C73.2161 57.5579 73.0878 58.1841 72.8389 58.7659C72.59 59.3477 72.2257 59.873 71.768 60.31C71.3103 60.747 70.7688 61.0866 70.1761 61.3084C69.5834 61.5301 68.9519 61.6294 68.3198 61.6001C67.7025 61.6029 67.0908 61.4822 66.5208 61.2451C65.9508 61.008 65.4339 60.6593 65.0007 60.2195C64.5674 59.7797 64.2265 59.2577 63.9979 58.6843C63.7694 58.1108 63.6578 57.4974 63.6698 56.8801Z" fill="white"/>
</g>
</svg>
