<svg width="65" height="65" viewBox="0 0 65 65" fill="none" xmlns="http://www.w3.org/2000/svg">
<g id="Turn Followers Into Customers&#226;&#128;&#168; 1">
<path id="Vector" d="M19.7407 45.5326L23.4002 34.9766C24.9885 35.3635 26.6346 35.4539 28.2557 35.2431C27.7357 35.7371 27.3132 36.1531 26.8712 36.5431C26.4556 36.8982 26.1262 37.343 25.9077 37.8441C25.6892 38.3452 25.5875 38.8894 25.6102 39.4356C25.6102 41.4766 25.6102 43.5111 25.6102 45.5521C25.6102 46.2021 25.8247 46.4296 26.5007 46.3906C27.3205 46.3754 28.1288 46.1949 28.8771 45.8598C29.6255 45.5247 30.2985 45.042 30.8557 44.4406C31.4927 43.7937 31.8619 42.93 31.8892 42.0226C31.9033 41.4938 32.0462 40.9764 32.3056 40.5154C32.565 40.0543 32.933 39.6636 33.3777 39.3771C33.4882 39.4876 33.5987 39.5851 33.7027 39.6956C35.9062 41.8991 38.1032 44.1026 40.3197 46.2931C40.6642 46.6311 41.1192 46.8456 41.4767 47.1771C41.9483 47.5843 42.3714 48.0445 42.7377 48.5486C42.8938 48.8182 42.941 49.1372 42.8697 49.4404C42.7984 49.7437 42.6141 50.0082 42.3542 50.1801C42.0953 50.374 41.775 50.4678 41.4524 50.4439C41.1297 50.42 40.8267 50.2801 40.5992 50.0501C39.2992 48.7501 38.0772 47.4501 36.8162 46.1956C36.7162 46.0793 36.6075 45.9706 36.4912 45.8706C36.4363 45.8153 36.3709 45.7715 36.299 45.7416C36.227 45.7117 36.1499 45.6963 36.072 45.6963C35.9941 45.6963 35.9169 45.7117 35.845 45.7416C35.773 45.7715 35.7077 45.8153 35.6527 45.8706C35.5898 45.9219 35.5385 45.986 35.5022 46.0588C35.466 46.1315 35.4457 46.211 35.4426 46.2922C35.4395 46.3734 35.4538 46.4543 35.4844 46.5295C35.515 46.6048 35.5613 46.6726 35.6202 46.7286C36.0102 47.1641 36.4327 47.5801 36.8422 48.0286L39.2667 50.5181C39.4152 50.6376 39.5365 50.7874 39.6228 50.9574C39.709 51.1274 39.7581 51.3138 39.7668 51.5042C39.7756 51.6946 39.7438 51.8847 39.6735 52.0619C39.6033 52.2391 39.4962 52.3993 39.3593 52.532C39.2225 52.6647 39.059 52.7668 38.8797 52.8315C38.7004 52.8962 38.5094 52.9221 38.3194 52.9075C38.1293 52.8928 37.9445 52.838 37.7773 52.7465C37.61 52.6551 37.4641 52.5292 37.3492 52.3771C36.0492 51.0771 34.7492 49.7251 33.4492 48.3991C33.3563 48.2929 33.2564 48.193 33.1502 48.1001C33.0938 48.0468 33.0271 48.0056 32.9542 47.9792C32.8812 47.9528 32.8036 47.9417 32.7262 47.9466C32.6487 47.9515 32.5731 47.9722 32.5041 48.0076C32.435 48.0429 32.374 48.0921 32.3247 48.1521C32.2145 48.2529 32.1476 48.3923 32.1379 48.5414C32.1282 48.6904 32.1765 48.8373 32.2727 48.9516C32.3572 49.061 32.4507 49.1632 32.5522 49.2571C33.6897 50.4336 34.8272 51.6036 35.9777 52.7671C36.158 52.9265 36.2931 53.1305 36.3696 53.3587C36.446 53.5869 36.4611 53.8312 36.4132 54.0671C36.3837 54.2912 36.2891 54.5017 36.1413 54.6726C35.9934 54.8436 35.7987 54.9675 35.5812 55.0291C35.3294 55.1212 35.0564 55.1389 34.7948 55.0801C34.5331 55.0214 34.2939 54.8886 34.1057 54.6976C33.0787 53.6576 32.0517 52.6046 31.0247 51.5581L29.6142 50.1216C29.5619 50.0475 29.4947 49.9852 29.4169 49.9387C29.339 49.8922 29.2524 49.8625 29.1624 49.8515C29.0724 49.8405 28.9811 49.8484 28.8944 49.8748C28.8076 49.9011 28.7274 49.9453 28.6587 50.0046C28.59 50.0702 28.5365 50.1501 28.502 50.2386C28.4675 50.3271 28.4529 50.4222 28.4591 50.517C28.4653 50.6118 28.4922 50.7041 28.5379 50.7874C28.5836 50.8707 28.6471 50.9429 28.7237 50.9991L32.2857 54.6001C32.436 54.7279 32.5452 54.8972 32.5996 55.0869C32.6539 55.2766 32.651 55.478 32.5912 55.6661C32.5382 55.8384 32.4363 55.9916 32.2978 56.107C32.1593 56.2224 31.9903 56.295 31.8112 56.3161C31.6296 56.3389 31.4452 56.3137 31.2764 56.2429C31.1076 56.1722 30.9603 56.0585 30.8492 55.9131C29.0032 54.0086 27.1442 52.1106 25.2917 50.2126L23.9917 48.9126C22.7761 47.5536 21.3387 46.4107 19.7407 45.5326Z" fill="white"/>
<path id="Vector_2" d="M45.1813 45.4997C44.6548 45.7272 44.1478 45.9937 43.6083 46.1497C43.2097 46.2892 42.7786 46.3069 42.3699 46.2003C41.9613 46.0938 41.5936 45.868 41.3138 45.5517C40.1308 44.3622 38.9413 43.1792 37.7583 41.9962L34.1443 38.3497C33.5398 37.7452 33.3773 37.6997 32.7403 38.2652C32.2934 38.6418 31.8721 39.0479 31.4793 39.4807C30.9545 40.0609 30.6668 40.8173 30.6733 41.5997C30.6763 42.1975 30.5116 42.7842 30.1979 43.2932C29.8842 43.8022 29.4342 44.213 28.8988 44.4792C28.3094 44.847 27.6411 45.0697 26.9488 45.1292C26.9488 45.0902 26.9033 45.0642 26.9033 45.0447C26.9033 43.0427 26.9033 41.0472 26.9033 39.0517C26.9065 38.8052 26.9614 38.5621 27.0644 38.3382C27.1674 38.1143 27.3162 37.9145 27.5013 37.7517C28.8013 36.5492 30.0298 35.3402 31.3233 34.1702C31.8615 33.6659 32.5195 33.3075 33.235 33.1289C33.9505 32.9503 34.6998 32.9574 35.4118 33.1497C36.6143 33.4357 37.7973 33.8322 38.9998 34.1377C39.6953 34.3197 40.4233 34.3977 41.1318 34.5472C41.2748 34.5797 41.4828 34.6902 41.5218 34.8137C42.7482 38.3193 43.9637 41.825 45.1683 45.3307C45.177 45.3866 45.1814 45.4431 45.1813 45.4997Z" fill="white"/>
<path id="Vector_3" d="M12.5059 46.7159V31.1159C13.3444 31.0184 14.1959 30.8754 15.0474 30.8364C17.5666 30.7188 20.0814 31.149 22.4184 32.0974C22.8799 32.2794 22.9449 32.4224 22.7824 32.8969L18.1609 46.2674C18.0634 46.5534 17.9399 46.7614 17.5824 46.7549H12.6814C12.6213 46.75 12.5623 46.7369 12.5059 46.7159Z" fill="white"/>
<path id="Vector_4" d="M52.4942 31.1996V46.7346C52.3735 46.7519 52.252 46.7627 52.1301 46.7671C50.5961 46.7671 49.0622 46.7671 47.5217 46.7671C47.3588 46.7885 47.1938 46.7475 47.0599 46.6522C46.9261 46.557 46.8332 46.4145 46.8002 46.2536C45.2878 41.8163 43.7712 37.3768 42.2502 32.9351C42.0682 32.4216 42.1331 32.2851 42.6141 32.1031C45.5987 30.8895 48.8625 30.5316 52.0392 31.0696L52.3252 31.1281L52.4942 31.1996Z" fill="white"/>
<path id="Vector_5" d="M29.4253 24.5312C30.0953 25.1221 30.9227 25.5055 31.8066 25.6348C32.6906 25.764 33.5931 25.6336 34.4043 25.2592C34.7243 25.1127 35.0237 24.9248 35.2948 24.7002C35.3323 24.6615 35.3773 24.6307 35.427 24.6097C35.4767 24.5887 35.5301 24.5779 35.584 24.5779C35.638 24.5779 35.6914 24.5887 35.741 24.6097C35.7907 24.6307 35.8357 24.6615 35.8733 24.7002C36.4864 25.0957 36.9955 25.6329 37.3575 26.2664C37.7195 26.8999 37.9238 27.6112 37.9533 28.3402C37.9988 29.2827 37.9533 30.2317 37.9533 31.2067H27.0138C27.0853 29.8547 26.8253 28.5027 27.2413 27.1832C27.5947 26.0478 28.3787 25.0959 29.4253 24.5312Z" fill="white"/>
<path id="Vector_6" d="M47.0794 28.8018H39.2469C39.2685 27.8381 39.0591 26.8832 38.6362 26.017C38.2133 25.1508 37.5891 24.3984 36.8159 23.8228C37.2325 23.1096 37.8375 22.5249 38.5644 22.1328C39.4178 22.8728 40.5094 23.2802 41.6389 23.2802C42.7684 23.2802 43.86 22.8728 44.7134 22.1328C45.3616 22.4782 45.9148 22.9779 46.3241 23.5878C46.7333 24.1977 46.986 24.899 47.0599 25.6298C47.1639 26.6503 47.0794 27.7033 47.0794 28.8018Z" fill="white"/>
<path id="Vector_7" d="M25.7529 28.8014H17.8164C17.8194 27.5565 17.8954 26.3129 18.0439 25.0769C18.1674 24.449 18.4324 23.8574 18.8187 23.3472C19.205 22.837 19.7025 22.4216 20.2734 22.1324C22.3274 23.6599 24.3749 23.6794 26.5199 22.0674L28.2684 23.7444C27.4735 24.3231 26.8299 25.0848 26.392 25.9651C25.9541 26.8454 25.7349 27.8183 25.7529 28.8014Z" fill="white"/>
<path id="Vector_8" d="M26.6501 18.7981C26.6474 19.4512 26.4508 20.0889 26.085 20.63C25.7193 21.1712 25.201 21.5915 24.596 21.8375C23.9909 22.0835 23.3264 22.1442 22.6868 22.0119C22.0472 21.8795 21.4613 21.5601 21.0036 21.0942C20.5459 20.6282 20.237 20.0367 20.1161 19.3949C19.9951 18.753 20.0677 18.0897 20.3245 17.4891C20.5813 16.8886 21.0107 16.3779 21.5583 16.0218C22.1059 15.6658 22.747 15.4806 23.4001 15.4896C23.8318 15.4895 24.2593 15.5755 24.6574 15.7424C25.0556 15.9094 25.4165 16.154 25.7191 16.4621C26.0217 16.7701 26.2598 17.1353 26.4197 17.5364C26.5795 17.9375 26.6578 18.3664 26.6501 18.7981Z" fill="white"/>
<path id="Vector_9" d="M38.3499 18.7717C38.3409 18.118 38.5265 17.4764 38.8831 16.9286C39.2396 16.3807 39.7511 15.9512 40.3524 15.6948C40.9538 15.4384 41.6178 15.3666 42.26 15.4885C42.9022 15.6105 43.4937 15.9207 43.9591 16.3798C44.4246 16.8388 44.743 17.4259 44.8739 18.0663C45.0048 18.7068 44.9422 19.3717 44.6942 19.9766C44.4461 20.5814 44.0238 21.0988 43.4809 21.463C42.9381 21.8271 42.2991 22.0216 41.6454 22.0217C40.7782 22.0251 39.9448 21.6853 39.3274 21.0763C38.7099 20.4674 38.3585 19.6389 38.3499 18.7717Z" fill="white"/>
<path id="Vector_10" d="M35.7889 21.1702C35.7979 21.8258 35.6112 22.4692 35.2525 23.018C34.8939 23.5669 34.3797 23.9963 33.7757 24.2513C33.1717 24.5064 32.5054 24.5755 31.8619 24.4498C31.2184 24.3241 30.6271 24.0093 30.1635 23.5457C29.6999 23.0821 29.3851 22.4907 29.2594 21.8473C29.1337 21.2038 29.2028 20.5374 29.4578 19.9334C29.7129 19.3294 30.1423 18.8153 30.6911 18.4566C31.24 18.098 31.8834 17.9112 32.5389 17.9202C33.4009 17.9202 34.2275 18.2626 34.837 18.8721C35.4465 19.4816 35.7889 20.3083 35.7889 21.1702Z" fill="white"/>
</g>
</svg>
