<svg width="80" height="80" viewBox="0 0 80 80" fill="none" xmlns="http://www.w3.org/2000/svg">
<g id="Understand Your Audience 1">
<path id="Vector" d="M39.9918 76.4961C36.7918 76.4961 33.5838 76.3601 30.3998 76.5361C27.1598 76.7201 24.0958 74.1521 25.0158 69.9201C26.3198 63.9281 31.4638 59.5521 37.6078 59.4801C40.0958 59.4561 42.5998 59.2321 45.0718 59.7841C50.3918 60.9841 54.5038 65.5601 55.1118 71.0001C55.4398 73.9361 53.2478 76.4721 50.2958 76.4961C46.8638 76.5281 43.4318 76.4961 39.9998 76.5041L39.9918 76.4961Z" fill="white"/>
<path id="Vector_2" d="M51.0079 14.208C51.5199 13.912 51.9839 13.624 52.4639 13.376C53.1199 13.032 54.6959 13.664 54.9439 14.352C58.2479 23.688 51.8959 34.112 42.0719 35.472C33.2959 36.688 25.4639 31.04 23.8079 22.312C22.2159 13.936 28.0879 5.31202 36.4879 3.77602C42.4079 2.69602 47.4799 4.36002 51.6239 8.74402C52.5519 9.72802 52.3039 11.304 51.1359 11.976C50.7999 12.168 50.4639 12.36 50.0719 12.576C47.6239 9.19202 44.3439 7.26402 40.1519 7.07202C37.0159 6.92802 34.2079 7.89602 31.7759 9.88802C26.8559 13.92 25.7439 20.944 29.1599 26.264C32.6079 31.632 39.4879 33.552 45.1999 30.752C50.6159 28.096 54.0719 21.304 51.0159 14.208H51.0079Z" fill="white"/>
<path id="Vector_3" d="M16.0321 66.8081C13.8001 66.8081 11.5521 66.6961 9.32815 66.8401C6.80815 67.0001 4.42415 65.1121 5.18415 61.7441C6.17615 57.3521 9.95215 53.9681 14.4721 53.7601C16.7921 53.6561 19.1601 53.4321 21.4321 54.1841C24.6081 55.2241 26.8001 57.3201 28.0001 60.4561C28.1681 60.9041 28.1361 61.1921 27.7601 61.5281C26.2721 62.8561 25.1121 64.4481 24.2961 66.2721C24.1041 66.6961 23.8801 66.8241 23.4241 66.8161C20.9521 66.7921 18.4881 66.8081 16.0161 66.8081H16.0321Z" fill="white"/>
<path id="Vector_4" d="M63.864 66.8083C61.424 66.8083 58.976 66.7923 56.536 66.8243C56.08 66.8243 55.856 66.6883 55.672 66.2723C54.856 64.4483 53.696 62.8643 52.208 61.5283C51.832 61.1923 51.808 60.9043 51.968 60.4563C53.304 56.6963 56.904 53.9283 60.912 53.7603C63.032 53.6723 65.168 53.5283 67.28 54.0243C71.368 54.9763 74.592 58.6723 74.952 62.8403C75.136 64.9523 73.472 66.7763 71.28 66.8083C68.808 66.8403 66.344 66.8083 63.872 66.8163L63.864 66.8083Z" fill="white"/>
<path id="Vector_5" d="M48.3922 13.5518C47.2882 14.1918 46.1922 14.8238 45.0322 15.4958C43.6162 13.7998 41.8082 12.8318 39.5682 12.8638C37.9042 12.8878 36.4242 13.4798 35.1762 14.6078C32.7202 16.8398 32.2642 20.5118 34.1042 23.2638C35.9282 25.9918 39.4482 26.9758 42.4402 25.6558C44.8562 24.5838 47.3602 21.4318 45.9522 17.1438C47.0482 16.5038 48.1602 15.8638 49.2802 15.2158C51.2962 18.9518 50.5042 25.2558 45.3522 28.5278C40.4082 31.6718 33.8562 30.1758 30.7122 25.2158C27.5922 20.2878 29.0402 13.7998 33.9602 10.6238C38.7522 7.5358 45.3522 8.86381 48.4002 13.5518H48.3922Z" fill="white"/>
<path id="Vector_6" d="M39.9999 56.6876C35.5439 56.6876 31.8959 53.0396 31.9359 48.6156C31.9679 44.1836 35.5679 40.5996 39.9839 40.5996C44.4319 40.5996 48.0879 44.2556 48.0559 48.6796C48.0159 53.1196 44.4319 56.6876 40.0079 56.6956L39.9999 56.6876Z" fill="white"/>
<path id="Vector_7" d="M16.8002 38.8478C20.2002 38.8478 22.9602 41.5918 22.9682 44.9758C22.9682 48.3838 20.1522 51.1998 16.7602 51.1598C13.3762 51.1278 10.6322 48.3518 10.6402 44.9678C10.6402 41.5838 13.4002 38.8398 16.8002 38.8398V38.8478Z" fill="white"/>
<path id="Vector_8" d="M63.1841 38.8477C66.5841 38.8477 69.3361 41.5917 69.3441 44.9837C69.3441 48.3677 66.6001 51.1437 63.2161 51.1677C59.8321 51.1997 57.0081 48.3757 57.0161 44.9757C57.0161 41.5917 59.7841 38.8557 63.1841 38.8557V38.8477Z" fill="white"/>
<path id="Vector_9" d="M44.2799 18.0962C44.9359 20.8402 43.7199 23.2242 41.2959 24.0802C38.9679 24.9122 36.3919 23.8482 35.3279 21.6162C34.2639 19.3842 35.0639 16.7282 37.1839 15.4322C39.2239 14.1922 41.9119 14.6322 43.3119 16.4802C41.9919 17.2402 40.6719 17.9922 39.3599 18.7682C38.7279 19.1442 38.5599 19.7122 38.9279 20.1922C39.3119 20.6962 39.7919 20.6962 40.3039 20.3922C41.5999 19.6402 42.9039 18.8882 44.2799 18.0962Z" fill="white"/>
<path id="Vector_10" d="M59.6482 4.52832C59.7442 5.50432 59.4082 6.31232 59.2802 7.15232C59.1522 8.02432 59.4402 8.60832 60.2802 8.92032C61.1202 9.23232 61.9682 9.51232 62.9442 9.85632C61.2242 10.8483 59.6402 11.7523 58.0562 12.6723C57.8562 12.7843 57.6962 12.8083 57.4722 12.7363C56.2722 12.3283 55.0642 11.9443 53.7842 11.5203C54.0562 10.2243 54.3282 8.94432 54.6002 7.65632C54.6322 7.50432 54.6882 7.37632 54.8482 7.28832C56.4322 6.38432 58.0162 5.46432 59.6482 4.52832Z" fill="white"/>
</g>
</svg>
