<svg width="56" height="56" viewBox="0 0 56 56" fill="none" xmlns="http://www.w3.org/2000/svg">
<g id="Unlimited rivision 1">
<path id="Vector" d="M28.0728 46.7822C28.5152 49.3694 29.6688 51.559 31.584 53.4126C30.436 53.7542 29.3104 53.9278 28.1848 54.0118C21.5656 54.5102 15.568 52.7854 10.3488 48.647C5.7008 44.9678 2.9512 40.0734 1.8816 34.2494C0.610395 27.3054 1.8536 20.8318 5.8464 14.991C9.0832 10.2534 13.5968 7.25741 19.0512 5.65021C20.1712 5.31981 21.308 5.08461 22.456 4.87741C24.5672 4.48541 26.4544 5.75661 26.796 7.82861C27.132 9.85581 25.7376 11.6478 23.6432 11.9838C16.576 13.115 11.7096 17.0406 9.3576 23.8334C5.8688 33.9022 12.4096 44.839 22.8648 46.6422C24.5896 46.939 26.32 46.9502 28.0784 46.7822H28.0728Z" fill="white"/>
<path id="Vector_2" d="M43.7024 5.85742C45.8584 8.02462 48.0088 10.1862 50.2488 12.4486C50.1368 12.5326 49.9352 12.6334 49.784 12.7902C43.232 19.3702 36.6856 25.9558 30.1448 32.547C29.7864 32.9054 29.3944 33.1742 28.9352 33.3758C26.1856 34.5686 23.436 35.767 20.692 36.9766C20.2104 37.1894 19.7568 37.3406 19.3256 36.915C18.8944 36.495 19.0232 36.019 19.236 35.5374C20.468 32.7038 21.6888 29.8646 22.9152 27.0254C23.044 26.7342 23.2008 26.4654 23.4304 26.2358C30.1616 19.471 36.8872 12.7006 43.6128 5.93022C43.652 5.89102 43.7024 5.85742 43.7024 5.85742Z" fill="white"/>
<path id="Vector_3" d="M48.8656 44.3582C48.5968 39.2902 44.0664 35.1518 39.172 35.4486C33.5104 35.8014 29.5512 40.1302 29.8816 45.6182C30.1952 50.8094 34.7368 54.8414 39.844 54.595C45.3544 54.3206 49.1456 49.4598 48.8656 44.3638V44.3582ZM44.3576 47.5502C43.7584 47.903 43.0976 48.0206 42.4088 47.987C41.7088 47.9478 41.0704 47.7574 40.4992 47.3598C40.0568 47.0574 39.6984 46.6654 39.368 46.251C39.0488 45.8646 38.724 45.4726 38.4048 45.0806C38.1864 44.823 37.9624 44.543 37.744 44.2798C37.4752 43.955 37.184 43.6526 36.7808 43.4958C36.2488 43.2942 35.7224 43.2998 35.2576 43.6694C34.4792 44.2798 34.4848 45.4726 35.2576 46.0606C35.756 46.447 36.5176 46.4414 37.0216 46.0326C37.2904 45.8086 37.5424 45.5622 37.8 45.3326C37.8112 45.3214 37.8168 45.3158 37.8448 45.3046C38.1584 45.6854 38.4664 46.0606 38.808 46.475C38.4496 46.7886 38.108 47.091 37.7608 47.3822C37.4136 47.6566 37.016 47.8414 36.5848 47.9366C35.9352 48.0766 35.2968 48.0038 34.692 47.7238C33.7736 47.287 33.1576 46.587 32.9504 45.5902C32.7096 44.4366 32.9392 43.3838 33.7848 42.5158C34.272 42.0286 34.86 41.7486 35.5488 41.659C36.5288 41.5302 37.4416 41.7262 38.2648 42.2974C38.724 42.611 39.116 42.9974 39.4688 43.4398C39.8608 43.955 40.2472 44.4814 40.6448 45.0022C40.9472 45.3998 41.2608 45.7862 41.7088 46.027C42.4088 46.4078 43.26 46.3126 43.7808 45.6574C44.1112 45.2318 44.1504 44.7446 43.9544 44.2462C43.8144 43.8878 43.5848 43.5798 43.2208 43.4174C42.7056 43.1766 42.2128 43.2718 41.7592 43.5854C41.4848 43.7814 41.2384 44.0222 40.9808 44.2294C40.964 44.2574 40.936 44.2742 40.8912 44.3134C40.5888 43.927 40.2864 43.5462 39.984 43.171C40.5328 42.5886 41.0648 42.0006 41.8544 41.7598C42.9464 41.4294 44.212 41.7038 45.024 42.611C45.4944 43.1374 45.7744 43.759 45.8528 44.4478C45.9816 45.6742 45.4944 46.8838 44.3576 47.567V47.5502Z" fill="white"/>
<path id="Vector_4" d="M50.4168 31.0911C50.204 33.6447 49.6944 36.0583 48.7424 38.4327C48.02 37.4415 47.2304 36.5847 46.2952 35.8679C45.4272 35.2015 44.4752 34.6751 43.4504 34.3111C42.8792 34.1095 42.6944 33.7679 42.8456 33.1743C43.0136 32.5247 43.1144 31.8527 43.2432 31.1919C42.9408 31.0351 42.6664 31.1247 42.3976 31.1079C42.0056 31.0799 41.7144 30.8895 41.552 30.5423C41.3784 30.1671 41.4232 29.7863 41.7144 29.4895C43.2208 27.9663 44.7272 26.4431 46.256 24.9423C46.6592 24.5447 47.1576 24.5727 47.5832 24.9927C49.0784 26.4711 50.5624 27.9607 52.0352 29.4615C52.3152 29.7471 52.3992 30.0999 52.248 30.5087C52.0968 30.9007 51.7888 31.0519 51.4248 31.0911C51.1112 31.1247 50.7976 31.0967 50.4168 31.0967V31.0911Z" fill="white"/>
<path id="Vector_5" d="M45.248 4.34641C45.7912 3.78641 46.3624 3.11441 47.012 2.54321C48.8488 0.919209 51.5872 1.04801 53.284 2.78961C54.9696 4.52561 55.0536 7.24161 53.4408 9.06161C52.8752 9.69441 52.2144 10.2432 51.6488 10.7864C49.5544 8.68081 47.4096 6.52481 45.2536 4.34641H45.248Z" fill="white"/>
</g>
</svg>
