<?xml version="1.0" encoding="UTF-8"?>
<svg id="Layer_1" xmlns="http://www.w3.org/2000/svg" viewBox="0 0 100 100">
  <defs>
    <style>
      .cls-1 {
        fill: #010101;
      }
    </style>
  </defs>
  <path class="cls-1" d="M49.91,78.82c-19.14-.64-34.59-8.33-45.76-24.12-2.2-3.11-2.2-6.34-.04-9.44,9.08-13.02,21.47-21.05,37.13-23.36,19.83-2.93,36.73,3.15,50.39,17.93,1.65,1.79,3.14,3.73,4.45,5.78,1.86,2.9,1.92,5.9-.03,8.74-8.89,12.94-21.1,20.78-36.54,23.6-3.17.58-6.37.82-9.61.89ZM50.18,68.41c1.13.03,2.49-.15,3.84-.44,8.24-1.76,14.34-9.08,14.56-17.5.06-2.47-1.82-4.17-4.12-3.71-1.57.32-2.58,1.56-2.65,3.47-.26,7.09-6.28,11.63-12.36,11.4-6.1-.23-10.94-4.83-11.43-11.03-.44-5.59,3.86-10.88,9.7-11.92,1-.18,2.04-.15,3.03-.38,1.67-.38,2.69-1.97,2.48-3.67-.21-1.66-1.53-2.88-3.22-2.93-1.1-.03-2.18.07-3.27.23-8.95,1.31-15.97,9.76-15.53,18.7.5,10.07,8.62,17.78,18.96,17.76Z"/>
</svg>