<?xml version="1.0" encoding="UTF-8"?>
<svg xmlns="http://www.w3.org/2000/svg" xmlns:xlink="http://www.w3.org/1999/xlink" viewBox="0 0 1000 1000">
  <defs>
    <style>
      .cls-1 {
        fill: #19c7ff;
      }

      .cls-2 {
        fill: #5ea2d8;
      }

      .cls-3 {
        fill: #242056;
      }

      .cls-4 {
        fill: #fff;
      }

      .cls-5 {
        fill: #b5add4;
      }

      .cls-6 {
        fill: #f1f2f2;
      }

      .cls-7 {
        isolation: isolate;
      }

      .cls-8 {
        fill: #582f84;
      }

      .cls-9 {
        fill: #f48f89;
      }

      .cls-10 {
        fill: #9712db;
      }

      .cls-11 {
        fill: #fefdfd;
      }

      .cls-12 {
        mix-blend-mode: multiply;
      }

      .cls-13 {
        fill: #a398c8;
      }

      .cls-14 {
        fill: #c1d1e1;
      }

      .cls-15 {
        fill: #1876f1;
      }

      .cls-16 {
        fill: #e6e2dd;
      }

      .cls-17 {
        fill: url(#linear-gradient);
      }

      .cls-18 {
        fill: #f59d9d;
      }

      .cls-19 {
        fill: #fdfdfd;
      }
    </style>
    <linearGradient id="linear-gradient" x1="792.8" y1="759.13" x2="826.74" y2="622.41" gradientTransform="translate(274.4 -226.6) rotate(19.18)" gradientUnits="userSpaceOnUse">
      <stop offset="0" stop-color="#fea002"/>
      <stop offset=".5" stop-color="#eb02b5"/>
      <stop offset="1" stop-color="#930af6"/>
    </linearGradient>
  </defs>
  <g class="cls-7">
    <g id="mid-ground">
      <g>
        <path class="cls-10" d="M638.34,212.28c.39,6.05.47,12.14.54,18.18,2.21,198.37.33,396.88.33,595.27,0,25.83-14.1,49.14-36.4,56.51-11.77,3.89-24.23,4.01-36.5,4.1-82.26,0-164.41,4.61-246.49,4.7-89.78.1-124.49,2.5-124.54-65.3-.13-153.51-.54-496.02.61-558.01.86-46.3-5.59-116.35,53.69-116.35,111.77,0,223.55,0,335.32,0,20.28,0,41.04,12.56,48.6,34.21,2.97,8.51,4.25,17.54,4.84,26.69Z"/>
        <path class="cls-5" d="M678.48,212.28c.39,6.05.47,12.14.54,18.18,2.21,198.37.33,396.88.33,595.27,0,25.83-14.1,49.14-36.4,56.51-11.77,3.89-24.23,4.01-36.5,4.1-82.26,0-164.41,4.61-246.49,4.7-89.78.1-124.49,2.5-124.54-65.3-.13-153.51-.54-496.02.61-558.01.86-46.3-5.59-116.35,53.69-116.35,111.77,0,223.55,0,335.32,0,20.28,0,41.04,12.56,48.6,34.21,2.97,8.51,4.25,17.54,4.84,26.69Z"/>
        <path class="cls-4" d="M648.39,231.09c.33,4.99.41,10.02.47,15,1.91,163.68.28,327.49.28,491.18,0,21.31-12.18,40.55-31.44,46.62-10.17,3.21-20.93,3.31-31.53,3.38-71.05,0-142.01,3.8-212.9,3.88-77.54.08-107.52,2.06-107.57-53.88-.11-126.67-.46-409.29.53-460.43.74-38.21-4.83-96,46.38-96.01,96.54,0,193.08,0,289.63,0,17.52,0,35.44,10.36,41.98,28.23,2.57,7.02,3.68,14.48,4.18,22.03Z"/>
        <path class="cls-10" d="M622.98,762.52c9.34-14.4,7.45-32.56,8.07-49.35.84-22.96,4.71-415.12,1.72-466.62-1.27-21.89-5.94-54.83-29.15-65.67,17.07.53,34.23,10.78,40.59,28.18,2.57,7.02,3.68,14.48,4.18,22.03.33,4.99.41,10.02.47,15,1.91,163.68.28,327.49.28,491.18,0,21.31-12.18,40.55-31.44,46.62-10.17,3.21-20.93,3.31-31.53,3.38-2.88,0-5.76.02-8.64.03,16.65-2.89,35.88-10.03,45.45-24.79Z"/>
        <circle class="cls-4" cx="447.5" cy="840.25" r="35.13" transform="translate(-504.29 820.99) rotate(-60.8)"/>
        <g>
          <path class="cls-2" d="M389.75,209.67c0,6.08,4.93,11.01,11.01,11.01s11.01-4.93,11.01-11.01-4.93-11.01-11.01-11.01-11.01,4.93-11.01,11.01Z"/>
          <path class="cls-2" d="M347.8,209.67c0,6.08,4.93,11.01,11.01,11.01s11.01-4.93,11.01-11.01-4.93-11.01-11.01-11.01-11.01,4.93-11.01,11.01Z"/>
          <path class="cls-2" d="M305.85,209.67c0,6.08,4.93,11.01,11.01,11.01s11.01-4.93,11.01-11.01-4.93-11.01-11.01-11.01-11.01,4.93-11.01,11.01Z"/>
        </g>
      </g>
      <g>
        <path class="cls-15" d="M489.71,608.65c3.54.2,7.12.24,10.66.28,116.27,1.14,232.63.17,348.91.17,15.14,0,28.8-7.28,33.12-18.79,2.28-6.07,2.35-12.51,2.4-18.84,0-42.45,2.7-84.85,2.75-127.21.06-46.33,1.47-64.25-38.28-64.28-89.98-.07-290.74-.28-327.07.32-27.14.44-68.2-2.88-68.2,27.71,0,57.69,0,115.37,0,173.06,0,10.47,7.36,21.18,20.05,25.08,4.99,1.53,10.28,2.2,15.65,2.5Z"/>
        <path class="cls-15" d="M880.09,523.9c-1.04,5.7-1.56,25.29-1.57,26.89-.09,7.34-.14,14.68-.19,22.01-.01,2.39,1.77,15.81-.76,16.72,16.9-6.1,34.62-9.9,52.53-11.27,6.21-.48,12.43-.66,18.66-.7,5.74-.04,12.87,1.3,18.46.16,8.2-1.68-1.21-8.27-3.98-10.83-4.2-3.89-8.58-7.58-13.11-11.07-18.16-13.95-38.86-24.59-60.81-31.13-2.85-.85-5.73-1.63-8.62-2.34-.22-.05-.42.52-.61,1.54Z"/>
        <circle class="cls-6" cx="555.22" cy="490.6" r="65.34" transform="translate(-71.9 885.16) rotate(-73.64)"/>
        <g>
          <rect class="cls-6" x="649.97" y="422.24" width="113.44" height="13.06"/>
          <rect class="cls-6" x="649.97" y="452.61" width="198.79" height="13.06"/>
          <rect class="cls-6" x="649.97" y="482.98" width="113.44" height="13.06"/>
          <rect class="cls-6" x="649.97" y="513.35" width="64.51" height="13.06"/>
          <rect class="cls-6" x="779.38" y="482.98" width="69.38" height="13.06"/>
          <rect class="cls-6" x="731.05" y="513.35" width="117.71" height="13.06"/>
          <rect class="cls-6" x="649.97" y="543.73" width="198.79" height="13.06"/>
        </g>
      </g>
      <g>
        <path class="cls-3" d="M795.54,229.61c-.57,2.85-2.39,5.42-4.88,6.92-.12.07-.26.15-.4.11-.29-.07-.29-.47-.21-.76.46-1.81,1.12-3.57,1.97-5.24.08-.15.16-.31.3-.4.1-.07.23-.09.35-.12.62-.13,1.23-.3,1.85-.43l1.03-.08Z"/>
        <g>
          <path class="cls-18" d="M704.49,243.97c.21.41.35.9.73,1.16.35.24.82.23,1.25.21,1.77-.1,3.54-.23,5.31-.38,2.28-.19,4.84-.59,6.15-2.46,1.06-1.52.94-3.55.78-5.39-.66-7.38-4.71-11.79-11.12-15.26-2.23-1.21-10.34-7.21-11.71-2.22-.68,2.48,3.99,5.79,5.57,7.47.13.14.27.29.3.47.06.3-.2.59-.5.71-.3.11-.64.09-.97.07-2.44-.16-4.87-.52-7.27-.97-2.33-.44-4.85-1.4-7.24-1.21-1.72.14-3.17,1.01-3.86,2.54-1.16,2.56-.7,5.76,1.27,7.55,2.22,2.02,6.6,3.22,9.58,3.99,2.67.69,10.47,1.26,11.74,3.74Z"/>
          <path class="cls-9" d="M696.58,232.47c-3.22,0-11.74-2.09-14.04-2.81-.16-.05-.25-.22-.2-.38s.22-.25.38-.2c2.54.79,11.58,2.96,14.23,2.77.17-.01.31.11.32.28.01.17-.11.31-.28.32-.12,0-.26.01-.41.01Z"/>
          <path class="cls-9" d="M696.49,237.27s0,0-.01,0c-2.28-.1-11.97-2.41-14.11-3.67-.14-.08-.19-.27-.11-.41.08-.14.27-.19.41-.11,1.9,1.11,11.41,3.48,13.83,3.59.17,0,.3.15.29.31,0,.16-.14.29-.3.29Z"/>
        </g>
        <path class="cls-18" d="M525.83,362.06c1.44.12,4.07.84,5.45.44,3.36-.98,10.97-9.61,13.79-16.03.24-.54.79-.9,1.34-1.1.57-.21,1.21-.11,1.81-.01,6.64,1.13,13.23,2.49,19.77,4.09-1.1-.27-5.45,12.52-5.84,13.85-1.22,4.11-.26,8.67-1.01,12.99-.26,1.48-.67,3.08-1.86,3.99-.82.62-1.87.9-2.89.99-15.96,1.34-32.16,1.22-45.51.04-2.9-.26-7.52-1.18-8.22-4.01-2.3-9.29,7.32-14.71,13.26-15.36,3.29-.36,6.6-.14,9.91.14Z"/>
        <path class="cls-3" d="M514.37,361.95c.09,0,.17,0,.26-.01,3.68-.12,7.32-.61,11.04-.33,1.11.08,2.56.37,3.63-.02.9-.33,1.89-1,2.54-1.71.21-.22.44-.49.74-.48.15,0,.29.08.43.16,2.26,1.3,4.47,2.69,6.61,4.16.04.03.09.06.11.11.02.06,0,.13-.02.19-.41,1.05-1.33,2.7-.01,3.54.46.29,1.04.18,1.59.21,3.56.2,7.18-1.01,10.44-2.45,3.15-1.39,5.72-3.29,8.96-4.47.75-.27,1.77-.45,2.2.22.2.31.19.69.18,1.06-.17,5.07-.73,10.13-1.67,15.11-.15.8-.32,1.62-.77,2.3-.86,1.31-2.62,1.97-4.13,1.96-1.98-.01-15.04.62-19.59.69-8.45.11-16.91-.13-25.33-.84-.23-.02-.46-.04-.69-.06-2.9-.26-7.52-1.18-8.22-4.01-1.32-5.32.99-10.37,5.59-13.22,1.84-1.14,3.96-1.97,6.12-2.1Z"/>
        <path class="cls-5" d="M791.13,339.17c0,.38,0,.74,0,1.11-.06,5.4-.87,11.07-3.26,15.74-1.4,2.75-3.35,5.16-6,6.96-10.04,6.8-20.46,10.29-32.48,11.82-.99.12-1.96.24-2.95.35-11.28,1.23-21.1.8-30.66-6.85-9.11-7.29-16.79-16.95-25.09-25.16-7.7-8.66-14.86-17.37-23-25.65-1.22-1.24-2.51-2.53-4.17-3.04-2.9-.89-5.89.81-8.44,2.45-24.93,16.03-48.62,33.63-73.39,49.9-6.57,4.31-17.51-4.8-22.72-8.3-9.47-6.35-19.07-9.97-29.74-13.91-.52-.19-1.04-.39-1.46-.75-1.67-1.45-.56-4.19.78-5.94,3.8-4.94,8.98-8.58,13.9-12.33,8.22-6.27,16.87-11.94,25.55-17.54,28.03-18.02,49.72-28.95,78.41-45.82,13.93-8.19,24.58-3.79,37.33,4.31,11.64,7.4,18.92,15.31,29.03,24.63,8.43,7.76,18.76,16.88,27.16,25.89,1.56,1.67,4.35.8,6.44.09.12-.05.23-.09.34-.15.19-.08.37-.17.55-.26.4-.22.79-.44,1.18-.7.15-.08.3-.19.44-.29,1.31-.9,2.59-2,3.85-3.12.3-.27.58-.54.88-.8.03-.04.06-.06.09-.08.31-.28.61-.55.92-.84,0,0,.03-.02.04-.03.49-.42.96-.84,1.43-1.23.31-.26.62-.51.94-.75.15-.12.3-.24.45-.34.16-.12.32-.23.47-.33.15-.09.28-.19.43-.29,0,0,.03,0,.05-.02.14-.09.29-.18.44-.26.15-.08.3-.16.44-.24.31-.15.6-.27.9-.38.15-.06.3-.1.45-.14.14-.04.29-.08.44-.09.33-.07.65-.08.97-.07.07,0,.13,0,.19,0,.02,0,.03,0,.05,0,.36.02.71.06,1.1.08.76.06,1.58.09,2.44.14h.08c.5.03,1.02.05,1.55.07.84.04,1.7.08,2.58.13.87.05,1.77.11,2.65.21.3.03.59.06.88.08.09.02.19.03.27.04.25.03.51.06.76.09,1.18.16,2.33.37,3.44.65.33.08.64.17.95.25.1.04.21.07.3.09.2.07.39.12.56.19.14.05.27.09.4.15,0,0,0,0,.03,0,.29.11.59.24.87.37.39.17.78.36,1.14.57.19.1.37.22.55.35.17.1.33.23.49.35.13.08.26.19.39.3.13.1.26.22.39.34.08.08.16.15.23.23.08.07.13.13.19.2.07.08.13.15.21.24.17.2.33.39.47.61.08.11.16.23.23.36.07.09.11.2.17.3.09.16.18.33.25.5.23.5.44,1.01.65,1.53.18.47.36.93.53,1.41.02.06.04.11.06.17.23.68.46,1.36.68,2.06.16.48.31.97.45,1.47.02.03.02.06.03.09.16.55.32,1.11.47,1.66.05.2.1.4.15.61.1.38.2.74.28,1.12.06.22.11.45.16.68.13.53.24,1.05.35,1.59.02.06.03.12.04.17.12.58.23,1.16.34,1.74,0,.08.03.15.04.23.08.41.14.83.21,1.24.05.31.09.61.13.91.15.94.26,1.89.36,2.83.04.36.07.71.09,1.06.02.09.03.2.03.28.02.28.04.56.06.86.02.16.02.31.03.47.05.78.08,1.56.1,2.37,0,.34,0,.68,0,1.02Z"/>
        <g>
          <path class="cls-10" d="M569.36,372.03h106.63l-20.88-71.78c0-3.57-2.89-6.46-6.46-6.46h-93.71c-3.57,0-6.46,2.89-6.46,6.46l20.88,71.78Z"/>
          <path class="cls-3" d="M573.17,380.08h170.33c1.46,0,2.63-1.18,2.63-2.63v-2.92c0-1.46-1.18-2.63-2.63-2.63h-174.14v4.38c0,2.1,1.7,3.81,3.81,3.81Z"/>
          <path class="cls-4" d="M603.55,332.92c0,3.47,2.7,6.28,6.04,6.28s6.04-2.81,6.04-6.28-2.7-6.28-6.04-6.28-6.04,2.81-6.04,6.28Z"/>
        </g>
        <path class="cls-18" d="M702.94,535.03c1.78,0,3.55.01,5.33-.01,6.59-.1.85-18.94,2.07-19.06,2.04-.2,26.87,1.82,27.07,2.6.26,1.02.38,2.07.49,3.12.7,6.35,1.98,18.3,1.39,24.69-.14,1.5-.42,3.12-1.54,4.13-.77.69-1.79,1.05-2.8,1.22-15.8,2.62-31.96,3.8-45.36,3.69-2.91-.02-7.59-.58-8.52-3.34-3.04-9.08,6.11-15.25,11.99-16.37,3.26-.62,6.57-.67,9.89-.65Z"/>
        <path class="cls-3" d="M691.51,535.85c.09-.01.17-.02.26-.03,3.66-.41,7.25-1.2,10.98-1.22,1.12,0,2.58.17,3.62-.31.87-.4,1.81-1.15,2.4-1.91.19-.24.4-.52.7-.53.15,0,.3.06.44.13,2.36,1.11,4.67,2.32,6.93,3.62.05.03.09.05.11.1.03.06,0,.13,0,.19-.33,1.08-1.11,2.8.27,3.53.48.25,1.05.09,1.6.08,3.56-.09,7.07-1.59,10.21-3.28,3.02-1.63,5.43-3.74,8.57-5.18.73-.33,1.72-.59,2.21.05.22.29.25.68.27,1.04.24,5.07.09,10.15-.45,15.2-.09.81-.19,1.64-.58,2.36-.76,1.38-2.46,2.18-3.96,2.29-1.98.15-14.94,1.83-19.47,2.26-8.41.79-16.87,1.23-25.32,1.19-.23,0-.46,0-.69,0-2.91-.02-7.59-.58-8.52-3.34-1.74-5.2.15-10.42,4.51-13.63,1.74-1.28,3.79-2.28,5.93-2.58Z"/>
        <g class="cls-12">
          <path class="cls-14" d="M791.13,339.17c0,.38,0,.74,0,1.11-.11,5.55-1.09,10.97-3.26,15.74-1.4,2.75-3.35,5.16-6,6.96-10.04,6.8-20.46,10.29-32.48,11.82-.99.12-1.96.24-2.95.35-11.28,1.23-21.1.8-30.66-6.85-6.45-5.17-11.53-11.8-17.31-17.7-.48-.49-.95-.98-1.41-1.48,1.78-1.84,3.83-3.44,5.99-4.76,6.6-4.01,16.27-7.16,23.81-8.89,11.29-2.6,15.84-3.42,25.57-6.03,2.2-.59,3.12-2.9,1.25-3.79-2.99-1.41-6.33-2.87-8.32-3.89-3.03-1.55-6.3-4.37-6.3-4.44.31-.1.6-.2.87-.29,2.35-.82,3.65-1.49,6.33-2.95,3.94-2.14,6.17-3.31,9.53-5.41,5.79-3.62,7.64-1.85,11.71-1.66.84.04,1.7.08,2.58.13.87.05,1.77.12,2.65.21.3.03.59.06.88.08.09.02.19.03.27.04.25.03.51.06.76.09,1.18.16,2.33.37,3.44.65.33.08.64.17.95.25.1.04.21.07.3.09.2.07.39.12.56.19.14.05.27.09.4.15,0,0,0,0,.03,0,.29.11.59.24.87.37.39.17.78.36,1.14.57.19.1.37.22.55.35.17.1.33.23.49.35.13.08.26.19.39.3.13.1.26.22.39.34.08.08.16.15.23.23.08.07.13.13.19.2.07.08.13.15.21.24.17.2.33.39.47.61.08.11.16.23.23.36.07.09.11.2.17.3.09.16.18.33.25.5.23.5.44,1.01.65,1.53.18.47.36.93.53,1.41.02.06.04.11.06.17.23.68.46,1.36.68,2.06.16.48.31.97.45,1.47.02.03.02.06.03.09.16.55.32,1.11.47,1.66.05.2.1.4.15.61.1.38.2.74.28,1.12.06.22.11.45.16.68.13.53.24,1.05.35,1.59.02.06.03.12.04.17.12.58.23,1.16.34,1.74,0,.08.03.15.04.23.08.41.14.83.21,1.24.05.31.09.61.13.91.15.94.26,1.89.36,2.83.04.36.07.71.09,1.06.02.09.03.2.03.28.02.28.04.56.06.86.02.16.02.31.03.47.05.78.08,1.56.1,2.37,0,.34,0,.68,0,1.02Z"/>
        </g>
        <path class="cls-5" d="M694.3,387.58c.4,8.08,1.17,16.16,1.58,24.18.82,15.91,1.82,31.81,2.99,47.71.92,12.53,1.95,25.05,3.08,37.56.57,6.25,1.16,12.51,1.78,18.76.52,5.25-.62,10.21,5.71,10.83,2.93.29,5.85.53,8.79.71.81.06,1.61.1,2.42.14,7.04.38,14.08.47,21.12.26.8-.02,1.6-.05,2.4-.08.64-.02,1.29-.05,1.93-.08,1.49-.07,3.09-.19,4.25-1.18,1.62-1.37,1.82-3.88,1.86-6.09,0-20.61-.76-41.14-2.54-61.71-1.57-18.18-1.9-36.21-2.26-54.48-.11-5.51-.29-12.51,3.25-17.14,3.46-4.52,11.8-4.15,17.21-4.6,13.85-1.16,27.77-.29,41.62-1.44,7.91-.66,15.6-4.05,20.65-10.31,5.79-7.16,5.9-15.74,6.57-24.49.76-9.88-.05-19.85-3.3-29.25-.37-1.07-.78-2.1-1.23-3.11-.92-2.05-2.67-3.45-4.85-4.4-.83-.36-1.72-.67-2.65-.91-5.32-1.42-12.02-1.18-16.12-1.58-.54-.06-1.07-.12-1.59-.19-.85-.11-1.68-.23-2.49-.32-6.41-.7-8.95,2.83-12.58,7.23-4.11,4.98-9.24,9.4-15.25,11.68-14.93,5.68-28.2,8.47-42.66,12.51-8.94,2.49-18.24,5.79-26.72,9.75-7.68,3.59-11.87,10.84-12.7,19.12-.69,6.94-.63,13.92-.29,20.91Z"/>
        <path class="cls-10" d="M754.59,279.64c.8-2.47,1.57-4.94,2.34-7.41.88-2.81,2.07-5.56,3.32-8.23,1.26-2.67,2.66-5.28,4.2-7.8.94-1.53,3.84-7.1,5.51-7.76-9.31,3.67-20.38,10.36-28.05,16.34-8.32,6.49-14.74,12.38-22.27,20.31-2,2.1-3.02,5.59-2.02,8.31,1.21,3.28,4.92,6.69,9.21,6.63,1.93-.03,5.03.21,6.83-.49,5.14-1.98,10.05-5.57,14.38-8.98,1.7-1.34,3.97-2.84,4.89-4.87.81-1.78,1.03-4.17,1.64-6.06Z"/>
        <path class="cls-18" d="M793.54,224.86s.04-.05.06-.08c.29-.34,1.11-.36,1.51-.34.53.02,1.07.21,1.39.63.17.23.27.51.33.8.47,2.11-.94,5.19-3.45,4.66-.19-1.36-.28-2.75-.12-4.13.05-.41.05-1.16.29-1.54Z"/>
        <path class="cls-9" d="M770.93,247.97c.6,1.38,4.1,9.28,5.47,11.29,2.83,4.14,4.33,8.05,7.86,6.69,3.53-1.35,11.57-13.73,13.02-17.23.18-.44.33-1,0-1.35-.13-.14-.28-.3-.46-.3-10.58.1-8.75-7.74-9.03-12.02l-7.62.43c.1.08.18.45.22,1.01.14,1.55.08,4.55-.32,6.76-.18.97-.42,1.78-.74,2.24-1.31,1.89-6.32,1.73-8.41,2.46Z"/>
        <path class="cls-10" d="M749.3,321.59c5.91,2.29,12.08,3.9,18.49,4.34,7.23.49,14.53.43,21.68,1.72,16.63,3,32.1,9.59,48.5,13.06,1.29.27,3.04.28,3.48-.96.13-.36.1-.76.08-1.15-.5-6.91-.71-13.98-2.51-20.71-4.04-15.14-8.24-25.11-12.87-36.99-4.09-10.5-9.26-20.97-17.61-28.77-2.33-2.18-5.61-4.12-8.68-5.25-2.93-1.07-5.98-1.29-6.15-.41-.41,2.14-1.32,3.91-2.62,5.65-2.13,2.86-5.11,4.03-8.62,3.68-2.24-.22-4.71-1.6-5.58-3.77-.79-1.96-1.22-3.8-.57-5.48-5.05.52-9.09,3.03-12.12,6.31-6.53,7.09-10.41,18.14-13.8,27.01-2.05,5.36-4.79,11.81-6.51,17.29-2.11,6.73-3.75,12-4.94,19.03-.06.38-.12.8.1,1.11.17.24.46.36.73.46,3.15,1.21,6.31,2.56,9.52,3.8Z"/>
        <path class="cls-18" d="M767.81,224.32c-.25,8.49,3.41,15.77,12.84,15.77s13.51-6.48,13.76-14.97c.25-8.49-5.5-15.55-12.84-15.77-7.35-.22-13.51,6.48-13.76,14.97Z"/>
        <path class="cls-3" d="M776.43,204.96c.81.27,1.6.66,2.45.63.94-.04,1.77-.6,2.66-.91,1.73-.61,3.33-.3,4.64.93,1.09,1.02,1.93,2.36,3.32,3.02.74.35,1.57.46,2.33.78,2.05.85,3.23,2.98,4.25,4.95,1.54,2.98,1.54,6.96.6,10.14-.01.05-.22.54-.19.58-.87-.92-2.24-.61-2.93.61-.58,1.01-.31,2.33-.89,3.36-1.23-1.4-2.52-4.09-2.74-6.36-2.12.5-5.61.72-6.19.71-2.16,0-4.33-.11-6.48-.4-3.28-.44-6.76-1.15-9.45-3.17-.92-.69-1.84-1.4-2.57-2.28-1.41-1.71-2.05-4.23-1.51-6.4.26-1.05.83-2.02,1.72-2.66.48-.35,1.04-.62,1.62-.76.84-.21,1.72-.1,2.53-.49.47-.23.87-.58,1.29-.91,1.4-1.09,3.2-1.9,4.94-1.53.21.04.41.1.61.17Z"/>
        <g>
          <path class="cls-3" d="M776.89,230.52c-.6,0-1.02-.25-1.17-.69-.07-.22-.06-.44.04-.63.11-.21.31-.36.57-.44.3-.09.64-.06.96.08.08.03.11.12.08.2-.03.07-.12.11-.2.08-.25-.11-.52-.14-.75-.07-.18.05-.32.16-.39.29-.06.12-.07.25-.02.4.16.49.76.5,1.02.48.08,0,.15.06.16.14,0,.08-.06.15-.14.16-.05,0-.1,0-.15,0Z"/>
          <g>
            <path class="cls-3" d="M781.99,228.36c0,.77.4,1.39.9,1.39s.9-.62.9-1.39-.4-1.4-.9-1.4-.9.62-.9,1.4Z"/>
            <path class="cls-4" d="M782.89,227.64c0,.2.13.36.29.36s.29-.16.29-.36-.13-.36-.29-.36-.29.16-.29.36Z"/>
          </g>
          <g>
            <path class="cls-3" d="M771.01,228.36c0,.77.4,1.39.9,1.39s.9-.62.9-1.39-.4-1.4-.9-1.4-.9.62-.9,1.4Z"/>
            <path class="cls-4" d="M771.91,227.64c0,.2.13.36.29.36s.29-.16.29-.36-.13-.36-.29-.36-.29.16-.29.36Z"/>
          </g>
          <path class="cls-3" d="M772.51,225.45c-.98-.18-2.19-.07-3.14.36h-.03c-.12.06-.25.01-.3-.1-.05-.11,0-.23.09-.29,1.06-.66,2.22-.94,3.52-.9.26,0,.47.22.46.48,0,.26-.22.47-.48.46-.02,0-.05,0-.07,0h-.04Z"/>
          <path class="cls-3" d="M782.19,224.48c1.29,0,2.44.32,3.49,1.01.11.07.14.21.07.32-.06.1-.19.13-.29.08h-.02c-.94-.47-2.15-.62-3.13-.47h-.04c-.26.04-.5-.13-.54-.39-.04-.26.14-.5.4-.54.02,0,.05,0,.07,0Z"/>
          <path class="cls-4" d="M774.3,232.88c-.06-.03-.12-.06-.19-.06-.39-.01-.21.62-.12.81.62,1.28,1.41,2.06,2.37,2.19.96.13,2.02-.66,2.55-1.65.12-.22.21-.48.25-.73.01-.11.04-.27-.01-.37-.1-.19-.22-.09-.41-.03-.58.15-1.17.25-1.77.29-.85.05-1.83-.02-2.6-.41-.02-.01-.04-.02-.07-.03Z"/>
        </g>
        <path class="cls-9" d="M793.71,228.66s-.06,0-.09-.02c-.08-.05-.11-.15-.07-.24.49-.86,1.25-1.56,2.14-1.97.09-.04.19,0,.23.09.04.09,0,.19-.09.23-.83.38-1.53,1.03-1.99,1.83-.03.06-.09.09-.15.09Z"/>
        <path class="cls-9" d="M795.75,228.24s-.08-.01-.11-.04c-.32-.25-.71-.42-1.11-.48-.1-.01-.16-.1-.15-.2.02-.1.09-.16.2-.15.46.07.91.26,1.28.55.08.06.09.17.03.25-.03.04-.09.07-.14.07Z"/>
        <path class="cls-3" d="M783.51,259.86c-1.86,0-3.69-.49-5.39-1.47-3.34-1.92-5.18-5.13-5.18-9.04,0-.21.17-.38.38-.38s.38.17.38.38c0,3.62,1.7,6.6,4.8,8.38,2.99,1.72,6.41,1.82,9.64.28,4.04-1.93,7.1-6.05,7.8-10.48.03-.21.23-.35.44-.32.21.03.35.23.32.44-.74,4.68-3.96,9.02-8.22,11.05-1.63.78-3.3,1.17-4.95,1.17Z"/>
        <path class="cls-4" d="M742.12,520.81c-.4,0-.73-.31-.76-.71-.68-9.68-1.51-19.52-2.31-29.03-1.26-14.97-2.57-30.45-3.31-45.72-.19-3.92-.42-7.9-.64-11.74-.4-6.98-.81-14.2-1.02-21.32-.06-2.01-.29-4.34-.54-6.8-.83-8.25-1.86-18.52,3.18-24.6,6.59-7.96,22.22-9.39,31.56-10.24h.08c2.9-.27,6.09-.45,9.48-.63,9.54-.52,20.36-1.12,28.02-3.99,10.36-3.89,13.36-13.06,15.95-23.77.1-.41.51-.66.92-.56.41.1.66.51.56.92-2.6,10.73-5.85,20.7-16.9,24.84-7.88,2.95-18.82,3.55-28.47,4.08-3.37.19-6.56.36-9.43.62h-.08c-9.1.84-24.34,2.24-30.53,9.71-4.64,5.6-3.64,15.51-2.84,23.48.25,2.49.49,4.85.55,6.91.21,7.1.62,14.31,1.01,21.28.22,3.85.45,7.83.64,11.76.74,15.24,2.05,30.71,3.31,45.67.8,9.52,1.63,19.36,2.31,29.05.03.42-.29.78-.71.81-.02,0-.04,0-.05,0Z"/>
        <path class="cls-10" d="M703.47,244.34c-.43.21-.89.45-1.11.87-.25.47-.13,1.05-.01,1.57,2.85,12.21,6.96,24.09,9.83,36.29.69,2.93.9,5.89,2.28,8.61,3.42,6.76,11.92,11.75,19.22,7.86,2.58-1.37,4.59-3.73,5.65-6.44,1.24-3.17,1.2-6.67.95-10.06-.49-6.89-3.47-13.34-6.19-19.58-2.94-6.74-6.04-13.68-8.42-20.68-.67-1.98-1.34-4.09-2.9-5.49-.31-.28-.67-.53-1.09-.6-.45-.07-.91.08-1.34.24-5.77,2.08-11.31,4.73-16.86,7.41Z"/>
        <g>
          <path class="cls-18" d="M788.45,312.17c1.98-.91,3.8-2.36,4.71-4.34.92-2.01.83-4.32.7-6.53-.15-2.43-.31-5.9-2.3-7.57-2.67-2.25-6.83-2.88-10.14-3.54-2.7-.54-5.4-1.08-8.09-1.61-1.8-.36-3.96-.6-5.18.76-.66.73-.97,1.49-.6,2.41.59,1.47,2.47,2.25,3.97,2.72,1.49.47,2.22.98,3.42,1.33-2.31-.05-6.05.76-8.71,1.41-1.26.31-2.56,1.06-2.67,2.36-.11,1.31,1.45,2.44,2.61,2.73-1.25.29-2.4,1.66-2.45,2.94-.05,1.31.97,2.3,2.43,2.7-.73.26-1.47.9-1.64,1.2-.36.6-.45,1.37-.28,2.04.62,2.35,3.31,2.71,5.34,2.97,3.31.41,6.66.22,9.97-.07,3.05-.26,6.11-.59,8.92-1.88Z"/>
          <path class="cls-9" d="M766.91,308.21c-.18,0-.33-.13-.35-.31-.02-.19.12-.36.31-.39l6.78-.74c.19-.02.36.12.38.31.02.19-.12.36-.31.38l-6.78.74s-.03,0-.04,0Z"/>
          <path class="cls-9" d="M769.92,302.56c-1.27,0-2.51-.03-3.35-.1-.19-.02-.34-.18-.32-.38.02-.19.19-.34.38-.32,1.58.12,4.56.13,6.51.02.2-.02.36.13.37.33.01.19-.14.36-.33.37-.93.06-2.1.08-3.25.08Z"/>
        </g>
        <path class="cls-10" d="M799.9,247.23c-.72-.64,6.15.87,8.29,1.81,3.35,1.47,5.32,2.68,8.38,4.69,10.32,6.76,23.51,16.42,30.89,26.53,7.09,9.73,12.55,22.48,6.52,31.23-2.89,4.2-7.74,3.47-12.16,3.57-4.83.12-9.67.02-14.5-.07-6.95-.13-13.9-.27-20.84-.4-3.47-.07-6.95-.13-10.42-.2-2.68-.05-6.83,1.19-7.22-2.25-.43-3.81-.53-7.65-.37-11.48.09-2.14-.43-8.05,1.77-9.38,1.88-1.14,4.73-.23,6.76-.16,3.02.11,6.21-.14,9.23-.32,3.53-.22,7.35.31,10.74-.93,3.35-1.23,2.95-3.61,2.29-6.65-1.35-6.18-4.1-12.16-6.78-17.87-2.76-5.89-10.34-16.15-12.56-18.12Z"/>
        <path class="cls-3" d="M788.39,303.45s0,0,0,0c-.21,0-.38-.18-.37-.39.02-.95.03-1.91.03-2.84,0-1.42,0-2.76.08-3.9.02-.32.03-.63.04-.93.03-1.09.07-2.11.69-3.22.79-1.41,2.64-2.33,4.31-2.15,7.12.78,14.31.61,21.38-.51,1.49-.24,2.96-.61,3.63-1.74,1.54-2.59-.73-8.01-1.95-10.93-.14-.33-.26-.63-.37-.9-1.58-3.89-3.87-7.67-6.8-11.24-.13-.16-.11-.4.05-.54.16-.13.4-.11.54.05,2.98,3.63,5.3,7.47,6.92,11.44.11.27.24.57.37.9,1.36,3.25,3.63,8.69,1.9,11.61-.83,1.4-2.57,1.85-4.16,2.1-7.14,1.13-14.4,1.3-21.58.51-1.37-.15-2.91.61-3.56,1.77-.53.94-.56,1.79-.59,2.87,0,.31-.02.62-.04.95-.08,1.11-.08,2.44-.08,3.85,0,.93,0,1.9-.03,2.85,0,.21-.17.37-.38.37Z"/>
        <path class="cls-3" d="M835.44,315.66s-.02,0-.02,0c-13.39-.82-26.98-1.19-40.4-1.11,0,0,0,0,0,0-.21,0-.38-.17-.38-.38,0-.21.17-.38.38-.38,13.44-.08,27.05.29,40.45,1.11.21.01.37.19.36.4-.01.2-.18.36-.38.36Z"/>
      </g>
      <g>
        <path class="cls-1" d="M834.51,823.61c-25.38,29.31-57.73,52.55-93.6,67.26-2.02.83-4.28,1.63-6.31.85-1.52-.58-2.59-1.95-3.55-3.26-3.21-4.39-6.18-8.95-8.88-13.67,6.81-5.16,14.63-8.81,22.38-12.42,30.26-14.09,60.7-27.82,91.31-41.13l-1.34,2.37Z"/>
        <g>
          <path class="cls-3" d="M693.2,680.26c-1.9-1.58-3.8-3.18-5.27-5.1-2.85-3.72-3.35-7.84-3.67-12.34-.28-3.9-2.74-4.47-6.33-5.19-9.67-1.94-19.54-2.92-29.4-2.91-1.62,0-4.58-4.01-5.46-2.56-1.14,1.85-3.28,5.12-3.94,6.6-1.38,3.05-3.16,6.14-3.95,9.4-1.33,5.47-2.34,11.4-6.22,15.48-7.68,8.08-23.07,5.4-29.38,14.59-3.34,4.86-2.82,11.46-5.51,16.71-2.4,4.67-7.07,7.73-11.81,10.01-4.73,2.28-9.78,4.02-14.04,7.09-4.26,3.07-7.74,7.88-7.47,13.13.26,4.91,3.79,9.18,8.06,11.61,4.27,2.43,9.22,3.34,14.07,4.11,13.76,2.18,27.63,3.54,41.49,4.91,5.45.54,10.94,1.07,16.41.73,15.91-1,30.12-9.11,44.76-14.6,6.78-2.54,15.52-5.91,22.91-5.18,5.71.56,12.18,2.41,16.93-2.27,1.31-1.29,2.19-2.95,2.75-4.68,1.16-3.61.97-7.52.36-11.26-.89-5.43-2.76-10.93-6.71-14.75-3.04-2.93-7.02-4.62-10.71-6.67-3.69-2.05-7.34-4.76-8.81-8.71-1.17-3.16-.8-6.74-1.98-9.9-1.29-3.46-4.16-5.83-7.05-8.24Z"/>
          <path class="cls-3" d="M646.35,692.73l.04.05c0-.07,0-.13,0-.2-.01.05-.03.09-.05.14,0,0,0,0,0,0Z"/>
        </g>
        <path class="cls-18" d="M644.93,669.71s-.05-.07-.08-.11c-.42-.48-1.58-.49-2.15-.47-.75.03-1.52.32-1.97.92-.24.33-.37.73-.46,1.14-.64,3,1.4,7.37,4.97,6.58.25-1.94.36-3.92.13-5.87-.07-.58-.08-1.65-.44-2.19Z"/>
        <path class="cls-9" d="M677.39,702.3c-.84,1.97-5.71,13.26-7.64,16.14-3.97,5.93-6.06,11.5-11.1,9.62-5.03-1.88-16.62-19.39-18.73-24.35-.27-.62-.48-1.42-.03-1.93.18-.2.4-.43.66-.43,15.05.02,12.36-11.11,12.7-17.21l10.84.52c-.14.12-.25.64-.31,1.44-.19,2.2-.06,6.48.54,9.61.26,1.38.61,2.53,1.08,3.18,1.88,2.68,9.01,2.39,11.99,3.4Z"/>
        <path class="cls-10" d="M734.95,794.07c2.7,7.25,4.88,14.65,5.95,22.33.2,1.41.35,2.92-.29,4.19-1.06,2.08-3.75,2.63-6.08,2.78-6.33.41-12.67-.3-19-.6-38.51-1.81-75.92,11.67-114.06,17.29-8.18,1.21-11.26-.43-11.39-8.42-.13-7.88-.49-15.72.76-23.55,3.52-22.01,8.02-36.74,12.85-54.21,4.27-15.46,10.06-31.02,20.75-43.27,2.99-3.42,7.34-6.65,11.52-8.68,3.99-1.94,8.28-2.7,8.65-1.47.89,2.97,2.44,5.35,4.53,7.62,3.43,3.74,7.81,4.96,12.74,3.96,3.14-.64,6.44-2.95,7.35-6.15.83-2.89,1.18-5.56.01-7.84,7.23,0,13.31,2.97,18.06,7.18,10.27,9.09,17.36,24.17,23.45,36.22,3.68,7.29,8.5,16.02,11.73,23.53,4.15,9.64,8.8,19.23,12.48,29.1Z"/>
        <path class="cls-18" d="M681.53,668.62c.47,12.07-4.65,22.47-18.08,22.59-13.72.12-19.3-9.06-19.76-21.13-.47-12.07,7.63-22.19,18.08-22.59,10.45-.4,19.3,9.06,19.76,21.13Z"/>
        <path class="cls-3" d="M667.42,642.34c-3.72-1.6-8.15-.05-11.35,2.46-1.22.96-2.38,2.07-3.85,2.58-.93.32-1.93.38-2.9.58-2.53.52-4.83,2.07-6.27,4.22-1.55,2.32-1.26,4.49-1.75,7.04-.51,2.61-1.1,5-1.09,7.72,0-.14,1.97-2.31,2.09-2.21.57.44.78.81.9,1.47.28,1.64.35,3.28.82,4.9.21.73.45,1.45.7,2.17.14.39.89,1.74.77,2.1.6-1.79.86-3.41,2.86-3.98,6.71-1.91,14.44-4.37,20.38-9.7-.51.46,5.36,4.3,5.94,4.57,2.23,1.03,5.21,2.4,7.64,2.63.75.06,3.01-3.59,3.47-9.03.44-5.22-1.9-8.53-3.47-10.49-1.14-1.41-2.94-2.09-4.7-2.51-1.76-.42-3.59-.66-5.23-1.44-1.72-.83-3.12-2.23-4.86-3.02-.04-.02-.08-.04-.13-.06Z"/>
        <g>
          <path class="cls-3" d="M668.7,677.55c-.07,0-.14,0-.22,0-.12,0-.21-.11-.2-.22,0-.12.1-.19.22-.2.36.02,1.22,0,1.44-.7.07-.21.05-.4-.04-.57-.1-.19-.3-.34-.56-.41-.33-.1-.71-.06-1.07.11-.11.05-.23,0-.28-.1-.05-.11,0-.23.11-.28.45-.21.94-.25,1.36-.13.37.11.66.33.82.62.14.27.17.58.07.9-.2.64-.79.99-1.65,1Z"/>
          <g>
            <ellipse class="cls-3" cx="660.13" cy="674.55" rx="1.28" ry="1.98" transform="translate(-5.83 5.76) rotate(-.5)"/>
            <path class="cls-4" d="M660.12,673.53c0,.28-.18.52-.41.52s-.42-.23-.42-.51.18-.52.41-.52.42.23.42.51Z"/>
          </g>
          <g>
            <path class="cls-3" d="M677.03,674.4c0,1.1-.56,1.99-1.27,2s-1.29-.88-1.3-1.97.56-1.99,1.27-2,1.29.88,1.3,1.97Z"/>
            <path class="cls-4" d="M675.73,673.39c0,.28-.18.52-.41.52s-.42-.23-.42-.51.18-.52.41-.52.42.23.42.51Z"/>
          </g>
          <path class="cls-3" d="M674.71,669.3c.88-.09,1.71,0,2.53.17.81.18,1.62.42,2.35.88.08.05.1.15.05.23-.04.07-.15.09-.22.06-1.4-.68-3.11-.88-4.61-.67h-.02c-.18.03-.35-.1-.38-.28-.03-.18.1-.35.28-.38,0,0,0,0,.01,0Z"/>
          <path class="cls-3" d="M660.97,670.03c-1.51-.14-3.21.14-4.57.89-.08.05-.18.03-.23-.05-.05-.07-.02-.17.05-.22.7-.49,1.5-.77,2.31-.99.81-.2,1.64-.34,2.52-.29.18,0,.33.17.32.35,0,.18-.17.33-.35.32,0,0,0,0-.01,0h-.02Z"/>
          <path class="cls-3" d="M668.31,684.26c-1.93.02-2.44-1.47-2.58-2.36-.02-.12.06-.22.18-.24.11-.02.22.06.24.18.14.92.63,2.01,2.16,2,1.18-.01,1.94-.7,2.25-2.06.03-.11.14-.19.25-.16.11.03.18.14.16.25-.36,1.55-1.27,2.37-2.66,2.38Z"/>
        </g>
        <path class="cls-9" d="M644.73,675.11c-.09,0-.17-.04-.22-.12-.65-1.13-1.66-2.04-2.85-2.57-.13-.06-.18-.2-.12-.33.06-.13.2-.18.33-.12,1.28.58,2.37,1.56,3.07,2.78.07.12.03.27-.09.34-.04.02-.08.03-.12.03Z"/>
        <path class="cls-9" d="M641.84,674.55c-.07,0-.15-.03-.2-.09-.09-.11-.07-.26.04-.35.52-.42,1.15-.7,1.81-.8.13-.02.26.07.29.21.02.14-.07.26-.21.29-.58.09-1.12.34-1.58.7-.05.04-.1.05-.15.05Z"/>
        <path class="cls-3" d="M659.84,717.04c-1.83.19-3.69.03-5.54-.48-6.18-1.72-11.44-7.09-13.73-14.02-.09-.28.06-.59.34-.68.28-.09.59.06.68.34,2.18,6.59,7.15,11.69,12.99,13.31,3.33.92,8.38,1.1,13.53-3.33,2.18-1.87,4.06-4.46,5.59-7.67.13-.27.45-.39.72-.26.27.13.39.45.26.72-1.59,3.36-3.56,6.06-5.86,8.03-2.73,2.35-5.81,3.71-8.99,4.04Z"/>
        <path class="cls-1" d="M803.83,845.41c-27.2,16.11-50.78,30.71-81.4,38.09-30.18,7.28-47.67,17.33-83.26,11.6-23.13-3.73-46.64-5.72-69.84-9.67-8.71-1.48-17.46-2.98-25.89-5.62-18.52-5.81-33.3-18.53-47.84-30.85-17.07-14.47-32.92-47.69-11.99-65.91,21.58-18.79,54.07-3.45,74.79,8.49,27.25,15.71,54.29,33.93,86.77,36.22,42.8,3.02,77.35-29.4,113.53-47.56,22.32-11.2,46.56-23.71,71-18.57,7.44,1.56,14.75,4.93,19.66,10.74,9.32,11.02,7.6,29.39-.81,40.52-4.94,6.54-13.53,11.34-20.17,16.16-7.96,5.78-16.1,11.35-24.57,16.36Z"/>
        <path class="cls-18" d="M722.13,868.53c8.81.57,18.14,2.25,24.59,8.27,4.54,4.23,7.21,10.91,5.28,16.8-2.73,8.34-12.69,11.55-21.36,12.99-19.32,3.21-39.11,3.55-58.52,1.03-2.93-.38-6.1-.96-8.03-3.2-1.62-1.88-1.98-4.51-2.11-6.99-.29-5.59-.62-15.8,2.69-20.65,2.55-3.74,10.97-4.66,15.44-5.83,14.54-3.81,27.01-3.39,42.02-2.42Z"/>
        <path class="cls-5" d="M746.73,876.8c-6.46-6.02-15.79-7.7-24.59-8.27-12.16-.78-22.66-1.21-33.94.69,8.05.07,20.93,1.59,29.48,4.23,11.87,3.66,11.32,21.6,4.54,26.28-4.09,2.83-10.11,5.28-18.81,6.76-8.23,1.4-18.2.62-26.5,1.52,9.31,1.46,17.73,1.94,24.57,1.95,7.39.01,13.62-.93,20.96-1.79,10.39-1.21,25.62-2.49,29.58-14.57,1.93-5.89-.75-12.57-5.28-16.8Z"/>
        <path class="cls-1" d="M526.64,872.32c13.93,7.75,30.18,15.48,45.1,20.97,12.33,4.54,24.85,8.49,37.28,12.73,9.84,3.36,48.78,12.74,59.86,14.51,2.05.33,4.43-.05,5.78-1.62.88-1.02,1.13-2.41,1.35-3.73,1.6-9.51,1.89-19.2,1.49-28.81-.19-4.66-.21-9.63-1.12-14.21-.61-3.06-.26-8.91-2.48-11.29-.76-.81-1.79-1.3-2.8-1.76-21.56-9.89-38.96-15.07-60.99-23.88-11.07-4.43-58.49-26.66-68.32-32.01"/>
        <path class="cls-3" d="M676.16,870.58c-.29.03-.56-.18-.59-.48-.64-5.4-1.28-8.11-3.38-9.87-1.63-1.37-4.23-2.29-6.51-3.11-.67-.24-1.32-.47-1.91-.7-10.99-4.26-22.31-8.59-33.25-12.77-5.68-2.17-11.36-4.34-16.99-6.51-26.39-10.13-50.93-22.77-71.47-33.8-.26-.14-.36-.47-.22-.73.14-.26.47-.36.73-.22,20.5,11.02,45.01,23.64,71.34,33.74,5.63,2.16,11.31,4.33,16.99,6.51,10.94,4.18,22.26,8.51,33.25,12.77.59.23,1.22.45,1.88.69,2.37.84,5.07,1.8,6.85,3.3,2.38,2,3.08,4.88,3.76,10.57.03.3-.18.57-.47.6h0Z"/>
        <path class="cls-3" d="M748.88,875.67c-.23.02-.46-.1-.55-.33-.12-.28.01-.59.29-.71,29.9-12.57,52.68-25.7,73.85-42.57.23-.19.57-.15.76.09.19.23.15.57-.09.76-21.26,16.94-44.11,30.12-74.11,42.72-.05.02-.1.03-.15.04Z"/>
        <path class="cls-3" d="M685.31,867.54c-.17.02-.35-.05-.47-.19-6.21-7.56-4.12-11.49-.98-15.49,3.58-4.57,7.78-8.54,12.49-12.89l4.36-4.03c26.75-24.69,52.01-48.02,84.72-64.29,3.22-1.6,7.84-2.95,11.91-4.14,1.07-.31,2.08-.61,3-.89.29-.09.59.07.68.36.09.29-.07.59-.36.68-.92.28-1.94.58-3.01.89-3.83,1.12-8.6,2.51-11.73,4.07-32.57,16.21-57.78,39.48-84.46,64.12l-4.36,4.03c-4.68,4.31-8.84,8.25-12.37,12.76-3.04,3.88-4.76,7.17.96,14.14.19.23.16.57-.07.76-.09.07-.19.11-.29.12Z"/>
        <path class="cls-10" d="M682.4,701.66c25.32,7.75,57.19,32.82,72.47,52.97,1.68,2.22-7.91,3.37-8.4,6.11-.47,2.63-2.73,4.53-4.89,6.1-3.83,2.78-7.85,5.3-12.02,7.55-.02.01-24.19-43.45-26.48-47.26-3.5-5.81-6.54-12.29-11.33-17.19-1.77-1.81-8.17-7.92-9.35-8.28Z"/>
        <path class="cls-10" d="M598.98,730.15c-10.44,9.47-21.01,22.58-27.8,35.1-.35.64-.7,1.3-.79,2.03-.15,1.14.34,2.26.81,3.31,2.31,5.07,4.65,10.2,7.9,14.77,3.34,4.7,6.26,8.8,8.15,14.38,7.42-6.42,13.16-16.53,18.46-24.71,2.57-3.97,6.62-8.63,8.09-13.13,1.38-4.23.05-9,.91-13.32.43-2.14.98-4.28,1.59-6.39.34-1.15.69-2.3,1.06-3.43.4-1.21.81-2.42,1.23-3.62,1.53-4.4,3.33-8.72,5.34-12.92,1.23-2.55,3.71-15.48,6.24-16.78-8.53,3.67-21.87,16.26-31.18,24.71Z"/>
        <g>
          <path class="cls-16" d="M674.08,758.47c-.54.52-1.36.72-2.33.79-9.8.77-19.15,1.65-28.94,2.57-.83.08-1.73,0-2.45-.45-.95-.6-1.81-1.43-2.69-2.12-.15-.12-.3-.24-.38-.41-.07-.16-.07-.35-.03-.53.12-.58.51-1.06.84-1.56.34-.53.8-1.23.79-1.87-.02-.81-.14-1.63-.21-2.43-.14-1.62-.28-3.24-.44-4.86-.7-7.47-1.31-13.9-2.01-21.37-.59-6.29-1.43-14.65-1.5-20-.04-3.03,1.32-2.97,5.64-3.37,1.29-.12,2.58-.24,3.87-.36,3.79-.35,7.57-.7,11.36-1.05,1.97-.18,3.94-.37,5.91-.55.87-.08,1.75-.2,2.63-.24.58-.03.77-.27,1.14-.73.1-.12,1.08-1.42.99-1.5.98.6,1.65,1.13,2.76,2.03.64.51.72,1.27.81,2.01.85,7.09,1.26,14.2,1.93,21.31.48,5.15.97,10.3,1.45,15.46.46,4.9,1.61,16.82,1.52,17.7-.07.68-.3,1.17-.65,1.51Z"/>
          <path class="cls-4" d="M671.31,756.42c-.54.52-1.36.72-2.33.79-9.8.77-19.15,1.65-28.94,2.57-2.5.24-3.38-.85-3.69-4.31-.29-3.3-.57-6.62-.88-9.92-.7-7.47-1.31-13.9-2.01-21.37-.59-6.29-1.43-14.65-1.5-20-.04-3.03,1.32-2.97,5.64-3.37,3.38-.31,21.49-1.98,27.17-2.53.45-.04.91-.08,1.33.06.85.3.88,1.36.97,2.08.85,7.09,1.26,14.2,1.93,21.31.48,5.15.97,10.31,1.45,15.46.46,4.9,1.61,16.82,1.52,17.7-.07.68-.3,1.17-.65,1.51Z"/>
          <path class="cls-16" d="M648.13,721.86c-.16.16-.4.21-.69.24-2.9.23-5.68.49-8.58.76-.74.07-1-.25-1.09-1.28-.09-.98-.17-1.96-.26-2.94-.21-2.21-.39-4.12-.6-6.34-.18-1.87-.42-4.34-.44-5.93-.01-.9.39-.88,1.67-1,1.21-.11,2.42-.21,3.62-.33,3.98-.4,4.99-.78,5.16.66.25,2.1.32,3.77.52,5.88.14,1.53.29,3.06.43,4.58.14,1.45.48,4.99.45,5.25-.02.2-.09.35-.19.45Z"/>
          <path class="cls-3" d="M644.26,708.09c-.8-1.45-2.67-1.7-3.9-.85-.87.6-1.25,1.8-.96,2.89.37,1.39,1.61,2.02,2.85,1.89.63-.06,1.26-.3,1.71-.78.74-.79.85-2.16.3-3.14Z"/>
          <path class="cls-3" d="M643.66,714.22c-.42-.76-1.4-.89-2.04-.45-.46.31-.65.94-.5,1.51.19.73.84,1.06,1.49.99.33-.03.66-.16.89-.41.39-.41.44-1.13.16-1.65Z"/>
        </g>
        <path class="cls-10" d="M731.74,778.38c-4.79-.45-9.45-1.76-14.23-3.52-10.91-4.02-21.48-8.63-32.22-12.99-2.15-.87-4.35-1.78-6.09-3.32-4.3-3.8-2.27-12.57-1.72-17.7.36-3.4.94-6.79,1.7-10.12.64-2.82,1.15-7.16,2.79-9.59.31-.46,9.21,2.77,15.08,4.85,13.9,4.92,25.99,8.46,39.6,13.84,5.69,2.25,10.99,5.71,15.05,10.28,4.14,4.66,7.15,11.71,4.87,17.84-2.2,5.91-8.26,8.83-14.13,9.95-3.7.7-7.23.81-10.69.49Z"/>
        <path class="cls-10" d="M587.57,800.37c8.62-4,16.07-10.05,23.43-15.95,7.99-6.4,15.72-13.12,23.16-20.15.43-.4.87-.83,1.08-1.38.28-.73.09-1.55-.07-2.32-1.05-4.83-.68-9.71-1.48-14.51-.93-5.58-1.55-11.13-3.01-16.62-.56-2.12-.8-5.34-3.68-3.53-19.54,12.27-41.3,23.38-57.52,40.07-4.26,4.39-8.29,9.2-10.49,14.9-2.24,5.81-2.59,13.47,1.7,18.41,4.13,4.76,10.83,5.38,16.72,4.36,3.51-.61,6.9-1.77,10.18-3.29Z"/>
        <g>
          <path class="cls-18" d="M627.84,731.51c-.19,6.92,1.97,18.32,4.86,23.15.53.89,1.46,2.79,2.4,3.29,1.22.64,3.37.07,4.67-.09,2.22-.28,4.46-.86,6.63-1.38,4.36-1.05,8.67-2.45,12.55-4.72,1.31-.77,2.69-1.81,2.88-3.32.18-1.42-.83-2.8-2.13-3.4-1.3-.6-2.81-.56-4.22-.31,1.56-1.12,3.73-3.36,3.43-5.48-.26-1.87-2.79-2.95-4.49-3,1.65-.8,2.83-3.07,2.51-4.88-.34-1.85-2.08-2.91-4.23-3.01.94-.59,1.77-1.72,1.93-2.19.32-.95.21-2.05-.25-2.93-1.59-3.09-5.47-2.76-8.39-2.48-3.72.36-7.28,1.51-10.9,2.4-4.33,1.06-7.14,4.22-7.25,8.36Z"/>
          <path class="cls-9" d="M634.33,732.62c-.26.03-.51-.16-.55-.42-.04-.27.15-.53.42-.57,4.36-.65,14.48-2.49,17.28-3.44.26-.09.55.05.63.31.09.26-.05.55-.31.63-2.9.98-12.95,2.81-17.45,3.48,0,0-.02,0-.02,0Z"/>
          <path class="cls-9" d="M640,740.17c-.24.02-.46-.12-.53-.36-.08-.27.08-.54.34-.62,2.7-.77,11.72-2.76,13.99-3.08.29-.04.53.15.57.42.04.27-.15.53-.42.57-2.25.32-11.19,2.29-13.86,3.06-.03,0-.06.01-.09.02Z"/>
          <path class="cls-9" d="M637.38,749.51c-.23.02-.45-.12-.53-.35-.08-.26.06-.54.33-.63,2.66-.84,15.22-3.97,17.46-4.35.28-.05.53.14.58.41.05.27-.14.53-.41.58-2.22.38-14.69,3.49-17.32,4.32-.03.01-.07.02-.1.02Z"/>
        </g>
        <g>
          <path class="cls-18" d="M672.38,721.16c-3.7.4-7.44.53-11.06,1.46-2.84.73-6.6,1.74-7.04,5.19-.13.99.14,2.06.77,2.84.31.38,1.47,1.17,2.56,1.4-1.99.83-3.27,2.42-2.95,4.27.31,1.81,2.2,3.55,4.02,3.73-1.59.62-3.6,2.5-3.2,4.35.45,2.1,3.25,3.47,5.1,3.98-1.41.24-2.85.72-3.86,1.73-1.02,1.01-1.5,2.65-.84,3.93.7,1.35,2.35,1.86,3.84,2.13,4.43.81,8.96.66,13.41.15,2.22-.25,4.53-.47,6.71-.96,1.28-.29,3.49-.49,4.42-1.5.72-.79.93-2.89,1.13-3.91,1.07-5.52-.79-16.97-3.33-23.42-1.52-3.86-5.23-5.87-9.67-5.38Z"/>
          <path class="cls-9" d="M660.51,732.36c-.73.07-1.34.12-1.79.13-.28,0-.5-.21-.51-.49s.21-.5.49-.51c2.95-.06,13.09-1.78,17.41-2.66.26-.05.53.12.59.39.06.27-.12.53-.39.59-3.8.77-11.66,2.13-15.8,2.55Z"/>
          <path class="cls-9" d="M659.37,740.71c-.25.03-.49-.14-.54-.39-.06-.27.12-.54.39-.59,2.25-.47,11.41-1.68,14.21-1.88.28-.02.51.19.53.46.02.27-.18.5-.45.53,0,0-.01,0-.02,0-2.77.19-11.85,1.39-14.07,1.86-.02,0-.04,0-.05,0Z"/>
          <path class="cls-9" d="M661.33,748.58c-.26.03-.5-.15-.54-.41-.05-.27.13-.53.4-.58,2.24-.41,15.12-1.75,17.9-1.86.28-.01.51.2.52.48.01.28-.21.51-.48.52-2.76.11-15.54,1.44-17.76,1.85-.01,0-.03,0-.04,0Z"/>
        </g>
        <path class="cls-3" d="M727.74,778c-.06,0-.13,0-.2-.02-16.1-4.34-31.83-10.33-46.74-17.79-.27-.13-.38-.46-.24-.73.13-.27.46-.38.73-.24,14.85,7.43,30.51,13.39,46.54,17.71.29.08.46.38.38.66-.06.22-.25.38-.47.4Z"/>
        <path class="cls-3" d="M742.63,744.29c-.12.01-.24-.01-.35-.08-5.45-3.49-11.7-5.59-17.75-7.63l-40.81-13.71c-.28-.09-.44-.4-.34-.69.09-.28.4-.44.69-.34l40.81,13.71c6.11,2.05,12.43,4.18,17.99,7.74.25.16.33.5.16.75-.09.14-.24.23-.4.25Z"/>
        <path class="cls-3" d="M596.73,795.37c-.18.02-.37-.05-.49-.21-.18-.24-.14-.58.1-.76,6.25-4.78,12.59-10.11,18.72-15.27,6.14-5.16,12.49-10.5,18.76-15.3.24-.18.58-.14.76.1s.14.58-.1.76c-6.25,4.78-12.59,10.11-18.72,15.27-6.14,5.16-12.49,10.5-18.76,15.3-.08.06-.18.1-.27.11Z"/>
        <path class="cls-3" d="M578.92,758.47c-.18.02-.36-.05-.48-.2-.19-.23-.15-.57.08-.76,15.37-12.4,32.08-23.26,49.66-32.26.26-.14.59-.03.73.24.14.27.03.59-.24.73-17.52,8.97-34.16,19.78-49.47,32.14-.08.07-.18.11-.28.12Z"/>
      </g>
      <g>
        <g>
          <g>
            <path class="cls-4" d="M124.95,410.92c5.71.49,11.49.8,17.2.09,3.5-.44,8.15-1.07,9.21-5.13.3-1.16.14-2.48-.48-3.51-.31-.51-1.58-1.62-2.84-2.06,2.5-.68,4.27-2.4,4.18-4.66-.09-2.21-2.08-4.57-4.23-5.07,1.99-.5,4.68-2.44,4.49-4.71-.19-2.23-2.44-3.54-4.62-4.06-2.59-.62-5.19-1.2-7.81-1.66-2.07-.36-4.44-.66-7.06-.95,2.34-3.08,4.63-6.32,5.56-9.66.8-2.87,1.6-6.24.47-9.13-.59-1.51-1.4-2.98-2.97-3.6-2.27-.9-5.07-.13-6.62,1.75-1.44,1.76-1.81,4.13-2.95,6.07-4.64,7.87-16.73,8.3-22.34,11.27-3.96,2.1-3.69,8.87-3.94,13.06-.23,3.81-.38,7.8,1.22,11.26,1.58,3.42,4.71,5.92,8.13,7.48,4.86,2.22,10.13,2.77,15.39,3.22Z"/>
            <path class="cls-13" d="M143.49,400.84c-1.44,0-3.05,0-4.47-.01-1.2,0-2.3,0-3.1,0-.33,0-.6-.27-.6-.6s.27-.6.6-.6c.81,0,1.9,0,3.11,0,2.72.01,6.11.03,7.66,0,.34-.03.61.26.62.59,0,.33-.26.61-.59.62-.75.02-1.91.02-3.22.02Z"/>
            <path class="cls-13" d="M147.22,390.9h-.01c-1.13-.02-2.95-.12-4.87-.23-2.16-.12-4.39-.25-5.58-.25-.33,0-.6-.27-.6-.6s.27-.6.6-.6c1.23,0,3.48.13,5.65.25,1.91.11,3.72.21,4.82.23.33,0,.6.28.59.61,0,.33-.27.59-.6.59Z"/>
          </g>
          <path class="cls-15" d="M105.57,406.22c.05,1.56-.58,2.28-2.2,2.41-2.06.16-4.11.14-6.17.19-1.37.03-3.24.37-4.3-.72-1.16-1.19-.58-5.13-.52-6.69.37-8.9.2-17.99,1.17-26.84.16-1.48.48-2.52,2.09-2.74,2.03-.28,7.88-.42,10.24.55,1.2.49.6,3.26.5,4.41-.17,2.01-.32,4.03-.45,6.05-.48,7.78-.61,15.59-.37,23.38Z"/>
        </g>
        <path class="cls-15" d="M122.33,431.81c-24.46,0-44.36-19.9-44.36-44.36s19.9-44.36,44.36-44.36,44.36,19.9,44.36,44.36-19.9,44.36-44.36,44.36ZM122.33,345.1c-23.35,0-42.35,19-42.35,42.35s19,42.35,42.35,42.35,42.35-19,42.35-42.35-19-42.35-42.35-42.35Z"/>
      </g>
      <g>
        <path class="cls-4" d="M860.31,225.45c-19.29,8.74-42.09.16-50.83-19.13-8.74-19.29-.16-42.09,19.13-50.83,19.29-8.74,42.09-.16,50.83,19.13,8.74,19.29.16,42.09-19.13,50.83ZM829.28,156.96c-18.48,8.37-26.7,30.21-18.32,48.69,8.37,18.48,30.21,26.7,48.69,18.32,18.48-8.37,26.7-30.21,18.32-48.69-8.37-18.48-30.21-26.7-48.69-18.32Z"/>
        <path class="cls-10" d="M836.33,207.73c-5.63-1.92-10.79-5.04-13.98-9.82-3.22-4.83-4.1-11.42-1.32-16.51,2.17-3.98,7.62-6.75,12.13-5.62,2.88.72,4.56,1.53,7.21,3.83-.21-1.83.08-4.34.93-6.2,2.75-6.05,12.07-8.73,17.56-4.3,7.26,5.86,6.52,16.94,4.11,25.61-1.96,7.04-7.34,15.38-9.38,16.31-2.42,1.1-12.82-1.78-17.26-3.3Z"/>
      </g>
      <g>
        <path class="cls-15" d="M439.33,699.17c-5.06.85-10.27,1.14-15.23,1.04-15.49-.34-30.88-.84-46.31-.84-5.04,0-23.72-2.78-27.04,1.18-.77.93-1.09,2.14-1.39,3.31-.74,2.92-1.48,5.84-2.22,8.76-4.77-2.36-8.77-6.24-11.27-10.94-.34-.65-.67-1.33-1.23-1.8-2.31-1.98-9.2-1.11-12.35-2.2-3.97-1.38-7.63-3.58-10.73-6.42-6.31-5.79-10.01-14.09-10.01-22.67v-7.01c0-10.28,5.34-20.07,13.92-25.72,14.43-9.5,36.45-5.18,52.76-5.14,23.72.05,47.44.07,71.16.07,16.93,0,30.78,13.85,30.78,30.78v7.01c0,19.39-14.64,27.85-30.84,30.58Z"/>
        <path class="cls-4" d="M340.47,671.53c-2.5-2.35-4.47-5.22-5.01-8.5-.54-3.31.56-6.98,3.24-9,2.09-1.58,5.61-1.74,7.72-.06,1.34,1.07,2.03,1.89,2.88,3.73.33-1.01,1.07-2.26,1.97-3.04,2.89-2.53,8.43-1.71,10.26,1.93,2.42,4.81-.61,10.46-3.94,14.44-2.71,3.24-7.52,6.34-8.82,6.34-1.53,0-6.32-3.99-8.29-5.85Z"/>
        <path class="cls-4" d="M379.56,671.53c-2.5-2.35-4.47-5.22-5.01-8.5-.54-3.31.56-6.98,3.24-9,2.09-1.58,5.61-1.74,7.72-.06,1.34,1.07,2.03,1.89,2.88,3.73.33-1.01,1.07-2.26,1.97-3.04,2.89-2.53,8.43-1.71,10.26,1.93,2.42,4.81-.61,10.46-3.94,14.44-2.71,3.24-7.52,6.34-8.82,6.34-1.53,0-6.32-3.99-8.29-5.85Z"/>
        <path class="cls-4" d="M418.64,671.53c-2.5-2.35-4.47-5.22-5.01-8.5-.54-3.31.56-6.98,3.24-9,2.09-1.58,5.61-1.74,7.72-.06,1.34,1.07,2.03,1.89,2.88,3.73.33-1.01,1.07-2.26,1.97-3.04,2.89-2.53,8.43-1.71,10.26,1.93,2.42,4.81-.61,10.46-3.94,14.44-2.71,3.24-7.52,6.34-8.82,6.34-1.53,0-6.32-3.99-8.29-5.85Z"/>
      </g>
      <g>
        <g>
          <path class="cls-18" d="M47.21,522.96c2.06,2.15,4.75,3.84,7.72,4.12,3.01.29,5.95-.87,8.74-2.03,3.07-1.28,7.47-3.05,8.73-6.36,1.7-4.45.65-10.11.02-14.67-.52-3.72-1.03-7.44-1.55-11.16-.34-2.48-.99-5.37-3.3-6.34-1.24-.52-2.36-.58-3.38.31-1.63,1.42-1.79,4.19-1.72,6.35.07,2.13-.27,3.3-.19,5-.97-3-3.7-7.46-5.73-10.61-.96-1.49-2.52-2.83-4.24-2.39-1.74.45-2.49,2.97-2.35,4.59-.94-1.48-3.22-2.35-4.9-1.84-1.71.52-2.53,2.29-2.39,4.34-.66-.83-1.82-1.49-2.28-1.58-.94-.2-1.96.03-2.75.56-2.76,1.85-2.02,5.49-1.43,8.22.96,4.45,2.71,8.69,4.56,12.83,1.71,3.81,3.5,7.61,6.43,10.66Z"/>
          <path class="cls-9" d="M47.09,502.13c-.18,0-.35-.1-.43-.27l-3.99-8.42c-.11-.24-.01-.52.23-.64.24-.11.52-.01.64.23l3.99,8.42c.11.24.01.52-.23.64-.07.03-.14.05-.2.05Z"/>
          <path class="cls-9" d="M53.29,499.19c-.19,0-.36-.11-.44-.29-1.04-2.49-2.38-6.39-2.94-8.53-.07-.25.09-.52.34-.58.25-.07.52.09.58.34.55,2.1,1.88,5.95,2.9,8.4.1.24-.01.52-.26.62-.06.02-.12.04-.18.04Z"/>
        </g>
        <g>
          <path class="cls-18" d="M203.72,864.82c.27-2.2.55-4.41.78-6.61.86-8.18-23.37-3.9-23.33-5.44.05-2.56,6.3-33.05,7.3-33.18,1.3-.17,2.63-.15,3.94-.14,7.98.09,22.99.3,30.83,1.99,1.84.4,3.81.99,4.89,2.53.74,1.05,1.03,2.37,1.09,3.66.87,19.99-.1,40.21-2.25,56.82-.47,3.61-1.86,9.33-5.42,10.06-11.72,2.4-18-9.88-18.51-17.33-.28-4.13.16-8.25.68-12.37Z"/>
          <path class="cls-5" d="M203.01,879.13c0-.11,0-.22,0-.33.04-4.6-.39-9.17.14-13.8.16-1.39.59-3.17.16-4.54-.36-1.14-1.15-2.42-2.01-3.26-.27-.27-.59-.57-.56-.95.01-.19.12-.36.22-.53,1.73-2.76,3.58-5.44,5.53-8.05.04-.05.08-.11.14-.13.08-.03.16,0,.23.04,1.29.57,3.3,1.8,4.41.19.39-.56.27-1.29.34-1.97.43-4.43-.9-9.01-2.53-13.16-1.57-4-3.82-7.3-5.13-11.41-.3-.95-.47-2.23.39-2.73.39-.23.88-.21,1.33-.17,6.32.47,12.61,1.42,18.78,2.84.99.23,2.01.48,2.84,1.08,1.59,1.15,2.33,3.38,2.24,5.26-.11,2.47.02,18.81-.13,24.49-.28,10.55-1.01,21.11-2.33,31.58-.04.29-.07.57-.11.86-.47,3.61-1.86,9.33-5.42,10.06-6.71,1.38-12.9-1.76-16.23-7.65-1.33-2.35-2.26-5.04-2.31-7.75Z"/>
        </g>
        <path class="cls-1" d="M122.34,598.11c11.93.93,43.71,7.28,39.32,19.37-1.49,4.11-3.59,10.81-5.56,14.72-9.04,17.86-18.52,32.38-28.46,49.73-4.78,8.35-9.41,16.78-13.41,25.53-3.65,7.99-9.01,16.41-8.76,25.5.18,6.45,3.34,12.54,7.59,17.4,17.85,20.43,47.25,34.01,71.08,46.15,6.36,3.24,20.44,6.89,24.57,12.82,1.46,2.1,1.1,4.93.53,7.42-4.08,17.87-13.02,34.18-22.24,49.88-6.39,10.88-10.6,6.61-19.72,2.08-4.97-2.46-9.9-5.03-14.49-8.16-8.25-4.99-16.17-10.48-24.09-15.97-10.07-6.98-20.14-13.96-30.21-20.94-13.63-9.45-27.28-18.91-40.46-28.98-9.74-7.44-19.36-17.57-24.7-28.7-6.07-12.65-3.94-29.91-.38-42.91,7.41-27.08,22.88-54.03,39.72-76.24,9.35-12.33,30.32-40.31,33.56-44.25,3.32-4.04,11.24-4.81,16.11-4.44Z"/>
        <path class="cls-18" d="M113.48,874.21c2.22.1,4.44.2,6.65.25,8.23.21,2.02-23.6,3.55-23.69,2.56-.15,33.45,3.64,33.66,4.62.27,1.29.36,2.6.46,3.92.55,7.96,1.54,22.94.49,30.89-.25,1.86-.68,3.88-2.13,5.08-.99.82-2.28,1.22-3.56,1.38-19.85,2.47-40.09,3.12-56.82,2.3-3.64-.18-9.45-1.1-10.47-4.6-3.33-11.49,8.41-18.73,15.79-19.83,4.09-.61,8.24-.5,12.38-.32Z"/>
        <path class="cls-5" d="M99.17,874.65c.11-.01.22-.02.33-.03,4.59-.33,9.11-1.13,13.77-.96,1.39.05,3.21.34,4.54-.2,1.11-.45,2.31-1.34,3.09-2.26.25-.29.52-.63.9-.63.19,0,.37.09.54.18,2.89,1.51,5.71,3.13,8.47,4.87.05.03.11.07.14.13.03.07,0,.16-.02.23-.46,1.34-1.53,3.43.16,4.42.59.34,1.31.17,1.99.18,4.45.07,8.91-1.62,12.91-3.58,3.86-1.89,6.97-4.4,10.96-6.03.92-.38,2.18-.65,2.76.17.26.37.28.86.28,1.31.04,6.34-.4,12.68-1.33,18.95-.15,1.01-.32,2.04-.85,2.91-1.01,1.68-3.18,2.59-5.06,2.66-2.48.09-18.75,1.53-24.42,1.83-10.54.56-21.12.68-31.67.21-.29-.01-.58-.03-.87-.04-3.64-.18-9.45-1.1-10.47-4.6-1.91-6.58.72-13,6.33-16.79,2.24-1.51,4.84-2.66,7.54-2.92Z"/>
        <path class="cls-3" d="M148.65,468.84c4.69-.91,9.12-.43,13.51,1.1,3.45,1.2,5.39,3.85,7.37,6.75,1.1,1.61,1.39,4.08,1.52,6.01.08,1.1.07,2.2-.04,3.3-.03.32-.62,2.89-.51,2.98-.56-.46-1.23-.95-1.93-.78-.71.18-1.08.95-1.29,1.65-.22.72-.15,1.64-.55,2.26-.87-.26-1.2-2.09-1.5-2.86-.49-1.25-.97-2.5-1.46-3.75-.19-.48-.38-.97-.71-1.37-.91-1.1-2.52-1.18-3.95-1.2-1.42-.02-3.05-.16-3.89-1.31-1.92,1.67-4.98,1.85-7.08.42-.73.88-1.99,1.16-3.12,1-1.13-.16-2.16-.7-3.17-1.23-.62.47-1.3.61-1.96.97-.59.32-.94.82-1.37,1.38-.87,1.13-1.05,2.58-1.11,3.89-1.96-3.78-1.32-8.2,1.04-11.68,1.36-2.01,1.09-3.7,3.18-4.91,2.14-1.23,4.53-2.14,7-2.62Z"/>
        <path class="cls-1" d="M169.72,858.09c-.56,3.47-.83,5.57-.67,5.57-24.34-.69-46.81-4.21-69.56-12.97-.86-.33-1.76-.7-2.36-1.4-.67-.79-.84-1.88-.97-2.9-2.25-17.4,3.79-33.89,7.11-50.83,3.34-17,6.47-34.04,10.47-50.9,7.28-30.71,15.64-61.16,25.05-91.28,4.62-14.78,9.49-29.47,14.62-44.08,3.89-11.09,8.4-26.23,18.93-33.02,6.29-4.07,12.28-.83,18.74,1.35,8.64,2.9,24.15,6.31,26.26,16.35,3.95,18.84,2.33,36.57-2.24,56.01-6.12,26.07-12.5,51.4-18.97,77.68-5.54,22.51-10.43,45.19-14.91,67.94-.94,4.77-9.02,47.08-11.49,62.48Z"/>
        <path class="cls-18" d="M167,488.67s.04-.06.06-.09c.33-.39,1.2-.7,1.66-.68.6.02,1.31.54,1.67,1.02.2.27.31.59.38.92.54,2.42-1.08,5.96-3.97,5.36-.22-1.57-.32-3.17-.14-4.74.05-.47.05-1.33.34-1.77Z"/>
        <path class="cls-9" d="M172.89,515.54c-1.85,4.45-12.07,20.19-16.56,21.91-4.5,1.72-6.4-3.24-10-8.51-1.74-2.56-6.08-11.89-6.84-13.64,2.29-1.59,8.81-1.82,10.58-3.85.24-.29.43-.7.57-1.22.14-.48.25-1.04.37-1.63.39-2.13.53-4.85.49-6.89-.01-.65-.03-1.23-.08-1.7-.06-.71-.16-1.18-.29-1.28l9.69-.55c.36,5.45-1.85,15,11.61,14.87.23,0,.31.62.47.8.41.45.22,1.16-.01,1.72Z"/>
        <path class="cls-10" d="M219.56,608.72c-6.19,3.58-15.04,4.12-22.02,4.95-15.99,1.91-32.14,2.57-48.21,1.63-8.12-.48-16.21-1.37-24.24-2.71-4.63-.77-9.35-1.46-13.86-2.75-2.79-.81-5.51-1.86-8.07-3.32-1.35-.76-2.72-1.7-3.28-3.15-.37-.93-.35-1.97-.27-2.97.05-.57.18-1.37.39-2.35.13-.6.29-1.26.46-2,.78-3.21,2.01-7.6,3.43-12.35.19-.64.4-1.3.59-1.96,1.61-5.31,3.41-10.94,5.03-15.83.22-.67.44-1.34.65-1.98,1.22-3.62,2.3-6.7,3.09-8.75.68-1.78,1.38-3.63,2.1-5.52.24-.64.49-1.27.74-1.93,1.82-4.69,3.81-9.54,6.17-14.11.32-.64.65-1.27,1-1.91,2.18-4.02,4.66-7.75,7.55-10.89.85-.92,1.74-1.78,2.71-2.58.79-.66,1.6-1.27,2.47-1.83,1.52-.96,3.11-1.78,4.8-2.39,1.46-.53,3.87-1.17,5.48-1.15-.68,1.09-.91,1.96-1.23,2.85-.38,1.06-.59,2.2-.34,3.32.39,1.78,1.89,3.18,3.6,3.81,3.96,1.48,8.63.27,11.85-2.24,1.54-1.2,2.85-2.67,3.98-4.25.33-.46,2.84-4.93,2.96-4.91,3.46.63,6.83,1.39,10.27,2.21,3.8.91,8.75,1.92,13.01,4.3,8.59,4.79,9.68,17.54,14,26.32.31.62.61,1.25.9,1.88,1.58,3.4,3.02,6.85,4.36,10.31.4,1.03.8,2.06,1.18,3.1.23.64.47,1.28.69,1.93,1.83,5.04,3.46,10.15,4.94,15.3.19.65.38,1.31.56,1.97.34,1.2.66,2.41.98,3.62.95,3.57,1.83,7.17,2.64,10.78.15.67.31,1.34.45,2.01.05.24.11.49.16.73,1.08,5,3.88,9.6-1.68,12.81Z"/>
        <path class="cls-18" d="M137.42,488.04c-.29,9.76,3.92,18.13,14.76,18.13s15.53-7.45,15.82-17.21c.29-9.76-6.32-17.87-14.76-18.13-8.45-.25-15.53,7.45-15.82,17.21Z"/>
        <path class="cls-3" d="M163.09,501.68c-1.4.83-2.88,1.84-4.46,2.26-2.13.56-4.36.45-6.48-.12-.76-.21-1.45-.65-2.16-1.02-.22-.12-.43-.23-.67-.31-.93-.31-1.91.02-2.77.38-.81.34-1.63.32-2.47.06-.84-.26-1.6-.77-2.28-1.33-.55-.45-1.44-1.1-1.77-1.75,2.1,4.1,6.36,6.7,12.26,6.7s9.92-2.22,12.32-5.94c-.37.32-1.13.83-1.54,1.07Z"/>
        <path class="cls-3" d="M147.21,468.28c2.35-.82,4.84-1.14,7.32-1.14,2.24,0,4.69.13,6.78,1.04,1.29.57,2.36,1.44,3.46,2.31,1.05.83,2.39.79,3.44,1.83,1.01,1,1.8,2.35,2.22,3.71.76,2.46,1.09,5.04.99,7.61-.07,1.81-.31,3.81-.86,5.51-1.18-1.5-2.83-1.26-3.27.68-.17.73-.15,1.64-.55,2.26-.87-.26-1.2-2.09-1.5-2.86-.49-1.25-.97-2.5-1.46-3.75-.19-.48-.38-.97-.71-1.37-1.83-2.21-5.91-.6-8.3-.21-3.79.61-7.7.5-11.52.27-2.64-.16-5.93-.91-7.84-2.88-2.25-2.32-2.2-5.65-1.39-8.58.5-1.8,1.23-3.57,2.41-5.02,1.18-1.45,2.85-2.56,4.7-2.79-1.42,1.65-2.64,3.49-3.6,5.44,1.13-1.28,2.67-2.16,4.33-2.52-.35.73-.68,1.43-.61,2.29,0,.07.01.15.06.21.1.14.32.09.48.04,1.84-.67,3.6-1.45,5.43-2.09Z"/>
        <g>
          <path class="cls-3" d="M148.83,495.17c-.69,0-1.18-.29-1.34-.8-.08-.26-.07-.51.05-.73.12-.24.36-.42.65-.51.34-.1.73-.07,1.1.09.09.04.13.14.09.23-.04.09-.14.13-.23.09-.29-.13-.6-.16-.86-.08-.21.06-.37.18-.45.34-.07.14-.08.29-.03.46.18.56.88.57,1.17.56.1,0,.17.07.18.16,0,.09-.07.18-.16.18-.06,0-.12,0-.17,0Z"/>
          <g>
            <path class="cls-3" d="M154.7,492.68c0,.89.46,1.6,1.04,1.6s1.04-.72,1.04-1.6-.46-1.6-1.04-1.6-1.04.72-1.04,1.6Z"/>
            <path class="cls-4" d="M155.73,491.86c0,.23.15.41.34.41s.34-.19.34-.41-.15-.42-.34-.42-.34.19-.34.42Z"/>
          </g>
          <g>
            <path class="cls-3" d="M142.08,492.68c0,.89.46,1.6,1.04,1.6s1.04-.72,1.04-1.6-.46-1.6-1.04-1.6-1.04.72-1.04,1.6Z"/>
            <path class="cls-4" d="M143.11,491.86c0,.23.15.41.34.41s.34-.19.34-.41-.15-.42-.34-.42-.34.19-.34.42Z"/>
          </g>
          <path class="cls-3" d="M143.76,489.57c-1.04-.24-2.46-.16-3.52.29h-.03c-.19.09-.41,0-.49-.19-.07-.17-.01-.35.13-.45.61-.43,1.27-.68,1.95-.88.69-.18,1.37-.32,2.18-.29.42.02.75.38.73.8-.02.42-.38.75-.8.73-.04,0-.09,0-.13-.02h-.02Z"/>
          <path class="cls-3" d="M154.91,488.01c.81-.01,1.49.15,2.17.35.67.22,1.33.49,1.93.94.16.13.2.36.07.53-.11.14-.3.19-.45.12h-.03c-1.05-.49-2.46-.62-3.51-.41h-.01c-.42.08-.82-.19-.9-.6-.08-.42.19-.82.61-.9.04,0,.09-.01.14-.01Z"/>
          <path class="cls-4" d="M146,497.36c-.07-.03-.13-.06-.2-.06-.42-.01-.23.67-.13.88.67,1.39,1.53,2.23,2.58,2.37,1.04.14,2.19-.72,2.77-1.79.13-.24.23-.52.27-.79.02-.12.04-.29-.02-.4-.11-.21-.24-.09-.45-.04-.63.16-1.27.28-1.92.32-.92.06-1.99-.02-2.82-.45-.02-.01-.05-.02-.07-.04Z"/>
        </g>
        <path class="cls-9" d="M167.2,493.03s-.07,0-.1-.03c-.1-.05-.13-.18-.08-.28.56-.99,1.43-1.79,2.46-2.27.1-.05.22,0,.27.1.05.1,0,.22-.1.27-.95.44-1.77,1.19-2.28,2.1-.04.07-.11.1-.18.1Z"/>
        <path class="cls-9" d="M169.54,492.55s-.09-.01-.12-.04c-.37-.29-.81-.48-1.28-.56-.11-.02-.19-.12-.17-.23.02-.11.11-.19.23-.17.53.08,1.04.3,1.47.64.09.07.1.2.03.28-.04.05-.1.08-.16.08Z"/>
        <path class="cls-3" d="M174.17,622.89c-23.91,0-51.46-2.79-68.55-7.38-.27-.07-.43-.35-.36-.62s.35-.43.62-.36c22.85,6.13,64.47,9.03,90.88,6.33.29-.02.53.18.56.46.03.28-.18.53-.46.56-6.76.69-14.52,1.02-22.7,1.02Z"/>
        <path class="cls-10" d="M116.82,557.35c1.07-3.31,2.11-6.62,3.14-9.92,1.18-3.76,2.77-7.45,4.45-11.02,1.68-3.58,3.56-7.07,5.63-10.44,1.25-2.05,5.14-9.5,7.39-10.39-13.61,4.36-24.52,10.06-37.84,23.15-6.75,6.63-26.62,32.31-27.95,37.06-1.24,4.41-1.99,23.92,4.09,26.15,7.38,2.7,25.41-6.03,27.55-11.61,4.7-12.22,9.56-20.57,13.56-32.98Z"/>
        <path class="cls-3" d="M108.08,570.93s-.09,0-.14-.02c-.27-.08-.43-.36-.35-.63,2.66-9.43,6.63-19.44,9.78-27.12,3.52-8.57,7.71-15.94,13.18-23.2.17-.22.49-.27.71-.1.22.17.27.49.1.71-5.41,7.18-9.56,14.48-13.05,22.97-3.14,7.65-7.09,17.63-9.74,27-.06.22-.27.37-.49.37Z"/>
        <path class="cls-10" d="M48.13,526.39c-.58.27-1.2.58-1.51,1.15-.34.63-.2,1.4-.05,2.1,3.57,16.4,8.85,32.39,12.45,48.79.86,3.94,1.09,7.9,2.88,11.58,4.45,9.11,15.73,15.97,25.59,10.91,3.48-1.79,6.22-4.9,7.69-8.52,1.72-4.21,1.73-8.91,1.47-13.46-.52-9.23-4.39-17.93-7.91-26.34-3.8-9.08-7.82-18.43-10.87-27.86-.86-2.67-1.72-5.5-3.78-7.4-.41-.38-.89-.73-1.45-.83-.61-.11-1.22.1-1.81.3-7.77,2.67-15.24,6.11-22.72,9.59Z"/>
        <path class="cls-3" d="M95.01,592c-.05,0-.11,0-.16-.03-.27-.09-.41-.38-.32-.64,2.16-6.48,2.23-11.83.24-19.09-1.6-5.85-3.62-12.73-6.48-19.44-.11-.26.01-.56.27-.67.26-.11.56,0,.67.27,2.88,6.76,4.92,13.68,6.53,19.57,2.02,7.38,1.94,13.08-.26,19.68-.07.21-.27.35-.48.35Z"/>
        <path class="cls-3" d="M97.88,820.03s-.07,0-.11-.01c-.27-.06-.45-.33-.39-.61,2.42-10.74,4.54-21.48,6.59-31.87,2.55-12.91,4.96-25.1,7.71-36.23.07-.27.34-.44.62-.37.27.07.44.34.37.62-2.74,11.11-5.15,23.29-7.7,36.18-2.05,10.4-4.18,21.15-6.6,31.9-.05.24-.26.4-.5.4Z"/>
        <path class="cls-3" d="M165.62,864.03c-1.15,0-2.42-.08-3.66-.15-.71-.04-1.39-.08-2.01-.11-.28-.01-.5-.25-.49-.53.01-.28.25-.52.53-.49.63.02,1.32.07,2.03.11,1.56.09,3.18.19,4.5.13.55-.03,1.1-.08,1.42-.38.24-.24.34-.63.44-1.12,2.17-10.33,4.09-21.29,5.95-31.89,1.86-10.6,3.78-21.57,5.95-31.92.06-.28.33-.45.6-.39.28.06.45.33.39.6-2.17,10.33-4.09,21.29-5.95,31.88-1.86,10.6-3.78,21.57-5.95,31.92-.1.49-.24,1.16-.72,1.63-.57.56-1.37.65-2.09.68-.3.01-.62.02-.95.02Z"/>
        <g>
          <path class="cls-3" d="M208.32,649.02s-.08,0-.13-.02c-.27-.07-.44-.35-.37-.62l.62-2.47c.07-.27.34-.44.62-.37.27.07.44.34.37.62l-.62,2.47c-.06.23-.27.39-.49.39Z"/>
          <path class="cls-3" d="M161.45,849.49s-.06,0-.09,0c-.28-.05-.46-.32-.41-.59.31-1.66.61-3.35.92-5.07.05-.28.32-.46.59-.41.28.05.46.31.41.59-.3,1.72-.61,3.41-.92,5.07-.05.25-.26.42-.5.42ZM163.25,839.34s-.06,0-.09,0c-.28-.05-.46-.31-.42-.59.29-1.68.57-3.38.86-5.08.05-.28.31-.46.59-.42.28.05.47.31.42.59-.29,1.7-.57,3.4-.86,5.08-.04.25-.26.42-.5.42ZM164.96,829.18s-.06,0-.08,0c-.28-.05-.47-.31-.42-.59l.84-5.08c.05-.28.31-.46.59-.42.28.05.47.31.42.59l-.84,5.08c-.04.25-.26.43-.5.43ZM166.65,819.01s-.06,0-.08,0c-.28-.05-.47-.31-.42-.59.29-1.71.57-3.4.86-5.08.05-.28.31-.46.59-.42.28.05.46.31.42.59-.29,1.68-.57,3.37-.86,5.07-.04.25-.26.43-.5.43ZM168.4,808.86s-.06,0-.09,0c-.28-.05-.46-.31-.41-.59.31-1.72.61-3.41.92-5.07.05-.28.32-.45.6-.41.28.05.46.32.41.6-.31,1.66-.62,3.35-.92,5.06-.04.25-.26.42-.5.42ZM170.29,798.73s-.07,0-.1-.01c-.28-.06-.46-.32-.4-.6l.09-.43c.31-1.53.63-3.09.96-4.62.06-.28.33-.45.61-.39.28.06.45.33.39.61-.33,1.53-.66,3.08-.96,4.61l-.09.43c-.05.24-.26.41-.5.41ZM172.48,788.66s-.08,0-.12-.01c-.27-.06-.44-.34-.38-.61.38-1.63.79-3.32,1.21-5.01.07-.27.35-.44.62-.37.27.07.44.34.37.62-.42,1.69-.83,3.37-1.21,5-.06.23-.26.39-.5.39ZM174.97,778.67s-.09,0-.13-.02c-.27-.07-.43-.35-.36-.62.44-1.69.89-3.35,1.34-4.98.07-.27.35-.43.63-.36.27.07.43.36.36.63-.45,1.63-.89,3.28-1.34,4.97-.06.23-.27.38-.49.38ZM177.68,768.73s-.09,0-.14-.02c-.27-.08-.43-.36-.35-.63.44-1.55.87-3.09,1.3-4.61l.1-.35c.08-.27.36-.43.63-.35.27.08.43.36.35.63l-.1.35c-.43,1.52-.86,3.05-1.3,4.61-.06.23-.27.37-.49.37ZM180.48,758.82s-.09,0-.14-.02c-.27-.08-.43-.36-.35-.63.46-1.66.92-3.31,1.37-4.96.07-.27.35-.43.63-.36.27.07.43.35.36.63-.45,1.65-.9,3.3-1.37,4.97-.06.23-.27.37-.49.37ZM183.16,748.88s-.08,0-.13-.02c-.27-.07-.44-.35-.37-.62.45-1.75.85-3.39,1.22-4.99.06-.27.34-.44.61-.38.27.06.44.34.38.61-.38,1.61-.78,3.25-1.23,5.01-.06.23-.27.38-.49.38ZM185.53,738.86s-.08,0-.11-.01c-.27-.06-.45-.34-.38-.61.39-1.7.77-3.37,1.16-5.02.06-.27.34-.44.61-.38.27.06.44.34.38.61-.38,1.65-.77,3.32-1.16,5.02-.05.24-.26.4-.5.4ZM187.86,728.83s-.08,0-.12-.01c-.27-.07-.44-.34-.38-.61.4-1.69.8-3.36,1.2-5.01.07-.27.34-.44.62-.38.27.07.44.34.38.62-.4,1.65-.8,3.31-1.2,5.01-.06.23-.26.39-.5.39ZM190.28,718.82s-.08,0-.12-.02c-.27-.07-.44-.34-.37-.62.41-1.69.83-3.35,1.24-5,.07-.27.35-.44.62-.37.27.07.44.34.37.62-.41,1.65-.82,3.31-1.24,5-.06.23-.27.39-.49.39ZM192.78,708.83s-.08,0-.13-.02c-.27-.07-.44-.35-.37-.62.43-1.68.85-3.34,1.27-4.99.07-.27.35-.44.62-.37.27.07.44.35.37.62-.42,1.65-.85,3.31-1.27,4.99-.06.23-.27.38-.49.38ZM195.34,698.85s-.09,0-.13-.02c-.27-.07-.44-.35-.37-.62.43-1.67.86-3.33,1.3-4.98.07-.27.35-.43.62-.36.27.07.44.35.36.62-.43,1.66-.86,3.31-1.3,4.98-.06.23-.27.38-.49.38ZM197.94,688.89s-.09,0-.13-.02c-.27-.07-.43-.35-.36-.62l1.31-4.98c.07-.27.35-.44.62-.36.27.07.43.35.36.62l-1.31,4.98c-.06.23-.27.38-.49.38ZM200.57,678.93s-.09,0-.13-.02c-.27-.07-.43-.35-.36-.62l1.31-4.98c.07-.27.35-.44.62-.36.27.07.43.35.36.62l-1.31,4.98c-.06.23-.27.38-.49.38ZM203.19,668.97s-.09,0-.13-.02c-.27-.07-.44-.35-.36-.62.43-1.65.86-3.3,1.3-4.98.07-.27.35-.43.62-.37.27.07.44.35.37.62-.44,1.68-.87,3.34-1.3,4.98-.06.23-.27.38-.49.38ZM205.78,659s-.09,0-.13-.02c-.27-.07-.44-.35-.37-.62.42-1.64.85-3.3,1.28-4.99.07-.27.35-.44.62-.37.27.07.44.35.37.62-.43,1.68-.86,3.35-1.28,4.99-.06.23-.27.38-.49.38Z"/>
          <path class="cls-3" d="M159.97,857.1s-.07,0-.1-.01c-.28-.06-.45-.33-.4-.6.17-.82.33-1.65.5-2.48.05-.28.32-.46.6-.4.28.05.46.32.4.6-.17.84-.33,1.67-.5,2.49-.05.24-.26.41-.5.41Z"/>
        </g>
        <path class="cls-18" d="M210.99,627c-1.33-2.55-3.77-4.3-6.14-5.92-2.62-1.78-6.3-4.38-9.61-3.68-4.44.94-8.41,4.7-11.73,7.57-.41.35-.81.69-1.21,1.05,2.07,4.92,5.34,9.69,8.96,13.37,3.77,3.84,8.29,7.53,13.7,8.89.52-.77,1.04-1.55,1.54-2.33,2.16-3.33,4.26-6.73,5.19-10.65.64-2.76.6-5.78-.7-8.3Z"/>
        <path class="cls-1" d="M205.58,648.95c-.25-.05-.5-.11-.76-.18-6.02-1.52-10.83-5.88-13.91-9.02-3.8-3.87-7.02-8.67-9.07-13.53-.3-.69-.57-1.38-.8-2.04l.96-.34c.22.63.48,1.3.77,1.98,2,4.74,5.14,9.43,8.86,13.21,3,3.06,7.66,7.29,13.46,8.75.24.07.46.12.69.17l-.21,1Z"/>
        <path class="cls-10" d="M177.35,519.92c5.39-7.26,15.83-1.69,20.29.74,15.92,8.63,30.4,19.11,45.07,29.61,4.09,2.93,8.76,6.78,10.98,11.43,4.75,9.96-2.47,21.71-6.73,30.49-4.07,8.39-8.58,16.57-13.51,24.48-4.59,7.37-9.37,15.56-14.2,21.78-.63.81-1.45,1.53-2.45,1.79-3.14.8-7.81-3.65-10.05-5.42-3.15-2.48-6.07-5.23-8.85-8.11-2.32-2.4-4.53-4.89-6.72-7.4-2.5-2.87-2.9-3.82-.6-7.1,8.97-12.8,17.52-25.88,25.64-39.23.73-1.2,1.47-2.47,1.47-3.87-.02-3.76-9.21-6.92-11.94-8.77-8.51-5.76-19.1-11.64-25.55-19.82-5.76-7.3-8.58-12.88-2.85-20.61Z"/>
        <path class="cls-3" d="M208.8,562.79c-.09,0-.18-.02-.27-.08-7.8-4.83-15.39-10.2-22.54-15.95-5.78-4.65-11.29-9.92-12.43-16.95-.05-.28.14-.54.42-.59.27-.05.54.14.59.42,1.09,6.69,6.44,11.79,12.06,16.31,7.12,5.72,14.67,11.07,22.44,15.88.24.15.31.46.16.7-.1.16-.26.24-.43.24Z"/>
        <g>
          <path class="cls-8" d="M43.83,513.45c.44.29,1.99,1.32,2.98,1.38,8.53-1.86,20.27-3.6,20.7-4.02.57-.55-1.94-36.95-1.72-38.17-.78-1.82-1.56-3.18-5.48-2.64-4.03.56-19.99,1.97-20.99,2.72-.46.35-.32.98-.28,1.5.39,5.01,3.95,37.68,4.13,38.28.14.46.37.76.66.95Z"/>
          <path class="cls-3" d="M45.93,514.58c.44.29,1.04.31,1.72.23,6.87-.82,13.45-1.5,20.33-2.22,1.76-.18,2.22-1.05,1.95-3.48-.25-2.32-.52-4.65-.76-6.97-.54-5.25-1.01-9.78-1.56-15.03-.46-4.43-1.04-10.31-1.72-14.02-.39-2.1-1.32-1.87-4.36-1.55-2.38.25-15.11,1.6-19.1,2.01-.31.03-.64.07-.91.23-.55.32-.42,1.06-.38,1.57.39,5.01,1.09,9.98,1.61,14.98.38,3.62.75,7.25,1.13,10.87.36,3.44,1.21,11.83,1.4,12.43.14.46.37.76.66.95Z"/>
          <path class="cls-4" d="M46.62,508.46c.39.23.92.25,1.52.17,6.11-.72,11.96-1.33,18.07-1.96,1.56-.16,1.98-.88,1.76-2.87-.21-1.9-.43-3.81-.63-5.72-.45-4.31-.83-8.02-1.28-12.33-.38-3.63-.85-8.46-1.43-11.5-.33-1.72-1.16-1.53-3.86-1.24-2.11.23-13.43,1.42-16.98,1.78-.28.03-.57.06-.81.19-.49.27-.38.87-.35,1.29.31,4.12.9,8.19,1.32,12.29.31,2.97.62,5.95.93,8.92.29,2.83.99,9.71,1.15,10.2.12.38.32.62.58.78Z"/>
          <path class="cls-2" d="M42.78,477.85c7.34-.93,14.73-1.46,22.08-2.32-.07-.45-.15-.88-.22-1.28-.33-1.72-1.16-1.53-3.86-1.24-2.11.23-13.43,1.42-16.98,1.78-.28.03-.57.06-.81.19-.49.27-.38.87-.35,1.29.04.53.09,1.05.14,1.57Z"/>
          <path class="cls-8" d="M59.65,510.53c0,1.02-.83,1.85-1.85,1.85s-1.85-.83-1.85-1.85.83-1.85,1.85-1.85,1.85.83,1.85,1.85Z"/>
          <g>
            <path class="cls-2" d="M56.37,478.71c.07.08.09.21.1.35.13,1.48.26,2.89.41,4.37.04.38-.09.51-.52.55-.26.02-.52.04-.79.07-1.08.11-5.31.46-6.35.56-.25.02-1.23.09-1.42.17-.15.07-.63.7-.85.91-.07.07-.22.25-.29.32-.09.09-.24.03-.25-.09-.03-.32-.04-.54-.08-.91-.15-1.7-.31-3.4-.48-5.11,0-.07-.01-.14,0-.2.03-.13.16-.13.25-.14.86-.11,1.71-.16,2.57-.24.62-.06,1.24-.12,1.87-.18.59-.06,5.51-.54,5.62-.52.08.01.14.05.18.1Z"/>
            <path class="cls-4" d="M49.25,481.87c.04.37-.23.7-.6.73-.37.04-.7-.23-.73-.6-.04-.37.23-.7.6-.73.37-.04.7.23.73.6Z"/>
            <path class="cls-4" d="M52.27,481.57c.04.37-.23.7-.6.73-.37.04-.7-.23-.73-.6-.04-.37.23-.7.6-.73.37-.04.7.23.73.6Z"/>
            <path class="cls-4" d="M55.28,481.28c.04.37-.23.7-.6.73-.37.04-.7-.23-.73-.6-.04-.37.23-.7.6-.73.37-.04.7.23.73.6Z"/>
          </g>
          <g>
            <path class="cls-2" d="M57.59,494.11c.07.08.09.21.1.35.13,1.48.26,2.89.41,4.37.04.38-.09.51-.52.55-.26.02-.52.04-.79.07-1.08.11-5.31.46-6.35.56-.25.02-1.23.09-1.42.17-.15.07-.63.7-.85.91-.07.07-.22.25-.29.32-.09.09-.24.03-.25-.09-.03-.32-.04-.54-.08-.91-.15-1.7-.31-3.4-.48-5.11,0-.07-.01-.14,0-.2.03-.13.16-.13.25-.14.86-.11,1.71-.16,2.57-.24.62-.06,1.24-.12,1.87-.18.59-.06,5.51-.54,5.62-.52.08.01.14.05.19.1Z"/>
            <path class="cls-4" d="M50.47,497.26c.04.37-.23.7-.6.73-.37.04-.7-.23-.73-.6-.04-.37.23-.7.6-.73.37-.04.7.23.73.6Z"/>
            <path class="cls-4" d="M53.49,496.97c.04.37-.23.7-.6.73-.37.04-.7-.23-.73-.6-.04-.37.23-.7.6-.73.37-.04.7.23.73.6Z"/>
            <path class="cls-4" d="M56.5,496.67c.04.37-.23.7-.6.73-.37.04-.7-.23-.73-.6-.04-.37.23-.7.6-.73.37-.04.7.23.73.6Z"/>
          </g>
          <g>
            <path class="cls-2" d="M53.81,486.35c-.05.09-.06.22-.05.37.11,1.48.2,2.9.29,4.38.02.38.17.49.6.46.26-.02.52-.04.79-.06,1.08-.07,5.32-.39,6.36-.45.25-.02,1.23-.11,1.43-.06.16.04.73.59.98.76.08.06.25.21.33.27.1.07.24,0,.23-.13-.02-.32-.04-.54-.07-.91-.13-1.7-.23-3.41-.34-5.12,0-.07,0-.14-.04-.2-.05-.12-.18-.1-.27-.1-.86.03-1.72.12-2.58.17-.62.04-1.25.08-1.87.12-.59.04-5.53.34-5.63.38-.08.03-.13.07-.17.13Z"/>
            <path class="cls-4" d="M61.34,488.32c.02.37.34.65.71.63.37-.02.65-.34.63-.71-.02-.37-.34-.65-.71-.63-.37.02-.65.34-.63.71Z"/>
            <path class="cls-4" d="M58.32,488.52c.02.37.34.65.71.63s.65-.34.63-.71-.34-.65-.71-.63c-.37.02-.65.34-.63.71Z"/>
            <path class="cls-4" d="M55.3,488.71c.02.37.34.65.71.63.37-.02.65-.34.63-.71s-.34-.65-.71-.63-.65.34-.63.71Z"/>
          </g>
        </g>
      </g>
      <g>
        <path class="cls-10" d="M448.73,290.34c-3,.17-6.02.21-9.02.24-98.37.97-196.8.14-295.18.14-12.81,0-24.37-6.16-28.02-15.89-1.93-5.14-1.99-10.58-2.03-15.94,0-35.92-2.29-71.79-2.33-107.62-.05-39.2-1.24-54.35,32.38-54.38,76.12-.06,245.96-.23,276.7.27,22.96.38,57.69-2.44,57.7,23.44,0,48.8,0,97.6,0,146.41,0,8.85-6.23,17.92-16.97,21.22-4.22,1.3-8.7,1.86-13.24,2.11Z"/>
        <path class="cls-10" d="M118.47,218.64c.88,4.82,1.32,21.39,1.33,22.75.07,6.21.12,12.42.16,18.62.01,2.02-1.49,13.38.64,14.15-14.3-5.16-29.29-8.37-44.44-9.53-5.25-.4-10.52-.56-15.78-.59-4.86-.03-10.89,1.1-15.62.14-6.93-1.42,1.03-7,3.36-9.16,3.55-3.29,7.26-6.41,11.09-9.36,15.36-11.8,32.88-20.8,51.45-26.33,2.41-.72,4.84-1.38,7.29-1.98.19-.05.36.44.52,1.31Z"/>
        <circle class="cls-6" cx="200.26" cy="190.47" r="55.28" transform="translate(-62.5 104.8) rotate(-25.51)"/>
        <rect class="cls-6" x="280.42" y="132.64" width="95.97" height="11.05"/>
        <rect class="cls-6" x="280.42" y="158.33" width="168.17" height="11.05"/>
        <rect class="cls-6" x="280.42" y="184.03" width="95.97" height="11.05"/>
        <rect class="cls-6" x="280.42" y="209.72" width="54.58" height="11.05"/>
        <rect class="cls-6" x="389.89" y="184.03" width="58.7" height="11.05"/>
        <rect class="cls-6" x="349.01" y="209.72" width="99.58" height="11.05"/>
        <rect class="cls-6" x="280.42" y="235.41" width="168.17" height="11.05"/>
      </g>
      <g>
        <path class="cls-8" d="M373.29,443.16l-50.71-39.25c-.97-.75-2.35-.69-3.25.16l-25.75,33.38c-1,.95-2.59.91-3.54-.1l-7.86-8.3c-.95-1-.91-2.59.1-3.54l35.97-43.05c.9-.85,2.27-.92,3.25-.16l49.15,38.05c1.07.83,2.61.65,3.47-.4l47.84-58.8c.87-1.07,2.45-1.23,3.52-.36l8.87,7.21c1.07.87,1.23,2.45.36,3.52l-57.96,71.24c-.86,1.05-2.4,1.23-3.47.4Z"/>
        <path class="cls-10" d="M372.46,438.39l-50.71-39.25c-.97-.75-2.35-.69-3.25.16l-25.75,33.38c-1,.95-2.59.91-3.54-.1l-7.86-8.3c-.95-1-.91-2.59.1-3.54l35.97-43.05c.9-.85,2.27-.92,3.25-.16l49.15,38.05c1.07.83,2.61.65,3.47-.4l47.84-58.8c.87-1.07,2.45-1.23,3.52-.36l8.87,7.21c1.07.87,1.23,2.45.36,3.52l-57.96,71.24c-.86,1.05-2.4,1.23-3.47.4Z"/>
        <g>
          <path class="cls-8" d="M446.17,387.66c.28-.06.44-.37.68-.99.34-.88.44-1.94.6-2.86.93-5.44,1.4-10.96,1.97-16.44.58-5.58,1.06-10.6,1.63-16.18.28-2.67.87-9.48.51-12.76-.34-.92-2.55-2.53-3.36-3.13-5.82,1.58-18.26,8.3-22.78,9.92-3.59,1.29-17.32,6.26-20.82,7.86-1.34.61,13.75,12.51,13.64,12.64-5.94,7.42-4.02,5.02-9.97,12.45-2.28,2.85-4.56,5.7-6.85,8.55-.98,1.22-2.03,2.38-3.06,3.57-.79.91-3.08,2.87-3.21,4.1-.11,1.12,10.96,10.13,12.34,10.01,1.33-.12,2.21-1.92,2.96-2.84,1.9-2.34,3.8-4.67,5.69-7,7.63-9.39,7.71-9.39,15.12-18.95,2.23,1.3,10.31,9.23,13.69,11.65.54.39.94.46,1.19.41Z"/>
          <path class="cls-10" d="M443.4,385.45c.28-.06.44-.37.68-.99.34-.88.44-1.94.6-2.86.93-5.44,1.4-10.96,1.97-16.44.58-5.58,1.06-10.6,1.63-16.18.28-2.67.87-9.48.51-12.76-.21-1.92-2.89-.62-4.08-.3-5.82,1.57-17.54,5.47-22.05,7.1-3.59,1.29-17.32,6.26-20.82,7.86-1.34.61-.85.93.09,1.81,1.6,1.5,3.37,2.84,5.1,4.19.56.44,8.56,6.52,8.45,6.65-8.11,10.12-4.02,5.02-9.97,12.45-2.28,2.85-11.67,13.87-12.33,14.93-.33.53-.63,1.04-.36,1.63.59,1.26,1.93,2.23,2.92,3.17,1.02.97,2.07,1.91,3.13,2.84,1.58,1.38,3.28,3.15,5.19,4.08.12.06.24.14.37.15.92.09,2.52-2.49,3.27-3.42,1.9-2.34,3.82-4.65,5.69-7,11.72-14.66,2.41-2.96,14.78-18.52,2.23,1.3,10.65,8.8,14.04,11.22.54.39.94.46,1.19.41Z"/>
        </g>
      </g>
      <g>
        <path class="cls-15" d="M522.33,201.25c-2.67-1.39-5.07-3.19-7.35-5.13-15.23-13-23.32-29.51-23.89-49.54-.35-12.38,2.71-24,9.06-34.63,10.62-17.77,26.32-28.27,46.66-31.73,9.79-1.66,19.49-.86,29.02,2.01,13.93,4.21,25.3,12.13,33.93,23.79,9.51,12.84,14.02,27.38,12.79,43.32-1.81,23.59-12.99,41.65-33.58,53.41-14.59,8.33-30.34,10.33-46.78,6.78-.28-.06-.53-.2-.8-.3.06-.2.11-.4.19-.59,5.7-13.63,11.4-27.26,17.1-40.89.12-.29.16-.65.68-.83l13.87,5.8c3.35-5.49,6.64-10.88,10.03-16.42-5.68-2.38-11.23-4.7-16.77-7.01,1.85-4.43,3.51-8.78,5.48-12.99,1.78-3.81,5.59-5.5,9.76-4.77,2.18.38,4.15,1.31,6.16,2.14,1.58.65,3.16,1.32,4.73,1.98.17-.23.26-.31.3-.42,1.91-4.55,3.8-9.12,5.74-13.66.33-.78-.1-1.02-.61-1.33-3.52-2.14-7.15-4.06-10.91-5.75-3.67-1.65-7.46-2.86-11.51-2.97-9.87-.27-16.56,4.74-21.02,13.11-2.62,4.9-4.37,10.21-6.6,15.29-.19.44-.27.95-.79,1.37-5.02-2.1-10.09-4.22-15.15-6.34-2.46,5.89-4.87,11.64-7.33,17.53,5.12,2.14,10.18,4.26,15.28,6.39-.15.43-.25.74-.37,1.04-5.67,13.56-11.34,27.11-17.01,40.67-.09.23-.22.44-.33.66Z"/>
        <path class="cls-19" d="M522.33,201.25c.11-.22.24-.43.33-.66,5.67-13.55,11.34-27.11,17.01-40.67.12-.3.22-.61.37-1.04-5.1-2.13-10.16-4.25-15.28-6.39,2.46-5.88,4.87-11.64,7.33-17.53,5.07,2.12,10.13,4.24,15.15,6.34.51-.43.59-.94.79-1.37,2.23-5.09,3.99-10.39,6.6-15.29,4.46-8.36,11.15-13.38,21.02-13.11,4.04.11,7.84,1.32,11.51,2.97,3.76,1.69,7.39,3.6,10.91,5.75.51.31.95.55.61,1.33-1.94,4.54-3.83,9.1-5.74,13.66-.04.11-.14.19-.3.42-1.57-.65-3.14-1.32-4.73-1.98-2.01-.83-3.98-1.76-6.16-2.14-4.16-.73-7.98.96-9.76,4.77-1.97,4.21-3.63,8.56-5.48,12.99,5.53,2.31,11.09,4.64,16.77,7.01-3.38,5.54-6.68,10.93-10.03,16.42l-13.87-5.8c-.52.18-.56.54-.68.83-5.71,13.63-11.41,27.26-17.1,40.89-.08.19-.13.39-.19.59-1.33-.02-2.54-.54-3.79-.91-5.32-1.6-10.29-3.98-15.07-6.79-.1-.06-.15-.19-.23-.28Z"/>
      </g>
      <g>
        <rect class="cls-17" x="754.26" y="645.21" width="107.06" height="107.06" rx="19.1" ry="19.1" transform="translate(-184.72 304.17) rotate(-19.18)"/>
        <g>
          <path class="cls-11" d="M772.41,716.92c-.75-2.3-1.56-4.58-2.4-6.85-1.09-3.24-2.16-6.49-3.26-9.72-.86-2.53-1.63-5.09-2.18-7.7-.41-1.92-.57-3.89-.47-5.87.01-.19,0-.39,0-.58.15-1.66.4-3.31.92-4.9.76-2.31,1.87-4.43,3.35-6.36,2.1-2.74,4.81-4.7,7.85-6.23,3.44-1.73,7.07-3.01,10.68-4.3,1.69-.61,3.38-1.23,5.07-1.84.22-.07.44-.12.66-.2,4.61-1.58,9.21-3.18,13.83-4.72,1.88-.63,3.8-1.16,5.72-1.67,3.3-.87,6.65-1.24,10.04-.7,5.94.94,10.57,3.97,13.94,8.94,1.45,2.14,2.55,4.45,3.49,6.85,2.75,7.02,5.14,14.16,7.61,21.28.65,1.88,1.29,3.78,1.86,5.68.57,1.88,1.21,3.75,1.65,5.67.7,3.12,1,6.26.53,9.45,0,.05.01.1.02.15-.13.6-.25,1.21-.4,1.8-.57,2.24-1.55,4.3-2.77,6.25-1.75,2.54-3.98,4.57-6.55,6.25-2.26,1.35-4.65,2.42-7.11,3.36-1.25.48-2.5.97-3.76,1.43-5.93,2.14-11.88,4.23-17.86,6.22-1.51.5-2.98,1.12-4.51,1.55-3.1.86-6.15,1.91-9.39,2.21-1.84.17-3.65.1-5.47-.11-1.28-.15-2.54-.4-3.74-.85-3.28-1.25-6.18-3.09-8.5-5.77-.27-.31-.47-.69-.87-.88-.04-.26-.21-.44-.36-.64-1.5-1.99-2.61-4.2-3.59-6.49-1.45-3.41-2.66-6.92-3.91-10.4-.04-.1-.09-.19-.13-.29ZM842.55,716.81c.58-.74.87-1.64,1.18-2.49,1.11-3.06.82-6.16.05-9.25-.03-.15-.04-.31-.08-.46-.42-1.42-.81-2.85-1.27-4.26-2.68-8.32-5.59-16.55-8.62-24.75-.81-2.2-1.68-4.38-2.88-6.41-1.98-3.35-4.74-5.72-8.57-6.7-2.69-.68-5.37-.37-8.02.25-3.71.87-7.32,2.1-10.92,3.36-5.7,1.99-11.42,3.91-17.07,6.02-2.34.88-4.71,1.71-6.94,2.87-2.17,1.12-4.13,2.52-5.6,4.49-2.5,3.36-3.06,7.14-2.37,11.18.35,2.06.99,4.04,1.6,6.03.99,3.2,2.03,6.39,3.18,9.54.83,2.35,1.65,4.69,2.48,7.04,0,.04,0,.07.01.1,1.65,4.61,3.13,9.29,5.3,13.7.67,1.36,1.45,2.66,2.53,3.74.26.4.6.73.95,1.04,3.25,2.94,7.09,3.91,11.37,3.32,2.86-.39,5.61-1.24,8.33-2.16,6.45-2.18,12.88-4.43,19.31-6.66,2.5-.87,4.98-1.79,7.4-2.85,2.06-.86,4.04-1.89,5.77-3.33,1.14-.96,2.17-2.02,2.87-3.36Z"/>
          <path class="cls-11" d="M790.36,708.97c-1.2-2.16-2.1-4.44-2.51-6.89-.4-2.39-.36-4.78.09-7.15.3-1.62.84-3.17,1.54-4.68,1.93-4.15,4.89-7.37,8.98-9.39,7.1-3.51,14.07-3.17,20.74,1.22,4.03,2.65,6.6,6.41,8.03,10.97.57,1.8.79,3.67.84,5.56-.06,1.58-.18,3.15-.55,4.69-.52,2.2-1.41,4.23-2.55,6.17-1.06,1.57-2.22,3.05-3.65,4.3-4.14,3.62-8.95,5.33-14.45,5.17-1.97-.06-3.88-.41-5.73-1.08-4.64-1.7-8.24-4.66-10.79-8.9ZM817.08,708.02c.25-.27.53-.51.75-.81.8-1.07,1.57-2.17,2.08-3.43.76-1.87,1.15-3.79.97-5.81.06-.64-.1-1.25-.22-1.86-.22-1.14-.67-2.19-1.19-3.25-.64-1.31-1.45-2.44-2.46-3.45-6.32-6.34-17.08-4.48-21.04,3.64-1.12,2.3-1.55,4.73-1.19,7.27-.03.59.15,1.14.3,1.69.59,2.11,1.55,4.02,3.08,5.62.09.11.17.22.27.32,5.06,5.19,13.53,5.22,18.63.07Z"/>
          <path class="cls-11" d="M825.24,670.48c.83,2.41-.48,5.13-2.92,5.95-2.51.85-5.15-.38-6.06-3.02-.81-2.36.55-5.05,2.96-5.89,2.45-.85,5.16.47,6.01,2.96Z"/>
        </g>
      </g>
    </g>
  </g>
</svg>