<svg width="65" height="65" viewBox="0 0 65 65" fill="none" xmlns="http://www.w3.org/2000/svg">
<g id="Completely Original 1">
<path id="Vector" d="M10.881 35.7494C11.0305 34.3974 11.1735 33.0129 11.336 31.6284C11.4707 30.5523 11.2853 29.4603 10.803 28.4889C10.283 27.4294 9.74354 26.3764 9.22354 25.3234C8.66911 24.3248 8.4769 23.1652 8.67946 22.041C8.88202 20.9169 9.4669 19.8973 10.335 19.1549C11.076 18.4594 11.804 17.7509 12.558 17.0684C13.6074 16.1355 14.322 14.8843 14.5925 13.5064C14.833 12.4144 15.0735 11.3224 15.366 10.2564C15.6167 9.29696 16.1567 8.4379 16.9125 7.79597C17.6684 7.15404 18.6036 6.76037 19.591 6.66845C21.0405 6.51895 22.4965 6.45395 23.9525 6.34345C24.8884 6.24217 25.7775 5.88203 26.52 5.30345C27.443 4.63395 28.3595 3.95145 29.25 3.24945C30.1504 2.49048 31.29 2.07422 32.4675 2.07422C33.6451 2.07422 34.7847 2.49048 35.685 3.24945L38.35 5.19945C39.3797 5.95859 40.62 6.37882 41.899 6.40195C43.082 6.45395 44.265 6.50595 45.4415 6.62945C46.4277 6.7274 47.36 7.12597 48.1122 7.7712C48.8643 8.41643 49.4001 9.27718 49.647 10.2369C49.933 11.2964 50.18 12.3624 50.4075 13.4349C50.689 14.8766 51.444 16.1829 52.5525 17.1464C53.2805 17.7964 53.9825 18.4464 54.691 19.1419C55.5468 19.8812 56.1242 20.8908 56.3276 22.0032C56.5309 23.1157 56.348 24.2642 55.809 25.2584C55.406 26.0709 55.016 26.8964 54.574 27.6829C53.757 29.0807 53.4557 30.7206 53.7225 32.3174C53.859 33.1754 53.937 34.0399 54.054 34.9174C54.2597 36.0645 54.0603 37.2473 53.49 38.2635C52.9196 39.2797 52.0138 40.066 50.9275 40.4879C49.9395 40.9169 48.9775 41.3459 47.957 41.7554C46.7751 42.2434 45.7736 43.086 45.0905 44.1669C44.5315 45.0336 43.966 45.9003 43.394 46.7669C42.8007 47.7835 41.8686 48.5589 40.7609 48.957C39.6532 49.3551 38.4408 49.3507 37.336 48.9444C36.3675 48.6519 35.386 48.3789 34.424 48.0669C33.1674 47.6574 31.8132 47.6574 30.5565 48.0669C29.4905 48.4049 28.4072 48.7234 27.3065 49.0224C26.287 49.3351 25.1934 49.3076 24.1909 48.9441C23.1884 48.5806 22.3313 47.9008 21.749 47.0074C21.099 46.0844 20.501 45.1419 19.903 44.1994C19.1985 43.0827 18.162 42.2144 16.939 41.7164C15.8795 41.2874 14.82 40.8584 13.793 40.3644C12.9059 39.9691 12.1559 39.3197 11.6376 38.4983C11.1193 37.6769 10.856 36.7204 10.881 35.7494ZM32.5 10.3214C29.4686 10.3292 26.5074 11.2349 23.9903 12.9243C21.4732 14.6137 19.5131 17.011 18.3574 19.8136C17.2018 22.6161 16.9024 25.6982 17.4971 28.6708C18.0919 31.6434 19.554 34.3731 21.6989 36.5153C23.8439 38.6575 26.5754 40.1162 29.5487 40.7071C32.522 41.2981 35.6038 40.9948 38.4049 39.8356C41.206 38.6764 43.6008 36.7132 45.287 34.194C46.9732 31.6748 47.8752 28.7124 47.879 25.6809C47.8825 23.6613 47.4869 21.6609 46.715 19.7945C45.9431 17.9282 44.8101 16.2328 43.3811 14.8056C41.9521 13.3784 40.2552 12.2475 38.3879 11.478C36.5206 10.7085 34.5197 10.3154 32.5 10.3214Z" fill="white"/>
<path id="Vector_2" d="M22.438 62.9207C21.0795 60.5872 19.7925 58.4097 18.538 56.2062C18.4723 56.0353 18.3424 55.8968 18.1761 55.8203C18.0097 55.7438 17.82 55.7354 17.6475 55.7967C15.327 56.2387 12.9935 56.6287 10.66 57.0317C10.478 57.0642 10.2895 57.0772 10.01 57.1097L16.354 43.5117C16.9722 43.9976 17.5524 44.53 18.0895 45.1042C18.7028 45.8823 19.2527 46.7083 19.734 47.5742C20.4927 48.9459 21.6837 50.0282 23.1215 50.6525C24.5594 51.2768 26.1633 51.408 27.6835 51.0257C27.7785 51.014 27.8745 51.014 27.9695 51.0257C26.117 54.9972 24.297 58.9167 22.438 62.9207Z" fill="white"/>
<path id="Vector_3" d="M49.9265 43.1348L55.016 54.9193L51.766 54.2693C50.297 53.9703 48.828 53.6778 47.359 53.3528C47.2158 53.2964 47.0562 53.2982 46.9142 53.3577C46.7722 53.4171 46.6589 53.5296 46.5985 53.6713C45.396 55.6213 44.174 57.5713 42.9585 59.5213C42.8155 59.7553 42.666 59.9828 42.445 60.3273C41.145 57.2723 39.845 54.3083 38.545 51.3053C39.26 51.2273 39.9295 51.2078 40.5795 51.0713C41.4653 50.8872 42.3059 50.5301 43.0533 50.0203C43.8006 49.5106 44.4399 48.8582 44.9345 48.1008C45.3375 47.5093 45.734 46.9048 46.0785 46.2743C46.8951 44.7597 48.2789 43.6307 49.9265 43.1348Z" fill="white"/>
<path id="Vector_4" d="M23.595 23.0683C23.595 21.8203 23.595 20.5788 23.595 19.3308C23.576 19.1789 23.6113 19.0253 23.6945 18.8969C23.7777 18.7684 23.9036 18.6735 24.05 18.6288C26.7345 17.4978 29.406 16.3408 32.0905 15.2098C32.357 15.1124 32.6494 15.1124 32.916 15.2098C35.6005 16.3408 38.272 17.4978 40.9565 18.6288C41.1052 18.6724 41.2335 18.7678 41.3182 18.8977C41.4028 19.0277 41.4382 19.1835 41.418 19.3373C41.418 21.6383 41.418 23.9393 41.418 26.2403C41.3721 28.6613 40.4765 30.9892 38.8878 32.8167C37.2992 34.6442 35.1186 35.855 32.7275 36.2373C32.4322 36.265 32.1345 36.2363 31.85 36.1528C29.4877 35.6716 27.3686 34.3784 25.8606 32.4975C24.3526 30.6167 23.551 28.2671 23.595 25.8568V23.0683ZM31.2455 26.3898C30.654 25.7983 30.069 25.1873 29.471 24.5958C28.873 24.0043 28.041 23.8678 27.4495 24.4268C26.858 24.9858 26.9035 25.7983 27.5795 26.4873C28.4461 27.3539 29.3128 28.2206 30.1795 29.0873C30.979 29.8998 31.681 29.8998 32.5 29.0678C34.1445 27.4233 35.75 25.7723 37.414 24.1213C37.5675 23.9781 37.7029 23.8166 37.817 23.6403C37.9291 23.4465 37.9892 23.2271 37.9917 23.0033C37.9941 22.7795 37.9387 22.5588 37.8308 22.3627C37.723 22.1666 37.5663 22.0016 37.3759 21.8838C37.1856 21.766 36.9681 21.6994 36.7445 21.6903C36.2927 21.7453 35.872 21.9488 35.5485 22.2688C34.086 23.5818 32.695 24.9728 31.2455 26.3898Z" fill="white"/>
</g>
</svg>
