<svg width="75" height="75" viewBox="0 0 75 75" fill="none" xmlns="http://www.w3.org/2000/svg">
<g id="100% Accuracy 1">
<g clip-path="url(#clip0_1429_4727)">
<path id="Vector" d="M38.475 13.43V24.5848C38.475 25.9348 38.475 25.9348 37.151 25.9953C34.9272 26.0206 32.7563 26.6769 30.8909 27.8877C29.0255 29.0985 27.5422 30.8142 26.6137 32.835C25.6852 34.8558 25.3497 37.0988 25.646 39.3029C25.9424 41.507 26.8586 43.5816 28.2879 45.2854C29.7173 46.9892 31.6011 48.252 33.7201 48.9271C35.8391 49.6021 38.1062 49.6616 40.2577 49.0985C42.4092 48.5355 44.3565 47.3731 45.8732 45.7465C47.3899 44.12 48.4135 42.0963 48.825 39.9107C48.9494 39.1405 49.0216 38.3628 49.0414 37.5828C49.0414 36.8213 49.4222 36.5617 50.1664 36.5877C51.4299 36.5877 52.6933 36.5877 53.9654 36.5877C54.9779 36.5877 55.1164 36.7261 55.125 37.7559C55.115 41.1683 54.1219 44.5055 52.2647 47.3683C50.4075 50.231 47.7647 52.498 44.6527 53.898C41.5407 55.298 38.0912 55.7716 34.7171 55.2623C31.3429 54.753 28.1869 53.2823 25.6267 51.0261C23.0666 48.77 21.2107 45.824 20.2812 42.5406C19.3517 39.2572 19.3879 35.7756 20.3855 32.5122C21.3831 29.2489 23.2998 26.3421 25.9063 24.1397C28.5128 21.9372 31.6987 20.5325 35.0827 20.0934C36.0606 19.9723 36.1991 19.8165 36.1991 18.804C36.1991 13.1963 36.1991 7.59727 36.1991 1.98958C36.1876 1.54747 36.3384 1.11646 36.6231 0.778036C36.7917 0.66124 36.9864 0.587547 37.19 0.563409C37.3937 0.539271 37.6002 0.565422 37.7914 0.639575C37.9761 0.759983 38.1313 0.920607 38.2451 1.10943C38.359 1.29825 38.4288 1.51039 38.4491 1.72996C38.5097 3.64246 38.4491 5.55496 38.4491 7.46746L38.475 13.43Z" fill="#060044"/>
<path id="Vector_2" d="M65.9251 36.5801H73.203C74.1376 36.5801 74.6655 36.9955 74.6741 37.7051C74.6828 38.4147 74.1289 38.856 73.2203 38.856H67.9674C66.9808 38.856 66.877 38.9512 66.7905 39.9551C66.345 45.7139 64.241 51.2204 60.7328 55.8089C56.7272 61.2009 50.9684 65.0289 44.4462 66.6349C43.3905 66.9032 43.0443 66.6349 43.0443 65.5445C43.0443 63.0695 43.0443 60.5945 43.0443 58.1108C43.008 57.7811 43.0935 57.4495 43.2848 57.1785C43.4761 56.9075 43.7599 56.7159 44.0828 56.6397C50.902 53.9051 55.3328 49.0416 56.977 41.8243C57.2158 40.6847 57.3548 39.5265 57.3924 38.3628C57.4876 36.632 57.4443 36.632 59.2357 36.632L65.9251 36.5801Z" fill="#060044"/>
<path id="Vector_3" d="M8.88753 38.8286H1.96446C1.74811 38.8286 1.53176 38.8286 1.31542 38.8286C1.15994 38.8345 1.00489 38.8088 0.859632 38.753C0.714377 38.6972 0.581936 38.6126 0.470312 38.5042C0.358688 38.3958 0.270199 38.2659 0.210192 38.1224C0.150185 37.9788 0.119907 37.8246 0.121187 37.669C0.119158 37.5128 0.150173 37.358 0.212197 37.2147C0.274222 37.0714 0.365853 36.9428 0.481079 36.8374C0.596304 36.7319 0.732519 36.6521 0.880785 36.603C1.02905 36.5539 1.18602 36.5368 1.34138 36.5527C3.07215 36.5527 4.80292 36.5527 6.53369 36.5527C7.99619 36.5527 8.00484 36.4834 8.1433 35.0123C8.47939 30.4467 9.87339 26.022 12.215 22.0883C14.5566 18.1546 17.7815 14.8198 21.6346 12.3479C24.086 10.7294 26.7793 9.5113 29.6135 8.7392C30.6779 8.43632 30.9981 8.67863 30.9981 9.78632C30.9981 12.4517 30.9981 15.1257 30.9981 17.7911C31.0262 18.0689 30.9545 18.3477 30.796 18.5776C30.6375 18.8074 30.4024 18.9734 30.1327 19.0459C23.2096 21.9104 18.9346 27.0161 17.5068 34.4152C17.3461 35.5337 17.2508 36.6606 17.2212 37.7902C17.1606 38.7248 17.0395 38.8373 16.1221 38.8373L8.88753 38.8286Z" fill="#060044"/>
<path id="Vector_4" d="M38.475 66.159C38.475 68.6427 38.475 71.1177 38.475 73.5927C38.475 74.6138 37.5577 75.2456 36.8135 74.7177C36.4708 74.4238 36.2566 74.0077 36.2164 73.5581C36.1558 71.8879 36.2164 70.2177 36.2164 68.5475C36.2164 67.5783 36.0865 67.4398 35.126 67.3533C28.9407 66.8396 23.0748 64.3887 18.3626 60.3492C13.6504 56.3098 10.3319 50.8874 8.87885 44.8533C8.63655 43.8494 8.80097 43.6158 9.79616 43.6158C12.3058 43.6158 14.8067 43.6158 17.3077 43.6158C17.5612 43.5876 17.8163 43.653 18.025 43.7996C18.2337 43.9462 18.3818 44.1639 18.4414 44.4119C21.2712 51.8629 26.6452 56.259 34.4769 57.6437C35.4091 57.7748 36.3483 57.85 37.2894 57.8687C38.4144 57.9206 38.501 57.9725 38.501 59.0629L38.475 66.159Z" fill="#060044"/>
<path id="Vector_5" d="M48.9461 21.0377C48.1933 18.2079 49.6038 16.356 51.6029 14.556C54.2596 12.1675 56.7086 9.54541 59.2442 7.00984C59.7029 6.54253 60.1788 6.14445 60.8625 6.43003C61.5461 6.71561 61.5808 7.36465 61.5721 8.01368C61.5721 9.68388 61.5721 11.3541 61.5721 13.0243C61.5721 13.7945 61.875 14.0887 62.6192 14.08C64.35 14.08 66.0808 14.08 67.8115 14.08C68.3827 14.08 68.9106 14.1579 69.1529 14.755C69.3952 15.3521 69.0923 15.8021 68.6596 16.2348C65.4577 19.3906 62.2846 22.5637 59.1404 25.7541C58.9229 25.9965 58.6557 26.1893 58.357 26.3192C58.0584 26.4491 57.7352 26.5131 57.4096 26.507C55.549 26.4637 53.6884 26.507 51.8365 26.507C51.4892 26.4939 51.1432 26.5559 50.8221 26.6888C50.501 26.8217 50.2124 27.0224 49.9759 27.2771C46.2086 31.0618 42.4298 34.8118 38.6394 38.5271C38.4952 38.6858 38.3421 38.836 38.1808 38.9771C38.0794 39.0873 37.9564 39.1752 37.8193 39.2354C37.6823 39.2955 37.5343 39.3266 37.3846 39.3266C37.2349 39.3266 37.0869 39.2955 36.9499 39.2354C36.8128 39.1752 36.6898 39.0873 36.5884 38.9771C36.4827 38.8732 36.3988 38.7493 36.3415 38.6126C36.2842 38.4759 36.2546 38.3292 36.2546 38.181C36.2546 38.0328 36.2842 37.886 36.3415 37.7493C36.3988 37.6126 36.4827 37.4887 36.5884 37.3848C36.7269 37.2204 36.8913 37.0733 37.0471 36.9175C40.8029 33.1704 44.5413 29.4146 48.2971 25.6675C48.5573 25.4377 48.7613 25.1513 48.8934 24.8302C49.0254 24.5091 49.082 24.162 49.0586 23.8156C48.9115 22.9243 48.9461 21.981 48.9461 21.0377Z" fill="#060044"/>
<path id="Vector_6" d="M38.475 30.227C38.5341 30.5879 38.4899 30.9582 38.3475 31.2951C38.2051 31.632 37.9702 31.9217 37.6701 32.1308C36.5538 33.178 35.498 34.303 34.4423 35.4106C33.7035 36.1644 33.2904 37.1783 33.2921 38.2338C33.2938 39.2892 33.7101 40.3018 34.4513 41.0532C35.1925 41.8046 36.1993 42.2347 37.2546 42.2509C38.31 42.267 39.3294 41.8679 40.0932 41.1395C41.5211 39.7895 42.8884 38.3703 44.2817 36.9856C44.5767 36.7417 44.9343 36.5856 45.3138 36.5351C45.6933 36.4846 46.0793 36.5417 46.4278 36.7001C46.6925 36.9475 46.8481 37.2899 46.8605 37.652C46.8801 39.5045 46.3548 41.3219 45.3498 42.8783C44.3448 44.4347 42.9046 45.6613 41.208 46.4057C39.5115 47.15 37.6337 47.3793 35.8079 47.065C33.9821 46.7508 32.289 45.9067 30.939 44.6379C29.5891 43.3691 28.6419 41.7315 28.2152 39.9287C27.7884 38.1259 27.901 36.2374 28.539 34.498C29.1769 32.7587 30.312 31.2453 31.8032 30.1459C33.2943 29.0465 35.0757 28.4096 36.9259 28.3145C38.3278 28.2539 38.475 28.3837 38.475 29.7597V30.227Z" fill="#060044"/>
</g>
</g>
<defs>
<clipPath id="clip0_1429_4727">
<rect width="75" height="75" rx="1" fill="white"/>
</clipPath>
</defs>
</svg>
