<svg width="54" height="55" viewBox="0 0 54 55" fill="none" xmlns="http://www.w3.org/2000/svg">
<g id="unique 2">
<path id="Vector" d="M3.88098 4.22949H24.7986C24.7986 4.42145 24.756 4.6134 24.756 4.80535C24.756 11.3744 24.756 17.9506 24.756 24.5339V25.0778H3.88098V4.22949Z" fill="white"/>
<path id="Vector_2" d="M49.646 29.0771V49.9948H28.803V29.1251H49.0648C49.2621 29.1198 49.454 29.0931 49.646 29.0771Z" fill="white"/>
<path id="Vector_3" d="M49.646 15.5814C49.5287 16.1786 49.438 16.7811 49.2834 17.3677C48.7929 19.1994 47.8126 20.8629 46.4477 22.1794C45.0828 23.4958 43.385 24.4154 41.5368 24.8394C39.6885 25.2634 37.7596 25.1757 35.9574 24.5858C34.1552 23.9959 32.5479 22.926 31.308 21.4912C30.0682 20.0564 29.2428 18.3108 28.9206 16.4421C28.5983 14.5734 28.7914 12.6522 29.479 10.885C30.1666 9.11776 31.3228 7.57132 32.8233 6.41185C34.3238 5.25237 36.1119 4.5237 37.9954 4.30414C38.0967 4.28682 38.1965 4.26187 38.294 4.22949H40.1709C40.2665 4.26356 40.3645 4.29029 40.4642 4.30947C42.4868 4.54976 44.3942 5.37946 45.949 6.69535C47.5038 8.01124 48.6374 9.75523 49.2087 11.7104C49.3954 12.3609 49.502 13.038 49.646 13.7045V15.5814Z" fill="white"/>
<path id="Vector_4" d="M3.91296 29.1514H24.708V49.973H3.91296V29.1514Z" fill="white"/>
</g>
</svg>
