<svg width="65" height="65" viewBox="0 0 65 65" fill="none" xmlns="http://www.w3.org/2000/svg">
<g id="polish 1" clip-path="url(#clip0_1429_4759)">
<g id="Group 38608">
<g id="Group 38607">
<path id="Vector" d="M-0.0443726 36.7325L9.10733 33.3274L16.0062 30.7643C17.3454 30.2894 18.5599 29.5179 19.5589 28.5074C20.5579 27.4969 21.3154 26.2737 21.7749 24.9291C23.6462 19.8768 25.5248 14.827 27.4107 9.77965C27.4846 9.57283 27.5659 9.3734 27.6988 9.04102C27.8244 9.33647 27.913 9.51374 27.9795 9.70579C29.863 14.7728 31.7613 19.7956 33.6153 24.8552C34.092 26.2506 34.8836 27.5175 35.9289 28.5576C36.9741 29.5977 38.2448 30.3831 39.6426 30.8529C44.7244 32.7069 49.7914 34.6126 54.8585 36.4961C55.0062 36.5478 55.1391 36.6143 55.3903 36.7251C55.1465 36.8433 54.9914 36.9319 54.8289 36.991C49.7323 38.8918 44.6382 40.7827 39.5465 42.6637C38.1799 43.1287 36.9373 43.8993 35.9133 44.9169C34.8894 45.9345 34.111 47.1722 33.6374 48.5359C31.7662 53.6029 29.8852 58.6749 27.9943 63.7518C27.9204 63.9439 27.8391 64.1433 27.7062 64.4904C27.5437 64.0916 27.4255 63.8257 27.3221 63.545C25.4755 58.5592 23.6289 53.566 21.7749 48.5728C21.3112 47.2177 20.5457 45.9856 19.5361 44.9696C18.5265 43.9537 17.2993 43.1803 15.9471 42.7081L0.738582 37.0353L-0.0443726 36.7325Z" fill="white"/>
<path id="Vector_2" d="M65.0444 19.0492C63.4932 19.6253 61.9716 20.3344 60.3836 20.7554C59.6388 20.8981 58.9536 21.2596 58.4154 21.7938C57.8772 22.328 57.5107 23.0106 57.3625 23.7543C56.9461 25.159 56.4529 26.5399 55.8853 27.8907C55.8114 28.0901 55.7154 28.2895 55.5898 28.585C54.7921 26.4503 54.0165 24.4338 53.2927 22.3952C53.2185 22.1354 53.0802 21.8984 52.8905 21.7061C52.7007 21.5138 52.4656 21.3723 52.2069 21.2946C50.1904 20.556 48.1887 19.8174 46.0097 18.9901L46.6819 18.702C48.5506 18.0077 50.375 17.2986 52.2955 16.6338C52.5215 16.5615 52.7268 16.4358 52.8939 16.2674C53.061 16.099 53.1851 15.8928 53.2557 15.6662C53.9944 13.6054 54.7773 11.5594 55.5824 9.37305C55.7154 9.68327 55.8114 9.88271 55.8927 10.1117C56.587 11.973 57.2887 13.8418 57.9608 15.7179C58.0289 15.93 58.147 16.1226 58.3051 16.2794C58.4632 16.4362 58.6568 16.5527 58.8694 16.6191C60.9228 17.3577 62.9762 18.1333 65.0222 18.8941L65.0444 19.0492Z" fill="white"/>
<path id="Vector_3" d="M41.4449 10.7781C41.0461 9.71445 40.662 8.83548 40.3887 7.91957C40.3123 7.62273 40.1564 7.35236 39.9377 7.1376C39.7191 6.92283 39.4459 6.77181 39.1478 6.70082C38.2466 6.41275 37.3603 6.03604 36.3262 5.64457C37.4784 5.21616 38.4904 4.90593 39.4654 4.45536C39.7911 4.27944 40.0505 4.00191 40.204 3.66502C40.6324 2.69002 40.9426 1.67809 41.4006 0.533203C41.8364 1.67809 42.1392 2.69002 42.5972 3.65763C42.7759 4.0122 43.0667 4.29783 43.4245 4.47014C44.3773 4.89116 45.3745 5.20877 46.5341 5.64457C45.4779 6.04343 44.6063 6.42752 43.6978 6.70082C43.3926 6.77815 43.1144 6.93736 42.8931 7.16126C42.6718 7.38515 42.5158 7.66524 42.4421 7.97127C42.1909 8.86502 41.829 9.73661 41.4449 10.7781Z" fill="white"/>
</g>
</g>
</g>
<defs>
<clipPath id="clip0_1429_4759">
<rect width="65" height="65" fill="white"/>
</clipPath>
</defs>
</svg>
