<svg width="50" height="46" viewBox="0 0 50 46" fill="none" xmlns="http://www.w3.org/2000/svg">
<g id="seo 2" clip-path="url(#clip0_1429_4874)">
<path id="Vector" d="M33.5 10.0706L37.625 14.1896C37.1607 14.7849 36.6786 15.4932 36.1726 16.148C36.0697 16.2452 36.0048 16.3758 35.9895 16.5165C35.9743 16.6573 36.0096 16.7988 36.0893 16.9158C36.409 17.5353 36.6816 18.178 36.9048 18.8384C36.9395 18.9865 37.0229 19.1186 37.1416 19.2136C37.2603 19.3086 37.4075 19.3609 37.5595 19.3623C38.3572 19.4694 39.1607 19.5944 39.9822 19.7134V25.5349C39.1786 25.6539 38.3869 25.7849 37.6012 25.8861C37.4409 25.8889 37.2862 25.9457 37.162 26.0472C37.0378 26.1487 36.9514 26.289 36.9167 26.4456C36.7087 27.0881 36.4499 27.7131 36.1429 28.3146C36.0608 28.4394 36.0243 28.5886 36.0395 28.7372C36.0546 28.8858 36.1206 29.0245 36.2262 29.1301C36.7322 29.767 37.1965 30.4277 37.6429 31.0289L33.4762 35.1539C32.881 34.7194 32.2262 34.2551 31.5893 33.7551C31.482 33.6486 31.3416 33.5817 31.1913 33.5655C31.0409 33.5493 30.8895 33.5847 30.7619 33.6658C30.1368 33.9663 29.4948 34.2306 28.8393 34.4575C28.7037 34.489 28.5823 34.5644 28.494 34.6721C28.4057 34.7797 28.3555 34.9136 28.3512 35.0527C28.2789 35.7627 28.1676 36.4681 28.0179 37.1658C27.984 37.2585 27.9277 37.3412 27.8539 37.4067C27.7801 37.4721 27.6913 37.5182 27.5953 37.5408C25.9167 37.5646 24.2342 37.5646 22.5476 37.5408C22.4527 37.5173 22.3651 37.4708 22.2924 37.4054C22.2197 37.34 22.1643 37.2577 22.131 37.1658C21.9822 36.4456 21.9107 35.7134 21.7619 34.9992C21.7324 34.891 21.6813 34.7899 21.6117 34.7019C21.5422 34.614 21.4556 34.541 21.3572 34.4873C20.6965 34.1777 20.0119 33.892 19.3274 33.6539C19.2197 33.617 19.1057 33.6021 18.9922 33.6103C18.8787 33.6185 18.7679 33.6495 18.6667 33.7015C17.9524 34.1837 17.2619 34.7015 16.6667 35.1777L12.5 31.0408C12.9345 30.4456 13.4048 29.7789 13.9167 29.1301C14.0238 29.0242 14.0907 28.8842 14.1059 28.7344C14.1211 28.5845 14.0837 28.434 14 28.3087C13.6974 27.7266 13.4464 27.1191 13.25 26.4932C13.2073 26.3223 13.1084 26.1706 12.9691 26.0627C12.8299 25.9547 12.6584 25.8967 12.4822 25.898C11.7143 25.8087 10.9524 25.6777 10.1548 25.5527V19.7313C10.9226 19.6123 11.7143 19.4694 12.5357 19.3742C12.7065 19.3724 12.8715 19.3125 13.0035 19.2042C13.1355 19.096 13.2267 18.946 13.2619 18.7789C13.4573 18.1526 13.7083 17.545 14.0119 16.9634C14.1006 16.8309 14.1402 16.6715 14.1239 16.5128C14.1076 16.3542 14.0364 16.2062 13.9226 16.0944C13.4226 15.4754 12.9524 14.8027 12.5 14.1896L16.6131 10.0646C17.256 10.5408 17.9226 11.0587 18.625 11.523C18.733 11.5802 18.8517 11.6146 18.9736 11.6238C19.0955 11.633 19.218 11.6169 19.3334 11.5765C20.0078 11.3417 20.6694 11.0715 21.3155 10.767C21.5165 10.6663 21.6702 10.4912 21.7441 10.2789C21.8929 9.55869 22 8.8325 22.0834 8.10631C22.125 7.78488 22.2441 7.67773 22.5595 7.67773C24.2262 7.67773 25.8869 7.67773 27.5536 7.67773C27.8631 7.67773 27.9881 7.77893 28.0298 8.10035C28.1072 8.80869 28.2619 9.51107 28.3393 10.2194C28.342 10.3503 28.3878 10.4766 28.4696 10.5788C28.5514 10.6811 28.6646 10.7535 28.7917 10.7849C29.4641 11.0222 30.1237 11.2944 30.7679 11.6004C30.8892 11.6747 31.0318 11.7063 31.1732 11.6901C31.3145 11.6739 31.4463 11.6109 31.5476 11.5111C32.1905 11.017 32.8572 10.5468 33.5 10.0706ZM25.0834 30.7849C26.6981 30.7778 28.2745 30.2918 29.6129 29.3884C30.9514 28.485 31.9917 27.2048 32.6023 25.7099C33.2129 24.215 33.3663 22.5726 33.043 20.9905C32.7197 19.4084 31.9343 17.9578 30.7863 16.8222C29.6382 15.6867 28.1791 14.9172 26.5935 14.6113C25.008 14.3054 23.3673 14.4767 21.8792 15.1036C20.3911 15.7306 19.1224 16.7849 18.2337 18.1331C17.345 19.4814 16.8763 21.063 16.8869 22.6777C16.8995 24.8395 17.77 26.9078 19.3069 28.428C20.8439 29.9482 22.9216 30.796 25.0834 30.7849Z" fill="white"/>
<path id="Vector_2" d="M43.7857 14.6554C43.1766 13.1295 42.3528 11.6984 41.3393 10.4054C36.5774 4.38755 30.3452 1.53636 22.7262 2.41731C14.7202 3.33993 9.13094 7.77445 6.08927 15.2506C5.54224 16.8788 5.12038 18.5463 4.82737 20.2387C4.67261 20.8995 4.30356 21.2387 3.72023 21.1435C3.59063 21.1197 3.46749 21.0689 3.35878 20.9944C3.25008 20.9199 3.15823 20.8234 3.0892 20.7112C3.02018 20.599 2.9755 20.4735 2.95808 20.3429C2.94066 20.2122 2.95089 20.0794 2.98809 19.953C3.31589 17.003 4.24255 14.151 5.71131 11.5717C7.18006 8.99247 9.15998 6.74023 11.5298 4.95302C15.6478 1.67322 20.8509 0.0663807 26.1012 0.453023C35.2143 1.07802 41.6667 5.68517 45.5119 13.9292C45.5595 14.0304 45.6131 14.1316 45.6845 14.2685L48.8095 13.6197C49.2678 13.5245 49.7083 13.4887 50 13.9173C50.1303 14.0985 50.2004 14.3161 50.2004 14.5393C50.2004 14.7625 50.1303 14.9801 50 15.1614C49.0536 16.9471 48.125 18.7328 47.1786 20.5542C46.7143 21.4352 46.1905 21.5483 45.4226 20.9292L40.6607 17.1018C40.2917 16.8102 39.9881 16.5066 40.1131 15.9828C40.2381 15.459 40.6726 15.2983 41.1488 15.203C42.0119 15.0364 42.8571 14.8459 43.7857 14.6554Z" fill="white"/>
<path id="Vector_3" d="M4.50601 31.1132C3.36316 31.3334 2.26197 31.5298 1.16078 31.7501C0.951323 31.8257 0.723283 31.8331 0.509396 31.7711C0.295509 31.709 0.106778 31.5808 -0.0297002 31.4048C-0.141142 31.2236 -0.195101 31.0129 -0.184476 30.8004C-0.173851 30.5879 -0.0991408 30.3836 0.0298239 30.2144C1.01792 28.4287 1.99411 26.6429 3.00601 24.8215C3.4584 23.9941 4.01792 23.881 4.7322 24.4763C6.32744 25.7977 7.90482 27.137 9.49411 28.4584C9.67474 28.5735 9.81524 28.7418 9.89626 28.9401C9.97727 29.1384 9.99482 29.3569 9.94649 29.5656C9.82149 30.0477 9.42863 30.1965 8.98816 30.2798C8.15482 30.4287 7.32149 30.5894 6.43459 30.756C7.02562 32.2003 7.81278 33.5563 8.77387 34.7858C13.9524 41.3334 20.7143 44.137 28.8929 42.6132C37.1429 41.0715 42.4227 35.8929 44.7679 27.7858C44.9951 26.8672 45.1739 25.9374 45.3036 25.0001C45.4167 24.3691 45.8036 24.0417 46.3632 24.1132C46.4926 24.1321 46.6166 24.1775 46.7276 24.2468C46.8385 24.316 46.9339 24.4075 47.0078 24.5154C47.0816 24.6233 47.1322 24.7454 47.1565 24.8739C47.1808 25.0024 47.1782 25.1345 47.1489 25.262C46.5698 30.1128 44.409 34.6378 41.0006 38.1376C37.5923 41.6374 33.126 43.9171 28.2922 44.6244C23.4585 45.3317 18.5263 44.4272 14.2581 42.0506C9.98986 39.674 6.62326 35.9578 4.67863 31.4763C4.63101 31.3691 4.57744 31.2679 4.50601 31.1132Z" fill="white"/>
<path id="Vector_4" d="M24.4048 23.8098L27.756 20.8634C27.8813 20.7429 28.0167 20.6334 28.1607 20.536C28.3401 20.4038 28.5631 20.3449 28.7843 20.3715C29.0055 20.398 29.2083 20.508 29.3512 20.6789C29.4351 20.7537 29.5022 20.8454 29.5482 20.948C29.5941 21.0505 29.6179 21.1617 29.6179 21.2741C29.6179 21.3865 29.5941 21.4976 29.5482 21.6002C29.5022 21.7028 29.4351 21.7945 29.3512 21.8693C27.9762 23.2146 26.4762 24.4943 25 25.7681C24.85 25.8968 24.659 25.9675 24.4613 25.9675C24.2637 25.9675 24.0726 25.8968 23.9226 25.7681C23.0774 25.1729 22.2322 24.5777 21.4048 23.917C21.2993 23.848 21.2091 23.7583 21.1396 23.6531C21.0702 23.548 21.023 23.4298 21.001 23.3057C20.979 23.1817 20.9826 23.0544 21.0117 22.9318C21.0407 22.8092 21.0946 22.6939 21.1699 22.5929C21.2452 22.4919 21.3405 22.4074 21.4497 22.3447C21.5589 22.2819 21.6799 22.2421 21.805 22.2279C21.9302 22.2136 22.057 22.2252 22.1775 22.2618C22.2981 22.2984 22.4099 22.3593 22.506 22.4408C23.1488 22.8872 23.7619 23.3515 24.4048 23.8098Z" fill="white"/>
</g>
<defs>
<clipPath id="clip0_1429_4874">
<rect width="50" height="45.2381" fill="white"/>
</clipPath>
</defs>
</svg>
