<svg width="75" height="75" viewBox="0 0 75 75" fill="none" xmlns="http://www.w3.org/2000/svg">
<g id="Content Scheduling 1">
<path id="Vector" d="M66.6 74.9326H8.3925C7.89403 74.7351 7.46872 74.3885 7.17472 73.9401C6.88072 73.4917 6.73239 72.9635 6.75 72.4276C6.75 51.3226 6.75 30.2201 6.75 9.1201C6.71416 8.785 6.75407 8.44613 6.86676 8.12851C6.97945 7.8109 7.16204 7.52265 7.40107 7.28507C7.64009 7.04749 7.92943 6.86663 8.24772 6.75586C8.56601 6.6451 8.90512 6.60724 9.24 6.6451H19.95C19.95 8.0926 19.95 9.4351 19.95 10.7701C19.9134 11.6743 20.0637 12.5764 20.3916 13.4198C20.7196 14.2633 21.218 15.03 21.8558 15.672C22.4936 16.314 23.257 16.8175 24.0983 17.151C24.9395 17.4845 25.8406 17.6408 26.745 17.6101C33.915 17.6101 41.08 17.6101 48.24 17.6101C48.8739 17.6131 49.506 17.5401 50.1225 17.3926C51.5138 17.0353 52.7487 16.2298 53.6366 15.1007C54.5245 13.9715 55.0159 12.5814 55.035 11.1451C55.035 9.6451 55.035 8.1901 55.035 6.6451H65.4225C67.44 6.6451 68.205 7.3951 68.205 9.4126C68.205 30.2726 68.205 51.1301 68.205 71.9851C68.25 73.3426 67.86 74.3476 66.6 74.9326ZM59.43 46.3351C59.43 39.8351 59.43 33.3351 59.43 26.8351C59.43 25.0276 58.6125 24.2101 56.7975 24.2101H18.2025C16.38 24.2101 15.5625 25.0201 15.5625 26.8276V65.6926C15.5625 67.5451 16.3725 68.3551 18.2325 68.3551H56.7525C58.62 68.3551 59.43 67.5526 59.43 65.7001C59.44 59.2451 59.44 52.7901 59.43 46.3351Z" fill="white"/>
<path id="Vector_2" d="M37.5 13.2307H26.895C25.185 13.2307 24.3375 12.3757 24.3375 10.6657C24.3375 7.96568 24.3375 5.26067 24.3375 2.55067C24.3007 2.21568 24.3396 1.87669 24.4513 1.55874C24.563 1.24079 24.7447 0.952001 24.983 0.713698C25.2213 0.475395 25.5101 0.293668 25.8281 0.181938C26.146 0.0702084 26.485 0.0313302 26.82 0.0681748H48.1725C48.5075 0.0313302 48.8465 0.0702084 49.1645 0.181938C49.4824 0.293668 49.7712 0.475395 50.0095 0.713698C50.2478 0.952001 50.4295 1.24079 50.5413 1.55874C50.653 1.87669 50.6919 2.21568 50.655 2.55067C50.655 5.28067 50.655 8.01067 50.655 10.7407C50.6919 11.0757 50.653 11.4147 50.5413 11.7326C50.4295 12.0506 50.2478 12.3393 50.0095 12.5777C49.7712 12.816 49.4824 12.9977 49.1645 13.1094C48.8465 13.2211 48.5075 13.26 48.1725 13.2232L37.5 13.2307Z" fill="white"/>
<path id="Vector_3" d="M33.165 38.25H55.005V44.025H33.165V38.25Z" fill="white"/>
<path id="Vector_4" d="M33.1425 54.2695V48.502H54.99V54.2695H33.1425Z" fill="white"/>
<path id="Vector_5" d="M55.0125 28.6348V33.8098H33.165V28.6348H55.0125Z" fill="white"/>
<path id="Vector_6" d="M54.99 63.9367H33.15V58.7617H54.99V63.9367Z" fill="white"/>
<path id="Vector_7" d="M19.9875 38.25H28.665V44.0175H19.9875V38.25Z" fill="white"/>
<path id="Vector_8" d="M28.6875 48.5176V54.2776H20.0025V48.5176H28.6875Z" fill="white"/>
<path id="Vector_9" d="M20.0025 28.6133H28.68V33.7883H20.0025V28.6133Z" fill="white"/>
<path id="Vector_10" d="M28.6725 63.9367H19.9875V58.7617H28.6725V63.9367Z" fill="white"/>
</g>
</svg>
