<svg width="75" height="75" viewBox="0 0 75 75" fill="none" xmlns="http://www.w3.org/2000/svg">
<g id="Engagement Strategies 1">
<path id="Vector" d="M63.8325 61.5C63.8325 63 63.8325 64.395 63.8325 65.7975C63.8325 66.255 64.035 66.8325 63.4425 67.08C62.85 67.3275 62.5425 66.78 62.205 66.435C60.81 64.995 59.4075 63.5625 58.05 62.085C57.8725 61.8816 57.6498 61.7227 57.3997 61.6211C57.1496 61.5195 56.8791 61.478 56.61 61.5C52.11 61.5 47.61 61.5 43.11 61.5C40.7175 61.5 39.4275 60.225 39.42 57.8475V42.27C39.42 39.9225 40.7175 38.625 43.0575 38.625H66.2025C68.565 38.625 69.87 39.93 69.87 42.3075C69.87 47.5075 69.87 52.705 69.87 57.9C69.87 60.15 68.535 61.5075 66.27 61.515C65.4825 61.5 64.695 61.5 63.8325 61.5ZM54.75 45.69C53.9819 45.1728 53.1715 44.7212 52.3275 44.34C51.8211 44.1408 51.2755 44.061 50.7332 44.1069C50.1908 44.1528 49.6664 44.3231 49.2006 44.6046C48.7348 44.8861 48.3402 45.2712 48.0474 45.73C47.7547 46.1888 47.5716 46.709 47.5125 47.25C47.4266 47.9786 47.4922 48.7172 47.7051 49.4193C47.9181 50.1214 48.2738 50.7719 48.75 51.33C50.2679 53.3214 52.1642 54.9934 54.33 56.25C54.4391 56.3014 54.5582 56.3281 54.6788 56.3281C54.7994 56.3281 54.9185 56.3014 55.0275 56.25C56.9219 55.1263 58.6236 53.7058 60.0675 52.0425C60.8666 51.1559 61.4426 50.0914 61.7475 48.9375C62.3775 46.23 60.435 43.8675 57.7875 44.1525C56.6297 44.3049 55.5584 44.8472 54.75 45.69Z" fill="white"/>
<path id="Vector_2" d="M17.115 7.83795C19.4783 7.84836 21.7854 8.55943 23.7445 9.8812C25.7036 11.203 27.2267 13.0761 28.1211 15.2636C29.0156 17.4511 29.2412 19.8547 28.7694 22.1704C28.2976 24.4862 27.1496 26.61 25.4706 28.2732C23.7917 29.9364 21.6572 31.0643 19.3371 31.5143C17.017 31.9642 14.6156 31.716 12.4367 30.801C10.2577 29.886 8.399 28.3454 7.09574 26.3739C5.79248 24.4024 5.10317 22.0887 5.11502 19.7254C5.13485 16.5593 6.40908 13.5302 8.65845 11.3019C10.9078 9.07361 13.9488 7.82796 17.115 7.83795ZM22.545 13.7555C22.2869 13.4359 21.9837 13.1554 21.645 12.9229C21.4304 12.8261 21.1867 12.8156 20.9646 12.8939C20.7425 12.9721 20.5591 13.1329 20.4525 13.343C17.6625 17.213 14.8775 21.0879 12.0975 24.9679C11.9969 25.0791 11.9214 25.2106 11.8762 25.3536C11.831 25.4966 11.8172 25.6476 11.8358 25.7964C11.8543 25.9452 11.9047 26.0882 11.9835 26.2158C12.0623 26.3433 12.1677 26.4524 12.2925 26.5354C12.4155 26.6202 12.5548 26.6783 12.7015 26.7062C12.8482 26.734 12.9991 26.7308 13.1446 26.6969C13.29 26.663 13.4268 26.5991 13.5461 26.5094C13.6654 26.4196 13.7647 26.3058 13.8375 26.1754C16.5975 22.3455 19.3475 18.5055 22.0875 14.6555C22.2623 14.3673 22.4152 14.0665 22.545 13.7555ZM13.6575 18.7504C14.2642 18.746 14.8559 18.5617 15.3579 18.221C15.8598 17.8802 16.2494 17.3983 16.4775 16.8361C16.7055 16.2739 16.7617 15.6567 16.639 15.0625C16.5163 14.4684 16.2201 13.924 15.788 13.4981C15.3559 13.0723 14.8072 12.7842 14.2113 12.6702C13.6154 12.5562 12.9991 12.6214 12.4403 12.8577C11.8815 13.094 11.4054 13.4906 11.072 13.9975C10.7386 14.5044 10.5631 15.0988 10.5675 15.7055C10.5705 16.1083 10.6527 16.5066 10.8096 16.8776C10.9665 17.2487 11.1949 17.5852 11.4819 17.8679C11.7688 18.1507 12.1086 18.3742 12.4819 18.5256C12.8552 18.677 13.2547 18.7534 13.6575 18.7504ZM20.5125 27.0004C21.1192 26.9975 21.7114 26.8147 22.2142 26.4751C22.717 26.1356 23.1078 25.6546 23.3372 25.093C23.5666 24.5313 23.6243 23.9143 23.5031 23.3198C23.3818 22.7254 23.087 22.1802 22.6559 21.7534C22.2248 21.3265 21.6768 21.037 21.0812 20.9215C20.4856 20.8061 19.8691 20.8698 19.3098 21.1048C18.7504 21.3397 18.2733 21.7352 17.9387 22.2412C17.6041 22.7473 17.4271 23.3413 17.43 23.9479C17.436 24.7609 17.7636 25.5384 18.3412 26.1104C18.9189 26.6824 19.6996 27.0025 20.5125 27.0004Z" fill="white"/>
<path id="Vector_3" d="M54.66 36.4505V17.903C54.66 16.943 54.81 16.793 55.77 16.793C57.3975 16.793 59.0325 16.793 60.66 16.793C61.41 16.793 61.605 16.9955 61.605 17.738C61.605 23.813 61.605 29.893 61.605 35.978C61.605 36.1205 61.605 36.2705 61.56 36.4505H54.66Z" fill="white"/>
<path id="Vector_4" d="M35.7375 47.3858H28.8225C28.8225 47.1608 28.8225 46.9433 28.8225 46.7333C28.8225 41.7583 28.8225 36.7833 28.8225 31.8083C28.8225 30.8483 28.9875 30.6833 29.925 30.6758C31.575 30.6758 33.225 30.6758 34.875 30.6758C35.5725 30.6758 35.7975 30.8933 35.7975 31.5758C35.7975 36.7258 35.7975 41.8783 35.7975 47.0333C35.784 47.1518 35.764 47.2695 35.7375 47.3858Z" fill="white"/>
<path id="Vector_5" d="M41.7225 36.4791V34.7841C41.7225 31.3141 41.7225 27.8391 41.7225 24.3591C41.7225 23.6091 41.91 23.3691 42.675 23.3691C44.37 23.3691 46.065 23.3691 47.76 23.3691C48.345 23.3691 48.69 23.5941 48.69 24.2091C48.69 28.2091 48.69 32.2091 48.69 36.2091C48.6768 36.3012 48.6542 36.3917 48.6225 36.4791H41.7225Z" fill="white"/>
<path id="Vector_6" d="M37.26 52.9576H13.665C12.5775 52.9576 12.4725 52.8451 12.4725 51.7351C12.4725 51.2476 12.4725 50.7601 12.4725 50.2801C12.4604 50.1787 12.4715 50.0759 12.505 49.9794C12.5384 49.8829 12.5933 49.7953 12.6655 49.7231C12.7377 49.6509 12.8253 49.596 12.9218 49.5626C13.0183 49.5292 13.1211 49.5181 13.2225 49.5301H36.81H37.26V52.9576Z" fill="white"/>
<path id="Vector_7" d="M15.9 47.3928C15.9 47.2128 15.855 47.0703 15.855 46.9203V38.6703C15.855 37.9203 16.065 37.6953 16.8375 37.6953H21.9225C22.5075 37.6953 22.8375 37.9203 22.83 38.5503C22.83 41.4078 22.83 44.2728 22.83 47.1303C22.8229 47.2235 22.8104 47.3161 22.7925 47.4078L15.9 47.3928Z" fill="white"/>
<path id="Vector_8" d="M14.61 15.6516C14.612 15.9056 14.5141 16.1502 14.3373 16.3327C14.1605 16.5151 13.919 16.6207 13.665 16.6266C13.5387 16.6285 13.4132 16.6054 13.2959 16.5584C13.1786 16.5114 13.0718 16.4416 12.9818 16.3529C12.8917 16.2643 12.8202 16.1586 12.7714 16.0421C12.7226 15.9255 12.6975 15.8004 12.6975 15.6741C12.7187 15.4351 12.8286 15.2127 13.0056 15.0507C13.1826 14.8887 13.4138 14.7988 13.6538 14.7988C13.8937 14.7988 14.1249 14.8887 14.3019 15.0507C14.4789 15.2127 14.5888 15.4351 14.61 15.6741V15.6516Z" fill="white"/>
<path id="Vector_9" d="M20.5125 22.957C20.6962 22.9615 20.8746 23.0198 21.0255 23.1248C21.1763 23.2298 21.293 23.3769 21.3609 23.5477C21.4289 23.7185 21.4451 23.9055 21.4077 24.0854C21.3702 24.2653 21.2807 24.4303 21.1502 24.5598C21.0197 24.6892 20.854 24.7775 20.6738 24.8135C20.4936 24.8496 20.3067 24.8319 20.1365 24.7626C19.9662 24.6933 19.8201 24.5755 19.7163 24.4238C19.6124 24.2722 19.5555 24.0933 19.5525 23.9095C19.5545 23.6562 19.6565 23.414 19.8363 23.2356C20.0161 23.0571 20.2592 22.957 20.5125 22.957Z" fill="white"/>
</g>
</svg>
