<svg width="55" height="49" viewBox="0 0 55 49" fill="none" xmlns="http://www.w3.org/2000/svg">
<g id="clear details 1" clip-path="url(#clip0_1426_4466)">
<path id="Vector" d="M53.0531 10.8813C52.8491 11.4449 52.5975 11.99 52.301 12.5109C51.9834 12.9766 51.5592 13.3597 51.0636 13.6283C50.5681 13.8969 50.0155 14.0432 49.452 14.055H48.9904C34.2745 14.055 19.5585 14.055 4.84253 14.055C3.82847 14.1039 2.83334 13.7682 2.05622 13.1149C1.63839 12.7606 1.30381 12.3185 1.07631 11.8202C0.848806 11.3218 0.733973 10.7795 0.739988 10.2317C0.739988 8.44253 0.739988 6.65337 0.739988 4.8642C0.726142 3.86189 1.10766 2.89446 1.80192 2.1714C2.49619 1.44834 3.44732 1.02785 4.44937 1.00098C4.67159 1.00098 4.89381 1.00098 5.11033 1.00098H48.4149C51.1785 1.00098 52.1642 1.69043 53.0873 4.24882L53.0531 10.8813Z" fill="white"/>
<path id="Vector_2" d="M53.0532 21.6268C52.6144 22.5555 51.8737 22.8461 50.8651 22.8404C46.4093 22.8062 41.9478 22.8404 37.4863 22.8404C37.0586 22.8848 36.6298 22.7664 36.2855 22.5087C35.9412 22.251 35.7067 21.873 35.6288 21.4501C35.5942 21.2359 35.6032 21.017 35.6552 20.8064C35.7073 20.5958 35.8013 20.3978 35.9316 20.2244C36.062 20.051 36.2259 19.9056 36.4138 19.797C36.6016 19.6885 36.8094 19.6189 37.0248 19.5926C37.2278 19.5811 37.4314 19.5811 37.6344 19.5926C42.0789 19.5926 46.5233 19.5926 50.9677 19.5926C51.9762 19.5926 52.6771 19.9117 53.0532 20.8575V21.6268Z" fill="white"/>
<path id="Vector_3" d="M53.0531 28.1569C52.6144 29.0913 51.8736 29.3762 50.8651 29.3705C46.4093 29.3421 41.9477 29.3705 37.4862 29.3705C36.4492 29.3705 35.7768 28.8634 35.6287 27.9802C35.5933 27.7656 35.6017 27.5461 35.6533 27.3348C35.7049 27.1235 35.7988 26.9249 35.9292 26.7508C36.0596 26.5767 36.2239 26.4309 36.4122 26.3219C36.6004 26.213 36.8088 26.1433 37.0247 26.117C37.2278 26.1055 37.4313 26.1055 37.6344 26.117C42.0788 26.117 46.5232 26.117 50.9676 26.117C51.9762 26.117 52.677 26.4361 53.0531 27.3819V28.1569Z" fill="white"/>
<path id="Vector_4" d="M53.0531 34.6989C52.6144 35.6333 51.8736 35.9239 50.8651 35.9125C46.4093 35.9125 41.9477 35.9125 37.4862 35.9125C37.0585 35.9569 36.6297 35.8385 36.2855 35.5808C35.9412 35.3231 35.7067 34.9451 35.6287 34.5222C35.5933 34.3076 35.6017 34.0881 35.6533 33.8768C35.7049 33.6655 35.7988 33.4669 35.9292 33.2928C36.0596 33.1187 36.2239 32.9728 36.4122 32.8639C36.6004 32.755 36.8088 32.6853 37.0247 32.659C37.2278 32.6475 37.4313 32.6475 37.6344 32.659C42.0788 32.659 46.5232 32.659 50.9676 32.659C51.9762 32.659 52.677 32.9781 53.0531 33.9296V34.6989Z" fill="white"/>
<path id="Vector_5" d="M53.0531 41.24C52.6143 42.1745 51.8736 42.4651 50.8651 42.4594C46.4092 42.4252 41.9477 42.4594 37.4862 42.4594C37.0585 42.5038 36.6297 42.3854 36.2854 42.1277C35.9412 41.87 35.7066 41.492 35.6287 41.0691C35.5941 40.8546 35.603 40.6353 35.655 40.4244C35.707 40.2134 35.8009 40.0151 35.9312 39.8412C36.0615 39.6673 36.2254 39.5214 36.4133 39.4123C36.6012 39.3031 36.8091 39.2329 37.0247 39.2059C37.2277 39.1944 37.4313 39.1944 37.6344 39.2059C42.0788 39.2059 46.5232 39.2059 50.9676 39.2059C51.9762 39.2059 52.677 39.5193 53.0531 40.4708V41.24Z" fill="white"/>
<path id="Vector_6" d="M53.0531 47.7872C52.6314 48.716 51.9135 49.0066 50.8821 48.9781C46.4263 48.9439 41.9648 48.9781 37.5033 48.9781C37.0756 49.0225 36.6468 48.9041 36.3025 48.6464C35.9582 48.3887 35.7237 48.0107 35.6458 47.5878C35.6104 47.3735 35.6188 47.1543 35.6705 46.9434C35.7222 46.7324 35.8161 46.5342 35.9466 46.3606C36.0771 46.1869 36.2414 46.0416 36.4296 45.9332C36.6178 45.8249 36.8261 45.7559 37.0418 45.7303C37.2448 45.7188 37.4484 45.7188 37.6514 45.7303C42.0959 45.7303 46.5403 45.7303 50.9847 45.7303C51.9932 45.7303 52.6941 46.0494 53.0702 46.9952L53.0531 47.7872Z" fill="white"/>
<path id="Vector_7" d="M16.0163 19.5418C19.7086 19.5418 23.4237 19.5988 27.0989 19.5418C27.656 19.5147 28.2126 19.6048 28.7327 19.8062C29.2528 20.0076 29.7249 20.3159 30.1185 20.7111C30.5121 21.1063 30.8185 21.5797 31.0177 22.1006C31.217 22.6216 31.3048 23.1785 31.2755 23.7355C31.2356 30.7725 31.2755 37.8038 31.2755 44.818C31.2755 47.3878 29.663 48.9832 27.0875 48.9832H4.90525C2.34116 48.9775 0.728638 47.3935 0.728638 44.818V23.6671C0.728638 21.1372 2.30698 19.5475 4.83118 19.5475L16.0163 19.5418ZM15.9764 42.442C17.5548 42.442 19.1388 42.442 20.7228 42.442C21.1272 42.4831 21.5322 42.3705 21.8574 42.1266C22.1826 41.8827 22.404 41.5254 22.4778 41.1257C22.5531 40.4825 22.5339 39.8318 22.4208 39.1941C22.2012 38.284 21.6885 37.4714 20.9616 36.8814C20.2346 36.2914 19.3339 35.9568 18.3981 35.9292C16.9052 35.8722 15.4009 35.8779 13.9081 35.9292C11.1673 35.9919 9.41805 37.8209 9.43514 40.5559C9.43514 41.7924 10.0961 42.4534 11.3269 42.4591C12.8824 42.4477 14.4323 42.442 15.9821 42.442H15.9764ZM15.9764 33.7013C16.8195 33.6661 17.6163 33.3064 18.2004 32.6974C18.7845 32.0884 19.1106 31.2773 19.1106 30.4335C19.1106 29.5897 18.7845 28.7785 18.2004 28.1696C17.6163 27.5606 16.8195 27.2009 15.9764 27.1657C15.5358 27.1473 15.096 27.2182 14.6835 27.3741C14.271 27.53 13.8943 27.7678 13.576 28.073C13.2577 28.3783 13.0045 28.7448 12.8315 29.1504C12.6585 29.556 12.5693 29.9925 12.5693 30.4335C12.5693 30.8745 12.6585 31.3109 12.8315 31.7166C13.0045 32.1222 13.2577 32.4887 13.576 32.7939C13.8943 33.0992 14.271 33.3369 14.6835 33.4929C15.096 33.6488 15.5358 33.7197 15.9764 33.7013Z" fill="white"/>
</g>
<defs>
<clipPath id="clip0_1426_4466">
<rect width="53.3205" height="48.093" fill="white" transform="translate(0.966309 0.785156)"/>
</clipPath>
</defs>
</svg>
