<svg width="75" height="75" viewBox="0 0 75 75" fill="none" xmlns="http://www.w3.org/2000/svg">
<g id="Tailored for Your Audience 1">
<g clip-path="url(#clip0_1429_4735)">
<path id="Vector" d="M22.215 52.2828L26.6025 44.6928C27.945 45.4428 29.2575 46.1928 30.54 46.9428C30.7006 47.0617 30.8983 47.1194 31.0976 47.1057C31.2969 47.0919 31.4848 47.0076 31.6275 46.8678C32.5716 46.2276 33.559 45.6537 34.5825 45.1503C34.7931 45.0912 34.9758 44.9592 35.098 44.7779C35.2203 44.5965 35.2742 44.3777 35.25 44.1603C35.25 42.7053 35.25 41.2503 35.25 39.7578H44.025C44.085 40.7369 44.085 41.7187 44.025 42.6978C43.845 44.1978 44.1375 45.2703 45.8025 45.6978C46.4832 45.9644 47.1049 46.3619 47.6325 46.8678C47.7814 47.0206 47.9828 47.1111 48.1959 47.1209C48.409 47.1306 48.6178 47.0589 48.78 46.9203C50.025 46.1703 51.3 45.4203 52.6575 44.6703L57 52.2828C56.0475 52.8378 55.14 53.4528 54.1575 53.9028C52.965 54.4353 52.335 55.0878 52.71 56.5353C52.8266 57.3795 52.7936 58.2376 52.6125 59.0703C52.5544 59.2544 52.5696 59.4538 52.6548 59.6271C52.74 59.8003 52.8887 59.934 53.07 60.0003C54.3675 60.7503 55.6425 61.5003 56.985 62.2503L52.605 69.8253C51.255 69.0753 49.9425 68.3253 48.66 67.5753C48.5001 67.4585 48.304 67.4019 48.1063 67.4156C47.9087 67.4293 47.7223 67.5125 47.58 67.6503C46.6203 68.2993 45.618 68.8831 44.58 69.3978C44.3908 69.4577 44.2286 69.5821 44.1217 69.7493C44.0148 69.9165 43.97 70.1159 43.995 70.3128C43.995 71.8128 43.995 73.3728 43.995 74.9403H35.25V73.7178C35.25 72.5478 35.25 71.3778 35.25 70.2153C35.2773 70.0416 35.2427 69.8638 35.1522 69.713C35.0618 69.5622 34.9212 69.448 34.755 69.3903C33.6385 68.8162 32.5521 68.1854 31.5 67.5003C31.3702 67.403 31.2123 67.3503 31.05 67.3503C30.8878 67.3503 30.7298 67.403 30.6 67.5003C29.3025 68.2503 27.99 69.0003 26.5875 69.8253L22.215 62.2503C23.1341 61.6642 24.0829 61.126 25.0575 60.6378C26.2575 60.0978 26.8725 59.4453 26.505 57.9978C26.3885 57.1511 26.4215 56.2906 26.6025 55.4553C26.6554 55.2713 26.636 55.074 26.5481 54.9039C26.4603 54.7338 26.3107 54.6037 26.13 54.5403C24.84 53.8128 23.565 53.0553 22.215 52.2828ZM39.6075 50.6778C38.3082 50.6764 37.0376 51.0598 35.9559 51.7796C34.8743 52.4995 34.0301 53.5236 33.5298 54.7227C33.0295 55.9219 32.8956 57.2423 33.1449 58.5175C33.3942 59.7926 34.0156 60.9654 34.9307 61.8878C35.8458 62.8102 37.0136 63.4409 38.2867 63.7003C39.5598 63.9598 40.8813 63.8364 42.0844 63.3457C43.2874 62.8549 44.3182 62.0189 45.0467 60.943C45.7751 59.8671 46.1686 58.5996 46.1775 57.3003C46.1815 55.5518 45.4923 53.8729 44.2608 52.6316C43.0293 51.3903 41.356 50.6877 39.6075 50.6778Z" fill="#060044"/>
<path id="Vector_2" d="M49.4475 13.3727H44.01V35.2502H35.25V13.4177H29.7225L39.6 0.0976562L49.4475 13.3727Z" fill="#060044"/>
<path id="Vector_3" d="M63.75 22.17V16.6875L77.025 26.5575L63.75 36.4125V30.9975C62.7837 30.9296 61.8138 30.9296 60.8475 30.9975C59.8109 31.1472 58.8646 31.6703 58.1865 32.4686C57.5084 33.2669 57.1451 34.2853 57.165 35.3325C57.165 38.04 57.165 40.74 57.0225 43.515L54.21 38.7L48.5175 42C48.4575 41.94 48.3975 41.91 48.3975 41.88C48.48 38.8125 48.24 35.7 48.72 32.7C49.6725 26.7 55.2 22.275 61.29 22.2C62.07 22.1625 62.8425 22.17 63.75 22.17Z" fill="#060044"/>
<path id="Vector_4" d="M15.495 30.9459V36.4359L2.17499 26.5584L15.45 16.7109V22.1034C16.8375 22.1709 18.15 22.1634 19.4475 22.3134C25.08 22.9509 30 27.7509 30.6375 33.3234C30.945 36.1659 30.825 39.0459 30.9075 42.0984L24.9975 38.7009L22.2 43.5009H22.0575V42.5184C22.0575 40.1859 22.0575 37.8459 22.0575 35.5059C22.0817 34.9013 21.9806 34.2981 21.7605 33.7344C21.5404 33.1707 21.2061 32.6586 20.7785 32.2303C20.3509 31.8021 19.8394 31.4669 19.276 31.2458C18.7127 31.0248 18.1097 30.9227 17.505 30.9459H15.495Z" fill="#060044"/>
<path id="Vector_5" d="M39.57 59.4456C39.1377 59.4336 38.7186 59.294 38.3656 59.0442C38.0126 58.7945 37.7414 58.4458 37.5862 58.0421C37.4311 57.6385 37.3989 57.1979 37.4938 56.776C37.5886 56.3541 37.8063 55.9697 38.1193 55.6713C38.4323 55.3729 38.8266 55.1739 39.2526 55.0992C39.6786 55.0246 40.1171 55.0778 40.5129 55.2521C40.9087 55.4263 41.244 55.7138 41.4766 56.0784C41.7092 56.443 41.8287 56.8682 41.82 57.3006C41.793 57.8789 41.544 58.4246 41.125 58.8241C40.7059 59.2236 40.149 59.4462 39.57 59.4456Z" fill="#060044"/>
</g>
</g>
<defs>
<clipPath id="clip0_1429_4735">
<rect width="75" height="75" rx="1" fill="white"/>
</clipPath>
</defs>
</svg>
