<svg width="60" height="39" viewBox="0 0 60 39" fill="none" xmlns="http://www.w3.org/2000/svg">
<g id="engaging stories 1" clip-path="url(#clip0_1426_4474)">
<path id="Vector" d="M59.446 31.5175C59.4037 31.5776 59.3672 31.6416 59.3373 31.7088C59.1516 32.4359 58.7184 33.0763 58.1116 33.5205C57.5047 33.9647 56.7619 34.1852 56.0101 34.1443C52.2222 34.1443 48.4343 34.1443 44.6464 34.1443C44.2327 34.1523 43.826 34.2525 43.4563 34.4376C41.6967 35.3494 39.9499 36.3058 38.2032 37.243L37.5633 37.5554C38.0304 36.6501 38.4335 35.8786 38.843 35.1071C39.2525 34.3356 39.0733 34.1953 38.3055 34.1188C37.5265 34.0518 36.7973 33.7089 36.2502 33.152C35.7032 32.5952 35.3745 31.8615 35.3239 31.0839C35.3239 30.9181 35.3239 30.746 35.3239 30.5738V4.73879C35.3239 2.90254 36.29 1.60824 37.928 1.25756C38.2278 1.20441 38.5323 1.18304 38.8366 1.19381H55.9077C56.6883 1.12621 57.4672 1.34189 58.1009 1.80114C58.7346 2.26039 59.1805 2.93229 59.3565 3.69315C59.3793 3.74399 59.4095 3.79124 59.446 3.83342V31.5175ZM47.6025 5.66329H55.2806C55.4534 5.66329 55.6582 5.70155 55.7861 5.62504C55.8714 5.57913 55.945 5.51453 56.0016 5.43611C56.0581 5.35769 56.096 5.2675 56.1124 5.17235C56.1124 5.02571 55.9077 4.84718 55.7541 4.75154C55.6006 4.65591 55.4534 4.75154 55.2998 4.75154H39.8796C39.726 4.75154 39.5404 4.70691 39.4253 4.75154C39.3101 4.79618 39.067 5.03208 39.067 5.17873C39.0893 5.2742 39.1316 5.36389 39.1911 5.44191C39.2507 5.51992 39.3261 5.58451 39.4125 5.63142C39.5404 5.70793 39.7452 5.63142 39.9179 5.63142L47.6025 5.66329ZM47.5641 11.5929H39.9371C39.7836 11.5929 39.598 11.5419 39.4829 11.5929C39.3677 11.6439 39.0734 11.8734 39.0734 12.0264C39.0734 12.1794 39.2973 12.3771 39.4637 12.4855C39.63 12.5939 39.7644 12.4855 39.9179 12.4855H55.2743C55.4086 12.4855 55.5814 12.5301 55.671 12.4855C55.7605 12.4409 56.0677 12.1858 56.0997 12.0009C56.1316 11.816 55.8629 11.6821 55.6902 11.5865C55.5174 11.4908 55.3894 11.5865 55.2359 11.5865L47.5641 11.5929ZM47.5641 19.3969H55.2423C55.3958 19.3969 55.5814 19.4479 55.6966 19.3969C55.8117 19.3459 56.1316 19.0909 56.1061 18.9761C56.0805 18.8614 55.8501 18.6255 55.671 18.4979C55.4918 18.3704 55.4086 18.4979 55.2806 18.4979H39.9243C39.79 18.4979 39.6236 18.4533 39.534 18.4979C39.3572 18.6348 39.1962 18.7909 39.0542 18.9634C39.2047 19.1269 39.372 19.2744 39.5532 19.4033C39.6748 19.4671 39.854 19.4033 40.0075 19.4033L47.5641 19.3969ZM47.5641 25.3329H39.9947C39.8412 25.3329 39.662 25.2819 39.5468 25.3329C39.3608 25.4582 39.191 25.6059 39.0414 25.7728C39.1836 25.9433 39.3445 26.0972 39.5212 26.2319C39.6108 26.2956 39.7772 26.2319 39.9115 26.2319H55.2679C55.4214 26.2319 55.607 26.2765 55.7157 26.2319C55.8969 26.1322 56.034 25.9684 56.0997 25.7728C56.0997 25.6389 55.9013 25.4349 55.7413 25.3456C55.5726 25.3096 55.3982 25.3096 55.2295 25.3456L47.5641 25.3329Z" fill="white"/>
<path id="Vector_2" d="M29.2326 20.7168C29.2326 21.992 29.2326 23.1269 29.2326 24.2873C29.2326 24.4084 29.0471 24.5933 28.9063 24.6443C28.1995 24.8215 27.5707 25.2251 27.1164 25.7929C26.6621 26.3608 26.4075 27.0616 26.3917 27.7876C26.3917 29.2605 27.2811 30.4081 28.8743 30.9756C28.9566 31.0163 29.0284 31.0755 29.0839 31.1486C29.1394 31.2216 29.1772 31.3064 29.1942 31.3964C29.1942 32.7098 29.1942 34.0296 29.1942 35.3431C29.1823 35.4365 29.1496 35.5261 29.0988 35.6055C29.0479 35.6849 28.98 35.752 28.8999 35.8021C25.5898 36.971 22.2775 38.1293 18.9631 39.277C18.9631 39.277 18.9247 39.277 18.8607 39.277C18.8607 39.1367 18.8287 38.9773 18.8287 38.8115C18.8287 34.3931 18.8287 29.9682 18.8287 25.5497C18.8287 25.2118 18.8735 24.995 19.2382 24.842C22.4375 23.5668 25.6367 22.2024 28.8359 20.8762C28.9511 20.8061 29.0279 20.7806 29.2326 20.7168Z" fill="white"/>
<path id="Vector_3" d="M13.8122 39.328L9.92837 37.9635C7.93205 37.2622 5.91654 36.5545 3.92662 35.8723C3.78018 35.8487 3.64898 35.7685 3.56152 35.6492C3.47406 35.5298 3.43741 35.3808 3.45953 35.2347C3.45953 33.9977 3.45953 32.7608 3.45953 31.5175C3.45953 31.1732 3.5683 31.033 3.90742 30.9373C4.58837 30.7439 5.18751 30.3346 5.61408 29.7714C6.04065 29.2083 6.27141 28.5219 6.27141 27.8163C6.27141 27.1108 6.04065 26.4244 5.61408 25.8612C5.18751 25.2981 4.58837 24.8888 3.90742 24.6953C3.56191 24.5933 3.44673 24.4658 3.45313 24.1151C3.45313 23.0121 3.45313 21.9155 3.45313 20.7168C3.68987 20.7933 3.86903 20.8443 4.03539 20.9081L13.3835 24.8037C13.6715 24.9185 13.8442 25.0396 13.8442 25.4413C13.8442 29.9746 13.8442 34.5142 13.8442 39.0474C13.8442 39.1048 13.8314 39.1622 13.8122 39.328Z" fill="white"/>
<path id="Vector_4" d="M9.00708 12.4538C9.09666 12.0648 9.16704 11.6759 9.28861 11.2933C9.78666 9.66978 10.0579 7.98561 10.0948 6.28828C10.1281 5.50807 10.2483 4.73397 10.4531 3.98021C10.6657 2.92233 11.2233 1.96417 12.0392 1.25495C12.855 0.545733 13.8834 0.125273 14.964 0.0590509C16.0284 -0.0639282 17.1047 -0.0424795 18.1633 0.12281C20.5627 0.518114 21.8552 2.10571 22.3607 4.39465C22.5074 5.00729 22.591 5.63324 22.6102 6.26278C22.6645 8.16762 22.9832 10.0558 23.5572 11.8736C23.6114 12.0164 23.6417 12.1672 23.6468 12.3199C23.6468 12.5366 23.6468 12.8746 23.5252 12.9574C23.4169 13.0113 23.2975 13.0394 23.1765 13.0394C23.0554 13.0394 22.936 13.0113 22.8278 12.9574C22.4822 12.7294 22.211 12.4059 22.0471 12.0266C21.7956 11.0156 21.5991 9.99186 21.4585 8.95977C21.4009 8.6091 21.4009 8.32219 20.9978 8.13729C20.7977 7.99679 20.6423 7.80207 20.5499 7.57621C20.2812 7.07251 20.0636 6.54332 19.7757 6.046C19.639 5.78171 19.4139 5.57333 19.1393 5.45691C18.8647 5.34048 18.558 5.32333 18.272 5.40841C17.9828 5.48723 17.6743 5.45248 17.41 5.31131C17.1457 5.17015 16.9458 4.93333 16.8516 4.64968C16.7477 4.42924 16.5619 4.25774 16.3333 4.17149C16.2117 4.13961 15.9558 4.4329 15.8662 4.62418C15.7582 4.90502 15.5454 5.13343 15.2724 5.26173C14.9994 5.39004 14.6872 5.40832 14.401 5.31277C14.1231 5.24225 13.8295 5.26676 13.5673 5.38237C13.3051 5.49799 13.0894 5.69801 12.9549 5.95036C12.6734 6.42218 12.475 6.945 12.1871 7.41044C12.0144 7.70373 11.7072 7.92051 11.5473 8.20104C11.4126 8.41806 11.3193 8.65799 11.2721 8.90877C11.061 9.96079 10.9074 11.0319 10.6323 12.0967C10.5803 12.334 10.458 12.5502 10.2811 12.7174C10.1043 12.8845 9.88108 12.9948 9.64053 13.034C9.23742 13.0595 8.9367 12.9638 9.00708 12.4538Z" fill="white"/>
<path id="Vector_5" d="M24.3569 18.4018L16.3524 24.0891L8.35437 18.4082C9.09659 17.0437 11.3616 15.7686 12.7949 15.9024C12.9677 16.8206 13.1276 17.7578 13.3388 18.6823C13.3878 18.9411 13.5373 19.1702 13.7547 19.3199C13.8954 19.3901 14.2474 19.186 14.3945 19.0139C15.0024 18.3763 15.5654 17.7068 16.1669 17.0119C16.9859 17.7961 17.6001 18.4145 18.2528 19.0011C18.4447 19.1669 18.7839 19.3709 18.963 19.3072C19.1422 19.2434 19.2957 18.88 19.3533 18.6249C19.5581 17.7196 19.7116 16.8014 19.8844 15.8961C21.2153 15.7112 23.4867 16.9672 24.3569 18.4018Z" fill="white"/>
<path id="Vector_6" d="M16.3524 5.59375C16.6139 5.89246 16.9526 6.11401 17.3317 6.2343C17.7107 6.35458 18.1156 6.36899 18.5023 6.27597C18.6431 6.23771 18.9246 6.43537 19.0206 6.59476C19.2424 7.13937 19.5145 7.66231 19.8332 8.15685C20.8634 9.34914 20.473 10.5414 19.9228 11.7082C19.3725 12.875 18.2208 13.417 16.9347 13.5126C16.292 13.5649 15.6452 13.5219 15.0152 13.3851C13.358 13.0153 12.3918 11.7273 12.283 9.87197C12.2451 9.62395 12.2603 9.37076 12.3276 9.12901C12.3949 8.88727 12.5127 8.66243 12.6733 8.46927C13.0484 7.93874 13.3577 7.365 13.5947 6.76054C13.7803 6.38436 13.9786 6.16758 14.4841 6.30147C15.0727 6.47362 15.5974 6.23134 16.3524 5.59375Z" fill="white"/>
<path id="Vector_7" d="M17.8817 25.1797V39.4935H14.8232V25.1797H17.8817Z" fill="white"/>
<path id="Vector_8" d="M27.3834 27.7874C27.391 27.332 27.5336 26.8891 27.7932 26.5144C28.0529 26.1396 28.418 25.8497 28.8426 25.6813C29.2672 25.5128 29.7323 25.4733 30.1794 25.5677C30.6264 25.662 31.0355 25.8861 31.3551 26.2116C31.6747 26.5372 31.8905 26.9496 31.9753 27.3971C32.0602 27.8446 32.0103 28.307 31.832 28.7263C31.6536 29.1456 31.3548 29.503 30.9731 29.7534C30.5914 30.0038 30.1439 30.1361 29.6869 30.1337C29.381 30.1304 29.0788 30.067 28.7975 29.9473C28.5162 29.8276 28.2614 29.6538 28.0475 29.4359C27.8336 29.2181 27.6648 28.9603 27.5509 28.6775C27.437 28.3946 27.3801 28.0921 27.3834 27.7874Z" fill="white"/>
<path id="Vector_9" d="M5.31503 27.8199C5.32772 28.1336 5.27623 28.4466 5.1637 28.7398C5.05118 29.033 4.87996 29.3004 4.66047 29.5256C4.44098 29.7508 4.17781 29.9291 3.88696 30.0498C3.59611 30.1704 3.28367 30.2309 2.96864 30.2274C2.65362 30.224 2.34259 30.1567 2.05449 30.0296C1.76638 29.9026 1.50722 29.7185 1.29277 29.4885C1.07832 29.2586 0.913068 28.9875 0.807061 28.6919C0.701055 28.3962 0.656513 28.0822 0.676145 27.7689C0.692561 27.1643 0.942646 26.5894 1.37422 26.1641C1.80578 25.7388 2.3855 25.496 2.99239 25.4863C3.61067 25.4897 4.20239 25.7373 4.63779 26.1747C5.07318 26.6121 5.31673 27.2038 5.31503 27.8199Z" fill="white"/>
<path id="Vector_10" d="M25.6686 18.6318C25.6686 19.4543 25.6686 20.1238 25.6686 20.7869C25.655 20.8797 25.621 20.9685 25.569 21.0467C25.5171 21.125 25.4484 21.1908 25.3679 21.2396C23.0645 22.2215 20.7546 23.1523 18.4448 24.1342C18.3709 24.1619 18.2919 24.1728 18.2133 24.1661C18.1347 24.1595 18.0586 24.1355 17.9905 24.096L25.6686 18.6318Z" fill="white"/>
<path id="Vector_11" d="M14.676 24.223C14.4593 24.1765 14.2457 24.1168 14.0362 24.0445C11.8543 23.1391 9.67884 22.2274 7.49697 21.3347C7.34195 21.2954 7.20735 21.1996 7.1197 21.0662C7.03206 20.9328 6.99773 20.7716 7.02348 20.6143C7.02348 19.9767 7.02348 19.3774 7.02348 18.625L14.7016 24.0955L14.676 24.223Z" fill="white"/>
<path id="Vector_12" d="M13.7098 15.654C14.772 15.2268 14.9895 16.2916 15.6294 16.4765L14.1705 17.9684L13.7098 15.654Z" fill="white"/>
<path id="Vector_13" d="M18.5215 18.0269L17.1459 16.4903C17.4872 16.1751 17.8461 15.8792 18.2208 15.6041C18.3085 15.5613 18.4048 15.5391 18.5023 15.5391C18.5999 15.5391 18.6962 15.5613 18.7839 15.6041C18.8735 15.636 18.931 15.8846 18.9055 16.0249C18.8095 16.6434 18.6751 17.2554 18.5215 18.0269Z" fill="white"/>
</g>
<defs>
<clipPath id="clip0_1426_4474">
<rect width="58.6525" height="38.7107" fill="white" transform="translate(0.52356 0.211914)"/>
</clipPath>
</defs>
</svg>
