<svg width="50" height="47" viewBox="0 0 50 47" fill="none" xmlns="http://www.w3.org/2000/svg">
<g id="orizinal content 1" clip-path="url(#clip0_1427_4551)">
<path id="Vector" d="M0.107788 16.1465H49.8923V40.686C49.8923 44.0201 47.6164 46.2846 44.2766 46.2903H26.8093V36.0489C27.6799 35.992 28.5162 35.9579 29.4038 35.8782C31.1225 35.7259 32.7937 35.2327 34.3197 34.4273C37.1019 32.9253 38.5187 30.4446 39.19 27.4917C39.62 25.4994 39.7104 23.4488 39.4574 21.4265C39.4357 21.0232 39.2718 20.6407 38.9947 20.347C38.7176 20.0532 38.3453 19.8672 37.944 19.822C34.7635 19.4636 31.6854 19.7082 28.7324 21.142C27.1973 21.8988 25.9146 23.0846 25.0399 24.5558C24.9792 24.5154 24.9237 24.4676 24.8749 24.4136C23.259 21.8646 20.8068 20.6186 17.9505 20.0382C16.0777 19.6649 14.158 19.5862 12.2609 19.8049C11.822 19.8208 11.4045 19.9989 11.0892 20.3047C10.774 20.6105 10.5833 21.0224 10.554 21.4606C10.201 24.1655 10.4974 26.9155 11.4188 29.483C11.9551 30.9731 12.8642 32.3009 14.0595 33.3397C15.2547 34.3786 16.6962 35.0939 18.2464 35.4173C19.6966 35.6904 21.1612 35.8804 22.6331 35.9863C22.8226 35.9975 23.0126 35.9975 23.2021 35.9863V46.2846H5.70641C2.40641 46.2846 0.107788 44.0087 0.107788 40.7201V16.1465Z" fill="white"/>
<path id="Vector_2" d="M0.187357 12.5339C0.187357 9.83702 0.022357 7.16288 0.232874 4.52288C0.426322 2.09909 2.72494 0.255637 5.17149 0.158913H44.3448C45.673 0.103392 46.9734 0.550404 47.9867 1.41086C49.0001 2.27131 49.652 3.48202 49.8125 4.80167C49.8771 5.38915 49.8961 5.98074 49.8694 6.57115C49.8694 8.54546 49.8694 10.5198 49.8694 12.5396L0.187357 12.5339ZM12.5339 6.34357C12.5316 5.99088 12.4247 5.64681 12.2266 5.35498C12.0285 5.06315 11.7483 4.83671 11.4213 4.70436C11.0944 4.57201 10.7355 4.53972 10.3902 4.61158C10.0449 4.68344 9.72876 4.85622 9.48177 5.108C9.23479 5.35978 9.06813 5.67923 9.00292 6.02585C8.93771 6.37247 8.9769 6.73064 9.11551 7.05496C9.25412 7.37928 9.48591 7.65514 9.78149 7.84756C10.0771 8.03999 10.4231 8.14031 10.7758 8.13581C11.2457 8.12833 11.6937 7.93603 12.0227 7.60056C12.3518 7.2651 12.5355 6.81349 12.5339 6.34357ZM17.8765 8.13581C18.2281 8.13353 18.571 8.0269 18.8619 7.82946C19.1528 7.63201 19.3785 7.35263 19.5104 7.02675C19.6424 6.70086 19.6745 6.34314 19.6029 5.99895C19.5313 5.65475 19.359 5.33958 19.108 5.09339C18.8571 4.8472 18.5386 4.68108 18.1931 4.61609C17.8476 4.55111 17.4906 4.59018 17.1673 4.72835C16.844 4.86653 16.569 5.09759 16.3772 5.39224C16.1854 5.68689 16.0854 6.03185 16.0899 6.38339C16.1003 6.85081 16.293 7.29566 16.6267 7.62305C16.9605 7.95043 17.409 8.13444 17.8765 8.13581Z" fill="white"/>
<path id="Vector_3" d="M20.3516 23.2188C22.5079 23.2188 24.4936 23.4179 26.3143 24.4193C27.489 25.0729 28.3896 26.127 28.8519 27.3893C29.454 29.0007 29.7231 30.7176 29.6428 32.436C27.3669 32.4644 25.1764 32.2539 23.259 30.9567C21.461 29.7391 20.8466 27.8501 20.5564 25.836C20.4483 24.9825 20.4483 24.1462 20.3516 23.2188Z" fill="white"/>
<path id="Vector_4" d="M20.3743 32.5278C20.3743 30.0812 20.5962 27.8167 22.0356 25.8765C23.1736 24.3745 24.7894 23.7543 26.5874 23.4584C27.566 23.2991 28.5617 23.2536 29.637 23.1455C29.6601 23.5928 29.6601 24.041 29.637 24.4883C29.5558 25.3686 29.4286 26.2441 29.2558 27.1112C28.5731 30.0869 26.5931 31.6914 23.6572 32.1864C22.5762 32.3798 21.5065 32.414 20.3743 32.5278Z" fill="white"/>
</g>
<defs>
<clipPath id="clip0_1427_4551">
<rect width="50" height="46.5517" fill="white"/>
</clipPath>
</defs>
</svg>
