<svg width="40" height="37" viewBox="0 0 40 37" fill="none" xmlns="http://www.w3.org/2000/svg">
<g id="orizinal content 1" clip-path="url(#clip0_1429_4880)">
<path id="Vector" d="M0.0861816 12.834H39.9138V32.3383C39.9138 34.9883 38.0931 36.7882 35.4212 36.7927H21.4474V28.6527C22.1438 28.6075 22.8129 28.5804 23.523 28.5171C24.898 28.396 26.2349 28.004 27.4557 27.3639C29.6815 26.17 30.8149 24.1983 31.352 21.8513C31.696 20.2678 31.7683 18.638 31.5659 17.0306C31.5486 16.7101 31.4174 16.4061 31.1957 16.1726C30.974 15.9391 30.6762 15.7913 30.3551 15.7553C27.8107 15.4704 25.3483 15.6649 22.9859 16.8045C21.7578 17.406 20.7316 18.3485 20.0318 19.5178C19.9833 19.4857 19.9389 19.4478 19.8998 19.4048C18.6071 17.3788 16.6454 16.3885 14.3604 15.9272C12.8621 15.6305 11.3264 15.5679 9.80867 15.7418C9.45752 15.7544 9.12356 15.896 8.87134 16.139C8.61913 16.3821 8.46657 16.7094 8.44315 17.0577C8.16072 19.2076 8.39789 21.3934 9.13501 23.4341C9.56404 24.6184 10.2913 25.6737 11.2475 26.4994C12.2037 27.3251 13.3569 27.8936 14.5971 28.1507C15.7572 28.3678 16.9289 28.5188 18.1065 28.603C18.2581 28.6119 18.41 28.6119 18.5616 28.603V36.7882H4.56508C1.92508 36.7882 0.0861816 34.9793 0.0861816 32.3655V12.834Z" fill="white"/>
<path id="Vector_2" d="M0.14991 9.96255C0.14991 7.81902 0.01791 5.69357 0.186324 3.59526C0.341082 1.66879 2.17998 0.203593 4.13722 0.126715H35.4758C36.5384 0.0825866 37.5787 0.437878 38.3894 1.12178C39.2001 1.80568 39.7216 2.76797 39.85 3.81685C39.9017 4.28378 39.9169 4.75399 39.8956 5.22326C39.8956 6.79247 39.8956 8.36168 39.8956 9.96707L0.14991 9.96255ZM10.0272 5.04237C10.0253 4.76205 9.93976 4.48857 9.7813 4.25663C9.62284 4.02468 9.39863 3.8447 9.13709 3.73951C8.87555 3.63431 8.58846 3.60865 8.31222 3.66576C8.03598 3.72288 7.78303 3.8602 7.58544 4.06032C7.38786 4.26044 7.25453 4.51435 7.20236 4.78984C7.1502 5.06534 7.18154 5.35002 7.29243 5.6078C7.40332 5.86557 7.58875 6.08483 7.82522 6.23777C8.06168 6.39071 8.33853 6.47045 8.62067 6.46687C8.99656 6.46092 9.35495 6.30808 9.61821 6.04145C9.88147 5.77482 10.0284 5.41587 10.0272 5.04237ZM14.3012 6.46687C14.5825 6.46506 14.8568 6.38031 15.0896 6.22338C15.3223 6.06644 15.5028 5.84439 15.6084 5.58537C15.7139 5.32635 15.7397 5.04203 15.6823 4.76846C15.625 4.49489 15.4872 4.24439 15.2865 4.04871C15.0857 3.85303 14.8309 3.721 14.5545 3.66935C14.2781 3.6177 13.9925 3.64875 13.7338 3.75858C13.4752 3.8684 13.2552 4.05205 13.1018 4.28624C12.9484 4.52043 12.8684 4.79461 12.872 5.07403C12.8803 5.44553 13.0344 5.79911 13.3014 6.05932C13.5684 6.31953 13.9272 6.46578 14.3012 6.46687Z" fill="white"/>
<path id="Vector_3" d="M16.2812 18.4551C18.0064 18.4551 19.5949 18.6134 21.0515 19.4093C21.9912 19.9288 22.7117 20.7666 23.0815 21.7699C23.5632 23.0507 23.7785 24.4153 23.7142 25.7811C21.8935 25.8037 20.1411 25.6364 18.6072 24.6053C17.1688 23.6375 16.6772 22.1362 16.4451 20.5353C16.3586 19.857 16.3586 19.1922 16.2812 18.4551Z" fill="white"/>
<path id="Vector_4" d="M16.2994 25.8536C16.2994 23.9091 16.477 22.1092 17.6285 20.5672C18.5389 19.3733 19.8316 18.8804 21.2699 18.6452C22.0528 18.5186 22.8494 18.4824 23.7096 18.3965C23.7281 18.752 23.7281 19.1082 23.7096 19.4637C23.6447 20.1635 23.5429 20.8593 23.4047 21.5485C22.8585 23.9136 21.2745 25.1889 18.9258 25.5823C18.061 25.7361 17.2052 25.7632 16.2994 25.8536Z" fill="white"/>
</g>
<defs>
<clipPath id="clip0_1429_4880">
<rect width="40" height="37" fill="white"/>
</clipPath>
</defs>
</svg>
