<svg width="54" height="55" viewBox="0 0 54 55" fill="none" xmlns="http://www.w3.org/2000/svg">
<g id="language 1" clip-path="url(#clip0_1426_4488)">
<path id="Vector" d="M0.447937 54.1759V18.3301C0.584076 18.3301 0.720214 18.3301 0.862271 18.3301H53.4295C53.5952 18.3301 53.761 18.3301 53.9267 18.3301V54.1759H0.447937ZM4.39595 50.2161H50.0083V22.2248H4.39595V50.2161Z" fill="white"/>
<path id="Vector_2" d="M43.4026 0.667969V8.06088C43.2073 8.06088 43.0534 8.09639 42.9054 8.09639H0.708376H0.447937V0.667969H43.4026Z" fill="white"/>
<path id="Vector_3" d="M0.447933 11.2217H1.12271H53.9208V15.1697H1.15822C0.915539 15.1697 0.672857 15.1697 0.430176 15.1697L0.447933 11.2217Z" fill="white"/>
<path id="Vector_4" d="M53.9563 0.667969V8.06088H46.5397V0.667969H53.9563Z" fill="white"/>
<path id="Vector_5" d="M7.53308 47.0853V25.3623H46.8771V47.0853H7.53308ZM23.0588 29.257L16.0743 36.2475L23.0588 43.2083L25.1896 41.036C23.6112 39.4576 22.0032 37.8496 20.3656 36.2119L25.2015 31.382L23.0588 29.257ZM29.1199 31.4353L34.0446 36.3362C32.4287 37.9462 30.8128 39.5444 29.2679 41.0715L31.3455 43.1609L38.2826 36.2297C35.9801 33.9331 33.6362 31.5655 31.304 29.2511L29.1199 31.4353Z" fill="white"/>
</g>
<defs>
<clipPath id="clip0_1426_4488">
<rect width="53.3205" height="53.3205" fill="white" transform="translate(0.54187 0.761719)"/>
</clipPath>
</defs>
</svg>
