<svg width="50" height="51" viewBox="0 0 50 51" fill="none" xmlns="http://www.w3.org/2000/svg">
<g id="editing 1" clip-path="url(#clip0_1427_4547)">
<path id="Vector" d="M-0.0322876 46.0133V11.358C0.00158838 11.3193 0.0269743 11.274 0.0422285 11.2249C0.274072 9.83578 1.00375 8.57856 2.09494 7.68818C3.18613 6.79779 4.56417 6.33515 5.97158 6.3867C14.9455 6.3867 23.9193 6.3867 32.8932 6.3867H33.5532L33.0529 6.91896C28.5571 11.4077 24.0577 15.8999 19.5548 20.3957C18.8843 21.0483 18.382 21.8537 18.0911 22.743C17.4364 24.7602 16.7392 26.7669 16.0845 28.7841C15.9067 29.2852 15.7975 29.808 15.7598 30.3383C15.7266 31.0962 15.879 31.8507 16.2038 32.5362C16.5286 33.2218 17.0159 33.8176 17.6234 34.2719C18.2309 34.7262 18.9402 35.0253 19.6896 35.143C20.439 35.2608 21.2058 35.1937 21.9234 34.9477C24.0098 34.277 26.0803 33.5531 28.1667 32.8772C29.0892 32.5777 29.9244 32.0569 30.5992 31.3602C35.0914 26.8644 39.589 22.3686 44.0919 17.8728L44.5656 17.4311C44.5656 17.6173 44.5656 17.6865 44.5656 17.7557C44.5656 26.9177 44.5656 36.0796 44.5656 45.2415C44.5651 45.6913 44.5134 46.1395 44.4113 46.5775C44.1184 47.86 43.3894 49.0011 42.3488 49.8058C41.3081 50.6106 40.0204 51.0291 38.7055 50.9899H14.8709C11.8264 50.9899 8.78191 50.9899 5.74271 50.9899C4.63219 51.0201 3.53829 50.7153 2.60328 50.1154C1.66826 49.5155 0.935389 48.6481 0.49997 47.6261C0.28669 47.101 0.108871 46.5622 -0.0322876 46.0133Z" fill="white"/>
<path id="Vector_2" d="M44.9169 0C45.6662 0.303604 46.3308 0.783863 46.8544 1.39984C47.5623 2.13435 48.2968 2.83694 48.9834 3.56613C49.2662 3.81046 49.493 4.11282 49.6485 4.45264C49.8039 4.79247 49.8844 5.16178 49.8844 5.53548C49.8844 5.90918 49.8039 6.2785 49.6485 6.61832C49.493 6.95815 49.2662 7.2605 48.9834 7.50484L46.6574 9.83613L40.1905 3.36387C41.0527 2.44306 41.9576 1.43177 42.9157 0.468387C43.2098 0.262037 43.5351 0.103923 43.879 0L44.9169 0Z" fill="white"/>
<path id="Vector_3" d="M40.9516 3.44434L47.5197 10.0177C47.4079 10.1348 47.2855 10.2732 47.1577 10.4009C40.8913 16.6709 34.6195 22.9392 28.3424 29.2056C28.0424 29.51 27.6789 29.7444 27.2779 29.8922C25.2393 30.6001 23.1848 31.2548 21.1409 31.9468C20.843 32.0891 20.5082 32.1355 20.1828 32.0797C19.8573 32.0238 19.5572 31.8685 19.3237 31.635C19.0902 31.4015 18.9349 31.1013 18.879 30.7759C18.8232 30.4504 18.8696 30.1157 19.0119 29.8177C19.7092 27.7792 20.3638 25.7247 21.0664 23.6861C21.1897 23.3292 21.3874 23.0026 21.6466 22.728C27.9734 16.3871 34.3037 10.0532 40.6376 3.72643C40.7334 3.63063 40.8345 3.54546 40.9516 3.44434Z" fill="white"/>
</g>
<defs>
<clipPath id="clip0_1427_4547">
<rect width="50" height="50.8064" fill="white"/>
</clipPath>
</defs>
</svg>
