<svg width="50" height="50" viewBox="0 0 50 50" fill="none" xmlns="http://www.w3.org/2000/svg">
<g id="Engaging 1">
<path id="Vector" d="M15.315 44.9194C12.815 44.9194 10.27 44.9194 7.74499 44.9194C6.38499 44.9194 5.38999 44.1394 5.24499 42.8844C5.20218 42.3766 5.26693 41.8655 5.43499 41.3844C5.9099 39.6555 6.84088 38.0862 8.13044 36.8406C9.42 35.595 11.0207 34.719 12.765 34.3044C13.0623 34.2319 13.3727 34.2319 13.67 34.3044C14.7676 34.5547 15.9074 34.5547 17.005 34.3044C17.2874 34.2343 17.5826 34.2343 17.865 34.3044C21.825 35.4144 24.325 37.9577 25.365 41.9344C25.78 43.5294 24.64 44.9344 22.94 44.9344C20.805 44.9344 18.675 44.9344 16.54 44.9344L15.315 44.9194Z" fill="white"/>
<path id="Vector_2" d="M34.6949 27.1303H27.2299C25.2899 27.1303 24.1999 25.7703 24.7299 23.9153C25.8049 20.0003 28.3399 17.5003 32.2699 16.5003C32.4882 16.4452 32.7167 16.4452 32.9349 16.5003C34.085 16.7788 35.2849 16.7788 36.4349 16.5003C36.6535 16.4478 36.8814 16.4478 37.0999 16.5003C41.0999 17.5553 43.5999 20.1003 44.6949 24.0703C44.8114 24.4372 44.8364 24.8271 44.768 25.206C44.6995 25.5848 44.5396 25.9412 44.3021 26.2443C44.0646 26.5473 43.7567 26.7877 43.4052 26.9448C43.0537 27.1018 42.6691 27.1706 42.2849 27.1453L34.6949 27.1303Z" fill="white"/>
<path id="Vector_3" d="M20.15 27.4496C20.1166 28.7075 19.595 29.9031 18.6958 30.7834C17.7965 31.6636 16.59 32.1594 15.3317 32.1659C14.0733 32.1724 12.8618 31.6891 11.9535 30.8182C11.0452 29.9473 10.5114 28.7571 10.465 27.4996C10.4984 26.2417 11.0199 25.0461 11.9192 24.1658C12.8184 23.2856 14.0249 22.7898 15.2832 22.7833C16.5416 22.7768 17.7531 23.2601 18.6614 24.131C19.5697 25.0019 20.1036 26.1921 20.15 27.4496Z" fill="white"/>
<path id="Vector_4" d="M34.755 4.85573C35.7112 4.86767 36.6423 5.16287 37.4307 5.704C38.2191 6.24513 38.8293 7.00789 39.1843 7.89582C39.5392 8.78376 39.6228 9.757 39.4246 10.6925C39.2264 11.628 38.7553 12.4837 38.0708 13.1514C37.3863 13.8191 36.5192 14.2689 35.5791 14.4438C34.639 14.6187 33.6681 14.5109 32.7892 14.1341C31.9104 13.7572 31.163 13.1283 30.6416 12.3267C30.1202 11.5251 29.8482 10.5869 29.86 9.63073C29.8784 8.34922 30.4039 7.12723 31.3213 6.23229C32.2388 5.33735 33.4734 4.84237 34.755 4.85573Z" fill="white"/>
<path id="Vector_5" d="M39.095 35.4455C39.095 36.3055 39.13 37.1705 39.095 38.0255C39.0613 38.8805 38.7045 39.6908 38.0967 40.293C37.4889 40.8953 36.6753 41.2446 35.82 41.2705C34.095 41.3205 32.37 41.3005 30.645 41.2705C30.4338 41.2758 30.2237 41.2394 30.0266 41.1633C29.8295 41.0872 29.6494 40.9729 29.4965 40.8271C29.3437 40.6812 29.2212 40.5066 29.136 40.3133C29.0508 40.1199 29.0046 39.9117 29 39.7005C28.9823 39.2701 29.1352 38.8501 29.4255 38.5318C29.7157 38.2134 30.1198 38.0225 30.55 38.0005C31.02 37.9655 31.495 38.0005 31.965 38.0005C33.09 38.0005 34.215 38.0005 35.335 38.0005C35.68 38.0005 35.78 37.8955 35.78 37.5555C35.78 36.0105 35.78 34.4705 35.78 32.9255C35.7638 32.7019 35.7928 32.4774 35.8654 32.2653C35.938 32.0532 36.0527 31.858 36.2025 31.6913C36.3524 31.5246 36.5344 31.3899 36.7376 31.2953C36.9408 31.2006 37.161 31.148 37.385 31.1405C37.6051 31.1254 37.8259 31.1557 38.0338 31.2295C38.2417 31.3034 38.4322 31.4191 38.5934 31.5696C38.7547 31.7201 38.8834 31.9021 38.9714 32.1044C39.0594 32.3067 39.1049 32.5249 39.105 32.7455C39.105 33.6555 39.105 34.5655 39.105 35.4755L39.095 35.4455Z" fill="white"/>
<path id="Vector_6" d="M13.07 14.4347C13.07 13.5947 13.045 12.7447 13.07 11.9047C13.086 11.0403 13.4321 10.2148 14.0373 9.59749C14.6426 8.98015 15.4611 8.6178 16.325 8.58474C18.08 8.52474 19.825 8.54474 21.595 8.58474C21.8077 8.58665 22.0179 8.63095 22.2132 8.71505C22.4086 8.79914 22.5852 8.92135 22.7328 9.07452C22.8804 9.22768 22.996 9.40874 23.0727 9.6071C23.1495 9.80545 23.186 10.0171 23.18 10.2297C23.1807 10.4492 23.1375 10.6665 23.053 10.869C22.9684 11.0715 22.8442 11.255 22.6877 11.4087C22.5311 11.5625 22.3454 11.6834 22.1414 11.7643C21.9375 11.8451 21.7194 11.8844 21.5 11.8797C20.115 11.8797 18.735 11.8797 17.35 11.8797C17.1835 11.8902 17.0165 11.8902 16.85 11.8797C16.49 11.8397 16.375 11.9797 16.38 12.3447C16.38 13.9047 16.38 15.4647 16.38 17.0247C16.3917 17.303 16.3332 17.5798 16.2099 17.8296C16.0865 18.0793 15.9023 18.294 15.6742 18.4539C15.4461 18.6138 15.1814 18.7137 14.9046 18.7444C14.6277 18.7751 14.3476 18.7357 14.09 18.6297C13.7841 18.5166 13.5206 18.3118 13.3353 18.0434C13.1501 17.7749 13.0522 17.4559 13.055 17.1297V14.4347H13.07Z" fill="white"/>
</g>
</svg>
