<svg width="54" height="36" viewBox="0 0 54 36" fill="none" xmlns="http://www.w3.org/2000/svg">
<g id="features " clip-path="url(#clip0_1426_4457)">
<path id="Vector" d="M0.370605 21.1133H4.52718V21.6774C4.52718 23.2272 4.52718 24.777 4.52718 26.3268C4.52718 27.1047 5.02003 27.3897 5.71477 27.0156C6.24919 26.7187 6.75986 26.3862 7.30615 26.119C7.40014 26.0795 7.50108 26.0591 7.60305 26.0591C7.70501 26.0591 7.80595 26.0795 7.89994 26.119C8.39873 26.3624 8.86783 26.6653 9.34881 26.9444C10.2039 27.4372 10.6552 27.17 10.6611 26.1724V21.1252H14.8177V35.5247H0.370605V21.1133ZM4.78845 32.7814H3.33959C3.24334 32.7633 3.14421 32.768 3.05007 32.7949C2.95593 32.8219 2.86939 32.8705 2.79732 32.9368C2.72526 33.0031 2.66965 33.0853 2.63494 33.1769C2.60022 33.2684 2.58735 33.3668 2.59734 33.4642C2.58904 33.5573 2.60136 33.651 2.63343 33.7388C2.66549 33.8265 2.71651 33.9061 2.78285 33.9719C2.8492 34.0377 2.92923 34.088 3.01725 34.1193C3.10527 34.1506 3.19911 34.1622 3.29208 34.1531C4.27779 34.1531 5.26943 34.1531 6.26107 34.1531C6.35412 34.1595 6.44751 34.1465 6.53525 34.1148C6.62299 34.0832 6.70317 34.0335 6.77066 33.9692C6.83816 33.9048 6.89148 33.827 6.92723 33.7408C6.96299 33.6547 6.98038 33.562 6.97831 33.4688C6.97624 33.3755 6.95474 33.2837 6.9152 33.1992C6.87565 33.1147 6.81893 33.0394 6.74864 32.9781C6.67835 32.9168 6.59605 32.8708 6.50699 32.843C6.41792 32.8153 6.32406 32.8064 6.23138 32.817L4.78845 32.7814Z" fill="white"/>
<path id="Vector_2" d="M38.1003 7.72852C38.2844 8.70828 38.6347 8.99924 39.5789 8.99924H47.2032C48.1414 8.99924 48.4799 8.72016 48.6877 7.72852H50.2494C51.1163 7.72852 51.9892 7.72852 52.8562 7.72852C53.5984 7.72852 53.8597 7.98979 53.8597 8.73797V34.4315C53.8597 35.3044 53.634 35.536 52.7433 35.536H34.0684C33.1837 35.536 32.9462 35.2985 32.9462 34.4315V8.83892C32.9462 7.9601 33.1777 7.72852 34.0625 7.72852H38.1003ZM43.4089 29.0636H51.2292C51.3895 29.0636 51.5854 29.1171 51.6923 29.0636C51.9326 28.9248 52.1268 28.7183 52.2505 28.4698C52.3633 28.1373 52.1317 27.876 51.7933 27.7632C51.6423 27.7234 51.486 27.7074 51.3301 27.7157H35.4698C35.3142 27.7086 35.1585 27.7226 35.0066 27.7573C34.8501 27.789 34.7115 27.879 34.6189 28.0091C34.5263 28.1392 34.4866 28.2997 34.5079 28.458C34.5151 28.6131 34.58 28.76 34.6898 28.8698C34.7996 28.9796 34.9465 29.0445 35.1016 29.0517C35.2579 29.0607 35.4145 29.0607 35.5707 29.0517L43.4089 29.0636ZM43.4089 33.0242H51.2173C51.3734 33.0363 51.5302 33.0363 51.6864 33.0242C51.7675 33.0244 51.8477 33.0079 51.9222 32.9759C51.9966 32.9438 52.0637 32.8969 52.1194 32.8379C52.175 32.779 52.218 32.7092 52.2456 32.633C52.2733 32.5568 52.285 32.4757 52.2802 32.3948C52.2909 32.3104 52.2846 32.2247 52.2615 32.1427C52.2385 32.0608 52.1992 31.9843 52.146 31.9179C52.0928 31.8514 52.0269 31.7963 51.952 31.7558C51.8771 31.7153 51.7949 31.6903 51.7101 31.6823C51.5541 31.6674 51.397 31.6674 51.241 31.6823H35.5351C35.3793 31.6644 35.2219 31.6644 35.066 31.6823C34.8988 31.7031 34.7465 31.7889 34.6421 31.9211C34.5376 32.0534 34.4894 32.2214 34.5079 32.3889C34.5164 32.5436 34.5817 32.6897 34.6913 32.7993C34.8008 32.9088 34.9469 32.9741 35.1016 32.9827C35.2578 32.9947 35.4146 32.9947 35.5707 32.9827L43.4089 33.0242ZM43.4089 21.1483H51.1579C51.33 21.1572 51.5024 21.1572 51.6745 21.1483C51.832 21.1483 51.983 21.0858 52.0944 20.9744C52.2057 20.863 52.2683 20.712 52.2683 20.5545C52.2853 20.4687 52.2842 20.3802 52.2651 20.2948C52.2459 20.2095 52.2092 20.129 52.1573 20.0586C52.1053 19.9882 52.0392 19.9294 51.9633 19.886C51.8873 19.8425 51.8031 19.8154 51.7161 19.8063C51.5601 19.7916 51.403 19.7916 51.247 19.8063H35.547C35.357 19.8063 35.1135 19.7707 34.9888 19.8657C34.8641 19.9607 34.5316 20.3051 34.5435 20.5189C34.5554 20.7327 34.8344 20.9761 35.0482 21.1127C35.262 21.2493 35.4223 21.1483 35.6123 21.1483H43.4089ZM43.4089 25.0971H50.0475C50.5522 25.0971 51.057 25.0971 51.5617 25.0971C51.6478 25.1087 51.7354 25.1022 51.8189 25.078C51.9024 25.0538 51.9799 25.0124 52.0464 24.9565C52.1129 24.9006 52.167 24.8314 52.2053 24.7534C52.2435 24.6753 52.265 24.5901 52.2683 24.5033C52.3039 24.0579 52.0367 23.8382 51.6211 23.7729C51.4828 23.761 51.3437 23.761 51.2054 23.7729H35.5589C35.3584 23.7657 35.1581 23.7898 34.9651 23.8442C34.8653 23.8672 34.7731 23.9157 34.6976 23.9849C34.622 24.0541 34.5657 24.1417 34.534 24.2391C34.5023 24.3365 34.4964 24.4405 34.5168 24.5409C34.5372 24.6413 34.5832 24.7347 34.6504 24.812C34.8593 25.0044 35.1323 25.1123 35.4164 25.1149C38.0528 25.1089 40.713 25.0971 43.3732 25.0971H43.4089ZM43.4089 17.1877H51.1995C51.3982 17.2226 51.6026 17.2062 51.7933 17.1402C52.0011 17.0036 52.2683 16.7602 52.2683 16.5464C52.2151 16.277 52.0598 16.0387 51.8348 15.8813C51.722 15.7804 51.4726 15.816 51.2826 15.816C46.0493 15.816 40.816 15.816 35.5826 15.816C35.3926 15.816 35.1492 15.7745 35.0245 15.8754C34.8998 15.9763 34.5613 16.3029 34.5732 16.5167C34.585 16.7305 34.8582 16.9799 35.0779 17.1105C35.2976 17.2411 35.446 17.1521 35.6361 17.1521L43.4089 17.1877ZM43.4089 12.4373H47.6367C48.2305 12.4373 48.5096 12.2236 48.5214 11.7841C48.5333 11.3447 48.2246 11.0835 47.6248 11.0835H39.1573C38.5932 11.0835 38.2785 11.321 38.2666 11.7426C38.2547 12.1642 38.5694 12.4373 39.1692 12.4373H43.4089Z" fill="white"/>
<path id="Vector_3" d="M16.2012 35.495V21.1133H20.3162C20.3162 21.3033 20.3162 21.4874 20.3162 21.6714C20.3162 23.1856 20.3162 24.6998 20.3162 26.214C20.3162 27.1403 20.7793 27.4016 21.581 26.9622C21.9413 26.7934 22.287 26.5948 22.6142 26.3684C22.8231 26.1624 23.1046 26.0469 23.398 26.0469C23.6913 26.0469 23.9729 26.1624 24.1818 26.3684C24.5421 26.6176 24.919 26.8418 25.31 27.0394C25.9335 27.3778 26.4323 27.0928 26.4382 26.3803C26.4382 24.8304 26.4382 23.2806 26.4382 21.7308V21.137H30.5948V35.495H16.2012ZM26.2957 32.7754C25.7969 32.7754 25.2922 32.7754 24.7934 32.7754C24.2946 32.7754 24.0868 32.9892 24.0809 33.4286C24.0727 33.5211 24.0849 33.6143 24.1166 33.7016C24.1483 33.7889 24.1988 33.8681 24.2645 33.9338C24.3301 33.9995 24.4094 34.0499 24.4967 34.0817C24.584 34.1134 24.6771 34.1256 24.7697 34.1174C25.7732 34.1174 26.7767 34.1174 27.7802 34.1174C27.8732 34.1262 27.967 34.1155 28.0557 34.0859C28.1443 34.0563 28.2258 34.0085 28.2949 33.9457C28.364 33.8828 28.4192 33.8061 28.457 33.7207C28.4947 33.6352 28.5142 33.5428 28.5142 33.4494C28.5142 33.356 28.4947 33.2636 28.457 33.1781C28.4192 33.0927 28.364 33.016 28.2949 32.9531C28.2258 32.8903 28.1443 32.8425 28.0557 32.8129C27.967 32.7833 27.8732 32.7726 27.7802 32.7814L26.2957 32.7754Z" fill="white"/>
<path id="Vector_4" d="M18.5467 5.27051H22.7032V19.7532H8.31555V5.27051H12.4721V5.83461C12.4721 7.38442 12.4721 8.93423 12.4721 10.484C12.4721 11.3094 12.9472 11.5766 13.6597 11.1728C14.1466 10.8997 14.6395 10.6384 15.1026 10.3297C15.2229 10.2328 15.3728 10.18 15.5272 10.18C15.6817 10.18 15.8315 10.2328 15.9518 10.3297C16.4149 10.6325 16.9018 10.9234 17.3888 11.1728C18.0835 11.5529 18.5764 11.2857 18.5764 10.4959C18.5764 8.94413 18.5764 7.39432 18.5764 5.84649L18.5467 5.27051ZM12.3474 18.2984H14.0635C14.1594 18.3135 14.2575 18.3079 14.3511 18.282C14.4447 18.2562 14.5317 18.2107 14.6064 18.1485C14.681 18.0864 14.7415 18.009 14.7838 17.9216C14.8262 17.8343 14.8494 17.7388 14.852 17.6418C14.8545 17.5447 14.8364 17.4482 14.7987 17.3587C14.761 17.2692 14.7046 17.1888 14.6333 17.1228C14.5621 17.0568 14.4776 17.0068 14.3855 16.976C14.2933 16.9453 14.1957 16.9346 14.0991 16.9445C12.9531 16.9445 11.8071 16.9445 10.661 16.9445C10.5693 16.9344 10.4763 16.9439 10.3885 16.9726C10.3008 17.0013 10.2201 17.0484 10.1521 17.1109C10.084 17.1733 10.0301 17.2496 9.99396 17.3346C9.95782 17.4196 9.9403 17.5113 9.94255 17.6037C9.94255 18.0134 10.2038 18.2806 10.6789 18.2925C11.1539 18.3043 11.7893 18.2984 12.3474 18.2984Z" fill="white"/>
<path id="Vector_5" d="M5.92847 21.0947H9.23591V25.3047C8.94767 25.1609 8.66811 25.0003 8.39866 24.8238C8.17939 24.6218 7.89218 24.5097 7.59407 24.5097C7.29595 24.5097 7.00874 24.6218 6.78947 24.8238C6.51342 25.01 6.22585 25.1786 5.92847 25.3285V21.0947Z" fill="white"/>
<path id="Vector_6" d="M21.7473 25.3174V21.1074H25.0726V25.3056C24.6629 25.074 24.2828 24.878 23.9206 24.6524C23.7723 24.5443 23.5935 24.486 23.4099 24.486C23.2264 24.486 23.0476 24.5443 22.8993 24.6524C22.5489 24.8721 22.1808 25.068 21.7473 25.3174Z" fill="white"/>
<path id="Vector_7" d="M13.8497 5.26465H17.1512V9.4806C16.7771 9.26684 16.4268 9.09464 16.1062 8.88681C15.9355 8.75678 15.7269 8.68636 15.5124 8.68636C15.2978 8.68636 15.0892 8.75678 14.9186 8.88681C14.6039 9.10057 14.2595 9.26684 13.8675 9.4806L13.8497 5.26465Z" fill="white"/>
<path id="Vector_8" d="M47.2805 6.47599V7.60421H39.5612V6.47599C40.339 6.47599 41.111 6.47599 41.8888 6.47599C42.0044 6.49617 42.1228 6.49235 42.2369 6.46479C42.3509 6.43723 42.458 6.3865 42.5515 6.31577C42.6451 6.24504 42.7231 6.15581 42.7807 6.05364C42.8383 5.95147 42.8743 5.83854 42.8864 5.72187C42.9346 5.60668 43.01 5.5049 43.1062 5.42526C43.2024 5.34562 43.3165 5.29051 43.4386 5.26465C43.599 5.26465 43.8781 5.51998 43.9493 5.71593C44.1868 6.38099 44.264 6.46412 44.9885 6.47006L47.2805 6.47599Z" fill="white"/>
</g>
<defs>
<clipPath id="clip0_1426_4457">
<rect width="53.3205" height="35.1431" fill="white" transform="translate(0.431152 0.405273)"/>
</clipPath>
</defs>
</svg>
