<svg width="75" height="75" viewBox="0 0 75 75" fill="none" xmlns="http://www.w3.org/2000/svg">
<g id="Analytics Tracking 1">
<path id="Vector" d="M51.4425 49.583L45.855 50.333V36.278C45.855 35.1605 45.7275 35.0405 44.61 35.0405H41.4225C40.2375 35.0405 40.1325 35.138 40.1325 36.3005C40.1325 41.5505 40.1325 46.8005 40.1325 52.0505C40.1529 52.3323 40.0934 52.6141 39.9607 52.8636C39.828 53.113 39.6276 53.3199 39.3825 53.4605C38.1825 54.323 37.0575 55.3055 35.8425 56.288V45.4055C35.8425 44.363 35.685 44.2055 34.62 44.2055C33.435 44.2055 32.2575 44.2055 31.0725 44.2055C30.3975 44.2055 30.1125 44.513 30.1125 45.173C30.1125 49.913 30.1125 54.6605 30.1125 59.423C30.1125 60.173 30.315 60.3905 31.11 60.4055H32.61C32.6545 60.4137 32.6976 60.4289 32.7375 60.4505L30.645 66.0005H7.44746C5.48996 66.0005 4.64246 65.1455 4.64246 63.173V15.8255H14.25C14.8627 15.8607 15.4761 15.767 16.0504 15.5503C16.6247 15.3337 17.1471 14.999 17.5839 14.5678C18.0208 14.1366 18.3623 13.6186 18.5864 13.0471C18.8105 12.4757 18.9122 11.8637 18.885 11.2505C18.885 8.36297 18.885 5.46797 18.885 2.58047V1.60547H48.6375C50.6325 1.60547 51.4425 2.42297 51.4425 4.41797V49.583ZM41.64 31.028C41.6025 31.3805 41.5725 31.583 41.5575 31.778C41.49 32.528 41.8275 33.0755 42.48 33.173C42.6411 33.2032 42.8068 33.1985 42.966 33.1592C43.1251 33.12 43.274 33.0471 43.4027 32.9455C43.5313 32.8439 43.6366 32.7159 43.7116 32.5701C43.7866 32.4243 43.8295 32.2642 43.8375 32.1005C44.0925 30.8005 44.3275 29.498 44.5425 28.193C44.5851 28.0344 44.5919 27.8684 44.5622 27.7069C44.5325 27.5454 44.4671 27.3926 44.3707 27.2596C44.2744 27.1267 44.1496 27.0169 44.0055 26.9383C43.8613 26.8597 43.7014 26.8143 43.5375 26.8055C42.1125 26.708 40.695 26.6405 39.27 26.5955C39.108 26.5639 38.9412 26.5679 38.7809 26.6072C38.6207 26.6464 38.4709 26.72 38.3419 26.8227C38.2128 26.9255 38.1076 27.0551 38.0335 27.2025C37.9594 27.3499 37.9182 27.5116 37.9127 27.6765C37.9072 27.8414 37.9376 28.0055 38.0017 28.1575C38.0658 28.3095 38.1621 28.4458 38.284 28.5569C38.406 28.668 38.5505 28.7514 38.7078 28.8012C38.8651 28.8511 39.0313 28.8661 39.195 28.8455C39.555 28.8905 39.945 28.9205 40.4175 28.9655C38.43 30.7955 36.57 32.5055 34.725 34.2155C34.2375 34.6655 33.795 35.1005 33.0375 34.868C32.8125 34.8005 32.52 34.9655 32.2875 34.958C31.9772 34.9835 31.6655 34.9319 31.38 34.808C29.625 33.668 27.8925 32.4755 26.13 31.328C25.9564 31.2323 25.8102 31.094 25.7052 30.9259C25.6002 30.7579 25.5399 30.5659 25.53 30.368C25.4958 30.025 25.3892 29.6932 25.2174 29.3945C25.0456 29.0957 24.8123 28.8368 24.5331 28.6348C24.2538 28.4328 23.9349 28.2923 23.5974 28.2226C23.2598 28.1529 22.9114 28.1556 22.575 28.2305C21.9226 28.3761 21.3535 28.7721 20.9902 29.3332C20.6269 29.8943 20.4984 30.5756 20.6325 31.2305C20.6659 31.4069 20.6632 31.5882 20.6245 31.7635C20.5858 31.9389 20.512 32.1045 20.4075 32.2505C18.2675 35.0805 16.1075 37.8855 13.9275 40.6655C13.7077 40.9235 13.4007 41.0917 13.065 41.138C12.7206 41.15 12.3823 41.2318 12.0704 41.3782C11.7586 41.5247 11.4796 41.7328 11.2504 41.99C11.0212 42.2473 10.8465 42.5483 10.7368 42.8749C10.6272 43.2016 10.5849 43.547 10.6125 43.8905C10.643 44.2368 10.7453 44.573 10.9129 44.8777C11.0804 45.1823 11.3096 45.4487 11.5857 45.66C11.8619 45.8713 12.179 46.0227 12.5169 46.1047C12.8547 46.1868 13.206 46.1975 13.5483 46.1364C13.8905 46.0753 14.2163 45.9435 14.5049 45.7496C14.7935 45.5557 15.0386 45.3038 15.2245 45.01C15.4104 44.7162 15.5332 44.3869 15.5849 44.0431C15.6366 43.6993 15.6162 43.3485 15.525 43.013C15.4759 42.7539 15.5268 42.486 15.6675 42.263C17.88 39.3455 20.1675 36.458 22.3425 33.5405C22.7775 32.9705 23.385 33.3455 23.8425 33.113C23.9669 33.0756 24.0978 33.0643 24.2268 33.0798C24.3559 33.0953 24.4804 33.1372 24.5925 33.203C26.4525 34.413 28.295 35.643 30.12 36.893C30.3173 37.0449 30.4467 37.2686 30.48 37.5155C30.55 38.1526 30.8616 38.7387 31.3506 39.153C31.8397 39.5674 32.4689 39.7785 33.1089 39.7429C33.7489 39.7074 34.3509 39.4278 34.791 38.9619C35.2312 38.4959 35.4759 37.8789 35.475 37.238C35.4928 36.9031 35.6314 36.5861 35.865 36.3455C37.365 34.8455 38.9775 33.458 40.5375 32.018C40.905 31.703 41.25 31.4105 41.64 31.028ZM25.89 49.973C25.89 46.823 25.89 43.6705 25.89 40.5155C25.89 39.668 25.7175 39.503 24.87 39.4955C23.6175 39.4955 22.365 39.4955 21.12 39.4955C20.475 39.4955 20.1975 39.773 20.1975 40.4105C20.1975 46.7655 20.1975 53.118 20.1975 59.468C20.1975 60.098 20.46 60.398 21.1125 60.383C22.3425 60.383 23.5725 60.383 24.8025 60.383C25.7475 60.383 25.8975 60.233 25.8975 59.2955C25.9225 56.1855 25.9325 53.078 25.9275 49.973H25.89ZM31.89 16.373H18.3225C18.0579 16.3502 17.792 16.3502 17.5275 16.373C17.2863 16.4196 17.0669 16.5434 16.9022 16.7257C16.7376 16.9079 16.6367 17.1388 16.6147 17.3834C16.5926 17.628 16.6508 17.8731 16.7802 18.0818C16.9097 18.2906 17.1035 18.4515 17.3325 18.5405C17.6063 18.627 17.8931 18.6651 18.18 18.653C27.325 18.653 36.465 18.653 45.6 18.653C45.8887 18.664 46.1774 18.6285 46.455 18.548C46.702 18.4793 46.915 18.322 47.0534 18.1062C47.1917 17.8903 47.2457 17.6311 47.205 17.378C47.1931 17.1216 47.0884 16.8782 46.9104 16.6933C46.7324 16.5084 46.4932 16.3945 46.2375 16.373C45.9728 16.3543 45.7071 16.3543 45.4425 16.373H31.89ZM31.89 23.963H45.5175C45.7672 23.9792 46.0177 23.9792 46.2675 23.963C46.5238 23.943 46.7639 23.8296 46.9422 23.6444C47.1206 23.4591 47.2247 23.2149 47.235 22.958C47.2902 22.7009 47.2448 22.4324 47.1081 22.2077C46.9714 21.9831 46.7537 21.8195 46.5 21.7505C46.1744 21.6666 45.8383 21.6313 45.5025 21.6455C36.4575 21.6455 27.415 21.6455 18.375 21.6455C18.0623 21.6333 17.7495 21.6636 17.445 21.7355C17.1958 21.8078 16.9793 21.964 16.8321 22.1776C16.6848 22.3912 16.616 22.6492 16.6372 22.9078C16.6584 23.1663 16.7683 23.4096 16.9483 23.5965C17.1283 23.7833 17.3673 23.9022 17.625 23.933C17.8747 23.9489 18.1252 23.9489 18.375 23.933L31.89 23.963ZM33.795 11.063H22.17C21.9529 11.044 21.7345 11.044 21.5175 11.063C21.2488 11.0837 20.9979 11.2048 20.8144 11.4021C20.631 11.5994 20.5285 11.8586 20.5275 12.128C20.4951 12.4075 20.5723 12.6887 20.7429 12.9125C20.9136 13.1363 21.1643 13.2852 21.4425 13.328C21.6343 13.3506 21.8281 13.3506 22.02 13.328H45.675C45.8889 13.3582 46.106 13.3582 46.32 13.328C46.5787 13.2684 46.8088 13.121 46.9711 12.9108C47.1333 12.7006 47.2177 12.4407 47.2097 12.1753C47.2017 11.9099 47.102 11.6554 46.9274 11.4553C46.7529 11.2552 46.5143 11.1219 46.2525 11.078C46.0381 11.0554 45.8219 11.0554 45.6075 11.078L33.795 11.063ZM33.8775 8.06297H45.33C45.6198 8.07796 45.9101 8.07796 46.2 8.06297C46.4569 8.05273 46.7011 7.94857 46.8864 7.77024C47.0716 7.59192 47.185 7.35182 47.205 7.09547C47.262 6.83428 47.2158 6.56114 47.076 6.33325C46.9362 6.10537 46.7137 5.94042 46.455 5.87297C46.1295 5.78881 45.7933 5.75343 45.4575 5.76797H22.29C21.9304 5.75381 21.571 5.79685 21.225 5.89547C20.9791 5.97053 20.771 6.13629 20.6429 6.35914C20.5147 6.58199 20.4761 6.84523 20.535 7.09547C20.5529 7.33909 20.6559 7.56867 20.8259 7.74412C20.9958 7.91958 21.222 8.02977 21.465 8.05547C21.7145 8.07593 21.9654 8.07593 22.215 8.05547L33.8775 8.06297ZM10.2675 55.418C10.2675 56.7905 10.2675 58.163 10.2675 59.5355C10.253 59.6486 10.2645 59.7635 10.3011 59.8715C10.3377 59.9795 10.3984 60.0777 10.4787 60.1587C10.5589 60.2397 10.6566 60.3013 10.7643 60.3388C10.8719 60.3764 10.9867 60.3889 11.1 60.3755C12.45 60.3755 13.8 60.3755 15.1425 60.3755C15.7275 60.3755 15.96 60.0755 15.96 59.513C15.96 56.798 15.96 54.0755 15.96 51.3605C15.96 50.7605 15.705 50.4755 15.09 50.483C13.7925 50.483 12.4875 50.483 11.19 50.483C10.4925 50.483 10.2525 50.798 10.2675 51.4505C10.2825 52.7705 10.2675 54.098 10.2675 55.418ZM11.2725 16.418C10.815 16.418 10.3575 16.418 9.89996 16.418C9.62989 16.4275 9.37371 16.54 9.18403 16.7325C8.99434 16.925 8.88554 17.1828 8.87996 17.453C8.85657 17.5857 8.86095 17.7218 8.89282 17.8527C8.92468 17.9836 8.98334 18.1065 9.06509 18.2137C9.14684 18.3208 9.2499 18.4098 9.36778 18.4751C9.48566 18.5404 9.61579 18.5805 9.74996 18.593C10.778 18.683 11.8119 18.683 12.84 18.593C13.44 18.548 13.7175 18.038 13.6725 17.4305C13.6765 17.1612 13.5739 16.9013 13.387 16.7074C13.2001 16.5135 12.9442 16.4014 12.675 16.3955C12.1875 16.358 11.73 16.388 11.25 16.388L11.2725 16.418ZM11.2725 23.9855C11.7 23.9855 12.135 23.9855 12.57 23.9855C12.7096 23.9915 12.8491 23.9693 12.9799 23.92C13.1107 23.8707 13.2302 23.7954 13.3311 23.6987C13.432 23.602 13.5123 23.4858 13.5671 23.3572C13.6219 23.2286 13.6501 23.0903 13.65 22.9505C13.6818 22.8113 13.6829 22.6668 13.6533 22.5272C13.6236 22.3875 13.5639 22.256 13.4782 22.1418C13.3926 22.0276 13.283 21.9334 13.1572 21.8658C13.0315 21.7982 12.8925 21.7589 12.75 21.7505C11.769 21.6717 10.7834 21.6717 9.80246 21.7505C9.6621 21.761 9.52548 21.8007 9.40133 21.8671C9.27718 21.9334 9.16822 22.0249 9.08142 22.1357C8.99461 22.2465 8.93186 22.3742 8.89717 22.5106C8.86248 22.647 8.85662 22.7892 8.87996 22.928C8.88092 23.0681 8.90973 23.2067 8.96472 23.3356C9.01971 23.4645 9.09978 23.5812 9.20027 23.6789C9.30076 23.7766 9.41967 23.8534 9.55009 23.9047C9.68051 23.9561 9.81983 23.981 9.95996 23.978C10.395 24.0005 10.83 23.9555 11.25 23.9555L11.2725 23.9855Z" fill="white"/>
<path id="Vector_2" d="M70.3275 70.86H60.9975C60.9712 68.795 60.2853 66.7925 59.04 65.145L65.6475 58.5C68.16 60.54 70.6575 67.035 70.3275 70.86Z" fill="white"/>
<path id="Vector_3" d="M41.91 70.8676H32.5425C32.5274 66.2961 34.193 61.8786 37.2225 58.4551L43.8975 65.1001C42.6294 66.7574 41.9321 68.7809 41.91 70.8676Z" fill="white"/>
<path id="Vector_4" d="M52.6425 61.2079V52.1554C55.6425 51.8329 61.6425 54.3079 63.8925 56.7229L57.375 63.1804L52.6425 61.2079Z" fill="white"/>
<path id="Vector_5" d="M39.045 56.7228C41.025 54.4128 47.1075 51.8853 50.235 52.1478V61.2303L45.525 63.1878L39.045 56.7228Z" fill="white"/>
<path id="Vector_6" d="M5.04749 13.4995L16.5 2.00195C16.5279 2.18079 16.5454 2.36109 16.5525 2.54195C16.5525 5.37695 16.5525 8.21945 16.5525 11.0545C16.5675 12.7495 15.75 13.4995 14.0775 13.4995H5.07749H5.04749Z" fill="white"/>
<path id="Vector_7" d="M51.4349 73.3958C50.7778 73.3958 50.1475 73.1353 49.6822 72.6713C49.2168 72.2074 48.9544 71.5779 48.9524 70.9208C48.9428 70.5883 49.0019 70.2574 49.1261 69.9489C49.2503 69.6403 49.4369 69.3608 49.6742 69.1277C49.9115 68.8946 50.1943 68.7131 50.5051 68.5944C50.8158 68.4758 51.1477 68.4226 51.4799 68.4383C51.7487 68.4657 52.0201 68.4251 52.269 68.3202C52.518 68.2154 52.7367 68.0497 52.9049 67.8383C53.5199 67.1708 54.1799 66.5333 54.8399 65.8958C54.942 65.7663 55.0705 65.6601 55.2167 65.5841C55.363 65.5081 55.5238 65.464 55.6884 65.4549C55.853 65.4458 56.0177 65.4718 56.1715 65.5311C56.3253 65.5905 56.4647 65.6819 56.5804 65.7993C56.6962 65.9167 56.7857 66.0573 56.8429 66.2119C56.9002 66.3665 56.9239 66.5315 56.9125 66.696C56.9011 66.8604 56.8548 67.0206 56.7768 67.1658C56.6988 67.311 56.5908 67.438 56.4599 67.5383C55.7099 68.2883 54.9599 68.9783 54.2774 69.7433C54.0759 70.0068 53.9773 70.3348 53.9999 70.6658C54.0283 71.0175 53.9826 71.3713 53.866 71.7043C53.7493 72.0373 53.5642 72.3422 53.3226 72.5994C53.081 72.8565 52.7882 73.0603 52.4631 73.1974C52.138 73.3346 51.7877 73.4022 51.4349 73.3958Z" fill="white"/>
</g>
</svg>
