<svg width="75" height="68" viewBox="0 0 75 68" fill="none" xmlns="http://www.w3.org/2000/svg">
<g id="seo 2">
<g clip-path="url(#clip0_1429_4742)">
<path id="Vector" d="M50.25 15.1069L56.4375 21.2854C55.7411 22.1783 55.0179 23.2408 54.259 24.2229C54.1046 24.3687 54.0072 24.5647 53.9843 24.7758C53.9614 24.9869 54.0145 25.1992 54.134 25.3747C54.6135 26.304 55.0224 27.268 55.3572 28.2586C55.4092 28.4807 55.5343 28.6789 55.7124 28.8214C55.8905 28.9638 56.1113 29.0424 56.3393 29.0444C57.5358 29.2051 58.7411 29.3926 59.9733 29.5711V38.3033C58.7679 38.4819 57.5804 38.6783 56.4018 38.8301C56.1613 38.8344 55.9292 38.9195 55.743 39.0718C55.5567 39.224 55.4271 39.4345 55.375 39.6694C55.063 40.6332 54.6749 41.5706 54.2143 42.4729C54.0912 42.6601 54.0364 42.8839 54.0592 43.1068C54.082 43.3296 54.1809 43.5378 54.3393 43.6961C55.0983 44.6515 55.7947 45.6426 56.4643 46.5444L50.2143 52.7319C49.3215 52.0801 48.3393 51.3836 47.384 50.6336C47.223 50.4739 47.0124 50.3736 46.7869 50.3493C46.5614 50.3249 46.3343 50.378 46.1429 50.4997C45.2051 50.9505 44.2422 51.3469 43.259 51.6872C43.0555 51.7344 42.8734 51.8476 42.741 52.0091C42.6085 52.1706 42.5332 52.3713 42.5268 52.5801C42.4183 53.645 42.2514 54.7031 42.0268 55.7497C41.976 55.8887 41.8915 56.0128 41.7809 56.111C41.6702 56.2092 41.5369 56.2783 41.3929 56.3122C38.875 56.3479 36.3512 56.3479 33.8215 56.3122C33.6791 56.277 33.5476 56.2072 33.4386 56.1091C33.3296 56.011 33.2464 55.8876 33.1965 55.7497C32.9733 54.6694 32.8661 53.5711 32.6429 52.4997C32.5986 52.3375 32.5219 52.1858 32.4176 52.0539C32.3133 51.9219 32.1834 51.8124 32.0358 51.7319C31.0447 51.2676 30.0179 50.839 28.9911 50.4819C28.8296 50.4264 28.6586 50.4042 28.4883 50.4164C28.318 50.4287 28.1519 50.4753 28 50.5533C26.9286 51.2765 25.8929 52.0533 25 52.7676L18.75 46.5622C19.4018 45.6694 20.1072 44.6694 20.875 43.6961C21.0357 43.5372 21.136 43.3273 21.1588 43.1025C21.1816 42.8777 21.1255 42.652 21 42.464C20.5461 41.5909 20.1697 40.6797 19.875 39.7408C19.811 39.4844 19.6626 39.2569 19.4537 39.095C19.2448 38.9331 18.9875 38.8461 18.7232 38.8479C17.5715 38.714 16.4286 38.5176 15.2322 38.3301V29.5979C16.384 29.4194 17.5715 29.2051 18.8036 29.0622C19.0597 29.0596 19.3072 28.9697 19.5053 28.8073C19.7033 28.645 19.8401 28.4199 19.8929 28.1694C20.1859 27.2299 20.5624 26.3185 21.0179 25.4461C21.1509 25.2473 21.2104 25.0082 21.1859 24.7702C21.1615 24.5322 21.0547 24.3102 20.884 24.1426C20.134 23.214 19.4286 22.2051 18.75 21.2854L24.9197 15.0979C25.884 15.8122 26.884 16.589 27.9375 17.2854C28.0995 17.3713 28.2775 17.4228 28.4604 17.4366C28.6432 17.4505 28.827 17.4263 29 17.3658C30.0117 17.0135 31.0042 16.6082 31.9733 16.1515C32.2747 16.0005 32.5053 15.7378 32.6161 15.4194C32.8393 14.339 33 13.2497 33.125 12.1604C33.1875 11.6783 33.3661 11.5176 33.8393 11.5176C36.3393 11.5176 38.8304 11.5176 41.3304 11.5176C41.7947 11.5176 41.9822 11.6694 42.0447 12.1515C42.1608 13.214 42.3929 14.2676 42.509 15.3301C42.5131 15.5264 42.5818 15.7159 42.7044 15.8692C42.8271 16.0226 42.9969 16.1312 43.1875 16.1783C44.1962 16.5343 45.1856 16.9426 46.1518 17.4015C46.3337 17.513 46.5477 17.5604 46.7597 17.5361C46.9717 17.5118 47.1695 17.4173 47.3215 17.2676C48.2858 16.5265 49.2858 15.8211 50.25 15.1069ZM37.625 46.1783C40.0472 46.1676 42.4117 45.4386 44.4194 44.0836C46.4271 42.7285 47.9876 40.8083 48.9035 38.5659C49.8193 36.3235 50.0494 33.8599 49.5645 31.4867C49.0796 29.1136 47.9015 26.9377 46.1794 25.2343C44.4573 23.531 42.2686 22.3768 39.8903 21.918C37.512 21.4591 35.051 21.7161 32.8188 22.6564C30.5866 23.5968 28.6836 25.1783 27.3506 27.2007C26.0176 29.2231 25.3145 31.5954 25.3304 34.0176C25.3493 37.2602 26.6549 40.3626 28.9604 42.643C31.2658 44.9233 34.3824 46.1949 37.625 46.1783Z" fill="#060044"/>
<path id="Vector_2" d="M65.6786 21.9821C64.7649 19.6933 63.5293 17.5467 62.0089 15.6071C54.8661 6.58034 45.5178 2.30356 34.0893 3.62499C22.0803 5.00891 13.6964 11.6607 9.13391 22.875C8.31336 25.3172 7.68057 27.8185 7.24106 30.3571C7.00891 31.3482 6.45534 31.8571 5.58034 31.7143C5.38595 31.6785 5.20123 31.6023 5.03817 31.4906C4.87511 31.3789 4.73735 31.2342 4.63381 31.0658C4.53026 30.8975 4.46325 30.7092 4.43713 30.5133C4.411 30.3174 4.42633 30.1182 4.48213 29.9286C4.97383 25.5036 6.36383 21.2256 8.56696 17.3566C10.7701 13.4877 13.74 10.1094 17.2946 7.42856C23.4717 2.50885 31.2763 0.0985945 39.1518 0.678558C52.8214 1.61606 62.5 8.52677 68.2678 20.8928C68.3393 21.0446 68.4196 21.1964 68.5268 21.4018L73.2143 20.4286C73.9018 20.2857 74.5625 20.2321 75 20.875C75.1954 21.1468 75.3006 21.4732 75.3006 21.808C75.3006 22.1428 75.1954 22.4692 75 22.7411C73.5803 25.4196 72.1875 28.0982 70.7678 30.8303C70.0714 32.1518 69.2857 32.3214 68.1339 31.3928L60.9911 25.6518C60.4375 25.2143 59.9821 24.7589 60.1696 23.9732C60.3571 23.1875 61.0089 22.9464 61.7232 22.8036C63.0178 22.5536 64.2857 22.2678 65.6786 21.9821Z" fill="#060044"/>
<path id="Vector_3" d="M6.75896 46.6698C5.04467 47.0001 3.39289 47.2948 1.7411 47.6251C1.42692 47.7386 1.08486 47.7496 0.764033 47.6566C0.443203 47.5635 0.160106 47.3712 -0.0446113 47.1073C-0.211774 46.8354 -0.292712 46.5193 -0.276775 46.2006C-0.260838 45.8818 -0.148772 45.5754 0.0446748 45.3215C1.52682 42.643 2.9911 39.9644 4.50896 37.2323C5.18753 35.9912 6.02682 35.8216 7.09825 36.7144C9.4911 38.6966 11.8572 40.7055 14.2411 42.6876C14.512 42.8603 14.7228 43.1127 14.8443 43.4101C14.9658 43.7076 14.9922 44.0353 14.9197 44.3483C14.7322 45.0715 14.1429 45.2948 13.4822 45.4198C12.2322 45.643 10.9822 45.884 9.65182 46.134C10.5384 48.3005 11.7191 50.3345 13.1607 52.1787C20.9286 62.0001 31.0715 66.2055 43.3393 63.9198C55.7143 61.6073 63.634 53.8394 67.1518 41.6787C67.4925 40.3008 67.7607 38.9061 67.9554 37.5001C68.125 36.5537 68.7054 36.0626 69.5447 36.1698C69.7388 36.1981 69.9249 36.2663 70.0913 36.3702C70.2577 36.474 70.4008 36.6112 70.5116 36.7731C70.6223 36.935 70.6983 37.1181 70.7347 37.3109C70.7711 37.5036 70.7672 37.7018 70.7232 37.893C69.8546 45.1692 66.6135 51.9567 61.5009 57.2064C56.3883 62.4561 49.689 65.8757 42.4383 66.9366C35.1876 67.9976 27.7894 66.6407 21.3871 63.0759C14.9847 59.5111 9.93483 53.9367 7.01789 47.2144C6.94646 47.0537 6.8661 46.9019 6.75896 46.6698Z" fill="#060044"/>
<path id="Vector_4" d="M36.6071 35.7137L41.6339 31.2941C41.8219 31.1134 42.025 30.9491 42.2411 30.803C42.51 30.6047 42.8446 30.5164 43.1764 30.5562C43.5082 30.596 43.8123 30.761 44.0268 31.0173C44.1526 31.1295 44.2533 31.2671 44.3222 31.421C44.3912 31.5748 44.4268 31.7416 44.4268 31.9102C44.4268 32.0788 44.3912 32.2455 44.3222 32.3994C44.2533 32.5532 44.1526 32.6908 44.0268 32.803C41.9643 34.8209 39.7143 36.7405 37.5 38.6512C37.275 38.8442 36.9884 38.9503 36.6919 38.9503C36.3955 38.9503 36.1089 38.8442 35.8839 38.6512C34.6161 37.7584 33.3482 36.8655 32.1071 35.8745C31.9489 35.7711 31.8136 35.6364 31.7094 35.4787C31.6052 35.321 31.5344 35.1437 31.5014 34.9576C31.4684 34.7715 31.4739 34.5807 31.5175 34.3968C31.561 34.2129 31.6418 34.0399 31.7548 33.8884C31.8678 33.7369 32.0106 33.6102 32.1745 33.516C32.3383 33.4219 32.5197 33.3622 32.7075 33.3409C32.8953 33.3195 33.0854 33.3368 33.2663 33.3917C33.4471 33.4466 33.6147 33.538 33.7589 33.6602C34.7232 34.3298 35.6428 35.0262 36.6071 35.7137Z" fill="#060044"/>
</g>
</g>
<defs>
<clipPath id="clip0_1429_4742">
<rect width="75" height="67.8571" rx="1" fill="white"/>
</clipPath>
</defs>
</svg>
