<svg width="63" height="57" viewBox="0 0 63 57" fill="none" xmlns="http://www.w3.org/2000/svg">
<g id="seo 2" clip-path="url(#clip0_1427_4556)">
<path id="Vector" d="M42.21 12.6898L47.4075 17.8798C46.8225 18.6298 46.215 19.5223 45.5775 20.3473C45.4479 20.4698 45.3661 20.6344 45.3468 20.8117C45.3276 20.989 45.3722 21.1674 45.4725 21.3148C45.8754 22.0954 46.2188 22.9052 46.5 23.7373C46.5437 23.9238 46.6488 24.0903 46.7984 24.21C46.948 24.3297 47.1335 24.3956 47.325 24.3973C48.33 24.5323 49.3425 24.6898 50.3775 24.8398V32.1748C49.365 32.3248 48.3675 32.4898 47.3775 32.6173C47.1755 32.6209 46.9806 32.6924 46.8241 32.8203C46.6677 32.9482 46.5588 33.125 46.515 33.3223C46.2529 34.1319 45.9269 34.9194 45.54 35.6773C45.4366 35.8345 45.3906 36.0226 45.4097 36.2097C45.4289 36.3969 45.512 36.5718 45.645 36.7048C46.2825 37.5073 46.8675 38.3398 47.43 39.0973L42.18 44.2948C41.43 43.7473 40.605 43.1623 39.8025 42.5323C39.6673 42.3981 39.4904 42.3139 39.301 42.2934C39.1116 42.273 38.9208 42.3175 38.76 42.4198C37.9723 42.7984 37.1635 43.1315 36.3375 43.4173C36.1666 43.4569 36.0137 43.552 35.9024 43.6877C35.7912 43.8233 35.7279 43.992 35.7225 44.1673C35.6314 45.0618 35.4912 45.9507 35.3025 46.8298C35.2599 46.9465 35.1889 47.0508 35.0959 47.1333C35.003 47.2157 34.891 47.2738 34.77 47.3023C32.655 47.3323 30.535 47.3323 28.41 47.3023C28.2905 47.2727 28.18 47.2141 28.0884 47.1317C27.9969 47.0493 27.927 46.9456 27.885 46.8298C27.6975 45.9223 27.6075 44.9998 27.42 44.0998C27.3828 43.9635 27.3184 43.8361 27.2308 43.7253C27.1432 43.6145 27.0341 43.5225 26.91 43.4548C26.0775 43.0648 25.215 42.7048 24.3525 42.4048C24.2169 42.3582 24.0732 42.3395 23.9302 42.3498C23.7871 42.3602 23.6476 42.3993 23.52 42.4648C22.62 43.0723 21.75 43.7248 21 44.3248L15.75 39.1123C16.2975 38.3623 16.89 37.5223 17.535 36.7048C17.67 36.5713 17.7543 36.395 17.7734 36.2062C17.7926 36.0173 17.7454 35.8277 17.64 35.6698C17.2587 34.9364 16.9425 34.171 16.695 33.3823C16.6412 33.1669 16.5166 32.9759 16.3411 32.8398C16.1656 32.7038 15.9496 32.6307 15.7275 32.6323C14.76 32.5198 13.8 32.3548 12.795 32.1973V24.8623C13.7625 24.7123 14.76 24.5323 15.795 24.4123C16.0101 24.4101 16.2181 24.3346 16.3844 24.1982C16.5508 24.0618 16.6657 23.8728 16.71 23.6623C16.9562 22.8731 17.2724 22.1076 17.655 21.3748C17.7668 21.2078 17.8167 21.0069 17.7962 20.807C17.7756 20.6071 17.6859 20.4206 17.5425 20.2798C16.9125 19.4998 16.32 18.6523 15.75 17.8798L20.9325 12.6823C21.7425 13.2823 22.5825 13.9348 23.4675 14.5198C23.6036 14.592 23.7532 14.6352 23.9067 14.6468C24.0603 14.6584 24.2147 14.6382 24.36 14.5873C25.2099 14.2914 26.0435 13.9509 26.8575 13.5673C27.1108 13.4404 27.3045 13.2198 27.3975 12.9523C27.585 12.0448 27.72 11.1298 27.825 10.2148C27.8775 9.80981 28.0275 9.6748 28.425 9.6748C30.525 9.6748 32.6175 9.6748 34.7175 9.6748C35.1075 9.6748 35.265 9.80231 35.3175 10.2073C35.415 11.0998 35.61 11.9848 35.7075 12.8773C35.711 13.0422 35.7687 13.2014 35.8717 13.3302C35.9748 13.459 36.1174 13.5503 36.2775 13.5898C37.1248 13.8889 37.9559 14.2319 38.7675 14.6173C38.9204 14.711 39.1001 14.7508 39.2782 14.7304C39.4562 14.71 39.6224 14.6306 39.75 14.5048C40.56 13.8823 41.4 13.2898 42.21 12.6898ZM31.605 38.7898C33.6397 38.7809 35.6259 38.1685 37.3123 37.0302C38.9988 35.892 40.3096 34.279 41.0789 32.3954C41.8483 30.5118 42.0415 28.4423 41.6342 26.4489C41.2268 24.4555 40.2373 22.6277 38.7907 21.1969C37.3442 19.7661 35.5056 18.7966 33.5079 18.4111C31.5101 18.0257 29.4428 18.2415 27.5678 19.0315C25.6928 19.8214 24.0942 21.1498 22.9745 22.8486C21.8548 24.5474 21.2642 26.5402 21.2775 28.5748C21.2934 31.2986 22.3902 33.9047 24.3267 35.8201C26.2633 37.7356 28.8812 38.8038 31.605 38.7898Z" fill="white"/>
<path id="Vector_2" d="M55.17 18.4653C54.4026 16.5427 53.3646 14.7395 52.0875 13.1103C46.0875 5.52776 38.235 1.93526 28.635 3.04526C18.5475 4.20776 11.505 9.79526 7.6725 19.2153C6.98323 21.2667 6.45169 23.3678 6.0825 25.5003C5.8875 26.3328 5.4225 26.7603 4.6875 26.6403C4.52421 26.6102 4.36905 26.5462 4.23208 26.4524C4.09511 26.3586 3.97938 26.237 3.89241 26.0956C3.80543 25.9542 3.74915 25.796 3.7272 25.6315C3.70525 25.4669 3.71813 25.2995 3.765 25.1403C4.17803 21.4233 5.34563 17.8297 7.19626 14.5799C9.04689 11.33 11.5416 8.49214 14.5275 6.24026C19.7162 2.10771 26.2721 0.0830928 32.8875 0.570262C44.37 1.35776 52.5 7.16276 57.345 17.5503C57.405 17.6778 57.4725 17.8053 57.5625 17.9778L61.5 17.1603C62.0775 17.0403 62.6325 16.9953 63 17.5353C63.1642 17.7636 63.2525 18.0378 63.2525 18.319C63.2525 18.6003 63.1642 18.8744 63 19.1028C61.8075 21.3528 60.6375 23.6028 59.445 25.8978C58.86 27.0078 58.2 27.1503 57.2325 26.3703L51.2325 21.5478C50.7675 21.1803 50.385 20.7978 50.5425 20.1378C50.7 19.4778 51.2475 19.2753 51.8475 19.1553C52.935 18.9453 54 18.7053 55.17 18.4653Z" fill="white"/>
<path id="Vector_3" d="M5.67754 39.2028C4.23754 39.4803 2.85004 39.7278 1.46254 40.0053C1.19863 40.1006 0.911302 40.1099 0.641805 40.0317C0.372308 39.9536 0.134506 39.792 -0.0374564 39.5703C-0.177873 39.3419 -0.245861 39.0764 -0.232474 38.8087C-0.219087 38.5409 -0.124952 38.2835 0.0375439 38.0703C1.28254 35.8203 2.51254 33.5703 3.78754 31.2753C4.35754 30.2328 5.06254 30.0903 5.96254 30.8403C7.97254 32.5053 9.96004 34.1928 11.9625 35.8578C12.1901 36.0028 12.3672 36.2149 12.4692 36.4647C12.5713 36.7145 12.5934 36.9899 12.5325 37.2528C12.375 37.8603 11.88 38.0478 11.325 38.1528C10.275 38.3403 9.22504 38.5428 8.10754 38.7528C8.85225 40.5726 9.84407 42.2812 11.055 43.8303C17.58 52.0803 26.1 55.6128 36.405 53.6928C46.8 51.7503 53.4525 45.2253 56.4075 35.0103C56.6937 33.8529 56.919 32.6813 57.0825 31.5003C57.225 30.7053 57.7125 30.2928 58.4175 30.3828C58.5806 30.4066 58.7369 30.4639 58.8767 30.5511C59.0165 30.6384 59.1367 30.7536 59.2297 30.8896C59.3228 31.0256 59.3866 31.1794 59.4172 31.3413C59.4478 31.5032 59.4445 31.6697 59.4075 31.8303C58.6779 37.9423 55.9553 43.6438 51.6608 48.0536C47.3662 52.4633 41.7388 55.3358 35.6482 56.227C29.5576 57.1182 23.3431 55.9784 17.9651 52.984C12.5872 49.9895 8.34527 45.307 5.89504 39.6603C5.83504 39.5253 5.76754 39.3978 5.67754 39.2028Z" fill="white"/>
<path id="Vector_4" d="M30.75 30.0003L34.9725 26.2878C35.1304 26.136 35.301 25.998 35.4825 25.8753C35.7085 25.7087 35.9895 25.6346 36.2682 25.668C36.5469 25.7015 36.8024 25.84 36.9825 26.0553C37.0882 26.1496 37.1728 26.2651 37.2307 26.3944C37.2886 26.5237 37.3185 26.6637 37.3185 26.8053C37.3185 26.947 37.2886 27.087 37.2307 27.2162C37.1728 27.3455 37.0882 27.461 36.9825 27.5553C35.25 29.2503 33.36 30.8628 31.5 32.4678C31.311 32.6299 31.0702 32.7191 30.8213 32.7191C30.5723 32.7191 30.3315 32.6299 30.1425 32.4678C29.0775 31.7178 28.0125 30.9678 26.97 30.1353C26.8371 30.0485 26.7234 29.9354 26.6359 29.8029C26.5484 29.6705 26.489 29.5215 26.4612 29.3652C26.4335 29.2089 26.4381 29.0485 26.4747 28.8941C26.5113 28.7396 26.5791 28.5943 26.6741 28.467C26.769 28.3398 26.889 28.2333 27.0266 28.1542C27.1642 28.0751 27.3166 28.0251 27.4743 28.0071C27.632 27.9891 27.7918 28.0037 27.9437 28.0498C28.0956 28.0959 28.2364 28.1727 28.3575 28.2753C29.1675 28.8378 29.94 29.4228 30.75 30.0003Z" fill="white"/>
</g>
<defs>
<clipPath id="clip0_1427_4556">
<rect width="63" height="57" fill="white"/>
</clipPath>
</defs>
</svg>
