<svg width="65" height="68" viewBox="0 0 65 68" fill="none" xmlns="http://www.w3.org/2000/svg">
<g id="writer 1">
<path id="Vector" d="M49.4995 55.0016H48.7149C45.5039 55.0016 42.2929 54.9435 39.0819 55.0016C35.2587 55.1224 31.5155 53.8901 28.5118 51.5218C26.6956 50.1343 24.8794 48.7394 23.0342 47.3882C19.2475 44.5664 14.9682 42.4748 10.4154 41.2205C9.60725 41.0365 8.88632 40.5817 8.37228 39.9316C7.85824 39.2814 7.582 38.475 7.58942 37.6462C7.58146 36.8651 7.83439 36.1037 8.30812 35.4826C8.78185 34.8615 9.4493 34.4162 10.2047 34.2173C10.8974 34.0537 11.6187 34.0537 12.3115 34.2173C15.2174 34.9438 17.8327 36.3241 20.4625 37.6826C23.4919 39.2445 26.543 40.7628 29.9066 41.4384C31.0036 41.6564 32.086 41.8017 33.2266 41.9324C34.1855 42.0414 34.6795 41.7217 34.7667 41.0461C34.8539 40.3705 34.3889 39.8765 33.4372 39.7966C30.124 39.484 26.8999 38.5474 23.935 37.036L23.6008 36.8471C23.7098 36.6437 23.8042 36.4476 23.9132 36.2587C26.4704 31.8563 29.0179 27.449 31.5557 23.0369C31.591 22.9415 31.6459 22.8546 31.717 22.7817C31.788 22.7089 31.8736 22.6518 31.9681 22.6141C32.0626 22.5765 32.1639 22.5591 32.2656 22.5631C32.3673 22.5671 32.467 22.5924 32.5582 22.6374C35.6255 23.6006 38.479 25.1445 40.9635 27.1851C41.4357 27.5628 41.9297 27.9115 42.4164 28.282C44.4332 29.9177 46.9142 30.876 49.5068 31.0208L49.4995 55.0016Z" fill="white"/>
<path id="Vector_2" d="M64.7989 31.1602V54.9521H51.7224V31.1602H64.7989Z" fill="white"/>
<path id="Vector_3" d="M21.7192 35.7644L13.0959 31.9867C13.1395 31.8996 13.2485 31.6889 13.3647 31.4855L27.4147 7.09059C28.7223 4.824 30.7928 4.27915 33.0666 5.57953L34.229 6.24788C34.6943 6.48949 35.104 6.82586 35.4315 7.23534C35.759 7.64482 35.9971 8.11835 36.1306 8.62543C36.264 9.13252 36.2898 9.66192 36.2063 10.1796C36.1227 10.6972 35.9318 11.1917 35.6456 11.631C33.0884 16.077 30.5216 20.5206 27.945 24.9618C25.9981 28.381 24.0366 31.7857 22.0606 35.1759C21.9371 35.4229 21.8063 35.6264 21.7192 35.7644Z" fill="white"/>
<path id="Vector_4" d="M7.29872 41.9844C9.99393 43.7715 13.1105 44.3236 16.0164 45.6167L11.861 52.816L3.72449 48.123L7.29872 41.9844Z" fill="white"/>
<path id="Vector_5" d="M1.47963 47.76C0.900099 47.3089 0.491007 46.6743 0.319417 45.9602C0.147828 45.2462 0.22392 44.495 0.535222 43.8298C1.84287 40.706 3.18684 37.604 4.47269 34.4729C5.32622 32.358 6.81002 30.5572 8.72255 29.3149C10.5242 28.1308 12.2968 26.9176 14.2292 25.6172C14.0912 25.9078 14.0403 26.0603 13.9604 26.1984C12.9579 27.9419 11.9626 29.7 10.9238 31.429C10.7558 31.6898 10.4969 31.8788 10.1973 31.9593C9.38065 32.1207 8.60823 32.4556 7.93228 32.9415C7.25634 33.4273 6.69264 34.0526 6.27935 34.7752C5.86605 35.4978 5.6128 36.3007 5.53674 37.1297C5.46067 37.9586 5.56357 38.7942 5.83846 39.58C5.88967 39.8072 5.88967 40.0429 5.83846 40.2701C5.83846 40.3863 5.71496 40.5026 5.64957 40.6188L1.47963 47.76Z" fill="white"/>
<path id="Vector_6" d="M18.0142 46.6172C19.0531 47.2928 20.0774 47.9321 21.0726 48.615C21.1704 48.6924 21.2512 48.7891 21.3099 48.8991C21.3687 49.0091 21.4041 49.13 21.4141 49.2543C21.4141 50.1696 21.4141 51.0922 21.4141 52.0076C21.4141 52.6492 21.1592 53.2645 20.7055 53.7182C20.2519 54.1719 19.6365 54.4267 18.9949 54.4267C18.3533 54.4267 17.738 54.1719 17.2843 53.7182C16.8307 53.2645 16.5758 52.6492 16.5758 52.0076C16.6049 51.628 16.6049 51.2467 16.5758 50.867C16.3143 49.218 17.0698 47.9466 18.0142 46.6172Z" fill="white"/>
<path id="Vector_7" d="M10.1246 54.3183L3.39026 58.2049V50.4316L10.1246 54.3183Z" fill="white"/>
<path id="Vector_8" d="M23.6225 50.498L27.7271 53.6437C27.4331 54.0243 27.0214 54.2969 26.5562 54.4191C26.0911 54.5413 25.5985 54.5062 25.1554 54.3193C23.8768 53.8325 23.4773 52.8809 23.6225 50.498Z" fill="white"/>
</g>
</svg>
