<svg width="54" height="53" viewBox="0 0 54 53" fill="none" xmlns="http://www.w3.org/2000/svg">
<g id="seo 1" clip-path="url(#clip0_1429_4833)">
<path id="Vector" d="M0.284729 14.2441H53.6785V14.8416C53.6785 25.8864 53.6785 36.9332 53.6785 47.9819C53.6785 51.0289 51.6532 53.0423 48.5883 53.0423H5.40485C2.31007 53.0423 0.302653 51.0289 0.302653 47.9282V14.2441H0.284729ZM26.9488 43.4175H44.5854C47.0947 43.4175 48.6898 41.8342 48.6898 39.3369C48.6898 34.9038 48.6898 30.4728 48.6898 26.0437C48.6898 23.5344 47.1066 21.9691 44.5914 21.9691H9.37786C6.86262 21.9691 5.27938 23.5404 5.27341 26.0437C5.27341 30.4768 5.27341 34.9058 5.27341 39.3309C5.2681 39.6892 5.2961 40.0472 5.35705 40.4004C5.54523 41.2829 6.03947 42.0704 6.75235 42.6236C7.46522 43.1769 8.35079 43.4602 9.2524 43.4234C15.1552 43.4274 21.054 43.4254 26.9488 43.4175Z" fill="white"/>
<path id="Vector_2" d="M53.6785 12.2908H0.284702V11.6934C0.284702 9.56647 0.284702 7.43956 0.284702 5.31862C0.260373 4.66116 0.372041 4.00576 0.612714 3.39345C0.853387 2.78114 1.21788 2.22511 1.68338 1.76017C2.14887 1.29524 2.70534 0.931415 3.31794 0.691481C3.93054 0.451546 4.58608 0.340669 5.24351 0.365791H48.7436C49.3954 0.344338 50.0448 0.456513 50.6516 0.695411C51.2584 0.934309 51.81 1.29487 52.2723 1.75492C52.7345 2.21496 53.0978 2.76474 53.3396 3.37042C53.5815 3.97611 53.6968 4.62488 53.6785 5.2768C53.6785 7.44553 53.6785 9.60829 53.6785 11.777V12.2908ZM12.6698 6.31636C12.6662 6.88471 12.8313 7.44135 13.1441 7.91588C13.457 8.39041 13.9035 8.76153 14.4272 8.9823C14.9509 9.20306 15.5284 9.26357 16.0865 9.15617C16.6446 9.04876 17.1584 8.77826 17.5627 8.37889C17.9671 7.97951 18.244 7.46918 18.3584 6.91244C18.4727 6.3557 18.4194 5.77755 18.2052 5.25111C17.991 4.72466 17.6255 4.27356 17.1549 3.95484C16.6843 3.63613 16.1298 3.46412 15.5614 3.46056C14.7965 3.4637 14.0637 3.76854 13.5223 4.30886C12.9808 4.84918 12.6745 5.58133 12.6698 6.34623V6.31636ZM23.1848 3.43069C22.609 3.42011 22.043 3.58066 21.5585 3.89201C21.0739 4.20336 20.6927 4.6515 20.4631 5.17967C20.2334 5.70785 20.1657 6.29229 20.2685 6.85898C20.3713 7.42567 20.6399 7.9491 21.0404 8.363C21.4409 8.77689 21.9552 9.06262 22.5182 9.18399C23.0812 9.30536 23.6676 9.25691 24.203 9.04479C24.7385 8.83266 25.1989 8.4664 25.526 7.99239C25.8532 7.51838 26.0323 6.95795 26.0406 6.38208C26.047 6.0022 25.9779 5.62483 25.8374 5.27182C25.697 4.9188 25.4879 4.59714 25.2223 4.32545C24.9567 4.05376 24.6399 3.83742 24.2902 3.68897C23.9405 3.54051 23.5648 3.46288 23.1848 3.46056V3.43069ZM7.92007 3.43069C7.34524 3.42137 6.78053 3.58255 6.29723 3.89389C5.81392 4.20523 5.43368 4.65277 5.2045 5.18002C4.97533 5.70728 4.90749 6.2906 5.00954 6.85638C5.1116 7.42215 5.37898 7.94501 5.77794 8.35896C6.17689 8.77291 6.68954 9.05939 7.25116 9.18224C7.81279 9.30509 8.39822 9.2588 8.93357 9.04922C9.46891 8.83964 9.93017 8.47616 10.2591 8.00466C10.5881 7.53316 10.77 6.97478 10.7818 6.4C10.7898 6.01834 10.7217 5.63891 10.5817 5.28379C10.4416 4.92866 10.2324 4.60492 9.96609 4.3314C9.6998 4.05787 9.38178 3.84003 9.03053 3.69053C8.67928 3.54103 8.30181 3.46286 7.92007 3.46056V3.43069Z" fill="white"/>
<path id="Vector_3" d="M26.9129 41.5116H9.46748C7.88425 41.5116 7.17926 40.8066 7.17926 39.2234V26.1214C7.17926 24.58 7.8962 23.875 9.44358 23.875H44.5257C46.0671 23.875 46.784 24.586 46.784 26.1214C46.784 30.5027 46.784 34.8839 46.784 39.2652C46.784 40.7588 46.0551 41.4877 44.5495 41.4877L26.9129 41.5116ZM43.1455 32.765H43.1874C43.1874 31.833 43.1874 30.895 43.1874 29.969C43.2041 28.7724 42.7545 27.6162 41.9338 26.7453C41.1131 25.8744 39.9856 25.3571 38.7902 25.3029C36.03 25.1774 33.9688 26.8383 33.7656 29.5806C33.6282 31.6395 33.6282 33.7053 33.7656 35.7642C33.8544 36.931 34.374 38.023 35.2233 38.8279C36.0727 39.6328 37.191 40.0931 38.3608 40.1192C39.5307 40.1452 40.6684 39.7353 41.5528 38.969C42.4371 38.2027 43.0048 37.1349 43.1455 35.9733C43.2143 34.905 43.2143 33.8333 43.1455 32.765ZM14.8206 25.5299C14.0387 25.5082 13.2688 25.7252 12.6134 26.1522C11.958 26.5792 11.4483 27.1957 11.1523 27.9197C10.1784 30.3095 11.3554 33.5178 14.8385 33.6731C15.1172 33.6838 15.3909 33.7499 15.6436 33.8676C15.8964 33.9853 16.1231 34.1522 16.3106 34.3586C16.4981 34.565 16.6425 34.8067 16.7355 35.0696C16.8284 35.3325 16.868 35.6113 16.8519 35.8896C16.8606 36.4442 16.6487 36.9796 16.2627 37.3779C15.8767 37.7762 15.3483 38.0049 14.7937 38.0136C14.2391 38.0223 13.7038 37.8103 13.3055 37.4243C12.9072 37.0384 12.6785 36.51 12.6698 35.9554C12.5981 35.2504 12.2157 34.8441 11.6541 34.8859C11.0925 34.9278 10.7221 35.4236 10.7699 36.1346C10.8477 37.1444 11.3014 38.0883 12.0415 38.7797C12.7816 39.4711 13.7541 39.8597 14.7668 39.8686C15.7926 39.8833 16.7831 39.4945 17.525 38.7861C18.267 38.0776 18.7011 37.1062 18.7339 36.0808C18.7848 35.5411 18.7243 34.9966 18.556 34.4813C18.3877 33.9659 18.1152 33.4907 17.7555 33.085C17.3958 32.6794 16.9566 32.352 16.4651 32.1233C15.9735 31.8945 15.4402 31.7693 14.8983 31.7553C14.5939 31.7559 14.2928 31.6927 14.0144 31.5699C13.7359 31.4472 13.4862 31.2674 13.2814 31.0423C13.0765 30.8172 12.9211 30.5518 12.825 30.263C12.7289 29.9742 12.6944 29.6685 12.7236 29.3655C12.7756 28.8368 13.0231 28.3466 13.4176 27.9908C13.8121 27.635 14.3252 27.4392 14.8564 27.4418C15.3774 27.4603 15.8727 27.6727 16.2451 28.0375C16.6176 28.4022 16.8404 28.8929 16.8698 29.4133C16.9415 30.1303 17.312 30.5365 17.8676 30.5126C18.4232 30.4887 18.7996 30.0347 18.7697 29.3177C18.718 28.3021 18.2805 27.3444 17.5465 26.6405C16.8126 25.9365 15.8376 25.5393 14.8206 25.5299ZM24.1288 33.6433H24.7681C25.8017 33.6433 26.8353 33.6433 27.8688 33.6433C28.0057 33.6628 28.1451 33.6524 28.2775 33.6128C28.41 33.5732 28.5322 33.5054 28.6359 33.414C28.7396 33.3226 28.8222 33.2098 28.8781 33.0834C28.934 32.957 28.9618 32.82 28.9596 32.6818C28.9574 32.5436 28.9253 32.4075 28.8654 32.2829C28.8056 32.1584 28.7194 32.0482 28.6129 31.9602C28.5064 31.8721 28.382 31.8082 28.2484 31.7728C28.1148 31.7375 27.9751 31.7315 27.839 31.7553H24.1109V27.9556H29.6014C30.3184 27.9556 30.7426 27.6031 30.7605 27.0355C30.7784 26.4679 30.3184 26.0557 29.5656 26.0497C27.7732 26.0497 25.9809 26.0497 24.1886 26.0497C23.9188 26.0318 23.6483 26.0721 23.3954 26.1678C23.1426 26.2635 22.9132 26.4125 22.7229 26.6045C22.5325 26.7965 22.3857 27.0272 22.2922 27.2809C22.1988 27.5346 22.1609 27.8054 22.1811 28.075C22.1811 31.1579 22.1811 34.2367 22.1811 37.3116C22.1609 37.5712 22.1955 37.8321 22.2829 38.0774C22.3703 38.3227 22.5084 38.5468 22.6882 38.7351C22.8681 38.9234 23.0856 39.0717 23.3266 39.1702C23.5677 39.2688 23.8267 39.3154 24.087 39.307C25.9331 39.307 27.7792 39.307 29.6253 39.307C29.7602 39.3237 29.8971 39.3121 30.0273 39.273C30.1574 39.2339 30.278 39.1682 30.3814 39.08C30.4848 38.9918 30.5687 38.883 30.6278 38.7606C30.6869 38.6382 30.7199 38.5049 30.7246 38.3691C30.7246 37.7716 30.3064 37.4131 29.6014 37.4072C28.5499 37.4072 27.4984 37.4072 26.4469 37.4072H24.1647C24.1647 37.2399 24.1288 37.1503 24.1288 37.0547V33.6433Z" fill="white"/>
<path id="Vector_4" d="M15.5256 7.3668C15.2657 7.35899 15.0192 7.24942 14.8393 7.06169C14.6594 6.87396 14.5604 6.62309 14.5637 6.36309C14.5554 6.22835 14.5751 6.09336 14.6214 5.96658C14.6678 5.8398 14.7398 5.72397 14.8331 5.62635C14.9263 5.52872 15.0387 5.45142 15.1632 5.39928C15.2877 5.34714 15.4216 5.32129 15.5566 5.32336C15.6916 5.32542 15.8247 5.35535 15.9475 5.41127C16.0704 5.46719 16.1804 5.5479 16.2706 5.64833C16.3608 5.74875 16.4293 5.86674 16.4717 5.99488C16.5142 6.12301 16.5297 6.25854 16.5173 6.39296C16.5126 6.65287 16.4061 6.90055 16.2206 7.08268C16.0351 7.26482 15.7855 7.36684 15.5256 7.3668Z" fill="white"/>
<path id="Vector_5" d="M24.1467 6.36959C24.154 6.50426 24.1334 6.63898 24.0861 6.7653C24.0389 6.89163 23.9661 7.00685 23.8723 7.10374C23.7785 7.20064 23.6657 7.27712 23.5409 7.3284C23.4162 7.37969 23.2822 7.40467 23.1474 7.40178C23.0125 7.3989 22.8798 7.36821 22.7573 7.31163C22.6349 7.25505 22.5255 7.17381 22.4359 7.07299C22.3463 6.97217 22.2785 6.85395 22.2367 6.72571C22.195 6.59748 22.1801 6.462 22.1931 6.32776C22.2169 6.08178 22.3328 5.85389 22.5176 5.68974C22.7023 5.52559 22.9422 5.43732 23.1893 5.44261C23.4364 5.4479 23.6723 5.54636 23.8499 5.71826C24.0274 5.89016 24.1335 6.12281 24.1467 6.36959Z" fill="white"/>
<path id="Vector_6" d="M7.91413 7.36724C7.65318 7.3641 7.40398 7.25822 7.22056 7.07257C7.03715 6.88692 6.9343 6.63646 6.93432 6.37548C6.93013 6.24203 6.95343 6.10914 7.00276 5.98508C7.0521 5.86101 7.12642 5.74841 7.22112 5.65428C7.31581 5.56015 7.42884 5.4865 7.5532 5.4379C7.67756 5.3893 7.81058 5.36679 7.944 5.37177C8.07293 5.37401 8.20009 5.40216 8.31792 5.45452C8.43575 5.50689 8.54185 5.58242 8.62991 5.67661C8.71798 5.7708 8.7862 5.88174 8.83053 6.00282C8.87486 6.12391 8.89439 6.25267 8.88797 6.38146C8.88799 6.64085 8.78577 6.88979 8.60347 7.07432C8.42118 7.25885 8.1735 7.3641 7.91413 7.36724Z" fill="white"/>
<path id="Vector_7" d="M41.2815 32.7171C41.2815 33.5894 41.2815 34.4616 41.2815 35.3399C41.2943 36.0836 41.0114 36.8021 40.4951 37.3375C39.9787 37.8729 39.271 38.1815 38.5273 38.1957C38.1541 38.2151 37.7809 38.1586 37.4302 38.0298C37.0794 37.901 36.7584 37.7025 36.4865 37.4462C36.2146 37.1899 35.9975 36.8812 35.8481 36.5387C35.6988 36.1962 35.6204 35.827 35.6177 35.4534C35.5619 33.6252 35.5619 31.799 35.6177 29.9748C35.6102 29.5925 35.68 29.2126 35.823 28.8579C35.9659 28.5032 36.1791 28.1811 36.4497 27.9109C36.7203 27.6406 37.0427 27.4279 37.3976 27.2854C37.7525 27.1429 38.1325 27.0736 38.5148 27.0817C38.8971 27.0897 39.2739 27.175 39.6224 27.3323C39.971 27.4896 40.2842 27.7158 40.5431 27.9971C40.8021 28.2785 41.0015 28.6093 41.1294 28.9697C41.2573 29.3301 41.3111 29.7126 41.2875 30.0943C41.2875 30.9666 41.2815 31.8448 41.2815 32.7171Z" fill="white"/>
</g>
<defs>
<clipPath id="clip0_1429_4833">
<rect width="53.3205" height="52.6781" fill="white" transform="translate(0.34259 0.31543)"/>
</clipPath>
</defs>
</svg>
