<svg width="63" height="65" viewBox="0 0 63 65" fill="none" xmlns="http://www.w3.org/2000/svg">
<g id="Insightful and Informed 1">
<path id="Vector" d="M29.096 48.9976H24.325C24.1708 49.0157 24.0223 49.0667 23.8895 49.1471C22.4154 49.9468 20.7752 50.392 19.099 50.4471C19.0096 50.4334 18.9183 50.4385 18.8309 50.4621C18.7435 50.4857 18.6621 50.5273 18.5917 50.5842C18.5213 50.6411 18.4636 50.712 18.4223 50.7925C18.3809 50.873 18.3568 50.9613 18.3515 51.0516C17.5672 54.0546 16.7655 57.0533 15.9465 60.0476C15.7885 60.6795 15.4142 61.236 14.8887 61.6208C14.3632 62.0056 13.7196 62.1943 13.0695 62.1541C12.4194 62.114 11.8039 61.8475 11.3297 61.401C10.8556 60.9545 10.5526 60.3561 10.4735 59.7096C10.4399 59.272 10.4839 58.8319 10.6035 58.4096C11.3749 55.4369 12.157 52.4903 12.95 49.5696C12.9886 49.4985 13.0121 49.4201 13.0191 49.3395C13.0262 49.2589 13.0166 49.1777 12.991 49.1009C12.9654 49.0242 12.9244 48.9535 12.8704 48.8932C12.8163 48.833 12.7505 48.7844 12.677 48.7506C11.2826 47.88 10.0982 46.7114 9.20903 45.3287C8.3198 43.9461 7.74777 42.3837 7.53401 40.7537C7.32024 39.1238 7.47005 37.4667 7.97267 35.9015C8.47529 34.3363 9.31825 32.9019 10.441 31.7011C10.688 31.4346 10.8505 31.2266 10.6685 30.8431C10.5837 30.6014 10.557 30.3431 10.5905 30.0891C10.6225 29.8305 10.5978 29.5681 10.5181 29.32C10.4384 29.0719 10.3057 28.8442 10.129 28.6526C9.53103 28.0026 9.73253 26.0006 10.3175 25.3246C10.3779 25.2413 10.4177 25.1448 10.4335 25.0431C10.4493 24.9414 10.4408 24.8374 10.4085 24.7396C10.1045 24.1915 9.7521 23.6716 9.35553 23.1861C6.87253 20.2611 6.10553 16.9591 7.36653 13.3386C8.62753 9.71812 11.2665 7.59912 14.9845 6.87112C17.0684 6.51077 19.2129 6.83771 21.0947 7.80264C22.9764 8.76757 24.4935 10.3182 25.417 12.2206C25.4777 12.3887 25.5937 12.5312 25.7461 12.6245C25.8986 12.7179 26.0782 12.7565 26.2555 12.7341C36.5125 12.7341 46.7695 12.7341 57.0265 12.7341C59.4055 12.7341 60.621 13.9496 60.621 16.3286V45.6761C60.6733 46.4223 60.4541 47.1623 60.0038 47.7595C59.5534 48.3568 58.9023 48.7711 58.1705 48.9261C57.8235 48.9913 57.4703 49.0175 57.1175 49.0041H42.4405C42.7395 49.6541 42.9995 50.1676 43.266 50.7071C43.695 51.5716 44.1435 52.4231 44.566 53.3071C44.6221 53.4712 44.7345 53.6102 44.8832 53.6994C45.0319 53.7886 45.2073 53.8223 45.3785 53.7946C46.2235 53.7946 47.0685 53.7946 47.9135 53.7946C48.5772 53.7946 49.2138 54.0583 49.6831 54.5276C50.1524 54.9969 50.416 55.6334 50.416 56.2971C50.416 56.9608 50.1524 57.5973 49.6831 58.0666C49.2138 58.536 48.5772 58.7996 47.9135 58.7996C39.8405 58.7996 31.7697 58.7996 23.701 58.7996C23.3657 58.8136 23.031 58.7598 22.7169 58.6415C22.4028 58.5231 22.1159 58.3427 21.8731 58.1109C21.6304 57.8791 21.4369 57.6007 21.3043 57.2924C21.1716 56.9841 21.1025 56.6522 21.101 56.3166C21.0937 55.9809 21.1551 55.6473 21.2814 55.3362C21.4077 55.0252 21.5962 54.7432 21.8354 54.5076C22.0747 54.272 22.3595 54.0878 22.6725 53.9664C22.9855 53.8449 23.32 53.7886 23.6555 53.8011C24.559 53.8011 25.4625 53.8011 26.3725 53.8011C26.5673 53.7673 26.7518 53.6895 26.912 53.5736C26.9835 53.5281 27.003 53.4046 27.0485 53.3136L29.096 48.9976ZM55.8825 17.4531H35.518C35.3234 17.4694 35.1277 17.4694 34.933 17.4531C34.7142 17.4342 34.5104 17.3339 34.3619 17.1721C34.2134 17.0102 34.131 16.7985 34.131 16.5789C34.131 16.3592 34.2134 16.1475 34.3619 15.9857C34.5104 15.8238 34.7142 15.7235 34.933 15.7046C35.1105 15.6916 35.2886 15.6916 35.466 15.7046H56.3115C57.4685 15.7046 57.6765 15.9126 57.6765 17.0761V44.6946C57.6765 45.8581 57.475 46.0596 56.305 46.0596H28.3095C27.9409 46.0305 27.5738 46.1317 27.2721 46.3455C26.9704 46.5593 26.7533 46.8722 26.6585 47.2296H57.085C58.385 47.2296 58.8465 46.7876 58.8465 45.4551V16.2831C58.8465 14.9831 58.398 14.5086 57.0785 14.5086H26.2685C26.2685 14.6516 26.2685 14.7101 26.2685 14.7621C26.5585 16.2595 26.4932 17.8041 26.0778 19.2717C25.6623 20.7393 24.9084 22.0889 23.8765 23.2121C23.5801 23.5518 23.3085 23.9124 23.064 24.2911C22.7845 24.7201 22.479 25.1556 23.103 25.5911C23.1831 25.6641 23.2478 25.7522 23.2936 25.8504C23.3393 25.9486 23.3651 26.0549 23.3695 26.1631C23.3695 27.1251 23.675 28.1131 22.96 28.9386C23.7855 29.4651 24.5915 29.9851 25.417 30.4791C25.5025 30.5147 25.5942 30.533 25.6868 30.533C25.7794 30.533 25.871 30.5147 25.9565 30.4791C32.1165 28.0058 37.8941 24.6705 43.1165 20.5731C43.2595 20.4626 43.383 20.3261 43.5585 20.1701C43.4777 20.1414 43.3952 20.1176 43.3115 20.0986C42.551 20.0336 42.174 19.7151 42.2065 19.1691C42.239 18.6231 42.668 18.3176 43.409 18.3306C44.15 18.3436 44.982 18.3631 45.775 18.3956C46.425 18.3956 46.7695 18.7271 46.7695 19.3771C46.7695 20.2806 46.7695 21.1841 46.698 22.0876C46.7025 22.1973 46.6845 22.3067 46.6451 22.4091C46.6058 22.5116 46.546 22.6049 46.4693 22.6834C46.3926 22.7619 46.3007 22.8239 46.1992 22.8657C46.0977 22.9074 45.9888 22.928 45.879 22.9261C45.763 22.9368 45.646 22.9236 45.5353 22.8873C45.4245 22.8509 45.3224 22.7923 45.2353 22.7149C45.1482 22.6375 45.0778 22.5431 45.0287 22.4374C44.9795 22.3317 44.9526 22.2171 44.9495 22.1006C44.9495 21.8926 44.9495 21.6846 44.904 21.3856C39.4899 25.7194 33.4976 29.2766 27.1005 31.9546C27.2127 32.3289 27.4635 32.6463 27.8017 32.842C28.14 33.0377 28.5401 33.0969 28.9205 33.0076C29.6456 32.9621 30.3729 32.9621 31.098 33.0076C31.748 33.0076 32.0535 33.3326 32.0535 33.9631C32.0535 36.7971 32.0535 39.6311 32.0535 42.4651C32.0535 43.1151 31.7155 43.4206 31.0525 43.4401C30.6003 43.4726 30.1463 43.4726 29.694 43.4401C29.044 43.3621 28.771 43.6546 28.706 44.2656H55.8825V17.4531ZM14.198 24.9216C14.198 24.7396 14.159 24.6616 14.146 24.5836C13.509 21.5503 12.8742 18.5299 12.2415 15.5226C12.1755 15.3241 12.1832 15.1084 12.2632 14.915C12.3432 14.7217 12.4901 14.5636 12.677 14.4696C12.8579 14.3643 13.0712 14.3293 13.2762 14.3713C13.4812 14.4132 13.6636 14.5292 13.7885 14.6971C14.12 15.0611 14.4385 15.4316 14.77 15.8021L16.6225 17.8691C17.578 16.7966 18.4815 15.7891 19.3785 14.7686C19.4981 14.5738 19.687 14.4315 19.9073 14.3704C20.1276 14.3094 20.3629 14.3341 20.5657 14.4396C20.7685 14.5451 20.9237 14.7236 21.0001 14.939C21.0766 15.1545 21.0685 15.3909 20.9775 15.6006C20.529 17.6156 20.1065 19.6371 19.6775 21.6521C19.45 22.7181 19.229 23.7841 18.9885 24.9021C19.567 24.9021 20.061 24.9021 20.5485 24.9021C20.6272 24.8909 20.7022 24.8616 20.7676 24.8165C20.833 24.7714 20.8871 24.7117 20.9255 24.6421C21.3884 23.5581 22.0251 22.5569 22.8105 21.6781C24.923 18.9806 25.326 16.0101 23.779 12.9486C23.1405 11.543 22.0868 10.3666 20.7598 9.57755C19.4328 8.78853 17.896 8.42475 16.356 8.53512C14.8088 8.52324 13.2949 8.9844 12.017 9.85683C10.7392 10.7293 9.75839 11.9713 9.20603 13.4166C7.90603 16.4781 8.48453 19.3186 10.558 21.9186C11.1835 22.7768 11.7649 23.6663 12.3 24.5836C12.3406 24.6618 12.3967 24.731 12.4649 24.7869C12.533 24.8427 12.6119 24.8842 12.6965 24.9086C13.171 24.9476 13.6585 24.9216 14.198 24.9216ZM12.4235 32.3186C10.7465 33.5016 9.32953 36.2836 9.23853 38.6366C9.09558 40.4759 9.50167 42.3163 10.4054 43.9247C11.3091 45.533 12.6697 46.8371 14.315 47.6716C15.004 48.0616 15.121 48.3216 14.926 49.0561C14.549 50.4796 14.1655 51.9031 13.7885 53.3266L12.3 59.0206C12.2178 59.2454 12.2177 59.492 12.2998 59.7168C12.3818 59.9417 12.5408 60.1302 12.7485 60.2491C12.9184 60.3738 13.1274 60.4333 13.3375 60.4165C13.5475 60.3998 13.7445 60.3081 13.8925 60.1581C14.1151 59.9132 14.2717 59.6157 14.3475 59.2936C15.225 56.0436 16.083 52.8456 16.9475 49.6216C17.1555 48.8416 17.4025 48.6856 18.215 48.7051C19.8689 48.8066 21.5191 48.4547 22.9876 47.6872C24.4561 46.9198 25.6872 45.7659 26.548 44.3501C27.2623 43.2274 27.7297 41.9656 27.9191 40.6485C28.1086 39.3314 28.0159 37.9891 27.6471 36.7106C27.2783 35.4321 26.6418 34.2466 25.78 33.2327C24.9181 32.2189 23.8505 31.3999 22.648 30.8301L22.3555 31.4346L23.0055 31.7726C24.5787 32.6739 25.8314 34.0436 26.589 35.6908C27.3466 37.338 27.5712 39.1806 27.2317 40.9616C26.8921 42.7425 26.0052 44.3732 24.6947 45.626C23.3842 46.8789 21.7153 47.6916 19.9209 47.9508C18.1264 48.21 16.2958 47.9027 14.6844 47.0718C13.0729 46.241 11.7608 44.928 10.9312 43.3159C10.1016 41.7037 9.79567 39.8729 10.0562 38.0787C10.3167 36.2844 11.1307 34.6162 12.3845 33.3066C12.4584 33.2485 12.5187 33.175 12.5614 33.0913C12.6041 33.0075 12.6281 32.9155 12.6319 32.8216C12.6356 32.7277 12.6189 32.6341 12.5829 32.5473C12.5469 32.4604 12.4926 32.3824 12.4235 32.3186ZM21.621 26.7416H11.65V27.5151H21.621V26.7416ZM12.391 30.1541H20.841V29.3611H12.391V30.1541ZM18.891 32.0001H14.341C14.5071 32.4668 14.8182 32.868 15.2287 33.1452C15.6392 33.4224 16.1276 33.561 16.6225 33.5406C17.1176 33.562 17.6066 33.4239 18.0173 33.1465C18.428 32.8692 18.7388 32.4674 18.904 32.0001H18.891ZM28.8425 34.8016C29.7553 36.9458 29.9978 39.316 29.538 41.6006H30.2335V34.8016H28.8425Z" fill="white"/>
<path id="Vector_2" d="M2.61502 15.6855C3.04402 15.6855 3.47952 15.6855 3.91502 15.6855C4.15419 15.6802 4.38582 15.7693 4.55978 15.9335C4.73374 16.0978 4.83603 16.3239 4.84452 16.563C4.8437 16.6816 4.8192 16.7988 4.77244 16.9079C4.72569 17.0169 4.65763 17.1154 4.57225 17.1978C4.48688 17.2801 4.38591 17.3446 4.27528 17.3874C4.16465 17.4302 4.04659 17.4504 3.92802 17.447C3.06135 17.447 2.19469 17.447 1.32802 17.447C1.206 17.4575 1.08313 17.4425 0.967198 17.403C0.851269 17.3635 0.744813 17.3003 0.654579 17.2175C0.564344 17.1347 0.492302 17.0341 0.443018 16.9219C0.393735 16.8098 0.368286 16.6887 0.368286 16.5662C0.368286 16.4437 0.393735 16.3226 0.443018 16.2105C0.492302 16.0984 0.564344 15.9977 0.654579 15.9149C0.744813 15.8321 0.851269 15.7689 0.967198 15.7294C1.08313 15.69 1.206 15.675 1.32802 15.6855C1.75052 15.6725 2.17952 15.6855 2.61502 15.6855Z" fill="white"/>
<path id="Vector_3" d="M30.7925 9.09924C30.6522 9.32691 30.4767 9.53094 30.2725 9.70374C29.5835 10.1522 28.8555 10.5487 28.1405 10.9517C28.0368 11.0228 27.9195 11.0714 27.796 11.0945C27.6724 11.1177 27.5454 11.1148 27.4231 11.086C27.3007 11.0573 27.1857 11.0033 27.0854 10.9276C26.9851 10.8518 26.9017 10.756 26.8405 10.6462C26.779 10.5393 26.7408 10.4206 26.7283 10.2979C26.7158 10.1751 26.7293 10.0512 26.7679 9.93401C26.8066 9.81686 26.8695 9.70917 26.9525 9.61798C27.0356 9.52678 27.137 9.45412 27.25 9.40474C27.9715 8.96924 28.6995 8.54024 29.4405 8.14374C29.5909 8.05293 29.7645 8.00794 29.9401 8.01426C30.1156 8.02058 30.2855 8.07795 30.429 8.17934C30.5725 8.28073 30.6833 8.42174 30.7478 8.58513C30.8124 8.74851 30.8279 8.92717 30.7925 9.09924Z" fill="white"/>
<path id="Vector_4" d="M3.19997 7.91797C3.422 7.98543 3.63917 8.06795 3.84997 8.16497C4.58447 8.58097 5.31897 8.99697 6.04047 9.43247C6.14934 9.48014 6.24712 9.54992 6.32761 9.63737C6.4081 9.72482 6.46954 9.82804 6.50804 9.94048C6.54654 10.0529 6.56126 10.1721 6.55126 10.2906C6.54126 10.409 6.50677 10.5241 6.44997 10.6285C6.39498 10.739 6.31712 10.8366 6.22156 10.9147C6.12599 10.9929 6.01491 11.0498 5.89567 11.0818C5.77643 11.1137 5.65176 11.12 5.52993 11.1001C5.40809 11.0802 5.29187 11.0347 5.18897 10.9665C4.41547 10.544 3.64847 10.0955 2.89447 9.66647C2.8041 9.62458 2.72293 9.5652 2.65565 9.49176C2.58836 9.41832 2.53629 9.33228 2.50244 9.2386C2.4686 9.14492 2.45365 9.04547 2.45846 8.94598C2.46327 8.84649 2.48775 8.74894 2.53047 8.65897C2.71413 8.37895 2.93996 8.129 3.19997 7.91797Z" fill="white"/>
<path id="Vector_5" d="M6.51501 23.1148C6.39093 23.3294 6.23035 23.5208 6.04051 23.6803C5.31251 24.1418 4.55851 24.5708 3.80451 24.9803C3.70514 25.0486 3.59275 25.0958 3.47435 25.1187C3.35595 25.1417 3.23409 25.14 3.11637 25.1138C2.99865 25.0876 2.8876 25.0374 2.79016 24.9663C2.69271 24.8952 2.61096 24.8048 2.55001 24.7008C2.48805 24.6005 2.44723 24.4887 2.43006 24.3721C2.41289 24.2556 2.41974 24.1367 2.45018 24.0229C2.48061 23.909 2.534 23.8026 2.60705 23.7102C2.68011 23.6177 2.77129 23.5412 2.87501 23.4853C3.62901 23.0238 4.38951 22.5753 5.16951 22.1853C5.84551 21.8148 6.54101 22.2373 6.51501 23.1148Z" fill="white"/>
<path id="Vector_6" d="M45.619 33.5134V24.8424C45.619 23.8869 45.8985 23.6074 46.841 23.6074C47.7835 23.6074 48.6155 23.6074 49.4995 23.6074C50.2145 23.6074 50.5655 23.9389 50.5655 24.6474C50.5655 30.5711 50.5655 36.4904 50.5655 42.4054C50.5655 43.1074 50.208 43.4259 49.4865 43.4324C48.596 43.4324 47.712 43.4324 46.828 43.4324C45.944 43.4324 45.619 43.1464 45.619 42.2429V33.5134ZM47.4325 25.3949V41.5994H48.7325V25.3494L47.4325 25.3949Z" fill="white"/>
<path id="Vector_7" d="M44.4035 35.1005V41.919C44.4035 43.2515 44.2215 43.4335 42.863 43.4335C42.0765 43.4335 41.29 43.4335 40.5035 43.4335C39.717 43.4335 39.47 43.102 39.47 42.374C39.47 37.5207 39.47 32.6652 39.47 27.8075C39.47 27.047 39.769 26.7545 40.549 26.748H43.2595C44.1045 26.748 44.397 27.0405 44.4035 27.8855C44.41 30.284 44.4035 32.6825 44.4035 35.1005ZM42.5965 41.6395V28.555H41.2965V41.6395H42.5965Z" fill="white"/>
<path id="Vector_8" d="M33.3015 36.5823V31.1613C33.3015 30.0953 33.5485 29.8613 34.6015 29.8613H37.1365C37.858 29.8613 38.1895 30.1798 38.1895 30.9013C38.1895 34.7363 38.1895 38.5692 38.1895 42.3998C38.1895 43.1213 37.8515 43.4268 37.1235 43.4333C36.2005 43.4333 35.2775 43.4333 34.3545 43.4333C33.5875 43.4333 33.2755 43.1213 33.2755 42.3608C33.3015 40.4368 33.3015 38.5063 33.3015 36.5823ZM35.1215 31.6618V41.6328H36.4215V31.6618H35.1215Z" fill="white"/>
<path id="Vector_9" d="M30.669 15.6855C31.1045 15.6855 31.54 15.6855 31.969 15.6855C32.2017 15.6855 32.4249 15.7779 32.5895 15.9425C32.7541 16.107 32.8465 16.3302 32.8465 16.563C32.8465 16.7957 32.7541 17.0189 32.5895 17.1835C32.4249 17.348 32.2017 17.4405 31.969 17.4405C31.0655 17.4405 30.1555 17.4405 29.2585 17.4405C29.028 17.4388 28.8075 17.3465 28.6445 17.1835C28.4815 17.0205 28.3892 16.7999 28.3875 16.5695C28.3926 16.331 28.4919 16.1042 28.6636 15.9386C28.8353 15.773 29.0655 15.682 29.304 15.6855C29.7655 15.6725 30.2205 15.6855 30.669 15.6855Z" fill="white"/>
<path id="Vector_10" d="M27.4385 21.9707C27.6382 22.0094 27.834 22.066 28.0235 22.1397C28.81 22.5817 29.5965 23.0237 30.3635 23.4917C30.5628 23.6061 30.7088 23.7947 30.7696 24.0163C30.8305 24.2379 30.8014 24.4745 30.6885 24.6747C30.6342 24.774 30.5608 24.8616 30.4724 24.9324C30.3841 25.0032 30.2826 25.0559 30.1739 25.0873C30.0651 25.1187 29.9512 25.1283 29.8388 25.1155C29.7263 25.1027 29.6174 25.0678 29.5185 25.0127C28.706 24.5772 27.913 24.1157 27.12 23.6347C27.0305 23.5912 26.9505 23.5302 26.8849 23.4553C26.8192 23.3805 26.7692 23.2933 26.7377 23.1988C26.7062 23.1044 26.6939 23.0046 26.7015 22.9053C26.7091 22.806 26.7365 22.7093 26.782 22.6207C26.9185 22.3477 27.25 22.1592 27.4385 21.9707Z" fill="white"/>
</g>
</svg>
