<svg width="50" height="50" viewBox="0 0 50 50" fill="none" xmlns="http://www.w3.org/2000/svg">
<g id="top quality 1">
<path id="Vector" d="M32.4308 37.5311C30.7249 37.1729 29.3943 37.8382 28.1661 38.9129C27.7627 39.2569 27.3372 39.5741 26.8923 39.8625C26.1839 40.3659 25.3345 40.6326 24.4655 40.6245C23.5964 40.6163 22.7522 40.3337 22.0533 39.817C21.2459 39.2484 20.4839 38.6058 19.648 38.1111C19.1704 37.8238 18.6338 37.6488 18.0786 37.5993C17.1404 37.514 16.1851 37.5993 15.2355 37.5993C14.3016 37.6396 13.3819 37.3609 12.6275 36.8091C11.8731 36.2572 11.3289 35.4651 11.0845 34.5629C10.7831 33.6701 10.55 32.7433 10.1861 31.879C9.97629 31.3856 9.65746 30.9463 9.25352 30.5939C8.51999 29.9684 7.69548 29.4566 6.92215 28.888C6.13852 28.3635 5.5571 27.5876 5.27385 26.6882C4.9906 25.7888 5.02244 24.8198 5.36411 23.9409C5.64843 23.0425 5.93274 22.1384 6.2398 21.2456C6.44426 20.713 6.44426 20.1235 6.2398 19.5909C5.92137 18.7039 5.64274 17.7997 5.35843 16.9013C5.03746 16.0222 5.02166 15.0608 5.31356 14.1716C5.60547 13.2825 6.1881 12.5175 6.96764 11.9997C7.71254 11.4311 8.50294 10.9591 9.19666 10.3507C9.6286 9.96971 9.97375 9.50045 10.2088 8.97464C10.5841 8.09327 10.8172 7.14366 11.1243 6.22817C11.389 5.36644 11.9262 4.61392 12.6553 4.08377C13.3844 3.55362 14.2659 3.2745 15.1672 3.28836C16.1567 3.28836 17.1461 3.33954 18.1298 3.28836C18.6608 3.24113 19.1741 3.07392 19.631 2.79934C20.4555 2.29327 21.2061 1.66209 21.9908 1.09346C22.7138 0.534622 23.6017 0.231445 24.5155 0.231445C25.4293 0.231445 26.3172 0.534622 27.0402 1.09346C27.8249 1.66209 28.5755 2.27621 29.4 2.79934C29.858 3.07144 30.3708 3.23846 30.9012 3.28836C31.8622 3.36229 32.8345 3.28836 33.8012 3.28836C34.7138 3.26239 35.6095 3.53801 36.3496 4.07255C37.0898 4.60709 37.633 5.37073 37.8953 6.24522C38.208 7.16072 38.4639 8.10464 38.8108 8.9917C39.0341 9.50076 39.366 9.95488 39.7831 10.3223C40.511 10.9535 41.3355 11.4595 42.1145 12.0282C42.8559 12.5407 43.4097 13.2811 43.6919 14.137C43.9742 14.9929 43.9693 15.9176 43.6782 16.7705C43.3939 17.7144 43.0243 18.6356 42.7912 19.6137C42.6717 20.1338 42.6717 20.6743 42.7912 21.1944C43.0186 22.127 43.3598 23.0311 43.6669 23.9523C43.9773 24.8223 43.9899 25.7707 43.7027 26.6487C43.4156 27.5266 42.8449 28.2843 42.0804 28.8027C41.2672 29.4054 40.4257 29.9399 39.6467 30.5995C39.3126 30.8764 39.0527 31.2321 38.8904 31.6344C38.5151 32.5954 38.2365 33.5848 37.9067 34.5629C37.6561 35.4217 37.1314 36.175 36.4128 36.7078C35.6941 37.2407 34.8209 37.5238 33.9263 37.514C33.4372 37.5425 32.9369 37.5311 32.4308 37.5311ZM17.4247 28.325C17.3847 28.57 17.4175 28.8214 17.519 29.048C17.6205 29.2745 17.7863 29.4663 17.9958 29.5995C18.2053 29.7327 18.4493 29.8015 18.6975 29.7973C18.9457 29.7931 19.1873 29.7162 19.3922 29.576C20.9616 28.7761 22.5234 27.9554 24.0776 27.1139C24.2137 27.0248 24.3728 26.9774 24.5354 26.9774C24.698 26.9774 24.8571 27.0248 24.9931 27.1139C26.5057 27.9384 28.0353 28.7231 29.5421 29.5305C29.7505 29.6738 29.9937 29.7579 30.2461 29.7739C30.4984 29.7899 30.7503 29.7372 30.9751 29.6215C31.5096 29.3144 31.6916 28.7856 31.5437 27.9611C31.2537 26.2552 30.9751 24.6062 30.668 22.9344C30.6313 22.7856 30.6381 22.6294 30.6875 22.4842C30.7368 22.3391 30.8268 22.2112 30.9467 22.1156C32.2204 20.8931 33.477 19.6535 34.7394 18.4195C34.9394 18.2615 35.0863 18.046 35.1605 17.8021C35.2347 17.5582 35.2326 17.2975 35.1545 17.0548C35.0769 16.8078 34.9271 16.5896 34.7244 16.4285C34.5217 16.2674 34.2754 16.1706 34.0172 16.1507C32.3114 15.9119 30.5657 15.639 28.8371 15.4115C28.6652 15.4007 28.4998 15.3416 28.36 15.241C28.2202 15.1404 28.1116 15.0024 28.0467 14.8429C27.3131 13.3133 26.5455 11.795 25.8006 10.2654C25.7186 9.99599 25.5522 9.76004 25.326 9.59237C25.0997 9.4247 24.8255 9.33419 24.5439 9.33419C24.2623 9.33419 23.9881 9.4247 23.7619 9.59237C23.5356 9.76004 23.3692 9.99599 23.2872 10.2654C22.5423 11.795 21.7747 13.3076 21.0127 14.8429C20.9484 15.0028 20.8399 15.1411 20.7 15.2418C20.5601 15.3425 20.3944 15.4013 20.2223 15.4115C18.5563 15.6276 16.9016 15.9005 15.2355 16.1223C14.9398 16.1156 14.6494 16.202 14.4056 16.3693C14.1617 16.5367 13.9766 16.7765 13.8765 17.0548C13.6547 17.7315 14.0243 18.1921 14.4451 18.5958C15.5369 19.6478 16.5831 20.7452 17.709 21.7517C17.9706 21.9485 18.1655 22.221 18.2672 22.5322C18.3689 22.8434 18.3725 23.1783 18.2776 23.4917C17.9251 25.1293 17.6863 26.784 17.4247 28.325Z" fill="white"/>
<path id="Vector_2" d="M29.6274 40.739C29.9075 40.4155 30.2584 40.161 30.653 39.9953C31.0475 39.8297 31.4749 39.7572 31.902 39.7838C33.0415 39.8667 34.1869 39.8132 35.3137 39.6245C36.37 39.4338 37.356 38.9642 38.1698 38.2644C38.9836 37.5645 39.5956 36.6599 39.9423 35.6441C40.221 34.9447 40.437 34.2169 40.6702 33.4947C41.0853 32.221 41.0853 32.221 42.3249 31.4932C42.3932 31.5255 42.4564 31.5676 42.5125 31.6183C44.408 33.5137 46.3034 35.4091 48.1988 37.3045C48.376 37.4508 48.5092 37.6433 48.5838 37.8606C48.6584 38.078 48.6714 38.3117 48.6214 38.536C48.5713 38.7602 48.4602 38.9663 48.3003 39.1313C48.1405 39.2963 47.938 39.4139 47.7155 39.471C45.9243 40.1932 44.1274 40.9039 42.3192 41.5863C42.1255 41.6523 41.95 41.7628 41.8068 41.909C41.6636 42.0552 41.5567 42.2329 41.4947 42.4279C40.8199 44.2513 40.1243 46.05 39.4078 47.8241C38.9984 48.8477 38.009 49.1036 37.2471 48.3473C34.7053 45.8339 32.1863 43.2751 29.6274 40.739Z" fill="white"/>
<path id="Vector_3" d="M19.3922 40.7554L16.9186 43.2176C15.2127 44.9235 13.5637 46.5895 11.8692 48.2556C11.0163 49.1086 10.0326 48.8925 9.59471 47.7723C8.87255 45.9754 8.1902 44.1729 7.45098 42.3874C7.3108 42.0768 7.06211 41.8281 6.75157 41.688C5.0002 40.9658 3.23177 40.3005 1.47471 39.6125C0.200984 39.1121 0.00765118 38.1625 0.980004 37.1844L6.66628 31.4697C7.33726 31.9531 8.07079 32.2715 8.26981 33.2097C8.46844 34.0482 8.73858 34.8682 9.07726 35.6605C9.49882 36.8409 10.2674 37.8663 11.2822 38.602C12.297 39.3377 13.5106 39.7494 14.7635 39.7831C15.5393 39.8484 16.3192 39.8484 17.0949 39.7831C17.5283 39.7431 17.9649 39.8109 18.3657 39.9806C18.7665 40.1502 19.1192 40.4164 19.3922 40.7554Z" fill="white"/>
<path id="Vector_4" d="M28.6664 26.2163C27.5292 25.6476 26.5057 25.1131 25.5049 24.5445C25.2064 24.3498 24.8577 24.2461 24.5012 24.2461C24.1448 24.2461 23.7961 24.3498 23.4976 24.5445C22.5025 25.1131 21.4733 25.6135 20.3531 26.2049C20.5749 24.8971 20.7568 23.72 20.9843 22.5486C21.0578 22.2395 21.0435 21.9161 20.943 21.6147C20.8425 21.3133 20.6599 21.0459 20.4157 20.8427C19.5855 20.0182 18.8008 19.1369 17.9819 18.2669L20.2564 17.9143C22.6788 17.5675 22.2921 17.7835 23.3327 15.7137L24.47 13.3994C25.0386 14.4969 25.5447 15.4635 25.9768 16.4757C26.1134 16.8606 26.365 17.1943 26.6977 17.4313C27.0303 17.6683 27.4278 17.7972 27.8362 17.8006C28.9223 17.8916 29.997 18.1076 31.0149 18.2612C30.2188 19.1027 29.4682 19.9671 28.6323 20.7631C28.3511 20.9994 28.1436 21.3116 28.0348 21.6624C27.9259 22.0132 27.9201 22.388 28.0182 22.742C28.2855 23.8622 28.4504 24.9767 28.6664 26.2163Z" fill="white"/>
</g>
</svg>
