<svg width="92" height="92" viewBox="0 0 92 92" fill="none" xmlns="http://www.w3.org/2000/svg">
<g id="Social Media Management 1">
<path id="Vector" d="M45.9448 62.0348C45.7673 62.0498 45.5888 62.0498 45.4112 62.0348L43.3596 61.6392V32.6316C41.5212 32.4209 39.7439 31.8425 38.1335 30.931C36.5231 30.0196 35.1125 28.7935 33.9855 27.3258C32.8586 25.8581 32.0383 24.1787 31.5735 22.3875C31.1087 20.5964 31.0089 18.7301 31.28 16.8996C31.7958 13.7161 33.4277 10.8202 35.8837 8.73006C38.3397 6.63996 41.4594 5.49219 44.6844 5.49219C47.9094 5.49219 51.0291 6.63996 53.4851 8.73006C55.9411 10.8202 57.573 13.7161 58.0888 16.8996C58.361 18.7356 58.26 20.6077 57.7919 22.4038C57.3237 24.1999 56.4981 25.8831 55.3643 27.3527C54.2306 28.8223 52.812 30.0481 51.1935 30.9567C49.575 31.8653 47.7898 32.4381 45.9448 32.6408V62.0348ZM40.8572 25.7592L52.5044 19.0432L40.8572 12.318V25.7592Z" fill="white"/>
<path id="Vector_2" d="M25.1712 81.8247V68.8803C26.0176 68.7975 26.8456 68.6871 27.6828 68.6227C29.9999 68.4145 32.2552 67.7616 34.3252 66.6999C35.7328 66.0007 37.168 65.3751 38.5848 64.7035C40.3852 63.8094 42.4517 63.6096 44.39 64.1423C46.6624 64.7403 48.99 65.2187 51.2256 65.8443C52.0643 66.0935 52.859 66.4722 53.5808 66.9667C53.8363 67.1254 54.049 67.3442 54.2003 67.6042C54.3515 67.8641 54.4368 68.1571 54.4486 68.4576C54.4604 68.7581 54.3984 69.0569 54.268 69.3279C54.1375 69.5988 53.9426 69.8337 53.7004 70.0119C53.3673 70.2966 52.9783 70.5084 52.5584 70.6335C52.1385 70.7587 51.697 70.7945 51.2624 70.7387C47.84 70.4627 44.344 70.1959 40.8848 69.9199C39.4588 69.8003 38.778 70.0947 38.6768 71.0055C38.5756 71.9163 39.1828 72.4407 40.6456 72.5511C44.1048 72.8087 47.564 73.0817 51.0232 73.3699C52.2619 73.4965 53.5088 73.2259 54.5836 72.5971C57.5828 70.8062 60.5851 69.0153 63.5904 67.2243C65.6696 66.0007 67.758 64.7955 69.8556 63.5443C70.384 63.2126 71 63.0475 71.6234 63.0705C72.2469 63.0934 72.8491 63.3034 73.3516 63.6731C73.8445 63.9632 74.2269 64.409 74.4384 64.9404C74.65 65.4718 74.6787 66.0584 74.52 66.6079C74.3497 67.3626 73.9239 68.0353 73.3148 68.5123C65.9548 72.9651 58.5948 77.5559 50.8208 81.2635C48.0608 82.5607 45.3008 82.5423 42.4304 82.2571C37.5084 81.7695 32.5864 81.2083 27.6184 81.5947C26.8272 81.6591 26.0268 81.7419 25.1712 81.8247Z" fill="white"/>
<path id="Vector_3" d="M29.0168 51.2535C30.8568 53.0107 32.6968 54.7586 34.5368 56.4607C34.8414 56.7076 35.0835 57.0229 35.2433 57.381C35.4032 57.7391 35.4763 58.1298 35.4568 58.5215C35.4108 59.9107 35.4016 61.2814 35.4568 62.689C35.5006 62.9692 35.4393 63.2556 35.2848 63.4933C35.1303 63.7311 34.8934 63.9033 34.6196 63.9771C34.0676 64.1887 33.5432 64.4739 32.7796 64.8234V62.7258C32.7796 61.493 32.7796 60.2511 32.7796 59.0459C32.7931 58.7141 32.6888 58.3882 32.4852 58.1259C30.7648 56.4423 29.0076 54.7955 27.2136 53.0935C25.5909 54.4399 23.6771 55.3903 21.6236 55.8693C19.5702 56.3483 17.4334 56.3429 15.3824 55.8535C12.2228 55.1525 9.43413 53.3076 7.55319 50.6739C5.67574 48.0442 4.79968 44.8302 5.08297 41.6115C5.36627 38.3928 6.79029 35.3813 9.09823 33.12C11.4062 30.8586 14.4461 29.4964 17.6699 29.2788C20.8937 29.0613 24.0892 30.0027 26.68 31.9335C28.1048 33.0465 29.2958 34.43 30.1847 36.0044C31.0737 37.5788 31.643 39.3133 31.8601 41.1082C32.0772 42.9032 31.9378 44.7233 31.4499 46.4643C30.962 48.2053 30.1351 49.8328 29.0168 51.2535ZM18.4 37.9227L18.1148 37.7203C17.4885 37.1537 16.6962 36.804 15.8556 36.7232C15.0149 36.6423 14.1705 36.8345 13.4477 37.2713C12.7249 37.7081 12.162 38.3662 11.8427 39.1481C11.5233 39.9299 11.4645 40.7939 11.6748 41.6119C12.5212 45.2367 14.9132 47.6379 18.0504 49.4043C18.1677 49.4562 18.2947 49.4831 18.423 49.4831C18.5513 49.4831 18.6783 49.4562 18.7956 49.4043C21.988 47.5643 24.426 45.1539 25.2356 41.4463C25.3479 40.9459 25.36 40.4283 25.2712 39.9233C25.1824 39.4183 24.9944 38.9359 24.7181 38.5039C24.4418 38.072 24.0827 37.699 23.6615 37.4066C23.2403 37.1142 22.7653 36.9081 22.264 36.8003C21.578 36.6333 20.8603 36.6491 20.1823 36.846C19.5043 37.0429 18.8898 37.4142 18.4 37.9227Z" fill="white"/>
<path id="Vector_4" d="M62.1184 53.1291C60.3612 54.8035 58.5856 56.4779 56.8468 58.1891C56.6588 58.4572 56.5709 58.7828 56.5984 59.1091C56.5984 61.0319 56.5984 62.9639 56.5984 64.8959C56.5984 65.1903 56.5984 65.4755 56.5432 65.8159C55.706 65.3283 54.97 64.8959 54.2708 64.4727C54.1788 64.385 54.106 64.2793 54.0569 64.1621C54.0078 64.045 53.9836 63.9189 53.9856 63.7919C53.9856 61.8875 53.9212 59.9831 53.9856 58.0879C54.0368 57.5626 54.2637 57.0699 54.6296 56.6895C56.2488 55.0611 57.9232 53.4971 59.5884 51.9147C59.8276 51.6939 60.1036 51.5099 60.3888 51.2799C59.0701 49.6464 58.1459 47.7308 57.6879 45.6821C57.23 43.6333 57.2507 41.5065 57.7484 39.4671C58.4805 36.3164 60.3515 33.5476 63.0016 31.6931C65.64 29.8089 68.8661 28.9324 72.0951 29.2223C75.3242 29.5122 78.3425 30.9494 80.6031 33.2734C82.8636 35.5974 84.2168 38.6543 84.4173 41.8902C84.6178 45.126 83.6524 48.3266 81.696 50.9119C80.5668 52.3577 79.1607 53.564 77.5598 54.46C75.959 55.356 74.1955 55.9239 72.3726 56.1303C70.5497 56.3368 68.704 56.1777 66.9433 55.6623C65.1826 55.147 63.5423 54.2858 62.1184 53.1291ZM65.4396 49.1271C65.5573 49.158 65.6773 49.1795 65.7984 49.1915C68.5584 49.1915 71.3184 49.1915 74.0784 49.1915C74.7109 49.1903 75.3369 49.0645 75.9208 48.8213C76.5046 48.5782 77.0349 48.2224 77.4813 47.7743C77.9276 47.3262 78.2814 46.7946 78.5223 46.2098C78.7632 45.6251 78.8866 44.9985 78.8854 44.3661C78.8842 43.7336 78.7584 43.1075 78.5153 42.5237C78.2721 41.9398 77.9163 41.4096 77.4683 40.9632C77.0202 40.5168 76.4886 40.1631 75.9038 39.9222C75.319 39.6812 74.6925 39.5579 74.06 39.5591C73.5356 39.5591 73.0112 39.5591 72.542 39.5591C72.4955 39.4521 72.4586 39.3413 72.4316 39.2279C72.4316 38.3815 72.4316 37.5443 72.4316 36.6979C72.4405 36.3378 72.3971 35.9783 72.3028 35.6307C72.1471 35.1701 71.8363 34.778 71.4235 34.5212C71.0107 34.2645 70.5215 34.1591 70.0396 34.2231C69.5508 34.2673 69.0947 34.4876 68.7562 34.843C68.4177 35.1984 68.2199 35.6647 68.1996 36.1551C68.1444 37.2591 68.1996 38.3631 68.1996 39.5407H65.4396V49.1271Z" fill="white"/>
<path id="Vector_5" d="M17.8756 66.4336H22.4756V85.5604H17.8756V66.4336Z" fill="white"/>
</g>
</svg>
