<svg width="45" height="45" viewBox="0 0 45 45" fill="none" xmlns="http://www.w3.org/2000/svg">
<g id="Group 38977">
<path id="Vector" d="M44.6908 23.1397V42.7647C44.6908 44.0797 44.0908 44.6797 42.7808 44.6797H23.1758V37.6797C23.7836 38.009 24.4543 38.206 25.1437 38.2577C25.8331 38.3094 26.5256 38.2147 27.1758 37.9797C28.1226 37.6395 28.9345 37.003 29.4908 36.1647C30.0517 35.3366 30.3393 34.3537 30.3133 33.3539C30.2873 32.3541 29.949 31.3875 29.3458 30.5897C27.9358 28.7647 25.9308 28.3297 23.2058 29.2847V23.1397H23.7708C25.9658 23.1397 28.1608 23.1397 30.3608 23.1397C31.4058 23.1397 32.0658 22.4297 31.8958 21.4897C31.8305 21.235 31.7259 20.9921 31.5858 20.7697C31.2558 20.2374 31.0962 19.617 31.1284 18.9915C31.1605 18.3661 31.3829 17.7653 31.7658 17.2697C32.1033 16.7663 32.5855 16.3769 33.1486 16.1529C33.7118 15.9288 34.3297 15.8807 34.9208 16.0147C35.5393 16.1132 36.1121 16.4014 36.5599 16.8393C37.0077 17.2773 37.3085 17.8435 37.4208 18.4597C37.5195 18.8622 37.5359 19.2805 37.4688 19.6895C37.4018 20.0985 37.2528 20.4897 37.0308 20.8397C36.3158 22.0647 36.9308 23.1547 38.3458 23.1647H44.6908V23.1397Z" fill="white"/>
<path id="Vector_2" d="M21.5109 21.54H15.1909C14.8473 21.4982 14.5003 21.5819 14.2136 21.7758C13.9269 21.9697 13.72 22.2606 13.6309 22.595C13.5823 22.823 13.5831 23.0587 13.6331 23.2864C13.6831 23.514 13.7812 23.7284 13.9209 23.915C14.2017 24.3952 14.3516 24.9407 14.3556 25.497C14.3597 26.0532 14.2178 26.6008 13.944 27.0851C13.6703 27.5694 13.2743 27.9733 12.7956 28.2567C12.3169 28.5401 11.7722 28.6929 11.216 28.7C10.6597 28.707 10.1114 28.568 9.62566 28.2968C9.13994 28.0257 8.73385 27.6319 8.44793 27.1547C8.16201 26.6775 8.00626 26.1336 7.99625 25.5775C7.98624 25.0213 8.1223 24.4722 8.39086 23.985C8.51412 23.7802 8.61791 23.5642 8.70086 23.34C8.76193 23.1548 8.78278 22.9588 8.76201 22.7649C8.74124 22.571 8.67932 22.3838 8.5804 22.2158C8.48148 22.0478 8.34784 21.9028 8.1884 21.7906C8.02896 21.6783 7.8474 21.6014 7.65586 21.565C7.44106 21.5298 7.22345 21.5148 7.00586 21.52H0.00585938V1.88C0.00585938 0.6 0.615859 0 1.90586 0H21.5109V6.185C20.8913 5.84659 20.2058 5.64633 19.5015 5.598C18.7972 5.54967 18.0908 5.6544 17.4309 5.905C16.489 6.258 15.6871 6.9072 15.1459 7.755C14.602 8.58878 14.3314 9.57129 14.3718 10.5659C14.4121 11.5606 14.7613 12.518 15.3709 13.305C16.7809 15.12 18.7359 15.54 21.5109 14.6V21.54Z" fill="white"/>
<path id="Vector_3" d="M44.6907 21.51H38.5557C39.6257 18.815 39.1657 16.545 36.6107 14.975C35.774 14.4921 34.808 14.2808 33.8461 14.3703C32.8842 14.4599 31.9738 14.8459 31.2407 15.475C29.5357 16.895 29.1707 18.785 30.0857 21.475H23.1457V20.975C23.1457 18.76 23.1457 16.55 23.1457 14.34C23.1457 13.28 22.3857 12.605 21.4457 12.81C21.181 12.8984 20.9276 13.0176 20.6907 13.165C20.1727 13.4563 19.5819 13.5923 18.9888 13.5569C18.3956 13.5214 17.8252 13.3159 17.3457 12.965C16.8505 12.6426 16.4615 12.1812 16.2276 11.6386C15.9936 11.096 15.9251 10.4964 16.0307 9.915C16.0959 9.3226 16.3341 8.76251 16.7155 8.30459C17.097 7.84667 17.6048 7.51119 18.1757 7.34C18.6358 7.18773 19.1246 7.14281 19.6047 7.20868C20.0849 7.27454 20.5436 7.44945 20.9457 7.72C21.1226 7.84397 21.326 7.92484 21.5397 7.95615C21.7535 7.98746 21.9716 7.96834 22.1766 7.90032C22.3816 7.8323 22.5679 7.71727 22.7205 7.56442C22.8732 7.41156 22.9879 7.22512 23.0557 7.02C23.1217 6.7655 23.1503 6.50275 23.1407 6.24C23.1407 4.37 23.1407 2.5 23.1407 0.63V0H42.8457C44.0907 0 44.7057 0.615 44.7057 1.87V21.51H44.6907ZM40.3807 7.17L37.8807 9.645C37.4207 10.11 37.3807 10.545 37.7257 10.91C38.0707 11.275 38.5557 11.22 38.9907 10.79C39.9807 9.84 40.9507 8.84 41.9157 7.88C42.4157 7.38 42.4157 6.99 41.9157 6.48C41.1407 5.695 40.3507 4.915 39.5707 4.135C39.3407 3.905 39.1157 3.665 38.8707 3.445C38.7977 3.36524 38.7092 3.3012 38.6106 3.2568C38.512 3.2124 38.4054 3.18858 38.2973 3.18678C38.1893 3.18499 38.0819 3.20526 37.9819 3.24636C37.8819 3.28746 37.7914 3.34852 37.7158 3.42582C37.6402 3.50311 37.5811 3.59501 37.5423 3.6959C37.5034 3.79679 37.4855 3.90454 37.4897 4.01257C37.4939 4.12061 37.5201 4.22665 37.5667 4.32421C37.6133 4.42177 37.6793 4.50881 37.7607 4.58C37.8757 4.705 38.0007 4.825 38.1257 4.945L40.3807 7.17ZM28.2607 7.17C29.1307 6.3 29.9607 5.48 30.7607 4.67C31.1907 4.24 31.2207 3.79 30.8757 3.44C30.5307 3.09 30.0757 3.11 29.6457 3.535C28.6457 4.535 27.6457 5.535 26.6457 6.535C26.5343 6.6112 26.4432 6.71342 26.3802 6.83278C26.3173 6.95214 26.2844 7.08505 26.2844 7.22C26.2844 7.35495 26.3173 7.48786 26.3802 7.60722C26.4432 7.72659 26.5343 7.8288 26.6457 7.905L28.9257 10.185C29.2007 10.46 29.4657 10.745 29.7607 11.005C29.9107 11.1327 30.1031 11.1998 30.3 11.193C30.4969 11.1862 30.6842 11.1061 30.8251 10.9683C30.966 10.8306 31.0503 10.6451 31.0615 10.4484C31.0727 10.2517 31.01 10.0579 30.8857 9.905C30.7751 9.77444 30.6565 9.65087 30.5307 9.535L28.2607 7.17ZM32.7307 11.03C32.702 11.2432 32.7583 11.4591 32.8874 11.6312C33.0164 11.8033 33.208 11.9178 33.4207 11.95C33.5292 11.9624 33.6391 11.9526 33.7438 11.9212C33.8484 11.8898 33.9455 11.8374 34.0292 11.7672C34.113 11.6971 34.1816 11.6106 34.2308 11.5131C34.28 11.4156 34.3089 11.309 34.3157 11.2C34.8323 8.64667 35.3423 6.09167 35.8457 3.535C35.8855 3.42493 35.9018 3.3077 35.8934 3.19093C35.8851 3.07416 35.8522 2.96046 35.7971 2.8572C35.7419 2.75395 35.6656 2.66345 35.5732 2.59157C35.4808 2.5197 35.3743 2.46805 35.2607 2.44C34.7907 2.34 34.4107 2.63 34.2907 3.205C33.9807 4.74 33.6757 6.28 33.3657 7.815L32.7307 11.03Z" fill="white"/>
<path id="Vector_4" d="M15.41 23.1699H21.545V23.7199C21.545 25.6199 21.59 27.5249 21.545 29.4199C21.5127 29.7102 21.5659 30.0036 21.698 30.2641C21.8302 30.5245 22.0354 30.7408 22.2887 30.8863C22.5419 31.0317 22.8322 31.1001 23.1237 31.083C23.4153 31.0659 23.6955 30.964 23.93 30.7899C24.5679 30.382 25.3339 30.2238 26.0812 30.3456C26.8285 30.4674 27.5046 30.8606 27.98 31.4499C28.4662 32.0269 28.7318 32.7578 28.7294 33.5124C28.727 34.2669 28.4568 34.9961 27.9669 35.57C27.4771 36.1439 26.7993 36.5253 26.0545 36.6461C25.3097 36.767 24.5462 36.6195 23.9 36.2299C22.64 35.5049 21.565 36.1149 21.56 37.5649C21.56 39.7299 21.56 41.8949 21.56 44.0649V44.6799H1.89C0.605 44.6799 0 44.0749 0 42.7899V23.1749H7C6.65776 23.8019 6.45793 24.4966 6.41472 25.2095C6.37151 25.9225 6.48598 26.6362 6.75 27.2999C7.10165 28.208 7.7295 28.9828 8.545 29.5149C9.36404 30.0597 10.3304 30.3403 11.3139 30.3188C12.2973 30.2974 13.2505 29.9749 14.045 29.3949C14.9716 28.7019 15.612 27.6933 15.845 26.5599C16.07 25.6299 16.015 25.2299 15.41 23.1699ZM4.29 37.5199C5.175 36.6399 6.005 35.8199 6.825 35.0199C7.255 34.5899 7.29 34.1399 6.945 33.7899C6.86106 33.7081 6.76065 33.6452 6.65048 33.6052C6.5403 33.5653 6.42288 33.5493 6.30603 33.5583C6.18918 33.5673 6.07559 33.6011 5.97282 33.6574C5.87004 33.7137 5.78045 33.7913 5.71 33.8849C4.71 34.8849 3.71 35.8849 2.71 36.8599C2.60272 36.9351 2.51513 37.035 2.45466 37.1512C2.39419 37.2674 2.36262 37.3964 2.36262 37.5274C2.36262 37.6584 2.39419 37.7875 2.45466 37.9037C2.51513 38.0199 2.60272 38.1198 2.71 38.1949C3.68333 39.1949 4.66333 40.1749 5.65 41.1349C6.11 41.5949 6.55 41.6349 6.915 41.2899C7.28 40.9449 7.24 40.4749 6.79 40.0199C6.225 39.4449 5.65 38.8699 5.075 38.3049C4.845 38.0299 4.59 37.7949 4.29 37.5199ZM16.42 37.4799C16.275 37.6349 16.165 37.7599 16.045 37.8799C15.31 38.6149 14.545 39.3449 13.835 40.0949C13.6845 40.2408 13.5981 40.4405 13.5948 40.65C13.5915 40.8596 13.6716 41.0619 13.8175 41.2124C13.9634 41.3629 14.1631 41.4493 14.3726 41.4526C14.5822 41.4559 14.7845 41.3758 14.935 41.2299C16 40.1899 17.055 39.1299 18.105 38.0649C18.1806 38.0013 18.2425 37.9229 18.2869 37.8347C18.3314 37.7464 18.3574 37.65 18.3635 37.5513C18.3696 37.4527 18.3556 37.3538 18.3223 37.2608C18.289 37.1677 18.2372 37.0824 18.17 37.0099C17.0833 35.8966 15.9833 34.7966 14.87 33.7099C14.7212 33.5795 14.5276 33.5119 14.3299 33.5212C14.1323 33.5306 13.9459 33.6161 13.81 33.7599C13.6818 33.8913 13.6044 34.0639 13.5916 34.2471C13.5787 34.4302 13.6313 34.612 13.74 34.7599C13.8375 34.8816 13.9445 34.9953 14.06 35.0999L16.42 37.4799ZM8.79 41.3399C8.77445 41.4437 8.7796 41.5496 8.80517 41.6514C8.83073 41.7532 8.8762 41.8489 8.93896 41.9331C9.00171 42.0172 9.0805 42.0881 9.17079 42.1416C9.26108 42.1951 9.36107 42.2302 9.465 42.2449C9.57315 42.2633 9.68395 42.2589 9.79028 42.2319C9.8966 42.2048 9.99607 42.1558 10.0823 42.088C10.1685 42.0201 10.2395 41.935 10.2908 41.838C10.3421 41.741 10.3725 41.6344 10.38 41.5249L11.94 33.7549C11.9739 33.6476 11.9852 33.5344 11.9732 33.4225C11.9613 33.3105 11.9262 33.2023 11.8703 33.1046C11.8144 33.0069 11.7389 32.9218 11.6485 32.8548C11.558 32.7877 11.4547 32.7401 11.345 32.7149C11.23 32.6851 11.1097 32.6812 10.993 32.7037C10.8763 32.7261 10.766 32.7743 10.6702 32.8447C10.5745 32.915 10.4956 33.0059 10.4393 33.1106C10.3831 33.2153 10.3508 33.3312 10.345 33.4499C10.035 34.9866 9.72667 36.5249 9.42 38.0649C9.225 39.1749 9.005 40.2849 8.79 41.3399Z" fill="white"/>
</g>
</svg>
