<svg width="60" height="60" viewBox="0 0 60 60" fill="none" xmlns="http://www.w3.org/2000/svg">
<g id="Artboard 1 copy 2 11">
<path id="Vector" d="M28.9323 38.7722C27.1236 38.4433 25.514 37.4233 24.4445 35.9281C23.3749 34.433 22.9294 32.5802 23.2023 30.7622C23.4175 29.5132 23.973 28.3477 24.8075 27.3938C25.642 26.4398 26.7234 25.7344 27.9327 25.3551C29.1421 24.9757 30.4326 24.9371 31.6625 25.2435C32.8923 25.5498 34.0139 26.1893 34.904 27.0916C35.7941 27.9939 36.4182 29.1241 36.7078 30.358C36.9974 31.592 36.9412 32.8818 36.5454 34.0859C36.1496 35.29 35.4295 36.3616 34.4643 37.1831C33.4991 38.0045 32.3261 38.544 31.0743 38.7422C32.507 38.7143 33.9277 39.0075 35.2323 39.6002C39.0663 41.4002 41.0763 44.4542 41.2323 48.6902C41.2803 49.9382 41.2323 51.1862 41.2323 52.4342C41.2446 52.9393 41.1543 53.4416 40.9671 53.9107C40.7798 54.3799 40.4994 54.8063 40.1427 55.1641C39.786 55.5219 39.3606 55.8036 38.892 55.9924C38.4234 56.1811 37.9214 56.2729 37.4163 56.2622C32.4563 56.2622 27.4943 56.2622 22.5303 56.2622C22.0304 56.2719 21.5336 56.181 21.0696 55.9947C20.6056 55.8084 20.1839 55.5306 19.8295 55.1779C19.4751 54.8252 19.1953 54.4047 19.0068 53.9416C18.8183 53.4785 18.7249 52.9822 18.7323 52.4822C18.6722 50.8235 18.7082 49.1628 18.8403 47.5082C19.1172 45.124 20.2529 42.9221 22.0351 41.3143C23.8174 39.7066 26.1242 38.8029 28.5243 38.7722C28.6563 38.7662 28.8003 38.7722 28.9323 38.7722Z" fill="white"/>
<path id="Vector_2" d="M46.2001 37.4038C47.1802 37.5404 48.1502 37.7409 49.1041 38.0038C50.7836 38.5619 52.2503 39.624 53.3046 41.0454C54.3589 42.4669 54.9495 44.1787 54.9961 45.9479C54.9961 46.9438 54.9961 47.9398 54.9961 48.9478C54.9794 49.8558 54.6202 50.7239 53.9904 51.3782C53.3606 52.0325 52.5068 52.4245 51.6001 52.4758C49.0441 52.5538 46.4881 52.4758 43.9261 52.4758C43.9261 52.4758 43.8601 52.4758 43.7641 52.3979C43.7641 51.2458 43.7641 50.0578 43.7641 48.8698C43.8176 46.043 42.8864 43.2856 41.1301 41.0698C40.5301 40.2898 39.7861 39.6119 39.0781 38.8559C40.5622 37.8951 42.303 37.4076 44.0701 37.4578C40.4701 36.0718 38.9101 33.7859 39.5161 30.6959C39.793 29.3913 40.5241 28.2275 41.5792 27.4118C42.6343 26.5961 43.9447 26.1816 45.2769 26.2421C46.6091 26.3027 47.8766 26.8343 48.8533 27.7423C49.8301 28.6503 50.4527 29.8756 50.6101 31.1999C51.0001 34.0438 49.2001 36.4619 46.2001 37.4038Z" fill="white"/>
<path id="Vector_3" d="M14.0757 37.5064C10.4097 36.1144 8.84967 33.7624 9.49167 30.6784C9.71117 29.6873 10.1943 28.774 10.8901 28.0349C11.5859 27.2958 12.4685 26.7584 13.4445 26.4795C14.4205 26.2006 15.4537 26.1906 16.435 26.4505C17.4162 26.7104 18.309 27.2306 19.019 27.9561C19.729 28.6815 20.2298 29.5854 20.4684 30.572C20.7071 31.5586 20.6748 32.5914 20.3749 33.5611C20.075 34.5309 19.5187 35.4017 18.7648 36.0813C18.0108 36.761 17.0872 37.2243 16.0917 37.4224C16.9213 37.5159 17.7448 37.6581 18.5577 37.8484C19.4159 38.133 20.259 38.4615 21.0837 38.8324C20.8557 39.0484 20.7537 39.1564 20.6457 39.2524C19.3017 40.3778 18.2151 41.7787 17.4594 43.3605C16.7038 44.9422 16.2967 46.6677 16.2657 48.4204C16.2297 49.7584 16.2657 51.1024 16.2657 52.5064H8.94568C8.42278 52.5394 7.89883 52.4613 7.40834 52.2771C6.91785 52.0929 6.47197 51.8068 6.10008 51.4377C5.72819 51.0687 5.43873 50.625 5.25078 50.1359C5.06283 49.6469 4.98066 49.1235 5.00968 48.6004C4.94662 47.1969 5.01694 45.7906 5.21967 44.4004C5.61469 42.4689 6.65971 40.7311 8.18058 39.4766C9.70145 38.2222 11.6063 37.5268 13.5777 37.5064H14.0757Z" fill="white"/>
<path id="Vector_4" d="M24.3721 15.984C24.8161 14.634 24.2642 13.482 23.2742 12.45C22.9115 12.0394 22.5748 11.6066 22.2661 11.154C21.4621 10.08 21.8461 8.94601 23.1421 8.56201C24.0961 8.28001 25.0622 8.03401 25.9982 7.71001C26.3515 7.57989 26.6627 7.35585 26.8982 7.06201C27.4982 6.24001 28.0982 5.35801 28.6982 4.51201C28.8302 4.27453 29.0233 4.07667 29.2575 3.93891C29.4917 3.80116 29.7584 3.72852 30.0301 3.72852C30.3019 3.72852 30.5686 3.80116 30.8028 3.93891C31.037 4.07667 31.2301 4.27453 31.3622 4.51201C31.9621 5.38801 32.5622 6.31201 33.1982 7.15801C33.3705 7.38415 33.6066 7.55343 33.8762 7.64401C34.8721 7.97401 35.8921 8.24401 36.8762 8.55001C38.1721 8.95201 38.5382 10.074 37.7282 11.154C37.1282 12 36.4261 12.816 35.8141 13.674C35.6423 13.9208 35.5483 14.2133 35.5442 14.514C35.5442 15.546 35.6041 16.584 35.6221 17.616C35.6221 19.008 34.6922 19.68 33.3662 19.218C32.4062 18.888 31.4581 18.516 30.4921 18.222C30.1691 18.1261 29.8252 18.1261 29.5021 18.222C28.5121 18.528 27.5522 18.906 26.5742 19.236C26.3249 19.3574 26.0475 19.4091 25.7712 19.3856C25.495 19.3621 25.2303 19.2643 25.0051 19.1025C24.78 18.9407 24.6028 18.721 24.4924 18.4667C24.3821 18.2124 24.3426 17.933 24.3782 17.658C24.3782 17.148 24.3721 16.62 24.3721 15.984Z" fill="white"/>
<path id="Vector_5" d="M7.13374 19.0805C7.52374 17.9285 6.96574 16.9385 6.10774 16.0265C5.80875 15.6889 5.53216 15.3321 5.27974 14.9585C5.14288 14.7913 5.05041 14.5923 5.01091 14.3799C4.9714 14.1675 4.98613 13.9485 5.05373 13.7433C5.12134 13.5381 5.23963 13.3533 5.39765 13.206C5.55567 13.0586 5.74831 12.9535 5.95774 12.9005C6.75574 12.6485 7.55974 12.4025 8.35774 12.1985C8.56513 12.1514 8.7606 12.0621 8.93197 11.9362C9.10333 11.8102 9.2469 11.6503 9.35374 11.4665C9.77974 10.7945 10.2417 10.1405 10.7037 9.48645C10.8128 9.27491 10.9779 9.09747 11.1811 8.97359C11.3844 8.84971 11.6177 8.78418 11.8557 8.78418C12.0937 8.78418 12.3271 8.84971 12.5303 8.97359C12.7335 9.09747 12.8987 9.27491 13.0077 9.48645C13.5057 10.1885 13.9617 10.9145 14.4777 11.5985C14.6641 11.8364 14.9136 12.0173 15.1977 12.1205C16.0257 12.4025 16.8777 12.6125 17.7117 12.8825C17.934 12.927 18.1404 13.0296 18.3102 13.1797C18.4799 13.3299 18.6069 13.5223 18.6782 13.7375C18.7495 13.9526 18.7626 14.1828 18.7162 14.4046C18.6697 14.6264 18.5654 14.832 18.4137 15.0005C17.8797 15.7205 17.3037 16.4165 16.7817 17.1425C16.633 17.3609 16.5479 17.6164 16.5357 17.8805C16.5357 18.7385 16.5957 19.5965 16.6077 20.4545C16.6077 21.6545 15.8217 22.2545 14.6817 21.8405C13.8897 21.5705 13.1097 21.2405 12.2817 21.0125C11.9949 20.9244 11.6889 20.9202 11.3997 21.0005C10.5777 21.2525 9.78574 21.6005 8.99974 21.8525C8.78767 21.9581 8.5507 22.0036 8.31457 21.984C8.07845 21.9645 7.85222 21.8805 7.66046 21.7413C7.46871 21.6022 7.31878 21.4131 7.22698 21.1947C7.13517 20.9762 7.10499 20.7368 7.13974 20.5025L7.13374 19.0805Z" fill="white"/>
<path id="Vector_6" d="M43.3804 19.1524C43.7464 17.9524 43.3024 17.0224 42.4804 16.1524C42.1695 15.8009 41.8809 15.4302 41.6164 15.0424C41.4489 14.8743 41.331 14.6632 41.2757 14.4324C41.2204 14.2015 41.2299 13.9599 41.3031 13.7341C41.3763 13.5083 41.5104 13.3071 41.6906 13.1526C41.8708 12.9981 42.0901 12.8963 42.3244 12.8584C43.1464 12.6064 43.9744 12.3964 44.7844 12.1144C45.0689 12.0119 45.3185 11.8309 45.5044 11.5924C46.0204 10.9084 46.4764 10.1824 46.9744 9.48044C47.0849 9.27063 47.2506 9.09498 47.4536 8.97245C47.6567 8.84992 47.8893 8.78516 48.1264 8.78516C48.3636 8.78516 48.5962 8.84992 48.7992 8.97245C49.0022 9.09498 49.1679 9.27063 49.2784 9.48044C49.7524 10.1524 50.1724 10.8544 50.6824 11.5024C50.9248 11.7983 51.2417 12.024 51.6004 12.1564C52.3684 12.4384 53.1724 12.6244 53.9524 12.8644C54.1865 12.9037 54.4055 13.0062 54.5855 13.1608C54.7656 13.3155 54.9 13.5164 54.9741 13.7419C55.0483 13.9674 55.0593 14.2089 55.0062 14.4402C54.953 14.6715 54.8376 14.8839 54.6724 15.0544C54.1864 15.7084 53.6944 16.3684 53.1724 16.9984C53.0365 17.1497 52.9332 17.3275 52.8692 17.5206C52.8052 17.7137 52.7818 17.9179 52.8004 18.1204C52.8544 18.9424 52.8604 19.7644 52.8664 20.5804C52.8914 20.8052 52.8565 21.0326 52.7654 21.2396C52.6742 21.4466 52.53 21.6259 52.3473 21.7592C52.1646 21.8926 51.95 21.9753 51.7251 21.9991C51.5001 22.0228 51.2729 21.9867 51.0664 21.8944C50.2204 21.6004 49.4104 21.2824 48.6004 21.0004C48.3124 20.9166 48.0064 20.9166 47.7184 21.0004C46.9024 21.2524 46.1044 21.6004 45.3184 21.8524C45.1049 21.9555 44.8675 21.9992 44.6312 21.9788C44.3949 21.9585 44.1685 21.8748 43.9757 21.7367C43.7829 21.5986 43.6309 21.411 43.5357 21.1939C43.4404 20.9767 43.4054 20.7378 43.4344 20.5024L43.3804 19.1524Z" fill="white"/>
</g>
</svg>
