<svg width="68" height="68" viewBox="0 0 68 68" fill="none" xmlns="http://www.w3.org/2000/svg">
<g id="Artboard 1 copy 21">
<path id="Vector" d="M33.9321 7.8204C39.0835 7.80695 44.1231 9.32188 48.4132 12.1735C52.7034 15.0251 56.0512 19.0852 58.0331 23.8401C60.015 28.595 60.542 33.8309 59.5472 38.8854C58.5525 43.9398 56.0807 48.5856 52.4448 52.2349C48.8089 55.8841 44.1722 58.3728 39.1214 59.3861C34.0706 60.3993 28.8328 59.8916 24.0707 57.9271C19.3086 55.9626 15.2362 52.6296 12.3689 48.3499C9.50165 44.0702 7.96829 39.0362 7.96289 33.8848C7.96464 26.9891 10.6982 20.3749 15.5653 15.49C20.4323 10.6051 27.0364 7.84738 33.9321 7.8204ZM37.7469 36.3328H46.6413C46.995 36.3389 47.3484 36.307 47.6953 36.2376C48.2065 36.1173 48.6647 35.834 49.0008 35.4304C49.3369 35.0268 49.5326 34.5249 49.5585 34.0004C49.6265 32.4432 48.5249 31.3756 46.8385 31.3688H32.9393C31.4773 31.3688 30.0153 31.3688 28.5533 31.3688C28.2178 31.3512 27.8822 31.4021 27.567 31.5184C27.2518 31.6346 26.9635 31.8138 26.7198 32.0451C26.4761 32.2764 26.282 32.5548 26.1494 32.8635C26.0168 33.1722 25.9484 33.5046 25.9484 33.8406C25.9484 34.1766 26.0168 34.509 26.1494 34.8177C26.282 35.1264 26.4761 35.4048 26.7198 35.6361C26.9635 35.8674 27.2518 36.0466 27.567 36.1629C27.8822 36.2791 28.2178 36.33 28.5533 36.3124C31.6337 36.3464 34.6801 36.3328 37.7469 36.3328ZM37.7469 22.012C34.6257 22.012 31.5045 22.012 28.3833 22.012C27.7537 22.0451 27.1608 22.3186 26.7269 22.7759C26.2929 23.2333 26.051 23.8397 26.051 24.4702C26.051 25.1007 26.2929 25.7071 26.7269 26.1645C27.1608 26.6218 27.7537 26.8953 28.3833 26.9284C34.6438 26.9284 40.9089 26.9284 47.1785 26.9284C47.5017 26.9213 47.8204 26.8505 48.1164 26.7202C48.4123 26.5899 48.6796 26.4026 48.9032 26.1689C49.1267 25.9353 49.302 25.6599 49.4191 25.3586C49.5362 25.0572 49.5928 24.7357 49.5857 24.4124C49.5785 24.0891 49.5078 23.7704 49.3775 23.4745C49.2472 23.1786 49.0599 22.9112 48.8262 22.6877C48.5926 22.4642 48.3172 22.2889 48.0158 22.1718C47.7145 22.0547 47.393 21.9981 47.0697 22.0052C43.9417 21.9984 40.8477 22.012 37.7469 22.012ZM37.7469 45.6964C40.8681 45.6964 43.9893 45.6964 47.1105 45.6964C47.4326 45.7028 47.7527 45.6443 48.0517 45.5244C48.3507 45.4046 48.6225 45.2257 48.8509 44.9985C49.0794 44.7714 49.2597 44.5006 49.3813 44.2022C49.5029 43.9039 49.5631 43.5841 49.5585 43.262C49.5641 42.9361 49.5037 42.6123 49.3812 42.3103C49.2586 42.0082 49.0762 41.734 48.8451 41.5041C48.6139 41.2742 48.3387 41.0934 48.036 40.9725C47.7332 40.8516 47.4092 40.793 47.0833 40.8004C40.8613 40.8004 34.6393 40.8004 28.4241 40.8004C27.8751 40.828 27.3449 41.0094 26.8941 41.324C26.4741 41.6216 26.1643 42.0497 26.013 42.5417C25.8617 43.0337 25.8774 43.5619 26.0577 44.044C26.2131 44.5214 26.5148 44.9378 26.9199 45.2344C27.3251 45.5309 27.8132 45.6925 28.3153 45.6964C31.4637 45.71 34.6053 45.6964 37.7469 45.6964ZM18.4417 33.8372C18.4381 34.1693 18.5003 34.4989 18.6247 34.8068C18.7491 35.1148 18.9333 35.395 19.1665 35.6315C19.3998 35.8679 19.6776 36.0558 19.9838 36.1844C20.2901 36.3129 20.6188 36.3795 20.9509 36.3804C21.2822 36.3831 21.6108 36.3205 21.9179 36.1962C22.225 36.0719 22.5046 35.8883 22.7408 35.6559C22.9769 35.4235 23.165 35.1469 23.2942 34.8419C23.4235 34.5368 23.4914 34.2093 23.4941 33.878C23.4968 33.5467 23.4342 33.2181 23.3099 32.911C23.1856 32.6039 23.002 32.3243 22.7696 32.0881C22.5372 31.852 22.2606 31.6639 21.9556 31.5346C21.6505 31.4054 21.323 31.3375 20.9917 31.3348C20.6593 31.3294 20.3292 31.3901 20.0205 31.5133C19.7118 31.6366 19.4307 31.8199 19.1934 32.0528C18.9562 32.2856 18.7675 32.5632 18.6385 32.8695C18.5094 33.1759 18.4425 33.5048 18.4417 33.8372ZM21.0325 40.7324C20.7009 40.7178 20.3698 40.7699 20.0587 40.8855C19.7476 41.0011 19.4628 41.178 19.2213 41.4056C18.9797 41.6332 18.7863 41.9069 18.6524 42.2106C18.5185 42.5143 18.4468 42.8417 18.4417 43.1736C18.4326 43.5055 18.4892 43.8359 18.6081 44.1459C18.727 44.4559 18.906 44.7393 19.1346 44.98C19.3633 45.2207 19.6373 45.4139 19.9408 45.5485C20.2443 45.6831 20.5714 45.7565 20.9033 45.7644C21.5738 45.7717 22.2202 45.5147 22.7026 45.0489C23.185 44.583 23.4644 43.946 23.4805 43.2756C23.4861 42.6158 23.233 41.98 22.7754 41.5045C22.3177 41.0291 21.6921 40.7519 21.0325 40.7324ZM20.9373 26.976C21.2683 26.9796 21.5967 26.9178 21.9038 26.7943C22.2108 26.6707 22.4905 26.4878 22.7268 26.256C22.963 26.0241 23.1512 25.748 23.2805 25.4433C23.4099 25.1386 23.4778 24.8114 23.4805 24.4804C23.472 23.821 23.209 23.1903 22.7465 22.7202C22.284 22.2501 21.6577 21.9768 20.9985 21.9576C20.6664 21.9522 20.3365 22.0126 20.0278 22.1354C19.7192 22.2581 19.4379 22.4408 19.2002 22.6728C18.9625 22.9048 18.7731 23.1816 18.6429 23.4871C18.5127 23.7927 18.4443 24.1211 18.4417 24.4532C18.4353 24.784 18.4953 25.1126 18.6181 25.4198C18.7409 25.727 18.9241 26.0064 19.1567 26.2416C19.3894 26.4768 19.6668 26.663 19.9727 26.7891C20.2785 26.9152 20.6065 26.9788 20.9373 26.976Z" fill="white"/>
</g>
</svg>
